<?xml version="1.0" encoding="utf-8"?>
<!-- Generator: Adobe Illustrator 25.0.0, SVG Export Plug-In . SVG Version: 6.00 Build 0)  -->
<svg version="1.1" id="Layer_1" xmlns="http://www.w3.org/2000/svg" xmlns:xlink="http://www.w3.org/1999/xlink" x="0px" y="0px"
	 viewBox="0 0 1411.6 119.9" style="enable-background:new 0 0 1411.6 119.9;" xml:space="preserve">
<style type="text/css">
	.st0{fill:#F4F2F0;}
</style>
<g>
	<g>
		<path class="st0" d="M9.9,10.8h10.4v98.3H9.9V10.8z"/>
		<path class="st0" d="M20.3,119H9.9c-5.5,0-9.9-4.4-9.9-9.9V10.8c0-5.5,4.4-9.9,9.9-9.9h10.4c5.5,0,9.9,4.4,9.9,9.9v98.3
			C30.3,114.6,25.8,119,20.3,119z"/>
	</g>
	<g>
		<path class="st0" d="M127.8,109.1l-22.5-31.6c-2.5,0.3-5.2,0.4-7.9,0.4H71v31.2H60.6V10.8h36.8c12.5,0,22.4,3,29.5,9
			c7.1,6,10.7,14.2,10.7,24.7c0,7.7-1.9,14.2-5.8,19.5c-3.9,5.3-9.4,9.1-16.6,11.4l24,33.7H127.8z M119.5,62.6
			c5.1-4.3,7.7-10.3,7.7-18.1c0-8-2.6-14.1-7.7-18.3c-5.2-4.3-12.6-6.4-22.3-6.4H71v49.3h26.1C106.9,69.1,114.3,66.9,119.5,62.6z"/>
		<path class="st0" d="M139.1,119h-11.4c-3.2,0-6.2-1.6-8.1-4.2l-19.2-27.1c-1,0-2,0.1-3,0.1H81v21.2c0,5.5-4.4,9.9-9.9,9.9H60.6
			c-5.5,0-9.9-4.4-9.9-9.9V10.8c0-5.5,4.4-9.9,9.9-9.9h36.8c14.9,0,27,3.8,35.9,11.3c9.4,7.9,14.2,18.8,14.2,32.3
			c0,9.8-2.6,18.3-7.8,25.3c-2.7,3.6-5.9,6.8-9.8,9.3l17.2,24.2c2.2,3,2.4,7,0.7,10.3S142.9,119,139.1,119z M81,59.1h16.2
			c7.3,0,12.7-1.4,16-4.1c1.8-1.5,4.2-4.2,4.2-10.5c0-6.5-2.4-9.2-4.1-10.7c-3.3-2.7-8.7-4.1-16-4.1H81V59.1z"/>
	</g>
	<g>
		<path class="st0" d="M237.6,109.1l-22.5-31.6c-2.5,0.3-5.2,0.4-7.9,0.4h-26.4v31.2h-10.4V10.8h36.8c12.5,0,22.4,3,29.5,9
			c7.1,6,10.7,14.2,10.7,24.7c0,7.7-1.9,14.2-5.8,19.5c-3.9,5.3-9.4,9.1-16.6,11.4l24,33.7H237.6z M229.3,62.6
			c5.1-4.3,7.7-10.3,7.7-18.1c0-8-2.6-14.1-7.7-18.3c-5.2-4.3-12.6-6.4-22.3-6.4h-26.1v49.3H207C216.7,69.1,224.2,66.9,229.3,62.6z"
			/>
		<path class="st0" d="M249,119h-11.4c-3.2,0-6.2-1.6-8.1-4.2l-19.2-27.1c-1,0-2,0.1-3,0.1h-16.5v21.2c0,5.5-4.4,9.9-9.9,9.9h-10.4
			c-5.5,0-9.9-4.4-9.9-9.9V10.8c0-5.5,4.4-9.9,9.9-9.9h36.8c14.9,0,27,3.8,35.9,11.3c9.4,7.9,14.2,18.8,14.2,32.3
			c0,9.8-2.6,18.3-7.8,25.3c-2.7,3.6-5.9,6.8-9.8,9.3l17.2,24.2c2.2,3,2.4,7,0.7,10.3S252.7,119,249,119z M190.8,59.1H207
			c7.3,0,12.7-1.4,16-4.1c1.8-1.5,4.2-4.2,4.2-10.5c0-6.5-2.4-9.2-4.1-10.7c-3.3-2.7-8.7-4.1-16-4.1h-16.2V59.1z"/>
	</g>
	<g>
		<path class="st0" d="M349.8,100.1v9h-69.5V10.8h67.4v9h-57v35h50.8v8.8h-50.8v36.5H349.8z"/>
		<path class="st0" d="M349.8,119h-69.5c-5.5,0-9.9-4.4-9.9-9.9V10.8c0-5.5,4.4-9.9,9.9-9.9h67.4c5.5,0,9.9,4.4,9.9,9.9v9
			c0,5.5-4.4,9.9-9.9,9.9h-47.1v15.1h40.9c5.5,0,9.9,4.4,9.9,9.9v8.8c0,5.5-4.4,9.9-9.9,9.9h-40.9v16.7h49.2c5.5,0,9.9,4.4,9.9,9.9
			v9C359.7,114.6,355.3,119,349.8,119z"/>
	</g>
	<g>
		<path class="st0" d="M451.2,59.9h10v37.5c-4.6,4-10,7.1-16.3,9.3c-6.3,2.2-12.9,3.2-19.8,3.2c-9.8,0-18.7-2.2-26.5-6.5
			c-7.9-4.3-14-10.3-18.5-17.9c-4.5-7.6-6.7-16.2-6.7-25.6c0-9.5,2.2-18,6.7-25.6c4.5-7.6,10.7-13.6,18.5-17.9
			c7.9-4.3,16.8-6.5,26.7-6.5c7.5,0,14.4,1.2,20.6,3.6c6.3,2.4,11.6,5.9,15.9,10.6l-6.5,6.6c-7.8-7.7-17.7-11.5-29.6-11.5
			c-8,0-15.1,1.8-21.6,5.3c-6.4,3.5-11.4,8.4-15.1,14.6c-3.7,6.2-5.5,13.2-5.5,20.9c0,7.7,1.8,14.6,5.5,20.8c3.7,6.2,8.7,11,15,14.6
			c6.4,3.6,13.5,5.3,21.5,5.3c10.1,0,18.7-2.5,25.7-7.6V59.9z"/>
		<path class="st0" d="M425.1,119.9c-11.5,0-22-2.6-31.3-7.7c-9.4-5.2-16.9-12.4-22.3-21.6c-5.4-9.1-8.1-19.5-8.1-30.7
			c0-11.2,2.7-21.5,8.1-30.7c5.4-9.2,12.9-16.4,22.3-21.6c9.3-5.1,19.9-7.7,31.5-7.7c8.7,0,16.8,1.4,24.2,4.2
			c7.7,2.9,14.3,7.4,19.6,13.2c3.6,3.9,3.5,9.9-0.2,13.7l-6.5,6.6c-1.8,1.9-4.4,3-7,3c-2.7,0-5.2-1-7.1-2.9
			c-5.9-5.8-13.3-8.7-22.7-8.7c-6.3,0-11.8,1.3-16.8,4c-4.9,2.7-8.6,6.2-11.3,10.9c-2.8,4.7-4.1,9.9-4.1,15.8
			c0,5.9,1.3,11.1,4.1,15.7c2.8,4.7,6.5,8.3,11.3,11c4.9,2.7,10.4,4.1,16.6,4.1c6.1,0,11.3-1.1,15.8-3.2V59.9c0-5.5,4.4-9.9,9.9-9.9
			h10c5.5,0,9.9,4.4,9.9,9.9v37.5c0,2.9-1.2,5.6-3.4,7.5c-5.5,4.9-12.1,8.6-19.6,11.2C440.8,118.6,433.1,119.9,425.1,119.9z"/>
	</g>
	<g>
		<path class="st0" d="M508.7,99C501.6,91.7,498,81,498,67.1V10.8h10.4v55.9c0,11.4,2.6,19.9,7.7,25.6c5.1,5.6,12.6,8.4,22.3,8.4
			c9.8,0,17.3-2.8,22.5-8.4c5.1-5.6,7.7-14.1,7.7-25.6V10.8h10.1v56.3c0,14-3.5,24.6-10.6,31.9c-7.1,7.3-17,11-29.7,11
			C525.7,109.9,515.8,106.3,508.7,99z"/>
		<path class="st0" d="M538.4,119.9c-15.5,0-27.9-4.7-36.9-14l0,0c-9-9.2-13.5-22.2-13.5-38.8V10.8c0-5.5,4.4-9.9,9.9-9.9h10.4
			c5.5,0,9.9,4.4,9.9,9.9v55.9c0,8.8,1.7,15.1,5.1,18.9c3.2,3.5,8.1,5.2,15,5.2c7,0,11.9-1.7,15.2-5.2c3.4-3.7,5.1-10,5.1-18.9V10.8
			c0-5.5,4.4-9.9,9.9-9.9h10.1c5.5,0,9.9,4.4,9.9,9.9v56.3c0,16.6-4.5,29.6-13.4,38.8C566.3,115.2,553.9,119.9,538.4,119.9z"/>
	</g>
	<g>
		<path class="st0" d="M618.4,10.8h10.4v89.3h55.1v9h-65.5V10.8z"/>
		<path class="st0" d="M683.8,119h-65.5c-5.5,0-9.9-4.4-9.9-9.9V10.8c0-5.5,4.4-9.9,9.9-9.9h10.4c5.5,0,9.9,4.4,9.9,9.9v79.4h45.1
			c5.5,0,9.9,4.4,9.9,9.9v9C693.7,114.6,689.3,119,683.8,119z"/>
	</g>
	<g>
		<path class="st0" d="M787.8,82.8H733l-11.8,26.3h-10.8l44.9-98.3h10.3l44.9,98.3h-11L787.8,82.8z M784,74.4l-23.6-52.8l-23.6,52.8
			H784z"/>
		<path class="st0" d="M810.6,119h-11c-3.9,0-7.5-2.3-9.1-5.9l-9.2-20.4h-41.9l-9.2,20.4c-1.6,3.6-5.1,5.9-9.1,5.9h-10.8
			c-3.4,0-6.5-1.7-8.4-4.6c-1.8-2.8-2.1-6.4-0.7-9.5l44.9-98.3c1.6-3.5,5.1-5.8,9-5.8h10.3c3.9,0,7.4,2.3,9,5.8l44.9,98.3
			c1.4,3.1,1.2,6.7-0.7,9.5C817.1,117.3,813.9,119,810.6,119z M752.1,64.5h16.6l-8.3-18.5L752.1,64.5z"/>
	</g>
	<g>
		<path class="st0" d="M906.5,109.1L884,77.5c-2.5,0.3-5.2,0.4-7.9,0.4h-26.4v31.2h-10.4V10.8h36.8c12.5,0,22.4,3,29.5,9
			c7.1,6,10.7,14.2,10.7,24.7c0,7.7-1.9,14.2-5.8,19.5S901,73,893.8,75.4l24,33.7H906.5z M898.2,62.6c5.2-4.3,7.7-10.3,7.7-18.1
			c0-8-2.6-14.1-7.7-18.3c-5.1-4.3-12.6-6.4-22.3-6.4h-26.1v49.3h26.1C885.6,69.1,893,66.9,898.2,62.6z"/>
		<path class="st0" d="M917.8,119h-11.4c-3.2,0-6.2-1.6-8.1-4.2l-19.2-27.1c-1,0-2,0.1-3,0.1h-16.5v21.2c0,5.5-4.4,9.9-9.9,9.9
			h-10.4c-5.5,0-9.9-4.4-9.9-9.9V10.8c0-5.5,4.4-9.9,9.9-9.9h36.8c14.9,0,27,3.8,35.9,11.3c9.4,7.9,14.2,18.8,14.2,32.3
			c0,9.8-2.6,18.3-7.8,25.3c-2.7,3.6-5.9,6.8-9.8,9.3l17.2,24.2c2.2,3,2.4,7,0.7,10.3S921.6,119,917.8,119z M859.7,59.1h16.2
			c7.3,0,12.7-1.4,16-4.1c0,0,0,0,0,0c1.8-1.5,4.2-4.2,4.2-10.5c0-6.5-2.4-9.2-4.1-10.7c-3.3-2.7-8.7-4.1-16-4.1h-16.2V59.1z"/>
	</g>
	<g>
		<path class="st0" d="M1076,10.8l-43.5,98.3h-10.3l-43.5-98.3h11.2l37.6,85.4l37.9-85.4H1076z"/>
		<path class="st0" d="M1032.5,119h-10.3c-3.9,0-7.5-2.3-9.1-5.9l-43.5-98.3c-1.4-3.1-1.1-6.6,0.8-9.4c1.8-2.8,5-4.5,8.3-4.5h11.2
			c3.9,0,7.5,2.3,9.1,5.9l28.6,64.9l28.8-64.9c1.6-3.6,5.2-5.9,9.1-5.9h10.5c3.4,0,6.5,1.7,8.3,4.5c1.8,2.8,2.1,6.4,0.8,9.4
			l-43.5,98.3C1039.9,116.7,1036.4,119,1032.5,119z"/>
	</g>
	<g>
		<path class="st0" d="M1176.9,100.1v9h-69.5V10.8h67.4v9h-57v35h50.8v8.8h-50.8v36.5H1176.9z"/>
		<path class="st0" d="M1176.9,119h-69.5c-5.5,0-9.9-4.4-9.9-9.9V10.8c0-5.5,4.4-9.9,9.9-9.9h67.4c5.5,0,9.9,4.4,9.9,9.9v9
			c0,5.5-4.4,9.9-9.9,9.9h-47.1v15.1h40.9c5.5,0,9.9,4.4,9.9,9.9v8.8c0,5.5-4.4,9.9-9.9,9.9h-40.9v16.7h49.2c5.5,0,9.9,4.4,9.9,9.9
			v9C1186.9,114.6,1182.4,119,1176.9,119z"/>
	</g>
	<g>
		<path class="st0" d="M1276.8,109.1l-22.5-31.6c-2.5,0.3-5.2,0.4-7.9,0.4h-26.4v31.2h-10.4V10.8h36.8c12.5,0,22.4,3,29.5,9
			c7.1,6,10.7,14.2,10.7,24.7c0,7.7-1.9,14.2-5.8,19.5c-3.9,5.3-9.4,9.1-16.6,11.4l24,33.7H1276.8z M1268.5,62.6
			c5.1-4.3,7.7-10.3,7.7-18.1c0-8-2.6-14.1-7.7-18.3c-5.1-4.3-12.6-6.4-22.3-6.4h-26.1v49.3h26.1
			C1255.9,69.1,1263.4,66.9,1268.5,62.6z"/>
		<path class="st0" d="M1288.2,119h-11.4c-3.2,0-6.2-1.6-8.1-4.2l-19.2-27.1c-1,0-2,0.1-3,0.1H1230v21.2c0,5.5-4.4,9.9-9.9,9.9
			h-10.4c-5.5,0-9.9-4.4-9.9-9.9V10.8c0-5.5,4.4-9.9,9.9-9.9h36.8c14.9,0,27,3.8,35.9,11.3c9.4,7.9,14.2,18.8,14.2,32.3
			c0,9.8-2.6,18.3-7.8,25.3c-2.7,3.7-5.9,6.8-9.8,9.3l17.2,24.2c2.2,3,2.4,7,0.7,10.3S1291.9,119,1288.2,119z M1230,59.1h16.2
			c7.3,0,12.7-1.4,16-4.1c0,0,0,0,0,0c1.8-1.5,4.2-4.2,4.2-10.5c0-6.5-2.4-9.2-4.1-10.7c-3.3-2.7-8.7-4.1-16-4.1H1230V59.1z"/>
	</g>
	<g>
		<path class="st0" d="M1396.4,66.7c3.5,4.2,5.3,9.5,5.3,16.1c0,8.4-3.1,14.9-9.3,19.5c-6.2,4.5-15.4,6.8-27.6,6.8h-45.2V10.8h42.4
			c11,0,19.5,2.2,25.5,6.6c6,4.4,9.1,10.6,9.1,18.7c0,5.4-1.3,10-4,13.8c-2.7,3.8-6.3,6.6-11,8.5
			C1387.9,59.8,1392.9,62.6,1396.4,66.7z M1329.9,19.3V55h31.3c8,0,14.1-1.5,18.4-4.6c4.3-3,6.5-7.5,6.5-13.3s-2.2-10.2-6.5-13.3
			c-4.3-3-10.4-4.6-18.4-4.6H1329.9z M1384.5,96c4.5-3,6.7-7.7,6.7-14c0-12.3-8.9-18.4-26.7-18.4h-34.7v36.9h34.7
			C1373.4,100.5,1380,99,1384.5,96z"/>
		<path class="st0" d="M1364.7,119h-45.2c-5.5,0-9.9-4.4-9.9-9.9V10.8c0-5.5,4.4-9.9,9.9-9.9h42.4c13,0,23.6,2.9,31.3,8.5
			c8.6,6.3,13.1,15.5,13.1,26.7c0,7.5-2,14.1-5.8,19.5c-0.2,0.3-0.4,0.5-0.6,0.8c1.4,1.2,2.8,2.5,4,4c0,0,0,0,0,0
			c5,6,7.6,13.6,7.6,22.5c0,11.6-4.6,21.1-13.4,27.5C1390.1,116.2,1379.2,119,1364.7,119z M1339.8,90.6h24.8
			c8.9,0,12.9-1.8,14.4-2.8l0,0c0.8-0.5,2.3-1.5,2.3-5.8c0-3,0-8.5-16.8-8.5h-24.8V90.6z M1339.8,45.1h21.4c5.7,0,10.1-0.9,12.7-2.7
			c1.1-0.8,2.3-1.9,2.3-5.2s-1.2-4.4-2.3-5.2c-2.5-1.8-6.9-2.7-12.7-2.7h-21.4V45.1z"/>
	</g>
</g>
</svg>
