<?xml version="1.0" encoding="utf-8"?>
<!-- Generator: Adobe Illustrator 25.0.0, SVG Export Plug-In . SVG Version: 6.00 Build 0)  -->
<svg version="1.1" id="Layer_3" xmlns="http://www.w3.org/2000/svg" xmlns:xlink="http://www.w3.org/1999/xlink" x="0px" y="0px"
	 viewBox="0 0 512 512" style="enable-background:new 0 0 512 512;" xml:space="preserve">
<style type="text/css">
	.st0{display:none;}
	.st1{display:inline;fill:#FF1C36;}
	.st2{display:inline;fill:#FEC600;}
	.st3{display:inline;fill:#1C5CFF;}
	.st4{display:inline;fill:#FFFFFF;}
	.st5{fill:#00C441;}
	.st6{fill:#FFFFFF;}
	.st7{fill:#FF1C36;}
	.st8{display:inline;}
</style>
<g class="st0">
	<path class="st1" d="M512,256c0,46.6-12.5,90.3-34.3,128c-44.3,76.5-127,128-221.7,128S78.5,460.5,34.3,384
		C12.5,346.3,0,302.6,0,256s12.5-90.3,34.3-128C78.5,51.5,161.2,0,256,0s177.5,51.5,221.7,128C499.5,165.7,512,209.4,512,256z"/>
	<path class="st2" d="M512,256c0,46.6-12.5,90.3-34.3,128H34.3C12.5,346.3,0,302.6,0,256s12.5-90.3,34.3-128h443.5
		C499.5,165.7,512,209.4,512,256z"/>
</g>
<g class="st0">
	<path class="st3" d="M170.3,14.7v482.6C71.1,462.1,0,367.3,0,256S71.1,49.9,170.3,14.7z"/>
	<path class="st4" d="M341.5,14.6v482.8C314.7,506.8,286,512,256,512c-29.9,0-58.6-5.1-85.2-14.5V14.5C197.4,5.1,226.1,0,256,0
		C286,0,314.7,5.1,341.5,14.6z"/>
	<path class="st1" d="M512,256c0,111.3-71,206-170.2,241.3V14.7C441,50,512,144.7,512,256z"/>
</g>
<g>
	<path class="st5" d="M170.3,14.7v482.6C71.1,462.1,0,367.3,0,256S71.1,49.9,170.3,14.7z"/>
	<path class="st6" d="M341.5,14.6v482.8C314.7,506.8,286,512,256,512c-29.9,0-58.6-5.1-85.2-14.5V14.5C197.4,5.1,226.1,0,256,0
		C286,0,314.7,5.1,341.5,14.6z"/>
	<path class="st7" d="M512,256c0,111.3-71,206-170.2,241.3V14.7C441,50,512,144.7,512,256z"/>
</g>
<g class="st0">
	<path class="st8" d="M497.3,170.3H14.7C49.9,71.1,144.7,0,256,0S462.1,71.1,497.3,170.3z"/>
	<path class="st1" d="M497.4,341.5H14.6C5.2,314.7,0,286,0,256c0-29.9,5.1-58.6,14.5-85.2h482.9c9.4,26.7,14.5,55.3,14.5,85.2
		C512,286,506.9,314.7,497.4,341.5z"/>
	<path class="st2" d="M256,512c-111.3,0-206-71-241.3-170.2h482.5C462,441,367.3,512,256,512z"/>
</g>
</svg>
