<?xml version="1.0" encoding="utf-8"?>
<!-- Generator: Adobe Illustrator 25.0.0, SVG Export Plug-In . SVG Version: 6.00 Build 0)  -->
<svg version="1.1" id="Layer_1" xmlns="http://www.w3.org/2000/svg" xmlns:xlink="http://www.w3.org/1999/xlink" x="0px" y="0px"
	 viewBox="0 0 876.3 119.9" style="enable-background:new 0 0 876.3 119.9;" xml:space="preserve">
<style type="text/css">
	.st0{fill:#F4F2F0;}
</style>
<g>
	<g>
		<path class="st0" d="M93.5,9.9v100h-8.7L20.5,28.8v81.1H9.9V9.9h8.7l64.4,81.1V9.9H93.5z"/>
		<path class="st0" d="M93.5,119.9h-8.7c-3,0-5.9-1.4-7.8-3.8L30.4,57.3v52.6c0,5.5-4.4,9.9-9.9,9.9H9.9c-5.5,0-9.9-4.4-9.9-9.9V9.9
			C0,4.4,4.4,0,9.9,0h8.7c3,0,5.9,1.4,7.8,3.8l46.7,58.8V9.9c0-5.5,4.4-9.9,9.9-9.9h10.4c5.5,0,9.9,4.4,9.9,9.9v100
			C103.4,115.4,99,119.9,93.5,119.9z"/>
	</g>
	<g>
		<path class="st0" d="M201.2,100.8v9.1h-70.7V9.9h68.6v9.1h-58v35.6h51.7v9h-51.7v37.1H201.2z"/>
		<path class="st0" d="M201.2,119.9h-70.7c-5.5,0-9.9-4.4-9.9-9.9V9.9c0-5.5,4.4-9.9,9.9-9.9h68.6c5.5,0,9.9,4.4,9.9,9.9v9.1
			c0,5.5-4.4,9.9-9.9,9.9H151v15.7h41.8c5.5,0,9.9,4.4,9.9,9.9v9c0,5.5-4.4,9.9-9.9,9.9H151v17.3h50.2c5.5,0,9.9,4.4,9.9,9.9v9.1
			C211.1,115.4,206.7,119.9,201.2,119.9z"/>
	</g>
	<g>
		<path class="st0" d="M377.4,9.9l-33.7,100h-11.1l-29.3-85.3l-29.4,85.3h-11l-33.7-100h10.9l28.9,86l29.9-86h9.9l29.4,86.4
			l29.3-86.4H377.4z"/>
		<path class="st0" d="M343.6,119.9h-11.1c-4.2,0-8-2.7-9.4-6.7l-19.9-58l-20,58c-1.4,4-5.2,6.7-9.4,6.7h-11c-4.3,0-8-2.7-9.4-6.8
			l-33.7-100c-1-3-0.5-6.4,1.3-9c1.9-2.6,4.9-4.1,8.1-4.1h10.9c4.3,0,8.1,2.7,9.4,6.8l19.6,58.4l20.3-58.5c1.4-4,5.2-6.7,9.4-6.7
			h9.9c4.3,0,8,2.7,9.4,6.7l20,58.8l19.9-58.7c1.4-4,5.1-6.7,9.4-6.7h10.1c3.2,0,6.2,1.5,8.1,4.1c1.9,2.6,2.4,5.9,1.3,9l-33.7,100
			C351.7,117.1,347.9,119.9,343.6,119.9z"/>
	</g>
	<g>
		<path class="st0" d="M536.2,9.9l-44.3,100h-10.4l-44.3-100h11.4l38.3,86.9l38.6-86.9H536.2z"/>
		<path class="st0" d="M491.9,119.9h-10.4c-3.9,0-7.5-2.3-9.1-5.9L428.1,14c-1.4-3.1-1.1-6.6,0.8-9.4c1.8-2.8,5-4.5,8.3-4.5h11.4
			c3.9,0,7.5,2.3,9.1,5.9L487,72.2l29.5-66.3c1.6-3.6,5.2-5.9,9.1-5.9h10.7c3.4,0,6.5,1.7,8.3,4.5c1.8,2.8,2.1,6.4,0.8,9.4L501,114
			C499.4,117.5,495.9,119.9,491.9,119.9z"/>
	</g>
	<g>
		<path class="st0" d="M637.8,100.8v9.1h-70.7V9.9h68.6v9.1h-58v35.6h51.7v9h-51.7v37.1H637.8z"/>
		<path class="st0" d="M637.8,119.9h-70.7c-5.5,0-9.9-4.4-9.9-9.9V9.9c0-5.5,4.4-9.9,9.9-9.9h68.6c5.5,0,9.9,4.4,9.9,9.9v9.1
			c0,5.5-4.4,9.9-9.9,9.9h-48.1v15.7h41.8c5.5,0,9.9,4.4,9.9,9.9v9c0,5.5-4.4,9.9-9.9,9.9h-41.8v17.3h50.2c5.5,0,9.9,4.4,9.9,9.9
			v9.1C647.7,115.4,643.3,119.9,637.8,119.9z"/>
	</g>
	<g>
		<path class="st0" d="M739.4,109.9l-22.9-32.1c-2.6,0.3-5.2,0.4-8,0.4h-26.9v31.7h-10.6V9.9h37.4c12.8,0,22.8,3,30,9.1
			c7.2,6.1,10.9,14.5,10.9,25.1c0,7.8-2,14.4-5.9,19.8c-4,5.4-9.6,9.3-16.9,11.6l24.4,34.3H739.4z M730.9,62.6
			c5.2-4.4,7.9-10.5,7.9-18.4c0-8.1-2.6-14.3-7.9-18.6c-5.2-4.3-12.8-6.5-22.7-6.5h-26.6v50.1h26.6C718.1,69.2,725.7,67,730.9,62.6z
			"/>
		<path class="st0" d="M750.9,119.9h-11.6c-3.2,0-6.2-1.6-8.1-4.2l-19.6-27.6c-1,0-2.1,0.1-3.1,0.1h-16.9v21.8
			c0,5.5-4.4,9.9-9.9,9.9h-10.6c-5.5,0-9.9-4.4-9.9-9.9V9.9c0-5.5,4.4-9.9,9.9-9.9h37.4c15.1,0,27.3,3.9,36.4,11.5
			c9.6,8,14.4,19.1,14.4,32.7c0,9.9-2.6,18.6-7.9,25.7c-2.8,3.7-6.1,6.9-10,9.6l17.6,24.7c2.2,3,2.4,7,0.7,10.3
			S754.6,119.9,750.9,119.9z M691.6,59.3h16.6c7.5,0,13-1.4,16.3-4.3l0,0c1.8-1.5,4.3-4.3,4.3-10.8c0-6.7-2.4-9.5-4.3-11
			c-3.4-2.8-8.9-4.2-16.4-4.2h-16.6V59.3z"/>
	</g>
	<g>
		<path class="st0" d="M861,66.9c3.6,4.2,5.4,9.7,5.4,16.4c0,8.6-3.2,15.2-9.5,19.8c-6.3,4.6-15.7,6.9-28.1,6.9h-46V9.9h43.1
			c11.1,0,19.8,2.2,25.9,6.7c6.1,4.5,9.2,10.8,9.2,19c0,5.5-1.4,10.2-4.1,14.1c-2.7,3.9-6.5,6.7-11.2,8.6
			C852.4,59.8,857.4,62.6,861,66.9z M793.4,18.6v36.3h31.9c8.1,0,14.3-1.5,18.7-4.6c4.4-3.1,6.6-7.6,6.6-13.5s-2.2-10.4-6.6-13.5
			c-4.4-3.1-10.6-4.6-18.7-4.6H793.4z M848.9,96.6c4.6-3,6.9-7.8,6.9-14.3c0-12.5-9.1-18.7-27.1-18.7h-35.3v37.6h35.3
			C837.6,101.2,844.4,99.7,848.9,96.6z"/>
		<path class="st0" d="M828.8,119.9h-46c-5.5,0-9.9-4.4-9.9-9.9V9.9c0-5.5,4.4-9.9,9.9-9.9h43.1c13.2,0,23.9,2.9,31.8,8.6
			c8.7,6.3,13.3,15.7,13.3,27c0,7.6-2,14.2-5.9,19.8c-0.2,0.3-0.4,0.6-0.7,0.9c1.5,1.2,2.9,2.6,4.1,4.1l0,0
			c5.1,6.1,7.7,13.7,7.7,22.8c0,11.7-4.7,21.3-13.6,27.8C854.6,117,843.5,119.9,828.8,119.9z M803.3,91.3h25.4
			c9.1,0,13.2-1.8,14.8-2.9c0.9-0.6,2.4-1.6,2.4-6c0-3.1,0-8.8-17.2-8.8h-25.4V91.3z M803.3,45h21.9c5.9,0,10.4-1,13-2.8
			c1.2-0.8,2.4-2,2.4-5.4s-1.2-4.6-2.4-5.4c-2.6-1.8-7.1-2.8-13-2.8h-21.9V45z"/>
	</g>
</g>
</svg>
