<?xml version="1.0" encoding="utf-8"?>
<svg version="1.1" id="Layer_1" xmlns="http://www.w3.org/2000/svg" xmlns:xlink="http://www.w3.org/1999/xlink" x="0px" y="0px"
	 viewBox="0 0 190.8 190.8" style="enable-background:new 0 0 190.8 190.8;" xml:space="preserve">
<path d="M95.4,0C42.7,0,0,42.7,0,95.4s42.7,95.4,95.4,95.4s95.4-42.7,95.4-95.4S148.1,0,95.4,0z M55,71.9l34.6-35.1
	c2.7-2.7,7-2.7,9.6,0l34.6,35.1c4.2,4.3,1.2,11.5-4.8,11.5H94.4H59.8C53.8,83.4,50.7,76.2,55,71.9z M134.1,118.9l-34.6,35.1
	c-2.7,2.7-7,2.7-9.6,0l-34.6-35.1c-4.2-4.3-1.2-11.5,4.8-11.5h34.6h34.6C135.3,107.4,138.3,114.7,134.1,118.9z"/>
</svg>
