<?xml version="1.0" encoding="utf-8"?>
<!-- Generator: Adobe Illustrator 25.0.0, SVG Export Plug-In . SVG Version: 6.00 Build 0)  -->
<svg version="1.1" id="Layer_1" xmlns="http://www.w3.org/2000/svg" xmlns:xlink="http://www.w3.org/1999/xlink" x="0px" y="0px"
	 viewBox="0 0 1858.8 119.9" style="enable-background:new 0 0 1858.8 119.9;" xml:space="preserve">
<style type="text/css">
	.st0{fill:#F4F2F0;}
</style>
<g>
	<g>
		<path class="st0" d="M25.5,106.4c-6.7-2.3-11.9-5.4-15.5-9.3l4.1-8c3.6,3.6,8.3,6.4,14.2,8.6c5.9,2.2,12,3.3,18.3,3.3
			c8.8,0,15.4-1.6,19.8-4.8c4.4-3.2,6.6-7.4,6.6-12.6c0-3.9-1.2-7.1-3.6-9.4c-2.4-2.3-5.3-4.1-8.8-5.4c-3.5-1.3-8.3-2.6-14.5-4.1
			c-7.4-1.9-13.3-3.7-17.7-5.4c-4.4-1.7-8.2-4.4-11.3-7.9c-3.1-3.6-4.7-8.4-4.7-14.5c0-5,1.3-9.5,3.9-13.6c2.6-4.1,6.6-7.3,12.1-9.8
			c5.4-2.4,12.2-3.7,20.2-3.7c5.6,0,11.1,0.8,16.5,2.3c5.4,1.5,10,3.7,14,6.4l-3.5,8.3c-4.1-2.7-8.5-4.8-13.2-6.1
			c-4.7-1.4-9.3-2-13.8-2c-8.6,0-15.1,1.7-19.5,5c-4.4,3.3-6.5,7.6-6.5,12.9c0,3.9,1.2,7.1,3.6,9.5c2.4,2.4,5.4,4.2,9,5.5
			c3.6,1.3,8.4,2.6,14.5,4.1c7.2,1.8,13,3.5,17.5,5.3c4.4,1.7,8.2,4.4,11.3,7.9c3.1,3.5,4.6,8.3,4.6,14.3c0,5-1.3,9.5-4,13.6
			c-2.7,4.1-6.8,7.3-12.3,9.7c-5.5,2.4-12.3,3.6-20.4,3.6C39.1,109.9,32.1,108.8,25.5,106.4z"/>
		<path class="st0" d="M46.4,119.9c-8.4,0-16.6-1.4-24.3-4.1C14,112.9,7.5,109,2.7,104c-2.9-3-3.6-7.6-1.7-11.3l4.1-8
			c1.4-2.8,4.2-4.8,7.3-5.3c3.1-0.5,6.3,0.5,8.6,2.8c2.5,2.5,6.1,4.7,10.6,6.4c4.8,1.8,9.7,2.7,14.8,2.7c8.7,0,12.4-1.8,13.9-2.9
			c2.1-1.6,2.5-2.9,2.5-4.6c0-1.7-0.4-2.2-0.6-2.3c-1.4-1.4-3.1-2.4-5.2-3.2c-3.1-1.1-7.6-2.4-13.4-3.8c0,0-0.1,0-0.1,0
			c-7.9-2-14.1-3.9-18.9-5.8c-5.9-2.3-10.9-5.9-15.1-10.6c-4.8-5.4-7.2-12.5-7.2-21C2.4,30,4.2,23.6,7.9,18
			c3.7-5.7,9.2-10.2,16.4-13.4C31,1.5,39.1,0,48.6,0c6.5,0,13,0.9,19.2,2.7c6.4,1.8,12.1,4.4,16.9,7.8c3.9,2.7,5.3,7.7,3.5,12
			l-3.5,8.3c-1.1,2.7-3.4,4.8-6.3,5.6c-2.8,0.9-5.9,0.4-8.3-1.2c-3.3-2.2-6.8-3.8-10.5-4.9c-3.8-1.1-7.5-1.6-11-1.6
			c-7.9,0-11.7,1.6-13.4,2.9c-2.2,1.7-2.6,3.2-2.6,5c0,1.8,0.5,2.3,0.7,2.5c1.3,1.3,3,2.4,5.2,3.1c3.3,1.2,7.9,2.5,13.6,3.9
			c7.7,1.9,13.8,3.8,18.7,5.7c5.9,2.3,11,5.9,15.2,10.6c4.7,5.4,7.1,12.4,7.1,20.8c0,6.9-1.9,13.3-5.6,19
			c-3.7,5.7-9.3,10.2-16.7,13.4C64,118.4,55.8,119.9,46.4,119.9z"/>
	</g>
	<g>
		<path class="st0" d="M140.7,19.8h-34.5v-9h79.5v9h-34.5v89.3h-10.4V19.8z"/>
		<path class="st0" d="M151.1,119h-10.4c-5.5,0-9.9-4.4-9.9-9.9V29.7h-24.6c-5.5,0-9.9-4.4-9.9-9.9v-9c0-5.5,4.4-9.9,9.9-9.9h79.5
			c5.5,0,9.9,4.4,9.9,9.9v9c0,5.5-4.4,9.9-9.9,9.9H161v79.4C161,114.6,156.6,119,151.1,119z"/>
	</g>
	<g>
		<path class="st0" d="M283,100.1v9h-69.5V10.8h67.4v9h-57v35h50.8v8.8h-50.8v36.5H283z"/>
		<path class="st0" d="M283,119h-69.5c-5.5,0-9.9-4.4-9.9-9.9V10.8c0-5.5,4.4-9.9,9.9-9.9h67.4c5.5,0,9.9,4.4,9.9,9.9v9
			c0,5.5-4.4,9.9-9.9,9.9h-47.1v15.1h40.9c5.5,0,9.9,4.4,9.9,9.9v8.8c0,5.5-4.4,9.9-9.9,9.9h-40.9v16.7H283c5.5,0,9.9,4.4,9.9,9.9v9
			C293,114.6,288.5,119,283,119z"/>
	</g>
	<g>
		<path class="st0" d="M417.9,10.8v98.3h-10V30.4l-38.6,66.2h-4.9l-38.6-65.7v78.2h-10V10.8h8.6L367,83.7l42.3-72.9H417.9z"/>
		<path class="st0" d="M417.9,119h-10c-5.5,0-9.9-4.4-9.9-9.9V67.1l-20.1,34.5c-1.8,3-5,4.9-8.6,4.9h-4.9c-3.5,0-6.8-1.9-8.6-4.9
			l-20.1-34.3v41.7c0,5.5-4.4,9.9-9.9,9.9h-10c-5.5,0-9.9-4.4-9.9-9.9V10.8c0-5.5,4.4-9.9,9.9-9.9h8.6c3.5,0,6.8,1.9,8.6,4.9
			L367,63.9l33.7-58.2c1.8-3.1,5-4.9,8.6-4.9h8.6c5.5,0,9.9,4.4,9.9,9.9v98.3C427.8,114.6,423.3,119,417.9,119z"/>
	</g>
	<g>
		<path class="st0" d="M450.6,66.7h36.8v8.7h-36.8V66.7z"/>
		<path class="st0" d="M487.4,85.3h-36.8c-5.5,0-9.9-4.4-9.9-9.9v-8.7c0-5.5,4.4-9.9,9.9-9.9h36.8c5.5,0,9.9,4.4,9.9,9.9v8.7
			C497.3,80.9,492.9,85.3,487.4,85.3z"/>
	</g>
	<g>
		<path class="st0" d="M537.6,103.5c-7.8-4.3-14-10.3-18.4-17.9c-4.4-7.6-6.7-16.2-6.7-25.6c0-9.5,2.2-18,6.7-25.6
			c4.4-7.6,10.6-13.6,18.5-17.9c7.9-4.3,16.7-6.5,26.4-6.5c7.3,0,14,1.2,20.2,3.7c6.2,2.4,11.4,6,15.7,10.7l-6.6,6.6
			c-7.7-7.8-17.4-11.7-29.1-11.7c-7.8,0-14.8,1.8-21.2,5.3c-6.4,3.6-11.4,8.4-15,14.6c-3.6,6.2-5.4,13.1-5.4,20.8
			c0,7.7,1.8,14.6,5.4,20.8c3.6,6.2,8.6,11,15,14.6c6.4,3.6,13.4,5.3,21.2,5.3c11.8,0,21.5-3.9,29.1-11.8l6.6,6.6
			c-4.3,4.7-9.6,8.3-15.8,10.7c-6.2,2.5-13,3.7-20.3,3.7C554.2,109.9,545.4,107.8,537.6,103.5z"/>
		<path class="st0" d="M563.9,119.9c-11.4,0-21.9-2.6-31.1-7.7l0,0c-9.4-5.2-16.8-12.4-22.2-21.6c-5.3-9.1-8-19.4-8-30.6
			c0-11.2,2.7-21.5,8-30.6c5.3-9.2,12.8-16.4,22.3-21.6c9.3-5.1,19.8-7.7,31.2-7.7c8.5,0,16.6,1.5,23.9,4.3
			c7.6,3,14.1,7.4,19.4,13.2c3.6,3.9,3.5,10-0.3,13.7l-6.6,6.6c-1.9,1.9-4.4,2.9-7,2.9c0,0,0,0,0,0c-2.6,0-5.2-1.1-7-3
			c-5.8-5.9-13-8.7-22-8.7c-6.1,0-11.5,1.3-16.4,4.1c-4.8,2.7-8.5,6.3-11.2,10.9c-2.7,4.7-4.1,9.8-4.1,15.8c0,5.9,1.3,11.1,4.1,15.8
			c2.7,4.7,6.4,8.2,11.2,10.9c4.9,2.7,10.3,4.1,16.4,4.1c9.1,0,16.2-2.9,21.9-8.8c1.9-1.9,4.4-3,7.1-3c2.7-0.1,5.2,1,7.1,2.9
			l6.6,6.6c3.8,3.8,3.9,9.8,0.3,13.7c-5.3,5.8-11.8,10.2-19.4,13.2C580.5,118.4,572.5,119.9,563.9,119.9z"/>
	</g>
	<g>
		<path class="st0" d="M712.7,10.8v98.3h-10.3V63.7h-61.5v45.4h-10.4V10.8h10.4v43.8h61.5V10.8H712.7z"/>
		<path class="st0" d="M712.7,119h-10.3c-5.5,0-9.9-4.4-9.9-9.9V73.7h-41.7v35.4c0,5.5-4.4,9.9-9.9,9.9h-10.4
			c-5.5,0-9.9-4.4-9.9-9.9V10.8c0-5.5,4.4-9.9,9.9-9.9h10.4c5.5,0,9.9,4.4,9.9,9.9v33.9h41.7V10.8c0-5.5,4.4-9.9,9.9-9.9h10.3
			c5.5,0,9.9,4.4,9.9,9.9v98.3C722.6,114.6,718.1,119,712.7,119z"/>
	</g>
	<g>
		<path class="st0" d="M817.6,82.8h-54.8l-11.8,26.3h-10.8l44.9-98.3h10.3l44.9,98.3h-11L817.6,82.8z M813.8,74.4l-23.6-52.8
			l-23.6,52.8H813.8z"/>
		<path class="st0" d="M840.4,119h-11c-3.9,0-7.5-2.3-9.1-5.9l-9.2-20.4h-41.9l-9.2,20.4c-1.6,3.6-5.1,5.9-9.1,5.9h-10.8
			c-3.4,0-6.5-1.7-8.4-4.6c-1.8-2.8-2.1-6.4-0.7-9.5l44.9-98.3c1.6-3.5,5.1-5.8,9-5.8h10.3c3.9,0,7.4,2.3,9,5.8l44.9,98.3
			c1.4,3.1,1.2,6.7-0.7,9.5C846.9,117.3,843.8,119,840.4,119z M782,64.5h16.6l-8.3-18.5L782,64.5z"/>
	</g>
	<g>
		<path class="st0" d="M951.1,10.8v98.3h-8.6l-63.2-79.8v79.8H869V10.8h8.6l63.3,79.8V10.8H951.1z"/>
		<path class="st0" d="M951.1,119h-8.6c-3,0-5.9-1.4-7.8-3.8l-45.5-57.4v51.3c0,5.5-4.4,9.9-9.9,9.9H869c-5.5,0-9.9-4.4-9.9-9.9
			V10.8c0-5.5,4.4-9.9,9.9-9.9h8.6c3,0,5.9,1.4,7.8,3.8l45.6,57.5V10.8c0-5.5,4.4-9.9,9.9-9.9h10.3c5.5,0,9.9,4.4,9.9,9.9v98.3
			C961.1,114.6,956.6,119,951.1,119z"/>
	</g>
	<g>
		<path class="st0" d="M1060.7,59.9h10v37.5c-4.6,4-10,7.1-16.3,9.3c-6.3,2.2-12.9,3.2-19.8,3.2c-9.8,0-18.7-2.2-26.5-6.5
			c-7.9-4.3-14-10.3-18.5-17.9c-4.5-7.6-6.7-16.2-6.7-25.6c0-9.5,2.2-18,6.7-25.6c4.5-7.6,10.7-13.6,18.5-17.9
			c7.9-4.3,16.8-6.5,26.7-6.5c7.5,0,14.4,1.2,20.6,3.6c6.3,2.4,11.6,5.9,15.9,10.6l-6.5,6.6c-7.8-7.7-17.7-11.5-29.6-11.5
			c-8,0-15.1,1.8-21.6,5.3c-6.4,3.5-11.4,8.4-15.1,14.6c-3.7,6.2-5.5,13.2-5.5,20.9c0,7.7,1.8,14.6,5.5,20.8c3.6,6.2,8.7,11,15,14.6
			c6.4,3.6,13.5,5.3,21.5,5.3c10.1,0,18.7-2.5,25.7-7.6V59.9z"/>
		<path class="st0" d="M1034.5,119.9c-11.5,0-22-2.6-31.3-7.7c-9.4-5.2-16.9-12.4-22.3-21.6c-5.4-9.1-8.1-19.5-8.1-30.7
			c0-11.2,2.7-21.5,8.1-30.7c5.4-9.2,12.9-16.4,22.3-21.6c9.3-5.1,19.9-7.7,31.5-7.7c8.7,0,16.8,1.4,24.2,4.2
			c7.7,2.9,14.3,7.4,19.6,13.2c3.6,3.9,3.5,9.9-0.2,13.7l-6.5,6.6c-1.8,1.9-4.4,3-7,3c0,0-0.1,0-0.1,0c-2.6,0-5.1-1-7-2.9
			c-5.9-5.8-13.3-8.7-22.7-8.7c-6.3,0-11.8,1.3-16.8,4c-4.9,2.7-8.6,6.2-11.3,10.9c-2.8,4.7-4.1,9.9-4.1,15.8
			c0,5.9,1.3,11.1,4.1,15.7c2.8,4.7,6.5,8.3,11.3,11c4.9,2.7,10.3,4.1,16.6,4.1c6.1,0,11.3-1.1,15.8-3.2V59.9c0-5.5,4.4-9.9,9.9-9.9
			h10c5.5,0,9.9,4.4,9.9,9.9v37.5c0,2.9-1.2,5.6-3.4,7.5c-5.5,4.9-12.1,8.6-19.6,11.2C1050.3,118.6,1042.6,119.9,1034.5,119.9z"/>
	</g>
	<g>
		<path class="st0" d="M1108.3,10.8h10.4v98.3h-10.4V10.8z"/>
		<path class="st0" d="M1118.7,119h-10.4c-5.5,0-9.9-4.4-9.9-9.9V10.8c0-5.5,4.4-9.9,9.9-9.9h10.4c5.5,0,9.9,4.4,9.9,9.9v98.3
			C1128.6,114.6,1124.2,119,1118.7,119z"/>
	</g>
	<g>
		<path class="st0" d="M1241.1,10.8v98.3h-8.6l-63.2-79.8v79.8H1159V10.8h8.6l63.3,79.8V10.8H1241.1z"/>
		<path class="st0" d="M1241.1,119h-8.6c-3,0-5.9-1.4-7.8-3.8l-45.5-57.4v51.3c0,5.5-4.4,9.9-9.9,9.9H1159c-5.5,0-9.9-4.4-9.9-9.9
			V10.8c0-5.5,4.4-9.9,9.9-9.9h8.6c3,0,5.9,1.4,7.8,3.8l45.6,57.5V10.8c0-5.5,4.4-9.9,9.9-9.9h10.3c5.5,0,9.9,4.4,9.9,9.9v98.3
			C1251.1,114.6,1246.6,119,1241.1,119z"/>
	</g>
	<g>
		<path class="st0" d="M1350.7,59.9h10v37.5c-4.6,4-10,7.1-16.3,9.3c-6.3,2.2-12.9,3.2-19.8,3.2c-9.8,0-18.7-2.2-26.5-6.5
			c-7.9-4.3-14-10.3-18.5-17.9c-4.5-7.6-6.7-16.2-6.7-25.6c0-9.5,2.2-18,6.7-25.6c4.5-7.6,10.7-13.6,18.5-17.9
			c7.9-4.3,16.8-6.5,26.7-6.5c7.5,0,14.4,1.2,20.6,3.6c6.3,2.4,11.6,5.9,15.9,10.6l-6.5,6.6c-7.8-7.7-17.6-11.5-29.6-11.5
			c-8,0-15.1,1.8-21.6,5.3c-6.4,3.5-11.4,8.4-15.1,14.6c-3.7,6.2-5.5,13.2-5.5,20.9c0,7.7,1.8,14.6,5.5,20.8c3.6,6.2,8.7,11,15,14.6
			c6.4,3.6,13.5,5.3,21.5,5.3c10.1,0,18.7-2.5,25.7-7.6V59.9z"/>
		<path class="st0" d="M1324.6,119.9c-11.5,0-22-2.6-31.3-7.7c-9.4-5.2-16.9-12.4-22.3-21.6c-5.4-9.1-8.1-19.5-8.1-30.7
			c0-11.2,2.7-21.5,8.1-30.7c5.4-9.2,12.9-16.4,22.3-21.6c9.3-5.1,19.9-7.7,31.5-7.7c8.7,0,16.8,1.4,24.2,4.2
			c7.7,2.9,14.3,7.4,19.6,13.2c3.6,3.9,3.5,9.9-0.2,13.7l-6.5,6.6c-1.8,1.9-4.4,3-7,3c0,0-0.1,0-0.1,0c-2.6,0-5.1-1-7-2.9
			c-5.9-5.8-13.3-8.7-22.7-8.7c-6.3,0-11.8,1.3-16.8,4c-4.9,2.7-8.5,6.2-11.3,10.9c-2.8,4.7-4.1,9.9-4.1,15.8
			c0,5.9,1.3,11.1,4.1,15.7c2.8,4.7,6.5,8.3,11.3,11c4.9,2.7,10.3,4.1,16.6,4.1c6.1,0,11.3-1.1,15.8-3.2V59.9c0-5.5,4.4-9.9,9.9-9.9
			h10c5.5,0,9.9,4.4,9.9,9.9v37.5c0,2.9-1.2,5.6-3.4,7.5c-5.5,4.9-12.1,8.6-19.6,11.2C1340.3,118.6,1332.6,119.9,1324.6,119.9z"/>
	</g>
	<g>
		<path class="st0" d="M1525.1,10.8l-43.5,98.3h-10.3l-43.5-98.3h11.2l37.6,85.4l37.9-85.4H1525.1z"/>
		<path class="st0" d="M1481.6,119h-10.3c-3.9,0-7.5-2.3-9.1-5.9l-43.5-98.3c-1.4-3.1-1.1-6.6,0.8-9.4c1.8-2.8,5-4.5,8.3-4.5h11.2
			c3.9,0,7.5,2.3,9.1,5.9l28.6,64.9l28.8-64.9c1.6-3.6,5.2-5.9,9.1-5.9h10.5c3.4,0,6.5,1.7,8.3,4.5c1.8,2.8,2.1,6.4,0.8,9.4
			l-43.5,98.3C1489.1,116.7,1485.5,119,1481.6,119z"/>
	</g>
	<g>
		<path class="st0" d="M1624.1,100.1v9h-69.5V10.8h67.4v9h-57v35h50.8v8.8H1565v36.5H1624.1z"/>
		<path class="st0" d="M1624.1,119h-69.5c-5.5,0-9.9-4.4-9.9-9.9V10.8c0-5.5,4.4-9.9,9.9-9.9h67.4c5.5,0,9.9,4.4,9.9,9.9v9
			c0,5.5-4.4,9.9-9.9,9.9h-47.1v15.1h40.9c5.5,0,9.9,4.4,9.9,9.9v8.8c0,5.5-4.4,9.9-9.9,9.9h-40.9v16.7h49.2c5.5,0,9.9,4.4,9.9,9.9
			v9C1634.1,114.6,1629.6,119,1624.1,119z"/>
	</g>
	<g>
		<path class="st0" d="M1724,109.1l-22.5-31.6c-2.5,0.3-5.2,0.4-7.9,0.4h-26.4v31.2h-10.4V10.8h36.8c12.5,0,22.4,3,29.5,9
			c7.1,6,10.7,14.2,10.7,24.7c0,7.7-1.9,14.2-5.8,19.5c-3.9,5.3-9.4,9.1-16.6,11.4l24,33.7H1724z M1715.7,62.6
			c5.1-4.3,7.7-10.3,7.7-18.1c0-8-2.6-14.1-7.7-18.3c-5.1-4.3-12.6-6.4-22.3-6.4h-26.1v49.3h26.1
			C1703.1,69.1,1710.6,66.9,1715.7,62.6z"/>
		<path class="st0" d="M1735.4,119H1724c-3.2,0-6.2-1.6-8.1-4.2l-19.2-27.1c-1,0-2,0.1-3,0.1h-16.5v21.2c0,5.5-4.4,9.9-9.9,9.9
			h-10.4c-5.5,0-9.9-4.4-9.9-9.9V10.8c0-5.5,4.4-9.9,9.9-9.9h36.8c14.9,0,27,3.8,35.9,11.3c9.4,7.9,14.2,18.8,14.2,32.3
			c0,9.8-2.6,18.3-7.8,25.3c-2.7,3.7-5.9,6.8-9.8,9.3l17.2,24.2c2.2,3,2.4,7,0.7,10.3S1739.1,119,1735.4,119z M1677.2,59.1h16.2
			c7.3,0,12.7-1.4,16-4.1c0,0,0,0,0,0c1.8-1.5,4.2-4.2,4.2-10.5c0-6.5-2.4-9.2-4.1-10.7c-3.3-2.7-8.7-4.1-16-4.1h-16.2V59.1z"/>
	</g>
	<g>
		<path class="st0" d="M1843.6,66.7c3.5,4.2,5.3,9.5,5.3,16.1c0,8.4-3.1,14.9-9.3,19.5c-6.2,4.5-15.4,6.8-27.6,6.8h-45.2V10.8h42.4
			c11,0,19.5,2.2,25.5,6.6c6,4.4,9.1,10.6,9.1,18.7c0,5.4-1.3,10-4,13.8c-2.7,3.8-6.3,6.6-11,8.5
			C1835.1,59.8,1840.1,62.6,1843.6,66.7z M1777.1,19.3V55h31.3c8,0,14.1-1.5,18.4-4.6c4.3-3,6.5-7.5,6.5-13.3s-2.2-10.2-6.5-13.3
			c-4.3-3-10.4-4.6-18.4-4.6H1777.1z M1831.7,96c4.5-3,6.7-7.7,6.7-14c0-12.3-8.9-18.4-26.7-18.4h-34.7v36.9h34.7
			C1820.6,100.5,1827.2,99,1831.7,96z"/>
		<path class="st0" d="M1811.9,119h-45.2c-5.5,0-9.9-4.4-9.9-9.9V10.8c0-5.5,4.4-9.9,9.9-9.9h42.4c13,0,23.6,2.9,31.3,8.5
			c8.6,6.3,13.1,15.5,13.1,26.7c0,7.5-2,14.1-5.8,19.5c-0.2,0.3-0.4,0.5-0.6,0.8c1.4,1.2,2.8,2.5,4,4c0,0,0,0,0,0
			c5,6,7.6,13.6,7.6,22.5c0,11.6-4.6,21.1-13.4,27.5C1837.3,116.2,1826.4,119,1811.9,119z M1787,90.6h24.8c8.9,0,12.9-1.8,14.4-2.8
			l0,0c0.8-0.5,2.3-1.5,2.3-5.8c0-3,0-8.5-16.8-8.5H1787V90.6z M1787,45.1h21.4c5.7,0,10.1-0.9,12.7-2.7c1.1-0.8,2.3-1.9,2.3-5.2
			s-1.2-4.4-2.3-5.2c-2.5-1.8-6.9-2.7-12.7-2.7H1787V45.1z"/>
	</g>
</g>
</svg>
