<svg width="284" height="322" viewBox="0 0 284 322" fill="none" xmlns="http://www.w3.org/2000/svg">
<g clip-path="url(#clip0_139_298)">
<path d="M284 0H0V322H284V0Z" fill="#001220"/>
<path d="M58.536 129.8C61.752 129.8 64.272 130.568 66.096 132.104C67.92 133.64 68.832 135.752 68.832 138.44C68.832 141.128 67.92 143.24 66.096 144.776C64.272 146.288 61.752 147.044 58.536 147.044H51.768V155H49.104V129.8H58.536ZM58.464 144.704C60.96 144.704 62.868 144.164 64.188 143.084C65.508 141.98 66.168 140.432 66.168 138.44C66.168 136.4 65.508 134.84 64.188 133.76C62.868 132.656 60.96 132.104 58.464 132.104H51.768V144.704H58.464ZM95.4003 155L89.6403 146.9C88.9923 146.972 88.3203 147.008 87.6243 147.008H80.8563V155H78.1923V129.8H87.6243C90.8403 129.8 93.3603 130.568 95.1843 132.104C97.0083 133.64 97.9203 135.752 97.9203 138.44C97.9203 140.408 97.4163 142.076 96.4083 143.444C95.4243 144.788 94.0083 145.76 92.1603 146.36L98.3163 155H95.4003ZM87.5523 144.74C90.0483 144.74 91.9563 144.188 93.2763 143.084C94.5963 141.98 95.2563 140.432 95.2563 138.44C95.2563 136.4 94.5963 134.84 93.2763 133.76C91.9563 132.656 90.0483 132.104 87.5523 132.104H80.8563V144.74H87.5523ZM125.628 152.696V155H107.808V129.8H125.088V132.104H110.472V141.068H123.504V143.336H110.472V152.696H125.628ZM142.438 155.216C140.566 155.216 138.766 154.916 137.038 154.316C135.334 153.716 134.014 152.924 133.078 151.94L134.122 149.888C135.034 150.8 136.246 151.544 137.758 152.12C139.27 152.672 140.83 152.948 142.438 152.948C144.694 152.948 146.386 152.54 147.514 151.724C148.642 150.884 149.206 149.804 149.206 148.484C149.206 147.476 148.894 146.672 148.27 146.072C147.67 145.472 146.926 145.016 146.038 144.704C145.15 144.368 143.914 144.008 142.33 143.624C140.434 143.144 138.922 142.688 137.794 142.256C136.666 141.8 135.694 141.116 134.878 140.204C134.086 139.292 133.69 138.056 133.69 136.496C133.69 135.224 134.026 134.072 134.698 133.04C135.37 131.984 136.402 131.144 137.794 130.52C139.186 129.896 140.914 129.584 142.978 129.584C144.418 129.584 145.822 129.788 147.19 130.196C148.582 130.58 149.782 131.12 150.79 131.816L149.89 133.94C148.834 133.244 147.706 132.728 146.506 132.392C145.306 132.032 144.13 131.852 142.978 131.852C140.77 131.852 139.102 132.284 137.974 133.148C136.87 133.988 136.318 135.08 136.318 136.424C136.318 137.432 136.618 138.248 137.218 138.872C137.842 139.472 138.61 139.94 139.522 140.276C140.458 140.588 141.706 140.936 143.266 141.32C145.114 141.776 146.602 142.232 147.73 142.688C148.882 143.12 149.854 143.792 150.646 144.704C151.438 145.592 151.834 146.804 151.834 148.34C151.834 149.612 151.486 150.776 150.79 151.832C150.118 152.864 149.074 153.692 147.658 154.316C146.242 154.916 144.502 155.216 142.438 155.216ZM179.058 152.696V155H161.238V129.8H178.518V132.104H163.902V141.068H176.934V143.336H163.902V152.696H179.058ZM209.98 129.8V155H207.784L191.584 134.552V155H188.92V129.8H191.116L207.352 150.248V129.8H209.98ZM226.702 132.104H217.846V129.8H238.222V132.104H229.366V155H226.702V132.104Z" fill="#FA668B"/>
<path d="M66.096 132.104L64.1636 134.399L66.096 132.104ZM66.096 144.776L68.0106 147.086C68.0165 147.081 68.0225 147.076 68.0284 147.071L66.096 144.776ZM51.768 147.044V144.044C50.1111 144.044 48.768 145.387 48.768 147.044H51.768ZM51.768 155V158C53.4249 158 54.768 156.657 54.768 155H51.768ZM49.104 155H46.104C46.104 156.657 47.4471 158 49.104 158V155ZM49.104 129.8V126.8C47.4471 126.8 46.104 128.143 46.104 129.8H49.104ZM64.188 143.084L66.0877 145.406C66.0961 145.399 66.1044 145.392 66.1127 145.385L64.188 143.084ZM64.188 133.76L62.2633 136.061C62.2716 136.068 62.2799 136.075 62.2883 136.082L64.188 133.76ZM51.768 132.104V129.104C50.1111 129.104 48.768 130.447 48.768 132.104H51.768ZM51.768 144.704H48.768C48.768 146.361 50.1111 147.704 51.768 147.704V144.704ZM58.536 132.8C61.2923 132.8 63.0436 133.456 64.1636 134.399L68.0284 129.809C65.5004 127.68 62.2117 126.8 58.536 126.8V132.8ZM64.1636 134.399C65.2196 135.288 65.832 136.511 65.832 138.44H71.832C71.832 134.993 70.6204 131.992 68.0284 129.809L64.1636 134.399ZM65.832 138.44C65.832 140.369 65.2196 141.592 64.1636 142.481L68.0284 147.071C70.6204 144.888 71.832 141.887 71.832 138.44H65.832ZM64.1814 142.466C63.0608 143.395 61.3026 144.044 58.536 144.044V150.044C62.2014 150.044 65.4832 149.181 68.0106 147.086L64.1814 142.466ZM58.536 144.044H51.768V150.044H58.536V144.044ZM48.768 147.044V155H54.768V147.044H48.768ZM51.768 152H49.104V158H51.768V152ZM52.104 155V129.8H46.104V155H52.104ZM49.104 132.8H58.536V126.8H49.104V132.8ZM58.464 147.704C61.3412 147.704 64.0322 147.088 66.0877 145.406L62.2883 140.762C61.7038 141.24 60.5788 141.704 58.464 141.704V147.704ZM66.1127 145.385C68.2255 143.618 69.168 141.164 69.168 138.44H63.168C63.168 139.7 62.7905 140.342 62.2633 140.783L66.1127 145.385ZM69.168 138.44C69.168 135.696 68.2425 133.201 66.0877 131.438L62.2883 136.082C62.7735 136.479 63.168 137.104 63.168 138.44H69.168ZM66.1127 131.459C64.0555 129.738 61.3542 129.104 58.464 129.104V135.104C60.5658 135.104 61.6805 135.574 62.2633 136.061L66.1127 131.459ZM58.464 129.104H51.768V135.104H58.464V129.104ZM48.768 132.104V144.704H54.768V132.104H48.768ZM51.768 147.704H58.464V141.704H51.768V147.704ZM95.4003 155L92.9554 156.739C93.5182 157.53 94.4292 158 95.4003 158V155ZM89.6403 146.9L92.0851 145.161C91.454 144.274 90.3914 143.798 89.309 143.918L89.6403 146.9ZM80.8563 147.008V144.008C79.1994 144.008 77.8563 145.351 77.8563 147.008H80.8563ZM80.8563 155V158C82.5131 158 83.8563 156.657 83.8563 155H80.8563ZM78.1923 155H75.1923C75.1923 156.657 76.5354 158 78.1923 158V155ZM78.1923 129.8V126.8C76.5354 126.8 75.1923 128.143 75.1923 129.8H78.1923ZM95.1843 132.104L93.2519 134.399L95.1843 132.104ZM96.4083 143.444L93.9931 141.664L93.9877 141.672L96.4083 143.444ZM92.1603 146.36L91.2339 143.507C90.325 143.802 89.6111 144.512 89.3115 145.419C89.012 146.327 89.1625 147.323 89.717 148.101L92.1603 146.36ZM98.3163 155V158C99.4394 158 100.468 157.373 100.983 156.374C101.497 155.376 101.411 154.174 100.76 153.259L98.3163 155ZM93.2763 143.084L95.2009 145.385H95.201L93.2763 143.084ZM93.2763 133.76L91.3516 136.061C91.3599 136.068 91.3682 136.075 91.3766 136.082L93.2763 133.76ZM80.8563 132.104V129.104C79.1994 129.104 77.8563 130.447 77.8563 132.104H80.8563ZM80.8563 144.74H77.8563C77.8563 146.397 79.1994 147.74 80.8563 147.74V144.74ZM97.8451 153.261L92.0851 145.161L87.1954 148.639L92.9554 156.739L97.8451 153.261ZM89.309 143.918C88.7781 143.977 88.217 144.008 87.6243 144.008V150.008C88.4236 150.008 89.2065 149.967 89.9716 149.882L89.309 143.918ZM87.6243 144.008H80.8563V150.008H87.6243V144.008ZM77.8563 147.008V155H83.8563V147.008H77.8563ZM80.8563 152H78.1923V158H80.8563V152ZM81.1923 155V129.8H75.1923V155H81.1923ZM78.1923 132.8H87.6243V126.8H78.1923V132.8ZM87.6243 132.8C90.3806 132.8 92.1319 133.456 93.2519 134.399L97.1167 129.809C94.5887 127.68 91.3 126.8 87.6243 126.8V132.8ZM93.2519 134.399C94.3079 135.288 94.9203 136.511 94.9203 138.44H100.92C100.92 134.993 99.7086 131.992 97.1167 129.809L93.2519 134.399ZM94.9203 138.44C94.9203 139.873 94.5633 140.891 93.9931 141.664L98.8234 145.224C100.269 143.261 100.92 140.943 100.92 138.44H94.9203ZM93.9877 141.672C93.4351 142.427 92.5856 143.068 91.2339 143.507L93.0867 149.213C95.4309 148.452 97.4135 147.149 98.8289 145.216L93.9877 141.672ZM89.717 148.101L95.873 156.741L100.76 153.259L94.6035 144.619L89.717 148.101ZM98.3163 152H95.4003V158H98.3163V152ZM87.5523 147.74C90.4425 147.74 93.1438 147.106 95.2009 145.385L91.3516 140.783C90.7688 141.27 89.654 141.74 87.5523 141.74V147.74ZM95.201 145.385C97.3138 143.618 98.2563 141.164 98.2563 138.44H92.2563C92.2563 139.7 91.8788 140.342 91.3516 140.783L95.201 145.385ZM98.2563 138.44C98.2563 135.696 97.3308 133.201 95.176 131.438L91.3766 136.082C91.8618 136.479 92.2563 137.104 92.2563 138.44H98.2563ZM95.2009 131.459C93.1438 129.738 90.4425 129.104 87.5523 129.104V135.104C89.654 135.104 90.7688 135.574 91.3516 136.061L95.2009 131.459ZM87.5523 129.104H80.8563V135.104H87.5523V129.104ZM77.8563 132.104V144.74H83.8563V132.104H77.8563ZM80.8563 147.74H87.5523V141.74H80.8563V147.74ZM125.628 152.696H128.628C128.628 151.039 127.285 149.696 125.628 149.696V152.696ZM125.628 155V158C127.285 158 128.628 156.657 128.628 155H125.628ZM107.808 155H104.808C104.808 156.657 106.151 158 107.808 158V155ZM107.808 129.8V126.8C106.151 126.8 104.808 128.143 104.808 129.8H107.808ZM125.088 129.8H128.088C128.088 128.143 126.745 126.8 125.088 126.8V129.8ZM125.088 132.104V135.104C126.745 135.104 128.088 133.761 128.088 132.104H125.088ZM110.472 132.104V129.104C108.815 129.104 107.472 130.447 107.472 132.104H110.472ZM110.472 141.068H107.472C107.472 142.725 108.815 144.068 110.472 144.068V141.068ZM123.504 141.068H126.504C126.504 139.411 125.161 138.068 123.504 138.068V141.068ZM123.504 143.336V146.336C125.161 146.336 126.504 144.993 126.504 143.336H123.504ZM110.472 143.336V140.336C108.815 140.336 107.472 141.679 107.472 143.336H110.472ZM110.472 152.696H107.472C107.472 154.353 108.815 155.696 110.472 155.696V152.696ZM122.628 152.696V155H128.628V152.696H122.628ZM125.628 152H107.808V158H125.628V152ZM110.808 155V129.8H104.808V155H110.808ZM107.808 132.8H125.088V126.8H107.808V132.8ZM122.088 129.8V132.104H128.088V129.8H122.088ZM125.088 129.104H110.472V135.104H125.088V129.104ZM107.472 132.104V141.068H113.472V132.104H107.472ZM110.472 144.068H123.504V138.068H110.472V144.068ZM120.504 141.068V143.336H126.504V141.068H120.504ZM123.504 140.336H110.472V146.336H123.504V140.336ZM107.472 143.336V152.696H113.472V143.336H107.472ZM110.472 155.696H125.628V149.696H110.472V155.696ZM137.038 154.316L136.042 157.146L136.054 157.15L137.038 154.316ZM133.078 151.94L130.404 150.58C129.828 151.713 130.028 153.086 130.904 154.008L133.078 151.94ZM134.122 149.888L136.243 147.767C135.564 147.087 134.601 146.775 133.652 146.925C132.703 147.076 131.884 147.671 131.448 148.528L134.122 149.888ZM137.758 152.12L136.69 154.923C136.703 154.928 136.716 154.933 136.729 154.938L137.758 152.12ZM147.514 151.724L149.272 154.155C149.284 154.147 149.295 154.138 149.306 154.13L147.514 151.724ZM148.27 146.072L146.149 148.193C146.162 148.207 146.176 148.221 146.191 148.234L148.27 146.072ZM146.038 144.704L144.976 147.51C144.999 147.518 145.021 147.526 145.043 147.534L146.038 144.704ZM142.33 143.624L141.594 146.532C141.603 146.535 141.613 146.537 141.623 146.54L142.33 143.624ZM137.794 142.256L136.67 145.037C136.687 145.044 136.704 145.051 136.721 145.058L137.794 142.256ZM134.878 140.204L132.613 142.171C132.623 142.182 132.632 142.193 132.642 142.204L134.878 140.204ZM134.698 133.04L137.212 134.677C137.218 134.668 137.223 134.659 137.229 134.651L134.698 133.04ZM137.794 130.52L139.021 133.258L137.794 130.52ZM147.19 130.196L146.333 133.071C146.352 133.077 146.372 133.082 146.392 133.088L147.19 130.196ZM150.79 131.816L153.552 132.986C154.107 131.676 153.666 130.156 152.495 129.347L150.79 131.816ZM149.89 133.94L148.239 136.445C148.983 136.935 149.906 137.069 150.758 136.812C151.611 136.554 152.305 135.931 152.652 135.11L149.89 133.94ZM146.506 132.392L145.644 135.265C145.662 135.271 145.679 135.276 145.697 135.281L146.506 132.392ZM137.974 133.148L139.791 135.535L139.798 135.53L137.974 133.148ZM137.218 138.872L135.055 140.951C135.083 140.98 135.11 141.007 135.139 141.034L137.218 138.872ZM139.522 140.276L138.485 143.091C138.514 143.102 138.544 143.112 138.573 143.122L139.522 140.276ZM143.266 141.32L143.985 138.407H143.983L143.266 141.32ZM147.73 142.688L146.606 145.469C146.629 145.479 146.653 145.488 146.677 145.497L147.73 142.688ZM150.646 144.704L148.381 146.671C148.39 146.681 148.398 146.691 148.407 146.701L150.646 144.704ZM150.79 151.832L148.285 150.181C148.282 150.186 148.279 150.19 148.276 150.195L150.79 151.832ZM147.658 154.316L148.828 157.078C148.842 157.073 148.855 157.067 148.868 157.061L147.658 154.316ZM142.438 152.216C140.893 152.216 139.426 151.97 138.022 151.482L136.054 157.15C138.106 157.862 140.239 158.216 142.438 158.216V152.216ZM138.034 151.486C136.636 150.994 135.771 150.419 135.252 149.872L130.904 154.008C132.257 155.429 134.032 156.438 136.042 157.146L138.034 151.486ZM135.752 153.3L136.796 151.248L131.448 148.528L130.404 150.58L135.752 153.3ZM132.001 152.009C133.278 153.286 134.88 154.234 136.69 154.923L138.826 149.317C137.612 148.854 136.79 148.314 136.243 147.767L132.001 152.009ZM136.729 154.938C138.57 155.61 140.479 155.948 142.438 155.948V149.948C141.181 149.948 139.969 149.734 138.787 149.302L136.729 154.938ZM142.438 155.948C144.966 155.948 147.403 155.507 149.272 154.155L145.756 149.293C145.369 149.573 144.422 149.948 142.438 149.948V155.948ZM149.306 154.13C151.136 152.767 152.206 150.822 152.206 148.484H146.206C146.206 148.786 146.148 149.001 145.722 149.318L149.306 154.13ZM152.206 148.484C152.206 146.806 151.659 145.169 150.349 143.91L146.191 148.234C146.194 148.238 146.19 148.234 146.183 148.224C146.177 148.214 146.174 148.208 146.175 148.21C146.176 148.213 146.206 148.29 146.206 148.484H152.206ZM150.391 143.951C149.44 143 148.298 142.318 147.032 141.874L145.043 147.534C145.554 147.714 145.9 147.944 146.149 148.193L150.391 143.951ZM147.1 141.898C146.042 141.498 144.669 141.104 143.037 140.708L141.623 146.54C143.159 146.912 144.257 147.238 144.976 147.51L147.1 141.898ZM143.066 140.716C141.224 140.249 139.839 139.827 138.867 139.454L136.721 145.058C138.005 145.549 139.644 146.039 141.594 146.532L143.066 140.716ZM138.918 139.475C138.218 139.192 137.626 138.776 137.114 138.204L132.642 142.204C133.762 143.456 135.114 144.408 136.67 145.037L138.918 139.475ZM137.143 138.237C136.949 138.014 136.69 137.549 136.69 136.496H130.69C130.69 138.563 131.222 140.57 132.613 142.171L137.143 138.237ZM136.69 136.496C136.69 135.785 136.868 135.205 137.212 134.677L132.184 131.403C131.184 132.939 130.69 134.663 130.69 136.496H136.69ZM137.229 134.651C137.523 134.189 138.046 133.694 139.021 133.258L136.567 127.782C134.757 128.594 133.217 129.779 132.167 131.429L137.229 134.651ZM139.021 133.258C139.916 132.856 141.196 132.584 142.978 132.584V126.584C140.632 126.584 138.455 126.936 136.567 127.782L139.021 133.258ZM142.978 132.584C144.13 132.584 145.245 132.747 146.333 133.071L148.047 127.321C146.399 126.829 144.706 126.584 142.978 126.584V132.584ZM146.392 133.088C147.517 133.398 148.398 133.81 149.085 134.285L152.495 129.347C151.166 128.43 149.647 127.762 147.988 127.304L146.392 133.088ZM148.028 130.646L147.128 132.77L152.652 135.11L153.552 132.986L148.028 130.646ZM151.541 131.435C150.23 130.571 148.818 129.924 147.315 129.503L145.697 135.281C146.594 135.532 147.438 135.917 148.239 136.445L151.541 131.435ZM147.368 129.519C145.913 129.082 144.446 128.852 142.978 128.852V134.852C143.814 134.852 144.699 134.982 145.644 135.265L147.368 129.519ZM142.978 128.852C140.454 128.852 138.021 129.333 136.15 130.766L139.798 135.53C140.183 135.235 141.086 134.852 142.978 134.852V128.852ZM136.157 130.761C134.336 132.146 133.318 134.108 133.318 136.424H139.318C139.318 136.052 139.404 135.83 139.791 135.535L136.157 130.761ZM133.318 136.424C133.318 138.07 133.83 139.677 135.055 140.951L139.38 136.793C139.369 136.781 139.366 136.777 139.359 136.757C139.348 136.729 139.318 136.63 139.318 136.424H133.318ZM135.139 141.034C136.096 141.955 137.232 142.629 138.485 143.091L140.559 137.461C139.988 137.251 139.588 136.989 139.297 136.709L135.139 141.034ZM138.573 143.122C139.618 143.47 140.953 143.84 142.549 144.233L143.983 138.407C142.459 138.032 141.298 137.706 140.471 137.43L138.573 143.122ZM142.547 144.233C144.325 144.671 145.661 145.088 146.606 145.469L148.854 139.907C147.542 139.376 145.903 138.881 143.985 138.407L142.547 144.233ZM146.677 145.497C147.37 145.757 147.923 146.143 148.381 146.671L152.911 142.737C151.785 141.441 150.394 140.483 148.783 139.879L146.677 145.497ZM148.407 146.701C148.58 146.895 148.834 147.32 148.834 148.34H154.834C154.834 146.288 154.296 144.289 152.885 142.707L148.407 146.701ZM148.834 148.34C148.834 149.029 148.656 149.618 148.285 150.181L153.295 153.483C154.316 151.934 154.834 150.195 154.834 148.34H148.834ZM148.276 150.195C147.994 150.627 147.468 151.122 146.448 151.571L148.868 157.061C150.68 156.262 152.241 155.101 153.304 153.469L148.276 150.195ZM146.487 151.554C145.545 151.953 144.23 152.216 142.438 152.216V158.216C144.774 158.216 146.939 157.879 148.828 157.078L146.487 151.554ZM179.058 152.696H182.058C182.058 151.039 180.715 149.696 179.058 149.696V152.696ZM179.058 155V158C180.715 158 182.058 156.657 182.058 155H179.058ZM161.238 155H158.238C158.238 156.657 159.582 158 161.238 158V155ZM161.238 129.8V126.8C159.582 126.8 158.238 128.143 158.238 129.8H161.238ZM178.518 129.8H181.518C181.518 128.143 180.175 126.8 178.518 126.8V129.8ZM178.518 132.104V135.104C180.175 135.104 181.518 133.761 181.518 132.104H178.518ZM163.902 132.104V129.104C162.246 129.104 160.902 130.447 160.902 132.104H163.902ZM163.902 141.068H160.902C160.902 142.725 162.246 144.068 163.902 144.068V141.068ZM176.934 141.068H179.934C179.934 139.411 178.591 138.068 176.934 138.068V141.068ZM176.934 143.336V146.336C178.591 146.336 179.934 144.993 179.934 143.336H176.934ZM163.902 143.336V140.336C162.246 140.336 160.902 141.679 160.902 143.336H163.902ZM163.902 152.696H160.902C160.902 154.353 162.246 155.696 163.902 155.696V152.696ZM176.058 152.696V155H182.058V152.696H176.058ZM179.058 152H161.238V158H179.058V152ZM164.238 155V129.8H158.238V155H164.238ZM161.238 132.8H178.518V126.8H161.238V132.8ZM175.518 129.8V132.104H181.518V129.8H175.518ZM178.518 129.104H163.902V135.104H178.518V129.104ZM160.902 132.104V141.068H166.902V132.104H160.902ZM163.902 144.068H176.934V138.068H163.902V144.068ZM173.934 141.068V143.336H179.934V141.068H173.934ZM176.934 140.336H163.902V146.336H176.934V140.336ZM160.902 143.336V152.696H166.902V143.336H160.902ZM163.902 155.696H179.058V149.696H163.902V155.696ZM209.98 129.8H212.98C212.98 128.143 211.637 126.8 209.98 126.8V129.8ZM209.98 155V158C211.637 158 212.98 156.657 212.98 155H209.98ZM207.784 155L205.433 156.863C206.002 157.581 206.868 158 207.784 158V155ZM191.584 134.552L193.936 132.689C193.143 131.688 191.804 131.299 190.598 131.719C189.392 132.139 188.584 133.275 188.584 134.552H191.584ZM191.584 155V158C193.241 158 194.584 156.657 194.584 155H191.584ZM188.92 155H185.92C185.92 156.657 187.264 158 188.92 158V155ZM188.92 129.8V126.8C187.264 126.8 185.92 128.143 185.92 129.8H188.92ZM191.116 129.8L193.466 127.935C192.897 127.218 192.032 126.8 191.116 126.8V129.8ZM207.352 150.248L205.003 152.113C205.796 153.113 207.135 153.501 208.34 153.081C209.545 152.661 210.352 151.524 210.352 150.248H207.352ZM207.352 129.8V126.8C205.696 126.8 204.352 128.143 204.352 129.8H207.352ZM206.98 129.8V155H212.98V129.8H206.98ZM209.98 152H207.784V158H209.98V152ZM210.136 153.137L193.936 132.689L189.233 136.415L205.433 156.863L210.136 153.137ZM188.584 134.552V155H194.584V134.552H188.584ZM191.584 152H188.92V158H191.584V152ZM191.92 155V129.8H185.92V155H191.92ZM188.92 132.8H191.116V126.8H188.92V132.8ZM188.767 131.665L205.003 152.113L209.702 148.383L193.466 127.935L188.767 131.665ZM210.352 150.248V129.8H204.352V150.248H210.352ZM207.352 132.8H209.98V126.8H207.352V132.8ZM226.702 132.104H229.702C229.702 130.447 228.358 129.104 226.702 129.104V132.104ZM217.846 132.104H214.846C214.846 133.761 216.189 135.104 217.846 135.104V132.104ZM217.846 129.8V126.8C216.189 126.8 214.846 128.143 214.846 129.8H217.846ZM238.222 129.8H241.222C241.222 128.143 239.878 126.8 238.222 126.8V129.8ZM238.222 132.104V135.104C239.878 135.104 241.222 133.761 241.222 132.104H238.222ZM229.366 132.104V129.104C227.709 129.104 226.366 130.447 226.366 132.104H229.366ZM229.366 155V158C231.022 158 232.366 156.657 232.366 155H229.366ZM226.702 155H223.702C223.702 156.657 225.045 158 226.702 158V155ZM226.702 129.104H217.846V135.104H226.702V129.104ZM220.846 132.104V129.8H214.846V132.104H220.846ZM217.846 132.8H238.222V126.8H217.846V132.8ZM235.222 129.8V132.104H241.222V129.8H235.222ZM238.222 129.104H229.366V135.104H238.222V129.104ZM226.366 132.104V155H232.366V132.104H226.366ZM229.366 152H226.702V158H229.366V152ZM229.702 155V132.104H223.702V155H229.702Z" fill="#FA668B"/>
<path d="M50.2801 104.38H45.0801V104H55.8801V104.38H50.6801V118H50.2801V104.38ZM71.6171 104V118H71.2171V111.08H61.0171V118H60.6171V104H61.0171V110.7H71.2171V104H71.6171ZM88.2653 117.62V118H78.9453V104H87.9653V104.38H79.3453V110.7H87.0653V111.08H79.3453V117.62H88.2653Z" fill="#FA668B"/>
<path d="M50.2801 104.38H52.2801C52.2801 103.275 51.3847 102.38 50.2801 102.38V104.38ZM45.0801 104.38H43.0801C43.0801 105.485 43.9755 106.38 45.0801 106.38V104.38ZM45.0801 104V102C43.9755 102 43.0801 102.895 43.0801 104H45.0801ZM55.8801 104H57.8801C57.8801 102.895 56.9847 102 55.8801 102V104ZM55.8801 104.38V106.38C56.9847 106.38 57.8801 105.485 57.8801 104.38H55.8801ZM50.6801 104.38V102.38C49.5755 102.38 48.6801 103.275 48.6801 104.38H50.6801ZM50.6801 118V120C51.7847 120 52.6801 119.105 52.6801 118H50.6801ZM50.2801 118H48.2801C48.2801 119.105 49.1755 120 50.2801 120V118ZM50.2801 102.38H45.0801V106.38H50.2801V102.38ZM47.0801 104.38V104H43.0801V104.38H47.0801ZM45.0801 106H55.8801V102H45.0801V106ZM53.8801 104V104.38H57.8801V104H53.8801ZM55.8801 102.38H50.6801V106.38H55.8801V102.38ZM48.6801 104.38V118H52.6801V104.38H48.6801ZM50.6801 116H50.2801V120H50.6801V116ZM52.2801 118V104.38H48.2801V118H52.2801ZM71.6171 104H73.6171C73.6171 102.895 72.7217 102 71.6171 102V104ZM71.6171 118V120C72.7217 120 73.6171 119.105 73.6171 118H71.6171ZM71.2171 118H69.2171C69.2171 119.105 70.1126 120 71.2171 120V118ZM71.2171 111.08H73.2171C73.2171 109.975 72.3217 109.08 71.2171 109.08V111.08ZM61.0171 111.08V109.08C59.9126 109.08 59.0171 109.975 59.0171 111.08H61.0171ZM61.0171 118V120C62.1217 120 63.0171 119.105 63.0171 118H61.0171ZM60.6171 118H58.6171C58.6171 119.105 59.5126 120 60.6171 120V118ZM60.6171 104V102C59.5126 102 58.6171 102.895 58.6171 104H60.6171ZM61.0171 104H63.0171C63.0171 102.895 62.1217 102 61.0171 102V104ZM61.0171 110.7H59.0171C59.0171 111.805 59.9126 112.7 61.0171 112.7V110.7ZM71.2171 110.7V112.7C72.3217 112.7 73.2171 111.805 73.2171 110.7H71.2171ZM71.2171 104V102C70.1126 102 69.2171 102.895 69.2171 104H71.2171ZM69.6171 104V118H73.6171V104H69.6171ZM71.6171 116H71.2171V120H71.6171V116ZM73.2171 118V111.08H69.2171V118H73.2171ZM71.2171 109.08H61.0171V113.08H71.2171V109.08ZM59.0171 111.08V118H63.0171V111.08H59.0171ZM61.0171 116H60.6171V120H61.0171V116ZM62.6171 118V104H58.6171V118H62.6171ZM60.6171 106H61.0171V102H60.6171V106ZM59.0171 104V110.7H63.0171V104H59.0171ZM61.0171 112.7H71.2171V108.7H61.0171V112.7ZM73.2171 110.7V104H69.2171V110.7H73.2171ZM71.2171 106H71.6171V102H71.2171V106ZM88.2653 117.62H90.2653C90.2653 116.515 89.3698 115.62 88.2653 115.62V117.62ZM88.2653 118V120C89.3698 120 90.2653 119.105 90.2653 118H88.2653ZM78.9453 118H76.9453C76.9453 119.105 77.8407 120 78.9453 120V118ZM78.9453 104V102C77.8407 102 76.9453 102.895 76.9453 104H78.9453ZM87.9653 104H89.9653C89.9653 102.895 89.0698 102 87.9653 102V104ZM87.9653 104.38V106.38C89.0698 106.38 89.9653 105.485 89.9653 104.38H87.9653ZM79.3453 104.38V102.38C78.2407 102.38 77.3453 103.275 77.3453 104.38H79.3453ZM79.3453 110.7H77.3453C77.3453 111.805 78.2407 112.7 79.3453 112.7V110.7ZM87.0653 110.7H89.0653C89.0653 109.595 88.1698 108.7 87.0653 108.7V110.7ZM87.0653 111.08V113.08C88.1698 113.08 89.0653 112.185 89.0653 111.08H87.0653ZM79.3453 111.08V109.08C78.2407 109.08 77.3453 109.975 77.3453 111.08H79.3453ZM79.3453 117.62H77.3453C77.3453 118.725 78.2407 119.62 79.3453 119.62V117.62ZM86.2653 117.62V118H90.2653V117.62H86.2653ZM88.2653 116H78.9453V120H88.2653V116ZM80.9453 118V104H76.9453V118H80.9453ZM78.9453 106H87.9653V102H78.9453V106ZM85.9653 104V104.38H89.9653V104H85.9653ZM87.9653 102.38H79.3453V106.38H87.9653V102.38ZM77.3453 104.38V110.7H81.3453V104.38H77.3453ZM79.3453 112.7H87.0653V108.7H79.3453V112.7ZM85.0653 110.7V111.08H89.0653V110.7H85.0653ZM87.0653 109.08H79.3453V113.08H87.0653V109.08ZM77.3453 111.08V117.62H81.3453V111.08H77.3453ZM79.3453 119.62H88.2653V115.62H79.3453V119.62Z" fill="#FA668B"/>
<path d="M0 127L9.46667 128.736C18.9333 130.512 37.8667 133.984 56.8 134.469C75.7333 134.953 94.6667 132.37 113.6 135.761C132.533 139.112 151.467 148.398 170.4 150.295C189.333 152.152 208.267 146.661 227.2 143.876C246.133 141.13 265.067 141.13 274.533 141.13H284V322H274.533C265.067 322 246.133 322 227.2 322C208.267 322 189.333 322 170.4 322C151.467 322 132.533 322 113.6 322C94.6667 322 75.7333 322 56.8 322C37.8667 322 18.9333 322 9.46667 322H0V127Z" fill="#FA668B"/>
<path d="M0 170.555L9.46667 168.818C18.9333 167.041 37.8667 163.568 56.8 161.872C75.7333 160.176 94.6667 160.337 113.6 158.116C132.533 155.895 151.467 151.291 170.4 156.137C189.333 160.983 208.267 175.28 227.2 186.709C246.133 198.138 265.067 206.78 274.533 211.061L284 215.382V322H274.533C265.067 322 246.133 322 227.2 322C208.267 322 189.333 322 170.4 322C151.467 322 132.533 322 113.6 322C94.6667 322 75.7333 322 56.8 322C37.8667 322 18.9333 322 9.46667 322H0V170.555Z" fill="#FC557A"/>
<path d="M0 242.947L9.46667 241.737C18.9333 240.527 37.8667 238.107 56.8 235.203C75.7333 232.339 94.6667 228.951 113.6 225.926C132.533 222.901 151.467 220.239 170.4 219.674C189.333 219.15 208.267 220.763 227.2 218.021C246.133 215.238 265.067 208.139 274.533 204.549L284 201V322H274.533C265.067 322 246.133 322 227.2 322C208.267 322 189.333 322 170.4 322C151.467 322 132.533 322 113.6 322C94.6667 322 75.7333 322 56.8 322C37.8667 322 18.9333 322 9.46667 322H0V242.947Z" fill="#FD4267"/>
<path d="M0 241L9.46667 245.981C18.9333 251.003 37.8667 260.967 56.8 259.914C75.7333 258.82 94.6667 246.67 113.6 244.361C132.533 242.093 151.467 249.626 170.4 253.879C189.333 258.131 208.267 259.104 227.2 258.699C246.133 258.294 265.067 256.512 274.533 255.661L284 254.77V322H274.533C265.067 322 246.133 322 227.2 322C208.267 322 189.333 322 170.4 322C151.467 322 132.533 322 113.6 322C94.6667 322 75.7333 322 56.8 322C37.8667 322 18.9333 322 9.46667 322H0V241Z" fill="#FC2B53"/>
<path d="M0 287.127L9.46667 285.586C18.9333 284.004 37.8667 280.922 56.8 282.382C75.7333 283.883 94.6667 289.965 113.6 293.615C132.533 297.264 151.467 298.481 170.4 296.169C189.333 293.899 208.267 288.059 227.2 286.518C246.133 284.977 265.067 287.654 274.533 289.032L284 290.371V322H274.533C265.067 322 246.133 322 227.2 322C208.267 322 189.333 322 170.4 322C151.467 322 132.533 322 113.6 322C94.6667 322 75.7333 322 56.8 322C37.8667 322 18.9333 322 9.46667 322H0V287.127Z" fill="#F9003E"/>
<path d="M58.928 198.2V196.2C57.8234 196.2 56.928 197.095 56.928 198.2H58.928ZM60.152 198.2H62.152C62.152 197.095 61.2566 196.2 60.152 196.2V198.2ZM60.152 213.896H58.152C58.152 215.001 59.0474 215.896 60.152 215.896V213.896ZM69.824 213.896H71.824C71.824 212.791 70.9286 211.896 69.824 211.896V213.896ZM69.824 215V217C70.9286 217 71.824 216.105 71.824 215H69.824ZM58.928 215H56.928C56.928 216.105 57.8234 217 58.928 217V215ZM58.928 200.2H60.152V196.2H58.928V200.2ZM58.152 198.2V213.896H62.152V198.2H58.152ZM60.152 215.896H69.824V211.896H60.152V215.896ZM67.824 213.896V215H71.824V213.896H67.824ZM69.824 213H58.928V217H69.824V213ZM60.928 215V198.2H56.928V215H60.928ZM86.9591 213.896H88.9591C88.9591 212.791 88.0636 211.896 86.9591 211.896V213.896ZM86.9591 215V217C88.0636 217 88.9591 216.105 88.9591 215H86.9591ZM75.3671 215H73.3671C73.3671 216.105 74.2625 217 75.3671 217V215ZM75.3671 198.2V196.2C74.2625 196.2 73.3671 197.095 73.3671 198.2H75.3671ZM86.5991 198.2H88.5991C88.5991 197.095 87.7036 196.2 86.5991 196.2V198.2ZM86.5991 199.304V201.304C87.7036 201.304 88.5991 200.409 88.5991 199.304H86.5991ZM76.5911 199.304V197.304C75.4865 197.304 74.5911 198.199 74.5911 199.304H76.5911ZM76.5911 205.928H74.5911C74.5911 207.033 75.4865 207.928 76.5911 207.928V205.928ZM85.5431 205.928H87.5431C87.5431 204.823 86.6476 203.928 85.5431 203.928V205.928ZM85.5431 207.008V209.008C86.6476 209.008 87.5431 208.113 87.5431 207.008H85.5431ZM76.5911 207.008V205.008C75.4865 205.008 74.5911 205.903 74.5911 207.008H76.5911ZM76.5911 213.896H74.5911C74.5911 215.001 75.4865 215.896 76.5911 215.896V213.896ZM84.9591 213.896V215H88.9591V213.896H84.9591ZM86.9591 213H75.3671V217H86.9591V213ZM77.3671 215V198.2H73.3671V215H77.3671ZM75.3671 200.2H86.5991V196.2H75.3671V200.2ZM84.5991 198.2V199.304H88.5991V198.2H84.5991ZM86.5991 197.304H76.5911V201.304H86.5991V197.304ZM74.5911 199.304V205.928H78.5911V199.304H74.5911ZM76.5911 207.928H85.5431V203.928H76.5911V207.928ZM83.5431 205.928V207.008H87.5431V205.928H83.5431ZM85.5431 205.008H76.5911V209.008H85.5431V205.008ZM74.5911 207.008V213.896H78.5911V207.008H74.5911ZM76.5911 215.896H86.9591V211.896H76.5911V215.896ZM113.378 199.712L112.091 201.243C112.095 201.247 112.099 201.25 112.104 201.253L113.378 199.712ZM113.378 208.016L114.652 209.557C114.656 209.554 114.66 209.551 114.664 209.547L113.378 208.016ZM103.61 209.504V207.504C102.505 207.504 101.61 208.399 101.61 209.504H103.61ZM103.61 215V217C104.714 217 105.61 216.105 105.61 215H103.61ZM102.386 215H100.386C100.386 216.105 101.281 217 102.386 217V215ZM102.386 198.2V196.2C101.281 196.2 100.386 197.095 100.386 198.2H102.386ZM112.514 207.224L113.792 208.763L112.514 207.224ZM112.514 200.504L111.221 202.03C111.226 202.034 111.231 202.038 111.236 202.043L112.514 200.504ZM103.61 199.304V197.304C102.505 197.304 101.61 198.199 101.61 199.304H103.61ZM103.61 208.4H101.61C101.61 209.505 102.505 210.4 103.61 210.4V208.4ZM108.41 200.2C110.215 200.2 111.36 200.629 112.091 201.243L114.664 198.181C112.995 196.779 110.828 196.2 108.41 196.2V200.2ZM112.104 201.253C112.776 201.809 113.178 202.59 113.178 203.864H117.178C117.178 201.586 116.38 199.599 114.652 198.171L112.104 201.253ZM113.178 203.864C113.178 205.115 112.78 205.906 112.091 206.485L114.664 209.547C116.376 208.11 117.178 206.133 117.178 203.864H113.178ZM112.104 206.475C111.372 207.079 110.222 207.504 108.41 207.504V211.504C110.821 211.504 112.984 210.937 114.652 209.557L112.104 206.475ZM108.41 207.504H103.61V211.504H108.41V207.504ZM101.61 209.504V215H105.61V209.504H101.61ZM103.61 213H102.386V217H103.61V213ZM104.386 215V198.2H100.386V215H104.386ZM102.386 200.2H108.41V196.2H102.386V200.2ZM108.41 210.4C110.46 210.4 112.355 209.955 113.792 208.763L111.236 205.685C110.784 206.061 109.944 206.4 108.41 206.4V210.4ZM113.792 208.763C115.28 207.527 115.93 205.792 115.93 203.864H111.93C111.93 204.848 111.636 205.353 111.236 205.685L113.792 208.763ZM115.93 203.864C115.93 201.936 115.28 200.201 113.792 198.965L111.236 202.043C111.636 202.375 111.93 202.88 111.93 203.864H115.93ZM113.807 198.978C112.37 197.76 110.468 197.304 108.41 197.304V201.304C109.936 201.304 110.77 201.648 111.221 202.03L113.807 198.978ZM108.41 197.304H103.61V201.304H108.41V197.304ZM101.61 199.304V208.4H105.61V199.304H101.61ZM103.61 210.4H108.41V206.4H103.61V210.4ZM133.372 215L131.744 216.162C132.119 216.688 132.726 217 133.372 217V215ZM129.364 209.384L130.992 208.222C130.561 207.618 129.831 207.303 129.096 207.402L129.364 209.384ZM122.932 209.504V207.504C121.827 207.504 120.932 208.399 120.932 209.504H122.932ZM122.932 215V217C124.036 217 124.932 216.105 124.932 215H122.932ZM121.708 215H119.708C119.708 216.105 120.603 217 121.708 217V215ZM121.708 198.2V196.2C120.603 196.2 119.708 197.095 119.708 198.2H121.708ZM132.7 199.712L131.413 201.243C131.417 201.247 131.421 201.25 131.425 201.253L132.7 199.712ZM133.468 207.224L131.871 206.02L131.868 206.024L133.468 207.224ZM130.564 209.12L130.005 207.2C129.382 207.381 128.886 207.853 128.674 208.465C128.462 209.078 128.559 209.755 128.936 210.282L130.564 209.12ZM134.764 215V217C135.513 217 136.199 216.581 136.542 215.915C136.885 215.249 136.827 214.447 136.391 213.838L134.764 215ZM131.836 207.248L133.113 208.787C133.119 208.782 133.124 208.778 133.129 208.774L131.836 207.248ZM131.836 200.504L130.543 202.03C130.548 202.034 130.553 202.038 130.558 202.043L131.836 200.504ZM122.932 199.304V197.304C121.827 197.304 120.932 198.199 120.932 199.304H122.932ZM122.932 208.424H120.932C120.932 209.529 121.827 210.424 122.932 210.424V208.424ZM135 213.838L130.992 208.222L127.736 210.546L131.744 216.162L135 213.838ZM129.096 207.402C128.575 207.472 128.122 207.504 127.732 207.504V211.504C128.333 211.504 128.968 211.456 129.632 211.366L129.096 207.402ZM127.732 207.504H122.932V211.504H127.732V207.504ZM120.932 209.504V215H124.932V209.504H120.932ZM122.932 213H121.708V217H122.932V213ZM123.708 215V198.2H119.708V215H123.708ZM121.708 200.2H127.732V196.2H121.708V200.2ZM127.732 200.2C129.537 200.2 130.682 200.629 131.413 201.243L133.986 198.181C132.317 196.779 130.15 196.2 127.732 196.2V200.2ZM131.425 201.253C132.098 201.809 132.5 202.59 132.5 203.864H136.5C136.5 201.586 135.702 199.599 133.974 198.171L131.425 201.253ZM132.5 203.864C132.5 204.831 132.256 205.509 131.871 206.02L135.064 208.428C136.055 207.115 136.5 205.553 136.5 203.864H132.5ZM131.868 206.024C131.499 206.516 130.928 206.931 130.005 207.2L131.123 211.04C132.727 210.573 134.092 209.724 135.068 208.424L131.868 206.024ZM128.936 210.282L133.136 216.162L136.391 213.838L132.191 207.958L128.936 210.282ZM134.764 213H133.372V217H134.764V213ZM127.732 210.424C129.781 210.424 131.677 209.979 133.113 208.787L130.558 205.709C130.106 206.085 129.266 206.424 127.732 206.424V210.424ZM133.129 208.774C134.602 207.525 135.252 205.793 135.252 203.864H131.252C131.252 204.847 130.957 205.371 130.543 205.722L133.129 208.774ZM135.252 203.864C135.252 201.936 134.602 200.201 133.113 198.965L130.558 202.043C130.958 202.375 131.252 202.88 131.252 203.864H135.252ZM133.129 198.978C131.692 197.76 129.79 197.304 127.732 197.304V201.304C129.258 201.304 130.092 201.648 130.543 202.03L133.129 198.978ZM127.732 197.304H122.932V201.304H127.732V197.304ZM120.932 199.304V208.424H124.932V199.304H120.932ZM122.932 210.424H127.732V206.424H122.932V210.424ZM152.973 213.896H154.973C154.973 212.791 154.078 211.896 152.973 211.896V213.896ZM152.973 215V217C154.078 217 154.973 216.105 154.973 215H152.973ZM141.381 215H139.381C139.381 216.105 140.277 217 141.381 217V215ZM141.381 198.2V196.2C140.277 196.2 139.381 197.095 139.381 198.2H141.381ZM152.613 198.2H154.613C154.613 197.095 153.718 196.2 152.613 196.2V198.2ZM152.613 199.304V201.304C153.718 201.304 154.613 200.409 154.613 199.304H152.613ZM142.605 199.304V197.304C141.501 197.304 140.605 198.199 140.605 199.304H142.605ZM142.605 205.928H140.605C140.605 207.033 141.501 207.928 142.605 207.928V205.928ZM151.557 205.928H153.557C153.557 204.823 152.662 203.928 151.557 203.928V205.928ZM151.557 207.008V209.008C152.662 209.008 153.557 208.113 153.557 207.008H151.557ZM142.605 207.008V205.008C141.501 205.008 140.605 205.903 140.605 207.008H142.605ZM142.605 213.896H140.605C140.605 215.001 141.501 215.896 142.605 215.896V213.896ZM150.973 213.896V215H154.973V213.896H150.973ZM152.973 213H141.381V217H152.973V213ZM143.381 215V198.2H139.381V215H143.381ZM141.381 200.2H152.613V196.2H141.381V200.2ZM150.613 198.2V199.304H154.613V198.2H150.613ZM152.613 197.304H142.605V201.304H152.613V197.304ZM140.605 199.304V205.928H144.605V199.304H140.605ZM142.605 207.928H151.557V203.928H142.605V207.928ZM149.557 205.928V207.008H153.557V205.928H149.557ZM151.557 205.008H142.605V209.008H151.557V205.008ZM140.605 207.008V213.896H144.605V207.008H140.605ZM142.605 215.896H152.973V211.896H142.605V215.896ZM160.724 214.496L159.995 216.358C160.006 216.363 160.017 216.367 160.027 216.371L160.724 214.496ZM158.132 212.84L156.421 211.804C155.958 212.568 156.059 213.546 156.666 214.201L158.132 212.84ZM158.684 211.928L160.135 210.551C159.705 210.099 159.09 209.873 158.469 209.94C157.849 210.006 157.296 210.359 156.973 210.892L158.684 211.928ZM161.06 213.464L160.312 215.319C160.324 215.324 160.336 215.328 160.348 215.333L161.06 213.464ZM167.852 213.128L169.047 214.732L167.852 213.128ZM166.82 207.92L167.522 206.047L166.82 207.92ZM164.228 207.176L163.749 209.118C163.756 209.119 163.763 209.121 163.77 209.123L164.228 207.176ZM161.252 206.288L160.523 208.15C160.528 208.152 160.532 208.154 160.537 208.156L161.252 206.288ZM159.356 204.968L157.826 206.256C157.838 206.271 157.851 206.285 157.863 206.299L159.356 204.968ZM159.236 200.312L160.918 201.394C160.922 201.388 160.926 201.382 160.93 201.376L159.236 200.312ZM161.204 198.68L160.388 196.854L160.376 196.859L161.204 198.68ZM167.276 198.488L166.695 200.402L167.276 198.488ZM169.604 199.592L171.418 200.433C171.824 199.557 171.547 198.517 170.759 197.959L169.604 199.592ZM169.148 200.576L168.011 202.222C168.497 202.557 169.105 202.661 169.674 202.506C170.243 202.35 170.714 201.952 170.962 201.417L169.148 200.576ZM166.916 199.52L166.341 201.436L166.351 201.439L166.916 199.52ZM161.012 200.096L159.782 198.519L161.012 200.096ZM160.46 204.32L159.02 205.708L160.46 204.32ZM162.068 205.352L161.366 207.225L162.068 205.352ZM164.684 206.12L165.163 204.178H165.162L164.684 206.12ZM167.636 207.008L166.907 208.87L167.636 207.008ZM169.508 208.328L167.995 209.636C168.008 209.651 168.02 209.665 168.034 209.679L169.508 208.328ZM169.628 212.912L167.964 211.803C167.958 211.812 167.951 211.821 167.945 211.83L169.628 212.912ZM167.612 214.52L166.808 212.688L167.612 214.52ZM164.252 213.12C163.25 213.12 162.31 212.952 161.42 212.621L160.027 216.371C161.377 216.872 162.79 217.12 164.252 217.12V213.12ZM161.453 212.634C160.55 212.28 159.966 211.876 159.597 211.479L156.666 214.201C157.546 215.148 158.69 215.848 159.995 216.358L161.453 212.634ZM159.843 213.876L160.395 212.964L156.973 210.892L156.421 211.804L159.843 213.876ZM157.233 213.305C158.064 214.181 159.117 214.837 160.312 215.319L161.808 211.609C161.019 211.291 160.487 210.923 160.135 210.551L157.233 213.305ZM160.348 215.333C161.589 215.806 162.886 216.04 164.228 216.04V212.04C163.361 212.04 162.547 211.89 161.772 211.595L160.348 215.333ZM164.228 216.04C166.029 216.04 167.738 215.707 169.047 214.732L166.657 211.524C166.333 211.765 165.627 212.04 164.228 212.04V216.04ZM169.047 214.732C170.344 213.765 171.076 212.391 171.076 210.752H167.076C167.076 211.065 166.992 211.275 166.657 211.524L169.047 214.732ZM171.076 210.752C171.076 209.597 170.731 208.46 169.868 207.564L166.988 210.34C166.988 210.34 167.076 210.403 167.076 210.752H171.076ZM169.868 207.564C169.209 206.881 168.413 206.381 167.522 206.047L166.118 209.793C166.507 209.939 166.782 210.127 166.988 210.34L169.868 207.564ZM167.522 206.047C166.768 205.765 165.812 205.494 164.686 205.229L163.77 209.123C164.82 209.37 165.591 209.595 166.118 209.793L167.522 206.047ZM164.707 205.234C163.515 204.94 162.611 204.667 161.967 204.42L160.537 208.156C161.396 208.485 162.476 208.804 163.749 209.118L164.707 205.234ZM161.981 204.426C161.539 204.253 161.168 203.995 160.848 203.637L157.863 206.299C158.6 207.125 159.493 207.747 160.523 208.15L161.981 204.426ZM160.886 203.68C160.751 203.52 160.588 203.21 160.588 202.544H156.588C156.588 203.894 156.936 205.2 157.826 206.256L160.886 203.68ZM160.588 202.544C160.588 202.103 160.698 201.736 160.918 201.394L157.553 199.23C156.909 200.232 156.588 201.353 156.588 202.544H160.588ZM160.93 201.376C161.116 201.078 161.439 200.77 162.031 200.501L160.376 196.859C159.208 197.39 158.219 198.17 157.542 199.248L160.93 201.376ZM162.019 200.506C162.585 200.254 163.399 200.08 164.54 200.08V196.08C163.025 196.08 161.615 196.306 160.389 196.854L162.019 200.506ZM164.54 200.08C165.269 200.08 165.985 200.186 166.695 200.402L167.857 196.574C166.774 196.246 165.666 196.08 164.54 196.08V200.08ZM166.695 200.402C167.419 200.622 167.994 200.903 168.449 201.225L170.759 197.959C169.902 197.353 168.925 196.898 167.857 196.574L166.695 200.402ZM167.789 198.751L167.333 199.735L170.962 201.417L171.418 200.433L167.789 198.751ZM170.284 198.93C169.43 198.34 168.492 197.899 167.48 197.601L166.351 201.439C166.972 201.621 167.522 201.884 168.011 202.222L170.284 198.93ZM167.491 197.604C166.516 197.312 165.531 197.16 164.54 197.16V201.16C165.117 201.16 165.715 201.248 166.341 201.436L167.491 197.604ZM164.54 197.16C162.766 197.16 161.076 197.509 159.782 198.519L162.242 201.673C162.547 201.435 163.21 201.16 164.54 201.16V197.16ZM159.782 198.519C158.509 199.512 157.812 200.896 157.812 202.52H161.812C161.812 202.16 161.915 201.928 162.242 201.673L159.782 198.519ZM157.812 202.52C157.812 203.675 158.156 204.812 159.02 205.708L161.9 202.932C161.899 202.932 161.812 202.869 161.812 202.52H157.812ZM159.02 205.708C159.678 206.391 160.475 206.891 161.366 207.225L162.77 203.479C162.381 203.333 162.105 203.145 161.9 202.932L159.02 205.708ZM161.366 207.225C162.111 207.504 163.068 207.782 164.205 208.062L165.162 204.178C164.092 203.914 163.305 203.68 162.77 203.479L161.366 207.225ZM164.205 208.062C165.396 208.356 166.286 208.627 166.907 208.87L168.365 205.146C167.514 204.813 166.436 204.492 165.163 204.178L164.205 208.062ZM166.907 208.87C167.344 209.041 167.698 209.292 167.995 209.636L171.021 207.02C170.294 206.18 169.4 205.551 168.365 205.146L166.907 208.87ZM168.034 209.679C168.139 209.795 168.3 210.049 168.3 210.68H172.3C172.3 209.327 171.932 208.013 170.982 206.977L168.034 209.679ZM168.3 210.68C168.3 211.106 168.19 211.463 167.964 211.803L171.292 214.021C171.961 213.017 172.3 211.886 172.3 210.68H168.3ZM167.945 211.83C167.773 212.098 167.449 212.407 166.808 212.688L168.415 216.352C169.598 215.833 170.618 215.07 171.31 213.994L167.945 211.83ZM166.808 212.688C166.219 212.947 165.391 213.12 164.252 213.12V217.12C165.769 217.12 167.18 216.893 168.415 216.352L166.808 212.688ZM188.453 213.896H190.453C190.453 212.791 189.557 211.896 188.453 211.896V213.896ZM188.453 215V217C189.557 217 190.453 216.105 190.453 215H188.453ZM176.861 215H174.861C174.861 216.105 175.756 217 176.861 217V215ZM176.861 198.2V196.2C175.756 196.2 174.861 197.095 174.861 198.2H176.861ZM188.093 198.2H190.093C190.093 197.095 189.197 196.2 188.093 196.2V198.2ZM188.093 199.304V201.304C189.197 201.304 190.093 200.409 190.093 199.304H188.093ZM178.085 199.304V197.304C176.98 197.304 176.085 198.199 176.085 199.304H178.085ZM178.085 205.928H176.085C176.085 207.033 176.98 207.928 178.085 207.928V205.928ZM187.037 205.928H189.037C189.037 204.823 188.141 203.928 187.037 203.928V205.928ZM187.037 207.008V209.008C188.141 209.008 189.037 208.113 189.037 207.008H187.037ZM178.085 207.008V205.008C176.98 205.008 176.085 205.903 176.085 207.008H178.085ZM178.085 213.896H176.085C176.085 215.001 176.98 215.896 178.085 215.896V213.896ZM186.453 213.896V215H190.453V213.896H186.453ZM188.453 213H176.861V217H188.453V213ZM178.861 215V198.2H174.861V215H178.861ZM176.861 200.2H188.093V196.2H176.861V200.2ZM186.093 198.2V199.304H190.093V198.2H186.093ZM188.093 197.304H178.085V201.304H188.093V197.304ZM176.085 199.304V205.928H180.085V199.304H176.085ZM178.085 207.928H187.037V203.928H178.085V207.928ZM185.037 205.928V207.008H189.037V205.928H185.037ZM187.037 205.008H178.085V209.008H187.037V205.008ZM176.085 207.008V213.896H180.085V207.008H176.085ZM178.085 215.896H188.453V211.896H178.085V215.896ZM208.995 198.2H210.995C210.995 197.095 210.1 196.2 208.995 196.2V198.2ZM208.995 215V217C210.1 217 210.995 216.105 210.995 215H208.995ZM207.988 215L206.414 216.234C206.793 216.718 207.373 217 207.988 217V215ZM196.539 200.408L198.113 199.173C197.587 198.502 196.693 198.239 195.886 198.518C195.08 198.796 194.539 199.555 194.539 200.408H196.539ZM196.539 215V217C197.644 217 198.539 216.105 198.539 215H196.539ZM195.315 215H193.315C193.315 216.105 194.211 217 195.315 217V215ZM195.315 198.2V196.2C194.211 196.2 193.315 197.095 193.315 198.2H195.315ZM196.348 198.2L197.922 196.967C197.543 196.483 196.962 196.2 196.348 196.2V198.2ZM207.771 212.792L206.197 214.025C206.723 214.697 207.617 214.961 208.424 214.683C209.23 214.405 209.771 213.645 209.771 212.792H207.771ZM207.771 198.2V196.2C206.667 196.2 205.771 197.095 205.771 198.2H207.771ZM206.995 198.2V215H210.995V198.2H206.995ZM208.995 213H207.988V217H208.995V213ZM209.561 213.766L198.113 199.173L194.966 201.642L206.414 216.234L209.561 213.766ZM194.539 200.408V215H198.539V200.408H194.539ZM196.539 213H195.315V217H196.539V213ZM197.315 215V198.2H193.315V215H197.315ZM195.315 200.2H196.348V196.2H195.315V200.2ZM194.773 199.433L206.197 214.025L209.346 211.559L197.922 196.967L194.773 199.433ZM209.771 212.792V198.2H205.771V212.792H209.771ZM207.771 200.2H208.995V196.2H207.771V200.2ZM220.478 199.304H222.478C222.478 198.199 221.583 197.304 220.478 197.304V199.304ZM214.43 199.304H212.43C212.43 200.409 213.326 201.304 214.43 201.304V199.304ZM214.43 198.2V196.2C213.326 196.2 212.43 197.095 212.43 198.2H214.43ZM227.75 198.2H229.75C229.75 197.095 228.855 196.2 227.75 196.2V198.2ZM227.75 199.304V201.304C228.855 201.304 229.75 200.409 229.75 199.304H227.75ZM221.702 199.304V197.304C220.598 197.304 219.702 198.199 219.702 199.304H221.702ZM221.702 215V217C222.807 217 223.702 216.105 223.702 215H221.702ZM220.478 215H218.478C218.478 216.105 219.374 217 220.478 217V215ZM220.478 197.304H214.43V201.304H220.478V197.304ZM216.43 199.304V198.2H212.43V199.304H216.43ZM214.43 200.2H227.75V196.2H214.43V200.2ZM225.75 198.2V199.304H229.75V198.2H225.75ZM227.75 197.304H221.702V201.304H227.75V197.304ZM219.702 199.304V215H223.702V199.304H219.702ZM221.702 213H220.478V217H221.702V213ZM222.478 215V199.304H218.478V215H222.478Z" fill="white"/>
<g style="mix-blend-mode:soft-light">
<path d="M44 187.5H239" stroke="white"/>
</g>
<path d="M145 193.161L149.346 192" stroke="white" stroke-width="3" stroke-linecap="round"/>
<mask id="mask0_139_298" style="mask-type:alpha" maskUnits="userSpaceOnUse" x="46" y="126" width="196" height="57">
<path d="M66.096 132.104L64.1636 134.399L66.096 132.104ZM66.096 144.776L68.0106 147.086C68.0165 147.081 68.0225 147.076 68.0284 147.071L66.096 144.776ZM51.768 147.044V144.044C50.1111 144.044 48.768 145.387 48.768 147.044H51.768ZM51.768 155V158C53.4249 158 54.768 156.657 54.768 155H51.768ZM49.104 155H46.104C46.104 156.657 47.4471 158 49.104 158V155ZM49.104 129.8V126.8C47.4471 126.8 46.104 128.143 46.104 129.8H49.104ZM64.188 143.084L66.0877 145.406C66.0961 145.399 66.1044 145.392 66.1127 145.385L64.188 143.084ZM64.188 133.76L62.2633 136.061C62.2716 136.068 62.2799 136.075 62.2883 136.082L64.188 133.76ZM51.768 132.104V129.104C50.1111 129.104 48.768 130.447 48.768 132.104H51.768ZM51.768 144.704H48.768C48.768 146.361 50.1111 147.704 51.768 147.704V144.704ZM58.536 132.8C61.2923 132.8 63.0436 133.456 64.1636 134.399L68.0284 129.809C65.5004 127.68 62.2117 126.8 58.536 126.8V132.8ZM64.1636 134.399C65.2196 135.288 65.832 136.511 65.832 138.44H71.832C71.832 134.993 70.6204 131.992 68.0284 129.809L64.1636 134.399ZM65.832 138.44C65.832 140.369 65.2196 141.592 64.1636 142.481L68.0284 147.071C70.6204 144.888 71.832 141.887 71.832 138.44H65.832ZM64.1814 142.466C63.0608 143.395 61.3026 144.044 58.536 144.044V150.044C62.2014 150.044 65.4832 149.181 68.0106 147.086L64.1814 142.466ZM58.536 144.044H51.768V150.044H58.536V144.044ZM48.768 147.044V155H54.768V147.044H48.768ZM51.768 152H49.104V158H51.768V152ZM52.104 155V129.8H46.104V155H52.104ZM49.104 132.8H58.536V126.8H49.104V132.8ZM58.464 147.704C61.3412 147.704 64.0322 147.088 66.0877 145.406L62.2883 140.762C61.7038 141.24 60.5788 141.704 58.464 141.704V147.704ZM66.1127 145.385C68.2255 143.618 69.168 141.164 69.168 138.44H63.168C63.168 139.7 62.7905 140.342 62.2633 140.783L66.1127 145.385ZM69.168 138.44C69.168 135.696 68.2425 133.201 66.0877 131.438L62.2883 136.082C62.7735 136.479 63.168 137.104 63.168 138.44H69.168ZM66.1127 131.459C64.0555 129.738 61.3542 129.104 58.464 129.104V135.104C60.5658 135.104 61.6805 135.574 62.2633 136.061L66.1127 131.459ZM58.464 129.104H51.768V135.104H58.464V129.104ZM48.768 132.104V144.704H54.768V132.104H48.768ZM51.768 147.704H58.464V141.704H51.768V147.704ZM95.4003 155L92.9554 156.739C93.5182 157.53 94.4292 158 95.4003 158V155ZM89.6403 146.9L92.0851 145.161C91.454 144.274 90.3914 143.798 89.309 143.918L89.6403 146.9ZM80.8563 147.008V144.008C79.1994 144.008 77.8563 145.351 77.8563 147.008H80.8563ZM80.8563 155V158C82.5131 158 83.8563 156.657 83.8563 155H80.8563ZM78.1923 155H75.1923C75.1923 156.657 76.5354 158 78.1923 158V155ZM78.1923 129.8V126.8C76.5354 126.8 75.1923 128.143 75.1923 129.8H78.1923ZM95.1843 132.104L93.2519 134.399L95.1843 132.104ZM96.4083 143.444L93.9931 141.664L93.9877 141.672L96.4083 143.444ZM92.1603 146.36L91.2339 143.507C90.325 143.802 89.6111 144.512 89.3115 145.419C89.012 146.327 89.1625 147.323 89.717 148.101L92.1603 146.36ZM98.3163 155V158C99.4394 158 100.468 157.373 100.983 156.374C101.497 155.376 101.411 154.174 100.76 153.259L98.3163 155ZM93.2763 143.084L95.2009 145.385H95.201L93.2763 143.084ZM93.2763 133.76L91.3516 136.061C91.3599 136.068 91.3682 136.075 91.3766 136.082L93.2763 133.76ZM80.8563 132.104V129.104C79.1994 129.104 77.8563 130.447 77.8563 132.104H80.8563ZM80.8563 144.74H77.8563C77.8563 146.397 79.1994 147.74 80.8563 147.74V144.74ZM97.8451 153.261L92.0851 145.161L87.1954 148.639L92.9554 156.739L97.8451 153.261ZM89.309 143.918C88.7781 143.977 88.217 144.008 87.6243 144.008V150.008C88.4236 150.008 89.2065 149.967 89.9716 149.882L89.309 143.918ZM87.6243 144.008H80.8563V150.008H87.6243V144.008ZM77.8563 147.008V155H83.8563V147.008H77.8563ZM80.8563 152H78.1923V158H80.8563V152ZM81.1923 155V129.8H75.1923V155H81.1923ZM78.1923 132.8H87.6243V126.8H78.1923V132.8ZM87.6243 132.8C90.3806 132.8 92.1319 133.456 93.2519 134.399L97.1167 129.809C94.5887 127.68 91.3 126.8 87.6243 126.8V132.8ZM93.2519 134.399C94.3079 135.288 94.9203 136.511 94.9203 138.44H100.92C100.92 134.993 99.7086 131.992 97.1167 129.809L93.2519 134.399ZM94.9203 138.44C94.9203 139.873 94.5633 140.891 93.9931 141.664L98.8234 145.224C100.269 143.261 100.92 140.943 100.92 138.44H94.9203ZM93.9877 141.672C93.4351 142.427 92.5856 143.068 91.2339 143.507L93.0867 149.213C95.4309 148.452 97.4135 147.149 98.8289 145.216L93.9877 141.672ZM89.717 148.101L95.873 156.741L100.76 153.259L94.6035 144.619L89.717 148.101ZM98.3163 152H95.4003V158H98.3163V152ZM87.5523 147.74C90.4425 147.74 93.1438 147.106 95.2009 145.385L91.3516 140.783C90.7688 141.27 89.654 141.74 87.5523 141.74V147.74ZM95.201 145.385C97.3138 143.618 98.2563 141.164 98.2563 138.44H92.2563C92.2563 139.7 91.8788 140.342 91.3516 140.783L95.201 145.385ZM98.2563 138.44C98.2563 135.696 97.3308 133.201 95.176 131.438L91.3766 136.082C91.8618 136.479 92.2563 137.104 92.2563 138.44H98.2563ZM95.2009 131.459C93.1438 129.738 90.4425 129.104 87.5523 129.104V135.104C89.654 135.104 90.7688 135.574 91.3516 136.061L95.2009 131.459ZM87.5523 129.104H80.8563V135.104H87.5523V129.104ZM77.8563 132.104V144.74H83.8563V132.104H77.8563ZM80.8563 147.74H87.5523V141.74H80.8563V147.74ZM125.628 152.696H128.628C128.628 151.039 127.285 149.696 125.628 149.696V152.696ZM125.628 155V158C127.285 158 128.628 156.657 128.628 155H125.628ZM107.808 155H104.808C104.808 156.657 106.151 158 107.808 158V155ZM107.808 129.8V126.8C106.151 126.8 104.808 128.143 104.808 129.8H107.808ZM125.088 129.8H128.088C128.088 128.143 126.745 126.8 125.088 126.8V129.8ZM125.088 132.104V135.104C126.745 135.104 128.088 133.761 128.088 132.104H125.088ZM110.472 132.104V129.104C108.815 129.104 107.472 130.447 107.472 132.104H110.472ZM110.472 141.068H107.472C107.472 142.725 108.815 144.068 110.472 144.068V141.068ZM123.504 141.068H126.504C126.504 139.411 125.161 138.068 123.504 138.068V141.068ZM123.504 143.336V146.336C125.161 146.336 126.504 144.993 126.504 143.336H123.504ZM110.472 143.336V140.336C108.815 140.336 107.472 141.679 107.472 143.336H110.472ZM110.472 152.696H107.472C107.472 154.353 108.815 155.696 110.472 155.696V152.696ZM122.628 152.696V155H128.628V152.696H122.628ZM125.628 152H107.808V158H125.628V152ZM110.808 155V129.8H104.808V155H110.808ZM107.808 132.8H125.088V126.8H107.808V132.8ZM122.088 129.8V132.104H128.088V129.8H122.088ZM125.088 129.104H110.472V135.104H125.088V129.104ZM107.472 132.104V141.068H113.472V132.104H107.472ZM110.472 144.068H123.504V138.068H110.472V144.068ZM120.504 141.068V143.336H126.504V141.068H120.504ZM123.504 140.336H110.472V146.336H123.504V140.336ZM107.472 143.336V152.696H113.472V143.336H107.472ZM110.472 155.696H125.628V149.696H110.472V155.696ZM137.038 154.316L136.042 157.146L136.054 157.15L137.038 154.316ZM133.078 151.94L130.404 150.58C129.828 151.713 130.028 153.086 130.904 154.008L133.078 151.94ZM134.122 149.888L136.243 147.767C135.564 147.087 134.601 146.775 133.652 146.925C132.703 147.076 131.884 147.671 131.448 148.528L134.122 149.888ZM137.758 152.12L136.69 154.923C136.703 154.928 136.716 154.933 136.729 154.938L137.758 152.12ZM147.514 151.724L149.272 154.155C149.284 154.147 149.295 154.138 149.306 154.13L147.514 151.724ZM148.27 146.072L146.149 148.193C146.162 148.207 146.176 148.221 146.191 148.234L148.27 146.072ZM146.038 144.704L144.976 147.51C144.999 147.518 145.021 147.526 145.043 147.534L146.038 144.704ZM142.33 143.624L141.594 146.532C141.603 146.535 141.613 146.537 141.623 146.54L142.33 143.624ZM137.794 142.256L136.67 145.037C136.687 145.044 136.704 145.051 136.721 145.058L137.794 142.256ZM134.878 140.204L132.613 142.171C132.623 142.182 132.632 142.193 132.642 142.204L134.878 140.204ZM134.698 133.04L137.212 134.677C137.218 134.668 137.223 134.659 137.229 134.651L134.698 133.04ZM137.794 130.52L139.021 133.258L137.794 130.52ZM147.19 130.196L146.333 133.071C146.352 133.077 146.372 133.082 146.392 133.088L147.19 130.196ZM150.79 131.816L153.552 132.986C154.107 131.676 153.666 130.156 152.495 129.347L150.79 131.816ZM149.89 133.94L148.239 136.445C148.983 136.935 149.906 137.069 150.758 136.812C151.611 136.554 152.305 135.931 152.652 135.11L149.89 133.94ZM146.506 132.392L145.644 135.265C145.662 135.271 145.679 135.276 145.697 135.281L146.506 132.392ZM137.974 133.148L139.791 135.535L139.798 135.53L137.974 133.148ZM137.218 138.872L135.055 140.951C135.083 140.98 135.11 141.007 135.139 141.034L137.218 138.872ZM139.522 140.276L138.485 143.091C138.514 143.102 138.544 143.112 138.573 143.122L139.522 140.276ZM143.266 141.32L143.985 138.407H143.983L143.266 141.32ZM147.73 142.688L146.606 145.469C146.629 145.479 146.653 145.488 146.677 145.497L147.73 142.688ZM150.646 144.704L148.381 146.671C148.39 146.681 148.398 146.691 148.407 146.701L150.646 144.704ZM150.79 151.832L148.285 150.181C148.282 150.186 148.279 150.19 148.276 150.195L150.79 151.832ZM147.658 154.316L148.828 157.078C148.842 157.073 148.855 157.067 148.868 157.061L147.658 154.316ZM142.438 152.216C140.893 152.216 139.426 151.97 138.022 151.482L136.054 157.15C138.106 157.862 140.239 158.216 142.438 158.216V152.216ZM138.034 151.486C136.636 150.994 135.771 150.419 135.252 149.872L130.904 154.008C132.257 155.429 134.032 156.438 136.042 157.146L138.034 151.486ZM135.752 153.3L136.796 151.248L131.448 148.528L130.404 150.58L135.752 153.3ZM132.001 152.009C133.278 153.286 134.88 154.234 136.69 154.923L138.826 149.317C137.612 148.854 136.79 148.314 136.243 147.767L132.001 152.009ZM136.729 154.938C138.57 155.61 140.479 155.948 142.438 155.948V149.948C141.181 149.948 139.969 149.734 138.787 149.302L136.729 154.938ZM142.438 155.948C144.966 155.948 147.403 155.507 149.272 154.155L145.756 149.293C145.369 149.573 144.422 149.948 142.438 149.948V155.948ZM149.306 154.13C151.136 152.767 152.206 150.822 152.206 148.484H146.206C146.206 148.786 146.148 149.001 145.722 149.318L149.306 154.13ZM152.206 148.484C152.206 146.806 151.659 145.169 150.349 143.91L146.191 148.234C146.194 148.238 146.19 148.234 146.183 148.224C146.177 148.214 146.174 148.208 146.175 148.21C146.176 148.213 146.206 148.29 146.206 148.484H152.206ZM150.391 143.951C149.44 143 148.298 142.318 147.032 141.874L145.043 147.534C145.554 147.714 145.9 147.944 146.149 148.193L150.391 143.951ZM147.1 141.898C146.042 141.498 144.669 141.104 143.037 140.708L141.623 146.54C143.159 146.912 144.257 147.238 144.976 147.51L147.1 141.898ZM143.066 140.716C141.224 140.249 139.839 139.827 138.867 139.454L136.721 145.058C138.005 145.549 139.644 146.039 141.594 146.532L143.066 140.716ZM138.918 139.475C138.218 139.192 137.626 138.776 137.114 138.204L132.642 142.204C133.762 143.456 135.114 144.408 136.67 145.037L138.918 139.475ZM137.143 138.237C136.949 138.014 136.69 137.549 136.69 136.496H130.69C130.69 138.563 131.222 140.57 132.613 142.171L137.143 138.237ZM136.69 136.496C136.69 135.785 136.868 135.205 137.212 134.677L132.184 131.403C131.184 132.939 130.69 134.663 130.69 136.496H136.69ZM137.229 134.651C137.523 134.189 138.046 133.694 139.021 133.258L136.567 127.782C134.757 128.594 133.217 129.779 132.167 131.429L137.229 134.651ZM139.021 133.258C139.916 132.856 141.196 132.584 142.978 132.584V126.584C140.632 126.584 138.455 126.936 136.567 127.782L139.021 133.258ZM142.978 132.584C144.13 132.584 145.245 132.747 146.333 133.071L148.047 127.321C146.399 126.829 144.706 126.584 142.978 126.584V132.584ZM146.392 133.088C147.517 133.398 148.398 133.81 149.085 134.285L152.495 129.347C151.166 128.43 149.647 127.762 147.988 127.304L146.392 133.088ZM148.028 130.646L147.128 132.77L152.652 135.11L153.552 132.986L148.028 130.646ZM151.541 131.435C150.23 130.571 148.818 129.924 147.315 129.503L145.697 135.281C146.594 135.532 147.438 135.917 148.239 136.445L151.541 131.435ZM147.368 129.519C145.913 129.082 144.446 128.852 142.978 128.852V134.852C143.814 134.852 144.699 134.982 145.644 135.265L147.368 129.519ZM142.978 128.852C140.454 128.852 138.021 129.333 136.15 130.766L139.798 135.53C140.183 135.235 141.086 134.852 142.978 134.852V128.852ZM136.157 130.761C134.336 132.146 133.318 134.108 133.318 136.424H139.318C139.318 136.052 139.404 135.83 139.791 135.535L136.157 130.761ZM133.318 136.424C133.318 138.07 133.83 139.677 135.055 140.951L139.38 136.793C139.369 136.781 139.366 136.777 139.359 136.757C139.348 136.729 139.318 136.63 139.318 136.424H133.318ZM135.139 141.034C136.096 141.955 137.232 142.629 138.485 143.091L140.559 137.461C139.988 137.251 139.588 136.989 139.297 136.709L135.139 141.034ZM138.573 143.122C139.618 143.47 140.953 143.84 142.549 144.233L143.983 138.407C142.459 138.032 141.298 137.706 140.471 137.43L138.573 143.122ZM142.547 144.233C144.325 144.671 145.661 145.088 146.606 145.469L148.854 139.907C147.542 139.376 145.903 138.881 143.985 138.407L142.547 144.233ZM146.677 145.497C147.37 145.757 147.923 146.143 148.381 146.671L152.911 142.737C151.785 141.441 150.394 140.483 148.783 139.879L146.677 145.497ZM148.407 146.701C148.58 146.895 148.834 147.32 148.834 148.34H154.834C154.834 146.288 154.296 144.289 152.885 142.707L148.407 146.701ZM148.834 148.34C148.834 149.029 148.656 149.618 148.285 150.181L153.295 153.483C154.316 151.934 154.834 150.195 154.834 148.34H148.834ZM148.276 150.195C147.994 150.627 147.468 151.122 146.448 151.571L148.868 157.061C150.68 156.262 152.241 155.101 153.304 153.469L148.276 150.195ZM146.487 151.554C145.545 151.953 144.23 152.216 142.438 152.216V158.216C144.774 158.216 146.939 157.879 148.828 157.078L146.487 151.554ZM179.058 152.696H182.058C182.058 151.039 180.715 149.696 179.058 149.696V152.696ZM179.058 155V158C180.715 158 182.058 156.657 182.058 155H179.058ZM161.238 155H158.238C158.238 156.657 159.582 158 161.238 158V155ZM161.238 129.8V126.8C159.582 126.8 158.238 128.143 158.238 129.8H161.238ZM178.518 129.8H181.518C181.518 128.143 180.175 126.8 178.518 126.8V129.8ZM178.518 132.104V135.104C180.175 135.104 181.518 133.761 181.518 132.104H178.518ZM163.902 132.104V129.104C162.246 129.104 160.902 130.447 160.902 132.104H163.902ZM163.902 141.068H160.902C160.902 142.725 162.246 144.068 163.902 144.068V141.068ZM176.934 141.068H179.934C179.934 139.411 178.591 138.068 176.934 138.068V141.068ZM176.934 143.336V146.336C178.591 146.336 179.934 144.993 179.934 143.336H176.934ZM163.902 143.336V140.336C162.246 140.336 160.902 141.679 160.902 143.336H163.902ZM163.902 152.696H160.902C160.902 154.353 162.246 155.696 163.902 155.696V152.696ZM176.058 152.696V155H182.058V152.696H176.058ZM179.058 152H161.238V158H179.058V152ZM164.238 155V129.8H158.238V155H164.238ZM161.238 132.8H178.518V126.8H161.238V132.8ZM175.518 129.8V132.104H181.518V129.8H175.518ZM178.518 129.104H163.902V135.104H178.518V129.104ZM160.902 132.104V141.068H166.902V132.104H160.902ZM163.902 144.068H176.934V138.068H163.902V144.068ZM173.934 141.068V143.336H179.934V141.068H173.934ZM176.934 140.336H163.902V146.336H176.934V140.336ZM160.902 143.336V152.696H166.902V143.336H160.902ZM163.902 155.696H179.058V149.696H163.902V155.696ZM209.98 129.8H212.98C212.98 128.143 211.637 126.8 209.98 126.8V129.8ZM209.98 155V158C211.637 158 212.98 156.657 212.98 155H209.98ZM207.784 155L205.433 156.863C206.002 157.581 206.868 158 207.784 158V155ZM191.584 134.552L193.936 132.689C193.143 131.688 191.804 131.299 190.598 131.719C189.392 132.139 188.584 133.275 188.584 134.552H191.584ZM191.584 155V158C193.241 158 194.584 156.657 194.584 155H191.584ZM188.92 155H185.92C185.92 156.657 187.264 158 188.92 158V155ZM188.92 129.8V126.8C187.264 126.8 185.92 128.143 185.92 129.8H188.92ZM191.116 129.8L193.466 127.935C192.897 127.218 192.032 126.8 191.116 126.8V129.8ZM207.352 150.248L205.003 152.113C205.796 153.113 207.135 153.501 208.34 153.081C209.545 152.661 210.352 151.524 210.352 150.248H207.352ZM207.352 129.8V126.8C205.696 126.8 204.352 128.143 204.352 129.8H207.352ZM206.98 129.8V155H212.98V129.8H206.98ZM209.98 152H207.784V158H209.98V152ZM210.136 153.137L193.936 132.689L189.233 136.415L205.433 156.863L210.136 153.137ZM188.584 134.552V155H194.584V134.552H188.584ZM191.584 152H188.92V158H191.584V152ZM191.92 155V129.8H185.92V155H191.92ZM188.92 132.8H191.116V126.8H188.92V132.8ZM188.767 131.665L205.003 152.113L209.702 148.383L193.466 127.935L188.767 131.665ZM210.352 150.248V129.8H204.352V150.248H210.352ZM207.352 132.8H209.98V126.8H207.352V132.8ZM226.702 132.104H229.702C229.702 130.447 228.358 129.104 226.702 129.104V132.104ZM217.846 132.104H214.846C214.846 133.761 216.189 135.104 217.846 135.104V132.104ZM217.846 129.8V126.8C216.189 126.8 214.846 128.143 214.846 129.8H217.846ZM238.222 129.8H241.222C241.222 128.143 239.878 126.8 238.222 126.8V129.8ZM238.222 132.104V135.104C239.878 135.104 241.222 133.761 241.222 132.104H238.222ZM229.366 132.104V129.104C227.709 129.104 226.366 130.447 226.366 132.104H229.366ZM229.366 155V158C231.022 158 232.366 156.657 232.366 155H229.366ZM226.702 155H223.702C223.702 156.657 225.045 158 226.702 158V155ZM226.702 129.104H217.846V135.104H226.702V129.104ZM220.846 132.104V129.8H214.846V132.104H220.846ZM217.846 132.8H238.222V126.8H217.846V132.8ZM235.222 129.8V132.104H241.222V129.8H235.222ZM238.222 129.104H229.366V135.104H238.222V129.104ZM226.366 132.104V155H232.366V132.104H226.366ZM229.366 152H226.702V158H229.366V152ZM229.702 155V132.104H223.702V155H229.702Z" fill="white"/>
<path d="M169.28 166.38H171.28C171.28 165.275 170.385 164.38 169.28 164.38V166.38ZM164.08 166.38H162.08C162.08 167.485 162.975 168.38 164.08 168.38V166.38ZM164.08 166V164C162.975 164 162.08 164.895 162.08 166H164.08ZM174.88 166H176.88C176.88 164.895 175.985 164 174.88 164V166ZM174.88 166.38V168.38C175.985 168.38 176.88 167.485 176.88 166.38H174.88ZM169.68 166.38V164.38C168.575 164.38 167.68 165.275 167.68 166.38H169.68ZM169.68 180V182C170.785 182 171.68 181.105 171.68 180H169.68ZM169.28 180H167.28C167.28 181.105 168.175 182 169.28 182V180ZM169.28 164.38H164.08V168.38H169.28V164.38ZM166.08 166.38V166H162.08V166.38H166.08ZM164.08 168H174.88V164H164.08V168ZM172.88 166V166.38H176.88V166H172.88ZM174.88 164.38H169.68V168.38H174.88V164.38ZM167.68 166.38V180H171.68V166.38H167.68ZM169.68 178H169.28V182H169.68V178ZM171.28 180V166.38H167.28V180H171.28ZM188.937 179.62H190.937C190.937 178.515 190.042 177.62 188.937 177.62V179.62ZM188.937 180V182C190.042 182 190.937 181.105 190.937 180H188.937ZM179.617 180H177.617C177.617 181.105 178.512 182 179.617 182V180ZM179.617 166V164C178.512 164 177.617 164.895 177.617 166H179.617ZM188.637 166H190.637C190.637 164.895 189.742 164 188.637 164V166ZM188.637 166.38V168.38C189.742 168.38 190.637 167.485 190.637 166.38H188.637ZM180.017 166.38V164.38C178.912 164.38 178.017 165.275 178.017 166.38H180.017ZM180.017 172.7H178.017C178.017 173.805 178.912 174.7 180.017 174.7V172.7ZM187.737 172.7H189.737C189.737 171.595 188.842 170.7 187.737 170.7V172.7ZM187.737 173.08V175.08C188.842 175.08 189.737 174.185 189.737 173.08H187.737ZM180.017 173.08V171.08C178.912 171.08 178.017 171.975 178.017 173.08H180.017ZM180.017 179.62H178.017C178.017 180.725 178.912 181.62 180.017 181.62V179.62ZM186.937 179.62V180H190.937V179.62H186.937ZM188.937 178H179.617V182H188.937V178ZM181.617 180V166H177.617V180H181.617ZM179.617 168H188.637V164H179.617V168ZM186.637 166V166.38H190.637V166H186.637ZM188.637 164.38H180.017V168.38H188.637V164.38ZM178.017 166.38V172.7H182.017V166.38H178.017ZM180.017 174.7H187.737V170.7H180.017V174.7ZM185.737 172.7V173.08H189.737V172.7H185.737ZM187.737 171.08H180.017V175.08H187.737V171.08ZM178.017 173.08V179.62H182.017V173.08H178.017ZM180.017 181.62H188.937V177.62H180.017V181.62ZM205.976 166H207.976C207.976 164.895 207.081 164 205.976 164V166ZM205.976 180V182C207.081 182 207.976 181.105 207.976 180H205.976ZM205.636 180L204.055 181.224C204.433 181.713 205.017 182 205.636 182V180ZM195.376 166.74L196.958 165.516C196.435 164.84 195.539 164.571 194.73 164.847C193.92 165.124 193.376 165.885 193.376 166.74H195.376ZM195.376 180V182C196.481 182 197.376 181.105 197.376 180H195.376ZM194.976 180H192.976C192.976 181.105 193.872 182 194.976 182V180ZM194.976 166V164C193.872 164 192.976 164.895 192.976 166H194.976ZM195.316 166L196.898 164.776C196.519 164.287 195.935 164 195.316 164V166ZM205.576 179.26L203.995 180.484C204.518 181.16 205.414 181.429 206.223 181.153C207.032 180.876 207.576 180.115 207.576 179.26H205.576ZM205.576 166V164C204.472 164 203.576 164.895 203.576 166H205.576ZM203.976 166V180H207.976V166H203.976ZM205.976 178H205.636V182H205.976V178ZM207.218 178.776L196.958 165.516L193.795 167.964L204.055 181.224L207.218 178.776ZM193.376 166.74V180H197.376V166.74H193.376ZM195.376 178H194.976V182H195.376V178ZM196.976 180V166H192.976V180H196.976ZM194.976 168H195.316V164H194.976V168ZM193.735 167.224L203.995 180.484L207.158 178.036L196.898 164.776L193.735 167.224ZM207.576 179.26V166H203.576V179.26H207.576ZM205.576 168H205.976V164H205.576V168ZM213.865 179.52L213.093 181.365C213.101 181.369 213.109 181.372 213.117 181.375L213.865 179.52ZM211.805 178.08L210.444 176.614C209.67 177.333 209.588 178.529 210.257 179.346L211.805 178.08ZM212.085 177.82L213.608 176.525C213.255 176.109 212.747 175.856 212.202 175.823C211.658 175.791 211.123 175.983 210.724 176.354L212.085 177.82ZM214.025 179.16L213.237 180.998C213.245 181.002 213.253 181.005 213.262 181.009L214.025 179.16ZM219.985 178.82L221.216 180.396L221.22 180.393L219.985 178.82ZM220.525 174.84L219.043 176.183L220.525 174.84ZM219.085 173.88L218.373 175.749C218.377 175.751 218.382 175.753 218.387 175.754L219.085 173.88ZM216.805 173.22L216.325 175.162C216.332 175.163 216.338 175.165 216.345 175.166L216.805 173.22ZM214.365 172.5L213.622 174.357C213.634 174.362 213.646 174.366 213.658 174.371L214.365 172.5ZM212.825 171.42L211.291 172.704C211.304 172.719 211.317 172.734 211.33 172.749L212.825 171.42ZM212.705 167.7L214.401 168.76L212.705 167.7ZM219.085 166.3L218.452 168.197C218.463 168.201 218.473 168.204 218.484 168.208L219.085 166.3ZM220.945 167.22L222.593 168.353C223.202 167.467 223.001 166.257 222.138 165.615L220.945 167.22ZM220.725 167.54L219.544 169.154C219.98 169.473 220.527 169.602 221.06 169.512C221.593 169.421 222.066 169.119 222.373 168.673L220.725 167.54ZM218.885 166.64L218.275 168.545C218.29 168.55 218.305 168.554 218.32 168.559L218.885 166.64ZM213.705 167.22L214.954 168.782C214.96 168.777 214.965 168.773 214.971 168.768L213.705 167.22ZM213.185 171.22L211.682 172.54C211.689 172.548 211.696 172.555 211.703 172.563L213.185 171.22ZM214.625 172.18L215.322 170.306L214.625 172.18ZM216.945 172.86L217.43 170.92L217.423 170.918L216.945 172.86ZM219.365 173.6L218.622 175.457C218.634 175.462 218.646 175.466 218.658 175.471L219.365 173.6ZM220.885 174.66L219.369 175.965C219.375 175.972 219.381 175.979 219.387 175.986L220.885 174.66ZM220.985 178.32L219.308 177.23L220.985 178.32ZM219.385 179.6L220.181 181.435C220.186 181.432 220.191 181.43 220.197 181.428L219.385 179.6ZM216.725 178.06C215.954 178.06 215.256 177.924 214.612 177.665L213.117 181.375C214.26 181.836 215.469 182.06 216.725 182.06V178.06ZM214.636 177.675C213.963 177.394 213.575 177.086 213.352 176.814L210.257 179.346C210.994 180.248 211.979 180.9 213.093 181.365L214.636 177.675ZM213.165 179.546L213.445 179.286L210.724 176.354L210.444 176.614L213.165 179.546ZM210.561 179.115C211.266 179.945 212.196 180.552 213.237 180.998L214.812 177.322C214.173 177.048 213.81 176.762 213.608 176.525L210.561 179.115ZM213.262 181.009C214.354 181.459 215.507 181.68 216.705 181.68V177.68C216.009 177.68 215.375 177.554 214.788 177.311L213.262 181.009ZM216.705 181.68C218.369 181.68 219.982 181.36 221.216 180.396L218.753 177.244C218.52 177.426 217.947 177.68 216.705 177.68V181.68ZM221.22 180.393C222.431 179.441 223.105 178.116 223.105 176.56H219.105C219.105 176.844 219.031 177.026 218.749 177.247L221.22 180.393ZM223.105 176.56C223.105 175.473 222.804 174.377 222.007 173.497L219.043 176.183C219.044 176.185 219.046 176.187 219.048 176.191C219.051 176.195 219.057 176.206 219.064 176.229C219.08 176.275 219.105 176.377 219.105 176.56H223.105ZM222.007 173.497C221.391 172.818 220.636 172.323 219.782 172.006L218.387 175.754C218.679 175.863 218.884 176.009 219.043 176.183L222.007 173.497ZM219.797 172.011C219.119 171.753 218.263 171.509 217.264 171.274L216.345 175.166C217.266 175.384 217.93 175.58 218.373 175.749L219.797 172.011ZM217.284 171.278C216.292 171.033 215.565 170.815 215.071 170.629L213.658 174.371C214.364 174.638 215.264 174.9 216.325 175.162L217.284 171.278ZM215.107 170.643C214.794 170.518 214.538 170.338 214.319 170.091L211.33 172.749C211.964 173.462 212.735 174.002 213.622 174.357L215.107 170.643ZM214.358 170.136C214.319 170.089 214.205 169.931 214.205 169.46H210.205C210.205 170.616 210.504 171.764 211.291 172.704L214.358 170.136ZM214.205 169.46C214.205 169.188 214.27 168.97 214.401 168.76L211.009 166.64C210.473 167.497 210.205 168.452 210.205 169.46H214.205ZM214.401 168.76C214.481 168.632 214.658 168.437 215.09 168.242L213.44 164.598C212.458 165.043 211.595 165.702 211.009 166.64L214.401 168.76ZM215.09 168.242C215.465 168.072 216.037 167.94 216.885 167.94V163.94C215.652 163.94 214.478 164.128 213.44 164.598L215.09 168.242ZM216.885 167.94C217.413 167.94 217.933 168.024 218.452 168.197L219.717 164.403C218.796 164.096 217.85 163.94 216.885 163.94V167.94ZM218.484 168.208C219.025 168.378 219.437 168.592 219.751 168.825L222.138 165.615C221.412 165.075 220.584 164.675 219.685 164.392L218.484 168.208ZM219.296 166.087L219.076 166.407L222.373 168.673L222.593 168.353L219.296 166.087ZM221.906 165.926C221.164 165.383 220.34 164.983 219.449 164.721L218.32 168.559C218.789 168.697 219.192 168.897 219.544 169.154L221.906 165.926ZM219.494 164.735C218.644 164.463 217.779 164.32 216.905 164.32V168.32C217.337 168.32 217.791 168.39 218.275 168.545L219.494 164.735ZM216.905 164.32C215.256 164.32 213.665 164.668 212.438 165.672L214.971 168.768C215.211 168.571 215.753 168.32 216.905 168.32V164.32ZM212.455 165.658C211.259 166.615 210.605 167.938 210.605 169.48H214.605C214.605 169.182 214.684 168.998 214.954 168.782L212.455 165.658ZM210.605 169.48C210.605 170.57 210.906 171.657 211.682 172.54L214.687 169.9C214.677 169.889 214.663 169.871 214.647 169.823C214.629 169.769 214.605 169.662 214.605 169.48H210.605ZM211.703 172.563C212.318 173.242 213.073 173.737 213.927 174.054L215.322 170.306C215.03 170.197 214.825 170.051 214.667 169.877L211.703 172.563ZM213.927 174.054C214.602 174.306 215.459 174.554 216.466 174.802L217.423 170.918C216.484 170.686 215.793 170.481 215.322 170.306L213.927 174.054ZM216.459 174.8C217.431 175.043 218.141 175.265 218.622 175.457L220.107 171.743C219.388 171.455 218.484 171.183 217.43 170.92L216.459 174.8ZM218.658 175.471C218.949 175.581 219.177 175.742 219.369 175.965L222.4 173.355C221.766 172.618 220.98 172.072 220.071 171.729L218.658 175.471ZM219.387 175.986C219.393 175.993 219.505 176.106 219.505 176.56H223.505C223.505 175.414 223.202 174.26 222.382 173.334L219.387 175.986ZM219.505 176.56C219.505 176.816 219.442 177.023 219.308 177.23L222.661 179.41C223.22 178.55 223.505 177.584 223.505 176.56H219.505ZM219.308 177.23C219.217 177.369 219.023 177.572 218.572 177.772L220.197 181.428C221.186 180.988 222.059 180.337 222.661 179.41L219.308 177.23ZM218.588 177.765C218.21 177.93 217.616 178.06 216.725 178.06V182.06C217.967 182.06 219.146 181.884 220.181 181.435L218.588 177.765ZM236.636 179.62H238.636C238.636 178.515 237.741 177.62 236.636 177.62V179.62ZM236.636 180V182C237.741 182 238.636 181.105 238.636 180H236.636ZM227.316 180H225.316C225.316 181.105 226.212 182 227.316 182V180ZM227.316 166V164C226.212 164 225.316 164.895 225.316 166H227.316ZM236.336 166H238.336C238.336 164.895 237.441 164 236.336 164V166ZM236.336 166.38V168.38C237.441 168.38 238.336 167.485 238.336 166.38H236.336ZM227.716 166.38V164.38C226.612 164.38 225.716 165.275 225.716 166.38H227.716ZM227.716 172.7H225.716C225.716 173.805 226.612 174.7 227.716 174.7V172.7ZM235.436 172.7H237.436C237.436 171.595 236.541 170.7 235.436 170.7V172.7ZM235.436 173.08V175.08C236.541 175.08 237.436 174.185 237.436 173.08H235.436ZM227.716 173.08V171.08C226.612 171.08 225.716 171.975 225.716 173.08H227.716ZM227.716 179.62H225.716C225.716 180.725 226.612 181.62 227.716 181.62V179.62ZM234.636 179.62V180H238.636V179.62H234.636ZM236.636 178H227.316V182H236.636V178ZM229.316 180V166H225.316V180H229.316ZM227.316 168H236.336V164H227.316V168ZM234.336 166V166.38H238.336V166H234.336ZM236.336 164.38H227.716V168.38H236.336V164.38ZM225.716 166.38V172.7H229.716V166.38H225.716ZM227.716 174.7H235.436V170.7H227.716V174.7ZM233.436 172.7V173.08H237.436V172.7H233.436ZM235.436 171.08H227.716V175.08H235.436V171.08ZM225.716 173.08V179.62H229.716V173.08H225.716ZM227.716 181.62H236.636V177.62H227.716V181.62Z" fill="white"/>
</mask>
<g mask="url(#mask0_139_298)">
<path d="M0 127L9.46667 128.736C18.9333 130.512 37.8667 133.984 56.8 134.469C75.7333 134.953 94.6667 132.37 113.6 135.761C132.533 139.112 151.467 148.398 170.4 150.295C189.333 152.152 208.267 146.661 227.2 143.876C246.133 141.13 265.067 141.13 274.533 141.13H284V322H274.533C265.067 322 246.133 322 227.2 322C208.267 322 189.333 322 170.4 322C151.467 322 132.533 322 113.6 322C94.6667 322 75.7333 322 56.8 322C37.8667 322 18.9333 322 9.46667 322H0V127Z" fill="white"/>
</g>
</g>
<defs>
<clipPath id="clip0_139_298">
<rect width="284" height="322" fill="white"/>
</clipPath>
</defs>
</svg>
