<svg width="284" height="324" viewBox="0 0 284 324" fill="none" xmlns="http://www.w3.org/2000/svg">
<g clip-path="url(#clip0_139_253)">
<path d="M284 0H0V322.36H284V0Z" fill="#001220"/>
<path d="M64.768 132.104V142.004H77.8V144.308H64.768V155H62.104V129.8H79.384V132.104H64.768ZM98.6373 155.216C95.3733 155.216 92.8293 154.28 91.0053 152.408C89.1813 150.536 88.2693 147.812 88.2693 144.236V129.8H90.9333V144.128C90.9333 147.056 91.5933 149.24 92.9133 150.68C94.2333 152.12 96.1413 152.84 98.6373 152.84C101.157 152.84 103.077 152.12 104.397 150.68C105.717 149.24 106.377 147.056 106.377 144.128V129.8H108.969V144.236C108.969 147.812 108.057 150.536 106.233 152.408C104.433 154.28 101.901 155.216 98.6373 155.216ZM125.001 132.104H116.145V129.8H136.521V132.104H127.665V155H125.001V132.104ZM154.036 155.216C150.772 155.216 148.228 154.28 146.404 152.408C144.58 150.536 143.668 147.812 143.668 144.236V129.8H146.332V144.128C146.332 147.056 146.992 149.24 148.312 150.68C149.632 152.12 151.54 152.84 154.036 152.84C156.556 152.84 158.476 152.12 159.796 150.68C161.116 149.24 161.776 147.056 161.776 144.128V129.8H164.368V144.236C164.368 147.812 163.456 150.536 161.632 152.408C159.832 154.28 157.3 155.216 154.036 155.216ZM193.204 155L187.444 146.9C186.796 146.972 186.124 147.008 185.428 147.008H178.66V155H175.996V129.8H185.428C188.644 129.8 191.164 130.568 192.988 132.104C194.812 133.64 195.724 135.752 195.724 138.44C195.724 140.408 195.22 142.076 194.212 143.444C193.228 144.788 191.812 145.76 189.964 146.36L196.12 155H193.204ZM185.356 144.74C187.852 144.74 189.76 144.188 191.08 143.084C192.4 141.98 193.06 140.432 193.06 138.44C193.06 136.4 192.4 134.84 191.08 133.76C189.76 132.656 187.852 132.104 185.356 132.104H178.66V144.74H185.356ZM223.432 152.696V155H205.612V129.8H222.892V132.104H208.276V141.068H221.308V143.336H208.276V152.696H223.432Z" fill="#80FF80"/>
<path d="M64.768 132.104V129.104C63.1111 129.104 61.768 130.447 61.768 132.104H64.768ZM64.768 142.004H61.768C61.768 143.661 63.1111 145.004 64.768 145.004V142.004ZM77.8 142.004H80.8C80.8 140.347 79.4569 139.004 77.8 139.004V142.004ZM77.8 144.308V147.308C79.4569 147.308 80.8 145.965 80.8 144.308H77.8ZM64.768 144.308V141.308C63.1111 141.308 61.768 142.651 61.768 144.308H64.768ZM64.768 155V158C66.4249 158 67.768 156.657 67.768 155H64.768ZM62.104 155H59.104C59.104 156.657 60.4471 158 62.104 158V155ZM62.104 129.8V126.8C60.4471 126.8 59.104 128.143 59.104 129.8H62.104ZM79.384 129.8H82.384C82.384 128.143 81.0409 126.8 79.384 126.8V129.8ZM79.384 132.104V135.104C81.0409 135.104 82.384 133.761 82.384 132.104H79.384ZM61.768 132.104V142.004H67.768V132.104H61.768ZM64.768 145.004H77.8V139.004H64.768V145.004ZM74.8 142.004V144.308H80.8V142.004H74.8ZM77.8 141.308H64.768V147.308H77.8V141.308ZM61.768 144.308V155H67.768V144.308H61.768ZM64.768 152H62.104V158H64.768V152ZM65.104 155V129.8H59.104V155H65.104ZM62.104 132.8H79.384V126.8H62.104V132.8ZM76.384 129.8V132.104H82.384V129.8H76.384ZM79.384 129.104H64.768V135.104H79.384V129.104ZM91.0052 152.408L93.1539 150.314L91.0052 152.408ZM88.2693 129.8V126.8C86.6124 126.8 85.2693 128.143 85.2693 129.8H88.2693ZM90.9333 129.8H93.9333C93.9333 128.143 92.5901 126.8 90.9333 126.8V129.8ZM104.397 150.68L106.609 152.707L104.397 150.68ZM106.377 129.8V126.8C104.72 126.8 103.377 128.143 103.377 129.8H106.377ZM108.969 129.8H111.969C111.969 128.143 110.626 126.8 108.969 126.8V129.8ZM106.233 152.408L104.085 150.314C104.08 150.319 104.075 150.324 104.071 150.329L106.233 152.408ZM98.6373 152.216C95.9688 152.216 94.2798 151.47 93.1539 150.314L88.8566 154.502C91.3787 157.09 94.7777 158.216 98.6373 158.216V152.216ZM93.1539 150.314C92.0511 149.183 91.2692 147.323 91.2692 144.236H85.2693C85.2693 148.301 86.3114 151.889 88.8566 154.502L93.1539 150.314ZM91.2692 144.236V129.8H85.2693V144.236H91.2692ZM88.2693 132.8H90.9333V126.8H88.2693V132.8ZM87.9333 129.8V144.128H93.9333V129.8H87.9333ZM87.9333 144.128C87.9333 147.441 88.6724 150.493 90.7018 152.707L95.1247 148.653C94.5141 147.987 93.9333 146.671 93.9333 144.128H87.9333ZM90.7018 152.707C92.7385 154.929 95.5487 155.84 98.6373 155.84V149.84C96.7338 149.84 95.728 149.311 95.1247 148.653L90.7018 152.707ZM98.6373 155.84C101.74 155.84 104.567 154.935 106.609 152.707L102.186 148.653C101.588 149.305 100.575 149.84 98.6373 149.84V155.84ZM106.609 152.707C108.638 150.493 109.377 147.441 109.377 144.128H103.377C103.377 146.671 102.796 147.987 102.186 148.653L106.609 152.707ZM109.377 144.128V129.8H103.377V144.128H109.377ZM106.377 132.8H108.969V126.8H106.377V132.8ZM105.969 129.8V144.236H111.969V129.8H105.969ZM105.969 144.236C105.969 147.323 105.187 149.183 104.085 150.314L108.382 154.502C110.927 151.889 111.969 148.301 111.969 144.236H105.969ZM104.071 150.329C102.974 151.469 101.308 152.216 98.6373 152.216V158.216C102.495 158.216 105.893 157.091 108.396 154.487L104.071 150.329ZM125.001 132.104H128.001C128.001 130.447 126.658 129.104 125.001 129.104V132.104ZM116.145 132.104H113.145C113.145 133.761 114.488 135.104 116.145 135.104V132.104ZM116.145 129.8V126.8C114.488 126.8 113.145 128.143 113.145 129.8H116.145ZM136.521 129.8H139.521C139.521 128.143 138.178 126.8 136.521 126.8V129.8ZM136.521 132.104V135.104C138.178 135.104 139.521 133.761 139.521 132.104H136.521ZM127.665 132.104V129.104C126.008 129.104 124.665 130.447 124.665 132.104H127.665ZM127.665 155V158C129.322 158 130.665 156.657 130.665 155H127.665ZM125.001 155H122.001C122.001 156.657 123.344 158 125.001 158V155ZM125.001 129.104H116.145V135.104H125.001V129.104ZM119.145 132.104V129.8H113.145V132.104H119.145ZM116.145 132.8H136.521V126.8H116.145V132.8ZM133.521 129.8V132.104H139.521V129.8H133.521ZM136.521 129.104H127.665V135.104H136.521V129.104ZM124.665 132.104V155H130.665V132.104H124.665ZM127.665 152H125.001V158H127.665V152ZM128.001 155V132.104H122.001V155H128.001ZM146.404 152.408L148.553 150.314L146.404 152.408ZM143.668 129.8V126.8C142.012 126.8 140.668 128.143 140.668 129.8H143.668ZM146.332 129.8H149.332C149.332 128.143 147.989 126.8 146.332 126.8V129.8ZM159.796 150.68L162.008 152.707L159.796 150.68ZM161.776 129.8V126.8C160.12 126.8 158.776 128.143 158.776 129.8H161.776ZM164.368 129.8H167.368C167.368 128.143 166.025 126.8 164.368 126.8V129.8ZM161.632 152.408L159.484 150.314C159.479 150.319 159.475 150.324 159.47 150.329L161.632 152.408ZM154.036 152.216C151.368 152.216 149.679 151.47 148.553 150.314L144.256 154.502C146.778 157.09 150.177 158.216 154.036 158.216V152.216ZM148.553 150.314C147.45 149.183 146.668 147.323 146.668 144.236H140.668C140.668 148.301 141.711 151.889 144.256 154.502L148.553 150.314ZM146.668 144.236V129.8H140.668V144.236H146.668ZM143.668 132.8H146.332V126.8H143.668V132.8ZM143.332 129.8V144.128H149.332V129.8H143.332ZM143.332 144.128C143.332 147.441 144.072 150.493 146.101 152.707L150.524 148.653C149.913 147.987 149.332 146.671 149.332 144.128H143.332ZM146.101 152.707C148.138 154.929 150.948 155.84 154.036 155.84V149.84C152.133 149.84 151.127 149.311 150.524 148.653L146.101 152.707ZM154.036 155.84C157.139 155.84 159.966 154.935 162.008 152.707L157.585 148.653C156.987 149.305 155.974 149.84 154.036 149.84V155.84ZM162.008 152.707C164.037 150.493 164.776 147.441 164.776 144.128H158.776C158.776 146.671 158.196 147.987 157.585 148.653L162.008 152.707ZM164.776 144.128V129.8H158.776V144.128H164.776ZM161.776 132.8H164.368V126.8H161.776V132.8ZM161.368 129.8V144.236H167.368V129.8H161.368ZM161.368 144.236C161.368 147.323 160.587 149.183 159.484 150.314L163.781 154.502C166.326 151.889 167.368 148.301 167.368 144.236H161.368ZM159.47 150.329C158.373 151.469 156.707 152.216 154.036 152.216V158.216C157.894 158.216 161.292 157.091 163.795 154.487L159.47 150.329ZM193.204 155L190.759 156.739C191.322 157.53 192.233 158 193.204 158V155ZM187.444 146.9L189.889 145.161C189.258 144.274 188.195 143.798 187.113 143.918L187.444 146.9ZM178.66 147.008V144.008C177.003 144.008 175.66 145.351 175.66 147.008H178.66ZM178.66 155V158C180.317 158 181.66 156.657 181.66 155H178.66ZM175.996 155H172.996C172.996 156.657 174.339 158 175.996 158V155ZM175.996 129.8V126.8C174.339 126.8 172.996 128.143 172.996 129.8H175.996ZM192.988 132.104L191.056 134.399L192.988 132.104ZM194.212 143.444L191.797 141.664L191.792 141.672L194.212 143.444ZM189.964 146.36L189.038 143.507C188.129 143.802 187.415 144.512 187.115 145.419C186.816 146.327 186.966 147.323 187.521 148.101L189.964 146.36ZM196.12 155V158C197.243 158 198.272 157.373 198.787 156.374C199.301 155.376 199.215 154.174 198.563 153.259L196.12 155ZM191.08 143.084L193.005 145.385L191.08 143.084ZM191.08 133.76L189.156 136.061C189.164 136.068 189.172 136.075 189.18 136.082L191.08 133.76ZM178.66 132.104V129.104C177.003 129.104 175.66 130.447 175.66 132.104H178.66ZM178.66 144.74H175.66C175.66 146.397 177.003 147.74 178.66 147.74V144.74ZM195.649 153.261L189.889 145.161L184.999 148.639L190.759 156.739L195.649 153.261ZM187.113 143.918C186.582 143.977 186.021 144.008 185.428 144.008V150.008C186.228 150.008 187.01 149.967 187.775 149.882L187.113 143.918ZM185.428 144.008H178.66V150.008H185.428V144.008ZM175.66 147.008V155H181.66V147.008H175.66ZM178.66 152H175.996V158H178.66V152ZM178.996 155V129.8H172.996V155H178.996ZM175.996 132.8H185.428V126.8H175.996V132.8ZM185.428 132.8C188.185 132.8 189.936 133.456 191.056 134.399L194.921 129.809C192.393 127.68 189.104 126.8 185.428 126.8V132.8ZM191.056 134.399C192.112 135.288 192.724 136.511 192.724 138.44H198.724C198.724 134.993 197.513 131.992 194.921 129.809L191.056 134.399ZM192.724 138.44C192.724 139.873 192.367 140.891 191.797 141.664L196.627 145.224C198.073 143.261 198.724 140.943 198.724 138.44H192.724ZM191.792 141.672C191.239 142.427 190.39 143.068 189.038 143.507L190.891 149.213C193.235 148.452 195.217 147.149 196.633 145.216L191.792 141.672ZM187.521 148.101L193.677 156.741L198.563 153.259L192.407 144.619L187.521 148.101ZM196.12 152H193.204V158H196.12V152ZM185.356 147.74C188.246 147.74 190.948 147.106 193.005 145.385L189.156 140.783C188.573 141.27 187.458 141.74 185.356 141.74V147.74ZM193.005 145.385C195.118 143.618 196.06 141.164 196.06 138.44H190.06C190.06 139.7 189.683 140.342 189.156 140.783L193.005 145.385ZM196.06 138.44C196.06 135.696 195.135 133.201 192.98 131.438L189.18 136.082C189.666 136.479 190.06 137.104 190.06 138.44H196.06ZM193.005 131.459C190.948 129.738 188.246 129.104 185.356 129.104V135.104C187.458 135.104 188.573 135.574 189.156 136.061L193.005 131.459ZM185.356 129.104H178.66V135.104H185.356V129.104ZM175.66 132.104V144.74H181.66V132.104H175.66ZM178.66 147.74H185.356V141.74H178.66V147.74ZM223.432 152.696H226.432C226.432 151.039 225.089 149.696 223.432 149.696V152.696ZM223.432 155V158C225.089 158 226.432 156.657 226.432 155H223.432ZM205.612 155H202.612C202.612 156.657 203.955 158 205.612 158V155ZM205.612 129.8V126.8C203.955 126.8 202.612 128.143 202.612 129.8H205.612ZM222.892 129.8H225.892C225.892 128.143 224.549 126.8 222.892 126.8V129.8ZM222.892 132.104V135.104C224.549 135.104 225.892 133.761 225.892 132.104H222.892ZM208.276 132.104V129.104C206.619 129.104 205.276 130.447 205.276 132.104H208.276ZM208.276 141.068H205.276C205.276 142.725 206.619 144.068 208.276 144.068V141.068ZM221.308 141.068H224.308C224.308 139.411 222.965 138.068 221.308 138.068V141.068ZM221.308 143.336V146.336C222.965 146.336 224.308 144.993 224.308 143.336H221.308ZM208.276 143.336V140.336C206.619 140.336 205.276 141.679 205.276 143.336H208.276ZM208.276 152.696H205.276C205.276 154.353 206.619 155.696 208.276 155.696V152.696ZM220.432 152.696V155H226.432V152.696H220.432ZM223.432 152H205.612V158H223.432V152ZM208.612 155V129.8H202.612V155H208.612ZM205.612 132.8H222.892V126.8H205.612V132.8ZM219.892 129.8V132.104H225.892V129.8H219.892ZM222.892 129.104H208.276V135.104H222.892V129.104ZM205.276 132.104V141.068H211.276V132.104H205.276ZM208.276 144.068H221.308V138.068H208.276V144.068ZM218.308 141.068V143.336H224.308V141.068H218.308ZM221.308 140.336H208.276V146.336H221.308V140.336ZM205.276 143.336V152.696H211.276V143.336H205.276ZM208.276 155.696H223.432V149.696H208.276V155.696Z" fill="#80FF80"/>
<path d="M63.28 104.38H58.08V104H68.88V104.38H63.68V118H63.28V104.38ZM84.617 104V118H84.217V111.08H74.017V118H73.617V104H74.017V110.7H84.217V104H84.617ZM101.265 117.62V118H91.9452V104H100.965V104.38H92.3452V110.7H100.065V111.08H92.3452V117.62H101.265Z" fill="#80FF80"/>
<path d="M63.28 104.38H65.28C65.28 103.275 64.3846 102.38 63.28 102.38V104.38ZM58.08 104.38H56.08C56.08 105.485 56.9754 106.38 58.08 106.38V104.38ZM58.08 104V102C56.9754 102 56.08 102.895 56.08 104H58.08ZM68.88 104H70.88C70.88 102.895 69.9846 102 68.88 102V104ZM68.88 104.38V106.38C69.9846 106.38 70.88 105.485 70.88 104.38H68.88ZM63.68 104.38V102.38C62.5754 102.38 61.68 103.275 61.68 104.38H63.68ZM63.68 118V120C64.7846 120 65.68 119.105 65.68 118H63.68ZM63.28 118H61.28C61.28 119.105 62.1754 120 63.28 120V118ZM63.28 102.38H58.08V106.38H63.28V102.38ZM60.08 104.38V104H56.08V104.38H60.08ZM58.08 106H68.88V102H58.08V106ZM66.88 104V104.38H70.88V104H66.88ZM68.88 102.38H63.68V106.38H68.88V102.38ZM61.68 104.38V118H65.68V104.38H61.68ZM63.68 116H63.28V120H63.68V116ZM65.28 118V104.38H61.28V118H65.28ZM84.617 104H86.617C86.617 102.895 85.7216 102 84.617 102V104ZM84.617 118V120C85.7216 120 86.617 119.105 86.617 118H84.617ZM84.217 118H82.217C82.217 119.105 83.1125 120 84.217 120V118ZM84.217 111.08H86.217C86.217 109.975 85.3216 109.08 84.217 109.08V111.08ZM74.017 111.08V109.08C72.9125 109.08 72.017 109.975 72.017 111.08H74.017ZM74.017 118V120C75.1216 120 76.017 119.105 76.017 118H74.017ZM73.617 118H71.617C71.617 119.105 72.5125 120 73.617 120V118ZM73.617 104V102C72.5125 102 71.617 102.895 71.617 104H73.617ZM74.017 104H76.017C76.017 102.895 75.1216 102 74.017 102V104ZM74.017 110.7H72.017C72.017 111.805 72.9125 112.7 74.017 112.7V110.7ZM84.217 110.7V112.7C85.3216 112.7 86.217 111.805 86.217 110.7H84.217ZM84.217 104V102C83.1125 102 82.217 102.895 82.217 104H84.217ZM82.617 104V118H86.617V104H82.617ZM84.617 116H84.217V120H84.617V116ZM86.217 118V111.08H82.217V118H86.217ZM84.217 109.08H74.017V113.08H84.217V109.08ZM72.017 111.08V118H76.017V111.08H72.017ZM74.017 116H73.617V120H74.017V116ZM75.617 118V104H71.617V118H75.617ZM73.617 106H74.017V102H73.617V106ZM72.017 104V110.7H76.017V104H72.017ZM74.017 112.7H84.217V108.7H74.017V112.7ZM86.217 110.7V104H82.217V110.7H86.217ZM84.217 106H84.617V102H84.217V106ZM101.265 117.62H103.265C103.265 116.515 102.37 115.62 101.265 115.62V117.62ZM101.265 118V120C102.37 120 103.265 119.105 103.265 118H101.265ZM91.9452 118H89.9452C89.9452 119.105 90.8406 120 91.9452 120V118ZM91.9452 104V102C90.8406 102 89.9452 102.895 89.9452 104H91.9452ZM100.965 104H102.965C102.965 102.895 102.07 102 100.965 102V104ZM100.965 104.38V106.38C102.07 106.38 102.965 105.485 102.965 104.38H100.965ZM92.3452 104.38V102.38C91.2406 102.38 90.3452 103.275 90.3452 104.38H92.3452ZM92.3452 110.7H90.3452C90.3452 111.805 91.2406 112.7 92.3452 112.7V110.7ZM100.065 110.7H102.065C102.065 109.595 101.17 108.7 100.065 108.7V110.7ZM100.065 111.08V113.08C101.17 113.08 102.065 112.185 102.065 111.08H100.065ZM92.3452 111.08V109.08C91.2406 109.08 90.3452 109.975 90.3452 111.08H92.3452ZM92.3452 117.62H90.3452C90.3452 118.725 91.2406 119.62 92.3452 119.62V117.62ZM99.2652 117.62V118H103.265V117.62H99.2652ZM101.265 116H91.9452V120H101.265V116ZM93.9452 118V104H89.9452V118H93.9452ZM91.9452 106H100.965V102H91.9452V106ZM98.9652 104V104.38H102.965V104H98.9652ZM100.965 102.38H92.3452V106.38H100.965V102.38ZM90.3452 104.38V110.7H94.3452V104.38H90.3452ZM92.3452 112.7H100.065V108.7H92.3452V112.7ZM98.0652 110.7V111.08H102.065V110.7H98.0652ZM100.065 109.08H92.3452V113.08H100.065V109.08ZM90.3452 111.08V117.62H94.3452V111.08H90.3452ZM92.3452 119.62H101.265V115.62H92.3452V119.62Z" fill="#80FF80"/>
<path d="M0 145.04L9.46667 146.306C18.9333 147.61 37.8667 150.141 56.8 147.533C75.7333 144.925 94.6667 137.101 113.6 137.638C132.533 138.137 151.467 146.958 170.4 147.533C189.333 148.108 208.267 140.438 227.2 136.487C246.133 132.499 265.067 132.268 274.533 132.115L284 132V323H274.533C265.067 323 246.133 323 227.2 323C208.267 323 189.333 323 170.4 323C151.467 323 132.533 323 113.6 323C94.6667 323 75.7333 323 56.8 323C37.8667 323 18.9333 323 9.46667 323H0V145.04Z" fill="#80FF80"/>
<path d="M0 152.547L9.46667 156.803C18.9333 161.019 37.8667 169.532 56.8 173.231C75.7333 176.93 94.6667 175.896 113.6 174.743C132.533 173.629 151.467 172.436 170.4 179.516C189.333 186.636 208.267 201.99 227.2 201.871C246.133 201.752 265.067 186.079 274.533 178.283L284 170.447V322.398H274.533C265.067 322.398 246.133 322.398 227.2 322.398C208.267 322.398 189.333 322.398 170.4 322.398C151.467 322.398 132.533 322.398 113.6 322.398C94.6667 322.398 75.7333 322.398 56.8 322.398C37.8667 322.398 18.9333 322.398 9.46667 322.398H0V152.547Z" fill="#63F361"/>
<path d="M0 230.113V206C9.46667 204.21 29.6 218.896 56.8 219.373C84 219.851 94.6667 212.213 113.6 212.293C132.533 212.333 151.467 216.072 170.4 219.851C189.333 223.63 208.267 227.448 227.2 222.078C246.133 216.708 269.327 210.224 284 197.098V322.398H274.533C265.067 322.398 246.133 322.398 227.2 322.398C208.267 322.398 189.333 322.398 170.4 322.398C151.467 322.398 132.533 322.398 113.6 322.398C94.6667 322.398 75.7333 322.398 56.8 322.398C37.8667 322.398 18.9333 322.398 9.46667 322.398H0V230.113Z" fill="#48E145"/>
<path d="M0 235.284L9.46667 237.552C18.9333 239.779 37.8667 244.314 56.8 246.502C75.7333 248.69 94.6667 248.53 113.6 244.314C132.533 240.058 147.825 235.951 170.4 234.887C192.619 233.839 209.213 234.887 227.2 238.745C245.187 242.604 274.533 248.769 284 255.969V267.902V322.398H274.533C265.067 322.398 246.133 322.398 227.2 322.398C208.267 322.398 189.333 322.398 170.4 322.398C151.467 322.398 132.533 322.398 113.6 322.398C94.6667 322.398 75.7333 322.398 56.8 322.398C37.8667 322.398 18.9333 322.398 9.46667 322.398H0V235.284Z" fill="#30CE2D"/>
<path d="M0 296.004L9.46667 296.681C18.9333 297.317 37.8667 298.67 56.8 296.919C75.7333 295.209 94.6667 290.436 113.6 284.071C132.533 277.707 151.467 269.751 170.4 268.041C189.333 266.29 208.267 270.825 227.2 270.666C246.133 270.547 265.067 265.773 274.533 263.387L284 261V323.451H274.533C265.067 323.451 246.133 323.451 227.2 323.451C208.267 323.451 189.333 323.451 170.4 323.451C151.467 323.451 132.533 323.451 113.6 323.451C94.6667 323.451 75.7333 323.451 56.8 323.451C37.8667 323.451 18.9333 323.451 9.46667 323.451H0V296.004Z" fill="#00C200"/>
<path d="M74.9633 198.2V196.2C73.8587 196.2 72.9633 197.095 72.9633 198.2H74.9633ZM76.1873 198.2H78.1873C78.1873 197.095 77.2918 196.2 76.1873 196.2V198.2ZM76.1873 213.896H74.1873C74.1873 215.001 75.0827 215.896 76.1873 215.896V213.896ZM85.8593 213.896H87.8593C87.8593 212.791 86.9638 211.896 85.8593 211.896V213.896ZM85.8593 215V217C86.9638 217 87.8593 216.105 87.8593 215H85.8593ZM74.9633 215H72.9633C72.9633 216.105 73.8587 217 74.9633 217V215ZM74.9633 200.2H76.1873V196.2H74.9633V200.2ZM74.1873 198.2V213.896H78.1873V198.2H74.1873ZM76.1873 215.896H85.8593V211.896H76.1873V215.896ZM83.8593 213.896V215H87.8593V213.896H83.8593ZM85.8593 213H74.9633V217H85.8593V213ZM76.9633 215V198.2H72.9633V215H76.9633ZM102.994 213.896H104.994C104.994 212.791 104.099 211.896 102.994 211.896V213.896ZM102.994 215V217C104.099 217 104.994 216.105 104.994 215H102.994ZM91.4023 215H89.4023C89.4023 216.105 90.2977 217 91.4023 217V215ZM91.4023 198.2V196.2C90.2977 196.2 89.4023 197.095 89.4023 198.2H91.4023ZM102.634 198.2H104.634C104.634 197.095 103.739 196.2 102.634 196.2V198.2ZM102.634 199.304V201.304C103.739 201.304 104.634 200.409 104.634 199.304H102.634ZM92.6263 199.304V197.304C91.5217 197.304 90.6263 198.199 90.6263 199.304H92.6263ZM92.6263 205.928H90.6263C90.6263 207.033 91.5217 207.928 92.6263 207.928V205.928ZM101.578 205.928H103.578C103.578 204.823 102.683 203.928 101.578 203.928V205.928ZM101.578 207.008V209.008C102.683 209.008 103.578 208.113 103.578 207.008H101.578ZM92.6263 207.008V205.008C91.5217 205.008 90.6263 205.903 90.6263 207.008H92.6263ZM92.6263 213.896H90.6263C90.6263 215.001 91.5217 215.896 92.6263 215.896V213.896ZM100.994 213.896V215H104.994V213.896H100.994ZM102.994 213H91.4023V217H102.994V213ZM93.4023 215V198.2H89.4023V215H93.4023ZM91.4023 200.2H102.634V196.2H91.4023V200.2ZM100.634 198.2V199.304H104.634V198.2H100.634ZM102.634 197.304H92.6263V201.304H102.634V197.304ZM90.6263 199.304V205.928H94.6263V199.304H90.6263ZM92.6263 207.928H101.578V203.928H92.6263V207.928ZM99.5783 205.928V207.008H103.578V205.928H99.5783ZM101.578 205.008H92.6263V209.008H101.578V205.008ZM90.6263 207.008V213.896H94.6263V207.008H90.6263ZM92.6263 215.896H102.994V211.896H92.6263V215.896ZM119.645 199.304V197.304C118.54 197.304 117.645 198.199 117.645 199.304H119.645ZM119.645 206.48H117.645C117.645 207.585 118.54 208.48 119.645 208.48V206.48ZM128.597 206.48H130.597C130.597 205.375 129.702 204.48 128.597 204.48V206.48ZM128.597 207.584V209.584C129.702 209.584 130.597 208.689 130.597 207.584H128.597ZM119.645 207.584V205.584C118.54 205.584 117.645 206.479 117.645 207.584H119.645ZM119.645 215V217C120.75 217 121.645 216.105 121.645 215H119.645ZM118.421 215H116.421C116.421 216.105 117.316 217 118.421 217V215ZM118.421 198.2V196.2C117.316 196.2 116.421 197.095 116.421 198.2H118.421ZM129.653 198.2H131.653C131.653 197.095 130.758 196.2 129.653 196.2V198.2ZM129.653 199.304V201.304C130.758 201.304 131.653 200.409 131.653 199.304H129.653ZM117.645 199.304V206.48H121.645V199.304H117.645ZM119.645 208.48H128.597V204.48H119.645V208.48ZM126.597 206.48V207.584H130.597V206.48H126.597ZM128.597 205.584H119.645V209.584H128.597V205.584ZM117.645 207.584V215H121.645V207.584H117.645ZM119.645 213H118.421V217H119.645V213ZM120.421 215V198.2H116.421V215H120.421ZM118.421 200.2H129.653V196.2H118.421V200.2ZM127.653 198.2V199.304H131.653V198.2H127.653ZM129.653 197.304H119.645V201.304H129.653V197.304ZM137.57 213.272L136.118 214.648L136.128 214.658L137.57 213.272ZM135.818 198.2V196.2C134.713 196.2 133.818 197.095 133.818 198.2H135.818ZM137.042 198.2H139.042C139.042 197.095 138.146 196.2 137.042 196.2V198.2ZM138.458 212.456L136.987 213.812L138.458 212.456ZM146.642 212.456L145.171 211.1L146.642 212.456ZM148.058 198.2V196.2C146.953 196.2 146.058 197.095 146.058 198.2H148.058ZM149.282 198.2H151.282C151.282 197.095 150.386 196.2 149.282 196.2V198.2ZM147.506 213.272L146.064 211.886L147.506 213.272ZM142.538 213.12C140.812 213.12 139.73 212.634 139.012 211.886L136.128 214.658C137.777 216.374 140.007 217.12 142.538 217.12V213.12ZM139.021 211.896C138.324 211.161 137.818 209.932 137.818 207.872H133.818C133.818 210.548 134.479 212.919 136.118 214.648L139.021 211.896ZM137.818 207.872V198.2H133.818V207.872H137.818ZM135.818 200.2H137.042V196.2H135.818V200.2ZM135.042 198.2V207.824H139.042V198.2H135.042ZM135.042 207.824C135.042 210.153 135.57 212.274 136.987 213.812L139.928 211.1C139.457 210.59 139.042 209.623 139.042 207.824H135.042ZM136.987 213.812C138.411 215.356 140.381 215.992 142.562 215.992V211.992C141.159 211.992 140.392 211.604 139.928 211.1L136.987 213.812ZM142.562 215.992C144.733 215.992 146.691 215.353 148.112 213.812L145.171 211.1C144.704 211.607 143.942 211.992 142.562 211.992V215.992ZM148.112 213.812C149.529 212.274 150.058 210.153 150.058 207.824H146.058C146.058 209.623 145.642 210.59 145.171 211.1L148.112 213.812ZM150.058 207.824V198.2H146.058V207.824H150.058ZM148.058 200.2H149.282V196.2H148.058V200.2ZM147.282 198.2V207.872H151.282V198.2H147.282ZM147.282 207.872C147.282 209.925 146.771 211.15 146.064 211.886L148.948 214.658C150.609 212.93 151.282 210.555 151.282 207.872H147.282ZM146.064 211.886C145.345 212.634 144.263 213.12 142.538 213.12V217.12C145.068 217.12 147.298 216.374 148.948 214.658L146.064 211.886ZM160.881 199.304H162.881C162.881 198.199 161.985 197.304 160.881 197.304V199.304ZM154.833 199.304H152.833C152.833 200.409 153.728 201.304 154.833 201.304V199.304ZM154.833 198.2V196.2C153.728 196.2 152.833 197.095 152.833 198.2H154.833ZM168.153 198.2H170.153C170.153 197.095 169.257 196.2 168.153 196.2V198.2ZM168.153 199.304V201.304C169.257 201.304 170.153 200.409 170.153 199.304H168.153ZM162.105 199.304V197.304C161 197.304 160.105 198.199 160.105 199.304H162.105ZM162.105 215V217C163.209 217 164.105 216.105 164.105 215H162.105ZM160.881 215H158.881C158.881 216.105 159.776 217 160.881 217V215ZM160.881 197.304H154.833V201.304H160.881V197.304ZM156.833 199.304V198.2H152.833V199.304H156.833ZM154.833 200.2H168.153V196.2H154.833V200.2ZM166.153 198.2V199.304H170.153V198.2H166.153ZM168.153 197.304H162.105V201.304H168.153V197.304ZM160.105 199.304V215H164.105V199.304H160.105ZM162.105 213H160.881V217H162.105V213ZM162.881 215V199.304H158.881V215H162.881ZM175.796 213.272L174.345 214.648L174.354 214.658L175.796 213.272ZM174.044 198.2V196.2C172.94 196.2 172.044 197.095 172.044 198.2H174.044ZM175.268 198.2H177.268C177.268 197.095 176.373 196.2 175.268 196.2V198.2ZM176.684 212.456L175.214 213.812L176.684 212.456ZM184.868 212.456L183.398 211.1L184.868 212.456ZM186.284 198.2V196.2C185.18 196.2 184.284 197.095 184.284 198.2H186.284ZM187.508 198.2H189.508C189.508 197.095 188.613 196.2 187.508 196.2V198.2ZM185.732 213.272L184.29 211.886L185.732 213.272ZM180.764 213.12C179.038 213.12 177.957 212.634 177.238 211.886L174.354 214.658C176.004 216.374 178.234 217.12 180.764 217.12V213.12ZM177.248 211.896C176.551 211.161 176.044 209.932 176.044 207.872H172.044C172.044 210.548 172.706 212.919 174.345 214.648L177.248 211.896ZM176.044 207.872V198.2H172.044V207.872H176.044ZM174.044 200.2H175.268V196.2H174.044V200.2ZM173.268 198.2V207.824H177.268V198.2H173.268ZM173.268 207.824C173.268 210.153 173.797 212.274 175.214 213.812L178.155 211.1C177.684 210.59 177.268 209.623 177.268 207.824H173.268ZM175.214 213.812C176.638 215.356 178.607 215.992 180.788 215.992V211.992C179.385 211.992 178.619 211.604 178.155 211.1L175.214 213.812ZM180.788 215.992C182.959 215.992 184.918 215.353 186.339 213.812L183.398 211.1C182.93 211.607 182.169 211.992 180.788 211.992V215.992ZM186.339 213.812C187.756 212.274 188.284 210.153 188.284 207.824H184.284C184.284 209.623 183.869 210.59 183.398 211.1L186.339 213.812ZM188.284 207.824V198.2H184.284V207.824H188.284ZM186.284 200.2H187.508V196.2H186.284V200.2ZM185.508 198.2V207.872H189.508V198.2H185.508ZM185.508 207.872C185.508 209.925 184.997 211.15 184.29 211.886L187.174 214.658C188.835 212.93 189.508 210.555 189.508 207.872H185.508ZM184.29 211.886C183.572 212.634 182.49 213.12 180.764 213.12V217.12C183.294 217.12 185.525 216.374 187.174 214.658L184.29 211.886ZM207.283 215L205.655 216.162C206.031 216.688 206.637 217 207.283 217V215ZM203.275 209.384L204.903 208.222C204.472 207.618 203.743 207.303 203.008 207.402L203.275 209.384ZM196.843 209.504V207.504C195.739 207.504 194.843 208.399 194.843 209.504H196.843ZM196.843 215V217C197.948 217 198.843 216.105 198.843 215H196.843ZM195.619 215H193.619C193.619 216.105 194.515 217 195.619 217V215ZM195.619 198.2V196.2C194.515 196.2 193.619 197.095 193.619 198.2H195.619ZM206.611 199.712L205.325 201.243C205.329 201.247 205.333 201.25 205.337 201.253L206.611 199.712ZM207.379 207.224L205.783 206.02L205.779 206.024L207.379 207.224ZM204.475 209.12L203.916 207.2C203.294 207.381 202.798 207.853 202.586 208.465C202.373 209.078 202.471 209.755 202.848 210.282L204.475 209.12ZM208.675 215V217C209.425 217 210.111 216.581 210.454 215.915C210.797 215.249 210.738 214.447 210.303 213.838L208.675 215ZM205.747 207.248L207.025 208.787C207.03 208.782 207.035 208.778 207.04 208.774L205.747 207.248ZM205.747 200.504L204.454 202.03C204.459 202.034 204.465 202.038 204.47 202.043L205.747 200.504ZM196.843 199.304V197.304C195.739 197.304 194.843 198.199 194.843 199.304H196.843ZM196.843 208.424H194.843C194.843 209.529 195.739 210.424 196.843 210.424V208.424ZM208.911 213.838L204.903 208.222L201.647 210.546L205.655 216.162L208.911 213.838ZM203.008 207.402C202.487 207.472 202.034 207.504 201.643 207.504V211.504C202.245 211.504 202.88 211.456 203.543 211.366L203.008 207.402ZM201.643 207.504H196.843V211.504H201.643V207.504ZM194.843 209.504V215H198.843V209.504H194.843ZM196.843 213H195.619V217H196.843V213ZM197.619 215V198.2H193.619V215H197.619ZM195.619 200.2H201.643V196.2H195.619V200.2ZM201.643 200.2C203.449 200.2 204.594 200.629 205.325 201.243L207.898 198.181C206.229 196.779 204.062 196.2 201.643 196.2V200.2ZM205.337 201.253C206.01 201.809 206.411 202.59 206.411 203.864H210.411C210.411 201.586 209.613 199.599 207.886 198.171L205.337 201.253ZM206.411 203.864C206.411 204.831 206.168 205.509 205.783 206.02L208.976 208.428C209.967 207.115 210.411 205.553 210.411 203.864H206.411ZM205.779 206.024C205.411 206.516 204.84 206.931 203.916 207.2L205.034 211.04C206.639 210.573 208.004 209.724 208.979 208.424L205.779 206.024ZM202.848 210.282L207.048 216.162L210.303 213.838L206.103 207.958L202.848 210.282ZM208.675 213H207.283V217H208.675V213ZM201.643 210.424C203.693 210.424 205.589 209.979 207.025 208.787L204.47 205.709C204.018 206.085 203.178 206.424 201.643 206.424V210.424ZM207.04 208.774C208.514 207.525 209.163 205.793 209.163 203.864H205.163C205.163 204.847 204.869 205.371 204.454 205.722L207.04 208.774ZM209.163 203.864C209.163 201.936 208.514 200.201 207.025 198.965L204.47 202.043C204.869 202.375 205.163 202.88 205.163 203.864H209.163ZM207.04 198.978C205.603 197.76 203.701 197.304 201.643 197.304V201.304C203.17 201.304 204.004 201.648 204.454 202.03L207.04 198.978ZM201.643 197.304H196.843V201.304H201.643V197.304ZM194.843 199.304V208.424H198.843V199.304H194.843ZM196.843 210.424H201.643V206.424H196.843V210.424ZM92.9841 243.496L92.2553 245.358C92.266 245.363 92.2769 245.367 92.2877 245.371L92.9841 243.496ZM90.3921 241.84L88.6811 240.804C88.2186 241.568 88.3188 242.546 88.9265 243.201L90.3921 241.84ZM90.9441 240.928L92.395 239.551C91.9657 239.099 91.3498 238.873 90.7297 238.94C90.1095 239.006 89.5561 239.359 89.2331 239.892L90.9441 240.928ZM93.3201 242.464L92.5721 244.319C92.5841 244.324 92.5961 244.328 92.6081 244.333L93.3201 242.464ZM100.112 242.128L101.307 243.732L100.112 242.128ZM99.0801 236.92L99.7823 235.047L99.0801 236.92ZM96.4881 236.176L96.0089 238.118C96.0159 238.119 96.023 238.121 96.03 238.123L96.4881 236.176ZM93.5121 235.288L92.7833 237.15C92.7878 237.152 92.7923 237.154 92.7968 237.156L93.5121 235.288ZM91.6161 233.968L90.0862 235.256C90.0985 235.271 90.1109 235.285 90.1235 235.299L91.6161 233.968ZM91.4961 229.312L93.1784 230.394C93.1823 230.388 93.1861 230.382 93.1898 230.376L91.4961 229.312ZM93.4641 227.68L92.6487 225.854L92.6365 225.859L93.4641 227.68ZM99.5361 227.488L98.9551 229.402L99.5361 227.488ZM101.864 228.592L103.679 229.433C104.084 228.557 103.807 227.517 103.019 226.959L101.864 228.592ZM101.408 229.576L100.272 231.222C100.757 231.557 101.365 231.661 101.934 231.506C102.503 231.35 102.975 230.952 103.223 230.417L101.408 229.576ZM99.1761 228.52L98.6014 230.436L98.6117 230.439L99.1761 228.52ZM93.2721 229.096L92.042 227.519L93.2721 229.096ZM92.7201 233.32L91.2803 234.708L92.7201 233.32ZM94.3281 234.352L93.6258 236.225L94.3281 234.352ZM96.9441 235.12L97.4232 233.178H97.4225L96.9441 235.12ZM99.8961 236.008L99.1673 237.87L99.8961 236.008ZM101.768 237.328L100.255 238.636C100.268 238.651 100.281 238.665 100.294 238.679L101.768 237.328ZM101.888 241.912L100.224 240.803C100.218 240.812 100.212 240.821 100.206 240.83L101.888 241.912ZM99.8721 243.52L99.0687 241.688L99.8721 243.52ZM96.5121 242.12C95.5103 242.12 94.5706 241.952 93.6804 241.621L92.2877 245.371C93.6375 245.872 95.0499 246.12 96.5121 246.12V242.12ZM93.7129 241.634C92.81 241.28 92.2261 240.876 91.8577 240.479L88.9265 243.201C89.8061 244.148 90.9501 244.848 92.2553 245.358L93.7129 241.634ZM92.1031 242.876L92.6551 241.964L89.2331 239.892L88.6811 240.804L92.1031 242.876ZM89.493 242.305C90.3243 243.181 91.3772 243.837 92.5721 244.319L94.068 240.609C93.2789 240.291 92.7477 239.923 92.395 239.551L89.493 242.305ZM92.6081 244.333C93.8488 244.806 95.1466 245.04 96.4881 245.04V241.04C95.6216 241.04 94.8073 240.89 94.0321 240.595L92.6081 244.333ZM96.4881 245.04C98.289 245.04 99.9984 244.707 101.307 243.732L98.9171 240.524C98.5937 240.765 97.8872 241.04 96.4881 241.04V245.04ZM101.307 243.732C102.604 242.765 103.336 241.391 103.336 239.752H99.3361C99.3361 240.065 99.2519 240.275 98.9171 240.524L101.307 243.732ZM103.336 239.752C103.336 238.597 102.991 237.46 102.128 236.564L99.2484 239.34C99.2486 239.34 99.3361 239.403 99.3361 239.752H103.336ZM102.128 236.564C101.469 235.881 100.673 235.381 99.7823 235.047L98.3778 238.793C98.7668 238.939 99.0427 239.127 99.2484 239.34L102.128 236.564ZM99.7823 235.047C99.0287 234.765 98.0721 234.494 96.9461 234.229L96.03 238.123C97.08 238.37 97.8515 238.595 98.3778 238.793L99.7823 235.047ZM96.9672 234.234C95.7754 233.94 94.8715 233.667 94.2274 233.42L92.7968 237.156C93.6566 237.485 94.7367 237.804 96.0089 238.118L96.9672 234.234ZM94.2409 233.426C93.7988 233.253 93.4282 232.995 93.1087 232.637L90.1235 235.299C90.86 236.125 91.7533 236.747 92.7833 237.15L94.2409 233.426ZM93.1459 232.68C93.0117 232.52 92.8481 232.21 92.8481 231.544H88.8481C88.8481 232.894 89.1964 234.2 90.0862 235.256L93.1459 232.68ZM92.8481 231.544C92.8481 231.103 92.9585 230.736 93.1784 230.394L89.8137 228.23C89.1697 229.232 88.8481 230.353 88.8481 231.544H92.8481ZM93.1898 230.376C93.3766 230.078 93.6995 229.77 94.2917 229.501L92.6365 225.859C91.4687 226.39 90.4795 227.17 89.8023 228.248L93.1898 230.376ZM94.2794 229.506C94.8452 229.254 95.6593 229.08 96.8001 229.08V225.08C95.2849 225.08 93.875 225.306 92.6488 225.854L94.2794 229.506ZM96.8001 229.08C97.5294 229.08 98.2457 229.186 98.9551 229.402L100.117 225.574C99.0344 225.246 97.9267 225.08 96.8001 225.08V229.08ZM98.9551 229.402C99.6791 229.622 100.254 229.903 100.709 230.225L103.019 226.959C102.162 226.353 101.185 225.898 100.117 225.574L98.9551 229.402ZM100.049 227.751L99.5934 228.735L103.223 230.417L103.679 229.433L100.049 227.751ZM102.544 227.93C101.69 227.34 100.752 226.899 99.7404 226.601L98.6117 230.439C99.2323 230.621 99.7818 230.884 100.272 231.222L102.544 227.93ZM99.7508 226.604C98.7765 226.312 97.791 226.16 96.8001 226.16V230.16C97.3771 230.16 97.9756 230.248 98.6014 230.436L99.7508 226.604ZM96.8001 226.16C95.0261 226.16 93.3364 226.509 92.042 227.519L94.5021 230.673C94.8077 230.435 95.4701 230.16 96.8001 230.16V226.16ZM92.042 227.519C90.7691 228.512 90.0721 229.896 90.0721 231.52H94.0721C94.0721 231.16 94.1751 230.928 94.5021 230.673L92.042 227.519ZM90.0721 231.52C90.0721 232.675 90.4165 233.812 91.2803 234.708L94.1598 231.932C94.1596 231.932 94.0721 231.869 94.0721 231.52H90.0721ZM91.2803 234.708C91.9386 235.391 92.7348 235.891 93.6258 236.225L95.0303 232.479C94.6414 232.333 94.3654 232.145 94.1598 231.932L91.2803 234.708ZM93.6258 236.225C94.371 236.504 95.3284 236.782 96.4656 237.062L97.4225 233.178C96.3518 232.914 95.5651 232.68 95.0303 232.479L93.6258 236.225ZM96.4649 237.062C97.6562 237.356 98.5462 237.627 99.1673 237.87L100.625 234.146C99.7739 233.813 98.6959 233.492 97.4232 233.178L96.4649 237.062ZM99.1673 237.87C99.6039 238.041 99.9579 238.292 100.255 238.636L103.281 236.02C102.554 235.18 101.66 234.551 100.625 234.146L99.1673 237.87ZM100.294 238.679C100.4 238.795 100.56 239.049 100.56 239.68H104.56C104.56 238.327 104.192 237.013 103.242 235.977L100.294 238.679ZM100.56 239.68C100.56 240.106 100.45 240.463 100.224 240.803L103.552 243.021C104.221 242.017 104.56 240.886 104.56 239.68H100.56ZM100.206 240.83C100.034 241.098 99.7094 241.407 99.0687 241.688L100.675 245.352C101.859 244.833 102.878 244.07 103.57 242.994L100.206 240.83ZM99.0687 241.688C98.4794 241.947 97.651 242.12 96.5121 242.12V246.12C98.0292 246.12 99.4407 245.893 100.675 245.352L99.0687 241.688ZM109.121 227.2V225.2C108.016 225.2 107.121 226.095 107.121 227.2H109.121ZM110.345 227.2H112.345C112.345 226.095 111.45 225.2 110.345 225.2V227.2ZM110.345 244V246C111.45 246 112.345 245.105 112.345 244H110.345ZM109.121 244H107.121C107.121 245.105 108.016 246 109.121 246V244ZM109.121 229.2H110.345V225.2H109.121V229.2ZM108.345 227.2V244H112.345V227.2H108.345ZM110.345 242H109.121V246H110.345V242ZM111.121 244V227.2H107.121V244H111.121ZM134.487 244L132.487 244.003C132.489 245.107 133.384 246 134.487 246V244ZM134.463 229.624L136.463 229.621C136.462 228.717 135.854 227.926 134.98 227.692C134.107 227.458 133.185 227.839 132.732 228.622L134.463 229.624ZM127.431 241.768V243.768C128.145 243.768 128.804 243.388 129.162 242.77L127.431 241.768ZM126.831 241.768L125.102 242.773C125.46 243.389 126.119 243.768 126.831 243.768V241.768ZM119.799 229.672L121.528 228.667C121.074 227.885 120.152 227.506 119.279 227.741C118.406 227.976 117.799 228.768 117.799 229.672H119.799ZM119.799 244V246C120.904 246 121.799 245.105 121.799 244H119.799ZM118.599 244H116.599C116.599 245.105 117.495 246 118.599 246V244ZM118.599 227.2V225.2C117.495 225.2 116.599 226.095 116.599 227.2H118.599ZM119.631 227.2L121.362 226.198C121.005 225.581 120.345 225.2 119.631 225.2V227.2ZM127.143 240.184L125.412 241.186C125.769 241.803 126.429 242.184 127.143 242.184C127.857 242.184 128.517 241.803 128.874 241.186L127.143 240.184ZM134.655 227.2V225.2C133.941 225.2 133.281 225.581 132.924 226.198L134.655 227.2ZM135.663 227.2L137.663 227.197C137.662 226.094 136.767 225.2 135.663 225.2V227.2ZM135.687 244V246C136.218 246 136.727 245.789 137.102 245.413C137.477 245.038 137.688 244.528 137.687 243.997L135.687 244ZM136.487 243.997L136.463 229.621L132.463 229.627L132.487 244.003L136.487 243.997ZM132.732 228.622L125.7 240.766L129.162 242.77L136.194 230.626L132.732 228.622ZM127.431 239.768H126.831V243.768H127.431V239.768ZM128.56 240.763L121.528 228.667L118.07 230.677L125.102 242.773L128.56 240.763ZM117.799 229.672V244H121.799V229.672H117.799ZM119.799 242H118.599V246H119.799V242ZM120.599 244V227.2H116.599V244H120.599ZM118.599 229.2H119.631V225.2H118.599V229.2ZM117.9 228.202L125.412 241.186L128.874 239.182L121.362 226.198L117.9 228.202ZM128.874 241.186L136.386 228.202L132.924 226.198L125.412 239.182L128.874 241.186ZM134.655 229.2H135.663V225.2H134.655V229.2ZM133.663 227.203L133.687 244.003L137.687 243.997L137.663 227.197L133.663 227.203ZM135.687 242H134.487V246H135.687V242ZM154.936 228.712L153.65 230.243C153.654 230.247 153.658 230.25 153.662 230.253L154.936 228.712ZM154.936 237.016L156.211 238.557C156.215 238.554 156.219 238.551 156.223 238.547L154.936 237.016ZM145.168 238.504V236.504C144.064 236.504 143.168 237.399 143.168 238.504H145.168ZM145.168 244V246C146.273 246 147.168 245.105 147.168 244H145.168ZM143.944 244H141.944C141.944 245.105 142.84 246 143.944 246V244ZM143.944 227.2V225.2C142.84 225.2 141.944 226.095 141.944 227.2H143.944ZM154.072 236.224L155.35 237.763L154.072 236.224ZM154.072 229.504L152.779 231.03C152.784 231.034 152.79 231.038 152.795 231.043L154.072 229.504ZM145.168 228.304V226.304C144.064 226.304 143.168 227.199 143.168 228.304H145.168ZM145.168 237.4H143.168C143.168 238.505 144.064 239.4 145.168 239.4V237.4ZM149.968 229.2C151.774 229.2 152.919 229.629 153.65 230.243L156.223 227.181C154.554 225.779 152.387 225.2 149.968 225.2V229.2ZM153.662 230.253C154.335 230.809 154.736 231.59 154.736 232.864H158.736C158.736 230.586 157.938 228.599 156.211 227.171L153.662 230.253ZM154.736 232.864C154.736 234.115 154.339 234.906 153.65 235.485L156.223 238.547C157.934 237.11 158.736 235.133 158.736 232.864H154.736ZM153.662 235.475C152.93 236.079 151.781 236.504 149.968 236.504V240.504C152.38 240.504 154.542 239.937 156.211 238.557L153.662 235.475ZM149.968 236.504H145.168V240.504H149.968V236.504ZM143.168 238.504V244H147.168V238.504H143.168ZM145.168 242H143.944V246H145.168V242ZM145.944 244V227.2H141.944V244H145.944ZM143.944 229.2H149.968V225.2H143.944V229.2ZM149.968 239.4C152.018 239.4 153.914 238.955 155.35 237.763L152.795 234.685C152.343 235.061 151.503 235.4 149.968 235.4V239.4ZM155.35 237.763C156.839 236.527 157.488 234.792 157.488 232.864H153.488C153.488 233.848 153.194 234.353 152.795 234.685L155.35 237.763ZM157.488 232.864C157.488 230.936 156.839 229.201 155.35 227.965L152.795 231.043C153.194 231.375 153.488 231.88 153.488 232.864H157.488ZM155.365 227.978C153.928 226.76 152.026 226.304 149.968 226.304V230.304C151.495 230.304 152.329 230.648 152.779 231.03L155.365 227.978ZM149.968 226.304H145.168V230.304H149.968V226.304ZM143.168 228.304V237.4H147.168V228.304H143.168ZM145.168 239.4H149.968V235.4H145.168V239.4ZM163.266 227.2V225.2C162.162 225.2 161.266 226.095 161.266 227.2H163.266ZM164.49 227.2H166.49C166.49 226.095 165.595 225.2 164.49 225.2V227.2ZM164.49 242.896H162.49C162.49 244.001 163.386 244.896 164.49 244.896V242.896ZM174.162 242.896H176.162C176.162 241.791 175.267 240.896 174.162 240.896V242.896ZM174.162 244V246C175.267 246 176.162 245.105 176.162 244H174.162ZM163.266 244H161.266C161.266 245.105 162.162 246 163.266 246V244ZM163.266 229.2H164.49V225.2H163.266V229.2ZM162.49 227.2V242.896H166.49V227.2H162.49ZM164.49 244.896H174.162V240.896H164.49V244.896ZM172.162 242.896V244H176.162V242.896H172.162ZM174.162 242H163.266V246H174.162V242ZM165.266 244V227.2H161.266V244H165.266ZM191.297 242.896H193.297C193.297 241.791 192.402 240.896 191.297 240.896V242.896ZM191.297 244V246C192.402 246 193.297 245.105 193.297 244H191.297ZM179.705 244H177.705C177.705 245.105 178.601 246 179.705 246V244ZM179.705 227.2V225.2C178.601 225.2 177.705 226.095 177.705 227.2H179.705ZM190.937 227.2H192.937C192.937 226.095 192.042 225.2 190.937 225.2V227.2ZM190.937 228.304V230.304C192.042 230.304 192.937 229.409 192.937 228.304H190.937ZM180.929 228.304V226.304C179.825 226.304 178.929 227.199 178.929 228.304H180.929ZM180.929 234.928H178.929C178.929 236.033 179.825 236.928 180.929 236.928V234.928ZM189.881 234.928H191.881C191.881 233.823 190.986 232.928 189.881 232.928V234.928ZM189.881 236.008V238.008C190.986 238.008 191.881 237.113 191.881 236.008H189.881ZM180.929 236.008V234.008C179.825 234.008 178.929 234.903 178.929 236.008H180.929ZM180.929 242.896H178.929C178.929 244.001 179.825 244.896 180.929 244.896V242.896ZM189.297 242.896V244H193.297V242.896H189.297ZM191.297 242H179.705V246H191.297V242ZM181.705 244V227.2H177.705V244H181.705ZM179.705 229.2H190.937V225.2H179.705V229.2ZM188.937 227.2V228.304H192.937V227.2H188.937ZM190.937 226.304H180.929V230.304H190.937V226.304ZM178.929 228.304V234.928H182.929V228.304H178.929ZM180.929 236.928H189.881V232.928H180.929V236.928ZM187.881 234.928V236.008H191.881V234.928H187.881ZM189.881 234.008H180.929V238.008H189.881V234.008ZM178.929 236.008V242.896H182.929V236.008H178.929ZM180.929 244.896H191.297V240.896H180.929V244.896Z" fill="white"/>
<g style="mix-blend-mode:soft-light">
<path d="M58 188H226" stroke="white"/>
</g>
<mask id="mask0_139_253" style="mask-type:alpha" maskUnits="userSpaceOnUse" x="59" y="126" width="168" height="57">
<path d="M64.768 132.104V129.104C63.1111 129.104 61.768 130.447 61.768 132.104H64.768ZM64.768 142.004H61.768C61.768 143.661 63.1111 145.004 64.768 145.004V142.004ZM77.8 142.004H80.8C80.8 140.347 79.4569 139.004 77.8 139.004V142.004ZM77.8 144.308V147.308C79.4569 147.308 80.8 145.965 80.8 144.308H77.8ZM64.768 144.308V141.308C63.1111 141.308 61.768 142.651 61.768 144.308H64.768ZM64.768 155V158C66.4249 158 67.768 156.657 67.768 155H64.768ZM62.104 155H59.104C59.104 156.657 60.4471 158 62.104 158V155ZM62.104 129.8V126.8C60.4471 126.8 59.104 128.143 59.104 129.8H62.104ZM79.384 129.8H82.384C82.384 128.143 81.0409 126.8 79.384 126.8V129.8ZM79.384 132.104V135.104C81.0409 135.104 82.384 133.761 82.384 132.104H79.384ZM61.768 132.104V142.004H67.768V132.104H61.768ZM64.768 145.004H77.8V139.004H64.768V145.004ZM74.8 142.004V144.308H80.8V142.004H74.8ZM77.8 141.308H64.768V147.308H77.8V141.308ZM61.768 144.308V155H67.768V144.308H61.768ZM64.768 152H62.104V158H64.768V152ZM65.104 155V129.8H59.104V155H65.104ZM62.104 132.8H79.384V126.8H62.104V132.8ZM76.384 129.8V132.104H82.384V129.8H76.384ZM79.384 129.104H64.768V135.104H79.384V129.104ZM91.0052 152.408L93.1539 150.314L91.0052 152.408ZM88.2693 129.8V126.8C86.6124 126.8 85.2693 128.143 85.2693 129.8H88.2693ZM90.9333 129.8H93.9333C93.9333 128.143 92.5901 126.8 90.9333 126.8V129.8ZM104.397 150.68L106.609 152.707L104.397 150.68ZM106.377 129.8V126.8C104.72 126.8 103.377 128.143 103.377 129.8H106.377ZM108.969 129.8H111.969C111.969 128.143 110.626 126.8 108.969 126.8V129.8ZM106.233 152.408L104.085 150.314C104.08 150.319 104.075 150.324 104.071 150.329L106.233 152.408ZM98.6373 152.216C95.9688 152.216 94.2798 151.47 93.1539 150.314L88.8566 154.502C91.3787 157.09 94.7777 158.216 98.6373 158.216V152.216ZM93.1539 150.314C92.0511 149.183 91.2692 147.323 91.2692 144.236H85.2693C85.2693 148.301 86.3114 151.889 88.8566 154.502L93.1539 150.314ZM91.2692 144.236V129.8H85.2693V144.236H91.2692ZM88.2693 132.8H90.9333V126.8H88.2693V132.8ZM87.9333 129.8V144.128H93.9333V129.8H87.9333ZM87.9333 144.128C87.9333 147.441 88.6724 150.493 90.7018 152.707L95.1247 148.653C94.5141 147.987 93.9333 146.671 93.9333 144.128H87.9333ZM90.7018 152.707C92.7385 154.929 95.5487 155.84 98.6373 155.84V149.84C96.7338 149.84 95.728 149.311 95.1247 148.653L90.7018 152.707ZM98.6373 155.84C101.74 155.84 104.567 154.935 106.609 152.707L102.186 148.653C101.588 149.305 100.575 149.84 98.6373 149.84V155.84ZM106.609 152.707C108.638 150.493 109.377 147.441 109.377 144.128H103.377C103.377 146.671 102.796 147.987 102.186 148.653L106.609 152.707ZM109.377 144.128V129.8H103.377V144.128H109.377ZM106.377 132.8H108.969V126.8H106.377V132.8ZM105.969 129.8V144.236H111.969V129.8H105.969ZM105.969 144.236C105.969 147.323 105.187 149.183 104.085 150.314L108.382 154.502C110.927 151.889 111.969 148.301 111.969 144.236H105.969ZM104.071 150.329C102.974 151.469 101.308 152.216 98.6373 152.216V158.216C102.495 158.216 105.893 157.091 108.396 154.487L104.071 150.329ZM125.001 132.104H128.001C128.001 130.447 126.658 129.104 125.001 129.104V132.104ZM116.145 132.104H113.145C113.145 133.761 114.488 135.104 116.145 135.104V132.104ZM116.145 129.8V126.8C114.488 126.8 113.145 128.143 113.145 129.8H116.145ZM136.521 129.8H139.521C139.521 128.143 138.178 126.8 136.521 126.8V129.8ZM136.521 132.104V135.104C138.178 135.104 139.521 133.761 139.521 132.104H136.521ZM127.665 132.104V129.104C126.008 129.104 124.665 130.447 124.665 132.104H127.665ZM127.665 155V158C129.322 158 130.665 156.657 130.665 155H127.665ZM125.001 155H122.001C122.001 156.657 123.344 158 125.001 158V155ZM125.001 129.104H116.145V135.104H125.001V129.104ZM119.145 132.104V129.8H113.145V132.104H119.145ZM116.145 132.8H136.521V126.8H116.145V132.8ZM133.521 129.8V132.104H139.521V129.8H133.521ZM136.521 129.104H127.665V135.104H136.521V129.104ZM124.665 132.104V155H130.665V132.104H124.665ZM127.665 152H125.001V158H127.665V152ZM128.001 155V132.104H122.001V155H128.001ZM146.404 152.408L148.553 150.314L146.404 152.408ZM143.668 129.8V126.8C142.012 126.8 140.668 128.143 140.668 129.8H143.668ZM146.332 129.8H149.332C149.332 128.143 147.989 126.8 146.332 126.8V129.8ZM159.796 150.68L162.008 152.707L159.796 150.68ZM161.776 129.8V126.8C160.12 126.8 158.776 128.143 158.776 129.8H161.776ZM164.368 129.8H167.368C167.368 128.143 166.025 126.8 164.368 126.8V129.8ZM161.632 152.408L159.484 150.314C159.479 150.319 159.475 150.324 159.47 150.329L161.632 152.408ZM154.036 152.216C151.368 152.216 149.679 151.47 148.553 150.314L144.256 154.502C146.778 157.09 150.177 158.216 154.036 158.216V152.216ZM148.553 150.314C147.45 149.183 146.668 147.323 146.668 144.236H140.668C140.668 148.301 141.711 151.889 144.256 154.502L148.553 150.314ZM146.668 144.236V129.8H140.668V144.236H146.668ZM143.668 132.8H146.332V126.8H143.668V132.8ZM143.332 129.8V144.128H149.332V129.8H143.332ZM143.332 144.128C143.332 147.441 144.072 150.493 146.101 152.707L150.524 148.653C149.913 147.987 149.332 146.671 149.332 144.128H143.332ZM146.101 152.707C148.138 154.929 150.948 155.84 154.036 155.84V149.84C152.133 149.84 151.127 149.311 150.524 148.653L146.101 152.707ZM154.036 155.84C157.139 155.84 159.966 154.935 162.008 152.707L157.585 148.653C156.987 149.305 155.974 149.84 154.036 149.84V155.84ZM162.008 152.707C164.037 150.493 164.776 147.441 164.776 144.128H158.776C158.776 146.671 158.196 147.987 157.585 148.653L162.008 152.707ZM164.776 144.128V129.8H158.776V144.128H164.776ZM161.776 132.8H164.368V126.8H161.776V132.8ZM161.368 129.8V144.236H167.368V129.8H161.368ZM161.368 144.236C161.368 147.323 160.587 149.183 159.484 150.314L163.781 154.502C166.326 151.889 167.368 148.301 167.368 144.236H161.368ZM159.47 150.329C158.373 151.469 156.707 152.216 154.036 152.216V158.216C157.894 158.216 161.292 157.091 163.795 154.487L159.47 150.329ZM193.204 155L190.759 156.739C191.322 157.53 192.233 158 193.204 158V155ZM187.444 146.9L189.889 145.161C189.258 144.274 188.195 143.798 187.113 143.918L187.444 146.9ZM178.66 147.008V144.008C177.003 144.008 175.66 145.351 175.66 147.008H178.66ZM178.66 155V158C180.317 158 181.66 156.657 181.66 155H178.66ZM175.996 155H172.996C172.996 156.657 174.339 158 175.996 158V155ZM175.996 129.8V126.8C174.339 126.8 172.996 128.143 172.996 129.8H175.996ZM192.988 132.104L191.056 134.399L192.988 132.104ZM194.212 143.444L191.797 141.664L191.792 141.672L194.212 143.444ZM189.964 146.36L189.038 143.507C188.129 143.802 187.415 144.512 187.115 145.419C186.816 146.327 186.966 147.323 187.521 148.101L189.964 146.36ZM196.12 155V158C197.243 158 198.272 157.373 198.787 156.374C199.301 155.376 199.215 154.174 198.563 153.259L196.12 155ZM191.08 143.084L193.005 145.385L191.08 143.084ZM191.08 133.76L189.156 136.061C189.164 136.068 189.172 136.075 189.18 136.082L191.08 133.76ZM178.66 132.104V129.104C177.003 129.104 175.66 130.447 175.66 132.104H178.66ZM178.66 144.74H175.66C175.66 146.397 177.003 147.74 178.66 147.74V144.74ZM195.649 153.261L189.889 145.161L184.999 148.639L190.759 156.739L195.649 153.261ZM187.113 143.918C186.582 143.977 186.021 144.008 185.428 144.008V150.008C186.228 150.008 187.01 149.967 187.775 149.882L187.113 143.918ZM185.428 144.008H178.66V150.008H185.428V144.008ZM175.66 147.008V155H181.66V147.008H175.66ZM178.66 152H175.996V158H178.66V152ZM178.996 155V129.8H172.996V155H178.996ZM175.996 132.8H185.428V126.8H175.996V132.8ZM185.428 132.8C188.185 132.8 189.936 133.456 191.056 134.399L194.921 129.809C192.393 127.68 189.104 126.8 185.428 126.8V132.8ZM191.056 134.399C192.112 135.288 192.724 136.511 192.724 138.44H198.724C198.724 134.993 197.513 131.992 194.921 129.809L191.056 134.399ZM192.724 138.44C192.724 139.873 192.367 140.891 191.797 141.664L196.627 145.224C198.073 143.261 198.724 140.943 198.724 138.44H192.724ZM191.792 141.672C191.239 142.427 190.39 143.068 189.038 143.507L190.891 149.213C193.235 148.452 195.217 147.149 196.633 145.216L191.792 141.672ZM187.521 148.101L193.677 156.741L198.563 153.259L192.407 144.619L187.521 148.101ZM196.12 152H193.204V158H196.12V152ZM185.356 147.74C188.246 147.74 190.948 147.106 193.005 145.385L189.156 140.783C188.573 141.27 187.458 141.74 185.356 141.74V147.74ZM193.005 145.385C195.118 143.618 196.06 141.164 196.06 138.44H190.06C190.06 139.7 189.683 140.342 189.156 140.783L193.005 145.385ZM196.06 138.44C196.06 135.696 195.135 133.201 192.98 131.438L189.18 136.082C189.666 136.479 190.06 137.104 190.06 138.44H196.06ZM193.005 131.459C190.948 129.738 188.246 129.104 185.356 129.104V135.104C187.458 135.104 188.573 135.574 189.156 136.061L193.005 131.459ZM185.356 129.104H178.66V135.104H185.356V129.104ZM175.66 132.104V144.74H181.66V132.104H175.66ZM178.66 147.74H185.356V141.74H178.66V147.74ZM223.432 152.696H226.432C226.432 151.039 225.089 149.696 223.432 149.696V152.696ZM223.432 155V158C225.089 158 226.432 156.657 226.432 155H223.432ZM205.612 155H202.612C202.612 156.657 203.955 158 205.612 158V155ZM205.612 129.8V126.8C203.955 126.8 202.612 128.143 202.612 129.8H205.612ZM222.892 129.8H225.892C225.892 128.143 224.549 126.8 222.892 126.8V129.8ZM222.892 132.104V135.104C224.549 135.104 225.892 133.761 225.892 132.104H222.892ZM208.276 132.104V129.104C206.619 129.104 205.276 130.447 205.276 132.104H208.276ZM208.276 141.068H205.276C205.276 142.725 206.619 144.068 208.276 144.068V141.068ZM221.308 141.068H224.308C224.308 139.411 222.965 138.068 221.308 138.068V141.068ZM221.308 143.336V146.336C222.965 146.336 224.308 144.993 224.308 143.336H221.308ZM208.276 143.336V140.336C206.619 140.336 205.276 141.679 205.276 143.336H208.276ZM208.276 152.696H205.276C205.276 154.353 206.619 155.696 208.276 155.696V152.696ZM220.432 152.696V155H226.432V152.696H220.432ZM223.432 152H205.612V158H223.432V152ZM208.612 155V129.8H202.612V155H208.612ZM205.612 132.8H222.892V126.8H205.612V132.8ZM219.892 129.8V132.104H225.892V129.8H219.892ZM222.892 129.104H208.276V135.104H222.892V129.104ZM205.276 132.104V141.068H211.276V132.104H205.276ZM208.276 144.068H221.308V138.068H208.276V144.068ZM218.308 141.068V143.336H224.308V141.068H218.308ZM221.308 140.336H208.276V146.336H221.308V140.336ZM205.276 143.336V152.696H211.276V143.336H205.276ZM208.276 155.696H223.432V149.696H208.276V155.696Z" fill="white"/>
<path d="M156.28 166.38H158.28C158.28 165.275 157.385 164.38 156.28 164.38V166.38ZM151.08 166.38H149.08C149.08 167.485 149.975 168.38 151.08 168.38V166.38ZM151.08 166V164C149.975 164 149.08 164.895 149.08 166H151.08ZM161.88 166H163.88C163.88 164.895 162.985 164 161.88 164V166ZM161.88 166.38V168.38C162.985 168.38 163.88 167.485 163.88 166.38H161.88ZM156.68 166.38V164.38C155.575 164.38 154.68 165.275 154.68 166.38H156.68ZM156.68 180V182C157.785 182 158.68 181.105 158.68 180H156.68ZM156.28 180H154.28C154.28 181.105 155.175 182 156.28 182V180ZM156.28 164.38H151.08V168.38H156.28V164.38ZM153.08 166.38V166H149.08V166.38H153.08ZM151.08 168H161.88V164H151.08V168ZM159.88 166V166.38H163.88V166H159.88ZM161.88 164.38H156.68V168.38H161.88V164.38ZM154.68 166.38V180H158.68V166.38H154.68ZM156.68 178H156.28V182H156.68V178ZM158.28 180V166.38H154.28V180H158.28ZM175.937 179.62H177.937C177.937 178.515 177.042 177.62 175.937 177.62V179.62ZM175.937 180V182C177.042 182 177.937 181.105 177.937 180H175.937ZM166.617 180H164.617C164.617 181.105 165.512 182 166.617 182V180ZM166.617 166V164C165.512 164 164.617 164.895 164.617 166H166.617ZM175.637 166H177.637C177.637 164.895 176.742 164 175.637 164V166ZM175.637 166.38V168.38C176.742 168.38 177.637 167.485 177.637 166.38H175.637ZM167.017 166.38V164.38C165.912 164.38 165.017 165.275 165.017 166.38H167.017ZM167.017 172.7H165.017C165.017 173.805 165.912 174.7 167.017 174.7V172.7ZM174.737 172.7H176.737C176.737 171.595 175.842 170.7 174.737 170.7V172.7ZM174.737 173.08V175.08C175.842 175.08 176.737 174.185 176.737 173.08H174.737ZM167.017 173.08V171.08C165.912 171.08 165.017 171.975 165.017 173.08H167.017ZM167.017 179.62H165.017C165.017 180.725 165.912 181.62 167.017 181.62V179.62ZM173.937 179.62V180H177.937V179.62H173.937ZM175.937 178H166.617V182H175.937V178ZM168.617 180V166H164.617V180H168.617ZM166.617 168H175.637V164H166.617V168ZM173.637 166V166.38H177.637V166H173.637ZM175.637 164.38H167.017V168.38H175.637V164.38ZM165.017 166.38V172.7H169.017V166.38H165.017ZM167.017 174.7H174.737V170.7H167.017V174.7ZM172.737 172.7V173.08H176.737V172.7H172.737ZM174.737 171.08H167.017V175.08H174.737V171.08ZM165.017 173.08V179.62H169.017V173.08H165.017ZM167.017 181.62H175.937V177.62H167.017V181.62ZM192.976 166H194.976C194.976 164.895 194.081 164 192.976 164V166ZM192.976 180V182C194.081 182 194.976 181.105 194.976 180H192.976ZM192.636 180L191.055 181.224C191.433 181.713 192.017 182 192.636 182V180ZM182.376 166.74L183.958 165.516C183.435 164.84 182.539 164.571 181.73 164.847C180.92 165.124 180.376 165.885 180.376 166.74H182.376ZM182.376 180V182C183.481 182 184.376 181.105 184.376 180H182.376ZM181.976 180H179.976C179.976 181.105 180.872 182 181.976 182V180ZM181.976 166V164C180.872 164 179.976 164.895 179.976 166H181.976ZM182.316 166L183.898 164.776C183.519 164.287 182.935 164 182.316 164V166ZM192.576 179.26L190.995 180.484C191.518 181.16 192.414 181.429 193.223 181.153C194.032 180.876 194.576 180.115 194.576 179.26H192.576ZM192.576 166V164C191.472 164 190.576 164.895 190.576 166H192.576ZM190.976 166V180H194.976V166H190.976ZM192.976 178H192.636V182H192.976V178ZM194.218 178.776L183.958 165.516L180.795 167.964L191.055 181.224L194.218 178.776ZM180.376 166.74V180H184.376V166.74H180.376ZM182.376 178H181.976V182H182.376V178ZM183.976 180V166H179.976V180H183.976ZM181.976 168H182.316V164H181.976V168ZM180.735 167.224L190.995 180.484L194.158 178.036L183.898 164.776L180.735 167.224ZM194.576 179.26V166H190.576V179.26H194.576ZM192.576 168H192.976V164H192.576V168ZM200.865 179.52L200.093 181.365C200.101 181.369 200.109 181.372 200.117 181.375L200.865 179.52ZM198.805 178.08L197.444 176.614C196.67 177.333 196.588 178.529 197.257 179.346L198.805 178.08ZM199.085 177.82L200.608 176.525C200.255 176.109 199.747 175.856 199.202 175.823C198.658 175.791 198.123 175.983 197.724 176.354L199.085 177.82ZM201.025 179.16L200.237 180.998C200.245 181.002 200.253 181.005 200.262 181.009L201.025 179.16ZM206.985 178.82L208.216 180.396L208.22 180.393L206.985 178.82ZM207.525 174.84L206.043 176.183L207.525 174.84ZM206.085 173.88L205.373 175.749C205.377 175.751 205.382 175.753 205.387 175.754L206.085 173.88ZM203.805 173.22L203.325 175.162C203.332 175.163 203.338 175.165 203.345 175.166L203.805 173.22ZM201.365 172.5L200.622 174.357C200.634 174.362 200.646 174.366 200.658 174.371L201.365 172.5ZM199.825 171.42L198.291 172.704C198.304 172.719 198.317 172.734 198.33 172.749L199.825 171.42ZM199.705 167.7L201.401 168.76L199.705 167.7ZM206.085 166.3L205.452 168.197C205.463 168.201 205.473 168.204 205.484 168.208L206.085 166.3ZM207.945 167.22L209.593 168.353C210.202 167.467 210.001 166.257 209.138 165.615L207.945 167.22ZM207.725 167.54L206.544 169.154C206.98 169.473 207.527 169.602 208.06 169.512C208.593 169.421 209.066 169.119 209.373 168.673L207.725 167.54ZM205.885 166.64L205.275 168.545C205.29 168.55 205.305 168.554 205.32 168.559L205.885 166.64ZM200.705 167.22L201.954 168.782C201.96 168.777 201.965 168.773 201.971 168.768L200.705 167.22ZM200.185 171.22L198.682 172.54C198.689 172.548 198.696 172.555 198.703 172.563L200.185 171.22ZM201.625 172.18L202.322 170.306L201.625 172.18ZM203.945 172.86L204.43 170.92L204.423 170.918L203.945 172.86ZM206.365 173.6L205.622 175.457C205.634 175.462 205.646 175.466 205.658 175.471L206.365 173.6ZM207.885 174.66L206.369 175.965C206.375 175.972 206.381 175.979 206.387 175.986L207.885 174.66ZM207.985 178.32L206.308 177.23L207.985 178.32ZM206.385 179.6L207.181 181.435C207.186 181.432 207.191 181.43 207.197 181.428L206.385 179.6ZM203.725 178.06C202.954 178.06 202.256 177.924 201.612 177.665L200.117 181.375C201.26 181.836 202.469 182.06 203.725 182.06V178.06ZM201.636 177.675C200.963 177.394 200.575 177.086 200.352 176.814L197.257 179.346C197.994 180.248 198.979 180.9 200.093 181.365L201.636 177.675ZM200.165 179.546L200.445 179.286L197.724 176.354L197.444 176.614L200.165 179.546ZM197.561 179.115C198.266 179.945 199.196 180.552 200.237 180.998L201.812 177.322C201.173 177.048 200.81 176.762 200.608 176.525L197.561 179.115ZM200.262 181.009C201.354 181.459 202.507 181.68 203.705 181.68V177.68C203.009 177.68 202.375 177.554 201.788 177.311L200.262 181.009ZM203.705 181.68C205.369 181.68 206.982 181.36 208.216 180.396L205.753 177.244C205.52 177.426 204.947 177.68 203.705 177.68V181.68ZM208.22 180.393C209.431 179.441 210.105 178.116 210.105 176.56H206.105C206.105 176.844 206.031 177.026 205.749 177.247L208.22 180.393ZM210.105 176.56C210.105 175.473 209.804 174.377 209.007 173.497L206.043 176.183C206.044 176.185 206.046 176.187 206.048 176.191C206.051 176.195 206.057 176.206 206.064 176.229C206.08 176.275 206.105 176.377 206.105 176.56H210.105ZM209.007 173.497C208.391 172.818 207.636 172.323 206.782 172.006L205.387 175.754C205.679 175.863 205.884 176.009 206.043 176.183L209.007 173.497ZM206.797 172.011C206.119 171.753 205.263 171.509 204.264 171.274L203.345 175.166C204.266 175.384 204.93 175.58 205.373 175.749L206.797 172.011ZM204.284 171.278C203.292 171.033 202.565 170.815 202.071 170.629L200.658 174.371C201.364 174.638 202.264 174.9 203.325 175.162L204.284 171.278ZM202.107 170.643C201.794 170.518 201.538 170.338 201.319 170.091L198.33 172.749C198.964 173.462 199.735 174.002 200.622 174.357L202.107 170.643ZM201.358 170.136C201.319 170.089 201.205 169.931 201.205 169.46H197.205C197.205 170.616 197.504 171.764 198.291 172.704L201.358 170.136ZM201.205 169.46C201.205 169.188 201.27 168.97 201.401 168.76L198.009 166.64C197.473 167.497 197.205 168.452 197.205 169.46H201.205ZM201.401 168.76C201.481 168.632 201.658 168.437 202.09 168.242L200.44 164.598C199.458 165.043 198.595 165.702 198.009 166.64L201.401 168.76ZM202.09 168.242C202.465 168.072 203.037 167.94 203.885 167.94V163.94C202.652 163.94 201.478 164.128 200.44 164.598L202.09 168.242ZM203.885 167.94C204.413 167.94 204.933 168.024 205.452 168.197L206.717 164.403C205.796 164.096 204.85 163.94 203.885 163.94V167.94ZM205.484 168.208C206.025 168.378 206.437 168.592 206.751 168.825L209.138 165.615C208.412 165.075 207.584 164.675 206.685 164.392L205.484 168.208ZM206.296 166.087L206.076 166.407L209.373 168.673L209.593 168.353L206.296 166.087ZM208.906 165.926C208.164 165.383 207.34 164.983 206.449 164.721L205.32 168.559C205.789 168.697 206.192 168.897 206.544 169.154L208.906 165.926ZM206.494 164.735C205.644 164.463 204.779 164.32 203.905 164.32V168.32C204.337 168.32 204.791 168.39 205.275 168.545L206.494 164.735ZM203.905 164.32C202.256 164.32 200.665 164.668 199.438 165.672L201.971 168.768C202.211 168.571 202.753 168.32 203.905 168.32V164.32ZM199.455 165.658C198.259 166.615 197.605 167.938 197.605 169.48H201.605C201.605 169.182 201.684 168.998 201.954 168.782L199.455 165.658ZM197.605 169.48C197.605 170.57 197.906 171.657 198.682 172.54L201.687 169.9C201.677 169.889 201.663 169.871 201.647 169.823C201.629 169.769 201.605 169.662 201.605 169.48H197.605ZM198.703 172.563C199.318 173.242 200.073 173.737 200.927 174.054L202.322 170.306C202.03 170.197 201.825 170.051 201.667 169.877L198.703 172.563ZM200.927 174.054C201.602 174.306 202.459 174.554 203.466 174.802L204.423 170.918C203.484 170.686 202.793 170.481 202.322 170.306L200.927 174.054ZM203.459 174.8C204.431 175.043 205.141 175.265 205.622 175.457L207.107 171.743C206.388 171.455 205.484 171.183 204.43 170.92L203.459 174.8ZM205.658 175.471C205.949 175.581 206.177 175.742 206.369 175.965L209.4 173.355C208.766 172.618 207.98 172.072 207.071 171.729L205.658 175.471ZM206.387 175.986C206.393 175.993 206.505 176.106 206.505 176.56H210.505C210.505 175.414 210.202 174.26 209.382 173.334L206.387 175.986ZM206.505 176.56C206.505 176.816 206.442 177.023 206.308 177.23L209.661 179.41C210.22 178.55 210.505 177.584 210.505 176.56H206.505ZM206.308 177.23C206.217 177.369 206.023 177.572 205.572 177.772L207.197 181.428C208.186 180.988 209.059 180.337 209.661 179.41L206.308 177.23ZM205.588 177.765C205.21 177.93 204.616 178.06 203.725 178.06V182.06C204.967 182.06 206.146 181.884 207.181 181.435L205.588 177.765ZM223.636 179.62H225.636C225.636 178.515 224.741 177.62 223.636 177.62V179.62ZM223.636 180V182C224.741 182 225.636 181.105 225.636 180H223.636ZM214.316 180H212.316C212.316 181.105 213.212 182 214.316 182V180ZM214.316 166V164C213.212 164 212.316 164.895 212.316 166H214.316ZM223.336 166H225.336C225.336 164.895 224.441 164 223.336 164V166ZM223.336 166.38V168.38C224.441 168.38 225.336 167.485 225.336 166.38H223.336ZM214.716 166.38V164.38C213.612 164.38 212.716 165.275 212.716 166.38H214.716ZM214.716 172.7H212.716C212.716 173.805 213.612 174.7 214.716 174.7V172.7ZM222.436 172.7H224.436C224.436 171.595 223.541 170.7 222.436 170.7V172.7ZM222.436 173.08V175.08C223.541 175.08 224.436 174.185 224.436 173.08H222.436ZM214.716 173.08V171.08C213.612 171.08 212.716 171.975 212.716 173.08H214.716ZM214.716 179.62H212.716C212.716 180.725 213.612 181.62 214.716 181.62V179.62ZM221.636 179.62V180H225.636V179.62H221.636ZM223.636 178H214.316V182H223.636V178ZM216.316 180V166H212.316V180H216.316ZM214.316 168H223.336V164H214.316V168ZM221.336 166V166.38H225.336V166H221.336ZM223.336 164.38H214.716V168.38H223.336V164.38ZM212.716 166.38V172.7H216.716V166.38H212.716ZM214.716 174.7H222.436V170.7H214.716V174.7ZM220.436 172.7V173.08H224.436V172.7H220.436ZM222.436 171.08H214.716V175.08H222.436V171.08ZM212.716 173.08V179.62H216.716V173.08H212.716ZM214.716 181.62H223.636V177.62H214.716V181.62Z" fill="white"/>
</mask>
<g mask="url(#mask0_139_253)">
<path d="M0 145.04L9.46667 146.306C18.9333 147.61 37.8667 150.141 56.8 147.533C75.7333 144.925 94.6667 137.101 113.6 137.638C132.533 138.137 151.467 146.958 170.4 147.533C189.333 148.108 208.267 140.438 227.2 136.487C246.133 132.499 265.067 132.268 274.533 132.115L284 132V323H274.533C265.067 323 246.133 323 227.2 323C208.267 323 189.333 323 170.4 323C151.467 323 132.533 323 113.6 323C94.6667 323 75.7333 323 56.8 323C37.8667 323 18.9333 323 9.46667 323H0V145.04Z" fill="white"/>
</g>
</g>
<defs>
<clipPath id="clip0_139_253">
<rect width="284" height="324" fill="white"/>
</clipPath>
</defs>
</svg>
