<svg width="284" height="323" viewBox="0 0 284 323" fill="none" xmlns="http://www.w3.org/2000/svg">
<g clip-path="url(#clip0_139_275)">
<path d="M284 0H0V322H284V0Z" fill="#001220"/>
<path d="M23.104 129.8H25.768V155H23.104V129.8ZM63.7393 129.8V155H61.1833V134.84L51.2833 151.796H50.0233L40.1233 134.948V155H37.5673V129.8H39.7633L50.7073 148.484L61.5433 129.8H63.7393ZM84.9821 129.8C88.1981 129.8 90.7181 130.568 92.5421 132.104C94.3661 133.64 95.2781 135.752 95.2781 138.44C95.2781 141.128 94.3661 143.24 92.5421 144.776C90.7181 146.288 88.1981 147.044 84.9821 147.044H78.2141V155H75.5501V129.8H84.9821ZM84.9101 144.704C87.4061 144.704 89.3141 144.164 90.6341 143.084C91.9541 141.98 92.6141 140.432 92.6141 138.44C92.6141 136.4 91.9541 134.84 90.6341 133.76C89.3141 132.656 87.4061 132.104 84.9101 132.104H78.2141V144.704H84.9101ZM122.458 152.696V155H104.638V129.8H121.918V132.104H107.302V141.068H120.334V143.336H107.302V152.696H122.458ZM149.528 155L143.768 146.9C143.12 146.972 142.448 147.008 141.752 147.008H134.984V155H132.32V129.8H141.752C144.968 129.8 147.488 130.568 149.312 132.104C151.136 133.64 152.048 135.752 152.048 138.44C152.048 140.408 151.544 142.076 150.536 143.444C149.552 144.788 148.136 145.76 146.288 146.36L152.444 155H149.528ZM141.68 144.74C144.176 144.74 146.084 144.188 147.404 143.084C148.724 141.98 149.384 140.432 149.384 138.44C149.384 136.4 148.724 134.84 147.404 133.76C146.084 132.656 144.176 132.104 141.68 132.104H134.984V144.74H141.68ZM164.6 132.104V142.004H177.632V144.308H164.6V155H161.936V129.8H179.216V132.104H164.6ZM206.137 152.696V155H188.317V129.8H205.597V132.104H190.981V141.068H204.013V143.336H190.981V152.696H206.137ZM226.943 155.216C224.447 155.216 222.191 154.664 220.175 153.56C218.183 152.456 216.611 150.932 215.459 148.988C214.331 147.02 213.767 144.824 213.767 142.4C213.767 139.976 214.331 137.792 215.459 135.848C216.611 133.88 218.195 132.344 220.211 131.24C222.227 130.136 224.483 129.584 226.979 129.584C228.851 129.584 230.579 129.896 232.163 130.52C233.747 131.144 235.091 132.056 236.195 133.256L234.503 134.948C232.535 132.956 230.051 131.96 227.051 131.96C225.059 131.96 223.247 132.416 221.615 133.328C219.983 134.24 218.699 135.488 217.763 137.072C216.851 138.656 216.395 140.432 216.395 142.4C216.395 144.368 216.851 146.144 217.763 147.728C218.699 149.312 219.983 150.56 221.615 151.472C223.247 152.384 225.059 152.84 227.051 152.84C230.075 152.84 232.559 151.832 234.503 149.816L236.195 151.508C235.091 152.708 233.735 153.632 232.127 154.28C230.543 154.904 228.815 155.216 226.943 155.216ZM252.17 132.104H243.314V129.8H263.69V132.104H254.834V155H252.17V132.104Z" fill="#FACB66"/>
<path d="M23.104 129.8V126.8C21.4471 126.8 20.104 128.143 20.104 129.8H23.104ZM25.768 129.8H28.768C28.768 128.143 27.4249 126.8 25.768 126.8V129.8ZM25.768 155V158C27.4249 158 28.768 156.657 28.768 155H25.768ZM23.104 155H20.104C20.104 156.657 21.4471 158 23.104 158V155ZM23.104 132.8H25.768V126.8H23.104V132.8ZM22.768 129.8V155H28.768V129.8H22.768ZM25.768 152H23.104V158H25.768V152ZM26.104 155V129.8H20.104V155H26.104ZM63.7393 129.8H66.7393C66.7393 128.143 65.3961 126.8 63.7393 126.8V129.8ZM63.7393 155V158C65.3961 158 66.7393 156.657 66.7393 155H63.7393ZM61.1833 155H58.1833C58.1833 156.657 59.5264 158 61.1833 158V155ZM61.1833 134.84H64.1833C64.1833 133.485 63.2749 132.298 61.9668 131.944C60.6587 131.59 59.2758 132.157 58.5925 133.327L61.1833 134.84ZM51.2833 151.796V154.796C52.3499 154.796 53.3362 154.23 53.874 153.309L51.2833 151.796ZM50.0233 151.796L47.4368 153.316C47.9756 154.233 48.9597 154.796 50.0233 154.796V151.796ZM40.1233 134.948L42.7098 133.428C42.0241 132.261 40.6418 131.698 39.3357 132.053C38.0297 132.409 37.1233 133.594 37.1233 134.948H40.1233ZM40.1233 155V158C41.7801 158 43.1233 156.657 43.1233 155H40.1233ZM37.5673 155H34.5673C34.5673 156.657 35.9104 158 37.5673 158V155ZM37.5673 129.8V126.8C35.9104 126.8 34.5673 128.143 34.5673 129.8H37.5673ZM39.7633 129.8L42.3519 128.284C41.8136 127.365 40.8284 126.8 39.7633 126.8V129.8ZM50.7073 148.484L48.1187 150C48.6581 150.921 49.6464 151.486 50.7138 151.484C51.7811 151.482 52.7669 150.912 53.3024 149.989L50.7073 148.484ZM61.5433 129.8V126.8C60.4736 126.8 59.4848 127.37 58.9481 128.295L61.5433 129.8ZM60.7393 129.8V155H66.7393V129.8H60.7393ZM63.7393 152H61.1833V158H63.7393V152ZM64.1833 155V134.84H58.1833V155H64.1833ZM58.5925 133.327L48.6925 150.283L53.874 153.309L63.774 136.353L58.5925 133.327ZM51.2833 148.796H50.0233V154.796H51.2833V148.796ZM52.6098 150.276L42.7098 133.428L37.5368 136.468L47.4368 153.316L52.6098 150.276ZM37.1233 134.948V155H43.1233V134.948H37.1233ZM40.1233 152H37.5673V158H40.1233V152ZM40.5673 155V129.8H34.5673V155H40.5673ZM37.5673 132.8H39.7633V126.8H37.5673V132.8ZM37.1747 131.316L48.1187 150L53.2959 146.968L42.3519 128.284L37.1747 131.316ZM53.3024 149.989L64.1384 131.305L58.9481 128.295L48.1121 146.979L53.3024 149.989ZM61.5433 132.8H63.7393V126.8H61.5433V132.8ZM92.5421 132.104L90.6097 134.399L92.5421 132.104ZM92.5421 144.776L94.4567 147.086C94.4626 147.081 94.4686 147.076 94.4745 147.071L92.5421 144.776ZM78.2141 147.044V144.044C76.5572 144.044 75.2141 145.387 75.2141 147.044H78.2141ZM78.2141 155V158C79.8709 158 81.2141 156.657 81.2141 155H78.2141ZM75.5501 155H72.5501C72.5501 156.657 73.8932 158 75.5501 158V155ZM75.5501 129.8V126.8C73.8932 126.8 72.5501 128.143 72.5501 129.8H75.5501ZM90.6341 143.084L92.5338 145.406C92.5422 145.399 92.5505 145.392 92.5588 145.385L90.6341 143.084ZM90.6341 133.76L88.7094 136.061C88.7177 136.068 88.726 136.075 88.7344 136.082L90.6341 133.76ZM78.2141 132.104V129.104C76.5572 129.104 75.2141 130.447 75.2141 132.104H78.2141ZM78.2141 144.704H75.2141C75.2141 146.361 76.5572 147.704 78.2141 147.704V144.704ZM84.9821 132.8C87.7384 132.8 89.4897 133.456 90.6097 134.399L94.4745 129.809C91.9465 127.68 88.6578 126.8 84.9821 126.8V132.8ZM90.6097 134.399C91.6657 135.288 92.2781 136.511 92.2781 138.44H98.2781C98.2781 134.993 97.0665 131.992 94.4745 129.809L90.6097 134.399ZM92.2781 138.44C92.2781 140.369 91.6657 141.592 90.6097 142.481L94.4745 147.071C97.0665 144.888 98.2781 141.887 98.2781 138.44H92.2781ZM90.6275 142.466C89.5069 143.395 87.7487 144.044 84.9821 144.044V150.044C88.6475 150.044 91.9293 149.181 94.4567 147.086L90.6275 142.466ZM84.9821 144.044H78.2141V150.044H84.9821V144.044ZM75.2141 147.044V155H81.2141V147.044H75.2141ZM78.2141 152H75.5501V158H78.2141V152ZM78.5501 155V129.8H72.5501V155H78.5501ZM75.5501 132.8H84.9821V126.8H75.5501V132.8ZM84.9101 147.704C87.7873 147.704 90.4782 147.088 92.5338 145.406L88.7344 140.762C88.1499 141.24 87.0249 141.704 84.9101 141.704V147.704ZM92.5588 145.385C94.6716 143.618 95.6141 141.164 95.6141 138.44H89.6141C89.6141 139.7 89.2366 140.342 88.7094 140.783L92.5588 145.385ZM95.6141 138.44C95.6141 135.696 94.6886 133.201 92.5338 131.438L88.7344 136.082C89.2196 136.479 89.6141 137.104 89.6141 138.44H95.6141ZM92.5588 131.459C90.5016 129.738 87.8003 129.104 84.9101 129.104V135.104C87.0118 135.104 88.1266 135.574 88.7094 136.061L92.5588 131.459ZM84.9101 129.104H78.2141V135.104H84.9101V129.104ZM75.2141 132.104V144.704H81.2141V132.104H75.2141ZM78.2141 147.704H84.9101V141.704H78.2141V147.704ZM122.458 152.696H125.458C125.458 151.039 124.115 149.696 122.458 149.696V152.696ZM122.458 155V158C124.115 158 125.458 156.657 125.458 155H122.458ZM104.638 155H101.638C101.638 156.657 102.982 158 104.638 158V155ZM104.638 129.8V126.8C102.982 126.8 101.638 128.143 101.638 129.8H104.638ZM121.918 129.8H124.918C124.918 128.143 123.575 126.8 121.918 126.8V129.8ZM121.918 132.104V135.104C123.575 135.104 124.918 133.761 124.918 132.104H121.918ZM107.302 132.104V129.104C105.646 129.104 104.302 130.447 104.302 132.104H107.302ZM107.302 141.068H104.302C104.302 142.725 105.646 144.068 107.302 144.068V141.068ZM120.334 141.068H123.334C123.334 139.411 121.991 138.068 120.334 138.068V141.068ZM120.334 143.336V146.336C121.991 146.336 123.334 144.993 123.334 143.336H120.334ZM107.302 143.336V140.336C105.646 140.336 104.302 141.679 104.302 143.336H107.302ZM107.302 152.696H104.302C104.302 154.353 105.646 155.696 107.302 155.696V152.696ZM119.458 152.696V155H125.458V152.696H119.458ZM122.458 152H104.638V158H122.458V152ZM107.638 155V129.8H101.638V155H107.638ZM104.638 132.8H121.918V126.8H104.638V132.8ZM118.918 129.8V132.104H124.918V129.8H118.918ZM121.918 129.104H107.302V135.104H121.918V129.104ZM104.302 132.104V141.068H110.302V132.104H104.302ZM107.302 144.068H120.334V138.068H107.302V144.068ZM117.334 141.068V143.336H123.334V141.068H117.334ZM120.334 140.336H107.302V146.336H120.334V140.336ZM104.302 143.336V152.696H110.302V143.336H104.302ZM107.302 155.696H122.458V149.696H107.302V155.696ZM149.528 155L147.084 156.739C147.646 157.53 148.557 158 149.528 158V155ZM143.768 146.9L146.213 145.161C145.582 144.274 144.52 143.798 143.437 143.918L143.768 146.9ZM134.984 147.008V144.008C133.328 144.008 131.984 145.351 131.984 147.008H134.984ZM134.984 155V158C136.641 158 137.984 156.657 137.984 155H134.984ZM132.32 155H129.32C129.32 156.657 130.664 158 132.32 158V155ZM132.32 129.8V126.8C130.664 126.8 129.32 128.143 129.32 129.8H132.32ZM149.312 132.104L147.38 134.399L149.312 132.104ZM150.536 143.444L148.121 141.664L148.116 141.672L150.536 143.444ZM146.288 146.36L145.362 143.507C144.453 143.802 143.739 144.512 143.44 145.419C143.14 146.327 143.291 147.323 143.845 148.101L146.288 146.36ZM152.444 155V158C153.568 158 154.597 157.373 155.111 156.374C155.626 155.376 155.539 154.174 154.888 153.259L152.444 155ZM147.404 143.084L149.329 145.385L147.404 143.084ZM147.404 133.76L145.48 136.061C145.488 136.068 145.496 136.075 145.505 136.082L147.404 133.76ZM134.984 132.104V129.104C133.328 129.104 131.984 130.447 131.984 132.104H134.984ZM134.984 144.74H131.984C131.984 146.397 133.328 147.74 134.984 147.74V144.74ZM151.973 153.261L146.213 145.161L141.324 148.639L147.084 156.739L151.973 153.261ZM143.437 143.918C142.906 143.977 142.345 144.008 141.752 144.008V150.008C142.552 150.008 143.335 149.967 144.1 149.882L143.437 143.918ZM141.752 144.008H134.984V150.008H141.752V144.008ZM131.984 147.008V155H137.984V147.008H131.984ZM134.984 152H132.32V158H134.984V152ZM135.32 155V129.8H129.32V155H135.32ZM132.32 132.8H141.752V126.8H132.32V132.8ZM141.752 132.8C144.509 132.8 146.26 133.456 147.38 134.399L151.245 129.809C148.717 127.68 145.428 126.8 141.752 126.8V132.8ZM147.38 134.399C148.436 135.288 149.048 136.511 149.048 138.44H155.048C155.048 134.993 153.837 131.992 151.245 129.809L147.38 134.399ZM149.048 138.44C149.048 139.873 148.691 140.891 148.121 141.664L152.952 145.224C154.397 143.261 155.048 140.943 155.048 138.44H149.048ZM148.116 141.672C147.563 142.427 146.714 143.068 145.362 143.507L147.215 149.213C149.559 148.452 151.542 147.149 152.957 145.216L148.116 141.672ZM143.845 148.101L150.001 156.741L154.888 153.259L148.732 144.619L143.845 148.101ZM152.444 152H149.528V158H152.444V152ZM141.68 147.74C144.571 147.74 147.272 147.106 149.329 145.385L145.48 140.783C144.897 141.27 143.782 141.74 141.68 141.74V147.74ZM149.329 145.385C151.442 143.618 152.384 141.164 152.384 138.44H146.384C146.384 139.7 146.007 140.342 145.48 140.783L149.329 145.385ZM152.384 138.44C152.384 135.696 151.459 133.201 149.304 131.438L145.505 136.082C145.99 136.479 146.384 137.104 146.384 138.44H152.384ZM149.329 131.459C147.272 129.738 144.571 129.104 141.68 129.104V135.104C143.782 135.104 144.897 135.574 145.48 136.061L149.329 131.459ZM141.68 129.104H134.984V135.104H141.68V129.104ZM131.984 132.104V144.74H137.984V132.104H131.984ZM134.984 147.74H141.68V141.74H134.984V147.74ZM164.6 132.104V129.104C162.943 129.104 161.6 130.447 161.6 132.104H164.6ZM164.6 142.004H161.6C161.6 143.661 162.943 145.004 164.6 145.004V142.004ZM177.632 142.004H180.632C180.632 140.347 179.289 139.004 177.632 139.004V142.004ZM177.632 144.308V147.308C179.289 147.308 180.632 145.965 180.632 144.308H177.632ZM164.6 144.308V141.308C162.943 141.308 161.6 142.651 161.6 144.308H164.6ZM164.6 155V158C166.257 158 167.6 156.657 167.6 155H164.6ZM161.936 155H158.936C158.936 156.657 160.279 158 161.936 158V155ZM161.936 129.8V126.8C160.279 126.8 158.936 128.143 158.936 129.8H161.936ZM179.216 129.8H182.216C182.216 128.143 180.873 126.8 179.216 126.8V129.8ZM179.216 132.104V135.104C180.873 135.104 182.216 133.761 182.216 132.104H179.216ZM161.6 132.104V142.004H167.6V132.104H161.6ZM164.6 145.004H177.632V139.004H164.6V145.004ZM174.632 142.004V144.308H180.632V142.004H174.632ZM177.632 141.308H164.6V147.308H177.632V141.308ZM161.6 144.308V155H167.6V144.308H161.6ZM164.6 152H161.936V158H164.6V152ZM164.936 155V129.8H158.936V155H164.936ZM161.936 132.8H179.216V126.8H161.936V132.8ZM176.216 129.8V132.104H182.216V129.8H176.216ZM179.216 129.104H164.6V135.104H179.216V129.104ZM206.137 152.696H209.137C209.137 151.039 207.794 149.696 206.137 149.696V152.696ZM206.137 155V158C207.794 158 209.137 156.657 209.137 155H206.137ZM188.317 155H185.317C185.317 156.657 186.66 158 188.317 158V155ZM188.317 129.8V126.8C186.66 126.8 185.317 128.143 185.317 129.8H188.317ZM205.597 129.8H208.597C208.597 128.143 207.254 126.8 205.597 126.8V129.8ZM205.597 132.104V135.104C207.254 135.104 208.597 133.761 208.597 132.104H205.597ZM190.981 132.104V129.104C189.324 129.104 187.981 130.447 187.981 132.104H190.981ZM190.981 141.068H187.981C187.981 142.725 189.324 144.068 190.981 144.068V141.068ZM204.013 141.068H207.013C207.013 139.411 205.67 138.068 204.013 138.068V141.068ZM204.013 143.336V146.336C205.67 146.336 207.013 144.993 207.013 143.336H204.013ZM190.981 143.336V140.336C189.324 140.336 187.981 141.679 187.981 143.336H190.981ZM190.981 152.696H187.981C187.981 154.353 189.324 155.696 190.981 155.696V152.696ZM203.137 152.696V155H209.137V152.696H203.137ZM206.137 152H188.317V158H206.137V152ZM191.317 155V129.8H185.317V155H191.317ZM188.317 132.8H205.597V126.8H188.317V132.8ZM202.597 129.8V132.104H208.597V129.8H202.597ZM205.597 129.104H190.981V135.104H205.597V129.104ZM187.981 132.104V141.068H193.981V132.104H187.981ZM190.981 144.068H204.013V138.068H190.981V144.068ZM201.013 141.068V143.336H207.013V141.068H201.013ZM204.013 140.336H190.981V146.336H204.013V140.336ZM187.981 143.336V152.696H193.981V143.336H187.981ZM190.981 155.696H206.137V149.696H190.981V155.696ZM220.175 153.56L218.721 156.184C218.725 156.186 218.73 156.189 218.734 156.191L220.175 153.56ZM215.459 148.988L212.857 150.48C212.864 150.492 212.871 150.505 212.878 150.517L215.459 148.988ZM215.459 135.848L212.87 134.332L212.865 134.342L215.459 135.848ZM220.211 131.24L218.77 128.609L220.211 131.24ZM232.163 130.52L231.064 133.311L232.163 130.52ZM236.195 133.256L238.317 135.377C239.454 134.24 239.492 132.408 238.403 131.225L236.195 133.256ZM234.503 134.948L232.369 137.056C232.931 137.625 233.695 137.946 234.494 137.948C235.293 137.95 236.06 137.634 236.625 137.069L234.503 134.948ZM221.615 133.328L220.152 130.709L221.615 133.328ZM217.763 137.072L215.181 135.546C215.175 135.556 215.169 135.565 215.163 135.575L217.763 137.072ZM217.763 147.728L215.163 149.225C215.169 149.235 215.175 149.244 215.181 149.254L217.763 147.728ZM221.615 151.472L220.152 154.091L221.615 151.472ZM234.503 149.816L236.625 147.695C236.055 147.125 235.281 146.809 234.476 146.816C233.671 146.823 232.903 147.154 232.344 147.734L234.503 149.816ZM236.195 151.508L238.403 153.539C239.492 152.356 239.454 150.524 238.317 149.387L236.195 151.508ZM232.127 154.28L233.227 157.071C233.234 157.068 233.241 157.065 233.249 157.063L232.127 154.28ZM226.943 152.216C224.907 152.216 223.153 151.77 221.616 150.929L218.734 156.191C221.23 157.558 223.988 158.216 226.943 158.216V152.216ZM221.63 150.936C220.1 150.088 218.918 148.94 218.04 147.459L212.878 150.517C214.304 152.924 216.267 154.824 218.721 156.184L221.63 150.936ZM218.062 147.496C217.212 146.013 216.767 144.338 216.767 142.4H210.767C210.767 145.31 211.45 148.027 212.857 150.48L218.062 147.496ZM216.767 142.4C216.767 140.462 217.212 138.805 218.054 137.354L212.865 134.342C211.45 136.779 210.767 139.49 210.767 142.4H216.767ZM218.048 137.364C218.923 135.869 220.109 134.716 221.652 133.871L218.77 128.609C216.282 129.972 214.299 131.891 212.87 134.332L218.048 137.364ZM221.652 133.871C223.189 133.03 224.943 132.584 226.979 132.584V126.584C224.024 126.584 221.266 127.242 218.77 128.609L221.652 133.871ZM226.979 132.584C228.512 132.584 229.863 132.838 231.064 133.311L233.263 127.729C231.295 126.954 229.19 126.584 226.979 126.584V132.584ZM231.064 133.311C232.245 133.776 233.204 134.436 233.988 135.287L238.403 131.225C236.978 129.676 235.25 128.512 233.263 127.729L231.064 133.311ZM234.074 131.135L232.382 132.827L236.625 137.069L238.317 135.377L234.074 131.135ZM236.637 132.84C234.063 130.233 230.79 128.96 227.051 128.96V134.96C229.313 134.96 231.008 135.679 232.369 137.056L236.637 132.84ZM227.051 128.96C224.582 128.96 222.26 129.531 220.152 130.709L223.079 135.947C224.234 135.301 225.537 134.96 227.051 134.96V128.96ZM220.152 130.709C218.065 131.876 216.391 133.497 215.181 135.546L220.346 138.598C221.008 137.479 221.902 136.604 223.079 135.947L220.152 130.709ZM215.163 135.575C213.969 137.649 213.395 139.948 213.395 142.4H219.395C219.395 140.916 219.733 139.663 220.363 138.569L215.163 135.575ZM213.395 142.4C213.395 144.852 213.969 147.151 215.163 149.225L220.363 146.231C219.733 145.137 219.395 143.884 219.395 142.4H213.395ZM215.181 149.254C216.391 151.303 218.065 152.924 220.152 154.091L223.079 148.853C221.902 148.196 221.008 147.321 220.346 146.202L215.181 149.254ZM220.152 154.091C222.26 155.269 224.582 155.84 227.051 155.84V149.84C225.537 149.84 224.234 149.499 223.079 148.853L220.152 154.091ZM227.051 155.84C230.818 155.84 234.105 154.551 236.663 151.898L232.344 147.734C231.013 149.113 229.333 149.84 227.051 149.84V155.84ZM232.382 151.937L234.074 153.629L238.317 149.387L236.625 147.695L232.382 151.937ZM233.988 149.477C233.204 150.328 232.227 151.005 231.006 151.497L233.249 157.063C235.243 156.259 236.978 155.088 238.403 153.539L233.988 149.477ZM231.028 151.489C229.827 151.962 228.476 152.216 226.943 152.216V158.216C229.154 158.216 231.259 157.846 233.227 157.071L231.028 151.489ZM252.17 132.104H255.17C255.17 130.447 253.827 129.104 252.17 129.104V132.104ZM243.314 132.104H240.314C240.314 133.761 241.657 135.104 243.314 135.104V132.104ZM243.314 129.8V126.8C241.657 126.8 240.314 128.143 240.314 129.8H243.314ZM263.69 129.8H266.69C266.69 128.143 265.347 126.8 263.69 126.8V129.8ZM263.69 132.104V135.104C265.347 135.104 266.69 133.761 266.69 132.104H263.69ZM254.834 132.104V129.104C253.177 129.104 251.834 130.447 251.834 132.104H254.834ZM254.834 155V158C256.491 158 257.834 156.657 257.834 155H254.834ZM252.17 155H249.17C249.17 156.657 250.513 158 252.17 158V155ZM252.17 129.104H243.314V135.104H252.17V129.104ZM246.314 132.104V129.8H240.314V132.104H246.314ZM243.314 132.8H263.69V126.8H243.314V132.8ZM260.69 129.8V132.104H266.69V129.8H260.69ZM263.69 129.104H254.834V135.104H263.69V129.104ZM251.834 132.104V155H257.834V132.104H251.834ZM254.834 152H252.17V158H254.834V152ZM255.17 155V132.104H249.17V155H255.17Z" fill="#FACB66"/>
<path d="M24.28 104.38H19.08V104H29.88V104.38H24.68V118H24.28V104.38ZM45.617 104V118H45.217V111.08H35.017V118H34.617V104H35.017V110.7H45.217V104H45.617ZM62.2652 117.62V118H52.9452V104H61.9652V104.38H53.3452V110.7H61.0652V111.08H53.3452V117.62H62.2652Z" fill="#FACB66"/>
<path d="M24.28 104.38H26.28C26.28 103.275 25.3846 102.38 24.28 102.38V104.38ZM19.08 104.38H17.08C17.08 105.485 17.9754 106.38 19.08 106.38V104.38ZM19.08 104V102C17.9754 102 17.08 102.895 17.08 104H19.08ZM29.88 104H31.88C31.88 102.895 30.9846 102 29.88 102V104ZM29.88 104.38V106.38C30.9846 106.38 31.88 105.485 31.88 104.38H29.88ZM24.68 104.38V102.38C23.5754 102.38 22.68 103.275 22.68 104.38H24.68ZM24.68 118V120C25.7846 120 26.68 119.105 26.68 118H24.68ZM24.28 118H22.28C22.28 119.105 23.1754 120 24.28 120V118ZM24.28 102.38H19.08V106.38H24.28V102.38ZM21.08 104.38V104H17.08V104.38H21.08ZM19.08 106H29.88V102H19.08V106ZM27.88 104V104.38H31.88V104H27.88ZM29.88 102.38H24.68V106.38H29.88V102.38ZM22.68 104.38V118H26.68V104.38H22.68ZM24.68 116H24.28V120H24.68V116ZM26.28 118V104.38H22.28V118H26.28ZM45.617 104H47.617C47.617 102.895 46.7216 102 45.617 102V104ZM45.617 118V120C46.7216 120 47.617 119.105 47.617 118H45.617ZM45.217 118H43.217C43.217 119.105 44.1125 120 45.217 120V118ZM45.217 111.08H47.217C47.217 109.975 46.3216 109.08 45.217 109.08V111.08ZM35.017 111.08V109.08C33.9125 109.08 33.017 109.975 33.017 111.08H35.017ZM35.017 118V120C36.1216 120 37.017 119.105 37.017 118H35.017ZM34.617 118H32.617C32.617 119.105 33.5125 120 34.617 120V118ZM34.617 104V102C33.5125 102 32.617 102.895 32.617 104H34.617ZM35.017 104H37.017C37.017 102.895 36.1216 102 35.017 102V104ZM35.017 110.7H33.017C33.017 111.805 33.9125 112.7 35.017 112.7V110.7ZM45.217 110.7V112.7C46.3216 112.7 47.217 111.805 47.217 110.7H45.217ZM45.217 104V102C44.1125 102 43.217 102.895 43.217 104H45.217ZM43.617 104V118H47.617V104H43.617ZM45.617 116H45.217V120H45.617V116ZM47.217 118V111.08H43.217V118H47.217ZM45.217 109.08H35.017V113.08H45.217V109.08ZM33.017 111.08V118H37.017V111.08H33.017ZM35.017 116H34.617V120H35.017V116ZM36.617 118V104H32.617V118H36.617ZM34.617 106H35.017V102H34.617V106ZM33.017 104V110.7H37.017V104H33.017ZM35.017 112.7H45.217V108.7H35.017V112.7ZM47.217 110.7V104H43.217V110.7H47.217ZM45.217 106H45.617V102H45.217V106ZM62.2652 117.62H64.2652C64.2652 116.515 63.3697 115.62 62.2652 115.62V117.62ZM62.2652 118V120C63.3697 120 64.2652 119.105 64.2652 118H62.2652ZM52.9452 118H50.9452C50.9452 119.105 51.8406 120 52.9452 120V118ZM52.9452 104V102C51.8406 102 50.9452 102.895 50.9452 104H52.9452ZM61.9652 104H63.9652C63.9652 102.895 63.0697 102 61.9652 102V104ZM61.9652 104.38V106.38C63.0697 106.38 63.9652 105.485 63.9652 104.38H61.9652ZM53.3452 104.38V102.38C52.2406 102.38 51.3452 103.275 51.3452 104.38H53.3452ZM53.3452 110.7H51.3452C51.3452 111.805 52.2406 112.7 53.3452 112.7V110.7ZM61.0652 110.7H63.0652C63.0652 109.595 62.1697 108.7 61.0652 108.7V110.7ZM61.0652 111.08V113.08C62.1697 113.08 63.0652 112.185 63.0652 111.08H61.0652ZM53.3452 111.08V109.08C52.2406 109.08 51.3452 109.975 51.3452 111.08H53.3452ZM53.3452 117.62H51.3452C51.3452 118.725 52.2406 119.62 53.3452 119.62V117.62ZM60.2652 117.62V118H64.2652V117.62H60.2652ZM62.2652 116H52.9452V120H62.2652V116ZM54.9452 118V104H50.9452V118H54.9452ZM52.9452 106H61.9652V102H52.9452V106ZM59.9652 104V104.38H63.9652V104H59.9652ZM61.9652 102.38H53.3452V106.38H61.9652V102.38ZM51.3452 104.38V110.7H55.3452V104.38H51.3452ZM53.3452 112.7H61.0652V108.7H53.3452V112.7ZM59.0652 110.7V111.08H63.0652V110.7H59.0652ZM61.0652 109.08H53.3452V113.08H61.0652V109.08ZM51.3452 111.08V117.62H55.3452V111.08H51.3452ZM53.3452 119.62H62.2652V115.62H53.3452V119.62Z" fill="#FACB66"/>
<path d="M0 136.565C9.46667 139.821 32.0667 145.255 51 146.186C69.9333 147.152 84.5 143.5 124.5 142C164.5 140.5 174 146.186 217.5 146.186C261 146.186 284 131.252 284 131.252V322.609H274.533C265.067 322.609 246.133 322.609 227.2 322.609C208.267 322.609 189.333 322.609 170.4 322.609C151.467 322.609 132.533 322.609 113.6 322.609C94.6667 322.609 75.7333 322.609 56.8 322.609C37.8667 322.609 18.9333 322.609 9.46667 322.609H0V136.565Z" fill="#FACB66"/>
<path d="M0 186.402L9.46667 185.043C18.9333 183.647 37.8667 180.928 56.8 180.964C75.7333 181.036 94.6667 183.898 113.6 185.687C132.533 187.476 151.467 188.191 170.4 189.801C189.333 191.411 208.267 193.916 227.2 190.767C246.133 187.583 265.067 178.782 274.533 174.345L284 169.944V288.727H274.533C265.067 288.727 246.133 288.727 227.2 288.727C208.267 288.727 189.333 288.727 170.4 288.727C151.467 288.727 132.533 288.727 113.6 288.727C94.6667 288.727 75.7333 288.727 56.8 288.727C37.8667 288.727 18.9333 288.727 9.46667 288.727H0V186.402Z" fill="#F5BC51"/>
<path d="M0 238.192L9.46667 231.931C18.9333 225.67 37.8667 213.147 56.8 210.929C75.7333 208.747 94.6667 216.833 113.6 218.693C132.533 220.553 151.467 216.117 170.4 212.79C189.333 209.462 208.267 207.173 227.2 210.75C246.133 214.328 265.067 223.773 274.533 228.46L284 233.183V305.096H274.533C265.067 305.096 246.133 305.096 227.2 305.096C208.267 305.096 189.333 305.096 170.4 305.096C151.467 305.096 132.533 305.096 113.6 305.096C94.6667 305.096 75.7333 305.096 56.8 305.096C37.8667 305.096 18.9333 305.096 9.46667 305.096H0V238.192Z" fill="#F1AD3B"/>
<path d="M0 267.618L9.46667 265.936C18.9333 264.29 37.8667 246.362 56.8 243.5C75.7333 240.638 92.5 256 113.6 256.5C134.7 257 151.467 239.461 170.4 237.922C189.333 236.384 208.267 238.745 227.2 239.246C246.133 239.711 265.067 238.28 274.533 237.564L284 236.849V322.358H274.533C265.067 322.358 246.133 322.358 227.2 322.358C208.267 322.358 189.333 322.358 170.4 322.358C151.467 322.358 132.533 322.358 113.6 322.358C94.6667 322.358 75.7333 322.358 56.8 322.358C37.8667 322.358 18.9333 322.358 9.46667 322.358H0V267.618Z" fill="#ED9D24"/>
<path d="M0 286.938L9.46667 285.042C18.9333 283.11 37.8667 279.317 56.8 279.854C75.7333 280.39 94.6667 285.256 113.6 288.905C132.533 292.555 151.467 294.916 170.4 295.167C189.333 295.417 208.267 293.485 227.2 291.947C246.133 290.408 265.067 289.192 274.533 288.619L284 288.011V322.358H274.533C265.067 322.358 246.133 322.358 227.2 322.358C208.267 322.358 189.333 322.358 170.4 322.358C151.467 322.358 132.533 322.358 113.6 322.358C94.6667 322.358 75.7333 322.358 56.8 322.358C37.8667 322.358 18.9333 322.358 9.46667 322.358H0V286.938Z" fill="#E98D00"/>
<g style="mix-blend-mode:soft-light">
<path d="M20 188H264" stroke="white"/>
</g>
<path d="M58.0382 198.2V196.2C56.9336 196.2 56.0382 197.095 56.0382 198.2H58.0382ZM59.2622 198.2H61.2622C61.2622 197.095 60.3667 196.2 59.2622 196.2V198.2ZM59.2622 213.896H57.2622C57.2622 215.001 58.1576 215.896 59.2622 215.896V213.896ZM68.9342 213.896H70.9342C70.9342 212.791 70.0387 211.896 68.9342 211.896V213.896ZM68.9342 215V217C70.0387 217 70.9342 216.105 70.9342 215H68.9342ZM58.0382 215H56.0382C56.0382 216.105 56.9336 217 58.0382 217V215ZM58.0382 200.2H59.2622V196.2H58.0382V200.2ZM57.2622 198.2V213.896H61.2622V198.2H57.2622ZM59.2622 215.896H68.9342V211.896H59.2622V215.896ZM66.9342 213.896V215H70.9342V213.896H66.9342ZM68.9342 213H58.0382V217H68.9342V213ZM60.0382 215V198.2H56.0382V215H60.0382ZM80.4772 198.2V196.2C79.3726 196.2 78.4772 197.095 78.4772 198.2H80.4772ZM81.7012 198.2H83.7012C83.7012 197.095 82.8058 196.2 81.7012 196.2V198.2ZM81.7012 215V217C82.8058 217 83.7012 216.105 83.7012 215H81.7012ZM80.4772 215H78.4772C78.4772 216.105 79.3726 217 80.4772 217V215ZM80.4772 200.2H81.7012V196.2H80.4772V200.2ZM79.7012 198.2V215H83.7012V198.2H79.7012ZM81.7012 213H80.4772V217H81.7012V213ZM82.4772 215V198.2H78.4772V215H82.4772ZM105.843 215L103.843 215.003C103.845 216.107 104.74 217 105.843 217V215ZM105.819 200.624L107.819 200.621C107.818 199.717 107.21 198.926 106.337 198.692C105.463 198.458 104.542 198.839 104.089 199.622L105.819 200.624ZM98.7873 212.768V214.768C99.501 214.768 100.161 214.388 100.518 213.77L98.7873 212.768ZM98.1873 212.768L96.4583 213.773C96.8163 214.389 97.4749 214.768 98.1873 214.768V212.768ZM91.1553 200.672L92.8844 199.667C92.43 198.885 91.5078 198.506 90.6348 198.741C89.7619 198.976 89.1553 199.768 89.1553 200.672H91.1553ZM91.1553 215V217C92.2599 217 93.1553 216.105 93.1553 215H91.1553ZM89.9553 215H87.9553C87.9553 216.105 88.8508 217 89.9553 217V215ZM89.9553 198.2V196.2C88.8508 196.2 87.9553 197.095 87.9553 198.2H89.9553ZM90.9873 198.2L92.7185 197.198C92.361 196.581 91.7012 196.2 90.9873 196.2V198.2ZM98.4993 211.184L96.7682 212.186C97.1257 212.803 97.7855 213.184 98.4993 213.184C99.2132 213.184 99.873 212.803 100.23 212.186L98.4993 211.184ZM106.011 198.2V196.2C105.297 196.2 104.638 196.581 104.28 197.198L106.011 198.2ZM107.019 198.2L109.019 198.197C109.018 197.094 108.123 196.2 107.019 196.2V198.2ZM107.043 215V217C107.574 217 108.083 216.789 108.459 216.413C108.834 216.038 109.044 215.528 109.043 214.997L107.043 215ZM107.843 214.997L107.819 200.621L103.819 200.627L103.843 215.003L107.843 214.997ZM104.089 199.622L97.0566 211.766L100.518 213.77L107.55 201.626L104.089 199.622ZM98.7873 210.768H98.1873V214.768H98.7873V210.768ZM99.9164 211.763L92.8844 199.667L89.4263 201.677L96.4583 213.773L99.9164 211.763ZM89.1553 200.672V215H93.1553V200.672H89.1553ZM91.1553 213H89.9553V217H91.1553V213ZM91.9553 215V198.2H87.9553V215H91.9553ZM89.9553 200.2H90.9873V196.2H89.9553V200.2ZM89.2562 199.202L96.7682 212.186L100.23 210.182L92.7185 197.198L89.2562 199.202ZM100.23 212.186L107.742 199.202L104.28 197.198L96.7682 210.182L100.23 212.186ZM106.011 200.2H107.019V196.2H106.011V200.2ZM105.019 198.203L105.043 215.003L109.043 214.997L109.019 198.197L105.019 198.203ZM107.043 213H105.843V217H107.043V213ZM126.293 199.712L125.006 201.243C125.01 201.247 125.014 201.25 125.018 201.253L126.293 199.712ZM126.293 208.016L127.567 209.557C127.571 209.554 127.575 209.551 127.579 209.547L126.293 208.016ZM116.525 209.504V207.504C115.42 207.504 114.525 208.399 114.525 209.504H116.525ZM116.525 215V217C117.629 217 118.525 216.105 118.525 215H116.525ZM115.301 215H113.301C113.301 216.105 114.196 217 115.301 217V215ZM115.301 198.2V196.2C114.196 196.2 113.301 197.095 113.301 198.2H115.301ZM125.429 207.224L126.706 208.763L125.429 207.224ZM125.429 200.504L124.136 202.03C124.141 202.034 124.146 202.038 124.151 202.043L125.429 200.504ZM116.525 199.304V197.304C115.42 197.304 114.525 198.199 114.525 199.304H116.525ZM116.525 208.4H114.525C114.525 209.505 115.42 210.4 116.525 210.4V208.4ZM121.325 200.2C123.13 200.2 124.275 200.629 125.006 201.243L127.579 198.181C125.91 196.779 123.743 196.2 121.325 196.2V200.2ZM125.018 201.253C125.691 201.809 126.093 202.59 126.093 203.864H130.093C130.093 201.586 129.295 199.599 127.567 198.171L125.018 201.253ZM126.093 203.864C126.093 205.115 125.695 205.906 125.006 206.485L127.579 209.547C129.29 208.11 130.093 206.133 130.093 203.864H126.093ZM125.018 206.475C124.287 207.079 123.137 207.504 121.325 207.504V211.504C123.736 211.504 125.899 210.937 127.567 209.557L125.018 206.475ZM121.325 207.504H116.525V211.504H121.325V207.504ZM114.525 209.504V215H118.525V209.504H114.525ZM116.525 213H115.301V217H116.525V213ZM117.301 215V198.2H113.301V215H117.301ZM115.301 200.2H121.325V196.2H115.301V200.2ZM121.325 210.4C123.374 210.4 125.27 209.955 126.706 208.763L124.151 205.685C123.699 206.061 122.859 206.4 121.325 206.4V210.4ZM126.706 208.763C128.195 207.527 128.845 205.792 128.845 203.864H124.845C124.845 204.848 124.551 205.353 124.151 205.685L126.706 208.763ZM128.845 203.864C128.845 201.936 128.195 200.201 126.706 198.965L124.151 202.043C124.551 202.375 124.845 202.88 124.845 203.864H128.845ZM126.722 198.978C125.285 197.76 123.383 197.304 121.325 197.304V201.304C122.851 201.304 123.685 201.648 124.136 202.03L126.722 198.978ZM121.325 197.304H116.525V201.304H121.325V197.304ZM114.525 199.304V208.4H118.525V199.304H114.525ZM116.525 210.4H121.325V206.4H116.525V210.4ZM144.171 210.272L145.99 209.441C145.665 208.729 144.954 208.272 144.171 208.272V210.272ZM134.427 210.272V208.272C133.641 208.272 132.928 208.732 132.604 209.449L134.427 210.272ZM132.291 215V217C133.077 217 133.79 216.54 134.113 215.823L132.291 215ZM130.971 215L129.154 214.164C128.869 214.783 128.919 215.505 129.287 216.079C129.655 216.653 130.289 217 130.971 217V215ZM138.699 198.2V196.2C137.918 196.2 137.208 196.655 136.882 197.364L138.699 198.2ZM139.923 198.2L141.74 197.364C141.413 196.655 140.704 196.2 139.923 196.2V198.2ZM147.651 215V217C148.332 217 148.967 216.653 149.335 216.079C149.702 215.505 149.753 214.783 149.468 214.164L147.651 215ZM146.331 215L144.512 215.831C144.837 216.543 145.548 217 146.331 217V215ZM143.715 209.24V211.24C144.395 211.24 145.029 210.894 145.397 210.322C145.765 209.75 145.817 209.03 145.535 208.411L143.715 209.24ZM139.299 199.544L141.119 198.715C140.794 198.001 140.081 197.543 139.297 197.544C138.512 197.545 137.801 198.004 137.477 198.719L139.299 199.544ZM134.907 209.24L133.085 208.415C132.805 209.034 132.858 209.753 133.226 210.324C133.594 210.895 134.227 211.24 134.907 211.24V209.24ZM144.171 208.272H134.427V212.272H144.171V208.272ZM132.604 209.449L130.468 214.177L134.113 215.823L136.249 211.095L132.604 209.449ZM132.291 213H130.971V217H132.291V213ZM132.788 215.836L140.516 199.036L136.882 197.364L129.154 214.164L132.788 215.836ZM138.699 200.2H139.923V196.2H138.699V200.2ZM138.106 199.036L145.834 215.836L149.468 214.164L141.74 197.364L138.106 199.036ZM147.651 213H146.331V217H147.651V213ZM148.15 214.169L145.99 209.441L142.352 211.103L144.512 215.831L148.15 214.169ZM145.535 208.411L141.119 198.715L137.479 200.373L141.895 210.069L145.535 208.411ZM137.477 198.719L133.085 208.415L136.729 210.065L141.121 200.369L137.477 198.719ZM134.907 211.24H143.715V207.24H134.907V211.24ZM164.765 215L163.137 216.162C163.512 216.688 164.118 217 164.765 217V215ZM160.757 209.384L162.385 208.222C161.954 207.618 161.224 207.303 160.489 207.402L160.757 209.384ZM154.325 209.504V207.504C153.22 207.504 152.325 208.399 152.325 209.504H154.325ZM154.325 215V217C155.429 217 156.325 216.105 156.325 215H154.325ZM153.101 215H151.101C151.101 216.105 151.996 217 153.101 217V215ZM153.101 198.2V196.2C151.996 196.2 151.101 197.095 151.101 198.2H153.101ZM164.093 199.712L162.806 201.243C162.81 201.247 162.814 201.25 162.818 201.253L164.093 199.712ZM164.861 207.224L163.264 206.02L163.261 206.024L164.861 207.224ZM161.957 209.12L161.398 207.2C160.775 207.381 160.279 207.853 160.067 208.465C159.855 209.078 159.952 209.755 160.329 210.282L161.957 209.12ZM166.157 215V217C166.906 217 167.592 216.581 167.935 215.915C168.278 215.249 168.22 214.447 167.784 213.838L166.157 215ZM163.229 207.248L164.506 208.787C164.512 208.782 164.517 208.778 164.522 208.774L163.229 207.248ZM163.229 200.504L161.936 202.03C161.941 202.034 161.946 202.038 161.951 202.043L163.229 200.504ZM154.325 199.304V197.304C153.22 197.304 152.325 198.199 152.325 199.304H154.325ZM154.325 208.424H152.325C152.325 209.529 153.22 210.424 154.325 210.424V208.424ZM166.393 213.838L162.385 208.222L159.129 210.546L163.137 216.162L166.393 213.838ZM160.489 207.402C159.968 207.472 159.515 207.504 159.125 207.504V211.504C159.726 211.504 160.361 211.456 161.024 211.366L160.489 207.402ZM159.125 207.504H154.325V211.504H159.125V207.504ZM152.325 209.504V215H156.325V209.504H152.325ZM154.325 213H153.101V217H154.325V213ZM155.101 215V198.2H151.101V215H155.101ZM153.101 200.2H159.125V196.2H153.101V200.2ZM159.125 200.2C160.93 200.2 162.075 200.629 162.806 201.243L165.379 198.181C163.71 196.779 161.543 196.2 159.125 196.2V200.2ZM162.818 201.253C163.491 201.809 163.893 202.59 163.893 203.864H167.893C167.893 201.586 167.095 199.599 165.367 198.171L162.818 201.253ZM163.893 203.864C163.893 204.831 163.649 205.509 163.264 206.02L166.457 208.428C167.448 207.115 167.893 205.553 167.893 203.864H163.893ZM163.261 206.024C162.892 206.516 162.321 206.931 161.398 207.2L162.516 211.04C164.12 210.573 165.485 209.724 166.461 208.424L163.261 206.024ZM160.329 210.282L164.529 216.162L167.784 213.838L163.584 207.958L160.329 210.282ZM166.157 213H164.765V217H166.157V213ZM159.125 210.424C161.174 210.424 163.07 209.979 164.506 208.787L161.951 205.709C161.499 206.085 160.659 206.424 159.125 206.424V210.424ZM164.522 208.774C165.995 207.525 166.645 205.793 166.645 203.864H162.645C162.645 204.847 162.35 205.371 161.936 205.722L164.522 208.774ZM166.645 203.864C166.645 201.936 165.995 200.201 164.506 198.965L161.951 202.043C162.351 202.375 162.645 202.88 162.645 203.864H166.645ZM164.522 198.978C163.085 197.76 161.183 197.304 159.125 197.304V201.304C160.651 201.304 161.485 201.648 161.936 202.03L164.522 198.978ZM159.125 197.304H154.325V201.304H159.125V197.304ZM152.325 199.304V208.424H156.325V199.304H152.325ZM154.325 210.424H159.125V206.424H154.325V210.424ZM173.998 199.304V197.304C172.894 197.304 171.998 198.199 171.998 199.304H173.998ZM173.998 206.48H171.998C171.998 207.585 172.894 208.48 173.998 208.48V206.48ZM182.95 206.48H184.95C184.95 205.375 184.055 204.48 182.95 204.48V206.48ZM182.95 207.584V209.584C184.055 209.584 184.95 208.689 184.95 207.584H182.95ZM173.998 207.584V205.584C172.894 205.584 171.998 206.479 171.998 207.584H173.998ZM173.998 215V217C175.103 217 175.998 216.105 175.998 215H173.998ZM172.774 215H170.774C170.774 216.105 171.67 217 172.774 217V215ZM172.774 198.2V196.2C171.67 196.2 170.774 197.095 170.774 198.2H172.774ZM184.006 198.2H186.006C186.006 197.095 185.111 196.2 184.006 196.2V198.2ZM184.006 199.304V201.304C185.111 201.304 186.006 200.409 186.006 199.304H184.006ZM171.998 199.304V206.48H175.998V199.304H171.998ZM173.998 208.48H182.95V204.48H173.998V208.48ZM180.95 206.48V207.584H184.95V206.48H180.95ZM182.95 205.584H173.998V209.584H182.95V205.584ZM171.998 207.584V215H175.998V207.584H171.998ZM173.998 213H172.774V217H173.998V213ZM174.774 215V198.2H170.774V215H174.774ZM172.774 200.2H184.006V196.2H172.774V200.2ZM182.006 198.2V199.304H186.006V198.2H182.006ZM184.006 197.304H173.998V201.304H184.006V197.304ZM199.886 210.272L201.706 209.441C201.38 208.729 200.669 208.272 199.886 208.272V210.272ZM190.142 210.272V208.272C189.356 208.272 188.643 208.732 188.32 209.449L190.142 210.272ZM188.006 215V217C188.792 217 189.505 216.54 189.829 215.823L188.006 215ZM186.686 215L184.869 214.164C184.585 214.783 184.635 215.505 185.002 216.079C185.37 216.653 186.005 217 186.686 217V215ZM194.414 198.2V196.2C193.633 196.2 192.924 196.655 192.597 197.364L194.414 198.2ZM195.638 198.2L197.455 197.364C197.129 196.655 196.419 196.2 195.638 196.2V198.2ZM203.366 215V217C204.048 217 204.683 216.653 205.05 216.079C205.418 215.505 205.468 214.783 205.183 214.164L203.366 215ZM202.046 215L200.227 215.831C200.553 216.543 201.264 217 202.046 217V215ZM199.43 209.24V211.24C200.111 211.24 200.744 210.894 201.112 210.322C201.48 209.75 201.532 209.03 201.251 208.411L199.43 209.24ZM195.014 199.544L196.835 198.715C196.509 198.001 195.797 197.543 195.012 197.544C194.228 197.545 193.516 198.004 193.193 198.719L195.014 199.544ZM190.622 209.24L188.801 208.415C188.52 209.034 188.573 209.753 188.942 210.324C189.31 210.895 189.943 211.24 190.622 211.24V209.24ZM199.886 208.272H190.142V212.272H199.886V208.272ZM188.32 209.449L186.184 214.177L189.829 215.823L191.965 211.095L188.32 209.449ZM188.006 213H186.686V217H188.006V213ZM188.503 215.836L196.231 199.036L192.597 197.364L184.869 214.164L188.503 215.836ZM194.414 200.2H195.638V196.2H194.414V200.2ZM193.821 199.036L201.549 215.836L205.183 214.164L197.455 197.364L193.821 199.036ZM203.366 213H202.046V217H203.366V213ZM203.866 214.169L201.706 209.441L198.067 211.103L200.227 215.831L203.866 214.169ZM201.251 208.411L196.835 198.715L193.194 200.373L197.61 210.069L201.251 208.411ZM193.193 198.719L188.801 208.415L192.444 210.065L196.836 200.369L193.193 198.719ZM190.622 211.24H199.43V207.24H190.622V211.24ZM208.816 198.2V196.2C207.712 196.2 206.816 197.095 206.816 198.2H208.816ZM210.04 198.2H212.04C212.04 197.095 211.145 196.2 210.04 196.2V198.2ZM210.04 215V217C211.145 217 212.04 216.105 212.04 215H210.04ZM208.816 215H206.816C206.816 216.105 207.712 217 208.816 217V215ZM208.816 200.2H210.04V196.2H208.816V200.2ZM208.04 198.2V215H212.04V198.2H208.04ZM210.04 213H208.816V217H210.04V213ZM210.816 215V198.2H206.816V215H210.816ZM221.51 199.304H223.51C223.51 198.199 222.615 197.304 221.51 197.304V199.304ZM215.462 199.304H213.462C213.462 200.409 214.358 201.304 215.462 201.304V199.304ZM215.462 198.2V196.2C214.358 196.2 213.462 197.095 213.462 198.2H215.462ZM228.782 198.2H230.782C230.782 197.095 229.887 196.2 228.782 196.2V198.2ZM228.782 199.304V201.304C229.887 201.304 230.782 200.409 230.782 199.304H228.782ZM222.734 199.304V197.304C221.63 197.304 220.734 198.199 220.734 199.304H222.734ZM222.734 215V217C223.839 217 224.734 216.105 224.734 215H222.734ZM221.51 215H219.51C219.51 216.105 220.406 217 221.51 217V215ZM221.51 197.304H215.462V201.304H221.51V197.304ZM217.462 199.304V198.2H213.462V199.304H217.462ZM215.462 200.2H228.782V196.2H215.462V200.2ZM226.782 198.2V199.304H230.782V198.2H226.782ZM228.782 197.304H222.734V201.304H228.782V197.304ZM220.734 199.304V215H224.734V199.304H220.734ZM222.734 213H221.51V217H222.734V213ZM223.51 215V199.304H219.51V215H223.51Z" fill="white"/>
<path d="M73.125 200.875V198.125" stroke="white" stroke-width="3.75" stroke-linecap="round"/>
<mask id="mask0_139_275" style="mask-type:alpha" maskUnits="userSpaceOnUse" x="20" y="126" width="247" height="57">
<path d="M23.104 129.8V126.8C21.4471 126.8 20.104 128.143 20.104 129.8H23.104ZM25.768 129.8H28.768C28.768 128.143 27.4249 126.8 25.768 126.8V129.8ZM25.768 155V158C27.4249 158 28.768 156.657 28.768 155H25.768ZM23.104 155H20.104C20.104 156.657 21.4471 158 23.104 158V155ZM23.104 132.8H25.768V126.8H23.104V132.8ZM22.768 129.8V155H28.768V129.8H22.768ZM25.768 152H23.104V158H25.768V152ZM26.104 155V129.8H20.104V155H26.104ZM63.7393 129.8H66.7393C66.7393 128.143 65.3961 126.8 63.7393 126.8V129.8ZM63.7393 155V158C65.3961 158 66.7393 156.657 66.7393 155H63.7393ZM61.1833 155H58.1833C58.1833 156.657 59.5264 158 61.1833 158V155ZM61.1833 134.84H64.1833C64.1833 133.485 63.2749 132.298 61.9668 131.944C60.6587 131.59 59.2758 132.157 58.5925 133.327L61.1833 134.84ZM51.2833 151.796V154.796C52.3499 154.796 53.3362 154.23 53.874 153.309L51.2833 151.796ZM50.0233 151.796L47.4368 153.316C47.9756 154.233 48.9597 154.796 50.0233 154.796V151.796ZM40.1233 134.948L42.7098 133.428C42.0241 132.261 40.6418 131.698 39.3357 132.053C38.0297 132.409 37.1233 133.594 37.1233 134.948H40.1233ZM40.1233 155V158C41.7801 158 43.1233 156.657 43.1233 155H40.1233ZM37.5673 155H34.5673C34.5673 156.657 35.9104 158 37.5673 158V155ZM37.5673 129.8V126.8C35.9104 126.8 34.5673 128.143 34.5673 129.8H37.5673ZM39.7633 129.8L42.3519 128.284C41.8136 127.365 40.8284 126.8 39.7633 126.8V129.8ZM50.7073 148.484L48.1187 150C48.6581 150.921 49.6464 151.486 50.7138 151.484C51.7811 151.482 52.7669 150.912 53.3024 149.989L50.7073 148.484ZM61.5433 129.8V126.8C60.4736 126.8 59.4848 127.37 58.9481 128.295L61.5433 129.8ZM60.7393 129.8V155H66.7393V129.8H60.7393ZM63.7393 152H61.1833V158H63.7393V152ZM64.1833 155V134.84H58.1833V155H64.1833ZM58.5925 133.327L48.6925 150.283L53.874 153.309L63.774 136.353L58.5925 133.327ZM51.2833 148.796H50.0233V154.796H51.2833V148.796ZM52.6098 150.276L42.7098 133.428L37.5368 136.468L47.4368 153.316L52.6098 150.276ZM37.1233 134.948V155H43.1233V134.948H37.1233ZM40.1233 152H37.5673V158H40.1233V152ZM40.5673 155V129.8H34.5673V155H40.5673ZM37.5673 132.8H39.7633V126.8H37.5673V132.8ZM37.1747 131.316L48.1187 150L53.2959 146.968L42.3519 128.284L37.1747 131.316ZM53.3024 149.989L64.1384 131.305L58.9481 128.295L48.1121 146.979L53.3024 149.989ZM61.5433 132.8H63.7393V126.8H61.5433V132.8ZM92.5421 132.104L90.6097 134.399L92.5421 132.104ZM92.5421 144.776L94.4567 147.086C94.4626 147.081 94.4686 147.076 94.4745 147.071L92.5421 144.776ZM78.2141 147.044V144.044C76.5572 144.044 75.2141 145.387 75.2141 147.044H78.2141ZM78.2141 155V158C79.8709 158 81.2141 156.657 81.2141 155H78.2141ZM75.5501 155H72.5501C72.5501 156.657 73.8932 158 75.5501 158V155ZM75.5501 129.8V126.8C73.8932 126.8 72.5501 128.143 72.5501 129.8H75.5501ZM90.6341 143.084L92.5338 145.406C92.5422 145.399 92.5505 145.392 92.5588 145.385L90.6341 143.084ZM90.6341 133.76L88.7094 136.061C88.7177 136.068 88.726 136.075 88.7344 136.082L90.6341 133.76ZM78.2141 132.104V129.104C76.5572 129.104 75.2141 130.447 75.2141 132.104H78.2141ZM78.2141 144.704H75.2141C75.2141 146.361 76.5572 147.704 78.2141 147.704V144.704ZM84.9821 132.8C87.7384 132.8 89.4897 133.456 90.6097 134.399L94.4745 129.809C91.9465 127.68 88.6578 126.8 84.9821 126.8V132.8ZM90.6097 134.399C91.6657 135.288 92.2781 136.511 92.2781 138.44H98.2781C98.2781 134.993 97.0665 131.992 94.4745 129.809L90.6097 134.399ZM92.2781 138.44C92.2781 140.369 91.6657 141.592 90.6097 142.481L94.4745 147.071C97.0665 144.888 98.2781 141.887 98.2781 138.44H92.2781ZM90.6275 142.466C89.5069 143.395 87.7487 144.044 84.9821 144.044V150.044C88.6475 150.044 91.9293 149.181 94.4567 147.086L90.6275 142.466ZM84.9821 144.044H78.2141V150.044H84.9821V144.044ZM75.2141 147.044V155H81.2141V147.044H75.2141ZM78.2141 152H75.5501V158H78.2141V152ZM78.5501 155V129.8H72.5501V155H78.5501ZM75.5501 132.8H84.9821V126.8H75.5501V132.8ZM84.9101 147.704C87.7873 147.704 90.4782 147.088 92.5338 145.406L88.7344 140.762C88.1499 141.24 87.0249 141.704 84.9101 141.704V147.704ZM92.5588 145.385C94.6716 143.618 95.6141 141.164 95.6141 138.44H89.6141C89.6141 139.7 89.2366 140.342 88.7094 140.783L92.5588 145.385ZM95.6141 138.44C95.6141 135.696 94.6886 133.201 92.5338 131.438L88.7344 136.082C89.2196 136.479 89.6141 137.104 89.6141 138.44H95.6141ZM92.5588 131.459C90.5016 129.738 87.8003 129.104 84.9101 129.104V135.104C87.0118 135.104 88.1266 135.574 88.7094 136.061L92.5588 131.459ZM84.9101 129.104H78.2141V135.104H84.9101V129.104ZM75.2141 132.104V144.704H81.2141V132.104H75.2141ZM78.2141 147.704H84.9101V141.704H78.2141V147.704ZM122.458 152.696H125.458C125.458 151.039 124.115 149.696 122.458 149.696V152.696ZM122.458 155V158C124.115 158 125.458 156.657 125.458 155H122.458ZM104.638 155H101.638C101.638 156.657 102.982 158 104.638 158V155ZM104.638 129.8V126.8C102.982 126.8 101.638 128.143 101.638 129.8H104.638ZM121.918 129.8H124.918C124.918 128.143 123.575 126.8 121.918 126.8V129.8ZM121.918 132.104V135.104C123.575 135.104 124.918 133.761 124.918 132.104H121.918ZM107.302 132.104V129.104C105.646 129.104 104.302 130.447 104.302 132.104H107.302ZM107.302 141.068H104.302C104.302 142.725 105.646 144.068 107.302 144.068V141.068ZM120.334 141.068H123.334C123.334 139.411 121.991 138.068 120.334 138.068V141.068ZM120.334 143.336V146.336C121.991 146.336 123.334 144.993 123.334 143.336H120.334ZM107.302 143.336V140.336C105.646 140.336 104.302 141.679 104.302 143.336H107.302ZM107.302 152.696H104.302C104.302 154.353 105.646 155.696 107.302 155.696V152.696ZM119.458 152.696V155H125.458V152.696H119.458ZM122.458 152H104.638V158H122.458V152ZM107.638 155V129.8H101.638V155H107.638ZM104.638 132.8H121.918V126.8H104.638V132.8ZM118.918 129.8V132.104H124.918V129.8H118.918ZM121.918 129.104H107.302V135.104H121.918V129.104ZM104.302 132.104V141.068H110.302V132.104H104.302ZM107.302 144.068H120.334V138.068H107.302V144.068ZM117.334 141.068V143.336H123.334V141.068H117.334ZM120.334 140.336H107.302V146.336H120.334V140.336ZM104.302 143.336V152.696H110.302V143.336H104.302ZM107.302 155.696H122.458V149.696H107.302V155.696ZM149.528 155L147.084 156.739C147.646 157.53 148.557 158 149.528 158V155ZM143.768 146.9L146.213 145.161C145.582 144.274 144.52 143.798 143.437 143.918L143.768 146.9ZM134.984 147.008V144.008C133.328 144.008 131.984 145.351 131.984 147.008H134.984ZM134.984 155V158C136.641 158 137.984 156.657 137.984 155H134.984ZM132.32 155H129.32C129.32 156.657 130.664 158 132.32 158V155ZM132.32 129.8V126.8C130.664 126.8 129.32 128.143 129.32 129.8H132.32ZM149.312 132.104L147.38 134.399L149.312 132.104ZM150.536 143.444L148.121 141.664L148.116 141.672L150.536 143.444ZM146.288 146.36L145.362 143.507C144.453 143.802 143.739 144.512 143.44 145.419C143.14 146.327 143.291 147.323 143.845 148.101L146.288 146.36ZM152.444 155V158C153.568 158 154.597 157.373 155.111 156.374C155.626 155.376 155.539 154.174 154.888 153.259L152.444 155ZM147.404 143.084L149.329 145.385L147.404 143.084ZM147.404 133.76L145.48 136.061C145.488 136.068 145.496 136.075 145.505 136.082L147.404 133.76ZM134.984 132.104V129.104C133.328 129.104 131.984 130.447 131.984 132.104H134.984ZM134.984 144.74H131.984C131.984 146.397 133.328 147.74 134.984 147.74V144.74ZM151.973 153.261L146.213 145.161L141.324 148.639L147.084 156.739L151.973 153.261ZM143.437 143.918C142.906 143.977 142.345 144.008 141.752 144.008V150.008C142.552 150.008 143.335 149.967 144.1 149.882L143.437 143.918ZM141.752 144.008H134.984V150.008H141.752V144.008ZM131.984 147.008V155H137.984V147.008H131.984ZM134.984 152H132.32V158H134.984V152ZM135.32 155V129.8H129.32V155H135.32ZM132.32 132.8H141.752V126.8H132.32V132.8ZM141.752 132.8C144.509 132.8 146.26 133.456 147.38 134.399L151.245 129.809C148.717 127.68 145.428 126.8 141.752 126.8V132.8ZM147.38 134.399C148.436 135.288 149.048 136.511 149.048 138.44H155.048C155.048 134.993 153.837 131.992 151.245 129.809L147.38 134.399ZM149.048 138.44C149.048 139.873 148.691 140.891 148.121 141.664L152.952 145.224C154.397 143.261 155.048 140.943 155.048 138.44H149.048ZM148.116 141.672C147.563 142.427 146.714 143.068 145.362 143.507L147.215 149.213C149.559 148.452 151.542 147.149 152.957 145.216L148.116 141.672ZM143.845 148.101L150.001 156.741L154.888 153.259L148.732 144.619L143.845 148.101ZM152.444 152H149.528V158H152.444V152ZM141.68 147.74C144.571 147.74 147.272 147.106 149.329 145.385L145.48 140.783C144.897 141.27 143.782 141.74 141.68 141.74V147.74ZM149.329 145.385C151.442 143.618 152.384 141.164 152.384 138.44H146.384C146.384 139.7 146.007 140.342 145.48 140.783L149.329 145.385ZM152.384 138.44C152.384 135.696 151.459 133.201 149.304 131.438L145.505 136.082C145.99 136.479 146.384 137.104 146.384 138.44H152.384ZM149.329 131.459C147.272 129.738 144.571 129.104 141.68 129.104V135.104C143.782 135.104 144.897 135.574 145.48 136.061L149.329 131.459ZM141.68 129.104H134.984V135.104H141.68V129.104ZM131.984 132.104V144.74H137.984V132.104H131.984ZM134.984 147.74H141.68V141.74H134.984V147.74ZM164.6 132.104V129.104C162.943 129.104 161.6 130.447 161.6 132.104H164.6ZM164.6 142.004H161.6C161.6 143.661 162.943 145.004 164.6 145.004V142.004ZM177.632 142.004H180.632C180.632 140.347 179.289 139.004 177.632 139.004V142.004ZM177.632 144.308V147.308C179.289 147.308 180.632 145.965 180.632 144.308H177.632ZM164.6 144.308V141.308C162.943 141.308 161.6 142.651 161.6 144.308H164.6ZM164.6 155V158C166.257 158 167.6 156.657 167.6 155H164.6ZM161.936 155H158.936C158.936 156.657 160.279 158 161.936 158V155ZM161.936 129.8V126.8C160.279 126.8 158.936 128.143 158.936 129.8H161.936ZM179.216 129.8H182.216C182.216 128.143 180.873 126.8 179.216 126.8V129.8ZM179.216 132.104V135.104C180.873 135.104 182.216 133.761 182.216 132.104H179.216ZM161.6 132.104V142.004H167.6V132.104H161.6ZM164.6 145.004H177.632V139.004H164.6V145.004ZM174.632 142.004V144.308H180.632V142.004H174.632ZM177.632 141.308H164.6V147.308H177.632V141.308ZM161.6 144.308V155H167.6V144.308H161.6ZM164.6 152H161.936V158H164.6V152ZM164.936 155V129.8H158.936V155H164.936ZM161.936 132.8H179.216V126.8H161.936V132.8ZM176.216 129.8V132.104H182.216V129.8H176.216ZM179.216 129.104H164.6V135.104H179.216V129.104ZM206.137 152.696H209.137C209.137 151.039 207.794 149.696 206.137 149.696V152.696ZM206.137 155V158C207.794 158 209.137 156.657 209.137 155H206.137ZM188.317 155H185.317C185.317 156.657 186.66 158 188.317 158V155ZM188.317 129.8V126.8C186.66 126.8 185.317 128.143 185.317 129.8H188.317ZM205.597 129.8H208.597C208.597 128.143 207.254 126.8 205.597 126.8V129.8ZM205.597 132.104V135.104C207.254 135.104 208.597 133.761 208.597 132.104H205.597ZM190.981 132.104V129.104C189.324 129.104 187.981 130.447 187.981 132.104H190.981ZM190.981 141.068H187.981C187.981 142.725 189.324 144.068 190.981 144.068V141.068ZM204.013 141.068H207.013C207.013 139.411 205.67 138.068 204.013 138.068V141.068ZM204.013 143.336V146.336C205.67 146.336 207.013 144.993 207.013 143.336H204.013ZM190.981 143.336V140.336C189.324 140.336 187.981 141.679 187.981 143.336H190.981ZM190.981 152.696H187.981C187.981 154.353 189.324 155.696 190.981 155.696V152.696ZM203.137 152.696V155H209.137V152.696H203.137ZM206.137 152H188.317V158H206.137V152ZM191.317 155V129.8H185.317V155H191.317ZM188.317 132.8H205.597V126.8H188.317V132.8ZM202.597 129.8V132.104H208.597V129.8H202.597ZM205.597 129.104H190.981V135.104H205.597V129.104ZM187.981 132.104V141.068H193.981V132.104H187.981ZM190.981 144.068H204.013V138.068H190.981V144.068ZM201.013 141.068V143.336H207.013V141.068H201.013ZM204.013 140.336H190.981V146.336H204.013V140.336ZM187.981 143.336V152.696H193.981V143.336H187.981ZM190.981 155.696H206.137V149.696H190.981V155.696ZM220.175 153.56L218.721 156.184C218.725 156.186 218.73 156.189 218.734 156.191L220.175 153.56ZM215.459 148.988L212.857 150.48C212.864 150.492 212.871 150.505 212.878 150.517L215.459 148.988ZM215.459 135.848L212.87 134.332L212.865 134.342L215.459 135.848ZM220.211 131.24L218.77 128.609L220.211 131.24ZM232.163 130.52L231.064 133.311L232.163 130.52ZM236.195 133.256L238.317 135.377C239.454 134.24 239.492 132.408 238.403 131.225L236.195 133.256ZM234.503 134.948L232.369 137.056C232.931 137.625 233.695 137.946 234.494 137.948C235.293 137.95 236.06 137.634 236.625 137.069L234.503 134.948ZM221.615 133.328L220.152 130.709L221.615 133.328ZM217.763 137.072L215.181 135.546C215.175 135.556 215.169 135.565 215.163 135.575L217.763 137.072ZM217.763 147.728L215.163 149.225C215.169 149.235 215.175 149.244 215.181 149.254L217.763 147.728ZM221.615 151.472L220.152 154.091L221.615 151.472ZM234.503 149.816L236.625 147.695C236.055 147.125 235.281 146.809 234.476 146.816C233.671 146.823 232.903 147.154 232.344 147.734L234.503 149.816ZM236.195 151.508L238.403 153.539C239.492 152.356 239.454 150.524 238.317 149.387L236.195 151.508ZM232.127 154.28L233.227 157.071C233.234 157.068 233.241 157.065 233.249 157.063L232.127 154.28ZM226.943 152.216C224.907 152.216 223.153 151.77 221.616 150.929L218.734 156.191C221.23 157.558 223.988 158.216 226.943 158.216V152.216ZM221.63 150.936C220.1 150.088 218.918 148.94 218.04 147.459L212.878 150.517C214.304 152.924 216.267 154.824 218.721 156.184L221.63 150.936ZM218.062 147.496C217.212 146.013 216.767 144.338 216.767 142.4H210.767C210.767 145.31 211.45 148.027 212.857 150.48L218.062 147.496ZM216.767 142.4C216.767 140.462 217.212 138.805 218.054 137.354L212.865 134.342C211.45 136.779 210.767 139.49 210.767 142.4H216.767ZM218.048 137.364C218.923 135.869 220.109 134.716 221.652 133.871L218.77 128.609C216.282 129.972 214.299 131.891 212.87 134.332L218.048 137.364ZM221.652 133.871C223.189 133.03 224.943 132.584 226.979 132.584V126.584C224.024 126.584 221.266 127.242 218.77 128.609L221.652 133.871ZM226.979 132.584C228.512 132.584 229.863 132.838 231.064 133.311L233.263 127.729C231.295 126.954 229.19 126.584 226.979 126.584V132.584ZM231.064 133.311C232.245 133.776 233.204 134.436 233.988 135.287L238.403 131.225C236.978 129.676 235.25 128.512 233.263 127.729L231.064 133.311ZM234.074 131.135L232.382 132.827L236.625 137.069L238.317 135.377L234.074 131.135ZM236.637 132.84C234.063 130.233 230.79 128.96 227.051 128.96V134.96C229.313 134.96 231.008 135.679 232.369 137.056L236.637 132.84ZM227.051 128.96C224.582 128.96 222.26 129.531 220.152 130.709L223.079 135.947C224.234 135.301 225.537 134.96 227.051 134.96V128.96ZM220.152 130.709C218.065 131.876 216.391 133.497 215.181 135.546L220.346 138.598C221.008 137.479 221.902 136.604 223.079 135.947L220.152 130.709ZM215.163 135.575C213.969 137.649 213.395 139.948 213.395 142.4H219.395C219.395 140.916 219.733 139.663 220.363 138.569L215.163 135.575ZM213.395 142.4C213.395 144.852 213.969 147.151 215.163 149.225L220.363 146.231C219.733 145.137 219.395 143.884 219.395 142.4H213.395ZM215.181 149.254C216.391 151.303 218.065 152.924 220.152 154.091L223.079 148.853C221.902 148.196 221.008 147.321 220.346 146.202L215.181 149.254ZM220.152 154.091C222.26 155.269 224.582 155.84 227.051 155.84V149.84C225.537 149.84 224.234 149.499 223.079 148.853L220.152 154.091ZM227.051 155.84C230.818 155.84 234.105 154.551 236.663 151.898L232.344 147.734C231.013 149.113 229.333 149.84 227.051 149.84V155.84ZM232.382 151.937L234.074 153.629L238.317 149.387L236.625 147.695L232.382 151.937ZM233.988 149.477C233.204 150.328 232.227 151.005 231.006 151.497L233.249 157.063C235.243 156.259 236.978 155.088 238.403 153.539L233.988 149.477ZM231.028 151.489C229.827 151.962 228.476 152.216 226.943 152.216V158.216C229.154 158.216 231.259 157.846 233.227 157.071L231.028 151.489ZM252.17 132.104H255.17C255.17 130.447 253.827 129.104 252.17 129.104V132.104ZM243.314 132.104H240.314C240.314 133.761 241.657 135.104 243.314 135.104V132.104ZM243.314 129.8V126.8C241.657 126.8 240.314 128.143 240.314 129.8H243.314ZM263.69 129.8H266.69C266.69 128.143 265.347 126.8 263.69 126.8V129.8ZM263.69 132.104V135.104C265.347 135.104 266.69 133.761 266.69 132.104H263.69ZM254.834 132.104V129.104C253.177 129.104 251.834 130.447 251.834 132.104H254.834ZM254.834 155V158C256.491 158 257.834 156.657 257.834 155H254.834ZM252.17 155H249.17C249.17 156.657 250.513 158 252.17 158V155ZM252.17 129.104H243.314V135.104H252.17V129.104ZM246.314 132.104V129.8H240.314V132.104H246.314ZM243.314 132.8H263.69V126.8H243.314V132.8ZM260.69 129.8V132.104H266.69V129.8H260.69ZM263.69 129.104H254.834V135.104H263.69V129.104ZM251.834 132.104V155H257.834V132.104H251.834ZM254.834 152H252.17V158H254.834V152ZM255.17 155V132.104H249.17V155H255.17Z" fill="white"/>
<path d="M194.28 166.38H196.28C196.28 165.275 195.385 164.38 194.28 164.38V166.38ZM189.08 166.38H187.08C187.08 167.485 187.975 168.38 189.08 168.38V166.38ZM189.08 166V164C187.975 164 187.08 164.895 187.08 166H189.08ZM199.88 166H201.88C201.88 164.895 200.985 164 199.88 164V166ZM199.88 166.38V168.38C200.985 168.38 201.88 167.485 201.88 166.38H199.88ZM194.68 166.38V164.38C193.575 164.38 192.68 165.275 192.68 166.38H194.68ZM194.68 180V182C195.785 182 196.68 181.105 196.68 180H194.68ZM194.28 180H192.28C192.28 181.105 193.175 182 194.28 182V180ZM194.28 164.38H189.08V168.38H194.28V164.38ZM191.08 166.38V166H187.08V166.38H191.08ZM189.08 168H199.88V164H189.08V168ZM197.88 166V166.38H201.88V166H197.88ZM199.88 164.38H194.68V168.38H199.88V164.38ZM192.68 166.38V180H196.68V166.38H192.68ZM194.68 178H194.28V182H194.68V178ZM196.28 180V166.38H192.28V180H196.28ZM213.937 179.62H215.937C215.937 178.515 215.042 177.62 213.937 177.62V179.62ZM213.937 180V182C215.042 182 215.937 181.105 215.937 180H213.937ZM204.617 180H202.617C202.617 181.105 203.512 182 204.617 182V180ZM204.617 166V164C203.512 164 202.617 164.895 202.617 166H204.617ZM213.637 166H215.637C215.637 164.895 214.742 164 213.637 164V166ZM213.637 166.38V168.38C214.742 168.38 215.637 167.485 215.637 166.38H213.637ZM205.017 166.38V164.38C203.912 164.38 203.017 165.275 203.017 166.38H205.017ZM205.017 172.7H203.017C203.017 173.805 203.912 174.7 205.017 174.7V172.7ZM212.737 172.7H214.737C214.737 171.595 213.842 170.7 212.737 170.7V172.7ZM212.737 173.08V175.08C213.842 175.08 214.737 174.185 214.737 173.08H212.737ZM205.017 173.08V171.08C203.912 171.08 203.017 171.975 203.017 173.08H205.017ZM205.017 179.62H203.017C203.017 180.725 203.912 181.62 205.017 181.62V179.62ZM211.937 179.62V180H215.937V179.62H211.937ZM213.937 178H204.617V182H213.937V178ZM206.617 180V166H202.617V180H206.617ZM204.617 168H213.637V164H204.617V168ZM211.637 166V166.38H215.637V166H211.637ZM213.637 164.38H205.017V168.38H213.637V164.38ZM203.017 166.38V172.7H207.017V166.38H203.017ZM205.017 174.7H212.737V170.7H205.017V174.7ZM210.737 172.7V173.08H214.737V172.7H210.737ZM212.737 171.08H205.017V175.08H212.737V171.08ZM203.017 173.08V179.62H207.017V173.08H203.017ZM205.017 181.62H213.937V177.62H205.017V181.62ZM230.976 166H232.976C232.976 164.895 232.081 164 230.976 164V166ZM230.976 180V182C232.081 182 232.976 181.105 232.976 180H230.976ZM230.636 180L229.055 181.224C229.433 181.713 230.017 182 230.636 182V180ZM220.376 166.74L221.958 165.516C221.435 164.84 220.539 164.571 219.73 164.847C218.92 165.124 218.376 165.885 218.376 166.74H220.376ZM220.376 180V182C221.481 182 222.376 181.105 222.376 180H220.376ZM219.976 180H217.976C217.976 181.105 218.872 182 219.976 182V180ZM219.976 166V164C218.872 164 217.976 164.895 217.976 166H219.976ZM220.316 166L221.898 164.776C221.519 164.287 220.935 164 220.316 164V166ZM230.576 179.26L228.995 180.484C229.518 181.16 230.414 181.429 231.223 181.153C232.032 180.876 232.576 180.115 232.576 179.26H230.576ZM230.576 166V164C229.472 164 228.576 164.895 228.576 166H230.576ZM228.976 166V180H232.976V166H228.976ZM230.976 178H230.636V182H230.976V178ZM232.218 178.776L221.958 165.516L218.795 167.964L229.055 181.224L232.218 178.776ZM218.376 166.74V180H222.376V166.74H218.376ZM220.376 178H219.976V182H220.376V178ZM221.976 180V166H217.976V180H221.976ZM219.976 168H220.316V164H219.976V168ZM218.735 167.224L228.995 180.484L232.158 178.036L221.898 164.776L218.735 167.224ZM232.576 179.26V166H228.576V179.26H232.576ZM230.576 168H230.976V164H230.576V168ZM238.865 179.52L238.093 181.365C238.101 181.369 238.109 181.372 238.117 181.375L238.865 179.52ZM236.805 178.08L235.444 176.614C234.67 177.333 234.588 178.529 235.257 179.346L236.805 178.08ZM237.085 177.82L238.608 176.525C238.255 176.109 237.747 175.856 237.202 175.823C236.658 175.791 236.123 175.983 235.724 176.354L237.085 177.82ZM239.025 179.16L238.237 180.998C238.245 181.002 238.253 181.005 238.262 181.009L239.025 179.16ZM244.985 178.82L246.216 180.396L246.22 180.393L244.985 178.82ZM245.525 174.84L244.043 176.183L245.525 174.84ZM244.085 173.88L243.373 175.749C243.377 175.751 243.382 175.753 243.387 175.754L244.085 173.88ZM241.805 173.22L241.325 175.162C241.332 175.163 241.338 175.165 241.345 175.166L241.805 173.22ZM239.365 172.5L238.622 174.357C238.634 174.362 238.646 174.366 238.658 174.371L239.365 172.5ZM237.825 171.42L236.291 172.704C236.304 172.719 236.317 172.734 236.33 172.749L237.825 171.42ZM237.705 167.7L239.401 168.76L237.705 167.7ZM244.085 166.3L243.452 168.197C243.463 168.201 243.473 168.204 243.484 168.208L244.085 166.3ZM245.945 167.22L247.593 168.353C248.202 167.467 248.001 166.257 247.138 165.615L245.945 167.22ZM245.725 167.54L244.544 169.154C244.98 169.473 245.527 169.602 246.06 169.512C246.593 169.421 247.066 169.119 247.373 168.673L245.725 167.54ZM243.885 166.64L243.275 168.545C243.29 168.55 243.305 168.554 243.32 168.559L243.885 166.64ZM238.705 167.22L239.954 168.782C239.96 168.777 239.965 168.773 239.971 168.768L238.705 167.22ZM238.185 171.22L236.682 172.54C236.689 172.548 236.696 172.555 236.703 172.563L238.185 171.22ZM239.625 172.18L240.322 170.306L239.625 172.18ZM241.945 172.86L242.43 170.92L242.423 170.918L241.945 172.86ZM244.365 173.6L243.622 175.457C243.634 175.462 243.646 175.466 243.658 175.471L244.365 173.6ZM245.885 174.66L244.369 175.965C244.375 175.972 244.381 175.979 244.387 175.986L245.885 174.66ZM245.985 178.32L244.308 177.23L245.985 178.32ZM244.385 179.6L245.181 181.435C245.186 181.432 245.191 181.43 245.197 181.428L244.385 179.6ZM241.725 178.06C240.954 178.06 240.256 177.924 239.612 177.665L238.117 181.375C239.26 181.836 240.469 182.06 241.725 182.06V178.06ZM239.636 177.675C238.963 177.394 238.575 177.086 238.352 176.814L235.257 179.346C235.994 180.248 236.979 180.9 238.093 181.365L239.636 177.675ZM238.165 179.546L238.445 179.286L235.724 176.354L235.444 176.614L238.165 179.546ZM235.561 179.115C236.266 179.945 237.196 180.552 238.237 180.998L239.812 177.322C239.173 177.048 238.81 176.762 238.608 176.525L235.561 179.115ZM238.262 181.009C239.354 181.459 240.507 181.68 241.705 181.68V177.68C241.009 177.68 240.375 177.554 239.788 177.311L238.262 181.009ZM241.705 181.68C243.369 181.68 244.982 181.36 246.216 180.396L243.753 177.244C243.52 177.426 242.947 177.68 241.705 177.68V181.68ZM246.22 180.393C247.431 179.441 248.105 178.116 248.105 176.56H244.105C244.105 176.844 244.031 177.026 243.749 177.247L246.22 180.393ZM248.105 176.56C248.105 175.473 247.804 174.377 247.007 173.497L244.043 176.183C244.044 176.185 244.046 176.187 244.048 176.191C244.051 176.195 244.057 176.206 244.064 176.229C244.08 176.275 244.105 176.377 244.105 176.56H248.105ZM247.007 173.497C246.391 172.818 245.636 172.323 244.782 172.006L243.387 175.754C243.679 175.863 243.884 176.009 244.043 176.183L247.007 173.497ZM244.797 172.011C244.119 171.753 243.263 171.509 242.264 171.274L241.345 175.166C242.266 175.384 242.93 175.58 243.373 175.749L244.797 172.011ZM242.284 171.278C241.292 171.033 240.565 170.815 240.071 170.629L238.658 174.371C239.364 174.638 240.264 174.9 241.325 175.162L242.284 171.278ZM240.107 170.643C239.794 170.518 239.538 170.338 239.319 170.091L236.33 172.749C236.964 173.462 237.735 174.002 238.622 174.357L240.107 170.643ZM239.358 170.136C239.319 170.089 239.205 169.931 239.205 169.46H235.205C235.205 170.616 235.504 171.764 236.291 172.704L239.358 170.136ZM239.205 169.46C239.205 169.188 239.27 168.97 239.401 168.76L236.009 166.64C235.473 167.497 235.205 168.452 235.205 169.46H239.205ZM239.401 168.76C239.481 168.632 239.658 168.437 240.09 168.242L238.44 164.598C237.458 165.043 236.595 165.702 236.009 166.64L239.401 168.76ZM240.09 168.242C240.465 168.072 241.037 167.94 241.885 167.94V163.94C240.652 163.94 239.478 164.128 238.44 164.598L240.09 168.242ZM241.885 167.94C242.413 167.94 242.933 168.024 243.452 168.197L244.717 164.403C243.796 164.096 242.85 163.94 241.885 163.94V167.94ZM243.484 168.208C244.025 168.378 244.437 168.592 244.751 168.825L247.138 165.615C246.412 165.075 245.584 164.675 244.685 164.392L243.484 168.208ZM244.296 166.087L244.076 166.407L247.373 168.673L247.593 168.353L244.296 166.087ZM246.906 165.926C246.164 165.383 245.34 164.983 244.449 164.721L243.32 168.559C243.789 168.697 244.192 168.897 244.544 169.154L246.906 165.926ZM244.494 164.735C243.644 164.463 242.779 164.32 241.905 164.32V168.32C242.337 168.32 242.791 168.39 243.275 168.545L244.494 164.735ZM241.905 164.32C240.256 164.32 238.665 164.668 237.438 165.672L239.971 168.768C240.211 168.571 240.753 168.32 241.905 168.32V164.32ZM237.455 165.658C236.259 166.615 235.605 167.938 235.605 169.48H239.605C239.605 169.182 239.684 168.998 239.954 168.782L237.455 165.658ZM235.605 169.48C235.605 170.57 235.906 171.657 236.682 172.54L239.687 169.9C239.677 169.889 239.663 169.871 239.647 169.823C239.629 169.769 239.605 169.662 239.605 169.48H235.605ZM236.703 172.563C237.318 173.242 238.073 173.737 238.927 174.054L240.322 170.306C240.03 170.197 239.825 170.051 239.667 169.877L236.703 172.563ZM238.927 174.054C239.602 174.306 240.459 174.554 241.466 174.802L242.423 170.918C241.484 170.686 240.793 170.481 240.322 170.306L238.927 174.054ZM241.459 174.8C242.431 175.043 243.141 175.265 243.622 175.457L245.107 171.743C244.388 171.455 243.484 171.183 242.43 170.92L241.459 174.8ZM243.658 175.471C243.949 175.581 244.177 175.742 244.369 175.965L247.4 173.355C246.766 172.618 245.98 172.072 245.071 171.729L243.658 175.471ZM244.387 175.986C244.393 175.993 244.505 176.106 244.505 176.56H248.505C248.505 175.414 248.202 174.26 247.382 173.334L244.387 175.986ZM244.505 176.56C244.505 176.816 244.442 177.023 244.308 177.23L247.661 179.41C248.22 178.55 248.505 177.584 248.505 176.56H244.505ZM244.308 177.23C244.217 177.369 244.023 177.572 243.572 177.772L245.197 181.428C246.186 180.988 247.059 180.337 247.661 179.41L244.308 177.23ZM243.588 177.765C243.21 177.93 242.616 178.06 241.725 178.06V182.06C242.967 182.06 244.146 181.884 245.181 181.435L243.588 177.765ZM261.636 179.62H263.636C263.636 178.515 262.741 177.62 261.636 177.62V179.62ZM261.636 180V182C262.741 182 263.636 181.105 263.636 180H261.636ZM252.316 180H250.316C250.316 181.105 251.212 182 252.316 182V180ZM252.316 166V164C251.212 164 250.316 164.895 250.316 166H252.316ZM261.336 166H263.336C263.336 164.895 262.441 164 261.336 164V166ZM261.336 166.38V168.38C262.441 168.38 263.336 167.485 263.336 166.38H261.336ZM252.716 166.38V164.38C251.612 164.38 250.716 165.275 250.716 166.38H252.716ZM252.716 172.7H250.716C250.716 173.805 251.612 174.7 252.716 174.7V172.7ZM260.436 172.7H262.436C262.436 171.595 261.541 170.7 260.436 170.7V172.7ZM260.436 173.08V175.08C261.541 175.08 262.436 174.185 262.436 173.08H260.436ZM252.716 173.08V171.08C251.612 171.08 250.716 171.975 250.716 173.08H252.716ZM252.716 179.62H250.716C250.716 180.725 251.612 181.62 252.716 181.62V179.62ZM259.636 179.62V180H263.636V179.62H259.636ZM261.636 178H252.316V182H261.636V178ZM254.316 180V166H250.316V180H254.316ZM252.316 168H261.336V164H252.316V168ZM259.336 166V166.38H263.336V166H259.336ZM261.336 164.38H252.716V168.38H261.336V164.38ZM250.716 166.38V172.7H254.716V166.38H250.716ZM252.716 174.7H260.436V170.7H252.716V174.7ZM258.436 172.7V173.08H262.436V172.7H258.436ZM260.436 171.08H252.716V175.08H260.436V171.08ZM250.716 173.08V179.62H254.716V173.08H250.716ZM252.716 181.62H261.636V177.62H252.716V181.62Z" fill="white"/>
</mask>
<g mask="url(#mask0_139_275)">
<path d="M0 136.598C9.46667 139.854 32.0667 145.289 51 146.219C69.9333 147.185 84.5 143.533 124.5 142.033C164.5 140.533 174 146.219 217.5 146.219C261 146.219 284 131.285 284 131.285V322.643H274.533C265.067 322.643 246.133 322.643 227.2 322.643C208.267 322.643 189.333 322.643 170.4 322.643C151.467 322.643 132.533 322.643 113.6 322.643C94.6667 322.643 75.7333 322.643 56.8 322.643C37.8667 322.643 18.9333 322.643 9.46667 322.643H0V136.598Z" fill="white"/>
</g>
</g>
<defs>
<clipPath id="clip0_139_275">
<rect width="284" height="323" fill="white"/>
</clipPath>
</defs>
</svg>
