<svg width="284" height="322" viewBox="0 0 284 322" fill="none" xmlns="http://www.w3.org/2000/svg">
<g clip-path="url(#clip0_157_2050)">
<path d="M284 0H0V322H284V0Z" fill="#001220"/>
<path d="M58.536 129.8C61.752 129.8 64.272 130.568 66.096 132.104C67.92 133.64 68.832 135.752 68.832 138.44C68.832 141.128 67.92 143.24 66.096 144.776C64.272 146.288 61.752 147.044 58.536 147.044H51.768V155H49.104V129.8H58.536ZM58.464 144.704C60.96 144.704 62.868 144.164 64.188 143.084C65.508 141.98 66.168 140.432 66.168 138.44C66.168 136.4 65.508 134.84 64.188 133.76C62.868 132.656 60.96 132.104 58.464 132.104H51.768V144.704H58.464ZM95.4003 155L89.6403 146.9C88.9923 146.972 88.3203 147.008 87.6243 147.008H80.8563V155H78.1923V129.8H87.6243C90.8403 129.8 93.3603 130.568 95.1843 132.104C97.0083 133.64 97.9203 135.752 97.9203 138.44C97.9203 140.408 97.4163 142.076 96.4083 143.444C95.4243 144.788 94.0083 145.76 92.1603 146.36L98.3163 155H95.4003ZM87.5523 144.74C90.0483 144.74 91.9563 144.188 93.2763 143.084C94.5963 141.98 95.2563 140.432 95.2563 138.44C95.2563 136.4 94.5963 134.84 93.2763 133.76C91.9563 132.656 90.0483 132.104 87.5523 132.104H80.8563V144.74H87.5523ZM125.628 152.696V155H107.808V129.8H125.088V132.104H110.472V141.068H123.504V143.336H110.472V152.696H125.628ZM142.438 155.216C140.566 155.216 138.766 154.916 137.038 154.316C135.334 153.716 134.014 152.924 133.078 151.94L134.122 149.888C135.034 150.8 136.246 151.544 137.758 152.12C139.27 152.672 140.83 152.948 142.438 152.948C144.694 152.948 146.386 152.54 147.514 151.724C148.642 150.884 149.206 149.804 149.206 148.484C149.206 147.476 148.894 146.672 148.27 146.072C147.67 145.472 146.926 145.016 146.038 144.704C145.15 144.368 143.914 144.008 142.33 143.624C140.434 143.144 138.922 142.688 137.794 142.256C136.666 141.8 135.694 141.116 134.878 140.204C134.086 139.292 133.69 138.056 133.69 136.496C133.69 135.224 134.026 134.072 134.698 133.04C135.37 131.984 136.402 131.144 137.794 130.52C139.186 129.896 140.914 129.584 142.978 129.584C144.418 129.584 145.822 129.788 147.19 130.196C148.582 130.58 149.782 131.12 150.79 131.816L149.89 133.94C148.834 133.244 147.706 132.728 146.506 132.392C145.306 132.032 144.13 131.852 142.978 131.852C140.77 131.852 139.102 132.284 137.974 133.148C136.87 133.988 136.318 135.08 136.318 136.424C136.318 137.432 136.618 138.248 137.218 138.872C137.842 139.472 138.61 139.94 139.522 140.276C140.458 140.588 141.706 140.936 143.266 141.32C145.114 141.776 146.602 142.232 147.73 142.688C148.882 143.12 149.854 143.792 150.646 144.704C151.438 145.592 151.834 146.804 151.834 148.34C151.834 149.612 151.486 150.776 150.79 151.832C150.118 152.864 149.074 153.692 147.658 154.316C146.242 154.916 144.502 155.216 142.438 155.216ZM179.058 152.696V155H161.238V129.8H178.518V132.104H163.902V141.068H176.934V143.336H163.902V152.696H179.058ZM209.98 129.8V155H207.784L191.584 134.552V155H188.92V129.8H191.116L207.352 150.248V129.8H209.98ZM226.702 132.104H217.846V129.8H238.222V132.104H229.366V155H226.702V132.104Z" fill="#FA668B"/>
<path d="M66.096 132.104L64.1636 134.399L66.096 132.104ZM66.096 144.776L68.0106 147.086C68.0165 147.081 68.0225 147.076 68.0284 147.071L66.096 144.776ZM51.768 147.044V144.044C50.1111 144.044 48.768 145.387 48.768 147.044H51.768ZM51.768 155V158C53.4249 158 54.768 156.657 54.768 155H51.768ZM49.104 155H46.104C46.104 156.657 47.4471 158 49.104 158V155ZM49.104 129.8V126.8C47.4471 126.8 46.104 128.143 46.104 129.8H49.104ZM64.188 143.084L66.0877 145.406C66.0961 145.399 66.1044 145.392 66.1127 145.385L64.188 143.084ZM64.188 133.76L62.2633 136.061C62.2716 136.068 62.2799 136.075 62.2883 136.082L64.188 133.76ZM51.768 132.104V129.104C50.1111 129.104 48.768 130.447 48.768 132.104H51.768ZM51.768 144.704H48.768C48.768 146.361 50.1111 147.704 51.768 147.704V144.704ZM58.536 132.8C61.2923 132.8 63.0436 133.456 64.1636 134.399L68.0284 129.809C65.5004 127.68 62.2117 126.8 58.536 126.8V132.8ZM64.1636 134.399C65.2196 135.288 65.832 136.511 65.832 138.44H71.832C71.832 134.993 70.6204 131.992 68.0284 129.809L64.1636 134.399ZM65.832 138.44C65.832 140.369 65.2196 141.592 64.1636 142.481L68.0284 147.071C70.6204 144.888 71.832 141.887 71.832 138.44H65.832ZM64.1814 142.466C63.0608 143.395 61.3026 144.044 58.536 144.044V150.044C62.2014 150.044 65.4832 149.181 68.0106 147.086L64.1814 142.466ZM58.536 144.044H51.768V150.044H58.536V144.044ZM48.768 147.044V155H54.768V147.044H48.768ZM51.768 152H49.104V158H51.768V152ZM52.104 155V129.8H46.104V155H52.104ZM49.104 132.8H58.536V126.8H49.104V132.8ZM58.464 147.704C61.3412 147.704 64.0322 147.088 66.0877 145.406L62.2883 140.762C61.7038 141.24 60.5788 141.704 58.464 141.704V147.704ZM66.1127 145.385C68.2255 143.618 69.168 141.164 69.168 138.44H63.168C63.168 139.7 62.7905 140.342 62.2633 140.783L66.1127 145.385ZM69.168 138.44C69.168 135.696 68.2425 133.201 66.0877 131.438L62.2883 136.082C62.7735 136.479 63.168 137.104 63.168 138.44H69.168ZM66.1127 131.459C64.0555 129.738 61.3542 129.104 58.464 129.104V135.104C60.5658 135.104 61.6805 135.574 62.2633 136.061L66.1127 131.459ZM58.464 129.104H51.768V135.104H58.464V129.104ZM48.768 132.104V144.704H54.768V132.104H48.768ZM51.768 147.704H58.464V141.704H51.768V147.704ZM95.4003 155L92.9554 156.739C93.5182 157.53 94.4292 158 95.4003 158V155ZM89.6403 146.9L92.0851 145.161C91.454 144.274 90.3914 143.798 89.309 143.918L89.6403 146.9ZM80.8563 147.008V144.008C79.1994 144.008 77.8563 145.351 77.8563 147.008H80.8563ZM80.8563 155V158C82.5131 158 83.8563 156.657 83.8563 155H80.8563ZM78.1923 155H75.1923C75.1923 156.657 76.5354 158 78.1923 158V155ZM78.1923 129.8V126.8C76.5354 126.8 75.1923 128.143 75.1923 129.8H78.1923ZM95.1843 132.104L93.2519 134.399L95.1843 132.104ZM96.4083 143.444L93.9931 141.664L93.9877 141.672L96.4083 143.444ZM92.1603 146.36L91.2339 143.507C90.325 143.802 89.6111 144.512 89.3115 145.419C89.012 146.327 89.1625 147.323 89.717 148.101L92.1603 146.36ZM98.3163 155V158C99.4394 158 100.468 157.373 100.983 156.374C101.497 155.376 101.411 154.174 100.76 153.259L98.3163 155ZM93.2763 143.084L95.2009 145.385L93.2763 143.084ZM93.2763 133.76L91.3516 136.061C91.3599 136.068 91.3682 136.075 91.3766 136.082L93.2763 133.76ZM80.8563 132.104V129.104C79.1994 129.104 77.8563 130.447 77.8563 132.104H80.8563ZM80.8563 144.74H77.8563C77.8563 146.397 79.1994 147.74 80.8563 147.74V144.74ZM97.8451 153.261L92.0851 145.161L87.1954 148.639L92.9554 156.739L97.8451 153.261ZM89.309 143.918C88.7781 143.977 88.217 144.008 87.6243 144.008V150.008C88.4236 150.008 89.2065 149.967 89.9716 149.882L89.309 143.918ZM87.6243 144.008H80.8563V150.008H87.6243V144.008ZM77.8563 147.008V155H83.8563V147.008H77.8563ZM80.8563 152H78.1923V158H80.8563V152ZM81.1923 155V129.8H75.1923V155H81.1923ZM78.1923 132.8H87.6243V126.8H78.1923V132.8ZM87.6243 132.8C90.3806 132.8 92.1319 133.456 93.2519 134.399L97.1167 129.809C94.5887 127.68 91.3 126.8 87.6243 126.8V132.8ZM93.2519 134.399C94.3079 135.288 94.9203 136.511 94.9203 138.44H100.92C100.92 134.993 99.7086 131.992 97.1167 129.809L93.2519 134.399ZM94.9203 138.44C94.9203 139.873 94.5633 140.891 93.9931 141.664L98.8234 145.224C100.269 143.261 100.92 140.943 100.92 138.44H94.9203ZM93.9877 141.672C93.4351 142.427 92.5856 143.068 91.2339 143.507L93.0867 149.213C95.4309 148.452 97.4135 147.149 98.8289 145.216L93.9877 141.672ZM89.717 148.101L95.873 156.741L100.76 153.259L94.6035 144.619L89.717 148.101ZM98.3163 152H95.4003V158H98.3163V152ZM87.5523 147.74C90.4425 147.74 93.1438 147.106 95.2009 145.385L91.3516 140.783C90.7688 141.27 89.654 141.74 87.5523 141.74V147.74ZM95.2009 145.385C97.3138 143.618 98.2563 141.164 98.2563 138.44H92.2563C92.2563 139.7 91.8788 140.342 91.3516 140.783L95.2009 145.385ZM98.2563 138.44C98.2563 135.696 97.3308 133.201 95.176 131.438L91.3766 136.082C91.8618 136.479 92.2563 137.104 92.2563 138.44H98.2563ZM95.2009 131.459C93.1438 129.738 90.4425 129.104 87.5523 129.104V135.104C89.654 135.104 90.7688 135.574 91.3516 136.061L95.2009 131.459ZM87.5523 129.104H80.8563V135.104H87.5523V129.104ZM77.8563 132.104V144.74H83.8563V132.104H77.8563ZM80.8563 147.74H87.5523V141.74H80.8563V147.74ZM125.628 152.696H128.628C128.628 151.039 127.285 149.696 125.628 149.696V152.696ZM125.628 155V158C127.285 158 128.628 156.657 128.628 155H125.628ZM107.808 155H104.808C104.808 156.657 106.151 158 107.808 158V155ZM107.808 129.8V126.8C106.151 126.8 104.808 128.143 104.808 129.8H107.808ZM125.088 129.8H128.088C128.088 128.143 126.745 126.8 125.088 126.8V129.8ZM125.088 132.104V135.104C126.745 135.104 128.088 133.761 128.088 132.104H125.088ZM110.472 132.104V129.104C108.815 129.104 107.472 130.447 107.472 132.104H110.472ZM110.472 141.068H107.472C107.472 142.725 108.815 144.068 110.472 144.068V141.068ZM123.504 141.068H126.504C126.504 139.411 125.161 138.068 123.504 138.068V141.068ZM123.504 143.336V146.336C125.161 146.336 126.504 144.993 126.504 143.336H123.504ZM110.472 143.336V140.336C108.815 140.336 107.472 141.679 107.472 143.336H110.472ZM110.472 152.696H107.472C107.472 154.353 108.815 155.696 110.472 155.696V152.696ZM122.628 152.696V155H128.628V152.696H122.628ZM125.628 152H107.808V158H125.628V152ZM110.808 155V129.8H104.808V155H110.808ZM107.808 132.8H125.088V126.8H107.808V132.8ZM122.088 129.8V132.104H128.088V129.8H122.088ZM125.088 129.104H110.472V135.104H125.088V129.104ZM107.472 132.104V141.068H113.472V132.104H107.472ZM110.472 144.068H123.504V138.068H110.472V144.068ZM120.504 141.068V143.336H126.504V141.068H120.504ZM123.504 140.336H110.472V146.336H123.504V140.336ZM107.472 143.336V152.696H113.472V143.336H107.472ZM110.472 155.696H125.628V149.696H110.472V155.696ZM137.038 154.316L136.042 157.146L136.054 157.15L137.038 154.316ZM133.078 151.94L130.404 150.58C129.828 151.713 130.028 153.086 130.904 154.008L133.078 151.94ZM134.122 149.888L136.243 147.767C135.564 147.087 134.601 146.775 133.652 146.925C132.703 147.076 131.884 147.671 131.448 148.528L134.122 149.888ZM137.758 152.12L136.69 154.923C136.703 154.928 136.716 154.933 136.729 154.938L137.758 152.12ZM147.514 151.724L149.272 154.155C149.284 154.147 149.295 154.138 149.306 154.13L147.514 151.724ZM148.27 146.072L146.149 148.193C146.162 148.207 146.176 148.221 146.191 148.234L148.27 146.072ZM146.038 144.704L144.976 147.51C144.999 147.518 145.021 147.526 145.043 147.534L146.038 144.704ZM142.33 143.624L141.594 146.532C141.603 146.535 141.613 146.537 141.623 146.54L142.33 143.624ZM137.794 142.256L136.67 145.037C136.687 145.044 136.704 145.051 136.721 145.058L137.794 142.256ZM134.878 140.204L132.613 142.171C132.623 142.182 132.632 142.193 132.642 142.204L134.878 140.204ZM134.698 133.04L137.212 134.677C137.218 134.668 137.223 134.659 137.229 134.651L134.698 133.04ZM137.794 130.52L139.021 133.258L137.794 130.52ZM147.19 130.196L146.333 133.071C146.352 133.077 146.372 133.082 146.392 133.088L147.19 130.196ZM150.79 131.816L153.552 132.986C154.107 131.676 153.666 130.156 152.495 129.347L150.79 131.816ZM149.89 133.94L148.239 136.445C148.983 136.935 149.906 137.069 150.758 136.812C151.611 136.554 152.305 135.931 152.652 135.11L149.89 133.94ZM146.506 132.392L145.644 135.265C145.662 135.271 145.679 135.276 145.697 135.281L146.506 132.392ZM137.974 133.148L139.791 135.535L139.798 135.53L137.974 133.148ZM137.218 138.872L135.055 140.951C135.083 140.98 135.11 141.007 135.139 141.034L137.218 138.872ZM139.522 140.276L138.485 143.091C138.514 143.102 138.544 143.112 138.573 143.122L139.522 140.276ZM143.266 141.32L143.985 138.407H143.983L143.266 141.32ZM147.73 142.688L146.606 145.469C146.629 145.479 146.653 145.488 146.677 145.497L147.73 142.688ZM150.646 144.704L148.381 146.671C148.39 146.681 148.398 146.691 148.407 146.701L150.646 144.704ZM150.79 151.832L148.285 150.181C148.282 150.186 148.279 150.19 148.276 150.195L150.79 151.832ZM147.658 154.316L148.828 157.078C148.842 157.073 148.855 157.067 148.868 157.061L147.658 154.316ZM142.438 152.216C140.893 152.216 139.426 151.97 138.022 151.482L136.054 157.15C138.106 157.862 140.239 158.216 142.438 158.216V152.216ZM138.034 151.486C136.636 150.994 135.771 150.419 135.252 149.872L130.904 154.008C132.257 155.429 134.032 156.438 136.042 157.146L138.034 151.486ZM135.752 153.3L136.796 151.248L131.448 148.528L130.404 150.58L135.752 153.3ZM132.001 152.009C133.278 153.286 134.88 154.234 136.69 154.923L138.826 149.317C137.612 148.854 136.79 148.314 136.243 147.767L132.001 152.009ZM136.729 154.938C138.57 155.61 140.479 155.948 142.438 155.948V149.948C141.181 149.948 139.969 149.734 138.787 149.302L136.729 154.938ZM142.438 155.948C144.966 155.948 147.403 155.507 149.272 154.155L145.756 149.293C145.369 149.573 144.422 149.948 142.438 149.948V155.948ZM149.306 154.13C151.136 152.767 152.206 150.822 152.206 148.484H146.206C146.206 148.786 146.148 149.001 145.722 149.318L149.306 154.13ZM152.206 148.484C152.206 146.806 151.659 145.169 150.349 143.909L146.191 148.234C146.194 148.238 146.19 148.234 146.183 148.224C146.177 148.214 146.174 148.208 146.175 148.21C146.176 148.213 146.206 148.29 146.206 148.484H152.206ZM150.391 143.951C149.44 143 148.298 142.318 147.032 141.874L145.043 147.534C145.554 147.714 145.9 147.944 146.149 148.193L150.391 143.951ZM147.1 141.898C146.042 141.498 144.669 141.104 143.037 140.708L141.623 146.54C143.159 146.912 144.257 147.238 144.976 147.51L147.1 141.898ZM143.066 140.716C141.224 140.249 139.839 139.827 138.867 139.454L136.721 145.058C138.005 145.549 139.644 146.039 141.594 146.532L143.066 140.716ZM138.918 139.475C138.218 139.192 137.626 138.776 137.114 138.204L132.642 142.204C133.762 143.456 135.114 144.408 136.67 145.037L138.918 139.475ZM137.143 138.237C136.949 138.014 136.69 137.549 136.69 136.496H130.69C130.69 138.563 131.222 140.57 132.613 142.171L137.143 138.237ZM136.69 136.496C136.69 135.785 136.868 135.205 137.212 134.677L132.184 131.403C131.184 132.939 130.69 134.663 130.69 136.496H136.69ZM137.229 134.651C137.523 134.189 138.046 133.694 139.021 133.258L136.567 127.782C134.757 128.594 133.217 129.779 132.167 131.429L137.229 134.651ZM139.021 133.258C139.916 132.856 141.196 132.584 142.978 132.584V126.584C140.632 126.584 138.455 126.936 136.567 127.782L139.021 133.258ZM142.978 132.584C144.13 132.584 145.245 132.747 146.333 133.071L148.047 127.321C146.399 126.829 144.706 126.584 142.978 126.584V132.584ZM146.392 133.088C147.517 133.398 148.398 133.81 149.085 134.285L152.495 129.347C151.166 128.43 149.647 127.762 147.988 127.304L146.392 133.088ZM148.028 130.646L147.128 132.77L152.652 135.11L153.552 132.986L148.028 130.646ZM151.541 131.435C150.23 130.571 148.818 129.924 147.315 129.503L145.697 135.281C146.594 135.532 147.438 135.917 148.239 136.445L151.541 131.435ZM147.368 129.519C145.913 129.082 144.446 128.852 142.978 128.852V134.852C143.814 134.852 144.699 134.982 145.644 135.265L147.368 129.519ZM142.978 128.852C140.454 128.852 138.021 129.333 136.15 130.766L139.798 135.53C140.183 135.235 141.086 134.852 142.978 134.852V128.852ZM136.157 130.761C134.336 132.146 133.318 134.108 133.318 136.424H139.318C139.318 136.052 139.404 135.83 139.791 135.535L136.157 130.761ZM133.318 136.424C133.318 138.07 133.83 139.677 135.055 140.951L139.38 136.793C139.369 136.781 139.366 136.777 139.359 136.757C139.348 136.729 139.318 136.63 139.318 136.424H133.318ZM135.139 141.034C136.096 141.955 137.232 142.629 138.485 143.091L140.559 137.461C139.988 137.251 139.588 136.989 139.297 136.71L135.139 141.034ZM138.573 143.122C139.618 143.47 140.953 143.84 142.549 144.233L143.983 138.407C142.459 138.032 141.298 137.706 140.471 137.43L138.573 143.122ZM142.547 144.233C144.325 144.671 145.661 145.088 146.606 145.469L148.854 139.907C147.542 139.376 145.903 138.881 143.985 138.407L142.547 144.233ZM146.677 145.497C147.37 145.757 147.923 146.143 148.381 146.671L152.911 142.737C151.785 141.441 150.394 140.483 148.783 139.879L146.677 145.497ZM148.407 146.701C148.58 146.895 148.834 147.32 148.834 148.34H154.834C154.834 146.288 154.296 144.289 152.885 142.707L148.407 146.701ZM148.834 148.34C148.834 149.029 148.656 149.618 148.285 150.181L153.295 153.483C154.316 151.934 154.834 150.195 154.834 148.34H148.834ZM148.276 150.195C147.994 150.627 147.468 151.122 146.448 151.571L148.868 157.061C150.68 156.262 152.241 155.101 153.304 153.469L148.276 150.195ZM146.487 151.554C145.545 151.953 144.23 152.216 142.438 152.216V158.216C144.774 158.216 146.939 157.879 148.828 157.078L146.487 151.554ZM179.058 152.696H182.058C182.058 151.039 180.715 149.696 179.058 149.696V152.696ZM179.058 155V158C180.715 158 182.058 156.657 182.058 155H179.058ZM161.238 155H158.238C158.238 156.657 159.582 158 161.238 158V155ZM161.238 129.8V126.8C159.582 126.8 158.238 128.143 158.238 129.8H161.238ZM178.518 129.8H181.518C181.518 128.143 180.175 126.8 178.518 126.8V129.8ZM178.518 132.104V135.104C180.175 135.104 181.518 133.761 181.518 132.104H178.518ZM163.902 132.104V129.104C162.246 129.104 160.902 130.447 160.902 132.104H163.902ZM163.902 141.068H160.902C160.902 142.725 162.246 144.068 163.902 144.068V141.068ZM176.934 141.068H179.934C179.934 139.411 178.591 138.068 176.934 138.068V141.068ZM176.934 143.336V146.336C178.591 146.336 179.934 144.993 179.934 143.336H176.934ZM163.902 143.336V140.336C162.246 140.336 160.902 141.679 160.902 143.336H163.902ZM163.902 152.696H160.902C160.902 154.353 162.246 155.696 163.902 155.696V152.696ZM176.058 152.696V155H182.058V152.696H176.058ZM179.058 152H161.238V158H179.058V152ZM164.238 155V129.8H158.238V155H164.238ZM161.238 132.8H178.518V126.8H161.238V132.8ZM175.518 129.8V132.104H181.518V129.8H175.518ZM178.518 129.104H163.902V135.104H178.518V129.104ZM160.902 132.104V141.068H166.902V132.104H160.902ZM163.902 144.068H176.934V138.068H163.902V144.068ZM173.934 141.068V143.336H179.934V141.068H173.934ZM176.934 140.336H163.902V146.336H176.934V140.336ZM160.902 143.336V152.696H166.902V143.336H160.902ZM163.902 155.696H179.058V149.696H163.902V155.696ZM209.98 129.8H212.98C212.98 128.143 211.637 126.8 209.98 126.8V129.8ZM209.98 155V158C211.637 158 212.98 156.657 212.98 155H209.98ZM207.784 155L205.433 156.863C206.002 157.581 206.868 158 207.784 158V155ZM191.584 134.552L193.936 132.689C193.143 131.688 191.804 131.299 190.598 131.719C189.392 132.138 188.584 133.275 188.584 134.552H191.584ZM191.584 155V158C193.241 158 194.584 156.657 194.584 155H191.584ZM188.92 155H185.92C185.92 156.657 187.264 158 188.92 158V155ZM188.92 129.8V126.8C187.264 126.8 185.92 128.143 185.92 129.8H188.92ZM191.116 129.8L193.466 127.935C192.897 127.218 192.032 126.8 191.116 126.8V129.8ZM207.352 150.248L205.003 152.113C205.796 153.113 207.135 153.501 208.34 153.081C209.545 152.661 210.352 151.524 210.352 150.248H207.352ZM207.352 129.8V126.8C205.696 126.8 204.352 128.143 204.352 129.8H207.352ZM206.98 129.8V155H212.98V129.8H206.98ZM209.98 152H207.784V158H209.98V152ZM210.136 153.137L193.936 132.689L189.233 136.415L205.433 156.863L210.136 153.137ZM188.584 134.552V155H194.584V134.552H188.584ZM191.584 152H188.92V158H191.584V152ZM191.92 155V129.8H185.92V155H191.92ZM188.92 132.8H191.116V126.8H188.92V132.8ZM188.767 131.665L205.003 152.113L209.702 148.383L193.466 127.935L188.767 131.665ZM210.352 150.248V129.8H204.352V150.248H210.352ZM207.352 132.8H209.98V126.8H207.352V132.8ZM226.702 132.104H229.702C229.702 130.447 228.358 129.104 226.702 129.104V132.104ZM217.846 132.104H214.846C214.846 133.761 216.189 135.104 217.846 135.104V132.104ZM217.846 129.8V126.8C216.189 126.8 214.846 128.143 214.846 129.8H217.846ZM238.222 129.8H241.222C241.222 128.143 239.878 126.8 238.222 126.8V129.8ZM238.222 132.104V135.104C239.878 135.104 241.222 133.761 241.222 132.104H238.222ZM229.366 132.104V129.104C227.709 129.104 226.366 130.447 226.366 132.104H229.366ZM229.366 155V158C231.022 158 232.366 156.657 232.366 155H229.366ZM226.702 155H223.702C223.702 156.657 225.045 158 226.702 158V155ZM226.702 129.104H217.846V135.104H226.702V129.104ZM220.846 132.104V129.8H214.846V132.104H220.846ZM217.846 132.8H238.222V126.8H217.846V132.8ZM235.222 129.8V132.104H241.222V129.8H235.222ZM238.222 129.104H229.366V135.104H238.222V129.104ZM226.366 132.104V155H232.366V132.104H226.366ZM229.366 152H226.702V158H229.366V152ZM229.702 155V132.104H223.702V155H229.702Z" fill="#FA668B"/>
<path d="M124.28 104.38H119.08V104H129.88V104.38H124.68V118H124.28V104.38ZM145.617 104V118H145.217V111.08H135.017V118H134.617V104H135.017V110.7H145.217V104H145.617ZM162.265 117.62V118H152.945V104H161.965V104.38H153.345V110.7H161.065V111.08H153.345V117.62H162.265Z" fill="#FA668B"/>
<path d="M124.28 104.38H126.28C126.28 103.275 125.385 102.38 124.28 102.38V104.38ZM119.08 104.38H117.08C117.08 105.485 117.975 106.38 119.08 106.38V104.38ZM119.08 104V102C117.975 102 117.08 102.895 117.08 104H119.08ZM129.88 104H131.88C131.88 102.895 130.985 102 129.88 102V104ZM129.88 104.38V106.38C130.985 106.38 131.88 105.485 131.88 104.38H129.88ZM124.68 104.38V102.38C123.575 102.38 122.68 103.275 122.68 104.38H124.68ZM124.68 118V120C125.785 120 126.68 119.105 126.68 118H124.68ZM124.28 118H122.28C122.28 119.105 123.175 120 124.28 120V118ZM124.28 102.38H119.08V106.38H124.28V102.38ZM121.08 104.38V104H117.08V104.38H121.08ZM119.08 106H129.88V102H119.08V106ZM127.88 104V104.38H131.88V104H127.88ZM129.88 102.38H124.68V106.38H129.88V102.38ZM122.68 104.38V118H126.68V104.38H122.68ZM124.68 116H124.28V120H124.68V116ZM126.28 118V104.38H122.28V118H126.28ZM145.617 104H147.617C147.617 102.895 146.722 102 145.617 102V104ZM145.617 118V120C146.722 120 147.617 119.105 147.617 118H145.617ZM145.217 118H143.217C143.217 119.105 144.112 120 145.217 120V118ZM145.217 111.08H147.217C147.217 109.975 146.322 109.08 145.217 109.08V111.08ZM135.017 111.08V109.08C133.912 109.08 133.017 109.975 133.017 111.08H135.017ZM135.017 118V120C136.122 120 137.017 119.105 137.017 118H135.017ZM134.617 118H132.617C132.617 119.105 133.512 120 134.617 120V118ZM134.617 104V102C133.512 102 132.617 102.895 132.617 104H134.617ZM135.017 104H137.017C137.017 102.895 136.122 102 135.017 102V104ZM135.017 110.7H133.017C133.017 111.805 133.912 112.7 135.017 112.7V110.7ZM145.217 110.7V112.7C146.322 112.7 147.217 111.805 147.217 110.7H145.217ZM145.217 104V102C144.112 102 143.217 102.895 143.217 104H145.217ZM143.617 104V118H147.617V104H143.617ZM145.617 116H145.217V120H145.617V116ZM147.217 118V111.08H143.217V118H147.217ZM145.217 109.08H135.017V113.08H145.217V109.08ZM133.017 111.08V118H137.017V111.08H133.017ZM135.017 116H134.617V120H135.017V116ZM136.617 118V104H132.617V118H136.617ZM134.617 106H135.017V102H134.617V106ZM133.017 104V110.7H137.017V104H133.017ZM135.017 112.7H145.217V108.7H135.017V112.7ZM147.217 110.7V104H143.217V110.7H147.217ZM145.217 106H145.617V102H145.217V106ZM162.265 117.62H164.265C164.265 116.515 163.37 115.62 162.265 115.62V117.62ZM162.265 118V120C163.37 120 164.265 119.105 164.265 118H162.265ZM152.945 118H150.945C150.945 119.105 151.841 120 152.945 120V118ZM152.945 104V102C151.841 102 150.945 102.895 150.945 104H152.945ZM161.965 104H163.965C163.965 102.895 163.07 102 161.965 102V104ZM161.965 104.38V106.38C163.07 106.38 163.965 105.485 163.965 104.38H161.965ZM153.345 104.38V102.38C152.241 102.38 151.345 103.275 151.345 104.38H153.345ZM153.345 110.7H151.345C151.345 111.805 152.241 112.7 153.345 112.7V110.7ZM161.065 110.7H163.065C163.065 109.595 162.17 108.7 161.065 108.7V110.7ZM161.065 111.08V113.08C162.17 113.08 163.065 112.185 163.065 111.08H161.065ZM153.345 111.08V109.08C152.241 109.08 151.345 109.975 151.345 111.08H153.345ZM153.345 117.62H151.345C151.345 118.725 152.241 119.62 153.345 119.62V117.62ZM160.265 117.62V118H164.265V117.62H160.265ZM162.265 116H152.945V120H162.265V116ZM154.945 118V104H150.945V118H154.945ZM152.945 106H161.965V102H152.945V106ZM159.965 104V104.38H163.965V104H159.965ZM161.965 102.38H153.345V106.38H161.965V102.38ZM151.345 104.38V110.7H155.345V104.38H151.345ZM153.345 112.7H161.065V108.7H153.345V112.7ZM159.065 110.7V111.08H163.065V110.7H159.065ZM161.065 109.08H153.345V113.08H161.065V109.08ZM151.345 111.08V117.62H155.345V111.08H151.345ZM153.345 119.62H162.265V115.62H153.345V119.62Z" fill="#FA668B"/>
<path d="M0 127L9.46667 128.736C18.9333 130.512 37.8667 133.984 56.8 134.469C75.7333 134.953 94.6667 132.37 113.6 135.761C132.533 139.112 151.467 148.398 170.4 150.295C189.333 152.152 208.267 146.661 227.2 143.876C246.133 141.13 265.067 141.13 274.533 141.13H284V322H274.533C265.067 322 246.133 322 227.2 322C208.267 322 189.333 322 170.4 322C151.467 322 132.533 322 113.6 322C94.6667 322 75.7333 322 56.8 322C37.8667 322 18.9333 322 9.46667 322H0V127Z" fill="#FA668B"/>
<path d="M0 170.555L9.46667 168.818C18.9333 167.041 37.8667 163.568 56.8 161.872C75.7333 160.176 94.6667 160.337 113.6 158.116C132.533 155.895 151.467 151.291 170.4 156.137C189.333 160.983 208.267 175.28 227.2 186.709C246.133 198.138 265.067 206.78 274.533 211.061L284 215.382V322H274.533C265.067 322 246.133 322 227.2 322C208.267 322 189.333 322 170.4 322C151.467 322 132.533 322 113.6 322C94.6667 322 75.7333 322 56.8 322C37.8667 322 18.9333 322 9.46667 322H0V170.555Z" fill="#FC557A"/>
<path d="M0 242.947L9.46667 241.737C18.9333 240.527 37.8667 238.107 56.8 235.203C75.7333 232.339 94.6667 228.951 113.6 225.926C132.533 222.901 151.467 220.239 170.4 219.674C189.333 219.15 208.267 220.763 227.2 218.021C246.133 215.238 265.067 208.139 274.533 204.549L284 201V322H274.533C265.067 322 246.133 322 227.2 322C208.267 322 189.333 322 170.4 322C151.467 322 132.533 322 113.6 322C94.6667 322 75.7333 322 56.8 322C37.8667 322 18.9333 322 9.46667 322H0V242.947Z" fill="#FD4267"/>
<path d="M0 241L9.46667 245.981C18.9333 251.003 37.8667 260.967 56.8 259.914C75.7333 258.82 94.6667 246.67 113.6 244.361C132.533 242.093 151.467 249.626 170.4 253.879C189.333 258.131 208.267 259.104 227.2 258.699C246.133 258.294 265.067 256.512 274.533 255.661L284 254.77V322H274.533C265.067 322 246.133 322 227.2 322C208.267 322 189.333 322 170.4 322C151.467 322 132.533 322 113.6 322C94.6667 322 75.7333 322 56.8 322C37.8667 322 18.9333 322 9.46667 322H0V241Z" fill="#FC2B53"/>
<path d="M0 287.127L9.46667 285.586C18.9333 284.004 37.8667 280.922 56.8 282.382C75.7333 283.883 94.6667 289.965 113.6 293.615C132.533 297.264 151.467 298.481 170.4 296.169C189.333 293.899 208.267 288.059 227.2 286.518C246.133 284.977 265.067 287.654 274.533 289.032L284 290.371V322H274.533C265.067 322 246.133 322 227.2 322C208.267 322 189.333 322 170.4 322C151.467 322 132.533 322 113.6 322C94.6667 322 75.7333 322 56.8 322C37.8667 322 18.9333 322 9.46667 322H0V287.127Z" fill="#F9003E"/>
<path d="M86.252 207.2C88.364 207.2 90.02 207.704 91.22 208.712C92.42 209.704 93.02 211.088 93.02 212.864C93.02 214.624 92.42 216.008 91.22 217.016C90.02 218.008 88.364 218.504 86.252 218.504H81.452V224H80.228V207.2H86.252ZM86.252 217.4C88.044 217.4 89.412 217.008 90.356 216.224C91.3 215.44 91.772 214.32 91.772 212.864C91.772 211.408 91.3 210.288 90.356 209.504C89.412 208.704 88.044 208.304 86.252 208.304H81.452V217.4H86.252ZM111.214 224L107.206 218.384C106.614 218.464 106.07 218.504 105.574 218.504H100.774V224H99.5499V207.2H105.574C107.686 207.2 109.342 207.704 110.542 208.712C111.742 209.704 112.342 211.088 112.342 212.864C112.342 214.192 111.998 215.312 111.31 216.224C110.638 217.12 109.67 217.752 108.406 218.12L112.606 224H111.214ZM105.574 217.424C107.366 217.424 108.734 217.032 109.678 216.248C110.622 215.448 111.094 214.32 111.094 212.864C111.094 211.408 110.622 210.288 109.678 209.504C108.734 208.704 107.366 208.304 105.574 208.304H100.774V217.424H105.574ZM130.815 222.896V224H119.223V207.2H130.455V208.304H120.447V214.928H129.399V216.008H120.447V222.896H130.815ZM142.094 224.12C140.862 224.12 139.686 223.912 138.566 223.496C137.462 223.064 136.598 222.512 135.974 221.84L136.526 220.928C137.118 221.552 137.91 222.064 138.902 222.464C139.91 222.848 140.966 223.04 142.07 223.04C143.67 223.04 144.878 222.736 145.694 222.128C146.51 221.52 146.918 220.728 146.918 219.752C146.918 219 146.702 218.4 146.27 217.952C145.838 217.504 145.302 217.16 144.662 216.92C144.022 216.68 143.158 216.432 142.07 216.176C140.838 215.872 139.846 215.576 139.094 215.288C138.358 215 137.726 214.56 137.198 213.968C136.686 213.36 136.43 212.552 136.43 211.544C136.43 210.728 136.646 209.984 137.078 209.312C137.51 208.624 138.166 208.08 139.046 207.68C139.942 207.28 141.054 207.08 142.382 207.08C143.31 207.08 144.222 207.216 145.118 207.488C146.014 207.76 146.79 208.128 147.446 208.592L146.99 209.576C146.318 209.112 145.574 208.76 144.758 208.52C143.958 208.28 143.166 208.16 142.382 208.16C140.83 208.16 139.654 208.472 138.854 209.096C138.054 209.72 137.654 210.528 137.654 211.52C137.654 212.272 137.87 212.872 138.302 213.32C138.734 213.768 139.27 214.112 139.91 214.352C140.55 214.592 141.422 214.848 142.526 215.12C143.758 215.424 144.742 215.72 145.478 216.008C146.214 216.296 146.838 216.736 147.35 217.328C147.878 217.904 148.142 218.688 148.142 219.68C148.142 220.496 147.918 221.24 147.47 221.912C147.038 222.584 146.366 223.12 145.454 223.52C144.542 223.92 143.422 224.12 142.094 224.12ZM166.295 222.896V224H154.703V207.2H165.935V208.304H155.927V214.928H164.879V216.008H155.927V222.896H166.295ZM186.838 207.2V224H185.83L174.382 209.408V224H173.158V207.2H174.19L185.614 221.792V207.2H186.838ZM198.321 208.304H192.273V207.2H205.593V208.304H199.545V224H198.321V208.304Z" fill="white"/>
<path d="M91.22 208.712L89.7728 210.435C89.7773 210.439 89.7819 210.442 89.7864 210.446L91.22 208.712ZM91.22 217.016L92.6536 218.75C92.6581 218.746 92.6627 218.743 92.6672 218.739L91.22 217.016ZM81.452 218.504V216.254C80.2094 216.254 79.202 217.261 79.202 218.504H81.452ZM81.452 224V226.25C82.6946 226.25 83.702 225.243 83.702 224H81.452ZM80.228 224H77.978C77.978 225.243 78.9854 226.25 80.228 226.25V224ZM80.228 207.2V204.95C78.9854 204.95 77.978 205.957 77.978 207.2H80.228ZM90.356 216.224L91.7935 217.955L90.356 216.224ZM90.356 209.504L88.9013 211.221C88.907 211.225 88.9127 211.23 88.9185 211.235L90.356 209.504ZM81.452 208.304V206.054C80.2094 206.054 79.202 207.061 79.202 208.304H81.452ZM81.452 217.4H79.202C79.202 218.643 80.2094 219.65 81.452 219.65V217.4ZM86.252 209.45C88.0193 209.45 89.1001 209.87 89.7728 210.435L92.6672 206.989C90.9399 205.538 88.7087 204.95 86.252 204.95V209.45ZM89.7864 210.446C90.3929 210.948 90.77 211.653 90.77 212.864H95.27C95.27 210.523 94.4471 208.46 92.6536 206.978L89.7864 210.446ZM90.77 212.864C90.77 214.051 90.3975 214.768 89.7728 215.293L92.6672 218.739C94.4426 217.248 95.27 215.197 95.27 212.864H90.77ZM89.7864 215.282C89.1132 215.838 88.0271 216.254 86.252 216.254V220.754C88.7009 220.754 90.9268 220.178 92.6536 218.75L89.7864 215.282ZM86.252 216.254H81.452V220.754H86.252V216.254ZM79.202 218.504V224H83.702V218.504H79.202ZM81.452 221.75H80.228V226.25H81.452V221.75ZM82.478 224V207.2H77.978V224H82.478ZM80.228 209.45H86.252V204.95H80.228V209.45ZM86.252 219.65C88.334 219.65 90.2957 219.199 91.7935 217.955L88.9185 214.493C88.5284 214.817 87.754 215.15 86.252 215.15V219.65ZM91.7935 217.955C93.3499 216.662 94.022 214.851 94.022 212.864H89.522C89.522 213.789 89.2501 214.218 88.9185 214.493L91.7935 217.955ZM94.022 212.864C94.022 210.877 93.3499 209.066 91.7935 207.773L88.9185 211.235C89.2501 211.51 89.522 211.939 89.522 212.864H94.022ZM91.8107 207.787C90.3119 206.517 88.3431 206.054 86.252 206.054V210.554C87.7449 210.554 88.5121 210.891 88.9013 211.221L91.8107 207.787ZM86.252 206.054H81.452V210.554H86.252V206.054ZM79.202 208.304V217.4H83.702V208.304H79.202ZM81.452 219.65H86.252V215.15H81.452V219.65ZM111.214 224L109.382 225.307C109.805 225.899 110.487 226.25 111.214 226.25V224ZM107.206 218.384L109.037 217.077C108.553 216.398 107.732 216.043 106.905 216.154L107.206 218.384ZM100.774 218.504V216.254C99.5312 216.254 98.5239 217.261 98.5239 218.504H100.774ZM100.774 224V226.25C102.017 226.25 103.024 225.243 103.024 224H100.774ZM99.5499 224H97.2999C97.2999 225.243 98.3072 226.25 99.5499 226.25V224ZM99.5499 207.2V204.95C98.3072 204.95 97.2999 205.957 97.2999 207.2H99.5499ZM110.542 208.712L109.095 210.435C109.099 210.439 109.104 210.442 109.108 210.446L110.542 208.712ZM111.31 216.224L109.514 214.869L109.51 214.874L111.31 216.224ZM108.406 218.12L107.777 215.96C107.077 216.164 106.519 216.694 106.28 217.383C106.041 218.072 106.151 218.834 106.575 219.428L108.406 218.12ZM112.606 224V226.25C113.449 226.25 114.221 225.779 114.607 225.03C114.992 224.28 114.927 223.378 114.437 222.692L112.606 224ZM109.678 216.248L111.115 217.979C111.121 217.974 111.127 217.969 111.133 217.965L109.678 216.248ZM109.678 209.504L108.223 211.221C108.229 211.225 108.235 211.23 108.24 211.235L109.678 209.504ZM100.774 208.304V206.054C99.5312 206.054 98.5239 207.061 98.5239 208.304H100.774ZM100.774 217.424H98.5239C98.5239 218.667 99.5312 219.674 100.774 219.674V217.424ZM113.045 222.693L109.037 217.077L105.374 219.691L109.382 225.307L113.045 222.693ZM106.905 216.154C106.393 216.223 105.951 216.254 105.574 216.254V220.754C106.189 220.754 106.835 220.705 107.507 220.614L106.905 216.154ZM105.574 216.254H100.774V220.754H105.574V216.254ZM98.5239 218.504V224H103.024V218.504H98.5239ZM100.774 221.75H99.5499V226.25H100.774V221.75ZM101.8 224V207.2H97.2999V224H101.8ZM99.5499 209.45H105.574V204.95H99.5499V209.45ZM105.574 209.45C107.341 209.45 108.422 209.87 109.095 210.435L111.989 206.989C110.262 205.538 108.031 204.95 105.574 204.95V209.45ZM109.108 210.446C109.715 210.948 110.092 211.653 110.092 212.864H114.592C114.592 210.523 113.769 208.46 111.975 206.978L109.108 210.446ZM110.092 212.864C110.092 213.786 109.861 214.408 109.514 214.869L113.106 217.579C114.135 216.216 114.592 214.598 114.592 212.864H110.092ZM109.51 214.874C109.179 215.315 108.658 215.703 107.777 215.96L109.035 220.28C110.682 219.801 112.097 218.925 113.11 217.574L109.51 214.874ZM106.575 219.428L110.775 225.308L114.437 222.692L110.237 216.812L106.575 219.428ZM112.606 221.75H111.214V226.25H112.606V221.75ZM105.574 219.674C107.656 219.674 109.618 219.223 111.115 217.979L108.24 214.517C107.85 214.841 107.076 215.174 105.574 215.174V219.674ZM111.133 217.965C112.672 216.66 113.344 214.852 113.344 212.864H108.844C108.844 213.788 108.572 214.236 108.223 214.531L111.133 217.965ZM113.344 212.864C113.344 210.877 112.672 209.066 111.115 207.773L108.24 211.235C108.572 211.51 108.844 211.939 108.844 212.864H113.344ZM111.133 207.787C109.634 206.517 107.665 206.054 105.574 206.054V210.554C107.067 210.554 107.834 210.891 108.223 211.221L111.133 207.787ZM105.574 206.054H100.774V210.554H105.574V206.054ZM98.5239 208.304V217.424H103.024V208.304H98.5239ZM100.774 219.674H105.574V215.174H100.774V219.674ZM130.815 222.896H133.065C133.065 221.653 132.058 220.646 130.815 220.646V222.896ZM130.815 224V226.25C132.058 226.25 133.065 225.243 133.065 224H130.815ZM119.223 224H116.973C116.973 225.243 117.981 226.25 119.223 226.25V224ZM119.223 207.2V204.95C117.981 204.95 116.973 205.957 116.973 207.2H119.223ZM130.455 207.2H132.705C132.705 205.957 131.698 204.95 130.455 204.95V207.2ZM130.455 208.304V210.554C131.698 210.554 132.705 209.547 132.705 208.304H130.455ZM120.447 208.304V206.054C119.205 206.054 118.197 207.061 118.197 208.304H120.447ZM120.447 214.928H118.197C118.197 216.171 119.205 217.178 120.447 217.178V214.928ZM129.399 214.928H131.649C131.649 213.685 130.642 212.678 129.399 212.678V214.928ZM129.399 216.008V218.258C130.642 218.258 131.649 217.251 131.649 216.008H129.399ZM120.447 216.008V213.758C119.205 213.758 118.197 214.765 118.197 216.008H120.447ZM120.447 222.896H118.197C118.197 224.139 119.205 225.146 120.447 225.146V222.896ZM128.565 222.896V224H133.065V222.896H128.565ZM130.815 221.75H119.223V226.25H130.815V221.75ZM121.473 224V207.2H116.973V224H121.473ZM119.223 209.45H130.455V204.95H119.223V209.45ZM128.205 207.2V208.304H132.705V207.2H128.205ZM130.455 206.054H120.447V210.554H130.455V206.054ZM118.197 208.304V214.928H122.697V208.304H118.197ZM120.447 217.178H129.399V212.678H120.447V217.178ZM127.149 214.928V216.008H131.649V214.928H127.149ZM129.399 213.758H120.447V218.258H129.399V213.758ZM118.197 216.008V222.896H122.697V216.008H118.197ZM120.447 225.146H130.815V220.646H120.447V225.146ZM138.566 223.496L137.746 225.591C137.758 225.596 137.77 225.601 137.783 225.605L138.566 223.496ZM135.974 221.84L134.049 220.675C133.529 221.534 133.642 222.635 134.325 223.371L135.974 221.84ZM136.526 220.928L138.158 219.379C137.675 218.87 136.982 218.616 136.285 218.691C135.587 218.766 134.964 219.163 134.601 219.763L136.526 220.928ZM138.902 222.464L138.061 224.551C138.074 224.556 138.087 224.561 138.101 224.567L138.902 222.464ZM145.694 222.128L147.038 223.932L145.694 222.128ZM144.662 216.92L145.452 214.813L144.662 216.92ZM142.07 216.176L141.531 218.36C141.539 218.362 141.547 218.364 141.555 218.366L142.07 216.176ZM139.094 215.288L138.274 217.383C138.279 217.385 138.284 217.387 138.289 217.389L139.094 215.288ZM137.198 213.968L135.477 215.417C135.491 215.434 135.505 215.45 135.519 215.466L137.198 213.968ZM137.078 209.312L138.971 210.529C138.975 210.522 138.979 210.515 138.984 210.508L137.078 209.312ZM139.046 207.68L138.129 205.625C138.124 205.628 138.12 205.63 138.115 205.632L139.046 207.68ZM145.118 207.488L144.464 209.641L145.118 207.488ZM147.446 208.592L149.487 209.538C149.944 208.553 149.632 207.382 148.745 206.755L147.446 208.592ZM146.99 209.576L145.712 211.428C146.258 211.804 146.942 211.921 147.582 211.747C148.222 211.572 148.753 211.124 149.031 210.522L146.99 209.576ZM144.758 208.52L144.111 210.675L144.123 210.679L144.758 208.52ZM138.854 209.096L137.47 207.322L138.854 209.096ZM138.302 213.32L136.682 214.882L138.302 213.32ZM139.91 214.352L139.12 216.459L139.91 214.352ZM142.526 215.12L143.065 212.936L143.064 212.935L142.526 215.12ZM145.478 216.008L144.658 218.103L145.478 216.008ZM147.35 217.328L145.648 218.8C145.662 218.816 145.677 218.832 145.691 218.848L147.35 217.328ZM147.47 221.912L145.598 220.664C145.591 220.674 145.584 220.685 145.577 220.695L147.47 221.912ZM145.454 223.52L144.55 221.459L145.454 223.52ZM142.094 221.87C141.121 221.87 140.211 221.707 139.349 221.387L137.783 225.605C139.161 226.117 140.603 226.37 142.094 226.37V221.87ZM139.386 221.401C138.508 221.057 137.959 220.671 137.623 220.309L134.325 223.371C135.237 224.353 136.416 225.071 137.746 225.591L139.386 221.401ZM137.899 223.005L138.451 222.093L134.601 219.763L134.049 220.675L137.899 223.005ZM134.894 222.477C135.755 223.384 136.84 224.059 138.061 224.551L139.743 220.377C138.98 220.069 138.481 219.72 138.158 219.379L134.894 222.477ZM138.101 224.567C139.371 225.05 140.699 225.29 142.07 225.29V220.79C141.233 220.79 140.449 220.646 139.703 220.361L138.101 224.567ZM142.07 225.29C143.896 225.29 145.668 224.953 147.038 223.932L144.35 220.324C144.088 220.519 143.444 220.79 142.07 220.79V225.29ZM147.038 223.932C148.396 222.921 149.168 221.473 149.168 219.752H144.668C144.668 219.983 144.624 220.119 144.35 220.324L147.038 223.932ZM149.168 219.752C149.168 218.546 148.807 217.342 147.89 216.39L144.65 219.514C144.648 219.512 144.644 219.506 144.64 219.5C144.636 219.493 144.636 219.492 144.639 219.5C144.645 219.516 144.668 219.59 144.668 219.752H149.168ZM147.89 216.39C147.203 215.678 146.374 215.159 145.452 214.813L143.872 219.027C144.23 219.161 144.473 219.33 144.65 219.514L147.89 216.39ZM145.452 214.813C144.684 214.525 143.716 214.252 142.585 213.986L141.555 218.366C142.6 218.612 143.36 218.835 143.872 219.027L145.452 214.813ZM142.609 213.992C141.422 213.699 140.529 213.428 139.899 213.187L138.289 217.389C139.163 217.724 140.254 218.045 141.531 218.36L142.609 213.992ZM139.914 213.193C139.509 213.034 139.171 212.799 138.877 212.47L135.519 215.466C136.281 216.321 137.207 216.966 138.274 217.383L139.914 213.193ZM138.919 212.519C138.832 212.415 138.68 212.167 138.68 211.544H134.18C134.18 212.937 134.54 214.305 135.477 215.417L138.919 212.519ZM138.68 211.544C138.68 211.15 138.777 210.83 138.971 210.529L135.185 208.095C134.515 209.138 134.18 210.306 134.18 211.544H138.68ZM138.984 210.508C139.14 210.26 139.421 209.981 139.977 209.728L138.115 205.632C136.911 206.179 135.88 206.988 135.173 208.116L138.984 210.508ZM139.963 209.735C140.488 209.5 141.265 209.33 142.382 209.33V204.83C140.843 204.83 139.396 205.06 138.129 205.625L139.963 209.735ZM142.382 209.33C143.087 209.33 143.778 209.433 144.464 209.641L145.772 205.335C144.666 204.999 143.533 204.83 142.382 204.83V209.33ZM144.464 209.641C145.167 209.854 145.717 210.125 146.147 210.429L148.745 206.755C147.863 206.131 146.861 205.666 145.772 205.335L144.464 209.641ZM145.405 207.646L144.949 208.63L149.031 210.522L149.487 209.538L145.405 207.646ZM148.268 207.724C147.392 207.119 146.429 206.666 145.393 206.361L144.123 210.679C144.719 210.854 145.244 211.105 145.712 211.428L148.268 207.724ZM145.405 206.365C144.408 206.066 143.399 205.91 142.382 205.91V210.41C142.933 210.41 143.508 210.494 144.111 210.675L145.405 206.365ZM142.382 205.91C140.58 205.91 138.826 206.264 137.47 207.322L140.238 210.87C140.482 210.68 141.08 210.41 142.382 210.41V205.91ZM137.47 207.322C136.138 208.361 135.404 209.817 135.404 211.52H139.904C139.904 211.239 139.97 211.079 140.238 210.87L137.47 207.322ZM135.404 211.52C135.404 212.726 135.765 213.93 136.682 214.882L139.922 211.758C139.924 211.76 139.928 211.766 139.932 211.772C139.936 211.779 139.936 211.78 139.933 211.772C139.927 211.756 139.904 211.682 139.904 211.52H135.404ZM136.682 214.882C137.369 215.594 138.198 216.113 139.12 216.459L140.7 212.245C140.342 212.111 140.099 211.942 139.922 211.758L136.682 214.882ZM139.12 216.459C139.878 216.743 140.846 217.023 141.988 217.305L143.064 212.935C141.998 212.673 141.222 212.441 140.7 212.245L139.12 216.459ZM141.987 217.304C143.173 217.597 144.051 217.866 144.658 218.103L146.298 213.913C145.433 213.574 144.343 213.251 143.065 212.936L141.987 217.304ZM144.658 218.103C145.057 218.26 145.378 218.487 145.648 218.8L149.052 215.856C148.298 214.985 147.371 214.332 146.298 213.913L144.658 218.103ZM145.691 218.848C145.745 218.906 145.892 219.094 145.892 219.68H150.392C150.392 218.282 150.011 216.902 149.009 215.808L145.691 218.848ZM145.892 219.68C145.892 220.057 145.797 220.366 145.598 220.664L149.342 223.16C150.039 222.114 150.392 220.935 150.392 219.68H145.892ZM145.577 220.695C145.438 220.912 145.157 221.193 144.55 221.459L146.358 225.581C147.575 225.047 148.638 224.256 149.363 223.129L145.577 220.695ZM144.55 221.459C144.001 221.7 143.209 221.87 142.094 221.87V226.37C143.635 226.37 145.083 226.14 146.358 225.581L144.55 221.459ZM166.295 222.896H168.545C168.545 221.653 167.538 220.646 166.295 220.646V222.896ZM166.295 224V226.25C167.538 226.25 168.545 225.243 168.545 224H166.295ZM154.703 224H152.453C152.453 225.243 153.46 226.25 154.703 226.25V224ZM154.703 207.2V204.95C153.46 204.95 152.453 205.957 152.453 207.2H154.703ZM165.935 207.2H168.185C168.185 205.957 167.178 204.95 165.935 204.95V207.2ZM165.935 208.304V210.554C167.178 210.554 168.185 209.547 168.185 208.304H165.935ZM155.927 208.304V206.054C154.684 206.054 153.677 207.061 153.677 208.304H155.927ZM155.927 214.928H153.677C153.677 216.171 154.684 217.178 155.927 217.178V214.928ZM164.879 214.928H167.129C167.129 213.685 166.122 212.678 164.879 212.678V214.928ZM164.879 216.008V218.258C166.122 218.258 167.129 217.251 167.129 216.008H164.879ZM155.927 216.008V213.758C154.684 213.758 153.677 214.765 153.677 216.008H155.927ZM155.927 222.896H153.677C153.677 224.139 154.684 225.146 155.927 225.146V222.896ZM164.045 222.896V224H168.545V222.896H164.045ZM166.295 221.75H154.703V226.25H166.295V221.75ZM156.953 224V207.2H152.453V224H156.953ZM154.703 209.45H165.935V204.95H154.703V209.45ZM163.685 207.2V208.304H168.185V207.2H163.685ZM165.935 206.054H155.927V210.554H165.935V206.054ZM153.677 208.304V214.928H158.177V208.304H153.677ZM155.927 217.178H164.879V212.678H155.927V217.178ZM162.629 214.928V216.008H167.129V214.928H162.629ZM164.879 213.758H155.927V218.258H164.879V213.758ZM153.677 216.008V222.896H158.177V216.008H153.677ZM155.927 225.146H166.295V220.646H155.927V225.146ZM186.838 207.2H189.088C189.088 205.957 188.08 204.95 186.838 204.95V207.2ZM186.838 224V226.25C188.08 226.25 189.088 225.243 189.088 224H186.838ZM185.83 224L184.059 225.389C184.486 225.932 185.139 226.25 185.83 226.25V224ZM174.382 209.408L176.152 208.019C175.56 207.264 174.554 206.968 173.647 207.281C172.74 207.595 172.132 208.449 172.132 209.408H174.382ZM174.382 224V226.25C175.624 226.25 176.632 225.243 176.632 224H174.382ZM173.158 224H170.908C170.908 225.243 171.915 226.25 173.158 226.25V224ZM173.158 207.2V204.95C171.915 204.95 170.908 205.957 170.908 207.2H173.158ZM174.19 207.2L175.961 205.813C175.535 205.268 174.882 204.95 174.19 204.95V207.2ZM185.614 221.792L183.842 223.179C184.434 223.935 185.44 224.232 186.347 223.919C187.255 223.606 187.864 222.752 187.864 221.792H185.614ZM185.614 207.2V204.95C184.371 204.95 183.364 205.957 183.364 207.2H185.614ZM184.588 207.2V224H189.088V207.2H184.588ZM186.838 221.75H185.83V226.25H186.838V221.75ZM187.6 222.611L176.152 208.019L172.611 210.797L184.059 225.389L187.6 222.611ZM172.132 209.408V224H176.632V209.408H172.132ZM174.382 221.75H173.158V226.25H174.382V221.75ZM175.408 224V207.2H170.908V224H175.408ZM173.158 209.45H174.19V204.95H173.158V209.45ZM172.418 208.587L183.842 223.179L187.385 220.405L175.961 205.813L172.418 208.587ZM187.864 221.792V207.2H183.364V221.792H187.864ZM185.614 209.45H186.838V204.95H185.614V209.45ZM198.321 208.304H200.571C200.571 207.061 199.563 206.054 198.321 206.054V208.304ZM192.273 208.304H190.023C190.023 209.547 191.03 210.554 192.273 210.554V208.304ZM192.273 207.2V204.95C191.03 204.95 190.023 205.957 190.023 207.2H192.273ZM205.593 207.2H207.843C207.843 205.957 206.835 204.95 205.593 204.95V207.2ZM205.593 208.304V210.554C206.835 210.554 207.843 209.547 207.843 208.304H205.593ZM199.545 208.304V206.054C198.302 206.054 197.295 207.061 197.295 208.304H199.545ZM199.545 224V226.25C200.787 226.25 201.795 225.243 201.795 224H199.545ZM198.321 224H196.071C196.071 225.243 197.078 226.25 198.321 226.25V224ZM198.321 206.054H192.273V210.554H198.321V206.054ZM194.523 208.304V207.2H190.023V208.304H194.523ZM192.273 209.45H205.593V204.95H192.273V209.45ZM203.343 207.2V208.304H207.843V207.2H203.343ZM205.593 206.054H199.545V210.554H205.593V206.054ZM197.295 208.304V224H201.795V208.304H197.295ZM199.545 221.75H198.321V226.25H199.545V221.75ZM200.571 224V208.304H196.071V224H200.571Z" fill="white"/>
<g style="mix-blend-mode:soft-light">
<path d="M45 192.5H239" stroke="white"/>
</g>
<path d="M122.897 202.077L127.125 200.538" stroke="white" stroke-width="3" stroke-linecap="round"/>
<mask id="mask0_157_2050" style="mask-type:alpha" maskUnits="userSpaceOnUse" x="46" y="126" width="196" height="57">
<path d="M58.536 129.8C61.752 129.8 64.272 130.568 66.096 132.104C67.92 133.64 68.832 135.752 68.832 138.44C68.832 141.128 67.92 143.24 66.096 144.776C64.272 146.288 61.752 147.044 58.536 147.044H51.768V155H49.104V129.8H58.536ZM58.464 144.704C60.96 144.704 62.868 144.164 64.188 143.084C65.508 141.98 66.168 140.432 66.168 138.44C66.168 136.4 65.508 134.84 64.188 133.76C62.868 132.656 60.96 132.104 58.464 132.104H51.768V144.704H58.464ZM95.4003 155L89.6403 146.9C88.9923 146.972 88.3203 147.008 87.6243 147.008H80.8563V155H78.1923V129.8H87.6243C90.8403 129.8 93.3603 130.568 95.1843 132.104C97.0083 133.64 97.9203 135.752 97.9203 138.44C97.9203 140.408 97.4163 142.076 96.4083 143.444C95.4243 144.788 94.0083 145.76 92.1603 146.36L98.3163 155H95.4003ZM87.5523 144.74C90.0483 144.74 91.9563 144.188 93.2763 143.084C94.5963 141.98 95.2563 140.432 95.2563 138.44C95.2563 136.4 94.5963 134.84 93.2763 133.76C91.9563 132.656 90.0483 132.104 87.5523 132.104H80.8563V144.74H87.5523ZM125.628 152.696V155H107.808V129.8H125.088V132.104H110.472V141.068H123.504V143.336H110.472V152.696H125.628ZM142.438 155.216C140.566 155.216 138.766 154.916 137.038 154.316C135.334 153.716 134.014 152.924 133.078 151.94L134.122 149.888C135.034 150.8 136.246 151.544 137.758 152.12C139.27 152.672 140.83 152.948 142.438 152.948C144.694 152.948 146.386 152.54 147.514 151.724C148.642 150.884 149.206 149.804 149.206 148.484C149.206 147.476 148.894 146.672 148.27 146.072C147.67 145.472 146.926 145.016 146.038 144.704C145.15 144.368 143.914 144.008 142.33 143.624C140.434 143.144 138.922 142.688 137.794 142.256C136.666 141.8 135.694 141.116 134.878 140.204C134.086 139.292 133.69 138.056 133.69 136.496C133.69 135.224 134.026 134.072 134.698 133.04C135.37 131.984 136.402 131.144 137.794 130.52C139.186 129.896 140.914 129.584 142.978 129.584C144.418 129.584 145.822 129.788 147.19 130.196C148.582 130.58 149.782 131.12 150.79 131.816L149.89 133.94C148.834 133.244 147.706 132.728 146.506 132.392C145.306 132.032 144.13 131.852 142.978 131.852C140.77 131.852 139.102 132.284 137.974 133.148C136.87 133.988 136.318 135.08 136.318 136.424C136.318 137.432 136.618 138.248 137.218 138.872C137.842 139.472 138.61 139.94 139.522 140.276C140.458 140.588 141.706 140.936 143.266 141.32C145.114 141.776 146.602 142.232 147.73 142.688C148.882 143.12 149.854 143.792 150.646 144.704C151.438 145.592 151.834 146.804 151.834 148.34C151.834 149.612 151.486 150.776 150.79 151.832C150.118 152.864 149.074 153.692 147.658 154.316C146.242 154.916 144.502 155.216 142.438 155.216ZM179.058 152.696V155H161.238V129.8H178.518V132.104H163.902V141.068H176.934V143.336H163.902V152.696H179.058ZM209.98 129.8V155H207.784L191.584 134.552V155H188.92V129.8H191.116L207.352 150.248V129.8H209.98ZM226.702 132.104H217.846V129.8H238.222V132.104H229.366V155H226.702V132.104Z" fill="white"/>
<path d="M66.096 132.104L64.1636 134.399L66.096 132.104ZM66.096 144.776L68.0106 147.086C68.0165 147.081 68.0225 147.076 68.0284 147.071L66.096 144.776ZM51.768 147.044V144.044C50.1111 144.044 48.768 145.387 48.768 147.044H51.768ZM51.768 155V158C53.4249 158 54.768 156.657 54.768 155H51.768ZM49.104 155H46.104C46.104 156.657 47.4471 158 49.104 158V155ZM49.104 129.8V126.8C47.4471 126.8 46.104 128.143 46.104 129.8H49.104ZM64.188 143.084L66.0877 145.406C66.0961 145.399 66.1044 145.392 66.1127 145.385L64.188 143.084ZM64.188 133.76L62.2633 136.061C62.2716 136.068 62.2799 136.075 62.2883 136.082L64.188 133.76ZM51.768 132.104V129.104C50.1111 129.104 48.768 130.447 48.768 132.104H51.768ZM51.768 144.704H48.768C48.768 146.361 50.1111 147.704 51.768 147.704V144.704ZM58.536 132.8C61.2923 132.8 63.0436 133.456 64.1636 134.399L68.0284 129.809C65.5004 127.68 62.2117 126.8 58.536 126.8V132.8ZM64.1636 134.399C65.2196 135.288 65.832 136.511 65.832 138.44H71.832C71.832 134.993 70.6204 131.992 68.0284 129.809L64.1636 134.399ZM65.832 138.44C65.832 140.369 65.2196 141.592 64.1636 142.481L68.0284 147.071C70.6204 144.888 71.832 141.887 71.832 138.44H65.832ZM64.1814 142.466C63.0608 143.395 61.3026 144.044 58.536 144.044V150.044C62.2014 150.044 65.4832 149.181 68.0106 147.086L64.1814 142.466ZM58.536 144.044H51.768V150.044H58.536V144.044ZM48.768 147.044V155H54.768V147.044H48.768ZM51.768 152H49.104V158H51.768V152ZM52.104 155V129.8H46.104V155H52.104ZM49.104 132.8H58.536V126.8H49.104V132.8ZM58.464 147.704C61.3412 147.704 64.0322 147.088 66.0877 145.406L62.2883 140.762C61.7038 141.24 60.5788 141.704 58.464 141.704V147.704ZM66.1127 145.385C68.2255 143.618 69.168 141.164 69.168 138.44H63.168C63.168 139.7 62.7905 140.342 62.2633 140.783L66.1127 145.385ZM69.168 138.44C69.168 135.696 68.2425 133.201 66.0877 131.438L62.2883 136.082C62.7735 136.479 63.168 137.104 63.168 138.44H69.168ZM66.1127 131.459C64.0555 129.738 61.3542 129.104 58.464 129.104V135.104C60.5658 135.104 61.6805 135.574 62.2633 136.061L66.1127 131.459ZM58.464 129.104H51.768V135.104H58.464V129.104ZM48.768 132.104V144.704H54.768V132.104H48.768ZM51.768 147.704H58.464V141.704H51.768V147.704ZM95.4003 155L92.9554 156.739C93.5182 157.53 94.4292 158 95.4003 158V155ZM89.6403 146.9L92.0851 145.161C91.454 144.274 90.3914 143.798 89.309 143.918L89.6403 146.9ZM80.8563 147.008V144.008C79.1994 144.008 77.8563 145.351 77.8563 147.008H80.8563ZM80.8563 155V158C82.5131 158 83.8563 156.657 83.8563 155H80.8563ZM78.1923 155H75.1923C75.1923 156.657 76.5354 158 78.1923 158V155ZM78.1923 129.8V126.8C76.5354 126.8 75.1923 128.143 75.1923 129.8H78.1923ZM95.1843 132.104L93.2519 134.399L95.1843 132.104ZM96.4083 143.444L93.9931 141.664L93.9877 141.672L96.4083 143.444ZM92.1603 146.36L91.2339 143.507C90.325 143.802 89.6111 144.512 89.3115 145.419C89.012 146.327 89.1625 147.323 89.717 148.101L92.1603 146.36ZM98.3163 155V158C99.4394 158 100.468 157.373 100.983 156.374C101.497 155.376 101.411 154.174 100.76 153.259L98.3163 155ZM93.2763 143.084L95.2009 145.385L93.2763 143.084ZM93.2763 133.76L91.3516 136.061C91.3599 136.068 91.3682 136.075 91.3766 136.082L93.2763 133.76ZM80.8563 132.104V129.104C79.1994 129.104 77.8563 130.447 77.8563 132.104H80.8563ZM80.8563 144.74H77.8563C77.8563 146.397 79.1994 147.74 80.8563 147.74V144.74ZM97.8451 153.261L92.0851 145.161L87.1954 148.639L92.9554 156.739L97.8451 153.261ZM89.309 143.918C88.7781 143.977 88.217 144.008 87.6243 144.008V150.008C88.4236 150.008 89.2065 149.967 89.9716 149.882L89.309 143.918ZM87.6243 144.008H80.8563V150.008H87.6243V144.008ZM77.8563 147.008V155H83.8563V147.008H77.8563ZM80.8563 152H78.1923V158H80.8563V152ZM81.1923 155V129.8H75.1923V155H81.1923ZM78.1923 132.8H87.6243V126.8H78.1923V132.8ZM87.6243 132.8C90.3806 132.8 92.1319 133.456 93.2519 134.399L97.1167 129.809C94.5887 127.68 91.3 126.8 87.6243 126.8V132.8ZM93.2519 134.399C94.3079 135.288 94.9203 136.511 94.9203 138.44H100.92C100.92 134.993 99.7086 131.992 97.1167 129.809L93.2519 134.399ZM94.9203 138.44C94.9203 139.873 94.5633 140.891 93.9931 141.664L98.8234 145.224C100.269 143.261 100.92 140.943 100.92 138.44H94.9203ZM93.9877 141.672C93.4351 142.427 92.5856 143.068 91.2339 143.507L93.0867 149.213C95.4309 148.452 97.4135 147.149 98.8289 145.216L93.9877 141.672ZM89.717 148.101L95.873 156.741L100.76 153.259L94.6035 144.619L89.717 148.101ZM98.3163 152H95.4003V158H98.3163V152ZM87.5523 147.74C90.4425 147.74 93.1438 147.106 95.2009 145.385L91.3516 140.783C90.7688 141.27 89.654 141.74 87.5523 141.74V147.74ZM95.2009 145.385C97.3138 143.618 98.2563 141.164 98.2563 138.44H92.2563C92.2563 139.7 91.8788 140.342 91.3516 140.783L95.2009 145.385ZM98.2563 138.44C98.2563 135.696 97.3308 133.201 95.176 131.438L91.3766 136.082C91.8618 136.479 92.2563 137.104 92.2563 138.44H98.2563ZM95.2009 131.459C93.1438 129.738 90.4425 129.104 87.5523 129.104V135.104C89.654 135.104 90.7688 135.574 91.3516 136.061L95.2009 131.459ZM87.5523 129.104H80.8563V135.104H87.5523V129.104ZM77.8563 132.104V144.74H83.8563V132.104H77.8563ZM80.8563 147.74H87.5523V141.74H80.8563V147.74ZM125.628 152.696H128.628C128.628 151.039 127.285 149.696 125.628 149.696V152.696ZM125.628 155V158C127.285 158 128.628 156.657 128.628 155H125.628ZM107.808 155H104.808C104.808 156.657 106.151 158 107.808 158V155ZM107.808 129.8V126.8C106.151 126.8 104.808 128.143 104.808 129.8H107.808ZM125.088 129.8H128.088C128.088 128.143 126.745 126.8 125.088 126.8V129.8ZM125.088 132.104V135.104C126.745 135.104 128.088 133.761 128.088 132.104H125.088ZM110.472 132.104V129.104C108.815 129.104 107.472 130.447 107.472 132.104H110.472ZM110.472 141.068H107.472C107.472 142.725 108.815 144.068 110.472 144.068V141.068ZM123.504 141.068H126.504C126.504 139.411 125.161 138.068 123.504 138.068V141.068ZM123.504 143.336V146.336C125.161 146.336 126.504 144.993 126.504 143.336H123.504ZM110.472 143.336V140.336C108.815 140.336 107.472 141.679 107.472 143.336H110.472ZM110.472 152.696H107.472C107.472 154.353 108.815 155.696 110.472 155.696V152.696ZM122.628 152.696V155H128.628V152.696H122.628ZM125.628 152H107.808V158H125.628V152ZM110.808 155V129.8H104.808V155H110.808ZM107.808 132.8H125.088V126.8H107.808V132.8ZM122.088 129.8V132.104H128.088V129.8H122.088ZM125.088 129.104H110.472V135.104H125.088V129.104ZM107.472 132.104V141.068H113.472V132.104H107.472ZM110.472 144.068H123.504V138.068H110.472V144.068ZM120.504 141.068V143.336H126.504V141.068H120.504ZM123.504 140.336H110.472V146.336H123.504V140.336ZM107.472 143.336V152.696H113.472V143.336H107.472ZM110.472 155.696H125.628V149.696H110.472V155.696ZM137.038 154.316L136.042 157.146L136.054 157.15L137.038 154.316ZM133.078 151.94L130.404 150.58C129.828 151.713 130.028 153.086 130.904 154.008L133.078 151.94ZM134.122 149.888L136.243 147.767C135.564 147.087 134.601 146.775 133.652 146.925C132.703 147.076 131.884 147.671 131.448 148.528L134.122 149.888ZM137.758 152.12L136.69 154.923C136.703 154.928 136.716 154.933 136.729 154.938L137.758 152.12ZM147.514 151.724L149.272 154.155C149.284 154.147 149.295 154.138 149.306 154.13L147.514 151.724ZM148.27 146.072L146.149 148.193C146.162 148.207 146.176 148.221 146.191 148.234L148.27 146.072ZM146.038 144.704L144.976 147.51C144.999 147.518 145.021 147.526 145.043 147.534L146.038 144.704ZM142.33 143.624L141.594 146.532C141.603 146.535 141.613 146.537 141.623 146.54L142.33 143.624ZM137.794 142.256L136.67 145.037C136.687 145.044 136.704 145.051 136.721 145.058L137.794 142.256ZM134.878 140.204L132.613 142.171C132.623 142.182 132.632 142.193 132.642 142.204L134.878 140.204ZM134.698 133.04L137.212 134.677C137.218 134.668 137.223 134.659 137.229 134.651L134.698 133.04ZM137.794 130.52L139.021 133.258L137.794 130.52ZM147.19 130.196L146.333 133.071C146.352 133.077 146.372 133.082 146.392 133.088L147.19 130.196ZM150.79 131.816L153.552 132.986C154.107 131.676 153.666 130.156 152.495 129.347L150.79 131.816ZM149.89 133.94L148.239 136.445C148.983 136.935 149.906 137.069 150.758 136.812C151.611 136.554 152.305 135.931 152.652 135.11L149.89 133.94ZM146.506 132.392L145.644 135.265C145.662 135.271 145.679 135.276 145.697 135.281L146.506 132.392ZM137.974 133.148L139.791 135.535L139.798 135.53L137.974 133.148ZM137.218 138.872L135.055 140.951C135.083 140.98 135.11 141.007 135.139 141.034L137.218 138.872ZM139.522 140.276L138.485 143.091C138.514 143.102 138.544 143.112 138.573 143.122L139.522 140.276ZM143.266 141.32L143.985 138.407H143.983L143.266 141.32ZM147.73 142.688L146.606 145.469C146.629 145.479 146.653 145.488 146.677 145.497L147.73 142.688ZM150.646 144.704L148.381 146.671C148.39 146.681 148.398 146.691 148.407 146.701L150.646 144.704ZM150.79 151.832L148.285 150.181C148.282 150.186 148.279 150.19 148.276 150.195L150.79 151.832ZM147.658 154.316L148.828 157.078C148.842 157.073 148.855 157.067 148.868 157.061L147.658 154.316ZM142.438 152.216C140.893 152.216 139.426 151.97 138.022 151.482L136.054 157.15C138.106 157.862 140.239 158.216 142.438 158.216V152.216ZM138.034 151.486C136.636 150.994 135.771 150.419 135.252 149.872L130.904 154.008C132.257 155.429 134.032 156.438 136.042 157.146L138.034 151.486ZM135.752 153.3L136.796 151.248L131.448 148.528L130.404 150.58L135.752 153.3ZM132.001 152.009C133.278 153.286 134.88 154.234 136.69 154.923L138.826 149.317C137.612 148.854 136.79 148.314 136.243 147.767L132.001 152.009ZM136.729 154.938C138.57 155.61 140.479 155.948 142.438 155.948V149.948C141.181 149.948 139.969 149.734 138.787 149.302L136.729 154.938ZM142.438 155.948C144.966 155.948 147.403 155.507 149.272 154.155L145.756 149.293C145.369 149.573 144.422 149.948 142.438 149.948V155.948ZM149.306 154.13C151.136 152.767 152.206 150.822 152.206 148.484H146.206C146.206 148.786 146.148 149.001 145.722 149.318L149.306 154.13ZM152.206 148.484C152.206 146.806 151.659 145.169 150.349 143.909L146.191 148.234C146.194 148.238 146.19 148.234 146.183 148.224C146.177 148.214 146.174 148.208 146.175 148.21C146.176 148.213 146.206 148.29 146.206 148.484H152.206ZM150.391 143.951C149.44 143 148.298 142.318 147.032 141.874L145.043 147.534C145.554 147.714 145.9 147.944 146.149 148.193L150.391 143.951ZM147.1 141.898C146.042 141.498 144.669 141.104 143.037 140.708L141.623 146.54C143.159 146.912 144.257 147.238 144.976 147.51L147.1 141.898ZM143.066 140.716C141.224 140.249 139.839 139.827 138.867 139.454L136.721 145.058C138.005 145.549 139.644 146.039 141.594 146.532L143.066 140.716ZM138.918 139.475C138.218 139.192 137.626 138.776 137.114 138.204L132.642 142.204C133.762 143.456 135.114 144.408 136.67 145.037L138.918 139.475ZM137.143 138.237C136.949 138.014 136.69 137.549 136.69 136.496H130.69C130.69 138.563 131.222 140.57 132.613 142.171L137.143 138.237ZM136.69 136.496C136.69 135.785 136.868 135.205 137.212 134.677L132.184 131.403C131.184 132.939 130.69 134.663 130.69 136.496H136.69ZM137.229 134.651C137.523 134.189 138.046 133.694 139.021 133.258L136.567 127.782C134.757 128.594 133.217 129.779 132.167 131.429L137.229 134.651ZM139.021 133.258C139.916 132.856 141.196 132.584 142.978 132.584V126.584C140.632 126.584 138.455 126.936 136.567 127.782L139.021 133.258ZM142.978 132.584C144.13 132.584 145.245 132.747 146.333 133.071L148.047 127.321C146.399 126.829 144.706 126.584 142.978 126.584V132.584ZM146.392 133.088C147.517 133.398 148.398 133.81 149.085 134.285L152.495 129.347C151.166 128.43 149.647 127.762 147.988 127.304L146.392 133.088ZM148.028 130.646L147.128 132.77L152.652 135.11L153.552 132.986L148.028 130.646ZM151.541 131.435C150.23 130.571 148.818 129.924 147.315 129.503L145.697 135.281C146.594 135.532 147.438 135.917 148.239 136.445L151.541 131.435ZM147.368 129.519C145.913 129.082 144.446 128.852 142.978 128.852V134.852C143.814 134.852 144.699 134.982 145.644 135.265L147.368 129.519ZM142.978 128.852C140.454 128.852 138.021 129.333 136.15 130.766L139.798 135.53C140.183 135.235 141.086 134.852 142.978 134.852V128.852ZM136.157 130.761C134.336 132.146 133.318 134.108 133.318 136.424H139.318C139.318 136.052 139.404 135.83 139.791 135.535L136.157 130.761ZM133.318 136.424C133.318 138.07 133.83 139.677 135.055 140.951L139.38 136.793C139.369 136.781 139.366 136.777 139.359 136.757C139.348 136.729 139.318 136.63 139.318 136.424H133.318ZM135.139 141.034C136.096 141.955 137.232 142.629 138.485 143.091L140.559 137.461C139.988 137.251 139.588 136.989 139.297 136.71L135.139 141.034ZM138.573 143.122C139.618 143.47 140.953 143.84 142.549 144.233L143.983 138.407C142.459 138.032 141.298 137.706 140.471 137.43L138.573 143.122ZM142.547 144.233C144.325 144.671 145.661 145.088 146.606 145.469L148.854 139.907C147.542 139.376 145.903 138.881 143.985 138.407L142.547 144.233ZM146.677 145.497C147.37 145.757 147.923 146.143 148.381 146.671L152.911 142.737C151.785 141.441 150.394 140.483 148.783 139.879L146.677 145.497ZM148.407 146.701C148.58 146.895 148.834 147.32 148.834 148.34H154.834C154.834 146.288 154.296 144.289 152.885 142.707L148.407 146.701ZM148.834 148.34C148.834 149.029 148.656 149.618 148.285 150.181L153.295 153.483C154.316 151.934 154.834 150.195 154.834 148.34H148.834ZM148.276 150.195C147.994 150.627 147.468 151.122 146.448 151.571L148.868 157.061C150.68 156.262 152.241 155.101 153.304 153.469L148.276 150.195ZM146.487 151.554C145.545 151.953 144.23 152.216 142.438 152.216V158.216C144.774 158.216 146.939 157.879 148.828 157.078L146.487 151.554ZM179.058 152.696H182.058C182.058 151.039 180.715 149.696 179.058 149.696V152.696ZM179.058 155V158C180.715 158 182.058 156.657 182.058 155H179.058ZM161.238 155H158.238C158.238 156.657 159.582 158 161.238 158V155ZM161.238 129.8V126.8C159.582 126.8 158.238 128.143 158.238 129.8H161.238ZM178.518 129.8H181.518C181.518 128.143 180.175 126.8 178.518 126.8V129.8ZM178.518 132.104V135.104C180.175 135.104 181.518 133.761 181.518 132.104H178.518ZM163.902 132.104V129.104C162.246 129.104 160.902 130.447 160.902 132.104H163.902ZM163.902 141.068H160.902C160.902 142.725 162.246 144.068 163.902 144.068V141.068ZM176.934 141.068H179.934C179.934 139.411 178.591 138.068 176.934 138.068V141.068ZM176.934 143.336V146.336C178.591 146.336 179.934 144.993 179.934 143.336H176.934ZM163.902 143.336V140.336C162.246 140.336 160.902 141.679 160.902 143.336H163.902ZM163.902 152.696H160.902C160.902 154.353 162.246 155.696 163.902 155.696V152.696ZM176.058 152.696V155H182.058V152.696H176.058ZM179.058 152H161.238V158H179.058V152ZM164.238 155V129.8H158.238V155H164.238ZM161.238 132.8H178.518V126.8H161.238V132.8ZM175.518 129.8V132.104H181.518V129.8H175.518ZM178.518 129.104H163.902V135.104H178.518V129.104ZM160.902 132.104V141.068H166.902V132.104H160.902ZM163.902 144.068H176.934V138.068H163.902V144.068ZM173.934 141.068V143.336H179.934V141.068H173.934ZM176.934 140.336H163.902V146.336H176.934V140.336ZM160.902 143.336V152.696H166.902V143.336H160.902ZM163.902 155.696H179.058V149.696H163.902V155.696ZM209.98 129.8H212.98C212.98 128.143 211.637 126.8 209.98 126.8V129.8ZM209.98 155V158C211.637 158 212.98 156.657 212.98 155H209.98ZM207.784 155L205.433 156.863C206.002 157.581 206.868 158 207.784 158V155ZM191.584 134.552L193.936 132.689C193.143 131.688 191.804 131.299 190.598 131.719C189.392 132.138 188.584 133.275 188.584 134.552H191.584ZM191.584 155V158C193.241 158 194.584 156.657 194.584 155H191.584ZM188.92 155H185.92C185.92 156.657 187.264 158 188.92 158V155ZM188.92 129.8V126.8C187.264 126.8 185.92 128.143 185.92 129.8H188.92ZM191.116 129.8L193.466 127.935C192.897 127.218 192.032 126.8 191.116 126.8V129.8ZM207.352 150.248L205.003 152.113C205.796 153.113 207.135 153.501 208.34 153.081C209.545 152.661 210.352 151.524 210.352 150.248H207.352ZM207.352 129.8V126.8C205.696 126.8 204.352 128.143 204.352 129.8H207.352ZM206.98 129.8V155H212.98V129.8H206.98ZM209.98 152H207.784V158H209.98V152ZM210.136 153.137L193.936 132.689L189.233 136.415L205.433 156.863L210.136 153.137ZM188.584 134.552V155H194.584V134.552H188.584ZM191.584 152H188.92V158H191.584V152ZM191.92 155V129.8H185.92V155H191.92ZM188.92 132.8H191.116V126.8H188.92V132.8ZM188.767 131.665L205.003 152.113L209.702 148.383L193.466 127.935L188.767 131.665ZM210.352 150.248V129.8H204.352V150.248H210.352ZM207.352 132.8H209.98V126.8H207.352V132.8ZM226.702 132.104H229.702C229.702 130.447 228.358 129.104 226.702 129.104V132.104ZM217.846 132.104H214.846C214.846 133.761 216.189 135.104 217.846 135.104V132.104ZM217.846 129.8V126.8C216.189 126.8 214.846 128.143 214.846 129.8H217.846ZM238.222 129.8H241.222C241.222 128.143 239.878 126.8 238.222 126.8V129.8ZM238.222 132.104V135.104C239.878 135.104 241.222 133.761 241.222 132.104H238.222ZM229.366 132.104V129.104C227.709 129.104 226.366 130.447 226.366 132.104H229.366ZM229.366 155V158C231.022 158 232.366 156.657 232.366 155H229.366ZM226.702 155H223.702C223.702 156.657 225.045 158 226.702 158V155ZM226.702 129.104H217.846V135.104H226.702V129.104ZM220.846 132.104V129.8H214.846V132.104H220.846ZM217.846 132.8H238.222V126.8H217.846V132.8ZM235.222 129.8V132.104H241.222V129.8H235.222ZM238.222 129.104H229.366V135.104H238.222V129.104ZM226.366 132.104V155H232.366V132.104H226.366ZM229.366 152H226.702V158H229.366V152ZM229.702 155V132.104H223.702V155H229.702Z" fill="white"/>
<path d="M109.28 166.38H104.08V166H114.88V166.38H109.68V180H109.28V166.38ZM128.937 179.62V180H119.617V166H128.637V166.38H120.017V172.7H127.737V173.08H120.017V179.62H128.937ZM145.976 166V180H145.636L135.376 166.74V180H134.976V166H135.316L145.576 179.26V166H145.976ZM156.725 180.06C155.711 180.06 154.758 179.88 153.865 179.52C152.971 179.147 152.285 178.667 151.805 178.08L152.085 177.82C152.538 178.353 153.185 178.8 154.025 179.16C154.865 179.507 155.758 179.68 156.705 179.68C158.158 179.68 159.251 179.393 159.985 178.82C160.731 178.233 161.105 177.48 161.105 176.56C161.105 175.84 160.911 175.267 160.525 174.84C160.138 174.413 159.658 174.093 159.085 173.88C158.525 173.667 157.765 173.447 156.805 173.22C155.778 172.967 154.965 172.727 154.365 172.5C153.765 172.26 153.251 171.9 152.825 171.42C152.411 170.927 152.205 170.273 152.205 169.46C152.205 168.82 152.371 168.233 152.705 167.7C153.038 167.167 153.558 166.74 154.265 166.42C154.971 166.1 155.845 165.94 156.885 165.94C157.631 165.94 158.365 166.06 159.085 166.3C159.805 166.527 160.425 166.833 160.945 167.22L160.725 167.54C160.178 167.14 159.565 166.84 158.885 166.64C158.218 166.427 157.558 166.32 156.905 166.32C155.505 166.32 154.438 166.62 153.705 167.22C152.971 167.807 152.605 168.56 152.605 169.48C152.605 170.2 152.798 170.78 153.185 171.22C153.571 171.647 154.051 171.967 154.625 172.18C155.198 172.393 155.971 172.62 156.945 172.86C157.958 173.113 158.765 173.36 159.365 173.6C159.965 173.827 160.471 174.18 160.885 174.66C161.298 175.127 161.505 175.76 161.505 176.56C161.505 177.2 161.331 177.787 160.985 178.32C160.638 178.853 160.105 179.28 159.385 179.6C158.678 179.907 157.791 180.06 156.725 180.06ZM176.636 179.62V180H167.316V166H176.336V166.38H167.716V172.7H175.436V173.08H167.716V179.62H176.636Z" fill="white"/>
<path d="M109.28 166.38H111.28C111.28 165.275 110.385 164.38 109.28 164.38V166.38ZM104.08 166.38H102.08C102.08 167.485 102.975 168.38 104.08 168.38V166.38ZM104.08 166V164C102.975 164 102.08 164.895 102.08 166H104.08ZM114.88 166H116.88C116.88 164.895 115.985 164 114.88 164V166ZM114.88 166.38V168.38C115.985 168.38 116.88 167.485 116.88 166.38H114.88ZM109.68 166.38V164.38C108.575 164.38 107.68 165.275 107.68 166.38H109.68ZM109.68 180V182C110.785 182 111.68 181.105 111.68 180H109.68ZM109.28 180H107.28C107.28 181.105 108.175 182 109.28 182V180ZM109.28 164.38H104.08V168.38H109.28V164.38ZM106.08 166.38V166H102.08V166.38H106.08ZM104.08 168H114.88V164H104.08V168ZM112.88 166V166.38H116.88V166H112.88ZM114.88 164.38H109.68V168.38H114.88V164.38ZM107.68 166.38V180H111.68V166.38H107.68ZM109.68 178H109.28V182H109.68V178ZM111.28 180V166.38H107.28V180H111.28ZM128.937 179.62H130.937C130.937 178.515 130.042 177.62 128.937 177.62V179.62ZM128.937 180V182C130.042 182 130.937 181.105 130.937 180H128.937ZM119.617 180H117.617C117.617 181.105 118.512 182 119.617 182V180ZM119.617 166V164C118.512 164 117.617 164.895 117.617 166H119.617ZM128.637 166H130.637C130.637 164.895 129.742 164 128.637 164V166ZM128.637 166.38V168.38C129.742 168.38 130.637 167.485 130.637 166.38H128.637ZM120.017 166.38V164.38C118.912 164.38 118.017 165.275 118.017 166.38H120.017ZM120.017 172.7H118.017C118.017 173.805 118.912 174.7 120.017 174.7V172.7ZM127.737 172.7H129.737C129.737 171.595 128.842 170.7 127.737 170.7V172.7ZM127.737 173.08V175.08C128.842 175.08 129.737 174.185 129.737 173.08H127.737ZM120.017 173.08V171.08C118.912 171.08 118.017 171.975 118.017 173.08H120.017ZM120.017 179.62H118.017C118.017 180.725 118.912 181.62 120.017 181.62V179.62ZM126.937 179.62V180H130.937V179.62H126.937ZM128.937 178H119.617V182H128.937V178ZM121.617 180V166H117.617V180H121.617ZM119.617 168H128.637V164H119.617V168ZM126.637 166V166.38H130.637V166H126.637ZM128.637 164.38H120.017V168.38H128.637V164.38ZM118.017 166.38V172.7H122.017V166.38H118.017ZM120.017 174.7H127.737V170.7H120.017V174.7ZM125.737 172.7V173.08H129.737V172.7H125.737ZM127.737 171.08H120.017V175.08H127.737V171.08ZM118.017 173.08V179.62H122.017V173.08H118.017ZM120.017 181.62H128.937V177.62H120.017V181.62ZM145.976 166H147.976C147.976 164.895 147.081 164 145.976 164V166ZM145.976 180V182C147.081 182 147.976 181.105 147.976 180H145.976ZM145.636 180L144.055 181.224C144.433 181.713 145.017 182 145.636 182V180ZM135.376 166.74L136.958 165.516C136.435 164.84 135.539 164.571 134.73 164.847C133.92 165.124 133.376 165.885 133.376 166.74H135.376ZM135.376 180V182C136.481 182 137.376 181.105 137.376 180H135.376ZM134.976 180H132.976C132.976 181.105 133.872 182 134.976 182V180ZM134.976 166V164C133.872 164 132.976 164.895 132.976 166H134.976ZM135.316 166L136.898 164.776C136.519 164.287 135.935 164 135.316 164V166ZM145.576 179.26L143.995 180.484C144.518 181.16 145.414 181.429 146.223 181.153C147.032 180.876 147.576 180.115 147.576 179.26H145.576ZM145.576 166V164C144.472 164 143.576 164.895 143.576 166H145.576ZM143.976 166V180H147.976V166H143.976ZM145.976 178H145.636V182H145.976V178ZM147.218 178.776L136.958 165.516L133.795 167.964L144.055 181.224L147.218 178.776ZM133.376 166.74V180H137.376V166.74H133.376ZM135.376 178H134.976V182H135.376V178ZM136.976 180V166H132.976V180H136.976ZM134.976 168H135.316V164H134.976V168ZM133.735 167.224L143.995 180.484L147.158 178.036L136.898 164.776L133.735 167.224ZM147.576 179.26V166H143.576V179.26H147.576ZM145.576 168H145.976V164H145.576V168ZM153.865 179.52L153.093 181.365C153.101 181.369 153.109 181.372 153.117 181.375L153.865 179.52ZM151.805 178.08L150.444 176.614C149.67 177.333 149.588 178.529 150.257 179.346L151.805 178.08ZM152.085 177.82L153.608 176.525C153.255 176.109 152.747 175.856 152.202 175.823C151.658 175.791 151.123 175.983 150.724 176.354L152.085 177.82ZM154.025 179.16L153.237 180.998C153.245 181.002 153.253 181.005 153.262 181.009L154.025 179.16ZM159.985 178.82L161.216 180.396L161.22 180.393L159.985 178.82ZM160.525 174.84L159.043 176.183L160.525 174.84ZM159.085 173.88L158.373 175.749C158.377 175.751 158.382 175.753 158.387 175.754L159.085 173.88ZM156.805 173.22L156.325 175.162C156.332 175.163 156.338 175.165 156.345 175.166L156.805 173.22ZM154.365 172.5L153.622 174.357C153.634 174.362 153.646 174.366 153.658 174.371L154.365 172.5ZM152.825 171.42L151.291 172.704C151.304 172.719 151.317 172.734 151.33 172.749L152.825 171.42ZM152.705 167.7L154.401 168.76L152.705 167.7ZM159.085 166.3L158.452 168.197C158.463 168.201 158.473 168.204 158.484 168.208L159.085 166.3ZM160.945 167.22L162.593 168.353C163.202 167.467 163.001 166.257 162.138 165.615L160.945 167.22ZM160.725 167.54L159.544 169.154C159.98 169.473 160.527 169.602 161.06 169.512C161.593 169.421 162.066 169.119 162.373 168.673L160.725 167.54ZM158.885 166.64L158.275 168.545C158.29 168.55 158.305 168.554 158.32 168.559L158.885 166.64ZM153.705 167.22L154.954 168.782C154.96 168.777 154.965 168.773 154.971 168.768L153.705 167.22ZM153.185 171.22L151.682 172.54C151.689 172.548 151.696 172.555 151.703 172.563L153.185 171.22ZM154.625 172.18L155.322 170.306L154.625 172.18ZM156.945 172.86L157.43 170.92L157.423 170.918L156.945 172.86ZM159.365 173.6L158.622 175.457C158.634 175.462 158.646 175.466 158.658 175.471L159.365 173.6ZM160.885 174.66L159.369 175.965C159.375 175.972 159.381 175.979 159.387 175.986L160.885 174.66ZM160.985 178.32L159.308 177.23L160.985 178.32ZM159.385 179.6L160.181 181.435C160.186 181.432 160.191 181.43 160.197 181.428L159.385 179.6ZM156.725 178.06C155.954 178.06 155.256 177.924 154.612 177.665L153.117 181.375C154.26 181.836 155.469 182.06 156.725 182.06V178.06ZM154.636 177.675C153.963 177.394 153.575 177.086 153.352 176.814L150.257 179.346C150.994 180.248 151.979 180.9 153.093 181.365L154.636 177.675ZM153.165 179.546L153.445 179.286L150.724 176.354L150.444 176.614L153.165 179.546ZM150.561 179.115C151.266 179.945 152.196 180.552 153.237 180.998L154.812 177.322C154.173 177.048 153.81 176.762 153.608 176.525L150.561 179.115ZM153.262 181.009C154.354 181.459 155.507 181.68 156.705 181.68V177.68C156.009 177.68 155.375 177.554 154.788 177.311L153.262 181.009ZM156.705 181.68C158.369 181.68 159.982 181.36 161.216 180.396L158.753 177.244C158.52 177.426 157.947 177.68 156.705 177.68V181.68ZM161.22 180.393C162.431 179.441 163.105 178.116 163.105 176.56H159.105C159.105 176.844 159.031 177.026 158.749 177.247L161.22 180.393ZM163.105 176.56C163.105 175.473 162.804 174.377 162.007 173.497L159.043 176.183C159.044 176.185 159.046 176.187 159.048 176.191C159.051 176.195 159.057 176.206 159.064 176.229C159.08 176.275 159.105 176.377 159.105 176.56H163.105ZM162.007 173.497C161.391 172.818 160.636 172.323 159.782 172.006L158.387 175.754C158.679 175.863 158.884 176.009 159.043 176.183L162.007 173.497ZM159.797 172.011C159.119 171.753 158.263 171.509 157.264 171.274L156.345 175.166C157.266 175.384 157.93 175.58 158.373 175.749L159.797 172.011ZM157.284 171.278C156.292 171.033 155.565 170.815 155.071 170.629L153.658 174.371C154.364 174.638 155.264 174.9 156.325 175.162L157.284 171.278ZM155.107 170.643C154.794 170.518 154.538 170.338 154.319 170.091L151.33 172.749C151.964 173.462 152.735 174.002 153.622 174.357L155.107 170.643ZM154.358 170.136C154.319 170.089 154.205 169.931 154.205 169.46H150.205C150.205 170.616 150.504 171.764 151.291 172.704L154.358 170.136ZM154.205 169.46C154.205 169.188 154.27 168.97 154.401 168.76L151.009 166.64C150.473 167.497 150.205 168.452 150.205 169.46H154.205ZM154.401 168.76C154.481 168.632 154.658 168.437 155.09 168.242L153.44 164.598C152.458 165.043 151.595 165.702 151.009 166.64L154.401 168.76ZM155.09 168.242C155.465 168.072 156.037 167.94 156.885 167.94V163.94C155.652 163.94 154.478 164.128 153.44 164.598L155.09 168.242ZM156.885 167.94C157.413 167.94 157.933 168.024 158.452 168.197L159.717 164.403C158.796 164.096 157.85 163.94 156.885 163.94V167.94ZM158.484 168.208C159.025 168.378 159.437 168.592 159.751 168.825L162.138 165.615C161.412 165.075 160.584 164.675 159.685 164.392L158.484 168.208ZM159.296 166.087L159.076 166.407L162.373 168.673L162.593 168.353L159.296 166.087ZM161.906 165.926C161.164 165.383 160.34 164.983 159.449 164.721L158.32 168.559C158.789 168.697 159.192 168.897 159.544 169.154L161.906 165.926ZM159.494 164.735C158.644 164.463 157.779 164.32 156.905 164.32V168.32C157.337 168.32 157.791 168.39 158.275 168.545L159.494 164.735ZM156.905 164.32C155.256 164.32 153.665 164.668 152.438 165.672L154.971 168.768C155.211 168.571 155.753 168.32 156.905 168.32V164.32ZM152.455 165.658C151.259 166.615 150.605 167.938 150.605 169.48H154.605C154.605 169.182 154.684 168.998 154.954 168.782L152.455 165.658ZM150.605 169.48C150.605 170.57 150.906 171.657 151.682 172.54L154.687 169.9C154.677 169.889 154.663 169.871 154.647 169.823C154.629 169.769 154.605 169.662 154.605 169.48H150.605ZM151.703 172.563C152.318 173.242 153.073 173.737 153.927 174.054L155.322 170.306C155.03 170.197 154.825 170.051 154.667 169.877L151.703 172.563ZM153.927 174.054C154.602 174.306 155.459 174.554 156.466 174.802L157.423 170.918C156.484 170.686 155.793 170.481 155.322 170.306L153.927 174.054ZM156.459 174.8C157.431 175.043 158.141 175.265 158.622 175.457L160.107 171.743C159.388 171.455 158.484 171.183 157.43 170.92L156.459 174.8ZM158.658 175.471C158.949 175.581 159.177 175.742 159.369 175.965L162.4 173.355C161.766 172.618 160.98 172.072 160.071 171.729L158.658 175.471ZM159.387 175.986C159.393 175.993 159.505 176.106 159.505 176.56H163.505C163.505 175.414 163.202 174.26 162.382 173.334L159.387 175.986ZM159.505 176.56C159.505 176.816 159.442 177.023 159.308 177.23L162.661 179.41C163.22 178.55 163.505 177.584 163.505 176.56H159.505ZM159.308 177.23C159.217 177.369 159.023 177.572 158.572 177.772L160.197 181.428C161.186 180.988 162.059 180.337 162.661 179.41L159.308 177.23ZM158.588 177.765C158.21 177.93 157.616 178.06 156.725 178.06V182.06C157.967 182.06 159.146 181.884 160.181 181.435L158.588 177.765ZM176.636 179.62H178.636C178.636 178.515 177.741 177.62 176.636 177.62V179.62ZM176.636 180V182C177.741 182 178.636 181.105 178.636 180H176.636ZM167.316 180H165.316C165.316 181.105 166.212 182 167.316 182V180ZM167.316 166V164C166.212 164 165.316 164.895 165.316 166H167.316ZM176.336 166H178.336C178.336 164.895 177.441 164 176.336 164V166ZM176.336 166.38V168.38C177.441 168.38 178.336 167.485 178.336 166.38H176.336ZM167.716 166.38V164.38C166.612 164.38 165.716 165.275 165.716 166.38H167.716ZM167.716 172.7H165.716C165.716 173.805 166.612 174.7 167.716 174.7V172.7ZM175.436 172.7H177.436C177.436 171.595 176.541 170.7 175.436 170.7V172.7ZM175.436 173.08V175.08C176.541 175.08 177.436 174.185 177.436 173.08H175.436ZM167.716 173.08V171.08C166.612 171.08 165.716 171.975 165.716 173.08H167.716ZM167.716 179.62H165.716C165.716 180.725 166.612 181.62 167.716 181.62V179.62ZM174.636 179.62V180H178.636V179.62H174.636ZM176.636 178H167.316V182H176.636V178ZM169.316 180V166H165.316V180H169.316ZM167.316 168H176.336V164H167.316V168ZM174.336 166V166.38H178.336V166H174.336ZM176.336 164.38H167.716V168.38H176.336V164.38ZM165.716 166.38V172.7H169.716V166.38H165.716ZM167.716 174.7H175.436V170.7H167.716V174.7ZM173.436 172.7V173.08H177.436V172.7H173.436ZM175.436 171.08H167.716V175.08H175.436V171.08ZM165.716 173.08V179.62H169.716V173.08H165.716ZM167.716 181.62H176.636V177.62H167.716V181.62Z" fill="white"/>
</mask>
<g mask="url(#mask0_157_2050)">
<path d="M0 127L9.46667 128.736C18.9333 130.512 37.8667 133.984 56.8 134.469C75.7333 134.953 94.6667 132.37 113.6 135.761C132.533 139.112 151.467 148.398 170.4 150.295C189.333 152.152 208.267 146.661 227.2 143.876C246.133 141.13 265.067 141.13 274.533 141.13H284V322H274.533C265.067 322 246.133 322 227.2 322C208.267 322 189.333 322 170.4 322C151.467 322 132.533 322 113.6 322C94.6667 322 75.7333 322 56.8 322C37.8667 322 18.9333 322 9.46667 322H0V127Z" fill="white"/>
</g>
</g>
<defs>
<clipPath id="clip0_157_2050">
<rect width="284" height="322" fill="white"/>
</clipPath>
</defs>
</svg>
