<svg width="284" height="322" viewBox="0 0 284 322" fill="none" xmlns="http://www.w3.org/2000/svg">
<g clip-path="url(#clip0_157_1983)">
<path d="M284 0H0V321.392H284V0Z" fill="#001220"/>
<path d="M33.762 129.67H36.204V152.77H33.762V129.67ZM71.011 129.67V152.77H68.668V134.29L59.593 149.833H58.438L49.363 134.389V152.77H47.02V129.67H49.033L59.065 146.797L68.998 129.67H71.011ZM90.4836 129.67C93.4316 129.67 95.7416 130.374 97.4136 131.782C99.0856 133.19 99.9216 135.126 99.9216 137.59C99.9216 140.054 99.0856 141.99 97.4136 143.398C95.7416 144.784 93.4316 145.477 90.4836 145.477H84.2796V152.77H81.8376V129.67H90.4836ZM90.4176 143.332C92.7056 143.332 94.4546 142.837 95.6646 141.847C96.8746 140.835 97.4796 139.416 97.4796 137.59C97.4796 135.72 96.8746 134.29 95.6646 133.3C94.4546 132.288 92.7056 131.782 90.4176 131.782H84.2796V143.332H90.4176ZM124.837 150.658V152.77H108.502V129.67H124.342V131.782H110.944V139.999H122.89V142.078H110.944V150.658H124.837ZM149.651 152.77L144.371 145.345C143.777 145.411 143.161 145.444 142.523 145.444H136.319V152.77H133.877V129.67H142.523C145.471 129.67 147.781 130.374 149.453 131.782C151.125 133.19 151.961 135.126 151.961 137.59C151.961 139.394 151.499 140.923 150.575 142.177C149.673 143.409 148.375 144.3 146.681 144.85L152.324 152.77H149.651ZM142.457 143.365C144.745 143.365 146.494 142.859 147.704 141.847C148.914 140.835 149.519 139.416 149.519 137.59C149.519 135.72 148.914 134.29 147.704 133.3C146.494 132.288 144.745 131.782 142.457 131.782H136.319V143.365H142.457ZM163.467 131.782V140.857H175.413V142.969H163.467V152.77H161.025V129.67H176.865V131.782H163.467ZM201.543 150.658V152.77H185.208V129.67H201.048V131.782H187.65V139.999H199.596V142.078H187.65V150.658H201.543ZM220.615 152.968C218.327 152.968 216.259 152.462 214.411 151.45C212.585 150.438 211.144 149.041 210.088 147.259C209.054 145.455 208.537 143.442 208.537 141.22C208.537 138.998 209.054 136.996 210.088 135.214C211.144 133.41 212.596 132.002 214.444 130.99C216.292 129.978 218.36 129.472 220.648 129.472C222.364 129.472 223.948 129.758 225.4 130.33C226.852 130.902 228.084 131.738 229.096 132.838L227.545 134.389C225.741 132.563 223.464 131.65 220.714 131.65C218.888 131.65 217.227 132.068 215.731 132.904C214.235 133.74 213.058 134.884 212.2 136.336C211.364 137.788 210.946 139.416 210.946 141.22C210.946 143.024 211.364 144.652 212.2 146.104C213.058 147.556 214.235 148.7 215.731 149.536C217.227 150.372 218.888 150.79 220.714 150.79C223.486 150.79 225.763 149.866 227.545 148.018L229.096 149.569C228.084 150.669 226.841 151.516 225.367 152.11C223.915 152.682 222.331 152.968 220.615 152.968ZM243.739 131.782H235.621V129.67H254.299V131.782H246.181V152.77H243.739V131.782Z" fill="#FACB66"/>
<path d="M33.762 129.67V126.67C32.1051 126.67 30.762 128.013 30.762 129.67H33.762ZM36.204 129.67H39.204C39.204 128.013 37.8609 126.67 36.204 126.67V129.67ZM36.204 152.77V155.77C37.8609 155.77 39.204 154.426 39.204 152.77H36.204ZM33.762 152.77H30.762C30.762 154.426 32.1051 155.77 33.762 155.77V152.77ZM33.762 132.67H36.204V126.67H33.762V132.67ZM33.204 129.67V152.77H39.204V129.67H33.204ZM36.204 149.77H33.762V155.77H36.204V149.77ZM36.762 152.77V129.67H30.762V152.77H36.762ZM71.011 129.67H74.011C74.011 128.013 72.6679 126.67 71.011 126.67V129.67ZM71.011 152.77V155.77C72.6679 155.77 74.011 154.426 74.011 152.77H71.011ZM68.668 152.77H65.668C65.668 154.426 67.0112 155.77 68.668 155.77V152.77ZM68.668 134.29H71.668C71.668 132.934 70.7596 131.748 69.4515 131.394C68.1435 131.04 66.7605 131.607 66.0773 132.777L68.668 134.29ZM59.593 149.833V152.833C60.6596 152.833 61.646 152.266 62.1837 151.345L59.593 149.833ZM58.438 149.833L55.8515 151.352C56.3903 152.269 57.3744 152.833 58.438 152.833V149.833ZM49.363 134.389L51.9495 132.869C51.2638 131.702 49.8815 131.138 48.5755 131.494C47.2694 131.849 46.363 133.035 46.363 134.389H49.363ZM49.363 152.77V155.77C51.0199 155.77 52.363 154.426 52.363 152.77H49.363ZM47.02 152.77H44.02C44.02 154.426 45.3632 155.77 47.02 155.77V152.77ZM47.02 129.67V126.67C45.3632 126.67 44.02 128.013 44.02 129.67H47.02ZM49.033 129.67L51.6216 128.153C51.0833 127.234 50.0981 126.67 49.033 126.67V129.67ZM59.065 146.797L56.4764 148.313C57.0159 149.234 58.0041 149.799 59.0715 149.797C60.1389 149.794 61.1246 149.225 61.6601 148.302L59.065 146.797ZM68.998 129.67V126.67C67.9283 126.67 66.9395 127.239 66.4029 128.164L68.998 129.67ZM68.011 129.67V152.77H74.011V129.67H68.011ZM71.011 149.77H68.668V155.77H71.011V149.77ZM71.668 152.77V134.29H65.668V152.77H71.668ZM66.0773 132.777L57.0023 148.32L62.1837 151.345L71.2587 135.802L66.0773 132.777ZM59.593 146.833H58.438V152.833H59.593V146.833ZM61.0245 148.313L51.9495 132.869L46.7765 135.908L55.8515 151.352L61.0245 148.313ZM46.363 134.389V152.77H52.363V134.389H46.363ZM49.363 149.77H47.02V155.77H49.363V149.77ZM50.02 152.77V129.67H44.02V152.77H50.02ZM47.02 132.67H49.033V126.67H47.02V132.67ZM46.4444 131.186L56.4764 148.313L61.6536 145.28L51.6216 128.153L46.4444 131.186ZM61.6601 148.302L71.5931 131.175L66.4029 128.164L56.4699 145.291L61.6601 148.302ZM68.998 132.67H71.011V126.67H68.998V132.67ZM97.4136 131.782L95.4812 134.076L97.4136 131.782ZM97.4136 143.398L99.3282 145.707C99.3341 145.702 99.3401 145.697 99.346 145.692L97.4136 143.398ZM84.2796 145.477V142.477C82.6227 142.477 81.2796 143.82 81.2796 145.477H84.2796ZM84.2796 152.77V155.77C85.9364 155.77 87.2796 154.426 87.2796 152.77H84.2796ZM81.8376 152.77H78.8376C78.8376 154.426 80.1807 155.77 81.8376 155.77V152.77ZM81.8376 129.67V126.67C80.1807 126.67 78.8376 128.013 78.8376 129.67H81.8376ZM95.6646 141.847L97.5643 144.168C97.5727 144.162 97.581 144.155 97.5893 144.148L95.6646 141.847ZM95.6646 133.3L93.7399 135.601C93.7482 135.608 93.7565 135.615 93.7649 135.621L95.6646 133.3ZM84.2796 131.782V128.782C82.6227 128.782 81.2796 130.125 81.2796 131.782H84.2796ZM84.2796 143.332H81.2796C81.2796 144.988 82.6227 146.332 84.2796 146.332V143.332ZM90.4836 132.67C92.9719 132.67 94.5132 133.261 95.4812 134.076L99.346 129.487C96.97 127.486 93.8913 126.67 90.4836 126.67V132.67ZM95.4812 134.076C96.3852 134.838 96.9216 135.884 96.9216 137.59H102.922C102.922 134.367 101.786 131.542 99.346 129.487L95.4812 134.076ZM96.9216 137.59C96.9216 139.295 96.3852 140.342 95.4812 141.103L99.346 145.692C101.786 143.638 102.922 140.812 102.922 137.59H96.9216ZM95.499 141.088C94.5304 141.891 92.9821 142.477 90.4836 142.477V148.477C93.881 148.477 96.9527 147.676 99.3282 145.707L95.499 141.088ZM90.4836 142.477H84.2796V148.477H90.4836V142.477ZM81.2796 145.477V152.77H87.2796V145.477H81.2796ZM84.2796 149.77H81.8376V155.77H84.2796V149.77ZM84.8376 152.77V129.67H78.8376V152.77H84.8376ZM81.8376 132.67H90.4836V126.67H81.8376V132.67ZM90.4176 146.332C93.0868 146.332 95.6187 145.76 97.5643 144.168L93.7649 139.525C93.2904 139.913 92.3244 140.332 90.4176 140.332V146.332ZM97.5893 144.148C99.5921 142.473 100.48 140.148 100.48 137.59H94.4796C94.4796 138.683 94.1571 139.196 93.7399 139.545L97.5893 144.148ZM100.48 137.59C100.48 135.015 99.6091 132.651 97.5643 130.978L93.7649 135.621C94.1401 135.928 94.4796 136.424 94.4796 137.59H100.48ZM97.5893 130.998C95.6421 129.37 93.0998 128.782 90.4176 128.782V134.782C92.3113 134.782 93.2671 135.205 93.7399 135.601L97.5893 130.998ZM90.4176 128.782H84.2796V134.782H90.4176V128.782ZM81.2796 131.782V143.332H87.2796V131.782H81.2796ZM84.2796 146.332H90.4176V140.332H84.2796V146.332ZM124.837 150.658H127.837C127.837 149.001 126.494 147.658 124.837 147.658V150.658ZM124.837 152.77V155.77C126.494 155.77 127.837 154.426 127.837 152.77H124.837ZM108.502 152.77H105.502C105.502 154.426 106.845 155.77 108.502 155.77V152.77ZM108.502 129.67V126.67C106.845 126.67 105.502 128.013 105.502 129.67H108.502ZM124.342 129.67H127.342C127.342 128.013 125.999 126.67 124.342 126.67V129.67ZM124.342 131.782V134.782C125.999 134.782 127.342 133.438 127.342 131.782H124.342ZM110.944 131.782V128.782C109.287 128.782 107.944 130.125 107.944 131.782H110.944ZM110.944 139.999H107.944C107.944 141.655 109.287 142.999 110.944 142.999V139.999ZM122.89 139.999H125.89C125.89 138.342 124.547 136.999 122.89 136.999V139.999ZM122.89 142.078V145.078C124.547 145.078 125.89 143.734 125.89 142.078H122.89ZM110.944 142.078V139.078C109.287 139.078 107.944 140.421 107.944 142.078H110.944ZM110.944 150.658H107.944C107.944 152.314 109.287 153.658 110.944 153.658V150.658ZM121.837 150.658V152.77H127.837V150.658H121.837ZM124.837 149.77H108.502V155.77H124.837V149.77ZM111.502 152.77V129.67H105.502V152.77H111.502ZM108.502 132.67H124.342V126.67H108.502V132.67ZM121.342 129.67V131.782H127.342V129.67H121.342ZM124.342 128.782H110.944V134.782H124.342V128.782ZM107.944 131.782V139.999H113.944V131.782H107.944ZM110.944 142.999H122.89V136.999H110.944V142.999ZM119.89 139.999V142.078H125.89V139.999H119.89ZM122.89 139.078H110.944V145.078H122.89V139.078ZM107.944 142.078V150.658H113.944V142.078H107.944ZM110.944 153.658H124.837V147.658H110.944V153.658ZM149.651 152.77L147.206 154.508C147.769 155.3 148.68 155.77 149.651 155.77V152.77ZM144.371 145.345L146.816 143.606C146.185 142.718 145.122 142.243 144.04 142.363L144.371 145.345ZM136.319 145.444V142.444C134.662 142.444 133.319 143.787 133.319 145.444H136.319ZM136.319 152.77V155.77C137.976 155.77 139.319 154.426 139.319 152.77H136.319ZM133.877 152.77H130.877C130.877 154.426 132.22 155.77 133.877 155.77V152.77ZM133.877 129.67V126.67C132.22 126.67 130.877 128.013 130.877 129.67H133.877ZM149.453 131.782L147.521 134.076L149.453 131.782ZM150.575 142.177L148.16 140.397L148.154 140.404L150.575 142.177ZM146.681 144.85L145.755 141.996C144.846 142.291 144.132 143.002 143.832 143.909C143.533 144.816 143.683 145.812 144.238 146.59L146.681 144.85ZM152.324 152.77V155.77C153.447 155.77 154.476 155.142 154.991 154.144C155.505 153.146 155.419 151.943 154.767 151.029L152.324 152.77ZM147.704 141.847L149.629 144.148L147.704 141.847ZM147.704 133.3L145.779 135.601C145.788 135.608 145.796 135.615 145.804 135.621L147.704 133.3ZM136.319 131.782V128.782C134.662 128.782 133.319 130.125 133.319 131.782H136.319ZM136.319 143.365H133.319C133.319 145.021 134.662 146.365 136.319 146.365V143.365ZM152.096 151.031L146.816 143.606L141.926 147.083L147.206 154.508L152.096 151.031ZM144.04 142.363C143.563 142.416 143.058 142.444 142.523 142.444V148.444C143.264 148.444 143.991 148.405 144.702 148.326L144.04 142.363ZM142.523 142.444H136.319V148.444H142.523V142.444ZM133.319 145.444V152.77H139.319V145.444H133.319ZM136.319 149.77H133.877V155.77H136.319V149.77ZM136.877 152.77V129.67H130.877V152.77H136.877ZM133.877 132.67H142.523V126.67H133.877V132.67ZM142.523 132.67C145.011 132.67 146.553 133.261 147.521 134.076L151.385 129.487C149.009 127.486 145.931 126.67 142.523 126.67V132.67ZM147.521 134.076C148.425 134.838 148.961 135.884 148.961 137.59H154.961C154.961 134.367 153.825 131.542 151.385 129.487L147.521 134.076ZM148.961 137.59C148.961 138.858 148.646 139.737 148.16 140.397L152.99 143.956C154.352 142.108 154.961 139.929 154.961 137.59H148.961ZM148.154 140.404C147.684 141.047 146.952 141.607 145.755 141.996L147.607 147.703C149.798 146.992 151.662 145.77 152.996 143.949L148.154 140.404ZM144.238 146.59L149.881 154.51L154.767 151.029L149.124 143.109L144.238 146.59ZM152.324 149.77H149.651V155.77H152.324V149.77ZM142.457 146.365C145.139 146.365 147.682 145.776 149.629 144.148L145.779 139.545C145.307 139.941 144.351 140.365 142.457 140.365V146.365ZM149.629 144.148C151.632 142.473 152.519 140.148 152.519 137.59H146.519C146.519 138.683 146.197 139.196 145.779 139.545L149.629 144.148ZM152.519 137.59C152.519 135.015 151.649 132.651 149.604 130.978L145.804 135.621C146.18 135.928 146.519 136.424 146.519 137.59H152.519ZM149.629 130.998C147.682 129.37 145.139 128.782 142.457 128.782V134.782C144.351 134.782 145.307 135.205 145.779 135.601L149.629 130.998ZM142.457 128.782H136.319V134.782H142.457V128.782ZM133.319 131.782V143.365H139.319V131.782H133.319ZM136.319 146.365H142.457V140.365H136.319V146.365ZM163.467 131.782V128.782C161.81 128.782 160.467 130.125 160.467 131.782H163.467ZM163.467 140.857H160.467C160.467 142.513 161.81 143.857 163.467 143.857V140.857ZM175.413 140.857H178.413C178.413 139.2 177.07 137.857 175.413 137.857V140.857ZM175.413 142.969V145.969C177.07 145.969 178.413 144.625 178.413 142.969H175.413ZM163.467 142.969V139.969C161.81 139.969 160.467 141.312 160.467 142.969H163.467ZM163.467 152.77V155.77C165.124 155.77 166.467 154.426 166.467 152.77H163.467ZM161.025 152.77H158.025C158.025 154.426 159.368 155.77 161.025 155.77V152.77ZM161.025 129.67V126.67C159.368 126.67 158.025 128.013 158.025 129.67H161.025ZM176.865 129.67H179.865C179.865 128.013 178.522 126.67 176.865 126.67V129.67ZM176.865 131.782V134.782C178.522 134.782 179.865 133.438 179.865 131.782H176.865ZM160.467 131.782V140.857H166.467V131.782H160.467ZM163.467 143.857H175.413V137.857H163.467V143.857ZM172.413 140.857V142.969H178.413V140.857H172.413ZM175.413 139.969H163.467V145.969H175.413V139.969ZM160.467 142.969V152.77H166.467V142.969H160.467ZM163.467 149.77H161.025V155.77H163.467V149.77ZM164.025 152.77V129.67H158.025V152.77H164.025ZM161.025 132.67H176.865V126.67H161.025V132.67ZM173.865 129.67V131.782H179.865V129.67H173.865ZM176.865 128.782H163.467V134.782H176.865V128.782ZM201.543 150.658H204.543C204.543 149.001 203.199 147.658 201.543 147.658V150.658ZM201.543 152.77V155.77C203.199 155.77 204.543 154.426 204.543 152.77H201.543ZM185.208 152.77H182.208C182.208 154.426 183.551 155.77 185.208 155.77V152.77ZM185.208 129.67V126.67C183.551 126.67 182.208 128.013 182.208 129.67H185.208ZM201.048 129.67H204.048C204.048 128.013 202.704 126.67 201.048 126.67V129.67ZM201.048 131.782V134.782C202.704 134.782 204.048 133.438 204.048 131.782H201.048ZM187.65 131.782V128.782C185.993 128.782 184.65 130.125 184.65 131.782H187.65ZM187.65 139.999H184.65C184.65 141.655 185.993 142.999 187.65 142.999V139.999ZM199.596 139.999H202.596C202.596 138.342 201.252 136.999 199.596 136.999V139.999ZM199.596 142.078V145.078C201.252 145.078 202.596 143.734 202.596 142.078H199.596ZM187.65 142.078V139.078C185.993 139.078 184.65 140.421 184.65 142.078H187.65ZM187.65 150.658H184.65C184.65 152.314 185.993 153.658 187.65 153.658V150.658ZM198.543 150.658V152.77H204.543V150.658H198.543ZM201.543 149.77H185.208V155.77H201.543V149.77ZM188.208 152.77V129.67H182.208V152.77H188.208ZM185.208 132.67H201.048V126.67H185.208V132.67ZM198.048 129.67V131.782H204.048V129.67H198.048ZM201.048 128.782H187.65V134.782H201.048V128.782ZM184.65 131.782V139.999H190.65V131.782H184.65ZM187.65 142.999H199.596V136.999H187.65V142.999ZM196.596 139.999V142.078H202.596V139.999H196.596ZM199.596 139.078H187.65V145.078H199.596V139.078ZM184.65 142.078V150.658H190.65V142.078H184.65ZM187.65 153.658H201.543V147.658H187.65V153.658ZM214.411 151.45L212.956 154.074C212.961 154.076 212.965 154.078 212.97 154.081L214.411 151.45ZM210.088 147.259L207.485 148.75C207.492 148.763 207.499 148.775 207.507 148.788L210.088 147.259ZM210.088 135.214L207.499 133.698L207.493 133.708L210.088 135.214ZM214.444 130.99L213.003 128.358L214.444 130.99ZM225.4 130.33L224.3 133.121L225.4 130.33ZM229.096 132.838L231.217 134.959C232.354 133.822 232.392 131.99 231.304 130.806L229.096 132.838ZM227.545 134.389L225.411 136.497C225.972 137.065 226.737 137.386 227.536 137.389C228.334 137.391 229.101 137.075 229.666 136.51L227.545 134.389ZM215.731 132.904L214.267 130.285L215.731 132.904ZM212.2 136.336L209.617 134.809C209.611 134.819 209.605 134.829 209.6 134.839L212.2 136.336ZM212.2 146.104L209.6 147.6C209.605 147.61 209.611 147.62 209.617 147.63L212.2 146.104ZM215.731 149.536L214.267 152.154L215.731 149.536ZM227.545 148.018L229.666 145.896C229.097 145.327 228.323 145.01 227.517 145.018C226.712 145.025 225.944 145.356 225.385 145.935L227.545 148.018ZM229.096 149.569L231.304 151.6C232.392 150.416 232.354 148.584 231.217 147.447L229.096 149.569ZM225.367 152.11L226.466 154.901C226.474 154.898 226.481 154.895 226.488 154.892L225.367 152.11ZM220.615 149.968C218.786 149.968 217.221 149.568 215.852 148.818L212.97 154.081C215.297 155.355 217.867 155.968 220.615 155.968V149.968ZM215.865 148.826C214.501 148.07 213.451 147.049 212.669 145.729L207.507 148.788C208.837 151.032 210.668 152.805 212.956 154.074L215.865 148.826ZM212.69 145.767C211.935 144.448 211.537 142.955 211.537 141.22H205.537C205.537 143.928 206.173 146.461 207.485 148.75L212.69 145.767ZM211.537 141.22C211.537 139.483 211.935 138.008 212.683 136.719L207.493 133.708C206.173 135.983 205.537 138.512 205.537 141.22H211.537ZM212.677 136.729C213.456 135.398 214.509 134.374 215.885 133.621L213.003 128.358C210.682 129.629 208.832 131.421 207.499 133.698L212.677 136.729ZM215.885 133.621C217.254 132.871 218.819 132.472 220.648 132.472V126.472C217.9 126.472 215.33 127.084 213.003 128.358L215.885 133.621ZM220.648 132.472C222.025 132.472 223.232 132.7 224.3 133.121L226.499 127.538C224.664 126.815 222.703 126.472 220.648 126.472V132.472ZM224.3 133.121C225.349 133.534 226.197 134.117 226.888 134.869L231.304 130.806C229.971 129.358 228.354 128.269 226.499 127.538L224.3 133.121ZM226.974 130.716L225.423 132.267L229.666 136.51L231.217 134.959L226.974 130.716ZM229.679 132.28C227.268 129.84 224.202 128.65 220.714 128.65V134.65C222.725 134.65 224.213 135.285 225.411 136.497L229.679 132.28ZM220.714 128.65C218.41 128.65 216.24 129.182 214.267 130.285L217.194 135.522C218.214 134.953 219.365 134.65 220.714 134.65V128.65ZM214.267 130.285C212.316 131.375 210.749 132.893 209.617 134.809L214.782 137.862C215.366 136.874 216.153 136.104 217.194 135.522L214.267 130.285ZM209.6 134.839C208.482 136.781 207.946 138.932 207.946 141.22H213.946C213.946 139.899 214.246 138.794 214.8 137.832L209.6 134.839ZM207.946 141.22C207.946 143.507 208.482 145.658 209.6 147.6L214.8 144.607C214.246 143.645 213.946 142.54 213.946 141.22H207.946ZM209.617 147.63C210.749 149.546 212.316 151.064 214.267 152.154L217.194 146.917C216.153 146.335 215.366 145.565 214.782 144.577L209.617 147.63ZM214.267 152.154C216.24 153.257 218.41 153.79 220.714 153.79V147.79C219.365 147.79 218.214 147.486 217.194 146.917L214.267 152.154ZM220.714 153.79C224.228 153.79 227.309 152.584 229.704 150.1L225.385 145.935C224.217 147.147 222.743 147.79 220.714 147.79V153.79ZM225.423 150.139L226.974 151.69L231.217 147.447L229.666 145.896L225.423 150.139ZM226.888 147.537C226.197 148.289 225.333 148.889 224.245 149.327L226.488 154.892C228.349 154.142 229.971 153.048 231.304 151.6L226.888 147.537ZM224.267 149.318C223.199 149.739 221.992 149.968 220.615 149.968V155.968C222.67 155.968 224.631 155.624 226.466 154.901L224.267 149.318ZM243.739 131.782H246.739C246.739 130.125 245.396 128.782 243.739 128.782V131.782ZM235.621 131.782H232.621C232.621 133.438 233.965 134.782 235.621 134.782V131.782ZM235.621 129.67V126.67C233.965 126.67 232.621 128.013 232.621 129.67H235.621ZM254.299 129.67H257.299C257.299 128.013 255.956 126.67 254.299 126.67V129.67ZM254.299 131.782V134.782C255.956 134.782 257.299 133.438 257.299 131.782H254.299ZM246.181 131.782V128.782C244.525 128.782 243.181 130.125 243.181 131.782H246.181ZM246.181 152.77V155.77C247.838 155.77 249.181 154.426 249.181 152.77H246.181ZM243.739 152.77H240.739C240.739 154.426 242.083 155.77 243.739 155.77V152.77ZM243.739 128.782H235.621V134.782H243.739V128.782ZM238.621 131.782V129.67H232.621V131.782H238.621ZM235.621 132.67H254.299V126.67H235.621V132.67ZM251.299 129.67V131.782H257.299V129.67H251.299ZM254.299 128.782H246.181V134.782H254.299V128.782ZM243.181 131.782V152.77H249.181V131.782H243.181ZM246.181 149.77H243.739V155.77H246.181V149.77ZM246.739 152.77V131.782H240.739V152.77H246.739Z" fill="#FACB66"/>
<path d="M125.28 103.193H120.08V102.813H130.88V103.193H125.68V116.813H125.28V103.193ZM146.617 102.813V116.813H146.217V109.893H136.017V116.813H135.617V102.813H136.017V109.513H146.217V102.813H146.617ZM163.265 116.433V116.813H153.945V102.813H162.965V103.193H154.345V109.513H162.065V109.893H154.345V116.433H163.265Z" fill="#FACB66"/>
<path d="M125.28 103.193H127.28C127.28 102.088 126.385 101.193 125.28 101.193V103.193ZM120.08 103.193H118.08C118.08 104.298 118.975 105.193 120.08 105.193V103.193ZM120.08 102.813V100.813C118.975 100.813 118.08 101.708 118.08 102.813H120.08ZM130.88 102.813H132.88C132.88 101.708 131.985 100.813 130.88 100.813V102.813ZM130.88 103.193V105.193C131.985 105.193 132.88 104.298 132.88 103.193H130.88ZM125.68 103.193V101.193C124.575 101.193 123.68 102.088 123.68 103.193H125.68ZM125.68 116.813V118.813C126.785 118.813 127.68 117.918 127.68 116.813H125.68ZM125.28 116.813H123.28C123.28 117.918 124.175 118.813 125.28 118.813V116.813ZM125.28 101.193H120.08V105.193H125.28V101.193ZM122.08 103.193V102.813H118.08V103.193H122.08ZM120.08 104.813H130.88V100.813H120.08V104.813ZM128.88 102.813V103.193H132.88V102.813H128.88ZM130.88 101.193H125.68V105.193H130.88V101.193ZM123.68 103.193V116.813H127.68V103.193H123.68ZM125.68 114.813H125.28V118.813H125.68V114.813ZM127.28 116.813V103.193H123.28V116.813H127.28ZM146.617 102.813H148.617C148.617 101.708 147.722 100.813 146.617 100.813V102.813ZM146.617 116.813V118.813C147.722 118.813 148.617 117.918 148.617 116.813H146.617ZM146.217 116.813H144.217C144.217 117.918 145.112 118.813 146.217 118.813V116.813ZM146.217 109.893H148.217C148.217 108.788 147.322 107.893 146.217 107.893V109.893ZM136.017 109.893V107.893C134.912 107.893 134.017 108.788 134.017 109.893H136.017ZM136.017 116.813V118.813C137.122 118.813 138.017 117.918 138.017 116.813H136.017ZM135.617 116.813H133.617C133.617 117.918 134.512 118.813 135.617 118.813V116.813ZM135.617 102.813V100.813C134.512 100.813 133.617 101.708 133.617 102.813H135.617ZM136.017 102.813H138.017C138.017 101.708 137.122 100.813 136.017 100.813V102.813ZM136.017 109.513H134.017C134.017 110.618 134.912 111.513 136.017 111.513V109.513ZM146.217 109.513V111.513C147.322 111.513 148.217 110.618 148.217 109.513H146.217ZM146.217 102.813V100.813C145.112 100.813 144.217 101.708 144.217 102.813H146.217ZM144.617 102.813V116.813H148.617V102.813H144.617ZM146.617 114.813H146.217V118.813H146.617V114.813ZM148.217 116.813V109.893H144.217V116.813H148.217ZM146.217 107.893H136.017V111.893H146.217V107.893ZM134.017 109.893V116.813H138.017V109.893H134.017ZM136.017 114.813H135.617V118.813H136.017V114.813ZM137.617 116.813V102.813H133.617V116.813H137.617ZM135.617 104.813H136.017V100.813H135.617V104.813ZM134.017 102.813V109.513H138.017V102.813H134.017ZM136.017 111.513H146.217V107.513H136.017V111.513ZM148.217 109.513V102.813H144.217V109.513H148.217ZM146.217 104.813H146.617V100.813H146.217V104.813ZM163.265 116.433H165.265C165.265 115.328 164.37 114.433 163.265 114.433V116.433ZM163.265 116.813V118.813C164.37 118.813 165.265 117.918 165.265 116.813H163.265ZM153.945 116.813H151.945C151.945 117.918 152.841 118.813 153.945 118.813V116.813ZM153.945 102.813V100.813C152.841 100.813 151.945 101.708 151.945 102.813H153.945ZM162.965 102.813H164.965C164.965 101.708 164.07 100.813 162.965 100.813V102.813ZM162.965 103.193V105.193C164.07 105.193 164.965 104.298 164.965 103.193H162.965ZM154.345 103.193V101.193C153.241 101.193 152.345 102.088 152.345 103.193H154.345ZM154.345 109.513H152.345C152.345 110.618 153.241 111.513 154.345 111.513V109.513ZM162.065 109.513H164.065C164.065 108.408 163.17 107.513 162.065 107.513V109.513ZM162.065 109.893V111.893C163.17 111.893 164.065 110.998 164.065 109.893H162.065ZM154.345 109.893V107.893C153.241 107.893 152.345 108.788 152.345 109.893H154.345ZM154.345 116.433H152.345C152.345 117.538 153.241 118.433 154.345 118.433V116.433ZM161.265 116.433V116.813H165.265V116.433H161.265ZM163.265 114.813H153.945V118.813H163.265V114.813ZM155.945 116.813V102.813H151.945V116.813H155.945ZM153.945 104.813H162.965V100.813H153.945V104.813ZM160.965 102.813V103.193H164.965V102.813H160.965ZM162.965 101.193H154.345V105.193H162.965V101.193ZM152.345 103.193V109.513H156.345V103.193H152.345ZM154.345 111.513H162.065V107.513H154.345V111.513ZM160.065 109.513V109.893H164.065V109.513H160.065ZM162.065 107.893H154.345V111.893H162.065V107.893ZM152.345 109.893V116.433H156.345V109.893H152.345ZM154.345 118.433H163.265V114.433H154.345V118.433Z" fill="#FACB66"/>
<path d="M0 135.307C9.46667 138.557 32.0667 143.981 51 144.909C69.9333 145.874 84.5 142.229 124.5 140.732C164.5 139.235 174 144.909 217.5 144.909C261 144.909 284 130.004 284 130.004V321H274.533C265.067 321 246.133 321 227.2 321C208.267 321 189.333 321 170.4 321C151.467 321 132.533 321 113.6 321C94.6667 321 75.7333 321 56.8 321C37.8667 321 18.9333 321 9.46667 321H0V135.307Z" fill="#FACB66"/>
<path d="M0 185.05L9.46667 183.693C18.9333 182.3 37.8667 179.586 56.8 179.622C75.7333 179.694 94.6667 182.55 113.6 184.336C132.533 186.121 151.467 186.836 170.4 188.443C189.333 190.05 208.267 192.549 227.2 189.407C246.133 186.229 265.067 177.444 274.533 173.016L284 168.623V287.181H274.533C265.067 287.181 246.133 287.181 227.2 287.181C208.267 287.181 189.333 287.181 170.4 287.181C151.467 287.181 132.533 287.181 113.6 287.181C94.6667 287.181 75.7333 287.181 56.8 287.181C37.8667 287.181 18.9333 287.181 9.46667 287.181H0V185.05Z" fill="#F5BC51"/>
<path d="M0 236.742L9.46667 230.493C18.9333 224.243 37.8667 211.745 56.8 209.531C75.7333 207.352 94.6667 215.423 113.6 217.28C132.533 219.137 151.467 214.709 170.4 211.388C189.333 208.067 208.267 205.781 227.2 209.352C246.133 212.923 265.067 222.351 274.533 227.029L284 231.743V303.52H274.533C265.067 303.52 246.133 303.52 227.2 303.52C208.267 303.52 189.333 303.52 170.4 303.52C151.467 303.52 132.533 303.52 113.6 303.52C94.6667 303.52 75.7333 303.52 56.8 303.52C37.8667 303.52 18.9333 303.52 9.46667 303.52H0V236.742Z" fill="#F1AD3B"/>
<path d="M0 266.112L9.46667 264.434C18.9333 262.791 37.8667 244.897 56.8 242.04C75.7333 239.183 92.5 254.516 113.6 255.015C134.7 255.515 151.467 238.008 170.4 236.473C189.333 234.937 208.267 237.294 227.2 237.794C246.133 238.258 265.067 236.83 274.533 236.116L284 235.401V320.749H274.533C265.067 320.749 246.133 320.749 227.2 320.749C208.267 320.749 189.333 320.749 170.4 320.749C151.467 320.749 132.533 320.749 113.6 320.749C94.6667 320.749 75.7333 320.749 56.8 320.749C37.8667 320.749 18.9333 320.749 9.46667 320.749H0V266.112Z" fill="#ED9D24"/>
<path d="M0 286.122L9.46667 284.229C18.9333 282.301 37.8667 278.516 56.8 279.051C75.7333 279.587 94.6667 284.444 113.6 288.086C132.533 291.728 151.467 294.085 170.4 294.335C189.333 294.585 208.267 292.657 227.2 291.121C246.133 289.586 265.067 288.372 274.533 287.8L284 287.193V321.475H274.533C265.067 321.475 246.133 321.475 227.2 321.475C208.267 321.475 189.333 321.475 170.4 321.475C151.467 321.475 132.533 321.475 113.6 321.475C94.6667 321.475 75.7333 321.475 56.8 321.475C37.8667 321.475 18.9333 321.475 9.46667 321.475H0V286.122Z" fill="#E98D00"/>
<g style="mix-blend-mode:soft-light">
<path d="M30 192H255" stroke="white"/>
</g>
<path d="M69.2577 206.2H70.4817V223H69.2577V206.2ZM94.6238 223L94.5998 208.624L87.5678 220.768H86.9678L79.9358 208.672V223H78.7358V206.2H79.7678L87.2798 219.184L94.7918 206.2H95.7998L95.8238 223H94.6238ZM110.105 206.2C112.217 206.2 113.873 206.704 115.073 207.712C116.273 208.704 116.873 210.088 116.873 211.864C116.873 213.624 116.273 215.008 115.073 216.016C113.873 217.008 112.217 217.504 110.105 217.504H105.305V223H104.081V206.2H110.105ZM110.105 216.4C111.897 216.4 113.265 216.008 114.209 215.224C115.153 214.44 115.625 213.32 115.625 211.864C115.625 210.408 115.153 209.288 114.209 208.504C113.265 207.704 111.897 207.304 110.105 207.304H105.305V216.4H110.105ZM132.951 218.272H123.207L121.071 223H119.751L127.479 206.2H128.703L136.431 223H135.111L132.951 218.272ZM132.495 217.24L128.079 207.544L123.687 217.24H132.495ZM153.545 223L149.537 217.384C148.945 217.464 148.401 217.504 147.905 217.504H143.105V223H141.881V206.2H147.905C150.017 206.2 151.673 206.704 152.873 207.712C154.073 208.704 154.673 210.088 154.673 211.864C154.673 213.192 154.329 214.312 153.641 215.224C152.969 216.12 152.001 216.752 150.737 217.12L154.937 223H153.545ZM147.905 216.424C149.697 216.424 151.065 216.032 152.009 215.248C152.953 214.448 153.425 213.32 153.425 211.864C153.425 210.408 152.953 209.288 152.009 208.504C151.065 207.704 149.697 207.304 147.905 207.304H143.105V216.424H147.905ZM162.779 207.304V214.48H171.731V215.584H162.779V223H161.555V206.2H172.787V207.304H162.779ZM188.667 218.272H178.923L176.787 223H175.467L183.195 206.2H184.419L192.147 223H190.827L188.667 218.272ZM188.211 217.24L183.795 207.544L179.403 217.24H188.211ZM197.597 206.2H198.821V223H197.597V206.2ZM210.291 207.304H204.243V206.2H217.563V207.304H211.515V223H210.291V207.304Z" fill="white"/>
<path d="M69.2577 206.2V203.95C68.015 203.95 67.0077 204.957 67.0077 206.2H69.2577ZM70.4817 206.2H72.7317C72.7317 204.957 71.7243 203.95 70.4817 203.95V206.2ZM70.4817 223V225.25C71.7243 225.25 72.7317 224.243 72.7317 223H70.4817ZM69.2577 223H67.0077C67.0077 224.243 68.015 225.25 69.2577 225.25V223ZM69.2577 208.45H70.4817V203.95H69.2577V208.45ZM68.2317 206.2V223H72.7317V206.2H68.2317ZM70.4817 220.75H69.2577V225.25H70.4817V220.75ZM71.5077 223V206.2H67.0077V223H71.5077ZM94.6238 223L92.3738 223.004C92.3759 224.245 93.3826 225.25 94.6238 225.25V223ZM94.5998 208.624L96.8498 208.62C96.8481 207.603 96.1643 206.714 95.1817 206.451C94.1992 206.187 93.1624 206.616 92.6527 207.497L94.5998 208.624ZM87.5678 220.768V223.018C88.3706 223.018 89.1126 222.59 89.5149 221.895L87.5678 220.768ZM86.9678 220.768L85.0226 221.899C85.4254 222.592 86.1664 223.018 86.9678 223.018V220.768ZM79.9358 208.672L81.881 207.541C81.3698 206.662 80.3323 206.235 79.3502 206.5C78.3682 206.764 77.6858 207.655 77.6858 208.672H79.9358ZM79.9358 223V225.25C81.1785 225.25 82.1858 224.243 82.1858 223H79.9358ZM78.7358 223H76.4858C76.4858 224.243 77.4932 225.25 78.7358 225.25V223ZM78.7358 206.2V203.95C77.4932 203.95 76.4858 204.957 76.4858 206.2H78.7358ZM79.7678 206.2L81.7154 205.073C81.3132 204.378 80.5709 203.95 79.7678 203.95V206.2ZM87.2798 219.184L85.3323 220.311C85.7345 221.006 86.4767 221.434 87.2798 221.434C88.0829 221.434 88.8252 221.006 89.2274 220.311L87.2798 219.184ZM94.7918 206.2V203.95C93.9887 203.95 93.2465 204.378 92.8443 205.073L94.7918 206.2ZM95.7998 206.2L98.0498 206.197C98.048 204.955 97.0412 203.95 95.7998 203.95V206.2ZM95.8238 223V225.25C96.4211 225.25 96.9939 225.013 97.4159 224.59C97.838 224.167 98.0747 223.594 98.0738 222.997L95.8238 223ZM96.8738 222.996L96.8498 208.62L92.3498 208.628L92.3738 223.004L96.8738 222.996ZM92.6527 207.497L85.6207 219.641L89.5149 221.895L96.5469 209.751L92.6527 207.497ZM87.5678 218.518H86.9678V223.018H87.5678V218.518ZM88.913 219.637L81.881 207.541L77.9906 209.803L85.0226 221.899L88.913 219.637ZM77.6858 208.672V223H82.1858V208.672H77.6858ZM79.9358 220.75H78.7358V225.25H79.9358V220.75ZM80.9858 223V206.2H76.4858V223H80.9858ZM78.7358 208.45H79.7678V203.95H78.7358V208.45ZM77.8203 207.327L85.3323 220.311L89.2274 218.057L81.7154 205.073L77.8203 207.327ZM89.2274 220.311L96.7394 207.327L92.8443 205.073L85.3323 218.057L89.2274 220.311ZM94.7918 208.45H95.7998V203.95H94.7918V208.45ZM93.5498 206.203L93.5738 223.003L98.0738 222.997L98.0498 206.197L93.5498 206.203ZM95.8238 220.75H94.6238V225.25H95.8238V220.75ZM115.073 207.712L113.626 209.435C113.63 209.439 113.635 209.442 113.64 209.446L115.073 207.712ZM115.073 216.016L116.507 217.75C116.511 217.746 116.516 217.743 116.52 217.739L115.073 216.016ZM105.305 217.504V215.254C104.062 215.254 103.055 216.261 103.055 217.504H105.305ZM105.305 223V225.25C106.548 225.25 107.555 224.243 107.555 223H105.305ZM104.081 223H101.831C101.831 224.243 102.838 225.25 104.081 225.25V223ZM104.081 206.2V203.95C102.838 203.95 101.831 204.957 101.831 206.2H104.081ZM114.209 215.224L115.647 216.955L114.209 215.224ZM114.209 208.504L112.754 210.221C112.76 210.225 112.766 210.23 112.772 210.235L114.209 208.504ZM105.305 207.304V205.054C104.062 205.054 103.055 206.061 103.055 207.304H105.305ZM105.305 216.4H103.055C103.055 217.643 104.062 218.65 105.305 218.65V216.4ZM110.105 208.45C111.872 208.45 112.953 208.87 113.626 209.435L116.52 205.989C114.793 204.538 112.562 203.95 110.105 203.95V208.45ZM113.64 209.446C114.246 209.948 114.623 210.653 114.623 211.864H119.123C119.123 209.523 118.3 207.46 116.507 205.978L113.64 209.446ZM114.623 211.864C114.623 213.051 114.251 213.768 113.626 214.293L116.52 217.739C118.296 216.248 119.123 214.197 119.123 211.864H114.623ZM113.64 214.282C112.966 214.838 111.88 215.254 110.105 215.254V219.754C112.554 219.754 114.78 219.178 116.507 217.75L113.64 214.282ZM110.105 215.254H105.305V219.754H110.105V215.254ZM103.055 217.504V223H107.555V217.504H103.055ZM105.305 220.75H104.081V225.25H105.305V220.75ZM106.331 223V206.2H101.831V223H106.331ZM104.081 208.45H110.105V203.95H104.081V208.45ZM110.105 218.65C112.187 218.65 114.149 218.199 115.647 216.955L112.772 213.493C112.381 213.817 111.607 214.15 110.105 214.15V218.65ZM115.647 216.955C117.203 215.662 117.875 213.851 117.875 211.864H113.375C113.375 212.789 113.103 213.218 112.772 213.493L115.647 216.955ZM117.875 211.864C117.875 209.877 117.203 208.066 115.647 206.773L112.772 210.235C113.103 210.51 113.375 210.939 113.375 211.864H117.875ZM115.664 206.787C114.165 205.517 112.196 205.054 110.105 205.054V209.554C111.598 209.554 112.365 209.891 112.754 210.221L115.664 206.787ZM110.105 205.054H105.305V209.554H110.105V205.054ZM103.055 207.304V216.4H107.555V207.304H103.055ZM105.305 218.65H110.105V214.15H105.305V218.65ZM132.951 218.272L134.998 217.337C134.632 216.536 133.832 216.022 132.951 216.022V218.272ZM123.207 218.272V216.022C122.323 216.022 121.521 216.54 121.157 217.346L123.207 218.272ZM121.071 223V225.25C121.955 225.25 122.758 224.732 123.122 223.926L121.071 223ZM119.751 223L117.707 222.06C117.387 222.756 117.443 223.568 117.857 224.214C118.27 224.859 118.984 225.25 119.751 225.25V223ZM127.479 206.2V203.95C126.601 203.95 125.802 204.461 125.435 205.26L127.479 206.2ZM128.703 206.2L130.747 205.26C130.38 204.461 129.582 203.95 128.703 203.95V206.2ZM136.431 223V225.25C137.198 225.25 137.912 224.859 138.326 224.214C138.739 223.568 138.796 222.756 138.475 222.06L136.431 223ZM135.111 223L133.065 223.935C133.431 224.736 134.23 225.25 135.111 225.25V223ZM132.495 217.24V219.49C133.261 219.49 133.973 219.101 134.387 218.457C134.802 217.814 134.86 217.004 134.543 216.307L132.495 217.24ZM128.079 207.544L130.127 206.611C129.761 205.808 128.959 205.293 128.077 205.294C127.194 205.295 126.394 205.812 126.03 206.616L128.079 207.544ZM123.687 217.24L121.638 216.312C121.322 217.008 121.382 217.817 121.796 218.459C122.211 219.102 122.923 219.49 123.687 219.49V217.24ZM132.951 216.022H123.207V220.522H132.951V216.022ZM121.157 217.346L119.021 222.074L123.122 223.926L125.258 219.198L121.157 217.346ZM121.071 220.75H119.751V225.25H121.071V220.75ZM121.795 223.94L129.523 207.14L125.435 205.26L117.707 222.06L121.795 223.94ZM127.479 208.45H128.703V203.95H127.479V208.45ZM126.659 207.14L134.387 223.94L138.475 222.06L130.747 205.26L126.659 207.14ZM136.431 220.75H135.111V225.25H136.431V220.75ZM137.158 222.065L134.998 217.337L130.905 219.207L133.065 223.935L137.158 222.065ZM134.543 216.307L130.127 206.611L126.032 208.477L130.448 218.173L134.543 216.307ZM126.03 206.616L121.638 216.312L125.737 218.168L130.129 208.472L126.03 206.616ZM123.687 219.49H132.495V214.99H123.687V219.49ZM153.545 223L151.714 224.307C152.136 224.899 152.818 225.25 153.545 225.25V223ZM149.537 217.384L151.369 216.077C150.884 215.398 150.063 215.043 149.236 215.154L149.537 217.384ZM143.105 217.504V215.254C141.862 215.254 140.855 216.261 140.855 217.504H143.105ZM143.105 223V225.25C144.348 225.25 145.355 224.243 145.355 223H143.105ZM141.881 223H139.631C139.631 224.243 140.638 225.25 141.881 225.25V223ZM141.881 206.2V203.95C140.638 203.95 139.631 204.957 139.631 206.2H141.881ZM152.873 207.712L151.426 209.435C151.43 209.439 151.435 209.442 151.44 209.446L152.873 207.712ZM153.641 215.224L151.845 213.869L151.841 213.874L153.641 215.224ZM150.737 217.12L150.108 214.96C149.408 215.164 148.85 215.694 148.611 216.383C148.372 217.072 148.482 217.834 148.906 218.428L150.737 217.12ZM154.937 223V225.25C155.78 225.25 156.552 224.779 156.938 224.03C157.323 223.28 157.258 222.378 156.768 221.692L154.937 223ZM152.009 215.248L153.447 216.979C153.452 216.974 153.458 216.969 153.464 216.965L152.009 215.248ZM152.009 208.504L150.554 210.221C150.56 210.225 150.566 210.23 150.572 210.235L152.009 208.504ZM143.105 207.304V205.054C141.862 205.054 140.855 206.061 140.855 207.304H143.105ZM143.105 216.424H140.855C140.855 217.667 141.862 218.674 143.105 218.674V216.424ZM155.377 221.693L151.369 216.077L147.706 218.691L151.714 224.307L155.377 221.693ZM149.236 215.154C148.724 215.223 148.282 215.254 147.905 215.254V219.754C148.52 219.754 149.166 219.705 149.838 219.614L149.236 215.154ZM147.905 215.254H143.105V219.754H147.905V215.254ZM140.855 217.504V223H145.355V217.504H140.855ZM143.105 220.75H141.881V225.25H143.105V220.75ZM144.131 223V206.2H139.631V223H144.131ZM141.881 208.45H147.905V203.95H141.881V208.45ZM147.905 208.45C149.672 208.45 150.753 208.87 151.426 209.435L154.32 205.989C152.593 204.538 150.362 203.95 147.905 203.95V208.45ZM151.44 209.446C152.046 209.948 152.423 210.653 152.423 211.864H156.923C156.923 209.523 156.1 207.46 154.307 205.978L151.44 209.446ZM152.423 211.864C152.423 212.786 152.192 213.408 151.845 213.869L155.437 216.579C156.466 215.216 156.923 213.598 156.923 211.864H152.423ZM151.841 213.874C151.51 214.315 150.989 214.703 150.108 214.96L151.366 219.28C153.013 218.801 154.428 217.925 155.441 216.574L151.841 213.874ZM148.906 218.428L153.106 224.308L156.768 221.692L152.568 215.812L148.906 218.428ZM154.937 220.75H153.545V225.25H154.937V220.75ZM147.905 218.674C149.987 218.674 151.949 218.223 153.447 216.979L150.572 213.517C150.181 213.841 149.407 214.174 147.905 214.174V218.674ZM153.464 216.965C155.003 215.66 155.675 213.852 155.675 211.864H151.175C151.175 212.788 150.903 213.236 150.554 213.531L153.464 216.965ZM155.675 211.864C155.675 209.877 155.003 208.066 153.447 206.773L150.572 210.235C150.903 210.51 151.175 210.939 151.175 211.864H155.675ZM153.464 206.787C151.965 205.517 149.996 205.054 147.905 205.054V209.554C149.398 209.554 150.165 209.891 150.554 210.221L153.464 206.787ZM147.905 205.054H143.105V209.554H147.905V205.054ZM140.855 207.304V216.424H145.355V207.304H140.855ZM143.105 218.674H147.905V214.174H143.105V218.674ZM162.779 207.304V205.054C161.536 205.054 160.529 206.061 160.529 207.304H162.779ZM162.779 214.48H160.529C160.529 215.723 161.536 216.73 162.779 216.73V214.48ZM171.731 214.48H173.981C173.981 213.237 172.973 212.23 171.731 212.23V214.48ZM171.731 215.584V217.834C172.973 217.834 173.981 216.827 173.981 215.584H171.731ZM162.779 215.584V213.334C161.536 213.334 160.529 214.341 160.529 215.584H162.779ZM162.779 223V225.25C164.021 225.25 165.029 224.243 165.029 223H162.779ZM161.555 223H159.305C159.305 224.243 160.312 225.25 161.555 225.25V223ZM161.555 206.2V203.95C160.312 203.95 159.305 204.957 159.305 206.2H161.555ZM172.787 206.2H175.037C175.037 204.957 174.029 203.95 172.787 203.95V206.2ZM172.787 207.304V209.554C174.029 209.554 175.037 208.547 175.037 207.304H172.787ZM160.529 207.304V214.48H165.029V207.304H160.529ZM162.779 216.73H171.731V212.23H162.779V216.73ZM169.481 214.48V215.584H173.981V214.48H169.481ZM171.731 213.334H162.779V217.834H171.731V213.334ZM160.529 215.584V223H165.029V215.584H160.529ZM162.779 220.75H161.555V225.25H162.779V220.75ZM163.805 223V206.2H159.305V223H163.805ZM161.555 208.45H172.787V203.95H161.555V208.45ZM170.537 206.2V207.304H175.037V206.2H170.537ZM172.787 205.054H162.779V209.554H172.787V205.054ZM188.667 218.272L190.713 217.337C190.347 216.536 189.548 216.022 188.667 216.022V218.272ZM178.923 218.272V216.022C178.039 216.022 177.236 216.54 176.872 217.346L178.923 218.272ZM176.787 223V225.25C177.671 225.25 178.473 224.732 178.837 223.926L176.787 223ZM175.467 223L173.423 222.06C173.102 222.756 173.159 223.568 173.572 224.214C173.986 224.859 174.7 225.25 175.467 225.25V223ZM183.195 206.2V203.95C182.316 203.95 181.518 204.461 181.151 205.26L183.195 206.2ZM184.419 206.2L186.463 205.26C186.096 204.461 185.298 203.95 184.419 203.95V206.2ZM192.147 223V225.25C192.914 225.25 193.628 224.859 194.041 224.214C194.455 223.568 194.511 222.756 194.191 222.06L192.147 223ZM190.827 223L188.78 223.935C189.146 224.736 189.946 225.25 190.827 225.25V223ZM188.211 217.24V219.49C188.976 219.49 189.689 219.101 190.103 218.457C190.517 217.814 190.576 217.004 190.259 216.307L188.211 217.24ZM183.795 207.544L185.843 206.611C185.477 205.808 184.675 205.293 183.793 205.294C182.91 205.295 182.109 205.812 181.745 206.616L183.795 207.544ZM179.403 217.24L177.353 216.312C177.038 217.008 177.098 217.817 177.512 218.459C177.926 219.102 178.638 219.49 179.403 219.49V217.24ZM188.667 216.022H178.923V220.522H188.667V216.022ZM176.872 217.346L174.736 222.074L178.837 223.926L180.973 219.198L176.872 217.346ZM176.787 220.75H175.467V225.25H176.787V220.75ZM177.511 223.94L185.239 207.14L181.151 205.26L173.423 222.06L177.511 223.94ZM183.195 208.45H184.419V203.95H183.195V208.45ZM182.375 207.14L190.103 223.94L194.191 222.06L186.463 205.26L182.375 207.14ZM192.147 220.75H190.827V225.25H192.147V220.75ZM192.873 222.065L190.713 217.337L186.62 219.207L188.78 223.935L192.873 222.065ZM190.259 216.307L185.843 206.611L181.747 208.477L186.163 218.173L190.259 216.307ZM181.745 206.616L177.353 216.312L181.452 218.168L185.844 208.472L181.745 206.616ZM179.403 219.49H188.211V214.99H179.403V219.49ZM197.597 206.2V203.95C196.354 203.95 195.347 204.957 195.347 206.2H197.597ZM198.821 206.2H201.071C201.071 204.957 200.063 203.95 198.821 203.95V206.2ZM198.821 223V225.25C200.063 225.25 201.071 224.243 201.071 223H198.821ZM197.597 223H195.347C195.347 224.243 196.354 225.25 197.597 225.25V223ZM197.597 208.45H198.821V203.95H197.597V208.45ZM196.571 206.2V223H201.071V206.2H196.571ZM198.821 220.75H197.597V225.25H198.821V220.75ZM199.847 223V206.2H195.347V223H199.847ZM210.291 207.304H212.541C212.541 206.061 211.534 205.054 210.291 205.054V207.304ZM204.243 207.304H201.993C201.993 208.547 203 209.554 204.243 209.554V207.304ZM204.243 206.2V203.95C203 203.95 201.993 204.957 201.993 206.2H204.243ZM217.563 206.2H219.813C219.813 204.957 218.806 203.95 217.563 203.95V206.2ZM217.563 207.304V209.554C218.806 209.554 219.813 208.547 219.813 207.304H217.563ZM211.515 207.304V205.054C210.272 205.054 209.265 206.061 209.265 207.304H211.515ZM211.515 223V225.25C212.758 225.25 213.765 224.243 213.765 223H211.515ZM210.291 223H208.041C208.041 224.243 209.048 225.25 210.291 225.25V223ZM210.291 205.054H204.243V209.554H210.291V205.054ZM206.493 207.304V206.2H201.993V207.304H206.493ZM204.243 208.45H217.563V203.95H204.243V208.45ZM215.313 206.2V207.304H219.813V206.2H215.313ZM217.563 205.054H211.515V209.554H217.563V205.054ZM209.265 207.304V223H213.765V207.304H209.265ZM211.515 220.75H210.291V225.25H211.515V220.75ZM212.541 223V207.304H208.041V223H212.541Z" fill="white"/>
<mask id="mask0_157_1983" style="mask-type:alpha" maskUnits="userSpaceOnUse" x="30" y="126" width="228" height="55">
<path d="M33.762 129.67H36.204V152.77H33.762V129.67ZM71.011 129.67V152.77H68.668V134.29L59.593 149.833H58.438L49.363 134.389V152.77H47.02V129.67H49.033L59.065 146.797L68.998 129.67H71.011ZM90.4836 129.67C93.4316 129.67 95.7416 130.374 97.4136 131.782C99.0856 133.19 99.9216 135.126 99.9216 137.59C99.9216 140.054 99.0856 141.99 97.4136 143.398C95.7416 144.784 93.4316 145.477 90.4836 145.477H84.2796V152.77H81.8376V129.67H90.4836ZM90.4176 143.332C92.7056 143.332 94.4546 142.837 95.6646 141.847C96.8746 140.835 97.4796 139.416 97.4796 137.59C97.4796 135.72 96.8746 134.29 95.6646 133.3C94.4546 132.288 92.7056 131.782 90.4176 131.782H84.2796V143.332H90.4176ZM124.837 150.658V152.77H108.502V129.67H124.342V131.782H110.944V139.999H122.89V142.078H110.944V150.658H124.837ZM149.651 152.77L144.371 145.345C143.777 145.411 143.161 145.444 142.523 145.444H136.319V152.77H133.877V129.67H142.523C145.471 129.67 147.781 130.374 149.453 131.782C151.125 133.19 151.961 135.126 151.961 137.59C151.961 139.394 151.499 140.923 150.575 142.177C149.673 143.409 148.375 144.3 146.681 144.85L152.324 152.77H149.651ZM142.457 143.365C144.745 143.365 146.494 142.859 147.704 141.847C148.914 140.835 149.519 139.416 149.519 137.59C149.519 135.72 148.914 134.29 147.704 133.3C146.494 132.288 144.745 131.782 142.457 131.782H136.319V143.365H142.457ZM163.467 131.782V140.857H175.413V142.969H163.467V152.77H161.025V129.67H176.865V131.782H163.467ZM201.543 150.658V152.77H185.208V129.67H201.048V131.782H187.65V139.999H199.596V142.078H187.65V150.658H201.543ZM220.615 152.968C218.327 152.968 216.259 152.462 214.411 151.45C212.585 150.438 211.144 149.041 210.088 147.259C209.054 145.455 208.537 143.442 208.537 141.22C208.537 138.998 209.054 136.996 210.088 135.214C211.144 133.41 212.596 132.002 214.444 130.99C216.292 129.978 218.36 129.472 220.648 129.472C222.364 129.472 223.948 129.758 225.4 130.33C226.852 130.902 228.084 131.738 229.096 132.838L227.545 134.389C225.741 132.563 223.464 131.65 220.714 131.65C218.888 131.65 217.227 132.068 215.731 132.904C214.235 133.74 213.058 134.884 212.2 136.336C211.364 137.788 210.946 139.416 210.946 141.22C210.946 143.024 211.364 144.652 212.2 146.104C213.058 147.556 214.235 148.7 215.731 149.536C217.227 150.372 218.888 150.79 220.714 150.79C223.486 150.79 225.763 149.866 227.545 148.018L229.096 149.569C228.084 150.669 226.841 151.516 225.367 152.11C223.915 152.682 222.331 152.968 220.615 152.968ZM243.739 131.782H235.621V129.67H254.299V131.782H246.181V152.77H243.739V131.782Z" fill="white"/>
<path d="M33.762 129.67V126.67C32.1051 126.67 30.762 128.013 30.762 129.67H33.762ZM36.204 129.67H39.204C39.204 128.013 37.8609 126.67 36.204 126.67V129.67ZM36.204 152.77V155.77C37.8609 155.77 39.204 154.426 39.204 152.77H36.204ZM33.762 152.77H30.762C30.762 154.426 32.1051 155.77 33.762 155.77V152.77ZM33.762 132.67H36.204V126.67H33.762V132.67ZM33.204 129.67V152.77H39.204V129.67H33.204ZM36.204 149.77H33.762V155.77H36.204V149.77ZM36.762 152.77V129.67H30.762V152.77H36.762ZM71.011 129.67H74.011C74.011 128.013 72.6679 126.67 71.011 126.67V129.67ZM71.011 152.77V155.77C72.6679 155.77 74.011 154.426 74.011 152.77H71.011ZM68.668 152.77H65.668C65.668 154.426 67.0112 155.77 68.668 155.77V152.77ZM68.668 134.29H71.668C71.668 132.934 70.7596 131.748 69.4515 131.394C68.1435 131.04 66.7605 131.607 66.0773 132.777L68.668 134.29ZM59.593 149.833V152.833C60.6596 152.833 61.646 152.266 62.1837 151.345L59.593 149.833ZM58.438 149.833L55.8515 151.352C56.3903 152.269 57.3744 152.833 58.438 152.833V149.833ZM49.363 134.389L51.9495 132.869C51.2638 131.702 49.8815 131.138 48.5755 131.494C47.2694 131.849 46.363 133.035 46.363 134.389H49.363ZM49.363 152.77V155.77C51.0199 155.77 52.363 154.426 52.363 152.77H49.363ZM47.02 152.77H44.02C44.02 154.426 45.3632 155.77 47.02 155.77V152.77ZM47.02 129.67V126.67C45.3632 126.67 44.02 128.013 44.02 129.67H47.02ZM49.033 129.67L51.6216 128.153C51.0833 127.234 50.0981 126.67 49.033 126.67V129.67ZM59.065 146.797L56.4764 148.313C57.0159 149.234 58.0041 149.799 59.0715 149.797C60.1389 149.794 61.1246 149.225 61.6601 148.302L59.065 146.797ZM68.998 129.67V126.67C67.9283 126.67 66.9395 127.239 66.4029 128.164L68.998 129.67ZM68.011 129.67V152.77H74.011V129.67H68.011ZM71.011 149.77H68.668V155.77H71.011V149.77ZM71.668 152.77V134.29H65.668V152.77H71.668ZM66.0773 132.777L57.0023 148.32L62.1837 151.345L71.2587 135.802L66.0773 132.777ZM59.593 146.833H58.438V152.833H59.593V146.833ZM61.0245 148.313L51.9495 132.869L46.7765 135.908L55.8515 151.352L61.0245 148.313ZM46.363 134.389V152.77H52.363V134.389H46.363ZM49.363 149.77H47.02V155.77H49.363V149.77ZM50.02 152.77V129.67H44.02V152.77H50.02ZM47.02 132.67H49.033V126.67H47.02V132.67ZM46.4444 131.186L56.4764 148.313L61.6536 145.28L51.6216 128.153L46.4444 131.186ZM61.6601 148.302L71.5931 131.175L66.4029 128.164L56.4699 145.291L61.6601 148.302ZM68.998 132.67H71.011V126.67H68.998V132.67ZM97.4136 131.782L95.4812 134.076L97.4136 131.782ZM97.4136 143.398L99.3282 145.707C99.3341 145.702 99.3401 145.697 99.346 145.692L97.4136 143.398ZM84.2796 145.477V142.477C82.6227 142.477 81.2796 143.82 81.2796 145.477H84.2796ZM84.2796 152.77V155.77C85.9364 155.77 87.2796 154.426 87.2796 152.77H84.2796ZM81.8376 152.77H78.8376C78.8376 154.426 80.1807 155.77 81.8376 155.77V152.77ZM81.8376 129.67V126.67C80.1807 126.67 78.8376 128.013 78.8376 129.67H81.8376ZM95.6646 141.847L97.5643 144.168C97.5727 144.162 97.581 144.155 97.5893 144.148L95.6646 141.847ZM95.6646 133.3L93.7399 135.601C93.7482 135.608 93.7565 135.615 93.7649 135.621L95.6646 133.3ZM84.2796 131.782V128.782C82.6227 128.782 81.2796 130.125 81.2796 131.782H84.2796ZM84.2796 143.332H81.2796C81.2796 144.988 82.6227 146.332 84.2796 146.332V143.332ZM90.4836 132.67C92.9719 132.67 94.5132 133.261 95.4812 134.076L99.346 129.487C96.97 127.486 93.8913 126.67 90.4836 126.67V132.67ZM95.4812 134.076C96.3852 134.838 96.9216 135.884 96.9216 137.59H102.922C102.922 134.367 101.786 131.542 99.346 129.487L95.4812 134.076ZM96.9216 137.59C96.9216 139.295 96.3852 140.342 95.4812 141.103L99.346 145.692C101.786 143.638 102.922 140.812 102.922 137.59H96.9216ZM95.499 141.088C94.5304 141.891 92.9821 142.477 90.4836 142.477V148.477C93.881 148.477 96.9527 147.676 99.3282 145.707L95.499 141.088ZM90.4836 142.477H84.2796V148.477H90.4836V142.477ZM81.2796 145.477V152.77H87.2796V145.477H81.2796ZM84.2796 149.77H81.8376V155.77H84.2796V149.77ZM84.8376 152.77V129.67H78.8376V152.77H84.8376ZM81.8376 132.67H90.4836V126.67H81.8376V132.67ZM90.4176 146.332C93.0868 146.332 95.6187 145.76 97.5643 144.168L93.7649 139.525C93.2904 139.913 92.3244 140.332 90.4176 140.332V146.332ZM97.5893 144.148C99.5921 142.473 100.48 140.148 100.48 137.59H94.4796C94.4796 138.683 94.1571 139.196 93.7399 139.545L97.5893 144.148ZM100.48 137.59C100.48 135.015 99.6091 132.651 97.5643 130.978L93.7649 135.621C94.1401 135.928 94.4796 136.424 94.4796 137.59H100.48ZM97.5893 130.998C95.6421 129.37 93.0998 128.782 90.4176 128.782V134.782C92.3113 134.782 93.2671 135.205 93.7399 135.601L97.5893 130.998ZM90.4176 128.782H84.2796V134.782H90.4176V128.782ZM81.2796 131.782V143.332H87.2796V131.782H81.2796ZM84.2796 146.332H90.4176V140.332H84.2796V146.332ZM124.837 150.658H127.837C127.837 149.001 126.494 147.658 124.837 147.658V150.658ZM124.837 152.77V155.77C126.494 155.77 127.837 154.426 127.837 152.77H124.837ZM108.502 152.77H105.502C105.502 154.426 106.845 155.77 108.502 155.77V152.77ZM108.502 129.67V126.67C106.845 126.67 105.502 128.013 105.502 129.67H108.502ZM124.342 129.67H127.342C127.342 128.013 125.999 126.67 124.342 126.67V129.67ZM124.342 131.782V134.782C125.999 134.782 127.342 133.438 127.342 131.782H124.342ZM110.944 131.782V128.782C109.287 128.782 107.944 130.125 107.944 131.782H110.944ZM110.944 139.999H107.944C107.944 141.655 109.287 142.999 110.944 142.999V139.999ZM122.89 139.999H125.89C125.89 138.342 124.547 136.999 122.89 136.999V139.999ZM122.89 142.078V145.078C124.547 145.078 125.89 143.734 125.89 142.078H122.89ZM110.944 142.078V139.078C109.287 139.078 107.944 140.421 107.944 142.078H110.944ZM110.944 150.658H107.944C107.944 152.314 109.287 153.658 110.944 153.658V150.658ZM121.837 150.658V152.77H127.837V150.658H121.837ZM124.837 149.77H108.502V155.77H124.837V149.77ZM111.502 152.77V129.67H105.502V152.77H111.502ZM108.502 132.67H124.342V126.67H108.502V132.67ZM121.342 129.67V131.782H127.342V129.67H121.342ZM124.342 128.782H110.944V134.782H124.342V128.782ZM107.944 131.782V139.999H113.944V131.782H107.944ZM110.944 142.999H122.89V136.999H110.944V142.999ZM119.89 139.999V142.078H125.89V139.999H119.89ZM122.89 139.078H110.944V145.078H122.89V139.078ZM107.944 142.078V150.658H113.944V142.078H107.944ZM110.944 153.658H124.837V147.658H110.944V153.658ZM149.651 152.77L147.206 154.508C147.769 155.3 148.68 155.77 149.651 155.77V152.77ZM144.371 145.345L146.816 143.606C146.185 142.718 145.122 142.243 144.04 142.363L144.371 145.345ZM136.319 145.444V142.444C134.662 142.444 133.319 143.787 133.319 145.444H136.319ZM136.319 152.77V155.77C137.976 155.77 139.319 154.426 139.319 152.77H136.319ZM133.877 152.77H130.877C130.877 154.426 132.22 155.77 133.877 155.77V152.77ZM133.877 129.67V126.67C132.22 126.67 130.877 128.013 130.877 129.67H133.877ZM149.453 131.782L147.521 134.076L149.453 131.782ZM150.575 142.177L148.16 140.397L148.154 140.404L150.575 142.177ZM146.681 144.85L145.755 141.996C144.846 142.291 144.132 143.002 143.832 143.909C143.533 144.816 143.683 145.812 144.238 146.59L146.681 144.85ZM152.324 152.77V155.77C153.447 155.77 154.476 155.142 154.991 154.144C155.505 153.146 155.419 151.943 154.767 151.029L152.324 152.77ZM147.704 141.847L149.629 144.148L147.704 141.847ZM147.704 133.3L145.779 135.601C145.788 135.608 145.796 135.615 145.804 135.621L147.704 133.3ZM136.319 131.782V128.782C134.662 128.782 133.319 130.125 133.319 131.782H136.319ZM136.319 143.365H133.319C133.319 145.021 134.662 146.365 136.319 146.365V143.365ZM152.096 151.031L146.816 143.606L141.926 147.083L147.206 154.508L152.096 151.031ZM144.04 142.363C143.563 142.416 143.058 142.444 142.523 142.444V148.444C143.264 148.444 143.991 148.405 144.702 148.326L144.04 142.363ZM142.523 142.444H136.319V148.444H142.523V142.444ZM133.319 145.444V152.77H139.319V145.444H133.319ZM136.319 149.77H133.877V155.77H136.319V149.77ZM136.877 152.77V129.67H130.877V152.77H136.877ZM133.877 132.67H142.523V126.67H133.877V132.67ZM142.523 132.67C145.011 132.67 146.553 133.261 147.521 134.076L151.385 129.487C149.009 127.486 145.931 126.67 142.523 126.67V132.67ZM147.521 134.076C148.425 134.838 148.961 135.884 148.961 137.59H154.961C154.961 134.367 153.825 131.542 151.385 129.487L147.521 134.076ZM148.961 137.59C148.961 138.858 148.646 139.737 148.16 140.397L152.99 143.956C154.352 142.108 154.961 139.929 154.961 137.59H148.961ZM148.154 140.404C147.684 141.047 146.952 141.607 145.755 141.996L147.607 147.703C149.798 146.992 151.662 145.77 152.996 143.949L148.154 140.404ZM144.238 146.59L149.881 154.51L154.767 151.029L149.124 143.109L144.238 146.59ZM152.324 149.77H149.651V155.77H152.324V149.77ZM142.457 146.365C145.139 146.365 147.682 145.776 149.629 144.148L145.779 139.545C145.307 139.941 144.351 140.365 142.457 140.365V146.365ZM149.629 144.148C151.632 142.473 152.519 140.148 152.519 137.59H146.519C146.519 138.683 146.197 139.196 145.779 139.545L149.629 144.148ZM152.519 137.59C152.519 135.015 151.649 132.651 149.604 130.978L145.804 135.621C146.18 135.928 146.519 136.424 146.519 137.59H152.519ZM149.629 130.998C147.682 129.37 145.139 128.782 142.457 128.782V134.782C144.351 134.782 145.307 135.205 145.779 135.601L149.629 130.998ZM142.457 128.782H136.319V134.782H142.457V128.782ZM133.319 131.782V143.365H139.319V131.782H133.319ZM136.319 146.365H142.457V140.365H136.319V146.365ZM163.467 131.782V128.782C161.81 128.782 160.467 130.125 160.467 131.782H163.467ZM163.467 140.857H160.467C160.467 142.513 161.81 143.857 163.467 143.857V140.857ZM175.413 140.857H178.413C178.413 139.2 177.07 137.857 175.413 137.857V140.857ZM175.413 142.969V145.969C177.07 145.969 178.413 144.625 178.413 142.969H175.413ZM163.467 142.969V139.969C161.81 139.969 160.467 141.312 160.467 142.969H163.467ZM163.467 152.77V155.77C165.124 155.77 166.467 154.426 166.467 152.77H163.467ZM161.025 152.77H158.025C158.025 154.426 159.368 155.77 161.025 155.77V152.77ZM161.025 129.67V126.67C159.368 126.67 158.025 128.013 158.025 129.67H161.025ZM176.865 129.67H179.865C179.865 128.013 178.522 126.67 176.865 126.67V129.67ZM176.865 131.782V134.782C178.522 134.782 179.865 133.438 179.865 131.782H176.865ZM160.467 131.782V140.857H166.467V131.782H160.467ZM163.467 143.857H175.413V137.857H163.467V143.857ZM172.413 140.857V142.969H178.413V140.857H172.413ZM175.413 139.969H163.467V145.969H175.413V139.969ZM160.467 142.969V152.77H166.467V142.969H160.467ZM163.467 149.77H161.025V155.77H163.467V149.77ZM164.025 152.77V129.67H158.025V152.77H164.025ZM161.025 132.67H176.865V126.67H161.025V132.67ZM173.865 129.67V131.782H179.865V129.67H173.865ZM176.865 128.782H163.467V134.782H176.865V128.782ZM201.543 150.658H204.543C204.543 149.001 203.199 147.658 201.543 147.658V150.658ZM201.543 152.77V155.77C203.199 155.77 204.543 154.426 204.543 152.77H201.543ZM185.208 152.77H182.208C182.208 154.426 183.551 155.77 185.208 155.77V152.77ZM185.208 129.67V126.67C183.551 126.67 182.208 128.013 182.208 129.67H185.208ZM201.048 129.67H204.048C204.048 128.013 202.704 126.67 201.048 126.67V129.67ZM201.048 131.782V134.782C202.704 134.782 204.048 133.438 204.048 131.782H201.048ZM187.65 131.782V128.782C185.993 128.782 184.65 130.125 184.65 131.782H187.65ZM187.65 139.999H184.65C184.65 141.655 185.993 142.999 187.65 142.999V139.999ZM199.596 139.999H202.596C202.596 138.342 201.252 136.999 199.596 136.999V139.999ZM199.596 142.078V145.078C201.252 145.078 202.596 143.734 202.596 142.078H199.596ZM187.65 142.078V139.078C185.993 139.078 184.65 140.421 184.65 142.078H187.65ZM187.65 150.658H184.65C184.65 152.314 185.993 153.658 187.65 153.658V150.658ZM198.543 150.658V152.77H204.543V150.658H198.543ZM201.543 149.77H185.208V155.77H201.543V149.77ZM188.208 152.77V129.67H182.208V152.77H188.208ZM185.208 132.67H201.048V126.67H185.208V132.67ZM198.048 129.67V131.782H204.048V129.67H198.048ZM201.048 128.782H187.65V134.782H201.048V128.782ZM184.65 131.782V139.999H190.65V131.782H184.65ZM187.65 142.999H199.596V136.999H187.65V142.999ZM196.596 139.999V142.078H202.596V139.999H196.596ZM199.596 139.078H187.65V145.078H199.596V139.078ZM184.65 142.078V150.658H190.65V142.078H184.65ZM187.65 153.658H201.543V147.658H187.65V153.658ZM214.411 151.45L212.956 154.074C212.961 154.076 212.965 154.078 212.97 154.081L214.411 151.45ZM210.088 147.259L207.485 148.75C207.492 148.763 207.499 148.775 207.507 148.788L210.088 147.259ZM210.088 135.214L207.499 133.698L207.493 133.708L210.088 135.214ZM214.444 130.99L213.003 128.358L214.444 130.99ZM225.4 130.33L224.3 133.121L225.4 130.33ZM229.096 132.838L231.217 134.959C232.354 133.822 232.392 131.99 231.304 130.806L229.096 132.838ZM227.545 134.389L225.411 136.497C225.972 137.065 226.737 137.386 227.536 137.389C228.334 137.391 229.101 137.075 229.666 136.51L227.545 134.389ZM215.731 132.904L214.267 130.285L215.731 132.904ZM212.2 136.336L209.617 134.809C209.611 134.819 209.605 134.829 209.6 134.839L212.2 136.336ZM212.2 146.104L209.6 147.6C209.605 147.61 209.611 147.62 209.617 147.63L212.2 146.104ZM215.731 149.536L214.267 152.154L215.731 149.536ZM227.545 148.018L229.666 145.896C229.097 145.327 228.323 145.01 227.517 145.018C226.712 145.025 225.944 145.356 225.385 145.935L227.545 148.018ZM229.096 149.569L231.304 151.6C232.392 150.416 232.354 148.584 231.217 147.447L229.096 149.569ZM225.367 152.11L226.466 154.901C226.474 154.898 226.481 154.895 226.488 154.892L225.367 152.11ZM220.615 149.968C218.786 149.968 217.221 149.568 215.852 148.818L212.97 154.081C215.297 155.355 217.867 155.968 220.615 155.968V149.968ZM215.865 148.826C214.501 148.07 213.451 147.049 212.669 145.729L207.507 148.788C208.837 151.032 210.668 152.805 212.956 154.074L215.865 148.826ZM212.69 145.767C211.935 144.448 211.537 142.955 211.537 141.22H205.537C205.537 143.928 206.173 146.461 207.485 148.75L212.69 145.767ZM211.537 141.22C211.537 139.483 211.935 138.008 212.683 136.719L207.493 133.708C206.173 135.983 205.537 138.512 205.537 141.22H211.537ZM212.677 136.729C213.456 135.398 214.509 134.374 215.885 133.621L213.003 128.358C210.682 129.629 208.832 131.421 207.499 133.698L212.677 136.729ZM215.885 133.621C217.254 132.871 218.819 132.472 220.648 132.472V126.472C217.9 126.472 215.33 127.084 213.003 128.358L215.885 133.621ZM220.648 132.472C222.025 132.472 223.232 132.7 224.3 133.121L226.499 127.538C224.664 126.815 222.703 126.472 220.648 126.472V132.472ZM224.3 133.121C225.349 133.534 226.197 134.117 226.888 134.869L231.304 130.806C229.971 129.358 228.354 128.269 226.499 127.538L224.3 133.121ZM226.974 130.716L225.423 132.267L229.666 136.51L231.217 134.959L226.974 130.716ZM229.679 132.28C227.268 129.84 224.202 128.65 220.714 128.65V134.65C222.725 134.65 224.213 135.285 225.411 136.497L229.679 132.28ZM220.714 128.65C218.41 128.65 216.24 129.182 214.267 130.285L217.194 135.522C218.214 134.953 219.365 134.65 220.714 134.65V128.65ZM214.267 130.285C212.316 131.375 210.749 132.893 209.617 134.809L214.782 137.862C215.366 136.874 216.153 136.104 217.194 135.522L214.267 130.285ZM209.6 134.839C208.482 136.781 207.946 138.932 207.946 141.22H213.946C213.946 139.899 214.246 138.794 214.8 137.832L209.6 134.839ZM207.946 141.22C207.946 143.507 208.482 145.658 209.6 147.6L214.8 144.607C214.246 143.645 213.946 142.54 213.946 141.22H207.946ZM209.617 147.63C210.749 149.546 212.316 151.064 214.267 152.154L217.194 146.917C216.153 146.335 215.366 145.565 214.782 144.577L209.617 147.63ZM214.267 152.154C216.24 153.257 218.41 153.79 220.714 153.79V147.79C219.365 147.79 218.214 147.486 217.194 146.917L214.267 152.154ZM220.714 153.79C224.228 153.79 227.309 152.584 229.704 150.1L225.385 145.935C224.217 147.147 222.743 147.79 220.714 147.79V153.79ZM225.423 150.139L226.974 151.69L231.217 147.447L229.666 145.896L225.423 150.139ZM226.888 147.537C226.197 148.289 225.333 148.889 224.245 149.327L226.488 154.892C228.349 154.142 229.971 153.048 231.304 151.6L226.888 147.537ZM224.267 149.318C223.199 149.739 221.992 149.968 220.615 149.968V155.968C222.67 155.968 224.631 155.624 226.466 154.901L224.267 149.318ZM243.739 131.782H246.739C246.739 130.125 245.396 128.782 243.739 128.782V131.782ZM235.621 131.782H232.621C232.621 133.438 233.965 134.782 235.621 134.782V131.782ZM235.621 129.67V126.67C233.965 126.67 232.621 128.013 232.621 129.67H235.621ZM254.299 129.67H257.299C257.299 128.013 255.956 126.67 254.299 126.67V129.67ZM254.299 131.782V134.782C255.956 134.782 257.299 133.438 257.299 131.782H254.299ZM246.181 131.782V128.782C244.525 128.782 243.181 130.125 243.181 131.782H246.181ZM246.181 152.77V155.77C247.838 155.77 249.181 154.426 249.181 152.77H246.181ZM243.739 152.77H240.739C240.739 154.426 242.083 155.77 243.739 155.77V152.77ZM243.739 128.782H235.621V134.782H243.739V128.782ZM238.621 131.782V129.67H232.621V131.782H238.621ZM235.621 132.67H254.299V126.67H235.621V132.67ZM251.299 129.67V131.782H257.299V129.67H251.299ZM254.299 128.782H246.181V134.782H254.299V128.782ZM243.181 131.782V152.77H249.181V131.782H243.181ZM246.181 149.77H243.739V155.77H246.181V149.77ZM246.739 152.77V131.782H240.739V152.77H246.739Z" fill="white"/>
<path d="M110.28 165.076H105.08V164.696H115.88V165.076H110.68V178.696H110.28V165.076ZM129.937 178.316V178.696H120.617V164.696H129.637V165.076H121.017V171.396H128.737V171.776H121.017V178.316H129.937ZM146.976 164.696V178.696H146.636L136.376 165.436V178.696H135.976V164.696H136.316L146.576 177.956V164.696H146.976ZM157.725 178.756C156.711 178.756 155.758 178.576 154.865 178.216C153.971 177.843 153.285 177.363 152.805 176.776L153.085 176.516C153.538 177.049 154.185 177.496 155.025 177.856C155.865 178.203 156.758 178.376 157.705 178.376C159.158 178.376 160.251 178.089 160.985 177.516C161.731 176.929 162.105 176.176 162.105 175.256C162.105 174.536 161.911 173.963 161.525 173.536C161.138 173.109 160.658 172.789 160.085 172.576C159.525 172.363 158.765 172.143 157.805 171.916C156.778 171.663 155.965 171.423 155.365 171.196C154.765 170.956 154.251 170.596 153.825 170.116C153.411 169.623 153.205 168.969 153.205 168.156C153.205 167.516 153.371 166.929 153.705 166.396C154.038 165.863 154.558 165.436 155.265 165.116C155.971 164.796 156.845 164.636 157.885 164.636C158.631 164.636 159.365 164.756 160.085 164.996C160.805 165.223 161.425 165.529 161.945 165.916L161.725 166.236C161.178 165.836 160.565 165.536 159.885 165.336C159.218 165.123 158.558 165.016 157.905 165.016C156.505 165.016 155.438 165.316 154.705 165.916C153.971 166.503 153.605 167.256 153.605 168.176C153.605 168.896 153.798 169.476 154.185 169.916C154.571 170.343 155.051 170.663 155.625 170.876C156.198 171.089 156.971 171.316 157.945 171.556C158.958 171.809 159.765 172.056 160.365 172.296C160.965 172.523 161.471 172.876 161.885 173.356C162.298 173.823 162.505 174.456 162.505 175.256C162.505 175.896 162.331 176.483 161.985 177.016C161.638 177.549 161.105 177.976 160.385 178.296C159.678 178.603 158.791 178.756 157.725 178.756ZM177.636 178.316V178.696H168.316V164.696H177.336V165.076H168.716V171.396H176.436V171.776H168.716V178.316H177.636Z" fill="white"/>
<path d="M110.28 165.076H112.28C112.28 163.971 111.385 163.076 110.28 163.076V165.076ZM105.08 165.076H103.08C103.08 166.18 103.975 167.076 105.08 167.076V165.076ZM105.08 164.696V162.696C103.975 162.696 103.08 163.591 103.08 164.696H105.08ZM115.88 164.696H117.88C117.88 163.591 116.985 162.696 115.88 162.696V164.696ZM115.88 165.076V167.076C116.985 167.076 117.88 166.18 117.88 165.076H115.88ZM110.68 165.076V163.076C109.575 163.076 108.68 163.971 108.68 165.076H110.68ZM110.68 178.696V180.696C111.785 180.696 112.68 179.8 112.68 178.696H110.68ZM110.28 178.696H108.28C108.28 179.8 109.175 180.696 110.28 180.696V178.696ZM110.28 163.076H105.08V167.076H110.28V163.076ZM107.08 165.076V164.696H103.08V165.076H107.08ZM105.08 166.696H115.88V162.696H105.08V166.696ZM113.88 164.696V165.076H117.88V164.696H113.88ZM115.88 163.076H110.68V167.076H115.88V163.076ZM108.68 165.076V178.696H112.68V165.076H108.68ZM110.68 176.696H110.28V180.696H110.68V176.696ZM112.28 178.696V165.076H108.28V178.696H112.28ZM129.937 178.316H131.937C131.937 177.211 131.042 176.316 129.937 176.316V178.316ZM129.937 178.696V180.696C131.042 180.696 131.937 179.8 131.937 178.696H129.937ZM120.617 178.696H118.617C118.617 179.8 119.512 180.696 120.617 180.696V178.696ZM120.617 164.696V162.696C119.512 162.696 118.617 163.591 118.617 164.696H120.617ZM129.637 164.696H131.637C131.637 163.591 130.742 162.696 129.637 162.696V164.696ZM129.637 165.076V167.076C130.742 167.076 131.637 166.18 131.637 165.076H129.637ZM121.017 165.076V163.076C119.912 163.076 119.017 163.971 119.017 165.076H121.017ZM121.017 171.396H119.017C119.017 172.5 119.912 173.396 121.017 173.396V171.396ZM128.737 171.396H130.737C130.737 170.291 129.842 169.396 128.737 169.396V171.396ZM128.737 171.776V173.776C129.842 173.776 130.737 172.88 130.737 171.776H128.737ZM121.017 171.776V169.776C119.912 169.776 119.017 170.671 119.017 171.776H121.017ZM121.017 178.316H119.017C119.017 179.42 119.912 180.316 121.017 180.316V178.316ZM127.937 178.316V178.696H131.937V178.316H127.937ZM129.937 176.696H120.617V180.696H129.937V176.696ZM122.617 178.696V164.696H118.617V178.696H122.617ZM120.617 166.696H129.637V162.696H120.617V166.696ZM127.637 164.696V165.076H131.637V164.696H127.637ZM129.637 163.076H121.017V167.076H129.637V163.076ZM119.017 165.076V171.396H123.017V165.076H119.017ZM121.017 173.396H128.737V169.396H121.017V173.396ZM126.737 171.396V171.776H130.737V171.396H126.737ZM128.737 169.776H121.017V173.776H128.737V169.776ZM119.017 171.776V178.316H123.017V171.776H119.017ZM121.017 180.316H129.937V176.316H121.017V180.316ZM146.976 164.696H148.976C148.976 163.591 148.081 162.696 146.976 162.696V164.696ZM146.976 178.696V180.696C148.081 180.696 148.976 179.8 148.976 178.696H146.976ZM146.636 178.696L145.055 179.92C145.433 180.409 146.017 180.696 146.636 180.696V178.696ZM136.376 165.436L137.958 164.212C137.435 163.535 136.539 163.267 135.73 163.543C134.92 163.82 134.376 164.581 134.376 165.436H136.376ZM136.376 178.696V180.696C137.481 180.696 138.376 179.8 138.376 178.696H136.376ZM135.976 178.696H133.976C133.976 179.8 134.872 180.696 135.976 180.696V178.696ZM135.976 164.696V162.696C134.872 162.696 133.976 163.591 133.976 164.696H135.976ZM136.316 164.696L137.898 163.472C137.519 162.982 136.935 162.696 136.316 162.696V164.696ZM146.576 177.956L144.995 179.18C145.518 179.856 146.414 180.125 147.223 179.848C148.032 179.572 148.576 178.811 148.576 177.956H146.576ZM146.576 164.696V162.696C145.472 162.696 144.576 163.591 144.576 164.696H146.576ZM144.976 164.696V178.696H148.976V164.696H144.976ZM146.976 176.696H146.636V180.696H146.976V176.696ZM148.218 177.472L137.958 164.212L134.795 166.66L145.055 179.92L148.218 177.472ZM134.376 165.436V178.696H138.376V165.436H134.376ZM136.376 176.696H135.976V180.696H136.376V176.696ZM137.976 178.696V164.696H133.976V178.696H137.976ZM135.976 166.696H136.316V162.696H135.976V166.696ZM134.735 165.92L144.995 179.18L148.158 176.732L137.898 163.472L134.735 165.92ZM148.576 177.956V164.696H144.576V177.956H148.576ZM146.576 166.696H146.976V162.696H146.576V166.696ZM154.865 178.216L154.093 180.061C154.101 180.065 154.109 180.068 154.117 180.071L154.865 178.216ZM152.805 176.776L151.444 175.31C150.67 176.029 150.588 177.225 151.257 178.042L152.805 176.776ZM153.085 176.516L154.608 175.221C154.255 174.805 153.747 174.552 153.202 174.519C152.658 174.487 152.123 174.679 151.724 175.05L153.085 176.516ZM155.025 177.856L154.237 179.694C154.245 179.698 154.253 179.701 154.262 179.705L155.025 177.856ZM160.985 177.516L162.216 179.092L162.22 179.089L160.985 177.516ZM161.525 173.536L160.043 174.879L161.525 173.536ZM160.085 172.576L159.373 174.445C159.377 174.447 159.382 174.449 159.387 174.45L160.085 172.576ZM157.805 171.916L157.325 173.858C157.332 173.859 157.338 173.861 157.345 173.862L157.805 171.916ZM155.365 171.196L154.622 173.053C154.634 173.058 154.646 173.062 154.658 173.067L155.365 171.196ZM153.825 170.116L152.291 171.4C152.304 171.415 152.317 171.43 152.33 171.445L153.825 170.116ZM153.705 166.396L155.401 167.456L153.705 166.396ZM160.085 164.996L159.452 166.893C159.463 166.897 159.473 166.9 159.484 166.904L160.085 164.996ZM161.945 165.916L163.593 167.049C164.202 166.163 164.001 164.953 163.138 164.311L161.945 165.916ZM161.725 166.236L160.544 167.85C160.98 168.169 161.527 168.298 162.06 168.208C162.593 168.117 163.066 167.814 163.373 167.369L161.725 166.236ZM159.885 165.336L159.275 167.241C159.29 167.246 159.305 167.25 159.32 167.255L159.885 165.336ZM154.705 165.916L155.954 167.478C155.96 167.473 155.965 167.468 155.971 167.464L154.705 165.916ZM154.185 169.916L152.682 171.236C152.689 171.244 152.696 171.251 152.703 171.259L154.185 169.916ZM155.625 170.876L156.322 169.001L155.625 170.876ZM157.945 171.556L158.43 169.616L158.423 169.614L157.945 171.556ZM160.365 172.296L159.622 174.153C159.634 174.158 159.646 174.162 159.658 174.167L160.365 172.296ZM161.885 173.356L160.369 174.661C160.375 174.668 160.381 174.675 160.387 174.682L161.885 173.356ZM161.985 177.016L160.308 175.926L161.985 177.016ZM160.385 178.296L161.181 180.131C161.186 180.128 161.191 180.126 161.197 180.124L160.385 178.296ZM157.725 176.756C156.954 176.756 156.256 176.62 155.612 176.361L154.117 180.071C155.26 180.532 156.469 180.756 157.725 180.756V176.756ZM155.636 176.371C154.963 176.089 154.575 175.782 154.352 175.509L151.257 178.042C151.994 178.943 152.979 179.596 154.093 180.061L155.636 176.371ZM154.165 178.241L154.445 177.981L151.724 175.05L151.444 175.31L154.165 178.241ZM151.561 177.811C152.266 178.641 153.196 179.248 154.237 179.694L155.812 176.018C155.173 175.744 154.81 175.458 154.608 175.221L151.561 177.811ZM154.262 179.705C155.354 180.155 156.507 180.376 157.705 180.376V176.376C157.009 176.376 156.375 176.25 155.788 176.007L154.262 179.705ZM157.705 180.376C159.369 180.376 160.982 180.056 162.216 179.092L159.753 175.94C159.52 176.122 158.947 176.376 157.705 176.376V180.376ZM162.22 179.089C163.431 178.137 164.105 176.812 164.105 175.256H160.105C160.105 175.54 160.031 175.722 159.749 175.943L162.22 179.089ZM164.105 175.256C164.105 174.169 163.804 173.073 163.007 172.193L160.043 174.879C160.044 174.881 160.046 174.883 160.048 174.887C160.051 174.891 160.057 174.902 160.064 174.925C160.08 174.971 160.105 175.073 160.105 175.256H164.105ZM163.007 172.193C162.391 171.514 161.636 171.019 160.782 170.701L159.387 174.45C159.679 174.559 159.884 174.704 160.043 174.879L163.007 172.193ZM160.797 170.707C160.119 170.449 159.263 170.205 158.264 169.969L157.345 173.862C158.266 174.08 158.93 174.276 159.373 174.445L160.797 170.707ZM158.284 169.974C157.292 169.729 156.565 169.511 156.071 169.325L154.658 173.067C155.364 173.334 156.264 173.596 157.325 173.858L158.284 169.974ZM156.107 169.339C155.794 169.214 155.538 169.034 155.319 168.787L152.33 171.445C152.964 172.158 153.735 172.698 154.622 173.053L156.107 169.339ZM155.358 168.831C155.319 168.785 155.205 168.627 155.205 168.156H151.205C151.205 169.312 151.504 170.46 152.291 171.4L155.358 168.831ZM155.205 168.156C155.205 167.884 155.27 167.665 155.401 167.456L152.009 165.336C151.473 166.193 151.205 167.148 151.205 168.156H155.205ZM155.401 167.456C155.481 167.327 155.658 167.133 156.09 166.938L154.44 163.294C153.458 163.738 152.595 164.398 152.009 165.336L155.401 167.456ZM156.09 166.938C156.465 166.768 157.037 166.636 157.885 166.636V162.636C156.652 162.636 155.478 162.824 154.44 163.294L156.09 166.938ZM157.885 166.636C158.413 166.636 158.933 166.72 159.452 166.893L160.717 163.099C159.796 162.792 158.85 162.636 157.885 162.636V166.636ZM159.484 166.904C160.025 167.074 160.437 167.287 160.751 167.521L163.138 164.311C162.412 163.771 161.584 163.371 160.685 163.088L159.484 166.904ZM160.296 164.783L160.076 165.103L163.373 167.369L163.593 167.049L160.296 164.783ZM162.906 164.622C162.164 164.079 161.34 163.679 160.449 163.417L159.32 167.255C159.789 167.392 160.192 167.593 160.544 167.85L162.906 164.622ZM160.494 163.431C159.644 163.159 158.779 163.016 157.905 163.016V167.016C158.337 167.016 158.791 167.086 159.275 167.241L160.494 163.431ZM157.905 163.016C156.256 163.016 154.665 163.364 153.438 164.368L155.971 167.464C156.211 167.267 156.753 167.016 157.905 167.016V163.016ZM153.455 164.354C152.259 165.311 151.605 166.634 151.605 168.176H155.605C155.605 167.878 155.684 167.694 155.954 167.478L153.455 164.354ZM151.605 168.176C151.605 169.266 151.906 170.352 152.682 171.236L155.687 168.596C155.677 168.585 155.663 168.566 155.647 168.518C155.629 168.465 155.605 168.358 155.605 168.176H151.605ZM152.703 171.259C153.318 171.938 154.073 172.432 154.927 172.75L156.322 169.001C156.03 168.893 155.825 168.747 155.667 168.573L152.703 171.259ZM154.927 172.75C155.602 173.002 156.459 173.249 157.466 173.498L158.423 169.614C157.484 169.382 156.793 169.177 156.322 169.001L154.927 172.75ZM157.459 173.496C158.431 173.739 159.141 173.96 159.622 174.153L161.107 170.439C160.388 170.151 159.484 169.879 158.43 169.616L157.459 173.496ZM159.658 174.167C159.949 174.277 160.177 174.437 160.369 174.661L163.4 172.051C162.766 171.314 161.98 170.768 161.071 170.425L159.658 174.167ZM160.387 174.682C160.393 174.689 160.505 174.802 160.505 175.256H164.505C164.505 174.11 164.202 172.956 163.382 172.03L160.387 174.682ZM160.505 175.256C160.505 175.511 160.442 175.719 160.308 175.926L163.661 178.106C164.22 177.246 164.505 176.28 164.505 175.256H160.505ZM160.308 175.926C160.217 176.065 160.023 176.268 159.572 176.468L161.197 180.124C162.186 179.684 163.059 179.033 163.661 178.106L160.308 175.926ZM159.588 176.461C159.21 176.625 158.616 176.756 157.725 176.756V180.756C158.967 180.756 160.146 180.58 161.181 180.131L159.588 176.461ZM177.636 178.316H179.636C179.636 177.211 178.741 176.316 177.636 176.316V178.316ZM177.636 178.696V180.696C178.741 180.696 179.636 179.8 179.636 178.696H177.636ZM168.316 178.696H166.316C166.316 179.8 167.212 180.696 168.316 180.696V178.696ZM168.316 164.696V162.696C167.212 162.696 166.316 163.591 166.316 164.696H168.316ZM177.336 164.696H179.336C179.336 163.591 178.441 162.696 177.336 162.696V164.696ZM177.336 165.076V167.076C178.441 167.076 179.336 166.18 179.336 165.076H177.336ZM168.716 165.076V163.076C167.612 163.076 166.716 163.971 166.716 165.076H168.716ZM168.716 171.396H166.716C166.716 172.5 167.612 173.396 168.716 173.396V171.396ZM176.436 171.396H178.436C178.436 170.291 177.541 169.396 176.436 169.396V171.396ZM176.436 171.776V173.776C177.541 173.776 178.436 172.88 178.436 171.776H176.436ZM168.716 171.776V169.776C167.612 169.776 166.716 170.671 166.716 171.776H168.716ZM168.716 178.316H166.716C166.716 179.42 167.612 180.316 168.716 180.316V178.316ZM175.636 178.316V178.696H179.636V178.316H175.636ZM177.636 176.696H168.316V180.696H177.636V176.696ZM170.316 178.696V164.696H166.316V178.696H170.316ZM168.316 166.696H177.336V162.696H168.316V166.696ZM175.336 164.696V165.076H179.336V164.696H175.336ZM177.336 163.076H168.716V167.076H177.336V163.076ZM166.716 165.076V171.396H170.716V165.076H166.716ZM168.716 173.396H176.436V169.396H168.716V173.396ZM174.436 171.396V171.776H178.436V171.396H174.436ZM176.436 169.776H168.716V173.776H176.436V169.776ZM166.716 171.776V178.316H170.716V171.776H166.716ZM168.716 180.316H177.636V176.316H168.716V180.316Z" fill="white"/>
</mask>
<g mask="url(#mask0_157_1983)">
<path d="M0 135.34C9.46667 138.59 32.0667 144.014 51 144.943C69.9333 145.907 84.5 142.262 124.5 140.765C164.5 139.268 174 144.943 217.5 144.943C261 144.943 284 130.037 284 130.037V321.033H274.533C265.067 321.033 246.133 321.033 227.2 321.033C208.267 321.033 189.333 321.033 170.4 321.033C151.467 321.033 132.533 321.033 113.6 321.033C94.6667 321.033 75.7333 321.033 56.8 321.033C37.8667 321.033 18.9333 321.033 9.46667 321.033H0V135.34Z" fill="white"/>
</g>
</g>
<defs>
<clipPath id="clip0_157_1983">
<rect width="284" height="322" fill="white"/>
</clipPath>
</defs>
</svg>
