<svg width="284" height="321" viewBox="0 0 284 321" fill="none" xmlns="http://www.w3.org/2000/svg">
<g clip-path="url(#clip0_157_1797)">
<g filter="url(#filter0_i_157_1797)">
<path d="M284 0H0V320.914H284V0Z" fill="#001220"/>
</g>
<path d="M64.768 130.566V140.466H77.8V142.77H64.768V153.462H62.104V128.262H79.384V130.566H64.768ZM98.637 153.678C95.3733 153.678 92.8293 152.742 91.0053 150.87C89.1813 148.998 88.2693 146.274 88.2693 142.698V128.262H90.9333V142.59C90.9333 145.518 91.5933 147.702 92.9133 149.142C94.2333 150.582 96.141 151.302 98.637 151.302C101.157 151.302 103.077 150.582 104.397 149.142C105.717 147.702 106.377 145.518 106.377 142.59V128.262H108.969V142.698C108.969 146.274 108.057 148.998 106.233 150.87C104.433 152.742 101.901 153.678 98.637 153.678ZM125.001 130.566H116.145V128.262H136.521V130.566H127.665V153.462H125.001V130.566ZM154.036 153.678C150.772 153.678 148.228 152.742 146.404 150.87C144.58 148.998 143.668 146.274 143.668 142.698V128.262H146.332V142.59C146.332 145.518 146.992 147.702 148.312 149.142C149.632 150.582 151.54 151.302 154.036 151.302C156.556 151.302 158.476 150.582 159.796 149.142C161.116 147.702 161.776 145.518 161.776 142.59V128.262H164.368V142.698C164.368 146.274 163.456 148.998 161.632 150.87C159.832 152.742 157.3 153.678 154.036 153.678ZM193.204 153.462L187.444 145.362C186.796 145.434 186.124 145.47 185.428 145.47H178.66V153.462H175.996V128.262H185.428C188.644 128.262 191.164 129.03 192.988 130.566C194.812 132.102 195.724 134.214 195.724 136.902C195.724 138.87 195.22 140.538 194.212 141.906C193.228 143.25 191.812 144.222 189.964 144.822L196.12 153.462H193.204ZM185.356 143.202C187.852 143.202 189.76 142.65 191.08 141.546C192.4 140.442 193.06 138.894 193.06 136.902C193.06 134.862 192.4 133.302 191.08 132.222C189.76 131.118 187.852 130.566 185.356 130.566H178.66V143.202H185.356ZM223.432 151.158V153.462H205.612V128.262H222.892V130.566H208.276V139.53H221.308V141.798H208.276V151.158H223.432Z" fill="#80FF80"/>
<path d="M64.768 130.566V127.566C63.1111 127.566 61.768 128.909 61.768 130.566H64.768ZM64.768 140.466H61.768C61.768 142.122 63.1111 143.466 64.768 143.466V140.466ZM77.8 140.466H80.8C80.8 138.809 79.4569 137.466 77.8 137.466V140.466ZM77.8 142.77V145.77C79.4569 145.77 80.8 144.426 80.8 142.77H77.8ZM64.768 142.77V139.77C63.1111 139.77 61.768 141.113 61.768 142.77H64.768ZM64.768 153.462V156.462C66.4249 156.462 67.768 155.118 67.768 153.462H64.768ZM62.104 153.462H59.104C59.104 155.118 60.4471 156.462 62.104 156.462V153.462ZM62.104 128.262V125.262C60.4471 125.262 59.104 126.605 59.104 128.262H62.104ZM79.384 128.262H82.384C82.384 126.605 81.0409 125.262 79.384 125.262V128.262ZM79.384 130.566V133.566C81.0409 133.566 82.384 132.222 82.384 130.566H79.384ZM61.768 130.566V140.466H67.768V130.566H61.768ZM64.768 143.466H77.8V137.466H64.768V143.466ZM74.8 140.466V142.77H80.8V140.466H74.8ZM77.8 139.77H64.768V145.77H77.8V139.77ZM61.768 142.77V153.462H67.768V142.77H61.768ZM64.768 150.462H62.104V156.462H64.768V150.462ZM65.104 153.462V128.262H59.104V153.462H65.104ZM62.104 131.262H79.384V125.262H62.104V131.262ZM76.384 128.262V130.566H82.384V128.262H76.384ZM79.384 127.566H64.768V133.566H79.384V127.566ZM91.0053 150.87L93.1539 148.776L91.0053 150.87ZM88.2693 128.262V125.262C86.6124 125.262 85.2693 126.605 85.2693 128.262H88.2693ZM90.9333 128.262H93.9333C93.9333 126.605 92.5901 125.262 90.9333 125.262V128.262ZM104.397 149.142L106.609 151.169L104.397 149.142ZM106.377 128.262V125.262C104.72 125.262 103.377 126.605 103.377 128.262H106.377ZM108.969 128.262H111.969C111.969 126.605 110.626 125.262 108.969 125.262V128.262ZM106.233 150.87L104.085 148.776C104.08 148.781 104.075 148.786 104.071 148.79L106.233 150.87ZM98.637 150.678C95.9688 150.678 94.2798 149.932 93.1539 148.776L88.8566 152.963C91.3787 155.552 94.7777 156.678 98.637 156.678V150.678ZM93.1539 148.776C92.0511 147.644 91.2693 145.785 91.2693 142.698H85.2693C85.2693 146.762 86.3114 150.351 88.8566 152.963L93.1539 148.776ZM91.2693 142.698V128.262H85.2693V142.698H91.2693ZM88.2693 131.262H90.9333V125.262H88.2693V131.262ZM87.9333 128.262V142.59H93.9333V128.262H87.9333ZM87.9333 142.59C87.9333 145.903 88.6724 148.955 90.7018 151.169L95.1247 147.114C94.5141 146.448 93.9333 145.132 93.9333 142.59H87.9333ZM90.7018 151.169C92.7385 153.391 95.5487 154.302 98.637 154.302V148.302C96.734 148.302 95.728 147.773 95.1247 147.114L90.7018 151.169ZM98.637 154.302C101.74 154.302 104.567 153.397 106.609 151.169L102.186 147.114C101.588 147.767 100.575 148.302 98.637 148.302V154.302ZM106.609 151.169C108.638 148.955 109.377 145.903 109.377 142.59H103.377C103.377 145.132 102.796 146.448 102.186 147.114L106.609 151.169ZM109.377 142.59V128.262H103.377V142.59H109.377ZM106.377 131.262H108.969V125.262H106.377V131.262ZM105.969 128.262V142.698H111.969V128.262H105.969ZM105.969 142.698C105.969 145.785 105.187 147.644 104.085 148.776L108.382 152.963C110.927 150.351 111.969 146.762 111.969 142.698H105.969ZM104.071 148.79C102.974 149.931 101.308 150.678 98.637 150.678V156.678C102.495 156.678 105.893 155.552 108.396 152.949L104.071 148.79ZM125.001 130.566H128.001C128.001 128.909 126.658 127.566 125.001 127.566V130.566ZM116.145 130.566H113.145C113.145 132.222 114.488 133.566 116.145 133.566V130.566ZM116.145 128.262V125.262C114.488 125.262 113.145 126.605 113.145 128.262H116.145ZM136.521 128.262H139.521C139.521 126.605 138.178 125.262 136.521 125.262V128.262ZM136.521 130.566V133.566C138.178 133.566 139.521 132.222 139.521 130.566H136.521ZM127.665 130.566V127.566C126.008 127.566 124.665 128.909 124.665 130.566H127.665ZM127.665 153.462V156.462C129.322 156.462 130.665 155.118 130.665 153.462H127.665ZM125.001 153.462H122.001C122.001 155.118 123.344 156.462 125.001 156.462V153.462ZM125.001 127.566H116.145V133.566H125.001V127.566ZM119.145 130.566V128.262H113.145V130.566H119.145ZM116.145 131.262H136.521V125.262H116.145V131.262ZM133.521 128.262V130.566H139.521V128.262H133.521ZM136.521 127.566H127.665V133.566H136.521V127.566ZM124.665 130.566V153.462H130.665V130.566H124.665ZM127.665 150.462H125.001V156.462H127.665V150.462ZM128.001 153.462V130.566H122.001V153.462H128.001ZM146.404 150.87L148.553 148.776L146.404 150.87ZM143.668 128.262V125.262C142.012 125.262 140.668 126.605 140.668 128.262H143.668ZM146.332 128.262H149.332C149.332 126.605 147.989 125.262 146.332 125.262V128.262ZM159.796 149.142L162.008 151.169L159.796 149.142ZM161.776 128.262V125.262C160.12 125.262 158.776 126.605 158.776 128.262H161.776ZM164.368 128.262H167.368C167.368 126.605 166.025 125.262 164.368 125.262V128.262ZM161.632 150.87L159.484 148.776C159.479 148.781 159.475 148.786 159.47 148.79L161.632 150.87ZM154.036 150.678C151.368 150.678 149.679 149.932 148.553 148.776L144.256 152.963C146.778 155.552 150.177 156.678 154.036 156.678V150.678ZM148.553 148.776C147.45 147.644 146.668 145.785 146.668 142.698H140.668C140.668 146.762 141.711 150.351 144.256 152.963L148.553 148.776ZM146.668 142.698V128.262H140.668V142.698H146.668ZM143.668 131.262H146.332V125.262H143.668V131.262ZM143.332 128.262V142.59H149.332V128.262H143.332ZM143.332 142.59C143.332 145.903 144.072 148.955 146.101 151.169L150.524 147.114C149.913 146.448 149.332 145.132 149.332 142.59H143.332ZM146.101 151.169C148.138 153.391 150.948 154.302 154.036 154.302V148.302C152.133 148.302 151.127 147.773 150.524 147.114L146.101 151.169ZM154.036 154.302C157.139 154.302 159.966 153.397 162.008 151.169L157.585 147.114C156.987 147.767 155.974 148.302 154.036 148.302V154.302ZM162.008 151.169C164.037 148.955 164.776 145.903 164.776 142.59H158.776C158.776 145.132 158.196 146.448 157.585 147.114L162.008 151.169ZM164.776 142.59V128.262H158.776V142.59H164.776ZM161.776 131.262H164.368V125.262H161.776V131.262ZM161.368 128.262V142.698H167.368V128.262H161.368ZM161.368 142.698C161.368 145.785 160.587 147.644 159.484 148.776L163.781 152.963C166.326 150.351 167.368 146.762 167.368 142.698H161.368ZM159.47 148.79C158.373 149.931 156.707 150.678 154.036 150.678V156.678C157.894 156.678 161.292 155.552 163.795 152.949L159.47 148.79ZM193.204 153.462L190.759 155.2C191.322 155.992 192.233 156.462 193.204 156.462V153.462ZM187.444 145.362L189.889 143.623C189.258 142.736 188.195 142.26 187.113 142.38L187.444 145.362ZM178.66 145.47V142.47C177.003 142.47 175.66 143.813 175.66 145.47H178.66ZM178.66 153.462V156.462C180.317 156.462 181.66 155.118 181.66 153.462H178.66ZM175.996 153.462H172.996C172.996 155.118 174.339 156.462 175.996 156.462V153.462ZM175.996 128.262V125.262C174.339 125.262 172.996 126.605 172.996 128.262H175.996ZM192.988 130.566L191.056 132.86L192.988 130.566ZM194.212 141.906L191.797 140.126L191.792 140.133L194.212 141.906ZM189.964 144.822L189.038 141.968C188.129 142.263 187.415 142.974 187.115 143.881C186.816 144.788 186.966 145.784 187.521 146.562L189.964 144.822ZM196.12 153.462V156.462C197.243 156.462 198.272 155.834 198.787 154.836C199.301 153.838 199.215 152.636 198.563 151.721L196.12 153.462ZM191.08 141.546L193.005 143.847L191.08 141.546ZM191.08 132.222L189.156 134.523C189.164 134.53 189.172 134.537 189.18 134.544L191.08 132.222ZM178.66 130.566V127.566C177.003 127.566 175.66 128.909 175.66 130.566H178.66ZM178.66 143.202H175.66C175.66 144.858 177.003 146.202 178.66 146.202V143.202ZM195.649 151.723L189.889 143.623L184.999 147.1L190.759 155.2L195.649 151.723ZM187.113 142.38C186.582 142.439 186.021 142.47 185.428 142.47V148.47C186.228 148.47 187.01 148.428 187.775 148.343L187.113 142.38ZM185.428 142.47H178.66V148.47H185.428V142.47ZM175.66 145.47V153.462H181.66V145.47H175.66ZM178.66 150.462H175.996V156.462H178.66V150.462ZM178.996 153.462V128.262H172.996V153.462H178.996ZM175.996 131.262H185.428V125.262H175.996V131.262ZM185.428 131.262C188.185 131.262 189.936 131.917 191.056 132.86L194.921 128.271C192.393 126.142 189.104 125.262 185.428 125.262V131.262ZM191.056 132.86C192.112 133.75 192.724 134.972 192.724 136.902H198.724C198.724 133.455 197.513 130.454 194.921 128.271L191.056 132.86ZM192.724 136.902C192.724 138.334 192.367 139.352 191.797 140.126L196.627 143.685C198.073 141.723 198.724 139.405 198.724 136.902H192.724ZM191.792 140.133C191.239 140.888 190.39 141.529 189.038 141.968L190.891 147.675C193.235 146.914 195.217 145.611 196.633 143.678L191.792 140.133ZM187.521 146.562L193.677 155.202L198.563 151.721L192.407 143.081L187.521 146.562ZM196.12 150.462H193.204V156.462H196.12V150.462ZM185.356 146.202C188.246 146.202 190.948 145.567 193.005 143.847L189.156 139.244C188.573 139.732 187.458 140.202 185.356 140.202V146.202ZM193.005 143.847C195.118 142.08 196.06 139.626 196.06 136.902H190.06C190.06 138.161 189.683 138.804 189.156 139.244L193.005 143.847ZM196.06 136.902C196.06 134.157 195.135 131.663 192.98 129.9L189.18 134.544C189.666 134.941 190.06 135.566 190.06 136.902H196.06ZM193.005 129.92C190.948 128.2 188.246 127.566 185.356 127.566V133.566C187.458 133.566 188.573 134.035 189.156 134.523L193.005 129.92ZM185.356 127.566H178.66V133.566H185.356V127.566ZM175.66 130.566V143.202H181.66V130.566H175.66ZM178.66 146.202H185.356V140.202H178.66V146.202ZM223.432 151.158H226.432C226.432 149.501 225.089 148.158 223.432 148.158V151.158ZM223.432 153.462V156.462C225.089 156.462 226.432 155.118 226.432 153.462H223.432ZM205.612 153.462H202.612C202.612 155.118 203.955 156.462 205.612 156.462V153.462ZM205.612 128.262V125.262C203.955 125.262 202.612 126.605 202.612 128.262H205.612ZM222.892 128.262H225.892C225.892 126.605 224.549 125.262 222.892 125.262V128.262ZM222.892 130.566V133.566C224.549 133.566 225.892 132.222 225.892 130.566H222.892ZM208.276 130.566V127.566C206.619 127.566 205.276 128.909 205.276 130.566H208.276ZM208.276 139.53H205.276C205.276 141.186 206.619 142.53 208.276 142.53V139.53ZM221.308 139.53H224.308C224.308 137.873 222.965 136.53 221.308 136.53V139.53ZM221.308 141.798V144.798C222.965 144.798 224.308 143.454 224.308 141.798H221.308ZM208.276 141.798V138.798C206.619 138.798 205.276 140.141 205.276 141.798H208.276ZM208.276 151.158H205.276C205.276 152.814 206.619 154.158 208.276 154.158V151.158ZM220.432 151.158V153.462H226.432V151.158H220.432ZM223.432 150.462H205.612V156.462H223.432V150.462ZM208.612 153.462V128.262H202.612V153.462H208.612ZM205.612 131.262H222.892V125.262H205.612V131.262ZM219.892 128.262V130.566H225.892V128.262H219.892ZM222.892 127.566H208.276V133.566H222.892V127.566ZM205.276 130.566V139.53H211.276V130.566H205.276ZM208.276 142.53H221.308V136.53H208.276V142.53ZM218.308 139.53V141.798H224.308V139.53H218.308ZM221.308 138.798H208.276V144.798H221.308V138.798ZM205.276 141.798V151.158H211.276V141.798H205.276ZM208.276 154.158H223.432V148.158H208.276V154.158Z" fill="#80FF80"/>
<path d="M125.28 102.936H120.08V102.556H130.88V102.936H125.68V116.556H125.28V102.936ZM146.617 102.556V116.556H146.217V109.636H136.017V116.556H135.617V102.556H136.017V109.256H146.217V102.556H146.617ZM163.265 116.176V116.556H153.945V102.556H162.965V102.936H154.345V109.256H162.065V109.636H154.345V116.176H163.265Z" fill="#80FF80"/>
<path d="M125.28 102.936H127.28C127.28 101.831 126.385 100.936 125.28 100.936V102.936ZM120.08 102.936H118.08C118.08 104.04 118.975 104.936 120.08 104.936V102.936ZM120.08 102.556V100.556C118.975 100.556 118.08 101.451 118.08 102.556H120.08ZM130.88 102.556H132.88C132.88 101.451 131.985 100.556 130.88 100.556V102.556ZM130.88 102.936V104.936C131.985 104.936 132.88 104.04 132.88 102.936H130.88ZM125.68 102.936V100.936C124.575 100.936 123.68 101.831 123.68 102.936H125.68ZM125.68 116.556V118.556C126.785 118.556 127.68 117.66 127.68 116.556H125.68ZM125.28 116.556H123.28C123.28 117.66 124.175 118.556 125.28 118.556V116.556ZM125.28 100.936H120.08V104.936H125.28V100.936ZM122.08 102.936V102.556H118.08V102.936H122.08ZM120.08 104.556H130.88V100.556H120.08V104.556ZM128.88 102.556V102.936H132.88V102.556H128.88ZM130.88 100.936H125.68V104.936H130.88V100.936ZM123.68 102.936V116.556H127.68V102.936H123.68ZM125.68 114.556H125.28V118.556H125.68V114.556ZM127.28 116.556V102.936H123.28V116.556H127.28ZM146.617 102.556H148.617C148.617 101.451 147.722 100.556 146.617 100.556V102.556ZM146.617 116.556V118.556C147.722 118.556 148.617 117.66 148.617 116.556H146.617ZM146.217 116.556H144.217C144.217 117.66 145.112 118.556 146.217 118.556V116.556ZM146.217 109.636H148.217C148.217 108.531 147.322 107.636 146.217 107.636V109.636ZM136.017 109.636V107.636C134.912 107.636 134.017 108.531 134.017 109.636H136.017ZM136.017 116.556V118.556C137.122 118.556 138.017 117.66 138.017 116.556H136.017ZM135.617 116.556H133.617C133.617 117.66 134.512 118.556 135.617 118.556V116.556ZM135.617 102.556V100.556C134.512 100.556 133.617 101.451 133.617 102.556H135.617ZM136.017 102.556H138.017C138.017 101.451 137.122 100.556 136.017 100.556V102.556ZM136.017 109.256H134.017C134.017 110.36 134.912 111.256 136.017 111.256V109.256ZM146.217 109.256V111.256C147.322 111.256 148.217 110.36 148.217 109.256H146.217ZM146.217 102.556V100.556C145.112 100.556 144.217 101.451 144.217 102.556H146.217ZM144.617 102.556V116.556H148.617V102.556H144.617ZM146.617 114.556H146.217V118.556H146.617V114.556ZM148.217 116.556V109.636H144.217V116.556H148.217ZM146.217 107.636H136.017V111.636H146.217V107.636ZM134.017 109.636V116.556H138.017V109.636H134.017ZM136.017 114.556H135.617V118.556H136.017V114.556ZM137.617 116.556V102.556H133.617V116.556H137.617ZM135.617 104.556H136.017V100.556H135.617V104.556ZM134.017 102.556V109.256H138.017V102.556H134.017ZM136.017 111.256H146.217V107.256H136.017V111.256ZM148.217 109.256V102.556H144.217V109.256H148.217ZM146.217 104.556H146.617V100.556H146.217V104.556ZM163.265 116.176H165.265C165.265 115.071 164.37 114.176 163.265 114.176V116.176ZM163.265 116.556V118.556C164.37 118.556 165.265 117.66 165.265 116.556H163.265ZM153.945 116.556H151.945C151.945 117.66 152.841 118.556 153.945 118.556V116.556ZM153.945 102.556V100.556C152.841 100.556 151.945 101.451 151.945 102.556H153.945ZM162.965 102.556H164.965C164.965 101.451 164.07 100.556 162.965 100.556V102.556ZM162.965 102.936V104.936C164.07 104.936 164.965 104.04 164.965 102.936H162.965ZM154.345 102.936V100.936C153.241 100.936 152.345 101.831 152.345 102.936H154.345ZM154.345 109.256H152.345C152.345 110.36 153.241 111.256 154.345 111.256V109.256ZM162.065 109.256H164.065C164.065 108.151 163.17 107.256 162.065 107.256V109.256ZM162.065 109.636V111.636C163.17 111.636 164.065 110.74 164.065 109.636H162.065ZM154.345 109.636V107.636C153.241 107.636 152.345 108.531 152.345 109.636H154.345ZM154.345 116.176H152.345C152.345 117.28 153.241 118.176 154.345 118.176V116.176ZM161.265 116.176V116.556H165.265V116.176H161.265ZM163.265 114.556H153.945V118.556H163.265V114.556ZM155.945 116.556V102.556H151.945V116.556H155.945ZM153.945 104.556H162.965V100.556H153.945V104.556ZM160.965 102.556V102.936H164.965V102.556H160.965ZM162.965 100.936H154.345V104.936H162.965V100.936ZM152.345 102.936V109.256H156.345V102.936H152.345ZM154.345 111.256H162.065V107.256H154.345V111.256ZM160.065 109.256V109.636H164.065V109.256H160.065ZM162.065 107.636H154.345V111.636H162.065V107.636ZM152.345 109.636V116.176H156.345V109.636H152.345ZM154.345 118.176H163.265V114.176H154.345V118.176Z" fill="#80FF80"/>
<path d="M0 143.389L9.4667 144.649C18.9333 145.948 37.8667 148.468 56.8 145.871C75.7333 143.275 94.6667 135.486 113.6 136.02C132.533 136.517 151.467 145.299 170.4 145.871C189.333 146.444 208.267 138.808 227.2 134.875C246.133 130.904 265.067 130.675 274.533 130.522L284 130.408V320.551H274.533C265.067 320.551 246.133 320.551 227.2 320.551C208.267 320.551 189.333 320.551 170.4 320.551C151.467 320.551 132.533 320.551 113.6 320.551C94.6667 320.551 75.7333 320.551 56.8 320.551C37.8667 320.551 18.9333 320.551 9.4667 320.551H0V143.389Z" fill="#80FF80"/>
<path d="M0 150.862L9.4667 155.099C18.9333 159.297 37.8667 167.771 56.8 171.454C75.7333 175.137 94.6667 174.107 113.6 172.959C132.533 171.85 151.467 170.662 170.4 177.711C189.333 184.799 208.267 200.084 227.2 199.965C246.133 199.847 265.067 184.245 274.533 176.483L284 168.682V319.951H274.533C265.067 319.951 246.133 319.951 227.2 319.951C208.267 319.951 189.333 319.951 170.4 319.951C151.467 319.951 132.533 319.951 113.6 319.951C94.6667 319.951 75.7333 319.951 56.8 319.951C37.8667 319.951 18.9333 319.951 9.4667 319.951H0V150.862Z" fill="#63F361"/>
<path d="M0 228.081V204.076C9.4667 202.294 29.6 216.914 56.8 217.389C84 217.864 94.6667 210.261 113.6 210.34C132.533 210.38 151.467 214.102 170.4 217.864C189.333 221.626 208.267 225.428 227.2 220.082C246.133 214.736 269.327 208.281 284 195.214V319.951H274.533C265.067 319.951 246.133 319.951 227.2 319.951C208.267 319.951 189.333 319.951 170.4 319.951C151.467 319.951 132.533 319.951 113.6 319.951C94.6667 319.951 75.7333 319.951 56.8 319.951C37.8667 319.951 18.9333 319.951 9.4667 319.951H0V228.081Z" fill="#48E145"/>
<path d="M0 233.229L9.4667 235.486C18.9333 237.704 37.8667 242.218 56.8 244.396C75.7333 246.574 94.6667 246.415 113.6 242.218C132.533 237.981 147.825 233.893 170.4 232.833C192.619 231.79 209.213 232.833 227.2 236.674C245.187 240.515 274.533 246.653 284 253.821V265.7V319.951H274.533C265.067 319.951 246.133 319.951 227.2 319.951C208.267 319.951 189.333 319.951 170.4 319.951C151.467 319.951 132.533 319.951 113.6 319.951C94.6667 319.951 75.7333 319.951 56.8 319.951C37.8667 319.951 18.9333 319.951 9.4667 319.951H0V233.229Z" fill="#30CE2D"/>
<path d="M0 293.676L9.4667 294.35C18.9333 294.983 37.8667 296.33 56.8 294.587C75.7333 292.884 94.6667 288.133 113.6 281.797C132.533 275.461 151.467 267.541 170.4 265.838C189.333 264.096 208.267 268.61 227.2 268.452C246.133 268.333 265.067 263.581 274.533 261.205L284 258.829V321H274.533C265.067 321 246.133 321 227.2 321C208.267 321 189.333 321 170.4 321C151.467 321 132.533 321 113.6 321C94.6667 321 75.7333 321 56.8 321C37.8667 321 18.9333 321 9.4667 321H0V293.676Z" fill="#00C200"/>
<path d="M103.707 206.612V213.19H111.913V214.202H103.707V221H102.585V205.6H112.881V206.612H103.707ZM124.692 221.11C122.741 221.11 121.223 220.545 120.138 219.416C119.067 218.287 118.532 216.637 118.532 214.466V205.6H119.654V214.422C119.654 216.314 120.086 217.729 120.952 218.668C121.817 219.607 123.071 220.076 124.714 220.076C126.342 220.076 127.588 219.607 128.454 218.668C129.319 217.729 129.752 216.314 129.752 214.422V205.6H130.874V214.466C130.874 216.637 130.331 218.287 129.246 219.416C128.16 220.545 126.642 221.11 124.692 221.11ZM140.956 206.612H135.412V205.6H147.622V206.612H142.078V221H140.956V206.612ZM158.332 221.11C156.381 221.11 154.863 220.545 153.778 219.416C152.707 218.287 152.172 216.637 152.172 214.466V205.6H153.294V214.422C153.294 216.314 153.727 217.729 154.592 218.668C155.457 219.607 156.711 220.076 158.354 220.076C159.982 220.076 161.229 219.607 162.094 218.668C162.959 217.729 163.392 216.314 163.392 214.422V205.6H164.514V214.466C164.514 216.637 163.971 218.287 162.886 219.416C161.801 220.545 160.283 221.11 158.332 221.11ZM182.641 221L178.967 215.852C178.425 215.925 177.926 215.962 177.471 215.962H173.071V221H171.949V205.6H177.471C179.407 205.6 180.925 206.062 182.025 206.986C183.125 207.895 183.675 209.164 183.675 210.792C183.675 212.009 183.36 213.036 182.729 213.872C182.113 214.693 181.226 215.273 180.067 215.61L183.917 221H182.641ZM177.471 214.972C179.114 214.972 180.368 214.613 181.233 213.894C182.099 213.161 182.531 212.127 182.531 210.792C182.531 209.457 182.099 208.431 181.233 207.712C180.368 206.979 179.114 206.612 177.471 206.612H173.071V214.972H177.471ZM80.4794 243.666H71.5474L69.5894 248H68.3794L75.4634 232.6H76.5854L83.6694 248H82.4594L80.4794 243.666ZM80.0614 242.72L76.0134 233.832L71.9874 242.72H80.0614ZM101.205 232.6V248H100.281L89.7872 234.624V248H88.6652V232.6H89.6112L100.083 245.976V232.6H101.205ZM111.731 233.612H106.187V232.6H118.397V233.612H112.853V248H111.731V233.612ZM134.006 246.988V248H123.38V232.6H133.676V233.612H124.502V239.684H132.708V240.674H124.502V246.988H134.006ZM150.988 248L147.314 242.852C146.772 242.925 146.273 242.962 145.818 242.962H141.418V248H140.296V232.6H145.818C147.754 232.6 149.272 233.062 150.372 233.986C151.472 234.895 152.022 236.164 152.022 237.792C152.022 239.009 151.707 240.036 151.076 240.872C150.46 241.693 149.573 242.273 148.414 242.61L152.264 248H150.988ZM145.818 241.972C147.461 241.972 148.715 241.613 149.58 240.894C150.446 240.161 150.878 239.127 150.878 237.792C150.878 236.457 150.446 235.431 149.58 234.712C148.715 233.979 147.461 233.612 145.818 233.612H141.418V241.972H145.818ZM158.33 232.6H159.452V248H158.33V232.6ZM177.645 246.988V248H167.019V232.6H177.315V233.612H168.141V239.684H176.347V240.674H168.141V246.988H177.645ZM189.963 248.11C188.013 248.11 186.495 247.545 185.409 246.416C184.339 245.287 183.803 243.637 183.803 241.466V232.6H184.925V241.422C184.925 243.314 185.358 244.729 186.223 245.668C187.089 246.607 188.343 247.076 189.985 247.076C191.613 247.076 192.86 246.607 193.725 245.668C194.591 244.729 195.023 243.314 195.023 241.422V232.6H196.145V241.466C196.145 243.637 195.603 245.287 194.517 246.416C193.432 247.545 191.914 248.11 189.963 248.11ZM214.273 248L210.599 242.852C210.056 242.925 209.557 242.962 209.103 242.962H204.703V248H203.581V232.6H209.103C211.039 232.6 212.557 233.062 213.657 233.986C214.757 234.895 215.307 236.164 215.307 237.792C215.307 239.009 214.991 240.036 214.361 240.872C213.745 241.693 212.857 242.273 211.699 242.61L215.549 248H214.273ZM209.103 241.972C210.745 241.972 211.999 241.613 212.865 240.894C213.73 240.161 214.163 239.127 214.163 237.792C214.163 236.457 213.73 235.431 212.865 234.712C211.999 233.979 210.745 233.612 209.103 233.612H204.703V241.972H209.103Z" fill="white"/>
<path d="M103.707 206.612V204.612C102.602 204.612 101.707 205.507 101.707 206.612H103.707ZM103.707 213.19H101.707C101.707 214.295 102.602 215.19 103.707 215.19V213.19ZM111.913 213.19H113.913C113.913 212.085 113.017 211.19 111.913 211.19V213.19ZM111.913 214.202V216.202C113.017 216.202 113.913 215.307 113.913 214.202H111.913ZM103.707 214.202V212.202C102.602 212.202 101.707 213.097 101.707 214.202H103.707ZM103.707 221V223C104.811 223 105.707 222.105 105.707 221H103.707ZM102.585 221H100.585C100.585 222.105 101.48 223 102.585 223V221ZM102.585 205.6V203.6C101.48 203.6 100.585 204.495 100.585 205.6H102.585ZM112.881 205.6H114.881C114.881 204.495 113.985 203.6 112.881 203.6V205.6ZM112.881 206.612V208.612C113.985 208.612 114.881 207.717 114.881 206.612H112.881ZM101.707 206.612V213.19H105.707V206.612H101.707ZM103.707 215.19H111.913V211.19H103.707V215.19ZM109.913 213.19V214.202H113.913V213.19H109.913ZM111.913 212.202H103.707V216.202H111.913V212.202ZM101.707 214.202V221H105.707V214.202H101.707ZM103.707 219H102.585V223H103.707V219ZM104.585 221V205.6H100.585V221H104.585ZM102.585 207.6H112.881V203.6H102.585V207.6ZM110.881 205.6V206.612H114.881V205.6H110.881ZM112.881 204.612H103.707V208.612H112.881V204.612ZM120.138 219.416L118.686 220.792L118.696 220.802L120.138 219.416ZM118.532 205.6V203.6C117.427 203.6 116.532 204.495 116.532 205.6H118.532ZM119.654 205.6H121.654C121.654 204.495 120.758 203.6 119.654 203.6V205.6ZM120.952 218.668L119.481 220.024L120.952 218.668ZM128.454 218.668L126.983 217.312L128.454 218.668ZM129.752 205.6V203.6C128.647 203.6 127.752 204.495 127.752 205.6H129.752ZM130.874 205.6H132.874C132.874 204.495 131.978 203.6 130.874 203.6V205.6ZM129.246 219.416L127.804 218.03L129.246 219.416ZM124.692 219.11C123.143 219.11 122.2 218.675 121.58 218.03L118.696 220.802C120.246 222.415 122.339 223.11 124.692 223.11V219.11ZM121.589 218.04C120.99 217.408 120.532 216.328 120.532 214.466H116.532C116.532 216.945 117.144 219.166 118.686 220.792L121.589 218.04ZM120.532 214.466V205.6H116.532V214.466H120.532ZM118.532 207.6H119.654V203.6H118.532V207.6ZM117.654 205.6V214.422H121.654V205.6H117.654ZM117.654 214.422C117.654 216.579 118.143 218.572 119.481 220.024L122.422 217.312C122.03 216.887 121.654 216.049 121.654 214.422H117.654ZM119.481 220.024C120.827 221.483 122.682 222.076 124.714 222.076V218.076C123.46 218.076 122.807 217.73 122.422 217.312L119.481 220.024ZM124.714 222.076C126.737 222.076 128.582 221.479 129.924 220.024L126.983 217.312C126.595 217.734 125.946 218.076 124.714 218.076V222.076ZM129.924 220.024C131.263 218.572 131.752 216.579 131.752 214.422H127.752C127.752 216.049 127.376 216.887 126.983 217.312L129.924 220.024ZM131.752 214.422V205.6H127.752V214.422H131.752ZM129.752 207.6H130.874V203.6H129.752V207.6ZM128.874 205.6V214.466H132.874V205.6H128.874ZM128.874 214.466C128.874 216.322 128.412 217.397 127.804 218.03L130.688 220.802C132.25 219.176 132.874 216.951 132.874 214.466H128.874ZM127.804 218.03C127.184 218.675 126.24 219.11 124.692 219.11V223.11C127.044 223.11 129.137 222.415 130.688 220.802L127.804 218.03ZM140.956 206.612H142.956C142.956 205.507 142.061 204.612 140.956 204.612V206.612ZM135.412 206.612H133.412C133.412 207.717 134.308 208.612 135.412 208.612V206.612ZM135.412 205.6V203.6C134.308 203.6 133.412 204.495 133.412 205.6H135.412ZM147.622 205.6H149.622C149.622 204.495 148.727 203.6 147.622 203.6V205.6ZM147.622 206.612V208.612C148.727 208.612 149.622 207.717 149.622 206.612H147.622ZM142.078 206.612V204.612C140.974 204.612 140.078 205.507 140.078 206.612H142.078ZM142.078 221V223C143.183 223 144.078 222.105 144.078 221H142.078ZM140.956 221H138.956C138.956 222.105 139.852 223 140.956 223V221ZM140.956 204.612H135.412V208.612H140.956V204.612ZM137.412 206.612V205.6H133.412V206.612H137.412ZM135.412 207.6H147.622V203.6H135.412V207.6ZM145.622 205.6V206.612H149.622V205.6H145.622ZM147.622 204.612H142.078V208.612H147.622V204.612ZM140.078 206.612V221H144.078V206.612H140.078ZM142.078 219H140.956V223H142.078V219ZM142.956 221V206.612H138.956V221H142.956ZM153.778 219.416L152.326 220.792L152.336 220.802L153.778 219.416ZM152.172 205.6V203.6C151.067 203.6 150.172 204.495 150.172 205.6H152.172ZM153.294 205.6H155.294C155.294 204.495 154.398 203.6 153.294 203.6V205.6ZM154.592 218.668L153.121 220.024L154.592 218.668ZM162.094 218.668L160.623 217.312L162.094 218.668ZM163.392 205.6V203.6C162.287 203.6 161.392 204.495 161.392 205.6H163.392ZM164.514 205.6H166.514C166.514 204.495 165.618 203.6 164.514 203.6V205.6ZM162.886 219.416L161.444 218.03L162.886 219.416ZM158.332 219.11C156.783 219.11 155.84 218.675 155.22 218.03L152.336 220.802C153.887 222.415 155.979 223.11 158.332 223.11V219.11ZM155.229 218.04C154.63 217.408 154.172 216.328 154.172 214.466H150.172C150.172 216.945 150.785 219.166 152.327 220.792L155.229 218.04ZM154.172 214.466V205.6H150.172V214.466H154.172ZM152.172 207.6H153.294V203.6H152.172V207.6ZM151.294 205.6V214.422H155.294V205.6H151.294ZM151.294 214.422C151.294 216.579 151.783 218.572 153.121 220.024L156.062 217.312C155.67 216.887 155.294 216.049 155.294 214.422H151.294ZM153.121 220.024C154.467 221.483 156.322 222.076 158.354 222.076V218.076C157.1 218.076 156.448 217.73 156.062 217.312L153.121 220.024ZM158.354 222.076C160.377 222.076 162.222 221.479 163.564 220.024L160.623 217.312C160.235 217.734 159.587 218.076 158.354 218.076V222.076ZM163.564 220.024C164.903 218.572 165.392 216.579 165.392 214.422H161.392C161.392 216.049 161.016 216.887 160.623 217.312L163.564 220.024ZM165.392 214.422V205.6H161.392V214.422H165.392ZM163.392 207.6H164.514V203.6H163.392V207.6ZM162.514 205.6V214.466H166.514V205.6H162.514ZM162.514 214.466C162.514 216.322 162.052 217.397 161.444 218.03L164.328 220.802C165.89 219.176 166.514 216.951 166.514 214.466H162.514ZM161.444 218.03C160.824 218.675 159.88 219.11 158.332 219.11V223.11C160.685 223.11 162.777 222.415 164.328 220.802L161.444 218.03ZM182.641 221L181.013 222.162C181.389 222.688 181.995 223 182.641 223V221ZM178.967 215.852L180.595 214.69C180.164 214.086 179.435 213.771 178.699 213.87L178.967 215.852ZM173.071 215.962V213.962C171.967 213.962 171.071 214.857 171.071 215.962H173.071ZM173.071 221V223C174.176 223 175.071 222.105 175.071 221H173.071ZM171.949 221H169.949C169.949 222.105 170.845 223 171.949 223V221ZM171.949 205.6V203.6C170.845 203.6 169.949 204.495 169.949 205.6H171.949ZM182.025 206.986L180.739 208.517C180.743 208.521 180.747 208.524 180.751 208.527L182.025 206.986ZM182.729 213.872L181.133 212.668L181.129 212.672L182.729 213.872ZM180.067 215.61L179.508 213.69C178.886 213.871 178.39 214.343 178.178 214.955C177.965 215.568 178.063 216.245 178.44 216.772L180.067 215.61ZM183.917 221V223C184.666 223 185.353 222.581 185.696 221.915C186.038 221.249 185.98 220.447 185.545 219.838L183.917 221ZM181.233 213.894L182.511 215.433C182.516 215.428 182.521 215.424 182.526 215.42L181.233 213.894ZM181.233 207.712L179.94 209.238C179.945 209.242 179.95 209.246 179.955 209.251L181.233 207.712ZM173.071 206.612V204.612C171.967 204.612 171.071 205.507 171.071 206.612H173.071ZM173.071 214.972H171.071C171.071 216.077 171.967 216.972 173.071 216.972V214.972ZM184.269 219.838L180.595 214.69L177.339 217.014L181.013 222.162L184.269 219.838ZM178.699 213.87C178.228 213.934 177.82 213.962 177.471 213.962V217.962C178.031 217.962 178.621 217.917 179.235 217.834L178.699 213.87ZM177.471 213.962H173.071V217.962H177.471V213.962ZM171.071 215.962V221H175.071V215.962H171.071ZM173.071 219H171.949V223H173.071V219ZM173.949 221V205.6H169.949V221H173.949ZM171.949 207.6H177.471V203.6H171.949V207.6ZM177.471 207.6C179.101 207.6 180.108 207.987 180.739 208.517L183.312 205.455C181.743 204.137 179.714 203.6 177.471 203.6V207.6ZM180.751 208.527C181.323 209.001 181.675 209.666 181.675 210.792H185.675C185.675 208.662 184.927 206.79 183.3 205.445L180.751 208.527ZM181.675 210.792C181.675 211.648 181.461 212.233 181.133 212.668L184.326 215.076C185.259 213.839 185.675 212.371 185.675 210.792H181.675ZM181.129 212.672C180.817 213.089 180.327 213.451 179.508 213.69L180.626 217.53C182.125 217.094 183.41 216.298 184.329 215.072L181.129 212.672ZM178.44 216.772L182.29 222.162L185.545 219.838L181.695 214.448L178.44 216.772ZM183.917 219H182.641V223H183.917V219ZM177.471 216.972C179.372 216.972 181.153 216.56 182.511 215.433L179.955 212.355C179.582 212.665 178.856 212.972 177.471 212.972V216.972ZM182.526 215.42C183.921 214.238 184.531 212.6 184.531 210.792H180.531C180.531 211.654 180.276 212.083 179.94 212.368L182.526 215.42ZM184.531 210.792C184.531 208.985 183.921 207.344 182.511 206.173L179.955 209.251C180.276 209.517 180.531 209.929 180.531 210.792H184.531ZM182.526 206.186C181.168 205.035 179.38 204.612 177.471 204.612V208.612C178.848 208.612 179.568 208.922 179.94 209.238L182.526 206.186ZM177.471 204.612H173.071V208.612H177.471V204.612ZM171.071 206.612V214.972H175.071V206.612H171.071ZM173.071 216.972H177.471V212.972H173.071V216.972ZM80.4794 243.666L82.2986 242.835C81.9733 242.123 81.2623 241.666 80.4794 241.666V243.666ZM71.5474 243.666V241.666C70.7615 241.666 70.0484 242.126 69.7248 242.843L71.5474 243.666ZM69.5894 248V250C70.3754 250 71.0885 249.54 71.4121 248.823L69.5894 248ZM68.3794 248L66.5625 247.164C66.2776 247.783 66.3277 248.505 66.6954 249.079C67.0632 249.653 67.6978 250 68.3794 250V248ZM75.4634 232.6V230.6C74.6824 230.6 73.9728 231.055 73.6465 231.764L75.4634 232.6ZM76.5854 232.6L78.4024 231.764C78.076 231.055 77.3665 230.6 76.5854 230.6V232.6ZM83.6694 248V250C84.351 250 84.9857 249.653 85.3534 249.079C85.7211 248.505 85.7713 247.783 85.4864 247.164L83.6694 248ZM82.4594 248L80.6403 248.831C80.9656 249.543 81.6765 250 82.4594 250V248ZM80.0614 242.72V244.72C80.7417 244.72 81.3753 244.374 81.7434 243.802C82.1115 243.23 82.1635 242.51 81.8815 241.891L80.0614 242.72ZM76.0134 233.832L77.8335 233.003C77.5084 232.289 76.7959 231.831 76.0114 231.832C75.2269 231.833 74.5153 232.292 74.1916 233.007L76.0134 233.832ZM71.9874 242.72L70.1656 241.895C69.8852 242.514 69.9383 243.233 70.3066 243.804C70.6749 244.375 71.3079 244.72 71.9874 244.72V242.72ZM80.4794 241.666H71.5474V245.666H80.4794V241.666ZM69.7248 242.843L67.7668 247.177L71.4121 248.823L73.3701 244.489L69.7248 242.843ZM69.5894 246H68.3794V250H69.5894V246ZM70.1964 248.836L77.2804 233.436L73.6465 231.764L66.5625 247.164L70.1964 248.836ZM75.4634 234.6H76.5854V230.6H75.4634V234.6ZM74.7685 233.436L81.8525 248.836L85.4864 247.164L78.4024 231.764L74.7685 233.436ZM83.6694 246H82.4594V250H83.6694V246ZM84.2786 247.169L82.2986 242.835L78.6603 244.497L80.6403 248.831L84.2786 247.169ZM81.8815 241.891L77.8335 233.003L74.1933 234.661L78.2413 243.549L81.8815 241.891ZM74.1916 233.007L70.1656 241.895L73.8092 243.545L77.8352 234.657L74.1916 233.007ZM71.9874 244.72H80.0614V240.72H71.9874V244.72ZM101.205 232.6H103.205C103.205 231.495 102.31 230.6 101.205 230.6V232.6ZM101.205 248V250C102.31 250 103.205 249.105 103.205 248H101.205ZM100.281 248L98.7081 249.234C99.0871 249.718 99.6671 250 100.281 250V248ZM89.7872 234.624L91.3607 233.389C90.8343 232.718 89.9402 232.455 89.1341 232.734C88.328 233.012 87.7872 233.771 87.7872 234.624H89.7872ZM89.7872 248V250C90.8917 250 91.7872 249.105 91.7872 248H89.7872ZM88.6652 248H86.6652C86.6652 249.105 87.5606 250 88.6652 250V248ZM88.6652 232.6V230.6C87.5606 230.6 86.6652 231.495 86.6652 232.6H88.6652ZM89.6112 232.6L91.1859 231.367C90.8069 230.883 90.2261 230.6 89.6112 230.6V232.6ZM100.083 245.976L98.5081 247.209C99.0341 247.881 99.9291 248.145 100.735 247.867C101.542 247.589 102.083 246.829 102.083 245.976H100.083ZM100.083 232.6V230.6C98.9781 230.6 98.0831 231.495 98.0831 232.6H100.083ZM99.2051 232.6V248H103.205V232.6H99.2051ZM101.205 246H100.281V250H101.205V246ZM101.855 246.766L91.3607 233.389L88.2136 235.858L98.7081 249.234L101.855 246.766ZM87.7872 234.624V248H91.7872V234.624H87.7872ZM89.7872 246H88.6652V250H89.7872V246ZM90.6652 248V232.6H86.6652V248H90.6652ZM88.6652 234.6H89.6112V230.6H88.6652V234.6ZM88.0364 233.833L98.5081 247.209L101.658 244.743L91.1859 231.367L88.0364 233.833ZM102.083 245.976V232.6H98.0831V245.976H102.083ZM100.083 234.6H101.205V230.6H100.083V234.6ZM111.731 233.612H113.731C113.731 232.507 112.836 231.612 111.731 231.612V233.612ZM106.187 233.612H104.187C104.187 234.717 105.082 235.612 106.187 235.612V233.612ZM106.187 232.6V230.6C105.082 230.6 104.187 231.495 104.187 232.6H106.187ZM118.397 232.6H120.397C120.397 231.495 119.502 230.6 118.397 230.6V232.6ZM118.397 233.612V235.612C119.502 235.612 120.397 234.717 120.397 233.612H118.397ZM112.853 233.612V231.612C111.748 231.612 110.853 232.507 110.853 233.612H112.853ZM112.853 248V250C113.958 250 114.853 249.105 114.853 248H112.853ZM111.731 248H109.731C109.731 249.105 110.626 250 111.731 250V248ZM111.731 231.612H106.187V235.612H111.731V231.612ZM108.187 233.612V232.6H104.187V233.612H108.187ZM106.187 234.6H118.397V230.6H106.187V234.6ZM116.397 232.6V233.612H120.397V232.6H116.397ZM118.397 231.612H112.853V235.612H118.397V231.612ZM110.853 233.612V248H114.853V233.612H110.853ZM112.853 246H111.731V250H112.853V246ZM113.731 248V233.612H109.731V248H113.731ZM134.006 246.988H136.006C136.006 245.883 135.11 244.988 134.006 244.988V246.988ZM134.006 248V250C135.11 250 136.006 249.105 136.006 248H134.006ZM123.38 248H121.38C121.38 249.105 122.275 250 123.38 250V248ZM123.38 232.6V230.6C122.275 230.6 121.38 231.495 121.38 232.6H123.38ZM133.676 232.6H135.676C135.676 231.495 134.78 230.6 133.676 230.6V232.6ZM133.676 233.612V235.612C134.78 235.612 135.676 234.717 135.676 233.612H133.676ZM124.502 233.612V231.612C123.397 231.612 122.502 232.507 122.502 233.612H124.502ZM124.502 239.684H122.502C122.502 240.789 123.397 241.684 124.502 241.684V239.684ZM132.708 239.684H134.708C134.708 238.579 133.812 237.684 132.708 237.684V239.684ZM132.708 240.674V242.674C133.812 242.674 134.708 241.779 134.708 240.674H132.708ZM124.502 240.674V238.674C123.397 238.674 122.502 239.569 122.502 240.674H124.502ZM124.502 246.988H122.502C122.502 248.093 123.397 248.988 124.502 248.988V246.988ZM132.006 246.988V248H136.006V246.988H132.006ZM134.006 246H123.38V250H134.006V246ZM125.38 248V232.6H121.38V248H125.38ZM123.38 234.6H133.676V230.6H123.38V234.6ZM131.676 232.6V233.612H135.676V232.6H131.676ZM133.676 231.612H124.502V235.612H133.676V231.612ZM122.502 233.612V239.684H126.502V233.612H122.502ZM124.502 241.684H132.708V237.684H124.502V241.684ZM130.708 239.684V240.674H134.708V239.684H130.708ZM132.708 238.674H124.502V242.674H132.708V238.674ZM122.502 240.674V246.988H126.502V240.674H122.502ZM124.502 248.988H134.006V244.988H124.502V248.988ZM150.988 248L149.36 249.162C149.736 249.688 150.342 250 150.988 250V248ZM147.314 242.852L148.942 241.69C148.511 241.086 147.782 240.771 147.046 240.87L147.314 242.852ZM141.418 242.962V240.962C140.314 240.962 139.418 241.857 139.418 242.962H141.418ZM141.418 248V250C142.523 250 143.418 249.105 143.418 248H141.418ZM140.296 248H138.296C138.296 249.105 139.192 250 140.296 250V248ZM140.296 232.6V230.6C139.192 230.6 138.296 231.495 138.296 232.6H140.296ZM150.372 233.986L149.086 235.517C149.09 235.521 149.094 235.524 149.098 235.527L150.372 233.986ZM151.076 240.872L149.48 239.668L149.476 239.672L151.076 240.872ZM148.414 242.61L147.855 240.69C147.233 240.871 146.737 241.343 146.525 241.955C146.312 242.568 146.41 243.245 146.787 243.772L148.414 242.61ZM152.264 248V250C153.013 250 153.7 249.581 154.043 248.915C154.385 248.249 154.327 247.447 153.892 246.838L152.264 248ZM149.58 240.894L150.858 242.433C150.863 242.428 150.868 242.424 150.873 242.42L149.58 240.894ZM149.58 234.712L148.287 236.238C148.292 236.242 148.297 236.246 148.303 236.251L149.58 234.712ZM141.418 233.612V231.612C140.314 231.612 139.418 232.507 139.418 233.612H141.418ZM141.418 241.972H139.418C139.418 243.077 140.314 243.972 141.418 243.972V241.972ZM152.616 246.838L148.942 241.69L145.686 244.014L149.36 249.162L152.616 246.838ZM147.046 240.87C146.575 240.934 146.167 240.962 145.818 240.962V244.962C146.378 244.962 146.968 244.917 147.582 244.834L147.046 240.87ZM145.818 240.962H141.418V244.962H145.818V240.962ZM139.418 242.962V248H143.418V242.962H139.418ZM141.418 246H140.296V250H141.418V246ZM142.296 248V232.6H138.296V248H142.296ZM140.296 234.6H145.818V230.6H140.296V234.6ZM145.818 234.6C147.448 234.6 148.455 234.987 149.086 235.517L151.659 232.455C150.09 231.137 148.061 230.6 145.818 230.6V234.6ZM149.098 235.527C149.67 236.001 150.022 236.666 150.022 237.792H154.022C154.022 235.662 153.274 233.79 151.647 232.445L149.098 235.527ZM150.022 237.792C150.022 238.648 149.808 239.233 149.48 239.668L152.673 242.076C153.606 240.839 154.022 239.371 154.022 237.792H150.022ZM149.476 239.672C149.164 240.089 148.674 240.451 147.855 240.69L148.973 244.53C150.472 244.094 151.757 243.298 152.676 242.072L149.476 239.672ZM146.787 243.772L150.637 249.162L153.892 246.838L150.042 241.448L146.787 243.772ZM152.264 246H150.988V250H152.264V246ZM145.818 243.972C147.719 243.972 149.5 243.56 150.858 242.433L148.303 239.355C147.93 239.665 147.203 239.972 145.818 239.972V243.972ZM150.873 242.42C152.268 241.238 152.878 239.6 152.878 237.792H148.878C148.878 238.654 148.623 239.083 148.287 239.368L150.873 242.42ZM152.878 237.792C152.878 235.985 152.268 234.344 150.858 233.173L148.303 236.251C148.624 236.517 148.878 236.929 148.878 237.792H152.878ZM150.873 233.186C149.515 232.035 147.727 231.612 145.818 231.612V235.612C147.195 235.612 147.915 235.922 148.287 236.238L150.873 233.186ZM145.818 231.612H141.418V235.612H145.818V231.612ZM139.418 233.612V241.972H143.418V233.612H139.418ZM141.418 243.972H145.818V239.972H141.418V243.972ZM158.33 232.6V230.6C157.226 230.6 156.33 231.495 156.33 232.6H158.33ZM159.452 232.6H161.452C161.452 231.495 160.557 230.6 159.452 230.6V232.6ZM159.452 248V250C160.557 250 161.452 249.105 161.452 248H159.452ZM158.33 248H156.33C156.33 249.105 157.226 250 158.33 250V248ZM158.33 234.6H159.452V230.6H158.33V234.6ZM157.452 232.6V248H161.452V232.6H157.452ZM159.452 246H158.33V250H159.452V246ZM160.33 248V232.6H156.33V248H160.33ZM177.645 246.988H179.645C179.645 245.883 178.749 244.988 177.645 244.988V246.988ZM177.645 248V250C178.749 250 179.645 249.105 179.645 248H177.645ZM167.019 248H165.019C165.019 249.105 165.914 250 167.019 250V248ZM167.019 232.6V230.6C165.914 230.6 165.019 231.495 165.019 232.6H167.019ZM177.315 232.6H179.315C179.315 231.495 178.419 230.6 177.315 230.6V232.6ZM177.315 233.612V235.612C178.419 235.612 179.315 234.717 179.315 233.612H177.315ZM168.141 233.612V231.612C167.036 231.612 166.141 232.507 166.141 233.612H168.141ZM168.141 239.684H166.141C166.141 240.789 167.036 241.684 168.141 241.684V239.684ZM176.347 239.684H178.347C178.347 238.579 177.451 237.684 176.347 237.684V239.684ZM176.347 240.674V242.674C177.451 242.674 178.347 241.779 178.347 240.674H176.347ZM168.141 240.674V238.674C167.036 238.674 166.141 239.569 166.141 240.674H168.141ZM168.141 246.988H166.141C166.141 248.093 167.036 248.988 168.141 248.988V246.988ZM175.645 246.988V248H179.645V246.988H175.645ZM177.645 246H167.019V250H177.645V246ZM169.019 248V232.6H165.019V248H169.019ZM167.019 234.6H177.315V230.6H167.019V234.6ZM175.315 232.6V233.612H179.315V232.6H175.315ZM177.315 231.612H168.141V235.612H177.315V231.612ZM166.141 233.612V239.684H170.141V233.612H166.141ZM168.141 241.684H176.347V237.684H168.141V241.684ZM174.347 239.684V240.674H178.347V239.684H174.347ZM176.347 238.674H168.141V242.674H176.347V238.674ZM166.141 240.674V246.988H170.141V240.674H166.141ZM168.141 248.988H177.645V244.988H168.141V248.988ZM185.409 246.416L183.958 247.792L183.967 247.802L185.409 246.416ZM183.803 232.6V230.6C182.699 230.6 181.803 231.495 181.803 232.6H183.803ZM184.925 232.6H186.925C186.925 231.495 186.03 230.6 184.925 230.6V232.6ZM186.223 245.668L184.753 247.024L186.223 245.668ZM193.725 245.668L192.255 244.312L193.725 245.668ZM195.023 232.6V230.6C193.919 230.6 193.023 231.495 193.023 232.6H195.023ZM196.145 232.6H198.145C198.145 231.495 197.25 230.6 196.145 230.6V232.6ZM194.517 246.416L193.075 245.03L194.517 246.416ZM189.963 246.11C188.415 246.11 187.471 245.675 186.851 245.03L183.967 247.802C185.518 249.415 187.611 250.11 189.963 250.11V246.11ZM186.861 245.04C186.261 244.408 185.803 243.328 185.803 241.466H181.803C181.803 243.945 182.416 246.166 183.958 247.792L186.861 245.04ZM185.803 241.466V232.6H181.803V241.466H185.803ZM183.803 234.6H184.925V230.6H183.803V234.6ZM182.925 232.6V241.422H186.925V232.6H182.925ZM182.925 241.422C182.925 243.579 183.415 245.572 184.753 247.024L187.694 244.312C187.302 243.887 186.925 243.049 186.925 241.422H182.925ZM184.753 247.024C186.098 248.483 187.954 249.076 189.985 249.076V245.076C188.732 245.076 188.079 244.73 187.694 244.312L184.753 247.024ZM189.985 249.076C192.009 249.076 193.854 248.479 195.196 247.024L192.255 244.312C191.866 244.734 191.218 245.076 189.985 245.076V249.076ZM195.196 247.024C196.534 245.572 197.023 243.579 197.023 241.422H193.023C193.023 243.049 192.647 243.887 192.255 244.312L195.196 247.024ZM197.023 241.422V232.6H193.023V241.422H197.023ZM195.023 234.6H196.145V230.6H195.023V234.6ZM194.145 232.6V241.466H198.145V232.6H194.145ZM194.145 241.466C194.145 243.322 193.684 244.397 193.075 245.03L195.959 247.802C197.522 246.176 198.145 243.951 198.145 241.466H194.145ZM193.075 245.03C192.455 245.675 191.512 246.11 189.963 246.11V250.11C192.316 250.11 194.409 249.415 195.959 247.802L193.075 245.03ZM214.273 248L212.645 249.162C213.02 249.688 213.626 250 214.273 250V248ZM210.599 242.852L212.227 241.69C211.796 241.086 211.066 240.771 210.331 240.87L210.599 242.852ZM204.703 242.962V240.962C203.598 240.962 202.703 241.857 202.703 242.962H204.703ZM204.703 248V250C205.807 250 206.703 249.105 206.703 248H204.703ZM203.581 248H201.581C201.581 249.105 202.476 250 203.581 250V248ZM203.581 232.6V230.6C202.476 230.6 201.581 231.495 201.581 232.6H203.581ZM213.657 233.986L212.37 235.517C212.374 235.521 212.378 235.524 212.382 235.527L213.657 233.986ZM214.361 240.872L212.764 239.668L212.761 239.672L214.361 240.872ZM211.699 242.61L211.14 240.69C210.517 240.871 210.021 241.343 209.809 241.955C209.597 242.568 209.694 243.245 210.071 243.772L211.699 242.61ZM215.549 248V250C216.298 250 216.984 249.581 217.327 248.915C217.67 248.249 217.612 247.447 217.176 246.838L215.549 248ZM212.865 240.894L214.142 242.433C214.148 242.428 214.153 242.424 214.158 242.42L212.865 240.894ZM212.865 234.712L211.572 236.238C211.577 236.242 211.582 236.246 211.587 236.251L212.865 234.712ZM204.703 233.612V231.612C203.598 231.612 202.703 232.507 202.703 233.612H204.703ZM204.703 241.972H202.703C202.703 243.077 203.598 243.972 204.703 243.972V241.972ZM215.901 246.838L212.227 241.69L208.971 244.014L212.645 249.162L215.901 246.838ZM210.331 240.87C209.86 240.934 209.452 240.962 209.103 240.962V244.962C209.663 244.962 210.252 244.917 210.867 244.834L210.331 240.87ZM209.103 240.962H204.703V244.962H209.103V240.962ZM202.703 242.962V248H206.703V242.962H202.703ZM204.703 246H203.581V250H204.703V246ZM205.581 248V232.6H201.581V248H205.581ZM203.581 234.6H209.103V230.6H203.581V234.6ZM209.103 234.6C210.732 234.6 211.739 234.987 212.37 235.517L214.943 232.455C213.374 231.137 211.345 230.6 209.103 230.6V234.6ZM212.382 235.527C212.955 236.001 213.307 236.666 213.307 237.792H217.307C217.307 235.662 216.559 233.79 214.931 232.445L212.382 235.527ZM213.307 237.792C213.307 238.648 213.092 239.233 212.764 239.668L215.957 242.076C216.891 240.839 217.307 239.371 217.307 237.792H213.307ZM212.761 239.672C212.448 240.089 211.958 240.451 211.14 240.69L212.258 244.53C213.757 244.094 215.041 243.298 215.961 242.072L212.761 239.672ZM210.071 243.772L213.921 249.162L217.176 246.838L213.326 241.448L210.071 243.772ZM215.549 246H214.273V250H215.549V246ZM209.103 243.972C211.003 243.972 212.785 243.56 214.142 242.433L211.587 239.355C211.214 239.665 210.488 239.972 209.103 239.972V243.972ZM214.158 242.42C215.552 241.238 216.163 239.6 216.163 237.792H212.163C212.163 238.654 211.908 239.083 211.572 239.368L214.158 242.42ZM216.163 237.792C216.163 235.985 215.552 234.344 214.142 233.173L211.587 236.251C211.908 236.517 212.163 236.929 212.163 237.792H216.163ZM214.158 233.186C212.799 232.035 211.011 231.612 209.103 231.612V235.612C210.479 235.612 211.199 235.922 211.572 236.238L214.158 233.186ZM209.103 231.612H204.703V235.612H209.103V231.612ZM202.703 233.612V241.972H206.703V233.612H202.703ZM204.703 243.972H209.103V239.972H204.703V243.972Z" fill="white"/>
<g style="mix-blend-mode:soft-light">
<path d="M47 192H237" stroke="white"/>
</g>
<path d="M126.367 227.892L130.454 226.404" stroke="white" stroke-width="2.9" stroke-linecap="round"/>
<mask id="mask0_157_1797" style="mask-type:alpha" maskUnits="userSpaceOnUse" x="47" y="125" width="191" height="56">
<path d="M64.768 130.566V140.466H77.8V142.77H64.768V153.462H62.104V128.262H79.384V130.566H64.768ZM98.637 153.678C95.3733 153.678 92.8293 152.742 91.0053 150.87C89.1813 148.998 88.2693 146.274 88.2693 142.698V128.262H90.9333V142.59C90.9333 145.518 91.5933 147.702 92.9133 149.142C94.2333 150.582 96.141 151.302 98.637 151.302C101.157 151.302 103.077 150.582 104.397 149.142C105.717 147.702 106.377 145.518 106.377 142.59V128.262H108.969V142.698C108.969 146.274 108.057 148.998 106.233 150.87C104.433 152.742 101.901 153.678 98.637 153.678ZM125.001 130.566H116.145V128.262H136.521V130.566H127.665V153.462H125.001V130.566ZM154.036 153.678C150.772 153.678 148.228 152.742 146.404 150.87C144.58 148.998 143.668 146.274 143.668 142.698V128.262H146.332V142.59C146.332 145.518 146.992 147.702 148.312 149.142C149.632 150.582 151.54 151.302 154.036 151.302C156.556 151.302 158.476 150.582 159.796 149.142C161.116 147.702 161.776 145.518 161.776 142.59V128.262H164.368V142.698C164.368 146.274 163.456 148.998 161.632 150.87C159.832 152.742 157.3 153.678 154.036 153.678ZM193.204 153.462L187.444 145.362C186.796 145.434 186.124 145.47 185.428 145.47H178.66V153.462H175.996V128.262H185.428C188.644 128.262 191.164 129.03 192.988 130.566C194.812 132.102 195.724 134.214 195.724 136.902C195.724 138.87 195.22 140.538 194.212 141.906C193.228 143.25 191.812 144.222 189.964 144.822L196.12 153.462H193.204ZM185.356 143.202C187.852 143.202 189.76 142.65 191.08 141.546C192.4 140.442 193.06 138.894 193.06 136.902C193.06 134.862 192.4 133.302 191.08 132.222C189.76 131.118 187.852 130.566 185.356 130.566H178.66V143.202H185.356ZM223.432 151.158V153.462H205.612V128.262H222.892V130.566H208.276V139.53H221.308V141.798H208.276V151.158H223.432Z" fill="white"/>
<path d="M64.768 130.566V127.566C63.1111 127.566 61.768 128.909 61.768 130.566H64.768ZM64.768 140.466H61.768C61.768 142.122 63.1111 143.466 64.768 143.466V140.466ZM77.8 140.466H80.8C80.8 138.809 79.4569 137.466 77.8 137.466V140.466ZM77.8 142.77V145.77C79.4569 145.77 80.8 144.426 80.8 142.77H77.8ZM64.768 142.77V139.77C63.1111 139.77 61.768 141.113 61.768 142.77H64.768ZM64.768 153.462V156.462C66.4249 156.462 67.768 155.118 67.768 153.462H64.768ZM62.104 153.462H59.104C59.104 155.118 60.4471 156.462 62.104 156.462V153.462ZM62.104 128.262V125.262C60.4471 125.262 59.104 126.605 59.104 128.262H62.104ZM79.384 128.262H82.384C82.384 126.605 81.0409 125.262 79.384 125.262V128.262ZM79.384 130.566V133.566C81.0409 133.566 82.384 132.222 82.384 130.566H79.384ZM61.768 130.566V140.466H67.768V130.566H61.768ZM64.768 143.466H77.8V137.466H64.768V143.466ZM74.8 140.466V142.77H80.8V140.466H74.8ZM77.8 139.77H64.768V145.77H77.8V139.77ZM61.768 142.77V153.462H67.768V142.77H61.768ZM64.768 150.462H62.104V156.462H64.768V150.462ZM65.104 153.462V128.262H59.104V153.462H65.104ZM62.104 131.262H79.384V125.262H62.104V131.262ZM76.384 128.262V130.566H82.384V128.262H76.384ZM79.384 127.566H64.768V133.566H79.384V127.566ZM91.0053 150.87L93.1539 148.776L91.0053 150.87ZM88.2693 128.262V125.262C86.6124 125.262 85.2693 126.605 85.2693 128.262H88.2693ZM90.9333 128.262H93.9333C93.9333 126.605 92.5901 125.262 90.9333 125.262V128.262ZM104.397 149.142L106.609 151.169L104.397 149.142ZM106.377 128.262V125.262C104.72 125.262 103.377 126.605 103.377 128.262H106.377ZM108.969 128.262H111.969C111.969 126.605 110.626 125.262 108.969 125.262V128.262ZM106.233 150.87L104.085 148.776C104.08 148.781 104.075 148.786 104.071 148.79L106.233 150.87ZM98.637 150.678C95.9688 150.678 94.2798 149.932 93.1539 148.776L88.8566 152.963C91.3787 155.552 94.7777 156.678 98.637 156.678V150.678ZM93.1539 148.776C92.0511 147.644 91.2693 145.785 91.2693 142.698H85.2693C85.2693 146.762 86.3114 150.351 88.8566 152.963L93.1539 148.776ZM91.2693 142.698V128.262H85.2693V142.698H91.2693ZM88.2693 131.262H90.9333V125.262H88.2693V131.262ZM87.9333 128.262V142.59H93.9333V128.262H87.9333ZM87.9333 142.59C87.9333 145.903 88.6724 148.955 90.7018 151.169L95.1247 147.114C94.5141 146.448 93.9333 145.132 93.9333 142.59H87.9333ZM90.7018 151.169C92.7385 153.391 95.5487 154.302 98.637 154.302V148.302C96.734 148.302 95.728 147.773 95.1247 147.114L90.7018 151.169ZM98.637 154.302C101.74 154.302 104.567 153.397 106.609 151.169L102.186 147.114C101.588 147.767 100.575 148.302 98.637 148.302V154.302ZM106.609 151.169C108.638 148.955 109.377 145.903 109.377 142.59H103.377C103.377 145.132 102.796 146.448 102.186 147.114L106.609 151.169ZM109.377 142.59V128.262H103.377V142.59H109.377ZM106.377 131.262H108.969V125.262H106.377V131.262ZM105.969 128.262V142.698H111.969V128.262H105.969ZM105.969 142.698C105.969 145.785 105.187 147.644 104.085 148.776L108.382 152.963C110.927 150.351 111.969 146.762 111.969 142.698H105.969ZM104.071 148.79C102.974 149.931 101.308 150.678 98.637 150.678V156.678C102.495 156.678 105.893 155.552 108.396 152.949L104.071 148.79ZM125.001 130.566H128.001C128.001 128.909 126.658 127.566 125.001 127.566V130.566ZM116.145 130.566H113.145C113.145 132.222 114.488 133.566 116.145 133.566V130.566ZM116.145 128.262V125.262C114.488 125.262 113.145 126.605 113.145 128.262H116.145ZM136.521 128.262H139.521C139.521 126.605 138.178 125.262 136.521 125.262V128.262ZM136.521 130.566V133.566C138.178 133.566 139.521 132.222 139.521 130.566H136.521ZM127.665 130.566V127.566C126.008 127.566 124.665 128.909 124.665 130.566H127.665ZM127.665 153.462V156.462C129.322 156.462 130.665 155.118 130.665 153.462H127.665ZM125.001 153.462H122.001C122.001 155.118 123.344 156.462 125.001 156.462V153.462ZM125.001 127.566H116.145V133.566H125.001V127.566ZM119.145 130.566V128.262H113.145V130.566H119.145ZM116.145 131.262H136.521V125.262H116.145V131.262ZM133.521 128.262V130.566H139.521V128.262H133.521ZM136.521 127.566H127.665V133.566H136.521V127.566ZM124.665 130.566V153.462H130.665V130.566H124.665ZM127.665 150.462H125.001V156.462H127.665V150.462ZM128.001 153.462V130.566H122.001V153.462H128.001ZM146.404 150.87L148.553 148.776L146.404 150.87ZM143.668 128.262V125.262C142.012 125.262 140.668 126.605 140.668 128.262H143.668ZM146.332 128.262H149.332C149.332 126.605 147.989 125.262 146.332 125.262V128.262ZM159.796 149.142L162.008 151.169L159.796 149.142ZM161.776 128.262V125.262C160.12 125.262 158.776 126.605 158.776 128.262H161.776ZM164.368 128.262H167.368C167.368 126.605 166.025 125.262 164.368 125.262V128.262ZM161.632 150.87L159.484 148.776C159.479 148.781 159.475 148.786 159.47 148.79L161.632 150.87ZM154.036 150.678C151.368 150.678 149.679 149.932 148.553 148.776L144.256 152.963C146.778 155.552 150.177 156.678 154.036 156.678V150.678ZM148.553 148.776C147.45 147.644 146.668 145.785 146.668 142.698H140.668C140.668 146.762 141.711 150.351 144.256 152.963L148.553 148.776ZM146.668 142.698V128.262H140.668V142.698H146.668ZM143.668 131.262H146.332V125.262H143.668V131.262ZM143.332 128.262V142.59H149.332V128.262H143.332ZM143.332 142.59C143.332 145.903 144.072 148.955 146.101 151.169L150.524 147.114C149.913 146.448 149.332 145.132 149.332 142.59H143.332ZM146.101 151.169C148.138 153.391 150.948 154.302 154.036 154.302V148.302C152.133 148.302 151.127 147.773 150.524 147.114L146.101 151.169ZM154.036 154.302C157.139 154.302 159.966 153.397 162.008 151.169L157.585 147.114C156.987 147.767 155.974 148.302 154.036 148.302V154.302ZM162.008 151.169C164.037 148.955 164.776 145.903 164.776 142.59H158.776C158.776 145.132 158.196 146.448 157.585 147.114L162.008 151.169ZM164.776 142.59V128.262H158.776V142.59H164.776ZM161.776 131.262H164.368V125.262H161.776V131.262ZM161.368 128.262V142.698H167.368V128.262H161.368ZM161.368 142.698C161.368 145.785 160.587 147.644 159.484 148.776L163.781 152.963C166.326 150.351 167.368 146.762 167.368 142.698H161.368ZM159.47 148.79C158.373 149.931 156.707 150.678 154.036 150.678V156.678C157.894 156.678 161.292 155.552 163.795 152.949L159.47 148.79ZM193.204 153.462L190.759 155.2C191.322 155.992 192.233 156.462 193.204 156.462V153.462ZM187.444 145.362L189.889 143.623C189.258 142.736 188.195 142.26 187.113 142.38L187.444 145.362ZM178.66 145.47V142.47C177.003 142.47 175.66 143.813 175.66 145.47H178.66ZM178.66 153.462V156.462C180.317 156.462 181.66 155.118 181.66 153.462H178.66ZM175.996 153.462H172.996C172.996 155.118 174.339 156.462 175.996 156.462V153.462ZM175.996 128.262V125.262C174.339 125.262 172.996 126.605 172.996 128.262H175.996ZM192.988 130.566L191.056 132.86L192.988 130.566ZM194.212 141.906L191.797 140.126L191.792 140.133L194.212 141.906ZM189.964 144.822L189.038 141.968C188.129 142.263 187.415 142.974 187.115 143.881C186.816 144.788 186.966 145.784 187.521 146.562L189.964 144.822ZM196.12 153.462V156.462C197.243 156.462 198.272 155.834 198.787 154.836C199.301 153.838 199.215 152.636 198.563 151.721L196.12 153.462ZM191.08 141.546L193.005 143.847L191.08 141.546ZM191.08 132.222L189.156 134.523C189.164 134.53 189.172 134.537 189.18 134.544L191.08 132.222ZM178.66 130.566V127.566C177.003 127.566 175.66 128.909 175.66 130.566H178.66ZM178.66 143.202H175.66C175.66 144.858 177.003 146.202 178.66 146.202V143.202ZM195.649 151.723L189.889 143.623L184.999 147.1L190.759 155.2L195.649 151.723ZM187.113 142.38C186.582 142.439 186.021 142.47 185.428 142.47V148.47C186.228 148.47 187.01 148.428 187.775 148.343L187.113 142.38ZM185.428 142.47H178.66V148.47H185.428V142.47ZM175.66 145.47V153.462H181.66V145.47H175.66ZM178.66 150.462H175.996V156.462H178.66V150.462ZM178.996 153.462V128.262H172.996V153.462H178.996ZM175.996 131.262H185.428V125.262H175.996V131.262ZM185.428 131.262C188.185 131.262 189.936 131.917 191.056 132.86L194.921 128.271C192.393 126.142 189.104 125.262 185.428 125.262V131.262ZM191.056 132.86C192.112 133.75 192.724 134.972 192.724 136.902H198.724C198.724 133.455 197.513 130.454 194.921 128.271L191.056 132.86ZM192.724 136.902C192.724 138.334 192.367 139.352 191.797 140.126L196.627 143.685C198.073 141.723 198.724 139.405 198.724 136.902H192.724ZM191.792 140.133C191.239 140.888 190.39 141.529 189.038 141.968L190.891 147.675C193.235 146.914 195.217 145.611 196.633 143.678L191.792 140.133ZM187.521 146.562L193.677 155.202L198.563 151.721L192.407 143.081L187.521 146.562ZM196.12 150.462H193.204V156.462H196.12V150.462ZM185.356 146.202C188.246 146.202 190.948 145.567 193.005 143.847L189.156 139.244C188.573 139.732 187.458 140.202 185.356 140.202V146.202ZM193.005 143.847C195.118 142.08 196.06 139.626 196.06 136.902H190.06C190.06 138.161 189.683 138.804 189.156 139.244L193.005 143.847ZM196.06 136.902C196.06 134.157 195.135 131.663 192.98 129.9L189.18 134.544C189.666 134.941 190.06 135.566 190.06 136.902H196.06ZM193.005 129.92C190.948 128.2 188.246 127.566 185.356 127.566V133.566C187.458 133.566 188.573 134.035 189.156 134.523L193.005 129.92ZM185.356 127.566H178.66V133.566H185.356V127.566ZM175.66 130.566V143.202H181.66V130.566H175.66ZM178.66 146.202H185.356V140.202H178.66V146.202ZM223.432 151.158H226.432C226.432 149.501 225.089 148.158 223.432 148.158V151.158ZM223.432 153.462V156.462C225.089 156.462 226.432 155.118 226.432 153.462H223.432ZM205.612 153.462H202.612C202.612 155.118 203.955 156.462 205.612 156.462V153.462ZM205.612 128.262V125.262C203.955 125.262 202.612 126.605 202.612 128.262H205.612ZM222.892 128.262H225.892C225.892 126.605 224.549 125.262 222.892 125.262V128.262ZM222.892 130.566V133.566C224.549 133.566 225.892 132.222 225.892 130.566H222.892ZM208.276 130.566V127.566C206.619 127.566 205.276 128.909 205.276 130.566H208.276ZM208.276 139.53H205.276C205.276 141.186 206.619 142.53 208.276 142.53V139.53ZM221.308 139.53H224.308C224.308 137.873 222.965 136.53 221.308 136.53V139.53ZM221.308 141.798V144.798C222.965 144.798 224.308 143.454 224.308 141.798H221.308ZM208.276 141.798V138.798C206.619 138.798 205.276 140.141 205.276 141.798H208.276ZM208.276 151.158H205.276C205.276 152.814 206.619 154.158 208.276 154.158V151.158ZM220.432 151.158V153.462H226.432V151.158H220.432ZM223.432 150.462H205.612V156.462H223.432V150.462ZM208.612 153.462V128.262H202.612V153.462H208.612ZM205.612 131.262H222.892V125.262H205.612V131.262ZM219.892 128.262V130.566H225.892V128.262H219.892ZM222.892 127.566H208.276V133.566H222.892V127.566ZM205.276 130.566V139.53H211.276V130.566H205.276ZM208.276 142.53H221.308V136.53H208.276V142.53ZM218.308 139.53V141.798H224.308V139.53H218.308ZM221.308 138.798H208.276V144.798H221.308V138.798ZM205.276 141.798V151.158H211.276V141.798H205.276ZM208.276 154.158H223.432V148.158H208.276V154.158Z" fill="white"/>
<path d="M54.3999 164.278C56.1199 164.278 57.4666 164.684 58.4399 165.498C59.4132 166.298 59.8999 167.424 59.8999 168.878C59.8999 170.331 59.4132 171.464 58.4399 172.278C57.4666 173.078 56.1199 173.478 54.3999 173.478H50.0599V178.278H49.6599V164.278H54.3999ZM54.4399 173.098C56.0666 173.098 57.3132 172.731 58.1799 171.998C59.0599 171.264 59.4999 170.224 59.4999 168.878C59.4999 167.531 59.0599 166.491 58.1799 165.758C57.3132 165.024 56.0666 164.658 54.4399 164.658H50.0599V173.098H54.4399ZM74.9838 177.898V178.278H65.6638V164.278H74.6838V164.658H66.0638V170.978H73.7838V171.358H66.0638V177.898H74.9838ZM90.9632 178.278L87.4032 173.338C86.9365 173.431 86.3898 173.478 85.7632 173.478H81.4232V178.278H81.0232V164.278H85.7632C87.4832 164.278 88.8298 164.684 89.8032 165.498C90.7765 166.298 91.2632 167.424 91.2632 168.878C91.2632 169.998 90.9632 170.938 90.3632 171.698C89.7632 172.444 88.9165 172.958 87.8232 173.238L91.4632 178.278H90.9632ZM85.8032 173.098C87.4298 173.098 88.6765 172.731 89.5432 171.998C90.4232 171.264 90.8632 170.224 90.8632 168.878C90.8632 167.531 90.4232 166.491 89.5432 165.758C88.6765 165.024 87.4298 164.658 85.8032 164.658H81.4232V173.098H85.8032ZM97.7399 164.658V171.378H105.46V171.758H97.7399V178.278H97.3399V164.278H106.36V164.658H97.7399ZM121.238 177.898V178.278H111.918V164.278H120.938V164.658H112.318V170.978H120.038V171.358H112.318V177.898H121.238ZM132.977 178.338C131.631 178.338 130.411 178.031 129.317 177.418C128.224 176.804 127.364 175.964 126.737 174.898C126.111 173.818 125.797 172.611 125.797 171.278C125.797 169.944 126.111 168.744 126.737 167.678C127.364 166.598 128.224 165.751 129.317 165.138C130.411 164.524 131.631 164.218 132.977 164.218C133.924 164.218 134.804 164.371 135.617 164.678C136.444 164.971 137.151 165.411 137.737 165.998L137.497 166.278C136.324 165.158 134.817 164.598 132.977 164.598C131.711 164.598 130.557 164.891 129.517 165.478C128.491 166.064 127.677 166.871 127.077 167.898C126.491 168.911 126.197 170.038 126.197 171.278C126.197 172.518 126.491 173.651 127.077 174.678C127.677 175.691 128.491 176.491 129.517 177.078C130.557 177.664 131.711 177.958 132.977 177.958C134.804 177.958 136.311 177.391 137.497 176.258L137.737 176.538C137.151 177.124 136.444 177.571 135.617 177.878C134.791 178.184 133.911 178.338 132.977 178.338ZM148.116 164.658H142.916V164.278H153.716V164.658H148.516V178.278H148.116V164.658ZM168.073 164.658H162.873V164.278H173.673V164.658H168.473V178.278H168.073V164.658ZM187.73 177.898V178.278H178.41V164.278H187.43V164.658H178.81V170.978H186.53V171.358H178.81V177.898H187.73ZM204.769 164.278V178.278H204.429L194.169 165.018V178.278H193.769V164.278H194.109L204.369 177.538V164.278H204.769ZM215.518 178.338C214.504 178.338 213.551 178.158 212.658 177.798C211.764 177.424 211.078 176.944 210.598 176.358L210.878 176.098C211.331 176.631 211.978 177.078 212.818 177.438C213.658 177.784 214.551 177.958 215.498 177.958C216.951 177.958 218.044 177.671 218.778 177.098C219.524 176.511 219.898 175.758 219.898 174.838C219.898 174.118 219.704 173.544 219.318 173.118C218.931 172.691 218.451 172.371 217.878 172.158C217.318 171.944 216.558 171.724 215.598 171.498C214.571 171.244 213.758 171.004 213.158 170.778C212.558 170.538 212.044 170.178 211.618 169.698C211.204 169.204 210.998 168.551 210.998 167.738C210.998 167.098 211.164 166.511 211.498 165.978C211.831 165.444 212.351 165.018 213.058 164.698C213.764 164.378 214.638 164.218 215.678 164.218C216.424 164.218 217.158 164.338 217.878 164.578C218.598 164.804 219.218 165.111 219.738 165.498L219.518 165.818C218.971 165.418 218.358 165.118 217.678 164.918C217.011 164.704 216.351 164.598 215.698 164.598C214.298 164.598 213.231 164.898 212.498 165.498C211.764 166.084 211.398 166.838 211.398 167.758C211.398 168.478 211.591 169.058 211.978 169.498C212.364 169.924 212.844 170.244 213.418 170.458C213.991 170.671 214.764 170.898 215.738 171.138C216.751 171.391 217.558 171.638 218.158 171.878C218.758 172.104 219.264 172.458 219.678 172.938C220.091 173.404 220.298 174.038 220.298 174.838C220.298 175.478 220.124 176.064 219.778 176.598C219.431 177.131 218.898 177.558 218.178 177.878C217.471 178.184 216.584 178.338 215.518 178.338ZM235.429 177.898V178.278H226.109V164.278H235.129V164.658H226.509V170.978H234.229V171.358H226.509V177.898H235.429Z" fill="white"/>
<path d="M58.4399 165.498L57.1575 167.032C57.1616 167.036 57.1658 167.039 57.17 167.043L58.4399 165.498ZM58.4399 172.278L59.7098 173.823C59.714 173.819 59.7182 173.816 59.7223 173.812L58.4399 172.278ZM50.0599 173.478V171.478C48.9553 171.478 48.0599 172.373 48.0599 173.478H50.0599ZM50.0599 178.278V180.278C51.1645 180.278 52.0599 179.382 52.0599 178.278H50.0599ZM49.6599 178.278H47.6599C47.6599 179.382 48.5553 180.278 49.6599 180.278V178.278ZM49.6599 164.278V162.278C48.5553 162.278 47.6599 163.173 47.6599 164.278H49.6599ZM58.1799 171.998L56.8995 170.461C56.8957 170.464 56.8918 170.468 56.888 170.471L58.1799 171.998ZM58.1799 165.758L56.888 167.284C56.8918 167.288 56.8957 167.291 56.8995 167.294L58.1799 165.758ZM50.0599 164.658V162.658C48.9553 162.658 48.0599 163.553 48.0599 164.658H50.0599ZM50.0599 173.098H48.0599C48.0599 174.202 48.9553 175.098 50.0599 175.098V173.098ZM54.3999 166.278C55.8181 166.278 56.654 166.612 57.1575 167.032L59.7223 163.963C58.2791 162.757 56.4217 162.278 54.3999 162.278V166.278ZM57.17 167.043C57.6071 167.402 57.8999 167.92 57.8999 168.878H61.8999C61.8999 166.929 61.2194 165.193 59.7098 163.953L57.17 167.043ZM57.8999 168.878C57.8999 169.835 57.6068 170.368 57.1575 170.743L59.7223 173.812C61.2197 172.561 61.8999 170.827 61.8999 168.878H57.8999ZM57.17 170.733C56.666 171.147 55.8252 171.478 54.3999 171.478V175.478C56.4146 175.478 58.2671 175.009 59.7098 173.823L57.17 170.733ZM54.3999 171.478H50.0599V175.478H54.3999V171.478ZM48.0599 173.478V178.278H52.0599V173.478H48.0599ZM50.0599 176.278H49.6599V180.278H50.0599V176.278ZM51.6599 178.278V164.278H47.6599V178.278H51.6599ZM49.6599 166.278H54.3999V162.278H49.6599V166.278ZM54.4399 175.098C56.3385 175.098 58.1155 174.672 59.4718 173.524L56.888 170.471C56.5109 170.79 55.7946 171.098 54.4399 171.098V175.098ZM59.4603 173.534C60.8783 172.352 61.4999 170.702 61.4999 168.878H57.4999C57.4999 169.747 57.2415 170.176 56.8995 170.461L59.4603 173.534ZM61.4999 168.878C61.4999 167.053 60.8783 165.403 59.4603 164.221L56.8995 167.294C57.2415 167.579 57.4999 168.009 57.4999 168.878H61.4999ZM59.4718 164.231C58.1155 163.083 56.3385 162.658 54.4399 162.658V166.658C55.7946 166.658 56.5109 166.965 56.888 167.284L59.4718 164.231ZM54.4399 162.658H50.0599V166.658H54.4399V162.658ZM48.0599 164.658V173.098H52.0599V164.658H48.0599ZM50.0599 175.098H54.4399V171.098H50.0599V175.098ZM74.9838 177.898H76.9838C76.9838 176.793 76.0884 175.898 74.9838 175.898V177.898ZM74.9838 178.278V180.278C76.0884 180.278 76.9838 179.382 76.9838 178.278H74.9838ZM65.6638 178.278H63.6638C63.6638 179.382 64.5592 180.278 65.6638 180.278V178.278ZM65.6638 164.278V162.278C64.5592 162.278 63.6638 163.173 63.6638 164.278H65.6638ZM74.6838 164.278H76.6838C76.6838 163.173 75.7884 162.278 74.6838 162.278V164.278ZM74.6838 164.658V166.658C75.7884 166.658 76.6838 165.762 76.6838 164.658H74.6838ZM66.0638 164.658V162.658C64.9592 162.658 64.0638 163.553 64.0638 164.658H66.0638ZM66.0638 170.978H64.0638C64.0638 172.082 64.9592 172.978 66.0638 172.978V170.978ZM73.7838 170.978H75.7838C75.7838 169.873 74.8884 168.978 73.7838 168.978V170.978ZM73.7838 171.358V173.358C74.8884 173.358 75.7838 172.462 75.7838 171.358H73.7838ZM66.0638 171.358V169.358C64.9592 169.358 64.0638 170.253 64.0638 171.358H66.0638ZM66.0638 177.898H64.0638C64.0638 179.002 64.9592 179.898 66.0638 179.898V177.898ZM72.9838 177.898V178.278H76.9838V177.898H72.9838ZM74.9838 176.278H65.6638V180.278H74.9838V176.278ZM67.6638 178.278V164.278H63.6638V178.278H67.6638ZM65.6638 166.278H74.6838V162.278H65.6638V166.278ZM72.6838 164.278V164.658H76.6838V164.278H72.6838ZM74.6838 162.658H66.0638V166.658H74.6838V162.658ZM64.0638 164.658V170.978H68.0638V164.658H64.0638ZM66.0638 172.978H73.7838V168.978H66.0638V172.978ZM71.7838 170.978V171.358H75.7838V170.978H71.7838ZM73.7838 169.358H66.0638V173.358H73.7838V169.358ZM64.0638 171.358V177.898H68.0638V171.358H64.0638ZM66.0638 179.898H74.9838V175.898H66.0638V179.898ZM90.9632 178.278L89.3406 179.447C89.7165 179.969 90.3202 180.278 90.9632 180.278V178.278ZM87.4032 173.338L89.0258 172.168C88.5674 171.532 87.7797 171.223 87.0109 171.377L87.4032 173.338ZM81.4232 173.478V171.478C80.3186 171.478 79.4232 172.373 79.4232 173.478H81.4232ZM81.4232 178.278V180.278C82.5278 180.278 83.4232 179.382 83.4232 178.278H81.4232ZM81.0232 178.278H79.0232C79.0232 179.382 79.9186 180.278 81.0232 180.278V178.278ZM81.0232 164.278V162.278C79.9186 162.278 79.0232 163.173 79.0232 164.278H81.0232ZM89.8032 165.498L88.5207 167.032C88.5249 167.036 88.5291 167.039 88.5333 167.043L89.8032 165.498ZM90.3632 171.698L91.9222 172.95C91.9258 172.946 91.9294 172.942 91.9329 172.937L90.3632 171.698ZM87.8232 173.238L87.327 171.3C86.6861 171.464 86.1678 171.935 85.9426 172.557C85.7174 173.179 85.8145 173.872 86.2018 174.409L87.8232 173.238ZM91.4632 178.278V180.278C92.2142 180.278 92.902 179.857 93.2439 179.188C93.5858 178.519 93.5243 177.716 93.0845 177.107L91.4632 178.278ZM89.5432 171.998L88.2628 170.461C88.259 170.464 88.2551 170.468 88.2513 170.471L89.5432 171.998ZM89.5432 165.758L88.2513 167.284C88.2551 167.288 88.259 167.291 88.2628 167.294L89.5432 165.758ZM81.4232 164.658V162.658C80.3186 162.658 79.4232 163.553 79.4232 164.658H81.4232ZM81.4232 173.098H79.4232C79.4232 174.202 80.3186 175.098 81.4232 175.098V173.098ZM92.5858 177.108L89.0258 172.168L85.7806 174.507L89.3406 179.447L92.5858 177.108ZM87.0109 171.377C86.7066 171.437 86.2969 171.478 85.7632 171.478V175.478C86.4828 175.478 87.1665 175.425 87.7954 175.299L87.0109 171.377ZM85.7632 171.478H81.4232V175.478H85.7632V171.478ZM79.4232 173.478V178.278H83.4232V173.478H79.4232ZM81.4232 176.278H81.0232V180.278H81.4232V176.278ZM83.0232 178.278V164.278H79.0232V178.278H83.0232ZM81.0232 166.278H85.7632V162.278H81.0232V166.278ZM85.7632 166.278C87.1814 166.278 88.0173 166.612 88.5207 167.032L91.0856 163.963C89.6424 162.757 87.785 162.278 85.7632 162.278V166.278ZM88.5333 167.043C88.9704 167.402 89.2632 167.92 89.2632 168.878H93.2632C93.2632 166.929 92.5826 165.193 91.0731 163.953L88.5333 167.043ZM89.2632 168.878C89.2632 169.622 89.0723 170.105 88.7934 170.458L91.9329 172.937C92.8541 171.77 93.2632 170.374 93.2632 168.878H89.2632ZM88.8042 170.445C88.5211 170.797 88.0786 171.108 87.327 171.3L88.3194 175.175C89.7544 174.808 91.0053 174.092 91.9222 172.95L88.8042 170.445ZM86.2018 174.409L89.8418 179.449L93.0845 177.107L89.4445 172.067L86.2018 174.409ZM91.4632 176.278H90.9632V180.278H91.4632V176.278ZM85.8032 175.098C87.7018 175.098 89.4788 174.672 90.8351 173.524L88.2513 170.471C87.8742 170.79 87.1579 171.098 85.8032 171.098V175.098ZM90.8236 173.534C92.2416 172.352 92.8632 170.702 92.8632 168.878H88.8632C88.8632 169.747 88.6048 170.176 88.2628 170.461L90.8236 173.534ZM92.8632 168.878C92.8632 167.053 92.2416 165.403 90.8236 164.221L88.2628 167.294C88.6048 167.579 88.8632 168.009 88.8632 168.878H92.8632ZM90.8351 164.231C89.4788 163.083 87.7018 162.658 85.8032 162.658V166.658C87.1579 166.658 87.8742 166.965 88.2513 167.284L90.8351 164.231ZM85.8032 162.658H81.4232V166.658H85.8032V162.658ZM79.4232 164.658V173.098H83.4232V164.658H79.4232ZM81.4232 175.098H85.8032V171.098H81.4232V175.098ZM97.7399 164.658V162.658C96.6349 162.658 95.7396 163.553 95.7396 164.658H97.7399ZM97.7399 171.378H95.7396C95.7396 172.482 96.6349 173.378 97.7399 173.378V171.378ZM105.46 171.378H107.46C107.46 170.273 106.564 169.378 105.46 169.378V171.378ZM105.46 171.758V173.758C106.564 173.758 107.46 172.862 107.46 171.758H105.46ZM97.7399 171.758V169.758C96.6349 169.758 95.7396 170.653 95.7396 171.758H97.7399ZM97.7399 178.278V180.278C98.8439 180.278 99.7399 179.382 99.7399 178.278H97.7399ZM97.3399 178.278H95.3396C95.3396 179.382 96.2349 180.278 97.3399 180.278V178.278ZM97.3399 164.278V162.278C96.2349 162.278 95.3396 163.173 95.3396 164.278H97.3399ZM106.36 164.278H108.36C108.36 163.173 107.464 162.278 106.36 162.278V164.278ZM106.36 164.658V166.658C107.464 166.658 108.36 165.762 108.36 164.658H106.36ZM95.7396 164.658V171.378H99.7399V164.658H95.7396ZM97.7399 173.378H105.46V169.378H97.7399V173.378ZM103.46 171.378V171.758H107.46V171.378H103.46ZM105.46 169.758H97.7399V173.758H105.46V169.758ZM95.7396 171.758V178.278H99.7399V171.758H95.7396ZM97.7399 176.278H97.3399V180.278H97.7399V176.278ZM99.3399 178.278V164.278H95.3396V178.278H99.3399ZM97.3399 166.278H106.36V162.278H97.3399V166.278ZM104.36 164.278V164.658H108.36V164.278H104.36ZM106.36 162.658H97.7399V166.658H106.36V162.658ZM121.238 177.898H123.238C123.238 176.793 122.342 175.898 121.238 175.898V177.898ZM121.238 178.278V180.278C122.342 180.278 123.238 179.382 123.238 178.278H121.238ZM111.918 178.278H109.918C109.918 179.382 110.813 180.278 111.918 180.278V178.278ZM111.918 164.278V162.278C110.813 162.278 109.918 163.173 109.918 164.278H111.918ZM120.938 164.278H122.938C122.938 163.173 122.042 162.278 120.938 162.278V164.278ZM120.938 164.658V166.658C122.042 166.658 122.938 165.762 122.938 164.658H120.938ZM112.318 164.658V162.658C111.213 162.658 110.318 163.553 110.318 164.658H112.318ZM112.318 170.978H110.318C110.318 172.082 111.213 172.978 112.318 172.978V170.978ZM120.038 170.978H122.038C122.038 169.873 121.142 168.978 120.038 168.978V170.978ZM120.038 171.358V173.358C121.142 173.358 122.038 172.462 122.038 171.358H120.038ZM112.318 171.358V169.358C111.213 169.358 110.318 170.253 110.318 171.358H112.318ZM112.318 177.898H110.318C110.318 179.002 111.213 179.898 112.318 179.898V177.898ZM119.238 177.898V178.278H123.238V177.898H119.238ZM121.238 176.278H111.918V180.278H121.238V176.278ZM113.918 178.278V164.278H109.918V178.278H113.918ZM111.918 166.278H120.938V162.278H111.918V166.278ZM118.938 164.278V164.658H122.938V164.278H118.938ZM120.938 162.658H112.318V166.658H120.938V162.658ZM110.318 164.658V170.978H114.318V164.658H110.318ZM112.318 172.978H120.038V168.978H112.318V172.978ZM118.038 170.978V171.358H122.038V170.978H118.038ZM120.038 169.358H112.318V173.358H120.038V169.358ZM110.318 171.358V177.898H114.318V171.358H110.318ZM112.318 179.898H121.238V175.898H112.318V179.898ZM129.317 177.418L130.296 175.673L129.317 177.418ZM126.737 174.898L125.007 175.901L125.013 175.911L126.737 174.898ZM126.737 167.678L128.462 168.691L128.467 168.681L126.737 167.678ZM129.317 165.138L130.296 166.882L129.317 165.138ZM135.617 164.678L134.912 166.549C134.924 166.554 134.936 166.558 134.948 166.563L135.617 164.678ZM137.737 165.998L139.256 167.299C139.936 166.506 139.89 165.322 139.151 164.583L137.737 165.998ZM137.497 166.278L136.116 167.724C136.513 168.103 137.049 168.303 137.597 168.275C138.145 168.248 138.658 167.996 139.016 167.579L137.497 166.278ZM129.517 165.478L128.535 163.736L128.525 163.741L129.517 165.478ZM127.077 167.898L125.35 166.889L125.346 166.896L127.077 167.898ZM127.077 174.678L125.341 175.67C125.346 175.679 125.351 175.688 125.356 175.697L127.077 174.678ZM129.517 177.078L128.525 178.814L128.535 178.82L129.517 177.078ZM137.497 176.258L139.016 174.956C138.658 174.539 138.145 174.288 137.597 174.26C137.048 174.233 136.513 174.432 136.116 174.811L137.497 176.258ZM137.737 176.538L139.151 177.952C139.89 177.213 139.936 176.03 139.256 175.236L137.737 176.538ZM135.617 177.878L134.922 176.003L135.617 177.878ZM132.977 176.338C131.947 176.338 131.068 176.107 130.296 175.673L128.339 179.162C129.753 179.955 131.314 180.338 132.977 180.338V176.338ZM130.296 175.673C129.507 175.231 128.906 174.642 128.462 173.885L125.013 175.911C125.821 177.287 126.941 178.378 128.339 179.162L130.296 175.673ZM128.467 173.894C128.029 173.14 127.797 172.283 127.797 171.278H123.797C123.797 172.939 124.192 174.496 125.007 175.901L128.467 173.894ZM127.797 171.278C127.797 170.272 128.029 169.427 128.462 168.691L125.013 166.665C124.192 168.062 123.797 169.617 123.797 171.278H127.797ZM128.467 168.681C128.913 167.912 129.513 167.321 130.296 166.882L128.339 163.393C126.934 164.181 125.814 165.283 125.007 166.674L128.467 168.681ZM130.296 166.882C131.068 166.449 131.947 166.218 132.977 166.218V162.218C131.314 162.218 129.753 162.6 128.339 163.393L130.296 166.882ZM132.977 166.218C133.704 166.218 134.343 166.335 134.912 166.549L136.323 162.806C135.265 162.407 134.143 162.218 132.977 162.218V166.218ZM134.948 166.563C135.511 166.762 135.959 167.048 136.323 167.412L139.151 164.583C138.342 163.774 137.377 163.18 136.286 162.793L134.948 166.563ZM136.219 164.696L135.979 164.976L139.016 167.579L139.256 167.299L136.219 164.696ZM138.878 164.831C137.282 163.307 135.257 162.598 132.977 162.598V166.598C134.378 166.598 135.366 167.008 136.116 167.724L138.878 164.831ZM132.977 162.598C131.388 162.598 129.893 162.97 128.535 163.736L130.5 167.22C131.222 166.812 132.033 166.598 132.977 166.598V162.598ZM128.525 163.741C127.192 164.503 126.126 165.561 125.35 166.889L128.804 168.907C129.228 168.181 129.789 167.626 130.509 167.214L128.525 163.741ZM125.346 166.896C124.573 168.232 124.197 169.707 124.197 171.278H128.197C128.197 170.368 128.408 169.59 128.808 168.9L125.346 166.896ZM124.197 171.278C124.197 172.848 124.573 174.326 125.341 175.67L128.814 173.685C128.408 172.976 128.197 172.187 128.197 171.278H124.197ZM125.356 175.697C126.134 177.01 127.199 178.056 128.525 178.814L130.509 175.341C129.782 174.926 129.221 174.372 128.798 173.659L125.356 175.697ZM128.535 178.82C129.893 179.586 131.388 179.958 132.977 179.958V175.958C132.033 175.958 131.222 175.743 130.5 175.336L128.535 178.82ZM132.977 179.958C135.255 179.958 137.276 179.234 138.879 177.704L136.116 174.811C135.345 175.548 134.353 175.958 132.977 175.958V179.958ZM135.979 177.559L136.219 177.839L139.256 175.236L139.016 174.956L135.979 177.559ZM136.323 175.123C135.953 175.494 135.496 175.79 134.922 176.003L136.313 179.753C137.392 179.352 138.349 178.755 139.151 177.952L136.323 175.123ZM134.922 176.003C134.33 176.222 133.687 176.338 132.977 176.338V180.338C134.134 180.338 135.251 180.147 136.313 179.753L134.922 176.003ZM148.116 164.658H150.116C150.116 163.553 149.221 162.658 148.116 162.658V164.658ZM142.916 164.658H140.916C140.916 165.762 141.811 166.658 142.916 166.658V164.658ZM142.916 164.278V162.278C141.811 162.278 140.916 163.173 140.916 164.278H142.916ZM153.716 164.278H155.716C155.716 163.173 154.821 162.278 153.716 162.278V164.278ZM153.716 164.658V166.658C154.821 166.658 155.716 165.762 155.716 164.658H153.716ZM148.516 164.658V162.658C147.411 162.658 146.516 163.553 146.516 164.658H148.516ZM148.516 178.278V180.278C149.621 180.278 150.516 179.382 150.516 178.278H148.516ZM148.116 178.278H146.116C146.116 179.382 147.011 180.278 148.116 180.278V178.278ZM148.116 162.658H142.916V166.658H148.116V162.658ZM144.916 164.658V164.278H140.916V164.658H144.916ZM142.916 166.278H153.716V162.278H142.916V166.278ZM151.716 164.278V164.658H155.716V164.278H151.716ZM153.716 162.658H148.516V166.658H153.716V162.658ZM146.516 164.658V178.278H150.516V164.658H146.516ZM148.516 176.278H148.116V180.278H148.516V176.278ZM150.116 178.278V164.658H146.116V178.278H150.116ZM168.073 164.658H170.073C170.073 163.553 169.178 162.658 168.073 162.658V164.658ZM162.873 164.658H160.873C160.873 165.762 161.768 166.658 162.873 166.658V164.658ZM162.873 164.278V162.278C161.768 162.278 160.873 163.173 160.873 164.278H162.873ZM173.673 164.278H175.673C175.673 163.173 174.778 162.278 173.673 162.278V164.278ZM173.673 164.658V166.658C174.778 166.658 175.673 165.762 175.673 164.658H173.673ZM168.473 164.658V162.658C167.368 162.658 166.473 163.553 166.473 164.658H168.473ZM168.473 178.278V180.278C169.578 180.278 170.473 179.382 170.473 178.278H168.473ZM168.073 178.278H166.073C166.073 179.382 166.968 180.278 168.073 180.278V178.278ZM168.073 162.658H162.873V166.658H168.073V162.658ZM164.873 164.658V164.278H160.873V164.658H164.873ZM162.873 166.278H173.673V162.278H162.873V166.278ZM171.673 164.278V164.658H175.673V164.278H171.673ZM173.673 162.658H168.473V166.658H173.673V162.658ZM166.473 164.658V178.278H170.473V164.658H166.473ZM168.473 176.278H168.073V180.278H168.473V176.278ZM170.073 178.278V164.658H166.073V178.278H170.073ZM187.73 177.898H189.73C189.73 176.793 188.835 175.898 187.73 175.898V177.898ZM187.73 178.278V180.278C188.835 180.278 189.73 179.382 189.73 178.278H187.73ZM178.41 178.278H176.41C176.41 179.382 177.305 180.278 178.41 180.278V178.278ZM178.41 164.278V162.278C177.305 162.278 176.41 163.173 176.41 164.278H178.41ZM187.43 164.278H189.43C189.43 163.173 188.535 162.278 187.43 162.278V164.278ZM187.43 164.658V166.658C188.535 166.658 189.43 165.762 189.43 164.658H187.43ZM178.81 164.658V162.658C177.705 162.658 176.81 163.553 176.81 164.658H178.81ZM178.81 170.978H176.81C176.81 172.082 177.705 172.978 178.81 172.978V170.978ZM186.53 170.978H188.53C188.53 169.873 187.635 168.978 186.53 168.978V170.978ZM186.53 171.358V173.358C187.635 173.358 188.53 172.462 188.53 171.358H186.53ZM178.81 171.358V169.358C177.705 169.358 176.81 170.253 176.81 171.358H178.81ZM178.81 177.898H176.81C176.81 179.002 177.705 179.898 178.81 179.898V177.898ZM185.73 177.898V178.278H189.73V177.898H185.73ZM187.73 176.278H178.41V180.278H187.73V176.278ZM180.41 178.278V164.278H176.41V178.278H180.41ZM178.41 166.278H187.43V162.278H178.41V166.278ZM185.43 164.278V164.658H189.43V164.278H185.43ZM187.43 162.658H178.81V166.658H187.43V162.658ZM176.81 164.658V170.978H180.81V164.658H176.81ZM178.81 172.978H186.53V168.978H178.81V172.978ZM184.53 170.978V171.358H188.53V170.978H184.53ZM186.53 169.358H178.81V173.358H186.53V169.358ZM176.81 171.358V177.898H180.81V171.358H176.81ZM178.81 179.898H187.73V175.898H178.81V179.898ZM204.769 164.278H206.769C206.769 163.173 205.874 162.278 204.769 162.278V164.278ZM204.769 178.278V180.278C205.874 180.278 206.769 179.382 206.769 178.278H204.769ZM204.429 178.278L202.848 179.502C203.226 179.991 203.81 180.278 204.429 180.278V178.278ZM194.169 165.018L195.751 163.794C195.228 163.117 194.332 162.849 193.523 163.125C192.713 163.402 192.169 164.162 192.169 165.018H194.169ZM194.169 178.278V180.278C195.274 180.278 196.169 179.382 196.169 178.278H194.169ZM193.769 178.278H191.769C191.769 179.382 192.665 180.278 193.769 180.278V178.278ZM193.769 164.278V162.278C192.665 162.278 191.769 163.173 191.769 164.278H193.769ZM194.109 164.278L195.691 163.054C195.312 162.564 194.728 162.278 194.109 162.278V164.278ZM204.369 177.538L202.788 178.762C203.311 179.438 204.207 179.707 205.016 179.43C205.825 179.154 206.369 178.393 206.369 177.538H204.369ZM204.369 164.278V162.278C203.265 162.278 202.369 163.173 202.369 164.278H204.369ZM202.769 164.278V178.278H206.769V164.278H202.769ZM204.769 176.278H204.429V180.278H204.769V176.278ZM206.011 177.054L195.751 163.794L192.588 166.242L202.848 179.502L206.011 177.054ZM192.169 165.018V178.278H196.169V165.018H192.169ZM194.169 176.278H193.769V180.278H194.169V176.278ZM195.769 178.278V164.278H191.769V178.278H195.769ZM193.769 166.278H194.109V162.278H193.769V166.278ZM192.528 165.502L202.788 178.762L205.951 176.314L195.691 163.054L192.528 165.502ZM206.369 177.538V164.278H202.369V177.538H206.369ZM204.369 166.278H204.769V162.278H204.369V166.278ZM212.658 177.798L211.886 179.643C211.894 179.646 211.902 179.65 211.91 179.653L212.658 177.798ZM210.598 176.358L209.237 174.892C208.463 175.611 208.381 176.807 209.05 177.624L210.598 176.358ZM210.878 176.098L212.401 174.802C212.048 174.387 211.54 174.133 210.995 174.101C210.451 174.069 209.916 174.261 209.517 174.632L210.878 176.098ZM212.818 177.438L212.03 179.276C212.038 179.28 212.046 179.283 212.055 179.286L212.818 177.438ZM218.778 177.098L220.009 178.673L220.013 178.67L218.778 177.098ZM219.318 173.118L217.836 174.461L219.318 173.118ZM217.878 172.158L217.166 174.027C217.17 174.029 217.175 174.03 217.18 174.032L217.878 172.158ZM215.598 171.498L215.118 173.439C215.125 173.441 215.131 173.443 215.138 173.444L215.598 171.498ZM213.158 170.778L212.415 172.635C212.427 172.639 212.439 172.644 212.451 172.649L213.158 170.778ZM211.618 169.698L210.084 170.982C210.097 170.997 210.11 171.012 210.123 171.026L211.618 169.698ZM211.498 165.978L213.193 167.038L211.498 165.978ZM217.878 164.578L217.245 166.475C217.256 166.479 217.266 166.482 217.277 166.485L217.878 164.578ZM219.738 165.498L221.386 166.631C221.995 165.744 221.794 164.535 220.931 163.893L219.738 165.498ZM219.518 165.818L218.336 167.432C218.773 167.751 219.32 167.88 219.853 167.789C220.386 167.699 220.859 167.396 221.166 166.951L219.518 165.818ZM217.678 164.918L217.068 166.823C217.083 166.827 217.098 166.832 217.113 166.836L217.678 164.918ZM212.498 165.498L213.747 167.059C213.753 167.055 213.758 167.05 213.764 167.046L212.498 165.498ZM211.978 169.498L210.475 170.818C210.482 170.826 210.489 170.833 210.496 170.841L211.978 169.498ZM213.418 170.458L214.115 168.583L213.418 170.458ZM215.738 171.138L216.223 169.197L216.216 169.196L215.738 171.138ZM218.158 171.878L217.415 173.735C217.427 173.739 217.439 173.744 217.451 173.749L218.158 171.878ZM219.678 172.938L218.162 174.243C218.168 174.25 218.174 174.257 218.18 174.264L219.678 172.938ZM219.778 176.598L218.101 175.508L219.778 176.598ZM218.178 177.878L218.974 179.712C218.979 179.71 218.984 179.708 218.99 179.705L218.178 177.878ZM215.518 176.338C214.747 176.338 214.049 176.202 213.405 175.943L211.91 179.653C213.053 180.113 214.262 180.338 215.518 180.338V176.338ZM213.429 175.952C212.756 175.671 212.368 175.364 212.145 175.091L209.05 177.624C209.787 178.525 210.772 179.177 211.886 179.643L213.429 175.952ZM211.958 177.823L212.238 177.563L209.517 174.632L209.237 174.892L211.958 177.823ZM209.354 177.393C210.059 178.222 210.989 178.83 212.03 179.276L213.605 175.599C212.966 175.325 212.603 175.04 212.401 174.802L209.354 177.393ZM212.055 179.286C213.147 179.737 214.3 179.958 215.498 179.958V175.958C214.801 175.958 214.168 175.832 213.58 175.589L212.055 179.286ZM215.498 179.958C217.162 179.958 218.775 179.638 220.009 178.673L217.546 175.522C217.313 175.704 216.74 175.958 215.498 175.958V179.958ZM220.013 178.67C221.224 177.719 221.898 176.394 221.898 174.838H217.898C217.898 175.121 217.824 175.303 217.542 175.525L220.013 178.67ZM221.898 174.838C221.898 173.751 221.597 172.655 220.799 171.775L217.836 174.461C217.837 174.463 217.839 174.465 217.841 174.469C217.844 174.473 217.85 174.484 217.857 174.507C217.873 174.553 217.898 174.655 217.898 174.838H221.898ZM220.799 171.775C220.184 171.096 219.429 170.601 218.575 170.283L217.18 174.032C217.472 174.141 217.677 174.286 217.836 174.461L220.799 171.775ZM218.589 170.289C217.912 170.031 217.056 169.787 216.057 169.551L215.138 173.444C216.059 173.662 216.723 173.858 217.166 174.027L218.589 170.289ZM216.077 169.556C215.085 169.311 214.358 169.093 213.864 168.907L212.451 172.649C213.157 172.916 214.057 173.178 215.118 173.439L216.077 169.556ZM213.9 168.921C213.587 168.795 213.331 168.615 213.112 168.369L210.123 171.026C210.757 171.74 211.528 172.28 212.415 172.635L213.9 168.921ZM213.151 168.413C213.111 168.367 212.998 168.208 212.998 167.738H208.998C208.998 168.894 209.297 170.042 210.084 170.982L213.151 168.413ZM212.998 167.738C212.998 167.466 213.062 167.247 213.193 167.038L209.802 164.918C209.266 165.775 208.998 166.73 208.998 167.738H212.998ZM213.193 167.038C213.274 166.909 213.451 166.715 213.883 166.52L212.232 162.876C211.251 163.32 210.388 163.979 209.802 164.918L213.193 167.038ZM213.883 166.52C214.258 166.35 214.83 166.218 215.678 166.218V162.218C214.445 162.218 213.271 162.406 212.232 162.876L213.883 166.52ZM215.678 166.218C216.206 166.218 216.726 166.302 217.245 166.475L218.51 162.68C217.589 162.373 216.643 162.218 215.678 162.218V166.218ZM217.277 166.485C217.818 166.656 218.23 166.869 218.544 167.103L220.931 163.893C220.205 163.353 219.377 162.953 218.478 162.67L217.277 166.485ZM218.089 164.365L217.869 164.685L221.166 166.951L221.386 166.631L218.089 164.365ZM220.699 164.204C219.957 163.661 219.133 163.261 218.242 162.999L217.113 166.836C217.582 166.974 217.985 167.174 218.336 167.432L220.699 164.204ZM218.287 163.013C217.437 162.741 216.572 162.598 215.698 162.598V166.598C216.13 166.598 216.584 166.668 217.068 166.823L218.287 163.013ZM215.698 162.598C214.049 162.598 212.458 162.946 211.231 163.95L213.764 167.046C214.004 166.849 214.546 166.598 215.698 166.598V162.598ZM211.248 163.936C210.052 164.893 209.398 166.216 209.398 167.758H213.398C213.398 167.46 213.477 167.276 213.747 167.059L211.248 163.936ZM209.398 167.758C209.398 168.848 209.699 169.934 210.475 170.818L213.48 168.177C213.47 168.167 213.456 168.148 213.44 168.1C213.422 168.047 213.398 167.94 213.398 167.758H209.398ZM210.496 170.841C211.111 171.52 211.866 172.014 212.72 172.332L214.115 168.583C213.823 168.474 213.618 168.329 213.459 168.155L210.496 170.841ZM212.72 172.332C213.395 172.583 214.252 172.831 215.259 173.08L216.216 169.196C215.277 168.964 214.586 168.759 214.115 168.583L212.72 172.332ZM215.252 173.078C216.224 173.321 216.934 173.542 217.415 173.735L218.9 170.021C218.181 169.733 217.277 169.461 216.223 169.197L215.252 173.078ZM217.451 173.749C217.742 173.859 217.97 174.019 218.162 174.243L221.193 171.633C220.559 170.896 219.773 170.35 218.864 170.007L217.451 173.749ZM218.18 174.264C218.186 174.271 218.298 174.384 218.298 174.838H222.298C222.298 173.691 221.995 172.538 221.175 171.612L218.18 174.264ZM218.298 174.838C218.298 175.093 218.235 175.301 218.101 175.508L221.454 177.688C222.013 176.828 222.298 175.862 222.298 174.838H218.298ZM218.101 175.508C218.01 175.647 217.816 175.85 217.365 176.05L218.99 179.705C219.979 179.266 220.852 178.615 221.454 177.688L218.101 175.508ZM217.381 176.043C217.003 176.207 216.409 176.338 215.518 176.338V180.338C216.76 180.338 217.939 180.161 218.974 179.712L217.381 176.043ZM235.429 177.898H237.429C237.429 176.793 236.534 175.898 235.429 175.898V177.898ZM235.429 178.278V180.278C236.534 180.278 237.429 179.382 237.429 178.278H235.429ZM226.109 178.278H224.109C224.109 179.382 225.005 180.278 226.109 180.278V178.278ZM226.109 164.278V162.278C225.005 162.278 224.109 163.173 224.109 164.278H226.109ZM235.129 164.278H237.129C237.129 163.173 236.234 162.278 235.129 162.278V164.278ZM235.129 164.658V166.658C236.234 166.658 237.129 165.762 237.129 164.658H235.129ZM226.509 164.658V162.658C225.405 162.658 224.509 163.553 224.509 164.658H226.509ZM226.509 170.978H224.509C224.509 172.082 225.405 172.978 226.509 172.978V170.978ZM234.229 170.978H236.229C236.229 169.873 235.334 168.978 234.229 168.978V170.978ZM234.229 171.358V173.358C235.334 173.358 236.229 172.462 236.229 171.358H234.229ZM226.509 171.358V169.358C225.405 169.358 224.509 170.253 224.509 171.358H226.509ZM226.509 177.898H224.509C224.509 179.002 225.405 179.898 226.509 179.898V177.898ZM233.429 177.898V178.278H237.429V177.898H233.429ZM235.429 176.278H226.109V180.278H235.429V176.278ZM228.109 178.278V164.278H224.109V178.278H228.109ZM226.109 166.278H235.129V162.278H226.109V166.278ZM233.129 164.278V164.658H237.129V164.278H233.129ZM235.129 162.658H226.509V166.658H235.129V162.658ZM224.509 164.658V170.978H228.509V164.658H224.509ZM226.509 172.978H234.229V168.978H226.509V172.978ZM232.229 170.978V171.358H236.229V170.978H232.229ZM234.229 169.358H226.509V173.358H234.229V169.358ZM224.509 171.358V177.898H228.509V171.358H224.509ZM226.509 179.898H235.429V175.898H226.509V179.898Z" fill="white"/>
</mask>
<g mask="url(#mask0_157_1797)">
<path d="M0 143.389L9.4667 144.649C18.9333 145.948 37.8667 148.468 56.8 145.871C75.7333 143.275 94.6667 135.486 113.6 136.02C132.533 136.517 151.467 145.299 170.4 145.871C189.333 146.444 208.267 138.808 227.2 134.875C246.133 130.904 265.067 130.675 274.533 130.522L284 130.408V320.551H274.533C265.067 320.551 246.133 320.551 227.2 320.551C208.267 320.551 189.333 320.551 170.4 320.551C151.467 320.551 132.533 320.551 113.6 320.551C94.6667 320.551 75.7333 320.551 56.8 320.551C37.8667 320.551 18.9333 320.551 9.4667 320.551H0V143.389Z" fill="white"/>
</g>
</g>
<defs>
<filter id="filter0_i_157_1797" x="0" y="0" width="284" height="324.914" filterUnits="userSpaceOnUse" color-interpolation-filters="sRGB">
<feFlood flood-opacity="0" result="BackgroundImageFix"/>
<feBlend mode="normal" in="SourceGraphic" in2="BackgroundImageFix" result="shape"/>
<feColorMatrix in="SourceAlpha" type="matrix" values="0 0 0 0 0 0 0 0 0 0 0 0 0 0 0 0 0 0 127 0" result="hardAlpha"/>
<feOffset dy="4"/>
<feGaussianBlur stdDeviation="2"/>
<feComposite in2="hardAlpha" operator="arithmetic" k2="-1" k3="1"/>
<feColorMatrix type="matrix" values="0 0 0 0 0 0 0 0 0 0 0 0 0 0 0 0 0 0 0.25 0"/>
<feBlend mode="normal" in2="shape" result="effect1_innerShadow_157_1797"/>
</filter>
<clipPath id="clip0_157_1797">
<rect width="284" height="321" fill="white"/>
</clipPath>
</defs>
</svg>
