<svg width="284" height="323" viewBox="0 0 284 323" fill="none" xmlns="http://www.w3.org/2000/svg">
<g clip-path="url(#clip0_139_182)">
<path d="M284 0H0V322H284V0Z" fill="#001220"/>
<path d="M102.536 129.8C105.752 129.8 108.272 130.568 110.096 132.104C111.92 133.64 112.832 135.752 112.832 138.44C112.832 141.128 111.92 143.24 110.096 144.776C108.272 146.288 105.752 147.044 102.536 147.044H95.768V155H93.104V129.8H102.536ZM102.464 144.704C104.96 144.704 106.868 144.164 108.188 143.084C109.508 141.98 110.168 140.432 110.168 138.44C110.168 136.4 109.508 134.84 108.188 133.76C106.868 132.656 104.96 132.104 102.464 132.104H95.768V144.704H102.464ZM138.348 148.268H124.308L121.284 155H118.512L130.032 129.8H132.66L144.18 155H141.372L138.348 148.268ZM137.376 146.108L131.328 132.572L125.28 146.108H137.376ZM160.697 155.216C158.825 155.216 157.025 154.916 155.297 154.316C153.593 153.716 152.273 152.924 151.337 151.94L152.381 149.888C153.293 150.8 154.505 151.544 156.017 152.12C157.529 152.672 159.089 152.948 160.697 152.948C162.953 152.948 164.645 152.54 165.773 151.724C166.901 150.884 167.465 149.804 167.465 148.484C167.465 147.476 167.153 146.672 166.529 146.072C165.929 145.472 165.185 145.016 164.297 144.704C163.409 144.368 162.173 144.008 160.589 143.624C158.693 143.144 157.181 142.688 156.053 142.256C154.925 141.8 153.953 141.116 153.137 140.204C152.345 139.292 151.949 138.056 151.949 136.496C151.949 135.224 152.285 134.072 152.957 133.04C153.629 131.984 154.661 131.144 156.053 130.52C157.445 129.896 159.173 129.584 161.237 129.584C162.677 129.584 164.081 129.788 165.449 130.196C166.841 130.58 168.041 131.12 169.049 131.816L168.149 133.94C167.093 133.244 165.965 132.728 164.765 132.392C163.565 132.032 162.389 131.852 161.237 131.852C159.029 131.852 157.361 132.284 156.233 133.148C155.129 133.988 154.577 135.08 154.577 136.424C154.577 137.432 154.877 138.248 155.477 138.872C156.101 139.472 156.869 139.94 157.781 140.276C158.717 140.588 159.965 140.936 161.525 141.32C163.373 141.776 164.861 142.232 165.989 142.688C167.141 143.12 168.113 143.792 168.905 144.704C169.697 145.592 170.093 146.804 170.093 148.34C170.093 149.612 169.745 150.776 169.049 151.832C168.377 152.864 167.333 153.692 165.917 154.316C164.501 154.916 162.761 155.216 160.697 155.216ZM184.041 132.104H175.185V129.8H195.561V132.104H186.705V155H184.041V132.104Z" fill="#FA9766"/>
<path d="M110.096 132.104L108.164 134.399L110.096 132.104ZM110.096 144.776L112.011 147.086C112.017 147.081 112.022 147.076 112.028 147.071L110.096 144.776ZM95.768 147.044V144.044C94.1111 144.044 92.768 145.387 92.768 147.044H95.768ZM95.768 155V158C97.4249 158 98.768 156.657 98.768 155H95.768ZM93.104 155H90.104C90.104 156.657 91.4471 158 93.104 158V155ZM93.104 129.8V126.8C91.4471 126.8 90.104 128.143 90.104 129.8H93.104ZM108.188 143.084L110.088 145.406C110.096 145.399 110.104 145.392 110.113 145.385L108.188 143.084ZM108.188 133.76L106.263 136.061C106.272 136.068 106.28 136.075 106.288 136.082L108.188 133.76ZM95.768 132.104V129.104C94.1111 129.104 92.768 130.447 92.768 132.104H95.768ZM95.768 144.704H92.768C92.768 146.361 94.1111 147.704 95.768 147.704V144.704ZM102.536 132.8C105.292 132.8 107.044 133.456 108.164 134.399L112.028 129.809C109.5 127.68 106.212 126.8 102.536 126.8V132.8ZM108.164 134.399C109.22 135.288 109.832 136.511 109.832 138.44H115.832C115.832 134.993 114.62 131.992 112.028 129.809L108.164 134.399ZM109.832 138.44C109.832 140.369 109.22 141.592 108.164 142.481L112.028 147.071C114.62 144.888 115.832 141.887 115.832 138.44H109.832ZM108.181 142.466C107.061 143.395 105.303 144.044 102.536 144.044V150.044C106.201 150.044 109.483 149.181 112.011 147.086L108.181 142.466ZM102.536 144.044H95.768V150.044H102.536V144.044ZM92.768 147.044V155H98.768V147.044H92.768ZM95.768 152H93.104V158H95.768V152ZM96.104 155V129.8H90.104V155H96.104ZM93.104 132.8H102.536V126.8H93.104V132.8ZM102.464 147.704C105.341 147.704 108.032 147.088 110.088 145.406L106.288 140.762C105.704 141.24 104.579 141.704 102.464 141.704V147.704ZM110.113 145.385C112.225 143.618 113.168 141.164 113.168 138.44H107.168C107.168 139.7 106.791 140.342 106.263 140.783L110.113 145.385ZM113.168 138.44C113.168 135.696 112.243 133.201 110.088 131.438L106.288 136.082C106.773 136.479 107.168 137.104 107.168 138.44H113.168ZM110.113 131.459C108.055 129.738 105.354 129.104 102.464 129.104V135.104C104.566 135.104 105.681 135.574 106.263 136.061L110.113 131.459ZM102.464 129.104H95.768V135.104H102.464V129.104ZM92.768 132.104V144.704H98.768V132.104H92.768ZM95.768 147.704H102.464V141.704H95.768V147.704ZM138.348 148.268L141.084 147.039C140.6 145.961 139.529 145.268 138.348 145.268V148.268ZM124.308 148.268V145.268C123.127 145.268 122.055 145.961 121.571 147.039L124.308 148.268ZM121.284 155V158C122.465 158 123.536 157.307 124.02 156.229L121.284 155ZM118.512 155L115.783 153.753C115.359 154.681 115.436 155.762 115.988 156.621C116.54 157.481 117.491 158 118.512 158V155ZM130.032 129.8V126.8C128.858 126.8 127.792 127.485 127.303 128.553L130.032 129.8ZM132.66 129.8L135.388 128.553C134.9 127.485 133.834 126.8 132.66 126.8V129.8ZM144.18 155V158C145.201 158 146.152 157.481 146.704 156.621C147.256 155.762 147.333 154.681 146.908 153.753L144.18 155ZM141.372 155L138.635 156.229C139.119 157.307 140.191 158 141.372 158V155ZM137.376 146.108V149.108C138.392 149.108 139.34 148.593 139.893 147.74C140.446 146.887 140.53 145.812 140.115 144.884L137.376 146.108ZM131.328 132.572L134.067 131.348C133.584 130.268 132.511 129.572 131.328 129.572C130.144 129.572 129.072 130.268 128.589 131.348L131.328 132.572ZM125.28 146.108L122.541 144.884C122.126 145.812 122.21 146.887 122.763 147.74C123.316 148.593 124.263 149.108 125.28 149.108V146.108ZM138.348 145.268H124.308V151.268H138.348V145.268ZM121.571 147.039L118.547 153.771L124.02 156.229L127.044 149.497L121.571 147.039ZM121.284 152H118.512V158H121.284V152ZM121.24 156.247L132.76 131.047L127.303 128.553L115.783 153.753L121.24 156.247ZM130.032 132.8H132.66V126.8H130.032V132.8ZM129.931 131.047L141.451 156.247L146.908 153.753L135.388 128.553L129.931 131.047ZM144.18 152H141.372V158H144.18V152ZM144.108 153.771L141.084 147.039L135.611 149.497L138.635 156.229L144.108 153.771ZM140.115 144.884L134.067 131.348L128.589 133.796L134.637 147.332L140.115 144.884ZM128.589 131.348L122.541 144.884L128.019 147.332L134.067 133.796L128.589 131.348ZM125.28 149.108H137.376V143.108H125.28V149.108ZM155.297 154.316L154.3 157.146L154.312 157.15L155.297 154.316ZM151.337 151.94L148.663 150.58C148.086 151.713 148.287 153.086 149.163 154.008L151.337 151.94ZM152.381 149.888L154.502 147.767C153.823 147.087 152.859 146.775 151.91 146.925C150.962 147.076 150.142 147.671 149.707 148.528L152.381 149.888ZM156.017 152.12L154.949 154.923C154.962 154.928 154.975 154.933 154.988 154.938L156.017 152.12ZM165.773 151.724L167.531 154.155C167.542 154.147 167.553 154.138 167.564 154.13L165.773 151.724ZM166.529 146.072L164.407 148.193C164.421 148.207 164.435 148.221 164.449 148.234L166.529 146.072ZM164.297 144.704L163.235 147.51C163.257 147.518 163.28 147.526 163.302 147.534L164.297 144.704ZM160.589 143.624L159.852 146.532C159.862 146.535 159.872 146.537 159.882 146.54L160.589 143.624ZM156.053 142.256L154.928 145.037C154.945 145.044 154.962 145.051 154.98 145.058L156.053 142.256ZM153.137 140.204L150.871 142.171C150.881 142.182 150.891 142.193 150.901 142.204L153.137 140.204ZM152.957 133.04L155.471 134.677C155.476 134.668 155.482 134.659 155.488 134.651L152.957 133.04ZM156.053 130.52L157.28 133.258L156.053 130.52ZM165.449 130.196L164.591 133.071C164.611 133.077 164.631 133.082 164.651 133.088L165.449 130.196ZM169.049 131.816L171.811 132.986C172.366 131.676 171.924 130.156 170.753 129.347L169.049 131.816ZM168.149 133.94L166.498 136.445C167.241 136.935 168.164 137.069 169.017 136.812C169.869 136.554 170.563 135.931 170.911 135.11L168.149 133.94ZM164.765 132.392L163.902 135.265C163.92 135.271 163.938 135.276 163.956 135.281L164.765 132.392ZM156.233 133.148L158.049 135.535L158.057 135.53L156.233 133.148ZM155.477 138.872L153.314 140.951C153.341 140.98 153.369 141.007 153.397 141.034L155.477 138.872ZM157.781 140.276L156.743 143.091C156.773 143.102 156.802 143.112 156.832 143.122L157.781 140.276ZM161.525 141.32L162.243 138.407H162.242L161.525 141.32ZM165.989 142.688L164.864 145.469C164.888 145.479 164.911 145.488 164.935 145.497L165.989 142.688ZM168.905 144.704L166.639 146.671C166.648 146.681 166.657 146.691 166.666 146.701L168.905 144.704ZM169.049 151.832L166.544 150.181C166.541 150.186 166.538 150.19 166.535 150.195L169.049 151.832ZM165.917 154.316L167.087 157.078C167.1 157.073 167.113 157.067 167.126 157.061L165.917 154.316ZM160.697 152.216C159.152 152.216 157.685 151.97 156.281 151.482L154.312 157.15C156.364 157.862 158.498 158.216 160.697 158.216V152.216ZM156.293 151.486C154.895 150.994 154.03 150.419 153.51 149.872L149.163 154.008C150.515 155.429 152.291 156.438 154.3 157.146L156.293 151.486ZM154.01 153.3L155.054 151.248L149.707 148.528L148.663 150.58L154.01 153.3ZM150.259 152.009C151.536 153.286 153.139 154.234 154.949 154.923L157.085 149.317C155.87 148.854 155.049 148.314 154.502 147.767L150.259 152.009ZM154.988 154.938C156.829 155.61 158.737 155.948 160.697 155.948V149.948C159.44 149.948 158.228 149.734 157.045 149.302L154.988 154.938ZM160.697 155.948C163.225 155.948 165.662 155.507 167.531 154.155L164.014 149.293C163.627 149.573 162.68 149.948 160.697 149.948V155.948ZM167.564 154.13C169.395 152.767 170.465 150.822 170.465 148.484H164.465C164.465 148.786 164.407 149.001 163.981 149.318L167.564 154.13ZM170.465 148.484C170.465 146.806 169.918 145.169 168.608 143.909L164.449 148.234C164.453 148.238 164.448 148.234 164.442 148.224C164.435 148.214 164.433 148.208 164.434 148.21C164.435 148.213 164.465 148.29 164.465 148.484H170.465ZM168.65 143.951C167.699 143 166.556 142.318 165.291 141.874L163.302 147.534C163.813 147.714 164.158 147.944 164.407 148.193L168.65 143.951ZM165.358 141.898C164.301 141.498 162.928 141.104 161.295 140.708L159.882 146.54C161.417 146.912 162.516 147.238 163.235 147.51L165.358 141.898ZM161.325 140.716C159.482 140.249 158.097 139.827 157.125 139.454L154.98 145.058C156.264 145.549 157.903 146.039 159.852 146.532L161.325 140.716ZM157.177 139.475C156.477 139.192 155.884 138.776 155.372 138.204L150.901 142.204C152.021 143.456 153.372 144.408 154.928 145.037L157.177 139.475ZM155.402 138.237C155.208 138.014 154.949 137.549 154.949 136.496H148.949C148.949 138.563 149.481 140.57 150.871 142.171L155.402 138.237ZM154.949 136.496C154.949 135.785 155.127 135.205 155.471 134.677L150.443 131.403C149.443 132.939 148.949 134.663 148.949 136.496H154.949ZM155.488 134.651C155.781 134.189 156.305 133.694 157.28 133.258L154.825 127.782C153.016 128.594 151.476 129.779 150.426 131.429L155.488 134.651ZM157.28 133.258C158.175 132.856 159.454 132.584 161.237 132.584V126.584C158.891 126.584 156.714 126.936 154.825 127.782L157.28 133.258ZM161.237 132.584C162.389 132.584 163.504 132.747 164.591 133.071L166.306 127.321C164.657 126.829 162.964 126.584 161.237 126.584V132.584ZM164.651 133.088C165.775 133.398 166.657 133.81 167.344 134.285L170.753 129.347C169.424 128.43 167.906 127.762 166.246 127.304L164.651 133.088ZM166.286 130.646L165.386 132.77L170.911 135.11L171.811 132.986L166.286 130.646ZM169.799 131.435C168.488 130.571 167.077 129.924 165.573 129.503L163.956 135.281C164.852 135.532 165.697 135.917 166.498 136.445L169.799 131.435ZM165.627 129.519C164.171 129.082 162.705 128.852 161.237 128.852V134.852C162.072 134.852 162.958 134.982 163.902 135.265L165.627 129.519ZM161.237 128.852C158.712 128.852 156.279 129.333 154.408 130.766L158.057 135.53C158.442 135.235 159.345 134.852 161.237 134.852V128.852ZM154.416 130.761C152.594 132.146 151.577 134.108 151.577 136.424H157.577C157.577 136.052 157.663 135.83 158.049 135.535L154.416 130.761ZM151.577 136.424C151.577 138.07 152.089 139.677 153.314 140.951L157.639 136.793C157.628 136.781 157.625 136.777 157.617 136.757C157.607 136.729 157.577 136.63 157.577 136.424H151.577ZM153.397 141.034C154.354 141.955 155.49 142.629 156.743 143.091L158.818 137.461C158.247 137.251 157.847 136.989 157.556 136.71L153.397 141.034ZM156.832 143.122C157.876 143.47 159.211 143.84 160.807 144.233L162.242 138.407C160.718 138.032 159.557 137.706 158.729 137.43L156.832 143.122ZM160.806 144.233C162.583 144.671 163.92 145.088 164.864 145.469L167.113 139.907C165.801 139.376 164.162 138.881 162.243 138.407L160.806 144.233ZM164.935 145.497C165.629 145.757 166.181 146.143 166.639 146.671L171.17 142.737C170.044 141.441 168.653 140.483 167.042 139.879L164.935 145.497ZM166.666 146.701C166.838 146.895 167.093 147.32 167.093 148.34H173.093C173.093 146.288 172.555 144.289 171.143 142.707L166.666 146.701ZM167.093 148.34C167.093 149.029 166.915 149.618 166.544 150.181L171.553 153.483C172.574 151.934 173.093 150.195 173.093 148.34H167.093ZM166.535 150.195C166.253 150.627 165.726 151.122 164.707 151.571L167.126 157.061C168.939 156.262 170.5 155.101 171.563 153.469L166.535 150.195ZM164.746 151.554C163.804 151.953 162.488 152.216 160.697 152.216V158.216C163.033 158.216 165.197 157.879 167.087 157.078L164.746 151.554ZM184.041 132.104H187.041C187.041 130.447 185.698 129.104 184.041 129.104V132.104ZM175.185 132.104H172.185C172.185 133.761 173.529 135.104 175.185 135.104V132.104ZM175.185 129.8V126.8C173.529 126.8 172.185 128.143 172.185 129.8H175.185ZM195.561 129.8H198.561C198.561 128.143 197.218 126.8 195.561 126.8V129.8ZM195.561 132.104V135.104C197.218 135.104 198.561 133.761 198.561 132.104H195.561ZM186.705 132.104V129.104C185.049 129.104 183.705 130.447 183.705 132.104H186.705ZM186.705 155V158C188.362 158 189.705 156.657 189.705 155H186.705ZM184.041 155H181.041C181.041 156.657 182.385 158 184.041 158V155ZM184.041 129.104H175.185V135.104H184.041V129.104ZM178.185 132.104V129.8H172.185V132.104H178.185ZM175.185 132.8H195.561V126.8H175.185V132.8ZM192.561 129.8V132.104H198.561V129.8H192.561ZM195.561 129.104H186.705V135.104H195.561V129.104ZM183.705 132.104V155H189.705V132.104H183.705ZM186.705 152H184.041V158H186.705V152ZM187.041 155V132.104H181.041V155H187.041Z" fill="#FA9766"/>
<path d="M94.28 104.38H89.08V104H99.88V104.38H94.68V118H94.28V104.38ZM115.617 104V118H115.217V111.08H105.017V118H104.617V104H105.017V110.7H115.217V104H115.617ZM132.265 117.62V118H122.945V104H131.965V104.38H123.345V110.7H131.065V111.08H123.345V117.62H132.265Z" fill="#FA9766"/>
<path d="M94.28 104.38H96.28C96.28 103.275 95.3846 102.38 94.28 102.38V104.38ZM89.08 104.38H87.08C87.08 105.485 87.9754 106.38 89.08 106.38V104.38ZM89.08 104V102C87.9754 102 87.08 102.895 87.08 104H89.08ZM99.88 104H101.88C101.88 102.895 100.985 102 99.88 102V104ZM99.88 104.38V106.38C100.985 106.38 101.88 105.485 101.88 104.38H99.88ZM94.68 104.38V102.38C93.5754 102.38 92.68 103.275 92.68 104.38H94.68ZM94.68 118V120C95.7846 120 96.68 119.105 96.68 118H94.68ZM94.28 118H92.28C92.28 119.105 93.1754 120 94.28 120V118ZM94.28 102.38H89.08V106.38H94.28V102.38ZM91.08 104.38V104H87.08V104.38H91.08ZM89.08 106H99.88V102H89.08V106ZM97.88 104V104.38H101.88V104H97.88ZM99.88 102.38H94.68V106.38H99.88V102.38ZM92.68 104.38V118H96.68V104.38H92.68ZM94.68 116H94.28V120H94.68V116ZM96.28 118V104.38H92.28V118H96.28ZM115.617 104H117.617C117.617 102.895 116.722 102 115.617 102V104ZM115.617 118V120C116.722 120 117.617 119.105 117.617 118H115.617ZM115.217 118H113.217C113.217 119.105 114.112 120 115.217 120V118ZM115.217 111.08H117.217C117.217 109.975 116.322 109.08 115.217 109.08V111.08ZM105.017 111.08V109.08C103.912 109.08 103.017 109.975 103.017 111.08H105.017ZM105.017 118V120C106.122 120 107.017 119.105 107.017 118H105.017ZM104.617 118H102.617C102.617 119.105 103.512 120 104.617 120V118ZM104.617 104V102C103.512 102 102.617 102.895 102.617 104H104.617ZM105.017 104H107.017C107.017 102.895 106.122 102 105.017 102V104ZM105.017 110.7H103.017C103.017 111.805 103.912 112.7 105.017 112.7V110.7ZM115.217 110.7V112.7C116.322 112.7 117.217 111.805 117.217 110.7H115.217ZM115.217 104V102C114.112 102 113.217 102.895 113.217 104H115.217ZM113.617 104V118H117.617V104H113.617ZM115.617 116H115.217V120H115.617V116ZM117.217 118V111.08H113.217V118H117.217ZM115.217 109.08H105.017V113.08H115.217V109.08ZM103.017 111.08V118H107.017V111.08H103.017ZM105.017 116H104.617V120H105.017V116ZM106.617 118V104H102.617V118H106.617ZM104.617 106H105.017V102H104.617V106ZM103.017 104V110.7H107.017V104H103.017ZM105.017 112.7H115.217V108.7H105.017V112.7ZM117.217 110.7V104H113.217V110.7H117.217ZM115.217 106H115.617V102H115.217V106ZM132.265 117.62H134.265C134.265 116.515 133.37 115.62 132.265 115.62V117.62ZM132.265 118V120C133.37 120 134.265 119.105 134.265 118H132.265ZM122.945 118H120.945C120.945 119.105 121.841 120 122.945 120V118ZM122.945 104V102C121.841 102 120.945 102.895 120.945 104H122.945ZM131.965 104H133.965C133.965 102.895 133.07 102 131.965 102V104ZM131.965 104.38V106.38C133.07 106.38 133.965 105.485 133.965 104.38H131.965ZM123.345 104.38V102.38C122.241 102.38 121.345 103.275 121.345 104.38H123.345ZM123.345 110.7H121.345C121.345 111.805 122.241 112.7 123.345 112.7V110.7ZM131.065 110.7H133.065C133.065 109.595 132.17 108.7 131.065 108.7V110.7ZM131.065 111.08V113.08C132.17 113.08 133.065 112.185 133.065 111.08H131.065ZM123.345 111.08V109.08C122.241 109.08 121.345 109.975 121.345 111.08H123.345ZM123.345 117.62H121.345C121.345 118.725 122.241 119.62 123.345 119.62V117.62ZM130.265 117.62V118H134.265V117.62H130.265ZM132.265 116H122.945V120H132.265V116ZM124.945 118V104H120.945V118H124.945ZM122.945 106H131.965V102H122.945V106ZM129.965 104V104.38H133.965V104H129.965ZM131.965 102.38H123.345V106.38H131.965V102.38ZM121.345 104.38V110.7H125.345V104.38H121.345ZM123.345 112.7H131.065V108.7H123.345V112.7ZM129.065 110.7V111.08H133.065V110.7H129.065ZM131.065 109.08H123.345V113.08H131.065V109.08ZM121.345 111.08V117.62H125.345V111.08H121.345ZM123.345 119.62H132.265V115.62H123.345V119.62Z" fill="#FA9766"/>
<path d="M0 141.697C9.46667 142.745 14.2 146.904 35.5 147.5C56.8 148.096 90.4213 136.762 126 137C159.64 137.225 176 147.5 211.5 147.5C247 147.5 265.067 137.65 284 137V322H274.533C265.067 322 246.133 322 227.2 322C208.267 322 189.333 322 170.4 322C151.467 322 132.533 322 113.6 322C94.6667 322 75.7333 322 56.8 322C37.8667 322 18.9333 322 9.46667 322H0V141.697Z" fill="#FA9766"/>
<path d="M0 182.224L9.46667 182.52C18.9333 182.773 37.8667 183.363 56.8 178.723C75.7333 174.082 94.6667 164.211 113.6 161.68C132.533 159.149 151.467 163.958 170.4 171.593C189.333 179.271 208.267 189.818 227.2 192.264C246.133 194.753 265.067 189.101 274.533 186.316L284 183.49V313H274.533C265.067 313 246.133 313 227.2 313C208.267 313 189.333 313 170.4 313C151.467 313 132.533 313 113.6 313C94.6667 313 75.7333 313 56.8 313C37.8667 313 18.9333 313 9.46667 313H0V182.224Z" fill="#FB8851"/>
<path d="M0 233.063C0 233.063 0 233.103 9.46667 226.201C18.9333 219.299 37.8667 205.574 56.8 205.416C75.7333 205.297 94.6667 218.783 113.6 219.101C132.533 219.458 151.467 206.606 170.4 206.169C189.333 205.693 208.267 217.593 227.2 216.007C246.133 214.42 265.067 199.347 274.533 191.81L284 184.273V312.397H274.533C265.067 312.397 246.133 312.397 227.2 312.397C208.267 312.397 189.333 312.397 170.4 312.397C151.467 312.397 132.533 312.397 113.6 312.397C94.6667 312.397 75.7333 312.397 56.8 312.397C37.8667 312.397 18.9333 312.397 9.46667 312.397H0V233.063Z" fill="#FB783B"/>
<path d="M0 241.873L9.46667 246.038C18.9333 250.203 37.8667 258.533 56.8 256.153C75.7333 253.773 94.6667 240.683 113.6 236.32C132.533 231.957 151.467 236.32 170.4 238.7C189.333 241.08 208.267 241.477 227.2 238.898C246.133 236.32 265.067 230.767 274.533 227.99L284 225.213V322.397H274.533C265.067 322.397 246.133 322.397 227.2 322.397C208.267 322.397 189.333 322.397 170.4 322.397C151.467 322.397 132.533 322.397 113.6 322.397C94.6667 322.397 75.7333 322.397 56.8 322.397C37.8667 322.397 18.9333 322.397 9.46667 322.397H0V241.873Z" fill="#FB6723"/>
<path d="M0 286.3L9.46667 286.419C18.9333 286.578 37.8667 286.816 56.8 287.569C75.7333 288.283 94.6667 289.473 113.6 289.791C132.533 290.148 151.467 289.592 170.4 285.031C189.333 280.469 208.267 271.901 227.2 268.648C246.133 265.396 265.067 267.538 274.533 268.569L284 269.64V322.397H274.533C265.067 322.397 246.133 322.397 227.2 322.397C208.267 322.397 189.333 322.397 170.4 322.397C151.467 322.397 132.533 322.397 113.6 322.397C94.6667 322.397 75.7333 322.397 56.8 322.397C37.8667 322.397 18.9333 322.397 9.46667 322.397H0V286.3Z" fill="#FA5300"/>
<g style="mix-blend-mode:soft-light">
<path d="M47 188H237" stroke="white"/>
</g>
<path d="M78.1077 198.2V196.2C77.0031 196.2 76.1077 197.095 76.1077 198.2H78.1077ZM79.3317 198.2H81.3317C81.3317 197.095 80.4363 196.2 79.3317 196.2V198.2ZM79.3317 213.896H77.3317C77.3317 215.001 78.2271 215.896 79.3317 215.896V213.896ZM89.0037 213.896H91.0037C91.0037 212.791 90.1083 211.896 89.0037 211.896V213.896ZM89.0037 215V217C90.1083 217 91.0037 216.105 91.0037 215H89.0037ZM78.1077 215H76.1077C76.1077 216.105 77.0031 217 78.1077 217V215ZM78.1077 200.2H79.3317V196.2H78.1077V200.2ZM77.3317 198.2V213.896H81.3317V198.2H77.3317ZM79.3317 215.896H89.0037V211.896H79.3317V215.896ZM87.0037 213.896V215H91.0037V213.896H87.0037ZM89.0037 213H78.1077V217H89.0037V213ZM80.1077 215V198.2H76.1077V215H80.1077ZM106.139 213.896H108.139C108.139 212.791 107.243 211.896 106.139 211.896V213.896ZM106.139 215V217C107.243 217 108.139 216.105 108.139 215H106.139ZM94.5467 215H92.5467C92.5467 216.105 93.4422 217 94.5467 217V215ZM94.5467 198.2V196.2C93.4422 196.2 92.5467 197.095 92.5467 198.2H94.5467ZM105.779 198.2H107.779C107.779 197.095 106.883 196.2 105.779 196.2V198.2ZM105.779 199.304V201.304C106.883 201.304 107.779 200.409 107.779 199.304H105.779ZM95.7707 199.304V197.304C94.6662 197.304 93.7707 198.199 93.7707 199.304H95.7707ZM95.7707 205.928H93.7707C93.7707 207.033 94.6662 207.928 95.7707 207.928V205.928ZM104.723 205.928H106.723C106.723 204.823 105.827 203.928 104.723 203.928V205.928ZM104.723 207.008V209.008C105.827 209.008 106.723 208.113 106.723 207.008H104.723ZM95.7707 207.008V205.008C94.6662 205.008 93.7707 205.903 93.7707 207.008H95.7707ZM95.7707 213.896H93.7707C93.7707 215.001 94.6662 215.896 95.7707 215.896V213.896ZM104.139 213.896V215H108.139V213.896H104.139ZM106.139 213H94.5467V217H106.139V213ZM96.5467 215V198.2H92.5467V215H96.5467ZM94.5467 200.2H105.779V196.2H94.5467V200.2ZM103.779 198.2V199.304H107.779V198.2H103.779ZM105.779 197.304H95.7707V201.304H105.779V197.304ZM93.7707 199.304V205.928H97.7707V199.304H93.7707ZM95.7707 207.928H104.723V203.928H95.7707V207.928ZM102.723 205.928V207.008H106.723V205.928H102.723ZM104.723 205.008H95.7707V209.008H104.723V205.008ZM93.7707 207.008V213.896H97.7707V207.008H93.7707ZM95.7707 215.896H106.139V211.896H95.7707V215.896ZM132.558 199.712L131.271 201.243C131.275 201.247 131.279 201.25 131.283 201.253L132.558 199.712ZM132.558 208.016L133.832 209.557C133.836 209.554 133.84 209.551 133.844 209.547L132.558 208.016ZM122.79 209.504V207.504C121.685 207.504 120.79 208.399 120.79 209.504H122.79ZM122.79 215V217C123.894 217 124.789 216.105 124.789 215H122.79ZM121.566 215H119.566C119.566 216.105 120.461 217 121.566 217V215ZM121.566 198.2V196.2C120.461 196.2 119.566 197.095 119.566 198.2H121.566ZM131.694 207.224L132.971 208.763L131.694 207.224ZM131.694 200.504L130.4 202.03C130.406 202.034 130.411 202.038 130.416 202.043L131.694 200.504ZM122.79 199.304V197.304C121.685 197.304 120.79 198.199 120.79 199.304H122.79ZM122.79 208.4H120.79C120.79 209.505 121.685 210.4 122.79 210.4V208.4ZM127.59 200.2C129.395 200.2 130.54 200.629 131.271 201.243L133.844 198.181C132.175 196.779 130.008 196.2 127.59 196.2V200.2ZM131.283 201.253C131.956 201.809 132.357 202.59 132.357 203.864H136.357C136.357 201.586 135.559 199.599 133.832 198.171L131.283 201.253ZM132.357 203.864C132.357 205.115 131.96 205.906 131.271 206.485L133.844 209.547C135.555 208.11 136.357 206.133 136.357 203.864H132.357ZM131.283 206.475C130.551 207.079 129.402 207.504 127.59 207.504V211.504C130.001 211.504 132.164 210.937 133.832 209.557L131.283 206.475ZM127.59 207.504H122.79V211.504H127.59V207.504ZM120.79 209.504V215H124.789V209.504H120.79ZM122.79 213H121.566V217H122.79V213ZM123.566 215V198.2H119.566V215H123.566ZM121.566 200.2H127.59V196.2H121.566V200.2ZM127.59 210.4C129.639 210.4 131.535 209.955 132.971 208.763L130.416 205.685C129.964 206.061 129.124 206.4 127.59 206.4V210.4ZM132.971 208.763C134.46 207.527 135.11 205.792 135.11 203.864H131.11C131.11 204.848 130.815 205.353 130.416 205.685L132.971 208.763ZM135.11 203.864C135.11 201.936 134.46 200.201 132.971 198.965L130.416 202.043C130.815 202.375 131.11 202.88 131.11 203.864H135.11ZM132.987 198.978C131.549 197.76 129.647 197.304 127.59 197.304V201.304C129.116 201.304 129.95 201.648 130.4 202.03L132.987 198.978ZM127.59 197.304H122.79V201.304H127.59V197.304ZM120.79 199.304V208.4H124.789V199.304H120.79ZM122.79 210.4H127.59V206.4H122.79V210.4ZM151.514 210.272L153.333 209.441C153.008 208.729 152.297 208.272 151.514 208.272V210.272ZM141.77 210.272V208.272C140.984 208.272 140.271 208.732 139.947 209.449L141.77 210.272ZM139.634 215V217C140.42 217 141.133 216.54 141.456 215.823L139.634 215ZM138.314 215L136.497 214.164C136.212 214.783 136.262 215.505 136.63 216.079C136.997 216.653 137.632 217 138.314 217V215ZM146.042 198.2V196.2C145.261 196.2 144.551 196.655 144.225 197.364L146.042 198.2ZM147.266 198.2L149.083 197.364C148.756 196.655 148.047 196.2 147.266 196.2V198.2ZM154.994 215V217C155.675 217 156.31 216.653 156.678 216.079C157.045 215.505 157.096 214.783 156.811 214.164L154.994 215ZM153.674 215L151.855 215.831C152.18 216.543 152.891 217 153.674 217V215ZM151.058 209.24V211.24C151.738 211.24 152.372 210.894 152.74 210.322C153.108 209.75 153.16 209.03 152.878 208.411L151.058 209.24ZM146.642 199.544L148.462 198.715C148.137 198.001 147.424 197.543 146.64 197.544C145.855 197.545 145.144 198.004 144.82 198.719L146.642 199.544ZM142.25 209.24L140.428 208.415C140.148 209.034 140.201 209.753 140.569 210.324C140.937 210.895 141.57 211.24 142.25 211.24V209.24ZM151.514 208.272H141.77V212.272H151.514V208.272ZM139.947 209.449L137.811 214.177L141.456 215.823L143.592 211.095L139.947 209.449ZM139.634 213H138.314V217H139.634V213ZM140.131 215.836L147.859 199.036L144.225 197.364L136.497 214.164L140.131 215.836ZM146.042 200.2H147.266V196.2H146.042V200.2ZM145.449 199.036L153.177 215.836L156.811 214.164L149.083 197.364L145.449 199.036ZM154.994 213H153.674V217H154.994V213ZM155.493 214.169L153.333 209.441L149.695 211.103L151.855 215.831L155.493 214.169ZM152.878 208.411L148.462 198.715L144.822 200.373L149.238 210.069L152.878 208.411ZM144.82 198.719L140.428 208.415L144.072 210.065L148.464 200.369L144.82 198.719ZM142.25 211.24H151.058V207.24H142.25V211.24ZM162.532 214.496L161.803 216.358C161.814 216.363 161.824 216.367 161.835 216.371L162.532 214.496ZM159.94 212.84L158.229 211.804C157.766 212.568 157.866 213.546 158.474 214.201L159.94 212.84ZM160.492 211.928L161.943 210.551C161.513 210.099 160.897 209.873 160.277 209.94C159.657 210.006 159.104 210.359 158.781 210.892L160.492 211.928ZM162.868 213.464L162.12 215.319C162.132 215.324 162.144 215.328 162.156 215.333L162.868 213.464ZM169.66 213.128L170.855 214.732L169.66 213.128ZM168.628 207.92L169.33 206.047L168.628 207.92ZM166.036 207.176L165.556 209.118C165.563 209.119 165.571 209.121 165.578 209.123L166.036 207.176ZM163.06 206.288L162.331 208.15C162.335 208.152 162.34 208.154 162.344 208.156L163.06 206.288ZM161.164 204.968L159.634 206.256C159.646 206.271 159.658 206.285 159.671 206.299L161.164 204.968ZM161.044 200.312L162.726 201.394C162.73 201.388 162.734 201.382 162.737 201.376L161.044 200.312ZM163.012 198.68L162.196 196.854L162.184 196.859L163.012 198.68ZM169.084 198.488L168.503 200.402L169.084 198.488ZM171.412 199.592L173.226 200.433C173.632 199.557 173.355 198.517 172.567 197.959L171.412 199.592ZM170.956 200.576L169.819 202.222C170.305 202.557 170.913 202.661 171.482 202.506C172.051 202.35 172.522 201.952 172.77 201.417L170.956 200.576ZM168.724 199.52L168.149 201.436L168.159 201.439L168.724 199.52ZM162.82 200.096L161.59 198.519L162.82 200.096ZM162.268 204.32L160.828 205.708L162.268 204.32ZM163.876 205.352L163.173 207.225L163.876 205.352ZM166.492 206.12L166.971 204.178H166.97L166.492 206.12ZM169.444 207.008L168.715 208.87L169.444 207.008ZM171.316 208.328L169.803 209.636C169.815 209.651 169.828 209.665 169.841 209.679L171.316 208.328ZM171.436 212.912L169.772 211.803C169.765 211.812 169.759 211.821 169.753 211.83L171.436 212.912ZM169.42 214.52L168.616 212.688L169.42 214.52ZM166.06 213.12C165.058 213.12 164.118 212.952 163.228 212.621L161.835 216.371C163.185 216.872 164.597 217.12 166.06 217.12V213.12ZM163.26 212.634C162.358 212.28 161.774 211.876 161.405 211.479L158.474 214.201C159.354 215.148 160.498 215.848 161.803 216.358L163.26 212.634ZM161.651 213.876L162.203 212.964L158.781 210.892L158.229 211.804L161.651 213.876ZM159.041 213.305C159.872 214.181 160.925 214.837 162.12 215.319L163.616 211.609C162.826 211.291 162.295 210.923 161.943 210.551L159.041 213.305ZM162.156 215.333C163.396 215.806 164.694 216.04 166.036 216.04V212.04C165.169 212.04 164.355 211.89 163.58 211.595L162.156 215.333ZM166.036 216.04C167.837 216.04 169.546 215.707 170.855 214.732L168.465 211.524C168.141 211.765 167.435 212.04 166.036 212.04V216.04ZM170.855 214.732C172.152 213.765 172.884 212.391 172.884 210.752H168.884C168.884 211.065 168.799 211.275 168.465 211.524L170.855 214.732ZM172.884 210.752C172.884 209.597 172.539 208.46 171.675 207.564L168.796 210.34C168.796 210.34 168.884 210.403 168.884 210.752H172.884ZM171.675 207.564C171.017 206.881 170.221 206.381 169.33 206.047L167.925 209.793C168.314 209.939 168.59 210.127 168.796 210.34L171.675 207.564ZM169.33 206.047C168.576 205.765 167.62 205.494 166.494 205.229L165.578 209.123C166.628 209.37 167.399 209.595 167.925 209.793L169.33 206.047ZM166.515 205.234C165.323 204.94 164.419 204.667 163.775 204.42L162.344 208.156C163.204 208.485 164.284 208.804 165.556 209.118L166.515 205.234ZM163.788 204.426C163.346 204.253 162.976 203.995 162.656 203.637L159.671 206.299C160.408 207.125 161.301 207.747 162.331 208.15L163.788 204.426ZM162.693 203.68C162.559 203.52 162.396 203.21 162.396 202.544H158.396C158.396 203.894 158.744 205.2 159.634 206.256L162.693 203.68ZM162.396 202.544C162.396 202.103 162.506 201.736 162.726 201.394L159.361 199.23C158.717 200.232 158.396 201.353 158.396 202.544H162.396ZM162.737 201.376C162.924 201.078 163.247 200.77 163.839 200.501L162.184 196.859C161.016 197.39 160.027 198.17 159.35 199.248L162.737 201.376ZM163.827 200.506C164.393 200.254 165.207 200.08 166.348 200.08V196.08C164.832 196.08 163.423 196.306 162.196 196.854L163.827 200.506ZM166.348 200.08C167.077 200.08 167.793 200.186 168.503 200.402L169.665 196.574C168.582 196.246 167.474 196.08 166.348 196.08V200.08ZM168.503 200.402C169.227 200.622 169.802 200.903 170.257 201.225L172.567 197.959C171.709 197.353 170.733 196.898 169.665 196.574L168.503 200.402ZM169.597 198.751L169.141 199.735L172.77 201.417L173.226 200.433L169.597 198.751ZM172.092 198.93C171.238 198.34 170.299 197.899 169.288 197.601L168.159 201.439C168.78 201.621 169.329 201.884 169.819 202.222L172.092 198.93ZM169.298 197.604C168.324 197.312 167.339 197.16 166.348 197.16V201.16C166.925 201.16 167.523 201.248 168.149 201.436L169.298 197.604ZM166.348 197.16C164.574 197.16 162.884 197.509 161.59 198.519L164.05 201.673C164.355 201.435 165.018 201.16 166.348 201.16V197.16ZM161.59 198.519C160.317 199.512 159.62 200.896 159.62 202.52H163.62C163.62 202.16 163.723 201.928 164.05 201.673L161.59 198.519ZM159.62 202.52C159.62 203.675 159.964 204.812 160.828 205.708L163.707 202.932C163.707 202.932 163.62 202.869 163.62 202.52H159.62ZM160.828 205.708C161.486 206.391 162.282 206.891 163.173 207.225L164.578 203.479C164.189 203.333 163.913 203.145 163.707 202.932L160.828 205.708ZM163.173 207.225C163.919 207.504 164.876 207.782 166.013 208.062L166.97 204.178C165.899 203.914 165.113 203.68 164.578 203.479L163.173 207.225ZM166.012 208.062C167.204 208.356 168.094 208.627 168.715 208.87L170.172 205.146C169.321 204.813 168.243 204.492 166.971 204.178L166.012 208.062ZM168.715 208.87C169.151 209.041 169.505 209.292 169.803 209.636L172.828 207.02C172.102 206.18 171.208 205.551 170.172 205.146L168.715 208.87ZM169.841 209.679C169.947 209.795 170.108 210.049 170.108 210.68H174.108C174.108 209.327 173.74 208.013 172.79 206.977L169.841 209.679ZM170.108 210.68C170.108 211.106 169.998 211.463 169.772 211.803L173.1 214.021C173.769 213.017 174.108 211.886 174.108 210.68H170.108ZM169.753 211.83C169.581 212.098 169.257 212.407 168.616 212.688L170.223 216.352C171.406 215.833 172.426 215.07 173.118 213.994L169.753 211.83ZM168.616 212.688C168.027 212.947 167.199 213.12 166.06 213.12V217.12C167.577 217.12 168.988 216.893 170.223 216.352L168.616 212.688ZM179.557 214.496L178.828 216.358C178.839 216.363 178.849 216.367 178.86 216.371L179.557 214.496ZM176.965 212.84L175.254 211.804C174.791 212.568 174.891 213.546 175.499 214.201L176.965 212.84ZM177.517 211.928L178.968 210.551C178.538 210.099 177.922 209.873 177.302 209.94C176.682 210.006 176.129 210.359 175.806 210.892L177.517 211.928ZM179.893 213.464L179.145 215.319C179.157 215.324 179.169 215.328 179.181 215.333L179.893 213.464ZM186.685 213.128L187.88 214.732L186.685 213.128ZM185.653 207.92L186.355 206.047L185.653 207.92ZM183.061 207.176L182.581 209.118C182.589 209.119 182.596 209.121 182.603 209.123L183.061 207.176ZM180.085 206.288L179.356 208.15C179.36 208.152 179.365 208.154 179.369 208.156L180.085 206.288ZM178.189 204.968L176.659 206.256C176.671 206.271 176.683 206.285 176.696 206.299L178.189 204.968ZM178.069 200.312L179.751 201.394C179.755 201.388 179.759 201.382 179.762 201.376L178.069 200.312ZM180.037 198.68L179.221 196.854L179.209 196.859L180.037 198.68ZM186.109 198.488L185.528 200.402L186.109 198.488ZM188.437 199.592L190.251 200.433C190.657 199.557 190.38 198.517 189.592 197.959L188.437 199.592ZM187.981 200.576L186.844 202.222C187.33 202.557 187.938 202.661 188.507 202.506C189.076 202.35 189.547 201.952 189.795 201.417L187.981 200.576ZM185.749 199.52L185.174 201.436L185.184 201.439L185.749 199.52ZM179.845 200.096L178.615 198.519L179.845 200.096ZM179.293 204.32L177.853 205.708L179.293 204.32ZM180.901 205.352L180.198 207.225L180.901 205.352ZM183.517 206.12L183.996 204.178H183.995L183.517 206.12ZM186.469 207.008L185.74 208.87L186.469 207.008ZM188.341 208.328L186.828 209.636C186.84 209.651 186.853 209.665 186.866 209.679L188.341 208.328ZM188.461 212.912L186.797 211.803C186.79 211.812 186.784 211.821 186.778 211.83L188.461 212.912ZM186.445 214.52L185.641 212.688L186.445 214.52ZM183.085 213.12C182.083 213.12 181.143 212.952 180.253 212.621L178.86 216.371C180.21 216.872 181.622 217.12 183.085 217.12V213.12ZM180.285 212.634C179.383 212.28 178.799 211.876 178.43 211.479L175.499 214.201C176.379 215.148 177.523 215.848 178.828 216.358L180.285 212.634ZM178.676 213.876L179.228 212.964L175.806 210.892L175.254 211.804L178.676 213.876ZM176.066 213.305C176.897 214.181 177.95 214.837 179.145 215.319L180.641 211.609C179.851 211.291 179.32 210.923 178.968 210.551L176.066 213.305ZM179.181 215.333C180.421 215.806 181.719 216.04 183.061 216.04V212.04C182.194 212.04 181.38 211.89 180.605 211.595L179.181 215.333ZM183.061 216.04C184.862 216.04 186.571 215.707 187.88 214.732L185.49 211.524C185.166 211.765 184.46 212.04 183.061 212.04V216.04ZM187.88 214.732C189.177 213.765 189.909 212.391 189.909 210.752H185.909C185.909 211.065 185.824 211.275 185.49 211.524L187.88 214.732ZM189.909 210.752C189.909 209.597 189.564 208.46 188.7 207.564L185.821 210.34C185.821 210.34 185.909 210.403 185.909 210.752H189.909ZM188.7 207.564C188.042 206.881 187.246 206.381 186.355 206.047L184.95 209.793C185.339 209.939 185.615 210.127 185.821 210.34L188.7 207.564ZM186.355 206.047C185.601 205.765 184.645 205.494 183.519 205.229L182.603 209.123C183.653 209.37 184.424 209.595 184.95 209.793L186.355 206.047ZM183.54 205.234C182.348 204.94 181.444 204.667 180.8 204.42L179.369 208.156C180.229 208.485 181.309 208.804 182.581 209.118L183.54 205.234ZM180.813 204.426C180.371 204.253 180.001 203.995 179.681 203.637L176.696 206.299C177.433 207.125 178.326 207.747 179.356 208.15L180.813 204.426ZM179.718 203.68C179.584 203.52 179.421 203.21 179.421 202.544H175.421C175.421 203.894 175.769 205.2 176.659 206.256L179.718 203.68ZM179.421 202.544C179.421 202.103 179.531 201.736 179.751 201.394L176.386 199.23C175.742 200.232 175.421 201.353 175.421 202.544H179.421ZM179.762 201.376C179.949 201.078 180.272 200.77 180.864 200.501L179.209 196.859C178.041 197.39 177.052 198.17 176.375 199.248L179.762 201.376ZM180.852 200.506C181.418 200.254 182.232 200.08 183.373 200.08V196.08C181.857 196.08 180.448 196.306 179.221 196.854L180.852 200.506ZM183.373 200.08C184.102 200.08 184.818 200.186 185.528 200.402L186.69 196.574C185.607 196.246 184.499 196.08 183.373 196.08V200.08ZM185.528 200.402C186.252 200.622 186.827 200.903 187.282 201.225L189.592 197.959C188.734 197.353 187.758 196.898 186.69 196.574L185.528 200.402ZM186.622 198.751L186.166 199.735L189.795 201.417L190.251 200.433L186.622 198.751ZM189.117 198.93C188.263 198.34 187.324 197.899 186.313 197.601L185.184 201.439C185.805 201.621 186.354 201.884 186.844 202.222L189.117 198.93ZM186.323 197.604C185.349 197.312 184.364 197.16 183.373 197.16V201.16C183.95 201.16 184.548 201.248 185.174 201.436L186.323 197.604ZM183.373 197.16C181.599 197.16 179.909 197.509 178.615 198.519L181.075 201.673C181.38 201.435 182.043 201.16 183.373 201.16V197.16ZM178.615 198.519C177.342 199.512 176.645 200.896 176.645 202.52H180.645C180.645 202.16 180.748 201.928 181.075 201.673L178.615 198.519ZM176.645 202.52C176.645 203.675 176.989 204.812 177.853 205.708L180.732 202.932C180.732 202.932 180.645 202.869 180.645 202.52H176.645ZM177.853 205.708C178.511 206.391 179.307 206.891 180.198 207.225L181.603 203.479C181.214 203.333 180.938 203.145 180.732 202.932L177.853 205.708ZM180.198 207.225C180.944 207.504 181.901 207.782 183.038 208.062L183.995 204.178C182.924 203.914 182.138 203.68 181.603 203.479L180.198 207.225ZM183.037 208.062C184.229 208.356 185.119 208.627 185.74 208.87L187.197 205.146C186.346 204.813 185.268 204.492 183.996 204.178L183.037 208.062ZM185.74 208.87C186.176 209.041 186.53 209.292 186.828 209.636L189.853 207.02C189.127 206.18 188.233 205.551 187.197 205.146L185.74 208.87ZM186.866 209.679C186.972 209.795 187.133 210.049 187.133 210.68H191.133C191.133 209.327 190.765 208.013 189.815 206.977L186.866 209.679ZM187.133 210.68C187.133 211.106 187.023 211.463 186.797 211.803L190.125 214.021C190.794 213.017 191.133 211.886 191.133 210.68H187.133ZM186.778 211.83C186.606 212.098 186.282 212.407 185.641 212.688L187.248 216.352C188.431 215.833 189.451 215.07 190.143 213.994L186.778 211.83ZM185.641 212.688C185.052 212.947 184.224 213.12 183.085 213.12V217.12C184.602 217.12 186.013 216.893 187.248 216.352L185.641 212.688ZM207.286 213.896H209.286C209.286 212.791 208.39 211.896 207.286 211.896V213.896ZM207.286 215V217C208.39 217 209.286 216.105 209.286 215H207.286ZM195.694 215H193.694C193.694 216.105 194.589 217 195.694 217V215ZM195.694 198.2V196.2C194.589 196.2 193.694 197.095 193.694 198.2H195.694ZM206.926 198.2H208.926C208.926 197.095 208.03 196.2 206.926 196.2V198.2ZM206.926 199.304V201.304C208.03 201.304 208.926 200.409 208.926 199.304H206.926ZM196.918 199.304V197.304C195.813 197.304 194.918 198.199 194.918 199.304H196.918ZM196.918 205.928H194.918C194.918 207.033 195.813 207.928 196.918 207.928V205.928ZM205.87 205.928H207.87C207.87 204.823 206.974 203.928 205.87 203.928V205.928ZM205.87 207.008V209.008C206.974 209.008 207.87 208.113 207.87 207.008H205.87ZM196.918 207.008V205.008C195.813 205.008 194.918 205.903 194.918 207.008H196.918ZM196.918 213.896H194.918C194.918 215.001 195.813 215.896 196.918 215.896V213.896ZM205.286 213.896V215H209.286V213.896H205.286ZM207.286 213H195.694V217H207.286V213ZM197.694 215V198.2H193.694V215H197.694ZM195.694 200.2H206.926V196.2H195.694V200.2ZM204.926 198.2V199.304H208.926V198.2H204.926ZM206.926 197.304H196.918V201.304H206.926V197.304ZM194.918 199.304V205.928H198.918V199.304H194.918ZM196.918 207.928H205.87V203.928H196.918V207.928ZM203.87 205.928V207.008H207.87V205.928H203.87ZM205.87 205.008H196.918V209.008H205.87V205.008ZM194.918 207.008V213.896H198.918V207.008H194.918ZM196.918 215.896H207.286V211.896H196.918V215.896ZM73.7411 239.272L75.5602 238.441C75.2349 237.729 74.524 237.272 73.7411 237.272V239.272ZM63.9971 239.272V237.272C63.2111 237.272 62.4981 237.732 62.1745 238.449L63.9971 239.272ZM61.8611 244V246C62.647 246 63.3601 245.54 63.6837 244.823L61.8611 244ZM60.5411 244L58.7241 243.164C58.4393 243.783 58.4894 244.505 58.8571 245.079C59.2248 245.653 59.8595 246 60.5411 246V244ZM68.2691 227.2V225.2C67.4881 225.2 66.7785 225.655 66.4521 226.364L68.2691 227.2ZM69.4931 227.2L71.3101 226.364C70.9837 225.655 70.2741 225.2 69.4931 225.2V227.2ZM77.2211 244V246C77.9027 246 78.5374 245.653 78.9051 245.079C79.2728 244.505 79.3229 243.783 79.0381 243.164L77.2211 244ZM75.9011 244L74.0819 244.831C74.4073 245.543 75.1182 246 75.9011 246V244ZM73.2851 238.24V240.24C73.9654 240.24 74.599 239.894 74.967 239.322C75.3351 238.75 75.3872 238.03 75.1052 237.411L73.2851 238.24ZM68.8691 228.544L70.6892 227.715C70.3641 227.001 69.6515 226.543 68.867 226.544C68.0826 226.545 67.371 227.004 67.0473 227.719L68.8691 228.544ZM64.4771 238.24L62.6553 237.415C62.3749 238.034 62.428 238.753 62.7963 239.324C63.1645 239.895 63.7976 240.24 64.4771 240.24V238.24ZM73.7411 237.272H63.9971V241.272H73.7411V237.272ZM62.1745 238.449L60.0385 243.177L63.6837 244.823L65.8197 240.095L62.1745 238.449ZM61.8611 242H60.5411V246H61.8611V242ZM62.3581 244.836L70.0861 228.036L66.4521 226.364L58.7241 243.164L62.3581 244.836ZM68.2691 229.2H69.4931V225.2H68.2691V229.2ZM67.6761 228.036L75.4041 244.836L79.0381 243.164L71.3101 226.364L67.6761 228.036ZM77.2211 242H75.9011V246H77.2211V242ZM77.7202 243.169L75.5602 238.441L71.9219 240.103L74.0819 244.831L77.7202 243.169ZM75.1052 237.411L70.6892 227.715L67.049 229.373L71.465 239.069L75.1052 237.411ZM67.0473 227.719L62.6553 237.415L66.2989 239.065L70.6909 229.369L67.0473 227.719ZM64.4771 240.24H73.2851V236.24H64.4771V240.24ZM97.551 227.2H99.551C99.551 226.095 98.6555 225.2 97.551 225.2V227.2ZM97.551 244V246C98.6555 246 99.551 245.105 99.551 244H97.551ZM96.543 244L94.9694 245.235C95.3486 245.718 95.9287 246 96.543 246V244ZM85.095 229.408L86.6685 228.174C86.1421 227.502 85.248 227.239 84.4419 227.518C83.6358 227.796 83.095 228.555 83.095 229.408H85.095ZM85.095 244V246C86.1995 246 87.095 245.105 87.095 244H85.095ZM83.871 244H81.871C81.871 245.105 82.7664 246 83.871 246V244ZM83.871 227.2V225.2C82.7664 225.2 81.871 226.095 81.871 227.2H83.871ZM84.903 227.2L86.4778 225.967C86.0987 225.483 85.5179 225.2 84.903 225.2V227.2ZM96.327 241.792L94.7522 243.025C95.2782 243.697 96.1724 243.961 96.9791 243.683C97.7857 243.405 98.327 242.645 98.327 241.792H96.327ZM96.327 227.2V225.2C95.2224 225.2 94.327 226.095 94.327 227.2H96.327ZM95.551 227.2V244H99.551V227.2H95.551ZM97.551 242H96.543V246H97.551V242ZM98.1165 242.765L86.6685 228.174L83.5214 230.642L94.9694 245.235L98.1165 242.765ZM83.095 229.408V244H87.095V229.408H83.095ZM85.095 242H83.871V246H85.095V242ZM85.871 244V227.2H81.871V244H85.871ZM83.871 229.2H84.903V225.2H83.871V229.2ZM83.3282 228.433L94.7522 243.025L97.9018 240.559L86.4778 225.967L83.3282 228.433ZM98.327 241.792V227.2H94.327V241.792H98.327ZM96.327 229.2H97.551V225.2H96.327V229.2ZM109.034 228.304H111.034C111.034 227.199 110.138 226.304 109.034 226.304V228.304ZM102.986 228.304H100.986C100.986 229.409 101.881 230.304 102.986 230.304V228.304ZM102.986 227.2V225.2C101.881 225.2 100.986 226.095 100.986 227.2H102.986ZM116.306 227.2H118.306C118.306 226.095 117.41 225.2 116.306 225.2V227.2ZM116.306 228.304V230.304C117.41 230.304 118.306 229.409 118.306 228.304H116.306ZM110.258 228.304V226.304C109.153 226.304 108.258 227.199 108.258 228.304H110.258ZM110.258 244V246C111.362 246 112.258 245.105 112.258 244H110.258ZM109.034 244H107.034C107.034 245.105 107.929 246 109.034 246V244ZM109.034 226.304H102.986V230.304H109.034V226.304ZM104.986 228.304V227.2H100.986V228.304H104.986ZM102.986 229.2H116.306V225.2H102.986V229.2ZM114.306 227.2V228.304H118.306V227.2H114.306ZM116.306 226.304H110.258V230.304H116.306V226.304ZM108.258 228.304V244H112.258V228.304H108.258ZM110.258 242H109.034V246H110.258V242ZM111.034 244V228.304H107.034V244H111.034ZM133.333 242.896H135.333C135.333 241.791 134.438 240.896 133.333 240.896V242.896ZM133.333 244V246C134.438 246 135.333 245.105 135.333 244H133.333ZM121.741 244H119.741C119.741 245.105 120.637 246 121.741 246V244ZM121.741 227.2V225.2C120.637 225.2 119.741 226.095 119.741 227.2H121.741ZM132.973 227.2H134.973C134.973 226.095 134.078 225.2 132.973 225.2V227.2ZM132.973 228.304V230.304C134.078 230.304 134.973 229.409 134.973 228.304H132.973ZM122.965 228.304V226.304C121.861 226.304 120.965 227.199 120.965 228.304H122.965ZM122.965 234.928H120.965C120.965 236.033 121.861 236.928 122.965 236.928V234.928ZM131.917 234.928H133.917C133.917 233.823 133.022 232.928 131.917 232.928V234.928ZM131.917 236.008V238.008C133.022 238.008 133.917 237.113 133.917 236.008H131.917ZM122.965 236.008V234.008C121.861 234.008 120.965 234.903 120.965 236.008H122.965ZM122.965 242.896H120.965C120.965 244.001 121.861 244.896 122.965 244.896V242.896ZM131.333 242.896V244H135.333V242.896H131.333ZM133.333 242H121.741V246H133.333V242ZM123.741 244V227.2H119.741V244H123.741ZM121.741 229.2H132.973V225.2H121.741V229.2ZM130.973 227.2V228.304H134.973V227.2H130.973ZM132.973 226.304H122.965V230.304H132.973V226.304ZM120.965 228.304V234.928H124.965V228.304H120.965ZM122.965 236.928H131.917V232.928H122.965V236.928ZM129.917 234.928V236.008H133.917V234.928H129.917ZM131.917 234.008H122.965V238.008H131.917V234.008ZM120.965 236.008V242.896H124.965V236.008H120.965ZM122.965 244.896H133.333V240.896H122.965V244.896ZM151.86 244L150.232 245.162C150.607 245.688 151.214 246 151.86 246V244ZM147.852 238.384L149.48 237.222C149.049 236.618 148.319 236.303 147.584 236.402L147.852 238.384ZM141.42 238.504V236.504C140.315 236.504 139.42 237.399 139.42 238.504H141.42ZM141.42 244V246C142.525 246 143.42 245.105 143.42 244H141.42ZM140.196 244H138.196C138.196 245.105 139.091 246 140.196 246V244ZM140.196 227.2V225.2C139.091 225.2 138.196 226.095 138.196 227.2H140.196ZM151.188 228.712L149.902 230.243C149.906 230.247 149.91 230.25 149.914 230.253L151.188 228.712ZM151.956 236.224L150.359 235.02L150.356 235.024L151.956 236.224ZM149.052 238.12L148.493 236.2C147.871 236.381 147.375 236.853 147.162 237.465C146.95 238.078 147.048 238.755 147.425 239.282L149.052 238.12ZM153.252 244V246C154.001 246 154.688 245.581 155.03 244.915C155.373 244.249 155.315 243.447 154.879 242.838L153.252 244ZM150.324 236.248L151.602 237.787C151.607 237.782 151.612 237.778 151.617 237.774L150.324 236.248ZM150.324 229.504L149.031 231.03C149.036 231.034 149.041 231.038 149.046 231.043L150.324 229.504ZM141.42 228.304V226.304C140.315 226.304 139.42 227.199 139.42 228.304H141.42ZM141.42 237.424H139.42C139.42 238.529 140.315 239.424 141.42 239.424V237.424ZM153.488 242.838L149.48 237.222L146.224 239.546L150.232 245.162L153.488 242.838ZM147.584 236.402C147.064 236.472 146.61 236.504 146.22 236.504V240.504C146.821 240.504 147.456 240.456 148.12 240.366L147.584 236.402ZM146.22 236.504H141.42V240.504H146.22V236.504ZM139.42 238.504V244H143.42V238.504H139.42ZM141.42 242H140.196V246H141.42V242ZM142.196 244V227.2H138.196V244H142.196ZM140.196 229.2H146.22V225.2H140.196V229.2ZM146.22 229.2C148.026 229.2 149.17 229.629 149.902 230.243L152.474 227.181C150.806 225.779 148.638 225.2 146.22 225.2V229.2ZM149.914 230.253C150.586 230.809 150.988 231.59 150.988 232.864H154.988C154.988 230.586 154.19 228.599 152.462 227.171L149.914 230.253ZM150.988 232.864C150.988 233.831 150.745 234.509 150.359 235.02L153.553 237.428C154.543 236.115 154.988 234.553 154.988 232.864H150.988ZM150.356 235.024C149.987 235.515 149.417 235.931 148.493 236.2L149.611 240.04C151.215 239.573 152.581 238.724 153.556 237.424L150.356 235.024ZM147.425 239.282L151.625 245.162L154.879 242.838L150.679 236.958L147.425 239.282ZM153.252 242H151.86V246H153.252V242ZM146.22 239.424C148.27 239.424 150.165 238.979 151.602 237.787L149.046 234.709C148.595 235.085 147.754 235.424 146.22 235.424V239.424ZM151.617 237.774C153.09 236.525 153.74 234.793 153.74 232.864H149.74C149.74 233.847 149.446 234.371 149.031 234.722L151.617 237.774ZM153.74 232.864C153.74 230.936 153.09 229.201 151.602 227.965L149.046 231.043C149.446 231.375 149.74 231.88 149.74 232.864H153.74ZM151.617 227.978C150.18 226.76 148.278 226.304 146.22 226.304V230.304C147.746 230.304 148.58 230.648 149.031 231.03L151.617 227.978ZM146.22 226.304H141.42V230.304H146.22V226.304ZM139.42 228.304V237.424H143.42V228.304H139.42ZM141.42 239.424H146.22V235.424H141.42V239.424ZM159.869 227.2V225.2C158.765 225.2 157.869 226.095 157.869 227.2H159.869ZM161.093 227.2H163.093C163.093 226.095 162.198 225.2 161.093 225.2V227.2ZM161.093 244V246C162.198 246 163.093 245.105 163.093 244H161.093ZM159.869 244H157.869C157.869 245.105 158.765 246 159.869 246V244ZM159.869 229.2H161.093V225.2H159.869V229.2ZM159.093 227.2V244H163.093V227.2H159.093ZM161.093 242H159.869V246H161.093V242ZM161.869 244V227.2H157.869V244H161.869ZM180.94 242.896H182.94C182.94 241.791 182.044 240.896 180.94 240.896V242.896ZM180.94 244V246C182.044 246 182.94 245.105 182.94 244H180.94ZM169.348 244H167.348C167.348 245.105 168.243 246 169.348 246V244ZM169.348 227.2V225.2C168.243 225.2 167.348 226.095 167.348 227.2H169.348ZM180.58 227.2H182.58C182.58 226.095 181.684 225.2 180.58 225.2V227.2ZM180.58 228.304V230.304C181.684 230.304 182.58 229.409 182.58 228.304H180.58ZM170.572 228.304V226.304C169.467 226.304 168.572 227.199 168.572 228.304H170.572ZM170.572 234.928H168.572C168.572 236.033 169.467 236.928 170.572 236.928V234.928ZM179.524 234.928H181.524C181.524 233.823 180.628 232.928 179.524 232.928V234.928ZM179.524 236.008V238.008C180.628 238.008 181.524 237.113 181.524 236.008H179.524ZM170.572 236.008V234.008C169.467 234.008 168.572 234.903 168.572 236.008H170.572ZM170.572 242.896H168.572C168.572 244.001 169.467 244.896 170.572 244.896V242.896ZM178.94 242.896V244H182.94V242.896H178.94ZM180.94 242H169.348V246H180.94V242ZM171.348 244V227.2H167.348V244H171.348ZM169.348 229.2H180.58V225.2H169.348V229.2ZM178.58 227.2V228.304H182.58V227.2H178.58ZM180.58 226.304H170.572V230.304H180.58V226.304ZM168.572 228.304V234.928H172.572V228.304H168.572ZM170.572 236.928H179.524V232.928H170.572V236.928ZM177.524 234.928V236.008H181.524V234.928H177.524ZM179.524 234.008H170.572V238.008H179.524V234.008ZM168.572 236.008V242.896H172.572V236.008H168.572ZM170.572 244.896H180.94V240.896H170.572V244.896ZM189.41 242.272L187.959 243.648L187.968 243.658L189.41 242.272ZM187.658 227.2V225.2C186.554 225.2 185.658 226.095 185.658 227.2H187.658ZM188.882 227.2H190.882C190.882 226.095 189.987 225.2 188.882 225.2V227.2ZM190.298 241.456L188.828 242.812L190.298 241.456ZM198.482 241.456L197.012 240.1L198.482 241.456ZM199.898 227.2V225.2C198.794 225.2 197.898 226.095 197.898 227.2H199.898ZM201.122 227.2H203.122C203.122 226.095 202.227 225.2 201.122 225.2V227.2ZM199.346 242.272L197.904 240.886L199.346 242.272ZM194.378 242.12C192.652 242.12 191.571 241.634 190.852 240.886L187.968 243.658C189.618 245.374 191.848 246.12 194.378 246.12V242.12ZM190.862 240.896C190.165 240.161 189.658 238.932 189.658 236.872H185.658C185.658 239.548 186.32 241.919 187.959 243.648L190.862 240.896ZM189.658 236.872V227.2H185.658V236.872H189.658ZM187.658 229.2H188.882V225.2H187.658V229.2ZM186.882 227.2V236.824H190.882V227.2H186.882ZM186.882 236.824C186.882 239.153 187.411 241.274 188.828 242.812L191.769 240.1C191.298 239.59 190.882 238.623 190.882 236.824H186.882ZM188.828 242.812C190.252 244.356 192.221 244.992 194.402 244.992V240.992C192.999 240.992 192.233 240.604 191.769 240.1L188.828 242.812ZM194.402 244.992C196.573 244.992 198.532 244.353 199.953 242.812L197.012 240.1C196.545 240.607 195.783 240.992 194.402 240.992V244.992ZM199.953 242.812C201.37 241.274 201.898 239.153 201.898 236.824H197.898C197.898 238.623 197.483 239.59 197.012 240.1L199.953 242.812ZM201.898 236.824V227.2H197.898V236.824H201.898ZM199.898 229.2H201.122V225.2H199.898V229.2ZM199.122 227.2V236.872H203.122V227.2H199.122ZM199.122 236.872C199.122 238.925 198.611 240.15 197.904 240.886L200.788 243.658C202.449 241.93 203.122 239.555 203.122 236.872H199.122ZM197.904 240.886C197.186 241.634 196.104 242.12 194.378 242.12V246.12C196.908 246.12 199.139 245.374 200.788 243.658L197.904 240.886ZM220.897 244L219.27 245.162C219.645 245.688 220.251 246 220.897 246V244ZM216.889 238.384L218.517 237.222C218.086 236.618 217.357 236.303 216.622 236.402L216.889 238.384ZM210.457 238.504V236.504C209.353 236.504 208.457 237.399 208.457 238.504H210.457ZM210.457 244V246C211.562 246 212.457 245.105 212.457 244H210.457ZM209.233 244H207.233C207.233 245.105 208.129 246 209.233 246V244ZM209.233 227.2V225.2C208.129 225.2 207.233 226.095 207.233 227.2H209.233ZM220.225 228.712L218.939 230.243C218.943 230.247 218.947 230.25 218.951 230.253L220.225 228.712ZM220.993 236.224L219.397 235.02L219.393 235.024L220.993 236.224ZM218.089 238.12L217.53 236.2C216.908 236.381 216.412 236.853 216.2 237.465C215.987 238.078 216.085 238.755 216.462 239.282L218.089 238.12ZM222.289 244V246C223.039 246 223.725 245.581 224.068 244.915C224.411 244.249 224.352 243.447 223.917 242.838L222.289 244ZM219.361 236.248L220.639 237.787C220.644 237.782 220.649 237.778 220.655 237.774L219.361 236.248ZM219.361 229.504L218.068 231.03C218.073 231.034 218.079 231.038 218.084 231.043L219.361 229.504ZM210.457 228.304V226.304C209.353 226.304 208.457 227.199 208.457 228.304H210.457ZM210.457 237.424H208.457C208.457 238.529 209.353 239.424 210.457 239.424V237.424ZM222.525 242.838L218.517 237.222L215.262 239.546L219.27 245.162L222.525 242.838ZM216.622 236.402C216.101 236.472 215.648 236.504 215.257 236.504V240.504C215.859 240.504 216.494 240.456 217.157 240.366L216.622 236.402ZM215.257 236.504H210.457V240.504H215.257V236.504ZM208.457 238.504V244H212.457V238.504H208.457ZM210.457 242H209.233V246H210.457V242ZM211.233 244V227.2H207.233V244H211.233ZM209.233 229.2H215.257V225.2H209.233V229.2ZM215.257 229.2C217.063 229.2 218.208 229.629 218.939 230.243L221.512 227.181C219.843 225.779 217.676 225.2 215.257 225.2V229.2ZM218.951 230.253C219.624 230.809 220.025 231.59 220.025 232.864H224.025C224.025 230.586 223.227 228.599 221.5 227.171L218.951 230.253ZM220.025 232.864C220.025 233.831 219.782 234.509 219.397 235.02L222.59 237.428C223.581 236.115 224.025 234.553 224.025 232.864H220.025ZM219.393 235.024C219.025 235.515 218.454 235.931 217.53 236.2L218.649 240.04C220.253 239.573 221.618 238.724 222.593 237.424L219.393 235.024ZM216.462 239.282L220.662 245.162L223.917 242.838L219.717 236.958L216.462 239.282ZM222.289 242H220.897V246H222.289V242ZM215.257 239.424C217.307 239.424 219.203 238.979 220.639 237.787L218.084 234.709C217.632 235.085 216.792 235.424 215.257 235.424V239.424ZM220.655 237.774C222.128 236.525 222.777 234.793 222.777 232.864H218.777C218.777 233.847 218.483 234.371 218.068 234.722L220.655 237.774ZM222.777 232.864C222.777 230.936 222.128 229.201 220.639 227.965L218.084 231.043C218.483 231.375 218.777 231.88 218.777 232.864H222.777ZM220.655 227.978C219.217 226.76 217.315 226.304 215.257 226.304V230.304C216.784 230.304 217.618 230.648 218.068 231.03L220.655 227.978ZM215.257 226.304H210.457V230.304H215.257V226.304ZM208.457 228.304V237.424H212.457V228.304H208.457ZM210.457 239.424H215.257V235.424H210.457V239.424Z" fill="white"/>
<path d="M125 222.161L129.346 221" stroke="white" stroke-width="3" stroke-linecap="round"/>
<path d="M199 193.161L203.346 192" stroke="white" stroke-width="3" stroke-linecap="round"/>
<mask id="mask0_139_182" style="mask-type:alpha" maskUnits="userSpaceOnUse" x="47" y="126" width="191" height="57">
<path d="M110.096 132.104L108.164 134.399L110.096 132.104ZM110.096 144.776L112.011 147.086C112.017 147.081 112.022 147.076 112.028 147.071L110.096 144.776ZM95.768 147.044V144.044C94.1111 144.044 92.768 145.387 92.768 147.044H95.768ZM95.768 155V158C97.4249 158 98.768 156.657 98.768 155H95.768ZM93.104 155H90.104C90.104 156.657 91.4471 158 93.104 158V155ZM93.104 129.8V126.8C91.4471 126.8 90.104 128.143 90.104 129.8H93.104ZM108.188 143.084L110.088 145.406C110.096 145.399 110.104 145.392 110.113 145.385L108.188 143.084ZM108.188 133.76L106.263 136.061C106.272 136.068 106.28 136.075 106.288 136.082L108.188 133.76ZM95.768 132.104V129.104C94.1111 129.104 92.768 130.447 92.768 132.104H95.768ZM95.768 144.704H92.768C92.768 146.361 94.1111 147.704 95.768 147.704V144.704ZM102.536 132.8C105.292 132.8 107.044 133.456 108.164 134.399L112.028 129.809C109.5 127.68 106.212 126.8 102.536 126.8V132.8ZM108.164 134.399C109.22 135.288 109.832 136.511 109.832 138.44H115.832C115.832 134.993 114.62 131.992 112.028 129.809L108.164 134.399ZM109.832 138.44C109.832 140.369 109.22 141.592 108.164 142.481L112.028 147.071C114.62 144.888 115.832 141.887 115.832 138.44H109.832ZM108.181 142.466C107.061 143.395 105.303 144.044 102.536 144.044V150.044C106.201 150.044 109.483 149.181 112.011 147.086L108.181 142.466ZM102.536 144.044H95.768V150.044H102.536V144.044ZM92.768 147.044V155H98.768V147.044H92.768ZM95.768 152H93.104V158H95.768V152ZM96.104 155V129.8H90.104V155H96.104ZM93.104 132.8H102.536V126.8H93.104V132.8ZM102.464 147.704C105.341 147.704 108.032 147.088 110.088 145.406L106.288 140.762C105.704 141.24 104.579 141.704 102.464 141.704V147.704ZM110.113 145.385C112.225 143.618 113.168 141.164 113.168 138.44H107.168C107.168 139.7 106.791 140.342 106.263 140.783L110.113 145.385ZM113.168 138.44C113.168 135.696 112.243 133.201 110.088 131.438L106.288 136.082C106.773 136.479 107.168 137.104 107.168 138.44H113.168ZM110.113 131.459C108.055 129.738 105.354 129.104 102.464 129.104V135.104C104.566 135.104 105.681 135.574 106.263 136.061L110.113 131.459ZM102.464 129.104H95.768V135.104H102.464V129.104ZM92.768 132.104V144.704H98.768V132.104H92.768ZM95.768 147.704H102.464V141.704H95.768V147.704ZM138.348 148.268L141.084 147.039C140.6 145.961 139.529 145.268 138.348 145.268V148.268ZM124.308 148.268V145.268C123.127 145.268 122.055 145.961 121.571 147.039L124.308 148.268ZM121.284 155V158C122.465 158 123.536 157.307 124.02 156.229L121.284 155ZM118.512 155L115.783 153.753C115.359 154.681 115.436 155.762 115.988 156.621C116.54 157.481 117.491 158 118.512 158V155ZM130.032 129.8V126.8C128.858 126.8 127.792 127.485 127.303 128.553L130.032 129.8ZM132.66 129.8L135.388 128.553C134.9 127.485 133.834 126.8 132.66 126.8V129.8ZM144.18 155V158C145.201 158 146.152 157.481 146.704 156.621C147.256 155.762 147.333 154.681 146.908 153.753L144.18 155ZM141.372 155L138.635 156.229C139.119 157.307 140.191 158 141.372 158V155ZM137.376 146.108V149.108C138.392 149.108 139.34 148.593 139.893 147.74C140.446 146.887 140.53 145.812 140.115 144.884L137.376 146.108ZM131.328 132.572L134.067 131.348C133.584 130.268 132.511 129.572 131.328 129.572C130.144 129.572 129.072 130.268 128.589 131.348L131.328 132.572ZM125.28 146.108L122.541 144.884C122.126 145.812 122.21 146.887 122.763 147.74C123.316 148.593 124.263 149.108 125.28 149.108V146.108ZM138.348 145.268H124.308V151.268H138.348V145.268ZM121.571 147.039L118.547 153.771L124.02 156.229L127.044 149.497L121.571 147.039ZM121.284 152H118.512V158H121.284V152ZM121.24 156.247L132.76 131.047L127.303 128.553L115.783 153.753L121.24 156.247ZM130.032 132.8H132.66V126.8H130.032V132.8ZM129.931 131.047L141.451 156.247L146.908 153.753L135.388 128.553L129.931 131.047ZM144.18 152H141.372V158H144.18V152ZM144.108 153.771L141.084 147.039L135.611 149.497L138.635 156.229L144.108 153.771ZM140.115 144.884L134.067 131.348L128.589 133.796L134.637 147.332L140.115 144.884ZM128.589 131.348L122.541 144.884L128.019 147.332L134.067 133.796L128.589 131.348ZM125.28 149.108H137.376V143.108H125.28V149.108ZM155.297 154.316L154.3 157.146L154.312 157.15L155.297 154.316ZM151.337 151.94L148.663 150.58C148.086 151.713 148.287 153.086 149.163 154.008L151.337 151.94ZM152.381 149.888L154.502 147.767C153.823 147.087 152.859 146.775 151.91 146.925C150.962 147.076 150.142 147.671 149.707 148.528L152.381 149.888ZM156.017 152.12L154.949 154.923C154.962 154.928 154.975 154.933 154.988 154.938L156.017 152.12ZM165.773 151.724L167.531 154.155C167.542 154.147 167.553 154.138 167.564 154.13L165.773 151.724ZM166.529 146.072L164.407 148.193C164.421 148.207 164.435 148.221 164.449 148.234L166.529 146.072ZM164.297 144.704L163.235 147.51C163.257 147.518 163.28 147.526 163.302 147.534L164.297 144.704ZM160.589 143.624L159.852 146.532C159.862 146.535 159.872 146.537 159.882 146.54L160.589 143.624ZM156.053 142.256L154.928 145.037C154.945 145.044 154.962 145.051 154.98 145.058L156.053 142.256ZM153.137 140.204L150.871 142.171C150.881 142.182 150.891 142.193 150.901 142.204L153.137 140.204ZM152.957 133.04L155.471 134.677C155.476 134.668 155.482 134.659 155.488 134.651L152.957 133.04ZM156.053 130.52L157.28 133.258L156.053 130.52ZM165.449 130.196L164.591 133.071C164.611 133.077 164.631 133.082 164.651 133.088L165.449 130.196ZM169.049 131.816L171.811 132.986C172.366 131.676 171.924 130.156 170.753 129.347L169.049 131.816ZM168.149 133.94L166.498 136.445C167.241 136.935 168.164 137.069 169.017 136.812C169.869 136.554 170.563 135.931 170.911 135.11L168.149 133.94ZM164.765 132.392L163.902 135.265C163.92 135.271 163.938 135.276 163.956 135.281L164.765 132.392ZM156.233 133.148L158.049 135.535L158.057 135.53L156.233 133.148ZM155.477 138.872L153.314 140.951C153.341 140.98 153.369 141.007 153.397 141.034L155.477 138.872ZM157.781 140.276L156.743 143.091C156.773 143.102 156.802 143.112 156.832 143.122L157.781 140.276ZM161.525 141.32L162.243 138.407H162.242L161.525 141.32ZM165.989 142.688L164.864 145.469C164.888 145.479 164.911 145.488 164.935 145.497L165.989 142.688ZM168.905 144.704L166.639 146.671C166.648 146.681 166.657 146.691 166.666 146.701L168.905 144.704ZM169.049 151.832L166.544 150.181C166.541 150.186 166.538 150.19 166.535 150.195L169.049 151.832ZM165.917 154.316L167.087 157.078C167.1 157.073 167.113 157.067 167.126 157.061L165.917 154.316ZM160.697 152.216C159.152 152.216 157.685 151.97 156.281 151.482L154.312 157.15C156.364 157.862 158.498 158.216 160.697 158.216V152.216ZM156.293 151.486C154.895 150.994 154.03 150.419 153.51 149.872L149.163 154.008C150.515 155.429 152.291 156.438 154.3 157.146L156.293 151.486ZM154.01 153.3L155.054 151.248L149.707 148.528L148.663 150.58L154.01 153.3ZM150.259 152.009C151.536 153.286 153.139 154.234 154.949 154.923L157.085 149.317C155.87 148.854 155.049 148.314 154.502 147.767L150.259 152.009ZM154.988 154.938C156.829 155.61 158.737 155.948 160.697 155.948V149.948C159.44 149.948 158.228 149.734 157.045 149.302L154.988 154.938ZM160.697 155.948C163.225 155.948 165.662 155.507 167.531 154.155L164.014 149.293C163.627 149.573 162.68 149.948 160.697 149.948V155.948ZM167.564 154.13C169.395 152.767 170.465 150.822 170.465 148.484H164.465C164.465 148.786 164.407 149.001 163.981 149.318L167.564 154.13ZM170.465 148.484C170.465 146.806 169.918 145.169 168.608 143.909L164.449 148.234C164.453 148.238 164.448 148.234 164.442 148.224C164.435 148.214 164.433 148.208 164.434 148.21C164.435 148.213 164.465 148.29 164.465 148.484H170.465ZM168.65 143.951C167.699 143 166.556 142.318 165.291 141.874L163.302 147.534C163.813 147.714 164.158 147.944 164.407 148.193L168.65 143.951ZM165.358 141.898C164.301 141.498 162.928 141.104 161.295 140.708L159.882 146.54C161.417 146.912 162.516 147.238 163.235 147.51L165.358 141.898ZM161.325 140.716C159.482 140.249 158.097 139.827 157.125 139.454L154.98 145.058C156.264 145.549 157.903 146.039 159.852 146.532L161.325 140.716ZM157.177 139.475C156.477 139.192 155.884 138.776 155.372 138.204L150.901 142.204C152.021 143.456 153.372 144.408 154.928 145.037L157.177 139.475ZM155.402 138.237C155.208 138.014 154.949 137.549 154.949 136.496H148.949C148.949 138.563 149.481 140.57 150.871 142.171L155.402 138.237ZM154.949 136.496C154.949 135.785 155.127 135.205 155.471 134.677L150.443 131.403C149.443 132.939 148.949 134.663 148.949 136.496H154.949ZM155.488 134.651C155.781 134.189 156.305 133.694 157.28 133.258L154.825 127.782C153.016 128.594 151.476 129.779 150.426 131.429L155.488 134.651ZM157.28 133.258C158.175 132.856 159.454 132.584 161.237 132.584V126.584C158.891 126.584 156.714 126.936 154.825 127.782L157.28 133.258ZM161.237 132.584C162.389 132.584 163.504 132.747 164.591 133.071L166.306 127.321C164.657 126.829 162.964 126.584 161.237 126.584V132.584ZM164.651 133.088C165.775 133.398 166.657 133.81 167.344 134.285L170.753 129.347C169.424 128.43 167.906 127.762 166.246 127.304L164.651 133.088ZM166.286 130.646L165.386 132.77L170.911 135.11L171.811 132.986L166.286 130.646ZM169.799 131.435C168.488 130.571 167.077 129.924 165.573 129.503L163.956 135.281C164.852 135.532 165.697 135.917 166.498 136.445L169.799 131.435ZM165.627 129.519C164.171 129.082 162.705 128.852 161.237 128.852V134.852C162.072 134.852 162.958 134.982 163.902 135.265L165.627 129.519ZM161.237 128.852C158.712 128.852 156.279 129.333 154.408 130.766L158.057 135.53C158.442 135.235 159.345 134.852 161.237 134.852V128.852ZM154.416 130.761C152.594 132.146 151.577 134.108 151.577 136.424H157.577C157.577 136.052 157.663 135.83 158.049 135.535L154.416 130.761ZM151.577 136.424C151.577 138.07 152.089 139.677 153.314 140.951L157.639 136.793C157.628 136.781 157.625 136.777 157.617 136.757C157.607 136.729 157.577 136.63 157.577 136.424H151.577ZM153.397 141.034C154.354 141.955 155.49 142.629 156.743 143.091L158.818 137.461C158.247 137.251 157.847 136.989 157.556 136.71L153.397 141.034ZM156.832 143.122C157.876 143.47 159.211 143.84 160.807 144.233L162.242 138.407C160.718 138.032 159.557 137.706 158.729 137.43L156.832 143.122ZM160.806 144.233C162.583 144.671 163.92 145.088 164.864 145.469L167.113 139.907C165.801 139.376 164.162 138.881 162.243 138.407L160.806 144.233ZM164.935 145.497C165.629 145.757 166.181 146.143 166.639 146.671L171.17 142.737C170.044 141.441 168.653 140.483 167.042 139.879L164.935 145.497ZM166.666 146.701C166.838 146.895 167.093 147.32 167.093 148.34H173.093C173.093 146.288 172.555 144.289 171.143 142.707L166.666 146.701ZM167.093 148.34C167.093 149.029 166.915 149.618 166.544 150.181L171.553 153.483C172.574 151.934 173.093 150.195 173.093 148.34H167.093ZM166.535 150.195C166.253 150.627 165.726 151.122 164.707 151.571L167.126 157.061C168.939 156.262 170.5 155.101 171.563 153.469L166.535 150.195ZM164.746 151.554C163.804 151.953 162.488 152.216 160.697 152.216V158.216C163.033 158.216 165.197 157.879 167.087 157.078L164.746 151.554ZM184.041 132.104H187.041C187.041 130.447 185.698 129.104 184.041 129.104V132.104ZM175.185 132.104H172.185C172.185 133.761 173.529 135.104 175.185 135.104V132.104ZM175.185 129.8V126.8C173.529 126.8 172.185 128.143 172.185 129.8H175.185ZM195.561 129.8H198.561C198.561 128.143 197.218 126.8 195.561 126.8V129.8ZM195.561 132.104V135.104C197.218 135.104 198.561 133.761 198.561 132.104H195.561ZM186.705 132.104V129.104C185.049 129.104 183.705 130.447 183.705 132.104H186.705ZM186.705 155V158C188.362 158 189.705 156.657 189.705 155H186.705ZM184.041 155H181.041C181.041 156.657 182.385 158 184.041 158V155ZM184.041 129.104H175.185V135.104H184.041V129.104ZM178.185 132.104V129.8H172.185V132.104H178.185ZM175.185 132.8H195.561V126.8H175.185V132.8ZM192.561 129.8V132.104H198.561V129.8H192.561ZM195.561 129.104H186.705V135.104H195.561V129.104ZM183.705 132.104V155H189.705V132.104H183.705ZM186.705 152H184.041V158H186.705V152ZM187.041 155V132.104H181.041V155H187.041Z" fill="white"/>
<path d="M58.44 167.22L57.1576 168.755C57.1617 168.758 57.1659 168.762 57.1701 168.765L58.44 167.22ZM58.44 174L59.7099 175.545C59.7141 175.542 59.7183 175.538 59.7224 175.535L58.44 174ZM50.06 175.2V173.2C48.9554 173.2 48.06 174.095 48.06 175.2H50.06ZM50.06 180V182C51.1646 182 52.06 181.105 52.06 180H50.06ZM49.66 180H47.66C47.66 181.105 48.5554 182 49.66 182V180ZM49.66 166V164C48.5554 164 47.66 164.895 47.66 166H49.66ZM58.18 173.72L56.8996 172.184C56.8958 172.187 56.8919 172.19 56.8881 172.193L58.18 173.72ZM58.18 167.48L56.8881 169.007C56.8919 169.01 56.8958 169.013 56.8996 169.016L58.18 167.48ZM50.06 166.38V164.38C48.9554 164.38 48.06 165.275 48.06 166.38H50.06ZM50.06 174.82H48.06C48.06 175.925 48.9554 176.82 50.06 176.82V174.82ZM54.4 168C55.8182 168 56.6541 168.334 57.1576 168.755L59.7224 165.685C58.2792 164.479 56.4218 164 54.4 164V168ZM57.1701 168.765C57.6072 169.124 57.9 169.642 57.9 170.6H61.9C61.9 168.651 61.2195 166.916 59.7099 165.675L57.1701 168.765ZM57.9 170.6C57.9 171.557 57.6069 172.09 57.1576 172.465L59.7224 175.535C61.2198 174.283 61.9 172.549 61.9 170.6H57.9ZM57.1701 172.455C56.6661 172.869 55.8253 173.2 54.4 173.2V177.2C56.4147 177.2 58.2672 176.731 59.7099 175.545L57.1701 172.455ZM54.4 173.2H50.06V177.2H54.4V173.2ZM48.06 175.2V180H52.06V175.2H48.06ZM50.06 178H49.66V182H50.06V178ZM51.66 180V166H47.66V180H51.66ZM49.66 168H54.4V164H49.66V168ZM54.44 176.82C56.3386 176.82 58.1156 176.394 59.4719 175.247L56.8881 172.193C56.511 172.512 55.7947 172.82 54.44 172.82V176.82ZM59.4604 175.256C60.8784 174.075 61.5 172.424 61.5 170.6H57.5C57.5 171.469 57.2416 171.899 56.8996 172.184L59.4604 175.256ZM61.5 170.6C61.5 168.776 60.8784 167.125 59.4604 165.944L56.8996 169.016C57.2416 169.301 57.5 169.731 57.5 170.6H61.5ZM59.4719 165.953C58.1156 164.806 56.3386 164.38 54.44 164.38V168.38C55.7947 168.38 56.511 168.688 56.8881 169.007L59.4719 165.953ZM54.44 164.38H50.06V168.38H54.44V164.38ZM48.06 166.38V174.82H52.06V166.38H48.06ZM50.06 176.82H54.44V172.82H50.06V176.82ZM74.9839 179.62H76.9839C76.9839 178.515 76.0885 177.62 74.9839 177.62V179.62ZM74.9839 180V182C76.0885 182 76.9839 181.105 76.9839 180H74.9839ZM65.6639 180H63.6639C63.6639 181.105 64.5593 182 65.6639 182V180ZM65.6639 166V164C64.5593 164 63.6639 164.895 63.6639 166H65.6639ZM74.6839 166H76.6839C76.6839 164.895 75.7885 164 74.6839 164V166ZM74.6839 166.38V168.38C75.7885 168.38 76.6839 167.485 76.6839 166.38H74.6839ZM66.0639 166.38V164.38C64.9593 164.38 64.0639 165.275 64.0639 166.38H66.0639ZM66.0639 172.7H64.0639C64.0639 173.805 64.9593 174.7 66.0639 174.7V172.7ZM73.7839 172.7H75.7839C75.7839 171.595 74.8885 170.7 73.7839 170.7V172.7ZM73.7839 173.08V175.08C74.8885 175.08 75.7839 174.185 75.7839 173.08H73.7839ZM66.0639 173.08V171.08C64.9593 171.08 64.0639 171.975 64.0639 173.08H66.0639ZM66.0639 179.62H64.0639C64.0639 180.725 64.9593 181.62 66.0639 181.62V179.62ZM72.9839 179.62V180H76.9839V179.62H72.9839ZM74.9839 178H65.6639V182H74.9839V178ZM67.6639 180V166H63.6639V180H67.6639ZM65.6639 168H74.6839V164H65.6639V168ZM72.6839 166V166.38H76.6839V166H72.6839ZM74.6839 164.38H66.0639V168.38H74.6839V164.38ZM64.0639 166.38V172.7H68.0639V166.38H64.0639ZM66.0639 174.7H73.7839V170.7H66.0639V174.7ZM71.7839 172.7V173.08H75.7839V172.7H71.7839ZM73.7839 171.08H66.0639V175.08H73.7839V171.08ZM64.0639 173.08V179.62H68.0639V173.08H64.0639ZM66.0639 181.62H74.9839V177.62H66.0639V181.62ZM90.9633 180L89.3407 181.169C89.7166 181.691 90.3203 182 90.9633 182V180ZM87.4033 175.06L89.0259 173.891C88.5675 173.255 87.7798 172.945 87.011 173.099L87.4033 175.06ZM81.4233 175.2V173.2C80.3187 173.2 79.4233 174.095 79.4233 175.2H81.4233ZM81.4233 180V182C82.5279 182 83.4233 181.105 83.4233 180H81.4233ZM81.0233 180H79.0233C79.0233 181.105 79.9187 182 81.0233 182V180ZM81.0233 166V164C79.9187 164 79.0233 164.895 79.0233 166H81.0233ZM89.8033 167.22L88.5208 168.755C88.525 168.758 88.5292 168.762 88.5334 168.765L89.8033 167.22ZM90.3633 173.42L91.9223 174.673C91.9259 174.668 91.9295 174.664 91.933 174.659L90.3633 173.42ZM87.8233 174.96L87.3271 173.023C86.6862 173.187 86.1679 173.657 85.9427 174.279C85.7175 174.901 85.8146 175.595 86.2019 176.131L87.8233 174.96ZM91.4633 180V182C92.2143 182 92.9021 181.579 93.244 180.911C93.5859 180.242 93.5244 179.438 93.0846 178.829L91.4633 180ZM89.5433 173.72L88.2629 172.184C88.2591 172.187 88.2552 172.19 88.2514 172.193L89.5433 173.72ZM89.5433 167.48L88.2514 169.007C88.2552 169.01 88.2591 169.013 88.2629 169.016L89.5433 167.48ZM81.4233 166.38V164.38C80.3187 164.38 79.4233 165.275 79.4233 166.38H81.4233ZM81.4233 174.82H79.4233C79.4233 175.925 80.3187 176.82 81.4233 176.82V174.82ZM92.5859 178.831L89.0259 173.891L85.7807 176.229L89.3407 181.169L92.5859 178.831ZM87.011 173.099C86.7067 173.16 86.297 173.2 85.7633 173.2V177.2C86.4829 177.2 87.1666 177.147 87.7955 177.021L87.011 173.099ZM85.7633 173.2H81.4233V177.2H85.7633V173.2ZM79.4233 175.2V180H83.4233V175.2H79.4233ZM81.4233 178H81.0233V182H81.4233V178ZM83.0233 180V166H79.0233V180H83.0233ZM81.0233 168H85.7633V164H81.0233V168ZM85.7633 168C87.1815 168 88.0174 168.334 88.5208 168.755L91.0857 165.685C89.6425 164.479 87.7851 164 85.7633 164V168ZM88.5334 168.765C88.9705 169.124 89.2633 169.642 89.2633 170.6H93.2633C93.2633 168.651 92.5827 166.916 91.0732 165.675L88.5334 168.765ZM89.2633 170.6C89.2633 171.344 89.0724 171.828 88.7935 172.181L91.933 174.659C92.8542 173.492 93.2633 172.096 93.2633 170.6H89.2633ZM88.8043 172.167C88.5212 172.519 88.0787 172.83 87.3271 173.023L88.3195 176.897C89.7545 176.53 91.0054 175.814 91.9223 174.673L88.8043 172.167ZM86.2019 176.131L89.8419 181.171L93.0846 178.829L89.4446 173.789L86.2019 176.131ZM91.4633 178H90.9633V182H91.4633V178ZM85.8033 176.82C87.7019 176.82 89.4789 176.394 90.8352 175.247L88.2514 172.193C87.8743 172.512 87.158 172.82 85.8033 172.82V176.82ZM90.8237 175.256C92.2417 174.075 92.8633 172.424 92.8633 170.6H88.8633C88.8633 171.469 88.6049 171.899 88.2629 172.184L90.8237 175.256ZM92.8633 170.6C92.8633 168.776 92.2417 167.125 90.8237 165.944L88.2629 169.016C88.6049 169.301 88.8633 169.731 88.8633 170.6H92.8633ZM90.8352 165.953C89.4789 164.806 87.7019 164.38 85.8033 164.38V168.38C87.158 168.38 87.8743 168.688 88.2514 169.007L90.8352 165.953ZM85.8033 164.38H81.4233V168.38H85.8033V164.38ZM79.4233 166.38V174.82H83.4233V166.38H79.4233ZM81.4233 176.82H85.8033V172.82H81.4233V176.82ZM97.7397 166.38V164.38C96.6351 164.38 95.7397 165.275 95.7397 166.38H97.7397ZM97.7397 173.1H95.7397C95.7397 174.205 96.6351 175.1 97.7397 175.1V173.1ZM105.46 173.1H107.46C107.46 171.995 106.564 171.1 105.46 171.1V173.1ZM105.46 173.48V175.48C106.564 175.48 107.46 174.585 107.46 173.48H105.46ZM97.7397 173.48V171.48C96.6351 171.48 95.7397 172.375 95.7397 173.48H97.7397ZM97.7397 180V182C98.8443 182 99.7397 181.105 99.7397 180H97.7397ZM97.3397 180H95.3397C95.3397 181.105 96.2351 182 97.3397 182V180ZM97.3397 166V164C96.2351 164 95.3397 164.895 95.3397 166H97.3397ZM106.36 166H108.36C108.36 164.895 107.464 164 106.36 164V166ZM106.36 166.38V168.38C107.464 168.38 108.36 167.485 108.36 166.38H106.36ZM95.7397 166.38V173.1H99.7397V166.38H95.7397ZM97.7397 175.1H105.46V171.1H97.7397V175.1ZM103.46 173.1V173.48H107.46V173.1H103.46ZM105.46 171.48H97.7397V175.48H105.46V171.48ZM95.7397 173.48V180H99.7397V173.48H95.7397ZM97.7397 178H97.3397V182H97.7397V178ZM99.3397 180V166H95.3397V180H99.3397ZM97.3397 168H106.36V164H97.3397V168ZM104.36 166V166.38H108.36V166H104.36ZM106.36 164.38H97.7397V168.38H106.36V164.38ZM121.238 179.62H123.238C123.238 178.515 122.342 177.62 121.238 177.62V179.62ZM121.238 180V182C122.342 182 123.238 181.105 123.238 180H121.238ZM111.918 180H109.918C109.918 181.105 110.813 182 111.918 182V180ZM111.918 166V164C110.813 164 109.918 164.895 109.918 166H111.918ZM120.938 166H122.938C122.938 164.895 122.042 164 120.938 164V166ZM120.938 166.38V168.38C122.042 168.38 122.938 167.485 122.938 166.38H120.938ZM112.318 166.38V164.38C111.213 164.38 110.318 165.275 110.318 166.38H112.318ZM112.318 172.7H110.318C110.318 173.805 111.213 174.7 112.318 174.7V172.7ZM120.038 172.7H122.038C122.038 171.595 121.142 170.7 120.038 170.7V172.7ZM120.038 173.08V175.08C121.142 175.08 122.038 174.185 122.038 173.08H120.038ZM112.318 173.08V171.08C111.213 171.08 110.318 171.975 110.318 173.08H112.318ZM112.318 179.62H110.318C110.318 180.725 111.213 181.62 112.318 181.62V179.62ZM119.238 179.62V180H123.238V179.62H119.238ZM121.238 178H111.918V182H121.238V178ZM113.918 180V166H109.918V180H113.918ZM111.918 168H120.938V164H111.918V168ZM118.938 166V166.38H122.938V166H118.938ZM120.938 164.38H112.318V168.38H120.938V164.38ZM110.318 166.38V172.7H114.318V166.38H110.318ZM112.318 174.7H120.038V170.7H112.318V174.7ZM118.038 172.7V173.08H122.038V172.7H118.038ZM120.038 171.08H112.318V175.08H120.038V171.08ZM110.318 173.08V179.62H114.318V173.08H110.318ZM112.318 181.62H121.238V177.62H112.318V181.62ZM129.317 179.14L130.296 177.396L129.317 179.14ZM126.737 176.62L125.007 177.624L125.013 177.633L126.737 176.62ZM126.737 169.4L128.462 170.413L128.467 170.404L126.737 169.4ZM129.317 166.86L130.296 168.604L129.317 166.86ZM135.617 166.4L134.912 168.271C134.924 168.276 134.936 168.28 134.948 168.285L135.617 166.4ZM137.737 167.72L139.256 169.022C139.936 168.228 139.89 167.045 139.151 166.306L137.737 167.72ZM137.497 168L136.116 169.447C136.513 169.826 137.049 170.025 137.597 169.997C138.145 169.97 138.658 169.718 139.016 169.302L137.497 168ZM129.517 167.2L128.535 165.458L128.525 165.464L129.517 167.2ZM127.077 169.62L125.35 168.611L125.346 168.618L127.077 169.62ZM127.077 176.4L125.341 177.392C125.346 177.401 125.351 177.41 125.356 177.419L127.077 176.4ZM129.517 178.8L128.525 180.537L128.535 180.542L129.517 178.8ZM137.497 177.98L139.016 176.678C138.658 176.262 138.145 176.01 137.597 175.982C137.048 175.955 136.513 176.154 136.116 176.534L137.497 177.98ZM137.737 178.26L139.151 179.674C139.89 178.935 139.936 177.752 139.256 176.958L137.737 178.26ZM135.617 179.6L134.922 177.725L135.617 179.6ZM132.977 178.06C131.947 178.06 131.068 177.829 130.296 177.396L128.339 180.884C129.753 181.678 131.314 182.06 132.977 182.06V178.06ZM130.296 177.396C129.507 176.953 128.906 176.364 128.462 175.607L125.013 177.633C125.821 179.01 126.941 180.1 128.339 180.884L130.296 177.396ZM128.467 175.616C128.029 174.862 127.797 174.006 127.797 173H123.797C123.797 174.661 124.192 176.218 125.007 177.624L128.467 175.616ZM127.797 173C127.797 171.994 128.029 171.149 128.462 170.413L125.013 168.387C124.192 169.785 123.797 171.339 123.797 173H127.797ZM128.467 170.404C128.913 169.635 129.513 169.043 130.296 168.604L128.339 165.116C126.934 165.903 125.814 167.005 125.007 168.396L128.467 170.404ZM130.296 168.604C131.068 168.171 131.947 167.94 132.977 167.94V163.94C131.314 163.94 129.753 164.322 128.339 165.116L130.296 168.604ZM132.977 167.94C133.704 167.94 134.343 168.057 134.912 168.271L136.323 164.529C135.265 164.13 134.143 163.94 132.977 163.94V167.94ZM134.948 168.285C135.511 168.485 135.959 168.77 136.323 169.134L139.151 166.306C138.342 165.497 137.377 164.902 136.286 164.515L134.948 168.285ZM136.219 166.418L135.979 166.698L139.016 169.302L139.256 169.022L136.219 166.418ZM138.878 166.553C137.282 165.03 135.257 164.32 132.977 164.32V168.32C134.378 168.32 135.366 168.73 136.116 169.447L138.878 166.553ZM132.977 164.32C131.388 164.32 129.893 164.692 128.535 165.458L130.5 168.942C131.222 168.535 132.033 168.32 132.977 168.32V164.32ZM128.525 165.464C127.192 166.225 126.126 167.283 125.35 168.611L128.804 170.629C129.228 169.903 129.789 169.348 130.509 168.936L128.525 165.464ZM125.346 168.618C124.573 169.954 124.197 171.43 124.197 173H128.197C128.197 172.09 128.408 171.313 128.808 170.622L125.346 168.618ZM124.197 173C124.197 174.57 124.573 176.048 125.341 177.392L128.814 175.408C128.408 174.698 128.197 173.91 128.197 173H124.197ZM125.356 177.419C126.134 178.732 127.199 179.779 128.525 180.536L130.509 177.064C129.782 176.648 129.221 176.095 128.798 175.381L125.356 177.419ZM128.535 180.542C129.893 181.308 131.388 181.68 132.977 181.68V177.68C132.033 177.68 131.222 177.465 130.5 177.058L128.535 180.542ZM132.977 181.68C135.255 181.68 137.276 180.956 138.879 179.426L136.116 176.534C135.345 177.27 134.353 177.68 132.977 177.68V181.68ZM135.979 179.282L136.219 179.562L139.256 176.958L139.016 176.678L135.979 179.282ZM136.323 176.846C135.953 177.216 135.496 177.512 134.922 177.725L136.313 181.475C137.392 181.075 138.349 180.477 139.151 179.674L136.323 176.846ZM134.922 177.725C134.33 177.944 133.687 178.06 132.977 178.06V182.06C134.134 182.06 135.251 181.869 136.313 181.475L134.922 177.725ZM148.116 166.38H150.116C150.116 165.275 149.221 164.38 148.116 164.38V166.38ZM142.916 166.38H140.916C140.916 167.485 141.811 168.38 142.916 168.38V166.38ZM142.916 166V164C141.811 164 140.916 164.895 140.916 166H142.916ZM153.716 166H155.716C155.716 164.895 154.821 164 153.716 164V166ZM153.716 166.38V168.38C154.821 168.38 155.716 167.485 155.716 166.38H153.716ZM148.516 166.38V164.38C147.411 164.38 146.516 165.275 146.516 166.38H148.516ZM148.516 180V182C149.621 182 150.516 181.105 150.516 180H148.516ZM148.116 180H146.116C146.116 181.105 147.011 182 148.116 182V180ZM148.116 164.38H142.916V168.38H148.116V164.38ZM144.916 166.38V166H140.916V166.38H144.916ZM142.916 168H153.716V164H142.916V168ZM151.716 166V166.38H155.716V166H151.716ZM153.716 164.38H148.516V168.38H153.716V164.38ZM146.516 166.38V180H150.516V166.38H146.516ZM148.516 178H148.116V182H148.516V178ZM150.116 180V166.38H146.116V180H150.116ZM168.073 166.38H170.073C170.073 165.275 169.178 164.38 168.073 164.38V166.38ZM162.873 166.38H160.873C160.873 167.485 161.768 168.38 162.873 168.38V166.38ZM162.873 166V164C161.768 164 160.873 164.895 160.873 166H162.873ZM173.673 166H175.673C175.673 164.895 174.778 164 173.673 164V166ZM173.673 166.38V168.38C174.778 168.38 175.673 167.485 175.673 166.38H173.673ZM168.473 166.38V164.38C167.368 164.38 166.473 165.275 166.473 166.38H168.473ZM168.473 180V182C169.578 182 170.473 181.105 170.473 180H168.473ZM168.073 180H166.073C166.073 181.105 166.968 182 168.073 182V180ZM168.073 164.38H162.873V168.38H168.073V164.38ZM164.873 166.38V166H160.873V166.38H164.873ZM162.873 168H173.673V164H162.873V168ZM171.673 166V166.38H175.673V166H171.673ZM173.673 164.38H168.473V168.38H173.673V164.38ZM166.473 166.38V180H170.473V166.38H166.473ZM168.473 178H168.073V182H168.473V178ZM170.073 180V166.38H166.073V180H170.073ZM187.73 179.62H189.73C189.73 178.515 188.835 177.62 187.73 177.62V179.62ZM187.73 180V182C188.835 182 189.73 181.105 189.73 180H187.73ZM178.41 180H176.41C176.41 181.105 177.305 182 178.41 182V180ZM178.41 166V164C177.305 164 176.41 164.895 176.41 166H178.41ZM187.43 166H189.43C189.43 164.895 188.535 164 187.43 164V166ZM187.43 166.38V168.38C188.535 168.38 189.43 167.485 189.43 166.38H187.43ZM178.81 166.38V164.38C177.705 164.38 176.81 165.275 176.81 166.38H178.81ZM178.81 172.7H176.81C176.81 173.805 177.705 174.7 178.81 174.7V172.7ZM186.53 172.7H188.53C188.53 171.595 187.635 170.7 186.53 170.7V172.7ZM186.53 173.08V175.08C187.635 175.08 188.53 174.185 188.53 173.08H186.53ZM178.81 173.08V171.08C177.705 171.08 176.81 171.975 176.81 173.08H178.81ZM178.81 179.62H176.81C176.81 180.725 177.705 181.62 178.81 181.62V179.62ZM185.73 179.62V180H189.73V179.62H185.73ZM187.73 178H178.41V182H187.73V178ZM180.41 180V166H176.41V180H180.41ZM178.41 168H187.43V164H178.41V168ZM185.43 166V166.38H189.43V166H185.43ZM187.43 164.38H178.81V168.38H187.43V164.38ZM176.81 166.38V172.7H180.81V166.38H176.81ZM178.81 174.7H186.53V170.7H178.81V174.7ZM184.53 172.7V173.08H188.53V172.7H184.53ZM186.53 171.08H178.81V175.08H186.53V171.08ZM176.81 173.08V179.62H180.81V173.08H176.81ZM178.81 181.62H187.73V177.62H178.81V181.62ZM204.769 166H206.769C206.769 164.895 205.874 164 204.769 164V166ZM204.769 180V182C205.874 182 206.769 181.105 206.769 180H204.769ZM204.429 180L202.848 181.224C203.226 181.713 203.81 182 204.429 182V180ZM194.169 166.74L195.751 165.516C195.228 164.84 194.332 164.571 193.523 164.847C192.713 165.124 192.169 165.885 192.169 166.74H194.169ZM194.169 180V182C195.274 182 196.169 181.105 196.169 180H194.169ZM193.769 180H191.769C191.769 181.105 192.665 182 193.769 182V180ZM193.769 166V164C192.665 164 191.769 164.895 191.769 166H193.769ZM194.109 166L195.691 164.776C195.312 164.287 194.728 164 194.109 164V166ZM204.369 179.26L202.788 180.484C203.311 181.16 204.207 181.429 205.016 181.153C205.825 180.876 206.369 180.115 206.369 179.26H204.369ZM204.369 166V164C203.265 164 202.369 164.895 202.369 166H204.369ZM202.769 166V180H206.769V166H202.769ZM204.769 178H204.429V182H204.769V178ZM206.011 178.776L195.751 165.516L192.588 167.964L202.848 181.224L206.011 178.776ZM192.169 166.74V180H196.169V166.74H192.169ZM194.169 178H193.769V182H194.169V178ZM195.769 180V166H191.769V180H195.769ZM193.769 168H194.109V164H193.769V168ZM192.528 167.224L202.788 180.484L205.951 178.036L195.691 164.776L192.528 167.224ZM206.369 179.26V166H202.369V179.26H206.369ZM204.369 168H204.769V164H204.369V168ZM212.658 179.52L211.886 181.365C211.894 181.369 211.902 181.372 211.91 181.375L212.658 179.52ZM210.598 178.08L209.237 176.614C208.463 177.333 208.381 178.529 209.05 179.346L210.598 178.08ZM210.878 177.82L212.401 176.525C212.048 176.109 211.54 175.856 210.995 175.823C210.451 175.791 209.916 175.983 209.517 176.354L210.878 177.82ZM212.818 179.16L212.03 180.998C212.038 181.002 212.046 181.005 212.055 181.009L212.818 179.16ZM218.778 178.82L220.009 180.396L220.013 180.393L218.778 178.82ZM219.318 174.84L217.836 176.183L219.318 174.84ZM217.878 173.88L217.166 175.749C217.17 175.751 217.175 175.753 217.18 175.754L217.878 173.88ZM215.598 173.22L215.118 175.162C215.125 175.163 215.131 175.165 215.138 175.166L215.598 173.22ZM213.158 172.5L212.415 174.357C212.427 174.362 212.439 174.366 212.451 174.371L213.158 172.5ZM211.618 171.42L210.084 172.704C210.097 172.719 210.11 172.734 210.123 172.749L211.618 171.42ZM211.498 167.7L213.193 168.76L211.498 167.7ZM217.878 166.3L217.245 168.197C217.256 168.201 217.266 168.204 217.277 168.208L217.878 166.3ZM219.738 167.22L221.386 168.353C221.995 167.467 221.794 166.257 220.931 165.615L219.738 167.22ZM219.518 167.54L218.336 169.154C218.773 169.473 219.32 169.602 219.853 169.512C220.386 169.421 220.859 169.119 221.166 168.673L219.518 167.54ZM217.678 166.64L217.068 168.545C217.083 168.55 217.098 168.554 217.113 168.559L217.678 166.64ZM212.498 167.22L213.747 168.782C213.753 168.777 213.758 168.773 213.764 168.768L212.498 167.22ZM211.978 171.22L210.475 172.54C210.482 172.548 210.489 172.555 210.496 172.563L211.978 171.22ZM213.418 172.18L214.115 170.306L213.418 172.18ZM215.738 172.86L216.223 170.92L216.216 170.918L215.738 172.86ZM218.158 173.6L217.415 175.457C217.427 175.462 217.439 175.466 217.451 175.471L218.158 173.6ZM219.678 174.66L218.162 175.965C218.168 175.972 218.174 175.979 218.18 175.986L219.678 174.66ZM219.778 178.32L218.101 177.23L219.778 178.32ZM218.178 179.6L218.974 181.435C218.979 181.432 218.984 181.43 218.99 181.428L218.178 179.6ZM215.518 178.06C214.747 178.06 214.049 177.924 213.405 177.665L211.91 181.375C213.053 181.836 214.262 182.06 215.518 182.06V178.06ZM213.429 177.675C212.756 177.394 212.368 177.086 212.145 176.814L209.05 179.346C209.787 180.248 210.772 180.9 211.886 181.365L213.429 177.675ZM211.958 179.546L212.238 179.286L209.517 176.354L209.237 176.614L211.958 179.546ZM209.354 179.115C210.059 179.945 210.989 180.552 212.03 180.998L213.605 177.322C212.966 177.048 212.603 176.762 212.401 176.525L209.354 179.115ZM212.055 181.009C213.147 181.459 214.3 181.68 215.498 181.68V177.68C214.801 177.68 214.168 177.554 213.58 177.311L212.055 181.009ZM215.498 181.68C217.162 181.68 218.775 181.36 220.009 180.396L217.546 177.244C217.313 177.426 216.74 177.68 215.498 177.68V181.68ZM220.013 180.393C221.224 179.441 221.898 178.116 221.898 176.56H217.898C217.898 176.844 217.824 177.026 217.542 177.247L220.013 180.393ZM221.898 176.56C221.898 175.473 221.597 174.377 220.799 173.497L217.836 176.183C217.837 176.185 217.839 176.187 217.841 176.191C217.844 176.195 217.85 176.206 217.857 176.229C217.873 176.275 217.898 176.377 217.898 176.56H221.898ZM220.799 173.497C220.184 172.818 219.429 172.323 218.575 172.006L217.18 175.754C217.472 175.863 217.677 176.009 217.836 176.183L220.799 173.497ZM218.589 172.011C217.912 171.753 217.056 171.509 216.057 171.274L215.138 175.166C216.059 175.384 216.723 175.58 217.166 175.749L218.589 172.011ZM216.077 171.278C215.085 171.033 214.358 170.815 213.864 170.629L212.451 174.371C213.157 174.638 214.057 174.9 215.118 175.162L216.077 171.278ZM213.9 170.643C213.587 170.518 213.331 170.338 213.112 170.091L210.123 172.749C210.757 173.462 211.528 174.002 212.415 174.357L213.9 170.643ZM213.151 170.136C213.111 170.089 212.998 169.931 212.998 169.46H208.998C208.998 170.616 209.297 171.764 210.084 172.704L213.151 170.136ZM212.998 169.46C212.998 169.188 213.062 168.97 213.193 168.76L209.802 166.64C209.266 167.497 208.998 168.452 208.998 169.46H212.998ZM213.193 168.76C213.274 168.632 213.451 168.437 213.883 168.242L212.232 164.598C211.251 165.043 210.388 165.702 209.802 166.64L213.193 168.76ZM213.883 168.242C214.258 168.072 214.83 167.94 215.678 167.94V163.94C214.445 163.94 213.271 164.128 212.232 164.598L213.883 168.242ZM215.678 167.94C216.206 167.94 216.726 168.024 217.245 168.197L218.51 164.403C217.589 164.096 216.643 163.94 215.678 163.94V167.94ZM217.277 168.208C217.818 168.378 218.23 168.592 218.544 168.825L220.931 165.615C220.205 165.075 219.377 164.675 218.478 164.392L217.277 168.208ZM218.089 166.087L217.869 166.407L221.166 168.673L221.386 168.353L218.089 166.087ZM220.699 165.926C219.957 165.383 219.133 164.983 218.242 164.721L217.113 168.559C217.582 168.697 217.985 168.897 218.336 169.154L220.699 165.926ZM218.287 164.735C217.437 164.463 216.572 164.32 215.698 164.32V168.32C216.13 168.32 216.584 168.39 217.068 168.545L218.287 164.735ZM215.698 164.32C214.049 164.32 212.458 164.668 211.231 165.672L213.764 168.768C214.004 168.571 214.546 168.32 215.698 168.32V164.32ZM211.248 165.658C210.052 166.615 209.398 167.938 209.398 169.48H213.398C213.398 169.182 213.477 168.998 213.747 168.782L211.248 165.658ZM209.398 169.48C209.398 170.57 209.699 171.657 210.475 172.54L213.48 169.9C213.47 169.889 213.456 169.871 213.44 169.823C213.422 169.769 213.398 169.662 213.398 169.48H209.398ZM210.496 172.563C211.111 173.242 211.866 173.737 212.72 174.054L214.115 170.306C213.823 170.197 213.618 170.051 213.459 169.877L210.496 172.563ZM212.72 174.054C213.395 174.306 214.252 174.554 215.259 174.802L216.216 170.918C215.277 170.686 214.586 170.481 214.115 170.306L212.72 174.054ZM215.252 174.8C216.224 175.043 216.934 175.265 217.415 175.457L218.9 171.743C218.181 171.455 217.277 171.183 216.223 170.92L215.252 174.8ZM217.451 175.471C217.742 175.581 217.97 175.742 218.162 175.965L221.193 173.355C220.559 172.618 219.773 172.072 218.864 171.729L217.451 175.471ZM218.18 175.986C218.186 175.993 218.298 176.106 218.298 176.56H222.298C222.298 175.414 221.995 174.26 221.175 173.334L218.18 175.986ZM218.298 176.56C218.298 176.816 218.235 177.023 218.101 177.23L221.454 179.41C222.013 178.55 222.298 177.584 222.298 176.56H218.298ZM218.101 177.23C218.01 177.369 217.816 177.572 217.365 177.772L218.99 181.428C219.979 180.988 220.852 180.337 221.454 179.41L218.101 177.23ZM217.381 177.765C217.003 177.93 216.409 178.06 215.518 178.06V182.06C216.76 182.06 217.939 181.884 218.974 181.435L217.381 177.765ZM235.429 179.62H237.429C237.429 178.515 236.534 177.62 235.429 177.62V179.62ZM235.429 180V182C236.534 182 237.429 181.105 237.429 180H235.429ZM226.109 180H224.109C224.109 181.105 225.005 182 226.109 182V180ZM226.109 166V164C225.005 164 224.109 164.895 224.109 166H226.109ZM235.129 166H237.129C237.129 164.895 236.234 164 235.129 164V166ZM235.129 166.38V168.38C236.234 168.38 237.129 167.485 237.129 166.38H235.129ZM226.509 166.38V164.38C225.405 164.38 224.509 165.275 224.509 166.38H226.509ZM226.509 172.7H224.509C224.509 173.805 225.405 174.7 226.509 174.7V172.7ZM234.229 172.7H236.229C236.229 171.595 235.334 170.7 234.229 170.7V172.7ZM234.229 173.08V175.08C235.334 175.08 236.229 174.185 236.229 173.08H234.229ZM226.509 173.08V171.08C225.405 171.08 224.509 171.975 224.509 173.08H226.509ZM226.509 179.62H224.509C224.509 180.725 225.405 181.62 226.509 181.62V179.62ZM233.429 179.62V180H237.429V179.62H233.429ZM235.429 178H226.109V182H235.429V178ZM228.109 180V166H224.109V180H228.109ZM226.109 168H235.129V164H226.109V168ZM233.129 166V166.38H237.129V166H233.129ZM235.129 164.38H226.509V168.38H235.129V164.38ZM224.509 166.38V172.7H228.509V166.38H224.509ZM226.509 174.7H234.229V170.7H226.509V174.7ZM232.229 172.7V173.08H236.229V172.7H232.229ZM234.229 171.08H226.509V175.08H234.229V171.08ZM224.509 173.08V179.62H228.509V173.08H224.509ZM226.509 181.62H235.429V177.62H226.509V181.62Z" fill="white"/>
</mask>
<g mask="url(#mask0_139_182)">
<path d="M-1 141.697C8.46667 142.745 13.2 146.904 34.5 147.5C55.8 148.096 89.4213 136.762 125 137C158.64 137.225 175.5 147.5 210.5 147.5C245.5 147.5 264.067 137.65 283 137V322H273.533C264.067 322 245.133 322 226.2 322C207.267 322 188.333 322 169.4 322C150.467 322 131.533 322 112.6 322C93.6667 322 74.7333 322 55.8 322C36.8667 322 17.9333 322 8.46667 322H-1V141.697Z" fill="white"/>
</g>
</g>
<defs>
<clipPath id="clip0_139_182">
<rect width="284" height="323" fill="white"/>
</clipPath>
</defs>
</svg>
