<svg width="284" height="321" viewBox="0 0 284 321" fill="none" xmlns="http://www.w3.org/2000/svg">
<g clip-path="url(#clip0_157_2005)">
<path d="M284 0H0V320.914H284V0Z" fill="#001220"/>
<path d="M64.768 130.566V140.466H77.8V142.77H64.768V153.462H62.104V128.262H79.384V130.566H64.768ZM98.6373 153.678C95.3733 153.678 92.8293 152.742 91.0053 150.87C89.1813 148.998 88.2693 146.274 88.2693 142.698V128.262H90.9333V142.59C90.9333 145.518 91.5933 147.702 92.9133 149.142C94.2333 150.582 96.1413 151.302 98.6373 151.302C101.157 151.302 103.077 150.582 104.397 149.142C105.717 147.702 106.377 145.518 106.377 142.59V128.262H108.969V142.698C108.969 146.274 108.057 148.998 106.233 150.87C104.433 152.742 101.901 153.678 98.6373 153.678ZM125.001 130.566H116.145V128.262H136.521V130.566H127.665V153.462H125.001V130.566ZM154.036 153.678C150.772 153.678 148.228 152.742 146.404 150.87C144.58 148.998 143.668 146.274 143.668 142.698V128.262H146.332V142.59C146.332 145.518 146.992 147.702 148.312 149.142C149.632 150.582 151.54 151.302 154.036 151.302C156.556 151.302 158.476 150.582 159.796 149.142C161.116 147.702 161.776 145.518 161.776 142.59V128.262H164.368V142.698C164.368 146.274 163.456 148.998 161.632 150.87C159.832 152.742 157.3 153.678 154.036 153.678ZM193.204 153.462L187.444 145.362C186.796 145.434 186.124 145.47 185.428 145.47H178.66V153.462H175.996V128.262H185.428C188.644 128.262 191.164 129.03 192.988 130.566C194.812 132.102 195.724 134.214 195.724 136.902C195.724 138.87 195.22 140.538 194.212 141.906C193.228 143.25 191.812 144.222 189.964 144.822L196.12 153.462H193.204ZM185.356 143.202C187.852 143.202 189.76 142.65 191.08 141.546C192.4 140.442 193.06 138.894 193.06 136.902C193.06 134.862 192.4 133.302 191.08 132.222C189.76 131.118 187.852 130.566 185.356 130.566H178.66V143.202H185.356ZM223.432 151.158V153.462H205.612V128.262H222.892V130.566H208.276V139.53H221.308V141.798H208.276V151.158H223.432Z" fill="#80FF80"/>
<path d="M64.768 130.566V127.566C63.1111 127.566 61.768 128.909 61.768 130.566H64.768ZM64.768 140.466H61.768C61.768 142.122 63.1111 143.466 64.768 143.466V140.466ZM77.8 140.466H80.8C80.8 138.809 79.4569 137.466 77.8 137.466V140.466ZM77.8 142.77V145.77C79.4569 145.77 80.8 144.426 80.8 142.77H77.8ZM64.768 142.77V139.77C63.1111 139.77 61.768 141.113 61.768 142.77H64.768ZM64.768 153.462V156.462C66.4249 156.462 67.768 155.118 67.768 153.462H64.768ZM62.104 153.462H59.104C59.104 155.118 60.4471 156.462 62.104 156.462V153.462ZM62.104 128.262V125.262C60.4471 125.262 59.104 126.605 59.104 128.262H62.104ZM79.384 128.262H82.384C82.384 126.605 81.0409 125.262 79.384 125.262V128.262ZM79.384 130.566V133.566C81.0409 133.566 82.384 132.222 82.384 130.566H79.384ZM61.768 130.566V140.466H67.768V130.566H61.768ZM64.768 143.466H77.8V137.466H64.768V143.466ZM74.8 140.466V142.77H80.8V140.466H74.8ZM77.8 139.77H64.768V145.77H77.8V139.77ZM61.768 142.77V153.462H67.768V142.77H61.768ZM64.768 150.462H62.104V156.462H64.768V150.462ZM65.104 153.462V128.262H59.104V153.462H65.104ZM62.104 131.262H79.384V125.262H62.104V131.262ZM76.384 128.262V130.566H82.384V128.262H76.384ZM79.384 127.566H64.768V133.566H79.384V127.566ZM91.0053 150.87L93.1539 148.776L91.0053 150.87ZM88.2693 128.262V125.262C86.6124 125.262 85.2693 126.605 85.2693 128.262H88.2693ZM90.9333 128.262H93.9333C93.9333 126.605 92.5901 125.262 90.9333 125.262V128.262ZM104.397 149.142L106.609 151.169L104.397 149.142ZM106.377 128.262V125.262C104.72 125.262 103.377 126.605 103.377 128.262H106.377ZM108.969 128.262H111.969C111.969 126.605 110.626 125.262 108.969 125.262V128.262ZM106.233 150.87L104.085 148.776C104.08 148.781 104.075 148.786 104.071 148.79L106.233 150.87ZM98.6373 150.678C95.9688 150.678 94.2798 149.932 93.1539 148.776L88.8566 152.963C91.3787 155.552 94.7777 156.678 98.6373 156.678V150.678ZM93.1539 148.776C92.0511 147.644 91.2693 145.785 91.2693 142.698H85.2693C85.2693 146.762 86.3114 150.351 88.8566 152.963L93.1539 148.776ZM91.2693 142.698V128.262H85.2693V142.698H91.2693ZM88.2693 131.262H90.9333V125.262H88.2693V131.262ZM87.9333 128.262V142.59H93.9333V128.262H87.9333ZM87.9333 142.59C87.9333 145.903 88.6724 148.955 90.7018 151.169L95.1247 147.114C94.5141 146.448 93.9333 145.132 93.9333 142.59H87.9333ZM90.7018 151.169C92.7385 153.391 95.5487 154.302 98.6373 154.302V148.302C96.7338 148.302 95.728 147.773 95.1247 147.114L90.7018 151.169ZM98.6373 154.302C101.74 154.302 104.567 153.397 106.609 151.169L102.186 147.114C101.588 147.767 100.575 148.302 98.6373 148.302V154.302ZM106.609 151.169C108.638 148.955 109.377 145.903 109.377 142.59H103.377C103.377 145.132 102.796 146.448 102.186 147.114L106.609 151.169ZM109.377 142.59V128.262H103.377V142.59H109.377ZM106.377 131.262H108.969V125.262H106.377V131.262ZM105.969 128.262V142.698H111.969V128.262H105.969ZM105.969 142.698C105.969 145.785 105.187 147.644 104.085 148.776L108.382 152.963C110.927 150.351 111.969 146.762 111.969 142.698H105.969ZM104.071 148.79C102.974 149.931 101.308 150.678 98.6373 150.678V156.678C102.495 156.678 105.893 155.552 108.396 152.949L104.071 148.79ZM125.001 130.566H128.001C128.001 128.909 126.658 127.566 125.001 127.566V130.566ZM116.145 130.566H113.145C113.145 132.222 114.488 133.566 116.145 133.566V130.566ZM116.145 128.262V125.262C114.488 125.262 113.145 126.605 113.145 128.262H116.145ZM136.521 128.262H139.521C139.521 126.605 138.178 125.262 136.521 125.262V128.262ZM136.521 130.566V133.566C138.178 133.566 139.521 132.222 139.521 130.566H136.521ZM127.665 130.566V127.566C126.008 127.566 124.665 128.909 124.665 130.566H127.665ZM127.665 153.462V156.462C129.322 156.462 130.665 155.118 130.665 153.462H127.665ZM125.001 153.462H122.001C122.001 155.118 123.344 156.462 125.001 156.462V153.462ZM125.001 127.566H116.145V133.566H125.001V127.566ZM119.145 130.566V128.262H113.145V130.566H119.145ZM116.145 131.262H136.521V125.262H116.145V131.262ZM133.521 128.262V130.566H139.521V128.262H133.521ZM136.521 127.566H127.665V133.566H136.521V127.566ZM124.665 130.566V153.462H130.665V130.566H124.665ZM127.665 150.462H125.001V156.462H127.665V150.462ZM128.001 153.462V130.566H122.001V153.462H128.001ZM146.404 150.87L148.553 148.776L146.404 150.87ZM143.668 128.262V125.262C142.012 125.262 140.668 126.605 140.668 128.262H143.668ZM146.332 128.262H149.332C149.332 126.605 147.989 125.262 146.332 125.262V128.262ZM159.796 149.142L162.008 151.169L159.796 149.142ZM161.776 128.262V125.262C160.12 125.262 158.776 126.605 158.776 128.262H161.776ZM164.368 128.262H167.368C167.368 126.605 166.025 125.262 164.368 125.262V128.262ZM161.632 150.87L159.484 148.776C159.479 148.781 159.475 148.786 159.47 148.79L161.632 150.87ZM154.036 150.678C151.368 150.678 149.679 149.932 148.553 148.776L144.256 152.963C146.778 155.552 150.177 156.678 154.036 156.678V150.678ZM148.553 148.776C147.45 147.644 146.668 145.785 146.668 142.698H140.668C140.668 146.762 141.711 150.351 144.256 152.963L148.553 148.776ZM146.668 142.698V128.262H140.668V142.698H146.668ZM143.668 131.262H146.332V125.262H143.668V131.262ZM143.332 128.262V142.59H149.332V128.262H143.332ZM143.332 142.59C143.332 145.903 144.072 148.955 146.101 151.169L150.524 147.114C149.913 146.448 149.332 145.132 149.332 142.59H143.332ZM146.101 151.169C148.138 153.391 150.948 154.302 154.036 154.302V148.302C152.133 148.302 151.127 147.773 150.524 147.114L146.101 151.169ZM154.036 154.302C157.139 154.302 159.966 153.397 162.008 151.169L157.585 147.114C156.987 147.767 155.974 148.302 154.036 148.302V154.302ZM162.008 151.169C164.037 148.955 164.776 145.903 164.776 142.59H158.776C158.776 145.132 158.196 146.448 157.585 147.114L162.008 151.169ZM164.776 142.59V128.262H158.776V142.59H164.776ZM161.776 131.262H164.368V125.262H161.776V131.262ZM161.368 128.262V142.698H167.368V128.262H161.368ZM161.368 142.698C161.368 145.785 160.587 147.644 159.484 148.776L163.781 152.963C166.326 150.351 167.368 146.762 167.368 142.698H161.368ZM159.47 148.79C158.373 149.931 156.707 150.678 154.036 150.678V156.678C157.894 156.678 161.292 155.552 163.795 152.949L159.47 148.79ZM193.204 153.462L190.759 155.2C191.322 155.992 192.233 156.462 193.204 156.462V153.462ZM187.444 145.362L189.889 143.623C189.258 142.736 188.195 142.26 187.113 142.38L187.444 145.362ZM178.66 145.47V142.47C177.003 142.47 175.66 143.813 175.66 145.47H178.66ZM178.66 153.462V156.462C180.317 156.462 181.66 155.118 181.66 153.462H178.66ZM175.996 153.462H172.996C172.996 155.118 174.339 156.462 175.996 156.462V153.462ZM175.996 128.262V125.262C174.339 125.262 172.996 126.605 172.996 128.262H175.996ZM192.988 130.566L191.056 132.86L192.988 130.566ZM194.212 141.906L191.797 140.126L191.792 140.133L194.212 141.906ZM189.964 144.822L189.038 141.968C188.129 142.263 187.415 142.974 187.115 143.881C186.816 144.788 186.966 145.784 187.521 146.562L189.964 144.822ZM196.12 153.462V156.462C197.243 156.462 198.272 155.834 198.787 154.836C199.301 153.838 199.215 152.636 198.563 151.721L196.12 153.462ZM191.08 141.546L193.005 143.847L191.08 141.546ZM191.08 132.222L189.156 134.523C189.164 134.53 189.172 134.537 189.18 134.544L191.08 132.222ZM178.66 130.566V127.566C177.003 127.566 175.66 128.909 175.66 130.566H178.66ZM178.66 143.202H175.66C175.66 144.858 177.003 146.202 178.66 146.202V143.202ZM195.649 151.723L189.889 143.623L184.999 147.1L190.759 155.2L195.649 151.723ZM187.113 142.38C186.582 142.439 186.021 142.47 185.428 142.47V148.47C186.228 148.47 187.01 148.428 187.775 148.343L187.113 142.38ZM185.428 142.47H178.66V148.47H185.428V142.47ZM175.66 145.47V153.462H181.66V145.47H175.66ZM178.66 150.462H175.996V156.462H178.66V150.462ZM178.996 153.462V128.262H172.996V153.462H178.996ZM175.996 131.262H185.428V125.262H175.996V131.262ZM185.428 131.262C188.185 131.262 189.936 131.917 191.056 132.86L194.921 128.271C192.393 126.142 189.104 125.262 185.428 125.262V131.262ZM191.056 132.86C192.112 133.75 192.724 134.972 192.724 136.902H198.724C198.724 133.455 197.513 130.454 194.921 128.271L191.056 132.86ZM192.724 136.902C192.724 138.334 192.367 139.352 191.797 140.126L196.627 143.685C198.073 141.723 198.724 139.405 198.724 136.902H192.724ZM191.792 140.133C191.239 140.888 190.39 141.529 189.038 141.968L190.891 147.675C193.235 146.914 195.217 145.611 196.633 143.678L191.792 140.133ZM187.521 146.562L193.677 155.202L198.563 151.721L192.407 143.081L187.521 146.562ZM196.12 150.462H193.204V156.462H196.12V150.462ZM185.356 146.202C188.246 146.202 190.948 145.567 193.005 143.847L189.156 139.244C188.573 139.732 187.458 140.202 185.356 140.202V146.202ZM193.005 143.847C195.118 142.08 196.06 139.626 196.06 136.902H190.06C190.06 138.161 189.683 138.804 189.156 139.244L193.005 143.847ZM196.06 136.902C196.06 134.157 195.135 131.663 192.98 129.9L189.18 134.544C189.666 134.941 190.06 135.566 190.06 136.902H196.06ZM193.005 129.92C190.948 128.2 188.246 127.566 185.356 127.566V133.566C187.458 133.566 188.573 134.035 189.156 134.523L193.005 129.92ZM185.356 127.566H178.66V133.566H185.356V127.566ZM175.66 130.566V143.202H181.66V130.566H175.66ZM178.66 146.202H185.356V140.202H178.66V146.202ZM223.432 151.158H226.432C226.432 149.501 225.089 148.158 223.432 148.158V151.158ZM223.432 153.462V156.462C225.089 156.462 226.432 155.118 226.432 153.462H223.432ZM205.612 153.462H202.612C202.612 155.118 203.955 156.462 205.612 156.462V153.462ZM205.612 128.262V125.262C203.955 125.262 202.612 126.605 202.612 128.262H205.612ZM222.892 128.262H225.892C225.892 126.605 224.549 125.262 222.892 125.262V128.262ZM222.892 130.566V133.566C224.549 133.566 225.892 132.222 225.892 130.566H222.892ZM208.276 130.566V127.566C206.619 127.566 205.276 128.909 205.276 130.566H208.276ZM208.276 139.53H205.276C205.276 141.186 206.619 142.53 208.276 142.53V139.53ZM221.308 139.53H224.308C224.308 137.873 222.965 136.53 221.308 136.53V139.53ZM221.308 141.798V144.798C222.965 144.798 224.308 143.454 224.308 141.798H221.308ZM208.276 141.798V138.798C206.619 138.798 205.276 140.141 205.276 141.798H208.276ZM208.276 151.158H205.276C205.276 152.814 206.619 154.158 208.276 154.158V151.158ZM220.432 151.158V153.462H226.432V151.158H220.432ZM223.432 150.462H205.612V156.462H223.432V150.462ZM208.612 153.462V128.262H202.612V153.462H208.612ZM205.612 131.262H222.892V125.262H205.612V131.262ZM219.892 128.262V130.566H225.892V128.262H219.892ZM222.892 127.566H208.276V133.566H222.892V127.566ZM205.276 130.566V139.53H211.276V130.566H205.276ZM208.276 142.53H221.308V136.53H208.276V142.53ZM218.308 139.53V141.798H224.308V139.53H218.308ZM221.308 138.798H208.276V144.798H221.308V138.798ZM205.276 141.798V151.158H211.276V141.798H205.276ZM208.276 154.158H223.432V148.158H208.276V154.158Z" fill="#80FF80"/>
<path d="M125.28 102.936H120.08V102.556H130.88V102.936H125.68V116.556H125.28V102.936ZM146.617 102.556V116.556H146.217V109.636H136.017V116.556H135.617V102.556H136.017V109.256H146.217V102.556H146.617ZM163.265 116.176V116.556H153.945V102.556H162.965V102.936H154.345V109.256H162.065V109.636H154.345V116.176H163.265Z" fill="#80FF80"/>
<path d="M125.28 102.936H127.28C127.28 101.831 126.385 100.936 125.28 100.936V102.936ZM120.08 102.936H118.08C118.08 104.04 118.975 104.936 120.08 104.936V102.936ZM120.08 102.556V100.556C118.975 100.556 118.08 101.451 118.08 102.556H120.08ZM130.88 102.556H132.88C132.88 101.451 131.985 100.556 130.88 100.556V102.556ZM130.88 102.936V104.936C131.985 104.936 132.88 104.04 132.88 102.936H130.88ZM125.68 102.936V100.936C124.575 100.936 123.68 101.831 123.68 102.936H125.68ZM125.68 116.556V118.556C126.785 118.556 127.68 117.66 127.68 116.556H125.68ZM125.28 116.556H123.28C123.28 117.66 124.175 118.556 125.28 118.556V116.556ZM125.28 100.936H120.08V104.936H125.28V100.936ZM122.08 102.936V102.556H118.08V102.936H122.08ZM120.08 104.556H130.88V100.556H120.08V104.556ZM128.88 102.556V102.936H132.88V102.556H128.88ZM130.88 100.936H125.68V104.936H130.88V100.936ZM123.68 102.936V116.556H127.68V102.936H123.68ZM125.68 114.556H125.28V118.556H125.68V114.556ZM127.28 116.556V102.936H123.28V116.556H127.28ZM146.617 102.556H148.617C148.617 101.451 147.722 100.556 146.617 100.556V102.556ZM146.617 116.556V118.556C147.722 118.556 148.617 117.66 148.617 116.556H146.617ZM146.217 116.556H144.217C144.217 117.66 145.112 118.556 146.217 118.556V116.556ZM146.217 109.636H148.217C148.217 108.531 147.322 107.636 146.217 107.636V109.636ZM136.017 109.636V107.636C134.912 107.636 134.017 108.531 134.017 109.636H136.017ZM136.017 116.556V118.556C137.122 118.556 138.017 117.66 138.017 116.556H136.017ZM135.617 116.556H133.617C133.617 117.66 134.512 118.556 135.617 118.556V116.556ZM135.617 102.556V100.556C134.512 100.556 133.617 101.451 133.617 102.556H135.617ZM136.017 102.556H138.017C138.017 101.451 137.122 100.556 136.017 100.556V102.556ZM136.017 109.256H134.017C134.017 110.36 134.912 111.256 136.017 111.256V109.256ZM146.217 109.256V111.256C147.322 111.256 148.217 110.36 148.217 109.256H146.217ZM146.217 102.556V100.556C145.112 100.556 144.217 101.451 144.217 102.556H146.217ZM144.617 102.556V116.556H148.617V102.556H144.617ZM146.617 114.556H146.217V118.556H146.617V114.556ZM148.217 116.556V109.636H144.217V116.556H148.217ZM146.217 107.636H136.017V111.636H146.217V107.636ZM134.017 109.636V116.556H138.017V109.636H134.017ZM136.017 114.556H135.617V118.556H136.017V114.556ZM137.617 116.556V102.556H133.617V116.556H137.617ZM135.617 104.556H136.017V100.556H135.617V104.556ZM134.017 102.556V109.256H138.017V102.556H134.017ZM136.017 111.256H146.217V107.256H136.017V111.256ZM148.217 109.256V102.556H144.217V109.256H148.217ZM146.217 104.556H146.617V100.556H146.217V104.556ZM163.265 116.176H165.265C165.265 115.071 164.37 114.176 163.265 114.176V116.176ZM163.265 116.556V118.556C164.37 118.556 165.265 117.66 165.265 116.556H163.265ZM153.945 116.556H151.945C151.945 117.66 152.841 118.556 153.945 118.556V116.556ZM153.945 102.556V100.556C152.841 100.556 151.945 101.451 151.945 102.556H153.945ZM162.965 102.556H164.965C164.965 101.451 164.07 100.556 162.965 100.556V102.556ZM162.965 102.936V104.936C164.07 104.936 164.965 104.04 164.965 102.936H162.965ZM154.345 102.936V100.936C153.241 100.936 152.345 101.831 152.345 102.936H154.345ZM154.345 109.256H152.345C152.345 110.36 153.241 111.256 154.345 111.256V109.256ZM162.065 109.256H164.065C164.065 108.151 163.17 107.256 162.065 107.256V109.256ZM162.065 109.636V111.636C163.17 111.636 164.065 110.74 164.065 109.636H162.065ZM154.345 109.636V107.636C153.241 107.636 152.345 108.531 152.345 109.636H154.345ZM154.345 116.176H152.345C152.345 117.28 153.241 118.176 154.345 118.176V116.176ZM161.265 116.176V116.556H165.265V116.176H161.265ZM163.265 114.556H153.945V118.556H163.265V114.556ZM155.945 116.556V102.556H151.945V116.556H155.945ZM153.945 104.556H162.965V100.556H153.945V104.556ZM160.965 102.556V102.936H164.965V102.556H160.965ZM162.965 100.936H154.345V104.936H162.965V100.936ZM152.345 102.936V109.256H156.345V102.936H152.345ZM154.345 111.256H162.065V107.256H154.345V111.256ZM160.065 109.256V109.636H164.065V109.256H160.065ZM162.065 107.636H154.345V111.636H162.065V107.636ZM152.345 109.636V116.176H156.345V109.636H152.345ZM154.345 118.176H163.265V114.176H154.345V118.176Z" fill="#80FF80"/>
<path d="M0 143.389L9.46667 144.649C18.9333 145.948 37.8667 148.468 56.8 145.871C75.7333 143.275 94.6667 135.486 113.6 136.02C132.533 136.517 151.467 145.299 170.4 145.871C189.333 146.444 208.267 138.808 227.2 134.875C246.133 130.904 265.067 130.675 274.533 130.522L284 130.408V320.551H274.533C265.067 320.551 246.133 320.551 227.2 320.551C208.267 320.551 189.333 320.551 170.4 320.551C151.467 320.551 132.533 320.551 113.6 320.551C94.6667 320.551 75.7333 320.551 56.8 320.551C37.8667 320.551 18.9333 320.551 9.46667 320.551H0V143.389Z" fill="#80FF80"/>
<path d="M0 150.862L9.46667 155.099C18.9333 159.297 37.8667 167.771 56.8 171.454C75.7333 175.137 94.6667 174.107 113.6 172.959C132.533 171.85 151.467 170.662 170.4 177.711C189.333 184.799 208.267 200.084 227.2 199.965C246.133 199.847 265.067 184.245 274.533 176.483L284 168.682V319.951H274.533C265.067 319.951 246.133 319.951 227.2 319.951C208.267 319.951 189.333 319.951 170.4 319.951C151.467 319.951 132.533 319.951 113.6 319.951C94.6667 319.951 75.7333 319.951 56.8 319.951C37.8667 319.951 18.9333 319.951 9.46667 319.951H0V150.862Z" fill="#63F361"/>
<path d="M0 228.081V204.076C9.46667 202.294 29.6 216.914 56.8 217.389C84 217.864 94.6667 210.261 113.6 210.34C132.533 210.38 151.467 214.102 170.4 217.864C189.333 221.626 208.267 225.428 227.2 220.082C246.133 214.736 269.327 208.281 284 195.214V319.951H274.533C265.067 319.951 246.133 319.951 227.2 319.951C208.267 319.951 189.333 319.951 170.4 319.951C151.467 319.951 132.533 319.951 113.6 319.951C94.6667 319.951 75.7333 319.951 56.8 319.951C37.8667 319.951 18.9333 319.951 9.46667 319.951H0V228.081Z" fill="#48E145"/>
<path d="M0 233.229L9.46667 235.486C18.9333 237.704 37.8667 242.218 56.8 244.396C75.7333 246.574 94.6667 246.415 113.6 242.218C132.533 237.981 147.825 233.893 170.4 232.833C192.619 231.79 209.213 232.833 227.2 236.674C245.187 240.515 274.533 246.653 284 253.821V265.7V319.951H274.533C265.067 319.951 246.133 319.951 227.2 319.951C208.267 319.951 189.333 319.951 170.4 319.951C151.467 319.951 132.533 319.951 113.6 319.951C94.6667 319.951 75.7333 319.951 56.8 319.951C37.8667 319.951 18.9333 319.951 9.46667 319.951H0V233.229Z" fill="#30CE2D"/>
<path d="M0 293.676L9.46667 294.35C18.9333 294.983 37.8667 296.33 56.8 294.587C75.7333 292.884 94.6667 288.133 113.6 281.797C132.533 275.461 151.467 267.541 170.4 265.838C189.333 264.096 208.267 268.61 227.2 268.452C246.133 268.333 265.067 263.581 274.533 261.205L284 258.829V321H274.533C265.067 321 246.133 321 227.2 321C208.267 321 189.333 321 170.4 321C151.467 321 132.533 321 113.6 321C94.6667 321 75.7333 321 56.8 321C37.8667 321 18.9333 321 9.46667 321H0V293.676Z" fill="#00C200"/>
<path d="M40.602 207.304V214.48H49.554V215.584H40.602V223H39.378V206.2H50.61V207.304H40.602ZM63.4946 223.12C61.3666 223.12 59.7106 222.504 58.5266 221.272C57.3586 220.04 56.7746 218.24 56.7746 215.872V206.2H57.9986V215.824C57.9986 217.888 58.4706 219.432 59.4146 220.456C60.3586 221.48 61.7266 221.992 63.5186 221.992C65.2946 221.992 66.6546 221.48 67.5986 220.456C68.5426 219.432 69.0146 217.888 69.0146 215.824V206.2H70.2386V215.872C70.2386 218.24 69.6466 220.04 68.4626 221.272C67.2786 222.504 65.6226 223.12 63.4946 223.12ZM81.8377 207.304H75.7897V206.2H89.1097V207.304H83.0617V223H81.8377V207.304ZM101.721 223.12C99.5932 223.12 97.9372 222.504 96.7532 221.272C95.5852 220.04 95.0012 218.24 95.0012 215.872V206.2H96.2252V215.824C96.2252 217.888 96.6972 219.432 97.6412 220.456C98.5852 221.48 99.9532 221.992 101.745 221.992C103.521 221.992 104.881 221.48 105.825 220.456C106.769 219.432 107.241 217.888 107.241 215.824V206.2H108.465V215.872C108.465 218.24 107.873 220.04 106.689 221.272C105.505 222.504 103.849 223.12 101.721 223.12ZM128.24 223L124.232 217.384C123.64 217.464 123.096 217.504 122.6 217.504H117.8V223H116.576V206.2H122.6C124.712 206.2 126.368 206.704 127.568 207.712C128.768 208.704 129.368 210.088 129.368 211.864C129.368 213.192 129.024 214.312 128.336 215.224C127.664 216.12 126.696 216.752 125.432 217.12L129.632 223H128.24ZM122.6 216.424C124.392 216.424 125.76 216.032 126.704 215.248C127.648 214.448 128.12 213.32 128.12 211.864C128.12 210.408 127.648 209.288 126.704 208.504C125.76 207.704 124.392 207.304 122.6 207.304H117.8V216.424H122.6ZM149.23 223.12C147.998 223.12 146.822 222.912 145.702 222.496C144.598 222.064 143.734 221.512 143.11 220.84L143.662 219.928C144.254 220.552 145.046 221.064 146.038 221.464C147.046 221.848 148.102 222.04 149.206 222.04C150.806 222.04 152.014 221.736 152.83 221.128C153.646 220.52 154.054 219.728 154.054 218.752C154.054 218 153.838 217.4 153.406 216.952C152.974 216.504 152.438 216.16 151.798 215.92C151.158 215.68 150.294 215.432 149.206 215.176C147.974 214.872 146.982 214.576 146.23 214.288C145.494 214 144.862 213.56 144.334 212.968C143.822 212.36 143.566 211.552 143.566 210.544C143.566 209.728 143.782 208.984 144.214 208.312C144.646 207.624 145.302 207.08 146.182 206.68C147.078 206.28 148.19 206.08 149.518 206.08C150.446 206.08 151.358 206.216 152.254 206.488C153.15 206.76 153.926 207.128 154.582 207.592L154.126 208.576C153.454 208.112 152.71 207.76 151.894 207.52C151.094 207.28 150.302 207.16 149.518 207.16C147.966 207.16 146.79 207.472 145.99 208.096C145.19 208.72 144.79 209.528 144.79 210.52C144.79 211.272 145.006 211.872 145.438 212.32C145.87 212.768 146.406 213.112 147.046 213.352C147.686 213.592 148.558 213.848 149.662 214.12C150.894 214.424 151.878 214.72 152.614 215.008C153.35 215.296 153.974 215.736 154.486 216.328C155.014 216.904 155.278 217.688 155.278 218.68C155.278 219.496 155.054 220.24 154.606 220.912C154.174 221.584 153.502 222.12 152.59 222.52C151.678 222.92 150.558 223.12 149.23 223.12ZM161.839 206.2H163.063V223H161.839V206.2ZM187.205 223L187.181 208.624L180.149 220.768H179.549L172.517 208.672V223H171.317V206.2H172.349L179.861 219.184L187.373 206.2H188.381L188.405 223H187.205ZM202.686 206.2C204.798 206.2 206.454 206.704 207.654 207.712C208.854 208.704 209.454 210.088 209.454 211.864C209.454 213.624 208.854 215.008 207.654 216.016C206.454 217.008 204.798 217.504 202.686 217.504H197.886V223H196.662V206.2H202.686ZM202.686 216.4C204.478 216.4 205.846 216.008 206.79 215.224C207.734 214.44 208.206 213.32 208.206 211.864C208.206 210.408 207.734 209.288 206.79 208.504C205.846 207.704 204.478 207.304 202.686 207.304H197.886V216.4H202.686ZM215.984 206.2H217.208V221.896H226.88V223H215.984V206.2ZM244.015 221.896V223H232.423V206.2H243.655V207.304H233.647V213.928H242.599V215.008H233.647V221.896H244.015Z" fill="white"/>
<path d="M40.602 207.304V205.054C39.3594 205.054 38.352 206.061 38.352 207.304H40.602ZM40.602 214.48H38.352C38.352 215.723 39.3594 216.73 40.602 216.73V214.48ZM49.554 214.48H51.804C51.804 213.237 50.7966 212.23 49.554 212.23V214.48ZM49.554 215.584V217.834C50.7966 217.834 51.804 216.827 51.804 215.584H49.554ZM40.602 215.584V213.334C39.3594 213.334 38.352 214.341 38.352 215.584H40.602ZM40.602 223V225.25C41.8446 225.25 42.852 224.243 42.852 223H40.602ZM39.378 223H37.128C37.128 224.243 38.1354 225.25 39.378 225.25V223ZM39.378 206.2V203.95C38.1354 203.95 37.128 204.957 37.128 206.2H39.378ZM50.61 206.2H52.86C52.86 204.957 51.8526 203.95 50.61 203.95V206.2ZM50.61 207.304V209.554C51.8526 209.554 52.86 208.547 52.86 207.304H50.61ZM38.352 207.304V214.48H42.852V207.304H38.352ZM40.602 216.73H49.554V212.23H40.602V216.73ZM47.304 214.48V215.584H51.804V214.48H47.304ZM49.554 213.334H40.602V217.834H49.554V213.334ZM38.352 215.584V223H42.852V215.584H38.352ZM40.602 220.75H39.378V225.25H40.602V220.75ZM41.628 223V206.2H37.128V223H41.628ZM39.378 208.45H50.61V203.95H39.378V208.45ZM48.36 206.2V207.304H52.86V206.2H48.36ZM50.61 205.054H40.602V209.554H50.61V205.054ZM58.5266 221.272L56.8938 222.82C56.8973 222.824 56.9008 222.827 56.9043 222.831L58.5266 221.272ZM56.7746 206.2V203.95C55.532 203.95 54.5246 204.957 54.5246 206.2H56.7746ZM57.9986 206.2H60.2486C60.2486 204.957 59.2413 203.95 57.9986 203.95V206.2ZM59.4146 220.456L57.7603 221.981L59.4146 220.456ZM67.5986 220.456L65.9443 218.931L67.5986 220.456ZM69.0146 206.2V203.95C67.772 203.95 66.7646 204.957 66.7646 206.2H69.0146ZM70.2386 206.2H72.4886C72.4886 204.957 71.4813 203.95 70.2386 203.95V206.2ZM68.4626 221.272L66.8403 219.713L68.4626 221.272ZM63.4946 220.87C61.819 220.87 60.8094 220.4 60.1489 219.713L56.9043 222.831C58.6119 224.608 60.9143 225.37 63.4946 225.37V220.87ZM60.1595 219.724C59.5215 219.051 59.0246 217.893 59.0246 215.872H54.5246C54.5246 218.587 55.1958 221.029 56.8938 222.82L60.1595 219.724ZM59.0246 215.872V206.2H54.5246V215.872H59.0246ZM56.7746 208.45H57.9986V203.95H56.7746V208.45ZM55.7486 206.2V215.824H60.2486V206.2H55.7486ZM55.7486 215.824C55.7486 218.186 56.2842 220.38 57.7603 221.981L61.0689 218.931C60.6571 218.484 60.2486 217.59 60.2486 215.824H55.7486ZM57.7603 221.981C59.2445 223.591 61.2891 224.242 63.5186 224.242V219.742C62.1642 219.742 61.4728 219.369 61.0689 218.931L57.7603 221.981ZM63.5186 224.242C65.7393 224.242 67.7725 223.587 69.2529 221.981L65.9443 218.931C65.5367 219.373 64.85 219.742 63.5186 219.742V224.242ZM69.2529 221.981C70.7291 220.38 71.2646 218.186 71.2646 215.824H66.7646C66.7646 217.59 66.3562 218.484 65.9443 218.931L69.2529 221.981ZM71.2646 215.824V206.2H66.7646V215.824H71.2646ZM69.0146 208.45H70.2386V203.95H69.0146V208.45ZM67.9886 206.2V215.872H72.4886V206.2H67.9886ZM67.9886 215.872C67.9886 217.886 67.4877 219.039 66.8403 219.713L70.0849 222.831C71.8055 221.041 72.4886 218.594 72.4886 215.872H67.9886ZM66.8403 219.713C66.1799 220.4 65.1703 220.87 63.4946 220.87V225.37C66.075 225.37 68.3774 224.608 70.0849 222.831L66.8403 219.713ZM81.8377 207.304H84.0877C84.0877 206.061 83.0804 205.054 81.8377 205.054V207.304ZM75.7897 207.304H73.5397C73.5397 208.547 74.5471 209.554 75.7897 209.554V207.304ZM75.7897 206.2V203.95C74.5471 203.95 73.5397 204.957 73.5397 206.2H75.7897ZM89.1097 206.2H91.3597C91.3597 204.957 90.3524 203.95 89.1097 203.95V206.2ZM89.1097 207.304V209.554C90.3524 209.554 91.3597 208.547 91.3597 207.304H89.1097ZM83.0617 207.304V205.054C81.8191 205.054 80.8117 206.061 80.8117 207.304H83.0617ZM83.0617 223V225.25C84.3044 225.25 85.3117 224.243 85.3117 223H83.0617ZM81.8377 223H79.5877C79.5877 224.243 80.5951 225.25 81.8377 225.25V223ZM81.8377 205.054H75.7897V209.554H81.8377V205.054ZM78.0397 207.304V206.2H73.5397V207.304H78.0397ZM75.7897 208.45H89.1097V203.95H75.7897V208.45ZM86.8597 206.2V207.304H91.3597V206.2H86.8597ZM89.1097 205.054H83.0617V209.554H89.1097V205.054ZM80.8117 207.304V223H85.3117V207.304H80.8117ZM83.0617 220.75H81.8377V225.25H83.0617V220.75ZM84.0877 223V207.304H79.5877V223H84.0877ZM96.7532 221.272L95.1204 222.82C95.1239 222.824 95.1274 222.827 95.1309 222.831L96.7532 221.272ZM95.0012 206.2V203.95C93.7585 203.95 92.7512 204.957 92.7512 206.2H95.0012ZM96.2252 206.2H98.4752C98.4752 204.957 97.4678 203.95 96.2252 203.95V206.2ZM97.6412 220.456L95.9869 221.981L97.6412 220.456ZM105.825 220.456L104.171 218.931L105.825 220.456ZM107.241 206.2V203.95C105.999 203.95 104.991 204.957 104.991 206.2H107.241ZM108.465 206.2H110.715C110.715 204.957 109.708 203.95 108.465 203.95V206.2ZM106.689 221.272L105.067 219.713L106.689 221.272ZM101.721 220.87C100.046 220.87 99.0359 220.4 98.3755 219.713L95.1309 222.831C96.8385 224.608 99.1408 225.37 101.721 225.37V220.87ZM98.386 219.724C97.748 219.051 97.2512 217.893 97.2512 215.872H92.7512C92.7512 218.587 93.4223 221.029 95.1204 222.82L98.386 219.724ZM97.2512 215.872V206.2H92.7512V215.872H97.2512ZM95.0012 208.45H96.2252V203.95H95.0012V208.45ZM93.9752 206.2V215.824H98.4752V206.2H93.9752ZM93.9752 215.824C93.9752 218.186 94.5107 220.38 95.9869 221.981L99.2955 218.931C98.8836 218.484 98.4752 217.59 98.4752 215.824H93.9752ZM95.9869 221.981C97.471 223.591 99.5156 224.242 101.745 224.242V219.742C100.391 219.742 99.6993 219.369 99.2955 218.931L95.9869 221.981ZM101.745 224.242C103.966 224.242 105.999 223.587 107.479 221.981L104.171 218.931C103.763 219.373 103.077 219.742 101.745 219.742V224.242ZM107.479 221.981C108.956 220.38 109.491 218.186 109.491 215.824H104.991C104.991 217.59 104.583 218.484 104.171 218.931L107.479 221.981ZM109.491 215.824V206.2H104.991V215.824H109.491ZM107.241 208.45H108.465V203.95H107.241V208.45ZM106.215 206.2V215.872H110.715V206.2H106.215ZM106.215 215.872C106.215 217.886 105.714 219.039 105.067 219.713L108.311 222.831C110.032 221.041 110.715 218.594 110.715 215.872H106.215ZM105.067 219.713C104.406 220.4 103.397 220.87 101.721 220.87V225.37C104.302 225.37 106.604 224.608 108.311 222.831L105.067 219.713ZM128.24 223L126.409 224.307C126.831 224.899 127.513 225.25 128.24 225.25V223ZM124.232 217.384L126.064 216.077C125.579 215.398 124.758 215.043 123.931 215.154L124.232 217.384ZM117.8 217.504V215.254C116.558 215.254 115.55 216.261 115.55 217.504H117.8ZM117.8 223V225.25C119.043 225.25 120.05 224.243 120.05 223H117.8ZM116.576 223H114.326C114.326 224.243 115.334 225.25 116.576 225.25V223ZM116.576 206.2V203.95C115.334 203.95 114.326 204.957 114.326 206.2H116.576ZM127.568 207.712L126.121 209.435C126.126 209.439 126.13 209.442 126.135 209.446L127.568 207.712ZM128.336 215.224L126.54 213.869L126.536 213.874L128.336 215.224ZM125.432 217.12L124.803 214.96C124.103 215.164 123.545 215.694 123.306 216.383C123.068 217.072 123.178 217.834 123.602 218.428L125.432 217.12ZM129.632 223V225.25C130.475 225.25 131.247 224.779 131.633 224.03C132.019 223.28 131.953 222.378 131.463 221.692L129.632 223ZM126.704 215.248L128.142 216.979C128.148 216.974 128.153 216.969 128.159 216.965L126.704 215.248ZM126.704 208.504L125.25 210.221C125.255 210.225 125.261 210.23 125.267 210.235L126.704 208.504ZM117.8 207.304V205.054C116.558 205.054 115.55 206.061 115.55 207.304H117.8ZM117.8 216.424H115.55C115.55 217.667 116.558 218.674 117.8 218.674V216.424ZM130.072 221.693L126.064 216.077L122.401 218.691L126.409 224.307L130.072 221.693ZM123.931 215.154C123.42 215.223 122.978 215.254 122.6 215.254V219.754C123.215 219.754 123.861 219.705 124.534 219.614L123.931 215.154ZM122.6 215.254H117.8V219.754H122.6V215.254ZM115.55 217.504V223H120.05V217.504H115.55ZM117.8 220.75H116.576V225.25H117.8V220.75ZM118.826 223V206.2H114.326V223H118.826ZM116.576 208.45H122.6V203.95H116.576V208.45ZM122.6 208.45C124.368 208.45 125.449 208.87 126.121 209.435L129.016 205.989C127.288 204.538 125.057 203.95 122.6 203.95V208.45ZM126.135 209.446C126.741 209.948 127.118 210.653 127.118 211.864H131.618C131.618 209.523 130.796 207.46 129.002 205.978L126.135 209.446ZM127.118 211.864C127.118 212.786 126.888 213.408 126.54 213.869L130.133 216.579C131.161 215.216 131.618 213.598 131.618 211.864H127.118ZM126.536 213.874C126.206 214.315 125.685 214.703 124.803 214.96L126.061 219.28C127.708 218.801 129.123 217.925 130.136 216.574L126.536 213.874ZM123.602 218.428L127.802 224.308L131.463 221.692L127.263 215.812L123.602 218.428ZM129.632 220.75H128.24V225.25H129.632V220.75ZM122.6 218.674C124.682 218.674 126.644 218.223 128.142 216.979L125.267 213.517C124.877 213.841 124.102 214.174 122.6 214.174V218.674ZM128.159 216.965C129.699 215.66 130.37 213.852 130.37 211.864H125.87C125.87 212.788 125.598 213.236 125.25 213.531L128.159 216.965ZM130.37 211.864C130.37 209.877 129.698 208.066 128.142 206.773L125.267 210.235C125.599 210.51 125.87 210.939 125.87 211.864H130.37ZM128.159 206.787C126.66 205.517 124.692 205.054 122.6 205.054V209.554C124.093 209.554 124.861 209.891 125.25 210.221L128.159 206.787ZM122.6 205.054H117.8V209.554H122.6V205.054ZM115.55 207.304V216.424H120.05V207.304H115.55ZM117.8 218.674H122.6V214.174H117.8V218.674ZM145.702 222.496L144.882 224.591C144.894 224.596 144.906 224.601 144.919 224.605L145.702 222.496ZM143.11 220.84L141.185 219.675C140.665 220.534 140.777 221.635 141.461 222.371L143.11 220.84ZM143.662 219.928L145.294 218.379C144.811 217.87 144.118 217.616 143.421 217.691C142.723 217.766 142.1 218.163 141.737 218.763L143.662 219.928ZM146.038 221.464L145.197 223.551C145.21 223.556 145.223 223.561 145.237 223.567L146.038 221.464ZM152.83 221.128L154.174 222.932L152.83 221.128ZM151.798 215.92L152.588 213.813L151.798 215.92ZM149.206 215.176L148.667 217.36C148.675 217.362 148.683 217.364 148.691 217.366L149.206 215.176ZM146.23 214.288L145.41 216.383C145.415 216.385 145.42 216.387 145.425 216.389L146.23 214.288ZM144.334 212.968L142.613 214.417C142.627 214.434 142.641 214.45 142.655 214.466L144.334 212.968ZM144.214 208.312L146.107 209.529C146.111 209.522 146.115 209.515 146.119 209.508L144.214 208.312ZM146.182 206.68L145.265 204.625C145.26 204.628 145.255 204.63 145.251 204.632L146.182 206.68ZM152.254 206.488L151.6 208.641L152.254 206.488ZM154.582 207.592L156.623 208.538C157.08 207.553 156.768 206.382 155.881 205.755L154.582 207.592ZM154.126 208.576L152.848 210.428C153.393 210.804 154.078 210.921 154.718 210.747C155.358 210.572 155.888 210.124 156.167 209.522L154.126 208.576ZM151.894 207.52L151.247 209.675L151.259 209.679L151.894 207.52ZM145.99 208.096L144.606 206.322L145.99 208.096ZM145.438 212.32L143.818 213.882L145.438 212.32ZM147.046 213.352L146.256 215.459L147.046 213.352ZM149.662 214.12L150.201 211.936L150.2 211.935L149.662 214.12ZM152.614 215.008L151.794 217.103L152.614 215.008ZM154.486 216.328L152.784 217.8C152.798 217.816 152.813 217.832 152.827 217.848L154.486 216.328ZM154.606 220.912L152.734 219.664C152.727 219.674 152.72 219.685 152.713 219.695L154.606 220.912ZM152.59 222.52L151.686 220.459L152.59 222.52ZM149.23 220.87C148.257 220.87 147.347 220.707 146.485 220.387L144.919 224.605C146.297 225.117 147.739 225.37 149.23 225.37V220.87ZM146.522 220.401C145.644 220.057 145.095 219.671 144.759 219.309L141.461 222.371C142.373 223.353 143.552 224.071 144.882 224.591L146.522 220.401ZM145.035 222.005L145.587 221.093L141.737 218.763L141.185 219.675L145.035 222.005ZM142.03 221.477C142.891 222.384 143.976 223.059 145.197 223.551L146.879 219.377C146.116 219.069 145.617 218.72 145.294 218.379L142.03 221.477ZM145.237 223.567C146.507 224.05 147.835 224.29 149.206 224.29V219.79C148.369 219.79 147.585 219.646 146.839 219.361L145.237 223.567ZM149.206 224.29C151.032 224.29 152.804 223.953 154.174 222.932L151.486 219.324C151.224 219.519 150.58 219.79 149.206 219.79V224.29ZM154.174 222.932C155.532 221.921 156.304 220.473 156.304 218.752H151.804C151.804 218.983 151.76 219.119 151.486 219.324L154.174 222.932ZM156.304 218.752C156.304 217.546 155.943 216.342 155.026 215.39L151.786 218.514C151.784 218.512 151.78 218.506 151.776 218.5C151.772 218.493 151.772 218.492 151.775 218.5C151.781 218.516 151.804 218.59 151.804 218.752H156.304ZM155.026 215.39C154.339 214.678 153.51 214.159 152.588 213.813L151.008 218.027C151.365 218.161 151.609 218.33 151.786 218.514L155.026 215.39ZM152.588 213.813C151.82 213.525 150.852 213.252 149.721 212.986L148.691 217.366C149.736 217.612 150.496 217.835 151.008 218.027L152.588 213.813ZM149.745 212.992C148.558 212.699 147.665 212.428 147.035 212.187L145.425 216.389C146.299 216.724 147.39 217.045 148.667 217.36L149.745 212.992ZM147.05 212.193C146.645 212.034 146.307 211.799 146.013 211.47L142.655 214.466C143.417 215.321 144.343 215.966 145.41 216.383L147.05 212.193ZM146.055 211.519C145.968 211.415 145.816 211.167 145.816 210.544H141.316C141.316 211.937 141.676 213.305 142.613 214.417L146.055 211.519ZM145.816 210.544C145.816 210.15 145.913 209.83 146.107 209.529L142.321 207.095C141.651 208.138 141.316 209.306 141.316 210.544H145.816ZM146.119 209.508C146.276 209.26 146.557 208.981 147.113 208.728L145.251 204.632C144.047 205.179 143.016 205.988 142.308 207.116L146.119 209.508ZM147.099 208.735C147.624 208.5 148.401 208.33 149.518 208.33V203.83C147.979 203.83 146.532 204.06 145.265 204.625L147.099 208.735ZM149.518 208.33C150.222 208.33 150.914 208.433 151.6 208.641L152.908 204.335C151.802 203.999 150.669 203.83 149.518 203.83V208.33ZM151.6 208.641C152.303 208.854 152.853 209.125 153.283 209.429L155.881 205.755C154.999 205.131 153.997 204.666 152.908 204.335L151.6 208.641ZM152.54 206.646L152.084 207.63L156.167 209.522L156.623 208.538L152.54 206.646ZM155.404 206.724C154.527 206.119 153.565 205.666 152.529 205.361L151.259 209.679C151.855 209.854 152.38 210.105 152.848 210.428L155.404 206.724ZM152.54 205.365C151.544 205.066 150.535 204.91 149.518 204.91V209.41C150.069 209.41 150.643 209.494 151.247 209.675L152.54 205.365ZM149.518 204.91C147.716 204.91 145.962 205.264 144.606 206.322L147.374 209.87C147.618 209.68 148.216 209.41 149.518 209.41V204.91ZM144.606 206.322C143.274 207.361 142.54 208.817 142.54 210.52H147.04C147.04 210.239 147.106 210.079 147.374 209.87L144.606 206.322ZM142.54 210.52C142.54 211.726 142.9 212.93 143.818 213.882L147.058 210.758C147.06 210.76 147.064 210.766 147.068 210.772C147.072 210.779 147.072 210.78 147.069 210.772C147.063 210.756 147.04 210.682 147.04 210.52H142.54ZM143.818 213.882C144.505 214.594 145.333 215.113 146.256 215.459L147.836 211.245C147.478 211.111 147.235 210.942 147.058 210.758L143.818 213.882ZM146.256 215.459C147.014 215.743 147.982 216.023 149.124 216.305L150.2 211.935C149.134 211.673 148.358 211.441 147.836 211.245L146.256 215.459ZM149.123 216.304C150.309 216.597 151.187 216.866 151.794 217.103L153.434 212.913C152.569 212.574 151.479 212.251 150.201 211.936L149.123 216.304ZM151.794 217.103C152.193 217.26 152.514 217.487 152.784 217.8L156.188 214.856C155.434 213.985 154.507 213.332 153.434 212.913L151.794 217.103ZM152.827 217.848C152.881 217.906 153.028 218.094 153.028 218.68H157.528C157.528 217.282 157.147 215.902 156.145 214.808L152.827 217.848ZM153.028 218.68C153.028 219.057 152.933 219.366 152.734 219.664L156.478 222.16C157.175 221.114 157.528 219.935 157.528 218.68H153.028ZM152.713 219.695C152.574 219.912 152.293 220.193 151.686 220.459L153.494 224.581C154.711 224.047 155.774 223.256 156.499 222.129L152.713 219.695ZM151.686 220.459C151.137 220.7 150.345 220.87 149.23 220.87V225.37C150.771 225.37 152.219 225.14 153.494 224.581L151.686 220.459ZM161.839 206.2V203.95C160.596 203.95 159.589 204.957 159.589 206.2H161.839ZM163.063 206.2H165.313C165.313 204.957 164.306 203.95 163.063 203.95V206.2ZM163.063 223V225.25C164.306 225.25 165.313 224.243 165.313 223H163.063ZM161.839 223H159.589C159.589 224.243 160.596 225.25 161.839 225.25V223ZM161.839 208.45H163.063V203.95H161.839V208.45ZM160.813 206.2V223H165.313V206.2H160.813ZM163.063 220.75H161.839V225.25H163.063V220.75ZM164.089 223V206.2H159.589V223H164.089ZM187.205 223L184.955 223.004C184.957 224.245 185.964 225.25 187.205 225.25V223ZM187.181 208.624L189.431 208.62C189.429 207.603 188.745 206.714 187.763 206.451C186.78 206.187 185.744 206.616 185.234 207.497L187.181 208.624ZM180.149 220.768V223.018C180.952 223.018 181.694 222.59 182.096 221.895L180.149 220.768ZM179.549 220.768L177.604 221.899C178.007 222.592 178.748 223.018 179.549 223.018V220.768ZM172.517 208.672L174.462 207.541C173.951 206.662 172.914 206.235 171.931 206.5C170.949 206.764 170.267 207.655 170.267 208.672H172.517ZM172.517 223V225.25C173.76 225.25 174.767 224.243 174.767 223H172.517ZM171.317 223H169.067C169.067 224.243 170.074 225.25 171.317 225.25V223ZM171.317 206.2V203.95C170.074 203.95 169.067 204.957 169.067 206.2H171.317ZM172.349 206.2L174.297 205.073C173.894 204.378 173.152 203.95 172.349 203.95V206.2ZM179.861 219.184L177.914 220.311C178.316 221.006 179.058 221.434 179.861 221.434C180.664 221.434 181.406 221.006 181.809 220.311L179.861 219.184ZM187.373 206.2V203.95C186.57 203.95 185.828 204.378 185.426 205.073L187.373 206.2ZM188.381 206.2L190.631 206.197C190.629 204.955 189.622 203.95 188.381 203.95V206.2ZM188.405 223V225.25C189.002 225.25 189.575 225.013 189.997 224.59C190.419 224.167 190.656 223.594 190.655 222.997L188.405 223ZM189.455 222.996L189.431 208.62L184.931 208.628L184.955 223.004L189.455 222.996ZM185.234 207.497L178.202 219.641L182.096 221.895L189.128 209.751L185.234 207.497ZM180.149 218.518H179.549V223.018H180.149V218.518ZM181.494 219.637L174.462 207.541L170.572 209.803L177.604 221.899L181.494 219.637ZM170.267 208.672V223H174.767V208.672H170.267ZM172.517 220.75H171.317V225.25H172.517V220.75ZM173.567 223V206.2H169.067V223H173.567ZM171.317 208.45H172.349V203.95H171.317V208.45ZM170.402 207.327L177.914 220.311L181.809 218.057L174.297 205.073L170.402 207.327ZM181.809 220.311L189.321 207.327L185.426 205.073L177.914 218.057L181.809 220.311ZM187.373 208.45H188.381V203.95H187.373V208.45ZM186.131 206.203L186.155 223.003L190.655 222.997L190.631 206.197L186.131 206.203ZM188.405 220.75H187.205V225.25H188.405V220.75ZM207.654 207.712L206.207 209.435C206.212 209.439 206.216 209.442 206.221 209.446L207.654 207.712ZM207.654 216.016L209.088 217.75C209.093 217.746 209.097 217.743 209.102 217.739L207.654 216.016ZM197.886 217.504V215.254C196.644 215.254 195.636 216.261 195.636 217.504H197.886ZM197.886 223V225.25C199.129 225.25 200.136 224.243 200.136 223H197.886ZM196.662 223H194.412C194.412 224.243 195.42 225.25 196.662 225.25V223ZM196.662 206.2V203.95C195.42 203.95 194.412 204.957 194.412 206.2H196.662ZM206.79 215.224L208.228 216.955L206.79 215.224ZM206.79 208.504L205.336 210.221C205.341 210.225 205.347 210.23 205.353 210.235L206.79 208.504ZM197.886 207.304V205.054C196.644 205.054 195.636 206.061 195.636 207.304H197.886ZM197.886 216.4H195.636C195.636 217.643 196.644 218.65 197.886 218.65V216.4ZM202.686 208.45C204.454 208.45 205.534 208.87 206.207 209.435L209.102 205.989C207.374 204.538 205.143 203.95 202.686 203.95V208.45ZM206.221 209.446C206.827 209.948 207.204 210.653 207.204 211.864H211.704C211.704 209.523 210.881 207.46 209.088 205.978L206.221 209.446ZM207.204 211.864C207.204 213.051 206.832 213.768 206.207 214.293L209.102 217.739C210.877 216.248 211.704 214.197 211.704 211.864H207.204ZM206.221 214.282C205.548 214.838 204.461 215.254 202.686 215.254V219.754C205.135 219.754 207.361 219.178 209.088 217.75L206.221 214.282ZM202.686 215.254H197.886V219.754H202.686V215.254ZM195.636 217.504V223H200.136V217.504H195.636ZM197.886 220.75H196.662V225.25H197.886V220.75ZM198.912 223V206.2H194.412V223H198.912ZM196.662 208.45H202.686V203.95H196.662V208.45ZM202.686 218.65C204.768 218.65 206.73 218.199 208.228 216.955L205.353 213.493C204.963 213.817 204.188 214.15 202.686 214.15V218.65ZM208.228 216.955C209.784 215.662 210.456 213.851 210.456 211.864H205.956C205.956 212.789 205.684 213.218 205.353 213.493L208.228 216.955ZM210.456 211.864C210.456 209.877 209.784 208.066 208.228 206.773L205.353 210.235C205.684 210.51 205.956 210.939 205.956 211.864H210.456ZM208.245 206.787C206.746 205.517 204.778 205.054 202.686 205.054V209.554C204.179 209.554 204.947 209.891 205.336 210.221L208.245 206.787ZM202.686 205.054H197.886V209.554H202.686V205.054ZM195.636 207.304V216.4H200.136V207.304H195.636ZM197.886 218.65H202.686V214.15H197.886V218.65ZM215.984 206.2V203.95C214.742 203.95 213.734 204.957 213.734 206.2H215.984ZM217.208 206.2H219.458C219.458 204.957 218.451 203.95 217.208 203.95V206.2ZM217.208 221.896H214.958C214.958 223.139 215.966 224.146 217.208 224.146V221.896ZM226.88 221.896H229.13C229.13 220.653 228.123 219.646 226.88 219.646V221.896ZM226.88 223V225.25C228.123 225.25 229.13 224.243 229.13 223H226.88ZM215.984 223H213.734C213.734 224.243 214.742 225.25 215.984 225.25V223ZM215.984 208.45H217.208V203.95H215.984V208.45ZM214.958 206.2V221.896H219.458V206.2H214.958ZM217.208 224.146H226.88V219.646H217.208V224.146ZM224.63 221.896V223H229.13V221.896H224.63ZM226.88 220.75H215.984V225.25H226.88V220.75ZM218.234 223V206.2H213.734V223H218.234ZM244.015 221.896H246.265C246.265 220.653 245.258 219.646 244.015 219.646V221.896ZM244.015 223V225.25C245.258 225.25 246.265 224.243 246.265 223H244.015ZM232.423 223H230.173C230.173 224.243 231.181 225.25 232.423 225.25V223ZM232.423 206.2V203.95C231.181 203.95 230.173 204.957 230.173 206.2H232.423ZM243.655 206.2H245.905C245.905 204.957 244.898 203.95 243.655 203.95V206.2ZM243.655 207.304V209.554C244.898 209.554 245.905 208.547 245.905 207.304H243.655ZM233.647 207.304V205.054C232.405 205.054 231.397 206.061 231.397 207.304H233.647ZM233.647 213.928H231.397C231.397 215.171 232.405 216.178 233.647 216.178V213.928ZM242.599 213.928H244.849C244.849 212.685 243.842 211.678 242.599 211.678V213.928ZM242.599 215.008V217.258C243.842 217.258 244.849 216.251 244.849 215.008H242.599ZM233.647 215.008V212.758C232.405 212.758 231.397 213.765 231.397 215.008H233.647ZM233.647 221.896H231.397C231.397 223.139 232.405 224.146 233.647 224.146V221.896ZM241.765 221.896V223H246.265V221.896H241.765ZM244.015 220.75H232.423V225.25H244.015V220.75ZM234.673 223V206.2H230.173V223H234.673ZM232.423 208.45H243.655V203.95H232.423V208.45ZM241.405 206.2V207.304H245.905V206.2H241.405ZM243.655 205.054H233.647V209.554H243.655V205.054ZM231.397 207.304V213.928H235.897V207.304H231.397ZM233.647 216.178H242.599V211.678H233.647V216.178ZM240.349 213.928V215.008H244.849V213.928H240.349ZM242.599 212.758H233.647V217.258H242.599V212.758ZM231.397 215.008V221.896H235.897V215.008H231.397ZM233.647 224.146H244.015V219.646H233.647V224.146Z" fill="white"/>
<g style="mix-blend-mode:soft-light">
<path d="M37 192H247" stroke="white"/>
</g>
<mask id="mask0_157_2005" style="mask-type:alpha" maskUnits="userSpaceOnUse" x="59" y="125" width="168" height="56">
<path d="M64.768 130.566V140.466H77.8V142.77H64.768V153.462H62.104V128.262H79.384V130.566H64.768ZM98.6373 153.678C95.3733 153.678 92.8293 152.742 91.0053 150.87C89.1813 148.998 88.2693 146.274 88.2693 142.698V128.262H90.9333V142.59C90.9333 145.518 91.5933 147.702 92.9133 149.142C94.2333 150.582 96.1413 151.302 98.6373 151.302C101.157 151.302 103.077 150.582 104.397 149.142C105.717 147.702 106.377 145.518 106.377 142.59V128.262H108.969V142.698C108.969 146.274 108.057 148.998 106.233 150.87C104.433 152.742 101.901 153.678 98.6373 153.678ZM125.001 130.566H116.145V128.262H136.521V130.566H127.665V153.462H125.001V130.566ZM154.036 153.678C150.772 153.678 148.228 152.742 146.404 150.87C144.58 148.998 143.668 146.274 143.668 142.698V128.262H146.332V142.59C146.332 145.518 146.992 147.702 148.312 149.142C149.632 150.582 151.54 151.302 154.036 151.302C156.556 151.302 158.476 150.582 159.796 149.142C161.116 147.702 161.776 145.518 161.776 142.59V128.262H164.368V142.698C164.368 146.274 163.456 148.998 161.632 150.87C159.832 152.742 157.3 153.678 154.036 153.678ZM193.204 153.462L187.444 145.362C186.796 145.434 186.124 145.47 185.428 145.47H178.66V153.462H175.996V128.262H185.428C188.644 128.262 191.164 129.03 192.988 130.566C194.812 132.102 195.724 134.214 195.724 136.902C195.724 138.87 195.22 140.538 194.212 141.906C193.228 143.25 191.812 144.222 189.964 144.822L196.12 153.462H193.204ZM185.356 143.202C187.852 143.202 189.76 142.65 191.08 141.546C192.4 140.442 193.06 138.894 193.06 136.902C193.06 134.862 192.4 133.302 191.08 132.222C189.76 131.118 187.852 130.566 185.356 130.566H178.66V143.202H185.356ZM223.432 151.158V153.462H205.612V128.262H222.892V130.566H208.276V139.53H221.308V141.798H208.276V151.158H223.432Z" fill="white"/>
<path d="M64.768 130.566V127.566C63.1111 127.566 61.768 128.909 61.768 130.566H64.768ZM64.768 140.466H61.768C61.768 142.122 63.1111 143.466 64.768 143.466V140.466ZM77.8 140.466H80.8C80.8 138.809 79.4569 137.466 77.8 137.466V140.466ZM77.8 142.77V145.77C79.4569 145.77 80.8 144.426 80.8 142.77H77.8ZM64.768 142.77V139.77C63.1111 139.77 61.768 141.113 61.768 142.77H64.768ZM64.768 153.462V156.462C66.4249 156.462 67.768 155.118 67.768 153.462H64.768ZM62.104 153.462H59.104C59.104 155.118 60.4471 156.462 62.104 156.462V153.462ZM62.104 128.262V125.262C60.4471 125.262 59.104 126.605 59.104 128.262H62.104ZM79.384 128.262H82.384C82.384 126.605 81.0409 125.262 79.384 125.262V128.262ZM79.384 130.566V133.566C81.0409 133.566 82.384 132.222 82.384 130.566H79.384ZM61.768 130.566V140.466H67.768V130.566H61.768ZM64.768 143.466H77.8V137.466H64.768V143.466ZM74.8 140.466V142.77H80.8V140.466H74.8ZM77.8 139.77H64.768V145.77H77.8V139.77ZM61.768 142.77V153.462H67.768V142.77H61.768ZM64.768 150.462H62.104V156.462H64.768V150.462ZM65.104 153.462V128.262H59.104V153.462H65.104ZM62.104 131.262H79.384V125.262H62.104V131.262ZM76.384 128.262V130.566H82.384V128.262H76.384ZM79.384 127.566H64.768V133.566H79.384V127.566ZM91.0053 150.87L93.1539 148.776L91.0053 150.87ZM88.2693 128.262V125.262C86.6124 125.262 85.2693 126.605 85.2693 128.262H88.2693ZM90.9333 128.262H93.9333C93.9333 126.605 92.5901 125.262 90.9333 125.262V128.262ZM104.397 149.142L106.609 151.169L104.397 149.142ZM106.377 128.262V125.262C104.72 125.262 103.377 126.605 103.377 128.262H106.377ZM108.969 128.262H111.969C111.969 126.605 110.626 125.262 108.969 125.262V128.262ZM106.233 150.87L104.085 148.776C104.08 148.781 104.075 148.786 104.071 148.79L106.233 150.87ZM98.6373 150.678C95.9688 150.678 94.2798 149.932 93.1539 148.776L88.8566 152.963C91.3787 155.552 94.7777 156.678 98.6373 156.678V150.678ZM93.1539 148.776C92.0511 147.644 91.2693 145.785 91.2693 142.698H85.2693C85.2693 146.762 86.3114 150.351 88.8566 152.963L93.1539 148.776ZM91.2693 142.698V128.262H85.2693V142.698H91.2693ZM88.2693 131.262H90.9333V125.262H88.2693V131.262ZM87.9333 128.262V142.59H93.9333V128.262H87.9333ZM87.9333 142.59C87.9333 145.903 88.6724 148.955 90.7018 151.169L95.1247 147.114C94.5141 146.448 93.9333 145.132 93.9333 142.59H87.9333ZM90.7018 151.169C92.7385 153.391 95.5487 154.302 98.6373 154.302V148.302C96.7338 148.302 95.728 147.773 95.1247 147.114L90.7018 151.169ZM98.6373 154.302C101.74 154.302 104.567 153.397 106.609 151.169L102.186 147.114C101.588 147.767 100.575 148.302 98.6373 148.302V154.302ZM106.609 151.169C108.638 148.955 109.377 145.903 109.377 142.59H103.377C103.377 145.132 102.796 146.448 102.186 147.114L106.609 151.169ZM109.377 142.59V128.262H103.377V142.59H109.377ZM106.377 131.262H108.969V125.262H106.377V131.262ZM105.969 128.262V142.698H111.969V128.262H105.969ZM105.969 142.698C105.969 145.785 105.187 147.644 104.085 148.776L108.382 152.963C110.927 150.351 111.969 146.762 111.969 142.698H105.969ZM104.071 148.79C102.974 149.931 101.308 150.678 98.6373 150.678V156.678C102.495 156.678 105.893 155.552 108.396 152.949L104.071 148.79ZM125.001 130.566H128.001C128.001 128.909 126.658 127.566 125.001 127.566V130.566ZM116.145 130.566H113.145C113.145 132.222 114.488 133.566 116.145 133.566V130.566ZM116.145 128.262V125.262C114.488 125.262 113.145 126.605 113.145 128.262H116.145ZM136.521 128.262H139.521C139.521 126.605 138.178 125.262 136.521 125.262V128.262ZM136.521 130.566V133.566C138.178 133.566 139.521 132.222 139.521 130.566H136.521ZM127.665 130.566V127.566C126.008 127.566 124.665 128.909 124.665 130.566H127.665ZM127.665 153.462V156.462C129.322 156.462 130.665 155.118 130.665 153.462H127.665ZM125.001 153.462H122.001C122.001 155.118 123.344 156.462 125.001 156.462V153.462ZM125.001 127.566H116.145V133.566H125.001V127.566ZM119.145 130.566V128.262H113.145V130.566H119.145ZM116.145 131.262H136.521V125.262H116.145V131.262ZM133.521 128.262V130.566H139.521V128.262H133.521ZM136.521 127.566H127.665V133.566H136.521V127.566ZM124.665 130.566V153.462H130.665V130.566H124.665ZM127.665 150.462H125.001V156.462H127.665V150.462ZM128.001 153.462V130.566H122.001V153.462H128.001ZM146.404 150.87L148.553 148.776L146.404 150.87ZM143.668 128.262V125.262C142.012 125.262 140.668 126.605 140.668 128.262H143.668ZM146.332 128.262H149.332C149.332 126.605 147.989 125.262 146.332 125.262V128.262ZM159.796 149.142L162.008 151.169L159.796 149.142ZM161.776 128.262V125.262C160.12 125.262 158.776 126.605 158.776 128.262H161.776ZM164.368 128.262H167.368C167.368 126.605 166.025 125.262 164.368 125.262V128.262ZM161.632 150.87L159.484 148.776C159.479 148.781 159.475 148.786 159.47 148.79L161.632 150.87ZM154.036 150.678C151.368 150.678 149.679 149.932 148.553 148.776L144.256 152.963C146.778 155.552 150.177 156.678 154.036 156.678V150.678ZM148.553 148.776C147.45 147.644 146.668 145.785 146.668 142.698H140.668C140.668 146.762 141.711 150.351 144.256 152.963L148.553 148.776ZM146.668 142.698V128.262H140.668V142.698H146.668ZM143.668 131.262H146.332V125.262H143.668V131.262ZM143.332 128.262V142.59H149.332V128.262H143.332ZM143.332 142.59C143.332 145.903 144.072 148.955 146.101 151.169L150.524 147.114C149.913 146.448 149.332 145.132 149.332 142.59H143.332ZM146.101 151.169C148.138 153.391 150.948 154.302 154.036 154.302V148.302C152.133 148.302 151.127 147.773 150.524 147.114L146.101 151.169ZM154.036 154.302C157.139 154.302 159.966 153.397 162.008 151.169L157.585 147.114C156.987 147.767 155.974 148.302 154.036 148.302V154.302ZM162.008 151.169C164.037 148.955 164.776 145.903 164.776 142.59H158.776C158.776 145.132 158.196 146.448 157.585 147.114L162.008 151.169ZM164.776 142.59V128.262H158.776V142.59H164.776ZM161.776 131.262H164.368V125.262H161.776V131.262ZM161.368 128.262V142.698H167.368V128.262H161.368ZM161.368 142.698C161.368 145.785 160.587 147.644 159.484 148.776L163.781 152.963C166.326 150.351 167.368 146.762 167.368 142.698H161.368ZM159.47 148.79C158.373 149.931 156.707 150.678 154.036 150.678V156.678C157.894 156.678 161.292 155.552 163.795 152.949L159.47 148.79ZM193.204 153.462L190.759 155.2C191.322 155.992 192.233 156.462 193.204 156.462V153.462ZM187.444 145.362L189.889 143.623C189.258 142.736 188.195 142.26 187.113 142.38L187.444 145.362ZM178.66 145.47V142.47C177.003 142.47 175.66 143.813 175.66 145.47H178.66ZM178.66 153.462V156.462C180.317 156.462 181.66 155.118 181.66 153.462H178.66ZM175.996 153.462H172.996C172.996 155.118 174.339 156.462 175.996 156.462V153.462ZM175.996 128.262V125.262C174.339 125.262 172.996 126.605 172.996 128.262H175.996ZM192.988 130.566L191.056 132.86L192.988 130.566ZM194.212 141.906L191.797 140.126L191.792 140.133L194.212 141.906ZM189.964 144.822L189.038 141.968C188.129 142.263 187.415 142.974 187.115 143.881C186.816 144.788 186.966 145.784 187.521 146.562L189.964 144.822ZM196.12 153.462V156.462C197.243 156.462 198.272 155.834 198.787 154.836C199.301 153.838 199.215 152.636 198.563 151.721L196.12 153.462ZM191.08 141.546L193.005 143.847L191.08 141.546ZM191.08 132.222L189.156 134.523C189.164 134.53 189.172 134.537 189.18 134.544L191.08 132.222ZM178.66 130.566V127.566C177.003 127.566 175.66 128.909 175.66 130.566H178.66ZM178.66 143.202H175.66C175.66 144.858 177.003 146.202 178.66 146.202V143.202ZM195.649 151.723L189.889 143.623L184.999 147.1L190.759 155.2L195.649 151.723ZM187.113 142.38C186.582 142.439 186.021 142.47 185.428 142.47V148.47C186.228 148.47 187.01 148.428 187.775 148.343L187.113 142.38ZM185.428 142.47H178.66V148.47H185.428V142.47ZM175.66 145.47V153.462H181.66V145.47H175.66ZM178.66 150.462H175.996V156.462H178.66V150.462ZM178.996 153.462V128.262H172.996V153.462H178.996ZM175.996 131.262H185.428V125.262H175.996V131.262ZM185.428 131.262C188.185 131.262 189.936 131.917 191.056 132.86L194.921 128.271C192.393 126.142 189.104 125.262 185.428 125.262V131.262ZM191.056 132.86C192.112 133.75 192.724 134.972 192.724 136.902H198.724C198.724 133.455 197.513 130.454 194.921 128.271L191.056 132.86ZM192.724 136.902C192.724 138.334 192.367 139.352 191.797 140.126L196.627 143.685C198.073 141.723 198.724 139.405 198.724 136.902H192.724ZM191.792 140.133C191.239 140.888 190.39 141.529 189.038 141.968L190.891 147.675C193.235 146.914 195.217 145.611 196.633 143.678L191.792 140.133ZM187.521 146.562L193.677 155.202L198.563 151.721L192.407 143.081L187.521 146.562ZM196.12 150.462H193.204V156.462H196.12V150.462ZM185.356 146.202C188.246 146.202 190.948 145.567 193.005 143.847L189.156 139.244C188.573 139.732 187.458 140.202 185.356 140.202V146.202ZM193.005 143.847C195.118 142.08 196.06 139.626 196.06 136.902H190.06C190.06 138.161 189.683 138.804 189.156 139.244L193.005 143.847ZM196.06 136.902C196.06 134.157 195.135 131.663 192.98 129.9L189.18 134.544C189.666 134.941 190.06 135.566 190.06 136.902H196.06ZM193.005 129.92C190.948 128.2 188.246 127.566 185.356 127.566V133.566C187.458 133.566 188.573 134.035 189.156 134.523L193.005 129.92ZM185.356 127.566H178.66V133.566H185.356V127.566ZM175.66 130.566V143.202H181.66V130.566H175.66ZM178.66 146.202H185.356V140.202H178.66V146.202ZM223.432 151.158H226.432C226.432 149.501 225.089 148.158 223.432 148.158V151.158ZM223.432 153.462V156.462C225.089 156.462 226.432 155.118 226.432 153.462H223.432ZM205.612 153.462H202.612C202.612 155.118 203.955 156.462 205.612 156.462V153.462ZM205.612 128.262V125.262C203.955 125.262 202.612 126.605 202.612 128.262H205.612ZM222.892 128.262H225.892C225.892 126.605 224.549 125.262 222.892 125.262V128.262ZM222.892 130.566V133.566C224.549 133.566 225.892 132.222 225.892 130.566H222.892ZM208.276 130.566V127.566C206.619 127.566 205.276 128.909 205.276 130.566H208.276ZM208.276 139.53H205.276C205.276 141.186 206.619 142.53 208.276 142.53V139.53ZM221.308 139.53H224.308C224.308 137.873 222.965 136.53 221.308 136.53V139.53ZM221.308 141.798V144.798C222.965 144.798 224.308 143.454 224.308 141.798H221.308ZM208.276 141.798V138.798C206.619 138.798 205.276 140.141 205.276 141.798H208.276ZM208.276 151.158H205.276C205.276 152.814 206.619 154.158 208.276 154.158V151.158ZM220.432 151.158V153.462H226.432V151.158H220.432ZM223.432 150.462H205.612V156.462H223.432V150.462ZM208.612 153.462V128.262H202.612V153.462H208.612ZM205.612 131.262H222.892V125.262H205.612V131.262ZM219.892 128.262V130.566H225.892V128.262H219.892ZM222.892 127.566H208.276V133.566H222.892V127.566ZM205.276 130.566V139.53H211.276V130.566H205.276ZM208.276 142.53H221.308V136.53H208.276V142.53ZM218.308 139.53V141.798H224.308V139.53H218.308ZM221.308 138.798H208.276V144.798H221.308V138.798ZM205.276 141.798V151.158H211.276V141.798H205.276ZM208.276 154.158H223.432V148.158H208.276V154.158Z" fill="white"/>
<path d="M110.28 164.658H105.08V164.278H115.88V164.658H110.68V178.278H110.28V164.658ZM129.937 177.898V178.278H120.617V164.278H129.637V164.658H121.017V170.978H128.737V171.358H121.017V177.898H129.937ZM146.976 164.278V178.278H146.636L136.376 165.018V178.278H135.976V164.278H136.316L146.576 177.538V164.278H146.976ZM157.725 178.338C156.711 178.338 155.758 178.158 154.865 177.798C153.971 177.424 153.285 176.944 152.805 176.358L153.085 176.098C153.538 176.631 154.185 177.078 155.025 177.438C155.865 177.784 156.758 177.958 157.705 177.958C159.158 177.958 160.251 177.671 160.985 177.098C161.731 176.511 162.105 175.758 162.105 174.838C162.105 174.118 161.911 173.544 161.525 173.118C161.138 172.691 160.658 172.371 160.085 172.158C159.525 171.944 158.765 171.724 157.805 171.498C156.778 171.244 155.965 171.004 155.365 170.778C154.765 170.538 154.251 170.178 153.825 169.698C153.411 169.204 153.205 168.551 153.205 167.738C153.205 167.098 153.371 166.511 153.705 165.978C154.038 165.444 154.558 165.018 155.265 164.698C155.971 164.378 156.845 164.218 157.885 164.218C158.631 164.218 159.365 164.338 160.085 164.578C160.805 164.804 161.425 165.111 161.945 165.498L161.725 165.818C161.178 165.418 160.565 165.118 159.885 164.918C159.218 164.704 158.558 164.598 157.905 164.598C156.505 164.598 155.438 164.898 154.705 165.498C153.971 166.084 153.605 166.838 153.605 167.758C153.605 168.478 153.798 169.058 154.185 169.498C154.571 169.924 155.051 170.244 155.625 170.458C156.198 170.671 156.971 170.898 157.945 171.138C158.958 171.391 159.765 171.638 160.365 171.878C160.965 172.104 161.471 172.458 161.885 172.938C162.298 173.404 162.505 174.038 162.505 174.838C162.505 175.478 162.331 176.064 161.985 176.598C161.638 177.131 161.105 177.558 160.385 177.878C159.678 178.184 158.791 178.338 157.725 178.338ZM177.636 177.898V178.278H168.316V164.278H177.336V164.658H168.716V170.978H176.436V171.358H168.716V177.898H177.636Z" fill="white"/>
<path d="M110.28 164.658H112.28C112.28 163.553 111.385 162.658 110.28 162.658V164.658ZM105.08 164.658H103.08C103.08 165.762 103.975 166.658 105.08 166.658V164.658ZM105.08 164.278V162.278C103.975 162.278 103.08 163.173 103.08 164.278H105.08ZM115.88 164.278H117.88C117.88 163.173 116.985 162.278 115.88 162.278V164.278ZM115.88 164.658V166.658C116.985 166.658 117.88 165.762 117.88 164.658H115.88ZM110.68 164.658V162.658C109.575 162.658 108.68 163.553 108.68 164.658H110.68ZM110.68 178.278V180.278C111.785 180.278 112.68 179.382 112.68 178.278H110.68ZM110.28 178.278H108.28C108.28 179.382 109.175 180.278 110.28 180.278V178.278ZM110.28 162.658H105.08V166.658H110.28V162.658ZM107.08 164.658V164.278H103.08V164.658H107.08ZM105.08 166.278H115.88V162.278H105.08V166.278ZM113.88 164.278V164.658H117.88V164.278H113.88ZM115.88 162.658H110.68V166.658H115.88V162.658ZM108.68 164.658V178.278H112.68V164.658H108.68ZM110.68 176.278H110.28V180.278H110.68V176.278ZM112.28 178.278V164.658H108.28V178.278H112.28ZM129.937 177.898H131.937C131.937 176.793 131.042 175.898 129.937 175.898V177.898ZM129.937 178.278V180.278C131.042 180.278 131.937 179.382 131.937 178.278H129.937ZM120.617 178.278H118.617C118.617 179.382 119.512 180.278 120.617 180.278V178.278ZM120.617 164.278V162.278C119.512 162.278 118.617 163.173 118.617 164.278H120.617ZM129.637 164.278H131.637C131.637 163.173 130.742 162.278 129.637 162.278V164.278ZM129.637 164.658V166.658C130.742 166.658 131.637 165.762 131.637 164.658H129.637ZM121.017 164.658V162.658C119.912 162.658 119.017 163.553 119.017 164.658H121.017ZM121.017 170.978H119.017C119.017 172.082 119.912 172.978 121.017 172.978V170.978ZM128.737 170.978H130.737C130.737 169.873 129.842 168.978 128.737 168.978V170.978ZM128.737 171.358V173.358C129.842 173.358 130.737 172.462 130.737 171.358H128.737ZM121.017 171.358V169.358C119.912 169.358 119.017 170.253 119.017 171.358H121.017ZM121.017 177.898H119.017C119.017 179.002 119.912 179.898 121.017 179.898V177.898ZM127.937 177.898V178.278H131.937V177.898H127.937ZM129.937 176.278H120.617V180.278H129.937V176.278ZM122.617 178.278V164.278H118.617V178.278H122.617ZM120.617 166.278H129.637V162.278H120.617V166.278ZM127.637 164.278V164.658H131.637V164.278H127.637ZM129.637 162.658H121.017V166.658H129.637V162.658ZM119.017 164.658V170.978H123.017V164.658H119.017ZM121.017 172.978H128.737V168.978H121.017V172.978ZM126.737 170.978V171.358H130.737V170.978H126.737ZM128.737 169.358H121.017V173.358H128.737V169.358ZM119.017 171.358V177.898H123.017V171.358H119.017ZM121.017 179.898H129.937V175.898H121.017V179.898ZM146.976 164.278H148.976C148.976 163.173 148.081 162.278 146.976 162.278V164.278ZM146.976 178.278V180.278C148.081 180.278 148.976 179.382 148.976 178.278H146.976ZM146.636 178.278L145.055 179.502C145.433 179.991 146.017 180.278 146.636 180.278V178.278ZM136.376 165.018L137.958 163.794C137.435 163.117 136.539 162.849 135.73 163.125C134.92 163.402 134.376 164.162 134.376 165.018H136.376ZM136.376 178.278V180.278C137.481 180.278 138.376 179.382 138.376 178.278H136.376ZM135.976 178.278H133.976C133.976 179.382 134.872 180.278 135.976 180.278V178.278ZM135.976 164.278V162.278C134.872 162.278 133.976 163.173 133.976 164.278H135.976ZM136.316 164.278L137.898 163.054C137.519 162.564 136.935 162.278 136.316 162.278V164.278ZM146.576 177.538L144.995 178.762C145.518 179.438 146.414 179.707 147.223 179.43C148.032 179.154 148.576 178.393 148.576 177.538H146.576ZM146.576 164.278V162.278C145.472 162.278 144.576 163.173 144.576 164.278H146.576ZM144.976 164.278V178.278H148.976V164.278H144.976ZM146.976 176.278H146.636V180.278H146.976V176.278ZM148.218 177.054L137.958 163.794L134.795 166.242L145.055 179.502L148.218 177.054ZM134.376 165.018V178.278H138.376V165.018H134.376ZM136.376 176.278H135.976V180.278H136.376V176.278ZM137.976 178.278V164.278H133.976V178.278H137.976ZM135.976 166.278H136.316V162.278H135.976V166.278ZM134.735 165.502L144.995 178.762L148.158 176.314L137.898 163.054L134.735 165.502ZM148.576 177.538V164.278H144.576V177.538H148.576ZM146.576 166.278H146.976V162.278H146.576V166.278ZM154.865 177.798L154.093 179.643C154.101 179.646 154.109 179.65 154.117 179.653L154.865 177.798ZM152.805 176.358L151.444 174.892C150.67 175.611 150.588 176.807 151.257 177.624L152.805 176.358ZM153.085 176.098L154.608 174.802C154.255 174.387 153.747 174.133 153.202 174.101C152.658 174.069 152.123 174.261 151.724 174.632L153.085 176.098ZM155.025 177.438L154.237 179.276C154.245 179.28 154.253 179.283 154.262 179.286L155.025 177.438ZM160.985 177.098L162.216 178.673L162.22 178.67L160.985 177.098ZM161.525 173.118L160.043 174.461L161.525 173.118ZM160.085 172.158L159.373 174.027C159.377 174.029 159.382 174.03 159.387 174.032L160.085 172.158ZM157.805 171.498L157.325 173.439C157.332 173.441 157.338 173.443 157.345 173.444L157.805 171.498ZM155.365 170.778L154.622 172.635C154.634 172.639 154.646 172.644 154.658 172.649L155.365 170.778ZM153.825 169.698L152.291 170.982C152.304 170.997 152.317 171.012 152.33 171.026L153.825 169.698ZM153.705 165.978L155.401 167.038L153.705 165.978ZM160.085 164.578L159.452 166.475C159.463 166.479 159.473 166.482 159.484 166.485L160.085 164.578ZM161.945 165.498L163.593 166.631C164.202 165.744 164.001 164.535 163.138 163.893L161.945 165.498ZM161.725 165.818L160.544 167.432C160.98 167.751 161.527 167.88 162.06 167.789C162.593 167.699 163.066 167.396 163.373 166.951L161.725 165.818ZM159.885 164.918L159.275 166.823C159.29 166.827 159.305 166.832 159.32 166.836L159.885 164.918ZM154.705 165.498L155.954 167.059C155.96 167.055 155.965 167.05 155.971 167.046L154.705 165.498ZM154.185 169.498L152.682 170.818C152.689 170.826 152.696 170.833 152.703 170.841L154.185 169.498ZM155.625 170.458L156.322 168.583L155.625 170.458ZM157.945 171.138L158.43 169.197L158.423 169.196L157.945 171.138ZM160.365 171.878L159.622 173.735C159.634 173.739 159.646 173.744 159.658 173.749L160.365 171.878ZM161.885 172.938L160.369 174.243C160.375 174.25 160.381 174.257 160.387 174.264L161.885 172.938ZM161.985 176.598L160.308 175.508L161.985 176.598ZM160.385 177.878L161.181 179.712C161.186 179.71 161.191 179.708 161.197 179.705L160.385 177.878ZM157.725 176.338C156.954 176.338 156.256 176.202 155.612 175.943L154.117 179.653C155.26 180.113 156.469 180.338 157.725 180.338V176.338ZM155.636 175.952C154.963 175.671 154.575 175.364 154.352 175.091L151.257 177.624C151.994 178.525 152.979 179.177 154.093 179.643L155.636 175.952ZM154.165 177.823L154.445 177.563L151.724 174.632L151.444 174.892L154.165 177.823ZM151.561 177.393C152.266 178.222 153.196 178.83 154.237 179.276L155.812 175.599C155.173 175.325 154.81 175.04 154.608 174.802L151.561 177.393ZM154.262 179.286C155.354 179.737 156.507 179.958 157.705 179.958V175.958C157.009 175.958 156.375 175.832 155.788 175.589L154.262 179.286ZM157.705 179.958C159.369 179.958 160.982 179.638 162.216 178.673L159.753 175.522C159.52 175.704 158.947 175.958 157.705 175.958V179.958ZM162.22 178.67C163.431 177.719 164.105 176.394 164.105 174.838H160.105C160.105 175.121 160.031 175.303 159.749 175.525L162.22 178.67ZM164.105 174.838C164.105 173.751 163.804 172.655 163.007 171.775L160.043 174.461C160.044 174.463 160.046 174.465 160.048 174.469C160.051 174.473 160.057 174.484 160.064 174.507C160.08 174.553 160.105 174.655 160.105 174.838H164.105ZM163.007 171.775C162.391 171.096 161.636 170.601 160.782 170.283L159.387 174.032C159.679 174.141 159.884 174.286 160.043 174.461L163.007 171.775ZM160.797 170.289C160.119 170.031 159.263 169.787 158.264 169.551L157.345 173.444C158.266 173.662 158.93 173.858 159.373 174.027L160.797 170.289ZM158.284 169.556C157.292 169.311 156.565 169.093 156.071 168.907L154.658 172.649C155.364 172.916 156.264 173.178 157.325 173.439L158.284 169.556ZM156.107 168.921C155.794 168.795 155.538 168.615 155.319 168.369L152.33 171.026C152.964 171.74 153.735 172.28 154.622 172.635L156.107 168.921ZM155.358 168.413C155.319 168.367 155.205 168.208 155.205 167.738H151.205C151.205 168.894 151.504 170.042 152.291 170.982L155.358 168.413ZM155.205 167.738C155.205 167.466 155.27 167.247 155.401 167.038L152.009 164.918C151.473 165.775 151.205 166.73 151.205 167.738H155.205ZM155.401 167.038C155.481 166.909 155.658 166.715 156.09 166.52L154.44 162.876C153.458 163.32 152.595 163.979 152.009 164.918L155.401 167.038ZM156.09 166.52C156.465 166.35 157.037 166.218 157.885 166.218V162.218C156.652 162.218 155.478 162.406 154.44 162.876L156.09 166.52ZM157.885 166.218C158.413 166.218 158.933 166.302 159.452 166.475L160.717 162.68C159.796 162.373 158.85 162.218 157.885 162.218V166.218ZM159.484 166.485C160.025 166.656 160.437 166.869 160.751 167.103L163.138 163.893C162.412 163.353 161.584 162.953 160.685 162.67L159.484 166.485ZM160.296 164.365L160.076 164.685L163.373 166.951L163.593 166.631L160.296 164.365ZM162.906 164.204C162.164 163.661 161.34 163.261 160.449 162.999L159.32 166.836C159.789 166.974 160.192 167.174 160.544 167.432L162.906 164.204ZM160.494 163.013C159.644 162.741 158.779 162.598 157.905 162.598V166.598C158.337 166.598 158.791 166.668 159.275 166.823L160.494 163.013ZM157.905 162.598C156.256 162.598 154.665 162.946 153.438 163.95L155.971 167.046C156.211 166.849 156.753 166.598 157.905 166.598V162.598ZM153.455 163.936C152.259 164.893 151.605 166.216 151.605 167.758H155.605C155.605 167.46 155.684 167.276 155.954 167.059L153.455 163.936ZM151.605 167.758C151.605 168.848 151.906 169.934 152.682 170.818L155.687 168.177C155.677 168.167 155.663 168.148 155.647 168.1C155.629 168.047 155.605 167.94 155.605 167.758H151.605ZM152.703 170.841C153.318 171.52 154.073 172.014 154.927 172.332L156.322 168.583C156.03 168.474 155.825 168.329 155.667 168.155L152.703 170.841ZM154.927 172.332C155.602 172.583 156.459 172.831 157.466 173.08L158.423 169.196C157.484 168.964 156.793 168.759 156.322 168.583L154.927 172.332ZM157.459 173.078C158.431 173.321 159.141 173.542 159.622 173.735L161.107 170.021C160.388 169.733 159.484 169.461 158.43 169.197L157.459 173.078ZM159.658 173.749C159.949 173.859 160.177 174.019 160.369 174.243L163.4 171.633C162.766 170.896 161.98 170.35 161.071 170.007L159.658 173.749ZM160.387 174.264C160.393 174.271 160.505 174.384 160.505 174.838H164.505C164.505 173.691 164.202 172.538 163.382 171.612L160.387 174.264ZM160.505 174.838C160.505 175.093 160.442 175.301 160.308 175.508L163.661 177.688C164.22 176.828 164.505 175.862 164.505 174.838H160.505ZM160.308 175.508C160.217 175.647 160.023 175.85 159.572 176.05L161.197 179.705C162.186 179.266 163.059 178.615 163.661 177.688L160.308 175.508ZM159.588 176.043C159.21 176.207 158.616 176.338 157.725 176.338V180.338C158.967 180.338 160.146 180.161 161.181 179.712L159.588 176.043ZM177.636 177.898H179.636C179.636 176.793 178.741 175.898 177.636 175.898V177.898ZM177.636 178.278V180.278C178.741 180.278 179.636 179.382 179.636 178.278H177.636ZM168.316 178.278H166.316C166.316 179.382 167.212 180.278 168.316 180.278V178.278ZM168.316 164.278V162.278C167.212 162.278 166.316 163.173 166.316 164.278H168.316ZM177.336 164.278H179.336C179.336 163.173 178.441 162.278 177.336 162.278V164.278ZM177.336 164.658V166.658C178.441 166.658 179.336 165.762 179.336 164.658H177.336ZM168.716 164.658V162.658C167.612 162.658 166.716 163.553 166.716 164.658H168.716ZM168.716 170.978H166.716C166.716 172.082 167.612 172.978 168.716 172.978V170.978ZM176.436 170.978H178.436C178.436 169.873 177.541 168.978 176.436 168.978V170.978ZM176.436 171.358V173.358C177.541 173.358 178.436 172.462 178.436 171.358H176.436ZM168.716 171.358V169.358C167.612 169.358 166.716 170.253 166.716 171.358H168.716ZM168.716 177.898H166.716C166.716 179.002 167.612 179.898 168.716 179.898V177.898ZM175.636 177.898V178.278H179.636V177.898H175.636ZM177.636 176.278H168.316V180.278H177.636V176.278ZM170.316 178.278V164.278H166.316V178.278H170.316ZM168.316 166.278H177.336V162.278H168.316V166.278ZM175.336 164.278V164.658H179.336V164.278H175.336ZM177.336 162.658H168.716V166.658H177.336V162.658ZM166.716 164.658V170.978H170.716V164.658H166.716ZM168.716 172.978H176.436V168.978H168.716V172.978ZM174.436 170.978V171.358H178.436V170.978H174.436ZM176.436 169.358H168.716V173.358H176.436V169.358ZM166.716 171.358V177.898H170.716V171.358H166.716ZM168.716 179.898H177.636V175.898H168.716V179.898Z" fill="white"/>
</mask>
<g mask="url(#mask0_157_2005)">
<path d="M0 143.389L9.46667 144.649C18.9333 145.948 37.8667 148.468 56.8 145.871C75.7333 143.275 94.6667 135.486 113.6 136.02C132.533 136.517 151.467 145.299 170.4 145.871C189.333 146.444 208.267 138.808 227.2 134.875C246.133 130.904 265.067 130.675 274.533 130.522L284 130.408V320.551H274.533C265.067 320.551 246.133 320.551 227.2 320.551C208.267 320.551 189.333 320.551 170.4 320.551C151.467 320.551 132.533 320.551 113.6 320.551C94.6667 320.551 75.7333 320.551 56.8 320.551C37.8667 320.551 18.9333 320.551 9.46667 320.551H0V143.389Z" fill="white"/>
</g>
</g>
<defs>
<clipPath id="clip0_157_2005">
<rect width="284" height="321" fill="white"/>
</clipPath>
</defs>
</svg>
