<svg width="284" height="324" viewBox="0 0 284 324" fill="none" xmlns="http://www.w3.org/2000/svg">
<g clip-path="url(#clip0_139_135)">
<path d="M284 0H0V322.36H284V0Z" fill="#001220"/>
<path d="M64.768 132.104V142.004H77.8V144.308H64.768V155H62.104V129.8H79.384V132.104H64.768ZM98.637 155.216C95.3733 155.216 92.8293 154.28 91.0053 152.408C89.1813 150.536 88.2693 147.812 88.2693 144.236V129.8H90.9333V144.128C90.9333 147.056 91.5933 149.24 92.9133 150.68C94.2333 152.12 96.141 152.84 98.637 152.84C101.157 152.84 103.077 152.12 104.397 150.68C105.717 149.24 106.377 147.056 106.377 144.128V129.8H108.969V144.236C108.969 147.812 108.057 150.536 106.233 152.408C104.433 154.28 101.901 155.216 98.637 155.216ZM125.001 132.104H116.145V129.8H136.521V132.104H127.665V155H125.001V132.104ZM154.036 155.216C150.772 155.216 148.228 154.28 146.404 152.408C144.58 150.536 143.668 147.812 143.668 144.236V129.8H146.332V144.128C146.332 147.056 146.992 149.24 148.312 150.68C149.632 152.12 151.54 152.84 154.036 152.84C156.556 152.84 158.476 152.12 159.796 150.68C161.116 149.24 161.776 147.056 161.776 144.128V129.8H164.368V144.236C164.368 147.812 163.456 150.536 161.632 152.408C159.832 154.28 157.3 155.216 154.036 155.216ZM193.204 155L187.444 146.9C186.796 146.972 186.124 147.008 185.428 147.008H178.66V155H175.996V129.8H185.428C188.644 129.8 191.164 130.568 192.988 132.104C194.812 133.64 195.724 135.752 195.724 138.44C195.724 140.408 195.22 142.076 194.212 143.444C193.228 144.788 191.812 145.76 189.964 146.36L196.12 155H193.204ZM185.356 144.74C187.852 144.74 189.76 144.188 191.08 143.084C192.4 141.98 193.06 140.432 193.06 138.44C193.06 136.4 192.4 134.84 191.08 133.76C189.76 132.656 187.852 132.104 185.356 132.104H178.66V144.74H185.356ZM223.432 152.696V155H205.612V129.8H222.892V132.104H208.276V141.068H221.308V143.336H208.276V152.696H223.432Z" fill="#80FF80"/>
<path d="M64.768 132.104V129.104C63.1111 129.104 61.768 130.447 61.768 132.104H64.768ZM64.768 142.004H61.768C61.768 143.661 63.1111 145.004 64.768 145.004V142.004ZM77.8 142.004H80.8C80.8 140.347 79.4569 139.004 77.8 139.004V142.004ZM77.8 144.308V147.308C79.4569 147.308 80.8 145.965 80.8 144.308H77.8ZM64.768 144.308V141.308C63.1111 141.308 61.768 142.651 61.768 144.308H64.768ZM64.768 155V158C66.4249 158 67.768 156.657 67.768 155H64.768ZM62.104 155H59.104C59.104 156.657 60.4471 158 62.104 158V155ZM62.104 129.8V126.8C60.4471 126.8 59.104 128.143 59.104 129.8H62.104ZM79.384 129.8H82.384C82.384 128.143 81.0409 126.8 79.384 126.8V129.8ZM79.384 132.104V135.104C81.0409 135.104 82.384 133.761 82.384 132.104H79.384ZM61.768 132.104V142.004H67.768V132.104H61.768ZM64.768 145.004H77.8V139.004H64.768V145.004ZM74.8 142.004V144.308H80.8V142.004H74.8ZM77.8 141.308H64.768V147.308H77.8V141.308ZM61.768 144.308V155H67.768V144.308H61.768ZM64.768 152H62.104V158H64.768V152ZM65.104 155V129.8H59.104V155H65.104ZM62.104 132.8H79.384V126.8H62.104V132.8ZM76.384 129.8V132.104H82.384V129.8H76.384ZM79.384 129.104H64.768V135.104H79.384V129.104ZM91.0052 152.408L93.1539 150.314L91.0052 152.408ZM88.2693 129.8V126.8C86.6124 126.8 85.2693 128.143 85.2693 129.8H88.2693ZM90.9333 129.8H93.9333C93.9333 128.143 92.5901 126.8 90.9333 126.8V129.8ZM104.397 150.68L106.609 152.707L104.397 150.68ZM106.377 129.8V126.8C104.72 126.8 103.377 128.143 103.377 129.8H106.377ZM108.969 129.8H111.969C111.969 128.143 110.626 126.8 108.969 126.8V129.8ZM106.233 152.408L104.085 150.314C104.08 150.319 104.075 150.324 104.071 150.329L106.233 152.408ZM98.637 152.216C95.9688 152.216 94.2798 151.47 93.1539 150.314L88.8566 154.502C91.3787 157.09 94.7777 158.216 98.637 158.216V152.216ZM93.1539 150.314C92.0511 149.183 91.2692 147.323 91.2692 144.236H85.2693C85.2693 148.301 86.3114 151.889 88.8566 154.502L93.1539 150.314ZM91.2692 144.236V129.8H85.2693V144.236H91.2692ZM88.2693 132.8H90.9333V126.8H88.2693V132.8ZM87.9333 129.8V144.128H93.9333V129.8H87.9333ZM87.9333 144.128C87.9333 147.441 88.6724 150.493 90.7018 152.707L95.1247 148.653C94.5141 147.987 93.9333 146.671 93.9333 144.128H87.9333ZM90.7018 152.707C92.7385 154.929 95.5487 155.84 98.637 155.84V149.84C96.734 149.84 95.728 149.311 95.1247 148.653L90.7018 152.707ZM98.637 155.84C101.74 155.84 104.567 154.935 106.609 152.707L102.186 148.653C101.588 149.305 100.575 149.84 98.637 149.84V155.84ZM106.609 152.707C108.638 150.493 109.377 147.441 109.377 144.128H103.377C103.377 146.671 102.796 147.987 102.186 148.653L106.609 152.707ZM109.377 144.128V129.8H103.377V144.128H109.377ZM106.377 132.8H108.969V126.8H106.377V132.8ZM105.969 129.8V144.236H111.969V129.8H105.969ZM105.969 144.236C105.969 147.323 105.187 149.183 104.085 150.314L108.382 154.502C110.927 151.889 111.969 148.301 111.969 144.236H105.969ZM104.071 150.329C102.974 151.469 101.308 152.216 98.637 152.216V158.216C102.495 158.216 105.893 157.091 108.396 154.487L104.071 150.329ZM125.001 132.104H128.001C128.001 130.447 126.658 129.104 125.001 129.104V132.104ZM116.145 132.104H113.145C113.145 133.761 114.488 135.104 116.145 135.104V132.104ZM116.145 129.8V126.8C114.488 126.8 113.145 128.143 113.145 129.8H116.145ZM136.521 129.8H139.521C139.521 128.143 138.178 126.8 136.521 126.8V129.8ZM136.521 132.104V135.104C138.178 135.104 139.521 133.761 139.521 132.104H136.521ZM127.665 132.104V129.104C126.008 129.104 124.665 130.447 124.665 132.104H127.665ZM127.665 155V158C129.322 158 130.665 156.657 130.665 155H127.665ZM125.001 155H122.001C122.001 156.657 123.344 158 125.001 158V155ZM125.001 129.104H116.145V135.104H125.001V129.104ZM119.145 132.104V129.8H113.145V132.104H119.145ZM116.145 132.8H136.521V126.8H116.145V132.8ZM133.521 129.8V132.104H139.521V129.8H133.521ZM136.521 129.104H127.665V135.104H136.521V129.104ZM124.665 132.104V155H130.665V132.104H124.665ZM127.665 152H125.001V158H127.665V152ZM128.001 155V132.104H122.001V155H128.001ZM146.404 152.408L148.553 150.314L146.404 152.408ZM143.668 129.8V126.8C142.012 126.8 140.668 128.143 140.668 129.8H143.668ZM146.332 129.8H149.332C149.332 128.143 147.989 126.8 146.332 126.8V129.8ZM159.796 150.68L162.008 152.707L159.796 150.68ZM161.776 129.8V126.8C160.12 126.8 158.776 128.143 158.776 129.8H161.776ZM164.368 129.8H167.368C167.368 128.143 166.025 126.8 164.368 126.8V129.8ZM161.632 152.408L159.484 150.314C159.479 150.319 159.475 150.324 159.47 150.329L161.632 152.408ZM154.036 152.216C151.368 152.216 149.679 151.47 148.553 150.314L144.256 154.502C146.778 157.09 150.177 158.216 154.036 158.216V152.216ZM148.553 150.314C147.45 149.183 146.668 147.323 146.668 144.236H140.668C140.668 148.301 141.711 151.889 144.256 154.502L148.553 150.314ZM146.668 144.236V129.8H140.668V144.236H146.668ZM143.668 132.8H146.332V126.8H143.668V132.8ZM143.332 129.8V144.128H149.332V129.8H143.332ZM143.332 144.128C143.332 147.441 144.072 150.493 146.101 152.707L150.524 148.653C149.913 147.987 149.332 146.671 149.332 144.128H143.332ZM146.101 152.707C148.138 154.929 150.948 155.84 154.036 155.84V149.84C152.133 149.84 151.127 149.311 150.524 148.653L146.101 152.707ZM154.036 155.84C157.139 155.84 159.966 154.935 162.008 152.707L157.585 148.653C156.987 149.305 155.974 149.84 154.036 149.84V155.84ZM162.008 152.707C164.037 150.493 164.776 147.441 164.776 144.128H158.776C158.776 146.671 158.196 147.987 157.585 148.653L162.008 152.707ZM164.776 144.128V129.8H158.776V144.128H164.776ZM161.776 132.8H164.368V126.8H161.776V132.8ZM161.368 129.8V144.236H167.368V129.8H161.368ZM161.368 144.236C161.368 147.323 160.587 149.183 159.484 150.314L163.781 154.502C166.326 151.889 167.368 148.301 167.368 144.236H161.368ZM159.47 150.329C158.373 151.469 156.707 152.216 154.036 152.216V158.216C157.894 158.216 161.292 157.091 163.795 154.487L159.47 150.329ZM193.204 155L190.759 156.739C191.322 157.53 192.233 158 193.204 158V155ZM187.444 146.9L189.889 145.161C189.258 144.274 188.195 143.798 187.113 143.918L187.444 146.9ZM178.66 147.008V144.008C177.003 144.008 175.66 145.351 175.66 147.008H178.66ZM178.66 155V158C180.317 158 181.66 156.657 181.66 155H178.66ZM175.996 155H172.996C172.996 156.657 174.339 158 175.996 158V155ZM175.996 129.8V126.8C174.339 126.8 172.996 128.143 172.996 129.8H175.996ZM192.988 132.104L191.056 134.399L192.988 132.104ZM194.212 143.444L191.797 141.664L191.792 141.672L194.212 143.444ZM189.964 146.36L189.038 143.507C188.129 143.802 187.415 144.512 187.115 145.419C186.816 146.327 186.966 147.323 187.521 148.101L189.964 146.36ZM196.12 155V158C197.243 158 198.272 157.373 198.787 156.374C199.301 155.376 199.215 154.174 198.563 153.259L196.12 155ZM191.08 143.084L193.005 145.385L191.08 143.084ZM191.08 133.76L189.156 136.061C189.164 136.068 189.172 136.075 189.18 136.082L191.08 133.76ZM178.66 132.104V129.104C177.003 129.104 175.66 130.447 175.66 132.104H178.66ZM178.66 144.74H175.66C175.66 146.397 177.003 147.74 178.66 147.74V144.74ZM195.649 153.261L189.889 145.161L184.999 148.639L190.759 156.739L195.649 153.261ZM187.113 143.918C186.582 143.977 186.021 144.008 185.428 144.008V150.008C186.228 150.008 187.01 149.967 187.775 149.882L187.113 143.918ZM185.428 144.008H178.66V150.008H185.428V144.008ZM175.66 147.008V155H181.66V147.008H175.66ZM178.66 152H175.996V158H178.66V152ZM178.996 155V129.8H172.996V155H178.996ZM175.996 132.8H185.428V126.8H175.996V132.8ZM185.428 132.8C188.185 132.8 189.936 133.456 191.056 134.399L194.921 129.809C192.393 127.68 189.104 126.8 185.428 126.8V132.8ZM191.056 134.399C192.112 135.288 192.724 136.511 192.724 138.44H198.724C198.724 134.993 197.513 131.992 194.921 129.809L191.056 134.399ZM192.724 138.44C192.724 139.873 192.367 140.891 191.797 141.664L196.627 145.224C198.073 143.261 198.724 140.943 198.724 138.44H192.724ZM191.792 141.672C191.239 142.427 190.39 143.068 189.038 143.507L190.891 149.213C193.235 148.452 195.217 147.149 196.633 145.216L191.792 141.672ZM187.521 148.101L193.677 156.741L198.563 153.259L192.407 144.619L187.521 148.101ZM196.12 152H193.204V158H196.12V152ZM185.356 147.74C188.246 147.74 190.948 147.106 193.005 145.385L189.156 140.783C188.573 141.27 187.458 141.74 185.356 141.74V147.74ZM193.005 145.385C195.118 143.618 196.06 141.164 196.06 138.44H190.06C190.06 139.7 189.683 140.342 189.156 140.783L193.005 145.385ZM196.06 138.44C196.06 135.696 195.135 133.201 192.98 131.438L189.18 136.082C189.666 136.479 190.06 137.104 190.06 138.44H196.06ZM193.005 131.459C190.948 129.738 188.246 129.104 185.356 129.104V135.104C187.458 135.104 188.573 135.574 189.156 136.061L193.005 131.459ZM185.356 129.104H178.66V135.104H185.356V129.104ZM175.66 132.104V144.74H181.66V132.104H175.66ZM178.66 147.74H185.356V141.74H178.66V147.74ZM223.432 152.696H226.432C226.432 151.039 225.089 149.696 223.432 149.696V152.696ZM223.432 155V158C225.089 158 226.432 156.657 226.432 155H223.432ZM205.612 155H202.612C202.612 156.657 203.955 158 205.612 158V155ZM205.612 129.8V126.8C203.955 126.8 202.612 128.143 202.612 129.8H205.612ZM222.892 129.8H225.892C225.892 128.143 224.549 126.8 222.892 126.8V129.8ZM222.892 132.104V135.104C224.549 135.104 225.892 133.761 225.892 132.104H222.892ZM208.276 132.104V129.104C206.619 129.104 205.276 130.447 205.276 132.104H208.276ZM208.276 141.068H205.276C205.276 142.725 206.619 144.068 208.276 144.068V141.068ZM221.308 141.068H224.308C224.308 139.411 222.965 138.068 221.308 138.068V141.068ZM221.308 143.336V146.336C222.965 146.336 224.308 144.993 224.308 143.336H221.308ZM208.276 143.336V140.336C206.619 140.336 205.276 141.679 205.276 143.336H208.276ZM208.276 152.696H205.276C205.276 154.353 206.619 155.696 208.276 155.696V152.696ZM220.432 152.696V155H226.432V152.696H220.432ZM223.432 152H205.612V158H223.432V152ZM208.612 155V129.8H202.612V155H208.612ZM205.612 132.8H222.892V126.8H205.612V132.8ZM219.892 129.8V132.104H225.892V129.8H219.892ZM222.892 129.104H208.276V135.104H222.892V129.104ZM205.276 132.104V141.068H211.276V132.104H205.276ZM208.276 144.068H221.308V138.068H208.276V144.068ZM218.308 141.068V143.336H224.308V141.068H218.308ZM221.308 140.336H208.276V146.336H221.308V140.336ZM205.276 143.336V152.696H211.276V143.336H205.276ZM208.276 155.696H223.432V149.696H208.276V155.696Z" fill="#80FF80"/>
<path d="M63.28 104.38H58.08V104H68.88V104.38H63.68V118H63.28V104.38ZM84.617 104V118H84.217V111.08H74.017V118H73.617V104H74.017V110.7H84.217V104H84.617ZM101.265 117.62V118H91.9452V104H100.965V104.38H92.3452V110.7H100.065V111.08H92.3452V117.62H101.265Z" fill="#80FF80"/>
<path d="M63.28 104.38H65.28C65.28 103.275 64.3846 102.38 63.28 102.38V104.38ZM58.08 104.38H56.08C56.08 105.485 56.9754 106.38 58.08 106.38V104.38ZM58.08 104V102C56.9754 102 56.08 102.895 56.08 104H58.08ZM68.88 104H70.88C70.88 102.895 69.9846 102 68.88 102V104ZM68.88 104.38V106.38C69.9846 106.38 70.88 105.485 70.88 104.38H68.88ZM63.68 104.38V102.38C62.5754 102.38 61.68 103.275 61.68 104.38H63.68ZM63.68 118V120C64.7846 120 65.68 119.105 65.68 118H63.68ZM63.28 118H61.28C61.28 119.105 62.1754 120 63.28 120V118ZM63.28 102.38H58.08V106.38H63.28V102.38ZM60.08 104.38V104H56.08V104.38H60.08ZM58.08 106H68.88V102H58.08V106ZM66.88 104V104.38H70.88V104H66.88ZM68.88 102.38H63.68V106.38H68.88V102.38ZM61.68 104.38V118H65.68V104.38H61.68ZM63.68 116H63.28V120H63.68V116ZM65.28 118V104.38H61.28V118H65.28ZM84.617 104H86.617C86.617 102.895 85.7216 102 84.617 102V104ZM84.617 118V120C85.7216 120 86.617 119.105 86.617 118H84.617ZM84.217 118H82.217C82.217 119.105 83.1125 120 84.217 120V118ZM84.217 111.08H86.217C86.217 109.975 85.3216 109.08 84.217 109.08V111.08ZM74.017 111.08V109.08C72.9125 109.08 72.017 109.975 72.017 111.08H74.017ZM74.017 118V120C75.1216 120 76.017 119.105 76.017 118H74.017ZM73.617 118H71.617C71.617 119.105 72.5125 120 73.617 120V118ZM73.617 104V102C72.5125 102 71.617 102.895 71.617 104H73.617ZM74.017 104H76.017C76.017 102.895 75.1216 102 74.017 102V104ZM74.017 110.7H72.017C72.017 111.805 72.9125 112.7 74.017 112.7V110.7ZM84.217 110.7V112.7C85.3216 112.7 86.217 111.805 86.217 110.7H84.217ZM84.217 104V102C83.1125 102 82.217 102.895 82.217 104H84.217ZM82.617 104V118H86.617V104H82.617ZM84.617 116H84.217V120H84.617V116ZM86.217 118V111.08H82.217V118H86.217ZM84.217 109.08H74.017V113.08H84.217V109.08ZM72.017 111.08V118H76.017V111.08H72.017ZM74.017 116H73.617V120H74.017V116ZM75.617 118V104H71.617V118H75.617ZM73.617 106H74.017V102H73.617V106ZM72.017 104V110.7H76.017V104H72.017ZM74.017 112.7H84.217V108.7H74.017V112.7ZM86.217 110.7V104H82.217V110.7H86.217ZM84.217 106H84.617V102H84.217V106ZM101.265 117.62H103.265C103.265 116.515 102.37 115.62 101.265 115.62V117.62ZM101.265 118V120C102.37 120 103.265 119.105 103.265 118H101.265ZM91.9452 118H89.9452C89.9452 119.105 90.8406 120 91.9452 120V118ZM91.9452 104V102C90.8406 102 89.9452 102.895 89.9452 104H91.9452ZM100.965 104H102.965C102.965 102.895 102.07 102 100.965 102V104ZM100.965 104.38V106.38C102.07 106.38 102.965 105.485 102.965 104.38H100.965ZM92.3452 104.38V102.38C91.2406 102.38 90.3452 103.275 90.3452 104.38H92.3452ZM92.3452 110.7H90.3452C90.3452 111.805 91.2406 112.7 92.3452 112.7V110.7ZM100.065 110.7H102.065C102.065 109.595 101.17 108.7 100.065 108.7V110.7ZM100.065 111.08V113.08C101.17 113.08 102.065 112.185 102.065 111.08H100.065ZM92.3452 111.08V109.08C91.2406 109.08 90.3452 109.975 90.3452 111.08H92.3452ZM92.3452 117.62H90.3452C90.3452 118.725 91.2406 119.62 92.3452 119.62V117.62ZM99.265 117.62V118H103.265V117.62H99.265ZM101.265 116H91.9452V120H101.265V116ZM93.9452 118V104H89.9452V118H93.9452ZM91.9452 106H100.965V102H91.9452V106ZM98.965 104V104.38H102.965V104H98.965ZM100.965 102.38H92.3452V106.38H100.965V102.38ZM90.3452 104.38V110.7H94.3452V104.38H90.3452ZM92.3452 112.7H100.065V108.7H92.3452V112.7ZM98.065 110.7V111.08H102.065V110.7H98.065ZM100.065 109.08H92.3452V113.08H100.065V109.08ZM90.3452 111.08V117.62H94.3452V111.08H90.3452ZM92.3452 119.62H101.265V115.62H92.3452V119.62Z" fill="#80FF80"/>
<path d="M0 145.04L9.4667 146.306C18.9333 147.61 37.8667 150.141 56.8 147.533C75.7333 144.925 94.6667 137.101 113.6 137.638C132.533 138.137 151.467 146.958 170.4 147.533C189.333 148.108 208.267 140.438 227.2 136.487C246.133 132.499 265.067 132.268 274.533 132.115L284 132V323H274.533C265.067 323 246.133 323 227.2 323C208.267 323 189.333 323 170.4 323C151.467 323 132.533 323 113.6 323C94.6667 323 75.7333 323 56.8 323C37.8667 323 18.9333 323 9.4667 323H0V145.04Z" fill="#80FF80"/>
<path d="M0 152.547L9.4667 156.803C18.9333 161.019 37.8667 169.532 56.8 173.231C75.7333 176.93 94.6667 175.896 113.6 174.743C132.533 173.629 151.467 172.436 170.4 179.516C189.333 186.636 208.267 201.99 227.2 201.871C246.133 201.752 265.067 186.079 274.533 178.283L284 170.447V322.398H274.533C265.067 322.398 246.133 322.398 227.2 322.398C208.267 322.398 189.333 322.398 170.4 322.398C151.467 322.398 132.533 322.398 113.6 322.398C94.6667 322.398 75.7333 322.398 56.8 322.398C37.8667 322.398 18.9333 322.398 9.4667 322.398H0V152.547Z" fill="#63F361"/>
<path d="M0 230.113V206C9.4667 204.21 29.6 218.896 56.8 219.373C84 219.851 94.6667 212.213 113.6 212.293C132.533 212.333 151.467 216.072 170.4 219.851C189.333 223.63 208.267 227.448 227.2 222.078C246.133 216.708 269.327 210.224 284 197.098V322.398H274.533C265.067 322.398 246.133 322.398 227.2 322.398C208.267 322.398 189.333 322.398 170.4 322.398C151.467 322.398 132.533 322.398 113.6 322.398C94.6667 322.398 75.7333 322.398 56.8 322.398C37.8667 322.398 18.9333 322.398 9.4667 322.398H0V230.113Z" fill="#48E145"/>
<path d="M0 235.284L9.4667 237.552C18.9333 239.779 37.8667 244.314 56.8 246.502C75.7333 248.69 94.6667 248.53 113.6 244.314C132.533 240.058 147.825 235.951 170.4 234.887C192.619 233.839 209.213 234.887 227.2 238.745C245.187 242.604 274.533 248.769 284 255.969V267.902V322.398H274.533C265.067 322.398 246.133 322.398 227.2 322.398C208.267 322.398 189.333 322.398 170.4 322.398C151.467 322.398 132.533 322.398 113.6 322.398C94.6667 322.398 75.7333 322.398 56.8 322.398C37.8667 322.398 18.9333 322.398 9.4667 322.398H0V235.284Z" fill="#30CE2D"/>
<path d="M0 296.004L9.4667 296.681C18.9333 297.317 37.8667 298.67 56.8 296.919C75.7333 295.209 94.6667 290.436 113.6 284.071C132.533 277.707 151.467 269.751 170.4 268.041C189.333 266.29 208.267 270.825 227.2 270.666C246.133 270.547 265.067 265.773 274.533 263.387L284 261V323.451H274.533C265.067 323.451 246.133 323.451 227.2 323.451C208.267 323.451 189.333 323.451 170.4 323.451C151.467 323.451 132.533 323.451 113.6 323.451C94.6667 323.451 75.7333 323.451 56.8 323.451C37.8667 323.451 18.9333 323.451 9.4667 323.451H0V296.004Z" fill="#00C200"/>
<path d="M76.7272 198.2V196.2C75.6226 196.2 74.7272 197.095 74.7272 198.2H76.7272ZM77.9512 198.2H79.9512C79.9512 197.095 79.0558 196.2 77.9512 196.2V198.2ZM77.9512 213.896H75.9512C75.9512 215.001 76.8466 215.896 77.9512 215.896V213.896ZM87.6232 213.896H89.6232C89.6232 212.791 88.7278 211.896 87.6232 211.896V213.896ZM87.6232 215V217C88.7278 217 89.6232 216.105 89.6232 215H87.6232ZM76.7272 215H74.7272C74.7272 216.105 75.6226 217 76.7272 217V215ZM76.7272 200.2H77.9512V196.2H76.7272V200.2ZM75.9512 198.2V213.896H79.9512V198.2H75.9512ZM77.9512 215.896H87.6232V211.896H77.9512V215.896ZM85.6232 213.896V215H89.6232V213.896H85.6232ZM87.6232 213H76.7272V217H87.6232V213ZM78.7272 215V198.2H74.7272V215H78.7272ZM104.758 213.896H106.758C106.758 212.791 105.863 211.896 104.758 211.896V213.896ZM104.758 215V217C105.863 217 106.758 216.105 106.758 215H104.758ZM93.1663 215H91.1663C91.1663 216.105 92.0617 217 93.1663 217V215ZM93.1663 198.2V196.2C92.0617 196.2 91.1663 197.095 91.1663 198.2H93.1663ZM104.398 198.2H106.398C106.398 197.095 105.503 196.2 104.398 196.2V198.2ZM104.398 199.304V201.304C105.503 201.304 106.398 200.409 106.398 199.304H104.398ZM94.3903 199.304V197.304C93.2857 197.304 92.3903 198.199 92.3903 199.304H94.3903ZM94.3903 205.928H92.3903C92.3903 207.033 93.2857 207.928 94.3903 207.928V205.928ZM103.342 205.928H105.342C105.342 204.823 104.447 203.928 103.342 203.928V205.928ZM103.342 207.008V209.008C104.447 209.008 105.342 208.113 105.342 207.008H103.342ZM94.3903 207.008V205.008C93.2857 205.008 92.3903 205.903 92.3903 207.008H94.3903ZM94.3903 213.896H92.3903C92.3903 215.001 93.2857 215.896 94.3903 215.896V213.896ZM102.758 213.896V215H106.758V213.896H102.758ZM104.758 213H93.1663V217H104.758V213ZM95.1663 215V198.2H91.1663V215H95.1663ZM93.1663 200.2H104.398V196.2H93.1663V200.2ZM102.398 198.2V199.304H106.398V198.2H102.398ZM104.398 197.304H94.3903V201.304H104.398V197.304ZM92.3903 199.304V205.928H96.39V199.304H92.3903ZM94.3903 207.928H103.342V203.928H94.3903V207.928ZM101.342 205.928V207.008H105.342V205.928H101.342ZM103.342 205.008H94.3903V209.008H103.342V205.008ZM92.3903 207.008V213.896H96.39V207.008H92.3903ZM94.3903 215.896H104.758V211.896H94.3903V215.896ZM121.409 199.304V197.304C120.304 197.304 119.409 198.199 119.409 199.304H121.409ZM121.409 206.48H119.409C119.409 207.585 120.304 208.48 121.409 208.48V206.48ZM130.361 206.48H132.361C132.361 205.375 131.466 204.48 130.361 204.48V206.48ZM130.361 207.584V209.584C131.466 209.584 132.361 208.689 132.361 207.584H130.361ZM121.409 207.584V205.584C120.304 205.584 119.409 206.479 119.409 207.584H121.409ZM121.409 215V217C122.514 217 123.409 216.105 123.409 215H121.409ZM120.185 215H118.185C118.185 216.105 119.08 217 120.185 217V215ZM120.185 198.2V196.2C119.08 196.2 118.185 197.095 118.185 198.2H120.185ZM131.417 198.2H133.417C133.417 197.095 132.522 196.2 131.417 196.2V198.2ZM131.417 199.304V201.304C132.522 201.304 133.417 200.409 133.417 199.304H131.417ZM119.409 199.304V206.48H123.409V199.304H119.409ZM121.409 208.48H130.361V204.48H121.409V208.48ZM128.361 206.48V207.584H132.361V206.48H128.361ZM130.361 205.584H121.409V209.584H130.361V205.584ZM119.409 207.584V215H123.409V207.584H119.409ZM121.409 213H120.185V217H121.409V213ZM122.185 215V198.2H118.185V215H122.185ZM120.185 200.2H131.417V196.2H120.185V200.2ZM129.417 198.2V199.304H133.417V198.2H129.417ZM131.417 197.304H121.409V201.304H131.417V197.304ZM139.334 213.272L137.882 214.648L137.892 214.658L139.334 213.272ZM137.582 198.2V196.2C136.477 196.2 135.582 197.095 135.582 198.2H137.582ZM138.806 198.2H140.806C140.806 197.095 139.91 196.2 138.806 196.2V198.2ZM140.222 212.456L138.751 213.812L140.222 212.456ZM148.406 212.456L146.935 211.1L148.406 212.456ZM149.822 198.2V196.2C148.717 196.2 147.822 197.095 147.822 198.2H149.822ZM151.046 198.2H153.046C153.046 197.095 152.15 196.2 151.046 196.2V198.2ZM149.27 213.272L147.828 211.886L149.27 213.272ZM144.302 213.12C142.576 213.12 141.494 212.634 140.776 211.886L137.892 214.658C139.541 216.374 141.772 217.12 144.302 217.12V213.12ZM140.785 211.896C140.088 211.161 139.582 209.932 139.582 207.872H135.582C135.582 210.548 136.243 212.919 137.882 214.648L140.785 211.896ZM139.582 207.872V198.2H135.582V207.872H139.582ZM137.582 200.2H138.806V196.2H137.582V200.2ZM136.806 198.2V207.824H140.806V198.2H136.806ZM136.806 207.824C136.806 210.153 137.334 212.274 138.751 213.812L141.692 211.1C141.221 210.59 140.806 209.623 140.806 207.824H136.806ZM138.751 213.812C140.175 215.356 142.145 215.992 144.326 215.992V211.992C142.923 211.992 142.156 211.604 141.692 211.1L138.751 213.812ZM144.326 215.992C146.497 215.992 148.455 215.353 149.876 213.812L146.935 211.1C146.468 211.607 145.706 211.992 144.326 211.992V215.992ZM149.876 213.812C151.293 212.274 151.822 210.153 151.822 207.824H147.822C147.822 209.623 147.406 210.59 146.935 211.1L149.876 213.812ZM151.822 207.824V198.2H147.822V207.824H151.822ZM149.822 200.2H151.046V196.2H149.822V200.2ZM149.046 198.2V207.872H153.046V198.2H149.046ZM149.046 207.872C149.046 209.925 148.535 211.15 147.828 211.886L150.712 214.658C152.373 212.93 153.046 210.555 153.046 207.872H149.046ZM147.828 211.886C147.109 212.634 146.028 213.12 144.302 213.12V217.12C146.832 217.12 149.062 216.374 150.712 214.658L147.828 211.886ZM162.045 199.304H164.045C164.045 198.199 163.149 197.304 162.045 197.304V199.304ZM155.997 199.304H153.997C153.997 200.409 154.892 201.304 155.997 201.304V199.304ZM155.997 198.2V196.2C154.892 196.2 153.997 197.095 153.997 198.2H155.997ZM169.317 198.2H171.317C171.317 197.095 170.421 196.2 169.317 196.2V198.2ZM169.317 199.304V201.304C170.421 201.304 171.317 200.409 171.317 199.304H169.317ZM163.269 199.304V197.304C162.164 197.304 161.269 198.199 161.269 199.304H163.269ZM163.269 215V217C164.373 217 165.269 216.105 165.269 215H163.269ZM162.045 215H160.045C160.045 216.105 160.94 217 162.045 217V215ZM162.045 197.304H155.997V201.304H162.045V197.304ZM157.997 199.304V198.2H153.997V199.304H157.997ZM155.997 200.2H169.317V196.2H155.997V200.2ZM167.317 198.2V199.304H171.317V198.2H167.317ZM169.317 197.304H163.269V201.304H169.317V197.304ZM161.269 199.304V215H165.269V199.304H161.269ZM163.269 213H162.045V217H163.269V213ZM164.045 215V199.304H160.045V215H164.045ZM176.032 213.272L174.581 214.648L174.59 214.658L176.032 213.272ZM174.28 198.2V196.2C173.176 196.2 172.28 197.095 172.28 198.2H174.28ZM175.504 198.2H177.504C177.504 197.095 176.609 196.2 175.504 196.2V198.2ZM176.92 212.456L175.45 213.812L176.92 212.456ZM185.104 212.456L183.634 211.1L185.104 212.456ZM186.52 198.2V196.2C185.416 196.2 184.52 197.095 184.52 198.2H186.52ZM187.744 198.2H189.744C189.744 197.095 188.849 196.2 187.744 196.2V198.2ZM185.968 213.272L184.526 211.886L185.968 213.272ZM181 213.12C179.274 213.12 178.193 212.634 177.474 211.886L174.59 214.658C176.239 216.374 178.47 217.12 181 217.12V213.12ZM177.484 211.896C176.787 211.161 176.28 209.932 176.28 207.872H172.28C172.28 210.548 172.942 212.919 174.581 214.648L177.484 211.896ZM176.28 207.872V198.2H172.28V207.872H176.28ZM174.28 200.2H175.504V196.2H174.28V200.2ZM173.504 198.2V207.824H177.504V198.2H173.504ZM173.504 207.824C173.504 210.153 174.033 212.274 175.45 213.812L178.391 211.1C177.92 210.59 177.504 209.623 177.504 207.824H173.504ZM175.45 213.812C176.874 215.356 178.843 215.992 181.024 215.992V211.992C179.621 211.992 178.854 211.604 178.391 211.1L175.45 213.812ZM181.024 215.992C183.195 215.992 185.154 215.353 186.575 213.812L183.634 211.1C183.166 211.607 182.405 211.992 181.024 211.992V215.992ZM186.575 213.812C187.992 212.274 188.52 210.153 188.52 207.824H184.52C184.52 209.623 184.105 210.59 183.634 211.1L186.575 213.812ZM188.52 207.824V198.2H184.52V207.824H188.52ZM186.52 200.2H187.744V196.2H186.52V200.2ZM185.744 198.2V207.872H189.744V198.2H185.744ZM185.744 207.872C185.744 209.925 185.233 211.15 184.526 211.886L187.41 214.658C189.071 212.93 189.744 210.555 189.744 207.872H185.744ZM184.526 211.886C183.807 212.634 182.726 213.12 181 213.12V217.12C183.53 217.12 185.761 216.374 187.41 214.658L184.526 211.886ZM207.519 215L205.891 216.162C206.267 216.688 206.873 217 207.519 217V215ZM203.511 209.384L205.139 208.222C204.708 207.618 203.979 207.303 203.243 207.402L203.511 209.384ZM197.079 209.504V207.504C195.975 207.504 195.079 208.399 195.079 209.504H197.079ZM197.079 215V217C198.184 217 199.079 216.105 199.079 215H197.079ZM195.855 215H193.855C193.855 216.105 194.751 217 195.855 217V215ZM195.855 198.2V196.2C194.751 196.2 193.855 197.095 193.855 198.2H195.855ZM206.847 199.712L205.561 201.243C205.565 201.247 205.569 201.25 205.573 201.253L206.847 199.712ZM207.615 207.224L206.019 206.02L206.015 206.024L207.615 207.224ZM204.711 209.12L204.152 207.2C203.53 207.381 203.034 207.853 202.822 208.465C202.609 209.078 202.707 209.755 203.084 210.282L204.711 209.12ZM208.911 215V217C209.661 217 210.347 216.581 210.69 215.915C211.032 215.249 210.974 214.447 210.539 213.838L208.911 215ZM205.983 207.248L207.261 208.787C207.266 208.782 207.271 208.778 207.276 208.774L205.983 207.248ZM205.983 200.504L204.69 202.03C204.695 202.034 204.7 202.038 204.706 202.043L205.983 200.504ZM197.079 199.304V197.304C195.975 197.304 195.079 198.199 195.079 199.304H197.079ZM197.079 208.424H195.079C195.079 209.529 195.975 210.424 197.079 210.424V208.424ZM209.147 213.838L205.139 208.222L201.883 210.546L205.891 216.162L209.147 213.838ZM203.243 207.402C202.723 207.472 202.27 207.504 201.879 207.504V211.504C202.481 211.504 203.116 211.456 203.779 211.366L203.243 207.402ZM201.879 207.504H197.079V211.504H201.879V207.504ZM195.079 209.504V215H199.079V209.504H195.079ZM197.079 213H195.855V217H197.079V213ZM197.855 215V198.2H193.855V215H197.855ZM195.855 200.2H201.879V196.2H195.855V200.2ZM201.879 200.2C203.685 200.2 204.83 200.629 205.561 201.243L208.134 198.181C206.465 196.779 204.298 196.2 201.879 196.2V200.2ZM205.573 201.253C206.245 201.809 206.647 202.59 206.647 203.864H210.647C210.647 201.586 209.849 199.599 208.122 198.171L205.573 201.253ZM206.647 203.864C206.647 204.831 206.404 205.509 206.019 206.02L209.212 208.428C210.203 207.115 210.647 205.553 210.647 203.864H206.647ZM206.015 206.024C205.647 206.516 205.076 206.931 204.152 207.2L205.27 211.04C206.875 210.573 208.24 209.724 209.215 208.424L206.015 206.024ZM203.084 210.282L207.284 216.162L210.539 213.838L206.339 207.958L203.084 210.282ZM208.911 213H207.519V217H208.911V213ZM201.879 210.424C203.929 210.424 205.825 209.979 207.261 208.787L204.706 205.709C204.254 206.085 203.414 206.424 201.879 206.424V210.424ZM207.276 208.774C208.75 207.525 209.399 205.793 209.399 203.864H205.399C205.399 204.847 205.105 205.371 204.69 205.722L207.276 208.774ZM209.399 203.864C209.399 201.936 208.749 200.201 207.261 198.965L204.706 202.043C205.105 202.375 205.399 202.88 205.399 203.864H209.399ZM207.276 198.978C205.839 197.76 203.937 197.304 201.879 197.304V201.304C203.405 201.304 204.239 201.648 204.69 202.03L207.276 198.978ZM201.879 197.304H197.079V201.304H201.879V197.304ZM195.079 199.304V208.424H199.079V199.304H195.079ZM197.079 210.424H201.879V206.424H197.079V210.424ZM74.3411 239.272L76.1602 238.441C75.8349 237.729 75.124 237.272 74.3411 237.272V239.272ZM64.5971 239.272V237.272C63.8111 237.272 63.0981 237.732 62.7745 238.449L64.5971 239.272ZM62.4611 244V246C63.247 246 63.9601 245.54 64.2837 244.823L62.4611 244ZM61.1411 244L59.3241 243.164C59.0393 243.783 59.0894 244.505 59.4571 245.079C59.8248 245.653 60.4595 246 61.1411 246V244ZM68.8691 227.2V225.2C68.0881 225.2 67.3785 225.655 67.0521 226.364L68.8691 227.2ZM70.0931 227.2L71.9101 226.364C71.5837 225.655 70.8741 225.2 70.0931 225.2V227.2ZM77.8211 244V246C78.5027 246 79.1374 245.653 79.5051 245.079C79.8728 244.505 79.9229 243.783 79.6381 243.164L77.8211 244ZM76.5011 244L74.6819 244.831C75.0073 245.543 75.7182 246 76.5011 246V244ZM73.8851 238.24V240.24C74.5654 240.24 75.199 239.894 75.567 239.322C75.9351 238.75 75.9872 238.03 75.7052 237.411L73.8851 238.24ZM69.4691 228.544L71.2892 227.715C70.9641 227.001 70.2515 226.543 69.467 226.544C68.6826 226.545 67.971 227.004 67.6473 227.719L69.4691 228.544ZM65.0771 238.24L63.2553 237.415C62.9749 238.034 63.028 238.753 63.3963 239.324C63.7645 239.895 64.3976 240.24 65.0771 240.24V238.24ZM74.3411 237.272H64.5971V241.272H74.3411V237.272ZM62.7745 238.449L60.6385 243.177L64.2837 244.823L66.4197 240.095L62.7745 238.449ZM62.4611 242H61.1411V246H62.4611V242ZM62.9581 244.836L70.6861 228.036L67.0521 226.364L59.3241 243.164L62.9581 244.836ZM68.8691 229.2H70.0931V225.2H68.8691V229.2ZM68.2761 228.036L76.0041 244.836L79.6381 243.164L71.9101 226.364L68.2761 228.036ZM77.8211 242H76.5011V246H77.8211V242ZM78.3202 243.169L76.1602 238.441L72.5219 240.103L74.6819 244.831L78.3202 243.169ZM75.7052 237.411L71.2892 227.715L67.649 229.373L72.065 239.069L75.7052 237.411ZM67.6473 227.719L63.2553 237.415L66.8989 239.065L71.2909 229.369L67.6473 227.719ZM65.0771 240.24H73.8851V236.24H65.0771V240.24ZM96.951 227.2H98.951C98.951 226.095 98.056 225.2 96.951 225.2V227.2ZM96.951 244V246C98.056 246 98.951 245.105 98.951 244H96.951ZM95.943 244L94.3694 245.235C94.7486 245.718 95.3287 246 95.943 246V244ZM84.495 229.408L86.0685 228.174C85.5421 227.502 84.648 227.239 83.8419 227.518C83.0358 227.796 82.495 228.555 82.495 229.408H84.495ZM84.495 244V246C85.5995 246 86.495 245.105 86.495 244H84.495ZM83.271 244H81.271C81.271 245.105 82.1664 246 83.271 246V244ZM83.271 227.2V225.2C82.1664 225.2 81.271 226.095 81.271 227.2H83.271ZM84.303 227.2L85.8778 225.967C85.4987 225.483 84.9179 225.2 84.303 225.2V227.2ZM95.727 241.792L94.1522 243.025C94.6782 243.697 95.5724 243.961 96.379 243.683C97.186 243.405 97.727 242.645 97.727 241.792H95.727ZM95.727 227.2V225.2C94.6224 225.2 93.727 226.095 93.727 227.2H95.727ZM94.951 227.2V244H98.951V227.2H94.951ZM96.951 242H95.943V246H96.951V242ZM97.517 242.765L86.0685 228.174L82.9214 230.642L94.3694 245.235L97.517 242.765ZM82.495 229.408V244H86.495V229.408H82.495ZM84.495 242H83.271V246H84.495V242ZM85.271 244V227.2H81.271V244H85.271ZM83.271 229.2H84.303V225.2H83.271V229.2ZM82.7282 228.433L94.1522 243.025L97.302 240.559L85.8778 225.967L82.7282 228.433ZM97.727 241.792V227.2H93.727V241.792H97.727ZM95.727 229.2H96.951V225.2H95.727V229.2ZM108.434 228.304H110.434C110.434 227.199 109.538 226.304 108.434 226.304V228.304ZM102.386 228.304H100.386C100.386 229.409 101.281 230.304 102.386 230.304V228.304ZM102.386 227.2V225.2C101.281 225.2 100.386 226.095 100.386 227.2H102.386ZM115.706 227.2H117.706C117.706 226.095 116.81 225.2 115.706 225.2V227.2ZM115.706 228.304V230.304C116.81 230.304 117.706 229.409 117.706 228.304H115.706ZM109.658 228.304V226.304C108.553 226.304 107.658 227.199 107.658 228.304H109.658ZM109.658 244V246C110.762 246 111.658 245.105 111.658 244H109.658ZM108.434 244H106.434C106.434 245.105 107.329 246 108.434 246V244ZM108.434 226.304H102.386V230.304H108.434V226.304ZM104.386 228.304V227.2H100.386V228.304H104.386ZM102.386 229.2H115.706V225.2H102.386V229.2ZM113.706 227.2V228.304H117.706V227.2H113.706ZM115.706 226.304H109.658V230.304H115.706V226.304ZM107.658 228.304V244H111.658V228.304H107.658ZM109.658 242H108.434V246H109.658V242ZM110.434 244V228.304H106.434V244H110.434ZM132.733 242.896H134.733C134.733 241.791 133.838 240.896 132.733 240.896V242.896ZM132.733 244V246C133.838 246 134.733 245.105 134.733 244H132.733ZM121.141 244H119.141C119.141 245.105 120.037 246 121.141 246V244ZM121.141 227.2V225.2C120.037 225.2 119.141 226.095 119.141 227.2H121.141ZM132.373 227.2H134.373C134.373 226.095 133.478 225.2 132.373 225.2V227.2ZM132.373 228.304V230.304C133.478 230.304 134.373 229.409 134.373 228.304H132.373ZM122.365 228.304V226.304C121.261 226.304 120.365 227.199 120.365 228.304H122.365ZM122.365 234.928H120.365C120.365 236.033 121.261 236.928 122.365 236.928V234.928ZM131.317 234.928H133.317C133.317 233.823 132.422 232.928 131.317 232.928V234.928ZM131.317 236.008V238.008C132.422 238.008 133.317 237.113 133.317 236.008H131.317ZM122.365 236.008V234.008C121.261 234.008 120.365 234.903 120.365 236.008H122.365ZM122.365 242.896H120.365C120.365 244.001 121.261 244.896 122.365 244.896V242.896ZM130.733 242.896V244H134.733V242.896H130.733ZM132.733 242H121.141V246H132.733V242ZM123.141 244V227.2H119.141V244H123.141ZM121.141 229.2H132.373V225.2H121.141V229.2ZM130.373 227.2V228.304H134.373V227.2H130.373ZM132.373 226.304H122.365V230.304H132.373V226.304ZM120.365 228.304V234.928H124.365V228.304H120.365ZM122.365 236.928H131.317V232.928H122.365V236.928ZM129.317 234.928V236.008H133.317V234.928H129.317ZM131.317 234.008H122.365V238.008H131.317V234.008ZM120.365 236.008V242.896H124.365V236.008H120.365ZM122.365 244.896H132.733V240.896H122.365V244.896ZM151.26 244L149.632 245.162C150.007 245.688 150.614 246 151.26 246V244ZM147.252 238.384L148.88 237.222C148.449 236.618 147.719 236.303 146.984 236.402L147.252 238.384ZM140.82 238.504V236.504C139.715 236.504 138.82 237.399 138.82 238.504H140.82ZM140.82 244V246C141.925 246 142.82 245.105 142.82 244H140.82ZM139.596 244H137.596C137.596 245.105 138.491 246 139.596 246V244ZM139.596 227.2V225.2C138.491 225.2 137.596 226.095 137.596 227.2H139.596ZM150.588 228.712L149.302 230.243C149.306 230.247 149.31 230.25 149.314 230.253L150.588 228.712ZM151.356 236.224L149.759 235.02L149.756 235.024L151.356 236.224ZM148.452 238.12L147.893 236.2C147.271 236.381 146.775 236.853 146.562 237.465C146.35 238.078 146.448 238.755 146.825 239.282L148.452 238.12ZM152.652 244V246C153.401 246 154.087 245.581 154.43 244.915C154.773 244.249 154.715 243.447 154.279 242.838L152.652 244ZM149.724 236.248L151.002 237.787C151.007 237.782 151.012 237.778 151.017 237.774L149.724 236.248ZM149.724 229.504L148.431 231.03C148.436 231.034 148.441 231.038 148.446 231.043L149.724 229.504ZM140.82 228.304V226.304C139.715 226.304 138.82 227.199 138.82 228.304H140.82ZM140.82 237.424H138.82C138.82 238.529 139.715 239.424 140.82 239.424V237.424ZM152.888 242.838L148.88 237.222L145.624 239.546L149.632 245.162L152.888 242.838ZM146.984 236.402C146.464 236.472 146.01 236.504 145.62 236.504V240.504C146.221 240.504 146.856 240.456 147.52 240.366L146.984 236.402ZM145.62 236.504H140.82V240.504H145.62V236.504ZM138.82 238.504V244H142.82V238.504H138.82ZM140.82 242H139.596V246H140.82V242ZM141.596 244V227.2H137.596V244H141.596ZM139.596 229.2H145.62V225.2H139.596V229.2ZM145.62 229.2C147.426 229.2 148.57 229.629 149.302 230.243L151.874 227.181C150.206 225.779 148.038 225.2 145.62 225.2V229.2ZM149.314 230.253C149.986 230.809 150.388 231.59 150.388 232.864H154.388C154.388 230.586 153.59 228.599 151.862 227.171L149.314 230.253ZM150.388 232.864C150.388 233.831 150.145 234.509 149.759 235.02L152.953 237.428C153.943 236.115 154.388 234.553 154.388 232.864H150.388ZM149.756 235.024C149.387 235.515 148.817 235.931 147.893 236.2L149.011 240.04C150.615 239.573 151.981 238.724 152.956 237.424L149.756 235.024ZM146.825 239.282L151.025 245.162L154.279 242.838L150.079 236.958L146.825 239.282ZM152.652 242H151.26V246H152.652V242ZM145.62 239.424C147.67 239.424 149.565 238.979 151.002 237.787L148.446 234.709C147.995 235.085 147.154 235.424 145.62 235.424V239.424ZM151.017 237.774C152.49 236.525 153.14 234.793 153.14 232.864H149.14C149.14 233.847 148.846 234.371 148.431 234.722L151.017 237.774ZM153.14 232.864C153.14 230.936 152.49 229.201 151.002 227.965L148.446 231.043C148.846 231.375 149.14 231.88 149.14 232.864H153.14ZM151.017 227.978C149.58 226.76 147.678 226.304 145.62 226.304V230.304C147.146 230.304 147.98 230.648 148.431 231.03L151.017 227.978ZM145.62 226.304H140.82V230.304H145.62V226.304ZM138.82 228.304V237.424H142.82V228.304H138.82ZM140.82 239.424H145.62V235.424H140.82V239.424ZM159.269 227.2V225.2C158.165 225.2 157.269 226.095 157.269 227.2H159.269ZM160.493 227.2H162.493C162.493 226.095 161.598 225.2 160.493 225.2V227.2ZM160.493 244V246C161.598 246 162.493 245.105 162.493 244H160.493ZM159.269 244H157.269C157.269 245.105 158.165 246 159.269 246V244ZM159.269 229.2H160.493V225.2H159.269V229.2ZM158.493 227.2V244H162.493V227.2H158.493ZM160.493 242H159.269V246H160.493V242ZM161.269 244V227.2H157.269V244H161.269ZM180.34 242.896H182.34C182.34 241.791 181.444 240.896 180.34 240.896V242.896ZM180.34 244V246C181.444 246 182.34 245.105 182.34 244H180.34ZM168.748 244H166.748C166.748 245.105 167.643 246 168.748 246V244ZM168.748 227.2V225.2C167.643 225.2 166.748 226.095 166.748 227.2H168.748ZM179.98 227.2H181.98C181.98 226.095 181.084 225.2 179.98 225.2V227.2ZM179.98 228.304V230.304C181.084 230.304 181.98 229.409 181.98 228.304H179.98ZM169.972 228.304V226.304C168.867 226.304 167.972 227.199 167.972 228.304H169.972ZM169.972 234.928H167.972C167.972 236.033 168.867 236.928 169.972 236.928V234.928ZM178.924 234.928H180.924C180.924 233.823 180.028 232.928 178.924 232.928V234.928ZM178.924 236.008V238.008C180.028 238.008 180.924 237.113 180.924 236.008H178.924ZM169.972 236.008V234.008C168.867 234.008 167.972 234.903 167.972 236.008H169.972ZM169.972 242.896H167.972C167.972 244.001 168.867 244.896 169.972 244.896V242.896ZM178.34 242.896V244H182.34V242.896H178.34ZM180.34 242H168.748V246H180.34V242ZM170.748 244V227.2H166.748V244H170.748ZM168.748 229.2H179.98V225.2H168.748V229.2ZM177.98 227.2V228.304H181.98V227.2H177.98ZM179.98 226.304H169.972V230.304H179.98V226.304ZM167.972 228.304V234.928H171.972V228.304H167.972ZM169.972 236.928H178.924V232.928H169.972V236.928ZM176.924 234.928V236.008H180.924V234.928H176.924ZM178.924 234.008H169.972V238.008H178.924V234.008ZM167.972 236.008V242.896H171.972V236.008H167.972ZM169.972 244.896H180.34V240.896H169.972V244.896ZM188.81 242.272L187.359 243.648L187.368 243.658L188.81 242.272ZM187.058 227.2V225.2C185.954 225.2 185.058 226.095 185.058 227.2H187.058ZM188.282 227.2H190.282C190.282 226.095 189.387 225.2 188.282 225.2V227.2ZM189.698 241.456L188.228 242.812L189.698 241.456ZM197.882 241.456L196.412 240.1L197.882 241.456ZM199.298 227.2V225.2C198.194 225.2 197.298 226.095 197.298 227.2H199.298ZM200.522 227.2H202.522C202.522 226.095 201.627 225.2 200.522 225.2V227.2ZM198.746 242.272L197.304 240.886L198.746 242.272ZM193.778 242.12C192.052 242.12 190.971 241.634 190.252 240.886L187.368 243.658C189.018 245.374 191.248 246.12 193.778 246.12V242.12ZM190.262 240.896C189.565 240.161 189.058 238.932 189.058 236.872H185.058C185.058 239.548 185.72 241.919 187.359 243.648L190.262 240.896ZM189.058 236.872V227.2H185.058V236.872H189.058ZM187.058 229.2H188.282V225.2H187.058V229.2ZM186.282 227.2V236.824H190.282V227.2H186.282ZM186.282 236.824C186.282 239.153 186.811 241.274 188.228 242.812L191.169 240.1C190.698 239.59 190.282 238.623 190.282 236.824H186.282ZM188.228 242.812C189.652 244.356 191.621 244.992 193.802 244.992V240.992C192.399 240.992 191.633 240.604 191.169 240.1L188.228 242.812ZM193.802 244.992C195.973 244.992 197.932 244.353 199.353 242.812L196.412 240.1C195.945 240.607 195.183 240.992 193.802 240.992V244.992ZM199.353 242.812C200.77 241.274 201.298 239.153 201.298 236.824H197.298C197.298 238.623 196.883 239.59 196.412 240.1L199.353 242.812ZM201.298 236.824V227.2H197.298V236.824H201.298ZM199.298 229.2H200.522V225.2H199.298V229.2ZM198.522 227.2V236.872H202.522V227.2H198.522ZM198.522 236.872C198.522 238.925 198.011 240.15 197.304 240.886L200.188 243.658C201.849 241.93 202.522 239.555 202.522 236.872H198.522ZM197.304 240.886C196.586 241.634 195.504 242.12 193.778 242.12V246.12C196.308 246.12 198.539 245.374 200.188 243.658L197.304 240.886ZM220.297 244L218.67 245.162C219.045 245.688 219.651 246 220.297 246V244ZM216.289 238.384L217.917 237.222C217.486 236.618 216.757 236.303 216.022 236.402L216.289 238.384ZM209.857 238.504V236.504C208.753 236.504 207.857 237.399 207.857 238.504H209.857ZM209.857 244V246C210.962 246 211.857 245.105 211.857 244H209.857ZM208.633 244H206.633C206.633 245.105 207.529 246 208.633 246V244ZM208.633 227.2V225.2C207.529 225.2 206.633 226.095 206.633 227.2H208.633ZM219.625 228.712L218.339 230.243C218.343 230.247 218.347 230.25 218.351 230.253L219.625 228.712ZM220.393 236.224L218.797 235.02L218.793 235.024L220.393 236.224ZM217.489 238.12L216.93 236.2C216.308 236.381 215.812 236.853 215.6 237.465C215.387 238.078 215.485 238.755 215.862 239.282L217.489 238.12ZM221.689 244V246C222.439 246 223.125 245.581 223.468 244.915C223.811 244.249 223.752 243.447 223.317 242.838L221.689 244ZM218.761 236.248L220.039 237.787C220.044 237.782 220.049 237.778 220.055 237.774L218.761 236.248ZM218.761 229.504L217.468 231.03C217.473 231.034 217.479 231.038 217.484 231.043L218.761 229.504ZM209.857 228.304V226.304C208.753 226.304 207.857 227.199 207.857 228.304H209.857ZM209.857 237.424H207.857C207.857 238.529 208.753 239.424 209.857 239.424V237.424ZM221.925 242.838L217.917 237.222L214.662 239.546L218.67 245.162L221.925 242.838ZM216.022 236.402C215.501 236.472 215.048 236.504 214.657 236.504V240.504C215.259 240.504 215.894 240.456 216.557 240.366L216.022 236.402ZM214.657 236.504H209.857V240.504H214.657V236.504ZM207.857 238.504V244H211.857V238.504H207.857ZM209.857 242H208.633V246H209.857V242ZM210.633 244V227.2H206.633V244H210.633ZM208.633 229.2H214.657V225.2H208.633V229.2ZM214.657 229.2C216.463 229.2 217.608 229.629 218.339 230.243L220.912 227.181C219.243 225.779 217.076 225.2 214.657 225.2V229.2ZM218.351 230.253C219.024 230.809 219.425 231.59 219.425 232.864H223.425C223.425 230.586 222.627 228.599 220.9 227.171L218.351 230.253ZM219.425 232.864C219.425 233.831 219.182 234.509 218.797 235.02L221.99 237.428C222.981 236.115 223.425 234.553 223.425 232.864H219.425ZM218.793 235.024C218.425 235.515 217.854 235.931 216.93 236.2L218.049 240.04C219.653 239.573 221.018 238.724 221.993 237.424L218.793 235.024ZM215.862 239.282L220.062 245.162L223.317 242.838L219.117 236.958L215.862 239.282ZM221.689 242H220.297V246H221.689V242ZM214.657 239.424C216.707 239.424 218.603 238.979 220.039 237.787L217.484 234.709C217.032 235.085 216.192 235.424 214.657 235.424V239.424ZM220.055 237.774C221.528 236.525 222.177 234.793 222.177 232.864H218.177C218.177 233.847 217.883 234.371 217.468 234.722L220.055 237.774ZM222.177 232.864C222.177 230.936 221.528 229.201 220.039 227.965L217.484 231.043C217.883 231.375 218.177 231.88 218.177 232.864H222.177ZM220.055 227.978C218.617 226.76 216.715 226.304 214.657 226.304V230.304C216.184 230.304 217.018 230.648 217.468 231.03L220.055 227.978ZM214.657 226.304H209.857V230.304H214.657V226.304ZM207.857 228.304V237.424H211.857V228.304H207.857ZM209.857 239.424H214.657V235.424H209.857V239.424Z" fill="white"/>
<g style="mix-blend-mode:soft-light">
<path d="M47 188H237" stroke="white"/>
</g>
<path d="M124 222.161L128.346 221" stroke="white" stroke-width="3" stroke-linecap="round"/>
<mask id="mask0_139_135" style="mask-type:alpha" maskUnits="userSpaceOnUse" x="47" y="126" width="191" height="57">
<path d="M64.768 132.104V129.104C63.1111 129.104 61.768 130.447 61.768 132.104H64.768ZM64.768 142.004H61.768C61.768 143.661 63.1111 145.004 64.768 145.004V142.004ZM77.8 142.004H80.8C80.8 140.347 79.4569 139.004 77.8 139.004V142.004ZM77.8 144.308V147.308C79.4569 147.308 80.8 145.965 80.8 144.308H77.8ZM64.768 144.308V141.308C63.1111 141.308 61.768 142.651 61.768 144.308H64.768ZM64.768 155V158C66.4249 158 67.768 156.657 67.768 155H64.768ZM62.104 155H59.104C59.104 156.657 60.4471 158 62.104 158V155ZM62.104 129.8V126.8C60.4471 126.8 59.104 128.143 59.104 129.8H62.104ZM79.384 129.8H82.384C82.384 128.143 81.0409 126.8 79.384 126.8V129.8ZM79.384 132.104V135.104C81.0409 135.104 82.384 133.761 82.384 132.104H79.384ZM61.768 132.104V142.004H67.768V132.104H61.768ZM64.768 145.004H77.8V139.004H64.768V145.004ZM74.8 142.004V144.308H80.8V142.004H74.8ZM77.8 141.308H64.768V147.308H77.8V141.308ZM61.768 144.308V155H67.768V144.308H61.768ZM64.768 152H62.104V158H64.768V152ZM65.104 155V129.8H59.104V155H65.104ZM62.104 132.8H79.384V126.8H62.104V132.8ZM76.384 129.8V132.104H82.384V129.8H76.384ZM79.384 129.104H64.768V135.104H79.384V129.104ZM91.0052 152.408L93.1539 150.314L91.0052 152.408ZM88.2693 129.8V126.8C86.6124 126.8 85.2693 128.143 85.2693 129.8H88.2693ZM90.9333 129.8H93.9333C93.9333 128.143 92.5901 126.8 90.9333 126.8V129.8ZM104.397 150.68L106.609 152.707L104.397 150.68ZM106.377 129.8V126.8C104.72 126.8 103.377 128.143 103.377 129.8H106.377ZM108.969 129.8H111.969C111.969 128.143 110.626 126.8 108.969 126.8V129.8ZM106.233 152.408L104.085 150.314C104.08 150.319 104.075 150.324 104.071 150.329L106.233 152.408ZM98.637 152.216C95.9688 152.216 94.2798 151.47 93.1539 150.314L88.8566 154.502C91.3787 157.09 94.7777 158.216 98.637 158.216V152.216ZM93.1539 150.314C92.0511 149.183 91.2692 147.323 91.2692 144.236H85.2693C85.2693 148.301 86.3114 151.889 88.8566 154.502L93.1539 150.314ZM91.2692 144.236V129.8H85.2693V144.236H91.2692ZM88.2693 132.8H90.9333V126.8H88.2693V132.8ZM87.9333 129.8V144.128H93.9333V129.8H87.9333ZM87.9333 144.128C87.9333 147.441 88.6724 150.493 90.7018 152.707L95.1247 148.653C94.5141 147.987 93.9333 146.671 93.9333 144.128H87.9333ZM90.7018 152.707C92.7385 154.929 95.5487 155.84 98.637 155.84V149.84C96.734 149.84 95.728 149.311 95.1247 148.653L90.7018 152.707ZM98.637 155.84C101.74 155.84 104.567 154.935 106.609 152.707L102.186 148.653C101.588 149.305 100.575 149.84 98.637 149.84V155.84ZM106.609 152.707C108.638 150.493 109.377 147.441 109.377 144.128H103.377C103.377 146.671 102.796 147.987 102.186 148.653L106.609 152.707ZM109.377 144.128V129.8H103.377V144.128H109.377ZM106.377 132.8H108.969V126.8H106.377V132.8ZM105.969 129.8V144.236H111.969V129.8H105.969ZM105.969 144.236C105.969 147.323 105.187 149.183 104.085 150.314L108.382 154.502C110.927 151.889 111.969 148.301 111.969 144.236H105.969ZM104.071 150.329C102.974 151.469 101.308 152.216 98.637 152.216V158.216C102.495 158.216 105.893 157.091 108.396 154.487L104.071 150.329ZM125.001 132.104H128.001C128.001 130.447 126.658 129.104 125.001 129.104V132.104ZM116.145 132.104H113.145C113.145 133.761 114.488 135.104 116.145 135.104V132.104ZM116.145 129.8V126.8C114.488 126.8 113.145 128.143 113.145 129.8H116.145ZM136.521 129.8H139.521C139.521 128.143 138.178 126.8 136.521 126.8V129.8ZM136.521 132.104V135.104C138.178 135.104 139.521 133.761 139.521 132.104H136.521ZM127.665 132.104V129.104C126.008 129.104 124.665 130.447 124.665 132.104H127.665ZM127.665 155V158C129.322 158 130.665 156.657 130.665 155H127.665ZM125.001 155H122.001C122.001 156.657 123.344 158 125.001 158V155ZM125.001 129.104H116.145V135.104H125.001V129.104ZM119.145 132.104V129.8H113.145V132.104H119.145ZM116.145 132.8H136.521V126.8H116.145V132.8ZM133.521 129.8V132.104H139.521V129.8H133.521ZM136.521 129.104H127.665V135.104H136.521V129.104ZM124.665 132.104V155H130.665V132.104H124.665ZM127.665 152H125.001V158H127.665V152ZM128.001 155V132.104H122.001V155H128.001ZM146.404 152.408L148.553 150.314L146.404 152.408ZM143.668 129.8V126.8C142.012 126.8 140.668 128.143 140.668 129.8H143.668ZM146.332 129.8H149.332C149.332 128.143 147.989 126.8 146.332 126.8V129.8ZM159.796 150.68L162.008 152.707L159.796 150.68ZM161.776 129.8V126.8C160.12 126.8 158.776 128.143 158.776 129.8H161.776ZM164.368 129.8H167.368C167.368 128.143 166.025 126.8 164.368 126.8V129.8ZM161.632 152.408L159.484 150.314C159.479 150.319 159.475 150.324 159.47 150.329L161.632 152.408ZM154.036 152.216C151.368 152.216 149.679 151.47 148.553 150.314L144.256 154.502C146.778 157.09 150.177 158.216 154.036 158.216V152.216ZM148.553 150.314C147.45 149.183 146.668 147.323 146.668 144.236H140.668C140.668 148.301 141.711 151.889 144.256 154.502L148.553 150.314ZM146.668 144.236V129.8H140.668V144.236H146.668ZM143.668 132.8H146.332V126.8H143.668V132.8ZM143.332 129.8V144.128H149.332V129.8H143.332ZM143.332 144.128C143.332 147.441 144.072 150.493 146.101 152.707L150.524 148.653C149.913 147.987 149.332 146.671 149.332 144.128H143.332ZM146.101 152.707C148.138 154.929 150.948 155.84 154.036 155.84V149.84C152.133 149.84 151.127 149.311 150.524 148.653L146.101 152.707ZM154.036 155.84C157.139 155.84 159.966 154.935 162.008 152.707L157.585 148.653C156.987 149.305 155.974 149.84 154.036 149.84V155.84ZM162.008 152.707C164.037 150.493 164.776 147.441 164.776 144.128H158.776C158.776 146.671 158.196 147.987 157.585 148.653L162.008 152.707ZM164.776 144.128V129.8H158.776V144.128H164.776ZM161.776 132.8H164.368V126.8H161.776V132.8ZM161.368 129.8V144.236H167.368V129.8H161.368ZM161.368 144.236C161.368 147.323 160.587 149.183 159.484 150.314L163.781 154.502C166.326 151.889 167.368 148.301 167.368 144.236H161.368ZM159.47 150.329C158.373 151.469 156.707 152.216 154.036 152.216V158.216C157.894 158.216 161.292 157.091 163.795 154.487L159.47 150.329ZM193.204 155L190.759 156.739C191.322 157.53 192.233 158 193.204 158V155ZM187.444 146.9L189.889 145.161C189.258 144.274 188.195 143.798 187.113 143.918L187.444 146.9ZM178.66 147.008V144.008C177.003 144.008 175.66 145.351 175.66 147.008H178.66ZM178.66 155V158C180.317 158 181.66 156.657 181.66 155H178.66ZM175.996 155H172.996C172.996 156.657 174.339 158 175.996 158V155ZM175.996 129.8V126.8C174.339 126.8 172.996 128.143 172.996 129.8H175.996ZM192.988 132.104L191.056 134.399L192.988 132.104ZM194.212 143.444L191.797 141.664L191.792 141.672L194.212 143.444ZM189.964 146.36L189.038 143.507C188.129 143.802 187.415 144.512 187.115 145.419C186.816 146.327 186.966 147.323 187.521 148.101L189.964 146.36ZM196.12 155V158C197.243 158 198.272 157.373 198.787 156.374C199.301 155.376 199.215 154.174 198.563 153.259L196.12 155ZM191.08 143.084L193.005 145.385L191.08 143.084ZM191.08 133.76L189.156 136.061C189.164 136.068 189.172 136.075 189.18 136.082L191.08 133.76ZM178.66 132.104V129.104C177.003 129.104 175.66 130.447 175.66 132.104H178.66ZM178.66 144.74H175.66C175.66 146.397 177.003 147.74 178.66 147.74V144.74ZM195.649 153.261L189.889 145.161L184.999 148.639L190.759 156.739L195.649 153.261ZM187.113 143.918C186.582 143.977 186.021 144.008 185.428 144.008V150.008C186.228 150.008 187.01 149.967 187.775 149.882L187.113 143.918ZM185.428 144.008H178.66V150.008H185.428V144.008ZM175.66 147.008V155H181.66V147.008H175.66ZM178.66 152H175.996V158H178.66V152ZM178.996 155V129.8H172.996V155H178.996ZM175.996 132.8H185.428V126.8H175.996V132.8ZM185.428 132.8C188.185 132.8 189.936 133.456 191.056 134.399L194.921 129.809C192.393 127.68 189.104 126.8 185.428 126.8V132.8ZM191.056 134.399C192.112 135.288 192.724 136.511 192.724 138.44H198.724C198.724 134.993 197.513 131.992 194.921 129.809L191.056 134.399ZM192.724 138.44C192.724 139.873 192.367 140.891 191.797 141.664L196.627 145.224C198.073 143.261 198.724 140.943 198.724 138.44H192.724ZM191.792 141.672C191.239 142.427 190.39 143.068 189.038 143.507L190.891 149.213C193.235 148.452 195.217 147.149 196.633 145.216L191.792 141.672ZM187.521 148.101L193.677 156.741L198.563 153.259L192.407 144.619L187.521 148.101ZM196.12 152H193.204V158H196.12V152ZM185.356 147.74C188.246 147.74 190.948 147.106 193.005 145.385L189.156 140.783C188.573 141.27 187.458 141.74 185.356 141.74V147.74ZM193.005 145.385C195.118 143.618 196.06 141.164 196.06 138.44H190.06C190.06 139.7 189.683 140.342 189.156 140.783L193.005 145.385ZM196.06 138.44C196.06 135.696 195.135 133.201 192.98 131.438L189.18 136.082C189.666 136.479 190.06 137.104 190.06 138.44H196.06ZM193.005 131.459C190.948 129.738 188.246 129.104 185.356 129.104V135.104C187.458 135.104 188.573 135.574 189.156 136.061L193.005 131.459ZM185.356 129.104H178.66V135.104H185.356V129.104ZM175.66 132.104V144.74H181.66V132.104H175.66ZM178.66 147.74H185.356V141.74H178.66V147.74ZM223.432 152.696H226.432C226.432 151.039 225.089 149.696 223.432 149.696V152.696ZM223.432 155V158C225.089 158 226.432 156.657 226.432 155H223.432ZM205.612 155H202.612C202.612 156.657 203.955 158 205.612 158V155ZM205.612 129.8V126.8C203.955 126.8 202.612 128.143 202.612 129.8H205.612ZM222.892 129.8H225.892C225.892 128.143 224.549 126.8 222.892 126.8V129.8ZM222.892 132.104V135.104C224.549 135.104 225.892 133.761 225.892 132.104H222.892ZM208.276 132.104V129.104C206.619 129.104 205.276 130.447 205.276 132.104H208.276ZM208.276 141.068H205.276C205.276 142.725 206.619 144.068 208.276 144.068V141.068ZM221.308 141.068H224.308C224.308 139.411 222.965 138.068 221.308 138.068V141.068ZM221.308 143.336V146.336C222.965 146.336 224.308 144.993 224.308 143.336H221.308ZM208.276 143.336V140.336C206.619 140.336 205.276 141.679 205.276 143.336H208.276ZM208.276 152.696H205.276C205.276 154.353 206.619 155.696 208.276 155.696V152.696ZM220.432 152.696V155H226.432V152.696H220.432ZM223.432 152H205.612V158H223.432V152ZM208.612 155V129.8H202.612V155H208.612ZM205.612 132.8H222.892V126.8H205.612V132.8ZM219.892 129.8V132.104H225.892V129.8H219.892ZM222.892 129.104H208.276V135.104H222.892V129.104ZM205.276 132.104V141.068H211.276V132.104H205.276ZM208.276 144.068H221.308V138.068H208.276V144.068ZM218.308 141.068V143.336H224.308V141.068H218.308ZM221.308 140.336H208.276V146.336H221.308V140.336ZM205.276 143.336V152.696H211.276V143.336H205.276ZM208.276 155.696H223.432V149.696H208.276V155.696Z" fill="white"/>
<path d="M58.44 167.22L57.1576 168.755C57.1617 168.758 57.1659 168.762 57.1701 168.765L58.44 167.22ZM58.44 174L59.7099 175.545C59.7141 175.542 59.7183 175.538 59.7224 175.535L58.44 174ZM50.06 175.2V173.2C48.9554 173.2 48.06 174.095 48.06 175.2H50.06ZM50.06 180V182C51.1646 182 52.06 181.105 52.06 180H50.06ZM49.66 180H47.66C47.66 181.105 48.5554 182 49.66 182V180ZM49.66 166V164C48.5554 164 47.66 164.895 47.66 166H49.66ZM58.18 173.72L56.8996 172.184C56.8958 172.187 56.8919 172.19 56.8881 172.193L58.18 173.72ZM58.18 167.48L56.8881 169.007C56.8919 169.01 56.8958 169.013 56.8996 169.016L58.18 167.48ZM50.06 166.38V164.38C48.9554 164.38 48.06 165.275 48.06 166.38H50.06ZM50.06 174.82H48.06C48.06 175.925 48.9554 176.82 50.06 176.82V174.82ZM54.4 168C55.8182 168 56.6541 168.334 57.1576 168.755L59.7224 165.685C58.2792 164.479 56.4218 164 54.4 164V168ZM57.1701 168.765C57.6072 169.124 57.9 169.642 57.9 170.6H61.9C61.9 168.651 61.2194 166.916 59.7099 165.675L57.1701 168.765ZM57.9 170.6C57.9 171.557 57.6069 172.09 57.1576 172.465L59.7224 175.535C61.2198 174.283 61.9 172.549 61.9 170.6H57.9ZM57.1701 172.455C56.6661 172.869 55.8253 173.2 54.4 173.2V177.2C56.4147 177.2 58.2672 176.731 59.7099 175.545L57.1701 172.455ZM54.4 173.2H50.06V177.2H54.4V173.2ZM48.06 175.2V180H52.06V175.2H48.06ZM50.06 178H49.66V182H50.06V178ZM51.66 180V166H47.66V180H51.66ZM49.66 168H54.4V164H49.66V168ZM54.44 176.82C56.3386 176.82 58.1156 176.394 59.4719 175.247L56.8881 172.193C56.511 172.512 55.7947 172.82 54.44 172.82V176.82ZM59.4604 175.256C60.8784 174.075 61.5 172.424 61.5 170.6H57.5C57.5 171.469 57.2416 171.899 56.8996 172.184L59.4604 175.256ZM61.5 170.6C61.5 168.776 60.8784 167.125 59.4604 165.944L56.8996 169.016C57.2416 169.301 57.5 169.731 57.5 170.6H61.5ZM59.4719 165.953C58.1156 164.806 56.3386 164.38 54.44 164.38V168.38C55.7947 168.38 56.511 168.688 56.8881 169.007L59.4719 165.953ZM54.44 164.38H50.06V168.38H54.44V164.38ZM48.06 166.38V174.82H52.06V166.38H48.06ZM50.06 176.82H54.44V172.82H50.06V176.82ZM74.9839 179.62H76.9839C76.9839 178.515 76.0885 177.62 74.9839 177.62V179.62ZM74.9839 180V182C76.0885 182 76.9839 181.105 76.9839 180H74.9839ZM65.6639 180H63.6639C63.6639 181.105 64.5593 182 65.6639 182V180ZM65.6639 166V164C64.5593 164 63.6639 164.895 63.6639 166H65.6639ZM74.6839 166H76.6839C76.6839 164.895 75.7885 164 74.6839 164V166ZM74.6839 166.38V168.38C75.7885 168.38 76.6839 167.485 76.6839 166.38H74.6839ZM66.0639 166.38V164.38C64.9593 164.38 64.0639 165.275 64.0639 166.38H66.0639ZM66.0639 172.7H64.0639C64.0639 173.805 64.9593 174.7 66.0639 174.7V172.7ZM73.7839 172.7H75.7839C75.7839 171.595 74.8885 170.7 73.7839 170.7V172.7ZM73.7839 173.08V175.08C74.8885 175.08 75.7839 174.185 75.7839 173.08H73.7839ZM66.0639 173.08V171.08C64.9593 171.08 64.0639 171.975 64.0639 173.08H66.0639ZM66.0639 179.62H64.0639C64.0639 180.725 64.9593 181.62 66.0639 181.62V179.62ZM72.9839 179.62V180H76.9839V179.62H72.9839ZM74.9839 178H65.6639V182H74.9839V178ZM67.6639 180V166H63.6639V180H67.6639ZM65.6639 168H74.6839V164H65.6639V168ZM72.6839 166V166.38H76.6839V166H72.6839ZM74.6839 164.38H66.0639V168.38H74.6839V164.38ZM64.0639 166.38V172.7H68.0639V166.38H64.0639ZM66.0639 174.7H73.7839V170.7H66.0639V174.7ZM71.7839 172.7V173.08H75.7839V172.7H71.7839ZM73.7839 171.08H66.0639V175.08H73.7839V171.08ZM64.0639 173.08V179.62H68.0639V173.08H64.0639ZM66.0639 181.62H74.9839V177.62H66.0639V181.62ZM90.9633 180L89.3407 181.169C89.7166 181.691 90.3203 182 90.9633 182V180ZM87.4033 175.06L89.0259 173.891C88.5675 173.255 87.7798 172.945 87.0111 173.099L87.4033 175.06ZM81.4233 175.2V173.2C80.3187 173.2 79.4233 174.095 79.4233 175.2H81.4233ZM81.4233 180V182C82.5279 182 83.4233 181.105 83.4233 180H81.4233ZM81.0233 180H79.0233C79.0233 181.105 79.9187 182 81.0233 182V180ZM81.0233 166V164C79.9187 164 79.0233 164.895 79.0233 166H81.0233ZM89.8033 167.22L88.5208 168.755C88.525 168.758 88.5292 168.762 88.5334 168.765L89.8033 167.22ZM90.3633 173.42L91.9223 174.673C91.9259 174.668 91.9295 174.664 91.933 174.659L90.3633 173.42ZM87.8233 174.96L87.3271 173.023C86.6862 173.187 86.1679 173.657 85.9427 174.279C85.7175 174.901 85.8146 175.595 86.2019 176.131L87.8233 174.96ZM91.4633 180V182C92.2143 182 92.9021 181.579 93.244 180.911C93.5859 180.242 93.5244 179.438 93.0846 178.829L91.4633 180ZM89.5433 173.72L88.2629 172.184C88.2591 172.187 88.2552 172.19 88.2514 172.193L89.5433 173.72ZM89.5433 167.48L88.2514 169.007C88.2552 169.01 88.2591 169.013 88.2629 169.016L89.5433 167.48ZM81.4233 166.38V164.38C80.3187 164.38 79.4233 165.275 79.4233 166.38H81.4233ZM81.4233 174.82H79.4233C79.4233 175.925 80.3187 176.82 81.4233 176.82V174.82ZM92.5859 178.831L89.0259 173.891L85.7807 176.229L89.3407 181.169L92.5859 178.831ZM87.0111 173.099C86.7067 173.16 86.297 173.2 85.7633 173.2V177.2C86.4829 177.2 87.1666 177.147 87.7955 177.021L87.0111 173.099ZM85.7633 173.2H81.4233V177.2H85.7633V173.2ZM79.4233 175.2V180H83.4233V175.2H79.4233ZM81.4233 178H81.0233V182H81.4233V178ZM83.0233 180V166H79.0233V180H83.0233ZM81.0233 168H85.7633V164H81.0233V168ZM85.7633 168C87.1815 168 88.0174 168.334 88.5208 168.755L91.0857 165.685C89.6425 164.479 87.7851 164 85.7633 164V168ZM88.5334 168.765C88.9705 169.124 89.2633 169.642 89.2633 170.6H93.2633C93.2633 168.651 92.5827 166.916 91.0732 165.675L88.5334 168.765ZM89.2633 170.6C89.2633 171.344 89.0724 171.828 88.7935 172.181L91.933 174.659C92.8542 173.492 93.2633 172.096 93.2633 170.6H89.2633ZM88.8043 172.167C88.5212 172.519 88.0787 172.83 87.3271 173.023L88.3195 176.897C89.7545 176.53 91.0054 175.814 91.9223 174.673L88.8043 172.167ZM86.2019 176.131L89.8419 181.171L93.0846 178.829L89.4446 173.789L86.2019 176.131ZM91.4633 178H90.9633V182H91.4633V178ZM85.8033 176.82C87.7019 176.82 89.4789 176.394 90.8352 175.247L88.2514 172.193C87.8743 172.512 87.158 172.82 85.8033 172.82V176.82ZM90.8237 175.256C92.2416 174.075 92.8633 172.424 92.8633 170.6H88.8633C88.8633 171.469 88.6049 171.899 88.2629 172.184L90.8237 175.256ZM92.8633 170.6C92.8633 168.776 92.2416 167.125 90.8237 165.944L88.2629 169.016C88.6049 169.301 88.8633 169.731 88.8633 170.6H92.8633ZM90.8352 165.953C89.4789 164.806 87.7019 164.38 85.8033 164.38V168.38C87.158 168.38 87.8743 168.688 88.2514 169.007L90.8352 165.953ZM85.8033 164.38H81.4233V168.38H85.8033V164.38ZM79.4233 166.38V174.82H83.4233V166.38H79.4233ZM81.4233 176.82H85.8033V172.82H81.4233V176.82ZM97.74 166.38V164.38C96.635 164.38 95.7397 165.275 95.7397 166.38H97.74ZM97.74 173.1H95.7397C95.7397 174.205 96.635 175.1 97.74 175.1V173.1ZM105.46 173.1H107.46C107.46 171.995 106.564 171.1 105.46 171.1V173.1ZM105.46 173.48V175.48C106.564 175.48 107.46 174.585 107.46 173.48H105.46ZM97.74 173.48V171.48C96.635 171.48 95.7397 172.375 95.7397 173.48H97.74ZM97.74 180V182C98.844 182 99.74 181.105 99.74 180H97.74ZM97.34 180H95.3397C95.3397 181.105 96.235 182 97.34 182V180ZM97.34 166V164C96.235 164 95.3397 164.895 95.3397 166H97.34ZM106.36 166H108.36C108.36 164.895 107.464 164 106.36 164V166ZM106.36 166.38V168.38C107.464 168.38 108.36 167.485 108.36 166.38H106.36ZM95.7397 166.38V173.1H99.74V166.38H95.7397ZM97.74 175.1H105.46V171.1H97.74V175.1ZM103.46 173.1V173.48H107.46V173.1H103.46ZM105.46 171.48H97.74V175.48H105.46V171.48ZM95.7397 173.48V180H99.74V173.48H95.7397ZM97.74 178H97.34V182H97.74V178ZM99.34 180V166H95.3397V180H99.34ZM97.34 168H106.36V164H97.34V168ZM104.36 166V166.38H108.36V166H104.36ZM106.36 164.38H97.74V168.38H106.36V164.38ZM121.238 179.62H123.238C123.238 178.515 122.342 177.62 121.238 177.62V179.62ZM121.238 180V182C122.342 182 123.238 181.105 123.238 180H121.238ZM111.918 180H109.918C109.918 181.105 110.813 182 111.918 182V180ZM111.918 166V164C110.813 164 109.918 164.895 109.918 166H111.918ZM120.938 166H122.938C122.938 164.895 122.042 164 120.938 164V166ZM120.938 166.38V168.38C122.042 168.38 122.938 167.485 122.938 166.38H120.938ZM112.318 166.38V164.38C111.213 164.38 110.318 165.275 110.318 166.38H112.318ZM112.318 172.7H110.318C110.318 173.805 111.213 174.7 112.318 174.7V172.7ZM120.038 172.7H122.038C122.038 171.595 121.142 170.7 120.038 170.7V172.7ZM120.038 173.08V175.08C121.142 175.08 122.038 174.185 122.038 173.08H120.038ZM112.318 173.08V171.08C111.213 171.08 110.318 171.975 110.318 173.08H112.318ZM112.318 179.62H110.318C110.318 180.725 111.213 181.62 112.318 181.62V179.62ZM119.238 179.62V180H123.238V179.62H119.238ZM121.238 178H111.918V182H121.238V178ZM113.918 180V166H109.918V180H113.918ZM111.918 168H120.938V164H111.918V168ZM118.938 166V166.38H122.938V166H118.938ZM120.938 164.38H112.318V168.38H120.938V164.38ZM110.318 166.38V172.7H114.318V166.38H110.318ZM112.318 174.7H120.038V170.7H112.318V174.7ZM118.038 172.7V173.08H122.038V172.7H118.038ZM120.038 171.08H112.318V175.08H120.038V171.08ZM110.318 173.08V179.62H114.318V173.08H110.318ZM112.318 181.62H121.238V177.62H112.318V181.62ZM129.317 179.14L130.296 177.396L129.317 179.14ZM126.737 176.62L125.007 177.624L125.013 177.633L126.737 176.62ZM126.737 169.4L128.462 170.413L128.467 170.404L126.737 169.4ZM129.317 166.86L130.296 168.604L129.317 166.86ZM135.617 166.4L134.912 168.271C134.924 168.276 134.936 168.28 134.948 168.285L135.617 166.4ZM137.737 167.72L139.256 169.022C139.936 168.228 139.89 167.045 139.151 166.306L137.737 167.72ZM137.497 168L136.116 169.447C136.513 169.826 137.049 170.025 137.597 169.997C138.145 169.97 138.658 169.718 139.016 169.302L137.497 168ZM129.517 167.2L128.535 165.458L128.525 165.464L129.517 167.2ZM127.077 169.62L125.35 168.611L125.346 168.618L127.077 169.62ZM127.077 176.4L125.341 177.392C125.346 177.401 125.351 177.41 125.356 177.419L127.077 176.4ZM129.517 178.8L128.525 180.537L128.535 180.542L129.517 178.8ZM137.497 177.98L139.016 176.678C138.658 176.262 138.145 176.01 137.597 175.982C137.048 175.955 136.513 176.154 136.116 176.534L137.497 177.98ZM137.737 178.26L139.151 179.674C139.89 178.935 139.936 177.752 139.256 176.958L137.737 178.26ZM135.617 179.6L134.922 177.725L135.617 179.6ZM132.977 178.06C131.947 178.06 131.068 177.829 130.296 177.396L128.339 180.884C129.753 181.678 131.314 182.06 132.977 182.06V178.06ZM130.296 177.396C129.507 176.953 128.906 176.364 128.462 175.607L125.013 177.633C125.821 179.01 126.941 180.1 128.339 180.884L130.296 177.396ZM128.467 175.616C128.029 174.862 127.797 174.006 127.797 173H123.797C123.797 174.661 124.192 176.218 125.007 177.624L128.467 175.616ZM127.797 173C127.797 171.994 128.029 171.149 128.462 170.413L125.013 168.387C124.192 169.785 123.797 171.339 123.797 173H127.797ZM128.467 170.404C128.913 169.635 129.513 169.043 130.296 168.604L128.339 165.116C126.934 165.903 125.814 167.005 125.007 168.396L128.467 170.404ZM130.296 168.604C131.068 168.171 131.947 167.94 132.977 167.94V163.94C131.314 163.94 129.753 164.322 128.339 165.116L130.296 168.604ZM132.977 167.94C133.704 167.94 134.343 168.057 134.912 168.271L136.323 164.529C135.265 164.13 134.143 163.94 132.977 163.94V167.94ZM134.948 168.285C135.511 168.485 135.959 168.77 136.323 169.134L139.151 166.306C138.342 165.497 137.377 164.902 136.286 164.515L134.948 168.285ZM136.219 166.418L135.979 166.698L139.016 169.302L139.256 169.022L136.219 166.418ZM138.878 166.553C137.282 165.03 135.257 164.32 132.977 164.32V168.32C134.378 168.32 135.366 168.73 136.116 169.447L138.878 166.553ZM132.977 164.32C131.388 164.32 129.893 164.692 128.535 165.458L130.5 168.942C131.222 168.535 132.033 168.32 132.977 168.32V164.32ZM128.525 165.464C127.192 166.225 126.126 167.283 125.35 168.611L128.804 170.629C129.228 169.903 129.789 169.348 130.509 168.936L128.525 165.464ZM125.346 168.618C124.573 169.954 124.197 171.43 124.197 173H128.197C128.197 172.09 128.408 171.313 128.808 170.622L125.346 168.618ZM124.197 173C124.197 174.57 124.573 176.048 125.341 177.392L128.814 175.408C128.408 174.698 128.197 173.91 128.197 173H124.197ZM125.356 177.419C126.134 178.732 127.199 179.779 128.525 180.536L130.509 177.064C129.782 176.648 129.221 176.095 128.798 175.381L125.356 177.419ZM128.535 180.542C129.893 181.308 131.388 181.68 132.977 181.68V177.68C132.033 177.68 131.222 177.465 130.5 177.058L128.535 180.542ZM132.977 181.68C135.255 181.68 137.276 180.956 138.879 179.426L136.116 176.534C135.345 177.27 134.353 177.68 132.977 177.68V181.68ZM135.979 179.282L136.219 179.562L139.256 176.958L139.016 176.678L135.979 179.282ZM136.323 176.846C135.953 177.216 135.496 177.512 134.922 177.725L136.313 181.475C137.392 181.075 138.349 180.477 139.151 179.674L136.323 176.846ZM134.922 177.725C134.33 177.944 133.687 178.06 132.977 178.06V182.06C134.134 182.06 135.251 181.869 136.313 181.475L134.922 177.725ZM148.116 166.38H150.116C150.116 165.275 149.221 164.38 148.116 164.38V166.38ZM142.916 166.38H140.916C140.916 167.485 141.811 168.38 142.916 168.38V166.38ZM142.916 166V164C141.811 164 140.916 164.895 140.916 166H142.916ZM153.716 166H155.716C155.716 164.895 154.821 164 153.716 164V166ZM153.716 166.38V168.38C154.821 168.38 155.716 167.485 155.716 166.38H153.716ZM148.516 166.38V164.38C147.411 164.38 146.516 165.275 146.516 166.38H148.516ZM148.516 180V182C149.621 182 150.516 181.105 150.516 180H148.516ZM148.116 180H146.116C146.116 181.105 147.011 182 148.116 182V180ZM148.116 164.38H142.916V168.38H148.116V164.38ZM144.916 166.38V166H140.916V166.38H144.916ZM142.916 168H153.716V164H142.916V168ZM151.716 166V166.38H155.716V166H151.716ZM153.716 164.38H148.516V168.38H153.716V164.38ZM146.516 166.38V180H150.516V166.38H146.516ZM148.516 178H148.116V182H148.516V178ZM150.116 180V166.38H146.116V180H150.116ZM168.073 166.38H170.073C170.073 165.275 169.178 164.38 168.073 164.38V166.38ZM162.873 166.38H160.873C160.873 167.485 161.768 168.38 162.873 168.38V166.38ZM162.873 166V164C161.768 164 160.873 164.895 160.873 166H162.873ZM173.673 166H175.673C175.673 164.895 174.778 164 173.673 164V166ZM173.673 166.38V168.38C174.778 168.38 175.673 167.485 175.673 166.38H173.673ZM168.473 166.38V164.38C167.368 164.38 166.473 165.275 166.473 166.38H168.473ZM168.473 180V182C169.578 182 170.473 181.105 170.473 180H168.473ZM168.073 180H166.073C166.073 181.105 166.968 182 168.073 182V180ZM168.073 164.38H162.873V168.38H168.073V164.38ZM164.873 166.38V166H160.873V166.38H164.873ZM162.873 168H173.673V164H162.873V168ZM171.673 166V166.38H175.673V166H171.673ZM173.673 164.38H168.473V168.38H173.673V164.38ZM166.473 166.38V180H170.473V166.38H166.473ZM168.473 178H168.073V182H168.473V178ZM170.073 180V166.38H166.073V180H170.073ZM187.73 179.62H189.73C189.73 178.515 188.835 177.62 187.73 177.62V179.62ZM187.73 180V182C188.835 182 189.73 181.105 189.73 180H187.73ZM178.41 180H176.41C176.41 181.105 177.305 182 178.41 182V180ZM178.41 166V164C177.305 164 176.41 164.895 176.41 166H178.41ZM187.43 166H189.43C189.43 164.895 188.535 164 187.43 164V166ZM187.43 166.38V168.38C188.535 168.38 189.43 167.485 189.43 166.38H187.43ZM178.81 166.38V164.38C177.705 164.38 176.81 165.275 176.81 166.38H178.81ZM178.81 172.7H176.81C176.81 173.805 177.705 174.7 178.81 174.7V172.7ZM186.53 172.7H188.53C188.53 171.595 187.635 170.7 186.53 170.7V172.7ZM186.53 173.08V175.08C187.635 175.08 188.53 174.185 188.53 173.08H186.53ZM178.81 173.08V171.08C177.705 171.08 176.81 171.975 176.81 173.08H178.81ZM178.81 179.62H176.81C176.81 180.725 177.705 181.62 178.81 181.62V179.62ZM185.73 179.62V180H189.73V179.62H185.73ZM187.73 178H178.41V182H187.73V178ZM180.41 180V166H176.41V180H180.41ZM178.41 168H187.43V164H178.41V168ZM185.43 166V166.38H189.43V166H185.43ZM187.43 164.38H178.81V168.38H187.43V164.38ZM176.81 166.38V172.7H180.81V166.38H176.81ZM178.81 174.7H186.53V170.7H178.81V174.7ZM184.53 172.7V173.08H188.53V172.7H184.53ZM186.53 171.08H178.81V175.08H186.53V171.08ZM176.81 173.08V179.62H180.81V173.08H176.81ZM178.81 181.62H187.73V177.62H178.81V181.62ZM204.769 166H206.769C206.769 164.895 205.874 164 204.769 164V166ZM204.769 180V182C205.874 182 206.769 181.105 206.769 180H204.769ZM204.429 180L202.848 181.224C203.226 181.713 203.81 182 204.429 182V180ZM194.169 166.74L195.751 165.516C195.228 164.84 194.332 164.571 193.523 164.847C192.713 165.124 192.169 165.885 192.169 166.74H194.169ZM194.169 180V182C195.274 182 196.169 181.105 196.169 180H194.169ZM193.769 180H191.769C191.769 181.105 192.665 182 193.769 182V180ZM193.769 166V164C192.665 164 191.769 164.895 191.769 166H193.769ZM194.109 166L195.691 164.776C195.312 164.287 194.728 164 194.109 164V166ZM204.369 179.26L202.788 180.484C203.311 181.16 204.207 181.429 205.016 181.153C205.825 180.876 206.369 180.115 206.369 179.26H204.369ZM204.369 166V164C203.265 164 202.369 164.895 202.369 166H204.369ZM202.769 166V180H206.769V166H202.769ZM204.769 178H204.429V182H204.769V178ZM206.011 178.776L195.751 165.516L192.588 167.964L202.848 181.224L206.011 178.776ZM192.169 166.74V180H196.169V166.74H192.169ZM194.169 178H193.769V182H194.169V178ZM195.769 180V166H191.769V180H195.769ZM193.769 168H194.109V164H193.769V168ZM192.528 167.224L202.788 180.484L205.951 178.036L195.691 164.776L192.528 167.224ZM206.369 179.26V166H202.369V179.26H206.369ZM204.369 168H204.769V164H204.369V168ZM212.658 179.52L211.886 181.365C211.894 181.369 211.902 181.372 211.91 181.375L212.658 179.52ZM210.598 178.08L209.237 176.614C208.463 177.333 208.381 178.529 209.05 179.346L210.598 178.08ZM210.878 177.82L212.401 176.525C212.048 176.109 211.54 175.856 210.995 175.823C210.451 175.791 209.916 175.983 209.517 176.354L210.878 177.82ZM212.818 179.16L212.03 180.998C212.038 181.002 212.046 181.005 212.055 181.009L212.818 179.16ZM218.777 178.82L220.009 180.396L220.013 180.393L218.777 178.82ZM219.318 174.84L217.836 176.183L219.318 174.84ZM217.878 173.88L217.166 175.749C217.17 175.751 217.175 175.753 217.18 175.754L217.878 173.88ZM215.598 173.22L215.118 175.162C215.125 175.163 215.131 175.165 215.138 175.166L215.598 173.22ZM213.158 172.5L212.415 174.357C212.427 174.362 212.439 174.366 212.451 174.371L213.158 172.5ZM211.617 171.42L210.084 172.704C210.097 172.719 210.11 172.734 210.123 172.749L211.617 171.42ZM211.497 167.7L213.193 168.76L211.497 167.7ZM217.878 166.3L217.245 168.197C217.256 168.201 217.266 168.204 217.277 168.208L217.878 166.3ZM219.738 167.22L221.386 168.353C221.995 167.467 221.794 166.257 220.931 165.615L219.738 167.22ZM219.518 167.54L218.336 169.154C218.773 169.473 219.32 169.602 219.853 169.512C220.386 169.421 220.859 169.119 221.166 168.673L219.518 167.54ZM217.678 166.64L217.068 168.545C217.083 168.55 217.098 168.554 217.113 168.559L217.678 166.64ZM212.497 167.22L213.747 168.782C213.753 168.777 213.758 168.773 213.764 168.768L212.497 167.22ZM211.977 171.22L210.475 172.54C210.482 172.548 210.489 172.555 210.496 172.563L211.977 171.22ZM213.417 172.18L214.115 170.306L213.417 172.18ZM215.738 172.86L216.223 170.92L216.216 170.918L215.738 172.86ZM218.158 173.6L217.415 175.457C217.427 175.462 217.439 175.466 217.451 175.471L218.158 173.6ZM219.678 174.66L218.162 175.965C218.168 175.972 218.174 175.979 218.18 175.986L219.678 174.66ZM219.777 178.32L218.101 177.23L219.777 178.32ZM218.178 179.6L218.974 181.435C218.979 181.432 218.984 181.43 218.99 181.428L218.178 179.6ZM215.518 178.06C214.747 178.06 214.049 177.924 213.405 177.665L211.91 181.375C213.053 181.836 214.262 182.06 215.518 182.06V178.06ZM213.429 177.675C212.756 177.394 212.368 177.086 212.145 176.814L209.05 179.346C209.787 180.248 210.772 180.9 211.886 181.365L213.429 177.675ZM211.958 179.546L212.238 179.286L209.517 176.354L209.237 176.614L211.958 179.546ZM209.354 179.115C210.059 179.945 210.989 180.552 212.03 180.998L213.605 177.322C212.966 177.048 212.603 176.762 212.401 176.525L209.354 179.115ZM212.055 181.009C213.147 181.459 214.3 181.68 215.497 181.68V177.68C214.801 177.68 214.168 177.554 213.58 177.311L212.055 181.009ZM215.497 181.68C217.162 181.68 218.775 181.36 220.009 180.396L217.546 177.244C217.313 177.426 216.74 177.68 215.497 177.68V181.68ZM220.013 180.393C221.224 179.441 221.898 178.116 221.898 176.56H217.898C217.898 176.844 217.824 177.026 217.542 177.247L220.013 180.393ZM221.898 176.56C221.898 175.473 221.597 174.377 220.799 173.497L217.836 176.183C217.837 176.185 217.839 176.187 217.841 176.191C217.844 176.195 217.85 176.206 217.857 176.229C217.873 176.275 217.898 176.377 217.898 176.56H221.898ZM220.799 173.497C220.184 172.818 219.429 172.323 218.575 172.006L217.18 175.754C217.472 175.863 217.677 176.009 217.836 176.183L220.799 173.497ZM218.589 172.011C217.912 171.753 217.056 171.509 216.057 171.274L215.138 175.166C216.059 175.384 216.723 175.58 217.166 175.749L218.589 172.011ZM216.077 171.278C215.085 171.033 214.358 170.815 213.864 170.629L212.451 174.371C213.157 174.638 214.057 174.9 215.118 175.162L216.077 171.278ZM213.9 170.643C213.587 170.518 213.331 170.338 213.112 170.091L210.123 172.749C210.757 173.462 211.528 174.002 212.415 174.357L213.9 170.643ZM213.151 170.136C213.111 170.089 212.997 169.931 212.997 169.46H208.997C208.997 170.616 209.297 171.764 210.084 172.704L213.151 170.136ZM212.997 169.46C212.997 169.188 213.062 168.97 213.193 168.76L209.801 166.64C209.266 167.497 208.997 168.452 208.997 169.46H212.997ZM213.193 168.76C213.274 168.632 213.451 168.437 213.883 168.242L212.232 164.598C211.251 165.043 210.388 165.702 209.801 166.64L213.193 168.76ZM213.883 168.242C214.258 168.072 214.83 167.94 215.678 167.94V163.94C214.445 163.94 213.271 164.128 212.232 164.598L213.883 168.242ZM215.678 167.94C216.206 167.94 216.726 168.024 217.245 168.197L218.51 164.403C217.589 164.096 216.643 163.94 215.678 163.94V167.94ZM217.277 168.208C217.818 168.378 218.23 168.592 218.544 168.825L220.931 165.615C220.205 165.075 219.377 164.675 218.478 164.392L217.277 168.208ZM218.089 166.087L217.869 166.407L221.166 168.673L221.386 168.353L218.089 166.087ZM220.699 165.926C219.957 165.383 219.133 164.983 218.242 164.721L217.113 168.559C217.582 168.697 217.985 168.897 218.336 169.154L220.699 165.926ZM218.287 164.735C217.437 164.463 216.572 164.32 215.697 164.32V168.32C216.13 168.32 216.584 168.39 217.068 168.545L218.287 164.735ZM215.697 164.32C214.049 164.32 212.458 164.668 211.231 165.672L213.764 168.768C214.004 168.571 214.546 168.32 215.697 168.32V164.32ZM211.248 165.658C210.052 166.615 209.398 167.938 209.398 169.48H213.398C213.398 169.182 213.477 168.998 213.747 168.782L211.248 165.658ZM209.398 169.48C209.398 170.57 209.699 171.657 210.475 172.54L213.48 169.9C213.47 169.889 213.456 169.871 213.44 169.823C213.422 169.769 213.398 169.662 213.398 169.48H209.398ZM210.496 172.563C211.111 173.242 211.866 173.737 212.72 174.054L214.115 170.306C213.823 170.197 213.618 170.051 213.459 169.877L210.496 172.563ZM212.72 174.054C213.395 174.306 214.252 174.554 215.259 174.802L216.216 170.918C215.277 170.686 214.586 170.481 214.115 170.306L212.72 174.054ZM215.252 174.8C216.224 175.043 216.934 175.265 217.415 175.457L218.9 171.743C218.181 171.455 217.277 171.183 216.223 170.92L215.252 174.8ZM217.451 175.471C217.742 175.581 217.97 175.742 218.162 175.965L221.193 173.355C220.559 172.618 219.773 172.072 218.864 171.729L217.451 175.471ZM218.18 175.986C218.186 175.993 218.298 176.106 218.298 176.56H222.298C222.298 175.414 221.995 174.26 221.175 173.334L218.18 175.986ZM218.298 176.56C218.298 176.816 218.235 177.023 218.101 177.23L221.454 179.41C222.013 178.55 222.298 177.584 222.298 176.56H218.298ZM218.101 177.23C218.01 177.369 217.816 177.572 217.365 177.772L218.99 181.428C219.979 180.988 220.852 180.337 221.454 179.41L218.101 177.23ZM217.381 177.765C217.003 177.93 216.409 178.06 215.518 178.06V182.06C216.76 182.06 217.939 181.884 218.974 181.435L217.381 177.765ZM235.429 179.62H237.429C237.429 178.515 236.534 177.62 235.429 177.62V179.62ZM235.429 180V182C236.534 182 237.429 181.105 237.429 180H235.429ZM226.109 180H224.109C224.109 181.105 225.005 182 226.109 182V180ZM226.109 166V164C225.005 164 224.109 164.895 224.109 166H226.109ZM235.129 166H237.129C237.129 164.895 236.234 164 235.129 164V166ZM235.129 166.38V168.38C236.234 168.38 237.129 167.485 237.129 166.38H235.129ZM226.509 166.38V164.38C225.405 164.38 224.509 165.275 224.509 166.38H226.509ZM226.509 172.7H224.509C224.509 173.805 225.405 174.7 226.509 174.7V172.7ZM234.229 172.7H236.229C236.229 171.595 235.334 170.7 234.229 170.7V172.7ZM234.229 173.08V175.08C235.334 175.08 236.229 174.185 236.229 173.08H234.229ZM226.509 173.08V171.08C225.405 171.08 224.509 171.975 224.509 173.08H226.509ZM226.509 179.62H224.509C224.509 180.725 225.405 181.62 226.509 181.62V179.62ZM233.429 179.62V180H237.429V179.62H233.429ZM235.429 178H226.109V182H235.429V178ZM228.109 180V166H224.109V180H228.109ZM226.109 168H235.129V164H226.109V168ZM233.129 166V166.38H237.129V166H233.129ZM235.129 164.38H226.509V168.38H235.129V164.38ZM224.509 166.38V172.7H228.509V166.38H224.509ZM226.509 174.7H234.229V170.7H226.509V174.7ZM232.229 172.7V173.08H236.229V172.7H232.229ZM234.229 171.08H226.509V175.08H234.229V171.08ZM224.509 173.08V179.62H228.509V173.08H224.509ZM226.509 181.62H235.429V177.62H226.509V181.62Z" fill="white"/>
</mask>
<g mask="url(#mask0_139_135)">
<path d="M0 145.04L9.4667 146.306C18.9333 147.61 37.8667 150.141 56.8 147.533C75.7333 144.925 94.6667 137.101 113.6 137.638C132.533 138.137 151.467 146.958 170.4 147.533C189.333 148.108 208.267 140.438 227.2 136.487C246.133 132.499 265.067 132.268 274.533 132.115L284 132V323H274.533C265.067 323 246.133 323 227.2 323C208.267 323 189.333 323 170.4 323C151.467 323 132.533 323 113.6 323C94.6667 323 75.7333 323 56.8 323C37.8667 323 18.9333 323 9.4667 323H0V145.04Z" fill="white"/>
</g>
</g>
<defs>
<clipPath id="clip0_139_135">
<rect width="284" height="324" fill="white"/>
</clipPath>
</defs>
</svg>
