<svg width="284" height="323" viewBox="0 0 284 323" fill="none" xmlns="http://www.w3.org/2000/svg">
<g clip-path="url(#clip0_139_159)">
<path d="M284 0H0V322H284V0Z" fill="#001220"/>
<path d="M30.032 130.6C32.8907 130.6 35.1307 131.283 36.752 132.648C38.3733 134.013 39.184 135.891 39.184 138.28C39.184 140.669 38.3733 142.547 36.752 143.912C35.1307 145.256 32.8907 145.928 30.032 145.928H24.016V153H21.648V130.6H30.032ZM29.968 143.848C32.1867 143.848 33.8827 143.368 35.056 142.408C36.2293 141.427 36.816 140.051 36.816 138.28C36.816 136.467 36.2293 135.08 35.056 134.12C33.8827 133.139 32.1867 132.648 29.968 132.648H24.016V143.848H29.968ZM47.5043 130.6H49.8723V150.952H62.4163V153H47.5043V130.6ZM78.1658 153.192C75.2644 153.192 73.0031 152.36 71.3818 150.696C69.7604 149.032 68.9498 146.611 68.9498 143.432V130.6H71.3178V143.336C71.3178 145.939 71.9044 147.88 73.0778 149.16C74.2511 150.44 75.9471 151.08 78.1658 151.08C80.4058 151.08 82.1124 150.44 83.2858 149.16C84.4591 147.88 85.0458 145.939 85.0458 143.336V130.6H87.3498V143.432C87.3498 146.611 86.5391 149.032 84.9178 150.696C83.3178 152.36 81.0671 153.192 78.1658 153.192ZM106.069 130.6C108.928 130.6 111.168 131.283 112.789 132.648C114.411 134.013 115.222 135.891 115.222 138.28C115.222 140.669 114.411 142.547 112.789 143.912C111.168 145.256 108.928 145.928 106.069 145.928H100.053V153H97.6855V130.6H106.069ZM106.005 143.848C108.224 143.848 109.92 143.368 111.094 142.408C112.267 141.427 112.853 140.051 112.853 138.28C112.853 136.467 112.267 135.08 111.094 134.12C109.92 133.139 108.224 132.648 106.005 132.648H100.053V143.848H106.005ZM139.382 150.952V153H123.542V130.6H138.902V132.648H125.91V140.616H137.494V142.632H125.91V150.952H139.382ZM163.444 153L158.324 145.8C157.748 145.864 157.151 145.896 156.532 145.896H150.516V153H148.148V130.6H156.532C159.391 130.6 161.631 131.283 163.252 132.648C164.873 134.013 165.684 135.891 165.684 138.28C165.684 140.029 165.236 141.512 164.34 142.728C163.465 143.923 162.207 144.787 160.564 145.32L166.036 153H163.444ZM156.468 143.88C158.687 143.88 160.383 143.389 161.556 142.408C162.729 141.427 163.316 140.051 163.316 138.28C163.316 136.467 162.729 135.08 161.556 134.12C160.383 133.139 158.687 132.648 156.468 132.648H150.516V143.88H156.468ZM176.841 132.648V141.448H188.425V143.496H176.841V153H174.473V130.6H189.833V132.648H176.841ZM213.763 150.952V153H197.923V130.6H213.283V132.648H200.291V140.616H211.875V142.632H200.291V150.952H213.763ZM232.257 153.192C230.039 153.192 228.033 152.701 226.241 151.72C224.471 150.739 223.073 149.384 222.049 147.656C221.047 145.907 220.545 143.955 220.545 141.8C220.545 139.645 221.047 137.704 222.049 135.976C223.073 134.227 224.481 132.861 226.273 131.88C228.065 130.899 230.071 130.408 232.289 130.408C233.953 130.408 235.489 130.685 236.897 131.24C238.305 131.795 239.5 132.605 240.481 133.672L238.977 135.176C237.228 133.405 235.02 132.52 232.353 132.52C230.583 132.52 228.972 132.925 227.521 133.736C226.071 134.547 224.929 135.656 224.097 137.064C223.287 138.472 222.881 140.051 222.881 141.8C222.881 143.549 223.287 145.128 224.097 146.536C224.929 147.944 226.071 149.053 227.521 149.864C228.972 150.675 230.583 151.08 232.353 151.08C235.041 151.08 237.249 150.184 238.977 148.392L240.481 149.896C239.5 150.963 238.295 151.784 236.865 152.36C235.457 152.915 233.921 153.192 232.257 153.192ZM255.481 132.648H247.609V130.6H265.721V132.648H257.849V153H255.481V132.648Z" fill="#FACB66"/>
<path d="M36.752 132.648L34.9806 134.752L36.752 132.648ZM36.752 143.912L38.507 146.029C38.5125 146.025 38.5179 146.02 38.5234 146.016L36.752 143.912ZM24.016 145.928V143.178C22.4972 143.178 21.266 144.409 21.266 145.928H24.016ZM24.016 153V155.75C25.5348 155.75 26.766 154.519 26.766 153H24.016ZM21.648 153H18.898C18.898 154.519 20.1292 155.75 21.648 155.75V153ZM21.648 130.6V127.85C20.1292 127.85 18.898 129.081 18.898 130.6H21.648ZM35.056 142.408L36.7974 144.536C36.8051 144.53 36.8127 144.524 36.8203 144.517L35.056 142.408ZM35.056 134.12L33.2917 136.229C33.2993 136.236 33.3069 136.242 33.3146 136.248L35.056 134.12ZM24.016 132.648V129.898C22.4972 129.898 21.266 131.129 21.266 132.648H24.016ZM24.016 143.848H21.266C21.266 145.367 22.4972 146.598 24.016 146.598V143.848ZM30.032 133.35C32.4693 133.35 34.0047 133.93 34.9806 134.752L38.5234 130.544C36.2567 128.636 33.312 127.85 30.032 127.85V133.35ZM34.9806 134.752C35.898 135.524 36.434 136.586 36.434 138.28H41.934C41.934 135.195 40.8487 132.503 38.5234 130.544L34.9806 134.752ZM36.434 138.28C36.434 139.974 35.898 141.036 34.9806 141.808L38.5234 146.016C40.8487 144.057 41.934 141.365 41.934 138.28H36.434ZM34.997 141.795C34.0204 142.604 32.4787 143.178 30.032 143.178V148.678C33.3027 148.678 36.2409 147.908 38.507 146.029L34.997 141.795ZM30.032 143.178H24.016V148.678H30.032V143.178ZM21.266 145.928V153H26.766V145.928H21.266ZM24.016 150.25H21.648V155.75H24.016V150.25ZM24.398 153V130.6H18.898V153H24.398ZM21.648 133.35H30.032V127.85H21.648V133.35ZM29.968 146.598C32.5361 146.598 34.9498 146.048 36.7974 144.536L33.3146 140.28C32.8155 140.688 31.8372 141.098 29.968 141.098V146.598ZM36.8203 144.517C38.7204 142.928 39.566 140.722 39.566 138.28H34.066C34.066 139.379 33.7383 139.925 33.2917 140.299L36.8203 144.517ZM39.566 138.28C39.566 135.821 38.736 133.578 36.7974 131.992L33.3146 136.248C33.7227 136.582 34.066 137.112 34.066 138.28H39.566ZM36.8203 132.011C34.9712 130.464 32.5481 129.898 29.968 129.898V135.398C31.8253 135.398 32.7941 135.813 33.2917 136.229L36.8203 132.011ZM29.968 129.898H24.016V135.398H29.968V129.898ZM21.266 132.648V143.848H26.766V132.648H21.266ZM24.016 146.598H29.968V141.098H24.016V146.598ZM47.5043 130.6V127.85C45.9855 127.85 44.7543 129.081 44.7543 130.6H47.5043ZM49.8723 130.6H52.6223C52.6223 129.081 51.391 127.85 49.8723 127.85V130.6ZM49.8723 150.952H47.1223C47.1223 152.471 48.3535 153.702 49.8723 153.702V150.952ZM62.4163 150.952H65.1663C65.1663 149.433 63.935 148.202 62.4163 148.202V150.952ZM62.4163 153V155.75C63.935 155.75 65.1663 154.519 65.1663 153H62.4163ZM47.5043 153H44.7543C44.7543 154.519 45.9855 155.75 47.5043 155.75V153ZM47.5043 133.35H49.8723V127.85H47.5043V133.35ZM47.1223 130.6V150.952H52.6223V130.6H47.1223ZM49.8723 153.702H62.4163V148.202H49.8723V153.702ZM59.6663 150.952V153H65.1663V150.952H59.6663ZM62.4163 150.25H47.5043V155.75H62.4163V150.25ZM50.2543 153V130.6H44.7543V153H50.2543ZM71.3818 150.696L73.3514 148.777L71.3818 150.696ZM68.9498 130.6V127.85C67.431 127.85 66.1998 129.081 66.1998 130.6H68.9498ZM71.3178 130.6H74.0678C74.0678 129.081 72.8365 127.85 71.3178 127.85V130.6ZM83.2858 149.16L85.3129 151.018L83.2858 149.16ZM85.0458 130.6V127.85C83.527 127.85 82.2958 129.081 82.2958 130.6H85.0458ZM87.3498 130.6H90.0998C90.0998 129.081 88.8685 127.85 87.3498 127.85V130.6ZM84.9178 150.696L82.9481 148.777C82.9439 148.781 82.9397 148.786 82.9355 148.79L84.9178 150.696ZM78.1658 150.442C75.8104 150.442 74.3328 149.784 73.3514 148.777L69.4121 152.615C71.6734 154.936 74.7185 155.942 78.1658 155.942V150.442ZM73.3514 148.777C72.3911 147.791 71.6998 146.163 71.6998 143.432H66.1998C66.1998 147.059 67.1297 150.273 69.4121 152.615L73.3514 148.777ZM71.6998 143.432V130.6H66.1998V143.432H71.6998ZM68.9498 133.35H71.3178V127.85H68.9498V133.35ZM68.5678 130.6V143.336H74.0678V130.6H68.5678ZM68.5678 143.336C68.5678 146.292 69.227 149.029 71.0506 151.018L75.1049 147.302C74.5818 146.731 74.0678 145.586 74.0678 143.336H68.5678ZM71.0506 151.018C72.8809 153.015 75.4039 153.83 78.1658 153.83V148.33C76.4903 148.33 75.6212 147.865 75.1049 147.302L71.0506 151.018ZM78.1658 153.83C80.9397 153.83 83.4777 153.02 85.3129 151.018L81.2586 147.302C80.7472 147.86 79.8718 148.33 78.1658 148.33V153.83ZM85.3129 151.018C87.1365 149.029 87.7958 146.292 87.7958 143.336H82.2958C82.2958 145.586 81.7817 146.731 81.2586 147.302L85.3129 151.018ZM87.7958 143.336V130.6H82.2958V143.336H87.7958ZM85.0458 133.35H87.3498V127.85H85.0458V133.35ZM84.5998 130.6V143.432H90.0998V130.6H84.5998ZM84.5998 143.432C84.5998 146.163 83.9084 147.791 82.9481 148.777L86.8874 152.615C89.1698 150.273 90.0998 147.059 90.0998 143.432H84.5998ZM82.9355 148.79C81.98 149.784 80.5229 150.442 78.1658 150.442V155.942C81.6113 155.942 84.6555 154.936 86.9 152.602L82.9355 148.79ZM112.789 132.648L111.018 134.752L112.789 132.648ZM112.789 143.912L114.545 146.029C114.55 146.025 114.555 146.02 114.561 146.016L112.789 143.912ZM100.053 145.928V143.178C98.5347 143.178 97.3035 144.409 97.3035 145.928H100.053ZM100.053 153V155.75C101.572 155.75 102.803 154.519 102.803 153H100.053ZM97.6855 153H94.9355C94.9355 154.519 96.1667 155.75 97.6855 155.75V153ZM97.6855 130.6V127.85C96.1667 127.85 94.9355 129.081 94.9355 130.6H97.6855ZM111.094 142.408L112.835 144.536C112.843 144.53 112.85 144.524 112.858 144.517L111.094 142.408ZM111.094 134.12L109.329 136.229C109.337 136.236 109.344 136.242 109.352 136.248L111.094 134.12ZM100.053 132.648V129.898C98.5347 129.898 97.3035 131.129 97.3035 132.648H100.053ZM100.053 143.848H97.3035C97.3035 145.367 98.5347 146.598 100.053 146.598V143.848ZM106.069 133.35C108.507 133.35 110.042 133.93 111.018 134.752L114.561 130.544C112.294 128.636 109.35 127.85 106.069 127.85V133.35ZM111.018 134.752C111.936 135.524 112.472 136.586 112.472 138.28H117.972C117.972 135.195 116.886 132.503 114.561 130.544L111.018 134.752ZM112.472 138.28C112.472 139.974 111.936 141.036 111.018 141.808L114.561 146.016C116.886 144.057 117.972 141.365 117.972 138.28H112.472ZM111.034 141.795C110.058 142.604 108.516 143.178 106.069 143.178V148.678C109.34 148.678 112.278 147.908 114.545 146.029L111.034 141.795ZM106.069 143.178H100.053V148.678H106.069V143.178ZM97.3035 145.928V153H102.803V145.928H97.3035ZM100.053 150.25H97.6855V155.75H100.053V150.25ZM100.435 153V130.6H94.9355V153H100.435ZM97.6855 133.35H106.069V127.85H97.6855V133.35ZM106.005 146.598C108.574 146.598 110.987 146.048 112.835 144.536L109.352 140.28C108.853 140.688 107.875 141.098 106.005 141.098V146.598ZM112.858 144.517C114.758 142.928 115.603 140.722 115.603 138.28H110.103C110.103 139.379 109.776 139.925 109.329 140.299L112.858 144.517ZM115.603 138.28C115.603 135.821 114.773 133.578 112.835 131.992L109.352 136.248C109.76 136.582 110.103 137.112 110.103 138.28H115.603ZM112.858 132.011C111.009 130.464 108.586 129.898 106.005 129.898V135.398C107.863 135.398 108.832 135.813 109.329 136.229L112.858 132.011ZM106.005 129.898H100.053V135.398H106.005V129.898ZM97.3035 132.648V143.848H102.803V132.648H97.3035ZM100.053 146.598H106.005V141.098H100.053V146.598ZM139.382 150.952H142.132C142.132 149.433 140.901 148.202 139.382 148.202V150.952ZM139.382 153V155.75C140.901 155.75 142.132 154.519 142.132 153H139.382ZM123.542 153H120.792C120.792 154.519 122.023 155.75 123.542 155.75V153ZM123.542 130.6V127.85C122.023 127.85 120.792 129.081 120.792 130.6H123.542ZM138.902 130.6H141.652C141.652 129.081 140.421 127.85 138.902 127.85V130.6ZM138.902 132.648V135.398C140.421 135.398 141.652 134.167 141.652 132.648H138.902ZM125.91 132.648V129.898C124.391 129.898 123.16 131.129 123.16 132.648H125.91ZM125.91 140.616H123.16C123.16 142.135 124.391 143.366 125.91 143.366V140.616ZM137.494 140.616H140.244C140.244 139.097 139.013 137.866 137.494 137.866V140.616ZM137.494 142.632V145.382C139.013 145.382 140.244 144.151 140.244 142.632H137.494ZM125.91 142.632V139.882C124.391 139.882 123.16 141.113 123.16 142.632H125.91ZM125.91 150.952H123.16C123.16 152.471 124.391 153.702 125.91 153.702V150.952ZM136.632 150.952V153H142.132V150.952H136.632ZM139.382 150.25H123.542V155.75H139.382V150.25ZM126.292 153V130.6H120.792V153H126.292ZM123.542 133.35H138.902V127.85H123.542V133.35ZM136.152 130.6V132.648H141.652V130.6H136.152ZM138.902 129.898H125.91V135.398H138.902V129.898ZM123.16 132.648V140.616H128.66V132.648H123.16ZM125.91 143.366H137.494V137.866H125.91V143.366ZM134.744 140.616V142.632H140.244V140.616H134.744ZM137.494 139.882H125.91V145.382H137.494V139.882ZM123.16 142.632V150.952H128.66V142.632H123.16ZM125.91 153.702H139.382V148.202H125.91V153.702ZM163.444 153L161.203 154.594C161.719 155.319 162.554 155.75 163.444 155.75V153ZM158.324 145.8L160.565 144.206C159.987 143.393 159.013 142.957 158.02 143.067L158.324 145.8ZM150.516 145.896V143.146C148.997 143.146 147.766 144.377 147.766 145.896H150.516ZM150.516 153V155.75C152.035 155.75 153.266 154.519 153.266 153H150.516ZM148.148 153H145.398C145.398 154.519 146.629 155.75 148.148 155.75V153ZM148.148 130.6V127.85C146.629 127.85 145.398 129.081 145.398 130.6H148.148ZM163.252 132.648L161.481 134.752L163.252 132.648ZM164.34 142.728L162.126 141.097L162.121 141.103L164.34 142.728ZM160.564 145.32L159.715 142.704C158.882 142.975 158.227 143.626 157.953 144.458C157.678 145.29 157.816 146.202 158.324 146.916L160.564 145.32ZM166.036 153V155.75C167.066 155.75 168.009 155.175 168.48 154.26C168.952 153.345 168.873 152.243 168.276 151.404L166.036 153ZM161.556 142.408L163.32 144.517L161.556 142.408ZM161.556 134.12L159.792 136.229C159.799 136.236 159.807 136.242 159.815 136.248L161.556 134.12ZM150.516 132.648V129.898C148.997 129.898 147.766 131.129 147.766 132.648H150.516ZM150.516 143.88H147.766C147.766 145.399 148.997 146.63 150.516 146.63V143.88ZM165.685 151.406L160.565 144.206L156.083 147.394L161.203 154.594L165.685 151.406ZM158.02 143.067C157.552 143.119 157.056 143.146 156.532 143.146V148.646C157.245 148.646 157.944 148.609 158.628 148.533L158.02 143.067ZM156.532 143.146H150.516V148.646H156.532V143.146ZM147.766 145.896V153H153.266V145.896H147.766ZM150.516 150.25H148.148V155.75H150.516V150.25ZM150.898 153V130.6H145.398V153H150.898ZM148.148 133.35H156.532V127.85H148.148V133.35ZM156.532 133.35C158.969 133.35 160.505 133.93 161.481 134.752L165.023 130.544C162.757 128.636 159.812 127.85 156.532 127.85V133.35ZM161.481 134.752C162.398 135.524 162.934 136.586 162.934 138.28H168.434C168.434 135.195 167.349 132.503 165.023 130.544L161.481 134.752ZM162.934 138.28C162.934 139.539 162.621 140.425 162.126 141.097L166.554 144.359C167.851 142.599 168.434 140.52 168.434 138.28H162.934ZM162.121 141.103C161.642 141.758 160.903 142.319 159.715 142.704L161.413 147.936C163.511 147.255 165.289 146.087 166.559 144.353L162.121 141.103ZM158.324 146.916L163.796 154.596L168.276 151.404L162.804 143.724L158.324 146.916ZM166.036 150.25H163.444V155.75H166.036V150.25ZM156.468 146.63C159.048 146.63 161.471 146.064 163.32 144.517L159.792 140.299C159.294 140.715 158.325 141.13 156.468 141.13V146.63ZM163.32 144.517C165.22 142.928 166.066 140.722 166.066 138.28H160.566C160.566 139.379 160.238 139.925 159.792 140.299L163.32 144.517ZM166.066 138.28C166.066 135.821 165.236 133.578 163.297 131.992L159.815 136.248C160.223 136.582 160.566 137.112 160.566 138.28H166.066ZM163.32 132.011C161.471 130.464 159.048 129.898 156.468 129.898V135.398C158.325 135.398 159.294 135.813 159.792 136.229L163.32 132.011ZM156.468 129.898H150.516V135.398H156.468V129.898ZM147.766 132.648V143.88H153.266V132.648H147.766ZM150.516 146.63H156.468V141.13H150.516V146.63ZM176.841 132.648V129.898C175.322 129.898 174.091 131.129 174.091 132.648H176.841ZM176.841 141.448H174.091C174.091 142.967 175.322 144.198 176.841 144.198V141.448ZM188.425 141.448H191.175C191.175 139.929 189.944 138.698 188.425 138.698V141.448ZM188.425 143.496V146.246C189.944 146.246 191.175 145.015 191.175 143.496H188.425ZM176.841 143.496V140.746C175.322 140.746 174.091 141.977 174.091 143.496H176.841ZM176.841 153V155.75C178.36 155.75 179.591 154.519 179.591 153H176.841ZM174.473 153H171.723C171.723 154.519 172.954 155.75 174.473 155.75V153ZM174.473 130.6V127.85C172.954 127.85 171.723 129.081 171.723 130.6H174.473ZM189.833 130.6H192.583C192.583 129.081 191.352 127.85 189.833 127.85V130.6ZM189.833 132.648V135.398C191.352 135.398 192.583 134.167 192.583 132.648H189.833ZM174.091 132.648V141.448H179.591V132.648H174.091ZM176.841 144.198H188.425V138.698H176.841V144.198ZM185.675 141.448V143.496H191.175V141.448H185.675ZM188.425 140.746H176.841V146.246H188.425V140.746ZM174.091 143.496V153H179.591V143.496H174.091ZM176.841 150.25H174.473V155.75H176.841V150.25ZM177.223 153V130.6H171.723V153H177.223ZM174.473 133.35H189.833V127.85H174.473V133.35ZM187.083 130.6V132.648H192.583V130.6H187.083ZM189.833 129.898H176.841V135.398H189.833V129.898ZM213.763 150.952H216.513C216.513 149.433 215.282 148.202 213.763 148.202V150.952ZM213.763 153V155.75C215.282 155.75 216.513 154.519 216.513 153H213.763ZM197.923 153H195.173C195.173 154.519 196.404 155.75 197.923 155.75V153ZM197.923 130.6V127.85C196.404 127.85 195.173 129.081 195.173 130.6H197.923ZM213.283 130.6H216.033C216.033 129.081 214.802 127.85 213.283 127.85V130.6ZM213.283 132.648V135.398C214.802 135.398 216.033 134.167 216.033 132.648H213.283ZM200.291 132.648V129.898C198.772 129.898 197.541 131.129 197.541 132.648H200.291ZM200.291 140.616H197.541C197.541 142.135 198.772 143.366 200.291 143.366V140.616ZM211.875 140.616H214.625C214.625 139.097 213.394 137.866 211.875 137.866V140.616ZM211.875 142.632V145.382C213.394 145.382 214.625 144.151 214.625 142.632H211.875ZM200.291 142.632V139.882C198.772 139.882 197.541 141.113 197.541 142.632H200.291ZM200.291 150.952H197.541C197.541 152.471 198.772 153.702 200.291 153.702V150.952ZM211.013 150.952V153H216.513V150.952H211.013ZM213.763 150.25H197.923V155.75H213.763V150.25ZM200.673 153V130.6H195.173V153H200.673ZM197.923 133.35H213.283V127.85H197.923V133.35ZM210.533 130.6V132.648H216.033V130.6H210.533ZM213.283 129.898H200.291V135.398H213.283V129.898ZM197.541 132.648V140.616H203.041V132.648H197.541ZM200.291 143.366H211.875V137.866H200.291V143.366ZM209.125 140.616V142.632H214.625V140.616H209.125ZM211.875 139.882H200.291V145.382H211.875V139.882ZM197.541 142.632V150.952H203.041V142.632H197.541ZM200.291 153.702H213.763V148.202H200.291V153.702ZM226.241 151.72L224.908 154.125L224.92 154.132L226.241 151.72ZM222.049 147.656L219.663 149.024C219.67 149.035 219.677 149.047 219.683 149.058L222.049 147.656ZM222.049 135.976L219.676 134.587L219.671 134.596L222.049 135.976ZM226.273 131.88L224.952 129.468L226.273 131.88ZM236.897 131.24L235.889 133.799L236.897 131.24ZM240.481 133.672L242.426 135.617C243.468 134.574 243.503 132.895 242.505 131.81L240.481 133.672ZM238.977 135.176L237.021 137.109C237.536 137.63 238.237 137.924 238.969 137.926C239.701 137.928 240.404 137.638 240.922 137.121L238.977 135.176ZM227.521 133.736L226.18 131.335L227.521 133.736ZM224.097 137.064L221.73 135.665C221.724 135.674 221.719 135.683 221.714 135.692L224.097 137.064ZM224.097 146.536L221.714 147.908C221.719 147.917 221.724 147.926 221.73 147.935L224.097 146.536ZM227.521 149.864L226.18 152.265L227.521 149.864ZM238.977 148.392L240.922 146.447C240.4 145.926 239.69 145.635 238.952 145.642C238.214 145.649 237.51 145.952 236.998 146.483L238.977 148.392ZM240.481 149.896L242.505 151.758C243.503 150.673 243.468 148.994 242.426 147.951L240.481 149.896ZM236.865 152.36L237.873 154.919C237.88 154.916 237.887 154.913 237.893 154.911L236.865 152.36ZM232.257 150.442C230.46 150.442 228.915 150.049 227.562 149.308L224.92 154.132C227.152 155.354 229.618 155.942 232.257 155.942V150.442ZM227.574 149.315C226.227 148.568 225.188 147.558 224.415 146.254L219.683 149.058C220.959 151.21 222.714 152.909 224.908 154.125L227.574 149.315ZM224.435 146.288C223.687 144.984 223.295 143.509 223.295 141.8H217.795C217.795 144.4 218.406 146.829 219.663 149.024L224.435 146.288ZM223.295 141.8C223.295 140.091 223.687 138.632 224.428 137.356L219.671 134.596C218.406 136.776 217.795 139.2 217.795 141.8H223.295ZM224.423 137.365C225.193 136.049 226.235 135.036 227.594 134.292L224.952 129.468C222.727 130.687 220.954 132.404 219.676 134.587L224.423 137.365ZM227.594 134.292C228.947 133.551 230.492 133.158 232.289 133.158V127.658C229.65 127.658 227.184 128.246 224.952 129.468L227.594 134.292ZM232.289 133.158C233.643 133.158 234.833 133.382 235.889 133.799L237.905 128.681C236.146 127.988 234.264 127.658 232.289 127.658V133.158ZM235.889 133.799C236.928 134.208 237.77 134.787 238.457 135.534L242.505 131.81C241.23 130.424 239.683 129.382 237.905 128.681L235.889 133.799ZM238.537 131.727L237.033 133.231L240.922 137.121L242.426 135.617L238.537 131.727ZM240.934 133.243C238.628 130.91 235.697 129.77 232.353 129.77V135.27C234.343 135.27 235.828 135.901 237.021 137.109L240.934 133.243ZM232.353 129.77C230.145 129.77 228.067 130.281 226.18 131.335L228.863 136.137C229.877 135.57 231.02 135.27 232.353 135.27V129.77ZM226.18 131.335C224.312 132.379 222.813 133.831 221.73 135.665L226.465 138.463C227.045 137.481 227.829 136.714 228.863 136.137L226.18 131.335ZM221.714 135.692C220.645 137.549 220.131 139.607 220.131 141.8H225.631C225.631 140.494 225.928 139.395 226.48 138.436L221.714 135.692ZM220.131 141.8C220.131 143.993 220.645 146.051 221.714 147.908L226.48 145.164C225.928 144.205 225.631 143.106 225.631 141.8H220.131ZM221.73 147.935C222.813 149.769 224.312 151.221 226.18 152.265L228.863 147.463C227.829 146.886 227.045 146.119 226.465 145.137L221.73 147.935ZM226.18 152.265C228.067 153.319 230.145 153.83 232.353 153.83V148.33C231.02 148.33 229.877 148.03 228.863 147.463L226.18 152.265ZM232.353 153.83C235.722 153.83 238.666 152.676 240.957 150.301L236.998 146.483C235.832 147.692 234.361 148.33 232.353 148.33V153.83ZM237.033 150.337L238.537 151.841L242.426 147.951L240.922 146.447L237.033 150.337ZM238.457 148.034C237.77 148.781 236.912 149.376 235.837 149.809L237.893 154.911C239.677 154.192 241.23 153.144 242.505 151.758L238.457 148.034ZM235.857 149.801C234.801 150.218 233.611 150.442 232.257 150.442V155.942C234.232 155.942 236.114 155.612 237.873 154.919L235.857 149.801ZM255.481 132.648H258.231C258.231 131.129 257 129.898 255.481 129.898V132.648ZM247.609 132.648H244.859C244.859 134.167 246.09 135.398 247.609 135.398V132.648ZM247.609 130.6V127.85C246.09 127.85 244.859 129.081 244.859 130.6H247.609ZM265.721 130.6H268.471C268.471 129.081 267.24 127.85 265.721 127.85V130.6ZM265.721 132.648V135.398C267.24 135.398 268.471 134.167 268.471 132.648H265.721ZM257.849 132.648V129.898C256.33 129.898 255.099 131.129 255.099 132.648H257.849ZM257.849 153V155.75C259.368 155.75 260.599 154.519 260.599 153H257.849ZM255.481 153H252.731C252.731 154.519 253.962 155.75 255.481 155.75V153ZM255.481 129.898H247.609V135.398H255.481V129.898ZM250.359 132.648V130.6H244.859V132.648H250.359ZM247.609 133.35H265.721V127.85H247.609V133.35ZM262.971 130.6V132.648H268.471V130.6H262.971ZM265.721 129.898H257.849V135.398H265.721V129.898ZM255.099 132.648V153H260.599V132.648H255.099ZM257.849 150.25H255.481V155.75H257.849V150.25ZM258.231 153V132.648H252.731V153H258.231Z" fill="#FACB66"/>
<path d="M23.28 102.38H18.08V102H28.88V102.38H23.68V116H23.28V102.38ZM44.617 102V116H44.217V109.08H34.017V116H33.617V102H34.017V108.7H44.217V102H44.617ZM61.2652 115.62V116H51.9452V102H60.9652V102.38H52.3452V108.7H60.0652V109.08H52.3452V115.62H61.2652Z" fill="#FACB66"/>
<path d="M23.28 102.38H25.28C25.28 101.275 24.3846 100.38 23.28 100.38V102.38ZM18.08 102.38H16.08C16.08 103.485 16.9754 104.38 18.08 104.38V102.38ZM18.08 102V100C16.9754 100 16.08 100.895 16.08 102H18.08ZM28.88 102H30.88C30.88 100.895 29.9846 100 28.88 100V102ZM28.88 102.38V104.38C29.9846 104.38 30.88 103.485 30.88 102.38H28.88ZM23.68 102.38V100.38C22.5754 100.38 21.68 101.275 21.68 102.38H23.68ZM23.68 116V118C24.7846 118 25.68 117.105 25.68 116H23.68ZM23.28 116H21.28C21.28 117.105 22.1754 118 23.28 118V116ZM23.28 100.38H18.08V104.38H23.28V100.38ZM20.08 102.38V102H16.08V102.38H20.08ZM18.08 104H28.88V100H18.08V104ZM26.88 102V102.38H30.88V102H26.88ZM28.88 100.38H23.68V104.38H28.88V100.38ZM21.68 102.38V116H25.68V102.38H21.68ZM23.68 114H23.28V118H23.68V114ZM25.28 116V102.38H21.28V116H25.28ZM44.617 102H46.617C46.617 100.895 45.7216 100 44.617 100V102ZM44.617 116V118C45.7216 118 46.617 117.105 46.617 116H44.617ZM44.217 116H42.217C42.217 117.105 43.1125 118 44.217 118V116ZM44.217 109.08H46.217C46.217 107.975 45.3216 107.08 44.217 107.08V109.08ZM34.017 109.08V107.08C32.9125 107.08 32.017 107.975 32.017 109.08H34.017ZM34.017 116V118C35.1216 118 36.017 117.105 36.017 116H34.017ZM33.617 116H31.617C31.617 117.105 32.5125 118 33.617 118V116ZM33.617 102V100C32.5125 100 31.617 100.895 31.617 102H33.617ZM34.017 102H36.017C36.017 100.895 35.1216 100 34.017 100V102ZM34.017 108.7H32.017C32.017 109.805 32.9125 110.7 34.017 110.7V108.7ZM44.217 108.7V110.7C45.3216 110.7 46.217 109.805 46.217 108.7H44.217ZM44.217 102V100C43.1125 100 42.217 100.895 42.217 102H44.217ZM42.617 102V116H46.617V102H42.617ZM44.617 114H44.217V118H44.617V114ZM46.217 116V109.08H42.217V116H46.217ZM44.217 107.08H34.017V111.08H44.217V107.08ZM32.017 109.08V116H36.017V109.08H32.017ZM34.017 114H33.617V118H34.017V114ZM35.617 116V102H31.617V116H35.617ZM33.617 104H34.017V100H33.617V104ZM32.017 102V108.7H36.017V102H32.017ZM34.017 110.7H44.217V106.7H34.017V110.7ZM46.217 108.7V102H42.217V108.7H46.217ZM44.217 104H44.617V100H44.217V104ZM61.2652 115.62H63.2652C63.2652 114.515 62.3697 113.62 61.2652 113.62V115.62ZM61.2652 116V118C62.3697 118 63.2652 117.105 63.2652 116H61.2652ZM51.9452 116H49.9452C49.9452 117.105 50.8406 118 51.9452 118V116ZM51.9452 102V100C50.8406 100 49.9452 100.895 49.9452 102H51.9452ZM60.9652 102H62.9652C62.9652 100.895 62.0697 100 60.9652 100V102ZM60.9652 102.38V104.38C62.0697 104.38 62.9652 103.485 62.9652 102.38H60.9652ZM52.3452 102.38V100.38C51.2406 100.38 50.3452 101.275 50.3452 102.38H52.3452ZM52.3452 108.7H50.3452C50.3452 109.805 51.2406 110.7 52.3452 110.7V108.7ZM60.0652 108.7H62.0652C62.0652 107.595 61.1697 106.7 60.0652 106.7V108.7ZM60.0652 109.08V111.08C61.1697 111.08 62.0652 110.185 62.0652 109.08H60.0652ZM52.3452 109.08V107.08C51.2406 107.08 50.3452 107.975 50.3452 109.08H52.3452ZM52.3452 115.62H50.3452C50.3452 116.725 51.2406 117.62 52.3452 117.62V115.62ZM59.2652 115.62V116H63.2652V115.62H59.2652ZM61.2652 114H51.9452V118H61.2652V114ZM53.9452 116V102H49.9452V116H53.9452ZM51.9452 104H60.9652V100H51.9452V104ZM58.9652 102V102.38H62.9652V102H58.9652ZM60.9652 100.38H52.3452V104.38H60.9652V100.38ZM50.3452 102.38V108.7H54.3452V102.38H50.3452ZM52.3452 110.7H60.0652V106.7H52.3452V110.7ZM58.0652 108.7V109.08H62.0652V108.7H58.0652ZM60.0652 107.08H52.3452V111.08H60.0652V107.08ZM50.3452 109.08V115.62H54.3452V109.08H50.3452ZM52.3452 117.62H61.2652V113.62H52.3452V117.62Z" fill="#FACB66"/>
<path d="M0 136.565C9.46667 139.821 32.0667 145.255 51 146.186C69.9333 147.152 84.5 143.5 124.5 142C164.5 140.5 174 146.186 217.5 146.186C261 146.186 284 131.252 284 131.252V322.609H274.533C265.067 322.609 246.133 322.609 227.2 322.609C208.267 322.609 189.333 322.609 170.4 322.609C151.467 322.609 132.533 322.609 113.6 322.609C94.6667 322.609 75.7333 322.609 56.8 322.609C37.8667 322.609 18.9333 322.609 9.46667 322.609H0V136.565Z" fill="#FACB66"/>
<path d="M0 186.402L9.46667 185.043C18.9333 183.647 37.8667 180.928 56.8 180.964C75.7333 181.036 94.6667 183.898 113.6 185.687C132.533 187.476 151.467 188.191 170.4 189.801C189.333 191.411 208.267 193.916 227.2 190.767C246.133 187.583 265.067 178.782 274.533 174.345L284 169.944V288.727H274.533C265.067 288.727 246.133 288.727 227.2 288.727C208.267 288.727 189.333 288.727 170.4 288.727C151.467 288.727 132.533 288.727 113.6 288.727C94.6667 288.727 75.7333 288.727 56.8 288.727C37.8667 288.727 18.9333 288.727 9.46667 288.727H0V186.402Z" fill="#F5BC51"/>
<path d="M0 238.192L9.46667 231.931C18.9333 225.67 37.8667 213.147 56.8 210.929C75.7333 208.747 94.6667 216.833 113.6 218.693C132.533 220.553 151.467 216.117 170.4 212.79C189.333 209.462 208.267 207.173 227.2 210.75C246.133 214.328 265.067 223.773 274.533 228.46L284 233.183V305.096H274.533C265.067 305.096 246.133 305.096 227.2 305.096C208.267 305.096 189.333 305.096 170.4 305.096C151.467 305.096 132.533 305.096 113.6 305.096C94.6667 305.096 75.7333 305.096 56.8 305.096C37.8667 305.096 18.9333 305.096 9.46667 305.096H0V238.192Z" fill="#F1AD3B"/>
<path d="M0 267.618L9.46667 265.936C18.9333 264.29 37.8667 246.362 56.8 243.5C75.7333 240.638 92.5 256 113.6 256.5C134.7 257 151.467 239.461 170.4 237.922C189.333 236.384 208.267 238.745 227.2 239.246C246.133 239.711 265.067 238.28 274.533 237.564L284 236.849V322.358H274.533C265.067 322.358 246.133 322.358 227.2 322.358C208.267 322.358 189.333 322.358 170.4 322.358C151.467 322.358 132.533 322.358 113.6 322.358C94.6667 322.358 75.7333 322.358 56.8 322.358C37.8667 322.358 18.9333 322.358 9.46667 322.358H0V267.618Z" fill="#ED9D24"/>
<path d="M0 286.938L9.46667 285.042C18.9333 283.11 37.8667 279.317 56.8 279.854C75.7333 280.39 94.6667 285.256 113.6 288.905C132.533 292.555 151.467 294.916 170.4 295.167C189.333 295.417 208.267 293.485 227.2 291.947C246.133 290.408 265.067 289.192 274.533 288.619L284 288.011V322.358H274.533C265.067 322.358 246.133 322.358 227.2 322.358C208.267 322.358 189.333 322.358 170.4 322.358C151.467 322.358 132.533 322.358 113.6 322.358C94.6667 322.358 75.7333 322.358 56.8 322.358C37.8667 322.358 18.9333 322.358 9.46667 322.358H0V286.938Z" fill="#E98D00"/>
<path d="M23.6153 196.4V194.9C22.7869 194.9 22.1153 195.572 22.1153 196.4H23.6153ZM24.5333 196.4H26.0333C26.0333 195.572 25.3618 194.9 24.5333 194.9V196.4ZM24.5333 208.172H23.0333C23.0333 209 23.7049 209.672 24.5333 209.672V208.172ZM31.7873 208.172H33.2873C33.2873 207.344 32.6158 206.672 31.7873 206.672V208.172ZM31.7873 209V210.5C32.6158 210.5 33.2873 209.828 33.2873 209H31.7873ZM23.6153 209H22.1153C22.1153 209.828 22.7869 210.5 23.6153 210.5V209ZM23.6153 197.9H24.5333V194.9H23.6153V197.9ZM23.0333 196.4V208.172H26.0333V196.4H23.0333ZM24.5333 209.672H31.7873V206.672H24.5333V209.672ZM30.2873 208.172V209H33.2873V208.172H30.2873ZM31.7873 207.5H23.6153V210.5H31.7873V207.5ZM25.1153 209V196.4H22.1153V209H25.1153ZM44.6386 208.172H46.1386C46.1386 207.344 45.4671 206.672 44.6386 206.672V208.172ZM44.6386 209V210.5C45.4671 210.5 46.1386 209.828 46.1386 209H44.6386ZM35.9446 209H34.4446C34.4446 209.828 35.1162 210.5 35.9446 210.5V209ZM35.9446 196.4V194.9C35.1162 194.9 34.4446 195.572 34.4446 196.4H35.9446ZM44.3686 196.4H45.8686C45.8686 195.572 45.1971 194.9 44.3686 194.9V196.4ZM44.3686 197.228V198.728C45.1971 198.728 45.8686 198.056 45.8686 197.228H44.3686ZM36.8626 197.228V195.728C36.0342 195.728 35.3626 196.4 35.3626 197.228H36.8626ZM36.8626 202.196H35.3626C35.3626 203.024 36.0342 203.696 36.8626 203.696V202.196ZM43.5766 202.196H45.0766C45.0766 201.368 44.4051 200.696 43.5766 200.696V202.196ZM43.5766 203.006V204.506C44.4051 204.506 45.0766 203.834 45.0766 203.006H43.5766ZM36.8626 203.006V201.506C36.0342 201.506 35.3626 202.178 35.3626 203.006H36.8626ZM36.8626 208.172H35.3626C35.3626 209 36.0342 209.672 36.8626 209.672V208.172ZM43.1386 208.172V209H46.1386V208.172H43.1386ZM44.6386 207.5H35.9446V210.5H44.6386V207.5ZM37.4446 209V196.4H34.4446V209H37.4446ZM35.9446 197.9H44.3686V194.9H35.9446V197.9ZM42.8686 196.4V197.228H45.8686V196.4H42.8686ZM44.3686 195.728H36.8626V198.728H44.3686V195.728ZM35.3626 197.228V202.196H38.3626V197.228H35.3626ZM36.8626 203.696H43.5766V200.696H36.8626V203.696ZM42.0766 202.196V203.006H45.0766V202.196H42.0766ZM43.5766 201.506H36.8626V204.506H43.5766V201.506ZM35.3626 203.006V208.172H38.3626V203.006H35.3626ZM36.8626 209.672H44.6386V206.672H36.8626V209.672ZM64.4527 197.534L63.4879 198.683L63.497 198.69L64.4527 197.534ZM64.4527 203.762L65.4084 204.918L65.4175 204.911L64.4527 203.762ZM57.1267 204.878V203.378C56.2983 203.378 55.6267 204.05 55.6267 204.878H57.1267ZM57.1267 209V210.5C57.9551 210.5 58.6267 209.828 58.6267 209H57.1267ZM56.2087 209H54.7087C54.7087 209.828 55.3803 210.5 56.2087 210.5V209ZM56.2087 196.4V194.9C55.3803 194.9 54.7087 195.572 54.7087 196.4H56.2087ZM63.8047 203.168L64.763 204.322L63.8047 203.168ZM63.8047 198.128L62.8349 199.272C62.8387 199.276 62.8425 199.279 62.8463 199.282L63.8047 198.128ZM57.1267 197.228V195.728C56.2983 195.728 55.6267 196.4 55.6267 197.228H57.1267ZM57.1267 204.05H55.6267C55.6267 204.878 56.2983 205.55 57.1267 205.55V204.05ZM60.7267 197.9C62.0809 197.9 62.9394 198.222 63.4879 198.683L65.4175 196.385C64.166 195.334 62.5405 194.9 60.7267 194.9V197.9ZM63.497 198.69C64.0013 199.107 64.3027 199.693 64.3027 200.648H67.3027C67.3027 198.939 66.7041 197.449 65.4084 196.378L63.497 198.69ZM64.3027 200.648C64.3027 201.586 64.0043 202.18 63.4879 202.613L65.4175 204.911C66.7011 203.832 67.3027 202.35 67.3027 200.648H64.3027ZM63.497 202.606C62.9482 203.06 62.0861 203.378 60.7267 203.378V206.378C62.5353 206.378 64.1572 205.952 65.4084 204.918L63.497 202.606ZM60.7267 203.378H57.1267V206.378H60.7267V203.378ZM55.6267 204.878V209H58.6267V204.878H55.6267ZM57.1267 207.5H56.2087V210.5H57.1267V207.5ZM57.7087 209V196.4H54.7087V209H57.7087ZM56.2087 197.9H60.7267V194.9H56.2087V197.9ZM60.7267 205.55C62.264 205.55 63.6858 205.217 64.763 204.322L62.8463 202.014C62.5076 202.295 61.8774 202.55 60.7267 202.55V205.55ZM64.763 204.322C65.8793 203.395 66.3667 202.094 66.3667 200.648H63.3667C63.3667 201.386 63.1461 201.765 62.8463 202.014L64.763 204.322ZM66.3667 200.648C66.3667 199.202 65.8793 197.901 64.763 196.974L62.8463 199.282C63.1461 199.531 63.3667 199.91 63.3667 200.648H66.3667ZM64.7745 196.984C63.6966 196.07 62.2701 195.728 60.7267 195.728V198.728C61.8713 198.728 62.4968 198.986 62.8349 199.272L64.7745 196.984ZM60.7267 195.728H57.1267V198.728H60.7267V195.728ZM55.6267 197.228V204.05H58.6267V197.228H55.6267ZM57.1267 205.55H60.7267V202.55H57.1267V205.55ZM70.7001 196.4V194.9C69.8717 194.9 69.2001 195.572 69.2001 196.4H70.7001ZM71.6181 196.4H73.1181C73.1181 195.572 72.4465 194.9 71.6181 194.9V196.4ZM71.6181 208.172H70.1181C70.1181 209 70.7897 209.672 71.6181 209.672V208.172ZM78.8721 208.172H80.3721C80.3721 207.344 79.7005 206.672 78.8721 206.672V208.172ZM78.8721 209V210.5C79.7005 210.5 80.3721 209.828 80.3721 209H78.8721ZM70.7001 209H69.2001C69.2001 209.828 69.8717 210.5 70.7001 210.5V209ZM70.7001 197.9H71.6181V194.9H70.7001V197.9ZM70.1181 196.4V208.172H73.1181V196.4H70.1181ZM71.6181 209.672H78.8721V206.672H71.6181V209.672ZM77.3721 208.172V209H80.3721V208.172H77.3721ZM78.8721 207.5H70.7001V210.5H78.8721V207.5ZM72.2001 209V196.4H69.2001V209H72.2001ZM83.9893 207.704L82.9007 208.736L82.9078 208.743L83.9893 207.704ZM82.6753 196.4V194.9C81.8469 194.9 81.1753 195.572 81.1753 196.4H82.6753ZM83.5933 196.4H85.0933C85.0933 195.572 84.4217 194.9 83.5933 194.9V196.4ZM84.6553 207.092L83.5524 208.109L84.6553 207.092ZM90.7933 207.092L89.6904 206.075L90.7933 207.092ZM91.8553 196.4V194.9C91.0269 194.9 90.3553 195.572 90.3553 196.4H91.8553ZM92.7733 196.4H94.2733C94.2733 195.572 93.6017 194.9 92.7733 194.9V196.4ZM91.4413 207.704L90.3598 206.665L91.4413 207.704ZM87.7153 207.59C86.4209 207.59 85.6098 207.225 85.0708 206.665L82.9078 208.743C84.1448 210.031 85.8177 210.59 87.7153 210.59V207.59ZM85.0779 206.672C84.5552 206.121 84.1753 205.199 84.1753 203.654H81.1753C81.1753 205.661 81.6714 207.439 82.9007 208.736L85.0779 206.672ZM84.1753 203.654V196.4H81.1753V203.654H84.1753ZM82.6753 197.9H83.5933V194.9H82.6753V197.9ZM82.0933 196.4V203.618H85.0933V196.4H82.0933ZM82.0933 203.618C82.0933 205.365 82.4897 206.956 83.5524 208.109L85.7582 206.075C85.4049 205.692 85.0933 204.967 85.0933 203.618H82.0933ZM83.5524 208.109C84.6205 209.267 86.0976 209.744 87.7333 209.744V206.744C86.681 206.744 86.1061 206.453 85.7582 206.075L83.5524 208.109ZM87.7333 209.744C89.3617 209.744 90.8306 209.265 91.8962 208.109L89.6904 206.075C89.34 206.455 88.7689 206.744 87.7333 206.744V209.744ZM91.8962 208.109C92.9589 206.956 93.3553 205.365 93.3553 203.618H90.3553C90.3553 204.967 90.0437 205.692 89.6904 206.075L91.8962 208.109ZM93.3553 203.618V196.4H90.3553V203.618H93.3553ZM91.8553 197.9H92.7733V194.9H91.8553V197.9ZM91.2733 196.4V203.654H94.2733V196.4H91.2733ZM91.2733 203.654C91.2733 205.194 90.89 206.113 90.3598 206.665L92.5228 208.743C93.7686 207.447 94.2733 205.666 94.2733 203.654H91.2733ZM90.3598 206.665C89.8208 207.225 89.0097 207.59 87.7153 207.59V210.59C89.6129 210.59 91.2858 210.031 92.5228 208.743L90.3598 206.665ZM99.5227 208.622L98.9761 210.019C98.9842 210.022 98.9923 210.025 99.0005 210.028L99.5227 208.622ZM97.5787 207.38L96.2955 206.603C95.9487 207.176 96.0238 207.91 96.4796 208.401L97.5787 207.38ZM97.9927 206.696L99.0809 205.664C98.759 205.324 98.2971 205.154 97.8319 205.205C97.3668 205.255 96.9517 205.519 96.7095 205.919L97.9927 206.696ZM99.7747 207.848L99.2138 209.239C99.2227 209.243 99.2317 209.246 99.2408 209.25L99.7747 207.848ZM104.869 207.596L105.765 208.799L104.869 207.596ZM104.095 203.69L104.621 202.286L104.095 203.69ZM102.151 203.132L101.791 204.588C101.797 204.59 101.802 204.591 101.807 204.592L102.151 203.132ZM99.9187 202.466L99.3721 203.863L99.3823 203.867L99.9187 202.466ZM98.4967 201.476L97.3494 202.442C97.3585 202.453 97.3678 202.464 97.3773 202.474L98.4967 201.476ZM98.4067 197.984L99.6685 198.795C99.6714 198.791 99.6742 198.786 99.6771 198.782L98.4067 197.984ZM99.8827 196.76L99.2713 195.39L99.262 195.394L99.8827 196.76ZM104.437 196.616L104.001 198.051L104.437 196.616ZM106.183 197.444L107.544 198.075C107.848 197.418 107.64 196.637 107.049 196.219L106.183 197.444ZM105.841 198.182L104.988 199.416C105.352 199.668 105.809 199.746 106.235 199.629C106.662 199.513 107.016 199.214 107.202 198.813L105.841 198.182ZM104.167 197.39L103.736 198.827L103.743 198.829L104.167 197.39ZM99.7387 197.822L98.8162 196.639L99.7387 197.822ZM99.3247 200.99L98.245 202.031L99.3247 200.99ZM100.531 201.764L100.004 203.168L100.531 201.764ZM102.493 202.34L102.852 200.884L102.493 202.34ZM104.707 203.006L104.16 204.403L104.707 203.006ZM106.111 203.996L104.976 204.977C104.986 204.988 104.995 204.999 105.005 205.01L106.111 203.996ZM106.201 207.434L104.953 206.602C104.948 206.609 104.943 206.616 104.939 206.623L106.201 207.434ZM104.689 208.64L104.086 207.266L104.689 208.64ZM102.169 207.59C101.417 207.59 100.713 207.464 100.045 207.216L99.0005 210.028C100.013 210.404 101.072 210.59 102.169 210.59V207.59ZM100.069 207.225C99.3922 206.96 98.9543 206.657 98.6779 206.359L96.4796 208.401C97.1392 209.111 97.9973 209.636 98.9761 210.019L100.069 207.225ZM98.862 208.157L99.276 207.473L96.7095 205.919L96.2955 206.603L98.862 208.157ZM96.9045 207.728C97.528 208.386 98.3176 208.878 99.2138 209.239L100.336 206.457C99.7439 206.218 99.3455 205.942 99.0809 205.664L96.9045 207.728ZM99.2408 209.25C100.171 209.604 101.145 209.78 102.151 209.78V206.78C101.501 206.78 100.89 206.668 100.309 206.446L99.2408 209.25ZM102.151 209.78C103.501 209.78 104.784 209.53 105.765 208.799L103.973 206.393C103.73 206.574 103.2 206.78 102.151 206.78V209.78ZM105.765 208.799C106.738 208.074 107.287 207.043 107.287 205.814H104.287C104.287 206.049 104.224 206.206 103.973 206.393L105.765 208.799ZM107.287 205.814C107.287 204.948 107.028 204.095 106.381 203.423L104.221 205.505C104.221 205.505 104.287 205.552 104.287 205.814H107.287ZM106.381 203.423C105.887 202.911 105.29 202.536 104.621 202.286L103.568 205.094C103.86 205.204 104.067 205.345 104.221 205.505L106.381 203.423ZM104.621 202.286C104.056 202.074 103.339 201.871 102.494 201.672L101.807 204.592C102.595 204.777 103.173 204.946 103.568 205.094L104.621 202.286ZM102.51 201.676C101.616 201.455 100.938 201.25 100.455 201.065L99.3823 203.867C100.027 204.114 100.837 204.353 101.791 204.588L102.51 201.676ZM100.465 201.069C100.134 200.939 99.8558 200.746 99.6162 200.478L97.3773 202.474C97.9297 203.094 98.5997 203.561 99.3721 203.863L100.465 201.069ZM99.6441 200.51C99.5435 200.39 99.4207 200.158 99.4207 199.658H96.4207C96.4207 200.67 96.682 201.65 97.3494 202.442L99.6441 200.51ZM99.4207 199.658C99.4207 199.327 99.5035 199.052 99.6685 198.795L97.145 197.173C96.6619 197.924 96.4207 198.765 96.4207 199.658H99.4207ZM99.6771 198.782C99.8172 198.559 100.059 198.327 100.503 198.126L99.262 195.394C98.3862 195.793 97.6443 196.377 97.1364 197.186L99.6771 198.782ZM100.494 198.13C100.919 197.94 101.529 197.81 102.385 197.81V194.81C101.248 194.81 100.191 194.98 99.2713 195.39L100.494 198.13ZM102.385 197.81C102.932 197.81 103.469 197.89 104.001 198.051L104.872 195.181C104.06 194.934 103.23 194.81 102.385 194.81V197.81ZM104.001 198.051C104.544 198.216 104.975 198.427 105.317 198.669L107.049 196.219C106.406 195.765 105.673 195.424 104.872 195.181L104.001 198.051ZM104.822 196.813L104.48 197.551L107.202 198.813L107.544 198.075L104.822 196.813ZM106.693 196.948C106.052 196.505 105.349 196.174 104.59 195.951L103.743 198.829C104.209 198.966 104.621 199.163 104.988 199.416L106.693 196.948ZM104.598 195.953C103.867 195.734 103.128 195.62 102.385 195.62V198.62C102.818 198.62 103.266 198.686 103.736 198.827L104.598 195.953ZM102.385 195.62C101.054 195.62 99.787 195.882 98.8162 196.639L100.661 199.005C100.89 198.826 101.387 198.62 102.385 198.62V195.62ZM98.8162 196.639C97.8615 197.384 97.3387 198.422 97.3387 199.64H100.339C100.339 199.37 100.416 199.196 100.661 199.005L98.8162 196.639ZM97.3387 199.64C97.3387 200.506 97.5971 201.359 98.245 202.031L100.405 199.949C100.404 199.949 100.339 199.902 100.339 199.64H97.3387ZM98.245 202.031C98.7387 202.543 99.3358 202.918 100.004 203.168L101.057 200.36C100.766 200.25 100.559 200.109 100.405 199.949L98.245 202.031ZM100.004 203.168C100.563 203.378 101.281 203.586 102.134 203.796L102.852 200.884C102.049 200.686 101.459 200.51 101.057 200.36L100.004 203.168ZM102.133 203.796C103.027 204.017 103.694 204.221 104.16 204.403L105.253 201.609C104.615 201.359 103.807 201.119 102.852 200.884L102.133 203.796ZM104.16 204.403C104.488 204.531 104.753 204.719 104.976 204.977L107.245 203.015C106.7 202.385 106.03 201.913 105.253 201.609L104.16 204.403ZM105.005 205.01C105.084 205.096 105.205 205.286 105.205 205.76H108.205C108.205 204.746 107.929 203.76 107.216 202.982L105.005 205.01ZM105.205 205.76C105.205 206.079 105.123 206.347 104.953 206.602L107.449 208.266C107.951 207.513 108.205 206.665 108.205 205.76H105.205ZM104.939 206.623C104.81 206.824 104.567 207.056 104.086 207.266L105.291 210.014C106.179 209.624 106.944 209.052 107.463 208.245L104.939 206.623ZM104.086 207.266C103.644 207.46 103.023 207.59 102.169 207.59V210.59C103.307 210.59 104.365 210.42 105.291 210.014L104.086 207.266ZM110.879 203.762V202.262C110.051 202.262 109.379 202.934 109.379 203.762H110.879ZM115.505 203.762H117.005C117.005 202.934 116.334 202.262 115.505 202.262V203.762ZM115.505 204.572V206.072C116.334 206.072 117.005 205.4 117.005 204.572H115.505ZM110.879 204.572H109.379C109.379 205.4 110.051 206.072 110.879 206.072V204.572ZM110.879 205.262H115.505V202.262H110.879V205.262ZM114.005 203.762V204.572H117.005V203.762H114.005ZM115.505 203.072H110.879V206.072H115.505V203.072ZM112.379 204.572V203.762H109.379V204.572H112.379ZM122.771 208.262L122.032 209.567L122.044 209.574L122.771 208.262ZM120.413 205.958L119.116 206.711L119.123 206.723L120.413 205.958ZM120.413 199.442L119.123 198.677L119.116 198.689L120.413 199.442ZM122.771 197.156L123.498 198.468L123.51 198.461L122.771 197.156ZM131.807 199.424L130.51 200.177L130.517 200.189L131.807 199.424ZM131.807 205.976L130.517 205.211L130.51 205.223L131.807 205.976ZM129.467 208.262L130.194 209.574L129.467 208.262ZM128.981 207.524L128.245 206.217L128.981 207.524ZM130.997 205.544L132.291 206.302L132.296 206.294L130.997 205.544ZM130.997 199.874L129.698 200.624L129.703 200.632L130.997 199.874ZM128.981 197.876L128.245 199.183L128.981 197.876ZM123.239 197.876L122.511 196.565L122.503 196.569L123.239 197.876ZM121.223 199.874L122.518 200.632L122.522 200.624L121.223 199.874ZM121.223 205.544L119.924 206.294L119.929 206.302L121.223 205.544ZM123.239 207.524L122.503 208.831L122.511 208.835L123.239 207.524ZM126.119 207.59C125.115 207.59 124.253 207.368 123.498 206.95L122.044 209.574C123.281 210.26 124.651 210.59 126.119 210.59V207.59ZM123.51 206.957C122.739 206.52 122.144 205.937 121.704 205.193L119.123 206.723C119.834 207.923 120.811 208.876 122.032 209.567L123.51 206.957ZM121.711 205.205C121.288 204.477 121.067 203.654 121.067 202.7H118.067C118.067 204.146 118.41 205.495 119.116 206.711L121.711 205.205ZM121.067 202.7C121.067 201.746 121.288 200.923 121.711 200.195L119.116 198.689C118.41 199.905 118.067 201.254 118.067 202.7H121.067ZM121.704 200.207C122.143 199.466 122.733 198.892 123.498 198.468L122.044 195.844C120.817 196.524 119.836 197.474 119.123 198.677L121.704 200.207ZM123.51 198.461C124.263 198.035 125.121 197.81 126.119 197.81V194.81C124.645 194.81 123.271 195.149 122.032 195.851L123.51 198.461ZM126.119 197.81C127.123 197.81 127.985 198.032 128.74 198.45L130.194 195.826C128.957 195.14 127.587 194.81 126.119 194.81V197.81ZM128.74 198.45C129.502 198.872 130.084 199.443 130.51 200.177L133.105 198.671C132.403 197.461 131.424 196.508 130.194 195.826L128.74 198.45ZM130.517 200.189C130.946 200.912 131.171 201.737 131.171 202.7H134.171C134.171 201.239 133.821 199.88 133.098 198.659L130.517 200.189ZM131.171 202.7C131.171 203.663 130.946 204.488 130.517 205.211L133.098 206.741C133.821 205.52 134.171 204.161 134.171 202.7H131.171ZM130.51 205.223C130.084 205.957 129.502 206.528 128.74 206.95L130.194 209.574C131.424 208.892 132.403 207.939 133.105 206.729L130.51 205.223ZM128.74 206.95C127.985 207.368 127.123 207.59 126.119 207.59V210.59C127.587 210.59 128.957 210.26 130.194 209.574L128.74 206.95ZM126.119 209.744C127.412 209.744 128.623 209.448 129.717 208.831L128.245 206.217C127.635 206.56 126.938 206.744 126.119 206.744V209.744ZM129.717 208.831C130.8 208.221 131.665 207.372 132.291 206.302L129.703 204.786C129.346 205.396 128.867 205.867 128.245 206.217L129.717 208.831ZM132.296 206.294C132.928 205.2 133.235 203.991 133.235 202.7H130.235C130.235 203.497 130.05 204.184 129.698 204.794L132.296 206.294ZM133.235 202.7C133.235 201.41 132.928 200.203 132.291 199.116L129.703 200.632C130.05 201.225 130.235 201.902 130.235 202.7H133.235ZM132.296 199.124C131.671 198.041 130.805 197.182 129.717 196.569L128.245 199.183C128.861 199.53 129.34 200.003 129.698 200.624L132.296 199.124ZM129.717 196.569C128.623 195.952 127.412 195.656 126.119 195.656V198.656C126.938 198.656 127.635 198.84 128.245 199.183L129.717 196.569ZM126.119 195.656C124.826 195.656 123.613 195.953 122.511 196.565L123.968 199.187C124.594 198.839 125.3 198.656 126.119 198.656V195.656ZM122.503 196.569C121.415 197.182 120.55 198.041 119.924 199.124L122.522 200.624C122.881 200.003 123.359 199.53 123.975 199.183L122.503 196.569ZM119.929 199.116C119.292 200.203 118.985 201.41 118.985 202.7H121.985C121.985 201.902 122.17 201.225 122.517 200.632L119.929 199.116ZM118.985 202.7C118.985 203.991 119.292 205.2 119.924 206.294L122.522 204.794C122.17 204.184 121.985 203.497 121.985 202.7H118.985ZM119.929 206.302C120.556 207.372 121.421 208.221 122.503 208.831L123.975 206.217C123.354 205.867 122.875 205.396 122.517 204.786L119.929 206.302ZM122.511 208.835C123.613 209.447 124.826 209.744 126.119 209.744V206.744C125.3 206.744 124.594 206.561 123.968 206.213L122.511 208.835ZM138.861 207.704L137.773 208.736L137.78 208.743L138.861 207.704ZM137.547 196.4V194.9C136.719 194.9 136.047 195.572 136.047 196.4H137.547ZM138.465 196.4H139.965C139.965 195.572 139.294 194.9 138.465 194.9V196.4ZM139.527 207.092L138.424 208.109L139.527 207.092ZM145.665 207.092L144.562 206.075L145.665 207.092ZM146.727 196.4V194.9C145.899 194.9 145.227 195.572 145.227 196.4H146.727ZM147.645 196.4H149.145C149.145 195.572 148.474 194.9 147.645 194.9V196.4ZM146.313 207.704L145.232 206.665L146.313 207.704ZM142.587 207.59C141.293 207.59 140.482 207.225 139.943 206.665L137.78 208.743C139.017 210.031 140.69 210.59 142.587 210.59V207.59ZM139.95 206.672C139.427 206.121 139.047 205.199 139.047 203.654H136.047C136.047 205.661 136.543 207.439 137.773 208.736L139.95 206.672ZM139.047 203.654V196.4H136.047V203.654H139.047ZM137.547 197.9H138.465V194.9H137.547V197.9ZM136.965 196.4V203.618H139.965V196.4H136.965ZM136.965 203.618C136.965 205.365 137.362 206.956 138.424 208.109L140.63 206.075C140.277 205.692 139.965 204.967 139.965 203.618H136.965ZM138.424 208.109C139.492 209.267 140.969 209.744 142.605 209.744V206.744C141.553 206.744 140.978 206.453 140.63 206.075L138.424 208.109ZM142.605 209.744C144.234 209.744 145.702 209.265 146.768 208.109L144.562 206.075C144.212 206.455 143.641 206.744 142.605 206.744V209.744ZM146.768 208.109C147.831 206.956 148.227 205.365 148.227 203.618H145.227C145.227 204.967 144.916 205.692 144.562 206.075L146.768 208.109ZM148.227 203.618V196.4H145.227V203.618H148.227ZM146.727 197.9H147.645V194.9H146.727V197.9ZM146.145 196.4V203.654H149.145V196.4H146.145ZM146.145 203.654C146.145 205.194 145.762 206.113 145.232 206.665L147.395 208.743C148.64 207.447 149.145 205.666 149.145 203.654H146.145ZM145.232 206.665C144.693 207.225 143.882 207.59 142.587 207.59V210.59C144.485 210.59 146.158 210.031 147.395 208.743L145.232 206.665ZM162.423 208.172H163.923C163.923 207.344 163.251 206.672 162.423 206.672V208.172ZM162.423 209V210.5C163.251 210.5 163.923 209.828 163.923 209H162.423ZM153.729 209H152.229C152.229 209.828 152.9 210.5 153.729 210.5V209ZM153.729 196.4V194.9C152.9 194.9 152.229 195.572 152.229 196.4H153.729ZM162.153 196.4H163.653C163.653 195.572 162.981 194.9 162.153 194.9V196.4ZM162.153 197.228V198.728C162.981 198.728 163.653 198.056 163.653 197.228H162.153ZM154.647 197.228V195.728C153.818 195.728 153.147 196.4 153.147 197.228H154.647ZM154.647 202.196H153.147C153.147 203.024 153.818 203.696 154.647 203.696V202.196ZM161.361 202.196H162.861C162.861 201.368 162.189 200.696 161.361 200.696V202.196ZM161.361 203.006V204.506C162.189 204.506 162.861 203.834 162.861 203.006H161.361ZM154.647 203.006V201.506C153.818 201.506 153.147 202.178 153.147 203.006H154.647ZM154.647 208.172H153.147C153.147 209 153.818 209.672 154.647 209.672V208.172ZM160.923 208.172V209H163.923V208.172H160.923ZM162.423 207.5H153.729V210.5H162.423V207.5ZM155.229 209V196.4H152.229V209H155.229ZM153.729 197.9H162.153V194.9H153.729V197.9ZM160.653 196.4V197.228H163.653V196.4H160.653ZM162.153 195.728H154.647V198.728H162.153V195.728ZM153.147 197.228V202.196H156.147V197.228H153.147ZM154.647 203.696H161.361V200.696H154.647V203.696ZM159.861 202.196V203.006H162.861V202.196H159.861ZM161.361 201.506H154.647V204.506H161.361V201.506ZM153.147 203.006V208.172H156.147V203.006H153.147ZM154.647 209.672H162.423V206.672H154.647V209.672ZM166.138 203.762V202.262C165.31 202.262 164.638 202.934 164.638 203.762H166.138ZM170.764 203.762H172.264C172.264 202.934 171.592 202.262 170.764 202.262V203.762ZM170.764 204.572V206.072C171.592 206.072 172.264 205.4 172.264 204.572H170.764ZM166.138 204.572H164.638C164.638 205.4 165.31 206.072 166.138 206.072V204.572ZM166.138 205.262H170.764V202.262H166.138V205.262ZM169.264 203.762V204.572H172.264V203.762H169.264ZM170.764 203.072H166.138V206.072H170.764V203.072ZM167.638 204.572V203.762H164.638V204.572H167.638ZM184.118 197.534L183.153 198.683L183.162 198.69L184.118 197.534ZM184.118 203.762L185.073 204.918L185.082 204.911L184.118 203.762ZM176.792 204.878V203.378C175.963 203.378 175.292 204.05 175.292 204.878H176.792ZM176.792 209V210.5C177.62 210.5 178.292 209.828 178.292 209H176.792ZM175.874 209H174.374C174.374 209.828 175.045 210.5 175.874 210.5V209ZM175.874 196.4V194.9C175.045 194.9 174.374 195.572 174.374 196.4H175.874ZM183.47 203.168L184.428 204.322L183.47 203.168ZM183.47 198.128L182.5 199.272C182.504 199.276 182.507 199.279 182.511 199.282L183.47 198.128ZM176.792 197.228V195.728C175.963 195.728 175.292 196.4 175.292 197.228H176.792ZM176.792 204.05H175.292C175.292 204.878 175.963 205.55 176.792 205.55V204.05ZM180.392 197.9C181.746 197.9 182.604 198.222 183.153 198.683L185.082 196.385C183.831 195.334 182.205 194.9 180.392 194.9V197.9ZM183.162 198.69C183.666 199.107 183.968 199.693 183.968 200.648H186.968C186.968 198.939 186.369 197.449 185.073 196.378L183.162 198.69ZM183.968 200.648C183.968 201.586 183.669 202.18 183.153 202.613L185.082 204.911C186.366 203.832 186.968 202.35 186.968 200.648H183.968ZM183.162 202.606C182.613 203.06 181.751 203.378 180.392 203.378V206.378C182.2 206.378 183.822 205.952 185.073 204.918L183.162 202.606ZM180.392 203.378H176.792V206.378H180.392V203.378ZM175.292 204.878V209H178.292V204.878H175.292ZM176.792 207.5H175.874V210.5H176.792V207.5ZM177.374 209V196.4H174.374V209H177.374ZM175.874 197.9H180.392V194.9H175.874V197.9ZM180.392 205.55C181.929 205.55 183.351 205.217 184.428 204.322L182.511 202.014C182.172 202.295 181.542 202.55 180.392 202.55V205.55ZM184.428 204.322C185.544 203.395 186.032 202.094 186.032 200.648H183.032C183.032 201.386 182.811 201.765 182.511 202.014L184.428 204.322ZM186.032 200.648C186.032 199.202 185.544 197.901 184.428 196.974L182.511 199.282C182.811 199.531 183.032 199.91 183.032 200.648H186.032ZM184.439 196.984C183.361 196.07 181.935 195.728 180.392 195.728V198.728C181.536 198.728 182.162 198.986 182.5 199.272L184.439 196.984ZM180.392 195.728H176.792V198.728H180.392V195.728ZM175.292 197.228V204.05H178.292V197.228H175.292ZM176.792 205.55H180.392V202.55H176.792V205.55ZM197.526 205.454L198.89 204.831C198.646 204.297 198.113 203.954 197.526 203.954V205.454ZM190.218 205.454V203.954C189.629 203.954 189.094 204.299 188.851 204.836L190.218 205.454ZM188.616 209V210.5C189.206 210.5 189.74 210.155 189.983 209.618L188.616 209ZM187.626 209L186.263 208.373C186.05 208.838 186.087 209.379 186.363 209.809C186.639 210.24 187.115 210.5 187.626 210.5V209ZM193.422 196.4V194.9C192.836 194.9 192.304 195.241 192.059 195.773L193.422 196.4ZM194.34 196.4L195.703 195.773C195.458 195.241 194.926 194.9 194.34 194.9V196.4ZM200.136 209V210.5C200.647 210.5 201.123 210.24 201.399 209.809C201.675 209.379 201.713 208.838 201.499 208.373L200.136 209ZM199.146 209L197.782 209.623C198.026 210.157 198.559 210.5 199.146 210.5V209ZM197.184 204.68V206.18C197.694 206.18 198.17 205.921 198.446 205.492C198.722 205.063 198.761 204.523 198.549 204.058L197.184 204.68ZM193.872 197.408L195.237 196.786C194.993 196.251 194.459 195.907 193.871 195.908C193.282 195.909 192.749 196.253 192.506 196.789L193.872 197.408ZM190.578 204.68L189.212 204.061C189.001 204.525 189.041 205.065 189.318 205.493C189.594 205.921 190.068 206.18 190.578 206.18V204.68ZM197.526 203.954H190.218V206.954H197.526V203.954ZM188.851 204.836L187.249 208.382L189.983 209.618L191.585 206.072L188.851 204.836ZM188.616 207.5H187.626V210.5H188.616V207.5ZM188.989 209.627L194.785 197.027L192.059 195.773L186.263 208.373L188.989 209.627ZM193.422 197.9H194.34V194.9H193.422V197.9ZM192.977 197.027L198.773 209.627L201.499 208.373L195.703 195.773L192.977 197.027ZM200.136 207.5H199.146V210.5H200.136V207.5ZM200.51 208.377L198.89 204.831L196.162 206.077L197.782 209.623L200.51 208.377ZM198.549 204.058L195.237 196.786L192.507 198.03L195.819 205.302L198.549 204.058ZM192.506 196.789L189.212 204.061L191.944 205.299L195.238 198.027L192.506 196.789ZM190.578 206.18H197.184V203.18H190.578V206.18ZM212.972 209L211.751 209.871C212.032 210.266 212.487 210.5 212.972 210.5V209ZM209.966 204.788L211.186 203.917C210.863 203.464 210.316 203.227 209.765 203.302L209.966 204.788ZM205.142 204.878V203.378C204.313 203.378 203.642 204.05 203.642 204.878H205.142ZM205.142 209V210.5C205.97 210.5 206.642 209.828 206.642 209H205.142ZM204.224 209H202.724C202.724 209.828 203.395 210.5 204.224 210.5V209ZM204.224 196.4V194.9C203.395 194.9 202.724 195.572 202.724 196.4H204.224ZM212.468 197.534L211.503 198.683L211.512 198.69L212.468 197.534ZM213.044 203.168L211.846 202.265L211.844 202.268L213.044 203.168ZM210.866 204.59L210.446 203.15C209.979 203.286 209.607 203.639 209.448 204.099C209.289 204.558 209.362 205.066 209.645 205.462L210.866 204.59ZM214.016 209V210.5C214.577 210.5 215.092 210.186 215.349 209.686C215.606 209.187 215.563 208.585 215.236 208.128L214.016 209ZM211.82 203.186L212.778 204.34C212.782 204.337 212.786 204.334 212.789 204.33L211.82 203.186ZM211.82 198.128L210.85 199.272C210.854 199.276 210.857 199.279 210.861 199.282L211.82 198.128ZM205.142 197.228V195.728C204.313 195.728 203.642 196.4 203.642 197.228H205.142ZM205.142 204.068H203.642C203.642 204.896 204.313 205.568 205.142 205.568V204.068ZM214.192 208.129L211.186 203.917L208.745 205.659L211.751 209.871L214.192 208.129ZM209.765 203.302C209.374 203.354 209.034 203.378 208.742 203.378V206.378C209.193 206.378 209.669 206.342 210.166 206.274L209.765 203.302ZM208.742 203.378H205.142V206.378H208.742V203.378ZM203.642 204.878V209H206.642V204.878H203.642ZM205.142 207.5H204.224V210.5H205.142V207.5ZM205.724 209V196.4H202.724V209H205.724ZM204.224 197.9H208.742V194.9H204.224V197.9ZM208.742 197.9C210.096 197.9 210.954 198.222 211.503 198.683L213.432 196.385C212.181 195.334 210.555 194.9 208.742 194.9V197.9ZM211.512 198.69C212.016 199.107 212.318 199.693 212.318 200.648H215.318C215.318 198.939 214.719 197.449 213.423 196.378L211.512 198.69ZM212.318 200.648C212.318 201.373 212.135 201.882 211.846 202.265L214.241 204.071C214.984 203.086 215.318 201.915 215.318 200.648H212.318ZM211.844 202.268C211.567 202.637 211.139 202.948 210.446 203.15L211.285 206.03C212.488 205.68 213.512 205.043 214.244 204.068L211.844 202.268ZM209.645 205.462L212.795 209.872L215.236 208.128L212.086 203.718L209.645 205.462ZM214.016 207.5H212.972V210.5H214.016V207.5ZM208.742 205.568C210.279 205.568 211.701 205.235 212.778 204.34L210.861 202.032C210.522 202.313 209.892 202.568 208.742 202.568V205.568ZM212.789 204.33C213.894 203.394 214.382 202.095 214.382 200.648H211.382C211.382 201.385 211.161 201.778 210.85 202.042L212.789 204.33ZM214.382 200.648C214.382 199.202 213.894 197.901 212.778 196.974L210.861 199.282C211.161 199.531 211.382 199.91 211.382 200.648H214.382ZM212.789 196.984C211.711 196.07 210.285 195.728 208.742 195.728V198.728C209.886 198.728 210.512 198.986 210.85 199.272L212.789 196.984ZM208.742 195.728H205.142V198.728H208.742V195.728ZM203.642 197.228V204.068H206.642V197.228H203.642ZM205.142 205.568H208.742V202.568H205.142V205.568ZM219.897 197.228V195.728C219.068 195.728 218.397 196.4 218.397 197.228H219.897ZM219.897 202.61H218.397C218.397 203.438 219.068 204.11 219.897 204.11V202.61ZM226.611 202.61H228.111C228.111 201.782 227.439 201.11 226.611 201.11V202.61ZM226.611 203.438V204.938C227.439 204.938 228.111 204.266 228.111 203.438H226.611ZM219.897 203.438V201.938C219.068 201.938 218.397 202.61 218.397 203.438H219.897ZM219.897 209V210.5C220.725 210.5 221.397 209.828 221.397 209H219.897ZM218.979 209H217.479C217.479 209.828 218.15 210.5 218.979 210.5V209ZM218.979 196.4V194.9C218.15 194.9 217.479 195.572 217.479 196.4H218.979ZM227.403 196.4H228.903C228.903 195.572 228.231 194.9 227.403 194.9V196.4ZM227.403 197.228V198.728C228.231 198.728 228.903 198.056 228.903 197.228H227.403ZM218.397 197.228V202.61H221.397V197.228H218.397ZM219.897 204.11H226.611V201.11H219.897V204.11ZM225.111 202.61V203.438H228.111V202.61H225.111ZM226.611 201.938H219.897V204.938H226.611V201.938ZM218.397 203.438V209H221.397V203.438H218.397ZM219.897 207.5H218.979V210.5H219.897V207.5ZM220.479 209V196.4H217.479V209H220.479ZM218.979 197.9H227.403V194.9H218.979V197.9ZM225.903 196.4V197.228H228.903V196.4H225.903ZM227.403 195.728H219.897V198.728H227.403V195.728ZM239.928 205.454L241.292 204.831C241.048 204.297 240.515 203.954 239.928 203.954V205.454ZM232.62 205.454V203.954C232.031 203.954 231.496 204.299 231.253 204.836L232.62 205.454ZM231.018 209V210.5C231.608 210.5 232.142 210.155 232.385 209.618L231.018 209ZM230.028 209L228.665 208.373C228.452 208.838 228.489 209.379 228.765 209.809C229.041 210.24 229.517 210.5 230.028 210.5V209ZM235.824 196.4V194.9C235.238 194.9 234.706 195.241 234.461 195.773L235.824 196.4ZM236.742 196.4L238.105 195.773C237.86 195.241 237.328 194.9 236.742 194.9V196.4ZM242.538 209V210.5C243.049 210.5 243.525 210.24 243.801 209.809C244.077 209.379 244.114 208.838 243.901 208.373L242.538 209ZM241.548 209L240.184 209.623C240.428 210.157 240.961 210.5 241.548 210.5V209ZM239.586 204.68V206.18C240.096 206.18 240.571 205.921 240.848 205.492C241.124 205.063 241.163 204.523 240.951 204.058L239.586 204.68ZM236.274 197.408L237.639 196.786C237.395 196.251 236.861 195.907 236.273 195.908C235.684 195.909 235.15 196.253 234.908 196.789L236.274 197.408ZM232.98 204.68L231.614 204.061C231.403 204.525 231.443 205.065 231.719 205.493C231.996 205.921 232.47 206.18 232.98 206.18V204.68ZM239.928 203.954H232.62V206.954H239.928V203.954ZM231.253 204.836L229.651 208.382L232.385 209.618L233.987 206.072L231.253 204.836ZM231.018 207.5H230.028V210.5H231.018V207.5ZM231.391 209.627L237.187 197.027L234.461 195.773L228.665 208.373L231.391 209.627ZM235.824 197.9H236.742V194.9H235.824V197.9ZM235.379 197.027L241.175 209.627L243.901 208.373L238.105 195.773L235.379 197.027ZM242.538 207.5H241.548V210.5H242.538V207.5ZM242.912 208.377L241.292 204.831L238.564 206.077L240.184 209.623L242.912 208.377ZM240.951 204.058L237.639 196.786L234.909 198.03L238.221 205.302L240.951 204.058ZM234.908 196.789L231.614 204.061L234.346 205.299L237.64 198.027L234.908 196.789ZM232.98 206.18H239.586V203.18H232.98V206.18ZM247.525 196.4V194.9C246.697 194.9 246.025 195.572 246.025 196.4H247.525ZM248.443 196.4H249.943C249.943 195.572 249.272 194.9 248.443 194.9V196.4ZM248.443 209V210.5C249.272 210.5 249.943 209.828 249.943 209H248.443ZM247.525 209H246.025C246.025 209.828 246.697 210.5 247.525 210.5V209ZM247.525 197.9H248.443V194.9H247.525V197.9ZM246.943 196.4V209H249.943V196.4H246.943ZM248.443 207.5H247.525V210.5H248.443V207.5ZM249.025 209V196.4H246.025V209H249.025ZM257.046 197.228H258.546C258.546 196.4 257.875 195.728 257.046 195.728V197.228ZM252.51 197.228H251.01C251.01 198.056 251.682 198.728 252.51 198.728V197.228ZM252.51 196.4V194.9C251.682 194.9 251.01 195.572 251.01 196.4H252.51ZM262.5 196.4H264C264 195.572 263.329 194.9 262.5 194.9V196.4ZM262.5 197.228V198.728C263.329 198.728 264 198.056 264 197.228H262.5ZM257.964 197.228V195.728C257.136 195.728 256.464 196.4 256.464 197.228H257.964ZM257.964 209V210.5C258.793 210.5 259.464 209.828 259.464 209H257.964ZM257.046 209H255.546C255.546 209.828 256.218 210.5 257.046 210.5V209ZM257.046 195.728H252.51V198.728H257.046V195.728ZM254.01 197.228V196.4H251.01V197.228H254.01ZM252.51 197.9H262.5V194.9H252.51V197.9ZM261 196.4V197.228H264V196.4H261ZM262.5 195.728H257.964V198.728H262.5V195.728ZM256.464 197.228V209H259.464V197.228H256.464ZM257.964 207.5H257.046V210.5H257.964V207.5ZM258.546 209V197.228H255.546V209H258.546Z" fill="white"/>
<path d="M129.492 208.093L131.984 209.255" stroke="white" stroke-width="3.75" stroke-linecap="round"/>
<g style="mix-blend-mode:soft-light">
<path d="M21 188H263" stroke="white"/>
</g>
<mask id="mask0_139_159" style="mask-type:alpha" maskUnits="userSpaceOnUse" x="18" y="127" width="251" height="57">
<path d="M36.752 132.648L34.9806 134.752L36.752 132.648ZM36.752 143.912L38.507 146.029C38.5125 146.025 38.5179 146.02 38.5234 146.016L36.752 143.912ZM24.016 145.928V143.178C22.4972 143.178 21.266 144.409 21.266 145.928H24.016ZM24.016 153V155.75C25.5348 155.75 26.766 154.519 26.766 153H24.016ZM21.648 153H18.898C18.898 154.519 20.1292 155.75 21.648 155.75V153ZM21.648 130.6V127.85C20.1292 127.85 18.898 129.081 18.898 130.6H21.648ZM35.056 142.408L36.7974 144.536C36.8051 144.53 36.8127 144.524 36.8203 144.517L35.056 142.408ZM35.056 134.12L33.2917 136.229C33.2993 136.236 33.3069 136.242 33.3146 136.248L35.056 134.12ZM24.016 132.648V129.898C22.4972 129.898 21.266 131.129 21.266 132.648H24.016ZM24.016 143.848H21.266C21.266 145.367 22.4972 146.598 24.016 146.598V143.848ZM30.032 133.35C32.4693 133.35 34.0047 133.93 34.9806 134.752L38.5234 130.544C36.2567 128.636 33.312 127.85 30.032 127.85V133.35ZM34.9806 134.752C35.898 135.524 36.434 136.586 36.434 138.28H41.934C41.934 135.195 40.8487 132.503 38.5234 130.544L34.9806 134.752ZM36.434 138.28C36.434 139.974 35.898 141.036 34.9806 141.808L38.5234 146.016C40.8487 144.057 41.934 141.365 41.934 138.28H36.434ZM34.997 141.795C34.0204 142.604 32.4787 143.178 30.032 143.178V148.678C33.3027 148.678 36.2409 147.908 38.507 146.029L34.997 141.795ZM30.032 143.178H24.016V148.678H30.032V143.178ZM21.266 145.928V153H26.766V145.928H21.266ZM24.016 150.25H21.648V155.75H24.016V150.25ZM24.398 153V130.6H18.898V153H24.398ZM21.648 133.35H30.032V127.85H21.648V133.35ZM29.968 146.598C32.5361 146.598 34.9498 146.048 36.7974 144.536L33.3146 140.28C32.8155 140.688 31.8372 141.098 29.968 141.098V146.598ZM36.8203 144.517C38.7204 142.928 39.566 140.722 39.566 138.28H34.066C34.066 139.379 33.7383 139.925 33.2917 140.299L36.8203 144.517ZM39.566 138.28C39.566 135.821 38.736 133.578 36.7974 131.992L33.3146 136.248C33.7227 136.582 34.066 137.112 34.066 138.28H39.566ZM36.8203 132.011C34.9712 130.464 32.5481 129.898 29.968 129.898V135.398C31.8253 135.398 32.7941 135.813 33.2917 136.229L36.8203 132.011ZM29.968 129.898H24.016V135.398H29.968V129.898ZM21.266 132.648V143.848H26.766V132.648H21.266ZM24.016 146.598H29.968V141.098H24.016V146.598ZM47.5043 130.6V127.85C45.9855 127.85 44.7543 129.081 44.7543 130.6H47.5043ZM49.8723 130.6H52.6223C52.6223 129.081 51.391 127.85 49.8723 127.85V130.6ZM49.8723 150.952H47.1223C47.1223 152.471 48.3535 153.702 49.8723 153.702V150.952ZM62.4163 150.952H65.1663C65.1663 149.433 63.935 148.202 62.4163 148.202V150.952ZM62.4163 153V155.75C63.935 155.75 65.1663 154.519 65.1663 153H62.4163ZM47.5043 153H44.7543C44.7543 154.519 45.9855 155.75 47.5043 155.75V153ZM47.5043 133.35H49.8723V127.85H47.5043V133.35ZM47.1223 130.6V150.952H52.6223V130.6H47.1223ZM49.8723 153.702H62.4163V148.202H49.8723V153.702ZM59.6663 150.952V153H65.1663V150.952H59.6663ZM62.4163 150.25H47.5043V155.75H62.4163V150.25ZM50.2543 153V130.6H44.7543V153H50.2543ZM71.3818 150.696L73.3514 148.777L71.3818 150.696ZM68.9498 130.6V127.85C67.431 127.85 66.1998 129.081 66.1998 130.6H68.9498ZM71.3178 130.6H74.0678C74.0678 129.081 72.8365 127.85 71.3178 127.85V130.6ZM83.2858 149.16L85.3129 151.018L83.2858 149.16ZM85.0458 130.6V127.85C83.527 127.85 82.2958 129.081 82.2958 130.6H85.0458ZM87.3498 130.6H90.0998C90.0998 129.081 88.8685 127.85 87.3498 127.85V130.6ZM84.9178 150.696L82.9481 148.777C82.9439 148.781 82.9397 148.786 82.9355 148.79L84.9178 150.696ZM78.1658 150.442C75.8104 150.442 74.3328 149.784 73.3514 148.777L69.4121 152.615C71.6734 154.936 74.7185 155.942 78.1658 155.942V150.442ZM73.3514 148.777C72.3911 147.791 71.6998 146.163 71.6998 143.432H66.1998C66.1998 147.059 67.1297 150.273 69.4121 152.615L73.3514 148.777ZM71.6998 143.432V130.6H66.1998V143.432H71.6998ZM68.9498 133.35H71.3178V127.85H68.9498V133.35ZM68.5678 130.6V143.336H74.0678V130.6H68.5678ZM68.5678 143.336C68.5678 146.292 69.227 149.029 71.0506 151.018L75.1049 147.302C74.5818 146.731 74.0678 145.586 74.0678 143.336H68.5678ZM71.0506 151.018C72.8809 153.015 75.4039 153.83 78.1658 153.83V148.33C76.4903 148.33 75.6212 147.865 75.1049 147.302L71.0506 151.018ZM78.1658 153.83C80.9397 153.83 83.4777 153.02 85.3129 151.018L81.2586 147.302C80.7472 147.86 79.8718 148.33 78.1658 148.33V153.83ZM85.3129 151.018C87.1365 149.029 87.7958 146.292 87.7958 143.336H82.2958C82.2958 145.586 81.7817 146.731 81.2586 147.302L85.3129 151.018ZM87.7958 143.336V130.6H82.2958V143.336H87.7958ZM85.0458 133.35H87.3498V127.85H85.0458V133.35ZM84.5998 130.6V143.432H90.0998V130.6H84.5998ZM84.5998 143.432C84.5998 146.163 83.9084 147.791 82.9481 148.777L86.8874 152.615C89.1698 150.273 90.0998 147.059 90.0998 143.432H84.5998ZM82.9355 148.79C81.98 149.784 80.5229 150.442 78.1658 150.442V155.942C81.6113 155.942 84.6555 154.936 86.9 152.602L82.9355 148.79ZM112.789 132.648L111.018 134.752L112.789 132.648ZM112.789 143.912L114.545 146.029C114.55 146.025 114.555 146.02 114.561 146.016L112.789 143.912ZM100.053 145.928V143.178C98.5347 143.178 97.3035 144.409 97.3035 145.928H100.053ZM100.053 153V155.75C101.572 155.75 102.803 154.519 102.803 153H100.053ZM97.6855 153H94.9355C94.9355 154.519 96.1667 155.75 97.6855 155.75V153ZM97.6855 130.6V127.85C96.1667 127.85 94.9355 129.081 94.9355 130.6H97.6855ZM111.094 142.408L112.835 144.536C112.843 144.53 112.85 144.524 112.858 144.517L111.094 142.408ZM111.094 134.12L109.329 136.229C109.337 136.236 109.344 136.242 109.352 136.248L111.094 134.12ZM100.053 132.648V129.898C98.5347 129.898 97.3035 131.129 97.3035 132.648H100.053ZM100.053 143.848H97.3035C97.3035 145.367 98.5347 146.598 100.053 146.598V143.848ZM106.069 133.35C108.507 133.35 110.042 133.93 111.018 134.752L114.561 130.544C112.294 128.636 109.35 127.85 106.069 127.85V133.35ZM111.018 134.752C111.936 135.524 112.472 136.586 112.472 138.28H117.972C117.972 135.195 116.886 132.503 114.561 130.544L111.018 134.752ZM112.472 138.28C112.472 139.974 111.936 141.036 111.018 141.808L114.561 146.016C116.886 144.057 117.972 141.365 117.972 138.28H112.472ZM111.034 141.795C110.058 142.604 108.516 143.178 106.069 143.178V148.678C109.34 148.678 112.278 147.908 114.545 146.029L111.034 141.795ZM106.069 143.178H100.053V148.678H106.069V143.178ZM97.3035 145.928V153H102.803V145.928H97.3035ZM100.053 150.25H97.6855V155.75H100.053V150.25ZM100.435 153V130.6H94.9355V153H100.435ZM97.6855 133.35H106.069V127.85H97.6855V133.35ZM106.005 146.598C108.574 146.598 110.987 146.048 112.835 144.536L109.352 140.28C108.853 140.688 107.875 141.098 106.005 141.098V146.598ZM112.858 144.517C114.758 142.928 115.603 140.722 115.603 138.28H110.103C110.103 139.379 109.776 139.925 109.329 140.299L112.858 144.517ZM115.603 138.28C115.603 135.821 114.773 133.578 112.835 131.992L109.352 136.248C109.76 136.582 110.103 137.112 110.103 138.28H115.603ZM112.858 132.011C111.009 130.464 108.586 129.898 106.005 129.898V135.398C107.863 135.398 108.832 135.813 109.329 136.229L112.858 132.011ZM106.005 129.898H100.053V135.398H106.005V129.898ZM97.3035 132.648V143.848H102.803V132.648H97.3035ZM100.053 146.598H106.005V141.098H100.053V146.598ZM139.382 150.952H142.132C142.132 149.433 140.901 148.202 139.382 148.202V150.952ZM139.382 153V155.75C140.901 155.75 142.132 154.519 142.132 153H139.382ZM123.542 153H120.792C120.792 154.519 122.023 155.75 123.542 155.75V153ZM123.542 130.6V127.85C122.023 127.85 120.792 129.081 120.792 130.6H123.542ZM138.902 130.6H141.652C141.652 129.081 140.421 127.85 138.902 127.85V130.6ZM138.902 132.648V135.398C140.421 135.398 141.652 134.167 141.652 132.648H138.902ZM125.91 132.648V129.898C124.391 129.898 123.16 131.129 123.16 132.648H125.91ZM125.91 140.616H123.16C123.16 142.135 124.391 143.366 125.91 143.366V140.616ZM137.494 140.616H140.244C140.244 139.097 139.013 137.866 137.494 137.866V140.616ZM137.494 142.632V145.382C139.013 145.382 140.244 144.151 140.244 142.632H137.494ZM125.91 142.632V139.882C124.391 139.882 123.16 141.113 123.16 142.632H125.91ZM125.91 150.952H123.16C123.16 152.471 124.391 153.702 125.91 153.702V150.952ZM136.632 150.952V153H142.132V150.952H136.632ZM139.382 150.25H123.542V155.75H139.382V150.25ZM126.292 153V130.6H120.792V153H126.292ZM123.542 133.35H138.902V127.85H123.542V133.35ZM136.152 130.6V132.648H141.652V130.6H136.152ZM138.902 129.898H125.91V135.398H138.902V129.898ZM123.16 132.648V140.616H128.66V132.648H123.16ZM125.91 143.366H137.494V137.866H125.91V143.366ZM134.744 140.616V142.632H140.244V140.616H134.744ZM137.494 139.882H125.91V145.382H137.494V139.882ZM123.16 142.632V150.952H128.66V142.632H123.16ZM125.91 153.702H139.382V148.202H125.91V153.702ZM163.444 153L161.203 154.594C161.719 155.319 162.554 155.75 163.444 155.75V153ZM158.324 145.8L160.565 144.206C159.987 143.393 159.013 142.957 158.02 143.067L158.324 145.8ZM150.516 145.896V143.146C148.997 143.146 147.766 144.377 147.766 145.896H150.516ZM150.516 153V155.75C152.035 155.75 153.266 154.519 153.266 153H150.516ZM148.148 153H145.398C145.398 154.519 146.629 155.75 148.148 155.75V153ZM148.148 130.6V127.85C146.629 127.85 145.398 129.081 145.398 130.6H148.148ZM163.252 132.648L161.481 134.752L163.252 132.648ZM164.34 142.728L162.126 141.097L162.121 141.103L164.34 142.728ZM160.564 145.32L159.715 142.704C158.882 142.975 158.227 143.626 157.953 144.458C157.678 145.29 157.816 146.202 158.324 146.916L160.564 145.32ZM166.036 153V155.75C167.066 155.75 168.009 155.175 168.48 154.26C168.952 153.345 168.873 152.243 168.276 151.404L166.036 153ZM161.556 142.408L163.32 144.517L161.556 142.408ZM161.556 134.12L159.792 136.229C159.799 136.236 159.807 136.242 159.815 136.248L161.556 134.12ZM150.516 132.648V129.898C148.997 129.898 147.766 131.129 147.766 132.648H150.516ZM150.516 143.88H147.766C147.766 145.399 148.997 146.63 150.516 146.63V143.88ZM165.685 151.406L160.565 144.206L156.083 147.394L161.203 154.594L165.685 151.406ZM158.02 143.067C157.552 143.119 157.056 143.146 156.532 143.146V148.646C157.245 148.646 157.944 148.609 158.628 148.533L158.02 143.067ZM156.532 143.146H150.516V148.646H156.532V143.146ZM147.766 145.896V153H153.266V145.896H147.766ZM150.516 150.25H148.148V155.75H150.516V150.25ZM150.898 153V130.6H145.398V153H150.898ZM148.148 133.35H156.532V127.85H148.148V133.35ZM156.532 133.35C158.969 133.35 160.505 133.93 161.481 134.752L165.023 130.544C162.757 128.636 159.812 127.85 156.532 127.85V133.35ZM161.481 134.752C162.398 135.524 162.934 136.586 162.934 138.28H168.434C168.434 135.195 167.349 132.503 165.023 130.544L161.481 134.752ZM162.934 138.28C162.934 139.539 162.621 140.425 162.126 141.097L166.554 144.359C167.851 142.599 168.434 140.52 168.434 138.28H162.934ZM162.121 141.103C161.642 141.758 160.903 142.319 159.715 142.704L161.413 147.936C163.511 147.255 165.289 146.087 166.559 144.353L162.121 141.103ZM158.324 146.916L163.796 154.596L168.276 151.404L162.804 143.724L158.324 146.916ZM166.036 150.25H163.444V155.75H166.036V150.25ZM156.468 146.63C159.048 146.63 161.471 146.064 163.32 144.517L159.792 140.299C159.294 140.715 158.325 141.13 156.468 141.13V146.63ZM163.32 144.517C165.22 142.928 166.066 140.722 166.066 138.28H160.566C160.566 139.379 160.238 139.925 159.792 140.299L163.32 144.517ZM166.066 138.28C166.066 135.821 165.236 133.578 163.297 131.992L159.815 136.248C160.223 136.582 160.566 137.112 160.566 138.28H166.066ZM163.32 132.011C161.471 130.464 159.048 129.898 156.468 129.898V135.398C158.325 135.398 159.294 135.813 159.792 136.229L163.32 132.011ZM156.468 129.898H150.516V135.398H156.468V129.898ZM147.766 132.648V143.88H153.266V132.648H147.766ZM150.516 146.63H156.468V141.13H150.516V146.63ZM176.841 132.648V129.898C175.322 129.898 174.091 131.129 174.091 132.648H176.841ZM176.841 141.448H174.091C174.091 142.967 175.322 144.198 176.841 144.198V141.448ZM188.425 141.448H191.175C191.175 139.929 189.944 138.698 188.425 138.698V141.448ZM188.425 143.496V146.246C189.944 146.246 191.175 145.015 191.175 143.496H188.425ZM176.841 143.496V140.746C175.322 140.746 174.091 141.977 174.091 143.496H176.841ZM176.841 153V155.75C178.36 155.75 179.591 154.519 179.591 153H176.841ZM174.473 153H171.723C171.723 154.519 172.954 155.75 174.473 155.75V153ZM174.473 130.6V127.85C172.954 127.85 171.723 129.081 171.723 130.6H174.473ZM189.833 130.6H192.583C192.583 129.081 191.352 127.85 189.833 127.85V130.6ZM189.833 132.648V135.398C191.352 135.398 192.583 134.167 192.583 132.648H189.833ZM174.091 132.648V141.448H179.591V132.648H174.091ZM176.841 144.198H188.425V138.698H176.841V144.198ZM185.675 141.448V143.496H191.175V141.448H185.675ZM188.425 140.746H176.841V146.246H188.425V140.746ZM174.091 143.496V153H179.591V143.496H174.091ZM176.841 150.25H174.473V155.75H176.841V150.25ZM177.223 153V130.6H171.723V153H177.223ZM174.473 133.35H189.833V127.85H174.473V133.35ZM187.083 130.6V132.648H192.583V130.6H187.083ZM189.833 129.898H176.841V135.398H189.833V129.898ZM213.763 150.952H216.513C216.513 149.433 215.282 148.202 213.763 148.202V150.952ZM213.763 153V155.75C215.282 155.75 216.513 154.519 216.513 153H213.763ZM197.923 153H195.173C195.173 154.519 196.404 155.75 197.923 155.75V153ZM197.923 130.6V127.85C196.404 127.85 195.173 129.081 195.173 130.6H197.923ZM213.283 130.6H216.033C216.033 129.081 214.802 127.85 213.283 127.85V130.6ZM213.283 132.648V135.398C214.802 135.398 216.033 134.167 216.033 132.648H213.283ZM200.291 132.648V129.898C198.772 129.898 197.541 131.129 197.541 132.648H200.291ZM200.291 140.616H197.541C197.541 142.135 198.772 143.366 200.291 143.366V140.616ZM211.875 140.616H214.625C214.625 139.097 213.394 137.866 211.875 137.866V140.616ZM211.875 142.632V145.382C213.394 145.382 214.625 144.151 214.625 142.632H211.875ZM200.291 142.632V139.882C198.772 139.882 197.541 141.113 197.541 142.632H200.291ZM200.291 150.952H197.541C197.541 152.471 198.772 153.702 200.291 153.702V150.952ZM211.013 150.952V153H216.513V150.952H211.013ZM213.763 150.25H197.923V155.75H213.763V150.25ZM200.673 153V130.6H195.173V153H200.673ZM197.923 133.35H213.283V127.85H197.923V133.35ZM210.533 130.6V132.648H216.033V130.6H210.533ZM213.283 129.898H200.291V135.398H213.283V129.898ZM197.541 132.648V140.616H203.041V132.648H197.541ZM200.291 143.366H211.875V137.866H200.291V143.366ZM209.125 140.616V142.632H214.625V140.616H209.125ZM211.875 139.882H200.291V145.382H211.875V139.882ZM197.541 142.632V150.952H203.041V142.632H197.541ZM200.291 153.702H213.763V148.202H200.291V153.702ZM226.241 151.72L224.908 154.125L224.92 154.132L226.241 151.72ZM222.049 147.656L219.663 149.024C219.67 149.035 219.677 149.047 219.683 149.058L222.049 147.656ZM222.049 135.976L219.676 134.587L219.671 134.596L222.049 135.976ZM226.273 131.88L224.952 129.468L226.273 131.88ZM236.897 131.24L235.889 133.799L236.897 131.24ZM240.481 133.672L242.426 135.617C243.468 134.574 243.503 132.895 242.505 131.81L240.481 133.672ZM238.977 135.176L237.021 137.109C237.536 137.63 238.237 137.924 238.969 137.926C239.701 137.928 240.404 137.638 240.922 137.121L238.977 135.176ZM227.521 133.736L226.18 131.335L227.521 133.736ZM224.097 137.064L221.73 135.665C221.724 135.674 221.719 135.683 221.714 135.692L224.097 137.064ZM224.097 146.536L221.714 147.908C221.719 147.917 221.724 147.926 221.73 147.935L224.097 146.536ZM227.521 149.864L226.18 152.265L227.521 149.864ZM238.977 148.392L240.922 146.447C240.4 145.926 239.69 145.635 238.952 145.642C238.214 145.649 237.51 145.952 236.998 146.483L238.977 148.392ZM240.481 149.896L242.505 151.758C243.503 150.673 243.468 148.994 242.426 147.951L240.481 149.896ZM236.865 152.36L237.873 154.919C237.88 154.916 237.887 154.913 237.893 154.911L236.865 152.36ZM232.257 150.442C230.46 150.442 228.915 150.049 227.562 149.308L224.92 154.132C227.152 155.354 229.618 155.942 232.257 155.942V150.442ZM227.574 149.315C226.227 148.568 225.188 147.558 224.415 146.254L219.683 149.058C220.959 151.21 222.714 152.909 224.908 154.125L227.574 149.315ZM224.435 146.288C223.687 144.984 223.295 143.509 223.295 141.8H217.795C217.795 144.4 218.406 146.829 219.663 149.024L224.435 146.288ZM223.295 141.8C223.295 140.091 223.687 138.632 224.428 137.356L219.671 134.596C218.406 136.776 217.795 139.2 217.795 141.8H223.295ZM224.423 137.365C225.193 136.049 226.235 135.036 227.594 134.292L224.952 129.468C222.727 130.687 220.954 132.404 219.676 134.587L224.423 137.365ZM227.594 134.292C228.947 133.551 230.492 133.158 232.289 133.158V127.658C229.65 127.658 227.184 128.246 224.952 129.468L227.594 134.292ZM232.289 133.158C233.643 133.158 234.833 133.382 235.889 133.799L237.905 128.681C236.146 127.988 234.264 127.658 232.289 127.658V133.158ZM235.889 133.799C236.928 134.208 237.77 134.787 238.457 135.534L242.505 131.81C241.23 130.424 239.683 129.382 237.905 128.681L235.889 133.799ZM238.537 131.727L237.033 133.231L240.922 137.121L242.426 135.617L238.537 131.727ZM240.934 133.243C238.628 130.91 235.697 129.77 232.353 129.77V135.27C234.343 135.27 235.828 135.901 237.021 137.109L240.934 133.243ZM232.353 129.77C230.145 129.77 228.067 130.281 226.18 131.335L228.863 136.137C229.877 135.57 231.02 135.27 232.353 135.27V129.77ZM226.18 131.335C224.312 132.379 222.813 133.831 221.73 135.665L226.465 138.463C227.045 137.481 227.829 136.714 228.863 136.137L226.18 131.335ZM221.714 135.692C220.645 137.549 220.131 139.607 220.131 141.8H225.631C225.631 140.494 225.928 139.395 226.48 138.436L221.714 135.692ZM220.131 141.8C220.131 143.993 220.645 146.051 221.714 147.908L226.48 145.164C225.928 144.205 225.631 143.106 225.631 141.8H220.131ZM221.73 147.935C222.813 149.769 224.312 151.221 226.18 152.265L228.863 147.463C227.829 146.886 227.045 146.119 226.465 145.137L221.73 147.935ZM226.18 152.265C228.067 153.319 230.145 153.83 232.353 153.83V148.33C231.02 148.33 229.877 148.03 228.863 147.463L226.18 152.265ZM232.353 153.83C235.722 153.83 238.666 152.676 240.957 150.301L236.998 146.483C235.832 147.692 234.361 148.33 232.353 148.33V153.83ZM237.033 150.337L238.537 151.841L242.426 147.951L240.922 146.447L237.033 150.337ZM238.457 148.034C237.77 148.781 236.912 149.376 235.837 149.809L237.893 154.911C239.677 154.192 241.23 153.144 242.505 151.758L238.457 148.034ZM235.857 149.801C234.801 150.218 233.611 150.442 232.257 150.442V155.942C234.232 155.942 236.114 155.612 237.873 154.919L235.857 149.801ZM255.481 132.648H258.231C258.231 131.129 257 129.898 255.481 129.898V132.648ZM247.609 132.648H244.859C244.859 134.167 246.09 135.398 247.609 135.398V132.648ZM247.609 130.6V127.85C246.09 127.85 244.859 129.081 244.859 130.6H247.609ZM265.721 130.6H268.471C268.471 129.081 267.24 127.85 265.721 127.85V130.6ZM265.721 132.648V135.398C267.24 135.398 268.471 134.167 268.471 132.648H265.721ZM257.849 132.648V129.898C256.33 129.898 255.099 131.129 255.099 132.648H257.849ZM257.849 153V155.75C259.368 155.75 260.599 154.519 260.599 153H257.849ZM255.481 153H252.731C252.731 154.519 253.962 155.75 255.481 155.75V153ZM255.481 129.898H247.609V135.398H255.481V129.898ZM250.359 132.648V130.6H244.859V132.648H250.359ZM247.609 133.35H265.721V127.85H247.609V133.35ZM262.971 130.6V132.648H268.471V130.6H262.971ZM265.721 129.898H257.849V135.398H265.721V129.898ZM255.099 132.648V153H260.599V132.648H255.099ZM257.849 150.25H255.481V155.75H257.849V150.25ZM258.231 153V132.648H252.731V153H258.231Z" fill="white"/>
<path d="M196.28 167.38H198.28C198.28 166.275 197.385 165.38 196.28 165.38V167.38ZM191.08 167.38H189.08C189.08 168.485 189.975 169.38 191.08 169.38V167.38ZM191.08 167V165C189.975 165 189.08 165.895 189.08 167H191.08ZM201.88 167H203.88C203.88 165.895 202.985 165 201.88 165V167ZM201.88 167.38V169.38C202.985 169.38 203.88 168.485 203.88 167.38H201.88ZM196.68 167.38V165.38C195.575 165.38 194.68 166.275 194.68 167.38H196.68ZM196.68 181V183C197.785 183 198.68 182.105 198.68 181H196.68ZM196.28 181H194.28C194.28 182.105 195.175 183 196.28 183V181ZM196.28 165.38H191.08V169.38H196.28V165.38ZM193.08 167.38V167H189.08V167.38H193.08ZM191.08 169H201.88V165H191.08V169ZM199.88 167V167.38H203.88V167H199.88ZM201.88 165.38H196.68V169.38H201.88V165.38ZM194.68 167.38V181H198.68V167.38H194.68ZM196.68 179H196.28V183H196.68V179ZM198.28 181V167.38H194.28V181H198.28ZM215.937 180.62H217.937C217.937 179.515 217.042 178.62 215.937 178.62V180.62ZM215.937 181V183C217.042 183 217.937 182.105 217.937 181H215.937ZM206.617 181H204.617C204.617 182.105 205.512 183 206.617 183V181ZM206.617 167V165C205.512 165 204.617 165.895 204.617 167H206.617ZM215.637 167H217.637C217.637 165.895 216.742 165 215.637 165V167ZM215.637 167.38V169.38C216.742 169.38 217.637 168.485 217.637 167.38H215.637ZM207.017 167.38V165.38C205.912 165.38 205.017 166.275 205.017 167.38H207.017ZM207.017 173.7H205.017C205.017 174.805 205.912 175.7 207.017 175.7V173.7ZM214.737 173.7H216.737C216.737 172.595 215.842 171.7 214.737 171.7V173.7ZM214.737 174.08V176.08C215.842 176.08 216.737 175.185 216.737 174.08H214.737ZM207.017 174.08V172.08C205.912 172.08 205.017 172.975 205.017 174.08H207.017ZM207.017 180.62H205.017C205.017 181.725 205.912 182.62 207.017 182.62V180.62ZM213.937 180.62V181H217.937V180.62H213.937ZM215.937 179H206.617V183H215.937V179ZM208.617 181V167H204.617V181H208.617ZM206.617 169H215.637V165H206.617V169ZM213.637 167V167.38H217.637V167H213.637ZM215.637 165.38H207.017V169.38H215.637V165.38ZM205.017 167.38V173.7H209.017V167.38H205.017ZM207.017 175.7H214.737V171.7H207.017V175.7ZM212.737 173.7V174.08H216.737V173.7H212.737ZM214.737 172.08H207.017V176.08H214.737V172.08ZM205.017 174.08V180.62H209.017V174.08H205.017ZM207.017 182.62H215.937V178.62H207.017V182.62ZM232.976 167H234.976C234.976 165.895 234.081 165 232.976 165V167ZM232.976 181V183C234.081 183 234.976 182.105 234.976 181H232.976ZM232.636 181L231.055 182.224C231.433 182.713 232.017 183 232.636 183V181ZM222.376 167.74L223.958 166.516C223.435 165.84 222.539 165.571 221.73 165.847C220.92 166.124 220.376 166.885 220.376 167.74H222.376ZM222.376 181V183C223.481 183 224.376 182.105 224.376 181H222.376ZM221.976 181H219.976C219.976 182.105 220.872 183 221.976 183V181ZM221.976 167V165C220.872 165 219.976 165.895 219.976 167H221.976ZM222.316 167L223.898 165.776C223.519 165.287 222.935 165 222.316 165V167ZM232.576 180.26L230.995 181.484C231.518 182.16 232.414 182.429 233.223 182.153C234.032 181.876 234.576 181.115 234.576 180.26H232.576ZM232.576 167V165C231.472 165 230.576 165.895 230.576 167H232.576ZM230.976 167V181H234.976V167H230.976ZM232.976 179H232.636V183H232.976V179ZM234.218 179.776L223.958 166.516L220.795 168.964L231.055 182.224L234.218 179.776ZM220.376 167.74V181H224.376V167.74H220.376ZM222.376 179H221.976V183H222.376V179ZM223.976 181V167H219.976V181H223.976ZM221.976 169H222.316V165H221.976V169ZM220.735 168.224L230.995 181.484L234.158 179.036L223.898 165.776L220.735 168.224ZM234.576 180.26V167H230.576V180.26H234.576ZM232.576 169H232.976V165H232.576V169ZM240.865 180.52L240.093 182.365C240.101 182.369 240.109 182.372 240.117 182.375L240.865 180.52ZM238.805 179.08L237.444 177.614C236.67 178.333 236.588 179.529 237.257 180.346L238.805 179.08ZM239.085 178.82L240.608 177.525C240.255 177.109 239.747 176.856 239.202 176.823C238.658 176.791 238.123 176.983 237.724 177.354L239.085 178.82ZM241.025 180.16L240.237 181.998C240.245 182.002 240.253 182.005 240.262 182.009L241.025 180.16ZM246.985 179.82L248.216 181.396L248.22 181.393L246.985 179.82ZM247.525 175.84L246.043 177.183L247.525 175.84ZM246.085 174.88L245.373 176.749C245.377 176.751 245.382 176.753 245.387 176.754L246.085 174.88ZM243.805 174.22L243.325 176.162C243.332 176.163 243.338 176.165 243.345 176.166L243.805 174.22ZM241.365 173.5L240.622 175.357C240.634 175.362 240.646 175.366 240.658 175.371L241.365 173.5ZM239.825 172.42L238.291 173.704C238.304 173.719 238.317 173.734 238.33 173.749L239.825 172.42ZM239.705 168.7L241.401 169.76L239.705 168.7ZM246.085 167.3L245.452 169.197C245.463 169.201 245.473 169.204 245.484 169.208L246.085 167.3ZM247.945 168.22L249.593 169.353C250.202 168.467 250.001 167.257 249.138 166.615L247.945 168.22ZM247.725 168.54L246.544 170.154C246.98 170.473 247.527 170.602 248.06 170.512C248.593 170.421 249.066 170.119 249.373 169.673L247.725 168.54ZM245.885 167.64L245.275 169.545C245.29 169.55 245.305 169.554 245.32 169.559L245.885 167.64ZM240.705 168.22L241.954 169.782C241.96 169.777 241.965 169.773 241.971 169.768L240.705 168.22ZM240.185 172.22L238.682 173.54C238.689 173.548 238.696 173.555 238.703 173.563L240.185 172.22ZM241.625 173.18L242.322 171.306L241.625 173.18ZM243.945 173.86L244.43 171.92L244.423 171.918L243.945 173.86ZM246.365 174.6L245.622 176.457C245.634 176.462 245.646 176.466 245.658 176.471L246.365 174.6ZM247.885 175.66L246.369 176.965C246.375 176.972 246.381 176.979 246.387 176.986L247.885 175.66ZM247.985 179.32L246.308 178.23L247.985 179.32ZM246.385 180.6L247.181 182.435C247.186 182.432 247.191 182.43 247.197 182.428L246.385 180.6ZM243.725 179.06C242.954 179.06 242.256 178.924 241.612 178.665L240.117 182.375C241.26 182.836 242.469 183.06 243.725 183.06V179.06ZM241.636 178.675C240.963 178.394 240.575 178.086 240.352 177.814L237.257 180.346C237.994 181.248 238.979 181.9 240.093 182.365L241.636 178.675ZM240.165 180.546L240.445 180.286L237.724 177.354L237.444 177.614L240.165 180.546ZM237.561 180.115C238.266 180.945 239.196 181.552 240.237 181.998L241.812 178.322C241.173 178.048 240.81 177.762 240.608 177.525L237.561 180.115ZM240.262 182.009C241.354 182.459 242.507 182.68 243.705 182.68V178.68C243.009 178.68 242.375 178.554 241.788 178.311L240.262 182.009ZM243.705 182.68C245.369 182.68 246.982 182.36 248.216 181.396L245.753 178.244C245.52 178.426 244.947 178.68 243.705 178.68V182.68ZM248.22 181.393C249.431 180.441 250.105 179.116 250.105 177.56H246.105C246.105 177.844 246.031 178.026 245.749 178.247L248.22 181.393ZM250.105 177.56C250.105 176.473 249.804 175.377 249.007 174.497L246.043 177.183C246.044 177.185 246.046 177.187 246.048 177.191C246.051 177.195 246.057 177.206 246.064 177.229C246.08 177.275 246.105 177.377 246.105 177.56H250.105ZM249.007 174.497C248.391 173.818 247.636 173.323 246.782 173.006L245.387 176.754C245.679 176.863 245.884 177.009 246.043 177.183L249.007 174.497ZM246.797 173.011C246.119 172.753 245.263 172.509 244.264 172.274L243.345 176.166C244.266 176.384 244.93 176.58 245.373 176.749L246.797 173.011ZM244.284 172.278C243.292 172.033 242.565 171.815 242.071 171.629L240.658 175.371C241.364 175.638 242.264 175.9 243.325 176.162L244.284 172.278ZM242.107 171.643C241.794 171.518 241.538 171.338 241.319 171.091L238.33 173.749C238.964 174.462 239.735 175.002 240.622 175.357L242.107 171.643ZM241.358 171.136C241.319 171.089 241.205 170.931 241.205 170.46H237.205C237.205 171.616 237.504 172.764 238.291 173.704L241.358 171.136ZM241.205 170.46C241.205 170.188 241.27 169.97 241.401 169.76L238.009 167.64C237.473 168.497 237.205 169.452 237.205 170.46H241.205ZM241.401 169.76C241.481 169.632 241.658 169.437 242.09 169.242L240.44 165.598C239.458 166.043 238.595 166.702 238.009 167.64L241.401 169.76ZM242.09 169.242C242.465 169.072 243.037 168.94 243.885 168.94V164.94C242.652 164.94 241.478 165.128 240.44 165.598L242.09 169.242ZM243.885 168.94C244.413 168.94 244.933 169.024 245.452 169.197L246.717 165.403C245.796 165.096 244.85 164.94 243.885 164.94V168.94ZM245.484 169.208C246.025 169.378 246.437 169.592 246.751 169.825L249.138 166.615C248.412 166.075 247.584 165.675 246.685 165.392L245.484 169.208ZM246.296 167.087L246.076 167.407L249.373 169.673L249.593 169.353L246.296 167.087ZM248.906 166.926C248.164 166.383 247.34 165.983 246.449 165.721L245.32 169.559C245.789 169.697 246.192 169.897 246.544 170.154L248.906 166.926ZM246.494 165.735C245.644 165.463 244.779 165.32 243.905 165.32V169.32C244.337 169.32 244.791 169.39 245.275 169.545L246.494 165.735ZM243.905 165.32C242.256 165.32 240.665 165.668 239.438 166.672L241.971 169.768C242.211 169.571 242.753 169.32 243.905 169.32V165.32ZM239.455 166.658C238.259 167.615 237.605 168.938 237.605 170.48H241.605C241.605 170.182 241.684 169.998 241.954 169.782L239.455 166.658ZM237.605 170.48C237.605 171.57 237.906 172.657 238.682 173.54L241.687 170.9C241.677 170.889 241.663 170.871 241.647 170.823C241.629 170.769 241.605 170.662 241.605 170.48H237.605ZM238.703 173.563C239.318 174.242 240.073 174.737 240.927 175.054L242.322 171.306C242.03 171.197 241.825 171.051 241.667 170.877L238.703 173.563ZM240.927 175.054C241.602 175.306 242.459 175.554 243.466 175.802L244.423 171.918C243.484 171.686 242.793 171.481 242.322 171.306L240.927 175.054ZM243.459 175.8C244.431 176.043 245.141 176.265 245.622 176.457L247.107 172.743C246.388 172.455 245.484 172.183 244.43 171.92L243.459 175.8ZM245.658 176.471C245.949 176.581 246.177 176.742 246.369 176.965L249.4 174.355C248.766 173.618 247.98 173.072 247.071 172.729L245.658 176.471ZM246.387 176.986C246.393 176.993 246.505 177.106 246.505 177.56H250.505C250.505 176.414 250.202 175.26 249.382 174.334L246.387 176.986ZM246.505 177.56C246.505 177.816 246.442 178.023 246.308 178.23L249.661 180.41C250.22 179.55 250.505 178.584 250.505 177.56H246.505ZM246.308 178.23C246.217 178.369 246.023 178.572 245.572 178.772L247.197 182.428C248.186 181.988 249.059 181.337 249.661 180.41L246.308 178.23ZM245.588 178.765C245.21 178.93 244.616 179.06 243.725 179.06V183.06C244.967 183.06 246.146 182.884 247.181 182.435L245.588 178.765ZM263.636 180.62H265.636C265.636 179.515 264.741 178.62 263.636 178.62V180.62ZM263.636 181V183C264.741 183 265.636 182.105 265.636 181H263.636ZM254.316 181H252.316C252.316 182.105 253.212 183 254.316 183V181ZM254.316 167V165C253.212 165 252.316 165.895 252.316 167H254.316ZM263.336 167H265.336C265.336 165.895 264.441 165 263.336 165V167ZM263.336 167.38V169.38C264.441 169.38 265.336 168.485 265.336 167.38H263.336ZM254.716 167.38V165.38C253.612 165.38 252.716 166.275 252.716 167.38H254.716ZM254.716 173.7H252.716C252.716 174.805 253.612 175.7 254.716 175.7V173.7ZM262.436 173.7H264.436C264.436 172.595 263.541 171.7 262.436 171.7V173.7ZM262.436 174.08V176.08C263.541 176.08 264.436 175.185 264.436 174.08H262.436ZM254.716 174.08V172.08C253.612 172.08 252.716 172.975 252.716 174.08H254.716ZM254.716 180.62H252.716C252.716 181.725 253.612 182.62 254.716 182.62V180.62ZM261.636 180.62V181H265.636V180.62H261.636ZM263.636 179H254.316V183H263.636V179ZM256.316 181V167H252.316V181H256.316ZM254.316 169H263.336V165H254.316V169ZM261.336 167V167.38H265.336V167H261.336ZM263.336 165.38H254.716V169.38H263.336V165.38ZM252.716 167.38V173.7H256.716V167.38H252.716ZM254.716 175.7H262.436V171.7H254.716V175.7ZM260.436 173.7V174.08H264.436V173.7H260.436ZM262.436 172.08H254.716V176.08H262.436V172.08ZM252.716 174.08V180.62H256.716V174.08H252.716ZM254.716 182.62H263.636V178.62H254.716V182.62Z" fill="white"/>
</mask>
<g mask="url(#mask0_139_159)">
<path d="M0 136.598C9.46667 139.854 32.0667 145.289 51 146.219C69.9333 147.185 84.5 143.533 124.5 142.033C164.5 140.533 174 146.219 217.5 146.219C261 146.219 284 131.285 284 131.285V322.643H274.533C265.067 322.643 246.133 322.643 227.2 322.643C208.267 322.643 189.333 322.643 170.4 322.643C151.467 322.643 132.533 322.643 113.6 322.643C94.6667 322.643 75.7333 322.643 56.8 322.643C37.8667 322.643 18.9333 322.643 9.46667 322.643H0V136.598Z" fill="white"/>
</g>
</g>
<defs>
<clipPath id="clip0_139_159">
<rect width="284" height="323" fill="white"/>
</clipPath>
</defs>
</svg>
