<svg width="284" height="322" viewBox="0 0 284 322" fill="none" xmlns="http://www.w3.org/2000/svg">
<g clip-path="url(#clip0_157_2358)">
<path d="M284 0H0V321.549H284V0Z" fill="#001220"/>
<path d="M64.768 130.8V140.7H77.8V143.004H64.768V153.696H62.104V128.496H79.384V130.8H64.768ZM98.6373 153.912C95.3733 153.912 92.8293 152.976 91.0053 151.104C89.1813 149.232 88.2693 146.508 88.2693 142.932V128.496H90.9333V142.824C90.9333 145.752 91.5933 147.936 92.9133 149.376C94.2333 150.816 96.1413 151.536 98.6373 151.536C101.157 151.536 103.077 150.816 104.397 149.376C105.717 147.936 106.377 145.752 106.377 142.824V128.496H108.969V142.932C108.969 146.508 108.057 149.232 106.233 151.104C104.433 152.976 101.901 153.912 98.6373 153.912ZM125.001 130.8H116.145V128.496H136.521V130.8H127.665V153.696H125.001V130.8ZM154.036 153.912C150.772 153.912 148.228 152.976 146.404 151.104C144.58 149.232 143.668 146.508 143.668 142.932V128.496H146.332V142.824C146.332 145.752 146.992 147.936 148.312 149.376C149.632 150.816 151.54 151.536 154.036 151.536C156.556 151.536 158.476 150.816 159.796 149.376C161.116 147.936 161.776 145.752 161.776 142.824V128.496H164.368V142.932C164.368 146.508 163.456 149.232 161.632 151.104C159.832 152.976 157.3 153.912 154.036 153.912ZM193.204 153.696L187.444 145.596C186.796 145.668 186.124 145.704 185.428 145.704H178.66V153.696H175.996V128.496H185.428C188.644 128.496 191.164 129.264 192.988 130.8C194.812 132.336 195.724 134.448 195.724 137.136C195.724 139.104 195.22 140.772 194.212 142.14C193.228 143.484 191.812 144.456 189.964 145.056L196.12 153.696H193.204ZM185.356 143.436C187.852 143.436 189.76 142.884 191.08 141.78C192.4 140.676 193.06 139.128 193.06 137.136C193.06 135.096 192.4 133.536 191.08 132.456C189.76 131.352 187.852 130.8 185.356 130.8H178.66V143.436H185.356ZM223.432 151.392V153.696H205.612V128.496H222.892V130.8H208.276V139.764H221.308V142.032H208.276V151.392H223.432Z" fill="#80FF80"/>
<path d="M64.768 130.8V127.8C63.1111 127.8 61.768 129.143 61.768 130.8H64.768ZM64.768 140.7H61.768C61.768 142.357 63.1111 143.7 64.768 143.7V140.7ZM77.8 140.7H80.8C80.8 139.043 79.4569 137.7 77.8 137.7V140.7ZM77.8 143.004V146.004C79.4569 146.004 80.8 144.661 80.8 143.004H77.8ZM64.768 143.004V140.004C63.1111 140.004 61.768 141.347 61.768 143.004H64.768ZM64.768 153.696V156.696C66.4249 156.696 67.768 155.353 67.768 153.696H64.768ZM62.104 153.696H59.104C59.104 155.353 60.4471 156.696 62.104 156.696V153.696ZM62.104 128.496V125.496C60.4471 125.496 59.104 126.839 59.104 128.496H62.104ZM79.384 128.496H82.384C82.384 126.839 81.0409 125.496 79.384 125.496V128.496ZM79.384 130.8V133.8C81.0409 133.8 82.384 132.457 82.384 130.8H79.384ZM61.768 130.8V140.7H67.768V130.8H61.768ZM64.768 143.7H77.8V137.7H64.768V143.7ZM74.8 140.7V143.004H80.8V140.7H74.8ZM77.8 140.004H64.768V146.004H77.8V140.004ZM61.768 143.004V153.696H67.768V143.004H61.768ZM64.768 150.696H62.104V156.696H64.768V150.696ZM65.104 153.696V128.496H59.104V153.696H65.104ZM62.104 131.496H79.384V125.496H62.104V131.496ZM76.384 128.496V130.8H82.384V128.496H76.384ZM79.384 127.8H64.768V133.8H79.384V127.8ZM91.0053 151.104L93.1539 149.011L91.0053 151.104ZM88.2693 128.496V125.496C86.6124 125.496 85.2693 126.839 85.2693 128.496H88.2693ZM90.9333 128.496H93.9333C93.9333 126.839 92.5901 125.496 90.9333 125.496V128.496ZM104.397 149.376L106.609 151.403L104.397 149.376ZM106.377 128.496V125.496C104.72 125.496 103.377 126.839 103.377 128.496H106.377ZM108.969 128.496H111.969C111.969 126.839 110.626 125.496 108.969 125.496V128.496ZM106.233 151.104L104.085 149.011C104.08 149.015 104.075 149.02 104.071 149.025L106.233 151.104ZM98.6373 150.912C95.9688 150.912 94.2798 150.166 93.1539 149.011L88.8566 153.198C91.3787 155.786 94.7777 156.912 98.6373 156.912V150.912ZM93.1539 149.011C92.0511 147.879 91.2693 146.02 91.2693 142.932H85.2693C85.2693 146.997 86.3114 150.586 88.8566 153.198L93.1539 149.011ZM91.2693 142.932V128.496H85.2693V142.932H91.2693ZM88.2693 131.496H90.9333V125.496H88.2693V131.496ZM87.9333 128.496V142.824H93.9333V128.496H87.9333ZM87.9333 142.824C87.9333 146.137 88.6724 149.19 90.7018 151.403L95.1247 147.349C94.5141 146.683 93.9333 145.367 93.9333 142.824H87.9333ZM90.7018 151.403C92.7385 153.625 95.5487 154.536 98.6373 154.536V148.536C96.7338 148.536 95.728 148.007 95.1247 147.349L90.7018 151.403ZM98.6373 154.536C101.74 154.536 104.567 153.631 106.609 151.403L102.186 147.349C101.588 148.001 100.575 148.536 98.6373 148.536V154.536ZM106.609 151.403C108.638 149.19 109.377 146.137 109.377 142.824H103.377C103.377 145.367 102.796 146.683 102.186 147.349L106.609 151.403ZM109.377 142.824V128.496H103.377V142.824H109.377ZM106.377 131.496H108.969V125.496H106.377V131.496ZM105.969 128.496V142.932H111.969V128.496H105.969ZM105.969 142.932C105.969 146.02 105.187 147.879 104.085 149.011L108.382 153.198C110.927 150.586 111.969 146.997 111.969 142.932H105.969ZM104.071 149.025C102.974 150.166 101.308 150.912 98.6373 150.912V156.912C102.495 156.912 105.893 155.787 108.396 153.184L104.071 149.025ZM125.001 130.8H128.001C128.001 129.143 126.658 127.8 125.001 127.8V130.8ZM116.145 130.8H113.145C113.145 132.457 114.488 133.8 116.145 133.8V130.8ZM116.145 128.496V125.496C114.488 125.496 113.145 126.839 113.145 128.496H116.145ZM136.521 128.496H139.521C139.521 126.839 138.178 125.496 136.521 125.496V128.496ZM136.521 130.8V133.8C138.178 133.8 139.521 132.457 139.521 130.8H136.521ZM127.665 130.8V127.8C126.008 127.8 124.665 129.143 124.665 130.8H127.665ZM127.665 153.696V156.696C129.322 156.696 130.665 155.353 130.665 153.696H127.665ZM125.001 153.696H122.001C122.001 155.353 123.344 156.696 125.001 156.696V153.696ZM125.001 127.8H116.145V133.8H125.001V127.8ZM119.145 130.8V128.496H113.145V130.8H119.145ZM116.145 131.496H136.521V125.496H116.145V131.496ZM133.521 128.496V130.8H139.521V128.496H133.521ZM136.521 127.8H127.665V133.8H136.521V127.8ZM124.665 130.8V153.696H130.665V130.8H124.665ZM127.665 150.696H125.001V156.696H127.665V150.696ZM128.001 153.696V130.8H122.001V153.696H128.001ZM146.404 151.104L148.553 149.011L146.404 151.104ZM143.668 128.496V125.496C142.012 125.496 140.668 126.839 140.668 128.496H143.668ZM146.332 128.496H149.332C149.332 126.839 147.989 125.496 146.332 125.496V128.496ZM159.796 149.376L162.008 151.403L159.796 149.376ZM161.776 128.496V125.496C160.12 125.496 158.776 126.839 158.776 128.496H161.776ZM164.368 128.496H167.368C167.368 126.839 166.025 125.496 164.368 125.496V128.496ZM161.632 151.104L159.484 149.011C159.479 149.015 159.475 149.02 159.47 149.025L161.632 151.104ZM154.036 150.912C151.368 150.912 149.679 150.166 148.553 149.011L144.256 153.198C146.778 155.786 150.177 156.912 154.036 156.912V150.912ZM148.553 149.011C147.45 147.879 146.668 146.02 146.668 142.932H140.668C140.668 146.997 141.711 150.586 144.256 153.198L148.553 149.011ZM146.668 142.932V128.496H140.668V142.932H146.668ZM143.668 131.496H146.332V125.496H143.668V131.496ZM143.332 128.496V142.824H149.332V128.496H143.332ZM143.332 142.824C143.332 146.137 144.072 149.19 146.101 151.403L150.524 147.349C149.913 146.683 149.332 145.367 149.332 142.824H143.332ZM146.101 151.403C148.138 153.625 150.948 154.536 154.036 154.536V148.536C152.133 148.536 151.127 148.007 150.524 147.349L146.101 151.403ZM154.036 154.536C157.139 154.536 159.966 153.631 162.008 151.403L157.585 147.349C156.987 148.001 155.974 148.536 154.036 148.536V154.536ZM162.008 151.403C164.037 149.19 164.776 146.137 164.776 142.824H158.776C158.776 145.367 158.196 146.683 157.585 147.349L162.008 151.403ZM164.776 142.824V128.496H158.776V142.824H164.776ZM161.776 131.496H164.368V125.496H161.776V131.496ZM161.368 128.496V142.932H167.368V128.496H161.368ZM161.368 142.932C161.368 146.02 160.587 147.879 159.484 149.011L163.781 153.198C166.326 150.586 167.368 146.997 167.368 142.932H161.368ZM159.47 149.025C158.373 150.166 156.707 150.912 154.036 150.912V156.912C157.894 156.912 161.292 155.787 163.795 153.184L159.47 149.025ZM193.204 153.696L190.759 155.435C191.322 156.226 192.233 156.696 193.204 156.696V153.696ZM187.444 145.596L189.889 143.858C189.258 142.97 188.195 142.494 187.113 142.615L187.444 145.596ZM178.66 145.704V142.704C177.003 142.704 175.66 144.047 175.66 145.704H178.66ZM178.66 153.696V156.696C180.317 156.696 181.66 155.353 181.66 153.696H178.66ZM175.996 153.696H172.996C172.996 155.353 174.339 156.696 175.996 156.696V153.696ZM175.996 128.496V125.496C174.339 125.496 172.996 126.839 172.996 128.496H175.996ZM192.988 130.8L191.056 133.095L192.988 130.8ZM194.212 142.14L191.797 140.361L191.792 140.368L194.212 142.14ZM189.964 145.056L189.038 142.203C188.129 142.498 187.415 143.208 187.115 144.116C186.816 145.023 186.966 146.019 187.521 146.797L189.964 145.056ZM196.12 153.696V156.696C197.243 156.696 198.272 156.069 198.787 155.071C199.301 154.072 199.215 152.87 198.563 151.955L196.12 153.696ZM191.08 141.78L193.005 144.082L191.08 141.78ZM191.08 132.456L189.156 134.758C189.164 134.764 189.172 134.771 189.18 134.778L191.08 132.456ZM178.66 130.8V127.8C177.003 127.8 175.66 129.143 175.66 130.8H178.66ZM178.66 143.436H175.66C175.66 145.093 177.003 146.436 178.66 146.436V143.436ZM195.649 151.958L189.889 143.858L184.999 147.335L190.759 155.435L195.649 151.958ZM187.113 142.615C186.582 142.674 186.021 142.704 185.428 142.704V148.704C186.228 148.704 187.01 148.663 187.775 148.578L187.113 142.615ZM185.428 142.704H178.66V148.704H185.428V142.704ZM175.66 145.704V153.696H181.66V145.704H175.66ZM178.66 150.696H175.996V156.696H178.66V150.696ZM178.996 153.696V128.496H172.996V153.696H178.996ZM175.996 131.496H185.428V125.496H175.996V131.496ZM185.428 131.496C188.185 131.496 189.936 132.152 191.056 133.095L194.921 128.506C192.393 126.377 189.104 125.496 185.428 125.496V131.496ZM191.056 133.095C192.112 133.984 192.724 135.207 192.724 137.136H198.724C198.724 133.69 197.513 130.688 194.921 128.506L191.056 133.095ZM192.724 137.136C192.724 138.569 192.367 139.587 191.797 140.361L196.627 143.92C198.073 141.958 198.724 139.64 198.724 137.136H192.724ZM191.792 140.368C191.239 141.123 190.39 141.764 189.038 142.203L190.891 147.91C193.235 147.149 195.217 145.846 196.633 143.912L191.792 140.368ZM187.521 146.797L193.677 155.437L198.563 151.955L192.407 143.315L187.521 146.797ZM196.12 150.696H193.204V156.696H196.12V150.696ZM185.356 146.436C188.246 146.436 190.948 145.802 193.005 144.082L189.156 139.479C188.573 139.966 187.458 140.436 185.356 140.436V146.436ZM193.005 144.082C195.118 142.314 196.06 139.861 196.06 137.136H190.06C190.06 138.396 189.683 139.038 189.156 139.479L193.005 144.082ZM196.06 137.136C196.06 134.392 195.135 131.897 192.98 130.134L189.18 134.778C189.666 135.175 190.06 135.801 190.06 137.136H196.06ZM193.005 130.155C190.948 128.434 188.246 127.8 185.356 127.8V133.8C187.458 133.8 188.573 134.27 189.156 134.758L193.005 130.155ZM185.356 127.8H178.66V133.8H185.356V127.8ZM175.66 130.8V143.436H181.66V130.8H175.66ZM178.66 146.436H185.356V140.436H178.66V146.436ZM223.432 151.392H226.432C226.432 149.735 225.089 148.392 223.432 148.392V151.392ZM223.432 153.696V156.696C225.089 156.696 226.432 155.353 226.432 153.696H223.432ZM205.612 153.696H202.612C202.612 155.353 203.955 156.696 205.612 156.696V153.696ZM205.612 128.496V125.496C203.955 125.496 202.612 126.839 202.612 128.496H205.612ZM222.892 128.496H225.892C225.892 126.839 224.549 125.496 222.892 125.496V128.496ZM222.892 130.8V133.8C224.549 133.8 225.892 132.457 225.892 130.8H222.892ZM208.276 130.8V127.8C206.619 127.8 205.276 129.143 205.276 130.8H208.276ZM208.276 139.764H205.276C205.276 141.421 206.619 142.764 208.276 142.764V139.764ZM221.308 139.764H224.308C224.308 138.107 222.965 136.764 221.308 136.764V139.764ZM221.308 142.032V145.032C222.965 145.032 224.308 143.689 224.308 142.032H221.308ZM208.276 142.032V139.032C206.619 139.032 205.276 140.375 205.276 142.032H208.276ZM208.276 151.392H205.276C205.276 153.049 206.619 154.392 208.276 154.392V151.392ZM220.432 151.392V153.696H226.432V151.392H220.432ZM223.432 150.696H205.612V156.696H223.432V150.696ZM208.612 153.696V128.496H202.612V153.696H208.612ZM205.612 131.496H222.892V125.496H205.612V131.496ZM219.892 128.496V130.8H225.892V128.496H219.892ZM222.892 127.8H208.276V133.8H222.892V127.8ZM205.276 130.8V139.764H211.276V130.8H205.276ZM208.276 142.764H221.308V136.764H208.276V142.764ZM218.308 139.764V142.032H224.308V139.764H218.308ZM221.308 139.032H208.276V145.032H221.308V139.032ZM205.276 142.032V151.392H211.276V142.032H205.276ZM208.276 154.392H223.432V148.392H208.276V154.392Z" fill="#80FF80"/>
<path d="M125.28 103.129H120.08V102.749H130.88V103.129H125.68V116.749H125.28V103.129ZM146.617 102.749V116.749H146.217V109.829H136.017V116.749H135.617V102.749H136.017V109.449H146.217V102.749H146.617ZM163.265 116.369V116.749H153.945V102.749H162.965V103.129H154.345V109.449H162.065V109.829H154.345V116.369H163.265Z" fill="#80FF80"/>
<path d="M125.28 103.129H127.28C127.28 102.025 126.385 101.129 125.28 101.129V103.129ZM120.08 103.129H118.08C118.08 104.234 118.975 105.129 120.08 105.129V103.129ZM120.08 102.749V100.749C118.975 100.749 118.08 101.645 118.08 102.749H120.08ZM130.88 102.749H132.88C132.88 101.645 131.985 100.749 130.88 100.749V102.749ZM130.88 103.129V105.129C131.985 105.129 132.88 104.234 132.88 103.129H130.88ZM125.68 103.129V101.129C124.575 101.129 123.68 102.025 123.68 103.129H125.68ZM125.68 116.749V118.749C126.785 118.749 127.68 117.854 127.68 116.749H125.68ZM125.28 116.749H123.28C123.28 117.854 124.175 118.749 125.28 118.749V116.749ZM125.28 101.129H120.08V105.129H125.28V101.129ZM122.08 103.129V102.749H118.08V103.129H122.08ZM120.08 104.749H130.88V100.749H120.08V104.749ZM128.88 102.749V103.129H132.88V102.749H128.88ZM130.88 101.129H125.68V105.129H130.88V101.129ZM123.68 103.129V116.749H127.68V103.129H123.68ZM125.68 114.749H125.28V118.749H125.68V114.749ZM127.28 116.749V103.129H123.28V116.749H127.28ZM146.617 102.749H148.617C148.617 101.645 147.722 100.749 146.617 100.749V102.749ZM146.617 116.749V118.749C147.722 118.749 148.617 117.854 148.617 116.749H146.617ZM146.217 116.749H144.217C144.217 117.854 145.112 118.749 146.217 118.749V116.749ZM146.217 109.829H148.217C148.217 108.725 147.322 107.829 146.217 107.829V109.829ZM136.017 109.829V107.829C134.912 107.829 134.017 108.725 134.017 109.829H136.017ZM136.017 116.749V118.749C137.122 118.749 138.017 117.854 138.017 116.749H136.017ZM135.617 116.749H133.617C133.617 117.854 134.512 118.749 135.617 118.749V116.749ZM135.617 102.749V100.749C134.512 100.749 133.617 101.645 133.617 102.749H135.617ZM136.017 102.749H138.017C138.017 101.645 137.122 100.749 136.017 100.749V102.749ZM136.017 109.449H134.017C134.017 110.554 134.912 111.449 136.017 111.449V109.449ZM146.217 109.449V111.449C147.322 111.449 148.217 110.554 148.217 109.449H146.217ZM146.217 102.749V100.749C145.112 100.749 144.217 101.645 144.217 102.749H146.217ZM144.617 102.749V116.749H148.617V102.749H144.617ZM146.617 114.749H146.217V118.749H146.617V114.749ZM148.217 116.749V109.829H144.217V116.749H148.217ZM146.217 107.829H136.017V111.829H146.217V107.829ZM134.017 109.829V116.749H138.017V109.829H134.017ZM136.017 114.749H135.617V118.749H136.017V114.749ZM137.617 116.749V102.749H133.617V116.749H137.617ZM135.617 104.749H136.017V100.749H135.617V104.749ZM134.017 102.749V109.449H138.017V102.749H134.017ZM136.017 111.449H146.217V107.449H136.017V111.449ZM148.217 109.449V102.749H144.217V109.449H148.217ZM146.217 104.749H146.617V100.749H146.217V104.749ZM163.265 116.369H165.265C165.265 115.265 164.37 114.369 163.265 114.369V116.369ZM163.265 116.749V118.749C164.37 118.749 165.265 117.854 165.265 116.749H163.265ZM153.945 116.749H151.945C151.945 117.854 152.841 118.749 153.945 118.749V116.749ZM153.945 102.749V100.749C152.841 100.749 151.945 101.645 151.945 102.749H153.945ZM162.965 102.749H164.965C164.965 101.645 164.07 100.749 162.965 100.749V102.749ZM162.965 103.129V105.129C164.07 105.129 164.965 104.234 164.965 103.129H162.965ZM154.345 103.129V101.129C153.241 101.129 152.345 102.025 152.345 103.129H154.345ZM154.345 109.449H152.345C152.345 110.554 153.241 111.449 154.345 111.449V109.449ZM162.065 109.449H164.065C164.065 108.345 163.17 107.449 162.065 107.449V109.449ZM162.065 109.829V111.829C163.17 111.829 164.065 110.934 164.065 109.829H162.065ZM154.345 109.829V107.829C153.241 107.829 152.345 108.725 152.345 109.829H154.345ZM154.345 116.369H152.345C152.345 117.474 153.241 118.369 154.345 118.369V116.369ZM161.265 116.369V116.749H165.265V116.369H161.265ZM163.265 114.749H153.945V118.749H163.265V114.749ZM155.945 116.749V102.749H151.945V116.749H155.945ZM153.945 104.749H162.965V100.749H153.945V104.749ZM160.965 102.749V103.129H164.965V102.749H160.965ZM162.965 101.129H154.345V105.129H162.965V101.129ZM152.345 103.129V109.449H156.345V103.129H152.345ZM154.345 111.449H162.065V107.449H154.345V111.449ZM160.065 109.449V109.829H164.065V109.449H160.065ZM162.065 107.829H154.345V111.829H162.065V107.829ZM152.345 109.829V116.369H156.345V109.829H152.345ZM154.345 118.369H163.265V114.369H154.345V118.369Z" fill="#80FF80"/>
<path d="M0 143.673L9.46667 144.936C18.9333 146.237 37.8667 148.762 56.8 146.16C75.7333 143.559 94.6667 135.754 113.6 136.29C132.533 136.787 151.467 145.586 170.4 146.16C189.333 146.734 208.267 139.083 227.2 135.142C246.133 131.163 265.067 130.934 274.533 130.781L284 130.666V321.186H274.533C265.067 321.186 246.133 321.186 227.2 321.186C208.267 321.186 189.333 321.186 170.4 321.186C151.467 321.186 132.533 321.186 113.6 321.186C94.6667 321.186 75.7333 321.186 56.8 321.186C37.8667 321.186 18.9333 321.186 9.46667 321.186H0V143.673Z" fill="#80FF80"/>
<path d="M0 151.161L9.46667 155.407C18.9333 159.612 37.8667 168.103 56.8 171.794C75.7333 175.484 94.6667 174.452 113.6 173.301C132.533 172.19 151.467 171 170.4 178.063C189.333 185.165 208.267 200.481 227.2 200.361C246.133 200.242 265.067 184.609 274.533 176.833L284 169.016V320.585H274.533C265.067 320.585 246.133 320.585 227.2 320.585C208.267 320.585 189.333 320.585 170.4 320.585C151.467 320.585 132.533 320.585 113.6 320.585C94.6667 320.585 75.7333 320.585 56.8 320.585C37.8667 320.585 18.9333 320.585 9.46667 320.585H0V151.161Z" fill="#63F361"/>
<path d="M0 228.533V204.48C9.46667 202.695 29.6 217.344 56.8 217.82C84 218.296 94.6667 210.678 113.6 210.757C132.533 210.797 151.467 214.526 170.4 218.296C189.333 222.065 208.267 225.874 227.2 220.518C246.133 215.161 269.327 208.694 284 195.6V320.585H274.533C265.067 320.585 246.133 320.585 227.2 320.585C208.267 320.585 189.333 320.585 170.4 320.585C151.467 320.585 132.533 320.585 113.6 320.585C94.6667 320.585 75.7333 320.585 56.8 320.585C37.8667 320.585 18.9333 320.585 9.46667 320.585H0V228.533Z" fill="#48E145"/>
<path d="M0 233.691L9.46667 235.952C18.9333 238.174 37.8667 242.698 56.8 244.88C75.7333 247.062 94.6667 246.904 113.6 242.698C132.533 238.452 147.825 234.356 170.4 233.294C192.619 232.249 209.213 233.294 227.2 237.143C245.187 240.992 274.533 247.142 284 254.323V266.227V320.585H274.533C265.067 320.585 246.133 320.585 227.2 320.585C208.267 320.585 189.333 320.585 170.4 320.585C151.467 320.585 132.533 320.585 113.6 320.585C94.6667 320.585 75.7333 320.585 56.8 320.585C37.8667 320.585 18.9333 320.585 9.46667 320.585H0V233.691Z" fill="#30CE2D"/>
<path d="M0 294.622L9.46667 295.297C18.9333 295.932 37.8667 297.281 56.8 295.535C75.7333 293.829 94.6667 289.067 113.6 282.719C132.533 276.371 151.467 268.435 170.4 266.729C189.333 264.983 208.267 269.506 227.2 269.348C246.133 269.229 265.067 264.467 274.533 262.087L284 259.706V322H274.533C265.067 322 246.133 322 227.2 322C208.267 322 189.333 322 170.4 322C151.467 322 132.533 322 113.6 322C94.6667 322 75.7333 322 56.8 322C37.8667 322 18.9333 322 9.46667 322H0V294.622Z" fill="#00C200"/>
<path d="M88.295 208.304V215.48H97.247V216.584H88.295V224H87.071V207.2H98.303V208.304H88.295ZM111.188 224.12C109.06 224.12 107.404 223.504 106.22 222.272C105.052 221.04 104.468 219.24 104.468 216.872V207.2H105.692V216.824C105.692 218.888 106.164 220.432 107.108 221.456C108.052 222.48 109.42 222.992 111.212 222.992C112.988 222.992 114.348 222.48 115.292 221.456C116.236 220.432 116.708 218.888 116.708 216.824V207.2H117.932V216.872C117.932 219.24 117.34 221.04 116.156 222.272C114.972 223.504 113.316 224.12 111.188 224.12ZM130.131 208.304H124.083V207.2H137.403V208.304H131.355V224H130.131V208.304ZM150.614 224.12C148.486 224.12 146.83 223.504 145.646 222.272C144.478 221.04 143.894 219.24 143.894 216.872V207.2H145.118V216.824C145.118 218.888 145.59 220.432 146.534 221.456C147.478 222.48 148.846 222.992 150.638 222.992C152.414 222.992 153.774 222.48 154.718 221.456C155.662 220.432 156.134 218.888 156.134 216.824V207.2H157.358V216.872C157.358 219.24 156.766 221.04 155.582 222.272C154.398 223.504 152.742 224.12 150.614 224.12ZM177.133 224L173.125 218.384C172.533 218.464 171.989 218.504 171.493 218.504H166.693V224H165.469V207.2H171.493C173.605 207.2 175.261 207.704 176.461 208.712C177.661 209.704 178.261 211.088 178.261 212.864C178.261 214.192 177.917 215.312 177.229 216.224C176.557 217.12 175.589 217.752 174.325 218.12L178.525 224H177.133ZM171.493 217.424C173.285 217.424 174.653 217.032 175.597 216.248C176.541 215.448 177.013 214.32 177.013 212.864C177.013 211.408 176.541 210.288 175.597 209.504C174.653 208.704 173.285 208.304 171.493 208.304H166.693V217.424H171.493ZM193.707 207.2H194.931V224H193.707V207.2Z" fill="white"/>
<path d="M88.295 208.304V206.054C87.0523 206.054 86.045 207.061 86.045 208.304H88.295ZM88.295 215.48H86.045C86.045 216.723 87.0523 217.73 88.295 217.73V215.48ZM97.247 215.48H99.497C99.497 214.237 98.4896 213.23 97.247 213.23V215.48ZM97.247 216.584V218.834C98.4896 218.834 99.497 217.827 99.497 216.584H97.247ZM88.295 216.584V214.334C87.0523 214.334 86.045 215.341 86.045 216.584H88.295ZM88.295 224V226.25C89.5376 226.25 90.545 225.243 90.545 224H88.295ZM87.071 224H84.821C84.821 225.243 85.8283 226.25 87.071 226.25V224ZM87.071 207.2V204.95C85.8283 204.95 84.821 205.957 84.821 207.2H87.071ZM98.303 207.2H100.553C100.553 205.957 99.5456 204.95 98.303 204.95V207.2ZM98.303 208.304V210.554C99.5456 210.554 100.553 209.547 100.553 208.304H98.303ZM86.045 208.304V215.48H90.545V208.304H86.045ZM88.295 217.73H97.247V213.23H88.295V217.73ZM94.997 215.48V216.584H99.497V215.48H94.997ZM97.247 214.334H88.295V218.834H97.247V214.334ZM86.045 216.584V224H90.545V216.584H86.045ZM88.295 221.75H87.071V226.25H88.295V221.75ZM89.321 224V207.2H84.821V224H89.321ZM87.071 209.45H98.303V204.95H87.071V209.45ZM96.053 207.2V208.304H100.553V207.2H96.053ZM98.303 206.054H88.295V210.554H98.303V206.054ZM106.22 222.272L104.587 223.82C104.59 223.824 104.594 223.827 104.597 223.831L106.22 222.272ZM104.468 207.2V204.95C103.225 204.95 102.218 205.957 102.218 207.2H104.468ZM105.692 207.2H107.942C107.942 205.957 106.934 204.95 105.692 204.95V207.2ZM107.108 221.456L105.453 222.981L107.108 221.456ZM115.292 221.456L113.637 219.931L115.292 221.456ZM116.708 207.2V204.95C115.465 204.95 114.458 205.957 114.458 207.2H116.708ZM117.932 207.2H120.182C120.182 205.957 119.174 204.95 117.932 204.95V207.2ZM116.156 222.272L114.533 220.713L116.156 222.272ZM111.188 221.87C109.512 221.87 108.502 221.4 107.842 220.713L104.597 223.831C106.305 225.608 108.607 226.37 111.188 226.37V221.87ZM107.852 220.724C107.214 220.051 106.718 218.893 106.718 216.872H102.218C102.218 219.587 102.889 222.029 104.587 223.82L107.852 220.724ZM106.718 216.872V207.2H102.218V216.872H106.718ZM104.468 209.45H105.692V204.95H104.468V209.45ZM103.442 207.2V216.824H107.942V207.2H103.442ZM103.442 216.824C103.442 219.186 103.977 221.38 105.453 222.981L108.762 219.931C108.35 219.484 107.942 218.59 107.942 216.824H103.442ZM105.453 222.981C106.937 224.591 108.982 225.242 111.212 225.242V220.742C109.857 220.742 109.166 220.369 108.762 219.931L105.453 222.981ZM111.212 225.242C113.432 225.242 115.466 224.587 116.946 222.981L113.637 219.931C113.23 220.373 112.543 220.742 111.212 220.742V225.242ZM116.946 222.981C118.422 221.38 118.958 219.186 118.958 216.824H114.458C114.458 218.59 114.049 219.484 113.637 219.931L116.946 222.981ZM118.958 216.824V207.2H114.458V216.824H118.958ZM116.708 209.45H117.932V204.95H116.708V209.45ZM115.682 207.2V216.872H120.182V207.2H115.682ZM115.682 216.872C115.682 218.886 115.181 220.039 114.533 220.713L117.778 223.831C119.498 222.041 120.182 219.594 120.182 216.872H115.682ZM114.533 220.713C113.873 221.4 112.863 221.87 111.188 221.87V226.37C113.768 226.37 116.07 225.608 117.778 223.831L114.533 220.713ZM130.131 208.304H132.381C132.381 207.061 131.373 206.054 130.131 206.054V208.304ZM124.083 208.304H121.833C121.833 209.547 122.84 210.554 124.083 210.554V208.304ZM124.083 207.2V204.95C122.84 204.95 121.833 205.957 121.833 207.2H124.083ZM137.403 207.2H139.653C139.653 205.957 138.645 204.95 137.403 204.95V207.2ZM137.403 208.304V210.554C138.645 210.554 139.653 209.547 139.653 208.304H137.403ZM131.355 208.304V206.054C130.112 206.054 129.105 207.061 129.105 208.304H131.355ZM131.355 224V226.25C132.597 226.25 133.605 225.243 133.605 224H131.355ZM130.131 224H127.881C127.881 225.243 128.888 226.25 130.131 226.25V224ZM130.131 206.054H124.083V210.554H130.131V206.054ZM126.333 208.304V207.2H121.833V208.304H126.333ZM124.083 209.45H137.403V204.95H124.083V209.45ZM135.153 207.2V208.304H139.653V207.2H135.153ZM137.403 206.054H131.355V210.554H137.403V206.054ZM129.105 208.304V224H133.605V208.304H129.105ZM131.355 221.75H130.131V226.25H131.355V221.75ZM132.381 224V208.304H127.881V224H132.381ZM145.646 222.272L144.013 223.82C144.017 223.824 144.02 223.827 144.024 223.831L145.646 222.272ZM143.894 207.2V204.95C142.652 204.95 141.644 205.957 141.644 207.2H143.894ZM145.118 207.2H147.368C147.368 205.957 146.361 204.95 145.118 204.95V207.2ZM146.534 221.456L144.88 222.981L146.534 221.456ZM154.718 221.456L153.064 219.931L154.718 221.456ZM156.134 207.2V204.95C154.892 204.95 153.884 205.957 153.884 207.2H156.134ZM157.358 207.2H159.608C159.608 205.957 158.601 204.95 157.358 204.95V207.2ZM155.582 222.272L153.96 220.713L155.582 222.272ZM150.614 221.87C148.939 221.87 147.929 221.4 147.268 220.713L144.024 223.831C145.731 225.608 148.034 226.37 150.614 226.37V221.87ZM147.279 220.724C146.641 220.051 146.144 218.893 146.144 216.872H141.644C141.644 219.587 142.315 222.029 144.013 223.82L147.279 220.724ZM146.144 216.872V207.2H141.644V216.872H146.144ZM143.894 209.45H145.118V204.95H143.894V209.45ZM142.868 207.2V216.824H147.368V207.2H142.868ZM142.868 216.824C142.868 219.186 143.404 221.38 144.88 222.981L148.188 219.931C147.777 219.484 147.368 218.59 147.368 216.824H142.868ZM144.88 222.981C146.364 224.591 148.409 225.242 150.638 225.242V220.742C149.284 220.742 148.592 220.369 148.188 219.931L144.88 222.981ZM150.638 225.242C152.859 225.242 154.892 224.587 156.372 222.981L153.064 219.931C152.656 220.373 151.97 220.742 150.638 220.742V225.242ZM156.372 222.981C157.849 221.38 158.384 219.186 158.384 216.824H153.884C153.884 218.59 153.476 219.484 153.064 219.931L156.372 222.981ZM158.384 216.824V207.2H153.884V216.824H158.384ZM156.134 209.45H157.358V204.95H156.134V209.45ZM155.108 207.2V216.872H159.608V207.2H155.108ZM155.108 216.872C155.108 218.886 154.607 220.039 153.96 220.713L157.204 223.831C158.925 222.041 159.608 219.594 159.608 216.872H155.108ZM153.96 220.713C153.299 221.4 152.29 221.87 150.614 221.87V226.37C153.195 226.37 155.497 225.608 157.204 223.831L153.96 220.713ZM177.133 224L175.302 225.307C175.724 225.899 176.406 226.25 177.133 226.25V224ZM173.125 218.384L174.957 217.077C174.472 216.398 173.651 216.043 172.824 216.154L173.125 218.384ZM166.693 218.504V216.254C165.451 216.254 164.443 217.261 164.443 218.504H166.693ZM166.693 224V226.25C167.936 226.25 168.943 225.243 168.943 224H166.693ZM165.469 224H163.219C163.219 225.243 164.227 226.25 165.469 226.25V224ZM165.469 207.2V204.95C164.227 204.95 163.219 205.957 163.219 207.2H165.469ZM176.461 208.712L175.014 210.435C175.019 210.439 175.023 210.442 175.028 210.446L176.461 208.712ZM177.229 216.224L175.433 214.869L175.429 214.874L177.229 216.224ZM174.325 218.12L173.696 215.96C172.996 216.164 172.438 216.694 172.199 217.383C171.961 218.072 172.071 218.834 172.495 219.428L174.325 218.12ZM178.525 224V226.25C179.368 226.25 180.14 225.779 180.526 225.03C180.912 224.28 180.846 223.378 180.356 222.692L178.525 224ZM175.597 216.248L177.035 217.979C177.041 217.974 177.046 217.969 177.052 217.965L175.597 216.248ZM175.597 209.504L174.143 211.221C174.148 211.225 174.154 211.23 174.16 211.235L175.597 209.504ZM166.693 208.304V206.054C165.451 206.054 164.443 207.061 164.443 208.304H166.693ZM166.693 217.424H164.443C164.443 218.667 165.451 219.674 166.693 219.674V217.424ZM178.965 222.693L174.957 217.077L171.294 219.691L175.302 225.307L178.965 222.693ZM172.824 216.154C172.313 216.223 171.871 216.254 171.493 216.254V220.754C172.108 220.754 172.754 220.705 173.427 220.614L172.824 216.154ZM171.493 216.254H166.693V220.754H171.493V216.254ZM164.443 218.504V224H168.943V218.504H164.443ZM166.693 221.75H165.469V226.25H166.693V221.75ZM167.719 224V207.2H163.219V224H167.719ZM165.469 209.45H171.493V204.95H165.469V209.45ZM171.493 209.45C173.261 209.45 174.342 209.87 175.014 210.435L177.909 206.989C176.181 205.538 173.95 204.95 171.493 204.95V209.45ZM175.028 210.446C175.634 210.948 176.011 211.653 176.011 212.864H180.511C180.511 210.523 179.688 208.46 177.895 206.978L175.028 210.446ZM176.011 212.864C176.011 213.786 175.781 214.408 175.433 214.869L179.026 217.579C180.054 216.216 180.511 214.598 180.511 212.864H176.011ZM175.429 214.874C175.099 215.315 174.578 215.703 173.696 215.96L174.954 220.28C176.601 219.801 178.016 218.925 179.029 217.574L175.429 214.874ZM172.495 219.428L176.695 225.308L180.356 222.692L176.156 216.812L172.495 219.428ZM178.525 221.75H177.133V226.25H178.525V221.75ZM171.493 219.674C173.575 219.674 175.537 219.223 177.035 217.979L174.16 214.517C173.77 214.841 172.995 215.174 171.493 215.174V219.674ZM177.052 217.965C178.591 216.66 179.263 214.852 179.263 212.864H174.763C174.763 213.788 174.491 214.236 174.143 214.531L177.052 217.965ZM179.263 212.864C179.263 210.877 178.591 209.066 177.035 207.773L174.16 211.235C174.492 211.51 174.763 211.939 174.763 212.864H179.263ZM177.052 207.787C175.553 206.517 173.585 206.054 171.493 206.054V210.554C172.986 210.554 173.754 210.891 174.143 211.221L177.052 207.787ZM171.493 206.054H166.693V210.554H171.493V206.054ZM164.443 208.304V217.424H168.943V208.304H164.443ZM166.693 219.674H171.493V215.174H166.693V219.674ZM193.707 207.2V204.95C192.464 204.95 191.457 205.957 191.457 207.2H193.707ZM194.931 207.2H197.181C197.181 205.957 196.174 204.95 194.931 204.95V207.2ZM194.931 224V226.25C196.174 226.25 197.181 225.243 197.181 224H194.931ZM193.707 224H191.457C191.457 225.243 192.464 226.25 193.707 226.25V224ZM193.707 209.45H194.931V204.95H193.707V209.45ZM192.681 207.2V224H197.181V207.2H192.681ZM194.931 221.75H193.707V226.25H194.931V221.75ZM195.957 224V207.2H191.457V224H195.957Z" fill="white"/>
<g style="mix-blend-mode:soft-light">
<path d="M58 192H226" stroke="white"/>
</g>
<mask id="mask0_157_2358" style="mask-type:alpha" maskUnits="userSpaceOnUse" x="59" y="125" width="168" height="56">
<path d="M64.768 130.8V140.7H77.8V143.004H64.768V153.696H62.104V128.496H79.384V130.8H64.768ZM98.6373 153.912C95.3733 153.912 92.8293 152.976 91.0053 151.104C89.1813 149.232 88.2693 146.508 88.2693 142.932V128.496H90.9333V142.824C90.9333 145.752 91.5933 147.936 92.9133 149.376C94.2333 150.816 96.1413 151.536 98.6373 151.536C101.157 151.536 103.077 150.816 104.397 149.376C105.717 147.936 106.377 145.752 106.377 142.824V128.496H108.969V142.932C108.969 146.508 108.057 149.232 106.233 151.104C104.433 152.976 101.901 153.912 98.6373 153.912ZM125.001 130.8H116.145V128.496H136.521V130.8H127.665V153.696H125.001V130.8ZM154.036 153.912C150.772 153.912 148.228 152.976 146.404 151.104C144.58 149.232 143.668 146.508 143.668 142.932V128.496H146.332V142.824C146.332 145.752 146.992 147.936 148.312 149.376C149.632 150.816 151.54 151.536 154.036 151.536C156.556 151.536 158.476 150.816 159.796 149.376C161.116 147.936 161.776 145.752 161.776 142.824V128.496H164.368V142.932C164.368 146.508 163.456 149.232 161.632 151.104C159.832 152.976 157.3 153.912 154.036 153.912ZM193.204 153.696L187.444 145.596C186.796 145.668 186.124 145.704 185.428 145.704H178.66V153.696H175.996V128.496H185.428C188.644 128.496 191.164 129.264 192.988 130.8C194.812 132.336 195.724 134.448 195.724 137.136C195.724 139.104 195.22 140.772 194.212 142.14C193.228 143.484 191.812 144.456 189.964 145.056L196.12 153.696H193.204ZM185.356 143.436C187.852 143.436 189.76 142.884 191.08 141.78C192.4 140.676 193.06 139.128 193.06 137.136C193.06 135.096 192.4 133.536 191.08 132.456C189.76 131.352 187.852 130.8 185.356 130.8H178.66V143.436H185.356ZM223.432 151.392V153.696H205.612V128.496H222.892V130.8H208.276V139.764H221.308V142.032H208.276V151.392H223.432Z" fill="white"/>
<path d="M64.768 130.8V127.8C63.1111 127.8 61.768 129.143 61.768 130.8H64.768ZM64.768 140.7H61.768C61.768 142.357 63.1111 143.7 64.768 143.7V140.7ZM77.8 140.7H80.8C80.8 139.043 79.4569 137.7 77.8 137.7V140.7ZM77.8 143.004V146.004C79.4569 146.004 80.8 144.661 80.8 143.004H77.8ZM64.768 143.004V140.004C63.1111 140.004 61.768 141.347 61.768 143.004H64.768ZM64.768 153.696V156.696C66.4249 156.696 67.768 155.353 67.768 153.696H64.768ZM62.104 153.696H59.104C59.104 155.353 60.4471 156.696 62.104 156.696V153.696ZM62.104 128.496V125.496C60.4471 125.496 59.104 126.839 59.104 128.496H62.104ZM79.384 128.496H82.384C82.384 126.839 81.0409 125.496 79.384 125.496V128.496ZM79.384 130.8V133.8C81.0409 133.8 82.384 132.457 82.384 130.8H79.384ZM61.768 130.8V140.7H67.768V130.8H61.768ZM64.768 143.7H77.8V137.7H64.768V143.7ZM74.8 140.7V143.004H80.8V140.7H74.8ZM77.8 140.004H64.768V146.004H77.8V140.004ZM61.768 143.004V153.696H67.768V143.004H61.768ZM64.768 150.696H62.104V156.696H64.768V150.696ZM65.104 153.696V128.496H59.104V153.696H65.104ZM62.104 131.496H79.384V125.496H62.104V131.496ZM76.384 128.496V130.8H82.384V128.496H76.384ZM79.384 127.8H64.768V133.8H79.384V127.8ZM91.0053 151.104L93.1539 149.011L91.0053 151.104ZM88.2693 128.496V125.496C86.6124 125.496 85.2693 126.839 85.2693 128.496H88.2693ZM90.9333 128.496H93.9333C93.9333 126.839 92.5901 125.496 90.9333 125.496V128.496ZM104.397 149.376L106.609 151.403L104.397 149.376ZM106.377 128.496V125.496C104.72 125.496 103.377 126.839 103.377 128.496H106.377ZM108.969 128.496H111.969C111.969 126.839 110.626 125.496 108.969 125.496V128.496ZM106.233 151.104L104.085 149.011C104.08 149.015 104.075 149.02 104.071 149.025L106.233 151.104ZM98.6373 150.912C95.9688 150.912 94.2798 150.166 93.1539 149.011L88.8566 153.198C91.3787 155.786 94.7777 156.912 98.6373 156.912V150.912ZM93.1539 149.011C92.0511 147.879 91.2693 146.02 91.2693 142.932H85.2693C85.2693 146.997 86.3114 150.586 88.8566 153.198L93.1539 149.011ZM91.2693 142.932V128.496H85.2693V142.932H91.2693ZM88.2693 131.496H90.9333V125.496H88.2693V131.496ZM87.9333 128.496V142.824H93.9333V128.496H87.9333ZM87.9333 142.824C87.9333 146.137 88.6724 149.19 90.7018 151.403L95.1247 147.349C94.5141 146.683 93.9333 145.367 93.9333 142.824H87.9333ZM90.7018 151.403C92.7385 153.625 95.5487 154.536 98.6373 154.536V148.536C96.7338 148.536 95.728 148.007 95.1247 147.349L90.7018 151.403ZM98.6373 154.536C101.74 154.536 104.567 153.631 106.609 151.403L102.186 147.349C101.588 148.001 100.575 148.536 98.6373 148.536V154.536ZM106.609 151.403C108.638 149.19 109.377 146.137 109.377 142.824H103.377C103.377 145.367 102.796 146.683 102.186 147.349L106.609 151.403ZM109.377 142.824V128.496H103.377V142.824H109.377ZM106.377 131.496H108.969V125.496H106.377V131.496ZM105.969 128.496V142.932H111.969V128.496H105.969ZM105.969 142.932C105.969 146.02 105.187 147.879 104.085 149.011L108.382 153.198C110.927 150.586 111.969 146.997 111.969 142.932H105.969ZM104.071 149.025C102.974 150.166 101.308 150.912 98.6373 150.912V156.912C102.495 156.912 105.893 155.787 108.396 153.184L104.071 149.025ZM125.001 130.8H128.001C128.001 129.143 126.658 127.8 125.001 127.8V130.8ZM116.145 130.8H113.145C113.145 132.457 114.488 133.8 116.145 133.8V130.8ZM116.145 128.496V125.496C114.488 125.496 113.145 126.839 113.145 128.496H116.145ZM136.521 128.496H139.521C139.521 126.839 138.178 125.496 136.521 125.496V128.496ZM136.521 130.8V133.8C138.178 133.8 139.521 132.457 139.521 130.8H136.521ZM127.665 130.8V127.8C126.008 127.8 124.665 129.143 124.665 130.8H127.665ZM127.665 153.696V156.696C129.322 156.696 130.665 155.353 130.665 153.696H127.665ZM125.001 153.696H122.001C122.001 155.353 123.344 156.696 125.001 156.696V153.696ZM125.001 127.8H116.145V133.8H125.001V127.8ZM119.145 130.8V128.496H113.145V130.8H119.145ZM116.145 131.496H136.521V125.496H116.145V131.496ZM133.521 128.496V130.8H139.521V128.496H133.521ZM136.521 127.8H127.665V133.8H136.521V127.8ZM124.665 130.8V153.696H130.665V130.8H124.665ZM127.665 150.696H125.001V156.696H127.665V150.696ZM128.001 153.696V130.8H122.001V153.696H128.001ZM146.404 151.104L148.553 149.011L146.404 151.104ZM143.668 128.496V125.496C142.012 125.496 140.668 126.839 140.668 128.496H143.668ZM146.332 128.496H149.332C149.332 126.839 147.989 125.496 146.332 125.496V128.496ZM159.796 149.376L162.008 151.403L159.796 149.376ZM161.776 128.496V125.496C160.12 125.496 158.776 126.839 158.776 128.496H161.776ZM164.368 128.496H167.368C167.368 126.839 166.025 125.496 164.368 125.496V128.496ZM161.632 151.104L159.484 149.011C159.479 149.015 159.475 149.02 159.47 149.025L161.632 151.104ZM154.036 150.912C151.368 150.912 149.679 150.166 148.553 149.011L144.256 153.198C146.778 155.786 150.177 156.912 154.036 156.912V150.912ZM148.553 149.011C147.45 147.879 146.668 146.02 146.668 142.932H140.668C140.668 146.997 141.711 150.586 144.256 153.198L148.553 149.011ZM146.668 142.932V128.496H140.668V142.932H146.668ZM143.668 131.496H146.332V125.496H143.668V131.496ZM143.332 128.496V142.824H149.332V128.496H143.332ZM143.332 142.824C143.332 146.137 144.072 149.19 146.101 151.403L150.524 147.349C149.913 146.683 149.332 145.367 149.332 142.824H143.332ZM146.101 151.403C148.138 153.625 150.948 154.536 154.036 154.536V148.536C152.133 148.536 151.127 148.007 150.524 147.349L146.101 151.403ZM154.036 154.536C157.139 154.536 159.966 153.631 162.008 151.403L157.585 147.349C156.987 148.001 155.974 148.536 154.036 148.536V154.536ZM162.008 151.403C164.037 149.19 164.776 146.137 164.776 142.824H158.776C158.776 145.367 158.196 146.683 157.585 147.349L162.008 151.403ZM164.776 142.824V128.496H158.776V142.824H164.776ZM161.776 131.496H164.368V125.496H161.776V131.496ZM161.368 128.496V142.932H167.368V128.496H161.368ZM161.368 142.932C161.368 146.02 160.587 147.879 159.484 149.011L163.781 153.198C166.326 150.586 167.368 146.997 167.368 142.932H161.368ZM159.47 149.025C158.373 150.166 156.707 150.912 154.036 150.912V156.912C157.894 156.912 161.292 155.787 163.795 153.184L159.47 149.025ZM193.204 153.696L190.759 155.435C191.322 156.226 192.233 156.696 193.204 156.696V153.696ZM187.444 145.596L189.889 143.858C189.258 142.97 188.195 142.494 187.113 142.615L187.444 145.596ZM178.66 145.704V142.704C177.003 142.704 175.66 144.047 175.66 145.704H178.66ZM178.66 153.696V156.696C180.317 156.696 181.66 155.353 181.66 153.696H178.66ZM175.996 153.696H172.996C172.996 155.353 174.339 156.696 175.996 156.696V153.696ZM175.996 128.496V125.496C174.339 125.496 172.996 126.839 172.996 128.496H175.996ZM192.988 130.8L191.056 133.095L192.988 130.8ZM194.212 142.14L191.797 140.361L191.792 140.368L194.212 142.14ZM189.964 145.056L189.038 142.203C188.129 142.498 187.415 143.208 187.115 144.116C186.816 145.023 186.966 146.019 187.521 146.797L189.964 145.056ZM196.12 153.696V156.696C197.243 156.696 198.272 156.069 198.787 155.071C199.301 154.072 199.215 152.87 198.563 151.955L196.12 153.696ZM191.08 141.78L193.005 144.082L191.08 141.78ZM191.08 132.456L189.156 134.758C189.164 134.764 189.172 134.771 189.18 134.778L191.08 132.456ZM178.66 130.8V127.8C177.003 127.8 175.66 129.143 175.66 130.8H178.66ZM178.66 143.436H175.66C175.66 145.093 177.003 146.436 178.66 146.436V143.436ZM195.649 151.958L189.889 143.858L184.999 147.335L190.759 155.435L195.649 151.958ZM187.113 142.615C186.582 142.674 186.021 142.704 185.428 142.704V148.704C186.228 148.704 187.01 148.663 187.775 148.578L187.113 142.615ZM185.428 142.704H178.66V148.704H185.428V142.704ZM175.66 145.704V153.696H181.66V145.704H175.66ZM178.66 150.696H175.996V156.696H178.66V150.696ZM178.996 153.696V128.496H172.996V153.696H178.996ZM175.996 131.496H185.428V125.496H175.996V131.496ZM185.428 131.496C188.185 131.496 189.936 132.152 191.056 133.095L194.921 128.506C192.393 126.377 189.104 125.496 185.428 125.496V131.496ZM191.056 133.095C192.112 133.984 192.724 135.207 192.724 137.136H198.724C198.724 133.69 197.513 130.688 194.921 128.506L191.056 133.095ZM192.724 137.136C192.724 138.569 192.367 139.587 191.797 140.361L196.627 143.92C198.073 141.958 198.724 139.64 198.724 137.136H192.724ZM191.792 140.368C191.239 141.123 190.39 141.764 189.038 142.203L190.891 147.91C193.235 147.149 195.217 145.846 196.633 143.912L191.792 140.368ZM187.521 146.797L193.677 155.437L198.563 151.955L192.407 143.315L187.521 146.797ZM196.12 150.696H193.204V156.696H196.12V150.696ZM185.356 146.436C188.246 146.436 190.948 145.802 193.005 144.082L189.156 139.479C188.573 139.966 187.458 140.436 185.356 140.436V146.436ZM193.005 144.082C195.118 142.314 196.06 139.861 196.06 137.136H190.06C190.06 138.396 189.683 139.038 189.156 139.479L193.005 144.082ZM196.06 137.136C196.06 134.392 195.135 131.897 192.98 130.134L189.18 134.778C189.666 135.175 190.06 135.801 190.06 137.136H196.06ZM193.005 130.155C190.948 128.434 188.246 127.8 185.356 127.8V133.8C187.458 133.8 188.573 134.27 189.156 134.758L193.005 130.155ZM185.356 127.8H178.66V133.8H185.356V127.8ZM175.66 130.8V143.436H181.66V130.8H175.66ZM178.66 146.436H185.356V140.436H178.66V146.436ZM223.432 151.392H226.432C226.432 149.735 225.089 148.392 223.432 148.392V151.392ZM223.432 153.696V156.696C225.089 156.696 226.432 155.353 226.432 153.696H223.432ZM205.612 153.696H202.612C202.612 155.353 203.955 156.696 205.612 156.696V153.696ZM205.612 128.496V125.496C203.955 125.496 202.612 126.839 202.612 128.496H205.612ZM222.892 128.496H225.892C225.892 126.839 224.549 125.496 222.892 125.496V128.496ZM222.892 130.8V133.8C224.549 133.8 225.892 132.457 225.892 130.8H222.892ZM208.276 130.8V127.8C206.619 127.8 205.276 129.143 205.276 130.8H208.276ZM208.276 139.764H205.276C205.276 141.421 206.619 142.764 208.276 142.764V139.764ZM221.308 139.764H224.308C224.308 138.107 222.965 136.764 221.308 136.764V139.764ZM221.308 142.032V145.032C222.965 145.032 224.308 143.689 224.308 142.032H221.308ZM208.276 142.032V139.032C206.619 139.032 205.276 140.375 205.276 142.032H208.276ZM208.276 151.392H205.276C205.276 153.049 206.619 154.392 208.276 154.392V151.392ZM220.432 151.392V153.696H226.432V151.392H220.432ZM223.432 150.696H205.612V156.696H223.432V150.696ZM208.612 153.696V128.496H202.612V153.696H208.612ZM205.612 131.496H222.892V125.496H205.612V131.496ZM219.892 128.496V130.8H225.892V128.496H219.892ZM222.892 127.8H208.276V133.8H222.892V127.8ZM205.276 130.8V139.764H211.276V130.8H205.276ZM208.276 142.764H221.308V136.764H208.276V142.764ZM218.308 139.764V142.032H224.308V139.764H218.308ZM221.308 139.032H208.276V145.032H221.308V139.032ZM205.276 142.032V151.392H211.276V142.032H205.276ZM208.276 154.392H223.432V148.392H208.276V154.392Z" fill="white"/>
<path d="M110.28 164.973H105.08V164.593H115.88V164.973H110.68V178.593H110.28V164.973ZM129.937 178.213V178.593H120.617V164.593H129.637V164.973H121.017V171.293H128.737V171.673H121.017V178.213H129.937ZM146.976 164.593V178.593H146.636L136.376 165.333V178.593H135.976V164.593H136.316L146.576 177.853V164.593H146.976ZM157.725 178.653C156.711 178.653 155.758 178.473 154.865 178.113C153.971 177.74 153.285 177.26 152.805 176.673L153.085 176.413C153.538 176.947 154.185 177.393 155.025 177.753C155.865 178.1 156.758 178.273 157.705 178.273C159.158 178.273 160.251 177.987 160.985 177.413C161.731 176.827 162.105 176.073 162.105 175.153C162.105 174.433 161.911 173.86 161.525 173.433C161.138 173.007 160.658 172.687 160.085 172.473C159.525 172.26 158.765 172.04 157.805 171.813C156.778 171.56 155.965 171.32 155.365 171.093C154.765 170.853 154.251 170.493 153.825 170.013C153.411 169.52 153.205 168.867 153.205 168.053C153.205 167.413 153.371 166.827 153.705 166.293C154.038 165.76 154.558 165.333 155.265 165.013C155.971 164.693 156.845 164.533 157.885 164.533C158.631 164.533 159.365 164.653 160.085 164.893C160.805 165.12 161.425 165.427 161.945 165.813L161.725 166.133C161.178 165.733 160.565 165.433 159.885 165.233C159.218 165.02 158.558 164.913 157.905 164.913C156.505 164.913 155.438 165.213 154.705 165.813C153.971 166.4 153.605 167.153 153.605 168.073C153.605 168.793 153.798 169.373 154.185 169.813C154.571 170.24 155.051 170.56 155.625 170.773C156.198 170.987 156.971 171.213 157.945 171.453C158.958 171.707 159.765 171.953 160.365 172.193C160.965 172.42 161.471 172.773 161.885 173.253C162.298 173.72 162.505 174.353 162.505 175.153C162.505 175.793 162.331 176.38 161.985 176.913C161.638 177.447 161.105 177.873 160.385 178.193C159.678 178.5 158.791 178.653 157.725 178.653ZM177.636 178.213V178.593H168.316V164.593H177.336V164.973H168.716V171.293H176.436V171.673H168.716V178.213H177.636Z" fill="white"/>
<path d="M110.28 164.973H112.28C112.28 163.869 111.385 162.973 110.28 162.973V164.973ZM105.08 164.973H103.08C103.08 166.078 103.975 166.973 105.08 166.973V164.973ZM105.08 164.593V162.593C103.975 162.593 103.08 163.489 103.08 164.593H105.08ZM115.88 164.593H117.88C117.88 163.489 116.985 162.593 115.88 162.593V164.593ZM115.88 164.973V166.973C116.985 166.973 117.88 166.078 117.88 164.973H115.88ZM110.68 164.973V162.973C109.575 162.973 108.68 163.869 108.68 164.973H110.68ZM110.68 178.593V180.593C111.785 180.593 112.68 179.698 112.68 178.593H110.68ZM110.28 178.593H108.28C108.28 179.698 109.175 180.593 110.28 180.593V178.593ZM110.28 162.973H105.08V166.973H110.28V162.973ZM107.08 164.973V164.593H103.08V164.973H107.08ZM105.08 166.593H115.88V162.593H105.08V166.593ZM113.88 164.593V164.973H117.88V164.593H113.88ZM115.88 162.973H110.68V166.973H115.88V162.973ZM108.68 164.973V178.593H112.68V164.973H108.68ZM110.68 176.593H110.28V180.593H110.68V176.593ZM112.28 178.593V164.973H108.28V178.593H112.28ZM129.937 178.213H131.937C131.937 177.109 131.042 176.213 129.937 176.213V178.213ZM129.937 178.593V180.593C131.042 180.593 131.937 179.698 131.937 178.593H129.937ZM120.617 178.593H118.617C118.617 179.698 119.512 180.593 120.617 180.593V178.593ZM120.617 164.593V162.593C119.512 162.593 118.617 163.489 118.617 164.593H120.617ZM129.637 164.593H131.637C131.637 163.489 130.742 162.593 129.637 162.593V164.593ZM129.637 164.973V166.973C130.742 166.973 131.637 166.078 131.637 164.973H129.637ZM121.017 164.973V162.973C119.912 162.973 119.017 163.869 119.017 164.973H121.017ZM121.017 171.293H119.017C119.017 172.398 119.912 173.293 121.017 173.293V171.293ZM128.737 171.293H130.737C130.737 170.189 129.842 169.293 128.737 169.293V171.293ZM128.737 171.673V173.673C129.842 173.673 130.737 172.778 130.737 171.673H128.737ZM121.017 171.673V169.673C119.912 169.673 119.017 170.569 119.017 171.673H121.017ZM121.017 178.213H119.017C119.017 179.318 119.912 180.213 121.017 180.213V178.213ZM127.937 178.213V178.593H131.937V178.213H127.937ZM129.937 176.593H120.617V180.593H129.937V176.593ZM122.617 178.593V164.593H118.617V178.593H122.617ZM120.617 166.593H129.637V162.593H120.617V166.593ZM127.637 164.593V164.973H131.637V164.593H127.637ZM129.637 162.973H121.017V166.973H129.637V162.973ZM119.017 164.973V171.293H123.017V164.973H119.017ZM121.017 173.293H128.737V169.293H121.017V173.293ZM126.737 171.293V171.673H130.737V171.293H126.737ZM128.737 169.673H121.017V173.673H128.737V169.673ZM119.017 171.673V178.213H123.017V171.673H119.017ZM121.017 180.213H129.937V176.213H121.017V180.213ZM146.976 164.593H148.976C148.976 163.489 148.081 162.593 146.976 162.593V164.593ZM146.976 178.593V180.593C148.081 180.593 148.976 179.698 148.976 178.593H146.976ZM146.636 178.593L145.055 179.817C145.433 180.307 146.017 180.593 146.636 180.593V178.593ZM136.376 165.333L137.958 164.109C137.435 163.433 136.539 163.164 135.73 163.441C134.92 163.717 134.376 164.478 134.376 165.333H136.376ZM136.376 178.593V180.593C137.481 180.593 138.376 179.698 138.376 178.593H136.376ZM135.976 178.593H133.976C133.976 179.698 134.872 180.593 135.976 180.593V178.593ZM135.976 164.593V162.593C134.872 162.593 133.976 163.489 133.976 164.593H135.976ZM136.316 164.593L137.898 163.369C137.519 162.88 136.935 162.593 136.316 162.593V164.593ZM146.576 177.853L144.995 179.077C145.518 179.754 146.414 180.022 147.223 179.746C148.032 179.469 148.576 178.709 148.576 177.853H146.576ZM146.576 164.593V162.593C145.472 162.593 144.576 163.489 144.576 164.593H146.576ZM144.976 164.593V178.593H148.976V164.593H144.976ZM146.976 176.593H146.636V180.593H146.976V176.593ZM148.218 177.369L137.958 164.109L134.795 166.557L145.055 179.817L148.218 177.369ZM134.376 165.333V178.593H138.376V165.333H134.376ZM136.376 176.593H135.976V180.593H136.376V176.593ZM137.976 178.593V164.593H133.976V178.593H137.976ZM135.976 166.593H136.316V162.593H135.976V166.593ZM134.735 165.817L144.995 179.077L148.158 176.629L137.898 163.369L134.735 165.817ZM148.576 177.853V164.593H144.576V177.853H148.576ZM146.576 166.593H146.976V162.593H146.576V166.593ZM154.865 178.113L154.093 179.959C154.101 179.962 154.109 179.965 154.117 179.968L154.865 178.113ZM152.805 176.673L151.444 175.208C150.67 175.926 150.588 177.122 151.257 177.94L152.805 176.673ZM153.085 176.413L154.608 175.118C154.255 174.702 153.747 174.449 153.202 174.417C152.658 174.384 152.123 174.576 151.724 174.948L153.085 176.413ZM155.025 177.753L154.237 179.591C154.245 179.595 154.253 179.598 154.262 179.602L155.025 177.753ZM160.985 177.413L162.216 178.989L162.22 178.986L160.985 177.413ZM161.525 173.433L160.043 174.776L161.525 173.433ZM160.085 172.473L159.373 174.342C159.377 174.344 159.382 174.346 159.387 174.348L160.085 172.473ZM157.805 171.813L157.325 173.755C157.332 173.757 157.338 173.758 157.345 173.76L157.805 171.813ZM155.365 171.093L154.622 172.95C154.634 172.955 154.646 172.96 154.658 172.964L155.365 171.093ZM153.825 170.013L152.291 171.298C152.304 171.313 152.317 171.327 152.33 171.342L153.825 170.013ZM153.705 166.293L155.401 167.353L153.705 166.293ZM160.085 164.893L159.452 166.791C159.463 166.794 159.473 166.798 159.484 166.801L160.085 164.893ZM161.945 165.813L163.593 166.946C164.202 166.06 164.001 164.85 163.138 164.208L161.945 165.813ZM161.725 166.133L160.544 167.747C160.98 168.066 161.527 168.195 162.06 168.105C162.593 168.014 163.066 167.712 163.373 167.266L161.725 166.133ZM159.885 165.233L159.275 167.138C159.29 167.143 159.305 167.147 159.32 167.152L159.885 165.233ZM154.705 165.813L155.954 167.375C155.96 167.37 155.965 167.366 155.971 167.361L154.705 165.813ZM154.185 169.813L152.682 171.133C152.689 171.141 152.696 171.149 152.703 171.156L154.185 169.813ZM155.625 170.773L156.322 168.899L155.625 170.773ZM157.945 171.453L158.43 169.513L158.423 169.511L157.945 171.453ZM160.365 172.193L159.622 174.05C159.634 174.055 159.646 174.06 159.658 174.064L160.365 172.193ZM161.885 173.253L160.369 174.558C160.375 174.565 160.381 174.572 160.387 174.579L161.885 173.253ZM161.985 176.913L160.308 175.823L161.985 176.913ZM160.385 178.193L161.181 180.028C161.186 180.026 161.191 180.023 161.197 180.021L160.385 178.193ZM157.725 176.653C156.954 176.653 156.256 176.517 155.612 176.258L154.117 179.968C155.26 180.429 156.469 180.653 157.725 180.653V176.653ZM155.636 176.268C154.963 175.987 154.575 175.679 154.352 175.407L151.257 177.94C151.994 178.841 152.979 179.493 154.093 179.959L155.636 176.268ZM154.165 178.139L154.445 177.879L151.724 174.948L151.444 175.208L154.165 178.139ZM151.561 177.708C152.266 178.538 153.196 179.146 154.237 179.591L155.812 175.915C155.173 175.641 154.81 175.355 154.608 175.118L151.561 177.708ZM154.262 179.602C155.354 180.053 156.507 180.273 157.705 180.273V176.273C157.009 176.273 156.375 176.147 155.788 175.904L154.262 179.602ZM157.705 180.273C159.369 180.273 160.982 179.954 162.216 178.989L159.753 175.838C159.52 176.019 158.947 176.273 157.705 176.273V180.273ZM162.22 178.986C163.431 178.034 164.105 176.71 164.105 175.153H160.105C160.105 175.437 160.031 175.619 159.749 175.841L162.22 178.986ZM164.105 175.153C164.105 174.066 163.804 172.97 163.007 172.09L160.043 174.776C160.044 174.778 160.046 174.78 160.048 174.784C160.051 174.788 160.057 174.8 160.064 174.822C160.08 174.868 160.105 174.97 160.105 175.153H164.105ZM163.007 172.09C162.391 171.411 161.636 170.917 160.782 170.599L159.387 174.348C159.679 174.456 159.884 174.602 160.043 174.776L163.007 172.09ZM160.797 170.604C160.119 170.346 159.263 170.102 158.264 169.867L157.345 173.76C158.266 173.977 158.93 174.174 159.373 174.342L160.797 170.604ZM158.284 169.871C157.292 169.627 156.565 169.409 156.071 169.222L154.658 172.964C155.364 173.231 156.264 173.493 157.325 173.755L158.284 169.871ZM156.107 169.236C155.794 169.111 155.538 168.931 155.319 168.684L152.33 171.342C152.964 172.055 153.735 172.596 154.622 172.95L156.107 169.236ZM155.358 168.729C155.319 168.682 155.205 168.524 155.205 168.053H151.205C151.205 169.209 151.504 170.358 152.291 171.298L155.358 168.729ZM155.205 168.053C155.205 167.781 155.27 167.563 155.401 167.353L152.009 165.233C151.473 166.09 151.205 167.045 151.205 168.053H155.205ZM155.401 167.353C155.481 167.225 155.658 167.031 156.09 166.835L154.44 163.191C153.458 163.636 152.595 164.295 152.009 165.233L155.401 167.353ZM156.09 166.835C156.465 166.665 157.037 166.533 157.885 166.533V162.533C156.652 162.533 155.478 162.721 154.44 163.191L156.09 166.835ZM157.885 166.533C158.413 166.533 158.933 166.617 159.452 166.791L160.717 162.996C159.796 162.689 158.85 162.533 157.885 162.533V166.533ZM159.484 166.801C160.025 166.971 160.437 167.185 160.751 167.418L163.138 164.208C162.412 163.668 161.584 163.268 160.685 162.985L159.484 166.801ZM160.296 164.68L160.076 165L163.373 167.266L163.593 166.946L160.296 164.68ZM162.906 164.519C162.164 163.976 161.34 163.577 160.449 163.314L159.32 167.152C159.789 167.29 160.192 167.49 160.544 167.747L162.906 164.519ZM160.494 163.328C159.644 163.056 158.779 162.913 157.905 162.913V166.913C158.337 166.913 158.791 166.983 159.275 167.138L160.494 163.328ZM157.905 162.913C156.256 162.913 154.665 163.262 153.438 164.265L155.971 167.361C156.211 167.165 156.753 166.913 157.905 166.913V162.913ZM153.455 164.251C152.259 165.208 151.605 166.531 151.605 168.073H155.605C155.605 167.775 155.684 167.591 155.954 167.375L153.455 164.251ZM151.605 168.073C151.605 169.163 151.906 170.25 152.682 171.133L155.687 168.493C155.677 168.482 155.663 168.464 155.647 168.416C155.629 168.362 155.605 168.255 155.605 168.073H151.605ZM152.703 171.156C153.318 171.835 154.073 172.33 154.927 172.648L156.322 168.899C156.03 168.79 155.825 168.645 155.667 168.47L152.703 171.156ZM154.927 172.648C155.602 172.899 156.459 173.147 157.466 173.395L158.423 169.511C157.484 169.28 156.793 169.074 156.322 168.899L154.927 172.648ZM157.459 173.393C158.431 173.636 159.141 173.858 159.622 174.05L161.107 170.336C160.388 170.049 159.484 169.777 158.43 169.513L157.459 173.393ZM159.658 174.064C159.949 174.174 160.177 174.335 160.369 174.558L163.4 171.948C162.766 171.212 161.98 170.665 161.071 170.322L159.658 174.064ZM160.387 174.579C160.393 174.586 160.505 174.699 160.505 175.153H164.505C164.505 174.007 164.202 172.854 163.382 171.927L160.387 174.579ZM160.505 175.153C160.505 175.409 160.442 175.616 160.308 175.823L163.661 178.003C164.22 177.143 164.505 176.178 164.505 175.153H160.505ZM160.308 175.823C160.217 175.963 160.023 176.165 159.572 176.366L161.197 180.021C162.186 179.581 163.059 178.931 163.661 178.003L160.308 175.823ZM159.588 176.358C159.21 176.523 158.616 176.653 157.725 176.653V180.653C158.967 180.653 160.146 180.477 161.181 180.028L159.588 176.358ZM177.636 178.213H179.636C179.636 177.109 178.741 176.213 177.636 176.213V178.213ZM177.636 178.593V180.593C178.741 180.593 179.636 179.698 179.636 178.593H177.636ZM168.316 178.593H166.316C166.316 179.698 167.212 180.593 168.316 180.593V178.593ZM168.316 164.593V162.593C167.212 162.593 166.316 163.489 166.316 164.593H168.316ZM177.336 164.593H179.336C179.336 163.489 178.441 162.593 177.336 162.593V164.593ZM177.336 164.973V166.973C178.441 166.973 179.336 166.078 179.336 164.973H177.336ZM168.716 164.973V162.973C167.612 162.973 166.716 163.869 166.716 164.973H168.716ZM168.716 171.293H166.716C166.716 172.398 167.612 173.293 168.716 173.293V171.293ZM176.436 171.293H178.436C178.436 170.189 177.541 169.293 176.436 169.293V171.293ZM176.436 171.673V173.673C177.541 173.673 178.436 172.778 178.436 171.673H176.436ZM168.716 171.673V169.673C167.612 169.673 166.716 170.569 166.716 171.673H168.716ZM168.716 178.213H166.716C166.716 179.318 167.612 180.213 168.716 180.213V178.213ZM175.636 178.213V178.593H179.636V178.213H175.636ZM177.636 176.593H168.316V180.593H177.636V176.593ZM170.316 178.593V164.593H166.316V178.593H170.316ZM168.316 166.593H177.336V162.593H168.316V166.593ZM175.336 164.593V164.973H179.336V164.593H175.336ZM177.336 162.973H168.716V166.973H177.336V162.973ZM166.716 164.973V171.293H170.716V164.973H166.716ZM168.716 173.293H176.436V169.293H168.716V173.293ZM174.436 171.293V171.673H178.436V171.293H174.436ZM176.436 169.673H168.716V173.673H176.436V169.673ZM166.716 171.673V178.213H170.716V171.673H166.716ZM168.716 180.213H177.636V176.213H168.716V180.213Z" fill="white"/>
</mask>
<g mask="url(#mask0_157_2358)">
<path d="M0 143.673L9.46667 144.936C18.9333 146.237 37.8667 148.762 56.8 146.16C75.7333 143.559 94.6667 135.754 113.6 136.29C132.533 136.787 151.467 145.586 170.4 146.16C189.333 146.734 208.267 139.083 227.2 135.142C246.133 131.163 265.067 130.934 274.533 130.781L284 130.666V321.186H274.533C265.067 321.186 246.133 321.186 227.2 321.186C208.267 321.186 189.333 321.186 170.4 321.186C151.467 321.186 132.533 321.186 113.6 321.186C94.6667 321.186 75.7333 321.186 56.8 321.186C37.8667 321.186 18.9333 321.186 9.46667 321.186H0V143.673Z" fill="white"/>
</g>
</g>
<defs>
<clipPath id="clip0_157_2358">
<rect width="284" height="322" fill="white"/>
</clipPath>
</defs>
</svg>
