<svg width="284" height="322" viewBox="0 0 284 322" fill="none" xmlns="http://www.w3.org/2000/svg">
<g clip-path="url(#clip0_157_2404)">
<path d="M284 0H0V322H284V0Z" fill="#001220"/>
<path d="M58.536 129.8C61.752 129.8 64.272 130.568 66.096 132.104C67.92 133.64 68.832 135.752 68.832 138.44C68.832 141.128 67.92 143.24 66.096 144.776C64.272 146.288 61.752 147.044 58.536 147.044H51.768V155H49.104V129.8H58.536ZM58.464 144.704C60.96 144.704 62.868 144.164 64.188 143.084C65.508 141.98 66.168 140.432 66.168 138.44C66.168 136.4 65.508 134.84 64.188 133.76C62.868 132.656 60.96 132.104 58.464 132.104H51.768V144.704H58.464ZM95.4003 155L89.6403 146.9C88.9923 146.972 88.3203 147.008 87.6243 147.008H80.8563V155H78.1923V129.8H87.6243C90.8403 129.8 93.3603 130.568 95.1843 132.104C97.0083 133.64 97.9203 135.752 97.9203 138.44C97.9203 140.408 97.4163 142.076 96.4083 143.444C95.4243 144.788 94.0083 145.76 92.1603 146.36L98.3163 155H95.4003ZM87.5523 144.74C90.0483 144.74 91.9563 144.188 93.2763 143.084C94.5963 141.98 95.2563 140.432 95.2563 138.44C95.2563 136.4 94.5963 134.84 93.2763 133.76C91.9563 132.656 90.0483 132.104 87.5523 132.104H80.8563V144.74H87.5523ZM125.628 152.696V155H107.808V129.8H125.088V132.104H110.472V141.068H123.504V143.336H110.472V152.696H125.628ZM142.438 155.216C140.566 155.216 138.766 154.916 137.038 154.316C135.334 153.716 134.014 152.924 133.078 151.94L134.122 149.888C135.034 150.8 136.246 151.544 137.758 152.12C139.27 152.672 140.83 152.948 142.438 152.948C144.694 152.948 146.386 152.54 147.514 151.724C148.642 150.884 149.206 149.804 149.206 148.484C149.206 147.476 148.894 146.672 148.27 146.072C147.67 145.472 146.926 145.016 146.038 144.704C145.15 144.368 143.914 144.008 142.33 143.624C140.434 143.144 138.922 142.688 137.794 142.256C136.666 141.8 135.694 141.116 134.878 140.204C134.086 139.292 133.69 138.056 133.69 136.496C133.69 135.224 134.026 134.072 134.698 133.04C135.37 131.984 136.402 131.144 137.794 130.52C139.186 129.896 140.914 129.584 142.978 129.584C144.418 129.584 145.822 129.788 147.19 130.196C148.582 130.58 149.782 131.12 150.79 131.816L149.89 133.94C148.834 133.244 147.706 132.728 146.506 132.392C145.306 132.032 144.13 131.852 142.978 131.852C140.77 131.852 139.102 132.284 137.974 133.148C136.87 133.988 136.318 135.08 136.318 136.424C136.318 137.432 136.618 138.248 137.218 138.872C137.842 139.472 138.61 139.94 139.522 140.276C140.458 140.588 141.706 140.936 143.266 141.32C145.114 141.776 146.602 142.232 147.73 142.688C148.882 143.12 149.854 143.792 150.646 144.704C151.438 145.592 151.834 146.804 151.834 148.34C151.834 149.612 151.486 150.776 150.79 151.832C150.118 152.864 149.074 153.692 147.658 154.316C146.242 154.916 144.502 155.216 142.438 155.216ZM179.058 152.696V155H161.238V129.8H178.518V132.104H163.902V141.068H176.934V143.336H163.902V152.696H179.058ZM209.98 129.8V155H207.784L191.584 134.552V155H188.92V129.8H191.116L207.352 150.248V129.8H209.98ZM226.702 132.104H217.846V129.8H238.222V132.104H229.366V155H226.702V132.104Z" fill="#FA668B"/>
<path d="M66.096 132.104L64.1636 134.399L66.096 132.104ZM66.096 144.776L68.0106 147.086C68.0165 147.081 68.0225 147.076 68.0284 147.071L66.096 144.776ZM51.768 147.044V144.044C50.1111 144.044 48.768 145.387 48.768 147.044H51.768ZM51.768 155V158C53.4249 158 54.768 156.657 54.768 155H51.768ZM49.104 155H46.104C46.104 156.657 47.4471 158 49.104 158V155ZM49.104 129.8V126.8C47.4471 126.8 46.104 128.143 46.104 129.8H49.104ZM64.188 143.084L66.0877 145.406C66.0961 145.399 66.1044 145.392 66.1127 145.385L64.188 143.084ZM64.188 133.76L62.2633 136.061C62.2716 136.068 62.2799 136.075 62.2883 136.082L64.188 133.76ZM51.768 132.104V129.104C50.1111 129.104 48.768 130.447 48.768 132.104H51.768ZM51.768 144.704H48.768C48.768 146.361 50.1111 147.704 51.768 147.704V144.704ZM58.536 132.8C61.2923 132.8 63.0436 133.456 64.1636 134.399L68.0284 129.809C65.5004 127.68 62.2117 126.8 58.536 126.8V132.8ZM64.1636 134.399C65.2196 135.288 65.832 136.511 65.832 138.44H71.832C71.832 134.993 70.6204 131.992 68.0284 129.809L64.1636 134.399ZM65.832 138.44C65.832 140.369 65.2196 141.592 64.1636 142.481L68.0284 147.071C70.6204 144.888 71.832 141.887 71.832 138.44H65.832ZM64.1814 142.466C63.0608 143.395 61.3026 144.044 58.536 144.044V150.044C62.2014 150.044 65.4832 149.181 68.0106 147.086L64.1814 142.466ZM58.536 144.044H51.768V150.044H58.536V144.044ZM48.768 147.044V155H54.768V147.044H48.768ZM51.768 152H49.104V158H51.768V152ZM52.104 155V129.8H46.104V155H52.104ZM49.104 132.8H58.536V126.8H49.104V132.8ZM58.464 147.704C61.3412 147.704 64.0322 147.088 66.0877 145.406L62.2883 140.762C61.7038 141.24 60.5788 141.704 58.464 141.704V147.704ZM66.1127 145.385C68.2255 143.618 69.168 141.164 69.168 138.44H63.168C63.168 139.7 62.7905 140.342 62.2633 140.783L66.1127 145.385ZM69.168 138.44C69.168 135.696 68.2425 133.201 66.0877 131.438L62.2883 136.082C62.7735 136.479 63.168 137.104 63.168 138.44H69.168ZM66.1127 131.459C64.0555 129.738 61.3542 129.104 58.464 129.104V135.104C60.5658 135.104 61.6805 135.574 62.2633 136.061L66.1127 131.459ZM58.464 129.104H51.768V135.104H58.464V129.104ZM48.768 132.104V144.704H54.768V132.104H48.768ZM51.768 147.704H58.464V141.704H51.768V147.704ZM95.4003 155L92.9554 156.739C93.5182 157.53 94.4292 158 95.4003 158V155ZM89.6403 146.9L92.0851 145.161C91.454 144.274 90.3914 143.798 89.309 143.918L89.6403 146.9ZM80.8563 147.008V144.008C79.1994 144.008 77.8563 145.351 77.8563 147.008H80.8563ZM80.8563 155V158C82.5131 158 83.8563 156.657 83.8563 155H80.8563ZM78.1923 155H75.1923C75.1923 156.657 76.5354 158 78.1923 158V155ZM78.1923 129.8V126.8C76.5354 126.8 75.1923 128.143 75.1923 129.8H78.1923ZM95.1843 132.104L93.2519 134.399L95.1843 132.104ZM96.4083 143.444L93.9931 141.664L93.9877 141.672L96.4083 143.444ZM92.1603 146.36L91.2339 143.507C90.325 143.802 89.6111 144.512 89.3115 145.419C89.012 146.327 89.1625 147.323 89.717 148.101L92.1603 146.36ZM98.3163 155V158C99.4394 158 100.468 157.373 100.983 156.374C101.497 155.376 101.411 154.174 100.76 153.259L98.3163 155ZM93.2763 143.084L95.2009 145.385L93.2763 143.084ZM93.2763 133.76L91.3516 136.061C91.3599 136.068 91.3682 136.075 91.3766 136.082L93.2763 133.76ZM80.8563 132.104V129.104C79.1994 129.104 77.8563 130.447 77.8563 132.104H80.8563ZM80.8563 144.74H77.8563C77.8563 146.397 79.1994 147.74 80.8563 147.74V144.74ZM97.8451 153.261L92.0851 145.161L87.1954 148.639L92.9554 156.739L97.8451 153.261ZM89.309 143.918C88.7781 143.977 88.217 144.008 87.6243 144.008V150.008C88.4236 150.008 89.2065 149.967 89.9716 149.882L89.309 143.918ZM87.6243 144.008H80.8563V150.008H87.6243V144.008ZM77.8563 147.008V155H83.8563V147.008H77.8563ZM80.8563 152H78.1923V158H80.8563V152ZM81.1923 155V129.8H75.1923V155H81.1923ZM78.1923 132.8H87.6243V126.8H78.1923V132.8ZM87.6243 132.8C90.3806 132.8 92.1319 133.456 93.2519 134.399L97.1167 129.809C94.5887 127.68 91.3 126.8 87.6243 126.8V132.8ZM93.2519 134.399C94.3079 135.288 94.9203 136.511 94.9203 138.44H100.92C100.92 134.993 99.7086 131.992 97.1167 129.809L93.2519 134.399ZM94.9203 138.44C94.9203 139.873 94.5633 140.891 93.9931 141.664L98.8234 145.224C100.269 143.261 100.92 140.943 100.92 138.44H94.9203ZM93.9877 141.672C93.4351 142.427 92.5856 143.068 91.2339 143.507L93.0867 149.213C95.4309 148.452 97.4135 147.149 98.8289 145.216L93.9877 141.672ZM89.717 148.101L95.873 156.741L100.76 153.259L94.6035 144.619L89.717 148.101ZM98.3163 152H95.4003V158H98.3163V152ZM87.5523 147.74C90.4425 147.74 93.1438 147.106 95.2009 145.385L91.3516 140.783C90.7688 141.27 89.654 141.74 87.5523 141.74V147.74ZM95.2009 145.385C97.3138 143.618 98.2563 141.164 98.2563 138.44H92.2563C92.2563 139.7 91.8788 140.342 91.3516 140.783L95.2009 145.385ZM98.2563 138.44C98.2563 135.696 97.3308 133.201 95.176 131.438L91.3766 136.082C91.8618 136.479 92.2563 137.104 92.2563 138.44H98.2563ZM95.2009 131.459C93.1438 129.738 90.4425 129.104 87.5523 129.104V135.104C89.654 135.104 90.7688 135.574 91.3516 136.061L95.2009 131.459ZM87.5523 129.104H80.8563V135.104H87.5523V129.104ZM77.8563 132.104V144.74H83.8563V132.104H77.8563ZM80.8563 147.74H87.5523V141.74H80.8563V147.74ZM125.628 152.696H128.628C128.628 151.039 127.285 149.696 125.628 149.696V152.696ZM125.628 155V158C127.285 158 128.628 156.657 128.628 155H125.628ZM107.808 155H104.808C104.808 156.657 106.151 158 107.808 158V155ZM107.808 129.8V126.8C106.151 126.8 104.808 128.143 104.808 129.8H107.808ZM125.088 129.8H128.088C128.088 128.143 126.745 126.8 125.088 126.8V129.8ZM125.088 132.104V135.104C126.745 135.104 128.088 133.761 128.088 132.104H125.088ZM110.472 132.104V129.104C108.815 129.104 107.472 130.447 107.472 132.104H110.472ZM110.472 141.068H107.472C107.472 142.725 108.815 144.068 110.472 144.068V141.068ZM123.504 141.068H126.504C126.504 139.411 125.161 138.068 123.504 138.068V141.068ZM123.504 143.336V146.336C125.161 146.336 126.504 144.993 126.504 143.336H123.504ZM110.472 143.336V140.336C108.815 140.336 107.472 141.679 107.472 143.336H110.472ZM110.472 152.696H107.472C107.472 154.353 108.815 155.696 110.472 155.696V152.696ZM122.628 152.696V155H128.628V152.696H122.628ZM125.628 152H107.808V158H125.628V152ZM110.808 155V129.8H104.808V155H110.808ZM107.808 132.8H125.088V126.8H107.808V132.8ZM122.088 129.8V132.104H128.088V129.8H122.088ZM125.088 129.104H110.472V135.104H125.088V129.104ZM107.472 132.104V141.068H113.472V132.104H107.472ZM110.472 144.068H123.504V138.068H110.472V144.068ZM120.504 141.068V143.336H126.504V141.068H120.504ZM123.504 140.336H110.472V146.336H123.504V140.336ZM107.472 143.336V152.696H113.472V143.336H107.472ZM110.472 155.696H125.628V149.696H110.472V155.696ZM137.038 154.316L136.042 157.146L136.054 157.15L137.038 154.316ZM133.078 151.94L130.404 150.58C129.828 151.713 130.028 153.086 130.904 154.008L133.078 151.94ZM134.122 149.888L136.243 147.767C135.564 147.087 134.601 146.775 133.652 146.925C132.703 147.076 131.884 147.671 131.448 148.528L134.122 149.888ZM137.758 152.12L136.69 154.923C136.703 154.928 136.716 154.933 136.729 154.938L137.758 152.12ZM147.514 151.724L149.272 154.155C149.284 154.147 149.295 154.138 149.306 154.13L147.514 151.724ZM148.27 146.072L146.149 148.193C146.162 148.207 146.176 148.221 146.191 148.234L148.27 146.072ZM146.038 144.704L144.976 147.51C144.999 147.518 145.021 147.526 145.043 147.534L146.038 144.704ZM142.33 143.624L141.594 146.532C141.603 146.535 141.613 146.537 141.623 146.54L142.33 143.624ZM137.794 142.256L136.67 145.037C136.687 145.044 136.704 145.051 136.721 145.058L137.794 142.256ZM134.878 140.204L132.613 142.171C132.623 142.182 132.632 142.193 132.642 142.204L134.878 140.204ZM134.698 133.04L137.212 134.677C137.218 134.668 137.223 134.659 137.229 134.651L134.698 133.04ZM137.794 130.52L139.021 133.258L137.794 130.52ZM147.19 130.196L146.333 133.071C146.352 133.077 146.372 133.082 146.392 133.088L147.19 130.196ZM150.79 131.816L153.552 132.986C154.107 131.676 153.666 130.156 152.495 129.347L150.79 131.816ZM149.89 133.94L148.239 136.445C148.983 136.935 149.906 137.069 150.758 136.812C151.611 136.554 152.305 135.931 152.652 135.11L149.89 133.94ZM146.506 132.392L145.644 135.265C145.662 135.271 145.679 135.276 145.697 135.281L146.506 132.392ZM137.974 133.148L139.791 135.535L139.798 135.53L137.974 133.148ZM137.218 138.872L135.055 140.951C135.083 140.98 135.11 141.007 135.139 141.034L137.218 138.872ZM139.522 140.276L138.485 143.091C138.514 143.102 138.544 143.112 138.573 143.122L139.522 140.276ZM143.266 141.32L143.985 138.407H143.983L143.266 141.32ZM147.73 142.688L146.606 145.469C146.629 145.479 146.653 145.488 146.677 145.497L147.73 142.688ZM150.646 144.704L148.381 146.671C148.39 146.681 148.398 146.691 148.407 146.701L150.646 144.704ZM150.79 151.832L148.285 150.181C148.282 150.186 148.279 150.19 148.276 150.195L150.79 151.832ZM147.658 154.316L148.828 157.078C148.842 157.073 148.855 157.067 148.868 157.061L147.658 154.316ZM142.438 152.216C140.893 152.216 139.426 151.97 138.022 151.482L136.054 157.15C138.106 157.862 140.239 158.216 142.438 158.216V152.216ZM138.034 151.486C136.636 150.994 135.771 150.419 135.252 149.872L130.904 154.008C132.257 155.429 134.032 156.438 136.042 157.146L138.034 151.486ZM135.752 153.3L136.796 151.248L131.448 148.528L130.404 150.58L135.752 153.3ZM132.001 152.009C133.278 153.286 134.88 154.234 136.69 154.923L138.826 149.317C137.612 148.854 136.79 148.314 136.243 147.767L132.001 152.009ZM136.729 154.938C138.57 155.61 140.479 155.948 142.438 155.948V149.948C141.181 149.948 139.969 149.734 138.787 149.302L136.729 154.938ZM142.438 155.948C144.966 155.948 147.403 155.507 149.272 154.155L145.756 149.293C145.369 149.573 144.422 149.948 142.438 149.948V155.948ZM149.306 154.13C151.136 152.767 152.206 150.822 152.206 148.484H146.206C146.206 148.786 146.148 149.001 145.722 149.318L149.306 154.13ZM152.206 148.484C152.206 146.806 151.659 145.169 150.349 143.909L146.191 148.234C146.194 148.238 146.19 148.234 146.183 148.224C146.177 148.214 146.174 148.208 146.175 148.21C146.176 148.213 146.206 148.29 146.206 148.484H152.206ZM150.391 143.951C149.44 143 148.298 142.318 147.032 141.874L145.043 147.534C145.554 147.714 145.9 147.944 146.149 148.193L150.391 143.951ZM147.1 141.898C146.042 141.498 144.669 141.104 143.037 140.708L141.623 146.54C143.159 146.912 144.257 147.238 144.976 147.51L147.1 141.898ZM143.066 140.716C141.224 140.249 139.839 139.827 138.867 139.454L136.721 145.058C138.005 145.549 139.644 146.039 141.594 146.532L143.066 140.716ZM138.918 139.475C138.218 139.192 137.626 138.776 137.114 138.204L132.642 142.204C133.762 143.456 135.114 144.408 136.67 145.037L138.918 139.475ZM137.143 138.237C136.949 138.014 136.69 137.549 136.69 136.496H130.69C130.69 138.563 131.222 140.57 132.613 142.171L137.143 138.237ZM136.69 136.496C136.69 135.785 136.868 135.205 137.212 134.677L132.184 131.403C131.184 132.939 130.69 134.663 130.69 136.496H136.69ZM137.229 134.651C137.523 134.189 138.046 133.694 139.021 133.258L136.567 127.782C134.757 128.594 133.217 129.779 132.167 131.429L137.229 134.651ZM139.021 133.258C139.916 132.856 141.196 132.584 142.978 132.584V126.584C140.632 126.584 138.455 126.936 136.567 127.782L139.021 133.258ZM142.978 132.584C144.13 132.584 145.245 132.747 146.333 133.071L148.047 127.321C146.399 126.829 144.706 126.584 142.978 126.584V132.584ZM146.392 133.088C147.517 133.398 148.398 133.81 149.085 134.285L152.495 129.347C151.166 128.43 149.647 127.762 147.988 127.304L146.392 133.088ZM148.028 130.646L147.128 132.77L152.652 135.11L153.552 132.986L148.028 130.646ZM151.541 131.435C150.23 130.571 148.818 129.924 147.315 129.503L145.697 135.281C146.594 135.532 147.438 135.917 148.239 136.445L151.541 131.435ZM147.368 129.519C145.913 129.082 144.446 128.852 142.978 128.852V134.852C143.814 134.852 144.699 134.982 145.644 135.265L147.368 129.519ZM142.978 128.852C140.454 128.852 138.021 129.333 136.15 130.766L139.798 135.53C140.183 135.235 141.086 134.852 142.978 134.852V128.852ZM136.157 130.761C134.336 132.146 133.318 134.108 133.318 136.424H139.318C139.318 136.052 139.404 135.83 139.791 135.535L136.157 130.761ZM133.318 136.424C133.318 138.07 133.83 139.677 135.055 140.951L139.38 136.793C139.369 136.781 139.366 136.777 139.359 136.757C139.348 136.729 139.318 136.63 139.318 136.424H133.318ZM135.139 141.034C136.096 141.955 137.232 142.629 138.485 143.091L140.559 137.461C139.988 137.251 139.588 136.989 139.297 136.71L135.139 141.034ZM138.573 143.122C139.618 143.47 140.953 143.84 142.549 144.233L143.983 138.407C142.459 138.032 141.298 137.706 140.471 137.43L138.573 143.122ZM142.547 144.233C144.325 144.671 145.661 145.088 146.606 145.469L148.854 139.907C147.542 139.376 145.903 138.881 143.985 138.407L142.547 144.233ZM146.677 145.497C147.37 145.757 147.923 146.143 148.381 146.671L152.911 142.737C151.785 141.441 150.394 140.483 148.783 139.879L146.677 145.497ZM148.407 146.701C148.58 146.895 148.834 147.32 148.834 148.34H154.834C154.834 146.288 154.296 144.289 152.885 142.707L148.407 146.701ZM148.834 148.34C148.834 149.029 148.656 149.618 148.285 150.181L153.295 153.483C154.316 151.934 154.834 150.195 154.834 148.34H148.834ZM148.276 150.195C147.994 150.627 147.468 151.122 146.448 151.571L148.868 157.061C150.68 156.262 152.241 155.101 153.304 153.469L148.276 150.195ZM146.487 151.554C145.545 151.953 144.23 152.216 142.438 152.216V158.216C144.774 158.216 146.939 157.879 148.828 157.078L146.487 151.554ZM179.058 152.696H182.058C182.058 151.039 180.715 149.696 179.058 149.696V152.696ZM179.058 155V158C180.715 158 182.058 156.657 182.058 155H179.058ZM161.238 155H158.238C158.238 156.657 159.582 158 161.238 158V155ZM161.238 129.8V126.8C159.582 126.8 158.238 128.143 158.238 129.8H161.238ZM178.518 129.8H181.518C181.518 128.143 180.175 126.8 178.518 126.8V129.8ZM178.518 132.104V135.104C180.175 135.104 181.518 133.761 181.518 132.104H178.518ZM163.902 132.104V129.104C162.246 129.104 160.902 130.447 160.902 132.104H163.902ZM163.902 141.068H160.902C160.902 142.725 162.246 144.068 163.902 144.068V141.068ZM176.934 141.068H179.934C179.934 139.411 178.591 138.068 176.934 138.068V141.068ZM176.934 143.336V146.336C178.591 146.336 179.934 144.993 179.934 143.336H176.934ZM163.902 143.336V140.336C162.246 140.336 160.902 141.679 160.902 143.336H163.902ZM163.902 152.696H160.902C160.902 154.353 162.246 155.696 163.902 155.696V152.696ZM176.058 152.696V155H182.058V152.696H176.058ZM179.058 152H161.238V158H179.058V152ZM164.238 155V129.8H158.238V155H164.238ZM161.238 132.8H178.518V126.8H161.238V132.8ZM175.518 129.8V132.104H181.518V129.8H175.518ZM178.518 129.104H163.902V135.104H178.518V129.104ZM160.902 132.104V141.068H166.902V132.104H160.902ZM163.902 144.068H176.934V138.068H163.902V144.068ZM173.934 141.068V143.336H179.934V141.068H173.934ZM176.934 140.336H163.902V146.336H176.934V140.336ZM160.902 143.336V152.696H166.902V143.336H160.902ZM163.902 155.696H179.058V149.696H163.902V155.696ZM209.98 129.8H212.98C212.98 128.143 211.637 126.8 209.98 126.8V129.8ZM209.98 155V158C211.637 158 212.98 156.657 212.98 155H209.98ZM207.784 155L205.433 156.863C206.002 157.581 206.868 158 207.784 158V155ZM191.584 134.552L193.936 132.689C193.143 131.688 191.804 131.299 190.598 131.719C189.392 132.138 188.584 133.275 188.584 134.552H191.584ZM191.584 155V158C193.241 158 194.584 156.657 194.584 155H191.584ZM188.92 155H185.92C185.92 156.657 187.264 158 188.92 158V155ZM188.92 129.8V126.8C187.264 126.8 185.92 128.143 185.92 129.8H188.92ZM191.116 129.8L193.466 127.935C192.897 127.218 192.032 126.8 191.116 126.8V129.8ZM207.352 150.248L205.003 152.113C205.796 153.113 207.135 153.501 208.34 153.081C209.545 152.661 210.352 151.524 210.352 150.248H207.352ZM207.352 129.8V126.8C205.696 126.8 204.352 128.143 204.352 129.8H207.352ZM206.98 129.8V155H212.98V129.8H206.98ZM209.98 152H207.784V158H209.98V152ZM210.136 153.137L193.936 132.689L189.233 136.415L205.433 156.863L210.136 153.137ZM188.584 134.552V155H194.584V134.552H188.584ZM191.584 152H188.92V158H191.584V152ZM191.92 155V129.8H185.92V155H191.92ZM188.92 132.8H191.116V126.8H188.92V132.8ZM188.767 131.665L205.003 152.113L209.702 148.383L193.466 127.935L188.767 131.665ZM210.352 150.248V129.8H204.352V150.248H210.352ZM207.352 132.8H209.98V126.8H207.352V132.8ZM226.702 132.104H229.702C229.702 130.447 228.358 129.104 226.702 129.104V132.104ZM217.846 132.104H214.846C214.846 133.761 216.189 135.104 217.846 135.104V132.104ZM217.846 129.8V126.8C216.189 126.8 214.846 128.143 214.846 129.8H217.846ZM238.222 129.8H241.222C241.222 128.143 239.878 126.8 238.222 126.8V129.8ZM238.222 132.104V135.104C239.878 135.104 241.222 133.761 241.222 132.104H238.222ZM229.366 132.104V129.104C227.709 129.104 226.366 130.447 226.366 132.104H229.366ZM229.366 155V158C231.022 158 232.366 156.657 232.366 155H229.366ZM226.702 155H223.702C223.702 156.657 225.045 158 226.702 158V155ZM226.702 129.104H217.846V135.104H226.702V129.104ZM220.846 132.104V129.8H214.846V132.104H220.846ZM217.846 132.8H238.222V126.8H217.846V132.8ZM235.222 129.8V132.104H241.222V129.8H235.222ZM238.222 129.104H229.366V135.104H238.222V129.104ZM226.366 132.104V155H232.366V132.104H226.366ZM229.366 152H226.702V158H229.366V152ZM229.702 155V132.104H223.702V155H229.702Z" fill="#FA668B"/>
<path d="M125.28 104.38H120.08V104H130.88V104.38H125.68V118H125.28V104.38ZM146.617 104V118H146.217V111.08H136.017V118H135.617V104H136.017V110.7H146.217V104H146.617ZM163.265 117.62V118H153.945V104H162.965V104.38H154.345V110.7H162.065V111.08H154.345V117.62H163.265Z" fill="#FA668B"/>
<path d="M125.28 104.38H127.28C127.28 103.275 126.385 102.38 125.28 102.38V104.38ZM120.08 104.38H118.08C118.08 105.485 118.975 106.38 120.08 106.38V104.38ZM120.08 104V102C118.975 102 118.08 102.895 118.08 104H120.08ZM130.88 104H132.88C132.88 102.895 131.985 102 130.88 102V104ZM130.88 104.38V106.38C131.985 106.38 132.88 105.485 132.88 104.38H130.88ZM125.68 104.38V102.38C124.575 102.38 123.68 103.275 123.68 104.38H125.68ZM125.68 118V120C126.785 120 127.68 119.105 127.68 118H125.68ZM125.28 118H123.28C123.28 119.105 124.175 120 125.28 120V118ZM125.28 102.38H120.08V106.38H125.28V102.38ZM122.08 104.38V104H118.08V104.38H122.08ZM120.08 106H130.88V102H120.08V106ZM128.88 104V104.38H132.88V104H128.88ZM130.88 102.38H125.68V106.38H130.88V102.38ZM123.68 104.38V118H127.68V104.38H123.68ZM125.68 116H125.28V120H125.68V116ZM127.28 118V104.38H123.28V118H127.28ZM146.617 104H148.617C148.617 102.895 147.722 102 146.617 102V104ZM146.617 118V120C147.722 120 148.617 119.105 148.617 118H146.617ZM146.217 118H144.217C144.217 119.105 145.112 120 146.217 120V118ZM146.217 111.08H148.217C148.217 109.975 147.322 109.08 146.217 109.08V111.08ZM136.017 111.08V109.08C134.912 109.08 134.017 109.975 134.017 111.08H136.017ZM136.017 118V120C137.122 120 138.017 119.105 138.017 118H136.017ZM135.617 118H133.617C133.617 119.105 134.512 120 135.617 120V118ZM135.617 104V102C134.512 102 133.617 102.895 133.617 104H135.617ZM136.017 104H138.017C138.017 102.895 137.122 102 136.017 102V104ZM136.017 110.7H134.017C134.017 111.805 134.912 112.7 136.017 112.7V110.7ZM146.217 110.7V112.7C147.322 112.7 148.217 111.805 148.217 110.7H146.217ZM146.217 104V102C145.112 102 144.217 102.895 144.217 104H146.217ZM144.617 104V118H148.617V104H144.617ZM146.617 116H146.217V120H146.617V116ZM148.217 118V111.08H144.217V118H148.217ZM146.217 109.08H136.017V113.08H146.217V109.08ZM134.017 111.08V118H138.017V111.08H134.017ZM136.017 116H135.617V120H136.017V116ZM137.617 118V104H133.617V118H137.617ZM135.617 106H136.017V102H135.617V106ZM134.017 104V110.7H138.017V104H134.017ZM136.017 112.7H146.217V108.7H136.017V112.7ZM148.217 110.7V104H144.217V110.7H148.217ZM146.217 106H146.617V102H146.217V106ZM163.265 117.62H165.265C165.265 116.515 164.37 115.62 163.265 115.62V117.62ZM163.265 118V120C164.37 120 165.265 119.105 165.265 118H163.265ZM153.945 118H151.945C151.945 119.105 152.841 120 153.945 120V118ZM153.945 104V102C152.841 102 151.945 102.895 151.945 104H153.945ZM162.965 104H164.965C164.965 102.895 164.07 102 162.965 102V104ZM162.965 104.38V106.38C164.07 106.38 164.965 105.485 164.965 104.38H162.965ZM154.345 104.38V102.38C153.241 102.38 152.345 103.275 152.345 104.38H154.345ZM154.345 110.7H152.345C152.345 111.805 153.241 112.7 154.345 112.7V110.7ZM162.065 110.7H164.065C164.065 109.595 163.17 108.7 162.065 108.7V110.7ZM162.065 111.08V113.08C163.17 113.08 164.065 112.185 164.065 111.08H162.065ZM154.345 111.08V109.08C153.241 109.08 152.345 109.975 152.345 111.08H154.345ZM154.345 117.62H152.345C152.345 118.725 153.241 119.62 154.345 119.62V117.62ZM161.265 117.62V118H165.265V117.62H161.265ZM163.265 116H153.945V120H163.265V116ZM155.945 118V104H151.945V118H155.945ZM153.945 106H162.965V102H153.945V106ZM160.965 104V104.38H164.965V104H160.965ZM162.965 102.38H154.345V106.38H162.965V102.38ZM152.345 104.38V110.7H156.345V104.38H152.345ZM154.345 112.7H162.065V108.7H154.345V112.7ZM160.065 110.7V111.08H164.065V110.7H160.065ZM162.065 109.08H154.345V113.08H162.065V109.08ZM152.345 111.08V117.62H156.345V111.08H152.345ZM154.345 119.62H163.265V115.62H154.345V119.62Z" fill="#FA668B"/>
<path d="M0 127L9.46667 128.736C18.9333 130.512 37.8667 133.984 56.8 134.469C75.7333 134.953 94.6667 132.37 113.6 135.761C132.533 139.112 151.467 148.398 170.4 150.295C189.333 152.152 208.267 146.661 227.2 143.876C246.133 141.13 265.067 141.13 274.533 141.13H284V322H274.533C265.067 322 246.133 322 227.2 322C208.267 322 189.333 322 170.4 322C151.467 322 132.533 322 113.6 322C94.6667 322 75.7333 322 56.8 322C37.8667 322 18.9333 322 9.46667 322H0V127Z" fill="#FA668B"/>
<path d="M0 170.555L9.46667 168.818C18.9333 167.041 37.8667 163.568 56.8 161.872C75.7333 160.176 94.6667 160.337 113.6 158.116C132.533 155.895 151.467 151.291 170.4 156.137C189.333 160.983 208.267 175.28 227.2 186.709C246.133 198.138 265.067 206.78 274.533 211.061L284 215.382V322H274.533C265.067 322 246.133 322 227.2 322C208.267 322 189.333 322 170.4 322C151.467 322 132.533 322 113.6 322C94.6667 322 75.7333 322 56.8 322C37.8667 322 18.9333 322 9.46667 322H0V170.555Z" fill="#FC557A"/>
<path d="M0 242.947L9.46667 241.737C18.9333 240.527 37.8667 238.107 56.8 235.203C75.7333 232.339 94.6667 228.951 113.6 225.926C132.533 222.901 151.467 220.239 170.4 219.674C189.333 219.15 208.267 220.763 227.2 218.021C246.133 215.238 265.067 208.139 274.533 204.549L284 201V322H274.533C265.067 322 246.133 322 227.2 322C208.267 322 189.333 322 170.4 322C151.467 322 132.533 322 113.6 322C94.6667 322 75.7333 322 56.8 322C37.8667 322 18.9333 322 9.46667 322H0V242.947Z" fill="#FD4267"/>
<path d="M0 241L9.46667 245.981C18.9333 251.003 37.8667 260.967 56.8 259.914C75.7333 258.82 94.6667 246.67 113.6 244.361C132.533 242.093 151.467 249.626 170.4 253.879C189.333 258.131 208.267 259.104 227.2 258.699C246.133 258.294 265.067 256.512 274.533 255.661L284 254.77V322H274.533C265.067 322 246.133 322 227.2 322C208.267 322 189.333 322 170.4 322C151.467 322 132.533 322 113.6 322C94.6667 322 75.7333 322 56.8 322C37.8667 322 18.9333 322 9.46667 322H0V241Z" fill="#FC2B53"/>
<path d="M0 287.127L9.46667 285.586C18.9333 284.004 37.8667 280.922 56.8 282.382C75.7333 283.883 94.6667 289.965 113.6 293.615C132.533 297.264 151.467 298.481 170.4 296.169C189.333 293.899 208.267 288.059 227.2 286.518C246.133 284.977 265.067 287.654 274.533 289.032L284 290.371V322H274.533C265.067 322 246.133 322 227.2 322C208.267 322 189.333 322 170.4 322C151.467 322 132.533 322 113.6 322C94.6667 322 75.7333 322 56.8 322C37.8667 322 18.9333 322 9.46667 322H0V287.127Z" fill="#F9003E"/>
<path d="M86.1301 207.2C88.2421 207.2 89.8981 207.704 91.0981 208.712C92.2981 209.704 92.8981 211.088 92.8981 212.864C92.8981 214.624 92.2981 216.008 91.0981 217.016C89.8981 218.008 88.2421 218.504 86.1301 218.504H81.3301V224H80.1061V207.2H86.1301ZM86.1301 217.4C87.9221 217.4 89.2901 217.008 90.2341 216.224C91.1781 215.44 91.6501 214.32 91.6501 212.864C91.6501 211.408 91.1781 210.288 90.2341 209.504C89.2901 208.704 87.9221 208.304 86.1301 208.304H81.3301V217.4H86.1301ZM111.02 222.896V224H99.428V207.2H110.66V208.304H100.652V214.928H109.604V216.008H100.652V222.896H111.02ZM129.547 224L125.539 218.384C124.947 218.464 124.403 218.504 123.907 218.504H119.107V224H117.883V207.2H123.907C126.019 207.2 127.675 207.704 128.875 208.712C130.075 209.704 130.675 211.088 130.675 212.864C130.675 214.192 130.331 215.312 129.643 216.224C128.971 217.12 128.003 217.752 126.739 218.12L130.939 224H129.547ZM123.907 217.424C125.699 217.424 127.067 217.032 128.011 216.248C128.955 215.448 129.427 214.32 129.427 212.864C129.427 211.408 128.955 210.288 128.011 209.504C127.067 208.704 125.699 208.304 123.907 208.304H119.107V217.424H123.907ZM138.78 208.304V215.48H147.732V216.584H138.78V224H137.556V207.2H148.788V208.304H138.78ZM166.689 222.896V224H155.097V207.2H166.329V208.304H156.321V214.928H165.273V216.008H156.321V222.896H166.689ZM178.543 215.72L174.775 219.584V224H173.551V207.2H174.775V218L185.263 207.2H186.751L179.359 214.832L187.255 224H185.767L178.543 215.72ZM198.442 208.304H192.394V207.2H205.714V208.304H199.666V224H198.442V208.304Z" fill="white"/>
<path d="M91.0981 208.712L89.6509 210.435C89.6555 210.439 89.66 210.442 89.6645 210.446L91.0981 208.712ZM91.0981 217.016L92.5317 218.75C92.5363 218.746 92.5408 218.743 92.5453 218.739L91.0981 217.016ZM81.3301 218.504V216.254C80.0875 216.254 79.0801 217.261 79.0801 218.504H81.3301ZM81.3301 224V226.25C82.5728 226.25 83.5801 225.243 83.5801 224H81.3301ZM80.1061 224H77.8561C77.8561 225.243 78.8635 226.25 80.1061 226.25V224ZM80.1061 207.2V204.95C78.8635 204.95 77.8561 205.957 77.8561 207.2H80.1061ZM90.2341 216.224L91.6717 217.955L90.2341 216.224ZM90.2341 209.504L88.7795 211.221C88.7851 211.225 88.7909 211.23 88.7966 211.235L90.2341 209.504ZM81.3301 208.304V206.054C80.0875 206.054 79.0801 207.061 79.0801 208.304H81.3301ZM81.3301 217.4H79.0801C79.0801 218.643 80.0875 219.65 81.3301 219.65V217.4ZM86.1301 209.45C87.8974 209.45 88.9782 209.87 89.6509 210.435L92.5453 206.989C90.818 205.538 88.5868 204.95 86.1301 204.95V209.45ZM89.6645 210.446C90.271 210.948 90.6481 211.653 90.6481 212.864H95.1481C95.1481 210.523 94.3252 208.46 92.5317 206.978L89.6645 210.446ZM90.6481 212.864C90.6481 214.051 90.2756 214.768 89.6509 215.293L92.5453 218.739C94.3207 217.248 95.1481 215.197 95.1481 212.864H90.6481ZM89.6645 215.282C88.9914 215.838 87.9052 216.254 86.1301 216.254V220.754C88.579 220.754 90.8049 220.178 92.5317 218.75L89.6645 215.282ZM86.1301 216.254H81.3301V220.754H86.1301V216.254ZM79.0801 218.504V224H83.5801V218.504H79.0801ZM81.3301 221.75H80.1061V226.25H81.3301V221.75ZM82.3561 224V207.2H77.8561V224H82.3561ZM80.1061 209.45H86.1301V204.95H80.1061V209.45ZM86.1301 219.65C88.2121 219.65 90.1738 219.199 91.6717 217.955L88.7966 214.493C88.4065 214.817 87.6322 215.15 86.1301 215.15V219.65ZM91.6717 217.955C93.228 216.662 93.9001 214.851 93.9001 212.864H89.4001C89.4001 213.789 89.1282 214.218 88.7966 214.493L91.6717 217.955ZM93.9001 212.864C93.9001 210.877 93.228 209.066 91.6717 207.773L88.7966 211.235C89.1282 211.51 89.4001 211.939 89.4001 212.864H93.9001ZM91.6888 207.787C90.19 206.517 88.2213 206.054 86.1301 206.054V210.554C87.623 210.554 88.3903 210.891 88.7795 211.221L91.6888 207.787ZM86.1301 206.054H81.3301V210.554H86.1301V206.054ZM79.0801 208.304V217.4H83.5801V208.304H79.0801ZM81.3301 219.65H86.1301V215.15H81.3301V219.65ZM111.02 222.896H113.27C113.27 221.653 112.263 220.646 111.02 220.646V222.896ZM111.02 224V226.25C112.263 226.25 113.27 225.243 113.27 224H111.02ZM99.428 224H97.178C97.178 225.243 98.1854 226.25 99.428 226.25V224ZM99.428 207.2V204.95C98.1854 204.95 97.178 205.957 97.178 207.2H99.428ZM110.66 207.2H112.91C112.91 205.957 111.903 204.95 110.66 204.95V207.2ZM110.66 208.304V210.554C111.903 210.554 112.91 209.547 112.91 208.304H110.66ZM100.652 208.304V206.054C99.4094 206.054 98.402 207.061 98.402 208.304H100.652ZM100.652 214.928H98.402C98.402 216.171 99.4094 217.178 100.652 217.178V214.928ZM109.604 214.928H111.854C111.854 213.685 110.847 212.678 109.604 212.678V214.928ZM109.604 216.008V218.258C110.847 218.258 111.854 217.251 111.854 216.008H109.604ZM100.652 216.008V213.758C99.4094 213.758 98.402 214.765 98.402 216.008H100.652ZM100.652 222.896H98.402C98.402 224.139 99.4094 225.146 100.652 225.146V222.896ZM108.77 222.896V224H113.27V222.896H108.77ZM111.02 221.75H99.428V226.25H111.02V221.75ZM101.678 224V207.2H97.178V224H101.678ZM99.428 209.45H110.66V204.95H99.428V209.45ZM108.41 207.2V208.304H112.91V207.2H108.41ZM110.66 206.054H100.652V210.554H110.66V206.054ZM98.402 208.304V214.928H102.902V208.304H98.402ZM100.652 217.178H109.604V212.678H100.652V217.178ZM107.354 214.928V216.008H111.854V214.928H107.354ZM109.604 213.758H100.652V218.258H109.604V213.758ZM98.402 216.008V222.896H102.902V216.008H98.402ZM100.652 225.146H111.02V220.646H100.652V225.146ZM129.547 224L127.715 225.307C128.138 225.899 128.82 226.25 129.547 226.25V224ZM125.539 218.384L127.37 217.077C126.885 216.398 126.064 216.043 125.237 216.154L125.539 218.384ZM119.107 218.504V216.254C117.864 216.254 116.857 217.261 116.857 218.504H119.107ZM119.107 224V226.25C120.349 226.25 121.357 225.243 121.357 224H119.107ZM117.883 224H115.633C115.633 225.243 116.64 226.25 117.883 226.25V224ZM117.883 207.2V204.95C116.64 204.95 115.633 205.957 115.633 207.2H117.883ZM128.875 208.712L127.428 210.435C127.432 210.439 127.437 210.442 127.441 210.446L128.875 208.712ZM129.643 216.224L127.846 214.869L127.843 214.874L129.643 216.224ZM126.739 218.12L126.11 215.96C125.41 216.164 124.852 216.694 124.613 217.383C124.374 218.072 124.484 218.834 124.908 219.428L126.739 218.12ZM130.939 224V226.25C131.782 226.25 132.554 225.779 132.939 225.03C133.325 224.28 133.259 223.378 132.77 222.692L130.939 224ZM128.011 216.248L129.448 217.979C129.454 217.974 129.46 217.969 129.465 217.965L128.011 216.248ZM128.011 209.504L126.556 211.221C126.562 211.225 126.567 211.23 126.573 211.235L128.011 209.504ZM119.107 208.304V206.054C117.864 206.054 116.857 207.061 116.857 208.304H119.107ZM119.107 217.424H116.857C116.857 218.667 117.864 219.674 119.107 219.674V217.424ZM131.378 222.693L127.37 217.077L123.707 219.691L127.715 225.307L131.378 222.693ZM125.237 216.154C124.726 216.223 124.284 216.254 123.907 216.254V220.754C124.521 220.754 125.168 220.705 125.84 220.614L125.237 216.154ZM123.907 216.254H119.107V220.754H123.907V216.254ZM116.857 218.504V224H121.357V218.504H116.857ZM119.107 221.75H117.883V226.25H119.107V221.75ZM120.133 224V207.2H115.633V224H120.133ZM117.883 209.45H123.907V204.95H117.883V209.45ZM123.907 209.45C125.674 209.45 126.755 209.87 127.428 210.435L130.322 206.989C128.595 205.538 126.363 204.95 123.907 204.95V209.45ZM127.441 210.446C128.048 210.948 128.425 211.653 128.425 212.864H132.925C132.925 210.523 132.102 208.46 130.308 206.978L127.441 210.446ZM128.425 212.864C128.425 213.786 128.194 214.408 127.846 214.869L131.439 217.579C132.468 216.216 132.925 214.598 132.925 212.864H128.425ZM127.843 214.874C127.512 215.315 126.991 215.703 126.11 215.96L127.368 220.28C129.014 219.801 130.429 218.925 131.443 217.574L127.843 214.874ZM124.908 219.428L129.108 225.308L132.77 222.692L128.57 216.812L124.908 219.428ZM130.939 221.75H129.547V226.25H130.939V221.75ZM123.907 219.674C125.989 219.674 127.95 219.223 129.448 217.979L126.573 214.517C126.183 214.841 125.409 215.174 123.907 215.174V219.674ZM129.465 217.965C131.005 216.66 131.677 214.852 131.677 212.864H127.177C127.177 213.788 126.905 214.236 126.556 214.531L129.465 217.965ZM131.677 212.864C131.677 210.877 131.005 209.066 129.448 207.773L126.573 211.235C126.905 211.51 127.177 211.939 127.177 212.864H131.677ZM129.465 207.787C127.967 206.517 125.998 206.054 123.907 206.054V210.554C125.4 210.554 126.167 210.891 126.556 211.221L129.465 207.787ZM123.907 206.054H119.107V210.554H123.907V206.054ZM116.857 208.304V217.424H121.357V208.304H116.857ZM119.107 219.674H123.907V215.174H119.107V219.674ZM138.78 208.304V206.054C137.537 206.054 136.53 207.061 136.53 208.304H138.78ZM138.78 215.48H136.53C136.53 216.723 137.537 217.73 138.78 217.73V215.48ZM147.732 215.48H149.982C149.982 214.237 148.975 213.23 147.732 213.23V215.48ZM147.732 216.584V218.834C148.975 218.834 149.982 217.827 149.982 216.584H147.732ZM138.78 216.584V214.334C137.537 214.334 136.53 215.341 136.53 216.584H138.78ZM138.78 224V226.25C140.023 226.25 141.03 225.243 141.03 224H138.78ZM137.556 224H135.306C135.306 225.243 136.313 226.25 137.556 226.25V224ZM137.556 207.2V204.95C136.313 204.95 135.306 205.957 135.306 207.2H137.556ZM148.788 207.2H151.038C151.038 205.957 150.031 204.95 148.788 204.95V207.2ZM148.788 208.304V210.554C150.031 210.554 151.038 209.547 151.038 208.304H148.788ZM136.53 208.304V215.48H141.03V208.304H136.53ZM138.78 217.73H147.732V213.23H138.78V217.73ZM145.482 215.48V216.584H149.982V215.48H145.482ZM147.732 214.334H138.78V218.834H147.732V214.334ZM136.53 216.584V224H141.03V216.584H136.53ZM138.78 221.75H137.556V226.25H138.78V221.75ZM139.806 224V207.2H135.306V224H139.806ZM137.556 209.45H148.788V204.95H137.556V209.45ZM146.538 207.2V208.304H151.038V207.2H146.538ZM148.788 206.054H138.78V210.554H148.788V206.054ZM166.689 222.896H168.939C168.939 221.653 167.931 220.646 166.689 220.646V222.896ZM166.689 224V226.25C167.931 226.25 168.939 225.243 168.939 224H166.689ZM155.097 224H152.847C152.847 225.243 153.854 226.25 155.097 226.25V224ZM155.097 207.2V204.95C153.854 204.95 152.847 205.957 152.847 207.2H155.097ZM166.329 207.2H168.579C168.579 205.957 167.571 204.95 166.329 204.95V207.2ZM166.329 208.304V210.554C167.571 210.554 168.579 209.547 168.579 208.304H166.329ZM156.321 208.304V206.054C155.078 206.054 154.071 207.061 154.071 208.304H156.321ZM156.321 214.928H154.071C154.071 216.171 155.078 217.178 156.321 217.178V214.928ZM165.273 214.928H167.523C167.523 213.685 166.515 212.678 165.273 212.678V214.928ZM165.273 216.008V218.258C166.515 218.258 167.523 217.251 167.523 216.008H165.273ZM156.321 216.008V213.758C155.078 213.758 154.071 214.765 154.071 216.008H156.321ZM156.321 222.896H154.071C154.071 224.139 155.078 225.146 156.321 225.146V222.896ZM164.439 222.896V224H168.939V222.896H164.439ZM166.689 221.75H155.097V226.25H166.689V221.75ZM157.347 224V207.2H152.847V224H157.347ZM155.097 209.45H166.329V204.95H155.097V209.45ZM164.079 207.2V208.304H168.579V207.2H164.079ZM166.329 206.054H156.321V210.554H166.329V206.054ZM154.071 208.304V214.928H158.571V208.304H154.071ZM156.321 217.178H165.273V212.678H156.321V217.178ZM163.023 214.928V216.008H167.523V214.928H163.023ZM165.273 213.758H156.321V218.258H165.273V213.758ZM154.071 216.008V222.896H158.571V216.008H154.071ZM156.321 225.146H166.689V220.646H156.321V225.146ZM178.543 215.72L180.239 214.241C179.826 213.767 179.234 213.488 178.606 213.471C177.978 213.453 177.371 213.699 176.933 214.149L178.543 215.72ZM174.775 219.584L173.165 218.013C172.755 218.433 172.525 218.997 172.525 219.584H174.775ZM174.775 224V226.25C176.018 226.25 177.025 225.243 177.025 224H174.775ZM173.551 224H171.301C171.301 225.243 172.309 226.25 173.551 226.25V224ZM173.551 207.2V204.95C172.309 204.95 171.301 205.957 171.301 207.2H173.551ZM174.775 207.2H177.025C177.025 205.957 176.018 204.95 174.775 204.95V207.2ZM174.775 218H172.525C172.525 218.916 173.081 219.741 173.93 220.085C174.779 220.429 175.751 220.225 176.39 219.568L174.775 218ZM185.263 207.2V204.95C184.655 204.95 184.073 205.196 183.649 205.632L185.263 207.2ZM186.751 207.2L188.368 208.765C188.996 208.116 189.176 207.154 188.823 206.322C188.471 205.49 187.655 204.95 186.751 204.95V207.2ZM179.359 214.832L177.743 213.267C176.933 214.103 176.895 215.418 177.655 216.3L179.359 214.832ZM187.255 224V226.25C188.135 226.25 188.934 225.737 189.301 224.938C189.667 224.138 189.534 223.198 188.96 222.532L187.255 224ZM185.767 224L184.072 225.479C184.499 225.969 185.117 226.25 185.767 226.25V224ZM176.933 214.149L173.165 218.013L176.386 221.155L180.154 217.291L176.933 214.149ZM172.525 219.584V224H177.025V219.584H172.525ZM174.775 221.75H173.551V226.25H174.775V221.75ZM175.801 224V207.2H171.301V224H175.801ZM173.551 209.45H174.775V204.95H173.551V209.45ZM172.525 207.2V218H177.025V207.2H172.525ZM176.39 219.568L186.878 208.768L183.649 205.632L173.161 216.432L176.39 219.568ZM185.263 209.45H186.751V204.95H185.263V209.45ZM185.135 205.635L177.743 213.267L180.976 216.397L188.368 208.765L185.135 205.635ZM177.655 216.3L185.551 225.468L188.96 222.532L181.064 213.364L177.655 216.3ZM187.255 221.75H185.767V226.25H187.255V221.75ZM187.463 222.521L180.239 214.241L176.848 217.199L184.072 225.479L187.463 222.521ZM198.442 208.304H200.692C200.692 207.061 199.685 206.054 198.442 206.054V208.304ZM192.394 208.304H190.144C190.144 209.547 191.152 210.554 192.394 210.554V208.304ZM192.394 207.2V204.95C191.152 204.95 190.144 205.957 190.144 207.2H192.394ZM205.714 207.2H207.964C207.964 205.957 206.957 204.95 205.714 204.95V207.2ZM205.714 208.304V210.554C206.957 210.554 207.964 209.547 207.964 208.304H205.714ZM199.666 208.304V206.054C198.424 206.054 197.416 207.061 197.416 208.304H199.666ZM199.666 224V226.25C200.909 226.25 201.916 225.243 201.916 224H199.666ZM198.442 224H196.192C196.192 225.243 197.2 226.25 198.442 226.25V224ZM198.442 206.054H192.394V210.554H198.442V206.054ZM194.644 208.304V207.2H190.144V208.304H194.644ZM192.394 209.45H205.714V204.95H192.394V209.45ZM203.464 207.2V208.304H207.964V207.2H203.464ZM205.714 206.054H199.666V210.554H205.714V206.054ZM197.416 208.304V224H201.916V208.304H197.416ZM199.666 221.75H198.442V226.25H199.666V221.75ZM200.692 224V208.304H196.192V224H200.692Z" fill="white"/>
<g style="mix-blend-mode:soft-light">
<path d="M45 191.5H239" stroke="white"/>
</g>
<mask id="mask0_157_2404" style="mask-type:alpha" maskUnits="userSpaceOnUse" x="46" y="126" width="196" height="57">
<path d="M58.536 129.8C61.752 129.8 64.272 130.568 66.096 132.104C67.92 133.64 68.832 135.752 68.832 138.44C68.832 141.128 67.92 143.24 66.096 144.776C64.272 146.288 61.752 147.044 58.536 147.044H51.768V155H49.104V129.8H58.536ZM58.464 144.704C60.96 144.704 62.868 144.164 64.188 143.084C65.508 141.98 66.168 140.432 66.168 138.44C66.168 136.4 65.508 134.84 64.188 133.76C62.868 132.656 60.96 132.104 58.464 132.104H51.768V144.704H58.464ZM95.4003 155L89.6403 146.9C88.9923 146.972 88.3203 147.008 87.6243 147.008H80.8563V155H78.1923V129.8H87.6243C90.8403 129.8 93.3603 130.568 95.1843 132.104C97.0083 133.64 97.9203 135.752 97.9203 138.44C97.9203 140.408 97.4163 142.076 96.4083 143.444C95.4243 144.788 94.0083 145.76 92.1603 146.36L98.3163 155H95.4003ZM87.5523 144.74C90.0483 144.74 91.9563 144.188 93.2763 143.084C94.5963 141.98 95.2563 140.432 95.2563 138.44C95.2563 136.4 94.5963 134.84 93.2763 133.76C91.9563 132.656 90.0483 132.104 87.5523 132.104H80.8563V144.74H87.5523ZM125.628 152.696V155H107.808V129.8H125.088V132.104H110.472V141.068H123.504V143.336H110.472V152.696H125.628ZM142.438 155.216C140.566 155.216 138.766 154.916 137.038 154.316C135.334 153.716 134.014 152.924 133.078 151.94L134.122 149.888C135.034 150.8 136.246 151.544 137.758 152.12C139.27 152.672 140.83 152.948 142.438 152.948C144.694 152.948 146.386 152.54 147.514 151.724C148.642 150.884 149.206 149.804 149.206 148.484C149.206 147.476 148.894 146.672 148.27 146.072C147.67 145.472 146.926 145.016 146.038 144.704C145.15 144.368 143.914 144.008 142.33 143.624C140.434 143.144 138.922 142.688 137.794 142.256C136.666 141.8 135.694 141.116 134.878 140.204C134.086 139.292 133.69 138.056 133.69 136.496C133.69 135.224 134.026 134.072 134.698 133.04C135.37 131.984 136.402 131.144 137.794 130.52C139.186 129.896 140.914 129.584 142.978 129.584C144.418 129.584 145.822 129.788 147.19 130.196C148.582 130.58 149.782 131.12 150.79 131.816L149.89 133.94C148.834 133.244 147.706 132.728 146.506 132.392C145.306 132.032 144.13 131.852 142.978 131.852C140.77 131.852 139.102 132.284 137.974 133.148C136.87 133.988 136.318 135.08 136.318 136.424C136.318 137.432 136.618 138.248 137.218 138.872C137.842 139.472 138.61 139.94 139.522 140.276C140.458 140.588 141.706 140.936 143.266 141.32C145.114 141.776 146.602 142.232 147.73 142.688C148.882 143.12 149.854 143.792 150.646 144.704C151.438 145.592 151.834 146.804 151.834 148.34C151.834 149.612 151.486 150.776 150.79 151.832C150.118 152.864 149.074 153.692 147.658 154.316C146.242 154.916 144.502 155.216 142.438 155.216ZM179.058 152.696V155H161.238V129.8H178.518V132.104H163.902V141.068H176.934V143.336H163.902V152.696H179.058ZM209.98 129.8V155H207.784L191.584 134.552V155H188.92V129.8H191.116L207.352 150.248V129.8H209.98ZM226.702 132.104H217.846V129.8H238.222V132.104H229.366V155H226.702V132.104Z" fill="white"/>
<path d="M66.096 132.104L64.1636 134.399L66.096 132.104ZM66.096 144.776L68.0106 147.086C68.0165 147.081 68.0225 147.076 68.0284 147.071L66.096 144.776ZM51.768 147.044V144.044C50.1111 144.044 48.768 145.387 48.768 147.044H51.768ZM51.768 155V158C53.4249 158 54.768 156.657 54.768 155H51.768ZM49.104 155H46.104C46.104 156.657 47.4471 158 49.104 158V155ZM49.104 129.8V126.8C47.4471 126.8 46.104 128.143 46.104 129.8H49.104ZM64.188 143.084L66.0877 145.406C66.0961 145.399 66.1044 145.392 66.1127 145.385L64.188 143.084ZM64.188 133.76L62.2633 136.061C62.2716 136.068 62.2799 136.075 62.2883 136.082L64.188 133.76ZM51.768 132.104V129.104C50.1111 129.104 48.768 130.447 48.768 132.104H51.768ZM51.768 144.704H48.768C48.768 146.361 50.1111 147.704 51.768 147.704V144.704ZM58.536 132.8C61.2923 132.8 63.0436 133.456 64.1636 134.399L68.0284 129.809C65.5004 127.68 62.2117 126.8 58.536 126.8V132.8ZM64.1636 134.399C65.2196 135.288 65.832 136.511 65.832 138.44H71.832C71.832 134.993 70.6204 131.992 68.0284 129.809L64.1636 134.399ZM65.832 138.44C65.832 140.369 65.2196 141.592 64.1636 142.481L68.0284 147.071C70.6204 144.888 71.832 141.887 71.832 138.44H65.832ZM64.1814 142.466C63.0608 143.395 61.3026 144.044 58.536 144.044V150.044C62.2014 150.044 65.4832 149.181 68.0106 147.086L64.1814 142.466ZM58.536 144.044H51.768V150.044H58.536V144.044ZM48.768 147.044V155H54.768V147.044H48.768ZM51.768 152H49.104V158H51.768V152ZM52.104 155V129.8H46.104V155H52.104ZM49.104 132.8H58.536V126.8H49.104V132.8ZM58.464 147.704C61.3412 147.704 64.0322 147.088 66.0877 145.406L62.2883 140.762C61.7038 141.24 60.5788 141.704 58.464 141.704V147.704ZM66.1127 145.385C68.2255 143.618 69.168 141.164 69.168 138.44H63.168C63.168 139.7 62.7905 140.342 62.2633 140.783L66.1127 145.385ZM69.168 138.44C69.168 135.696 68.2425 133.201 66.0877 131.438L62.2883 136.082C62.7735 136.479 63.168 137.104 63.168 138.44H69.168ZM66.1127 131.459C64.0555 129.738 61.3542 129.104 58.464 129.104V135.104C60.5658 135.104 61.6805 135.574 62.2633 136.061L66.1127 131.459ZM58.464 129.104H51.768V135.104H58.464V129.104ZM48.768 132.104V144.704H54.768V132.104H48.768ZM51.768 147.704H58.464V141.704H51.768V147.704ZM95.4003 155L92.9554 156.739C93.5182 157.53 94.4292 158 95.4003 158V155ZM89.6403 146.9L92.0851 145.161C91.454 144.274 90.3914 143.798 89.309 143.918L89.6403 146.9ZM80.8563 147.008V144.008C79.1994 144.008 77.8563 145.351 77.8563 147.008H80.8563ZM80.8563 155V158C82.5131 158 83.8563 156.657 83.8563 155H80.8563ZM78.1923 155H75.1923C75.1923 156.657 76.5354 158 78.1923 158V155ZM78.1923 129.8V126.8C76.5354 126.8 75.1923 128.143 75.1923 129.8H78.1923ZM95.1843 132.104L93.2519 134.399L95.1843 132.104ZM96.4083 143.444L93.9931 141.664L93.9877 141.672L96.4083 143.444ZM92.1603 146.36L91.2339 143.507C90.325 143.802 89.6111 144.512 89.3115 145.419C89.012 146.327 89.1625 147.323 89.717 148.101L92.1603 146.36ZM98.3163 155V158C99.4394 158 100.468 157.373 100.983 156.374C101.497 155.376 101.411 154.174 100.76 153.259L98.3163 155ZM93.2763 143.084L95.2009 145.385L93.2763 143.084ZM93.2763 133.76L91.3516 136.061C91.3599 136.068 91.3682 136.075 91.3766 136.082L93.2763 133.76ZM80.8563 132.104V129.104C79.1994 129.104 77.8563 130.447 77.8563 132.104H80.8563ZM80.8563 144.74H77.8563C77.8563 146.397 79.1994 147.74 80.8563 147.74V144.74ZM97.8451 153.261L92.0851 145.161L87.1954 148.639L92.9554 156.739L97.8451 153.261ZM89.309 143.918C88.7781 143.977 88.217 144.008 87.6243 144.008V150.008C88.4236 150.008 89.2065 149.967 89.9716 149.882L89.309 143.918ZM87.6243 144.008H80.8563V150.008H87.6243V144.008ZM77.8563 147.008V155H83.8563V147.008H77.8563ZM80.8563 152H78.1923V158H80.8563V152ZM81.1923 155V129.8H75.1923V155H81.1923ZM78.1923 132.8H87.6243V126.8H78.1923V132.8ZM87.6243 132.8C90.3806 132.8 92.1319 133.456 93.2519 134.399L97.1167 129.809C94.5887 127.68 91.3 126.8 87.6243 126.8V132.8ZM93.2519 134.399C94.3079 135.288 94.9203 136.511 94.9203 138.44H100.92C100.92 134.993 99.7086 131.992 97.1167 129.809L93.2519 134.399ZM94.9203 138.44C94.9203 139.873 94.5633 140.891 93.9931 141.664L98.8234 145.224C100.269 143.261 100.92 140.943 100.92 138.44H94.9203ZM93.9877 141.672C93.4351 142.427 92.5856 143.068 91.2339 143.507L93.0867 149.213C95.4309 148.452 97.4135 147.149 98.8289 145.216L93.9877 141.672ZM89.717 148.101L95.873 156.741L100.76 153.259L94.6035 144.619L89.717 148.101ZM98.3163 152H95.4003V158H98.3163V152ZM87.5523 147.74C90.4425 147.74 93.1438 147.106 95.2009 145.385L91.3516 140.783C90.7688 141.27 89.654 141.74 87.5523 141.74V147.74ZM95.2009 145.385C97.3138 143.618 98.2563 141.164 98.2563 138.44H92.2563C92.2563 139.7 91.8788 140.342 91.3516 140.783L95.2009 145.385ZM98.2563 138.44C98.2563 135.696 97.3308 133.201 95.176 131.438L91.3766 136.082C91.8618 136.479 92.2563 137.104 92.2563 138.44H98.2563ZM95.2009 131.459C93.1438 129.738 90.4425 129.104 87.5523 129.104V135.104C89.654 135.104 90.7688 135.574 91.3516 136.061L95.2009 131.459ZM87.5523 129.104H80.8563V135.104H87.5523V129.104ZM77.8563 132.104V144.74H83.8563V132.104H77.8563ZM80.8563 147.74H87.5523V141.74H80.8563V147.74ZM125.628 152.696H128.628C128.628 151.039 127.285 149.696 125.628 149.696V152.696ZM125.628 155V158C127.285 158 128.628 156.657 128.628 155H125.628ZM107.808 155H104.808C104.808 156.657 106.151 158 107.808 158V155ZM107.808 129.8V126.8C106.151 126.8 104.808 128.143 104.808 129.8H107.808ZM125.088 129.8H128.088C128.088 128.143 126.745 126.8 125.088 126.8V129.8ZM125.088 132.104V135.104C126.745 135.104 128.088 133.761 128.088 132.104H125.088ZM110.472 132.104V129.104C108.815 129.104 107.472 130.447 107.472 132.104H110.472ZM110.472 141.068H107.472C107.472 142.725 108.815 144.068 110.472 144.068V141.068ZM123.504 141.068H126.504C126.504 139.411 125.161 138.068 123.504 138.068V141.068ZM123.504 143.336V146.336C125.161 146.336 126.504 144.993 126.504 143.336H123.504ZM110.472 143.336V140.336C108.815 140.336 107.472 141.679 107.472 143.336H110.472ZM110.472 152.696H107.472C107.472 154.353 108.815 155.696 110.472 155.696V152.696ZM122.628 152.696V155H128.628V152.696H122.628ZM125.628 152H107.808V158H125.628V152ZM110.808 155V129.8H104.808V155H110.808ZM107.808 132.8H125.088V126.8H107.808V132.8ZM122.088 129.8V132.104H128.088V129.8H122.088ZM125.088 129.104H110.472V135.104H125.088V129.104ZM107.472 132.104V141.068H113.472V132.104H107.472ZM110.472 144.068H123.504V138.068H110.472V144.068ZM120.504 141.068V143.336H126.504V141.068H120.504ZM123.504 140.336H110.472V146.336H123.504V140.336ZM107.472 143.336V152.696H113.472V143.336H107.472ZM110.472 155.696H125.628V149.696H110.472V155.696ZM137.038 154.316L136.042 157.146L136.054 157.15L137.038 154.316ZM133.078 151.94L130.404 150.58C129.828 151.713 130.028 153.086 130.904 154.008L133.078 151.94ZM134.122 149.888L136.243 147.767C135.564 147.087 134.601 146.775 133.652 146.925C132.703 147.076 131.884 147.671 131.448 148.528L134.122 149.888ZM137.758 152.12L136.69 154.923C136.703 154.928 136.716 154.933 136.729 154.938L137.758 152.12ZM147.514 151.724L149.272 154.155C149.284 154.147 149.295 154.138 149.306 154.13L147.514 151.724ZM148.27 146.072L146.149 148.193C146.162 148.207 146.176 148.221 146.191 148.234L148.27 146.072ZM146.038 144.704L144.976 147.51C144.999 147.518 145.021 147.526 145.043 147.534L146.038 144.704ZM142.33 143.624L141.594 146.532C141.603 146.535 141.613 146.537 141.623 146.54L142.33 143.624ZM137.794 142.256L136.67 145.037C136.687 145.044 136.704 145.051 136.721 145.058L137.794 142.256ZM134.878 140.204L132.613 142.171C132.623 142.182 132.632 142.193 132.642 142.204L134.878 140.204ZM134.698 133.04L137.212 134.677C137.218 134.668 137.223 134.659 137.229 134.651L134.698 133.04ZM137.794 130.52L139.021 133.258L137.794 130.52ZM147.19 130.196L146.333 133.071C146.352 133.077 146.372 133.082 146.392 133.088L147.19 130.196ZM150.79 131.816L153.552 132.986C154.107 131.676 153.666 130.156 152.495 129.347L150.79 131.816ZM149.89 133.94L148.239 136.445C148.983 136.935 149.906 137.069 150.758 136.812C151.611 136.554 152.305 135.931 152.652 135.11L149.89 133.94ZM146.506 132.392L145.644 135.265C145.662 135.271 145.679 135.276 145.697 135.281L146.506 132.392ZM137.974 133.148L139.791 135.535L139.798 135.53L137.974 133.148ZM137.218 138.872L135.055 140.951C135.083 140.98 135.11 141.007 135.139 141.034L137.218 138.872ZM139.522 140.276L138.485 143.091C138.514 143.102 138.544 143.112 138.573 143.122L139.522 140.276ZM143.266 141.32L143.985 138.407H143.983L143.266 141.32ZM147.73 142.688L146.606 145.469C146.629 145.479 146.653 145.488 146.677 145.497L147.73 142.688ZM150.646 144.704L148.381 146.671C148.39 146.681 148.398 146.691 148.407 146.701L150.646 144.704ZM150.79 151.832L148.285 150.181C148.282 150.186 148.279 150.19 148.276 150.195L150.79 151.832ZM147.658 154.316L148.828 157.078C148.842 157.073 148.855 157.067 148.868 157.061L147.658 154.316ZM142.438 152.216C140.893 152.216 139.426 151.97 138.022 151.482L136.054 157.15C138.106 157.862 140.239 158.216 142.438 158.216V152.216ZM138.034 151.486C136.636 150.994 135.771 150.419 135.252 149.872L130.904 154.008C132.257 155.429 134.032 156.438 136.042 157.146L138.034 151.486ZM135.752 153.3L136.796 151.248L131.448 148.528L130.404 150.58L135.752 153.3ZM132.001 152.009C133.278 153.286 134.88 154.234 136.69 154.923L138.826 149.317C137.612 148.854 136.79 148.314 136.243 147.767L132.001 152.009ZM136.729 154.938C138.57 155.61 140.479 155.948 142.438 155.948V149.948C141.181 149.948 139.969 149.734 138.787 149.302L136.729 154.938ZM142.438 155.948C144.966 155.948 147.403 155.507 149.272 154.155L145.756 149.293C145.369 149.573 144.422 149.948 142.438 149.948V155.948ZM149.306 154.13C151.136 152.767 152.206 150.822 152.206 148.484H146.206C146.206 148.786 146.148 149.001 145.722 149.318L149.306 154.13ZM152.206 148.484C152.206 146.806 151.659 145.169 150.349 143.909L146.191 148.234C146.194 148.238 146.19 148.234 146.183 148.224C146.177 148.214 146.174 148.208 146.175 148.21C146.176 148.213 146.206 148.29 146.206 148.484H152.206ZM150.391 143.951C149.44 143 148.298 142.318 147.032 141.874L145.043 147.534C145.554 147.714 145.9 147.944 146.149 148.193L150.391 143.951ZM147.1 141.898C146.042 141.498 144.669 141.104 143.037 140.708L141.623 146.54C143.159 146.912 144.257 147.238 144.976 147.51L147.1 141.898ZM143.066 140.716C141.224 140.249 139.839 139.827 138.867 139.454L136.721 145.058C138.005 145.549 139.644 146.039 141.594 146.532L143.066 140.716ZM138.918 139.475C138.218 139.192 137.626 138.776 137.114 138.204L132.642 142.204C133.762 143.456 135.114 144.408 136.67 145.037L138.918 139.475ZM137.143 138.237C136.949 138.014 136.69 137.549 136.69 136.496H130.69C130.69 138.563 131.222 140.57 132.613 142.171L137.143 138.237ZM136.69 136.496C136.69 135.785 136.868 135.205 137.212 134.677L132.184 131.403C131.184 132.939 130.69 134.663 130.69 136.496H136.69ZM137.229 134.651C137.523 134.189 138.046 133.694 139.021 133.258L136.567 127.782C134.757 128.594 133.217 129.779 132.167 131.429L137.229 134.651ZM139.021 133.258C139.916 132.856 141.196 132.584 142.978 132.584V126.584C140.632 126.584 138.455 126.936 136.567 127.782L139.021 133.258ZM142.978 132.584C144.13 132.584 145.245 132.747 146.333 133.071L148.047 127.321C146.399 126.829 144.706 126.584 142.978 126.584V132.584ZM146.392 133.088C147.517 133.398 148.398 133.81 149.085 134.285L152.495 129.347C151.166 128.43 149.647 127.762 147.988 127.304L146.392 133.088ZM148.028 130.646L147.128 132.77L152.652 135.11L153.552 132.986L148.028 130.646ZM151.541 131.435C150.23 130.571 148.818 129.924 147.315 129.503L145.697 135.281C146.594 135.532 147.438 135.917 148.239 136.445L151.541 131.435ZM147.368 129.519C145.913 129.082 144.446 128.852 142.978 128.852V134.852C143.814 134.852 144.699 134.982 145.644 135.265L147.368 129.519ZM142.978 128.852C140.454 128.852 138.021 129.333 136.15 130.766L139.798 135.53C140.183 135.235 141.086 134.852 142.978 134.852V128.852ZM136.157 130.761C134.336 132.146 133.318 134.108 133.318 136.424H139.318C139.318 136.052 139.404 135.83 139.791 135.535L136.157 130.761ZM133.318 136.424C133.318 138.07 133.83 139.677 135.055 140.951L139.38 136.793C139.369 136.781 139.366 136.777 139.359 136.757C139.348 136.729 139.318 136.63 139.318 136.424H133.318ZM135.139 141.034C136.096 141.955 137.232 142.629 138.485 143.091L140.559 137.461C139.988 137.251 139.588 136.989 139.297 136.71L135.139 141.034ZM138.573 143.122C139.618 143.47 140.953 143.84 142.549 144.233L143.983 138.407C142.459 138.032 141.298 137.706 140.471 137.43L138.573 143.122ZM142.547 144.233C144.325 144.671 145.661 145.088 146.606 145.469L148.854 139.907C147.542 139.376 145.903 138.881 143.985 138.407L142.547 144.233ZM146.677 145.497C147.37 145.757 147.923 146.143 148.381 146.671L152.911 142.737C151.785 141.441 150.394 140.483 148.783 139.879L146.677 145.497ZM148.407 146.701C148.58 146.895 148.834 147.32 148.834 148.34H154.834C154.834 146.288 154.296 144.289 152.885 142.707L148.407 146.701ZM148.834 148.34C148.834 149.029 148.656 149.618 148.285 150.181L153.295 153.483C154.316 151.934 154.834 150.195 154.834 148.34H148.834ZM148.276 150.195C147.994 150.627 147.468 151.122 146.448 151.571L148.868 157.061C150.68 156.262 152.241 155.101 153.304 153.469L148.276 150.195ZM146.487 151.554C145.545 151.953 144.23 152.216 142.438 152.216V158.216C144.774 158.216 146.939 157.879 148.828 157.078L146.487 151.554ZM179.058 152.696H182.058C182.058 151.039 180.715 149.696 179.058 149.696V152.696ZM179.058 155V158C180.715 158 182.058 156.657 182.058 155H179.058ZM161.238 155H158.238C158.238 156.657 159.582 158 161.238 158V155ZM161.238 129.8V126.8C159.582 126.8 158.238 128.143 158.238 129.8H161.238ZM178.518 129.8H181.518C181.518 128.143 180.175 126.8 178.518 126.8V129.8ZM178.518 132.104V135.104C180.175 135.104 181.518 133.761 181.518 132.104H178.518ZM163.902 132.104V129.104C162.246 129.104 160.902 130.447 160.902 132.104H163.902ZM163.902 141.068H160.902C160.902 142.725 162.246 144.068 163.902 144.068V141.068ZM176.934 141.068H179.934C179.934 139.411 178.591 138.068 176.934 138.068V141.068ZM176.934 143.336V146.336C178.591 146.336 179.934 144.993 179.934 143.336H176.934ZM163.902 143.336V140.336C162.246 140.336 160.902 141.679 160.902 143.336H163.902ZM163.902 152.696H160.902C160.902 154.353 162.246 155.696 163.902 155.696V152.696ZM176.058 152.696V155H182.058V152.696H176.058ZM179.058 152H161.238V158H179.058V152ZM164.238 155V129.8H158.238V155H164.238ZM161.238 132.8H178.518V126.8H161.238V132.8ZM175.518 129.8V132.104H181.518V129.8H175.518ZM178.518 129.104H163.902V135.104H178.518V129.104ZM160.902 132.104V141.068H166.902V132.104H160.902ZM163.902 144.068H176.934V138.068H163.902V144.068ZM173.934 141.068V143.336H179.934V141.068H173.934ZM176.934 140.336H163.902V146.336H176.934V140.336ZM160.902 143.336V152.696H166.902V143.336H160.902ZM163.902 155.696H179.058V149.696H163.902V155.696ZM209.98 129.8H212.98C212.98 128.143 211.637 126.8 209.98 126.8V129.8ZM209.98 155V158C211.637 158 212.98 156.657 212.98 155H209.98ZM207.784 155L205.433 156.863C206.002 157.581 206.868 158 207.784 158V155ZM191.584 134.552L193.936 132.689C193.143 131.688 191.804 131.299 190.598 131.719C189.392 132.138 188.584 133.275 188.584 134.552H191.584ZM191.584 155V158C193.241 158 194.584 156.657 194.584 155H191.584ZM188.92 155H185.92C185.92 156.657 187.264 158 188.92 158V155ZM188.92 129.8V126.8C187.264 126.8 185.92 128.143 185.92 129.8H188.92ZM191.116 129.8L193.466 127.935C192.897 127.218 192.032 126.8 191.116 126.8V129.8ZM207.352 150.248L205.003 152.113C205.796 153.113 207.135 153.501 208.34 153.081C209.545 152.661 210.352 151.524 210.352 150.248H207.352ZM207.352 129.8V126.8C205.696 126.8 204.352 128.143 204.352 129.8H207.352ZM206.98 129.8V155H212.98V129.8H206.98ZM209.98 152H207.784V158H209.98V152ZM210.136 153.137L193.936 132.689L189.233 136.415L205.433 156.863L210.136 153.137ZM188.584 134.552V155H194.584V134.552H188.584ZM191.584 152H188.92V158H191.584V152ZM191.92 155V129.8H185.92V155H191.92ZM188.92 132.8H191.116V126.8H188.92V132.8ZM188.767 131.665L205.003 152.113L209.702 148.383L193.466 127.935L188.767 131.665ZM210.352 150.248V129.8H204.352V150.248H210.352ZM207.352 132.8H209.98V126.8H207.352V132.8ZM226.702 132.104H229.702C229.702 130.447 228.358 129.104 226.702 129.104V132.104ZM217.846 132.104H214.846C214.846 133.761 216.189 135.104 217.846 135.104V132.104ZM217.846 129.8V126.8C216.189 126.8 214.846 128.143 214.846 129.8H217.846ZM238.222 129.8H241.222C241.222 128.143 239.878 126.8 238.222 126.8V129.8ZM238.222 132.104V135.104C239.878 135.104 241.222 133.761 241.222 132.104H238.222ZM229.366 132.104V129.104C227.709 129.104 226.366 130.447 226.366 132.104H229.366ZM229.366 155V158C231.022 158 232.366 156.657 232.366 155H229.366ZM226.702 155H223.702C223.702 156.657 225.045 158 226.702 158V155ZM226.702 129.104H217.846V135.104H226.702V129.104ZM220.846 132.104V129.8H214.846V132.104H220.846ZM217.846 132.8H238.222V126.8H217.846V132.8ZM235.222 129.8V132.104H241.222V129.8H235.222ZM238.222 129.104H229.366V135.104H238.222V129.104ZM226.366 132.104V155H232.366V132.104H226.366ZM229.366 152H226.702V158H229.366V152ZM229.702 155V132.104H223.702V155H229.702Z" fill="white"/>
<path d="M54.5914 166C56.3114 166 57.6581 166.407 58.6314 167.22C59.6047 168.02 60.0914 169.147 60.0914 170.6C60.0914 172.053 59.6047 173.187 58.6314 174C57.6581 174.8 56.3114 175.2 54.5914 175.2H50.2514V180H49.8514V166H54.5914ZM54.6314 174.82C56.2581 174.82 57.5047 174.453 58.3714 173.72C59.2514 172.987 59.6914 171.947 59.6914 170.6C59.6914 169.253 59.2514 168.213 58.3714 167.48C57.5047 166.747 56.2581 166.38 54.6314 166.38H50.2514V174.82H54.6314ZM75.1753 179.62V180H65.8553V166H74.8753V166.38H66.2553V172.7H73.9753V173.08H66.2553V179.62H75.1753ZM91.1547 180L87.5947 175.06C87.128 175.153 86.5814 175.2 85.9547 175.2H81.6147V180H81.2147V166H85.9547C87.6747 166 89.0214 166.407 89.9947 167.22C90.968 168.02 91.4547 169.147 91.4547 170.6C91.4547 171.72 91.1547 172.66 90.5547 173.42C89.9547 174.167 89.108 174.68 88.0147 174.96L91.6547 180H91.1547ZM85.9947 174.82C87.6214 174.82 88.868 174.453 89.7347 173.72C90.6147 172.987 91.0547 171.947 91.0547 170.6C91.0547 169.253 90.6147 168.213 89.7347 167.48C88.868 166.747 87.6214 166.38 85.9947 166.38H81.6147V174.82H85.9947ZM97.9311 166.38V173.1H105.651V173.48H97.9311V180H97.5311V166H106.551V166.38H97.9311ZM121.429 179.62V180H112.109V166H121.129V166.38H112.509V172.7H120.229V173.08H112.509V179.62H121.429ZM133.169 180.06C131.822 180.06 130.602 179.753 129.509 179.14C128.415 178.527 127.555 177.687 126.929 176.62C126.302 175.54 125.989 174.333 125.989 173C125.989 171.667 126.302 170.467 126.929 169.4C127.555 168.32 128.415 167.473 129.509 166.86C130.602 166.247 131.822 165.94 133.169 165.94C134.115 165.94 134.995 166.093 135.809 166.4C136.635 166.693 137.342 167.133 137.929 167.72L137.689 168C136.515 166.88 135.009 166.32 133.169 166.32C131.902 166.32 130.749 166.613 129.709 167.2C128.682 167.787 127.869 168.593 127.269 169.62C126.682 170.633 126.389 171.76 126.389 173C126.389 174.24 126.682 175.373 127.269 176.4C127.869 177.413 128.682 178.213 129.709 178.8C130.749 179.387 131.902 179.68 133.169 179.68C134.995 179.68 136.502 179.113 137.689 177.98L137.929 178.26C137.342 178.847 136.635 179.293 135.809 179.6C134.982 179.907 134.102 180.06 133.169 180.06ZM148.307 166.38H143.107V166H153.907V166.38H148.707V180H148.307V166.38ZM168.264 166.38H163.064V166H173.864V166.38H168.664V180H168.264V166.38ZM187.921 179.62V180H178.601V166H187.621V166.38H179.001V172.7H186.721V173.08H179.001V179.62H187.921ZM204.961 166V180H204.621L194.361 166.74V180H193.961V166H194.301L204.561 179.26V166H204.961ZM215.709 180.06C214.696 180.06 213.742 179.88 212.849 179.52C211.956 179.147 211.269 178.667 210.789 178.08L211.069 177.82C211.522 178.353 212.169 178.8 213.009 179.16C213.849 179.507 214.742 179.68 215.689 179.68C217.142 179.68 218.236 179.393 218.969 178.82C219.716 178.233 220.089 177.48 220.089 176.56C220.089 175.84 219.896 175.267 219.509 174.84C219.122 174.413 218.642 174.093 218.069 173.88C217.509 173.667 216.749 173.447 215.789 173.22C214.762 172.967 213.949 172.727 213.349 172.5C212.749 172.26 212.236 171.9 211.809 171.42C211.396 170.927 211.189 170.273 211.189 169.46C211.189 168.82 211.356 168.233 211.689 167.7C212.022 167.167 212.542 166.74 213.249 166.42C213.956 166.1 214.829 165.94 215.869 165.94C216.616 165.94 217.349 166.06 218.069 166.3C218.789 166.527 219.409 166.833 219.929 167.22L219.709 167.54C219.162 167.14 218.549 166.84 217.869 166.64C217.202 166.427 216.542 166.32 215.889 166.32C214.489 166.32 213.422 166.62 212.689 167.22C211.956 167.807 211.589 168.56 211.589 169.48C211.589 170.2 211.782 170.78 212.169 171.22C212.556 171.647 213.036 171.967 213.609 172.18C214.182 172.393 214.956 172.62 215.929 172.86C216.942 173.113 217.749 173.36 218.349 173.6C218.949 173.827 219.456 174.18 219.869 174.66C220.282 175.127 220.489 175.76 220.489 176.56C220.489 177.2 220.316 177.787 219.969 178.32C219.622 178.853 219.089 179.28 218.369 179.6C217.662 179.907 216.776 180.06 215.709 180.06ZM235.621 179.62V180H226.301V166H235.321V166.38H226.701V172.7H234.421V173.08H226.701V179.62H235.621Z" fill="white"/>
<path d="M58.6314 167.22L57.349 168.755C57.3531 168.758 57.3573 168.762 57.3615 168.765L58.6314 167.22ZM58.6314 174L59.9013 175.545C59.9055 175.542 59.9097 175.538 59.9138 175.535L58.6314 174ZM50.2514 175.2V173.2C49.1468 173.2 48.2514 174.095 48.2514 175.2H50.2514ZM50.2514 180V182C51.356 182 52.2514 181.105 52.2514 180H50.2514ZM49.8514 180H47.8514C47.8514 181.105 48.7468 182 49.8514 182V180ZM49.8514 166V164C48.7468 164 47.8514 164.895 47.8514 166H49.8514ZM58.3714 173.72L57.091 172.184C57.0872 172.187 57.0833 172.19 57.0795 172.193L58.3714 173.72ZM58.3714 167.48L57.0795 169.007C57.0833 169.01 57.0872 169.013 57.091 169.016L58.3714 167.48ZM50.2514 166.38V164.38C49.1468 164.38 48.2514 165.275 48.2514 166.38H50.2514ZM50.2514 174.82H48.2514C48.2514 175.925 49.1468 176.82 50.2514 176.82V174.82ZM54.5914 168C56.0096 168 56.8455 168.334 57.349 168.755L59.9138 165.685C58.4706 164.479 56.6132 164 54.5914 164V168ZM57.3615 168.765C57.7986 169.124 58.0914 169.642 58.0914 170.6H62.0914C62.0914 168.651 61.4109 166.916 59.9013 165.675L57.3615 168.765ZM58.0914 170.6C58.0914 171.557 57.7983 172.09 57.349 172.465L59.9138 175.535C61.4112 174.283 62.0914 172.549 62.0914 170.6H58.0914ZM57.3615 172.455C56.8575 172.869 56.0167 173.2 54.5914 173.2V177.2C56.6061 177.2 58.4586 176.731 59.9013 175.545L57.3615 172.455ZM54.5914 173.2H50.2514V177.2H54.5914V173.2ZM48.2514 175.2V180H52.2514V175.2H48.2514ZM50.2514 178H49.8514V182H50.2514V178ZM51.8514 180V166H47.8514V180H51.8514ZM49.8514 168H54.5914V164H49.8514V168ZM54.6314 176.82C56.53 176.82 58.3071 176.394 59.6633 175.247L57.0795 172.193C56.7024 172.512 55.9861 172.82 54.6314 172.82V176.82ZM59.6518 175.256C61.0698 174.075 61.6914 172.424 61.6914 170.6H57.6914C57.6914 171.469 57.433 171.899 57.091 172.184L59.6518 175.256ZM61.6914 170.6C61.6914 168.776 61.0698 167.125 59.6518 165.944L57.091 169.016C57.433 169.301 57.6914 169.731 57.6914 170.6H61.6914ZM59.6633 165.953C58.3071 164.806 56.53 164.38 54.6314 164.38V168.38C55.9861 168.38 56.7024 168.688 57.0795 169.007L59.6633 165.953ZM54.6314 164.38H50.2514V168.38H54.6314V164.38ZM48.2514 166.38V174.82H52.2514V166.38H48.2514ZM50.2514 176.82H54.6314V172.82H50.2514V176.82ZM75.1753 179.62H77.1753C77.1753 178.515 76.2799 177.62 75.1753 177.62V179.62ZM75.1753 180V182C76.2799 182 77.1753 181.105 77.1753 180H75.1753ZM65.8553 180H63.8553C63.8553 181.105 64.7507 182 65.8553 182V180ZM65.8553 166V164C64.7507 164 63.8553 164.895 63.8553 166H65.8553ZM74.8753 166H76.8753C76.8753 164.895 75.9799 164 74.8753 164V166ZM74.8753 166.38V168.38C75.9799 168.38 76.8753 167.485 76.8753 166.38H74.8753ZM66.2553 166.38V164.38C65.1507 164.38 64.2553 165.275 64.2553 166.38H66.2553ZM66.2553 172.7H64.2553C64.2553 173.805 65.1507 174.7 66.2553 174.7V172.7ZM73.9753 172.7H75.9753C75.9753 171.595 75.0799 170.7 73.9753 170.7V172.7ZM73.9753 173.08V175.08C75.0799 175.08 75.9753 174.185 75.9753 173.08H73.9753ZM66.2553 173.08V171.08C65.1507 171.08 64.2553 171.975 64.2553 173.08H66.2553ZM66.2553 179.62H64.2553C64.2553 180.725 65.1507 181.62 66.2553 181.62V179.62ZM73.1753 179.62V180H77.1753V179.62H73.1753ZM75.1753 178H65.8553V182H75.1753V178ZM67.8553 180V166H63.8553V180H67.8553ZM65.8553 168H74.8753V164H65.8553V168ZM72.8753 166V166.38H76.8753V166H72.8753ZM74.8753 164.38H66.2553V168.38H74.8753V164.38ZM64.2553 166.38V172.7H68.2553V166.38H64.2553ZM66.2553 174.7H73.9753V170.7H66.2553V174.7ZM71.9753 172.7V173.08H75.9753V172.7H71.9753ZM73.9753 171.08H66.2553V175.08H73.9753V171.08ZM64.2553 173.08V179.62H68.2553V173.08H64.2553ZM66.2553 181.62H75.1753V177.62H66.2553V181.62ZM91.1547 180L89.5321 181.169C89.908 181.691 90.5117 182 91.1547 182V180ZM87.5947 175.06L89.2173 173.891C88.7589 173.255 87.9712 172.945 87.2025 173.099L87.5947 175.06ZM81.6147 175.2V173.2C80.5101 173.2 79.6147 174.095 79.6147 175.2H81.6147ZM81.6147 180V182C82.7193 182 83.6147 181.105 83.6147 180H81.6147ZM81.2147 180H79.2147C79.2147 181.105 80.1101 182 81.2147 182V180ZM81.2147 166V164C80.1101 164 79.2147 164.895 79.2147 166H81.2147ZM89.9947 167.22L88.7123 168.755C88.7164 168.758 88.7206 168.762 88.7248 168.765L89.9947 167.22ZM90.5547 173.42L92.1137 174.673C92.1173 174.668 92.1209 174.664 92.1245 174.659L90.5547 173.42ZM88.0147 174.96L87.5185 173.023C86.8776 173.187 86.3593 173.657 86.1341 174.279C85.9089 174.901 86.006 175.595 86.3933 176.131L88.0147 174.96ZM91.6547 180V182C92.4057 182 93.0935 181.579 93.4354 180.911C93.7773 180.242 93.7158 179.438 93.276 178.829L91.6547 180ZM89.7347 173.72L88.4543 172.184C88.4505 172.187 88.4466 172.19 88.4428 172.193L89.7347 173.72ZM89.7347 167.48L88.4428 169.007C88.4466 169.01 88.4505 169.013 88.4543 169.016L89.7347 167.48ZM81.6147 166.38V164.38C80.5101 164.38 79.6147 165.275 79.6147 166.38H81.6147ZM81.6147 174.82H79.6147C79.6147 175.925 80.5101 176.82 81.6147 176.82V174.82ZM92.7773 178.831L89.2173 173.891L85.9721 176.229L89.5321 181.169L92.7773 178.831ZM87.2025 173.099C86.8981 173.16 86.4884 173.2 85.9547 173.2V177.2C86.6743 177.2 87.358 177.147 87.9869 177.021L87.2025 173.099ZM85.9547 173.2H81.6147V177.2H85.9547V173.2ZM79.6147 175.2V180H83.6147V175.2H79.6147ZM81.6147 178H81.2147V182H81.6147V178ZM83.2147 180V166H79.2147V180H83.2147ZM81.2147 168H85.9547V164H81.2147V168ZM85.9547 168C87.3729 168 88.2088 168.334 88.7123 168.755L91.2771 165.685C89.8339 164.479 87.9765 164 85.9547 164V168ZM88.7248 168.765C89.1619 169.124 89.4547 169.642 89.4547 170.6H93.4547C93.4547 168.651 92.7741 166.916 91.2646 165.675L88.7248 168.765ZM89.4547 170.6C89.4547 171.344 89.2638 171.828 88.9849 172.181L92.1245 174.659C93.0456 173.492 93.4547 172.096 93.4547 170.6H89.4547ZM88.9957 172.167C88.7126 172.519 88.2701 172.83 87.5185 173.023L88.5109 176.897C89.946 176.53 91.1968 175.814 92.1137 174.673L88.9957 172.167ZM86.3933 176.131L90.0333 181.171L93.276 178.829L89.636 173.789L86.3933 176.131ZM91.6547 178H91.1547V182H91.6547V178ZM85.9947 176.82C87.8933 176.82 89.6703 176.394 91.0266 175.247L88.4428 172.193C88.0657 172.512 87.3494 172.82 85.9947 172.82V176.82ZM91.0151 175.256C92.4331 174.075 93.0547 172.424 93.0547 170.6H89.0547C89.0547 171.469 88.7963 171.899 88.4543 172.184L91.0151 175.256ZM93.0547 170.6C93.0547 168.776 92.4331 167.125 91.0151 165.944L88.4543 169.016C88.7963 169.301 89.0547 169.731 89.0547 170.6H93.0547ZM91.0266 165.953C89.6703 164.806 87.8933 164.38 85.9947 164.38V168.38C87.3494 168.38 88.0657 168.688 88.4428 169.007L91.0266 165.953ZM85.9947 164.38H81.6147V168.38H85.9947V164.38ZM79.6147 166.38V174.82H83.6147V166.38H79.6147ZM81.6147 176.82H85.9947V172.82H81.6147V176.82ZM97.9311 166.38V164.38C96.8265 164.38 95.9311 165.275 95.9311 166.38H97.9311ZM97.9311 173.1H95.9311C95.9311 174.205 96.8265 175.1 97.9311 175.1V173.1ZM105.651 173.1H107.651C107.651 171.995 106.756 171.1 105.651 171.1V173.1ZM105.651 173.48V175.48C106.756 175.48 107.651 174.585 107.651 173.48H105.651ZM97.9311 173.48V171.48C96.8265 171.48 95.9311 172.375 95.9311 173.48H97.9311ZM97.9311 180V182C99.0357 182 99.9311 181.105 99.9311 180H97.9311ZM97.5311 180H95.5311C95.5311 181.105 96.4265 182 97.5311 182V180ZM97.5311 166V164C96.4265 164 95.5311 164.895 95.5311 166H97.5311ZM106.551 166H108.551C108.551 164.895 107.656 164 106.551 164V166ZM106.551 166.38V168.38C107.656 168.38 108.551 167.485 108.551 166.38H106.551ZM95.9311 166.38V173.1H99.9311V166.38H95.9311ZM97.9311 175.1H105.651V171.1H97.9311V175.1ZM103.651 173.1V173.48H107.651V173.1H103.651ZM105.651 171.48H97.9311V175.48H105.651V171.48ZM95.9311 173.48V180H99.9311V173.48H95.9311ZM97.9311 178H97.5311V182H97.9311V178ZM99.5311 180V166H95.5311V180H99.5311ZM97.5311 168H106.551V164H97.5311V168ZM104.551 166V166.38H108.551V166H104.551ZM106.551 164.38H97.9311V168.38H106.551V164.38ZM121.429 179.62H123.429C123.429 178.515 122.534 177.62 121.429 177.62V179.62ZM121.429 180V182C122.534 182 123.429 181.105 123.429 180H121.429ZM112.109 180H110.109C110.109 181.105 111.005 182 112.109 182V180ZM112.109 166V164C111.005 164 110.109 164.895 110.109 166H112.109ZM121.129 166H123.129C123.129 164.895 122.234 164 121.129 164V166ZM121.129 166.38V168.38C122.234 168.38 123.129 167.485 123.129 166.38H121.129ZM112.509 166.38V164.38C111.405 164.38 110.509 165.275 110.509 166.38H112.509ZM112.509 172.7H110.509C110.509 173.805 111.405 174.7 112.509 174.7V172.7ZM120.229 172.7H122.229C122.229 171.595 121.334 170.7 120.229 170.7V172.7ZM120.229 173.08V175.08C121.334 175.08 122.229 174.185 122.229 173.08H120.229ZM112.509 173.08V171.08C111.405 171.08 110.509 171.975 110.509 173.08H112.509ZM112.509 179.62H110.509C110.509 180.725 111.405 181.62 112.509 181.62V179.62ZM119.429 179.62V180H123.429V179.62H119.429ZM121.429 178H112.109V182H121.429V178ZM114.109 180V166H110.109V180H114.109ZM112.109 168H121.129V164H112.109V168ZM119.129 166V166.38H123.129V166H119.129ZM121.129 164.38H112.509V168.38H121.129V164.38ZM110.509 166.38V172.7H114.509V166.38H110.509ZM112.509 174.7H120.229V170.7H112.509V174.7ZM118.229 172.7V173.08H122.229V172.7H118.229ZM120.229 171.08H112.509V175.08H120.229V171.08ZM110.509 173.08V179.62H114.509V173.08H110.509ZM112.509 181.62H121.429V177.62H112.509V181.62ZM129.509 179.14L130.487 177.396L129.509 179.14ZM126.929 176.62L125.199 177.624L125.204 177.633L126.929 176.62ZM126.929 169.4L128.653 170.413L128.658 170.404L126.929 169.4ZM129.509 166.86L130.487 168.604L129.509 166.86ZM135.809 166.4L135.103 168.271C135.115 168.276 135.127 168.28 135.14 168.285L135.809 166.4ZM137.929 167.72L139.447 169.022C140.127 168.228 140.082 167.045 139.343 166.306L137.929 167.72ZM137.689 168L136.308 169.447C136.705 169.826 137.24 170.025 137.789 169.997C138.337 169.97 138.85 169.718 139.207 169.302L137.689 168ZM129.709 167.2L128.726 165.458L128.716 165.464L129.709 167.2ZM127.269 169.62L125.542 168.611L125.538 168.618L127.269 169.62ZM127.269 176.4L125.532 177.392C125.537 177.401 125.542 177.41 125.548 177.419L127.269 176.4ZM129.709 178.8L128.716 180.537L128.726 180.542L129.709 178.8ZM137.689 177.98L139.207 176.678C138.85 176.262 138.337 176.01 137.788 175.982C137.24 175.955 136.704 176.154 136.307 176.534L137.689 177.98ZM137.929 178.26L139.343 179.674C140.082 178.935 140.127 177.752 139.447 176.958L137.929 178.26ZM135.809 179.6L135.113 177.725L135.809 179.6ZM133.169 178.06C132.138 178.06 131.259 177.829 130.487 177.396L128.53 180.884C129.944 181.678 131.505 182.06 133.169 182.06V178.06ZM130.487 177.396C129.698 176.953 129.098 176.364 128.653 175.607L125.204 177.633C126.013 179.01 127.132 180.1 128.53 180.884L130.487 177.396ZM128.658 175.616C128.221 174.862 127.989 174.006 127.989 173H123.989C123.989 174.661 124.383 176.218 125.199 177.624L128.658 175.616ZM127.989 173C127.989 171.994 128.221 171.149 128.653 170.413L125.204 168.387C124.383 169.785 123.989 171.339 123.989 173H127.989ZM128.658 170.404C129.105 169.635 129.705 169.043 130.487 168.604L128.53 165.116C127.126 165.903 126.006 167.005 125.199 168.396L128.658 170.404ZM130.487 168.604C131.259 168.171 132.138 167.94 133.169 167.94V163.94C131.505 163.94 129.944 164.322 128.53 165.116L130.487 168.604ZM133.169 167.94C133.896 167.94 134.534 168.057 135.103 168.271L136.514 164.529C135.456 164.13 134.335 163.94 133.169 163.94V167.94ZM135.14 168.285C135.702 168.485 136.15 168.77 136.514 169.134L139.343 166.306C138.534 165.497 137.568 164.902 136.477 164.515L135.14 168.285ZM136.41 166.418L136.17 166.698L139.207 169.302L139.447 169.022L136.41 166.418ZM139.07 166.553C137.473 165.03 135.448 164.32 133.169 164.32V168.32C134.569 168.32 135.557 168.73 136.308 169.447L139.07 166.553ZM133.169 164.32C131.579 164.32 130.084 164.692 128.726 165.458L130.691 168.942C131.413 168.535 132.225 168.32 133.169 168.32V164.32ZM128.716 165.464C127.384 166.225 126.318 167.283 125.542 168.611L128.995 170.629C129.42 169.903 129.98 169.348 130.701 168.936L128.716 165.464ZM125.538 168.618C124.764 169.954 124.389 171.43 124.389 173H128.389C128.389 172.09 128.6 171.313 128.999 170.622L125.538 168.618ZM124.389 173C124.389 174.57 124.764 176.048 125.532 177.392L129.005 175.408C128.6 174.698 128.389 173.91 128.389 173H124.389ZM125.548 177.419C126.325 178.732 127.39 179.779 128.716 180.536L130.701 177.064C129.974 176.648 129.412 176.095 128.99 175.381L125.548 177.419ZM128.726 180.542C130.084 181.308 131.579 181.68 133.169 181.68V177.68C132.225 177.68 131.413 177.465 130.691 177.058L128.726 180.542ZM133.169 181.68C135.446 181.68 137.468 180.956 139.07 179.426L136.307 176.534C135.536 177.27 134.544 177.68 133.169 177.68V181.68ZM136.17 179.282L136.41 179.562L139.447 176.958L139.207 176.678L136.17 179.282ZM136.514 176.846C136.144 177.216 135.687 177.512 135.113 177.725L136.504 181.475C137.584 181.075 138.54 180.477 139.343 179.674L136.514 176.846ZM135.113 177.725C134.522 177.944 133.879 178.06 133.169 178.06V182.06C134.325 182.06 135.442 181.869 136.504 181.475L135.113 177.725ZM148.307 166.38H150.307C150.307 165.275 149.412 164.38 148.307 164.38V166.38ZM143.107 166.38H141.107C141.107 167.485 142.003 168.38 143.107 168.38V166.38ZM143.107 166V164C142.003 164 141.107 164.895 141.107 166H143.107ZM153.907 166H155.907C155.907 164.895 155.012 164 153.907 164V166ZM153.907 166.38V168.38C155.012 168.38 155.907 167.485 155.907 166.38H153.907ZM148.707 166.38V164.38C147.603 164.38 146.707 165.275 146.707 166.38H148.707ZM148.707 180V182C149.812 182 150.707 181.105 150.707 180H148.707ZM148.307 180H146.307C146.307 181.105 147.203 182 148.307 182V180ZM148.307 164.38H143.107V168.38H148.307V164.38ZM145.107 166.38V166H141.107V166.38H145.107ZM143.107 168H153.907V164H143.107V168ZM151.907 166V166.38H155.907V166H151.907ZM153.907 164.38H148.707V168.38H153.907V164.38ZM146.707 166.38V180H150.707V166.38H146.707ZM148.707 178H148.307V182H148.707V178ZM150.307 180V166.38H146.307V180H150.307ZM168.264 166.38H170.264C170.264 165.275 169.369 164.38 168.264 164.38V166.38ZM163.064 166.38H161.064C161.064 167.485 161.96 168.38 163.064 168.38V166.38ZM163.064 166V164C161.96 164 161.064 164.895 161.064 166H163.064ZM173.864 166H175.864C175.864 164.895 174.969 164 173.864 164V166ZM173.864 166.38V168.38C174.969 168.38 175.864 167.485 175.864 166.38H173.864ZM168.664 166.38V164.38C167.56 164.38 166.664 165.275 166.664 166.38H168.664ZM168.664 180V182C169.769 182 170.664 181.105 170.664 180H168.664ZM168.264 180H166.264C166.264 181.105 167.16 182 168.264 182V180ZM168.264 164.38H163.064V168.38H168.264V164.38ZM165.064 166.38V166H161.064V166.38H165.064ZM163.064 168H173.864V164H163.064V168ZM171.864 166V166.38H175.864V166H171.864ZM173.864 164.38H168.664V168.38H173.864V164.38ZM166.664 166.38V180H170.664V166.38H166.664ZM168.664 178H168.264V182H168.664V178ZM170.264 180V166.38H166.264V180H170.264ZM187.921 179.62H189.921C189.921 178.515 189.026 177.62 187.921 177.62V179.62ZM187.921 180V182C189.026 182 189.921 181.105 189.921 180H187.921ZM178.601 180H176.601C176.601 181.105 177.497 182 178.601 182V180ZM178.601 166V164C177.497 164 176.601 164.895 176.601 166H178.601ZM187.621 166H189.621C189.621 164.895 188.726 164 187.621 164V166ZM187.621 166.38V168.38C188.726 168.38 189.621 167.485 189.621 166.38H187.621ZM179.001 166.38V164.38C177.897 164.38 177.001 165.275 177.001 166.38H179.001ZM179.001 172.7H177.001C177.001 173.805 177.897 174.7 179.001 174.7V172.7ZM186.721 172.7H188.721C188.721 171.595 187.826 170.7 186.721 170.7V172.7ZM186.721 173.08V175.08C187.826 175.08 188.721 174.185 188.721 173.08H186.721ZM179.001 173.08V171.08C177.897 171.08 177.001 171.975 177.001 173.08H179.001ZM179.001 179.62H177.001C177.001 180.725 177.897 181.62 179.001 181.62V179.62ZM185.921 179.62V180H189.921V179.62H185.921ZM187.921 178H178.601V182H187.921V178ZM180.601 180V166H176.601V180H180.601ZM178.601 168H187.621V164H178.601V168ZM185.621 166V166.38H189.621V166H185.621ZM187.621 164.38H179.001V168.38H187.621V164.38ZM177.001 166.38V172.7H181.001V166.38H177.001ZM179.001 174.7H186.721V170.7H179.001V174.7ZM184.721 172.7V173.08H188.721V172.7H184.721ZM186.721 171.08H179.001V175.08H186.721V171.08ZM177.001 173.08V179.62H181.001V173.08H177.001ZM179.001 181.62H187.921V177.62H179.001V181.62ZM204.961 166H206.961C206.961 164.895 206.065 164 204.961 164V166ZM204.961 180V182C206.065 182 206.961 181.105 206.961 180H204.961ZM204.621 180L203.039 181.224C203.418 181.713 204.002 182 204.621 182V180ZM194.361 166.74L195.943 165.516C195.419 164.84 194.523 164.571 193.714 164.847C192.905 165.124 192.361 165.885 192.361 166.74H194.361ZM194.361 180V182C195.465 182 196.361 181.105 196.361 180H194.361ZM193.961 180H191.961C191.961 181.105 192.856 182 193.961 182V180ZM193.961 166V164C192.856 164 191.961 164.895 191.961 166H193.961ZM194.301 166L195.883 164.776C195.504 164.287 194.92 164 194.301 164V166ZM204.561 179.26L202.979 180.484C203.502 181.16 204.398 181.429 205.207 181.153C206.017 180.876 206.561 180.115 206.561 179.26H204.561ZM204.561 166V164C203.456 164 202.561 164.895 202.561 166H204.561ZM202.961 166V180H206.961V166H202.961ZM204.961 178H204.621V182H204.961V178ZM206.203 178.776L195.943 165.516L192.779 167.964L203.039 181.224L206.203 178.776ZM192.361 166.74V180H196.361V166.74H192.361ZM194.361 178H193.961V182H194.361V178ZM195.961 180V166H191.961V180H195.961ZM193.961 168H194.301V164H193.961V168ZM192.719 167.224L202.979 180.484L206.143 178.036L195.883 164.776L192.719 167.224ZM206.561 179.26V166H202.561V179.26H206.561ZM204.561 168H204.961V164H204.561V168ZM212.849 179.52L212.078 181.365C212.086 181.369 212.093 181.372 212.101 181.375L212.849 179.52ZM210.789 178.08L209.428 176.614C208.654 177.333 208.572 178.529 209.241 179.346L210.789 178.08ZM211.069 177.82L212.593 176.525C212.239 176.109 211.731 175.856 211.187 175.823C210.642 175.791 210.108 175.983 209.708 176.354L211.069 177.82ZM213.009 179.16L212.221 180.998C212.229 181.002 212.238 181.005 212.246 181.009L213.009 179.16ZM218.969 178.82L220.201 180.396L220.205 180.393L218.969 178.82ZM219.509 174.84L218.027 176.183L219.509 174.84ZM218.069 173.88L217.357 175.749C217.362 175.751 217.367 175.753 217.371 175.754L218.069 173.88ZM215.789 173.22L215.31 175.162C215.316 175.163 215.323 175.165 215.329 175.166L215.789 173.22ZM213.349 172.5L212.606 174.357C212.618 174.362 212.63 174.366 212.642 174.371L213.349 172.5ZM211.809 171.42L210.276 172.704C210.288 172.719 210.301 172.734 210.314 172.749L211.809 171.42ZM211.689 167.7L213.385 168.76L211.689 167.7ZM218.069 166.3L217.436 168.197C217.447 168.201 217.458 168.204 217.468 168.208L218.069 166.3ZM219.929 167.22L221.577 168.353C222.186 167.467 221.986 166.257 221.122 165.615L219.929 167.22ZM219.709 167.54L218.528 169.154C218.964 169.473 219.511 169.602 220.044 169.512C220.577 169.421 221.051 169.119 221.357 168.673L219.709 167.54ZM217.869 166.64L217.259 168.545C217.274 168.55 217.289 168.554 217.305 168.559L217.869 166.64ZM212.689 167.22L213.938 168.782C213.944 168.777 213.95 168.773 213.955 168.768L212.689 167.22ZM212.169 171.22L210.667 172.54C210.673 172.548 210.68 172.555 210.687 172.563L212.169 171.22ZM213.609 172.18L214.306 170.306L213.609 172.18ZM215.929 172.86L216.414 170.92L216.408 170.918L215.929 172.86ZM218.349 173.6L217.606 175.457C217.618 175.462 217.63 175.466 217.642 175.471L218.349 173.6ZM219.869 174.66L218.353 175.965C218.359 175.972 218.366 175.979 218.372 175.986L219.869 174.66ZM219.969 178.32L218.292 177.23L219.969 178.32ZM218.369 179.6L219.165 181.435C219.17 181.432 219.176 181.43 219.181 181.428L218.369 179.6ZM215.709 178.06C214.938 178.06 214.24 177.924 213.596 177.665L212.101 181.375C213.245 181.836 214.453 182.06 215.709 182.06V178.06ZM213.62 177.675C212.947 177.394 212.56 177.086 212.337 176.814L209.241 179.346C209.978 180.248 210.964 180.9 212.078 181.365L213.62 177.675ZM212.15 179.546L212.43 179.286L209.708 176.354L209.428 176.614L212.15 179.546ZM209.545 179.115C210.25 179.945 211.181 180.552 212.221 180.998L213.797 177.322C213.157 177.048 212.794 176.762 212.593 176.525L209.545 179.115ZM212.246 181.009C213.338 181.459 214.492 181.68 215.689 181.68V177.68C214.993 177.68 214.36 177.554 213.772 177.311L212.246 181.009ZM215.689 181.68C217.353 181.68 218.967 181.36 220.201 180.396L217.737 177.244C217.504 177.426 216.931 177.68 215.689 177.68V181.68ZM220.205 180.393C221.416 179.441 222.089 178.116 222.089 176.56H218.089C218.089 176.844 218.015 177.026 217.733 177.247L220.205 180.393ZM222.089 176.56C222.089 175.473 221.789 174.377 220.991 173.497L218.027 176.183C218.029 176.185 218.03 176.187 218.033 176.191C218.035 176.195 218.041 176.206 218.049 176.229C218.064 176.275 218.089 176.377 218.089 176.56H222.089ZM220.991 173.497C220.376 172.818 219.621 172.323 218.766 172.006L217.371 175.754C217.664 175.863 217.869 176.009 218.027 176.183L220.991 173.497ZM218.781 172.011C218.103 171.753 217.247 171.509 216.248 171.274L215.329 175.166C216.251 175.384 216.915 175.58 217.357 175.749L218.781 172.011ZM216.268 171.278C215.276 171.033 214.549 170.815 214.056 170.629L212.642 174.371C213.349 174.638 214.248 174.9 215.31 175.162L216.268 171.278ZM214.092 170.643C213.778 170.518 213.523 170.338 213.304 170.091L210.314 172.749C210.948 173.462 211.72 174.002 212.606 174.357L214.092 170.643ZM213.342 170.136C213.303 170.089 213.189 169.931 213.189 169.46H209.189C209.189 170.616 209.488 171.764 210.276 172.704L213.342 170.136ZM213.189 169.46C213.189 169.188 213.254 168.97 213.385 168.76L209.993 166.64C209.457 167.497 209.189 168.452 209.189 169.46H213.189ZM213.385 168.76C213.465 168.632 213.642 168.437 214.074 168.242L212.424 164.598C211.442 165.043 210.579 165.702 209.993 166.64L213.385 168.76ZM214.074 168.242C214.449 168.072 215.022 167.94 215.869 167.94V163.94C214.636 163.94 213.462 164.128 212.424 164.598L214.074 168.242ZM215.869 167.94C216.397 167.94 216.917 168.024 217.436 168.197L218.701 164.403C217.781 164.096 216.834 163.94 215.869 163.94V167.94ZM217.468 168.208C218.01 168.378 218.422 168.592 218.736 168.825L221.122 165.615C220.396 165.075 219.568 164.675 218.669 164.392L217.468 168.208ZM218.281 166.087L218.061 166.407L221.357 168.673L221.577 168.353L218.281 166.087ZM220.89 165.926C220.148 165.383 219.324 164.983 218.433 164.721L217.305 168.559C217.773 168.697 218.176 168.897 218.528 169.154L220.89 165.926ZM218.478 164.735C217.629 164.463 216.763 164.32 215.889 164.32V168.32C216.321 168.32 216.776 168.39 217.259 168.545L218.478 164.735ZM215.889 164.32C214.24 164.32 212.649 164.668 211.422 165.672L213.955 168.768C214.195 168.571 214.738 168.32 215.889 168.32V164.32ZM211.44 165.658C210.243 166.615 209.589 167.938 209.589 169.48H213.589C213.589 169.182 213.668 168.998 213.938 168.782L211.44 165.658ZM209.589 169.48C209.589 170.57 209.89 171.657 210.667 172.54L213.671 169.9C213.662 169.889 213.647 169.871 213.631 169.823C213.613 169.769 213.589 169.662 213.589 169.48H209.589ZM210.687 172.563C211.302 173.242 212.057 173.737 212.911 174.054L214.306 170.306C214.014 170.197 213.809 170.051 213.651 169.877L210.687 172.563ZM212.911 174.054C213.587 174.306 214.443 174.554 215.45 174.802L216.408 170.918C215.468 170.686 214.778 170.481 214.306 170.306L212.911 174.054ZM215.444 174.8C216.416 175.043 217.125 175.265 217.606 175.457L219.092 171.743C218.373 171.455 217.469 171.183 216.414 170.92L215.444 174.8ZM217.642 175.471C217.934 175.581 218.161 175.742 218.353 175.965L221.384 173.355C220.75 172.618 219.964 172.072 219.056 171.729L217.642 175.471ZM218.372 175.986C218.378 175.993 218.489 176.106 218.489 176.56H222.489C222.489 175.414 222.187 174.26 221.366 173.334L218.372 175.986ZM218.489 176.56C218.489 176.816 218.426 177.023 218.292 177.23L221.646 179.41C222.205 178.55 222.489 177.584 222.489 176.56H218.489ZM218.292 177.23C218.201 177.369 218.008 177.572 217.557 177.772L219.181 181.428C220.17 180.988 221.043 180.337 221.646 179.41L218.292 177.23ZM217.573 177.765C217.194 177.93 216.6 178.06 215.709 178.06V182.06C216.951 182.06 218.13 181.884 219.165 181.435L217.573 177.765ZM235.621 179.62H237.621C237.621 178.515 236.725 177.62 235.621 177.62V179.62ZM235.621 180V182C236.725 182 237.621 181.105 237.621 180H235.621ZM226.301 180H224.301C224.301 181.105 225.196 182 226.301 182V180ZM226.301 166V164C225.196 164 224.301 164.895 224.301 166H226.301ZM235.321 166H237.321C237.321 164.895 236.425 164 235.321 164V166ZM235.321 166.38V168.38C236.425 168.38 237.321 167.485 237.321 166.38H235.321ZM226.701 166.38V164.38C225.596 164.38 224.701 165.275 224.701 166.38H226.701ZM226.701 172.7H224.701C224.701 173.805 225.596 174.7 226.701 174.7V172.7ZM234.421 172.7H236.421C236.421 171.595 235.525 170.7 234.421 170.7V172.7ZM234.421 173.08V175.08C235.525 175.08 236.421 174.185 236.421 173.08H234.421ZM226.701 173.08V171.08C225.596 171.08 224.701 171.975 224.701 173.08H226.701ZM226.701 179.62H224.701C224.701 180.725 225.596 181.62 226.701 181.62V179.62ZM233.621 179.62V180H237.621V179.62H233.621ZM235.621 178H226.301V182H235.621V178ZM228.301 180V166H224.301V180H228.301ZM226.301 168H235.321V164H226.301V168ZM233.321 166V166.38H237.321V166H233.321ZM235.321 164.38H226.701V168.38H235.321V164.38ZM224.701 166.38V172.7H228.701V166.38H224.701ZM226.701 174.7H234.421V170.7H226.701V174.7ZM232.421 172.7V173.08H236.421V172.7H232.421ZM234.421 171.08H226.701V175.08H234.421V171.08ZM224.701 173.08V179.62H228.701V173.08H224.701ZM226.701 181.62H235.621V177.62H226.701V181.62Z" fill="white"/>
</mask>
<g mask="url(#mask0_157_2404)">
<path d="M0 127L9.46667 128.736C18.9333 130.512 37.8667 133.984 56.8 134.469C75.7333 134.953 94.6667 132.37 113.6 135.761C132.533 139.112 151.467 148.398 170.4 150.295C189.333 152.152 208.267 146.661 227.2 143.876C246.133 141.13 265.067 141.13 274.533 141.13H284V322H274.533C265.067 322 246.133 322 227.2 322C208.267 322 189.333 322 170.4 322C151.467 322 132.533 322 113.6 322C94.6667 322 75.7333 322 56.8 322C37.8667 322 18.9333 322 9.46667 322H0V127Z" fill="white"/>
</g>
</g>
<defs>
<clipPath id="clip0_157_2404">
<rect width="284" height="322" fill="white"/>
</clipPath>
</defs>
</svg>
