<svg width="284" height="322" viewBox="0 0 284 322" fill="none" xmlns="http://www.w3.org/2000/svg">
<g clip-path="url(#clip0_157_2495)">
<g filter="url(#filter0_i_157_2495)">
<path d="M284 0H0V321.549H284V0Z" fill="#001220"/>
</g>
<path d="M64.768 130.8V140.7H77.8V143.004H64.768V153.696H62.104V128.496H79.384V130.8H64.768ZM98.637 153.912C95.3733 153.912 92.8293 152.976 91.0053 151.104C89.1813 149.232 88.2693 146.508 88.2693 142.932V128.496H90.9333V142.824C90.9333 145.752 91.5933 147.936 92.9133 149.376C94.2333 150.816 96.141 151.536 98.637 151.536C101.157 151.536 103.077 150.816 104.397 149.376C105.717 147.936 106.377 145.752 106.377 142.824V128.496H108.969V142.932C108.969 146.508 108.057 149.232 106.233 151.104C104.433 152.976 101.901 153.912 98.637 153.912ZM125.001 130.8H116.145V128.496H136.521V130.8H127.665V153.696H125.001V130.8ZM154.036 153.912C150.772 153.912 148.228 152.976 146.404 151.104C144.58 149.232 143.668 146.508 143.668 142.932V128.496H146.332V142.824C146.332 145.752 146.992 147.936 148.312 149.376C149.632 150.816 151.54 151.536 154.036 151.536C156.556 151.536 158.476 150.816 159.796 149.376C161.116 147.936 161.776 145.752 161.776 142.824V128.496H164.368V142.932C164.368 146.508 163.456 149.232 161.632 151.104C159.832 152.976 157.3 153.912 154.036 153.912ZM193.204 153.696L187.444 145.596C186.796 145.668 186.124 145.704 185.428 145.704H178.66V153.696H175.996V128.496H185.428C188.644 128.496 191.164 129.264 192.988 130.8C194.812 132.336 195.724 134.448 195.724 137.136C195.724 139.104 195.22 140.772 194.212 142.14C193.228 143.484 191.812 144.456 189.964 145.056L196.12 153.696H193.204ZM185.356 143.436C187.852 143.436 189.76 142.884 191.08 141.78C192.4 140.676 193.06 139.128 193.06 137.136C193.06 135.096 192.4 133.536 191.08 132.456C189.76 131.352 187.852 130.8 185.356 130.8H178.66V143.436H185.356ZM223.432 151.392V153.696H205.612V128.496H222.892V130.8H208.276V139.764H221.308V142.032H208.276V151.392H223.432Z" fill="#80FF80"/>
<path d="M64.768 130.8V127.8C63.1111 127.8 61.768 129.143 61.768 130.8H64.768ZM64.768 140.7H61.768C61.768 142.357 63.1111 143.7 64.768 143.7V140.7ZM77.8 140.7H80.8C80.8 139.043 79.4569 137.7 77.8 137.7V140.7ZM77.8 143.004V146.004C79.4569 146.004 80.8 144.661 80.8 143.004H77.8ZM64.768 143.004V140.004C63.1111 140.004 61.768 141.347 61.768 143.004H64.768ZM64.768 153.696V156.696C66.4249 156.696 67.768 155.353 67.768 153.696H64.768ZM62.104 153.696H59.104C59.104 155.353 60.4471 156.696 62.104 156.696V153.696ZM62.104 128.496V125.496C60.4471 125.496 59.104 126.839 59.104 128.496H62.104ZM79.384 128.496H82.384C82.384 126.839 81.0409 125.496 79.384 125.496V128.496ZM79.384 130.8V133.8C81.0409 133.8 82.384 132.457 82.384 130.8H79.384ZM61.768 130.8V140.7H67.768V130.8H61.768ZM64.768 143.7H77.8V137.7H64.768V143.7ZM74.8 140.7V143.004H80.8V140.7H74.8ZM77.8 140.004H64.768V146.004H77.8V140.004ZM61.768 143.004V153.696H67.768V143.004H61.768ZM64.768 150.696H62.104V156.696H64.768V150.696ZM65.104 153.696V128.496H59.104V153.696H65.104ZM62.104 131.496H79.384V125.496H62.104V131.496ZM76.384 128.496V130.8H82.384V128.496H76.384ZM79.384 127.8H64.768V133.8H79.384V127.8ZM91.0053 151.104L93.1539 149.011L91.0053 151.104ZM88.2693 128.496V125.496C86.6124 125.496 85.2693 126.839 85.2693 128.496H88.2693ZM90.9333 128.496H93.9333C93.9333 126.839 92.5901 125.496 90.9333 125.496V128.496ZM104.397 149.376L106.609 151.403L104.397 149.376ZM106.377 128.496V125.496C104.72 125.496 103.377 126.839 103.377 128.496H106.377ZM108.969 128.496H111.969C111.969 126.839 110.626 125.496 108.969 125.496V128.496ZM106.233 151.104L104.085 149.011C104.08 149.015 104.075 149.02 104.071 149.025L106.233 151.104ZM98.637 150.912C95.9688 150.912 94.2798 150.166 93.1539 149.011L88.8566 153.198C91.3787 155.786 94.7777 156.912 98.637 156.912V150.912ZM93.1539 149.011C92.0511 147.879 91.2693 146.02 91.2693 142.932H85.2693C85.2693 146.997 86.3114 150.586 88.8566 153.198L93.1539 149.011ZM91.2693 142.932V128.496H85.2693V142.932H91.2693ZM88.2693 131.496H90.9333V125.496H88.2693V131.496ZM87.9333 128.496V142.824H93.9333V128.496H87.9333ZM87.9333 142.824C87.9333 146.137 88.6724 149.19 90.7018 151.403L95.1247 147.349C94.5141 146.683 93.9333 145.367 93.9333 142.824H87.9333ZM90.7018 151.403C92.7385 153.625 95.5487 154.536 98.637 154.536V148.536C96.734 148.536 95.728 148.007 95.1247 147.349L90.7018 151.403ZM98.637 154.536C101.74 154.536 104.567 153.631 106.609 151.403L102.186 147.349C101.588 148.001 100.575 148.536 98.637 148.536V154.536ZM106.609 151.403C108.638 149.19 109.377 146.137 109.377 142.824H103.377C103.377 145.367 102.796 146.683 102.186 147.349L106.609 151.403ZM109.377 142.824V128.496H103.377V142.824H109.377ZM106.377 131.496H108.969V125.496H106.377V131.496ZM105.969 128.496V142.932H111.969V128.496H105.969ZM105.969 142.932C105.969 146.02 105.187 147.879 104.085 149.011L108.382 153.198C110.927 150.586 111.969 146.997 111.969 142.932H105.969ZM104.071 149.025C102.974 150.166 101.308 150.912 98.637 150.912V156.912C102.495 156.912 105.893 155.787 108.396 153.184L104.071 149.025ZM125.001 130.8H128.001C128.001 129.143 126.658 127.8 125.001 127.8V130.8ZM116.145 130.8H113.145C113.145 132.457 114.488 133.8 116.145 133.8V130.8ZM116.145 128.496V125.496C114.488 125.496 113.145 126.839 113.145 128.496H116.145ZM136.521 128.496H139.521C139.521 126.839 138.178 125.496 136.521 125.496V128.496ZM136.521 130.8V133.8C138.178 133.8 139.521 132.457 139.521 130.8H136.521ZM127.665 130.8V127.8C126.008 127.8 124.665 129.143 124.665 130.8H127.665ZM127.665 153.696V156.696C129.322 156.696 130.665 155.353 130.665 153.696H127.665ZM125.001 153.696H122.001C122.001 155.353 123.344 156.696 125.001 156.696V153.696ZM125.001 127.8H116.145V133.8H125.001V127.8ZM119.145 130.8V128.496H113.145V130.8H119.145ZM116.145 131.496H136.521V125.496H116.145V131.496ZM133.521 128.496V130.8H139.521V128.496H133.521ZM136.521 127.8H127.665V133.8H136.521V127.8ZM124.665 130.8V153.696H130.665V130.8H124.665ZM127.665 150.696H125.001V156.696H127.665V150.696ZM128.001 153.696V130.8H122.001V153.696H128.001ZM146.404 151.104L148.553 149.011L146.404 151.104ZM143.668 128.496V125.496C142.012 125.496 140.668 126.839 140.668 128.496H143.668ZM146.332 128.496H149.332C149.332 126.839 147.989 125.496 146.332 125.496V128.496ZM159.796 149.376L162.008 151.403L159.796 149.376ZM161.776 128.496V125.496C160.12 125.496 158.776 126.839 158.776 128.496H161.776ZM164.368 128.496H167.368C167.368 126.839 166.025 125.496 164.368 125.496V128.496ZM161.632 151.104L159.484 149.011C159.479 149.015 159.475 149.02 159.47 149.025L161.632 151.104ZM154.036 150.912C151.368 150.912 149.679 150.166 148.553 149.011L144.256 153.198C146.778 155.786 150.177 156.912 154.036 156.912V150.912ZM148.553 149.011C147.45 147.879 146.668 146.02 146.668 142.932H140.668C140.668 146.997 141.711 150.586 144.256 153.198L148.553 149.011ZM146.668 142.932V128.496H140.668V142.932H146.668ZM143.668 131.496H146.332V125.496H143.668V131.496ZM143.332 128.496V142.824H149.332V128.496H143.332ZM143.332 142.824C143.332 146.137 144.072 149.19 146.101 151.403L150.524 147.349C149.913 146.683 149.332 145.367 149.332 142.824H143.332ZM146.101 151.403C148.138 153.625 150.948 154.536 154.036 154.536V148.536C152.133 148.536 151.127 148.007 150.524 147.349L146.101 151.403ZM154.036 154.536C157.139 154.536 159.966 153.631 162.008 151.403L157.585 147.349C156.987 148.001 155.974 148.536 154.036 148.536V154.536ZM162.008 151.403C164.037 149.19 164.776 146.137 164.776 142.824H158.776C158.776 145.367 158.196 146.683 157.585 147.349L162.008 151.403ZM164.776 142.824V128.496H158.776V142.824H164.776ZM161.776 131.496H164.368V125.496H161.776V131.496ZM161.368 128.496V142.932H167.368V128.496H161.368ZM161.368 142.932C161.368 146.02 160.587 147.879 159.484 149.011L163.781 153.198C166.326 150.586 167.368 146.997 167.368 142.932H161.368ZM159.47 149.025C158.373 150.166 156.707 150.912 154.036 150.912V156.912C157.894 156.912 161.292 155.787 163.795 153.184L159.47 149.025ZM193.204 153.696L190.759 155.435C191.322 156.226 192.233 156.696 193.204 156.696V153.696ZM187.444 145.596L189.889 143.858C189.258 142.97 188.195 142.494 187.113 142.615L187.444 145.596ZM178.66 145.704V142.704C177.003 142.704 175.66 144.047 175.66 145.704H178.66ZM178.66 153.696V156.696C180.317 156.696 181.66 155.353 181.66 153.696H178.66ZM175.996 153.696H172.996C172.996 155.353 174.339 156.696 175.996 156.696V153.696ZM175.996 128.496V125.496C174.339 125.496 172.996 126.839 172.996 128.496H175.996ZM192.988 130.8L191.056 133.095L192.988 130.8ZM194.212 142.14L191.797 140.361L191.792 140.368L194.212 142.14ZM189.964 145.056L189.038 142.203C188.129 142.498 187.415 143.208 187.115 144.116C186.816 145.023 186.966 146.019 187.521 146.797L189.964 145.056ZM196.12 153.696V156.696C197.243 156.696 198.272 156.069 198.787 155.071C199.301 154.072 199.215 152.87 198.563 151.955L196.12 153.696ZM191.08 141.78L193.005 144.082L191.08 141.78ZM191.08 132.456L189.156 134.758C189.164 134.764 189.172 134.771 189.18 134.778L191.08 132.456ZM178.66 130.8V127.8C177.003 127.8 175.66 129.143 175.66 130.8H178.66ZM178.66 143.436H175.66C175.66 145.093 177.003 146.436 178.66 146.436V143.436ZM195.649 151.958L189.889 143.858L184.999 147.335L190.759 155.435L195.649 151.958ZM187.113 142.615C186.582 142.674 186.021 142.704 185.428 142.704V148.704C186.228 148.704 187.01 148.663 187.775 148.578L187.113 142.615ZM185.428 142.704H178.66V148.704H185.428V142.704ZM175.66 145.704V153.696H181.66V145.704H175.66ZM178.66 150.696H175.996V156.696H178.66V150.696ZM178.996 153.696V128.496H172.996V153.696H178.996ZM175.996 131.496H185.428V125.496H175.996V131.496ZM185.428 131.496C188.185 131.496 189.936 132.152 191.056 133.095L194.921 128.506C192.393 126.377 189.104 125.496 185.428 125.496V131.496ZM191.056 133.095C192.112 133.984 192.724 135.207 192.724 137.136H198.724C198.724 133.69 197.513 130.688 194.921 128.506L191.056 133.095ZM192.724 137.136C192.724 138.569 192.367 139.587 191.797 140.361L196.627 143.92C198.073 141.958 198.724 139.64 198.724 137.136H192.724ZM191.792 140.368C191.239 141.123 190.39 141.764 189.038 142.203L190.891 147.91C193.235 147.149 195.217 145.846 196.633 143.912L191.792 140.368ZM187.521 146.797L193.677 155.437L198.563 151.955L192.407 143.315L187.521 146.797ZM196.12 150.696H193.204V156.696H196.12V150.696ZM185.356 146.436C188.246 146.436 190.948 145.802 193.005 144.082L189.156 139.479C188.573 139.966 187.458 140.436 185.356 140.436V146.436ZM193.005 144.082C195.118 142.314 196.06 139.861 196.06 137.136H190.06C190.06 138.396 189.683 139.038 189.156 139.479L193.005 144.082ZM196.06 137.136C196.06 134.392 195.135 131.897 192.98 130.134L189.18 134.778C189.666 135.175 190.06 135.801 190.06 137.136H196.06ZM193.005 130.155C190.948 128.434 188.246 127.8 185.356 127.8V133.8C187.458 133.8 188.573 134.27 189.156 134.758L193.005 130.155ZM185.356 127.8H178.66V133.8H185.356V127.8ZM175.66 130.8V143.436H181.66V130.8H175.66ZM178.66 146.436H185.356V140.436H178.66V146.436ZM223.432 151.392H226.432C226.432 149.735 225.089 148.392 223.432 148.392V151.392ZM223.432 153.696V156.696C225.089 156.696 226.432 155.353 226.432 153.696H223.432ZM205.612 153.696H202.612C202.612 155.353 203.955 156.696 205.612 156.696V153.696ZM205.612 128.496V125.496C203.955 125.496 202.612 126.839 202.612 128.496H205.612ZM222.892 128.496H225.892C225.892 126.839 224.549 125.496 222.892 125.496V128.496ZM222.892 130.8V133.8C224.549 133.8 225.892 132.457 225.892 130.8H222.892ZM208.276 130.8V127.8C206.619 127.8 205.276 129.143 205.276 130.8H208.276ZM208.276 139.764H205.276C205.276 141.421 206.619 142.764 208.276 142.764V139.764ZM221.308 139.764H224.308C224.308 138.107 222.965 136.764 221.308 136.764V139.764ZM221.308 142.032V145.032C222.965 145.032 224.308 143.689 224.308 142.032H221.308ZM208.276 142.032V139.032C206.619 139.032 205.276 140.375 205.276 142.032H208.276ZM208.276 151.392H205.276C205.276 153.049 206.619 154.392 208.276 154.392V151.392ZM220.432 151.392V153.696H226.432V151.392H220.432ZM223.432 150.696H205.612V156.696H223.432V150.696ZM208.612 153.696V128.496H202.612V153.696H208.612ZM205.612 131.496H222.892V125.496H205.612V131.496ZM219.892 128.496V130.8H225.892V128.496H219.892ZM222.892 127.8H208.276V133.8H222.892V127.8ZM205.276 130.8V139.764H211.276V130.8H205.276ZM208.276 142.764H221.308V136.764H208.276V142.764ZM218.308 139.764V142.032H224.308V139.764H218.308ZM221.308 139.032H208.276V145.032H221.308V139.032ZM205.276 142.032V151.392H211.276V142.032H205.276ZM208.276 154.392H223.432V148.392H208.276V154.392Z" fill="#80FF80"/>
<path d="M125.28 103.129H120.08V102.749H130.88V103.129H125.68V116.749H125.28V103.129ZM146.617 102.749V116.749H146.217V109.829H136.017V116.749H135.617V102.749H136.017V109.449H146.217V102.749H146.617ZM163.265 116.369V116.749H153.945V102.749H162.965V103.129H154.345V109.449H162.065V109.829H154.345V116.369H163.265Z" fill="#80FF80"/>
<path d="M125.28 103.129H127.28C127.28 102.025 126.385 101.129 125.28 101.129V103.129ZM120.08 103.129H118.08C118.08 104.234 118.975 105.129 120.08 105.129V103.129ZM120.08 102.749V100.749C118.975 100.749 118.08 101.645 118.08 102.749H120.08ZM130.88 102.749H132.88C132.88 101.645 131.985 100.749 130.88 100.749V102.749ZM130.88 103.129V105.129C131.985 105.129 132.88 104.234 132.88 103.129H130.88ZM125.68 103.129V101.129C124.575 101.129 123.68 102.025 123.68 103.129H125.68ZM125.68 116.749V118.749C126.785 118.749 127.68 117.854 127.68 116.749H125.68ZM125.28 116.749H123.28C123.28 117.854 124.175 118.749 125.28 118.749V116.749ZM125.28 101.129H120.08V105.129H125.28V101.129ZM122.08 103.129V102.749H118.08V103.129H122.08ZM120.08 104.749H130.88V100.749H120.08V104.749ZM128.88 102.749V103.129H132.88V102.749H128.88ZM130.88 101.129H125.68V105.129H130.88V101.129ZM123.68 103.129V116.749H127.68V103.129H123.68ZM125.68 114.749H125.28V118.749H125.68V114.749ZM127.28 116.749V103.129H123.28V116.749H127.28ZM146.617 102.749H148.617C148.617 101.645 147.722 100.749 146.617 100.749V102.749ZM146.617 116.749V118.749C147.722 118.749 148.617 117.854 148.617 116.749H146.617ZM146.217 116.749H144.217C144.217 117.854 145.112 118.749 146.217 118.749V116.749ZM146.217 109.829H148.217C148.217 108.725 147.322 107.829 146.217 107.829V109.829ZM136.017 109.829V107.829C134.912 107.829 134.017 108.725 134.017 109.829H136.017ZM136.017 116.749V118.749C137.122 118.749 138.017 117.854 138.017 116.749H136.017ZM135.617 116.749H133.617C133.617 117.854 134.512 118.749 135.617 118.749V116.749ZM135.617 102.749V100.749C134.512 100.749 133.617 101.645 133.617 102.749H135.617ZM136.017 102.749H138.017C138.017 101.645 137.122 100.749 136.017 100.749V102.749ZM136.017 109.449H134.017C134.017 110.554 134.912 111.449 136.017 111.449V109.449ZM146.217 109.449V111.449C147.322 111.449 148.217 110.554 148.217 109.449H146.217ZM146.217 102.749V100.749C145.112 100.749 144.217 101.645 144.217 102.749H146.217ZM144.617 102.749V116.749H148.617V102.749H144.617ZM146.617 114.749H146.217V118.749H146.617V114.749ZM148.217 116.749V109.829H144.217V116.749H148.217ZM146.217 107.829H136.017V111.829H146.217V107.829ZM134.017 109.829V116.749H138.017V109.829H134.017ZM136.017 114.749H135.617V118.749H136.017V114.749ZM137.617 116.749V102.749H133.617V116.749H137.617ZM135.617 104.749H136.017V100.749H135.617V104.749ZM134.017 102.749V109.449H138.017V102.749H134.017ZM136.017 111.449H146.217V107.449H136.017V111.449ZM148.217 109.449V102.749H144.217V109.449H148.217ZM146.217 104.749H146.617V100.749H146.217V104.749ZM163.265 116.369H165.265C165.265 115.265 164.37 114.369 163.265 114.369V116.369ZM163.265 116.749V118.749C164.37 118.749 165.265 117.854 165.265 116.749H163.265ZM153.945 116.749H151.945C151.945 117.854 152.841 118.749 153.945 118.749V116.749ZM153.945 102.749V100.749C152.841 100.749 151.945 101.645 151.945 102.749H153.945ZM162.965 102.749H164.965C164.965 101.645 164.07 100.749 162.965 100.749V102.749ZM162.965 103.129V105.129C164.07 105.129 164.965 104.234 164.965 103.129H162.965ZM154.345 103.129V101.129C153.241 101.129 152.345 102.025 152.345 103.129H154.345ZM154.345 109.449H152.345C152.345 110.554 153.241 111.449 154.345 111.449V109.449ZM162.065 109.449H164.065C164.065 108.345 163.17 107.449 162.065 107.449V109.449ZM162.065 109.829V111.829C163.17 111.829 164.065 110.934 164.065 109.829H162.065ZM154.345 109.829V107.829C153.241 107.829 152.345 108.725 152.345 109.829H154.345ZM154.345 116.369H152.345C152.345 117.474 153.241 118.369 154.345 118.369V116.369ZM161.265 116.369V116.749H165.265V116.369H161.265ZM163.265 114.749H153.945V118.749H163.265V114.749ZM155.945 116.749V102.749H151.945V116.749H155.945ZM153.945 104.749H162.965V100.749H153.945V104.749ZM160.965 102.749V103.129H164.965V102.749H160.965ZM162.965 101.129H154.345V105.129H162.965V101.129ZM152.345 103.129V109.449H156.345V103.129H152.345ZM154.345 111.449H162.065V107.449H154.345V111.449ZM160.065 109.449V109.829H164.065V109.449H160.065ZM162.065 107.829H154.345V111.829H162.065V107.829ZM152.345 109.829V116.369H156.345V109.829H152.345ZM154.345 118.369H163.265V114.369H154.345V118.369Z" fill="#80FF80"/>
<path d="M0 143.673L9.4667 144.936C18.9333 146.237 37.8667 148.762 56.8 146.16C75.7333 143.559 94.6667 135.754 113.6 136.29C132.533 136.787 151.467 145.586 170.4 146.16C189.333 146.734 208.267 139.083 227.2 135.142C246.133 131.163 265.067 130.934 274.533 130.781L284 130.666V321.186H274.533C265.067 321.186 246.133 321.186 227.2 321.186C208.267 321.186 189.333 321.186 170.4 321.186C151.467 321.186 132.533 321.186 113.6 321.186C94.6667 321.186 75.7333 321.186 56.8 321.186C37.8667 321.186 18.9333 321.186 9.4667 321.186H0V143.673Z" fill="#80FF80"/>
<path d="M0 151.161L9.4667 155.407C18.9333 159.612 37.8667 168.103 56.8 171.794C75.7333 175.484 94.6667 174.452 113.6 173.301C132.533 172.19 151.467 171 170.4 178.063C189.333 185.165 208.267 200.481 227.2 200.361C246.133 200.242 265.067 184.609 274.533 176.833L284 169.016V320.585H274.533C265.067 320.585 246.133 320.585 227.2 320.585C208.267 320.585 189.333 320.585 170.4 320.585C151.467 320.585 132.533 320.585 113.6 320.585C94.6667 320.585 75.7333 320.585 56.8 320.585C37.8667 320.585 18.9333 320.585 9.4667 320.585H0V151.161Z" fill="#63F361"/>
<path d="M0 228.533V204.48C9.4667 202.695 29.6 217.344 56.8 217.82C84 218.296 94.6667 210.678 113.6 210.757C132.533 210.797 151.467 214.526 170.4 218.296C189.333 222.065 208.267 225.874 227.2 220.518C246.133 215.161 269.327 208.694 284 195.6V320.585H274.533C265.067 320.585 246.133 320.585 227.2 320.585C208.267 320.585 189.333 320.585 170.4 320.585C151.467 320.585 132.533 320.585 113.6 320.585C94.6667 320.585 75.7333 320.585 56.8 320.585C37.8667 320.585 18.9333 320.585 9.4667 320.585H0V228.533Z" fill="#48E145"/>
<path d="M0 233.691L9.4667 235.952C18.9333 238.174 37.8667 242.698 56.8 244.88C75.7333 247.062 94.6667 246.904 113.6 242.698C132.533 238.452 147.825 234.356 170.4 233.294C192.619 232.249 209.213 233.294 227.2 237.143C245.187 240.992 274.533 247.142 284 254.323V266.227V320.585H274.533C265.067 320.585 246.133 320.585 227.2 320.585C208.267 320.585 189.333 320.585 170.4 320.585C151.467 320.585 132.533 320.585 113.6 320.585C94.6667 320.585 75.7333 320.585 56.8 320.585C37.8667 320.585 18.9333 320.585 9.4667 320.585H0V233.691Z" fill="#30CE2D"/>
<path d="M0 294.622L9.4667 295.297C18.9333 295.932 37.8667 297.281 56.8 295.535C75.7333 293.829 94.6667 289.067 113.6 282.719C132.533 276.371 151.467 268.435 170.4 266.729C189.333 264.983 208.267 269.506 227.2 269.348C246.133 269.229 265.067 264.467 274.533 262.087L284 259.706V322H274.533C265.067 322 246.133 322 227.2 322C208.267 322 189.333 322 170.4 322C151.467 322 132.533 322 113.6 322C94.6667 322 75.7333 322 56.8 322C37.8667 322 18.9333 322 9.4667 322H0V294.622Z" fill="#00C200"/>
<path d="M85.0559 208.304V215.48H94.0079V216.584H85.0559V224H83.8319V207.2H95.0639V208.304H85.0559ZM107.949 224.12C105.821 224.12 104.165 223.504 102.981 222.272C101.813 221.04 101.229 219.24 101.229 216.872V207.2H102.453V216.824C102.453 218.888 102.925 220.432 103.869 221.456C104.813 222.48 106.181 222.992 107.973 222.992C109.749 222.992 111.109 222.48 112.053 221.456C112.997 220.432 113.469 218.888 113.469 216.824V207.2H114.693V216.872C114.693 219.24 114.101 221.04 112.917 222.272C111.733 223.504 110.077 224.12 107.949 224.12ZM126.892 208.304H120.844V207.2H134.164V208.304H128.116V224H126.892V208.304ZM147.375 224.12C145.247 224.12 143.591 223.504 142.407 222.272C141.239 221.04 140.655 219.24 140.655 216.872V207.2H141.879V216.824C141.879 218.888 142.351 220.432 143.295 221.456C144.239 222.48 145.607 222.992 147.399 222.992C149.175 222.992 150.535 222.48 151.479 221.456C152.423 220.432 152.895 218.888 152.895 216.824V207.2H154.119V216.872C154.119 219.24 153.527 221.04 152.343 222.272C151.159 223.504 149.503 224.12 147.375 224.12ZM173.894 224L169.886 218.384C169.294 218.464 168.75 218.504 168.254 218.504H163.454V224H162.23V207.2H168.254C170.366 207.2 172.022 207.704 173.222 208.712C174.422 209.704 175.022 211.088 175.022 212.864C175.022 214.192 174.678 215.312 173.99 216.224C173.318 217.12 172.35 217.752 171.086 218.12L175.286 224H173.894ZM168.254 217.424C170.046 217.424 171.414 217.032 172.358 216.248C173.302 215.448 173.774 214.32 173.774 212.864C173.774 211.408 173.302 210.288 172.358 209.504C171.414 208.704 170.046 208.304 168.254 208.304H163.454V217.424H168.254ZM190.468 207.2H191.692V224H190.468V207.2ZM199.946 207.2H201.17V224H199.946V207.2Z" fill="white"/>
<path d="M85.0559 208.304V206.054C83.8133 206.054 82.8059 207.061 82.8059 208.304H85.0559ZM85.0559 215.48H82.8059C82.8059 216.723 83.8133 217.73 85.0559 217.73V215.48ZM94.0079 215.48H96.258C96.258 214.237 95.2505 213.23 94.0079 213.23V215.48ZM94.0079 216.584V218.834C95.2505 218.834 96.258 217.827 96.258 216.584H94.0079ZM85.0559 216.584V214.334C83.8133 214.334 82.8059 215.341 82.8059 216.584H85.0559ZM85.0559 224V226.25C86.2985 226.25 87.3059 225.243 87.3059 224H85.0559ZM83.8319 224H81.5819C81.5819 225.243 82.5893 226.25 83.8319 226.25V224ZM83.8319 207.2V204.95C82.5893 204.95 81.5819 205.957 81.5819 207.2H83.8319ZM95.0639 207.2H97.314C97.314 205.957 96.307 204.95 95.0639 204.95V207.2ZM95.0639 208.304V210.554C96.307 210.554 97.314 209.547 97.314 208.304H95.0639ZM82.8059 208.304V215.48H87.3059V208.304H82.8059ZM85.0559 217.73H94.0079V213.23H85.0559V217.73ZM91.7579 215.48V216.584H96.258V215.48H91.7579ZM94.0079 214.334H85.0559V218.834H94.0079V214.334ZM82.8059 216.584V224H87.3059V216.584H82.8059ZM85.0559 221.75H83.8319V226.25H85.0559V221.75ZM86.0819 224V207.2H81.5819V224H86.0819ZM83.8319 209.45H95.0639V204.95H83.8319V209.45ZM92.8139 207.2V208.304H97.314V207.2H92.8139ZM95.0639 206.054H85.0559V210.554H95.0639V206.054ZM102.981 222.272L101.348 223.82C101.351 223.824 101.355 223.827 101.358 223.831L102.981 222.272ZM101.229 207.2V204.95C99.986 204.95 98.979 205.957 98.979 207.2H101.229ZM102.453 207.2H104.703C104.703 205.957 103.695 204.95 102.453 204.95V207.2ZM103.869 221.456L102.214 222.981L103.869 221.456ZM112.053 221.456L110.398 219.931L112.053 221.456ZM113.469 207.2V204.95C112.226 204.95 111.219 205.957 111.219 207.2H113.469ZM114.693 207.2H116.943C116.943 205.957 115.935 204.95 114.693 204.95V207.2ZM112.917 222.272L111.294 220.713L112.917 222.272ZM107.949 221.87C106.273 221.87 105.263 221.4 104.603 220.713L101.358 223.831C103.066 225.608 105.368 226.37 107.949 226.37V221.87ZM104.613 220.724C103.975 220.051 103.479 218.893 103.479 216.872H98.979C98.979 219.587 99.65 222.029 101.348 223.82L104.613 220.724ZM103.479 216.872V207.2H98.979V216.872H103.479ZM101.229 209.45H102.453V204.95H101.229V209.45ZM100.203 207.2V216.824H104.703V207.2H100.203ZM100.203 216.824C100.203 219.186 100.738 221.38 102.214 222.981L105.523 219.931C105.111 219.484 104.703 218.59 104.703 216.824H100.203ZM102.214 222.981C103.698 224.591 105.743 225.242 107.973 225.242V220.742C106.618 220.742 105.927 220.369 105.523 219.931L102.214 222.981ZM107.973 225.242C110.193 225.242 112.226 224.587 113.707 222.981L110.398 219.931C109.991 220.373 109.304 220.742 107.973 220.742V225.242ZM113.707 222.981C115.183 221.38 115.719 219.186 115.719 216.824H111.219C111.219 218.59 110.81 219.484 110.398 219.931L113.707 222.981ZM115.719 216.824V207.2H111.219V216.824H115.719ZM113.469 209.45H114.693V204.95H113.469V209.45ZM112.443 207.2V216.872H116.943V207.2H112.443ZM112.443 216.872C112.443 218.886 111.942 220.039 111.294 220.713L114.539 223.831C116.259 222.041 116.943 219.594 116.943 216.872H112.443ZM111.294 220.713C110.634 221.4 109.624 221.87 107.949 221.87V226.37C110.529 226.37 112.831 225.608 114.539 223.831L111.294 220.713ZM126.892 208.304H129.142C129.142 207.061 128.134 206.054 126.892 206.054V208.304ZM120.844 208.304H118.594C118.594 209.547 119.601 210.554 120.844 210.554V208.304ZM120.844 207.2V204.95C119.601 204.95 118.594 205.957 118.594 207.2H120.844ZM134.164 207.2H136.414C136.414 205.957 135.406 204.95 134.164 204.95V207.2ZM134.164 208.304V210.554C135.406 210.554 136.414 209.547 136.414 208.304H134.164ZM128.116 208.304V206.054C126.873 206.054 125.866 207.061 125.866 208.304H128.116ZM128.116 224V226.25C129.358 226.25 130.366 225.243 130.366 224H128.116ZM126.892 224H124.642C124.642 225.243 125.649 226.25 126.892 226.25V224ZM126.892 206.054H120.844V210.554H126.892V206.054ZM123.094 208.304V207.2H118.594V208.304H123.094ZM120.844 209.45H134.164V204.95H120.844V209.45ZM131.914 207.2V208.304H136.414V207.2H131.914ZM134.164 206.054H128.116V210.554H134.164V206.054ZM125.866 208.304V224H130.366V208.304H125.866ZM128.116 221.75H126.892V226.25H128.116V221.75ZM129.142 224V208.304H124.642V224H129.142ZM142.407 222.272L140.774 223.82C140.778 223.824 140.781 223.827 140.785 223.831L142.407 222.272ZM140.655 207.2V204.95C139.412 204.95 138.405 205.957 138.405 207.2H140.655ZM141.879 207.2H144.129C144.129 205.957 143.122 204.95 141.879 204.95V207.2ZM143.295 221.456L141.641 222.981L143.295 221.456ZM151.479 221.456L149.825 219.931L151.479 221.456ZM152.895 207.2V204.95C151.652 204.95 150.645 205.957 150.645 207.2H152.895ZM154.119 207.2H156.369C156.369 205.957 155.362 204.95 154.119 204.95V207.2ZM152.343 222.272L150.721 220.713L152.343 222.272ZM147.375 221.87C145.699 221.87 144.69 221.4 144.029 220.713L140.785 223.831C142.492 225.608 144.795 226.37 147.375 226.37V221.87ZM144.04 220.724C143.402 220.051 142.905 218.893 142.905 216.872H138.405C138.405 219.587 139.076 222.029 140.774 223.82L144.04 220.724ZM142.905 216.872V207.2H138.405V216.872H142.905ZM140.655 209.45H141.879V204.95H140.655V209.45ZM139.629 207.2V216.824H144.129V207.2H139.629ZM139.629 216.824C139.629 219.186 140.165 221.38 141.641 222.981L144.949 219.931C144.538 219.484 144.129 218.59 144.129 216.824H139.629ZM141.641 222.981C143.125 224.591 145.17 225.242 147.399 225.242V220.742C146.045 220.742 145.353 220.369 144.949 219.931L141.641 222.981ZM147.399 225.242C149.62 225.242 151.653 224.587 153.133 222.981L149.825 219.931C149.417 220.373 148.73 220.742 147.399 220.742V225.242ZM153.133 222.981C154.61 221.38 155.145 219.186 155.145 216.824H150.645C150.645 218.59 150.237 219.484 149.825 219.931L153.133 222.981ZM155.145 216.824V207.2H150.645V216.824H155.145ZM152.895 209.45H154.119V204.95H152.895V209.45ZM151.869 207.2V216.872H156.369V207.2H151.869ZM151.869 216.872C151.869 218.886 151.368 220.039 150.721 220.713L153.965 223.831C155.686 222.041 156.369 219.594 156.369 216.872H151.869ZM150.721 220.713C150.06 221.4 149.051 221.87 147.375 221.87V226.37C149.955 226.37 152.258 225.608 153.965 223.831L150.721 220.713ZM173.894 224L172.063 225.307C172.485 225.899 173.167 226.25 173.894 226.25V224ZM169.886 218.384L171.718 217.077C171.233 216.398 170.412 216.043 169.585 216.154L169.886 218.384ZM163.454 218.504V216.254C162.212 216.254 161.204 217.261 161.204 218.504H163.454ZM163.454 224V226.25C164.697 226.25 165.704 225.243 165.704 224H163.454ZM162.23 224H159.98C159.98 225.243 160.988 226.25 162.23 226.25V224ZM162.23 207.2V204.95C160.988 204.95 159.98 205.957 159.98 207.2H162.23ZM173.222 208.712L171.775 210.435C171.78 210.439 171.784 210.442 171.789 210.446L173.222 208.712ZM173.99 216.224L172.194 214.869L172.19 214.874L173.99 216.224ZM171.086 218.12L170.457 215.96C169.757 216.164 169.199 216.694 168.96 217.383C168.722 218.072 168.832 218.834 169.255 219.428L171.086 218.12ZM175.286 224V226.25C176.129 226.25 176.901 225.779 177.287 225.03C177.673 224.28 177.607 223.378 177.117 222.692L175.286 224ZM172.358 216.248L173.796 217.979C173.802 217.974 173.807 217.969 173.813 217.965L172.358 216.248ZM172.358 209.504L170.904 211.221C170.909 211.225 170.915 211.23 170.921 211.235L172.358 209.504ZM163.454 208.304V206.054C162.212 206.054 161.204 207.061 161.204 208.304H163.454ZM163.454 217.424H161.204C161.204 218.667 162.212 219.674 163.454 219.674V217.424ZM175.726 222.693L171.718 217.077L168.055 219.691L172.063 225.307L175.726 222.693ZM169.585 216.154C169.073 216.223 168.632 216.254 168.254 216.254V220.754C168.869 220.754 169.515 220.705 170.188 220.614L169.585 216.154ZM168.254 216.254H163.454V220.754H168.254V216.254ZM161.204 218.504V224H165.704V218.504H161.204ZM163.454 221.75H162.23V226.25H163.454V221.75ZM164.48 224V207.2H159.98V224H164.48ZM162.23 209.45H168.254V204.95H162.23V209.45ZM168.254 209.45C170.022 209.45 171.102 209.87 171.775 210.435L174.67 206.989C172.942 205.538 170.711 204.95 168.254 204.95V209.45ZM171.789 210.446C172.395 210.948 172.772 211.653 172.772 212.864H177.272C177.272 210.523 176.449 208.46 174.656 206.978L171.789 210.446ZM172.772 212.864C172.772 213.786 172.542 214.408 172.194 214.869L175.787 217.579C176.815 216.216 177.272 214.598 177.272 212.864H172.772ZM172.19 214.874C171.86 215.315 171.339 215.703 170.457 215.96L171.715 220.28C173.362 219.801 174.777 218.925 175.79 217.574L172.19 214.874ZM169.255 219.428L173.455 225.308L177.117 222.692L172.917 216.812L169.255 219.428ZM175.286 221.75H173.894V226.25H175.286V221.75ZM168.254 219.674C170.336 219.674 172.298 219.223 173.796 217.979L170.921 214.517C170.531 214.841 169.756 215.174 168.254 215.174V219.674ZM173.813 217.965C175.352 216.66 176.024 214.852 176.024 212.864H171.524C171.524 213.788 171.252 214.236 170.904 214.531L173.813 217.965ZM176.024 212.864C176.024 210.877 175.352 209.066 173.796 207.773L170.921 211.235C171.252 211.51 171.524 211.939 171.524 212.864H176.024ZM173.813 207.787C172.314 206.517 170.345 206.054 168.254 206.054V210.554C169.747 210.554 170.514 210.891 170.904 211.221L173.813 207.787ZM168.254 206.054H163.454V210.554H168.254V206.054ZM161.204 208.304V217.424H165.704V208.304H161.204ZM163.454 219.674H168.254V215.174H163.454V219.674ZM190.468 207.2V204.95C189.225 204.95 188.218 205.957 188.218 207.2H190.468ZM191.692 207.2H193.942C193.942 205.957 192.934 204.95 191.692 204.95V207.2ZM191.692 224V226.25C192.934 226.25 193.942 225.243 193.942 224H191.692ZM190.468 224H188.218C188.218 225.243 189.225 226.25 190.468 226.25V224ZM190.468 209.45H191.692V204.95H190.468V209.45ZM189.442 207.2V224H193.942V207.2H189.442ZM191.692 221.75H190.468V226.25H191.692V221.75ZM192.718 224V207.2H188.218V224H192.718ZM199.946 207.2V204.95C198.703 204.95 197.696 205.957 197.696 207.2H199.946ZM201.17 207.2H203.42C203.42 205.957 202.413 204.95 201.17 204.95V207.2ZM201.17 224V226.25C202.413 226.25 203.42 225.243 203.42 224H201.17ZM199.946 224H197.696C197.696 225.243 198.703 226.25 199.946 226.25V224ZM199.946 209.45H201.17V204.95H199.946V209.45ZM198.92 207.2V224H203.42V207.2H198.92ZM201.17 221.75H199.946V226.25H201.17V221.75ZM202.196 224V207.2H197.696V224H202.196Z" fill="white"/>
<g style="mix-blend-mode:soft-light">
<path d="M47 192H237" stroke="white"/>
</g>
<mask id="mask0_157_2495" style="mask-type:alpha" maskUnits="userSpaceOnUse" x="47" y="125" width="191" height="56">
<path d="M64.768 130.8V140.7H77.8V143.004H64.768V153.696H62.104V128.496H79.384V130.8H64.768ZM98.637 153.912C95.3733 153.912 92.8293 152.976 91.0053 151.104C89.1813 149.232 88.2693 146.508 88.2693 142.932V128.496H90.9333V142.824C90.9333 145.752 91.5933 147.936 92.9133 149.376C94.2333 150.816 96.141 151.536 98.637 151.536C101.157 151.536 103.077 150.816 104.397 149.376C105.717 147.936 106.377 145.752 106.377 142.824V128.496H108.969V142.932C108.969 146.508 108.057 149.232 106.233 151.104C104.433 152.976 101.901 153.912 98.637 153.912ZM125.001 130.8H116.145V128.496H136.521V130.8H127.665V153.696H125.001V130.8ZM154.036 153.912C150.772 153.912 148.228 152.976 146.404 151.104C144.58 149.232 143.668 146.508 143.668 142.932V128.496H146.332V142.824C146.332 145.752 146.992 147.936 148.312 149.376C149.632 150.816 151.54 151.536 154.036 151.536C156.556 151.536 158.476 150.816 159.796 149.376C161.116 147.936 161.776 145.752 161.776 142.824V128.496H164.368V142.932C164.368 146.508 163.456 149.232 161.632 151.104C159.832 152.976 157.3 153.912 154.036 153.912ZM193.204 153.696L187.444 145.596C186.796 145.668 186.124 145.704 185.428 145.704H178.66V153.696H175.996V128.496H185.428C188.644 128.496 191.164 129.264 192.988 130.8C194.812 132.336 195.724 134.448 195.724 137.136C195.724 139.104 195.22 140.772 194.212 142.14C193.228 143.484 191.812 144.456 189.964 145.056L196.12 153.696H193.204ZM185.356 143.436C187.852 143.436 189.76 142.884 191.08 141.78C192.4 140.676 193.06 139.128 193.06 137.136C193.06 135.096 192.4 133.536 191.08 132.456C189.76 131.352 187.852 130.8 185.356 130.8H178.66V143.436H185.356ZM223.432 151.392V153.696H205.612V128.496H222.892V130.8H208.276V139.764H221.308V142.032H208.276V151.392H223.432Z" fill="white"/>
<path d="M64.768 130.8V127.8C63.1111 127.8 61.768 129.143 61.768 130.8H64.768ZM64.768 140.7H61.768C61.768 142.357 63.1111 143.7 64.768 143.7V140.7ZM77.8 140.7H80.8C80.8 139.043 79.4569 137.7 77.8 137.7V140.7ZM77.8 143.004V146.004C79.4569 146.004 80.8 144.661 80.8 143.004H77.8ZM64.768 143.004V140.004C63.1111 140.004 61.768 141.347 61.768 143.004H64.768ZM64.768 153.696V156.696C66.4249 156.696 67.768 155.353 67.768 153.696H64.768ZM62.104 153.696H59.104C59.104 155.353 60.4471 156.696 62.104 156.696V153.696ZM62.104 128.496V125.496C60.4471 125.496 59.104 126.839 59.104 128.496H62.104ZM79.384 128.496H82.384C82.384 126.839 81.0409 125.496 79.384 125.496V128.496ZM79.384 130.8V133.8C81.0409 133.8 82.384 132.457 82.384 130.8H79.384ZM61.768 130.8V140.7H67.768V130.8H61.768ZM64.768 143.7H77.8V137.7H64.768V143.7ZM74.8 140.7V143.004H80.8V140.7H74.8ZM77.8 140.004H64.768V146.004H77.8V140.004ZM61.768 143.004V153.696H67.768V143.004H61.768ZM64.768 150.696H62.104V156.696H64.768V150.696ZM65.104 153.696V128.496H59.104V153.696H65.104ZM62.104 131.496H79.384V125.496H62.104V131.496ZM76.384 128.496V130.8H82.384V128.496H76.384ZM79.384 127.8H64.768V133.8H79.384V127.8ZM91.0053 151.104L93.1539 149.011L91.0053 151.104ZM88.2693 128.496V125.496C86.6124 125.496 85.2693 126.839 85.2693 128.496H88.2693ZM90.9333 128.496H93.9333C93.9333 126.839 92.5901 125.496 90.9333 125.496V128.496ZM104.397 149.376L106.609 151.403L104.397 149.376ZM106.377 128.496V125.496C104.72 125.496 103.377 126.839 103.377 128.496H106.377ZM108.969 128.496H111.969C111.969 126.839 110.626 125.496 108.969 125.496V128.496ZM106.233 151.104L104.085 149.011C104.08 149.015 104.075 149.02 104.071 149.025L106.233 151.104ZM98.637 150.912C95.9688 150.912 94.2798 150.166 93.1539 149.011L88.8566 153.198C91.3787 155.786 94.7777 156.912 98.637 156.912V150.912ZM93.1539 149.011C92.0511 147.879 91.2693 146.02 91.2693 142.932H85.2693C85.2693 146.997 86.3114 150.586 88.8566 153.198L93.1539 149.011ZM91.2693 142.932V128.496H85.2693V142.932H91.2693ZM88.2693 131.496H90.9333V125.496H88.2693V131.496ZM87.9333 128.496V142.824H93.9333V128.496H87.9333ZM87.9333 142.824C87.9333 146.137 88.6724 149.19 90.7018 151.403L95.1247 147.349C94.5141 146.683 93.9333 145.367 93.9333 142.824H87.9333ZM90.7018 151.403C92.7385 153.625 95.5487 154.536 98.637 154.536V148.536C96.734 148.536 95.728 148.007 95.1247 147.349L90.7018 151.403ZM98.637 154.536C101.74 154.536 104.567 153.631 106.609 151.403L102.186 147.349C101.588 148.001 100.575 148.536 98.637 148.536V154.536ZM106.609 151.403C108.638 149.19 109.377 146.137 109.377 142.824H103.377C103.377 145.367 102.796 146.683 102.186 147.349L106.609 151.403ZM109.377 142.824V128.496H103.377V142.824H109.377ZM106.377 131.496H108.969V125.496H106.377V131.496ZM105.969 128.496V142.932H111.969V128.496H105.969ZM105.969 142.932C105.969 146.02 105.187 147.879 104.085 149.011L108.382 153.198C110.927 150.586 111.969 146.997 111.969 142.932H105.969ZM104.071 149.025C102.974 150.166 101.308 150.912 98.637 150.912V156.912C102.495 156.912 105.893 155.787 108.396 153.184L104.071 149.025ZM125.001 130.8H128.001C128.001 129.143 126.658 127.8 125.001 127.8V130.8ZM116.145 130.8H113.145C113.145 132.457 114.488 133.8 116.145 133.8V130.8ZM116.145 128.496V125.496C114.488 125.496 113.145 126.839 113.145 128.496H116.145ZM136.521 128.496H139.521C139.521 126.839 138.178 125.496 136.521 125.496V128.496ZM136.521 130.8V133.8C138.178 133.8 139.521 132.457 139.521 130.8H136.521ZM127.665 130.8V127.8C126.008 127.8 124.665 129.143 124.665 130.8H127.665ZM127.665 153.696V156.696C129.322 156.696 130.665 155.353 130.665 153.696H127.665ZM125.001 153.696H122.001C122.001 155.353 123.344 156.696 125.001 156.696V153.696ZM125.001 127.8H116.145V133.8H125.001V127.8ZM119.145 130.8V128.496H113.145V130.8H119.145ZM116.145 131.496H136.521V125.496H116.145V131.496ZM133.521 128.496V130.8H139.521V128.496H133.521ZM136.521 127.8H127.665V133.8H136.521V127.8ZM124.665 130.8V153.696H130.665V130.8H124.665ZM127.665 150.696H125.001V156.696H127.665V150.696ZM128.001 153.696V130.8H122.001V153.696H128.001ZM146.404 151.104L148.553 149.011L146.404 151.104ZM143.668 128.496V125.496C142.012 125.496 140.668 126.839 140.668 128.496H143.668ZM146.332 128.496H149.332C149.332 126.839 147.989 125.496 146.332 125.496V128.496ZM159.796 149.376L162.008 151.403L159.796 149.376ZM161.776 128.496V125.496C160.12 125.496 158.776 126.839 158.776 128.496H161.776ZM164.368 128.496H167.368C167.368 126.839 166.025 125.496 164.368 125.496V128.496ZM161.632 151.104L159.484 149.011C159.479 149.015 159.475 149.02 159.47 149.025L161.632 151.104ZM154.036 150.912C151.368 150.912 149.679 150.166 148.553 149.011L144.256 153.198C146.778 155.786 150.177 156.912 154.036 156.912V150.912ZM148.553 149.011C147.45 147.879 146.668 146.02 146.668 142.932H140.668C140.668 146.997 141.711 150.586 144.256 153.198L148.553 149.011ZM146.668 142.932V128.496H140.668V142.932H146.668ZM143.668 131.496H146.332V125.496H143.668V131.496ZM143.332 128.496V142.824H149.332V128.496H143.332ZM143.332 142.824C143.332 146.137 144.072 149.19 146.101 151.403L150.524 147.349C149.913 146.683 149.332 145.367 149.332 142.824H143.332ZM146.101 151.403C148.138 153.625 150.948 154.536 154.036 154.536V148.536C152.133 148.536 151.127 148.007 150.524 147.349L146.101 151.403ZM154.036 154.536C157.139 154.536 159.966 153.631 162.008 151.403L157.585 147.349C156.987 148.001 155.974 148.536 154.036 148.536V154.536ZM162.008 151.403C164.037 149.19 164.776 146.137 164.776 142.824H158.776C158.776 145.367 158.196 146.683 157.585 147.349L162.008 151.403ZM164.776 142.824V128.496H158.776V142.824H164.776ZM161.776 131.496H164.368V125.496H161.776V131.496ZM161.368 128.496V142.932H167.368V128.496H161.368ZM161.368 142.932C161.368 146.02 160.587 147.879 159.484 149.011L163.781 153.198C166.326 150.586 167.368 146.997 167.368 142.932H161.368ZM159.47 149.025C158.373 150.166 156.707 150.912 154.036 150.912V156.912C157.894 156.912 161.292 155.787 163.795 153.184L159.47 149.025ZM193.204 153.696L190.759 155.435C191.322 156.226 192.233 156.696 193.204 156.696V153.696ZM187.444 145.596L189.889 143.858C189.258 142.97 188.195 142.494 187.113 142.615L187.444 145.596ZM178.66 145.704V142.704C177.003 142.704 175.66 144.047 175.66 145.704H178.66ZM178.66 153.696V156.696C180.317 156.696 181.66 155.353 181.66 153.696H178.66ZM175.996 153.696H172.996C172.996 155.353 174.339 156.696 175.996 156.696V153.696ZM175.996 128.496V125.496C174.339 125.496 172.996 126.839 172.996 128.496H175.996ZM192.988 130.8L191.056 133.095L192.988 130.8ZM194.212 142.14L191.797 140.361L191.792 140.368L194.212 142.14ZM189.964 145.056L189.038 142.203C188.129 142.498 187.415 143.208 187.115 144.116C186.816 145.023 186.966 146.019 187.521 146.797L189.964 145.056ZM196.12 153.696V156.696C197.243 156.696 198.272 156.069 198.787 155.071C199.301 154.072 199.215 152.87 198.563 151.955L196.12 153.696ZM191.08 141.78L193.005 144.082L191.08 141.78ZM191.08 132.456L189.156 134.758C189.164 134.764 189.172 134.771 189.18 134.778L191.08 132.456ZM178.66 130.8V127.8C177.003 127.8 175.66 129.143 175.66 130.8H178.66ZM178.66 143.436H175.66C175.66 145.093 177.003 146.436 178.66 146.436V143.436ZM195.649 151.958L189.889 143.858L184.999 147.335L190.759 155.435L195.649 151.958ZM187.113 142.615C186.582 142.674 186.021 142.704 185.428 142.704V148.704C186.228 148.704 187.01 148.663 187.775 148.578L187.113 142.615ZM185.428 142.704H178.66V148.704H185.428V142.704ZM175.66 145.704V153.696H181.66V145.704H175.66ZM178.66 150.696H175.996V156.696H178.66V150.696ZM178.996 153.696V128.496H172.996V153.696H178.996ZM175.996 131.496H185.428V125.496H175.996V131.496ZM185.428 131.496C188.185 131.496 189.936 132.152 191.056 133.095L194.921 128.506C192.393 126.377 189.104 125.496 185.428 125.496V131.496ZM191.056 133.095C192.112 133.984 192.724 135.207 192.724 137.136H198.724C198.724 133.69 197.513 130.688 194.921 128.506L191.056 133.095ZM192.724 137.136C192.724 138.569 192.367 139.587 191.797 140.361L196.627 143.92C198.073 141.958 198.724 139.64 198.724 137.136H192.724ZM191.792 140.368C191.239 141.123 190.39 141.764 189.038 142.203L190.891 147.91C193.235 147.149 195.217 145.846 196.633 143.912L191.792 140.368ZM187.521 146.797L193.677 155.437L198.563 151.955L192.407 143.315L187.521 146.797ZM196.12 150.696H193.204V156.696H196.12V150.696ZM185.356 146.436C188.246 146.436 190.948 145.802 193.005 144.082L189.156 139.479C188.573 139.966 187.458 140.436 185.356 140.436V146.436ZM193.005 144.082C195.118 142.314 196.06 139.861 196.06 137.136H190.06C190.06 138.396 189.683 139.038 189.156 139.479L193.005 144.082ZM196.06 137.136C196.06 134.392 195.135 131.897 192.98 130.134L189.18 134.778C189.666 135.175 190.06 135.801 190.06 137.136H196.06ZM193.005 130.155C190.948 128.434 188.246 127.8 185.356 127.8V133.8C187.458 133.8 188.573 134.27 189.156 134.758L193.005 130.155ZM185.356 127.8H178.66V133.8H185.356V127.8ZM175.66 130.8V143.436H181.66V130.8H175.66ZM178.66 146.436H185.356V140.436H178.66V146.436ZM223.432 151.392H226.432C226.432 149.735 225.089 148.392 223.432 148.392V151.392ZM223.432 153.696V156.696C225.089 156.696 226.432 155.353 226.432 153.696H223.432ZM205.612 153.696H202.612C202.612 155.353 203.955 156.696 205.612 156.696V153.696ZM205.612 128.496V125.496C203.955 125.496 202.612 126.839 202.612 128.496H205.612ZM222.892 128.496H225.892C225.892 126.839 224.549 125.496 222.892 125.496V128.496ZM222.892 130.8V133.8C224.549 133.8 225.892 132.457 225.892 130.8H222.892ZM208.276 130.8V127.8C206.619 127.8 205.276 129.143 205.276 130.8H208.276ZM208.276 139.764H205.276C205.276 141.421 206.619 142.764 208.276 142.764V139.764ZM221.308 139.764H224.308C224.308 138.107 222.965 136.764 221.308 136.764V139.764ZM221.308 142.032V145.032C222.965 145.032 224.308 143.689 224.308 142.032H221.308ZM208.276 142.032V139.032C206.619 139.032 205.276 140.375 205.276 142.032H208.276ZM208.276 151.392H205.276C205.276 153.049 206.619 154.392 208.276 154.392V151.392ZM220.432 151.392V153.696H226.432V151.392H220.432ZM223.432 150.696H205.612V156.696H223.432V150.696ZM208.612 153.696V128.496H202.612V153.696H208.612ZM205.612 131.496H222.892V125.496H205.612V131.496ZM219.892 128.496V130.8H225.892V128.496H219.892ZM222.892 127.8H208.276V133.8H222.892V127.8ZM205.276 130.8V139.764H211.276V130.8H205.276ZM208.276 142.764H221.308V136.764H208.276V142.764ZM218.308 139.764V142.032H224.308V139.764H218.308ZM221.308 139.032H208.276V145.032H221.308V139.032ZM205.276 142.032V151.392H211.276V142.032H205.276ZM208.276 154.392H223.432V148.392H208.276V154.392Z" fill="white"/>
<path d="M54.4 164.593C56.12 164.593 57.4667 165 58.44 165.813C59.4133 166.613 59.9 167.74 59.9 169.193C59.9 170.647 59.4133 171.78 58.44 172.593C57.4667 173.393 56.12 173.793 54.4 173.793H50.06V178.593H49.66V164.593H54.4ZM54.44 173.413C56.0667 173.413 57.3133 173.047 58.18 172.313C59.06 171.58 59.5 170.54 59.5 169.193C59.5 167.847 59.06 166.807 58.18 166.073C57.3133 165.34 56.0667 164.973 54.44 164.973H50.06V173.413H54.44ZM74.9839 178.213V178.593H65.6639V164.593H74.6839V164.973H66.0639V171.293H73.7839V171.673H66.0639V178.213H74.9839ZM90.9633 178.593L87.4033 173.653C86.9366 173.747 86.3899 173.793 85.7633 173.793H81.4233V178.593H81.0233V164.593H85.7633C87.4833 164.593 88.8299 165 89.8033 165.813C90.7766 166.613 91.2633 167.74 91.2633 169.193C91.2633 170.313 90.9633 171.253 90.3633 172.013C89.7633 172.76 88.9166 173.273 87.8233 173.553L91.4633 178.593H90.9633ZM85.8033 173.413C87.4299 173.413 88.6766 173.047 89.5433 172.313C90.4233 171.58 90.8633 170.54 90.8633 169.193C90.8633 167.847 90.4233 166.807 89.5433 166.073C88.6766 165.34 87.4299 164.973 85.8033 164.973H81.4233V173.413H85.8033ZM97.74 164.973V171.693H105.46V172.073H97.74V178.593H97.34V164.593H106.36V164.973H97.74ZM121.238 178.213V178.593H111.918V164.593H120.938V164.973H112.318V171.293H120.038V171.673H112.318V178.213H121.238ZM132.977 178.653C131.631 178.653 130.411 178.347 129.317 177.733C128.224 177.12 127.364 176.28 126.737 175.213C126.111 174.133 125.797 172.927 125.797 171.593C125.797 170.26 126.111 169.06 126.737 167.993C127.364 166.913 128.224 166.067 129.317 165.453C130.411 164.84 131.631 164.533 132.977 164.533C133.924 164.533 134.804 164.687 135.617 164.993C136.444 165.287 137.151 165.727 137.737 166.313L137.497 166.593C136.324 165.473 134.817 164.913 132.977 164.913C131.711 164.913 130.557 165.207 129.517 165.793C128.491 166.38 127.677 167.187 127.077 168.213C126.491 169.227 126.197 170.353 126.197 171.593C126.197 172.833 126.491 173.967 127.077 174.993C127.677 176.007 128.491 176.807 129.517 177.393C130.557 177.98 131.711 178.273 132.977 178.273C134.804 178.273 136.311 177.707 137.497 176.573L137.737 176.853C137.151 177.44 136.444 177.887 135.617 178.193C134.791 178.5 133.911 178.653 132.977 178.653ZM148.116 164.973H142.916V164.593H153.716V164.973H148.516V178.593H148.116V164.973ZM168.073 164.973H162.873V164.593H173.673V164.973H168.473V178.593H168.073V164.973ZM187.73 178.213V178.593H178.41V164.593H187.43V164.973H178.81V171.293H186.53V171.673H178.81V178.213H187.73ZM204.769 164.593V178.593H204.429L194.169 165.333V178.593H193.769V164.593H194.109L204.369 177.853V164.593H204.769ZM215.518 178.653C214.504 178.653 213.551 178.473 212.658 178.113C211.764 177.74 211.078 177.26 210.598 176.673L210.878 176.413C211.331 176.947 211.978 177.393 212.818 177.753C213.658 178.1 214.551 178.273 215.498 178.273C216.951 178.273 218.044 177.987 218.778 177.413C219.524 176.827 219.898 176.073 219.898 175.153C219.898 174.433 219.704 173.86 219.318 173.433C218.931 173.007 218.451 172.687 217.878 172.473C217.318 172.26 216.558 172.04 215.598 171.813C214.571 171.56 213.758 171.32 213.158 171.093C212.558 170.853 212.044 170.493 211.618 170.013C211.204 169.52 210.998 168.867 210.998 168.053C210.998 167.413 211.164 166.827 211.498 166.293C211.831 165.76 212.351 165.333 213.058 165.013C213.764 164.693 214.638 164.533 215.678 164.533C216.424 164.533 217.158 164.653 217.878 164.893C218.598 165.12 219.218 165.427 219.738 165.813L219.518 166.133C218.971 165.733 218.358 165.433 217.678 165.233C217.011 165.02 216.351 164.913 215.698 164.913C214.298 164.913 213.231 165.213 212.498 165.813C211.764 166.4 211.398 167.153 211.398 168.073C211.398 168.793 211.591 169.373 211.978 169.813C212.364 170.24 212.844 170.56 213.418 170.773C213.991 170.987 214.764 171.213 215.738 171.453C216.751 171.707 217.558 171.953 218.158 172.193C218.758 172.42 219.264 172.773 219.678 173.253C220.091 173.72 220.298 174.353 220.298 175.153C220.298 175.793 220.124 176.38 219.778 176.913C219.431 177.447 218.898 177.873 218.178 178.193C217.471 178.5 216.584 178.653 215.518 178.653ZM235.429 178.213V178.593H226.109V164.593H235.129V164.973H226.509V171.293H234.229V171.673H226.509V178.213H235.429Z" fill="white"/>
<path d="M58.44 165.813L57.1576 167.348C57.1617 167.351 57.1659 167.355 57.1701 167.358L58.44 165.813ZM58.44 172.593L59.7099 174.138C59.7141 174.135 59.7183 174.131 59.7224 174.128L58.44 172.593ZM50.06 173.793V171.793C48.9554 171.793 48.06 172.689 48.06 173.793H50.06ZM50.06 178.593V180.593C51.1646 180.593 52.06 179.698 52.06 178.593H50.06ZM49.66 178.593H47.66C47.66 179.698 48.5554 180.593 49.66 180.593V178.593ZM49.66 164.593V162.593C48.5554 162.593 47.66 163.489 47.66 164.593H49.66ZM58.18 172.313L56.8996 170.777C56.8958 170.78 56.8919 170.783 56.8881 170.786L58.18 172.313ZM58.18 166.073L56.8881 167.6C56.8919 167.603 56.8958 167.606 56.8996 167.61L58.18 166.073ZM50.06 164.973V162.973C48.9554 162.973 48.06 163.869 48.06 164.973H50.06ZM50.06 173.413H48.06C48.06 174.518 48.9554 175.413 50.06 175.413V173.413ZM54.4 166.593C55.8182 166.593 56.6541 166.927 57.1576 167.348L59.7224 164.278C58.2792 163.072 56.4218 162.593 54.4 162.593V166.593ZM57.1701 167.358C57.6072 167.718 57.9 168.235 57.9 169.193H61.9C61.9 167.244 61.2195 165.509 59.7099 164.268L57.1701 167.358ZM57.9 169.193C57.9 170.151 57.6069 170.683 57.1576 171.058L59.7224 174.128C61.2198 172.877 61.9 171.142 61.9 169.193H57.9ZM57.1701 171.048C56.6661 171.462 55.8253 171.793 54.4 171.793V175.793C56.4147 175.793 58.2672 175.324 59.7099 174.138L57.1701 171.048ZM54.4 171.793H50.06V175.793H54.4V171.793ZM48.06 173.793V178.593H52.06V173.793H48.06ZM50.06 176.593H49.66V180.593H50.06V176.593ZM51.66 178.593V164.593H47.66V178.593H51.66ZM49.66 166.593H54.4V162.593H49.66V166.593ZM54.44 175.413C56.3386 175.413 58.1156 174.988 59.4719 173.84L56.8881 170.786C56.511 171.105 55.7947 171.413 54.44 171.413V175.413ZM59.4604 173.85C60.8784 172.668 61.5 171.018 61.5 169.193H57.5C57.5 170.062 57.2416 170.492 56.8996 170.777L59.4604 173.85ZM61.5 169.193C61.5 167.369 60.8784 165.718 59.4604 164.537L56.8996 167.61C57.2416 167.895 57.5 168.324 57.5 169.193H61.5ZM59.4719 164.546C58.1156 163.399 56.3386 162.973 54.44 162.973V166.973C55.7947 166.973 56.511 167.281 56.8881 167.6L59.4719 164.546ZM54.44 162.973H50.06V166.973H54.44V162.973ZM48.06 164.973V173.413H52.06V164.973H48.06ZM50.06 175.413H54.44V171.413H50.06V175.413ZM74.9839 178.213H76.9839C76.9839 177.109 76.0885 176.213 74.9839 176.213V178.213ZM74.9839 178.593V180.593C76.0885 180.593 76.9839 179.698 76.9839 178.593H74.9839ZM65.6639 178.593H63.6639C63.6639 179.698 64.5593 180.593 65.6639 180.593V178.593ZM65.6639 164.593V162.593C64.5593 162.593 63.6639 163.489 63.6639 164.593H65.6639ZM74.6839 164.593H76.6839C76.6839 163.489 75.7885 162.593 74.6839 162.593V164.593ZM74.6839 164.973V166.973C75.7885 166.973 76.6839 166.078 76.6839 164.973H74.6839ZM66.0639 164.973V162.973C64.9593 162.973 64.0639 163.869 64.0639 164.973H66.0639ZM66.0639 171.293H64.0639C64.0639 172.398 64.9593 173.293 66.0639 173.293V171.293ZM73.7839 171.293H75.7839C75.7839 170.189 74.8885 169.293 73.7839 169.293V171.293ZM73.7839 171.673V173.673C74.8885 173.673 75.7839 172.778 75.7839 171.673H73.7839ZM66.0639 171.673V169.673C64.9593 169.673 64.0639 170.569 64.0639 171.673H66.0639ZM66.0639 178.213H64.0639C64.0639 179.318 64.9593 180.213 66.0639 180.213V178.213ZM72.9839 178.213V178.593H76.9839V178.213H72.9839ZM74.9839 176.593H65.6639V180.593H74.9839V176.593ZM67.6639 178.593V164.593H63.6639V178.593H67.6639ZM65.6639 166.593H74.6839V162.593H65.6639V166.593ZM72.6839 164.593V164.973H76.6839V164.593H72.6839ZM74.6839 162.973H66.0639V166.973H74.6839V162.973ZM64.0639 164.973V171.293H68.0639V164.973H64.0639ZM66.0639 173.293H73.7839V169.293H66.0639V173.293ZM71.7839 171.293V171.673H75.7839V171.293H71.7839ZM73.7839 169.673H66.0639V173.673H73.7839V169.673ZM64.0639 171.673V178.213H68.0639V171.673H64.0639ZM66.0639 180.213H74.9839V176.213H66.0639V180.213ZM90.9633 178.593L89.3407 179.762C89.7166 180.284 90.3203 180.593 90.9633 180.593V178.593ZM87.4033 173.653L89.0259 172.484C88.5675 171.848 87.7798 171.538 87.011 171.692L87.4033 173.653ZM81.4233 173.793V171.793C80.3187 171.793 79.4233 172.689 79.4233 173.793H81.4233ZM81.4233 178.593V180.593C82.5279 180.593 83.4233 179.698 83.4233 178.593H81.4233ZM81.0233 178.593H79.0233C79.0233 179.698 79.9187 180.593 81.0233 180.593V178.593ZM81.0233 164.593V162.593C79.9187 162.593 79.0233 163.489 79.0233 164.593H81.0233ZM89.8033 165.813L88.5208 167.348C88.525 167.351 88.5292 167.355 88.5334 167.358L89.8033 165.813ZM90.3633 172.013L91.9223 173.266C91.9259 173.261 91.9295 173.257 91.933 173.252L90.3633 172.013ZM87.8233 173.553L87.3271 171.616C86.6862 171.78 86.1679 172.25 85.9427 172.872C85.7175 173.495 85.8146 174.188 86.2019 174.724L87.8233 173.553ZM91.4633 178.593V180.593C92.2143 180.593 92.9021 180.172 93.244 179.504C93.5859 178.835 93.5244 178.031 93.0846 177.422L91.4633 178.593ZM89.5433 172.313L88.2629 170.777C88.2591 170.78 88.2552 170.783 88.2514 170.786L89.5433 172.313ZM89.5433 166.073L88.2514 167.6C88.2552 167.603 88.2591 167.606 88.2629 167.61L89.5433 166.073ZM81.4233 164.973V162.973C80.3187 162.973 79.4233 163.869 79.4233 164.973H81.4233ZM81.4233 173.413H79.4233C79.4233 174.518 80.3187 175.413 81.4233 175.413V173.413ZM92.5859 177.424L89.0259 172.484L85.7807 174.822L89.3407 179.762L92.5859 177.424ZM87.011 171.692C86.7067 171.753 86.297 171.793 85.7633 171.793V175.793C86.4829 175.793 87.1666 175.74 87.7955 175.614L87.011 171.692ZM85.7633 171.793H81.4233V175.793H85.7633V171.793ZM79.4233 173.793V178.593H83.4233V173.793H79.4233ZM81.4233 176.593H81.0233V180.593H81.4233V176.593ZM83.0233 178.593V164.593H79.0233V178.593H83.0233ZM81.0233 166.593H85.7633V162.593H81.0233V166.593ZM85.7633 166.593C87.1815 166.593 88.0174 166.927 88.5208 167.348L91.0857 164.278C89.6425 163.072 87.7851 162.593 85.7633 162.593V166.593ZM88.5334 167.358C88.9705 167.718 89.2633 168.235 89.2633 169.193H93.2633C93.2633 167.244 92.5827 165.509 91.0732 164.268L88.5334 167.358ZM89.2633 169.193C89.2633 169.937 89.0724 170.421 88.7935 170.774L91.933 173.252C92.8542 172.086 93.2633 170.689 93.2633 169.193H89.2633ZM88.8043 170.76C88.5212 171.113 88.0787 171.423 87.3271 171.616L88.3195 175.491C89.7545 175.123 91.0054 174.407 91.9223 173.266L88.8043 170.76ZM86.2019 174.724L89.8419 179.764L93.0846 177.422L89.4446 172.382L86.2019 174.724ZM91.4633 176.593H90.9633V180.593H91.4633V176.593ZM85.8033 175.413C87.7019 175.413 89.4789 174.988 90.8352 173.84L88.2514 170.786C87.8743 171.105 87.158 171.413 85.8033 171.413V175.413ZM90.8237 173.85C92.2417 172.668 92.8633 171.018 92.8633 169.193H88.8633C88.8633 170.062 88.6049 170.492 88.2629 170.777L90.8237 173.85ZM92.8633 169.193C92.8633 167.369 92.2417 165.718 90.8237 164.537L88.2629 167.61C88.6049 167.895 88.8633 168.324 88.8633 169.193H92.8633ZM90.8352 164.546C89.4789 163.399 87.7019 162.973 85.8033 162.973V166.973C87.158 166.973 87.8743 167.281 88.2514 167.6L90.8352 164.546ZM85.8033 162.973H81.4233V166.973H85.8033V162.973ZM79.4233 164.973V173.413H83.4233V164.973H79.4233ZM81.4233 175.413H85.8033V171.413H81.4233V175.413ZM97.74 164.973V162.973C96.635 162.973 95.7397 163.869 95.7397 164.973H97.74ZM97.74 171.693H95.7397C95.7397 172.798 96.635 173.693 97.74 173.693V171.693ZM105.46 171.693H107.46C107.46 170.589 106.564 169.693 105.46 169.693V171.693ZM105.46 172.073V174.073C106.564 174.073 107.46 173.178 107.46 172.073H105.46ZM97.74 172.073V170.073C96.635 170.073 95.7397 170.969 95.7397 172.073H97.74ZM97.74 178.593V180.593C98.844 180.593 99.74 179.698 99.74 178.593H97.74ZM97.34 178.593H95.3397C95.3397 179.698 96.235 180.593 97.34 180.593V178.593ZM97.34 164.593V162.593C96.235 162.593 95.3397 163.489 95.3397 164.593H97.34ZM106.36 164.593H108.36C108.36 163.489 107.464 162.593 106.36 162.593V164.593ZM106.36 164.973V166.973C107.464 166.973 108.36 166.078 108.36 164.973H106.36ZM95.7397 164.973V171.693H99.74V164.973H95.7397ZM97.74 173.693H105.46V169.693H97.74V173.693ZM103.46 171.693V172.073H107.46V171.693H103.46ZM105.46 170.073H97.74V174.073H105.46V170.073ZM95.7397 172.073V178.593H99.74V172.073H95.7397ZM97.74 176.593H97.34V180.593H97.74V176.593ZM99.34 178.593V164.593H95.3397V178.593H99.34ZM97.34 166.593H106.36V162.593H97.34V166.593ZM104.36 164.593V164.973H108.36V164.593H104.36ZM106.36 162.973H97.74V166.973H106.36V162.973ZM121.238 178.213H123.238C123.238 177.109 122.342 176.213 121.238 176.213V178.213ZM121.238 178.593V180.593C122.342 180.593 123.238 179.698 123.238 178.593H121.238ZM111.918 178.593H109.918C109.918 179.698 110.813 180.593 111.918 180.593V178.593ZM111.918 164.593V162.593C110.813 162.593 109.918 163.489 109.918 164.593H111.918ZM120.938 164.593H122.938C122.938 163.489 122.042 162.593 120.938 162.593V164.593ZM120.938 164.973V166.973C122.042 166.973 122.938 166.078 122.938 164.973H120.938ZM112.318 164.973V162.973C111.213 162.973 110.318 163.869 110.318 164.973H112.318ZM112.318 171.293H110.318C110.318 172.398 111.213 173.293 112.318 173.293V171.293ZM120.038 171.293H122.038C122.038 170.189 121.142 169.293 120.038 169.293V171.293ZM120.038 171.673V173.673C121.142 173.673 122.038 172.778 122.038 171.673H120.038ZM112.318 171.673V169.673C111.213 169.673 110.318 170.569 110.318 171.673H112.318ZM112.318 178.213H110.318C110.318 179.318 111.213 180.213 112.318 180.213V178.213ZM119.238 178.213V178.593H123.238V178.213H119.238ZM121.238 176.593H111.918V180.593H121.238V176.593ZM113.918 178.593V164.593H109.918V178.593H113.918ZM111.918 166.593H120.938V162.593H111.918V166.593ZM118.938 164.593V164.973H122.938V164.593H118.938ZM120.938 162.973H112.318V166.973H120.938V162.973ZM110.318 164.973V171.293H114.318V164.973H110.318ZM112.318 173.293H120.038V169.293H112.318V173.293ZM118.038 171.293V171.673H122.038V171.293H118.038ZM120.038 169.673H112.318V173.673H120.038V169.673ZM110.318 171.673V178.213H114.318V171.673H110.318ZM112.318 180.213H121.238V176.213H112.318V180.213ZM129.317 177.733L130.296 175.989L129.317 177.733ZM126.737 175.213L125.007 176.217L125.013 176.226L126.737 175.213ZM126.737 167.993L128.462 169.006L128.467 168.997L126.737 167.993ZM129.317 165.453L130.296 167.197L129.317 165.453ZM135.617 164.993L134.912 166.865C134.924 166.869 134.936 166.874 134.948 166.878L135.617 164.993ZM137.737 166.313L139.256 167.615C139.936 166.821 139.89 165.638 139.151 164.899L137.737 166.313ZM137.497 166.593L136.116 168.04C136.513 168.419 137.049 168.618 137.597 168.591C138.145 168.563 138.658 168.312 139.016 167.895L137.497 166.593ZM129.517 165.793L128.535 164.051L128.525 164.057L129.517 165.793ZM127.077 168.213L125.35 167.204L125.346 167.211L127.077 168.213ZM127.077 174.993L125.341 175.985C125.346 175.994 125.351 176.003 125.356 176.012L127.077 174.993ZM129.517 177.393L128.525 179.13L128.535 179.135L129.517 177.393ZM137.497 176.573L139.016 175.272C138.658 174.855 138.145 174.603 137.597 174.576C137.048 174.548 136.513 174.748 136.116 175.127L137.497 176.573ZM137.737 176.853L139.151 178.267C139.89 177.528 139.936 176.345 139.256 175.552L137.737 176.853ZM135.617 178.193L134.922 176.318L135.617 178.193ZM132.977 176.653C131.947 176.653 131.068 176.422 130.296 175.989L128.339 179.477C129.753 180.271 131.314 180.653 132.977 180.653V176.653ZM130.296 175.989C129.507 175.546 128.906 174.957 128.462 174.2L125.013 176.226C125.821 177.603 126.941 178.693 128.339 179.477L130.296 175.989ZM128.467 174.209C128.029 173.455 127.797 172.599 127.797 171.593H123.797C123.797 173.254 124.192 174.811 125.007 176.217L128.467 174.209ZM127.797 171.593C127.797 170.587 128.029 169.742 128.462 169.006L125.013 166.98C124.192 168.378 123.797 169.932 123.797 171.593H127.797ZM128.467 168.997C128.913 168.228 129.513 167.636 130.296 167.197L128.339 163.709C126.934 164.497 125.814 165.598 125.007 166.989L128.467 168.997ZM130.296 167.197C131.068 166.764 131.947 166.533 132.977 166.533V162.533C131.314 162.533 129.753 162.916 128.339 163.709L130.296 167.197ZM132.977 166.533C133.704 166.533 134.343 166.65 134.912 166.865L136.323 163.122C135.265 162.723 134.143 162.533 132.977 162.533V166.533ZM134.948 166.878C135.511 167.078 135.959 167.363 136.323 167.727L139.151 164.899C138.342 164.09 137.377 163.495 136.286 163.108L134.948 166.878ZM136.219 165.012L135.979 165.292L139.016 167.895L139.256 167.615L136.219 165.012ZM138.878 165.146C137.282 163.623 135.257 162.913 132.977 162.913V166.913C134.378 166.913 135.366 167.323 136.116 168.04L138.878 165.146ZM132.977 162.913C131.388 162.913 129.893 163.285 128.535 164.051L130.5 167.535C131.222 167.128 132.033 166.913 132.977 166.913V162.913ZM128.525 164.057C127.192 164.818 126.126 165.877 125.35 167.204L128.804 169.222C129.228 168.496 129.789 167.941 130.509 167.53L128.525 164.057ZM125.346 167.211C124.573 168.547 124.197 170.023 124.197 171.593H128.197C128.197 170.684 128.408 169.906 128.808 169.215L125.346 167.211ZM124.197 171.593C124.197 173.164 124.573 174.642 125.341 175.985L128.814 174.001C128.408 173.291 128.197 172.503 128.197 171.593H124.197ZM125.356 176.012C126.134 177.325 127.199 178.372 128.525 179.13L130.509 175.657C129.782 175.241 129.221 174.688 128.798 173.974L125.356 176.012ZM128.535 179.135C129.893 179.901 131.388 180.273 132.977 180.273V176.273C132.033 176.273 131.222 176.058 130.5 175.651L128.535 179.135ZM132.977 180.273C135.255 180.273 137.276 179.55 138.879 178.02L136.116 175.127C135.345 175.863 134.353 176.273 132.977 176.273V180.273ZM135.979 177.875L136.219 178.155L139.256 175.552L139.016 175.272L135.979 177.875ZM136.323 175.439C135.953 175.809 135.496 176.105 134.922 176.318L136.313 180.068C137.392 179.668 138.349 179.07 139.151 178.267L136.323 175.439ZM134.922 176.318C134.33 176.537 133.687 176.653 132.977 176.653V180.653C134.134 180.653 135.251 180.462 136.313 180.068L134.922 176.318ZM148.116 164.973H150.116C150.116 163.869 149.221 162.973 148.116 162.973V164.973ZM142.916 164.973H140.916C140.916 166.078 141.811 166.973 142.916 166.973V164.973ZM142.916 164.593V162.593C141.811 162.593 140.916 163.489 140.916 164.593H142.916ZM153.716 164.593H155.716C155.716 163.489 154.821 162.593 153.716 162.593V164.593ZM153.716 164.973V166.973C154.821 166.973 155.716 166.078 155.716 164.973H153.716ZM148.516 164.973V162.973C147.411 162.973 146.516 163.869 146.516 164.973H148.516ZM148.516 178.593V180.593C149.621 180.593 150.516 179.698 150.516 178.593H148.516ZM148.116 178.593H146.116C146.116 179.698 147.011 180.593 148.116 180.593V178.593ZM148.116 162.973H142.916V166.973H148.116V162.973ZM144.916 164.973V164.593H140.916V164.973H144.916ZM142.916 166.593H153.716V162.593H142.916V166.593ZM151.716 164.593V164.973H155.716V164.593H151.716ZM153.716 162.973H148.516V166.973H153.716V162.973ZM146.516 164.973V178.593H150.516V164.973H146.516ZM148.516 176.593H148.116V180.593H148.516V176.593ZM150.116 178.593V164.973H146.116V178.593H150.116ZM168.073 164.973H170.073C170.073 163.869 169.178 162.973 168.073 162.973V164.973ZM162.873 164.973H160.873C160.873 166.078 161.768 166.973 162.873 166.973V164.973ZM162.873 164.593V162.593C161.768 162.593 160.873 163.489 160.873 164.593H162.873ZM173.673 164.593H175.673C175.673 163.489 174.778 162.593 173.673 162.593V164.593ZM173.673 164.973V166.973C174.778 166.973 175.673 166.078 175.673 164.973H173.673ZM168.473 164.973V162.973C167.368 162.973 166.473 163.869 166.473 164.973H168.473ZM168.473 178.593V180.593C169.578 180.593 170.473 179.698 170.473 178.593H168.473ZM168.073 178.593H166.073C166.073 179.698 166.968 180.593 168.073 180.593V178.593ZM168.073 162.973H162.873V166.973H168.073V162.973ZM164.873 164.973V164.593H160.873V164.973H164.873ZM162.873 166.593H173.673V162.593H162.873V166.593ZM171.673 164.593V164.973H175.673V164.593H171.673ZM173.673 162.973H168.473V166.973H173.673V162.973ZM166.473 164.973V178.593H170.473V164.973H166.473ZM168.473 176.593H168.073V180.593H168.473V176.593ZM170.073 178.593V164.973H166.073V178.593H170.073ZM187.73 178.213H189.73C189.73 177.109 188.835 176.213 187.73 176.213V178.213ZM187.73 178.593V180.593C188.835 180.593 189.73 179.698 189.73 178.593H187.73ZM178.41 178.593H176.41C176.41 179.698 177.305 180.593 178.41 180.593V178.593ZM178.41 164.593V162.593C177.305 162.593 176.41 163.489 176.41 164.593H178.41ZM187.43 164.593H189.43C189.43 163.489 188.535 162.593 187.43 162.593V164.593ZM187.43 164.973V166.973C188.535 166.973 189.43 166.078 189.43 164.973H187.43ZM178.81 164.973V162.973C177.705 162.973 176.81 163.869 176.81 164.973H178.81ZM178.81 171.293H176.81C176.81 172.398 177.705 173.293 178.81 173.293V171.293ZM186.53 171.293H188.53C188.53 170.189 187.635 169.293 186.53 169.293V171.293ZM186.53 171.673V173.673C187.635 173.673 188.53 172.778 188.53 171.673H186.53ZM178.81 171.673V169.673C177.705 169.673 176.81 170.569 176.81 171.673H178.81ZM178.81 178.213H176.81C176.81 179.318 177.705 180.213 178.81 180.213V178.213ZM185.73 178.213V178.593H189.73V178.213H185.73ZM187.73 176.593H178.41V180.593H187.73V176.593ZM180.41 178.593V164.593H176.41V178.593H180.41ZM178.41 166.593H187.43V162.593H178.41V166.593ZM185.43 164.593V164.973H189.43V164.593H185.43ZM187.43 162.973H178.81V166.973H187.43V162.973ZM176.81 164.973V171.293H180.81V164.973H176.81ZM178.81 173.293H186.53V169.293H178.81V173.293ZM184.53 171.293V171.673H188.53V171.293H184.53ZM186.53 169.673H178.81V173.673H186.53V169.673ZM176.81 171.673V178.213H180.81V171.673H176.81ZM178.81 180.213H187.73V176.213H178.81V180.213ZM204.769 164.593H206.769C206.769 163.489 205.874 162.593 204.769 162.593V164.593ZM204.769 178.593V180.593C205.874 180.593 206.769 179.698 206.769 178.593H204.769ZM204.429 178.593L202.848 179.817C203.226 180.307 203.81 180.593 204.429 180.593V178.593ZM194.169 165.333L195.751 164.109C195.228 163.433 194.332 163.164 193.523 163.441C192.713 163.717 192.169 164.478 192.169 165.333H194.169ZM194.169 178.593V180.593C195.274 180.593 196.169 179.698 196.169 178.593H194.169ZM193.769 178.593H191.769C191.769 179.698 192.665 180.593 193.769 180.593V178.593ZM193.769 164.593V162.593C192.665 162.593 191.769 163.489 191.769 164.593H193.769ZM194.109 164.593L195.691 163.369C195.312 162.88 194.728 162.593 194.109 162.593V164.593ZM204.369 177.853L202.788 179.077C203.311 179.754 204.207 180.022 205.016 179.746C205.825 179.469 206.369 178.709 206.369 177.853H204.369ZM204.369 164.593V162.593C203.265 162.593 202.369 163.489 202.369 164.593H204.369ZM202.769 164.593V178.593H206.769V164.593H202.769ZM204.769 176.593H204.429V180.593H204.769V176.593ZM206.011 177.369L195.751 164.109L192.588 166.557L202.848 179.817L206.011 177.369ZM192.169 165.333V178.593H196.169V165.333H192.169ZM194.169 176.593H193.769V180.593H194.169V176.593ZM195.769 178.593V164.593H191.769V178.593H195.769ZM193.769 166.593H194.109V162.593H193.769V166.593ZM192.528 165.817L202.788 179.077L205.951 176.629L195.691 163.369L192.528 165.817ZM206.369 177.853V164.593H202.369V177.853H206.369ZM204.369 166.593H204.769V162.593H204.369V166.593ZM212.658 178.113L211.886 179.959C211.894 179.962 211.902 179.965 211.91 179.968L212.658 178.113ZM210.598 176.673L209.237 175.208C208.463 175.926 208.381 177.122 209.05 177.94L210.598 176.673ZM210.878 176.413L212.401 175.118C212.048 174.702 211.54 174.449 210.995 174.417C210.451 174.384 209.916 174.576 209.517 174.948L210.878 176.413ZM212.818 177.753L212.03 179.591C212.038 179.595 212.046 179.598 212.055 179.602L212.818 177.753ZM218.778 177.413L220.009 178.989L220.013 178.986L218.778 177.413ZM219.318 173.433L217.836 174.776L219.318 173.433ZM217.878 172.473L217.166 174.342C217.17 174.344 217.175 174.346 217.18 174.348L217.878 172.473ZM215.598 171.813L215.118 173.755C215.125 173.757 215.131 173.758 215.138 173.76L215.598 171.813ZM213.158 171.093L212.415 172.95C212.427 172.955 212.439 172.96 212.451 172.964L213.158 171.093ZM211.618 170.013L210.084 171.298C210.097 171.313 210.11 171.327 210.123 171.342L211.618 170.013ZM211.498 166.293L213.193 167.353L211.498 166.293ZM217.878 164.893L217.245 166.791C217.256 166.794 217.266 166.798 217.277 166.801L217.878 164.893ZM219.738 165.813L221.386 166.946C221.995 166.06 221.794 164.85 220.931 164.208L219.738 165.813ZM219.518 166.133L218.336 167.747C218.773 168.066 219.32 168.195 219.853 168.105C220.386 168.014 220.859 167.712 221.166 167.266L219.518 166.133ZM217.678 165.233L217.068 167.138C217.083 167.143 217.098 167.147 217.113 167.152L217.678 165.233ZM212.498 165.813L213.747 167.375C213.753 167.37 213.758 167.366 213.764 167.361L212.498 165.813ZM211.978 169.813L210.475 171.133C210.482 171.141 210.489 171.149 210.496 171.156L211.978 169.813ZM213.418 170.773L214.115 168.899L213.418 170.773ZM215.738 171.453L216.223 169.513L216.216 169.511L215.738 171.453ZM218.158 172.193L217.415 174.05C217.427 174.055 217.439 174.06 217.451 174.064L218.158 172.193ZM219.678 173.253L218.162 174.558C218.168 174.565 218.174 174.572 218.18 174.579L219.678 173.253ZM219.778 176.913L218.101 175.823L219.778 176.913ZM218.178 178.193L218.974 180.028C218.979 180.026 218.984 180.023 218.99 180.021L218.178 178.193ZM215.518 176.653C214.747 176.653 214.049 176.517 213.405 176.258L211.91 179.968C213.053 180.429 214.262 180.653 215.518 180.653V176.653ZM213.429 176.268C212.756 175.987 212.368 175.679 212.145 175.407L209.05 177.94C209.787 178.841 210.772 179.493 211.886 179.959L213.429 176.268ZM211.958 178.139L212.238 177.879L209.517 174.948L209.237 175.208L211.958 178.139ZM209.354 177.708C210.059 178.538 210.989 179.146 212.03 179.591L213.605 175.915C212.966 175.641 212.603 175.355 212.401 175.118L209.354 177.708ZM212.055 179.602C213.147 180.053 214.3 180.273 215.498 180.273V176.273C214.801 176.273 214.168 176.147 213.58 175.904L212.055 179.602ZM215.498 180.273C217.162 180.273 218.775 179.954 220.009 178.989L217.546 175.838C217.313 176.019 216.74 176.273 215.498 176.273V180.273ZM220.013 178.986C221.224 178.034 221.898 176.71 221.898 175.153H217.898C217.898 175.437 217.824 175.619 217.542 175.841L220.013 178.986ZM221.898 175.153C221.898 174.066 221.597 172.97 220.799 172.09L217.836 174.776C217.837 174.778 217.839 174.78 217.841 174.784C217.844 174.788 217.85 174.8 217.857 174.822C217.873 174.868 217.898 174.97 217.898 175.153H221.898ZM220.799 172.09C220.184 171.411 219.429 170.917 218.575 170.599L217.18 174.348C217.472 174.456 217.677 174.602 217.836 174.776L220.799 172.09ZM218.589 170.604C217.912 170.346 217.056 170.102 216.057 169.867L215.138 173.76C216.059 173.977 216.723 174.174 217.166 174.342L218.589 170.604ZM216.077 169.871C215.085 169.627 214.358 169.409 213.864 169.222L212.451 172.964C213.157 173.231 214.057 173.493 215.118 173.755L216.077 169.871ZM213.9 169.236C213.587 169.111 213.331 168.931 213.112 168.684L210.123 171.342C210.757 172.055 211.528 172.596 212.415 172.95L213.9 169.236ZM213.151 168.729C213.111 168.682 212.998 168.524 212.998 168.053H208.998C208.998 169.209 209.297 170.358 210.084 171.298L213.151 168.729ZM212.998 168.053C212.998 167.781 213.062 167.563 213.193 167.353L209.802 165.233C209.266 166.09 208.998 167.045 208.998 168.053H212.998ZM213.193 167.353C213.274 167.225 213.451 167.031 213.883 166.835L212.232 163.191C211.251 163.636 210.388 164.295 209.802 165.233L213.193 167.353ZM213.883 166.835C214.258 166.665 214.83 166.533 215.678 166.533V162.533C214.445 162.533 213.271 162.721 212.232 163.191L213.883 166.835ZM215.678 166.533C216.206 166.533 216.726 166.617 217.245 166.791L218.51 162.996C217.589 162.689 216.643 162.533 215.678 162.533V166.533ZM217.277 166.801C217.818 166.971 218.23 167.185 218.544 167.418L220.931 164.208C220.205 163.668 219.377 163.268 218.478 162.985L217.277 166.801ZM218.089 164.68L217.869 165L221.166 167.266L221.386 166.946L218.089 164.68ZM220.699 164.519C219.957 163.976 219.133 163.577 218.242 163.314L217.113 167.152C217.582 167.29 217.985 167.49 218.336 167.747L220.699 164.519ZM218.287 163.328C217.437 163.056 216.572 162.913 215.698 162.913V166.913C216.13 166.913 216.584 166.983 217.068 167.138L218.287 163.328ZM215.698 162.913C214.049 162.913 212.458 163.262 211.231 164.265L213.764 167.361C214.004 167.165 214.546 166.913 215.698 166.913V162.913ZM211.248 164.251C210.052 165.208 209.398 166.531 209.398 168.073H213.398C213.398 167.775 213.477 167.591 213.747 167.375L211.248 164.251ZM209.398 168.073C209.398 169.163 209.699 170.25 210.475 171.133L213.48 168.493C213.47 168.482 213.456 168.464 213.44 168.416C213.422 168.362 213.398 168.255 213.398 168.073H209.398ZM210.496 171.156C211.111 171.835 211.866 172.33 212.72 172.648L214.115 168.899C213.823 168.79 213.618 168.645 213.459 168.47L210.496 171.156ZM212.72 172.648C213.395 172.899 214.252 173.147 215.259 173.395L216.216 169.511C215.277 169.28 214.586 169.074 214.115 168.899L212.72 172.648ZM215.252 173.393C216.224 173.636 216.934 173.858 217.415 174.05L218.9 170.336C218.181 170.049 217.277 169.777 216.223 169.513L215.252 173.393ZM217.451 174.064C217.742 174.174 217.97 174.335 218.162 174.558L221.193 171.948C220.559 171.212 219.773 170.665 218.864 170.322L217.451 174.064ZM218.18 174.579C218.186 174.586 218.298 174.699 218.298 175.153H222.298C222.298 174.007 221.995 172.854 221.175 171.927L218.18 174.579ZM218.298 175.153C218.298 175.409 218.235 175.616 218.101 175.823L221.454 178.003C222.013 177.143 222.298 176.178 222.298 175.153H218.298ZM218.101 175.823C218.01 175.963 217.816 176.165 217.365 176.366L218.99 180.021C219.979 179.581 220.852 178.931 221.454 178.003L218.101 175.823ZM217.381 176.358C217.003 176.523 216.409 176.653 215.518 176.653V180.653C216.76 180.653 217.939 180.477 218.974 180.028L217.381 176.358ZM235.429 178.213H237.429C237.429 177.109 236.534 176.213 235.429 176.213V178.213ZM235.429 178.593V180.593C236.534 180.593 237.429 179.698 237.429 178.593H235.429ZM226.109 178.593H224.109C224.109 179.698 225.005 180.593 226.109 180.593V178.593ZM226.109 164.593V162.593C225.005 162.593 224.109 163.489 224.109 164.593H226.109ZM235.129 164.593H237.129C237.129 163.489 236.234 162.593 235.129 162.593V164.593ZM235.129 164.973V166.973C236.234 166.973 237.129 166.078 237.129 164.973H235.129ZM226.509 164.973V162.973C225.405 162.973 224.509 163.869 224.509 164.973H226.509ZM226.509 171.293H224.509C224.509 172.398 225.405 173.293 226.509 173.293V171.293ZM234.229 171.293H236.229C236.229 170.189 235.334 169.293 234.229 169.293V171.293ZM234.229 171.673V173.673C235.334 173.673 236.229 172.778 236.229 171.673H234.229ZM226.509 171.673V169.673C225.405 169.673 224.509 170.569 224.509 171.673H226.509ZM226.509 178.213H224.509C224.509 179.318 225.405 180.213 226.509 180.213V178.213ZM233.429 178.213V178.593H237.429V178.213H233.429ZM235.429 176.593H226.109V180.593H235.429V176.593ZM228.109 178.593V164.593H224.109V178.593H228.109ZM226.109 166.593H235.129V162.593H226.109V166.593ZM233.129 164.593V164.973H237.129V164.593H233.129ZM235.129 162.973H226.509V166.973H235.129V162.973ZM224.509 164.973V171.293H228.509V164.973H224.509ZM226.509 173.293H234.229V169.293H226.509V173.293ZM232.229 171.293V171.673H236.229V171.293H232.229ZM234.229 169.673H226.509V173.673H234.229V169.673ZM224.509 171.673V178.213H228.509V171.673H224.509ZM226.509 180.213H235.429V176.213H226.509V180.213Z" fill="white"/>
</mask>
<g mask="url(#mask0_157_2495)">
<path d="M0 143.673L9.4667 144.936C18.9333 146.237 37.8667 148.762 56.8 146.16C75.7333 143.559 94.6667 135.754 113.6 136.29C132.533 136.787 151.467 145.586 170.4 146.16C189.333 146.734 208.267 139.083 227.2 135.142C246.133 131.163 265.067 130.934 274.533 130.781L284 130.666V321.186H274.533C265.067 321.186 246.133 321.186 227.2 321.186C208.267 321.186 189.333 321.186 170.4 321.186C151.467 321.186 132.533 321.186 113.6 321.186C94.6667 321.186 75.7333 321.186 56.8 321.186C37.8667 321.186 18.9333 321.186 9.4667 321.186H0V143.673Z" fill="white"/>
</g>
</g>
<defs>
<filter id="filter0_i_157_2495" x="0" y="0" width="284" height="325.549" filterUnits="userSpaceOnUse" color-interpolation-filters="sRGB">
<feFlood flood-opacity="0" result="BackgroundImageFix"/>
<feBlend mode="normal" in="SourceGraphic" in2="BackgroundImageFix" result="shape"/>
<feColorMatrix in="SourceAlpha" type="matrix" values="0 0 0 0 0 0 0 0 0 0 0 0 0 0 0 0 0 0 127 0" result="hardAlpha"/>
<feOffset dy="4"/>
<feGaussianBlur stdDeviation="2"/>
<feComposite in2="hardAlpha" operator="arithmetic" k2="-1" k3="1"/>
<feColorMatrix type="matrix" values="0 0 0 0 0 0 0 0 0 0 0 0 0 0 0 0 0 0 0.25 0"/>
<feBlend mode="normal" in2="shape" result="effect1_innerShadow_157_2495"/>
</filter>
<clipPath id="clip0_157_2495">
<rect width="284" height="322" fill="white"/>
</clipPath>
</defs>
</svg>
