<svg width="284" height="322" viewBox="0 0 284 322" fill="none" xmlns="http://www.w3.org/2000/svg">
<g clip-path="url(#clip0_157_2426)">
<path d="M284 0H0V322H284V0Z" fill="#001220"/>
<path d="M58.536 129.8C61.752 129.8 64.272 130.568 66.096 132.104C67.92 133.64 68.832 135.752 68.832 138.44C68.832 141.128 67.92 143.24 66.096 144.776C64.272 146.288 61.752 147.044 58.536 147.044H51.768V155H49.104V129.8H58.536ZM58.464 144.704C60.96 144.704 62.868 144.164 64.188 143.084C65.508 141.98 66.168 140.432 66.168 138.44C66.168 136.4 65.508 134.84 64.188 133.76C62.868 132.656 60.96 132.104 58.464 132.104H51.768V144.704H58.464ZM95.4003 155L89.6403 146.9C88.9923 146.972 88.3203 147.008 87.6243 147.008H80.8563V155H78.1923V129.8H87.6243C90.8403 129.8 93.3603 130.568 95.1843 132.104C97.0083 133.64 97.9203 135.752 97.9203 138.44C97.9203 140.408 97.4163 142.076 96.4083 143.444C95.4243 144.788 94.0083 145.76 92.1603 146.36L98.3163 155H95.4003ZM87.5523 144.74C90.0483 144.74 91.9563 144.188 93.2763 143.084C94.5963 141.98 95.2563 140.432 95.2563 138.44C95.2563 136.4 94.5963 134.84 93.2763 133.76C91.9563 132.656 90.0483 132.104 87.5523 132.104H80.8563V144.74H87.5523ZM125.628 152.696V155H107.808V129.8H125.088V132.104H110.472V141.068H123.504V143.336H110.472V152.696H125.628ZM142.438 155.216C140.566 155.216 138.766 154.916 137.038 154.316C135.334 153.716 134.014 152.924 133.078 151.94L134.122 149.888C135.034 150.8 136.246 151.544 137.758 152.12C139.27 152.672 140.83 152.948 142.438 152.948C144.694 152.948 146.386 152.54 147.514 151.724C148.642 150.884 149.206 149.804 149.206 148.484C149.206 147.476 148.894 146.672 148.27 146.072C147.67 145.472 146.926 145.016 146.038 144.704C145.15 144.368 143.914 144.008 142.33 143.624C140.434 143.144 138.922 142.688 137.794 142.256C136.666 141.8 135.694 141.116 134.878 140.204C134.086 139.292 133.69 138.056 133.69 136.496C133.69 135.224 134.026 134.072 134.698 133.04C135.37 131.984 136.402 131.144 137.794 130.52C139.186 129.896 140.914 129.584 142.978 129.584C144.418 129.584 145.822 129.788 147.19 130.196C148.582 130.58 149.782 131.12 150.79 131.816L149.89 133.94C148.834 133.244 147.706 132.728 146.506 132.392C145.306 132.032 144.13 131.852 142.978 131.852C140.77 131.852 139.102 132.284 137.974 133.148C136.87 133.988 136.318 135.08 136.318 136.424C136.318 137.432 136.618 138.248 137.218 138.872C137.842 139.472 138.61 139.94 139.522 140.276C140.458 140.588 141.706 140.936 143.266 141.32C145.114 141.776 146.602 142.232 147.73 142.688C148.882 143.12 149.854 143.792 150.646 144.704C151.438 145.592 151.834 146.804 151.834 148.34C151.834 149.612 151.486 150.776 150.79 151.832C150.118 152.864 149.074 153.692 147.658 154.316C146.242 154.916 144.502 155.216 142.438 155.216ZM179.058 152.696V155H161.238V129.8H178.518V132.104H163.902V141.068H176.934V143.336H163.902V152.696H179.058ZM209.98 129.8V155H207.784L191.584 134.552V155H188.92V129.8H191.116L207.352 150.248V129.8H209.98ZM226.702 132.104H217.846V129.8H238.222V132.104H229.366V155H226.702V132.104Z" fill="#FA668B"/>
<path d="M66.096 132.104L64.1636 134.399L66.096 132.104ZM66.096 144.776L68.0106 147.086C68.0165 147.081 68.0225 147.076 68.0284 147.071L66.096 144.776ZM51.768 147.044V144.044C50.1111 144.044 48.768 145.387 48.768 147.044H51.768ZM51.768 155V158C53.4249 158 54.768 156.657 54.768 155H51.768ZM49.104 155H46.104C46.104 156.657 47.4471 158 49.104 158V155ZM49.104 129.8V126.8C47.4471 126.8 46.104 128.143 46.104 129.8H49.104ZM64.188 143.084L66.0877 145.406C66.0961 145.399 66.1044 145.392 66.1127 145.385L64.188 143.084ZM64.188 133.76L62.2633 136.061C62.2716 136.068 62.2799 136.075 62.2883 136.082L64.188 133.76ZM51.768 132.104V129.104C50.1111 129.104 48.768 130.447 48.768 132.104H51.768ZM51.768 144.704H48.768C48.768 146.361 50.1111 147.704 51.768 147.704V144.704ZM58.536 132.8C61.2923 132.8 63.0436 133.456 64.1636 134.399L68.0284 129.809C65.5004 127.68 62.2117 126.8 58.536 126.8V132.8ZM64.1636 134.399C65.2196 135.288 65.832 136.511 65.832 138.44H71.832C71.832 134.993 70.6204 131.992 68.0284 129.809L64.1636 134.399ZM65.832 138.44C65.832 140.369 65.2196 141.592 64.1636 142.481L68.0284 147.071C70.6204 144.888 71.832 141.887 71.832 138.44H65.832ZM64.1814 142.466C63.0608 143.395 61.3026 144.044 58.536 144.044V150.044C62.2014 150.044 65.4832 149.181 68.0106 147.086L64.1814 142.466ZM58.536 144.044H51.768V150.044H58.536V144.044ZM48.768 147.044V155H54.768V147.044H48.768ZM51.768 152H49.104V158H51.768V152ZM52.104 155V129.8H46.104V155H52.104ZM49.104 132.8H58.536V126.8H49.104V132.8ZM58.464 147.704C61.3412 147.704 64.0322 147.088 66.0877 145.406L62.2883 140.762C61.7038 141.24 60.5788 141.704 58.464 141.704V147.704ZM66.1127 145.385C68.2255 143.618 69.168 141.164 69.168 138.44H63.168C63.168 139.7 62.7905 140.342 62.2633 140.783L66.1127 145.385ZM69.168 138.44C69.168 135.696 68.2425 133.201 66.0877 131.438L62.2883 136.082C62.7735 136.479 63.168 137.104 63.168 138.44H69.168ZM66.1127 131.459C64.0555 129.738 61.3542 129.104 58.464 129.104V135.104C60.5658 135.104 61.6805 135.574 62.2633 136.061L66.1127 131.459ZM58.464 129.104H51.768V135.104H58.464V129.104ZM48.768 132.104V144.704H54.768V132.104H48.768ZM51.768 147.704H58.464V141.704H51.768V147.704ZM95.4003 155L92.9554 156.739C93.5182 157.53 94.4292 158 95.4003 158V155ZM89.6403 146.9L92.0851 145.161C91.454 144.274 90.3914 143.798 89.309 143.918L89.6403 146.9ZM80.8563 147.008V144.008C79.1994 144.008 77.8563 145.351 77.8563 147.008H80.8563ZM80.8563 155V158C82.5131 158 83.8563 156.657 83.8563 155H80.8563ZM78.1923 155H75.1923C75.1923 156.657 76.5354 158 78.1923 158V155ZM78.1923 129.8V126.8C76.5354 126.8 75.1923 128.143 75.1923 129.8H78.1923ZM95.1843 132.104L93.2519 134.399L95.1843 132.104ZM96.4083 143.444L93.9931 141.664L93.9877 141.672L96.4083 143.444ZM92.1603 146.36L91.2339 143.507C90.325 143.802 89.6111 144.512 89.3115 145.419C89.012 146.327 89.1625 147.323 89.717 148.101L92.1603 146.36ZM98.3163 155V158C99.4394 158 100.468 157.373 100.983 156.374C101.497 155.376 101.411 154.174 100.76 153.259L98.3163 155ZM93.2763 143.084L95.2009 145.385L93.2763 143.084ZM93.2763 133.76L91.3516 136.061C91.3599 136.068 91.3682 136.075 91.3766 136.082L93.2763 133.76ZM80.8563 132.104V129.104C79.1994 129.104 77.8563 130.447 77.8563 132.104H80.8563ZM80.8563 144.74H77.8563C77.8563 146.397 79.1994 147.74 80.8563 147.74V144.74ZM97.8451 153.261L92.0851 145.161L87.1954 148.639L92.9554 156.739L97.8451 153.261ZM89.309 143.918C88.7781 143.977 88.217 144.008 87.6243 144.008V150.008C88.4236 150.008 89.2065 149.967 89.9716 149.882L89.309 143.918ZM87.6243 144.008H80.8563V150.008H87.6243V144.008ZM77.8563 147.008V155H83.8563V147.008H77.8563ZM80.8563 152H78.1923V158H80.8563V152ZM81.1923 155V129.8H75.1923V155H81.1923ZM78.1923 132.8H87.6243V126.8H78.1923V132.8ZM87.6243 132.8C90.3806 132.8 92.1319 133.456 93.2519 134.399L97.1167 129.809C94.5887 127.68 91.3 126.8 87.6243 126.8V132.8ZM93.2519 134.399C94.3079 135.288 94.9203 136.511 94.9203 138.44H100.92C100.92 134.993 99.7086 131.992 97.1167 129.809L93.2519 134.399ZM94.9203 138.44C94.9203 139.873 94.5633 140.891 93.9931 141.664L98.8234 145.224C100.269 143.261 100.92 140.943 100.92 138.44H94.9203ZM93.9877 141.672C93.4351 142.427 92.5856 143.068 91.2339 143.507L93.0867 149.213C95.4309 148.452 97.4135 147.149 98.8289 145.216L93.9877 141.672ZM89.717 148.101L95.873 156.741L100.76 153.259L94.6035 144.619L89.717 148.101ZM98.3163 152H95.4003V158H98.3163V152ZM87.5523 147.74C90.4425 147.74 93.1438 147.106 95.2009 145.385L91.3516 140.783C90.7688 141.27 89.654 141.74 87.5523 141.74V147.74ZM95.2009 145.385C97.3138 143.618 98.2563 141.164 98.2563 138.44H92.2563C92.2563 139.7 91.8788 140.342 91.3516 140.783L95.2009 145.385ZM98.2563 138.44C98.2563 135.696 97.3308 133.201 95.176 131.438L91.3766 136.082C91.8618 136.479 92.2563 137.104 92.2563 138.44H98.2563ZM95.2009 131.459C93.1438 129.738 90.4425 129.104 87.5523 129.104V135.104C89.654 135.104 90.7688 135.574 91.3516 136.061L95.2009 131.459ZM87.5523 129.104H80.8563V135.104H87.5523V129.104ZM77.8563 132.104V144.74H83.8563V132.104H77.8563ZM80.8563 147.74H87.5523V141.74H80.8563V147.74ZM125.628 152.696H128.628C128.628 151.039 127.285 149.696 125.628 149.696V152.696ZM125.628 155V158C127.285 158 128.628 156.657 128.628 155H125.628ZM107.808 155H104.808C104.808 156.657 106.151 158 107.808 158V155ZM107.808 129.8V126.8C106.151 126.8 104.808 128.143 104.808 129.8H107.808ZM125.088 129.8H128.088C128.088 128.143 126.745 126.8 125.088 126.8V129.8ZM125.088 132.104V135.104C126.745 135.104 128.088 133.761 128.088 132.104H125.088ZM110.472 132.104V129.104C108.815 129.104 107.472 130.447 107.472 132.104H110.472ZM110.472 141.068H107.472C107.472 142.725 108.815 144.068 110.472 144.068V141.068ZM123.504 141.068H126.504C126.504 139.411 125.161 138.068 123.504 138.068V141.068ZM123.504 143.336V146.336C125.161 146.336 126.504 144.993 126.504 143.336H123.504ZM110.472 143.336V140.336C108.815 140.336 107.472 141.679 107.472 143.336H110.472ZM110.472 152.696H107.472C107.472 154.353 108.815 155.696 110.472 155.696V152.696ZM122.628 152.696V155H128.628V152.696H122.628ZM125.628 152H107.808V158H125.628V152ZM110.808 155V129.8H104.808V155H110.808ZM107.808 132.8H125.088V126.8H107.808V132.8ZM122.088 129.8V132.104H128.088V129.8H122.088ZM125.088 129.104H110.472V135.104H125.088V129.104ZM107.472 132.104V141.068H113.472V132.104H107.472ZM110.472 144.068H123.504V138.068H110.472V144.068ZM120.504 141.068V143.336H126.504V141.068H120.504ZM123.504 140.336H110.472V146.336H123.504V140.336ZM107.472 143.336V152.696H113.472V143.336H107.472ZM110.472 155.696H125.628V149.696H110.472V155.696ZM137.038 154.316L136.042 157.146L136.054 157.15L137.038 154.316ZM133.078 151.94L130.404 150.58C129.828 151.713 130.028 153.086 130.904 154.008L133.078 151.94ZM134.122 149.888L136.243 147.767C135.564 147.087 134.601 146.775 133.652 146.925C132.703 147.076 131.884 147.671 131.448 148.528L134.122 149.888ZM137.758 152.12L136.69 154.923C136.703 154.928 136.716 154.933 136.729 154.938L137.758 152.12ZM147.514 151.724L149.272 154.155C149.284 154.147 149.295 154.138 149.306 154.13L147.514 151.724ZM148.27 146.072L146.149 148.193C146.162 148.207 146.176 148.221 146.191 148.234L148.27 146.072ZM146.038 144.704L144.976 147.51C144.999 147.518 145.021 147.526 145.043 147.534L146.038 144.704ZM142.33 143.624L141.594 146.532C141.603 146.535 141.613 146.537 141.623 146.54L142.33 143.624ZM137.794 142.256L136.67 145.037C136.687 145.044 136.704 145.051 136.721 145.058L137.794 142.256ZM134.878 140.204L132.613 142.171C132.623 142.182 132.632 142.193 132.642 142.204L134.878 140.204ZM134.698 133.04L137.212 134.677C137.218 134.668 137.223 134.659 137.229 134.651L134.698 133.04ZM137.794 130.52L139.021 133.258L137.794 130.52ZM147.19 130.196L146.333 133.071C146.352 133.077 146.372 133.082 146.392 133.088L147.19 130.196ZM150.79 131.816L153.552 132.986C154.107 131.676 153.666 130.156 152.495 129.347L150.79 131.816ZM149.89 133.94L148.239 136.445C148.983 136.935 149.906 137.069 150.758 136.812C151.611 136.554 152.305 135.931 152.652 135.11L149.89 133.94ZM146.506 132.392L145.644 135.265C145.662 135.271 145.679 135.276 145.697 135.281L146.506 132.392ZM137.974 133.148L139.791 135.535L139.798 135.53L137.974 133.148ZM137.218 138.872L135.055 140.951C135.083 140.98 135.11 141.007 135.139 141.034L137.218 138.872ZM139.522 140.276L138.485 143.091C138.514 143.102 138.544 143.112 138.573 143.122L139.522 140.276ZM143.266 141.32L143.985 138.407H143.983L143.266 141.32ZM147.73 142.688L146.606 145.469C146.629 145.479 146.653 145.488 146.677 145.497L147.73 142.688ZM150.646 144.704L148.381 146.671C148.39 146.681 148.398 146.691 148.407 146.701L150.646 144.704ZM150.79 151.832L148.285 150.181C148.282 150.186 148.279 150.19 148.276 150.195L150.79 151.832ZM147.658 154.316L148.828 157.078C148.842 157.073 148.855 157.067 148.868 157.061L147.658 154.316ZM142.438 152.216C140.893 152.216 139.426 151.97 138.022 151.482L136.054 157.15C138.106 157.862 140.239 158.216 142.438 158.216V152.216ZM138.034 151.486C136.636 150.994 135.771 150.419 135.252 149.872L130.904 154.008C132.257 155.429 134.032 156.438 136.042 157.146L138.034 151.486ZM135.752 153.3L136.796 151.248L131.448 148.528L130.404 150.58L135.752 153.3ZM132.001 152.009C133.278 153.286 134.88 154.234 136.69 154.923L138.826 149.317C137.612 148.854 136.79 148.314 136.243 147.767L132.001 152.009ZM136.729 154.938C138.57 155.61 140.479 155.948 142.438 155.948V149.948C141.181 149.948 139.969 149.734 138.787 149.302L136.729 154.938ZM142.438 155.948C144.966 155.948 147.403 155.507 149.272 154.155L145.756 149.293C145.369 149.573 144.422 149.948 142.438 149.948V155.948ZM149.306 154.13C151.136 152.767 152.206 150.822 152.206 148.484H146.206C146.206 148.786 146.148 149.001 145.722 149.318L149.306 154.13ZM152.206 148.484C152.206 146.806 151.659 145.169 150.349 143.909L146.191 148.234C146.194 148.238 146.19 148.234 146.183 148.224C146.177 148.214 146.174 148.208 146.175 148.21C146.176 148.213 146.206 148.29 146.206 148.484H152.206ZM150.391 143.951C149.44 143 148.298 142.318 147.032 141.874L145.043 147.534C145.554 147.714 145.9 147.944 146.149 148.193L150.391 143.951ZM147.1 141.898C146.042 141.498 144.669 141.104 143.037 140.708L141.623 146.54C143.159 146.912 144.257 147.238 144.976 147.51L147.1 141.898ZM143.066 140.716C141.224 140.249 139.839 139.827 138.867 139.454L136.721 145.058C138.005 145.549 139.644 146.039 141.594 146.532L143.066 140.716ZM138.918 139.475C138.218 139.192 137.626 138.776 137.114 138.204L132.642 142.204C133.762 143.456 135.114 144.408 136.67 145.037L138.918 139.475ZM137.143 138.237C136.949 138.014 136.69 137.549 136.69 136.496H130.69C130.69 138.563 131.222 140.57 132.613 142.171L137.143 138.237ZM136.69 136.496C136.69 135.785 136.868 135.205 137.212 134.677L132.184 131.403C131.184 132.939 130.69 134.663 130.69 136.496H136.69ZM137.229 134.651C137.523 134.189 138.046 133.694 139.021 133.258L136.567 127.782C134.757 128.594 133.217 129.779 132.167 131.429L137.229 134.651ZM139.021 133.258C139.916 132.856 141.196 132.584 142.978 132.584V126.584C140.632 126.584 138.455 126.936 136.567 127.782L139.021 133.258ZM142.978 132.584C144.13 132.584 145.245 132.747 146.333 133.071L148.047 127.321C146.399 126.829 144.706 126.584 142.978 126.584V132.584ZM146.392 133.088C147.517 133.398 148.398 133.81 149.085 134.285L152.495 129.347C151.166 128.43 149.647 127.762 147.988 127.304L146.392 133.088ZM148.028 130.646L147.128 132.77L152.652 135.11L153.552 132.986L148.028 130.646ZM151.541 131.435C150.23 130.571 148.818 129.924 147.315 129.503L145.697 135.281C146.594 135.532 147.438 135.917 148.239 136.445L151.541 131.435ZM147.368 129.519C145.913 129.082 144.446 128.852 142.978 128.852V134.852C143.814 134.852 144.699 134.982 145.644 135.265L147.368 129.519ZM142.978 128.852C140.454 128.852 138.021 129.333 136.15 130.766L139.798 135.53C140.183 135.235 141.086 134.852 142.978 134.852V128.852ZM136.157 130.761C134.336 132.146 133.318 134.108 133.318 136.424H139.318C139.318 136.052 139.404 135.83 139.791 135.535L136.157 130.761ZM133.318 136.424C133.318 138.07 133.83 139.677 135.055 140.951L139.38 136.793C139.369 136.781 139.366 136.777 139.359 136.757C139.348 136.729 139.318 136.63 139.318 136.424H133.318ZM135.139 141.034C136.096 141.955 137.232 142.629 138.485 143.091L140.559 137.461C139.988 137.251 139.588 136.989 139.297 136.71L135.139 141.034ZM138.573 143.122C139.618 143.47 140.953 143.84 142.549 144.233L143.983 138.407C142.459 138.032 141.298 137.706 140.471 137.43L138.573 143.122ZM142.547 144.233C144.325 144.671 145.661 145.088 146.606 145.469L148.854 139.907C147.542 139.376 145.903 138.881 143.985 138.407L142.547 144.233ZM146.677 145.497C147.37 145.757 147.923 146.143 148.381 146.671L152.911 142.737C151.785 141.441 150.394 140.483 148.783 139.879L146.677 145.497ZM148.407 146.701C148.58 146.895 148.834 147.32 148.834 148.34H154.834C154.834 146.288 154.296 144.289 152.885 142.707L148.407 146.701ZM148.834 148.34C148.834 149.029 148.656 149.618 148.285 150.181L153.295 153.483C154.316 151.934 154.834 150.195 154.834 148.34H148.834ZM148.276 150.195C147.994 150.627 147.468 151.122 146.448 151.571L148.868 157.061C150.68 156.262 152.241 155.101 153.304 153.469L148.276 150.195ZM146.487 151.554C145.545 151.953 144.23 152.216 142.438 152.216V158.216C144.774 158.216 146.939 157.879 148.828 157.078L146.487 151.554ZM179.058 152.696H182.058C182.058 151.039 180.715 149.696 179.058 149.696V152.696ZM179.058 155V158C180.715 158 182.058 156.657 182.058 155H179.058ZM161.238 155H158.238C158.238 156.657 159.582 158 161.238 158V155ZM161.238 129.8V126.8C159.582 126.8 158.238 128.143 158.238 129.8H161.238ZM178.518 129.8H181.518C181.518 128.143 180.175 126.8 178.518 126.8V129.8ZM178.518 132.104V135.104C180.175 135.104 181.518 133.761 181.518 132.104H178.518ZM163.902 132.104V129.104C162.246 129.104 160.902 130.447 160.902 132.104H163.902ZM163.902 141.068H160.902C160.902 142.725 162.246 144.068 163.902 144.068V141.068ZM176.934 141.068H179.934C179.934 139.411 178.591 138.068 176.934 138.068V141.068ZM176.934 143.336V146.336C178.591 146.336 179.934 144.993 179.934 143.336H176.934ZM163.902 143.336V140.336C162.246 140.336 160.902 141.679 160.902 143.336H163.902ZM163.902 152.696H160.902C160.902 154.353 162.246 155.696 163.902 155.696V152.696ZM176.058 152.696V155H182.058V152.696H176.058ZM179.058 152H161.238V158H179.058V152ZM164.238 155V129.8H158.238V155H164.238ZM161.238 132.8H178.518V126.8H161.238V132.8ZM175.518 129.8V132.104H181.518V129.8H175.518ZM178.518 129.104H163.902V135.104H178.518V129.104ZM160.902 132.104V141.068H166.902V132.104H160.902ZM163.902 144.068H176.934V138.068H163.902V144.068ZM173.934 141.068V143.336H179.934V141.068H173.934ZM176.934 140.336H163.902V146.336H176.934V140.336ZM160.902 143.336V152.696H166.902V143.336H160.902ZM163.902 155.696H179.058V149.696H163.902V155.696ZM209.98 129.8H212.98C212.98 128.143 211.637 126.8 209.98 126.8V129.8ZM209.98 155V158C211.637 158 212.98 156.657 212.98 155H209.98ZM207.784 155L205.433 156.863C206.002 157.581 206.868 158 207.784 158V155ZM191.584 134.552L193.936 132.689C193.143 131.688 191.804 131.299 190.598 131.719C189.392 132.138 188.584 133.275 188.584 134.552H191.584ZM191.584 155V158C193.241 158 194.584 156.657 194.584 155H191.584ZM188.92 155H185.92C185.92 156.657 187.264 158 188.92 158V155ZM188.92 129.8V126.8C187.264 126.8 185.92 128.143 185.92 129.8H188.92ZM191.116 129.8L193.466 127.935C192.897 127.218 192.032 126.8 191.116 126.8V129.8ZM207.352 150.248L205.003 152.113C205.796 153.113 207.135 153.501 208.34 153.081C209.545 152.661 210.352 151.524 210.352 150.248H207.352ZM207.352 129.8V126.8C205.696 126.8 204.352 128.143 204.352 129.8H207.352ZM206.98 129.8V155H212.98V129.8H206.98ZM209.98 152H207.784V158H209.98V152ZM210.136 153.137L193.936 132.689L189.233 136.415L205.433 156.863L210.136 153.137ZM188.584 134.552V155H194.584V134.552H188.584ZM191.584 152H188.92V158H191.584V152ZM191.92 155V129.8H185.92V155H191.92ZM188.92 132.8H191.116V126.8H188.92V132.8ZM188.767 131.665L205.003 152.113L209.702 148.383L193.466 127.935L188.767 131.665ZM210.352 150.248V129.8H204.352V150.248H210.352ZM207.352 132.8H209.98V126.8H207.352V132.8ZM226.702 132.104H229.702C229.702 130.447 228.358 129.104 226.702 129.104V132.104ZM217.846 132.104H214.846C214.846 133.761 216.189 135.104 217.846 135.104V132.104ZM217.846 129.8V126.8C216.189 126.8 214.846 128.143 214.846 129.8H217.846ZM238.222 129.8H241.222C241.222 128.143 239.878 126.8 238.222 126.8V129.8ZM238.222 132.104V135.104C239.878 135.104 241.222 133.761 241.222 132.104H238.222ZM229.366 132.104V129.104C227.709 129.104 226.366 130.447 226.366 132.104H229.366ZM229.366 155V158C231.022 158 232.366 156.657 232.366 155H229.366ZM226.702 155H223.702C223.702 156.657 225.045 158 226.702 158V155ZM226.702 129.104H217.846V135.104H226.702V129.104ZM220.846 132.104V129.8H214.846V132.104H220.846ZM217.846 132.8H238.222V126.8H217.846V132.8ZM235.222 129.8V132.104H241.222V129.8H235.222ZM238.222 129.104H229.366V135.104H238.222V129.104ZM226.366 132.104V155H232.366V132.104H226.366ZM229.366 152H226.702V158H229.366V152ZM229.702 155V132.104H223.702V155H229.702Z" fill="#FA668B"/>
<path d="M124.28 104.38H119.08V104H129.88V104.38H124.68V118H124.28V104.38ZM145.617 104V118H145.217V111.08H135.017V118H134.617V104H135.017V110.7H145.217V104H145.617ZM162.265 117.62V118H152.945V104H161.965V104.38H153.345V110.7H161.065V111.08H153.345V117.62H162.265Z" fill="#FA668B"/>
<path d="M124.28 104.38H126.28C126.28 103.275 125.385 102.38 124.28 102.38V104.38ZM119.08 104.38H117.08C117.08 105.485 117.975 106.38 119.08 106.38V104.38ZM119.08 104V102C117.975 102 117.08 102.895 117.08 104H119.08ZM129.88 104H131.88C131.88 102.895 130.985 102 129.88 102V104ZM129.88 104.38V106.38C130.985 106.38 131.88 105.485 131.88 104.38H129.88ZM124.68 104.38V102.38C123.575 102.38 122.68 103.275 122.68 104.38H124.68ZM124.68 118V120C125.785 120 126.68 119.105 126.68 118H124.68ZM124.28 118H122.28C122.28 119.105 123.175 120 124.28 120V118ZM124.28 102.38H119.08V106.38H124.28V102.38ZM121.08 104.38V104H117.08V104.38H121.08ZM119.08 106H129.88V102H119.08V106ZM127.88 104V104.38H131.88V104H127.88ZM129.88 102.38H124.68V106.38H129.88V102.38ZM122.68 104.38V118H126.68V104.38H122.68ZM124.68 116H124.28V120H124.68V116ZM126.28 118V104.38H122.28V118H126.28ZM145.617 104H147.617C147.617 102.895 146.722 102 145.617 102V104ZM145.617 118V120C146.722 120 147.617 119.105 147.617 118H145.617ZM145.217 118H143.217C143.217 119.105 144.112 120 145.217 120V118ZM145.217 111.08H147.217C147.217 109.975 146.322 109.08 145.217 109.08V111.08ZM135.017 111.08V109.08C133.912 109.08 133.017 109.975 133.017 111.08H135.017ZM135.017 118V120C136.122 120 137.017 119.105 137.017 118H135.017ZM134.617 118H132.617C132.617 119.105 133.512 120 134.617 120V118ZM134.617 104V102C133.512 102 132.617 102.895 132.617 104H134.617ZM135.017 104H137.017C137.017 102.895 136.122 102 135.017 102V104ZM135.017 110.7H133.017C133.017 111.805 133.912 112.7 135.017 112.7V110.7ZM145.217 110.7V112.7C146.322 112.7 147.217 111.805 147.217 110.7H145.217ZM145.217 104V102C144.112 102 143.217 102.895 143.217 104H145.217ZM143.617 104V118H147.617V104H143.617ZM145.617 116H145.217V120H145.617V116ZM147.217 118V111.08H143.217V118H147.217ZM145.217 109.08H135.017V113.08H145.217V109.08ZM133.017 111.08V118H137.017V111.08H133.017ZM135.017 116H134.617V120H135.017V116ZM136.617 118V104H132.617V118H136.617ZM134.617 106H135.017V102H134.617V106ZM133.017 104V110.7H137.017V104H133.017ZM135.017 112.7H145.217V108.7H135.017V112.7ZM147.217 110.7V104H143.217V110.7H147.217ZM145.217 106H145.617V102H145.217V106ZM162.265 117.62H164.265C164.265 116.515 163.37 115.62 162.265 115.62V117.62ZM162.265 118V120C163.37 120 164.265 119.105 164.265 118H162.265ZM152.945 118H150.945C150.945 119.105 151.841 120 152.945 120V118ZM152.945 104V102C151.841 102 150.945 102.895 150.945 104H152.945ZM161.965 104H163.965C163.965 102.895 163.07 102 161.965 102V104ZM161.965 104.38V106.38C163.07 106.38 163.965 105.485 163.965 104.38H161.965ZM153.345 104.38V102.38C152.241 102.38 151.345 103.275 151.345 104.38H153.345ZM153.345 110.7H151.345C151.345 111.805 152.241 112.7 153.345 112.7V110.7ZM161.065 110.7H163.065C163.065 109.595 162.17 108.7 161.065 108.7V110.7ZM161.065 111.08V113.08C162.17 113.08 163.065 112.185 163.065 111.08H161.065ZM153.345 111.08V109.08C152.241 109.08 151.345 109.975 151.345 111.08H153.345ZM153.345 117.62H151.345C151.345 118.725 152.241 119.62 153.345 119.62V117.62ZM160.265 117.62V118H164.265V117.62H160.265ZM162.265 116H152.945V120H162.265V116ZM154.945 118V104H150.945V118H154.945ZM152.945 106H161.965V102H152.945V106ZM159.965 104V104.38H163.965V104H159.965ZM161.965 102.38H153.345V106.38H161.965V102.38ZM151.345 104.38V110.7H155.345V104.38H151.345ZM153.345 112.7H161.065V108.7H153.345V112.7ZM159.065 110.7V111.08H163.065V110.7H159.065ZM161.065 109.08H153.345V113.08H161.065V109.08ZM151.345 111.08V117.62H155.345V111.08H151.345ZM153.345 119.62H162.265V115.62H153.345V119.62Z" fill="#FA668B"/>
<path d="M0 127L9.46667 128.736C18.9333 130.512 37.8667 133.984 56.8 134.469C75.7333 134.953 94.6667 132.37 113.6 135.761C132.533 139.112 151.467 148.398 170.4 150.295C189.333 152.152 208.267 146.661 227.2 143.876C246.133 141.13 265.067 141.13 274.533 141.13H284V322H274.533C265.067 322 246.133 322 227.2 322C208.267 322 189.333 322 170.4 322C151.467 322 132.533 322 113.6 322C94.6667 322 75.7333 322 56.8 322C37.8667 322 18.9333 322 9.46667 322H0V127Z" fill="#FA668B"/>
<path d="M0 170.555L9.46667 168.818C18.9333 167.041 37.8667 163.568 56.8 161.872C75.7333 160.176 94.6667 160.337 113.6 158.116C132.533 155.895 151.467 151.291 170.4 156.137C189.333 160.983 208.267 175.28 227.2 186.709C246.133 198.138 265.067 206.78 274.533 211.061L284 215.382V322H274.533C265.067 322 246.133 322 227.2 322C208.267 322 189.333 322 170.4 322C151.467 322 132.533 322 113.6 322C94.6667 322 75.7333 322 56.8 322C37.8667 322 18.9333 322 9.46667 322H0V170.555Z" fill="#FC557A"/>
<path d="M0 242.947L9.46667 241.737C18.9333 240.527 37.8667 238.107 56.8 235.203C75.7333 232.339 94.6667 228.951 113.6 225.926C132.533 222.901 151.467 220.239 170.4 219.674C189.333 219.15 208.267 220.763 227.2 218.021C246.133 215.238 265.067 208.139 274.533 204.549L284 201V322H274.533C265.067 322 246.133 322 227.2 322C208.267 322 189.333 322 170.4 322C151.467 322 132.533 322 113.6 322C94.6667 322 75.7333 322 56.8 322C37.8667 322 18.9333 322 9.46667 322H0V242.947Z" fill="#FD4267"/>
<path d="M0 241L9.46667 245.981C18.9333 251.003 37.8667 260.967 56.8 259.914C75.7333 258.82 94.6667 246.67 113.6 244.361C132.533 242.093 151.467 249.626 170.4 253.879C189.333 258.131 208.267 259.104 227.2 258.699C246.133 258.294 265.067 256.512 274.533 255.661L284 254.77V322H274.533C265.067 322 246.133 322 227.2 322C208.267 322 189.333 322 170.4 322C151.467 322 132.533 322 113.6 322C94.6667 322 75.7333 322 56.8 322C37.8667 322 18.9333 322 9.46667 322H0V241Z" fill="#FC2B53"/>
<path d="M0 287.127L9.46667 285.586C18.9333 284.004 37.8667 280.922 56.8 282.382C75.7333 283.883 94.6667 289.965 113.6 293.615C132.533 297.264 151.467 298.481 170.4 296.169C189.333 293.899 208.267 288.059 227.2 286.518C246.133 284.977 265.067 287.654 274.533 289.032L284 290.371V322H274.533C265.067 322 246.133 322 227.2 322C208.267 322 189.333 322 170.4 322C151.467 322 132.533 322 113.6 322C94.6667 322 75.7333 322 56.8 322C37.8667 322 18.9333 322 9.46667 322H0V287.127Z" fill="#F9003E"/>
<path d="M83.3504 207.2C85.4624 207.2 87.1184 207.704 88.3184 208.712C89.5184 209.704 90.1184 211.088 90.1184 212.864C90.1184 214.624 89.5184 216.008 88.3184 217.016C87.1184 218.008 85.4624 218.504 83.3504 218.504H78.5504V224H77.3264V207.2H83.3504ZM83.3504 217.4C85.1424 217.4 86.5104 217.008 87.4544 216.224C88.3984 215.44 88.8704 214.32 88.8704 212.864C88.8704 211.408 88.3984 210.288 87.4544 209.504C86.5104 208.704 85.1424 208.304 83.3504 208.304H78.5504V217.4H83.3504ZM108.547 224L104.539 218.384C103.947 218.464 103.403 218.504 102.907 218.504H98.1067V224H96.8827V207.2H102.907C105.019 207.2 106.675 207.704 107.875 208.712C109.075 209.704 109.675 211.088 109.675 212.864C109.675 214.192 109.331 215.312 108.643 216.224C107.971 217.12 107.003 217.752 105.739 218.12L109.939 224H108.547ZM102.907 217.424C104.699 217.424 106.067 217.032 107.011 216.248C107.955 215.448 108.427 214.32 108.427 212.864C108.427 211.408 107.955 210.288 107.011 209.504C106.067 208.704 104.699 208.304 102.907 208.304H98.1067V217.424H102.907ZM128.748 219.272H119.004L116.868 224H115.548L123.276 207.2H124.5L132.228 224H130.908L128.748 219.272ZM128.292 218.24L123.876 208.544L119.484 218.24H128.292ZM143.894 224.12C142.662 224.12 141.486 223.912 140.366 223.496C139.262 223.064 138.398 222.512 137.774 221.84L138.326 220.928C138.918 221.552 139.71 222.064 140.702 222.464C141.71 222.848 142.766 223.04 143.87 223.04C145.47 223.04 146.678 222.736 147.494 222.128C148.31 221.52 148.718 220.728 148.718 219.752C148.718 219 148.502 218.4 148.07 217.952C147.638 217.504 147.102 217.16 146.462 216.92C145.822 216.68 144.958 216.432 143.87 216.176C142.638 215.872 141.646 215.576 140.894 215.288C140.158 215 139.526 214.56 138.998 213.968C138.486 213.36 138.23 212.552 138.23 211.544C138.23 210.728 138.446 209.984 138.878 209.312C139.31 208.624 139.966 208.08 140.846 207.68C141.742 207.28 142.854 207.08 144.182 207.08C145.11 207.08 146.022 207.216 146.918 207.488C147.814 207.76 148.59 208.128 149.246 208.592L148.79 209.576C148.118 209.112 147.374 208.76 146.558 208.52C145.758 208.28 144.966 208.16 144.182 208.16C142.63 208.16 141.454 208.472 140.654 209.096C139.854 209.72 139.454 210.528 139.454 211.52C139.454 212.272 139.67 212.872 140.102 213.32C140.534 213.768 141.07 214.112 141.71 214.352C142.35 214.592 143.222 214.848 144.326 215.12C145.558 215.424 146.542 215.72 147.278 216.008C148.014 216.296 148.638 216.736 149.15 217.328C149.678 217.904 149.942 218.688 149.942 219.68C149.942 220.496 149.718 221.24 149.27 221.912C148.838 222.584 148.166 223.12 147.254 223.52C146.342 223.92 145.222 224.12 143.894 224.12ZM168.095 222.896V224H156.503V207.2H167.735V208.304H157.727V214.928H166.679V216.008H157.727V222.896H168.095ZM188.638 207.2V224H187.63L176.182 209.408V224H174.958V207.2H175.99L187.414 221.792V207.2H188.638ZM201.321 224.12C200.089 224.12 198.913 223.912 197.793 223.496C196.689 223.064 195.825 222.512 195.201 221.84L195.753 220.928C196.345 221.552 197.137 222.064 198.129 222.464C199.137 222.848 200.193 223.04 201.297 223.04C202.897 223.04 204.105 222.736 204.921 222.128C205.737 221.52 206.145 220.728 206.145 219.752C206.145 219 205.929 218.4 205.497 217.952C205.065 217.504 204.529 217.16 203.889 216.92C203.249 216.68 202.385 216.432 201.297 216.176C200.065 215.872 199.073 215.576 198.321 215.288C197.585 215 196.953 214.56 196.425 213.968C195.913 213.36 195.657 212.552 195.657 211.544C195.657 210.728 195.873 209.984 196.305 209.312C196.737 208.624 197.393 208.08 198.273 207.68C199.169 207.28 200.281 207.08 201.609 207.08C202.537 207.08 203.449 207.216 204.345 207.488C205.241 207.76 206.017 208.128 206.673 208.592L206.217 209.576C205.545 209.112 204.801 208.76 203.985 208.52C203.185 208.28 202.393 208.16 201.609 208.16C200.057 208.16 198.881 208.472 198.081 209.096C197.281 209.72 196.881 210.528 196.881 211.52C196.881 212.272 197.097 212.872 197.529 213.32C197.961 213.768 198.497 214.112 199.137 214.352C199.777 214.592 200.649 214.848 201.753 215.12C202.985 215.424 203.969 215.72 204.705 216.008C205.441 216.296 206.065 216.736 206.577 217.328C207.105 217.904 207.369 218.688 207.369 219.68C207.369 220.496 207.145 221.24 206.697 221.912C206.265 222.584 205.593 223.12 204.681 223.52C203.769 223.92 202.649 224.12 201.321 224.12Z" fill="white"/>
<path d="M88.3184 208.712L86.8713 210.435C86.8758 210.439 86.8803 210.442 86.8849 210.446L88.3184 208.712ZM88.3184 217.016L89.752 218.75C89.7566 218.746 89.7611 218.743 89.7656 218.739L88.3184 217.016ZM78.5504 218.504V216.254C77.3078 216.254 76.3004 217.261 76.3004 218.504H78.5504ZM78.5504 224V226.25C79.7931 226.25 80.8004 225.243 80.8004 224H78.5504ZM77.3264 224H75.0764C75.0764 225.243 76.0838 226.25 77.3264 226.25V224ZM77.3264 207.2V204.95C76.0838 204.95 75.0764 205.957 75.0764 207.2H77.3264ZM87.4544 216.224L88.892 217.955L87.4544 216.224ZM87.4544 209.504L85.9998 211.221C86.0055 211.225 86.0112 211.23 86.0169 211.235L87.4544 209.504ZM78.5504 208.304V206.054C77.3078 206.054 76.3004 207.061 76.3004 208.304H78.5504ZM78.5504 217.4H76.3004C76.3004 218.643 77.3078 219.65 78.5504 219.65V217.4ZM83.3504 209.45C85.1177 209.45 86.1986 209.87 86.8713 210.435L89.7656 206.989C88.0383 205.538 85.8071 204.95 83.3504 204.95V209.45ZM86.8849 210.446C87.4914 210.948 87.8684 211.653 87.8684 212.864H92.3684C92.3684 210.523 91.5455 208.46 89.752 206.978L86.8849 210.446ZM87.8684 212.864C87.8684 214.051 87.4959 214.768 86.8713 215.293L89.7656 218.739C91.541 217.248 92.3684 215.197 92.3684 212.864H87.8684ZM86.8849 215.282C86.2117 215.838 85.1255 216.254 83.3504 216.254V220.754C85.7993 220.754 88.0252 220.178 89.752 218.75L86.8849 215.282ZM83.3504 216.254H78.5504V220.754H83.3504V216.254ZM76.3004 218.504V224H80.8004V218.504H76.3004ZM78.5504 221.75H77.3264V226.25H78.5504V221.75ZM79.5764 224V207.2H75.0764V224H79.5764ZM77.3264 209.45H83.3504V204.95H77.3264V209.45ZM83.3504 219.65C85.4324 219.65 87.3941 219.199 88.892 217.955L86.0169 214.493C85.6268 214.817 84.8525 215.15 83.3504 215.15V219.65ZM88.892 217.955C90.4483 216.662 91.1204 214.851 91.1204 212.864H86.6204C86.6204 213.789 86.3485 214.218 86.0169 214.493L88.892 217.955ZM91.1204 212.864C91.1204 210.877 90.4483 209.066 88.892 207.773L86.0169 211.235C86.3485 211.51 86.6204 211.939 86.6204 212.864H91.1204ZM88.9091 207.787C87.4103 206.517 85.4416 206.054 83.3504 206.054V210.554C84.8433 210.554 85.6106 210.891 85.9998 211.221L88.9091 207.787ZM83.3504 206.054H78.5504V210.554H83.3504V206.054ZM76.3004 208.304V217.4H80.8004V208.304H76.3004ZM78.5504 219.65H83.3504V215.15H78.5504V219.65ZM108.547 224L106.715 225.307C107.138 225.899 107.82 226.25 108.547 226.25V224ZM104.539 218.384L106.37 217.077C105.885 216.398 105.064 216.043 104.237 216.154L104.539 218.384ZM98.1067 218.504V216.254C96.864 216.254 95.8567 217.261 95.8567 218.504H98.1067ZM98.1067 224V226.25C99.3493 226.25 100.357 225.243 100.357 224H98.1067ZM96.8827 224H94.6327C94.6327 225.243 95.64 226.25 96.8827 226.25V224ZM96.8827 207.2V204.95C95.64 204.95 94.6327 205.957 94.6327 207.2H96.8827ZM107.875 208.712L106.428 210.435C106.432 210.439 106.437 210.442 106.441 210.446L107.875 208.712ZM108.643 216.224L106.846 214.869L106.843 214.874L108.643 216.224ZM105.739 218.12L105.11 215.96C104.41 216.164 103.852 216.694 103.613 217.383C103.374 218.072 103.484 218.834 103.908 219.428L105.739 218.12ZM109.939 224V226.25C110.782 226.25 111.554 225.779 111.939 225.03C112.325 224.28 112.259 223.378 111.77 222.692L109.939 224ZM107.011 216.248L108.448 217.979C108.454 217.974 108.46 217.969 108.465 217.965L107.011 216.248ZM107.011 209.504L105.556 211.221C105.562 211.225 105.567 211.23 105.573 211.235L107.011 209.504ZM98.1067 208.304V206.054C96.864 206.054 95.8567 207.061 95.8567 208.304H98.1067ZM98.1067 217.424H95.8567C95.8567 218.667 96.864 219.674 98.1067 219.674V217.424ZM110.378 222.693L106.37 217.077L102.707 219.691L106.715 225.307L110.378 222.693ZM104.237 216.154C103.726 216.223 103.284 216.254 102.907 216.254V220.754C103.521 220.754 104.168 220.705 104.84 220.614L104.237 216.154ZM102.907 216.254H98.1067V220.754H102.907V216.254ZM95.8567 218.504V224H100.357V218.504H95.8567ZM98.1067 221.75H96.8827V226.25H98.1067V221.75ZM99.1327 224V207.2H94.6327V224H99.1327ZM96.8827 209.45H102.907V204.95H96.8827V209.45ZM102.907 209.45C104.674 209.45 105.755 209.87 106.428 210.435L109.322 206.989C107.595 205.538 105.363 204.95 102.907 204.95V209.45ZM106.441 210.446C107.048 210.948 107.425 211.653 107.425 212.864H111.925C111.925 210.523 111.102 208.46 109.308 206.978L106.441 210.446ZM107.425 212.864C107.425 213.786 107.194 214.408 106.846 214.869L110.439 217.579C111.468 216.216 111.925 214.598 111.925 212.864H107.425ZM106.843 214.874C106.512 215.315 105.991 215.703 105.11 215.96L106.368 220.28C108.014 219.801 109.429 218.925 110.443 217.574L106.843 214.874ZM103.908 219.428L108.108 225.308L111.77 222.692L107.57 216.812L103.908 219.428ZM109.939 221.75H108.547V226.25H109.939V221.75ZM102.907 219.674C104.989 219.674 106.95 219.223 108.448 217.979L105.573 214.517C105.183 214.841 104.409 215.174 102.907 215.174V219.674ZM108.465 217.965C110.005 216.66 110.677 214.852 110.677 212.864H106.177C106.177 213.788 105.905 214.236 105.556 214.531L108.465 217.965ZM110.677 212.864C110.677 210.877 110.005 209.066 108.448 207.773L105.573 211.235C105.905 211.51 106.177 211.939 106.177 212.864H110.677ZM108.465 207.787C106.967 206.517 104.998 206.054 102.907 206.054V210.554C104.4 210.554 105.167 210.891 105.556 211.221L108.465 207.787ZM102.907 206.054H98.1067V210.554H102.907V206.054ZM95.8567 208.304V217.424H100.357V208.304H95.8567ZM98.1067 219.674H102.907V215.174H98.1067V219.674ZM128.748 219.272L130.795 218.337C130.429 217.536 129.629 217.022 128.748 217.022V219.272ZM119.004 219.272V217.022C118.12 217.022 117.318 217.54 116.954 218.346L119.004 219.272ZM116.868 224V226.25C117.752 226.25 118.555 225.732 118.919 224.926L116.868 224ZM115.548 224L113.504 223.06C113.184 223.756 113.24 224.568 113.654 225.214C114.067 225.859 114.781 226.25 115.548 226.25V224ZM123.276 207.2V204.95C122.397 204.95 121.599 205.461 121.232 206.26L123.276 207.2ZM124.5 207.2L126.544 206.26C126.177 205.461 125.379 204.95 124.5 204.95V207.2ZM132.228 224V226.25C132.995 226.25 133.709 225.859 134.123 225.214C134.536 224.568 134.593 223.756 134.272 223.06L132.228 224ZM130.908 224L128.862 224.935C129.228 225.736 130.027 226.25 130.908 226.25V224ZM128.292 218.24V220.49C129.057 220.49 129.77 220.101 130.184 219.457C130.598 218.814 130.657 218.004 130.34 217.307L128.292 218.24ZM123.876 208.544L125.924 207.611C125.558 206.808 124.756 206.293 123.874 206.294C122.991 206.295 122.191 206.812 121.827 207.616L123.876 208.544ZM119.484 218.24L117.435 217.312C117.119 218.008 117.179 218.817 117.593 219.459C118.007 220.102 118.72 220.49 119.484 220.49V218.24ZM128.748 217.022H119.004V221.522H128.748V217.022ZM116.954 218.346L114.818 223.074L118.919 224.926L121.055 220.198L116.954 218.346ZM116.868 221.75H115.548V226.25H116.868V221.75ZM117.592 224.94L125.32 208.14L121.232 206.26L113.504 223.06L117.592 224.94ZM123.276 209.45H124.5V204.95H123.276V209.45ZM122.456 208.14L130.184 224.94L134.272 223.06L126.544 206.26L122.456 208.14ZM132.228 221.75H130.908V226.25H132.228V221.75ZM132.955 223.065L130.795 218.337L126.702 220.207L128.862 224.935L132.955 223.065ZM130.34 217.307L125.924 207.611L121.828 209.477L126.244 219.173L130.34 217.307ZM121.827 207.616L117.435 217.312L121.534 219.168L125.926 209.472L121.827 207.616ZM119.484 220.49H128.292V215.99H119.484V220.49ZM140.366 223.496L139.546 225.591C139.558 225.596 139.57 225.601 139.583 225.605L140.366 223.496ZM137.774 221.84L135.849 220.675C135.329 221.534 135.442 222.635 136.125 223.371L137.774 221.84ZM138.326 220.928L139.958 219.379C139.475 218.87 138.782 218.616 138.085 218.691C137.387 218.766 136.764 219.163 136.401 219.763L138.326 220.928ZM140.702 222.464L139.861 224.551C139.874 224.556 139.887 224.561 139.901 224.567L140.702 222.464ZM147.494 222.128L148.838 223.932L147.494 222.128ZM146.462 216.92L147.252 214.813L146.462 216.92ZM143.87 216.176L143.331 218.36C143.339 218.362 143.347 218.364 143.355 218.366L143.87 216.176ZM140.894 215.288L140.074 217.383C140.079 217.385 140.084 217.387 140.089 217.389L140.894 215.288ZM138.998 213.968L137.277 215.417C137.291 215.434 137.305 215.45 137.319 215.466L138.998 213.968ZM138.878 209.312L140.771 210.529C140.775 210.522 140.779 210.515 140.784 210.508L138.878 209.312ZM140.846 207.68L139.929 205.625C139.924 205.628 139.92 205.63 139.915 205.632L140.846 207.68ZM146.918 207.488L146.264 209.641L146.918 207.488ZM149.246 208.592L151.287 209.538C151.744 208.553 151.432 207.382 150.545 206.755L149.246 208.592ZM148.79 209.576L147.512 211.428C148.058 211.804 148.742 211.921 149.382 211.747C150.022 211.572 150.552 211.124 150.831 210.522L148.79 209.576ZM146.558 208.52L145.911 210.675L145.923 210.679L146.558 208.52ZM140.654 209.096L139.27 207.322L140.654 209.096ZM140.102 213.32L138.482 214.882L140.102 213.32ZM141.71 214.352L140.92 216.459L141.71 214.352ZM144.326 215.12L144.865 212.936L144.864 212.935L144.326 215.12ZM147.278 216.008L146.458 218.103L147.278 216.008ZM149.15 217.328L147.448 218.8C147.462 218.816 147.477 218.832 147.491 218.848L149.15 217.328ZM149.27 221.912L147.398 220.664C147.391 220.674 147.384 220.685 147.377 220.695L149.27 221.912ZM147.254 223.52L146.35 221.459L147.254 223.52ZM143.894 221.87C142.921 221.87 142.011 221.707 141.149 221.387L139.583 225.605C140.961 226.117 142.403 226.37 143.894 226.37V221.87ZM141.186 221.401C140.308 221.057 139.759 220.671 139.423 220.309L136.125 223.371C137.037 224.353 138.216 225.071 139.546 225.591L141.186 221.401ZM139.699 223.005L140.251 222.093L136.401 219.763L135.849 220.675L139.699 223.005ZM136.694 222.477C137.555 223.384 138.64 224.059 139.861 224.551L141.543 220.377C140.78 220.069 140.281 219.72 139.958 219.379L136.694 222.477ZM139.901 224.567C141.171 225.05 142.499 225.29 143.87 225.29V220.79C143.033 220.79 142.249 220.646 141.503 220.361L139.901 224.567ZM143.87 225.29C145.696 225.29 147.468 224.953 148.838 223.932L146.15 220.324C145.888 220.519 145.244 220.79 143.87 220.79V225.29ZM148.838 223.932C150.196 222.921 150.968 221.473 150.968 219.752H146.468C146.468 219.983 146.424 220.119 146.15 220.324L148.838 223.932ZM150.968 219.752C150.968 218.546 150.607 217.342 149.69 216.39L146.45 219.514C146.448 219.512 146.444 219.506 146.44 219.5C146.436 219.493 146.436 219.492 146.439 219.5C146.445 219.516 146.468 219.59 146.468 219.752H150.968ZM149.69 216.39C149.003 215.678 148.174 215.159 147.252 214.813L145.672 219.027C146.03 219.161 146.273 219.33 146.45 219.514L149.69 216.39ZM147.252 214.813C146.484 214.525 145.516 214.252 144.385 213.986L143.355 218.366C144.4 218.612 145.16 218.835 145.672 219.027L147.252 214.813ZM144.409 213.992C143.222 213.699 142.329 213.428 141.699 213.187L140.089 217.389C140.963 217.724 142.054 218.045 143.331 218.36L144.409 213.992ZM141.714 213.193C141.309 213.034 140.971 212.799 140.677 212.47L137.319 215.466C138.081 216.321 139.007 216.966 140.074 217.383L141.714 213.193ZM140.719 212.519C140.632 212.415 140.48 212.167 140.48 211.544H135.98C135.98 212.937 136.34 214.305 137.277 215.417L140.719 212.519ZM140.48 211.544C140.48 211.15 140.577 210.83 140.771 210.529L136.985 208.095C136.315 209.138 135.98 210.306 135.98 211.544H140.48ZM140.784 210.508C140.94 210.26 141.221 209.981 141.777 209.728L139.915 205.632C138.711 206.179 137.68 206.988 136.972 208.116L140.784 210.508ZM141.763 209.735C142.288 209.5 143.065 209.33 144.182 209.33V204.83C142.643 204.83 141.196 205.06 139.929 205.625L141.763 209.735ZM144.182 209.33C144.887 209.33 145.578 209.433 146.264 209.641L147.572 205.335C146.466 204.999 145.333 204.83 144.182 204.83V209.33ZM146.264 209.641C146.967 209.854 147.517 210.125 147.947 210.429L150.545 206.755C149.663 206.131 148.661 205.666 147.572 205.335L146.264 209.641ZM147.205 207.646L146.749 208.63L150.831 210.522L151.287 209.538L147.205 207.646ZM150.068 207.724C149.192 207.119 148.229 206.666 147.193 206.361L145.923 210.679C146.519 210.854 147.044 211.105 147.512 211.428L150.068 207.724ZM147.205 206.365C146.208 206.066 145.199 205.91 144.182 205.91V210.41C144.733 210.41 145.308 210.494 145.911 210.675L147.205 206.365ZM144.182 205.91C142.38 205.91 140.626 206.264 139.27 207.322L142.038 210.87C142.282 210.68 142.88 210.41 144.182 210.41V205.91ZM139.27 207.322C137.938 208.361 137.204 209.817 137.204 211.52H141.704C141.704 211.239 141.77 211.079 142.038 210.87L139.27 207.322ZM137.204 211.52C137.204 212.726 137.565 213.93 138.482 214.882L141.722 211.758C141.724 211.76 141.728 211.766 141.732 211.772C141.736 211.779 141.736 211.78 141.733 211.772C141.727 211.756 141.704 211.682 141.704 211.52H137.204ZM138.482 214.882C139.169 215.594 139.998 216.113 140.92 216.459L142.5 212.245C142.142 212.111 141.899 211.942 141.722 211.758L138.482 214.882ZM140.92 216.459C141.678 216.743 142.646 217.023 143.788 217.305L144.864 212.935C143.798 212.673 143.022 212.441 142.5 212.245L140.92 216.459ZM143.787 217.304C144.973 217.597 145.851 217.866 146.458 218.103L148.098 213.913C147.233 213.574 146.143 213.251 144.865 212.936L143.787 217.304ZM146.458 218.103C146.857 218.26 147.178 218.487 147.448 218.8L150.852 215.856C150.098 214.985 149.171 214.332 148.098 213.913L146.458 218.103ZM147.491 218.848C147.545 218.906 147.692 219.094 147.692 219.68H152.192C152.192 218.282 151.811 216.902 150.809 215.808L147.491 218.848ZM147.692 219.68C147.692 220.057 147.597 220.366 147.398 220.664L151.142 223.16C151.839 222.114 152.192 220.935 152.192 219.68H147.692ZM147.377 220.695C147.238 220.912 146.957 221.193 146.35 221.459L148.158 225.581C149.375 225.047 150.438 224.256 151.163 223.129L147.377 220.695ZM146.35 221.459C145.801 221.7 145.009 221.87 143.894 221.87V226.37C145.435 226.37 146.883 226.14 148.158 225.581L146.35 221.459ZM168.095 222.896H170.345C170.345 221.653 169.338 220.646 168.095 220.646V222.896ZM168.095 224V226.25C169.338 226.25 170.345 225.243 170.345 224H168.095ZM156.503 224H154.253C154.253 225.243 155.26 226.25 156.503 226.25V224ZM156.503 207.2V204.95C155.26 204.95 154.253 205.957 154.253 207.2H156.503ZM167.735 207.2H169.985C169.985 205.957 168.978 204.95 167.735 204.95V207.2ZM167.735 208.304V210.554C168.978 210.554 169.985 209.547 169.985 208.304H167.735ZM157.727 208.304V206.054C156.484 206.054 155.477 207.061 155.477 208.304H157.727ZM157.727 214.928H155.477C155.477 216.171 156.484 217.178 157.727 217.178V214.928ZM166.679 214.928H168.929C168.929 213.685 167.922 212.678 166.679 212.678V214.928ZM166.679 216.008V218.258C167.922 218.258 168.929 217.251 168.929 216.008H166.679ZM157.727 216.008V213.758C156.484 213.758 155.477 214.765 155.477 216.008H157.727ZM157.727 222.896H155.477C155.477 224.139 156.484 225.146 157.727 225.146V222.896ZM165.845 222.896V224H170.345V222.896H165.845ZM168.095 221.75H156.503V226.25H168.095V221.75ZM158.753 224V207.2H154.253V224H158.753ZM156.503 209.45H167.735V204.95H156.503V209.45ZM165.485 207.2V208.304H169.985V207.2H165.485ZM167.735 206.054H157.727V210.554H167.735V206.054ZM155.477 208.304V214.928H159.977V208.304H155.477ZM157.727 217.178H166.679V212.678H157.727V217.178ZM164.429 214.928V216.008H168.929V214.928H164.429ZM166.679 213.758H157.727V218.258H166.679V213.758ZM155.477 216.008V222.896H159.977V216.008H155.477ZM157.727 225.146H168.095V220.646H157.727V225.146ZM188.638 207.2H190.888C190.888 205.957 189.88 204.95 188.638 204.95V207.2ZM188.638 224V226.25C189.88 226.25 190.888 225.243 190.888 224H188.638ZM187.63 224L185.859 225.389C186.286 225.932 186.939 226.25 187.63 226.25V224ZM176.182 209.408L177.952 208.019C177.36 207.264 176.354 206.968 175.447 207.281C174.54 207.595 173.932 208.449 173.932 209.408H176.182ZM176.182 224V226.25C177.424 226.25 178.432 225.243 178.432 224H176.182ZM174.958 224H172.708C172.708 225.243 173.715 226.25 174.958 226.25V224ZM174.958 207.2V204.95C173.715 204.95 172.708 205.957 172.708 207.2H174.958ZM175.99 207.2L177.761 205.813C177.335 205.268 176.682 204.95 175.99 204.95V207.2ZM187.414 221.792L185.642 223.179C186.234 223.935 187.24 224.232 188.147 223.919C189.055 223.606 189.664 222.752 189.664 221.792H187.414ZM187.414 207.2V204.95C186.171 204.95 185.164 205.957 185.164 207.2H187.414ZM186.388 207.2V224H190.888V207.2H186.388ZM188.638 221.75H187.63V226.25H188.638V221.75ZM189.4 222.611L177.952 208.019L174.411 210.797L185.859 225.389L189.4 222.611ZM173.932 209.408V224H178.432V209.408H173.932ZM176.182 221.75H174.958V226.25H176.182V221.75ZM177.208 224V207.2H172.708V224H177.208ZM174.958 209.45H175.99V204.95H174.958V209.45ZM174.218 208.587L185.642 223.179L189.185 220.405L177.761 205.813L174.218 208.587ZM189.664 221.792V207.2H185.164V221.792H189.664ZM187.414 209.45H188.638V204.95H187.414V209.45ZM197.793 223.496L196.973 225.591C196.985 225.596 196.997 225.601 197.009 225.605L197.793 223.496ZM195.201 221.84L193.276 220.675C192.755 221.534 192.868 222.635 193.552 223.371L195.201 221.84ZM195.753 220.928L197.385 219.379C196.902 218.87 196.209 218.616 195.511 218.691C194.814 218.766 194.191 219.163 193.828 219.763L195.753 220.928ZM198.129 222.464L197.287 224.551C197.301 224.556 197.314 224.561 197.328 224.567L198.129 222.464ZM204.921 222.128L206.265 223.932L204.921 222.128ZM203.889 216.92L204.679 214.813L203.889 216.92ZM201.297 216.176L200.758 218.36C200.765 218.362 200.773 218.364 200.781 218.366L201.297 216.176ZM198.321 215.288L197.501 217.383C197.506 217.385 197.511 217.387 197.516 217.389L198.321 215.288ZM196.425 213.968L194.704 215.417C194.717 215.434 194.731 215.45 194.745 215.466L196.425 213.968ZM196.305 209.312L198.197 210.529C198.202 210.522 198.206 210.515 198.21 210.508L196.305 209.312ZM198.273 207.68L197.355 205.625C197.351 205.628 197.346 205.63 197.342 205.632L198.273 207.68ZM204.345 207.488L203.691 209.641L204.345 207.488ZM206.673 208.592L208.714 209.538C209.171 208.553 208.858 207.382 207.972 206.755L206.673 208.592ZM206.217 209.576L204.938 211.428C205.484 211.804 206.169 211.921 206.809 211.747C207.449 211.572 207.979 211.124 208.258 210.522L206.217 209.576ZM203.985 208.52L203.338 210.675L203.35 210.679L203.985 208.52ZM198.081 209.096L196.697 207.322L198.081 209.096ZM197.529 213.32L195.909 214.882L197.529 213.32ZM199.137 214.352L198.347 216.459L199.137 214.352ZM201.753 215.12L202.292 212.936L202.291 212.935L201.753 215.12ZM204.705 216.008L203.885 218.103L204.705 216.008ZM206.577 217.328L204.875 218.8C204.889 218.816 204.903 218.832 204.918 218.848L206.577 217.328ZM206.697 221.912L204.824 220.664C204.818 220.674 204.811 220.685 204.804 220.695L206.697 221.912ZM204.681 223.52L203.777 221.459L204.681 223.52ZM201.321 221.87C200.348 221.87 199.437 221.707 198.576 221.387L197.009 225.605C198.388 226.117 199.83 226.37 201.321 226.37V221.87ZM198.612 221.401C197.735 221.057 197.186 220.671 196.849 220.309L193.552 223.371C194.463 224.353 195.642 225.071 196.973 225.591L198.612 221.401ZM197.125 223.005L197.677 222.093L193.828 219.763L193.276 220.675L197.125 223.005ZM194.12 222.477C194.981 223.384 196.067 224.059 197.287 224.551L198.97 220.377C198.206 220.069 197.708 219.72 197.385 219.379L194.12 222.477ZM197.328 224.567C198.597 225.05 199.925 225.29 201.297 225.29V220.79C200.46 220.79 199.676 220.646 198.93 220.361L197.328 224.567ZM201.297 225.29C203.123 225.29 204.895 224.953 206.265 223.932L203.576 220.324C203.314 220.519 202.671 220.79 201.297 220.79V225.29ZM206.265 223.932C207.622 222.921 208.395 221.473 208.395 219.752H203.895C203.895 219.983 203.851 220.119 203.576 220.324L206.265 223.932ZM208.395 219.752C208.395 218.546 208.034 217.342 207.116 216.39L203.877 219.514C203.875 219.512 203.87 219.506 203.866 219.5C203.862 219.493 203.863 219.492 203.866 219.5C203.871 219.516 203.895 219.59 203.895 219.752H208.395ZM207.116 216.39C206.43 215.678 205.601 215.159 204.679 214.813L203.099 219.027C203.456 219.161 203.7 219.33 203.877 219.514L207.116 216.39ZM204.679 214.813C203.911 214.525 202.943 214.252 201.812 213.986L200.781 218.366C201.826 218.612 202.586 218.835 203.099 219.027L204.679 214.813ZM201.836 213.992C200.649 213.699 199.756 213.428 199.125 213.187L197.516 217.389C198.389 217.724 199.48 218.045 200.758 218.36L201.836 213.992ZM199.14 213.193C198.735 213.034 198.397 212.799 198.104 212.47L194.745 215.466C195.508 216.321 196.434 216.966 197.501 217.383L199.14 213.193ZM198.146 212.519C198.059 212.415 197.907 212.167 197.907 211.544H193.407C193.407 212.937 193.766 214.305 194.704 215.417L198.146 212.519ZM197.907 211.544C197.907 211.15 198.004 210.83 198.197 210.529L194.412 208.095C193.741 209.138 193.407 210.306 193.407 211.544H197.907ZM198.21 210.508C198.366 210.26 198.647 209.981 199.204 209.728L197.342 205.632C196.138 206.179 195.107 206.988 194.399 208.116L198.21 210.508ZM199.19 209.735C199.714 209.5 200.491 209.33 201.609 209.33V204.83C200.07 204.83 198.623 205.06 197.355 205.625L199.19 209.735ZM201.609 209.33C202.313 209.33 203.005 209.433 203.691 209.641L204.998 205.335C203.892 204.999 202.76 204.83 201.609 204.83V209.33ZM203.691 209.641C204.394 209.854 204.944 210.125 205.373 210.429L207.972 206.755C207.089 206.131 206.088 205.666 204.998 205.335L203.691 209.641ZM204.631 207.646L204.175 208.63L208.258 210.522L208.714 209.538L204.631 207.646ZM207.495 207.724C206.618 207.119 205.655 206.666 204.619 206.361L203.35 210.679C203.946 210.854 204.471 211.105 204.938 211.428L207.495 207.724ZM204.631 206.365C203.635 206.066 202.625 205.91 201.609 205.91V210.41C202.16 210.41 202.734 210.494 203.338 210.675L204.631 206.365ZM201.609 205.91C199.807 205.91 198.053 206.264 196.697 207.322L199.464 210.87C199.708 210.68 200.306 210.41 201.609 210.41V205.91ZM196.697 207.322C195.365 208.361 194.631 209.817 194.631 211.52H199.131C199.131 211.239 199.196 211.079 199.464 210.87L196.697 207.322ZM194.631 211.52C194.631 212.726 194.991 213.93 195.909 214.882L199.148 211.758C199.15 211.76 199.155 211.766 199.159 211.772C199.163 211.779 199.162 211.78 199.16 211.772C199.154 211.756 199.131 211.682 199.131 211.52H194.631ZM195.909 214.882C196.596 215.594 197.424 216.113 198.347 216.459L199.927 212.245C199.569 212.111 199.326 211.942 199.148 211.758L195.909 214.882ZM198.347 216.459C199.105 216.743 200.073 217.023 201.214 217.305L202.291 212.935C201.224 212.673 200.448 212.441 199.927 212.245L198.347 216.459ZM201.214 217.304C202.4 217.597 203.278 217.866 203.885 218.103L205.524 213.913C204.659 213.574 203.569 213.251 202.292 212.936L201.214 217.304ZM203.885 218.103C204.284 218.26 204.604 218.487 204.875 218.8L208.278 215.856C207.525 214.985 206.597 214.332 205.524 213.913L203.885 218.103ZM204.918 218.848C204.971 218.906 205.119 219.094 205.119 219.68H209.619C209.619 218.282 209.238 216.902 208.235 215.808L204.918 218.848ZM205.119 219.68C205.119 220.057 205.023 220.366 204.824 220.664L208.569 223.16C209.266 222.114 209.619 220.935 209.619 219.68H205.119ZM204.804 220.695C204.664 220.912 204.384 221.193 203.777 221.459L205.584 225.581C206.802 225.047 207.865 224.256 208.589 223.129L204.804 220.695ZM203.777 221.459C203.228 221.7 202.436 221.87 201.321 221.87V226.37C202.861 226.37 204.309 226.14 205.584 225.581L203.777 221.459Z" fill="white"/>
<g style="mix-blend-mode:soft-light">
<path d="M45 191.5H239" stroke="white"/>
</g>
<path d="M120.9 204C122.005 204 122.9 203.105 122.9 202C122.9 200.895 122.005 200 120.9 200C119.795 200 118.9 200.895 118.9 202C118.9 203.105 119.795 204 120.9 204Z" fill="white"/>
<path d="M126.9 204C128.005 204 128.9 203.105 128.9 202C128.9 200.895 128.005 200 126.9 200C125.795 200 124.9 200.895 124.9 202C124.9 203.105 125.795 204 126.9 204Z" fill="white"/>
<mask id="mask0_157_2426" style="mask-type:alpha" maskUnits="userSpaceOnUse" x="46" y="126" width="196" height="57">
<path d="M58.536 129.8C61.752 129.8 64.272 130.568 66.096 132.104C67.92 133.64 68.832 135.752 68.832 138.44C68.832 141.128 67.92 143.24 66.096 144.776C64.272 146.288 61.752 147.044 58.536 147.044H51.768V155H49.104V129.8H58.536ZM58.464 144.704C60.96 144.704 62.868 144.164 64.188 143.084C65.508 141.98 66.168 140.432 66.168 138.44C66.168 136.4 65.508 134.84 64.188 133.76C62.868 132.656 60.96 132.104 58.464 132.104H51.768V144.704H58.464ZM95.4003 155L89.6403 146.9C88.9923 146.972 88.3203 147.008 87.6243 147.008H80.8563V155H78.1923V129.8H87.6243C90.8403 129.8 93.3603 130.568 95.1843 132.104C97.0083 133.64 97.9203 135.752 97.9203 138.44C97.9203 140.408 97.4163 142.076 96.4083 143.444C95.4243 144.788 94.0083 145.76 92.1603 146.36L98.3163 155H95.4003ZM87.5523 144.74C90.0483 144.74 91.9563 144.188 93.2763 143.084C94.5963 141.98 95.2563 140.432 95.2563 138.44C95.2563 136.4 94.5963 134.84 93.2763 133.76C91.9563 132.656 90.0483 132.104 87.5523 132.104H80.8563V144.74H87.5523ZM125.628 152.696V155H107.808V129.8H125.088V132.104H110.472V141.068H123.504V143.336H110.472V152.696H125.628ZM142.438 155.216C140.566 155.216 138.766 154.916 137.038 154.316C135.334 153.716 134.014 152.924 133.078 151.94L134.122 149.888C135.034 150.8 136.246 151.544 137.758 152.12C139.27 152.672 140.83 152.948 142.438 152.948C144.694 152.948 146.386 152.54 147.514 151.724C148.642 150.884 149.206 149.804 149.206 148.484C149.206 147.476 148.894 146.672 148.27 146.072C147.67 145.472 146.926 145.016 146.038 144.704C145.15 144.368 143.914 144.008 142.33 143.624C140.434 143.144 138.922 142.688 137.794 142.256C136.666 141.8 135.694 141.116 134.878 140.204C134.086 139.292 133.69 138.056 133.69 136.496C133.69 135.224 134.026 134.072 134.698 133.04C135.37 131.984 136.402 131.144 137.794 130.52C139.186 129.896 140.914 129.584 142.978 129.584C144.418 129.584 145.822 129.788 147.19 130.196C148.582 130.58 149.782 131.12 150.79 131.816L149.89 133.94C148.834 133.244 147.706 132.728 146.506 132.392C145.306 132.032 144.13 131.852 142.978 131.852C140.77 131.852 139.102 132.284 137.974 133.148C136.87 133.988 136.318 135.08 136.318 136.424C136.318 137.432 136.618 138.248 137.218 138.872C137.842 139.472 138.61 139.94 139.522 140.276C140.458 140.588 141.706 140.936 143.266 141.32C145.114 141.776 146.602 142.232 147.73 142.688C148.882 143.12 149.854 143.792 150.646 144.704C151.438 145.592 151.834 146.804 151.834 148.34C151.834 149.612 151.486 150.776 150.79 151.832C150.118 152.864 149.074 153.692 147.658 154.316C146.242 154.916 144.502 155.216 142.438 155.216ZM179.058 152.696V155H161.238V129.8H178.518V132.104H163.902V141.068H176.934V143.336H163.902V152.696H179.058ZM209.98 129.8V155H207.784L191.584 134.552V155H188.92V129.8H191.116L207.352 150.248V129.8H209.98ZM226.702 132.104H217.846V129.8H238.222V132.104H229.366V155H226.702V132.104Z" fill="white"/>
<path d="M66.096 132.104L64.1636 134.399L66.096 132.104ZM66.096 144.776L68.0106 147.086C68.0165 147.081 68.0225 147.076 68.0284 147.071L66.096 144.776ZM51.768 147.044V144.044C50.1111 144.044 48.768 145.387 48.768 147.044H51.768ZM51.768 155V158C53.4249 158 54.768 156.657 54.768 155H51.768ZM49.104 155H46.104C46.104 156.657 47.4471 158 49.104 158V155ZM49.104 129.8V126.8C47.4471 126.8 46.104 128.143 46.104 129.8H49.104ZM64.188 143.084L66.0877 145.406C66.0961 145.399 66.1044 145.392 66.1127 145.385L64.188 143.084ZM64.188 133.76L62.2633 136.061C62.2716 136.068 62.2799 136.075 62.2883 136.082L64.188 133.76ZM51.768 132.104V129.104C50.1111 129.104 48.768 130.447 48.768 132.104H51.768ZM51.768 144.704H48.768C48.768 146.361 50.1111 147.704 51.768 147.704V144.704ZM58.536 132.8C61.2923 132.8 63.0436 133.456 64.1636 134.399L68.0284 129.809C65.5004 127.68 62.2117 126.8 58.536 126.8V132.8ZM64.1636 134.399C65.2196 135.288 65.832 136.511 65.832 138.44H71.832C71.832 134.993 70.6204 131.992 68.0284 129.809L64.1636 134.399ZM65.832 138.44C65.832 140.369 65.2196 141.592 64.1636 142.481L68.0284 147.071C70.6204 144.888 71.832 141.887 71.832 138.44H65.832ZM64.1814 142.466C63.0608 143.395 61.3026 144.044 58.536 144.044V150.044C62.2014 150.044 65.4832 149.181 68.0106 147.086L64.1814 142.466ZM58.536 144.044H51.768V150.044H58.536V144.044ZM48.768 147.044V155H54.768V147.044H48.768ZM51.768 152H49.104V158H51.768V152ZM52.104 155V129.8H46.104V155H52.104ZM49.104 132.8H58.536V126.8H49.104V132.8ZM58.464 147.704C61.3412 147.704 64.0322 147.088 66.0877 145.406L62.2883 140.762C61.7038 141.24 60.5788 141.704 58.464 141.704V147.704ZM66.1127 145.385C68.2255 143.618 69.168 141.164 69.168 138.44H63.168C63.168 139.7 62.7905 140.342 62.2633 140.783L66.1127 145.385ZM69.168 138.44C69.168 135.696 68.2425 133.201 66.0877 131.438L62.2883 136.082C62.7735 136.479 63.168 137.104 63.168 138.44H69.168ZM66.1127 131.459C64.0555 129.738 61.3542 129.104 58.464 129.104V135.104C60.5658 135.104 61.6805 135.574 62.2633 136.061L66.1127 131.459ZM58.464 129.104H51.768V135.104H58.464V129.104ZM48.768 132.104V144.704H54.768V132.104H48.768ZM51.768 147.704H58.464V141.704H51.768V147.704ZM95.4003 155L92.9554 156.739C93.5182 157.53 94.4292 158 95.4003 158V155ZM89.6403 146.9L92.0851 145.161C91.454 144.274 90.3914 143.798 89.309 143.918L89.6403 146.9ZM80.8563 147.008V144.008C79.1994 144.008 77.8563 145.351 77.8563 147.008H80.8563ZM80.8563 155V158C82.5131 158 83.8563 156.657 83.8563 155H80.8563ZM78.1923 155H75.1923C75.1923 156.657 76.5354 158 78.1923 158V155ZM78.1923 129.8V126.8C76.5354 126.8 75.1923 128.143 75.1923 129.8H78.1923ZM95.1843 132.104L93.2519 134.399L95.1843 132.104ZM96.4083 143.444L93.9931 141.664L93.9877 141.672L96.4083 143.444ZM92.1603 146.36L91.2339 143.507C90.325 143.802 89.6111 144.512 89.3115 145.419C89.012 146.327 89.1625 147.323 89.717 148.101L92.1603 146.36ZM98.3163 155V158C99.4394 158 100.468 157.373 100.983 156.374C101.497 155.376 101.411 154.174 100.76 153.259L98.3163 155ZM93.2763 143.084L95.2009 145.385L93.2763 143.084ZM93.2763 133.76L91.3516 136.061C91.3599 136.068 91.3682 136.075 91.3766 136.082L93.2763 133.76ZM80.8563 132.104V129.104C79.1994 129.104 77.8563 130.447 77.8563 132.104H80.8563ZM80.8563 144.74H77.8563C77.8563 146.397 79.1994 147.74 80.8563 147.74V144.74ZM97.8451 153.261L92.0851 145.161L87.1954 148.639L92.9554 156.739L97.8451 153.261ZM89.309 143.918C88.7781 143.977 88.217 144.008 87.6243 144.008V150.008C88.4236 150.008 89.2065 149.967 89.9716 149.882L89.309 143.918ZM87.6243 144.008H80.8563V150.008H87.6243V144.008ZM77.8563 147.008V155H83.8563V147.008H77.8563ZM80.8563 152H78.1923V158H80.8563V152ZM81.1923 155V129.8H75.1923V155H81.1923ZM78.1923 132.8H87.6243V126.8H78.1923V132.8ZM87.6243 132.8C90.3806 132.8 92.1319 133.456 93.2519 134.399L97.1167 129.809C94.5887 127.68 91.3 126.8 87.6243 126.8V132.8ZM93.2519 134.399C94.3079 135.288 94.9203 136.511 94.9203 138.44H100.92C100.92 134.993 99.7086 131.992 97.1167 129.809L93.2519 134.399ZM94.9203 138.44C94.9203 139.873 94.5633 140.891 93.9931 141.664L98.8234 145.224C100.269 143.261 100.92 140.943 100.92 138.44H94.9203ZM93.9877 141.672C93.4351 142.427 92.5856 143.068 91.2339 143.507L93.0867 149.213C95.4309 148.452 97.4135 147.149 98.8289 145.216L93.9877 141.672ZM89.717 148.101L95.873 156.741L100.76 153.259L94.6035 144.619L89.717 148.101ZM98.3163 152H95.4003V158H98.3163V152ZM87.5523 147.74C90.4425 147.74 93.1438 147.106 95.2009 145.385L91.3516 140.783C90.7688 141.27 89.654 141.74 87.5523 141.74V147.74ZM95.2009 145.385C97.3138 143.618 98.2563 141.164 98.2563 138.44H92.2563C92.2563 139.7 91.8788 140.342 91.3516 140.783L95.2009 145.385ZM98.2563 138.44C98.2563 135.696 97.3308 133.201 95.176 131.438L91.3766 136.082C91.8618 136.479 92.2563 137.104 92.2563 138.44H98.2563ZM95.2009 131.459C93.1438 129.738 90.4425 129.104 87.5523 129.104V135.104C89.654 135.104 90.7688 135.574 91.3516 136.061L95.2009 131.459ZM87.5523 129.104H80.8563V135.104H87.5523V129.104ZM77.8563 132.104V144.74H83.8563V132.104H77.8563ZM80.8563 147.74H87.5523V141.74H80.8563V147.74ZM125.628 152.696H128.628C128.628 151.039 127.285 149.696 125.628 149.696V152.696ZM125.628 155V158C127.285 158 128.628 156.657 128.628 155H125.628ZM107.808 155H104.808C104.808 156.657 106.151 158 107.808 158V155ZM107.808 129.8V126.8C106.151 126.8 104.808 128.143 104.808 129.8H107.808ZM125.088 129.8H128.088C128.088 128.143 126.745 126.8 125.088 126.8V129.8ZM125.088 132.104V135.104C126.745 135.104 128.088 133.761 128.088 132.104H125.088ZM110.472 132.104V129.104C108.815 129.104 107.472 130.447 107.472 132.104H110.472ZM110.472 141.068H107.472C107.472 142.725 108.815 144.068 110.472 144.068V141.068ZM123.504 141.068H126.504C126.504 139.411 125.161 138.068 123.504 138.068V141.068ZM123.504 143.336V146.336C125.161 146.336 126.504 144.993 126.504 143.336H123.504ZM110.472 143.336V140.336C108.815 140.336 107.472 141.679 107.472 143.336H110.472ZM110.472 152.696H107.472C107.472 154.353 108.815 155.696 110.472 155.696V152.696ZM122.628 152.696V155H128.628V152.696H122.628ZM125.628 152H107.808V158H125.628V152ZM110.808 155V129.8H104.808V155H110.808ZM107.808 132.8H125.088V126.8H107.808V132.8ZM122.088 129.8V132.104H128.088V129.8H122.088ZM125.088 129.104H110.472V135.104H125.088V129.104ZM107.472 132.104V141.068H113.472V132.104H107.472ZM110.472 144.068H123.504V138.068H110.472V144.068ZM120.504 141.068V143.336H126.504V141.068H120.504ZM123.504 140.336H110.472V146.336H123.504V140.336ZM107.472 143.336V152.696H113.472V143.336H107.472ZM110.472 155.696H125.628V149.696H110.472V155.696ZM137.038 154.316L136.042 157.146L136.054 157.15L137.038 154.316ZM133.078 151.94L130.404 150.58C129.828 151.713 130.028 153.086 130.904 154.008L133.078 151.94ZM134.122 149.888L136.243 147.767C135.564 147.087 134.601 146.775 133.652 146.925C132.703 147.076 131.884 147.671 131.448 148.528L134.122 149.888ZM137.758 152.12L136.69 154.923C136.703 154.928 136.716 154.933 136.729 154.938L137.758 152.12ZM147.514 151.724L149.272 154.155C149.284 154.147 149.295 154.138 149.306 154.13L147.514 151.724ZM148.27 146.072L146.149 148.193C146.162 148.207 146.176 148.221 146.191 148.234L148.27 146.072ZM146.038 144.704L144.976 147.51C144.999 147.518 145.021 147.526 145.043 147.534L146.038 144.704ZM142.33 143.624L141.594 146.532C141.603 146.535 141.613 146.537 141.623 146.54L142.33 143.624ZM137.794 142.256L136.67 145.037C136.687 145.044 136.704 145.051 136.721 145.058L137.794 142.256ZM134.878 140.204L132.613 142.171C132.623 142.182 132.632 142.193 132.642 142.204L134.878 140.204ZM134.698 133.04L137.212 134.677C137.218 134.668 137.223 134.659 137.229 134.651L134.698 133.04ZM137.794 130.52L139.021 133.258L137.794 130.52ZM147.19 130.196L146.333 133.071C146.352 133.077 146.372 133.082 146.392 133.088L147.19 130.196ZM150.79 131.816L153.552 132.986C154.107 131.676 153.666 130.156 152.495 129.347L150.79 131.816ZM149.89 133.94L148.239 136.445C148.983 136.935 149.906 137.069 150.758 136.812C151.611 136.554 152.305 135.931 152.652 135.11L149.89 133.94ZM146.506 132.392L145.644 135.265C145.662 135.271 145.679 135.276 145.697 135.281L146.506 132.392ZM137.974 133.148L139.791 135.535L139.798 135.53L137.974 133.148ZM137.218 138.872L135.055 140.951C135.083 140.98 135.11 141.007 135.139 141.034L137.218 138.872ZM139.522 140.276L138.485 143.091C138.514 143.102 138.544 143.112 138.573 143.122L139.522 140.276ZM143.266 141.32L143.985 138.407H143.983L143.266 141.32ZM147.73 142.688L146.606 145.469C146.629 145.479 146.653 145.488 146.677 145.497L147.73 142.688ZM150.646 144.704L148.381 146.671C148.39 146.681 148.398 146.691 148.407 146.701L150.646 144.704ZM150.79 151.832L148.285 150.181C148.282 150.186 148.279 150.19 148.276 150.195L150.79 151.832ZM147.658 154.316L148.828 157.078C148.842 157.073 148.855 157.067 148.868 157.061L147.658 154.316ZM142.438 152.216C140.893 152.216 139.426 151.97 138.022 151.482L136.054 157.15C138.106 157.862 140.239 158.216 142.438 158.216V152.216ZM138.034 151.486C136.636 150.994 135.771 150.419 135.252 149.872L130.904 154.008C132.257 155.429 134.032 156.438 136.042 157.146L138.034 151.486ZM135.752 153.3L136.796 151.248L131.448 148.528L130.404 150.58L135.752 153.3ZM132.001 152.009C133.278 153.286 134.88 154.234 136.69 154.923L138.826 149.317C137.612 148.854 136.79 148.314 136.243 147.767L132.001 152.009ZM136.729 154.938C138.57 155.61 140.479 155.948 142.438 155.948V149.948C141.181 149.948 139.969 149.734 138.787 149.302L136.729 154.938ZM142.438 155.948C144.966 155.948 147.403 155.507 149.272 154.155L145.756 149.293C145.369 149.573 144.422 149.948 142.438 149.948V155.948ZM149.306 154.13C151.136 152.767 152.206 150.822 152.206 148.484H146.206C146.206 148.786 146.148 149.001 145.722 149.318L149.306 154.13ZM152.206 148.484C152.206 146.806 151.659 145.169 150.349 143.909L146.191 148.234C146.194 148.238 146.19 148.234 146.183 148.224C146.177 148.214 146.174 148.208 146.175 148.21C146.176 148.213 146.206 148.29 146.206 148.484H152.206ZM150.391 143.951C149.44 143 148.298 142.318 147.032 141.874L145.043 147.534C145.554 147.714 145.9 147.944 146.149 148.193L150.391 143.951ZM147.1 141.898C146.042 141.498 144.669 141.104 143.037 140.708L141.623 146.54C143.159 146.912 144.257 147.238 144.976 147.51L147.1 141.898ZM143.066 140.716C141.224 140.249 139.839 139.827 138.867 139.454L136.721 145.058C138.005 145.549 139.644 146.039 141.594 146.532L143.066 140.716ZM138.918 139.475C138.218 139.192 137.626 138.776 137.114 138.204L132.642 142.204C133.762 143.456 135.114 144.408 136.67 145.037L138.918 139.475ZM137.143 138.237C136.949 138.014 136.69 137.549 136.69 136.496H130.69C130.69 138.563 131.222 140.57 132.613 142.171L137.143 138.237ZM136.69 136.496C136.69 135.785 136.868 135.205 137.212 134.677L132.184 131.403C131.184 132.939 130.69 134.663 130.69 136.496H136.69ZM137.229 134.651C137.523 134.189 138.046 133.694 139.021 133.258L136.567 127.782C134.757 128.594 133.217 129.779 132.167 131.429L137.229 134.651ZM139.021 133.258C139.916 132.856 141.196 132.584 142.978 132.584V126.584C140.632 126.584 138.455 126.936 136.567 127.782L139.021 133.258ZM142.978 132.584C144.13 132.584 145.245 132.747 146.333 133.071L148.047 127.321C146.399 126.829 144.706 126.584 142.978 126.584V132.584ZM146.392 133.088C147.517 133.398 148.398 133.81 149.085 134.285L152.495 129.347C151.166 128.43 149.647 127.762 147.988 127.304L146.392 133.088ZM148.028 130.646L147.128 132.77L152.652 135.11L153.552 132.986L148.028 130.646ZM151.541 131.435C150.23 130.571 148.818 129.924 147.315 129.503L145.697 135.281C146.594 135.532 147.438 135.917 148.239 136.445L151.541 131.435ZM147.368 129.519C145.913 129.082 144.446 128.852 142.978 128.852V134.852C143.814 134.852 144.699 134.982 145.644 135.265L147.368 129.519ZM142.978 128.852C140.454 128.852 138.021 129.333 136.15 130.766L139.798 135.53C140.183 135.235 141.086 134.852 142.978 134.852V128.852ZM136.157 130.761C134.336 132.146 133.318 134.108 133.318 136.424H139.318C139.318 136.052 139.404 135.83 139.791 135.535L136.157 130.761ZM133.318 136.424C133.318 138.07 133.83 139.677 135.055 140.951L139.38 136.793C139.369 136.781 139.366 136.777 139.359 136.757C139.348 136.729 139.318 136.63 139.318 136.424H133.318ZM135.139 141.034C136.096 141.955 137.232 142.629 138.485 143.091L140.559 137.461C139.988 137.251 139.588 136.989 139.297 136.71L135.139 141.034ZM138.573 143.122C139.618 143.47 140.953 143.84 142.549 144.233L143.983 138.407C142.459 138.032 141.298 137.706 140.471 137.43L138.573 143.122ZM142.547 144.233C144.325 144.671 145.661 145.088 146.606 145.469L148.854 139.907C147.542 139.376 145.903 138.881 143.985 138.407L142.547 144.233ZM146.677 145.497C147.37 145.757 147.923 146.143 148.381 146.671L152.911 142.737C151.785 141.441 150.394 140.483 148.783 139.879L146.677 145.497ZM148.407 146.701C148.58 146.895 148.834 147.32 148.834 148.34H154.834C154.834 146.288 154.296 144.289 152.885 142.707L148.407 146.701ZM148.834 148.34C148.834 149.029 148.656 149.618 148.285 150.181L153.295 153.483C154.316 151.934 154.834 150.195 154.834 148.34H148.834ZM148.276 150.195C147.994 150.627 147.468 151.122 146.448 151.571L148.868 157.061C150.68 156.262 152.241 155.101 153.304 153.469L148.276 150.195ZM146.487 151.554C145.545 151.953 144.23 152.216 142.438 152.216V158.216C144.774 158.216 146.939 157.879 148.828 157.078L146.487 151.554ZM179.058 152.696H182.058C182.058 151.039 180.715 149.696 179.058 149.696V152.696ZM179.058 155V158C180.715 158 182.058 156.657 182.058 155H179.058ZM161.238 155H158.238C158.238 156.657 159.582 158 161.238 158V155ZM161.238 129.8V126.8C159.582 126.8 158.238 128.143 158.238 129.8H161.238ZM178.518 129.8H181.518C181.518 128.143 180.175 126.8 178.518 126.8V129.8ZM178.518 132.104V135.104C180.175 135.104 181.518 133.761 181.518 132.104H178.518ZM163.902 132.104V129.104C162.246 129.104 160.902 130.447 160.902 132.104H163.902ZM163.902 141.068H160.902C160.902 142.725 162.246 144.068 163.902 144.068V141.068ZM176.934 141.068H179.934C179.934 139.411 178.591 138.068 176.934 138.068V141.068ZM176.934 143.336V146.336C178.591 146.336 179.934 144.993 179.934 143.336H176.934ZM163.902 143.336V140.336C162.246 140.336 160.902 141.679 160.902 143.336H163.902ZM163.902 152.696H160.902C160.902 154.353 162.246 155.696 163.902 155.696V152.696ZM176.058 152.696V155H182.058V152.696H176.058ZM179.058 152H161.238V158H179.058V152ZM164.238 155V129.8H158.238V155H164.238ZM161.238 132.8H178.518V126.8H161.238V132.8ZM175.518 129.8V132.104H181.518V129.8H175.518ZM178.518 129.104H163.902V135.104H178.518V129.104ZM160.902 132.104V141.068H166.902V132.104H160.902ZM163.902 144.068H176.934V138.068H163.902V144.068ZM173.934 141.068V143.336H179.934V141.068H173.934ZM176.934 140.336H163.902V146.336H176.934V140.336ZM160.902 143.336V152.696H166.902V143.336H160.902ZM163.902 155.696H179.058V149.696H163.902V155.696ZM209.98 129.8H212.98C212.98 128.143 211.637 126.8 209.98 126.8V129.8ZM209.98 155V158C211.637 158 212.98 156.657 212.98 155H209.98ZM207.784 155L205.433 156.863C206.002 157.581 206.868 158 207.784 158V155ZM191.584 134.552L193.936 132.689C193.143 131.688 191.804 131.299 190.598 131.719C189.392 132.138 188.584 133.275 188.584 134.552H191.584ZM191.584 155V158C193.241 158 194.584 156.657 194.584 155H191.584ZM188.92 155H185.92C185.92 156.657 187.264 158 188.92 158V155ZM188.92 129.8V126.8C187.264 126.8 185.92 128.143 185.92 129.8H188.92ZM191.116 129.8L193.466 127.935C192.897 127.218 192.032 126.8 191.116 126.8V129.8ZM207.352 150.248L205.003 152.113C205.796 153.113 207.135 153.501 208.34 153.081C209.545 152.661 210.352 151.524 210.352 150.248H207.352ZM207.352 129.8V126.8C205.696 126.8 204.352 128.143 204.352 129.8H207.352ZM206.98 129.8V155H212.98V129.8H206.98ZM209.98 152H207.784V158H209.98V152ZM210.136 153.137L193.936 132.689L189.233 136.415L205.433 156.863L210.136 153.137ZM188.584 134.552V155H194.584V134.552H188.584ZM191.584 152H188.92V158H191.584V152ZM191.92 155V129.8H185.92V155H191.92ZM188.92 132.8H191.116V126.8H188.92V132.8ZM188.767 131.665L205.003 152.113L209.702 148.383L193.466 127.935L188.767 131.665ZM210.352 150.248V129.8H204.352V150.248H210.352ZM207.352 132.8H209.98V126.8H207.352V132.8ZM226.702 132.104H229.702C229.702 130.447 228.358 129.104 226.702 129.104V132.104ZM217.846 132.104H214.846C214.846 133.761 216.189 135.104 217.846 135.104V132.104ZM217.846 129.8V126.8C216.189 126.8 214.846 128.143 214.846 129.8H217.846ZM238.222 129.8H241.222C241.222 128.143 239.878 126.8 238.222 126.8V129.8ZM238.222 132.104V135.104C239.878 135.104 241.222 133.761 241.222 132.104H238.222ZM229.366 132.104V129.104C227.709 129.104 226.366 130.447 226.366 132.104H229.366ZM229.366 155V158C231.022 158 232.366 156.657 232.366 155H229.366ZM226.702 155H223.702C223.702 156.657 225.045 158 226.702 158V155ZM226.702 129.104H217.846V135.104H226.702V129.104ZM220.846 132.104V129.8H214.846V132.104H220.846ZM217.846 132.8H238.222V126.8H217.846V132.8ZM235.222 129.8V132.104H241.222V129.8H235.222ZM238.222 129.104H229.366V135.104H238.222V129.104ZM226.366 132.104V155H232.366V132.104H226.366ZM229.366 152H226.702V158H229.366V152ZM229.702 155V132.104H223.702V155H229.702Z" fill="white"/>
<path d="M109.28 166.38H104.08V166H114.88V166.38H109.68V180H109.28V166.38ZM128.937 179.62V180H119.617V166H128.637V166.38H120.017V172.7H127.737V173.08H120.017V179.62H128.937ZM145.976 166V180H145.636L135.376 166.74V180H134.976V166H135.316L145.576 179.26V166H145.976ZM156.725 180.06C155.711 180.06 154.758 179.88 153.865 179.52C152.971 179.147 152.285 178.667 151.805 178.08L152.085 177.82C152.538 178.353 153.185 178.8 154.025 179.16C154.865 179.507 155.758 179.68 156.705 179.68C158.158 179.68 159.251 179.393 159.985 178.82C160.731 178.233 161.105 177.48 161.105 176.56C161.105 175.84 160.911 175.267 160.525 174.84C160.138 174.413 159.658 174.093 159.085 173.88C158.525 173.667 157.765 173.447 156.805 173.22C155.778 172.967 154.965 172.727 154.365 172.5C153.765 172.26 153.251 171.9 152.825 171.42C152.411 170.927 152.205 170.273 152.205 169.46C152.205 168.82 152.371 168.233 152.705 167.7C153.038 167.167 153.558 166.74 154.265 166.42C154.971 166.1 155.845 165.94 156.885 165.94C157.631 165.94 158.365 166.06 159.085 166.3C159.805 166.527 160.425 166.833 160.945 167.22L160.725 167.54C160.178 167.14 159.565 166.84 158.885 166.64C158.218 166.427 157.558 166.32 156.905 166.32C155.505 166.32 154.438 166.62 153.705 167.22C152.971 167.807 152.605 168.56 152.605 169.48C152.605 170.2 152.798 170.78 153.185 171.22C153.571 171.647 154.051 171.967 154.625 172.18C155.198 172.393 155.971 172.62 156.945 172.86C157.958 173.113 158.765 173.36 159.365 173.6C159.965 173.827 160.471 174.18 160.885 174.66C161.298 175.127 161.505 175.76 161.505 176.56C161.505 177.2 161.331 177.787 160.985 178.32C160.638 178.853 160.105 179.28 159.385 179.6C158.678 179.907 157.791 180.06 156.725 180.06ZM176.636 179.62V180H167.316V166H176.336V166.38H167.716V172.7H175.436V173.08H167.716V179.62H176.636Z" fill="white"/>
<path d="M109.28 166.38H111.28C111.28 165.275 110.385 164.38 109.28 164.38V166.38ZM104.08 166.38H102.08C102.08 167.485 102.975 168.38 104.08 168.38V166.38ZM104.08 166V164C102.975 164 102.08 164.895 102.08 166H104.08ZM114.88 166H116.88C116.88 164.895 115.985 164 114.88 164V166ZM114.88 166.38V168.38C115.985 168.38 116.88 167.485 116.88 166.38H114.88ZM109.68 166.38V164.38C108.575 164.38 107.68 165.275 107.68 166.38H109.68ZM109.68 180V182C110.785 182 111.68 181.105 111.68 180H109.68ZM109.28 180H107.28C107.28 181.105 108.175 182 109.28 182V180ZM109.28 164.38H104.08V168.38H109.28V164.38ZM106.08 166.38V166H102.08V166.38H106.08ZM104.08 168H114.88V164H104.08V168ZM112.88 166V166.38H116.88V166H112.88ZM114.88 164.38H109.68V168.38H114.88V164.38ZM107.68 166.38V180H111.68V166.38H107.68ZM109.68 178H109.28V182H109.68V178ZM111.28 180V166.38H107.28V180H111.28ZM128.937 179.62H130.937C130.937 178.515 130.042 177.62 128.937 177.62V179.62ZM128.937 180V182C130.042 182 130.937 181.105 130.937 180H128.937ZM119.617 180H117.617C117.617 181.105 118.512 182 119.617 182V180ZM119.617 166V164C118.512 164 117.617 164.895 117.617 166H119.617ZM128.637 166H130.637C130.637 164.895 129.742 164 128.637 164V166ZM128.637 166.38V168.38C129.742 168.38 130.637 167.485 130.637 166.38H128.637ZM120.017 166.38V164.38C118.912 164.38 118.017 165.275 118.017 166.38H120.017ZM120.017 172.7H118.017C118.017 173.805 118.912 174.7 120.017 174.7V172.7ZM127.737 172.7H129.737C129.737 171.595 128.842 170.7 127.737 170.7V172.7ZM127.737 173.08V175.08C128.842 175.08 129.737 174.185 129.737 173.08H127.737ZM120.017 173.08V171.08C118.912 171.08 118.017 171.975 118.017 173.08H120.017ZM120.017 179.62H118.017C118.017 180.725 118.912 181.62 120.017 181.62V179.62ZM126.937 179.62V180H130.937V179.62H126.937ZM128.937 178H119.617V182H128.937V178ZM121.617 180V166H117.617V180H121.617ZM119.617 168H128.637V164H119.617V168ZM126.637 166V166.38H130.637V166H126.637ZM128.637 164.38H120.017V168.38H128.637V164.38ZM118.017 166.38V172.7H122.017V166.38H118.017ZM120.017 174.7H127.737V170.7H120.017V174.7ZM125.737 172.7V173.08H129.737V172.7H125.737ZM127.737 171.08H120.017V175.08H127.737V171.08ZM118.017 173.08V179.62H122.017V173.08H118.017ZM120.017 181.62H128.937V177.62H120.017V181.62ZM145.976 166H147.976C147.976 164.895 147.081 164 145.976 164V166ZM145.976 180V182C147.081 182 147.976 181.105 147.976 180H145.976ZM145.636 180L144.055 181.224C144.433 181.713 145.017 182 145.636 182V180ZM135.376 166.74L136.958 165.516C136.435 164.84 135.539 164.571 134.73 164.847C133.92 165.124 133.376 165.885 133.376 166.74H135.376ZM135.376 180V182C136.481 182 137.376 181.105 137.376 180H135.376ZM134.976 180H132.976C132.976 181.105 133.872 182 134.976 182V180ZM134.976 166V164C133.872 164 132.976 164.895 132.976 166H134.976ZM135.316 166L136.898 164.776C136.519 164.287 135.935 164 135.316 164V166ZM145.576 179.26L143.995 180.484C144.518 181.16 145.414 181.429 146.223 181.153C147.032 180.876 147.576 180.115 147.576 179.26H145.576ZM145.576 166V164C144.472 164 143.576 164.895 143.576 166H145.576ZM143.976 166V180H147.976V166H143.976ZM145.976 178H145.636V182H145.976V178ZM147.218 178.776L136.958 165.516L133.795 167.964L144.055 181.224L147.218 178.776ZM133.376 166.74V180H137.376V166.74H133.376ZM135.376 178H134.976V182H135.376V178ZM136.976 180V166H132.976V180H136.976ZM134.976 168H135.316V164H134.976V168ZM133.735 167.224L143.995 180.484L147.158 178.036L136.898 164.776L133.735 167.224ZM147.576 179.26V166H143.576V179.26H147.576ZM145.576 168H145.976V164H145.576V168ZM153.865 179.52L153.093 181.365C153.101 181.369 153.109 181.372 153.117 181.375L153.865 179.52ZM151.805 178.08L150.444 176.614C149.67 177.333 149.588 178.529 150.257 179.346L151.805 178.08ZM152.085 177.82L153.608 176.525C153.255 176.109 152.747 175.856 152.202 175.823C151.658 175.791 151.123 175.983 150.724 176.354L152.085 177.82ZM154.025 179.16L153.237 180.998C153.245 181.002 153.253 181.005 153.262 181.009L154.025 179.16ZM159.985 178.82L161.216 180.396L161.22 180.393L159.985 178.82ZM160.525 174.84L159.043 176.183L160.525 174.84ZM159.085 173.88L158.373 175.749C158.377 175.751 158.382 175.753 158.387 175.754L159.085 173.88ZM156.805 173.22L156.325 175.162C156.332 175.163 156.338 175.165 156.345 175.166L156.805 173.22ZM154.365 172.5L153.622 174.357C153.634 174.362 153.646 174.366 153.658 174.371L154.365 172.5ZM152.825 171.42L151.291 172.704C151.304 172.719 151.317 172.734 151.33 172.749L152.825 171.42ZM152.705 167.7L154.401 168.76L152.705 167.7ZM159.085 166.3L158.452 168.197C158.463 168.201 158.473 168.204 158.484 168.208L159.085 166.3ZM160.945 167.22L162.593 168.353C163.202 167.467 163.001 166.257 162.138 165.615L160.945 167.22ZM160.725 167.54L159.544 169.154C159.98 169.473 160.527 169.602 161.06 169.512C161.593 169.421 162.066 169.119 162.373 168.673L160.725 167.54ZM158.885 166.64L158.275 168.545C158.29 168.55 158.305 168.554 158.32 168.559L158.885 166.64ZM153.705 167.22L154.954 168.782C154.96 168.777 154.965 168.773 154.971 168.768L153.705 167.22ZM153.185 171.22L151.682 172.54C151.689 172.548 151.696 172.555 151.703 172.563L153.185 171.22ZM154.625 172.18L155.322 170.306L154.625 172.18ZM156.945 172.86L157.43 170.92L157.423 170.918L156.945 172.86ZM159.365 173.6L158.622 175.457C158.634 175.462 158.646 175.466 158.658 175.471L159.365 173.6ZM160.885 174.66L159.369 175.965C159.375 175.972 159.381 175.979 159.387 175.986L160.885 174.66ZM160.985 178.32L159.308 177.23L160.985 178.32ZM159.385 179.6L160.181 181.435C160.186 181.432 160.191 181.43 160.197 181.428L159.385 179.6ZM156.725 178.06C155.954 178.06 155.256 177.924 154.612 177.665L153.117 181.375C154.26 181.836 155.469 182.06 156.725 182.06V178.06ZM154.636 177.675C153.963 177.394 153.575 177.086 153.352 176.814L150.257 179.346C150.994 180.248 151.979 180.9 153.093 181.365L154.636 177.675ZM153.165 179.546L153.445 179.286L150.724 176.354L150.444 176.614L153.165 179.546ZM150.561 179.115C151.266 179.945 152.196 180.552 153.237 180.998L154.812 177.322C154.173 177.048 153.81 176.762 153.608 176.525L150.561 179.115ZM153.262 181.009C154.354 181.459 155.507 181.68 156.705 181.68V177.68C156.009 177.68 155.375 177.554 154.788 177.311L153.262 181.009ZM156.705 181.68C158.369 181.68 159.982 181.36 161.216 180.396L158.753 177.244C158.52 177.426 157.947 177.68 156.705 177.68V181.68ZM161.22 180.393C162.431 179.441 163.105 178.116 163.105 176.56H159.105C159.105 176.844 159.031 177.026 158.749 177.247L161.22 180.393ZM163.105 176.56C163.105 175.473 162.804 174.377 162.007 173.497L159.043 176.183C159.044 176.185 159.046 176.187 159.048 176.191C159.051 176.195 159.057 176.206 159.064 176.229C159.08 176.275 159.105 176.377 159.105 176.56H163.105ZM162.007 173.497C161.391 172.818 160.636 172.323 159.782 172.006L158.387 175.754C158.679 175.863 158.884 176.009 159.043 176.183L162.007 173.497ZM159.797 172.011C159.119 171.753 158.263 171.509 157.264 171.274L156.345 175.166C157.266 175.384 157.93 175.58 158.373 175.749L159.797 172.011ZM157.284 171.278C156.292 171.033 155.565 170.815 155.071 170.629L153.658 174.371C154.364 174.638 155.264 174.9 156.325 175.162L157.284 171.278ZM155.107 170.643C154.794 170.518 154.538 170.338 154.319 170.091L151.33 172.749C151.964 173.462 152.735 174.002 153.622 174.357L155.107 170.643ZM154.358 170.136C154.319 170.089 154.205 169.931 154.205 169.46H150.205C150.205 170.616 150.504 171.764 151.291 172.704L154.358 170.136ZM154.205 169.46C154.205 169.188 154.27 168.97 154.401 168.76L151.009 166.64C150.473 167.497 150.205 168.452 150.205 169.46H154.205ZM154.401 168.76C154.481 168.632 154.658 168.437 155.09 168.242L153.44 164.598C152.458 165.043 151.595 165.702 151.009 166.64L154.401 168.76ZM155.09 168.242C155.465 168.072 156.037 167.94 156.885 167.94V163.94C155.652 163.94 154.478 164.128 153.44 164.598L155.09 168.242ZM156.885 167.94C157.413 167.94 157.933 168.024 158.452 168.197L159.717 164.403C158.796 164.096 157.85 163.94 156.885 163.94V167.94ZM158.484 168.208C159.025 168.378 159.437 168.592 159.751 168.825L162.138 165.615C161.412 165.075 160.584 164.675 159.685 164.392L158.484 168.208ZM159.296 166.087L159.076 166.407L162.373 168.673L162.593 168.353L159.296 166.087ZM161.906 165.926C161.164 165.383 160.34 164.983 159.449 164.721L158.32 168.559C158.789 168.697 159.192 168.897 159.544 169.154L161.906 165.926ZM159.494 164.735C158.644 164.463 157.779 164.32 156.905 164.32V168.32C157.337 168.32 157.791 168.39 158.275 168.545L159.494 164.735ZM156.905 164.32C155.256 164.32 153.665 164.668 152.438 165.672L154.971 168.768C155.211 168.571 155.753 168.32 156.905 168.32V164.32ZM152.455 165.658C151.259 166.615 150.605 167.938 150.605 169.48H154.605C154.605 169.182 154.684 168.998 154.954 168.782L152.455 165.658ZM150.605 169.48C150.605 170.57 150.906 171.657 151.682 172.54L154.687 169.9C154.677 169.889 154.663 169.871 154.647 169.823C154.629 169.769 154.605 169.662 154.605 169.48H150.605ZM151.703 172.563C152.318 173.242 153.073 173.737 153.927 174.054L155.322 170.306C155.03 170.197 154.825 170.051 154.667 169.877L151.703 172.563ZM153.927 174.054C154.602 174.306 155.459 174.554 156.466 174.802L157.423 170.918C156.484 170.686 155.793 170.481 155.322 170.306L153.927 174.054ZM156.459 174.8C157.431 175.043 158.141 175.265 158.622 175.457L160.107 171.743C159.388 171.455 158.484 171.183 157.43 170.92L156.459 174.8ZM158.658 175.471C158.949 175.581 159.177 175.742 159.369 175.965L162.4 173.355C161.766 172.618 160.98 172.072 160.071 171.729L158.658 175.471ZM159.387 175.986C159.393 175.993 159.505 176.106 159.505 176.56H163.505C163.505 175.414 163.202 174.26 162.382 173.334L159.387 175.986ZM159.505 176.56C159.505 176.816 159.442 177.023 159.308 177.23L162.661 179.41C163.22 178.55 163.505 177.584 163.505 176.56H159.505ZM159.308 177.23C159.217 177.369 159.023 177.572 158.572 177.772L160.197 181.428C161.186 180.988 162.059 180.337 162.661 179.41L159.308 177.23ZM158.588 177.765C158.21 177.93 157.616 178.06 156.725 178.06V182.06C157.967 182.06 159.146 181.884 160.181 181.435L158.588 177.765ZM176.636 179.62H178.636C178.636 178.515 177.741 177.62 176.636 177.62V179.62ZM176.636 180V182C177.741 182 178.636 181.105 178.636 180H176.636ZM167.316 180H165.316C165.316 181.105 166.212 182 167.316 182V180ZM167.316 166V164C166.212 164 165.316 164.895 165.316 166H167.316ZM176.336 166H178.336C178.336 164.895 177.441 164 176.336 164V166ZM176.336 166.38V168.38C177.441 168.38 178.336 167.485 178.336 166.38H176.336ZM167.716 166.38V164.38C166.612 164.38 165.716 165.275 165.716 166.38H167.716ZM167.716 172.7H165.716C165.716 173.805 166.612 174.7 167.716 174.7V172.7ZM175.436 172.7H177.436C177.436 171.595 176.541 170.7 175.436 170.7V172.7ZM175.436 173.08V175.08C176.541 175.08 177.436 174.185 177.436 173.08H175.436ZM167.716 173.08V171.08C166.612 171.08 165.716 171.975 165.716 173.08H167.716ZM167.716 179.62H165.716C165.716 180.725 166.612 181.62 167.716 181.62V179.62ZM174.636 179.62V180H178.636V179.62H174.636ZM176.636 178H167.316V182H176.636V178ZM169.316 180V166H165.316V180H169.316ZM167.316 168H176.336V164H167.316V168ZM174.336 166V166.38H178.336V166H174.336ZM176.336 164.38H167.716V168.38H176.336V164.38ZM165.716 166.38V172.7H169.716V166.38H165.716ZM167.716 174.7H175.436V170.7H167.716V174.7ZM173.436 172.7V173.08H177.436V172.7H173.436ZM175.436 171.08H167.716V175.08H175.436V171.08ZM165.716 173.08V179.62H169.716V173.08H165.716ZM167.716 181.62H176.636V177.62H167.716V181.62Z" fill="white"/>
</mask>
<g mask="url(#mask0_157_2426)">
<path d="M0 127L9.46667 128.736C18.9333 130.512 37.8667 133.984 56.8 134.469C75.7333 134.953 94.6667 132.37 113.6 135.761C132.533 139.112 151.467 148.398 170.4 150.295C189.333 152.152 208.267 146.661 227.2 143.876C246.133 141.13 265.067 141.13 274.533 141.13H284V322H274.533C265.067 322 246.133 322 227.2 322C208.267 322 189.333 322 170.4 322C151.467 322 132.533 322 113.6 322C94.6667 322 75.7333 322 56.8 322C37.8667 322 18.9333 322 9.46667 322H0V127Z" fill="white"/>
</g>
</g>
<defs>
<clipPath id="clip0_157_2426">
<rect width="284" height="322" fill="white"/>
</clipPath>
</defs>
</svg>
