<svg width="284" height="322" viewBox="0 0 284 322" fill="none" xmlns="http://www.w3.org/2000/svg">
<g clip-path="url(#clip0_157_2380)">
<path d="M284 0H0V322H284V0Z" fill="#001220"/>
<path d="M33.762 129.898H36.204V152.998H33.762V129.898ZM71.011 129.898V152.998H68.668V134.518L59.593 150.061H58.438L49.363 134.617V152.998H47.02V129.898H49.033L59.065 147.025L68.998 129.898H71.011ZM90.4836 129.898C93.4316 129.898 95.7416 130.602 97.4136 132.01C99.0856 133.418 99.9216 135.354 99.9216 137.818C99.9216 140.282 99.0856 142.218 97.4136 143.626C95.7416 145.012 93.4316 145.705 90.4836 145.705H84.2796V152.998H81.8376V129.898H90.4836ZM90.4176 143.56C92.7056 143.56 94.4546 143.065 95.6646 142.075C96.8746 141.063 97.4796 139.644 97.4796 137.818C97.4796 135.948 96.8746 134.518 95.6646 133.528C94.4546 132.516 92.7056 132.01 90.4176 132.01H84.2796V143.56H90.4176ZM124.837 150.886V152.998H108.502V129.898H124.342V132.01H110.944V140.227H122.89V142.306H110.944V150.886H124.837ZM149.651 152.998L144.371 145.573C143.777 145.639 143.161 145.672 142.523 145.672H136.319V152.998H133.877V129.898H142.523C145.471 129.898 147.781 130.602 149.453 132.01C151.125 133.418 151.961 135.354 151.961 137.818C151.961 139.622 151.499 141.151 150.575 142.405C149.673 143.637 148.375 144.528 146.681 145.078L152.324 152.998H149.651ZM142.457 143.593C144.745 143.593 146.494 143.087 147.704 142.075C148.914 141.063 149.519 139.644 149.519 137.818C149.519 135.948 148.914 134.518 147.704 133.528C146.494 132.516 144.745 132.01 142.457 132.01H136.319V143.593H142.457ZM163.467 132.01V141.085H175.413V143.197H163.467V152.998H161.025V129.898H176.865V132.01H163.467ZM201.543 150.886V152.998H185.208V129.898H201.048V132.01H187.65V140.227H199.596V142.306H187.65V150.886H201.543ZM220.615 153.196C218.327 153.196 216.259 152.69 214.411 151.678C212.585 150.666 211.144 149.269 210.088 147.487C209.054 145.683 208.537 143.67 208.537 141.448C208.537 139.226 209.054 137.224 210.088 135.442C211.144 133.638 212.596 132.23 214.444 131.218C216.292 130.206 218.36 129.7 220.648 129.7C222.364 129.7 223.948 129.986 225.4 130.558C226.852 131.13 228.084 131.966 229.096 133.066L227.545 134.617C225.741 132.791 223.464 131.878 220.714 131.878C218.888 131.878 217.227 132.296 215.731 133.132C214.235 133.968 213.058 135.112 212.2 136.564C211.364 138.016 210.946 139.644 210.946 141.448C210.946 143.252 211.364 144.88 212.2 146.332C213.058 147.784 214.235 148.928 215.731 149.764C217.227 150.6 218.888 151.018 220.714 151.018C223.486 151.018 225.763 150.094 227.545 148.246L229.096 149.797C228.084 150.897 226.841 151.744 225.367 152.338C223.915 152.91 222.331 153.196 220.615 153.196ZM243.739 132.01H235.621V129.898H254.299V132.01H246.181V152.998H243.739V132.01Z" fill="#FACB66"/>
<path d="M33.762 129.898V126.898C32.1051 126.898 30.762 128.241 30.762 129.898H33.762ZM36.204 129.898H39.204C39.204 128.241 37.8609 126.898 36.204 126.898V129.898ZM36.204 152.998V155.998C37.8609 155.998 39.204 154.655 39.204 152.998H36.204ZM33.762 152.998H30.762C30.762 154.655 32.1051 155.998 33.762 155.998V152.998ZM33.762 132.898H36.204V126.898H33.762V132.898ZM33.204 129.898V152.998H39.204V129.898H33.204ZM36.204 149.998H33.762V155.998H36.204V149.998ZM36.762 152.998V129.898H30.762V152.998H36.762ZM71.011 129.898H74.011C74.011 128.241 72.6679 126.898 71.011 126.898V129.898ZM71.011 152.998V155.998C72.6679 155.998 74.011 154.655 74.011 152.998H71.011ZM68.668 152.998H65.668C65.668 154.655 67.0112 155.998 68.668 155.998V152.998ZM68.668 134.518H71.668C71.668 133.163 70.7596 131.976 69.4515 131.622C68.1435 131.268 66.7605 131.835 66.0773 133.005L68.668 134.518ZM59.593 150.061V153.061C60.6596 153.061 61.646 152.495 62.1837 151.574L59.593 150.061ZM58.438 150.061L55.8515 151.581C56.3903 152.498 57.3744 153.061 58.438 153.061V150.061ZM49.363 134.617L51.9495 133.097C51.2638 131.93 49.8815 131.367 48.5755 131.722C47.2694 132.078 46.363 133.264 46.363 134.617H49.363ZM49.363 152.998V155.998C51.0199 155.998 52.363 154.655 52.363 152.998H49.363ZM47.02 152.998H44.02C44.02 154.655 45.3632 155.998 47.02 155.998V152.998ZM47.02 129.898V126.898C45.3632 126.898 44.02 128.241 44.02 129.898H47.02ZM49.033 129.898L51.6216 128.382C51.0833 127.463 50.0981 126.898 49.033 126.898V129.898ZM59.065 147.025L56.4764 148.541C57.0159 149.462 58.0041 150.027 59.0715 150.025C60.1389 150.023 61.1246 149.454 61.6601 148.53L59.065 147.025ZM68.998 129.898V126.898C67.9283 126.898 66.9395 127.468 66.4029 128.393L68.998 129.898ZM68.011 129.898V152.998H74.011V129.898H68.011ZM71.011 149.998H68.668V155.998H71.011V149.998ZM71.668 152.998V134.518H65.668V152.998H71.668ZM66.0773 133.005L57.0023 148.548L62.1837 151.574L71.2587 136.031L66.0773 133.005ZM59.593 147.061H58.438V153.061H59.593V147.061ZM61.0245 148.541L51.9495 133.097L46.7765 136.137L55.8515 151.581L61.0245 148.541ZM46.363 134.617V152.998H52.363V134.617H46.363ZM49.363 149.998H47.02V155.998H49.363V149.998ZM50.02 152.998V129.898H44.02V152.998H50.02ZM47.02 132.898H49.033V126.898H47.02V132.898ZM46.4444 131.414L56.4764 148.541L61.6536 145.509L51.6216 128.382L46.4444 131.414ZM61.6601 148.53L71.5931 131.403L66.4029 128.393L56.4699 145.52L61.6601 148.53ZM68.998 132.898H71.011V126.898H68.998V132.898ZM97.4136 132.01L95.4812 134.305L97.4136 132.01ZM97.4136 143.626L99.3282 145.936C99.3341 145.931 99.3401 145.926 99.346 145.921L97.4136 143.626ZM84.2796 145.705V142.705C82.6227 142.705 81.2796 144.048 81.2796 145.705H84.2796ZM84.2796 152.998V155.998C85.9364 155.998 87.2796 154.655 87.2796 152.998H84.2796ZM81.8376 152.998H78.8376C78.8376 154.655 80.1807 155.998 81.8376 155.998V152.998ZM81.8376 129.898V126.898C80.1807 126.898 78.8376 128.241 78.8376 129.898H81.8376ZM95.6646 142.075L97.5643 144.397C97.5727 144.39 97.581 144.383 97.5893 144.376L95.6646 142.075ZM95.6646 133.528L93.7399 135.829C93.7482 135.836 93.7565 135.843 93.7649 135.85L95.6646 133.528ZM84.2796 132.01V129.01C82.6227 129.01 81.2796 130.353 81.2796 132.01H84.2796ZM84.2796 143.56H81.2796C81.2796 145.217 82.6227 146.56 84.2796 146.56V143.56ZM90.4836 132.898C92.9719 132.898 94.5132 133.49 95.4812 134.305L99.346 129.715C96.97 127.714 93.8913 126.898 90.4836 126.898V132.898ZM95.4812 134.305C96.3852 135.066 96.9216 136.113 96.9216 137.818H102.922C102.922 134.596 101.786 131.77 99.346 129.715L95.4812 134.305ZM96.9216 137.818C96.9216 139.524 96.3852 140.57 95.4812 141.331L99.346 145.921C101.786 143.866 102.922 141.041 102.922 137.818H96.9216ZM95.499 141.316C94.5304 142.119 92.9821 142.705 90.4836 142.705V148.705C93.881 148.705 96.9527 147.905 99.3282 145.936L95.499 141.316ZM90.4836 142.705H84.2796V148.705H90.4836V142.705ZM81.2796 145.705V152.998H87.2796V145.705H81.2796ZM84.2796 149.998H81.8376V155.998H84.2796V149.998ZM84.8376 152.998V129.898H78.8376V152.998H84.8376ZM81.8376 132.898H90.4836V126.898H81.8376V132.898ZM90.4176 146.56C93.0868 146.56 95.6187 145.989 97.5643 144.397L93.7649 139.753C93.2904 140.141 92.3244 140.56 90.4176 140.56V146.56ZM97.5893 144.376C99.5921 142.701 100.48 140.376 100.48 137.818H94.4796C94.4796 138.912 94.1571 139.425 93.7399 139.774L97.5893 144.376ZM100.48 137.818C100.48 135.244 99.6091 132.879 97.5643 131.206L93.7649 135.85C94.1401 136.157 94.4796 136.652 94.4796 137.818H100.48ZM97.5893 131.227C95.6421 129.598 93.0998 129.01 90.4176 129.01V135.01C92.3113 135.01 93.2671 135.434 93.7399 135.829L97.5893 131.227ZM90.4176 129.01H84.2796V135.01H90.4176V129.01ZM81.2796 132.01V143.56H87.2796V132.01H81.2796ZM84.2796 146.56H90.4176V140.56H84.2796V146.56ZM124.837 150.886H127.837C127.837 149.229 126.494 147.886 124.837 147.886V150.886ZM124.837 152.998V155.998C126.494 155.998 127.837 154.655 127.837 152.998H124.837ZM108.502 152.998H105.502C105.502 154.655 106.845 155.998 108.502 155.998V152.998ZM108.502 129.898V126.898C106.845 126.898 105.502 128.241 105.502 129.898H108.502ZM124.342 129.898H127.342C127.342 128.241 125.999 126.898 124.342 126.898V129.898ZM124.342 132.01V135.01C125.999 135.01 127.342 133.667 127.342 132.01H124.342ZM110.944 132.01V129.01C109.287 129.01 107.944 130.353 107.944 132.01H110.944ZM110.944 140.227H107.944C107.944 141.884 109.287 143.227 110.944 143.227V140.227ZM122.89 140.227H125.89C125.89 138.57 124.547 137.227 122.89 137.227V140.227ZM122.89 142.306V145.306C124.547 145.306 125.89 143.963 125.89 142.306H122.89ZM110.944 142.306V139.306C109.287 139.306 107.944 140.649 107.944 142.306H110.944ZM110.944 150.886H107.944C107.944 152.543 109.287 153.886 110.944 153.886V150.886ZM121.837 150.886V152.998H127.837V150.886H121.837ZM124.837 149.998H108.502V155.998H124.837V149.998ZM111.502 152.998V129.898H105.502V152.998H111.502ZM108.502 132.898H124.342V126.898H108.502V132.898ZM121.342 129.898V132.01H127.342V129.898H121.342ZM124.342 129.01H110.944V135.01H124.342V129.01ZM107.944 132.01V140.227H113.944V132.01H107.944ZM110.944 143.227H122.89V137.227H110.944V143.227ZM119.89 140.227V142.306H125.89V140.227H119.89ZM122.89 139.306H110.944V145.306H122.89V139.306ZM107.944 142.306V150.886H113.944V142.306H107.944ZM110.944 153.886H124.837V147.886H110.944V153.886ZM149.651 152.998L147.206 154.737C147.769 155.528 148.68 155.998 149.651 155.998V152.998ZM144.371 145.573L146.816 143.835C146.185 142.947 145.122 142.471 144.04 142.591L144.371 145.573ZM136.319 145.672V142.672C134.662 142.672 133.319 144.015 133.319 145.672H136.319ZM136.319 152.998V155.998C137.976 155.998 139.319 154.655 139.319 152.998H136.319ZM133.877 152.998H130.877C130.877 154.655 132.22 155.998 133.877 155.998V152.998ZM133.877 129.898V126.898C132.22 126.898 130.877 128.241 130.877 129.898H133.877ZM149.453 132.01L147.521 134.305L149.453 132.01ZM150.575 142.405L148.16 140.625L148.154 140.633L150.575 142.405ZM146.681 145.078L145.755 142.225C144.846 142.52 144.132 143.23 143.832 144.138C143.533 145.045 143.683 146.041 144.238 146.819L146.681 145.078ZM152.324 152.998V155.998C153.447 155.998 154.476 155.371 154.991 154.372C155.505 153.374 155.419 152.172 154.767 151.257L152.324 152.998ZM147.704 142.075L149.629 144.376L147.704 142.075ZM147.704 133.528L145.779 135.829C145.788 135.836 145.796 135.843 145.804 135.85L147.704 133.528ZM136.319 132.01V129.01C134.662 129.01 133.319 130.353 133.319 132.01H136.319ZM136.319 143.593H133.319C133.319 145.25 134.662 146.593 136.319 146.593V143.593ZM152.096 151.26L146.816 143.835L141.926 147.312L147.206 154.737L152.096 151.26ZM144.04 142.591C143.563 142.644 143.058 142.672 142.523 142.672V148.672C143.264 148.672 143.991 148.634 144.702 148.555L144.04 142.591ZM142.523 142.672H136.319V148.672H142.523V142.672ZM133.319 145.672V152.998H139.319V145.672H133.319ZM136.319 149.998H133.877V155.998H136.319V149.998ZM136.877 152.998V129.898H130.877V152.998H136.877ZM133.877 132.898H142.523V126.898H133.877V132.898ZM142.523 132.898C145.011 132.898 146.553 133.49 147.521 134.305L151.385 129.715C149.009 127.714 145.931 126.898 142.523 126.898V132.898ZM147.521 134.305C148.425 135.066 148.961 136.113 148.961 137.818H154.961C154.961 134.596 153.825 131.77 151.385 129.715L147.521 134.305ZM148.961 137.818C148.961 139.087 148.646 139.966 148.16 140.625L152.99 144.185C154.352 142.337 154.961 140.157 154.961 137.818H148.961ZM148.154 140.633C147.684 141.276 146.952 141.836 145.755 142.225L147.607 147.931C149.798 147.22 151.662 145.999 152.996 144.177L148.154 140.633ZM144.238 146.819L149.881 154.739L154.767 151.257L149.124 143.337L144.238 146.819ZM152.324 149.998H149.651V155.998H152.324V149.998ZM142.457 146.593C145.139 146.593 147.682 146.005 149.629 144.376L145.779 139.774C145.307 140.169 144.351 140.593 142.457 140.593V146.593ZM149.629 144.376C151.632 142.701 152.519 140.376 152.519 137.818H146.519C146.519 138.912 146.197 139.425 145.779 139.774L149.629 144.376ZM152.519 137.818C152.519 135.244 151.649 132.879 149.604 131.206L145.804 135.85C146.18 136.157 146.519 136.652 146.519 137.818H152.519ZM149.629 131.227C147.682 129.598 145.139 129.01 142.457 129.01V135.01C144.351 135.01 145.307 135.434 145.779 135.829L149.629 131.227ZM142.457 129.01H136.319V135.01H142.457V129.01ZM133.319 132.01V143.593H139.319V132.01H133.319ZM136.319 146.593H142.457V140.593H136.319V146.593ZM163.467 132.01V129.01C161.81 129.01 160.467 130.353 160.467 132.01H163.467ZM163.467 141.085H160.467C160.467 142.742 161.81 144.085 163.467 144.085V141.085ZM175.413 141.085H178.413C178.413 139.428 177.07 138.085 175.413 138.085V141.085ZM175.413 143.197V146.197C177.07 146.197 178.413 144.854 178.413 143.197H175.413ZM163.467 143.197V140.197C161.81 140.197 160.467 141.54 160.467 143.197H163.467ZM163.467 152.998V155.998C165.124 155.998 166.467 154.655 166.467 152.998H163.467ZM161.025 152.998H158.025C158.025 154.655 159.368 155.998 161.025 155.998V152.998ZM161.025 129.898V126.898C159.368 126.898 158.025 128.241 158.025 129.898H161.025ZM176.865 129.898H179.865C179.865 128.241 178.522 126.898 176.865 126.898V129.898ZM176.865 132.01V135.01C178.522 135.01 179.865 133.667 179.865 132.01H176.865ZM160.467 132.01V141.085H166.467V132.01H160.467ZM163.467 144.085H175.413V138.085H163.467V144.085ZM172.413 141.085V143.197H178.413V141.085H172.413ZM175.413 140.197H163.467V146.197H175.413V140.197ZM160.467 143.197V152.998H166.467V143.197H160.467ZM163.467 149.998H161.025V155.998H163.467V149.998ZM164.025 152.998V129.898H158.025V152.998H164.025ZM161.025 132.898H176.865V126.898H161.025V132.898ZM173.865 129.898V132.01H179.865V129.898H173.865ZM176.865 129.01H163.467V135.01H176.865V129.01ZM201.543 150.886H204.543C204.543 149.229 203.199 147.886 201.543 147.886V150.886ZM201.543 152.998V155.998C203.199 155.998 204.543 154.655 204.543 152.998H201.543ZM185.208 152.998H182.208C182.208 154.655 183.551 155.998 185.208 155.998V152.998ZM185.208 129.898V126.898C183.551 126.898 182.208 128.241 182.208 129.898H185.208ZM201.048 129.898H204.048C204.048 128.241 202.704 126.898 201.048 126.898V129.898ZM201.048 132.01V135.01C202.704 135.01 204.048 133.667 204.048 132.01H201.048ZM187.65 132.01V129.01C185.993 129.01 184.65 130.353 184.65 132.01H187.65ZM187.65 140.227H184.65C184.65 141.884 185.993 143.227 187.65 143.227V140.227ZM199.596 140.227H202.596C202.596 138.57 201.252 137.227 199.596 137.227V140.227ZM199.596 142.306V145.306C201.252 145.306 202.596 143.963 202.596 142.306H199.596ZM187.65 142.306V139.306C185.993 139.306 184.65 140.649 184.65 142.306H187.65ZM187.65 150.886H184.65C184.65 152.543 185.993 153.886 187.65 153.886V150.886ZM198.543 150.886V152.998H204.543V150.886H198.543ZM201.543 149.998H185.208V155.998H201.543V149.998ZM188.208 152.998V129.898H182.208V152.998H188.208ZM185.208 132.898H201.048V126.898H185.208V132.898ZM198.048 129.898V132.01H204.048V129.898H198.048ZM201.048 129.01H187.65V135.01H201.048V129.01ZM184.65 132.01V140.227H190.65V132.01H184.65ZM187.65 143.227H199.596V137.227H187.65V143.227ZM196.596 140.227V142.306H202.596V140.227H196.596ZM199.596 139.306H187.65V145.306H199.596V139.306ZM184.65 142.306V150.886H190.65V142.306H184.65ZM187.65 153.886H201.543V147.886H187.65V153.886ZM214.411 151.678L212.956 154.302C212.961 154.305 212.965 154.307 212.97 154.309L214.411 151.678ZM210.088 147.487L207.485 148.979C207.492 148.992 207.499 149.004 207.507 149.017L210.088 147.487ZM210.088 135.442L207.499 133.927L207.493 133.936L210.088 135.442ZM214.444 131.218L213.003 128.587L214.444 131.218ZM225.4 130.558L224.3 133.349L225.4 130.558ZM229.096 133.066L231.217 135.187C232.354 134.05 232.392 132.219 231.304 131.035L229.096 133.066ZM227.545 134.617L225.411 136.726C225.972 137.294 226.737 137.615 227.536 137.617C228.334 137.62 229.101 137.303 229.666 136.738L227.545 134.617ZM215.731 133.132L214.267 130.513L215.731 133.132ZM212.2 136.564L209.617 135.038C209.611 135.048 209.605 135.057 209.6 135.067L212.2 136.564ZM212.2 146.332L209.6 147.829C209.605 147.839 209.611 147.849 209.617 147.858L212.2 146.332ZM215.731 149.764L214.267 152.383L215.731 149.764ZM227.545 148.246L229.666 146.125C229.097 145.555 228.323 145.239 227.517 145.246C226.712 145.254 225.944 145.584 225.385 146.164L227.545 148.246ZM229.096 149.797L231.304 151.828C232.392 150.645 232.354 148.813 231.217 147.676L229.096 149.797ZM225.367 152.338L226.466 155.129C226.474 155.126 226.481 155.124 226.488 155.121L225.367 152.338ZM220.615 150.196C218.786 150.196 217.221 149.796 215.852 149.047L212.97 154.309C215.297 155.584 217.867 156.196 220.615 156.196V150.196ZM215.865 149.054C214.501 148.298 213.451 147.277 212.669 145.958L207.507 149.017C208.837 151.261 210.668 153.034 212.956 154.302L215.865 149.054ZM212.69 145.995C211.935 144.677 211.537 143.184 211.537 141.448H205.537C205.537 144.156 206.173 146.69 207.485 148.979L212.69 145.995ZM211.537 141.448C211.537 139.712 211.935 138.237 212.683 136.948L207.493 133.936C206.173 136.212 205.537 138.74 205.537 141.448H211.537ZM212.677 136.958C213.456 135.627 214.509 134.603 215.885 133.849L213.003 128.587C210.682 129.858 208.832 131.65 207.499 133.927L212.677 136.958ZM215.885 133.849C217.254 133.1 218.819 132.7 220.648 132.7V126.7C217.9 126.7 215.33 127.312 213.003 128.587L215.885 133.849ZM220.648 132.7C222.025 132.7 223.232 132.928 224.3 133.349L226.499 127.767C224.664 127.044 222.703 126.7 220.648 126.7V132.7ZM224.3 133.349C225.349 133.763 226.197 134.346 226.888 135.097L231.304 131.035C229.971 129.586 228.354 128.498 226.499 127.767L224.3 133.349ZM226.974 130.945L225.423 132.496L229.666 136.738L231.217 135.187L226.974 130.945ZM229.679 132.509C227.268 130.069 224.202 128.878 220.714 128.878V134.878C222.725 134.878 224.213 135.514 225.411 136.726L229.679 132.509ZM220.714 128.878C218.41 128.878 216.24 129.411 214.267 130.513L217.194 135.751C218.214 135.181 219.365 134.878 220.714 134.878V128.878ZM214.267 130.513C212.316 131.604 210.749 133.121 209.617 135.038L214.782 138.09C215.366 137.103 216.153 136.332 217.194 135.751L214.267 130.513ZM209.6 135.067C208.482 137.009 207.946 139.16 207.946 141.448H213.946C213.946 140.128 214.246 139.023 214.8 138.061L209.6 135.067ZM207.946 141.448C207.946 143.736 208.482 145.887 209.6 147.829L214.8 144.835C214.246 143.873 213.946 142.768 213.946 141.448H207.946ZM209.617 147.858C210.749 149.775 212.316 151.292 214.267 152.383L217.194 147.145C216.153 146.564 215.366 145.793 214.782 144.806L209.617 147.858ZM214.267 152.383C216.24 153.485 218.41 154.018 220.714 154.018V148.018C219.365 148.018 218.214 147.715 217.194 147.145L214.267 152.383ZM220.714 154.018C224.228 154.018 227.309 152.813 229.704 150.329L225.385 146.164C224.217 147.375 222.743 148.018 220.714 148.018V154.018ZM225.423 150.367L226.974 151.918L231.217 147.676L229.666 146.125L225.423 150.367ZM226.888 147.766C226.197 148.517 225.333 149.117 224.245 149.556L226.488 155.121C228.349 154.371 229.971 153.277 231.304 151.828L226.888 147.766ZM224.267 149.547C223.199 149.968 221.992 150.196 220.615 150.196V156.196C222.67 156.196 224.631 155.852 226.466 155.129L224.267 149.547ZM243.739 132.01H246.739C246.739 130.353 245.396 129.01 243.739 129.01V132.01ZM235.621 132.01H232.621C232.621 133.667 233.965 135.01 235.621 135.01V132.01ZM235.621 129.898V126.898C233.965 126.898 232.621 128.241 232.621 129.898H235.621ZM254.299 129.898H257.299C257.299 128.241 255.956 126.898 254.299 126.898V129.898ZM254.299 132.01V135.01C255.956 135.01 257.299 133.667 257.299 132.01H254.299ZM246.181 132.01V129.01C244.525 129.01 243.181 130.353 243.181 132.01H246.181ZM246.181 152.998V155.998C247.838 155.998 249.181 154.655 249.181 152.998H246.181ZM243.739 152.998H240.739C240.739 154.655 242.083 155.998 243.739 155.998V152.998ZM243.739 129.01H235.621V135.01H243.739V129.01ZM238.621 132.01V129.898H232.621V132.01H238.621ZM235.621 132.898H254.299V126.898H235.621V132.898ZM251.299 129.898V132.01H257.299V129.898H251.299ZM254.299 129.01H246.181V135.01H254.299V129.01ZM243.181 132.01V152.998H249.181V132.01H243.181ZM246.181 149.998H243.739V155.998H246.181V149.998ZM246.739 152.998V132.01H240.739V152.998H246.739Z" fill="#FACB66"/>
<path d="M125.28 103.378H120.08V102.998H130.88V103.378H125.68V116.998H125.28V103.378ZM146.617 102.998V116.998H146.217V110.078H136.017V116.998H135.617V102.998H136.017V109.698H146.217V102.998H146.617ZM163.265 116.618V116.998H153.945V102.998H162.965V103.378H154.345V109.698H162.065V110.078H154.345V116.618H163.265Z" fill="#FACB66"/>
<path d="M125.28 103.378H127.28C127.28 102.274 126.385 101.378 125.28 101.378V103.378ZM120.08 103.378H118.08C118.08 104.483 118.975 105.378 120.08 105.378V103.378ZM120.08 102.998V100.998C118.975 100.998 118.08 101.894 118.08 102.998H120.08ZM130.88 102.998H132.88C132.88 101.894 131.985 100.998 130.88 100.998V102.998ZM130.88 103.378V105.378C131.985 105.378 132.88 104.483 132.88 103.378H130.88ZM125.68 103.378V101.378C124.575 101.378 123.68 102.274 123.68 103.378H125.68ZM125.68 116.998V118.998C126.785 118.998 127.68 118.103 127.68 116.998H125.68ZM125.28 116.998H123.28C123.28 118.103 124.175 118.998 125.28 118.998V116.998ZM125.28 101.378H120.08V105.378H125.28V101.378ZM122.08 103.378V102.998H118.08V103.378H122.08ZM120.08 104.998H130.88V100.998H120.08V104.998ZM128.88 102.998V103.378H132.88V102.998H128.88ZM130.88 101.378H125.68V105.378H130.88V101.378ZM123.68 103.378V116.998H127.68V103.378H123.68ZM125.68 114.998H125.28V118.998H125.68V114.998ZM127.28 116.998V103.378H123.28V116.998H127.28ZM146.617 102.998H148.617C148.617 101.894 147.722 100.998 146.617 100.998V102.998ZM146.617 116.998V118.998C147.722 118.998 148.617 118.103 148.617 116.998H146.617ZM146.217 116.998H144.217C144.217 118.103 145.112 118.998 146.217 118.998V116.998ZM146.217 110.078H148.217C148.217 108.974 147.322 108.078 146.217 108.078V110.078ZM136.017 110.078V108.078C134.912 108.078 134.017 108.974 134.017 110.078H136.017ZM136.017 116.998V118.998C137.122 118.998 138.017 118.103 138.017 116.998H136.017ZM135.617 116.998H133.617C133.617 118.103 134.512 118.998 135.617 118.998V116.998ZM135.617 102.998V100.998C134.512 100.998 133.617 101.894 133.617 102.998H135.617ZM136.017 102.998H138.017C138.017 101.894 137.122 100.998 136.017 100.998V102.998ZM136.017 109.698H134.017C134.017 110.803 134.912 111.698 136.017 111.698V109.698ZM146.217 109.698V111.698C147.322 111.698 148.217 110.803 148.217 109.698H146.217ZM146.217 102.998V100.998C145.112 100.998 144.217 101.894 144.217 102.998H146.217ZM144.617 102.998V116.998H148.617V102.998H144.617ZM146.617 114.998H146.217V118.998H146.617V114.998ZM148.217 116.998V110.078H144.217V116.998H148.217ZM146.217 108.078H136.017V112.078H146.217V108.078ZM134.017 110.078V116.998H138.017V110.078H134.017ZM136.017 114.998H135.617V118.998H136.017V114.998ZM137.617 116.998V102.998H133.617V116.998H137.617ZM135.617 104.998H136.017V100.998H135.617V104.998ZM134.017 102.998V109.698H138.017V102.998H134.017ZM136.017 111.698H146.217V107.698H136.017V111.698ZM148.217 109.698V102.998H144.217V109.698H148.217ZM146.217 104.998H146.617V100.998H146.217V104.998ZM163.265 116.618H165.265C165.265 115.514 164.37 114.618 163.265 114.618V116.618ZM163.265 116.998V118.998C164.37 118.998 165.265 118.103 165.265 116.998H163.265ZM153.945 116.998H151.945C151.945 118.103 152.841 118.998 153.945 118.998V116.998ZM153.945 102.998V100.998C152.841 100.998 151.945 101.894 151.945 102.998H153.945ZM162.965 102.998H164.965C164.965 101.894 164.07 100.998 162.965 100.998V102.998ZM162.965 103.378V105.378C164.07 105.378 164.965 104.483 164.965 103.378H162.965ZM154.345 103.378V101.378C153.241 101.378 152.345 102.274 152.345 103.378H154.345ZM154.345 109.698H152.345C152.345 110.803 153.241 111.698 154.345 111.698V109.698ZM162.065 109.698H164.065C164.065 108.594 163.17 107.698 162.065 107.698V109.698ZM162.065 110.078V112.078C163.17 112.078 164.065 111.183 164.065 110.078H162.065ZM154.345 110.078V108.078C153.241 108.078 152.345 108.974 152.345 110.078H154.345ZM154.345 116.618H152.345C152.345 117.723 153.241 118.618 154.345 118.618V116.618ZM161.265 116.618V116.998H165.265V116.618H161.265ZM163.265 114.998H153.945V118.998H163.265V114.998ZM155.945 116.998V102.998H151.945V116.998H155.945ZM153.945 104.998H162.965V100.998H153.945V104.998ZM160.965 102.998V103.378H164.965V102.998H160.965ZM162.965 101.378H154.345V105.378H162.965V101.378ZM152.345 103.378V109.698H156.345V103.378H152.345ZM154.345 111.698H162.065V107.698H154.345V111.698ZM160.065 109.698V110.078H164.065V109.698H160.065ZM162.065 108.078H154.345V112.078H162.065V108.078ZM152.345 110.078V116.618H156.345V110.078H152.345ZM154.345 118.618H163.265V114.618H154.345V118.618Z" fill="#FACB66"/>
<path d="M0 135.563C9.46667 138.819 32.0667 144.253 51 145.184C69.9333 146.15 84.5 142.498 124.5 140.998C164.5 139.498 174 145.184 217.5 145.184C261 145.184 284 130.25 284 130.25V321.607H274.533C265.067 321.607 246.133 321.607 227.2 321.607C208.267 321.607 189.333 321.607 170.4 321.607C151.467 321.607 132.533 321.607 113.6 321.607C94.6667 321.607 75.7333 321.607 56.8 321.607C37.8667 321.607 18.9333 321.607 9.46667 321.607H0V135.563Z" fill="#FACB66"/>
<path d="M0 185.4L9.46667 184.041C18.9333 182.645 37.8667 179.926 56.8 179.962C75.7333 180.034 94.6667 182.896 113.6 184.685C132.533 186.474 151.467 187.189 170.4 188.799C189.333 190.409 208.267 192.914 227.2 189.765C246.133 186.581 265.067 177.78 274.533 173.343L284 168.943V287.725H274.533C265.067 287.725 246.133 287.725 227.2 287.725C208.267 287.725 189.333 287.725 170.4 287.725C151.467 287.725 132.533 287.725 113.6 287.725C94.6667 287.725 75.7333 287.725 56.8 287.725C37.8667 287.725 18.9333 287.725 9.46667 287.725H0V185.4Z" fill="#F5BC51"/>
<path d="M0 237.19L9.46667 230.929C18.9333 224.668 37.8667 212.146 56.8 209.927C75.7333 207.745 94.6667 215.831 113.6 217.691C132.533 219.552 151.467 215.115 170.4 211.788C189.333 208.46 208.267 206.171 227.2 209.748C246.133 213.326 265.067 222.772 274.533 227.458L284 232.181V304.094H274.533C265.067 304.094 246.133 304.094 227.2 304.094C208.267 304.094 189.333 304.094 170.4 304.094C151.467 304.094 132.533 304.094 113.6 304.094C94.6667 304.094 75.7333 304.094 56.8 304.094C37.8667 304.094 18.9333 304.094 9.46667 304.094H0V237.19Z" fill="#F1AD3B"/>
<path d="M0 266.616L9.46667 264.934C18.9333 263.289 37.8667 245.36 56.8 242.498C75.7333 239.636 92.5 254.998 113.6 255.498C134.7 255.998 151.467 238.459 170.4 236.92C189.333 235.382 208.267 237.743 227.2 238.244C246.133 238.709 265.067 237.278 274.533 236.563L284 235.847V321.356H274.533C265.067 321.356 246.133 321.356 227.2 321.356C208.267 321.356 189.333 321.356 170.4 321.356C151.467 321.356 132.533 321.356 113.6 321.356C94.6667 321.356 75.7333 321.356 56.8 321.356C37.8667 321.356 18.9333 321.356 9.46667 321.356H0V266.616Z" fill="#ED9D24"/>
<path d="M0 286.208L9.46667 284.312C18.9333 282.38 37.8667 278.587 56.8 279.124C75.7333 279.66 94.6667 284.526 113.6 288.176C132.533 291.825 151.467 294.186 170.4 294.437C189.333 294.687 208.267 292.755 227.2 291.217C246.133 289.678 265.067 288.462 274.533 287.889L284 287.281V321.628H274.533C265.067 321.628 246.133 321.628 227.2 321.628C208.267 321.628 189.333 321.628 170.4 321.628C151.467 321.628 132.533 321.628 113.6 321.628C94.6667 321.628 75.7333 321.628 56.8 321.628C37.8667 321.628 18.9333 321.628 9.46667 321.628H0V286.208Z" fill="#E98D00"/>
<g style="mix-blend-mode:soft-light">
<path d="M30 192H255" stroke="white"/>
</g>
<path d="M58.0832 207.2C60.1952 207.2 61.8512 207.704 63.0512 208.712C64.2512 209.704 64.8512 211.088 64.8512 212.864C64.8512 214.624 64.2512 216.008 63.0512 217.016C61.8512 218.008 60.1952 218.504 58.0832 218.504H53.2832V224H52.0592V207.2H58.0832ZM58.0832 217.4C59.8752 217.4 61.2432 217.008 62.1872 216.224C63.1312 215.44 63.6032 214.32 63.6032 212.864C63.6032 211.408 63.1312 210.288 62.1872 209.504C61.2432 208.704 59.8752 208.304 58.0832 208.304H53.2832V217.4H58.0832ZM83.2795 224L79.2715 218.384C78.6795 218.464 78.1355 218.504 77.6395 218.504H72.8395V224H71.6155V207.2H77.6395C79.7515 207.2 81.4075 207.704 82.6075 208.712C83.8075 209.704 84.4075 211.088 84.4075 212.864C84.4075 214.192 84.0635 215.312 83.3755 216.224C82.7035 217.12 81.7355 217.752 80.4715 218.12L84.6715 224H83.2795ZM77.6395 217.424C79.4315 217.424 80.7995 217.032 81.7435 216.248C82.6875 215.448 83.1595 214.32 83.1595 212.864C83.1595 211.408 82.6875 210.288 81.7435 209.504C80.7995 208.704 79.4315 208.304 77.6395 208.304H72.8395V217.424H77.6395ZM103.481 219.272H93.7369L91.6009 224H90.2809L98.0089 207.2H99.2329L106.961 224H105.641L103.481 219.272ZM103.025 218.24L98.6089 208.544L94.2169 218.24H103.025ZM114.783 208.304H108.735V207.2H122.055V208.304H116.007V224H114.783V208.304ZM139.083 222.896V224H127.491V207.2H138.723V208.304H128.715V214.928H137.667V216.008H128.715V222.896H139.083ZM157.609 224L153.601 218.384C153.009 218.464 152.465 218.504 151.969 218.504H147.169V224H145.945V207.2H151.969C154.081 207.2 155.737 207.704 156.937 208.712C158.137 209.704 158.737 211.088 158.737 212.864C158.737 214.192 158.393 215.312 157.705 216.224C157.033 217.12 156.065 217.752 154.801 218.12L159.001 224H157.609ZM151.969 217.424C153.761 217.424 155.129 217.032 156.073 216.248C157.017 215.448 157.489 214.32 157.489 212.864C157.489 211.408 157.017 210.288 156.073 209.504C155.129 208.704 153.761 208.304 151.969 208.304H147.169V217.424H151.969ZM165.619 207.2H166.843V224H165.619V207.2ZM179.513 208.304H173.465V207.2H186.785V208.304H180.737V224H179.513V208.304ZM199.996 224.12C197.868 224.12 196.212 223.504 195.028 222.272C193.86 221.04 193.276 219.24 193.276 216.872V207.2H194.5V216.824C194.5 218.888 194.972 220.432 195.916 221.456C196.86 222.48 198.228 222.992 200.02 222.992C201.796 222.992 203.156 222.48 204.1 221.456C205.044 220.432 205.516 218.888 205.516 216.824V207.2H206.74V216.872C206.74 219.24 206.148 221.04 204.964 222.272C203.78 223.504 202.124 224.12 199.996 224.12ZM230.739 224L230.715 209.624L223.683 221.768H223.083L216.051 209.672V224H214.851V207.2H215.883L223.395 220.184L230.907 207.2H231.915L231.939 224H230.739Z" fill="white"/>
<path d="M63.0512 208.712L61.6041 210.435C61.6086 210.439 61.6131 210.442 61.6177 210.446L63.0512 208.712ZM63.0512 217.016L64.4848 218.75C64.4894 218.746 64.4939 218.743 64.4984 218.739L63.0512 217.016ZM53.2832 218.504V216.254C52.0406 216.254 51.0332 217.261 51.0332 218.504H53.2832ZM53.2832 224V226.25C54.5259 226.25 55.5332 225.243 55.5332 224H53.2832ZM52.0592 224H49.8092C49.8092 225.243 50.8166 226.25 52.0592 226.25V224ZM52.0592 207.2V204.95C50.8166 204.95 49.8092 205.957 49.8092 207.2H52.0592ZM62.1872 216.224L63.6248 217.955L62.1872 216.224ZM62.1872 209.504L60.7326 211.221C60.7383 211.225 60.744 211.23 60.7497 211.235L62.1872 209.504ZM53.2832 208.304V206.054C52.0406 206.054 51.0332 207.061 51.0332 208.304H53.2832ZM53.2832 217.4H51.0332C51.0332 218.643 52.0406 219.65 53.2832 219.65V217.4ZM58.0832 209.45C59.8506 209.45 60.9314 209.87 61.6041 210.435L64.4984 206.989C62.7711 205.538 60.5399 204.95 58.0832 204.95V209.45ZM61.6177 210.446C62.2242 210.948 62.6012 211.653 62.6012 212.864H67.1012C67.1012 210.523 66.2783 208.46 64.4848 206.978L61.6177 210.446ZM62.6012 212.864C62.6012 214.051 62.2287 214.768 61.6041 215.293L64.4984 218.739C66.2738 217.248 67.1012 215.197 67.1012 212.864H62.6012ZM61.6177 215.282C60.9445 215.838 59.8583 216.254 58.0832 216.254V220.754C60.5322 220.754 62.758 220.178 64.4848 218.75L61.6177 215.282ZM58.0832 216.254H53.2832V220.754H58.0832V216.254ZM51.0332 218.504V224H55.5332V218.504H51.0332ZM53.2832 221.75H52.0592V226.25H53.2832V221.75ZM54.3092 224V207.2H49.8092V224H54.3092ZM52.0592 209.45H58.0832V204.95H52.0592V209.45ZM58.0832 219.65C60.1652 219.65 62.1269 219.199 63.6248 217.955L60.7497 214.493C60.3596 214.817 59.5853 215.15 58.0832 215.15V219.65ZM63.6248 217.955C65.1811 216.662 65.8532 214.851 65.8532 212.864H61.3532C61.3532 213.789 61.0814 214.218 60.7497 214.493L63.6248 217.955ZM65.8532 212.864C65.8532 210.877 65.1811 209.066 63.6248 207.773L60.7497 211.235C61.0814 211.51 61.3532 211.939 61.3532 212.864H65.8532ZM63.6419 207.787C62.1431 206.517 60.1744 206.054 58.0832 206.054V210.554C59.5761 210.554 60.3434 210.891 60.7326 211.221L63.6419 207.787ZM58.0832 206.054H53.2832V210.554H58.0832V206.054ZM51.0332 208.304V217.4H55.5332V208.304H51.0332ZM53.2832 219.65H58.0832V215.15H53.2832V219.65ZM83.2795 224L81.4481 225.307C81.8704 225.899 82.5525 226.25 83.2795 226.25V224ZM79.2715 218.384L81.1029 217.077C80.6181 216.398 79.7972 216.043 78.9702 216.154L79.2715 218.384ZM72.8395 218.504V216.254C71.5969 216.254 70.5895 217.261 70.5895 218.504H72.8395ZM72.8395 224V226.25C74.0821 226.25 75.0895 225.243 75.0895 224H72.8395ZM71.6155 224H69.3655C69.3655 225.243 70.3729 226.25 71.6155 226.25V224ZM71.6155 207.2V204.95C70.3729 204.95 69.3655 205.957 69.3655 207.2H71.6155ZM82.6075 208.712L81.1603 210.435C81.1648 210.439 81.1694 210.442 81.1739 210.446L82.6075 208.712ZM83.3755 216.224L81.5793 214.869L81.5755 214.874L83.3755 216.224ZM80.4715 218.12L79.8425 215.96C79.1423 216.164 78.5844 216.694 78.3456 217.383C78.1067 218.072 78.2167 218.834 78.6406 219.428L80.4715 218.12ZM84.6715 224V226.25C85.5143 226.25 86.2865 225.779 86.6721 225.03C87.0578 224.28 86.9923 223.378 86.5024 222.692L84.6715 224ZM81.7435 216.248L83.181 217.979C83.1868 217.974 83.1925 217.969 83.1982 217.965L81.7435 216.248ZM81.7435 209.504L80.2888 211.221C80.2945 211.225 80.3002 211.23 80.306 211.235L81.7435 209.504ZM72.8395 208.304V206.054C71.5969 206.054 70.5895 207.061 70.5895 208.304H72.8395ZM72.8395 217.424H70.5895C70.5895 218.667 71.5969 219.674 72.8395 219.674V217.424ZM85.1109 222.693L81.1029 217.077L77.4401 219.691L81.4481 225.307L85.1109 222.693ZM78.9702 216.154C78.4586 216.223 78.0168 216.254 77.6395 216.254V220.754C78.2542 220.754 78.9004 220.705 79.5728 220.614L78.9702 216.154ZM77.6395 216.254H72.8395V220.754H77.6395V216.254ZM70.5895 218.504V224H75.0895V218.504H70.5895ZM72.8395 221.75H71.6155V226.25H72.8395V221.75ZM73.8655 224V207.2H69.3655V224H73.8655ZM71.6155 209.45H77.6395V204.95H71.6155V209.45ZM77.6395 209.45C79.4068 209.45 80.4876 209.87 81.1603 210.435L84.0547 206.989C82.3274 205.538 80.0962 204.95 77.6395 204.95V209.45ZM81.1739 210.446C81.7804 210.948 82.1575 211.653 82.1575 212.864H86.6575C86.6575 210.523 85.8346 208.46 84.0411 206.978L81.1739 210.446ZM82.1575 212.864C82.1575 213.786 81.9267 214.408 81.5793 214.869L85.1717 217.579C86.2003 216.216 86.6575 214.598 86.6575 212.864H82.1575ZM81.5755 214.874C81.2448 215.315 80.7237 215.703 79.8425 215.96L81.1004 220.28C82.7473 219.801 84.1622 218.925 85.1755 217.574L81.5755 214.874ZM78.6406 219.428L82.8406 225.308L86.5024 222.692L82.3024 216.812L78.6406 219.428ZM84.6715 221.75H83.2795V226.25H84.6715V221.75ZM77.6395 219.674C79.7215 219.674 81.6831 219.223 83.181 217.979L80.306 214.517C79.9159 214.841 79.1415 215.174 77.6395 215.174V219.674ZM83.1982 217.965C84.7376 216.66 85.4095 214.852 85.4095 212.864H80.9095C80.9095 213.788 80.6374 214.236 80.2888 214.531L83.1982 217.965ZM85.4095 212.864C85.4095 210.877 84.7374 209.066 83.181 207.773L80.306 211.235C80.6376 211.51 80.9095 211.939 80.9095 212.864H85.4095ZM83.1982 207.787C81.6994 206.517 79.7306 206.054 77.6395 206.054V210.554C79.1324 210.554 79.8996 210.891 80.2888 211.221L83.1982 207.787ZM77.6395 206.054H72.8395V210.554H77.6395V206.054ZM70.5895 208.304V217.424H75.0895V208.304H70.5895ZM72.8395 219.674H77.6395V215.174H72.8395V219.674ZM103.481 219.272L105.527 218.337C105.161 217.536 104.362 217.022 103.481 217.022V219.272ZM93.7369 219.272V217.022C92.8527 217.022 92.0505 217.54 91.6865 218.346L93.7369 219.272ZM91.6009 224V226.25C92.4851 226.25 93.2874 225.732 93.6514 224.926L91.6009 224ZM90.2809 224L88.2368 223.06C87.9164 223.756 87.9728 224.568 88.3864 225.214C88.8001 225.859 89.5141 226.25 90.2809 226.25V224ZM98.0089 207.2V204.95C97.1303 204.95 96.332 205.461 95.9648 206.26L98.0089 207.2ZM99.2329 207.2L101.277 206.26C100.91 205.461 100.112 204.95 99.2329 204.95V207.2ZM106.961 224V226.25C107.728 226.25 108.442 225.859 108.855 225.214C109.269 224.568 109.325 223.756 109.005 223.06L106.961 224ZM105.641 224L103.594 224.935C103.96 225.736 104.76 226.25 105.641 226.25V224ZM103.025 218.24V220.49C103.79 220.49 104.503 220.101 104.917 219.457C105.331 218.814 105.39 218.004 105.073 217.307L103.025 218.24ZM98.6089 208.544L100.657 207.611C100.291 206.808 99.4892 206.293 98.6066 206.294C97.7241 206.295 96.9235 206.812 96.5594 207.616L98.6089 208.544ZM94.2169 218.24L92.1674 217.312C91.852 218.008 91.9117 218.817 92.326 219.459C92.7403 220.102 93.4525 220.49 94.2169 220.49V218.24ZM103.481 217.022H93.7369V221.522H103.481V217.022ZM91.6865 218.346L89.5505 223.074L93.6514 224.926L95.7874 220.198L91.6865 218.346ZM91.6009 221.75H90.2809V226.25H91.6009V221.75ZM92.325 224.94L100.053 208.14L95.9648 206.26L88.2368 223.06L92.325 224.94ZM98.0089 209.45H99.2329V204.95H98.0089V209.45ZM97.1888 208.14L104.917 224.94L109.005 223.06L101.277 206.26L97.1888 208.14ZM106.961 221.75H105.641V226.25H106.961V221.75ZM107.687 223.065L105.527 218.337L101.434 220.207L103.594 224.935L107.687 223.065ZM105.073 217.307L100.657 207.611L96.5613 209.477L100.977 219.173L105.073 217.307ZM96.5594 207.616L92.1674 217.312L96.2665 219.168L100.658 209.472L96.5594 207.616ZM94.2169 220.49H103.025V215.99H94.2169V220.49ZM114.783 208.304H117.033C117.033 207.061 116.026 206.054 114.783 206.054V208.304ZM108.735 208.304H106.485C106.485 209.547 107.492 210.554 108.735 210.554V208.304ZM108.735 207.2V204.95C107.492 204.95 106.485 205.957 106.485 207.2H108.735ZM122.055 207.2H124.305C124.305 205.957 123.298 204.95 122.055 204.95V207.2ZM122.055 208.304V210.554C123.298 210.554 124.305 209.547 124.305 208.304H122.055ZM116.007 208.304V206.054C114.764 206.054 113.757 207.061 113.757 208.304H116.007ZM116.007 224V226.25C117.25 226.25 118.257 225.243 118.257 224H116.007ZM114.783 224H112.533C112.533 225.243 113.54 226.25 114.783 226.25V224ZM114.783 206.054H108.735V210.554H114.783V206.054ZM110.985 208.304V207.2H106.485V208.304H110.985ZM108.735 209.45H122.055V204.95H108.735V209.45ZM119.805 207.2V208.304H124.305V207.2H119.805ZM122.055 206.054H116.007V210.554H122.055V206.054ZM113.757 208.304V224H118.257V208.304H113.757ZM116.007 221.75H114.783V226.25H116.007V221.75ZM117.033 224V208.304H112.533V224H117.033ZM139.083 222.896H141.333C141.333 221.653 140.325 220.646 139.083 220.646V222.896ZM139.083 224V226.25C140.325 226.25 141.333 225.243 141.333 224H139.083ZM127.491 224H125.241C125.241 225.243 126.248 226.25 127.491 226.25V224ZM127.491 207.2V204.95C126.248 204.95 125.241 205.957 125.241 207.2H127.491ZM138.723 207.2H140.973C140.973 205.957 139.965 204.95 138.723 204.95V207.2ZM138.723 208.304V210.554C139.965 210.554 140.973 209.547 140.973 208.304H138.723ZM128.715 208.304V206.054C127.472 206.054 126.465 207.061 126.465 208.304H128.715ZM128.715 214.928H126.465C126.465 216.171 127.472 217.178 128.715 217.178V214.928ZM137.667 214.928H139.917C139.917 213.685 138.909 212.678 137.667 212.678V214.928ZM137.667 216.008V218.258C138.909 218.258 139.917 217.251 139.917 216.008H137.667ZM128.715 216.008V213.758C127.472 213.758 126.465 214.765 126.465 216.008H128.715ZM128.715 222.896H126.465C126.465 224.139 127.472 225.146 128.715 225.146V222.896ZM136.833 222.896V224H141.333V222.896H136.833ZM139.083 221.75H127.491V226.25H139.083V221.75ZM129.741 224V207.2H125.241V224H129.741ZM127.491 209.45H138.723V204.95H127.491V209.45ZM136.473 207.2V208.304H140.973V207.2H136.473ZM138.723 206.054H128.715V210.554H138.723V206.054ZM126.465 208.304V214.928H130.965V208.304H126.465ZM128.715 217.178H137.667V212.678H128.715V217.178ZM135.417 214.928V216.008H139.917V214.928H135.417ZM137.667 213.758H128.715V218.258H137.667V213.758ZM126.465 216.008V222.896H130.965V216.008H126.465ZM128.715 225.146H139.083V220.646H128.715V225.146ZM157.609 224L155.778 225.307C156.2 225.899 156.882 226.25 157.609 226.25V224ZM153.601 218.384L155.433 217.077C154.948 216.398 154.127 216.043 153.3 216.154L153.601 218.384ZM147.169 218.504V216.254C145.927 216.254 144.919 217.261 144.919 218.504H147.169ZM147.169 224V226.25C148.412 226.25 149.419 225.243 149.419 224H147.169ZM145.945 224H143.695C143.695 225.243 144.703 226.25 145.945 226.25V224ZM145.945 207.2V204.95C144.703 204.95 143.695 205.957 143.695 207.2H145.945ZM156.937 208.712L155.49 210.435C155.495 210.439 155.499 210.442 155.504 210.446L156.937 208.712ZM157.705 216.224L155.909 214.869L155.905 214.874L157.705 216.224ZM154.801 218.12L154.172 215.96C153.472 216.164 152.914 216.694 152.675 217.383C152.436 218.072 152.546 218.834 152.97 219.428L154.801 218.12ZM159.001 224V226.25C159.844 226.25 160.616 225.779 161.002 225.03C161.387 224.28 161.322 223.378 160.832 222.692L159.001 224ZM156.073 216.248L157.511 217.979C157.516 217.974 157.522 217.969 157.528 217.965L156.073 216.248ZM156.073 209.504L154.619 211.221C154.624 211.225 154.63 211.23 154.636 211.235L156.073 209.504ZM147.169 208.304V206.054C145.927 206.054 144.919 207.061 144.919 208.304H147.169ZM147.169 217.424H144.919C144.919 218.667 145.927 219.674 147.169 219.674V217.424ZM159.441 222.693L155.433 217.077L151.77 219.691L155.778 225.307L159.441 222.693ZM153.3 216.154C152.788 216.223 152.347 216.254 151.969 216.254V220.754C152.584 220.754 153.23 220.705 153.903 220.614L153.3 216.154ZM151.969 216.254H147.169V220.754H151.969V216.254ZM144.919 218.504V224H149.419V218.504H144.919ZM147.169 221.75H145.945V226.25H147.169V221.75ZM148.195 224V207.2H143.695V224H148.195ZM145.945 209.45H151.969V204.95H145.945V209.45ZM151.969 209.45C153.736 209.45 154.817 209.87 155.49 210.435L158.384 206.989C156.657 205.538 154.426 204.95 151.969 204.95V209.45ZM155.504 210.446C156.11 210.948 156.487 211.653 156.487 212.864H160.987C160.987 210.523 160.164 208.46 158.371 206.978L155.504 210.446ZM156.487 212.864C156.487 213.786 156.256 214.408 155.909 214.869L159.501 217.579C160.53 216.216 160.987 214.598 160.987 212.864H156.487ZM155.905 214.874C155.574 215.315 155.053 215.703 154.172 215.96L155.43 220.28C157.077 219.801 158.492 218.925 159.505 217.574L155.905 214.874ZM152.97 219.428L157.17 225.308L160.832 222.692L156.632 216.812L152.97 219.428ZM159.001 221.75H157.609V226.25H159.001V221.75ZM151.969 219.674C154.051 219.674 156.013 219.223 157.511 217.979L154.636 214.517C154.246 214.841 153.471 215.174 151.969 215.174V219.674ZM157.528 217.965C159.067 216.66 159.739 214.852 159.739 212.864H155.239C155.239 213.788 154.967 214.236 154.619 214.531L157.528 217.965ZM159.739 212.864C159.739 210.877 159.067 209.066 157.511 207.773L154.636 211.235C154.967 211.51 155.239 211.939 155.239 212.864H159.739ZM157.528 207.787C156.029 206.517 154.06 206.054 151.969 206.054V210.554C153.462 210.554 154.229 210.891 154.619 211.221L157.528 207.787ZM151.969 206.054H147.169V210.554H151.969V206.054ZM144.919 208.304V217.424H149.419V208.304H144.919ZM147.169 219.674H151.969V215.174H147.169V219.674ZM165.619 207.2V204.95C164.376 204.95 163.369 205.957 163.369 207.2H165.619ZM166.843 207.2H169.093C169.093 205.957 168.085 204.95 166.843 204.95V207.2ZM166.843 224V226.25C168.085 226.25 169.093 225.243 169.093 224H166.843ZM165.619 224H163.369C163.369 225.243 164.376 226.25 165.619 226.25V224ZM165.619 209.45H166.843V204.95H165.619V209.45ZM164.593 207.2V224H169.093V207.2H164.593ZM166.843 221.75H165.619V226.25H166.843V221.75ZM167.869 224V207.2H163.369V224H167.869ZM179.513 208.304H181.763C181.763 207.061 180.755 206.054 179.513 206.054V208.304ZM173.465 208.304H171.215C171.215 209.547 172.222 210.554 173.465 210.554V208.304ZM173.465 207.2V204.95C172.222 204.95 171.215 205.957 171.215 207.2H173.465ZM186.785 207.2H189.035C189.035 205.957 188.027 204.95 186.785 204.95V207.2ZM186.785 208.304V210.554C188.027 210.554 189.035 209.547 189.035 208.304H186.785ZM180.737 208.304V206.054C179.494 206.054 178.487 207.061 178.487 208.304H180.737ZM180.737 224V226.25C181.979 226.25 182.987 225.243 182.987 224H180.737ZM179.513 224H177.263C177.263 225.243 178.27 226.25 179.513 226.25V224ZM179.513 206.054H173.465V210.554H179.513V206.054ZM175.715 208.304V207.2H171.215V208.304H175.715ZM173.465 209.45H186.785V204.95H173.465V209.45ZM184.535 207.2V208.304H189.035V207.2H184.535ZM186.785 206.054H180.737V210.554H186.785V206.054ZM178.487 208.304V224H182.987V208.304H178.487ZM180.737 221.75H179.513V226.25H180.737V221.75ZM181.763 224V208.304H177.263V224H181.763ZM195.028 222.272L193.395 223.82C193.399 223.824 193.402 223.827 193.406 223.831L195.028 222.272ZM193.276 207.2V204.95C192.034 204.95 191.026 205.957 191.026 207.2H193.276ZM194.5 207.2H196.75C196.75 205.957 195.743 204.95 194.5 204.95V207.2ZM195.916 221.456L194.262 222.981L195.916 221.456ZM204.1 221.456L202.446 219.931L204.1 221.456ZM205.516 207.2V204.95C204.274 204.95 203.266 205.957 203.266 207.2H205.516ZM206.74 207.2H208.99C208.99 205.957 207.983 204.95 206.74 204.95V207.2ZM204.964 222.272L203.342 220.713L204.964 222.272ZM199.996 221.87C198.321 221.87 197.311 221.4 196.65 220.713L193.406 223.831C195.113 225.608 197.416 226.37 199.996 226.37V221.87ZM196.661 220.724C196.023 220.051 195.526 218.893 195.526 216.872H191.026C191.026 219.587 191.697 222.029 193.395 223.82L196.661 220.724ZM195.526 216.872V207.2H191.026V216.872H195.526ZM193.276 209.45H194.5V204.95H193.276V209.45ZM192.25 207.2V216.824H196.75V207.2H192.25ZM192.25 216.824C192.25 219.186 192.786 221.38 194.262 222.981L197.57 219.931C197.159 219.484 196.75 218.59 196.75 216.824H192.25ZM194.262 222.981C195.746 224.591 197.791 225.242 200.02 225.242V220.742C198.666 220.742 197.974 220.369 197.57 219.931L194.262 222.981ZM200.02 225.242C202.241 225.242 204.274 224.587 205.754 222.981L202.446 219.931C202.038 220.373 201.352 220.742 200.02 220.742V225.242ZM205.754 222.981C207.231 221.38 207.766 219.186 207.766 216.824H203.266C203.266 218.59 202.858 219.484 202.446 219.931L205.754 222.981ZM207.766 216.824V207.2H203.266V216.824H207.766ZM205.516 209.45H206.74V204.95H205.516V209.45ZM204.49 207.2V216.872H208.99V207.2H204.49ZM204.49 216.872C204.49 218.886 203.989 220.039 203.342 220.713L206.586 223.831C208.307 222.041 208.99 219.594 208.99 216.872H204.49ZM203.342 220.713C202.681 221.4 201.672 221.87 199.996 221.87V226.37C202.577 226.37 204.879 225.608 206.586 223.831L203.342 220.713ZM230.739 224L228.489 224.004C228.492 225.245 229.498 226.25 230.739 226.25V224ZM230.715 209.624L232.965 209.62C232.964 208.603 232.28 207.714 231.297 207.451C230.315 207.187 229.278 207.616 228.768 208.497L230.715 209.624ZM223.683 221.768V224.018C224.486 224.018 225.228 223.59 225.631 222.895L223.683 221.768ZM223.083 221.768L221.138 222.899C221.541 223.592 222.282 224.018 223.083 224.018V221.768ZM216.051 209.672L217.997 208.541C217.485 207.662 216.448 207.235 215.466 207.5C214.484 207.764 213.801 208.655 213.801 209.672H216.051ZM216.051 224V226.25C217.294 226.25 218.301 225.243 218.301 224H216.051ZM214.851 224H212.601C212.601 225.243 213.609 226.25 214.851 226.25V224ZM214.851 207.2V204.95C213.609 204.95 212.601 205.957 212.601 207.2H214.851ZM215.883 207.2L217.831 206.073C217.429 205.378 216.687 204.95 215.883 204.95V207.2ZM223.395 220.184L221.448 221.311C221.85 222.006 222.592 222.434 223.395 222.434C224.199 222.434 224.941 222.006 225.343 221.311L223.395 220.184ZM230.907 207.2V204.95C230.104 204.95 229.362 205.378 228.96 206.073L230.907 207.2ZM231.915 207.2L234.165 207.197C234.164 205.955 233.157 204.95 231.915 204.95V207.2ZM231.939 224V226.25C232.537 226.25 233.11 226.013 233.532 225.59C233.954 225.167 234.19 224.594 234.189 223.997L231.939 224ZM232.989 223.996L232.965 209.62L228.465 209.628L228.489 224.004L232.989 223.996ZM228.768 208.497L221.736 220.641L225.631 222.895L232.663 210.751L228.768 208.497ZM223.683 219.518H223.083V224.018H223.683V219.518ZM225.029 220.637L217.997 208.541L214.106 210.803L221.138 222.899L225.029 220.637ZM213.801 209.672V224H218.301V209.672H213.801ZM216.051 221.75H214.851V226.25H216.051V221.75ZM217.101 224V207.2H212.601V224H217.101ZM214.851 209.45H215.883V204.95H214.851V209.45ZM213.936 208.327L221.448 221.311L225.343 219.057L217.831 206.073L213.936 208.327ZM225.343 221.311L232.855 208.327L228.96 206.073L221.448 219.057L225.343 221.311ZM230.907 209.45H231.915V204.95H230.907V209.45ZM229.665 207.203L229.689 224.003L234.189 223.997L234.165 207.197L229.665 207.203ZM231.939 221.75H230.739V226.25H231.939V221.75Z" fill="white"/>
<path d="M95.6 204C96.7045 204 97.6 203.105 97.6 202C97.6 200.895 96.7045 200 95.6 200C94.4954 200 93.6 200.895 93.6 202C93.6 203.105 94.4954 204 95.6 204Z" fill="white"/>
<path d="M101.6 204C102.705 204 103.6 203.105 103.6 202C103.6 200.895 102.705 200 101.6 200C100.495 200 99.6 200.895 99.6 202C99.6 203.105 100.495 204 101.6 204Z" fill="white"/>
<mask id="mask0_157_2380" style="mask-type:alpha" maskUnits="userSpaceOnUse" x="30" y="126" width="228" height="56">
<path d="M33.762 129.898H36.204V152.998H33.762V129.898ZM71.011 129.898V152.998H68.668V134.518L59.593 150.061H58.438L49.363 134.617V152.998H47.02V129.898H49.033L59.065 147.025L68.998 129.898H71.011ZM90.4836 129.898C93.4316 129.898 95.7416 130.602 97.4136 132.01C99.0856 133.418 99.9216 135.354 99.9216 137.818C99.9216 140.282 99.0856 142.218 97.4136 143.626C95.7416 145.012 93.4316 145.705 90.4836 145.705H84.2796V152.998H81.8376V129.898H90.4836ZM90.4176 143.56C92.7056 143.56 94.4546 143.065 95.6646 142.075C96.8746 141.063 97.4796 139.644 97.4796 137.818C97.4796 135.948 96.8746 134.518 95.6646 133.528C94.4546 132.516 92.7056 132.01 90.4176 132.01H84.2796V143.56H90.4176ZM124.837 150.886V152.998H108.502V129.898H124.342V132.01H110.944V140.227H122.89V142.306H110.944V150.886H124.837ZM149.651 152.998L144.371 145.573C143.777 145.639 143.161 145.672 142.523 145.672H136.319V152.998H133.877V129.898H142.523C145.471 129.898 147.781 130.602 149.453 132.01C151.125 133.418 151.961 135.354 151.961 137.818C151.961 139.622 151.499 141.151 150.575 142.405C149.673 143.637 148.375 144.528 146.681 145.078L152.324 152.998H149.651ZM142.457 143.593C144.745 143.593 146.494 143.087 147.704 142.075C148.914 141.063 149.519 139.644 149.519 137.818C149.519 135.948 148.914 134.518 147.704 133.528C146.494 132.516 144.745 132.01 142.457 132.01H136.319V143.593H142.457ZM163.467 132.01V141.085H175.413V143.197H163.467V152.998H161.025V129.898H176.865V132.01H163.467ZM201.543 150.886V152.998H185.208V129.898H201.048V132.01H187.65V140.227H199.596V142.306H187.65V150.886H201.543ZM220.615 153.196C218.327 153.196 216.259 152.69 214.411 151.678C212.585 150.666 211.144 149.269 210.088 147.487C209.054 145.683 208.537 143.67 208.537 141.448C208.537 139.226 209.054 137.224 210.088 135.442C211.144 133.638 212.596 132.23 214.444 131.218C216.292 130.206 218.36 129.7 220.648 129.7C222.364 129.7 223.948 129.986 225.4 130.558C226.852 131.13 228.084 131.966 229.096 133.066L227.545 134.617C225.741 132.791 223.464 131.878 220.714 131.878C218.888 131.878 217.227 132.296 215.731 133.132C214.235 133.968 213.058 135.112 212.2 136.564C211.364 138.016 210.946 139.644 210.946 141.448C210.946 143.252 211.364 144.88 212.2 146.332C213.058 147.784 214.235 148.928 215.731 149.764C217.227 150.6 218.888 151.018 220.714 151.018C223.486 151.018 225.763 150.094 227.545 148.246L229.096 149.797C228.084 150.897 226.841 151.744 225.367 152.338C223.915 152.91 222.331 153.196 220.615 153.196ZM243.739 132.01H235.621V129.898H254.299V132.01H246.181V152.998H243.739V132.01Z" fill="white"/>
<path d="M33.762 129.898V126.898C32.1051 126.898 30.762 128.241 30.762 129.898H33.762ZM36.204 129.898H39.204C39.204 128.241 37.8609 126.898 36.204 126.898V129.898ZM36.204 152.998V155.998C37.8609 155.998 39.204 154.655 39.204 152.998H36.204ZM33.762 152.998H30.762C30.762 154.655 32.1051 155.998 33.762 155.998V152.998ZM33.762 132.898H36.204V126.898H33.762V132.898ZM33.204 129.898V152.998H39.204V129.898H33.204ZM36.204 149.998H33.762V155.998H36.204V149.998ZM36.762 152.998V129.898H30.762V152.998H36.762ZM71.011 129.898H74.011C74.011 128.241 72.6679 126.898 71.011 126.898V129.898ZM71.011 152.998V155.998C72.6679 155.998 74.011 154.655 74.011 152.998H71.011ZM68.668 152.998H65.668C65.668 154.655 67.0112 155.998 68.668 155.998V152.998ZM68.668 134.518H71.668C71.668 133.163 70.7596 131.976 69.4515 131.622C68.1435 131.268 66.7605 131.835 66.0773 133.005L68.668 134.518ZM59.593 150.061V153.061C60.6596 153.061 61.646 152.495 62.1837 151.574L59.593 150.061ZM58.438 150.061L55.8515 151.581C56.3903 152.498 57.3744 153.061 58.438 153.061V150.061ZM49.363 134.617L51.9495 133.097C51.2638 131.93 49.8815 131.367 48.5755 131.722C47.2694 132.078 46.363 133.264 46.363 134.617H49.363ZM49.363 152.998V155.998C51.0199 155.998 52.363 154.655 52.363 152.998H49.363ZM47.02 152.998H44.02C44.02 154.655 45.3632 155.998 47.02 155.998V152.998ZM47.02 129.898V126.898C45.3632 126.898 44.02 128.241 44.02 129.898H47.02ZM49.033 129.898L51.6216 128.382C51.0833 127.463 50.0981 126.898 49.033 126.898V129.898ZM59.065 147.025L56.4764 148.541C57.0159 149.462 58.0041 150.027 59.0715 150.025C60.1389 150.023 61.1246 149.454 61.6601 148.53L59.065 147.025ZM68.998 129.898V126.898C67.9283 126.898 66.9395 127.468 66.4029 128.393L68.998 129.898ZM68.011 129.898V152.998H74.011V129.898H68.011ZM71.011 149.998H68.668V155.998H71.011V149.998ZM71.668 152.998V134.518H65.668V152.998H71.668ZM66.0773 133.005L57.0023 148.548L62.1837 151.574L71.2587 136.031L66.0773 133.005ZM59.593 147.061H58.438V153.061H59.593V147.061ZM61.0245 148.541L51.9495 133.097L46.7765 136.137L55.8515 151.581L61.0245 148.541ZM46.363 134.617V152.998H52.363V134.617H46.363ZM49.363 149.998H47.02V155.998H49.363V149.998ZM50.02 152.998V129.898H44.02V152.998H50.02ZM47.02 132.898H49.033V126.898H47.02V132.898ZM46.4444 131.414L56.4764 148.541L61.6536 145.509L51.6216 128.382L46.4444 131.414ZM61.6601 148.53L71.5931 131.403L66.4029 128.393L56.4699 145.52L61.6601 148.53ZM68.998 132.898H71.011V126.898H68.998V132.898ZM97.4136 132.01L95.4812 134.305L97.4136 132.01ZM97.4136 143.626L99.3282 145.936C99.3341 145.931 99.3401 145.926 99.346 145.921L97.4136 143.626ZM84.2796 145.705V142.705C82.6227 142.705 81.2796 144.048 81.2796 145.705H84.2796ZM84.2796 152.998V155.998C85.9364 155.998 87.2796 154.655 87.2796 152.998H84.2796ZM81.8376 152.998H78.8376C78.8376 154.655 80.1807 155.998 81.8376 155.998V152.998ZM81.8376 129.898V126.898C80.1807 126.898 78.8376 128.241 78.8376 129.898H81.8376ZM95.6646 142.075L97.5643 144.397C97.5727 144.39 97.581 144.383 97.5893 144.376L95.6646 142.075ZM95.6646 133.528L93.7399 135.829C93.7482 135.836 93.7565 135.843 93.7649 135.85L95.6646 133.528ZM84.2796 132.01V129.01C82.6227 129.01 81.2796 130.353 81.2796 132.01H84.2796ZM84.2796 143.56H81.2796C81.2796 145.217 82.6227 146.56 84.2796 146.56V143.56ZM90.4836 132.898C92.9719 132.898 94.5132 133.49 95.4812 134.305L99.346 129.715C96.97 127.714 93.8913 126.898 90.4836 126.898V132.898ZM95.4812 134.305C96.3852 135.066 96.9216 136.113 96.9216 137.818H102.922C102.922 134.596 101.786 131.77 99.346 129.715L95.4812 134.305ZM96.9216 137.818C96.9216 139.524 96.3852 140.57 95.4812 141.331L99.346 145.921C101.786 143.866 102.922 141.041 102.922 137.818H96.9216ZM95.499 141.316C94.5304 142.119 92.9821 142.705 90.4836 142.705V148.705C93.881 148.705 96.9527 147.905 99.3282 145.936L95.499 141.316ZM90.4836 142.705H84.2796V148.705H90.4836V142.705ZM81.2796 145.705V152.998H87.2796V145.705H81.2796ZM84.2796 149.998H81.8376V155.998H84.2796V149.998ZM84.8376 152.998V129.898H78.8376V152.998H84.8376ZM81.8376 132.898H90.4836V126.898H81.8376V132.898ZM90.4176 146.56C93.0868 146.56 95.6187 145.989 97.5643 144.397L93.7649 139.753C93.2904 140.141 92.3244 140.56 90.4176 140.56V146.56ZM97.5893 144.376C99.5921 142.701 100.48 140.376 100.48 137.818H94.4796C94.4796 138.912 94.1571 139.425 93.7399 139.774L97.5893 144.376ZM100.48 137.818C100.48 135.244 99.6091 132.879 97.5643 131.206L93.7649 135.85C94.1401 136.157 94.4796 136.652 94.4796 137.818H100.48ZM97.5893 131.227C95.6421 129.598 93.0998 129.01 90.4176 129.01V135.01C92.3113 135.01 93.2671 135.434 93.7399 135.829L97.5893 131.227ZM90.4176 129.01H84.2796V135.01H90.4176V129.01ZM81.2796 132.01V143.56H87.2796V132.01H81.2796ZM84.2796 146.56H90.4176V140.56H84.2796V146.56ZM124.837 150.886H127.837C127.837 149.229 126.494 147.886 124.837 147.886V150.886ZM124.837 152.998V155.998C126.494 155.998 127.837 154.655 127.837 152.998H124.837ZM108.502 152.998H105.502C105.502 154.655 106.845 155.998 108.502 155.998V152.998ZM108.502 129.898V126.898C106.845 126.898 105.502 128.241 105.502 129.898H108.502ZM124.342 129.898H127.342C127.342 128.241 125.999 126.898 124.342 126.898V129.898ZM124.342 132.01V135.01C125.999 135.01 127.342 133.667 127.342 132.01H124.342ZM110.944 132.01V129.01C109.287 129.01 107.944 130.353 107.944 132.01H110.944ZM110.944 140.227H107.944C107.944 141.884 109.287 143.227 110.944 143.227V140.227ZM122.89 140.227H125.89C125.89 138.57 124.547 137.227 122.89 137.227V140.227ZM122.89 142.306V145.306C124.547 145.306 125.89 143.963 125.89 142.306H122.89ZM110.944 142.306V139.306C109.287 139.306 107.944 140.649 107.944 142.306H110.944ZM110.944 150.886H107.944C107.944 152.543 109.287 153.886 110.944 153.886V150.886ZM121.837 150.886V152.998H127.837V150.886H121.837ZM124.837 149.998H108.502V155.998H124.837V149.998ZM111.502 152.998V129.898H105.502V152.998H111.502ZM108.502 132.898H124.342V126.898H108.502V132.898ZM121.342 129.898V132.01H127.342V129.898H121.342ZM124.342 129.01H110.944V135.01H124.342V129.01ZM107.944 132.01V140.227H113.944V132.01H107.944ZM110.944 143.227H122.89V137.227H110.944V143.227ZM119.89 140.227V142.306H125.89V140.227H119.89ZM122.89 139.306H110.944V145.306H122.89V139.306ZM107.944 142.306V150.886H113.944V142.306H107.944ZM110.944 153.886H124.837V147.886H110.944V153.886ZM149.651 152.998L147.206 154.737C147.769 155.528 148.68 155.998 149.651 155.998V152.998ZM144.371 145.573L146.816 143.835C146.185 142.947 145.122 142.471 144.04 142.591L144.371 145.573ZM136.319 145.672V142.672C134.662 142.672 133.319 144.015 133.319 145.672H136.319ZM136.319 152.998V155.998C137.976 155.998 139.319 154.655 139.319 152.998H136.319ZM133.877 152.998H130.877C130.877 154.655 132.22 155.998 133.877 155.998V152.998ZM133.877 129.898V126.898C132.22 126.898 130.877 128.241 130.877 129.898H133.877ZM149.453 132.01L147.521 134.305L149.453 132.01ZM150.575 142.405L148.16 140.625L148.154 140.633L150.575 142.405ZM146.681 145.078L145.755 142.225C144.846 142.52 144.132 143.23 143.832 144.138C143.533 145.045 143.683 146.041 144.238 146.819L146.681 145.078ZM152.324 152.998V155.998C153.447 155.998 154.476 155.371 154.991 154.372C155.505 153.374 155.419 152.172 154.767 151.257L152.324 152.998ZM147.704 142.075L149.629 144.376L147.704 142.075ZM147.704 133.528L145.779 135.829C145.788 135.836 145.796 135.843 145.804 135.85L147.704 133.528ZM136.319 132.01V129.01C134.662 129.01 133.319 130.353 133.319 132.01H136.319ZM136.319 143.593H133.319C133.319 145.25 134.662 146.593 136.319 146.593V143.593ZM152.096 151.26L146.816 143.835L141.926 147.312L147.206 154.737L152.096 151.26ZM144.04 142.591C143.563 142.644 143.058 142.672 142.523 142.672V148.672C143.264 148.672 143.991 148.634 144.702 148.555L144.04 142.591ZM142.523 142.672H136.319V148.672H142.523V142.672ZM133.319 145.672V152.998H139.319V145.672H133.319ZM136.319 149.998H133.877V155.998H136.319V149.998ZM136.877 152.998V129.898H130.877V152.998H136.877ZM133.877 132.898H142.523V126.898H133.877V132.898ZM142.523 132.898C145.011 132.898 146.553 133.49 147.521 134.305L151.385 129.715C149.009 127.714 145.931 126.898 142.523 126.898V132.898ZM147.521 134.305C148.425 135.066 148.961 136.113 148.961 137.818H154.961C154.961 134.596 153.825 131.77 151.385 129.715L147.521 134.305ZM148.961 137.818C148.961 139.087 148.646 139.966 148.16 140.625L152.99 144.185C154.352 142.337 154.961 140.157 154.961 137.818H148.961ZM148.154 140.633C147.684 141.276 146.952 141.836 145.755 142.225L147.607 147.931C149.798 147.22 151.662 145.999 152.996 144.177L148.154 140.633ZM144.238 146.819L149.881 154.739L154.767 151.257L149.124 143.337L144.238 146.819ZM152.324 149.998H149.651V155.998H152.324V149.998ZM142.457 146.593C145.139 146.593 147.682 146.005 149.629 144.376L145.779 139.774C145.307 140.169 144.351 140.593 142.457 140.593V146.593ZM149.629 144.376C151.632 142.701 152.519 140.376 152.519 137.818H146.519C146.519 138.912 146.197 139.425 145.779 139.774L149.629 144.376ZM152.519 137.818C152.519 135.244 151.649 132.879 149.604 131.206L145.804 135.85C146.18 136.157 146.519 136.652 146.519 137.818H152.519ZM149.629 131.227C147.682 129.598 145.139 129.01 142.457 129.01V135.01C144.351 135.01 145.307 135.434 145.779 135.829L149.629 131.227ZM142.457 129.01H136.319V135.01H142.457V129.01ZM133.319 132.01V143.593H139.319V132.01H133.319ZM136.319 146.593H142.457V140.593H136.319V146.593ZM163.467 132.01V129.01C161.81 129.01 160.467 130.353 160.467 132.01H163.467ZM163.467 141.085H160.467C160.467 142.742 161.81 144.085 163.467 144.085V141.085ZM175.413 141.085H178.413C178.413 139.428 177.07 138.085 175.413 138.085V141.085ZM175.413 143.197V146.197C177.07 146.197 178.413 144.854 178.413 143.197H175.413ZM163.467 143.197V140.197C161.81 140.197 160.467 141.54 160.467 143.197H163.467ZM163.467 152.998V155.998C165.124 155.998 166.467 154.655 166.467 152.998H163.467ZM161.025 152.998H158.025C158.025 154.655 159.368 155.998 161.025 155.998V152.998ZM161.025 129.898V126.898C159.368 126.898 158.025 128.241 158.025 129.898H161.025ZM176.865 129.898H179.865C179.865 128.241 178.522 126.898 176.865 126.898V129.898ZM176.865 132.01V135.01C178.522 135.01 179.865 133.667 179.865 132.01H176.865ZM160.467 132.01V141.085H166.467V132.01H160.467ZM163.467 144.085H175.413V138.085H163.467V144.085ZM172.413 141.085V143.197H178.413V141.085H172.413ZM175.413 140.197H163.467V146.197H175.413V140.197ZM160.467 143.197V152.998H166.467V143.197H160.467ZM163.467 149.998H161.025V155.998H163.467V149.998ZM164.025 152.998V129.898H158.025V152.998H164.025ZM161.025 132.898H176.865V126.898H161.025V132.898ZM173.865 129.898V132.01H179.865V129.898H173.865ZM176.865 129.01H163.467V135.01H176.865V129.01ZM201.543 150.886H204.543C204.543 149.229 203.199 147.886 201.543 147.886V150.886ZM201.543 152.998V155.998C203.199 155.998 204.543 154.655 204.543 152.998H201.543ZM185.208 152.998H182.208C182.208 154.655 183.551 155.998 185.208 155.998V152.998ZM185.208 129.898V126.898C183.551 126.898 182.208 128.241 182.208 129.898H185.208ZM201.048 129.898H204.048C204.048 128.241 202.704 126.898 201.048 126.898V129.898ZM201.048 132.01V135.01C202.704 135.01 204.048 133.667 204.048 132.01H201.048ZM187.65 132.01V129.01C185.993 129.01 184.65 130.353 184.65 132.01H187.65ZM187.65 140.227H184.65C184.65 141.884 185.993 143.227 187.65 143.227V140.227ZM199.596 140.227H202.596C202.596 138.57 201.252 137.227 199.596 137.227V140.227ZM199.596 142.306V145.306C201.252 145.306 202.596 143.963 202.596 142.306H199.596ZM187.65 142.306V139.306C185.993 139.306 184.65 140.649 184.65 142.306H187.65ZM187.65 150.886H184.65C184.65 152.543 185.993 153.886 187.65 153.886V150.886ZM198.543 150.886V152.998H204.543V150.886H198.543ZM201.543 149.998H185.208V155.998H201.543V149.998ZM188.208 152.998V129.898H182.208V152.998H188.208ZM185.208 132.898H201.048V126.898H185.208V132.898ZM198.048 129.898V132.01H204.048V129.898H198.048ZM201.048 129.01H187.65V135.01H201.048V129.01ZM184.65 132.01V140.227H190.65V132.01H184.65ZM187.65 143.227H199.596V137.227H187.65V143.227ZM196.596 140.227V142.306H202.596V140.227H196.596ZM199.596 139.306H187.65V145.306H199.596V139.306ZM184.65 142.306V150.886H190.65V142.306H184.65ZM187.65 153.886H201.543V147.886H187.65V153.886ZM214.411 151.678L212.956 154.302C212.961 154.305 212.965 154.307 212.97 154.309L214.411 151.678ZM210.088 147.487L207.485 148.979C207.492 148.992 207.499 149.004 207.507 149.016L210.088 147.487ZM210.088 135.442L207.499 133.927L207.493 133.936L210.088 135.442ZM214.444 131.218L213.003 128.587L214.444 131.218ZM225.4 130.558L224.3 133.349L225.4 130.558ZM229.096 133.066L231.217 135.187C232.354 134.05 232.392 132.219 231.304 131.035L229.096 133.066ZM227.545 134.617L225.411 136.726C225.972 137.294 226.737 137.615 227.536 137.617C228.334 137.619 229.101 137.303 229.666 136.738L227.545 134.617ZM215.731 133.132L214.267 130.513L215.731 133.132ZM212.2 136.564L209.617 135.038C209.611 135.048 209.605 135.057 209.6 135.067L212.2 136.564ZM212.2 146.332L209.6 147.829C209.605 147.839 209.611 147.849 209.617 147.858L212.2 146.332ZM215.731 149.764L214.267 152.383L215.731 149.764ZM227.545 148.246L229.666 146.125C229.097 145.555 228.323 145.239 227.517 145.246C226.712 145.254 225.944 145.584 225.385 146.164L227.545 148.246ZM229.096 149.797L231.304 151.828C232.392 150.645 232.354 148.813 231.217 147.676L229.096 149.797ZM225.367 152.338L226.466 155.129C226.474 155.126 226.481 155.124 226.488 155.121L225.367 152.338ZM220.615 150.196C218.786 150.196 217.221 149.796 215.852 149.047L212.97 154.309C215.297 155.584 217.867 156.196 220.615 156.196V150.196ZM215.865 149.054C214.501 148.298 213.451 147.277 212.669 145.958L207.507 149.016C208.837 151.261 210.668 153.034 212.956 154.302L215.865 149.054ZM212.69 145.995C211.935 144.677 211.537 143.184 211.537 141.448H205.537C205.537 144.156 206.173 146.69 207.485 148.979L212.69 145.995ZM211.537 141.448C211.537 139.712 211.935 138.237 212.683 136.948L207.493 133.936C206.173 136.212 205.537 138.74 205.537 141.448H211.537ZM212.677 136.958C213.456 135.627 214.509 134.603 215.885 133.849L213.003 128.587C210.682 129.858 208.832 131.65 207.499 133.927L212.677 136.958ZM215.885 133.849C217.254 133.1 218.819 132.7 220.648 132.7V126.7C217.9 126.7 215.33 127.312 213.003 128.587L215.885 133.849ZM220.648 132.7C222.025 132.7 223.232 132.928 224.3 133.349L226.499 127.767C224.664 127.044 222.703 126.7 220.648 126.7V132.7ZM224.3 133.349C225.349 133.763 226.197 134.346 226.888 135.097L231.304 131.035C229.971 129.586 228.354 128.498 226.499 127.767L224.3 133.349ZM226.974 130.945L225.423 132.496L229.666 136.738L231.217 135.187L226.974 130.945ZM229.679 132.509C227.268 130.069 224.202 128.878 220.714 128.878V134.878C222.725 134.878 224.213 135.514 225.411 136.726L229.679 132.509ZM220.714 128.878C218.41 128.878 216.24 129.411 214.267 130.513L217.194 135.751C218.214 135.181 219.365 134.878 220.714 134.878V128.878ZM214.267 130.513C212.316 131.604 210.749 133.121 209.617 135.038L214.782 138.09C215.366 137.103 216.153 136.332 217.194 135.751L214.267 130.513ZM209.6 135.067C208.482 137.009 207.946 139.16 207.946 141.448H213.946C213.946 140.128 214.246 139.023 214.8 138.061L209.6 135.067ZM207.946 141.448C207.946 143.736 208.482 145.887 209.6 147.829L214.8 144.835C214.246 143.873 213.946 142.768 213.946 141.448H207.946ZM209.617 147.858C210.749 149.775 212.316 151.292 214.267 152.383L217.194 147.145C216.153 146.564 215.366 145.793 214.782 144.806L209.617 147.858ZM214.267 152.383C216.24 153.485 218.41 154.018 220.714 154.018V148.018C219.365 148.018 218.214 147.715 217.194 147.145L214.267 152.383ZM220.714 154.018C224.228 154.018 227.309 152.813 229.704 150.328L225.385 146.164C224.217 147.375 222.743 148.018 220.714 148.018V154.018ZM225.423 150.367L226.974 151.918L231.217 147.676L229.666 146.125L225.423 150.367ZM226.888 147.766C226.197 148.517 225.333 149.117 224.245 149.556L226.488 155.121C228.349 154.371 229.971 153.277 231.304 151.828L226.888 147.766ZM224.267 149.547C223.199 149.968 221.992 150.196 220.615 150.196V156.196C222.67 156.196 224.631 155.852 226.466 155.129L224.267 149.547ZM243.739 132.01H246.739C246.739 130.353 245.396 129.01 243.739 129.01V132.01ZM235.621 132.01H232.621C232.621 133.667 233.965 135.01 235.621 135.01V132.01ZM235.621 129.898V126.898C233.965 126.898 232.621 128.241 232.621 129.898H235.621ZM254.299 129.898H257.299C257.299 128.241 255.956 126.898 254.299 126.898V129.898ZM254.299 132.01V135.01C255.956 135.01 257.299 133.667 257.299 132.01H254.299ZM246.181 132.01V129.01C244.525 129.01 243.181 130.353 243.181 132.01H246.181ZM246.181 152.998V155.998C247.838 155.998 249.181 154.655 249.181 152.998H246.181ZM243.739 152.998H240.739C240.739 154.655 242.083 155.998 243.739 155.998V152.998ZM243.739 129.01H235.621V135.01H243.739V129.01ZM238.621 132.01V129.898H232.621V132.01H238.621ZM235.621 132.898H254.299V126.898H235.621V132.898ZM251.299 129.898V132.01H257.299V129.898H251.299ZM254.299 129.01H246.181V135.01H254.299V129.01ZM243.181 132.01V152.998H249.181V132.01H243.181ZM246.181 149.998H243.739V155.998H246.181V149.998ZM246.739 152.998V132.01H240.739V152.998H246.739Z" fill="white"/>
<path d="M110.28 165.378H105.08V164.998H115.88V165.378H110.68V178.998H110.28V165.378ZM129.937 178.618V178.998H120.617V164.998H129.637V165.378H121.017V171.698H128.737V172.078H121.017V178.618H129.937ZM146.976 164.998V178.998H146.636L136.376 165.738V178.998H135.976V164.998H136.316L146.576 178.258V164.998H146.976ZM157.725 179.058C156.711 179.058 155.758 178.878 154.865 178.518C153.971 178.145 153.285 177.665 152.805 177.078L153.085 176.818C153.538 177.351 154.185 177.798 155.025 178.158C155.865 178.505 156.758 178.678 157.705 178.678C159.158 178.678 160.251 178.391 160.985 177.818C161.731 177.231 162.105 176.478 162.105 175.558C162.105 174.838 161.911 174.265 161.525 173.838C161.138 173.411 160.658 173.091 160.085 172.878C159.525 172.665 158.765 172.445 157.805 172.218C156.778 171.965 155.965 171.725 155.365 171.498C154.765 171.258 154.251 170.898 153.825 170.418C153.411 169.925 153.205 169.271 153.205 168.458C153.205 167.818 153.371 167.231 153.705 166.698C154.038 166.165 154.558 165.738 155.265 165.418C155.971 165.098 156.845 164.938 157.885 164.938C158.631 164.938 159.365 165.058 160.085 165.298C160.805 165.525 161.425 165.831 161.945 166.218L161.725 166.538C161.178 166.138 160.565 165.838 159.885 165.638C159.218 165.425 158.558 165.318 157.905 165.318C156.505 165.318 155.438 165.618 154.705 166.218C153.971 166.805 153.605 167.558 153.605 168.478C153.605 169.198 153.798 169.778 154.185 170.218C154.571 170.645 155.051 170.965 155.625 171.178C156.198 171.391 156.971 171.618 157.945 171.858C158.958 172.111 159.765 172.358 160.365 172.598C160.965 172.825 161.471 173.178 161.885 173.658C162.298 174.125 162.505 174.758 162.505 175.558C162.505 176.198 162.331 176.785 161.985 177.318C161.638 177.851 161.105 178.278 160.385 178.598C159.678 178.905 158.791 179.058 157.725 179.058ZM177.636 178.618V178.998H168.316V164.998H177.336V165.378H168.716V171.698H176.436V172.078H168.716V178.618H177.636Z" fill="white"/>
<path d="M110.28 165.378H112.28C112.28 164.274 111.385 163.378 110.28 163.378V165.378ZM105.08 165.378H103.08C103.08 166.483 103.975 167.378 105.08 167.378V165.378ZM105.08 164.998V162.998C103.975 162.998 103.08 163.894 103.08 164.998H105.08ZM115.88 164.998H117.88C117.88 163.894 116.985 162.998 115.88 162.998V164.998ZM115.88 165.378V167.378C116.985 167.378 117.88 166.483 117.88 165.378H115.88ZM110.68 165.378V163.378C109.575 163.378 108.68 164.274 108.68 165.378H110.68ZM110.68 178.998V180.998C111.785 180.998 112.68 180.103 112.68 178.998H110.68ZM110.28 178.998H108.28C108.28 180.103 109.175 180.998 110.28 180.998V178.998ZM110.28 163.378H105.08V167.378H110.28V163.378ZM107.08 165.378V164.998H103.08V165.378H107.08ZM105.08 166.998H115.88V162.998H105.08V166.998ZM113.88 164.998V165.378H117.88V164.998H113.88ZM115.88 163.378H110.68V167.378H115.88V163.378ZM108.68 165.378V178.998H112.68V165.378H108.68ZM110.68 176.998H110.28V180.998H110.68V176.998ZM112.28 178.998V165.378H108.28V178.998H112.28ZM129.937 178.618H131.937C131.937 177.514 131.042 176.618 129.937 176.618V178.618ZM129.937 178.998V180.998C131.042 180.998 131.937 180.103 131.937 178.998H129.937ZM120.617 178.998H118.617C118.617 180.103 119.512 180.998 120.617 180.998V178.998ZM120.617 164.998V162.998C119.512 162.998 118.617 163.894 118.617 164.998H120.617ZM129.637 164.998H131.637C131.637 163.894 130.742 162.998 129.637 162.998V164.998ZM129.637 165.378V167.378C130.742 167.378 131.637 166.483 131.637 165.378H129.637ZM121.017 165.378V163.378C119.912 163.378 119.017 164.274 119.017 165.378H121.017ZM121.017 171.698H119.017C119.017 172.803 119.912 173.698 121.017 173.698V171.698ZM128.737 171.698H130.737C130.737 170.594 129.842 169.698 128.737 169.698V171.698ZM128.737 172.078V174.078C129.842 174.078 130.737 173.183 130.737 172.078H128.737ZM121.017 172.078V170.078C119.912 170.078 119.017 170.974 119.017 172.078H121.017ZM121.017 178.618H119.017C119.017 179.723 119.912 180.618 121.017 180.618V178.618ZM127.937 178.618V178.998H131.937V178.618H127.937ZM129.937 176.998H120.617V180.998H129.937V176.998ZM122.617 178.998V164.998H118.617V178.998H122.617ZM120.617 166.998H129.637V162.998H120.617V166.998ZM127.637 164.998V165.378H131.637V164.998H127.637ZM129.637 163.378H121.017V167.378H129.637V163.378ZM119.017 165.378V171.698H123.017V165.378H119.017ZM121.017 173.698H128.737V169.698H121.017V173.698ZM126.737 171.698V172.078H130.737V171.698H126.737ZM128.737 170.078H121.017V174.078H128.737V170.078ZM119.017 172.078V178.618H123.017V172.078H119.017ZM121.017 180.618H129.937V176.618H121.017V180.618ZM146.976 164.998H148.976C148.976 163.894 148.081 162.998 146.976 162.998V164.998ZM146.976 178.998V180.998C148.081 180.998 148.976 180.103 148.976 178.998H146.976ZM146.636 178.998L145.055 180.222C145.433 180.712 146.017 180.998 146.636 180.998V178.998ZM136.376 165.738L137.958 164.514C137.435 163.838 136.539 163.569 135.73 163.846C134.92 164.122 134.376 164.883 134.376 165.738H136.376ZM136.376 178.998V180.998C137.481 180.998 138.376 180.103 138.376 178.998H136.376ZM135.976 178.998H133.976C133.976 180.103 134.872 180.998 135.976 180.998V178.998ZM135.976 164.998V162.998C134.872 162.998 133.976 163.894 133.976 164.998H135.976ZM136.316 164.998L137.898 163.774C137.519 163.285 136.935 162.998 136.316 162.998V164.998ZM146.576 178.258L144.995 179.482C145.518 180.158 146.414 180.427 147.223 180.151C148.032 179.874 148.576 179.113 148.576 178.258H146.576ZM146.576 164.998V162.998C145.472 162.998 144.576 163.894 144.576 164.998H146.576ZM144.976 164.998V178.998H148.976V164.998H144.976ZM146.976 176.998H146.636V180.998H146.976V176.998ZM148.218 177.774L137.958 164.514L134.795 166.962L145.055 180.222L148.218 177.774ZM134.376 165.738V178.998H138.376V165.738H134.376ZM136.376 176.998H135.976V180.998H136.376V176.998ZM137.976 178.998V164.998H133.976V178.998H137.976ZM135.976 166.998H136.316V162.998H135.976V166.998ZM134.735 166.222L144.995 179.482L148.158 177.034L137.898 163.774L134.735 166.222ZM148.576 178.258V164.998H144.576V178.258H148.576ZM146.576 166.998H146.976V162.998H146.576V166.998ZM154.865 178.518L154.093 180.363C154.101 180.367 154.109 180.37 154.117 180.373L154.865 178.518ZM152.805 177.078L151.444 175.613C150.67 176.331 150.588 177.527 151.257 178.345L152.805 177.078ZM153.085 176.818L154.608 175.523C154.255 175.107 153.747 174.854 153.202 174.822C152.658 174.789 152.123 174.981 151.724 175.353L153.085 176.818ZM155.025 178.158L154.237 179.996C154.245 180 154.253 180.003 154.262 180.007L155.025 178.158ZM160.985 177.818L162.216 179.394L162.22 179.391L160.985 177.818ZM161.525 173.838L160.043 175.181L161.525 173.838ZM160.085 172.878L159.373 174.747C159.377 174.749 159.382 174.751 159.387 174.753L160.085 172.878ZM157.805 172.218L157.325 174.16C157.332 174.161 157.338 174.163 157.345 174.165L157.805 172.218ZM155.365 171.498L154.622 173.355C154.634 173.36 154.646 173.364 154.658 173.369L155.365 171.498ZM153.825 170.418L152.291 171.703C152.304 171.717 152.317 171.732 152.33 171.747L153.825 170.418ZM153.705 166.698L155.401 167.758L153.705 166.698ZM160.085 165.298L159.452 167.195C159.463 167.199 159.473 167.202 159.484 167.206L160.085 165.298ZM161.945 166.218L163.593 167.351C164.202 166.465 164.001 165.255 163.138 164.613L161.945 166.218ZM161.725 166.538L160.544 168.152C160.98 168.471 161.527 168.6 162.06 168.51C162.593 168.419 163.066 168.117 163.373 167.671L161.725 166.538ZM159.885 165.638L159.275 167.543C159.29 167.548 159.305 167.552 159.32 167.557L159.885 165.638ZM154.705 166.218L155.954 167.78C155.96 167.775 155.965 167.771 155.971 167.766L154.705 166.218ZM154.185 170.218L152.682 171.538C152.689 171.546 152.696 171.554 152.703 171.561L154.185 170.218ZM155.625 171.178L156.322 169.304L155.625 171.178ZM157.945 171.858L158.43 169.918L158.423 169.916L157.945 171.858ZM160.365 172.598L159.622 174.455C159.634 174.46 159.646 174.464 159.658 174.469L160.365 172.598ZM161.885 173.658L160.369 174.963C160.375 174.97 160.381 174.977 160.387 174.984L161.885 173.658ZM161.985 177.318L160.308 176.228L161.985 177.318ZM160.385 178.598L161.181 180.433C161.186 180.43 161.191 180.428 161.197 180.426L160.385 178.598ZM157.725 177.058C156.954 177.058 156.256 176.922 155.612 176.663L154.117 180.373C155.26 180.834 156.469 181.058 157.725 181.058V177.058ZM155.636 176.673C154.963 176.392 154.575 176.084 154.352 175.812L151.257 178.345C151.994 179.246 152.979 179.898 154.093 180.363L155.636 176.673ZM154.165 178.544L154.445 178.284L151.724 175.353L151.444 175.613L154.165 178.544ZM151.561 178.113C152.266 178.943 153.196 179.55 154.237 179.996L155.812 176.32C155.173 176.046 154.81 175.76 154.608 175.523L151.561 178.113ZM154.262 180.007C155.354 180.458 156.507 180.678 157.705 180.678V176.678C157.009 176.678 156.375 176.552 155.788 176.309L154.262 180.007ZM157.705 180.678C159.369 180.678 160.982 180.359 162.216 179.394L159.753 176.242C159.52 176.424 158.947 176.678 157.705 176.678V180.678ZM162.22 179.391C163.431 178.439 164.105 177.114 164.105 175.558H160.105C160.105 175.842 160.031 176.024 159.749 176.245L162.22 179.391ZM164.105 175.558C164.105 174.471 163.804 173.375 163.007 172.495L160.043 175.181C160.044 175.183 160.046 175.185 160.048 175.189C160.051 175.193 160.057 175.205 160.064 175.227C160.08 175.273 160.105 175.375 160.105 175.558H164.105ZM163.007 172.495C162.391 171.816 161.636 171.322 160.782 171.004L159.387 174.753C159.679 174.861 159.884 175.007 160.043 175.181L163.007 172.495ZM160.797 171.009C160.119 170.751 159.263 170.507 158.264 170.272L157.345 174.165C158.266 174.382 158.93 174.579 159.373 174.747L160.797 171.009ZM158.284 170.276C157.292 170.032 156.565 169.814 156.071 169.627L154.658 173.369C155.364 173.636 156.264 173.898 157.325 174.16L158.284 170.276ZM156.107 169.641C155.794 169.516 155.538 169.336 155.319 169.089L152.33 171.747C152.964 172.46 153.735 173 154.622 173.355L156.107 169.641ZM155.358 169.134C155.319 169.087 155.205 168.929 155.205 168.458H151.205C151.205 169.614 151.504 170.762 152.291 171.703L155.358 169.134ZM155.205 168.458C155.205 168.186 155.27 167.968 155.401 167.758L152.009 165.638C151.473 166.495 151.205 167.45 151.205 168.458H155.205ZM155.401 167.758C155.481 167.63 155.658 167.436 156.09 167.24L154.44 163.596C153.458 164.041 152.595 164.7 152.009 165.638L155.401 167.758ZM156.09 167.24C156.465 167.07 157.037 166.938 157.885 166.938V162.938C156.652 162.938 155.478 163.126 154.44 163.596L156.09 167.24ZM157.885 166.938C158.413 166.938 158.933 167.022 159.452 167.195L160.717 163.401C159.796 163.094 158.85 162.938 157.885 162.938V166.938ZM159.484 167.206C160.025 167.376 160.437 167.59 160.751 167.823L163.138 164.613C162.412 164.073 161.584 163.673 160.685 163.39L159.484 167.206ZM160.296 165.085L160.076 165.405L163.373 167.671L163.593 167.351L160.296 165.085ZM162.906 164.924C162.164 164.381 161.34 163.981 160.449 163.719L159.32 167.557C159.789 167.695 160.192 167.895 160.544 168.152L162.906 164.924ZM160.494 163.733C159.644 163.461 158.779 163.318 157.905 163.318V167.318C158.337 167.318 158.791 167.388 159.275 167.543L160.494 163.733ZM157.905 163.318C156.256 163.318 154.665 163.667 153.438 164.67L155.971 167.766C156.211 167.57 156.753 167.318 157.905 167.318V163.318ZM153.455 164.656C152.259 165.613 151.605 166.936 151.605 168.478H155.605C155.605 168.18 155.684 167.996 155.954 167.78L153.455 164.656ZM151.605 168.478C151.605 169.568 151.906 170.655 152.682 171.538L155.687 168.898C155.677 168.887 155.663 168.869 155.647 168.821C155.629 168.767 155.605 168.66 155.605 168.478H151.605ZM152.703 171.561C153.318 172.24 154.073 172.735 154.927 173.053L156.322 169.304C156.03 169.195 155.825 169.05 155.667 168.875L152.703 171.561ZM154.927 173.053C155.602 173.304 156.459 173.552 157.466 173.8L158.423 169.916C157.484 169.685 156.793 169.479 156.322 169.304L154.927 173.053ZM157.459 173.798C158.431 174.041 159.141 174.263 159.622 174.455L161.107 170.741C160.388 170.454 159.484 170.181 158.43 169.918L157.459 173.798ZM159.658 174.469C159.949 174.579 160.177 174.74 160.369 174.963L163.4 172.353C162.766 171.617 161.98 171.07 161.071 170.727L159.658 174.469ZM160.387 174.984C160.393 174.991 160.505 175.104 160.505 175.558H164.505C164.505 174.412 164.202 173.259 163.382 172.332L160.387 174.984ZM160.505 175.558C160.505 175.814 160.442 176.021 160.308 176.228L163.661 178.408C164.22 177.548 164.505 176.583 164.505 175.558H160.505ZM160.308 176.228C160.217 176.367 160.023 176.57 159.572 176.77L161.197 180.426C162.186 179.986 163.059 179.335 163.661 178.408L160.308 176.228ZM159.588 176.763C159.21 176.928 158.616 177.058 157.725 177.058V181.058C158.967 181.058 160.146 180.882 161.181 180.433L159.588 176.763ZM177.636 178.618H179.636C179.636 177.514 178.741 176.618 177.636 176.618V178.618ZM177.636 178.998V180.998C178.741 180.998 179.636 180.103 179.636 178.998H177.636ZM168.316 178.998H166.316C166.316 180.103 167.212 180.998 168.316 180.998V178.998ZM168.316 164.998V162.998C167.212 162.998 166.316 163.894 166.316 164.998H168.316ZM177.336 164.998H179.336C179.336 163.894 178.441 162.998 177.336 162.998V164.998ZM177.336 165.378V167.378C178.441 167.378 179.336 166.483 179.336 165.378H177.336ZM168.716 165.378V163.378C167.612 163.378 166.716 164.274 166.716 165.378H168.716ZM168.716 171.698H166.716C166.716 172.803 167.612 173.698 168.716 173.698V171.698ZM176.436 171.698H178.436C178.436 170.594 177.541 169.698 176.436 169.698V171.698ZM176.436 172.078V174.078C177.541 174.078 178.436 173.183 178.436 172.078H176.436ZM168.716 172.078V170.078C167.612 170.078 166.716 170.974 166.716 172.078H168.716ZM168.716 178.618H166.716C166.716 179.723 167.612 180.618 168.716 180.618V178.618ZM175.636 178.618V178.998H179.636V178.618H175.636ZM177.636 176.998H168.316V180.998H177.636V176.998ZM170.316 178.998V164.998H166.316V178.998H170.316ZM168.316 166.998H177.336V162.998H168.316V166.998ZM175.336 164.998V165.378H179.336V164.998H175.336ZM177.336 163.378H168.716V167.378H177.336V163.378ZM166.716 165.378V171.698H170.716V165.378H166.716ZM168.716 173.698H176.436V169.698H168.716V173.698ZM174.436 171.698V172.078H178.436V171.698H174.436ZM176.436 170.078H168.716V174.078H176.436V170.078ZM166.716 172.078V178.618H170.716V172.078H166.716ZM168.716 180.618H177.636V176.618H168.716V180.618Z" fill="white"/>
</mask>
<g mask="url(#mask0_157_2380)">
<path d="M0 135.596C9.46667 138.852 32.0667 144.287 51 145.217C69.9333 146.183 84.5 142.531 124.5 141.031C164.5 139.531 174 145.217 217.5 145.217C261 145.217 284 130.283 284 130.283V321.641H274.533C265.067 321.641 246.133 321.641 227.2 321.641C208.267 321.641 189.333 321.641 170.4 321.641C151.467 321.641 132.533 321.641 113.6 321.641C94.6667 321.641 75.7333 321.641 56.8 321.641C37.8667 321.641 18.9333 321.641 9.46667 321.641H0V135.596Z" fill="white"/>
</g>
</g>
<defs>
<clipPath id="clip0_157_2380">
<rect width="284" height="322" fill="white"/>
</clipPath>
</defs>
</svg>
