<svg width="284" height="322" viewBox="0 0 284 322" fill="none" xmlns="http://www.w3.org/2000/svg">
<g clip-path="url(#clip0_159_68)">
<path d="M284 0H0V321.549H284V0Z" fill="#001220"/>
<path d="M64.768 130.8V140.7H77.8V143.004H64.768V153.696H62.104V128.496H79.384V130.8H64.768ZM98.6373 153.912C95.3733 153.912 92.8293 152.976 91.0053 151.104C89.1813 149.232 88.2693 146.508 88.2693 142.932V128.496H90.9333V142.824C90.9333 145.752 91.5933 147.936 92.9133 149.376C94.2333 150.816 96.1413 151.536 98.6373 151.536C101.157 151.536 103.077 150.816 104.397 149.376C105.717 147.936 106.377 145.752 106.377 142.824V128.496H108.969V142.932C108.969 146.508 108.057 149.232 106.233 151.104C104.433 152.976 101.901 153.912 98.6373 153.912ZM125.001 130.8H116.145V128.496H136.521V130.8H127.665V153.696H125.001V130.8ZM154.036 153.912C150.772 153.912 148.228 152.976 146.404 151.104C144.58 149.232 143.668 146.508 143.668 142.932V128.496H146.332V142.824C146.332 145.752 146.992 147.936 148.312 149.376C149.632 150.816 151.54 151.536 154.036 151.536C156.556 151.536 158.476 150.816 159.796 149.376C161.116 147.936 161.776 145.752 161.776 142.824V128.496H164.368V142.932C164.368 146.508 163.456 149.232 161.632 151.104C159.832 152.976 157.3 153.912 154.036 153.912ZM193.204 153.696L187.444 145.596C186.796 145.668 186.124 145.704 185.428 145.704H178.66V153.696H175.996V128.496H185.428C188.644 128.496 191.164 129.264 192.988 130.8C194.812 132.336 195.724 134.448 195.724 137.136C195.724 139.104 195.22 140.772 194.212 142.14C193.228 143.484 191.812 144.456 189.964 145.056L196.12 153.696H193.204ZM185.356 143.436C187.852 143.436 189.76 142.884 191.08 141.78C192.4 140.676 193.06 139.128 193.06 137.136C193.06 135.096 192.4 133.536 191.08 132.456C189.76 131.352 187.852 130.8 185.356 130.8H178.66V143.436H185.356ZM223.432 151.392V153.696H205.612V128.496H222.892V130.8H208.276V139.764H221.308V142.032H208.276V151.392H223.432Z" fill="#80FF80"/>
<path d="M64.768 130.8V127.8C63.1111 127.8 61.768 129.143 61.768 130.8H64.768ZM64.768 140.7H61.768C61.768 142.357 63.1111 143.7 64.768 143.7V140.7ZM77.8 140.7H80.8C80.8 139.043 79.4569 137.7 77.8 137.7V140.7ZM77.8 143.004V146.004C79.4569 146.004 80.8 144.661 80.8 143.004H77.8ZM64.768 143.004V140.004C63.1111 140.004 61.768 141.347 61.768 143.004H64.768ZM64.768 153.696V156.696C66.4249 156.696 67.768 155.353 67.768 153.696H64.768ZM62.104 153.696H59.104C59.104 155.353 60.4471 156.696 62.104 156.696V153.696ZM62.104 128.496V125.496C60.4471 125.496 59.104 126.839 59.104 128.496H62.104ZM79.384 128.496H82.384C82.384 126.839 81.0409 125.496 79.384 125.496V128.496ZM79.384 130.8V133.8C81.0409 133.8 82.384 132.457 82.384 130.8H79.384ZM61.768 130.8V140.7H67.768V130.8H61.768ZM64.768 143.7H77.8V137.7H64.768V143.7ZM74.8 140.7V143.004H80.8V140.7H74.8ZM77.8 140.004H64.768V146.004H77.8V140.004ZM61.768 143.004V153.696H67.768V143.004H61.768ZM64.768 150.696H62.104V156.696H64.768V150.696ZM65.104 153.696V128.496H59.104V153.696H65.104ZM62.104 131.496H79.384V125.496H62.104V131.496ZM76.384 128.496V130.8H82.384V128.496H76.384ZM79.384 127.8H64.768V133.8H79.384V127.8ZM91.0053 151.104L93.1539 149.011L91.0053 151.104ZM88.2693 128.496V125.496C86.6124 125.496 85.2693 126.839 85.2693 128.496H88.2693ZM90.9333 128.496H93.9333C93.9333 126.839 92.5901 125.496 90.9333 125.496V128.496ZM104.397 149.376L106.609 151.403L104.397 149.376ZM106.377 128.496V125.496C104.72 125.496 103.377 126.839 103.377 128.496H106.377ZM108.969 128.496H111.969C111.969 126.839 110.626 125.496 108.969 125.496V128.496ZM106.233 151.104L104.085 149.011C104.08 149.015 104.075 149.02 104.071 149.025L106.233 151.104ZM98.6373 150.912C95.9688 150.912 94.2798 150.166 93.1539 149.011L88.8566 153.198C91.3787 155.786 94.7777 156.912 98.6373 156.912V150.912ZM93.1539 149.011C92.0511 147.879 91.2693 146.02 91.2693 142.932H85.2693C85.2693 146.997 86.3114 150.586 88.8566 153.198L93.1539 149.011ZM91.2693 142.932V128.496H85.2693V142.932H91.2693ZM88.2693 131.496H90.9333V125.496H88.2693V131.496ZM87.9333 128.496V142.824H93.9333V128.496H87.9333ZM87.9333 142.824C87.9333 146.137 88.6724 149.19 90.7018 151.403L95.1247 147.349C94.5141 146.683 93.9333 145.367 93.9333 142.824H87.9333ZM90.7018 151.403C92.7385 153.625 95.5487 154.536 98.6373 154.536V148.536C96.7338 148.536 95.728 148.007 95.1247 147.349L90.7018 151.403ZM98.6373 154.536C101.74 154.536 104.567 153.631 106.609 151.403L102.186 147.349C101.588 148.001 100.575 148.536 98.6373 148.536V154.536ZM106.609 151.403C108.638 149.19 109.377 146.137 109.377 142.824H103.377C103.377 145.367 102.796 146.683 102.186 147.349L106.609 151.403ZM109.377 142.824V128.496H103.377V142.824H109.377ZM106.377 131.496H108.969V125.496H106.377V131.496ZM105.969 128.496V142.932H111.969V128.496H105.969ZM105.969 142.932C105.969 146.02 105.187 147.879 104.085 149.011L108.382 153.198C110.927 150.586 111.969 146.997 111.969 142.932H105.969ZM104.071 149.025C102.974 150.166 101.308 150.912 98.6373 150.912V156.912C102.495 156.912 105.893 155.787 108.396 153.184L104.071 149.025ZM125.001 130.8H128.001C128.001 129.143 126.658 127.8 125.001 127.8V130.8ZM116.145 130.8H113.145C113.145 132.457 114.488 133.8 116.145 133.8V130.8ZM116.145 128.496V125.496C114.488 125.496 113.145 126.839 113.145 128.496H116.145ZM136.521 128.496H139.521C139.521 126.839 138.178 125.496 136.521 125.496V128.496ZM136.521 130.8V133.8C138.178 133.8 139.521 132.457 139.521 130.8H136.521ZM127.665 130.8V127.8C126.008 127.8 124.665 129.143 124.665 130.8H127.665ZM127.665 153.696V156.696C129.322 156.696 130.665 155.353 130.665 153.696H127.665ZM125.001 153.696H122.001C122.001 155.353 123.344 156.696 125.001 156.696V153.696ZM125.001 127.8H116.145V133.8H125.001V127.8ZM119.145 130.8V128.496H113.145V130.8H119.145ZM116.145 131.496H136.521V125.496H116.145V131.496ZM133.521 128.496V130.8H139.521V128.496H133.521ZM136.521 127.8H127.665V133.8H136.521V127.8ZM124.665 130.8V153.696H130.665V130.8H124.665ZM127.665 150.696H125.001V156.696H127.665V150.696ZM128.001 153.696V130.8H122.001V153.696H128.001ZM146.404 151.104L148.553 149.011L146.404 151.104ZM143.668 128.496V125.496C142.012 125.496 140.668 126.839 140.668 128.496H143.668ZM146.332 128.496H149.332C149.332 126.839 147.989 125.496 146.332 125.496V128.496ZM159.796 149.376L162.008 151.403L159.796 149.376ZM161.776 128.496V125.496C160.12 125.496 158.776 126.839 158.776 128.496H161.776ZM164.368 128.496H167.368C167.368 126.839 166.025 125.496 164.368 125.496V128.496ZM161.632 151.104L159.484 149.011C159.479 149.015 159.475 149.02 159.47 149.025L161.632 151.104ZM154.036 150.912C151.368 150.912 149.679 150.166 148.553 149.011L144.256 153.198C146.778 155.786 150.177 156.912 154.036 156.912V150.912ZM148.553 149.011C147.45 147.879 146.668 146.02 146.668 142.932H140.668C140.668 146.997 141.711 150.586 144.256 153.198L148.553 149.011ZM146.668 142.932V128.496H140.668V142.932H146.668ZM143.668 131.496H146.332V125.496H143.668V131.496ZM143.332 128.496V142.824H149.332V128.496H143.332ZM143.332 142.824C143.332 146.137 144.072 149.19 146.101 151.403L150.524 147.349C149.913 146.683 149.332 145.367 149.332 142.824H143.332ZM146.101 151.403C148.138 153.625 150.948 154.536 154.036 154.536V148.536C152.133 148.536 151.127 148.007 150.524 147.349L146.101 151.403ZM154.036 154.536C157.139 154.536 159.966 153.631 162.008 151.403L157.585 147.349C156.987 148.001 155.974 148.536 154.036 148.536V154.536ZM162.008 151.403C164.037 149.19 164.776 146.137 164.776 142.824H158.776C158.776 145.367 158.196 146.683 157.585 147.349L162.008 151.403ZM164.776 142.824V128.496H158.776V142.824H164.776ZM161.776 131.496H164.368V125.496H161.776V131.496ZM161.368 128.496V142.932H167.368V128.496H161.368ZM161.368 142.932C161.368 146.02 160.587 147.879 159.484 149.011L163.781 153.198C166.326 150.586 167.368 146.997 167.368 142.932H161.368ZM159.47 149.025C158.373 150.166 156.707 150.912 154.036 150.912V156.912C157.894 156.912 161.292 155.787 163.795 153.184L159.47 149.025ZM193.204 153.696L190.759 155.435C191.322 156.226 192.233 156.696 193.204 156.696V153.696ZM187.444 145.596L189.889 143.858C189.258 142.97 188.195 142.494 187.113 142.615L187.444 145.596ZM178.66 145.704V142.704C177.003 142.704 175.66 144.047 175.66 145.704H178.66ZM178.66 153.696V156.696C180.317 156.696 181.66 155.353 181.66 153.696H178.66ZM175.996 153.696H172.996C172.996 155.353 174.339 156.696 175.996 156.696V153.696ZM175.996 128.496V125.496C174.339 125.496 172.996 126.839 172.996 128.496H175.996ZM192.988 130.8L191.056 133.095L192.988 130.8ZM194.212 142.14L191.797 140.361L191.792 140.368L194.212 142.14ZM189.964 145.056L189.038 142.203C188.129 142.498 187.415 143.208 187.115 144.116C186.816 145.023 186.966 146.019 187.521 146.797L189.964 145.056ZM196.12 153.696V156.696C197.243 156.696 198.272 156.069 198.787 155.071C199.301 154.072 199.215 152.87 198.563 151.955L196.12 153.696ZM191.08 141.78L193.005 144.082L191.08 141.78ZM191.08 132.456L189.156 134.758C189.164 134.764 189.172 134.771 189.18 134.778L191.08 132.456ZM178.66 130.8V127.8C177.003 127.8 175.66 129.143 175.66 130.8H178.66ZM178.66 143.436H175.66C175.66 145.093 177.003 146.436 178.66 146.436V143.436ZM195.649 151.958L189.889 143.858L184.999 147.335L190.759 155.435L195.649 151.958ZM187.113 142.615C186.582 142.674 186.021 142.704 185.428 142.704V148.704C186.228 148.704 187.01 148.663 187.775 148.578L187.113 142.615ZM185.428 142.704H178.66V148.704H185.428V142.704ZM175.66 145.704V153.696H181.66V145.704H175.66ZM178.66 150.696H175.996V156.696H178.66V150.696ZM178.996 153.696V128.496H172.996V153.696H178.996ZM175.996 131.496H185.428V125.496H175.996V131.496ZM185.428 131.496C188.185 131.496 189.936 132.152 191.056 133.095L194.921 128.506C192.393 126.377 189.104 125.496 185.428 125.496V131.496ZM191.056 133.095C192.112 133.984 192.724 135.207 192.724 137.136H198.724C198.724 133.69 197.513 130.688 194.921 128.506L191.056 133.095ZM192.724 137.136C192.724 138.569 192.367 139.587 191.797 140.361L196.627 143.92C198.073 141.958 198.724 139.64 198.724 137.136H192.724ZM191.792 140.368C191.239 141.123 190.39 141.764 189.038 142.203L190.891 147.91C193.235 147.149 195.217 145.846 196.633 143.912L191.792 140.368ZM187.521 146.797L193.677 155.437L198.563 151.955L192.407 143.315L187.521 146.797ZM196.12 150.696H193.204V156.696H196.12V150.696ZM185.356 146.436C188.246 146.436 190.948 145.802 193.005 144.082L189.156 139.479C188.573 139.966 187.458 140.436 185.356 140.436V146.436ZM193.005 144.082C195.118 142.314 196.06 139.861 196.06 137.136H190.06C190.06 138.396 189.683 139.038 189.156 139.479L193.005 144.082ZM196.06 137.136C196.06 134.392 195.135 131.897 192.98 130.134L189.18 134.778C189.666 135.175 190.06 135.801 190.06 137.136H196.06ZM193.005 130.155C190.948 128.434 188.246 127.8 185.356 127.8V133.8C187.458 133.8 188.573 134.27 189.156 134.758L193.005 130.155ZM185.356 127.8H178.66V133.8H185.356V127.8ZM175.66 130.8V143.436H181.66V130.8H175.66ZM178.66 146.436H185.356V140.436H178.66V146.436ZM223.432 151.392H226.432C226.432 149.735 225.089 148.392 223.432 148.392V151.392ZM223.432 153.696V156.696C225.089 156.696 226.432 155.353 226.432 153.696H223.432ZM205.612 153.696H202.612C202.612 155.353 203.955 156.696 205.612 156.696V153.696ZM205.612 128.496V125.496C203.955 125.496 202.612 126.839 202.612 128.496H205.612ZM222.892 128.496H225.892C225.892 126.839 224.549 125.496 222.892 125.496V128.496ZM222.892 130.8V133.8C224.549 133.8 225.892 132.457 225.892 130.8H222.892ZM208.276 130.8V127.8C206.619 127.8 205.276 129.143 205.276 130.8H208.276ZM208.276 139.764H205.276C205.276 141.421 206.619 142.764 208.276 142.764V139.764ZM221.308 139.764H224.308C224.308 138.107 222.965 136.764 221.308 136.764V139.764ZM221.308 142.032V145.032C222.965 145.032 224.308 143.689 224.308 142.032H221.308ZM208.276 142.032V139.032C206.619 139.032 205.276 140.375 205.276 142.032H208.276ZM208.276 151.392H205.276C205.276 153.049 206.619 154.392 208.276 154.392V151.392ZM220.432 151.392V153.696H226.432V151.392H220.432ZM223.432 150.696H205.612V156.696H223.432V150.696ZM208.612 153.696V128.496H202.612V153.696H208.612ZM205.612 131.496H222.892V125.496H205.612V131.496ZM219.892 128.496V130.8H225.892V128.496H219.892ZM222.892 127.8H208.276V133.8H222.892V127.8ZM205.276 130.8V139.764H211.276V130.8H205.276ZM208.276 142.764H221.308V136.764H208.276V142.764ZM218.308 139.764V142.032H224.308V139.764H218.308ZM221.308 139.032H208.276V145.032H221.308V139.032ZM205.276 142.032V151.392H211.276V142.032H205.276ZM208.276 154.392H223.432V148.392H208.276V154.392Z" fill="#80FF80"/>
<path d="M125.28 103.129H120.08V102.749H130.88V103.129H125.68V116.749H125.28V103.129ZM146.617 102.749V116.749H146.217V109.829H136.017V116.749H135.617V102.749H136.017V109.449H146.217V102.749H146.617ZM163.265 116.369V116.749H153.945V102.749H162.965V103.129H154.345V109.449H162.065V109.829H154.345V116.369H163.265Z" fill="#80FF80"/>
<path d="M125.28 103.129H127.28C127.28 102.025 126.385 101.129 125.28 101.129V103.129ZM120.08 103.129H118.08C118.08 104.234 118.975 105.129 120.08 105.129V103.129ZM120.08 102.749V100.749C118.975 100.749 118.08 101.645 118.08 102.749H120.08ZM130.88 102.749H132.88C132.88 101.645 131.985 100.749 130.88 100.749V102.749ZM130.88 103.129V105.129C131.985 105.129 132.88 104.234 132.88 103.129H130.88ZM125.68 103.129V101.129C124.575 101.129 123.68 102.025 123.68 103.129H125.68ZM125.68 116.749V118.749C126.785 118.749 127.68 117.854 127.68 116.749H125.68ZM125.28 116.749H123.28C123.28 117.854 124.175 118.749 125.28 118.749V116.749ZM125.28 101.129H120.08V105.129H125.28V101.129ZM122.08 103.129V102.749H118.08V103.129H122.08ZM120.08 104.749H130.88V100.749H120.08V104.749ZM128.88 102.749V103.129H132.88V102.749H128.88ZM130.88 101.129H125.68V105.129H130.88V101.129ZM123.68 103.129V116.749H127.68V103.129H123.68ZM125.68 114.749H125.28V118.749H125.68V114.749ZM127.28 116.749V103.129H123.28V116.749H127.28ZM146.617 102.749H148.617C148.617 101.645 147.722 100.749 146.617 100.749V102.749ZM146.617 116.749V118.749C147.722 118.749 148.617 117.854 148.617 116.749H146.617ZM146.217 116.749H144.217C144.217 117.854 145.112 118.749 146.217 118.749V116.749ZM146.217 109.829H148.217C148.217 108.725 147.322 107.829 146.217 107.829V109.829ZM136.017 109.829V107.829C134.912 107.829 134.017 108.725 134.017 109.829H136.017ZM136.017 116.749V118.749C137.122 118.749 138.017 117.854 138.017 116.749H136.017ZM135.617 116.749H133.617C133.617 117.854 134.512 118.749 135.617 118.749V116.749ZM135.617 102.749V100.749C134.512 100.749 133.617 101.645 133.617 102.749H135.617ZM136.017 102.749H138.017C138.017 101.645 137.122 100.749 136.017 100.749V102.749ZM136.017 109.449H134.017C134.017 110.554 134.912 111.449 136.017 111.449V109.449ZM146.217 109.449V111.449C147.322 111.449 148.217 110.554 148.217 109.449H146.217ZM146.217 102.749V100.749C145.112 100.749 144.217 101.645 144.217 102.749H146.217ZM144.617 102.749V116.749H148.617V102.749H144.617ZM146.617 114.749H146.217V118.749H146.617V114.749ZM148.217 116.749V109.829H144.217V116.749H148.217ZM146.217 107.829H136.017V111.829H146.217V107.829ZM134.017 109.829V116.749H138.017V109.829H134.017ZM136.017 114.749H135.617V118.749H136.017V114.749ZM137.617 116.749V102.749H133.617V116.749H137.617ZM135.617 104.749H136.017V100.749H135.617V104.749ZM134.017 102.749V109.449H138.017V102.749H134.017ZM136.017 111.449H146.217V107.449H136.017V111.449ZM148.217 109.449V102.749H144.217V109.449H148.217ZM146.217 104.749H146.617V100.749H146.217V104.749ZM163.265 116.369H165.265C165.265 115.265 164.37 114.369 163.265 114.369V116.369ZM163.265 116.749V118.749C164.37 118.749 165.265 117.854 165.265 116.749H163.265ZM153.945 116.749H151.945C151.945 117.854 152.841 118.749 153.945 118.749V116.749ZM153.945 102.749V100.749C152.841 100.749 151.945 101.645 151.945 102.749H153.945ZM162.965 102.749H164.965C164.965 101.645 164.07 100.749 162.965 100.749V102.749ZM162.965 103.129V105.129C164.07 105.129 164.965 104.234 164.965 103.129H162.965ZM154.345 103.129V101.129C153.241 101.129 152.345 102.025 152.345 103.129H154.345ZM154.345 109.449H152.345C152.345 110.554 153.241 111.449 154.345 111.449V109.449ZM162.065 109.449H164.065C164.065 108.345 163.17 107.449 162.065 107.449V109.449ZM162.065 109.829V111.829C163.17 111.829 164.065 110.934 164.065 109.829H162.065ZM154.345 109.829V107.829C153.241 107.829 152.345 108.725 152.345 109.829H154.345ZM154.345 116.369H152.345C152.345 117.474 153.241 118.369 154.345 118.369V116.369ZM161.265 116.369V116.749H165.265V116.369H161.265ZM163.265 114.749H153.945V118.749H163.265V114.749ZM155.945 116.749V102.749H151.945V116.749H155.945ZM153.945 104.749H162.965V100.749H153.945V104.749ZM160.965 102.749V103.129H164.965V102.749H160.965ZM162.965 101.129H154.345V105.129H162.965V101.129ZM152.345 103.129V109.449H156.345V103.129H152.345ZM154.345 111.449H162.065V107.449H154.345V111.449ZM160.065 109.449V109.829H164.065V109.449H160.065ZM162.065 107.829H154.345V111.829H162.065V107.829ZM152.345 109.829V116.369H156.345V109.829H152.345ZM154.345 118.369H163.265V114.369H154.345V118.369Z" fill="#80FF80"/>
<path d="M0 143.673L9.46667 144.936C18.9333 146.237 37.8667 148.762 56.8 146.16C75.7333 143.559 94.6667 135.754 113.6 136.29C132.533 136.787 151.467 145.586 170.4 146.16C189.333 146.734 208.267 139.083 227.2 135.142C246.133 131.163 265.067 130.934 274.533 130.781L284 130.666V321.186H274.533C265.067 321.186 246.133 321.186 227.2 321.186C208.267 321.186 189.333 321.186 170.4 321.186C151.467 321.186 132.533 321.186 113.6 321.186C94.6667 321.186 75.7333 321.186 56.8 321.186C37.8667 321.186 18.9333 321.186 9.46667 321.186H0V143.673Z" fill="#80FF80"/>
<path d="M0 151.161L9.46667 155.407C18.9333 159.612 37.8667 168.103 56.8 171.794C75.7333 175.484 94.6667 174.452 113.6 173.301C132.533 172.19 151.467 171 170.4 178.063C189.333 185.165 208.267 200.481 227.2 200.361C246.133 200.242 265.067 184.609 274.533 176.833L284 169.016V320.585H274.533C265.067 320.585 246.133 320.585 227.2 320.585C208.267 320.585 189.333 320.585 170.4 320.585C151.467 320.585 132.533 320.585 113.6 320.585C94.6667 320.585 75.7333 320.585 56.8 320.585C37.8667 320.585 18.9333 320.585 9.46667 320.585H0V151.161Z" fill="#63F361"/>
<path d="M0 228.533V204.48C9.46667 202.695 29.6 217.344 56.8 217.82C84 218.296 94.6667 210.678 113.6 210.757C132.533 210.797 151.467 214.526 170.4 218.296C189.333 222.065 208.267 225.874 227.2 220.518C246.133 215.161 269.327 208.694 284 195.6V320.585H274.533C265.067 320.585 246.133 320.585 227.2 320.585C208.267 320.585 189.333 320.585 170.4 320.585C151.467 320.585 132.533 320.585 113.6 320.585C94.6667 320.585 75.7333 320.585 56.8 320.585C37.8667 320.585 18.9333 320.585 9.46667 320.585H0V228.533Z" fill="#48E145"/>
<path d="M0 233.691L9.46667 235.952C18.9333 238.174 37.8667 242.698 56.8 244.88C75.7333 247.062 94.6667 246.904 113.6 242.698C132.533 238.452 147.825 234.356 170.4 233.294C192.619 232.249 209.213 233.294 227.2 237.143C245.187 240.992 274.533 247.142 284 254.323V266.227V320.585H274.533C265.067 320.585 246.133 320.585 227.2 320.585C208.267 320.585 189.333 320.585 170.4 320.585C151.467 320.585 132.533 320.585 113.6 320.585C94.6667 320.585 75.7333 320.585 56.8 320.585C37.8667 320.585 18.9333 320.585 9.46667 320.585H0V233.691Z" fill="#30CE2D"/>
<path d="M0 294.622L9.46667 295.297C18.9333 295.932 37.8667 297.281 56.8 295.535C75.7333 293.829 94.6667 289.067 113.6 282.719C132.533 276.371 151.467 268.435 170.4 266.729C189.333 264.983 208.267 269.506 227.2 269.348C246.133 269.229 265.067 264.467 274.533 262.087L284 259.706V322H274.533C265.067 322 246.133 322 227.2 322C208.267 322 189.333 322 170.4 322C151.467 322 132.533 322 113.6 322C94.6667 322 75.7333 322 56.8 322C37.8667 322 18.9333 322 9.46667 322H0V294.622Z" fill="#00C200"/>
<path d="M90.0896 207.008V213.586H98.2956V214.598H90.0896V221.396H88.9676V205.996H99.2636V207.008H90.0896ZM111.075 221.506C109.124 221.506 107.606 220.941 106.521 219.812C105.45 218.683 104.915 217.033 104.915 214.862V205.996H106.037V214.818C106.037 216.71 106.469 218.125 107.335 219.064C108.2 220.003 109.454 220.472 111.097 220.472C112.725 220.472 113.971 220.003 114.837 219.064C115.702 218.125 116.135 216.71 116.135 214.818V205.996H117.257V214.862C117.257 217.033 116.714 218.683 115.629 219.812C114.543 220.941 113.025 221.506 111.075 221.506ZM127.889 207.008H122.345V205.996H134.555V207.008H129.011V221.396H127.889V207.008ZM146.116 221.506C144.165 221.506 142.647 220.941 141.562 219.812C140.491 218.683 139.956 217.033 139.956 214.862V205.996H141.078V214.818C141.078 216.71 141.51 218.125 142.376 219.064C143.241 220.003 144.495 220.472 146.138 220.472C147.766 220.472 149.012 220.003 149.878 219.064C150.743 218.125 151.176 216.71 151.176 214.818V205.996H152.298V214.862C152.298 217.033 151.755 218.683 150.67 219.812C149.584 220.941 148.066 221.506 146.116 221.506ZM170.425 221.396L166.751 216.248C166.208 216.321 165.709 216.358 165.255 216.358H160.855V221.396H159.733V205.996H165.255C167.191 205.996 168.709 206.458 169.809 207.382C170.909 208.291 171.459 209.56 171.459 211.188C171.459 212.405 171.143 213.432 170.513 214.268C169.897 215.089 169.009 215.669 167.851 216.006L171.701 221.396H170.425ZM165.255 215.368C166.897 215.368 168.151 215.009 169.017 214.29C169.882 213.557 170.315 212.523 170.315 211.188C170.315 209.853 169.882 208.827 169.017 208.108C168.151 207.375 166.897 207.008 165.255 207.008H160.855V215.368H165.255ZM184.301 221.506C182.79 221.506 181.426 221.169 180.209 220.494C178.991 219.805 178.031 218.866 177.327 217.678C176.637 216.49 176.293 215.163 176.293 213.696C176.293 212.229 176.637 210.902 177.327 209.714C178.031 208.526 178.991 207.595 180.209 206.92C181.426 206.231 182.79 205.886 184.301 205.886C185.811 205.886 187.175 206.223 188.393 206.898C189.61 207.573 190.563 208.504 191.253 209.692C191.957 210.88 192.309 212.215 192.309 213.696C192.309 215.177 191.957 216.512 191.253 217.7C190.563 218.888 189.61 219.819 188.393 220.494C187.175 221.169 185.811 221.506 184.301 221.506ZM184.301 220.472C185.591 220.472 186.757 220.179 187.799 219.592C188.84 219.005 189.661 218.199 190.263 217.172C190.864 216.131 191.165 214.972 191.165 213.696C191.165 212.42 190.864 211.269 190.263 210.242C189.661 209.201 188.84 208.387 187.799 207.8C186.757 207.213 185.591 206.92 184.301 206.92C183.01 206.92 181.837 207.213 180.781 207.8C179.739 208.387 178.918 209.201 178.317 210.242C177.715 211.269 177.415 212.42 177.415 213.696C177.415 214.972 177.715 216.131 178.317 217.172C178.918 218.199 179.739 219.005 180.781 219.592C181.837 220.179 183.01 220.472 184.301 220.472ZM82.7869 248.506C81.6576 248.506 80.5796 248.315 79.5529 247.934C78.5409 247.538 77.7489 247.032 77.1769 246.416L77.6829 245.58C78.2256 246.152 78.9516 246.621 79.8609 246.988C80.7849 247.34 81.7529 247.516 82.7649 247.516C84.2316 247.516 85.3389 247.237 86.0869 246.68C86.8349 246.123 87.2089 245.397 87.2089 244.502C87.2089 243.813 87.0109 243.263 86.6149 242.852C86.2189 242.441 85.7276 242.126 85.1409 241.906C84.5542 241.686 83.7622 241.459 82.7649 241.224C81.6356 240.945 80.7262 240.674 80.0369 240.41C79.3622 240.146 78.7829 239.743 78.2989 239.2C77.8296 238.643 77.5949 237.902 77.5949 236.978C77.5949 236.23 77.7929 235.548 78.1889 234.932C78.5849 234.301 79.1862 233.803 79.9929 233.436C80.8142 233.069 81.8336 232.886 83.0509 232.886C83.9016 232.886 84.7376 233.011 85.5589 233.26C86.3802 233.509 87.0916 233.847 87.6929 234.272L87.2749 235.174C86.6589 234.749 85.9769 234.426 85.2289 234.206C84.4956 233.986 83.7696 233.876 83.0509 233.876C81.6282 233.876 80.5502 234.162 79.8169 234.734C79.0836 235.306 78.7169 236.047 78.7169 236.956C78.7169 237.645 78.9149 238.195 79.3109 238.606C79.7069 239.017 80.1982 239.332 80.7849 239.552C81.3716 239.772 82.1709 240.007 83.1829 240.256C84.3122 240.535 85.2142 240.806 85.8889 241.07C86.5636 241.334 87.1356 241.737 87.6049 242.28C88.0889 242.808 88.3309 243.527 88.3309 244.436C88.3309 245.184 88.1256 245.866 87.7149 246.482C87.3189 247.098 86.7029 247.589 85.8669 247.956C85.0309 248.323 84.0042 248.506 82.7869 248.506ZM104.971 247.384V248.396H94.3451V232.996H104.641V234.008H95.4671V240.08H103.673V241.07H95.4671V247.384H104.971ZM125.826 248.396L125.804 235.218L119.358 246.35H118.808L112.362 235.262V248.396H111.262V232.996H112.208L119.094 244.898L125.98 232.996H126.904L126.926 248.396H125.826ZM140.017 232.996C141.953 232.996 143.471 233.458 144.571 234.382C145.671 235.291 146.221 236.56 146.221 238.188C146.221 239.801 145.671 241.07 144.571 241.994C143.471 242.903 141.953 243.358 140.017 243.358H135.617V248.396H134.495V232.996H140.017ZM140.017 242.346C141.66 242.346 142.914 241.987 143.779 241.268C144.644 240.549 145.077 239.523 145.077 238.188C145.077 236.853 144.644 235.827 143.779 235.108C142.914 234.375 141.66 234.008 140.017 234.008H135.617V242.346H140.017ZM152.207 232.996H153.329V247.384H162.195V248.396H152.207V232.996ZM167.276 232.996H168.398V248.396H167.276V232.996ZM182.476 248.506C180.966 248.506 179.602 248.169 178.384 247.494C177.182 246.819 176.228 245.888 175.524 244.7C174.835 243.512 174.49 242.177 174.49 240.696C174.49 239.215 174.835 237.88 175.524 236.692C176.228 235.504 177.182 234.573 178.384 233.898C179.602 233.223 180.966 232.886 182.476 232.886C183.591 232.886 184.618 233.069 185.556 233.436C186.495 233.788 187.294 234.316 187.954 235.02L187.25 235.746C186.018 234.529 184.442 233.92 182.52 233.92C181.23 233.92 180.056 234.213 179 234.8C177.944 235.387 177.116 236.201 176.514 237.242C175.913 238.269 175.612 239.42 175.612 240.696C175.612 241.972 175.913 243.131 176.514 244.172C177.116 245.199 177.944 246.005 179 246.592C180.056 247.179 181.23 247.472 182.52 247.472C184.427 247.472 186.004 246.856 187.25 245.624L187.954 246.35C187.294 247.054 186.488 247.589 185.534 247.956C184.596 248.323 183.576 248.506 182.476 248.506ZM204.538 247.384V248.396H193.912V232.996H204.208V234.008H195.034V240.08H203.24V241.07H195.034V247.384H204.538Z" fill="white"/>
<path d="M90.0896 207.008V205.008C88.985 205.008 88.0896 205.904 88.0896 207.008H90.0896ZM90.0896 213.586H88.0896C88.0896 214.691 88.985 215.586 90.0896 215.586V213.586ZM98.2956 213.586H100.296C100.296 212.482 99.4002 211.586 98.2956 211.586V213.586ZM98.2956 214.598V216.598C99.4002 216.598 100.296 215.703 100.296 214.598H98.2956ZM90.0896 214.598V212.598C88.985 212.598 88.0896 213.494 88.0896 214.598H90.0896ZM90.0896 221.396V223.396C91.1942 223.396 92.0896 222.501 92.0896 221.396H90.0896ZM88.9676 221.396H86.9676C86.9676 222.501 87.863 223.396 88.9676 223.396V221.396ZM88.9676 205.996V203.996C87.863 203.996 86.9676 204.892 86.9676 205.996H88.9676ZM99.2636 205.996H101.264C101.264 204.892 100.368 203.996 99.2636 203.996V205.996ZM99.2636 207.008V209.008C100.368 209.008 101.264 208.113 101.264 207.008H99.2636ZM88.0896 207.008V213.586H92.0896V207.008H88.0896ZM90.0896 215.586H98.2956V211.586H90.0896V215.586ZM96.2956 213.586V214.598H100.296V213.586H96.2956ZM98.2956 212.598H90.0896V216.598H98.2956V212.598ZM88.0896 214.598V221.396H92.0896V214.598H88.0896ZM90.0896 219.396H88.9676V223.396H90.0896V219.396ZM90.9676 221.396V205.996H86.9676V221.396H90.9676ZM88.9676 207.996H99.2636V203.996H88.9676V207.996ZM97.2636 205.996V207.008H101.264V205.996H97.2636ZM99.2636 205.008H90.0896V209.008H99.2636V205.008ZM106.521 219.812L105.069 221.188L105.078 221.198L106.521 219.812ZM104.915 205.996V203.996C103.81 203.996 102.915 204.892 102.915 205.996H104.915ZM106.037 205.996H108.037C108.037 204.892 107.141 203.996 106.037 203.996V205.996ZM107.335 219.064L105.864 220.42L107.335 219.064ZM114.837 219.064L113.366 217.709L114.837 219.064ZM116.135 205.996V203.996C115.03 203.996 114.135 204.892 114.135 205.996H116.135ZM117.257 205.996H119.257C119.257 204.892 118.361 203.996 117.257 203.996V205.996ZM115.629 219.812L114.186 218.426L115.629 219.812ZM111.075 219.506C109.526 219.506 108.582 219.071 107.963 218.426L105.078 221.198C106.629 222.812 108.722 223.506 111.075 223.506V219.506ZM107.972 218.436C107.372 217.804 106.915 216.725 106.915 214.862H102.915C102.915 217.341 103.527 219.562 105.069 221.188L107.972 218.436ZM106.915 214.862V205.996H102.915V214.862H106.915ZM104.915 207.996H106.037V203.996H104.915V207.996ZM104.037 205.996V214.818H108.037V205.996H104.037ZM104.037 214.818C104.037 216.975 104.526 218.968 105.864 220.42L108.805 217.709C108.413 217.283 108.037 216.445 108.037 214.818H104.037ZM105.864 220.42C107.209 221.879 109.065 222.472 111.097 222.472V218.472C109.843 218.472 109.19 218.126 108.805 217.709L105.864 220.42ZM111.097 222.472C113.12 222.472 114.965 221.876 116.307 220.42L113.366 217.709C112.977 218.13 112.329 218.472 111.097 218.472V222.472ZM116.307 220.42C117.645 218.968 118.135 216.975 118.135 214.818H114.135C114.135 216.445 113.758 217.283 113.366 217.709L116.307 220.42ZM118.135 214.818V205.996H114.135V214.818H118.135ZM116.135 207.996H117.257V203.996H116.135V207.996ZM115.257 205.996V214.862H119.257V205.996H115.257ZM115.257 214.862C115.257 216.718 114.795 217.793 114.186 218.426L117.071 221.198C118.633 219.572 119.257 217.348 119.257 214.862H115.257ZM114.186 218.426C113.567 219.071 112.623 219.506 111.075 219.506V223.506C113.427 223.506 115.52 222.812 117.071 221.198L114.186 218.426ZM127.889 207.008H129.889C129.889 205.904 128.994 205.008 127.889 205.008V207.008ZM122.345 207.008H120.345C120.345 208.113 121.24 209.008 122.345 209.008V207.008ZM122.345 205.996V203.996C121.24 203.996 120.345 204.892 120.345 205.996H122.345ZM134.555 205.996H136.555C136.555 204.892 135.66 203.996 134.555 203.996V205.996ZM134.555 207.008V209.008C135.66 209.008 136.555 208.113 136.555 207.008H134.555ZM129.011 207.008V205.008C127.906 205.008 127.011 205.904 127.011 207.008H129.011ZM129.011 221.396V223.396C130.116 223.396 131.011 222.501 131.011 221.396H129.011ZM127.889 221.396H125.889C125.889 222.501 126.784 223.396 127.889 223.396V221.396ZM127.889 205.008H122.345V209.008H127.889V205.008ZM124.345 207.008V205.996H120.345V207.008H124.345ZM122.345 207.996H134.555V203.996H122.345V207.996ZM132.555 205.996V207.008H136.555V205.996H132.555ZM134.555 205.008H129.011V209.008H134.555V205.008ZM127.011 207.008V221.396H131.011V207.008H127.011ZM129.011 219.396H127.889V223.396H129.011V219.396ZM129.889 221.396V207.008H125.889V221.396H129.889ZM141.562 219.812L140.11 221.188L140.119 221.198L141.562 219.812ZM139.956 205.996V203.996C138.851 203.996 137.956 204.892 137.956 205.996H139.956ZM141.078 205.996H143.078C143.078 204.892 142.182 203.996 141.078 203.996V205.996ZM142.376 219.064L140.905 220.42L142.376 219.064ZM149.878 219.064L148.407 217.709L149.878 219.064ZM151.176 205.996V203.996C150.071 203.996 149.176 204.892 149.176 205.996H151.176ZM152.298 205.996H154.298C154.298 204.892 153.402 203.996 152.298 203.996V205.996ZM150.67 219.812L149.227 218.426L150.67 219.812ZM146.116 219.506C144.567 219.506 143.624 219.071 143.004 218.426L140.119 221.198C141.67 222.812 143.763 223.506 146.116 223.506V219.506ZM143.013 218.436C142.413 217.804 141.956 216.725 141.956 214.862H137.956C137.956 217.341 138.568 219.562 140.11 221.188L143.013 218.436ZM141.956 214.862V205.996H137.956V214.862H141.956ZM139.956 207.996H141.078V203.996H139.956V207.996ZM139.078 205.996V214.818H143.078V205.996H139.078ZM139.078 214.818C139.078 216.975 139.567 218.968 140.905 220.42L143.846 217.709C143.454 217.283 143.078 216.445 143.078 214.818H139.078ZM140.905 220.42C142.25 221.879 144.106 222.472 146.138 222.472V218.472C144.884 218.472 144.231 218.126 143.846 217.709L140.905 220.42ZM146.138 222.472C148.161 222.472 150.006 221.876 151.348 220.42L148.407 217.709C148.018 218.13 147.37 218.472 146.138 218.472V222.472ZM151.348 220.42C152.686 218.968 153.176 216.975 153.176 214.818H149.176C149.176 216.445 148.799 217.283 148.407 217.709L151.348 220.42ZM153.176 214.818V205.996H149.176V214.818H153.176ZM151.176 207.996H152.298V203.996H151.176V207.996ZM150.298 205.996V214.862H154.298V205.996H150.298ZM150.298 214.862C150.298 216.718 149.836 217.793 149.227 218.426L152.112 221.198C153.674 219.572 154.298 217.348 154.298 214.862H150.298ZM149.227 218.426C148.608 219.071 147.664 219.506 146.116 219.506V223.506C148.468 223.506 150.561 222.812 152.112 221.198L149.227 218.426ZM170.425 221.396L168.797 222.558C169.172 223.084 169.779 223.396 170.425 223.396V221.396ZM166.751 216.248L168.379 215.086C167.948 214.482 167.218 214.167 166.483 214.266L166.751 216.248ZM160.855 216.358V214.358C159.75 214.358 158.855 215.254 158.855 216.358H160.855ZM160.855 221.396V223.396C161.959 223.396 162.855 222.501 162.855 221.396H160.855ZM159.733 221.396H157.733C157.733 222.501 158.628 223.396 159.733 223.396V221.396ZM159.733 205.996V203.996C158.628 203.996 157.733 204.892 157.733 205.996H159.733ZM169.809 207.382L168.522 208.914C168.526 208.917 168.53 208.92 168.535 208.924L169.809 207.382ZM170.513 214.268L168.916 213.064L168.913 213.068L170.513 214.268ZM167.851 216.006L167.292 214.086C166.669 214.267 166.173 214.739 165.961 215.351C165.749 215.964 165.847 216.641 166.223 217.169L167.851 216.006ZM171.701 221.396V223.396C172.45 223.396 173.136 222.977 173.479 222.311C173.822 221.645 173.764 220.843 173.328 220.234L171.701 221.396ZM169.017 214.29L170.295 215.829C170.3 215.824 170.305 215.82 170.31 215.816L169.017 214.29ZM169.017 208.108L167.724 209.634C167.729 209.638 167.734 209.642 167.739 209.647L169.017 208.108ZM160.855 207.008V205.008C159.75 205.008 158.855 205.904 158.855 207.008H160.855ZM160.855 215.368H158.855C158.855 216.473 159.75 217.368 160.855 217.368V215.368ZM172.053 220.234L168.379 215.086L165.123 217.41L168.797 222.558L172.053 220.234ZM166.483 214.266C166.012 214.33 165.604 214.358 165.255 214.358V218.358C165.815 218.358 166.405 218.313 167.019 218.23L166.483 214.266ZM165.255 214.358H160.855V218.358H165.255V214.358ZM158.855 216.358V221.396H162.855V216.358H158.855ZM160.855 219.396H159.733V223.396H160.855V219.396ZM161.733 221.396V205.996H157.733V221.396H161.733ZM159.733 207.996H165.255V203.996H159.733V207.996ZM165.255 207.996C166.884 207.996 167.891 208.383 168.522 208.914L171.095 205.851C169.527 204.533 167.497 203.996 165.255 203.996V207.996ZM168.535 208.924C169.107 209.397 169.459 210.062 169.459 211.188H173.459C173.459 209.058 172.711 207.186 171.083 205.841L168.535 208.924ZM169.459 211.188C169.459 212.044 169.244 212.629 168.916 213.064L172.109 215.473C173.043 214.235 173.459 212.767 173.459 211.188H169.459ZM168.913 213.068C168.6 213.485 168.11 213.848 167.292 214.086L168.41 217.926C169.909 217.49 171.193 216.694 172.113 215.468L168.913 213.068ZM166.223 217.169L170.073 222.559L173.328 220.234L169.478 214.844L166.223 217.169ZM171.701 219.396H170.425V223.396H171.701V219.396ZM165.255 217.368C167.155 217.368 168.937 216.956 170.295 215.829L167.739 212.752C167.366 213.061 166.64 213.368 165.255 213.368V217.368ZM170.31 215.816C171.704 214.634 172.315 212.996 172.315 211.188H168.315C168.315 212.05 168.06 212.48 167.724 212.764L170.31 215.816ZM172.315 211.188C172.315 209.382 171.704 207.74 170.295 206.57L167.739 209.647C168.06 209.913 168.315 210.325 168.315 211.188H172.315ZM170.31 206.582C168.951 205.431 167.163 205.008 165.255 205.008V209.008C166.632 209.008 167.352 209.319 167.724 209.634L170.31 206.582ZM165.255 205.008H160.855V209.008H165.255V205.008ZM158.855 207.008V215.368H162.855V207.008H158.855ZM160.855 217.368H165.255V213.368H160.855V217.368ZM180.209 220.494L179.223 222.234C179.229 222.237 179.234 222.24 179.239 222.243L180.209 220.494ZM177.327 217.678L175.597 218.682C175.6 218.687 175.603 218.692 175.606 218.698L177.327 217.678ZM177.327 209.714L175.606 208.695C175.603 208.7 175.6 208.705 175.597 208.71L177.327 209.714ZM180.209 206.92L181.178 208.669C181.184 208.666 181.189 208.663 181.194 208.66L180.209 206.92ZM191.253 209.692L189.523 210.696C189.526 210.701 189.529 210.706 189.532 210.712L191.253 209.692ZM191.253 217.7L189.532 216.681C189.529 216.686 189.526 216.691 189.523 216.696L191.253 217.7ZM188.393 220.494L189.362 222.243L188.393 220.494ZM187.799 219.592L186.817 217.85L187.799 219.592ZM190.263 217.172L191.989 218.183L191.995 218.172L190.263 217.172ZM190.263 210.242L188.531 211.242L188.537 211.253L190.263 210.242ZM187.799 207.8L186.817 209.543L187.799 207.8ZM180.781 207.8L179.81 206.052L179.799 206.058L180.781 207.8ZM178.317 210.242L180.043 211.253L180.049 211.242L178.317 210.242ZM178.317 217.172L176.585 218.172L176.591 218.183L178.317 217.172ZM180.781 219.592L179.799 221.335L179.81 221.34L180.781 219.592ZM184.301 219.506C183.1 219.506 182.074 219.241 181.178 218.745L179.239 222.243C180.778 223.096 182.481 223.506 184.301 223.506V219.506ZM181.194 218.754C180.277 218.234 179.571 217.542 179.047 216.659L175.606 218.698C176.491 220.19 177.706 221.375 179.223 222.234L181.194 218.754ZM179.057 216.674C178.556 215.812 178.293 214.835 178.293 213.696H174.293C174.293 215.491 174.719 217.168 175.597 218.682L179.057 216.674ZM178.293 213.696C178.293 212.557 178.556 211.58 179.057 210.718L175.597 208.71C174.719 210.224 174.293 211.902 174.293 213.696H178.293ZM179.047 210.734C179.569 209.854 180.269 209.173 181.178 208.669L179.239 205.171C177.714 206.016 176.493 207.198 175.606 208.695L179.047 210.734ZM181.194 208.66C182.087 208.155 183.107 207.886 184.301 207.886V203.886C182.473 203.886 180.765 204.307 179.223 205.18L181.194 208.66ZM184.301 207.886C185.502 207.886 186.528 208.151 187.423 208.647L189.362 205.149C187.823 204.296 186.121 203.886 184.301 203.886V207.886ZM187.423 208.647C188.329 209.149 189.018 209.825 189.523 210.696L192.983 208.688C192.109 207.183 190.891 205.996 189.362 205.149L187.423 208.647ZM189.532 210.712C190.04 211.569 190.309 212.547 190.309 213.696H194.309C194.309 211.883 193.874 210.192 192.973 208.673L189.532 210.712ZM190.309 213.696C190.309 214.846 190.04 215.824 189.532 216.681L192.973 218.72C193.874 217.201 194.309 215.509 194.309 213.696H190.309ZM189.523 216.696C189.018 217.567 188.329 218.243 187.423 218.745L189.362 222.243C190.891 221.396 192.109 220.209 192.983 218.704L189.523 216.696ZM187.423 218.745C186.528 219.241 185.502 219.506 184.301 219.506V223.506C186.121 223.506 187.823 223.096 189.362 222.243L187.423 218.745ZM184.301 222.472C185.907 222.472 187.416 222.103 188.78 221.335L186.817 217.85C186.099 218.254 185.276 218.472 184.301 218.472V222.472ZM188.78 221.335C190.129 220.575 191.207 219.516 191.989 218.183L188.537 216.161C188.115 216.881 187.552 217.436 186.817 217.85L188.78 221.335ZM191.995 218.172C192.783 216.808 193.165 215.301 193.165 213.696H189.165C189.165 214.643 188.946 215.453 188.531 216.172L191.995 218.172ZM193.165 213.696C193.165 212.091 192.782 210.587 191.989 209.231L188.537 211.253C188.946 211.951 189.165 212.749 189.165 213.696H193.165ZM191.995 209.242C191.215 207.892 190.136 206.821 188.78 206.058L186.817 209.543C187.544 209.952 188.107 210.509 188.531 211.242L191.995 209.242ZM188.78 206.058C187.416 205.289 185.907 204.92 184.301 204.92V208.92C185.276 208.92 186.099 209.138 186.817 209.543L188.78 206.058ZM184.301 204.92C182.694 204.92 181.183 205.289 179.81 206.052L181.752 209.548C182.491 209.138 183.326 208.92 184.301 208.92V204.92ZM179.799 206.058C178.444 206.821 177.364 207.892 176.585 209.242L180.049 211.242C180.472 210.509 181.035 209.952 181.762 209.543L179.799 206.058ZM176.591 209.231C175.797 210.587 175.415 212.091 175.415 213.696H179.415C179.415 212.749 179.634 211.951 180.043 211.253L176.591 209.231ZM175.415 213.696C175.415 215.301 175.797 216.808 176.585 218.172L180.049 216.172C179.634 215.453 179.415 214.643 179.415 213.696H175.415ZM176.591 218.183C177.372 219.516 178.451 220.575 179.799 221.335L181.762 217.85C181.028 217.436 180.464 216.881 180.043 216.161L176.591 218.183ZM179.81 221.34C181.183 222.103 182.694 222.472 184.301 222.472V218.472C183.326 218.472 182.491 218.254 181.752 217.844L179.81 221.34ZM79.5529 247.934L78.8241 249.797C78.8349 249.801 78.8457 249.805 78.8565 249.809L79.5529 247.934ZM77.1769 246.416L75.4659 245.381C75.0034 246.145 75.1036 247.123 75.7113 247.777L77.1769 246.416ZM77.6829 245.58L79.1338 244.204C78.7045 243.751 78.0887 243.525 77.4685 243.592C76.8483 243.659 76.2949 244.011 75.9719 244.545L77.6829 245.58ZM79.8609 246.988L79.1129 248.843C79.1249 248.848 79.1369 248.853 79.1489 248.857L79.8609 246.988ZM86.0869 246.68L87.2818 248.284L86.0869 246.68ZM86.6149 242.852L85.1752 244.24L86.6149 242.852ZM85.1409 241.906L85.8431 240.033L85.1409 241.906ZM82.7649 241.224L82.2857 243.166C82.2928 243.168 82.2998 243.169 82.3068 243.171L82.7649 241.224ZM80.0369 240.41L79.3081 242.273C79.3126 242.274 79.3171 242.276 79.3216 242.278L80.0369 240.41ZM78.2989 239.2L76.7691 240.488C76.7813 240.503 76.7937 240.517 76.8063 240.531L78.2989 239.2ZM78.1889 234.932L79.8712 236.014C79.8751 236.008 79.8789 236.002 79.8827 235.996L78.1889 234.932ZM79.9929 233.436L79.1776 231.61L79.1653 231.615L79.9929 233.436ZM85.5589 233.26L84.9779 235.174L85.5589 233.26ZM87.6929 234.272L89.5075 235.113C89.9133 234.237 89.6358 233.197 88.8478 232.639L87.6929 234.272ZM87.2749 235.174L86.1385 236.82C86.6238 237.155 87.2322 237.259 87.8012 237.104C88.3701 236.948 88.8416 236.55 89.0895 236.015L87.2749 235.174ZM85.2289 234.206L84.6542 236.122L84.6646 236.125L85.2289 234.206ZM79.8169 234.734L78.5868 233.157L79.8169 234.734ZM79.3109 238.606L77.8712 239.994L79.3109 238.606ZM80.7849 239.552L80.0826 241.425L80.7849 239.552ZM83.1829 240.256L83.662 238.314H83.6613L83.1829 240.256ZM85.8889 241.07L85.1601 242.933L85.8889 241.07ZM87.6049 242.28L86.0922 243.588C86.1048 243.603 86.1176 243.617 86.1306 243.632L87.6049 242.28ZM87.7149 246.482L86.0508 245.373C86.0446 245.382 86.0385 245.391 86.0325 245.401L87.7149 246.482ZM85.8669 247.956L85.0636 246.125L85.8669 247.956ZM82.7869 246.506C81.8877 246.506 81.0461 246.355 80.2493 246.059L78.8565 249.809C80.113 250.276 81.4274 250.506 82.7869 250.506V246.506ZM80.2817 246.072C79.4708 245.754 78.9589 245.396 78.6425 245.055L75.7113 247.777C76.5389 248.668 77.6109 249.322 78.8241 249.797L80.2817 246.072ZM78.8879 247.452L79.3939 246.616L75.9719 244.545L75.4659 245.381L78.8879 247.452ZM76.232 246.957C77.0139 247.781 78.0007 248.395 79.1129 248.843L80.6088 245.133C79.9024 244.848 79.4372 244.523 79.1338 244.204L76.232 246.957ZM79.1489 248.857C80.3057 249.298 81.5154 249.516 82.7649 249.516V245.516C81.9904 245.516 81.2641 245.382 80.5729 245.119L79.1489 248.857ZM82.7649 249.516C84.4325 249.516 86.0412 249.208 87.2818 248.284L84.8919 245.076C84.6365 245.267 84.0306 245.516 82.7649 245.516V249.516ZM87.2818 248.284C88.5111 247.368 89.2089 246.059 89.2089 244.502H85.2089C85.2089 244.734 85.1587 244.878 84.8919 245.076L87.2818 248.284ZM89.2089 244.502C89.2089 243.41 88.8824 242.322 88.0546 241.464L85.1752 244.24C85.1763 244.242 85.1751 244.24 85.1737 244.238C85.1723 244.236 85.1745 244.239 85.1786 244.25C85.1868 244.273 85.2089 244.348 85.2089 244.502H89.2089ZM88.0546 241.464C87.4323 240.818 86.6809 240.348 85.8431 240.033L84.4386 243.779C84.7742 243.905 85.0055 244.064 85.1752 244.24L88.0546 241.464ZM85.8431 240.033C85.1428 239.771 84.2583 239.521 83.223 239.277L82.3068 243.171C83.2662 243.397 83.9656 243.601 84.4386 243.779L85.8431 240.033ZM83.244 239.282C82.1549 239.014 81.3337 238.765 80.7522 238.542L79.3216 242.278C80.1188 242.583 81.1162 242.877 82.2857 243.166L83.244 239.282ZM80.7657 238.548C80.385 238.399 80.067 238.178 79.7915 237.869L76.8063 240.531C77.4988 241.308 78.3395 241.894 79.3081 242.273L80.7657 238.548ZM79.8287 237.912C79.7372 237.803 79.5949 237.56 79.5949 236.978H75.5949C75.5949 238.244 75.9219 239.482 76.7691 240.488L79.8287 237.912ZM79.5949 236.978C79.5949 236.605 79.6873 236.3 79.8712 236.014L76.5065 233.851C75.8985 234.796 75.5949 235.855 75.5949 236.978H79.5949ZM79.8827 235.996C80.0335 235.755 80.3016 235.493 80.8205 235.257L79.1653 231.615C78.0708 232.113 77.1363 232.847 76.4951 233.869L79.8827 235.996ZM80.8082 235.262C81.2993 235.043 82.0208 234.886 83.0509 234.886V230.886C81.6463 230.886 80.3291 231.096 79.1776 231.61L80.8082 235.262ZM83.0509 234.886C83.7029 234.886 84.3432 234.981 84.9779 235.174L86.1398 231.346C85.1319 231.04 84.1002 230.886 83.0509 230.886V234.886ZM84.9779 235.174C85.6273 235.371 86.1379 235.622 86.538 235.905L88.8478 232.639C88.0452 232.072 87.1332 231.648 86.1398 231.346L84.9779 235.174ZM85.8783 233.431L85.4603 234.333L89.0895 236.015L89.5075 235.113L85.8783 233.431ZM88.4113 233.528C87.6131 232.977 86.7366 232.565 85.7932 232.287L84.6646 236.125C85.2171 236.287 85.7047 236.52 86.1385 236.82L88.4113 233.528ZM85.8036 232.29C84.896 232.018 83.9765 231.876 83.0509 231.876V235.876C83.5626 235.876 84.0951 235.954 84.6542 236.122L85.8036 232.29ZM83.0509 231.876C81.4062 231.876 79.8146 232.199 78.5868 233.157L81.0469 236.311C81.2859 236.125 81.8502 235.876 83.0509 235.876V231.876ZM78.5868 233.157C77.3805 234.098 76.7169 235.414 76.7169 236.956H80.7169C80.7169 236.679 80.7866 236.514 81.047 236.311L78.5868 233.157ZM76.7169 236.956C76.7169 238.049 77.0434 239.136 77.8712 239.994L80.7506 237.218C80.7494 237.217 80.7507 237.218 80.7521 237.22C80.7534 237.222 80.7512 237.22 80.7472 237.208C80.739 237.186 80.7169 237.11 80.7169 236.956H76.7169ZM77.8712 239.994C78.4935 240.64 79.2449 241.111 80.0826 241.425L81.4871 237.679C81.1515 237.554 80.9203 237.394 80.7506 237.218L77.8712 239.994ZM80.0826 241.425C80.7745 241.684 81.6592 241.941 82.7044 242.198L83.6613 238.314C82.6826 238.073 81.9686 237.86 81.4871 237.679L80.0826 241.425ZM82.7038 242.198C83.7924 242.467 84.6004 242.714 85.1601 242.933L86.6177 239.208C85.8281 238.899 84.8321 238.603 83.662 238.314L82.7038 242.198ZM85.1601 242.933C85.5354 243.079 85.8374 243.294 86.0922 243.588L89.1176 240.972C88.4337 240.181 87.5917 239.589 86.6177 239.208L85.1601 242.933ZM86.1306 243.632C86.1925 243.699 86.3309 243.887 86.3309 244.436H90.3309C90.3309 243.166 89.9852 241.917 89.0792 240.929L86.1306 243.632ZM86.3309 244.436C86.3309 244.794 86.24 245.089 86.0508 245.373L89.379 247.592C90.0111 246.643 90.3309 245.575 90.3309 244.436H86.3309ZM86.0325 245.401C85.8965 245.612 85.6282 245.877 85.0636 246.125L86.6702 249.788C87.7776 249.302 88.7413 248.584 89.3972 247.564L86.0325 245.401ZM85.0636 246.125C84.5502 246.35 83.8151 246.506 82.7869 246.506V250.506C84.1933 250.506 85.5116 250.296 86.6702 249.788L85.0636 246.125ZM104.971 247.384H106.971C106.971 246.28 106.076 245.384 104.971 245.384V247.384ZM104.971 248.396V250.396C106.076 250.396 106.971 249.501 106.971 248.396H104.971ZM94.3451 248.396H92.3451C92.3451 249.501 93.2406 250.396 94.3451 250.396V248.396ZM94.3451 232.996V230.996C93.2406 230.996 92.3451 231.892 92.3451 232.996H94.3451ZM104.641 232.996H106.641C106.641 231.892 105.746 230.996 104.641 230.996V232.996ZM104.641 234.008V236.008C105.746 236.008 106.641 235.113 106.641 234.008H104.641ZM95.4671 234.008V232.008C94.3626 232.008 93.4671 232.904 93.4671 234.008H95.4671ZM95.4671 240.08H93.4671C93.4671 241.185 94.3626 242.08 95.4671 242.08V240.08ZM103.673 240.08H105.673C105.673 238.976 104.778 238.08 103.673 238.08V240.08ZM103.673 241.07V243.07C104.778 243.07 105.673 242.175 105.673 241.07H103.673ZM95.4671 241.07V239.07C94.3626 239.07 93.4671 239.966 93.4671 241.07H95.4671ZM95.4671 247.384H93.4671C93.4671 248.489 94.3626 249.384 95.4671 249.384V247.384ZM102.971 247.384V248.396H106.971V247.384H102.971ZM104.971 246.396H94.3451V250.396H104.971V246.396ZM96.3451 248.396V232.996H92.3451V248.396H96.3451ZM94.3451 234.996H104.641V230.996H94.3451V234.996ZM102.641 232.996V234.008H106.641V232.996H102.641ZM104.641 232.008H95.4671V236.008H104.641V232.008ZM93.4671 234.008V240.08H97.4671V234.008H93.4671ZM95.4671 242.08H103.673V238.08H95.4671V242.08ZM101.673 240.08V241.07H105.673V240.08H101.673ZM103.673 239.07H95.4671V243.07H103.673V239.07ZM93.4671 241.07V247.384H97.4671V241.07H93.4671ZM95.4671 249.384H104.971V245.384H95.4671V249.384ZM125.826 248.396L123.826 248.399C123.828 249.503 124.723 250.396 125.826 250.396V248.396ZM125.804 235.218L127.804 235.215C127.802 234.311 127.195 233.52 126.321 233.286C125.448 233.052 124.526 233.433 124.073 234.216L125.804 235.218ZM119.358 246.35V248.35C120.072 248.35 120.731 247.97 121.089 247.352L119.358 246.35ZM118.808 246.35L117.079 247.355C117.437 247.971 118.096 248.35 118.808 248.35V246.35ZM112.362 235.262L114.091 234.257C113.637 233.475 112.714 233.096 111.841 233.331C110.968 233.566 110.362 234.358 110.362 235.262H112.362ZM112.362 248.396V250.396C113.467 250.396 114.362 249.501 114.362 248.396H112.362ZM111.262 248.396H109.262C109.262 249.501 110.157 250.396 111.262 250.396V248.396ZM111.262 232.996V230.996C110.157 230.996 109.262 231.892 109.262 232.996H111.262ZM112.208 232.996L113.939 231.995C113.582 231.377 112.922 230.996 112.208 230.996V232.996ZM119.094 244.898L117.363 245.9C117.72 246.518 118.38 246.898 119.094 246.898C119.808 246.898 120.468 246.518 120.825 245.9L119.094 244.898ZM125.98 232.996V230.996C125.266 230.996 124.606 231.377 124.249 231.995L125.98 232.996ZM126.904 232.996L128.904 232.993C128.902 231.89 128.007 230.996 126.904 230.996V232.996ZM126.926 248.396V250.396C127.457 250.396 127.966 250.185 128.341 249.809C128.716 249.434 128.927 248.924 128.926 248.393L126.926 248.396ZM127.826 248.393L127.804 235.215L123.804 235.221L123.826 248.399L127.826 248.393ZM124.073 234.216L117.627 245.348L121.089 247.352L127.535 236.22L124.073 234.216ZM119.358 244.35H118.808V248.35H119.358V244.35ZM120.537 245.345L114.091 234.257L110.633 236.267L117.079 247.355L120.537 245.345ZM110.362 235.262V248.396H114.362V235.262H110.362ZM112.362 246.396H111.262V250.396H112.362V246.396ZM113.262 248.396V232.996H109.262V248.396H113.262ZM111.262 234.996H112.208V230.996H111.262V234.996ZM110.477 233.998L117.363 245.9L120.825 243.897L113.939 231.995L110.477 233.998ZM120.825 245.9L127.711 233.998L124.249 231.995L117.363 243.897L120.825 245.9ZM125.98 234.996H126.904V230.996H125.98V234.996ZM124.904 232.999L124.926 248.399L128.926 248.393L128.904 232.993L124.904 232.999ZM126.926 246.396H125.826V250.396H126.926V246.396ZM144.571 234.382L143.285 235.914C143.289 235.917 143.293 235.92 143.297 235.924L144.571 234.382ZM144.571 241.994L145.845 243.536C145.849 243.532 145.854 243.529 145.858 243.526L144.571 241.994ZM135.617 243.358V241.358C134.513 241.358 133.617 242.254 133.617 243.358H135.617ZM135.617 248.396V250.396C136.722 250.396 137.617 249.501 137.617 248.396H135.617ZM134.495 248.396H132.495C132.495 249.501 133.391 250.396 134.495 250.396V248.396ZM134.495 232.996V230.996C133.391 230.996 132.495 231.892 132.495 232.996H134.495ZM143.779 241.268L145.057 242.807L143.779 241.268ZM143.779 235.108L142.486 236.634C142.491 236.638 142.496 236.642 142.501 236.647L143.779 235.108ZM135.617 234.008V232.008C134.513 232.008 133.617 232.904 133.617 234.008H135.617ZM135.617 242.346H133.617C133.617 243.451 134.513 244.346 135.617 244.346V242.346ZM140.017 234.996C141.647 234.996 142.653 235.383 143.285 235.914L145.858 232.851C144.289 231.533 142.26 230.996 140.017 230.996V234.996ZM143.297 235.924C143.869 236.397 144.221 237.062 144.221 238.188H148.221C148.221 236.058 147.473 234.186 145.845 232.841L143.297 235.924ZM144.221 238.188C144.221 239.292 143.873 239.968 143.285 240.463L145.858 243.526C147.469 242.172 148.221 240.311 148.221 238.188H144.221ZM143.297 240.453C142.665 240.975 141.654 241.358 140.017 241.358V245.358C142.253 245.358 144.277 244.832 145.845 243.536L143.297 240.453ZM140.017 241.358H135.617V245.358H140.017V241.358ZM133.617 243.358V248.396H137.617V243.358H133.617ZM135.617 246.396H134.495V250.396H135.617V246.396ZM136.495 248.396V232.996H132.495V248.396H136.495ZM134.495 234.996H140.017V230.996H134.495V234.996ZM140.017 244.346C141.918 244.346 143.699 243.934 145.057 242.807L142.501 239.73C142.128 240.039 141.402 240.346 140.017 240.346V244.346ZM145.057 242.807C146.467 241.636 147.077 239.995 147.077 238.188H143.077C143.077 239.051 142.822 239.463 142.501 239.73L145.057 242.807ZM147.077 238.188C147.077 236.382 146.467 234.74 145.057 233.57L142.501 236.647C142.822 236.913 143.077 237.325 143.077 238.188H147.077ZM145.072 233.582C143.714 232.431 141.926 232.008 140.017 232.008V236.008C141.394 236.008 142.114 236.319 142.486 236.634L145.072 233.582ZM140.017 232.008H135.617V236.008H140.017V232.008ZM133.617 234.008V242.346H137.617V234.008H133.617ZM135.617 244.346H140.017V240.346H135.617V244.346ZM152.207 232.996V230.996C151.102 230.996 150.207 231.892 150.207 232.996H152.207ZM153.329 232.996H155.329C155.329 231.892 154.433 230.996 153.329 230.996V232.996ZM153.329 247.384H151.329C151.329 248.489 152.224 249.384 153.329 249.384V247.384ZM162.195 247.384H164.195C164.195 246.28 163.299 245.384 162.195 245.384V247.384ZM162.195 248.396V250.396C163.299 250.396 164.195 249.501 164.195 248.396H162.195ZM152.207 248.396H150.207C150.207 249.501 151.102 250.396 152.207 250.396V248.396ZM152.207 234.996H153.329V230.996H152.207V234.996ZM151.329 232.996V247.384H155.329V232.996H151.329ZM153.329 249.384H162.195V245.384H153.329V249.384ZM160.195 247.384V248.396H164.195V247.384H160.195ZM162.195 246.396H152.207V250.396H162.195V246.396ZM154.207 248.396V232.996H150.207V248.396H154.207ZM167.276 232.996V230.996C166.171 230.996 165.276 231.892 165.276 232.996H167.276ZM168.398 232.996H170.398C170.398 231.892 169.503 230.996 168.398 230.996V232.996ZM168.398 248.396V250.396C169.503 250.396 170.398 249.501 170.398 248.396H168.398ZM167.276 248.396H165.276C165.276 249.501 166.171 250.396 167.276 250.396V248.396ZM167.276 234.996H168.398V230.996H167.276V234.996ZM166.398 232.996V248.396H170.398V232.996H166.398ZM168.398 246.396H167.276V250.396H168.398V246.396ZM169.276 248.396V232.996H165.276V248.396H169.276ZM178.384 247.494L177.406 249.238L177.415 249.243L178.384 247.494ZM175.524 244.7L173.794 245.704C173.797 245.709 173.801 245.714 173.804 245.72L175.524 244.7ZM175.524 236.692L173.804 235.673C173.801 235.678 173.797 235.683 173.794 235.688L175.524 236.692ZM178.384 233.898L177.415 232.149L177.406 232.154L178.384 233.898ZM185.556 233.436L184.829 235.299C184.837 235.302 184.846 235.306 184.854 235.309L185.556 233.436ZM187.954 235.02L189.39 236.412C190.133 235.646 190.143 234.431 189.413 233.652L187.954 235.02ZM187.25 235.746L185.845 237.169C186.224 237.544 186.738 237.752 187.272 237.746C187.805 237.74 188.315 237.522 188.686 237.138L187.25 235.746ZM179 234.8L179.972 236.548L179 234.8ZM176.514 237.242L178.24 238.253L178.246 238.242L176.514 237.242ZM176.514 244.172L174.782 245.172L174.789 245.183L176.514 244.172ZM179 246.592L179.972 244.844L179 246.592ZM187.25 245.624L188.686 244.232C188.315 243.849 187.805 243.63 187.272 243.624C186.738 243.619 186.224 243.826 185.844 244.202L187.25 245.624ZM187.954 246.35L189.413 247.718C190.143 246.939 190.133 245.724 189.39 244.958L187.954 246.35ZM185.534 247.956L184.816 246.089L184.807 246.093L185.534 247.956ZM182.476 246.506C181.275 246.506 180.249 246.241 179.354 245.745L177.415 249.243C178.954 250.096 180.656 250.506 182.476 250.506V246.506ZM179.363 245.75C178.467 245.248 177.77 244.566 177.245 243.681L173.804 245.72C174.687 247.21 175.896 248.391 177.406 249.238L179.363 245.75ZM177.254 243.696C176.756 242.837 176.49 241.854 176.49 240.696H172.49C172.49 242.501 172.914 244.187 173.794 245.704L177.254 243.696ZM176.49 240.696C176.49 239.539 176.756 238.555 177.254 237.696L173.794 235.688C172.914 237.205 172.49 238.891 172.49 240.696H176.49ZM177.245 237.712C177.77 236.826 178.467 236.145 179.363 235.642L177.406 232.154C175.896 233.001 174.687 234.182 173.804 235.673L177.245 237.712ZM179.354 235.647C180.249 235.151 181.275 234.886 182.476 234.886V230.886C180.656 230.886 178.954 231.296 177.415 232.149L179.354 235.647ZM182.476 234.886C183.368 234.886 184.145 235.032 184.829 235.299L186.284 231.573C185.09 231.107 183.814 230.886 182.476 230.886V234.886ZM184.854 235.309C185.517 235.557 186.054 235.917 186.495 236.388L189.413 233.652C188.535 232.715 187.473 232.019 186.259 231.563L184.854 235.309ZM186.518 233.628L185.814 234.354L188.686 237.138L189.39 236.412L186.518 233.628ZM188.656 234.323C187.007 232.694 184.905 231.92 182.52 231.92V235.92C183.978 235.92 185.029 236.363 185.845 237.169L188.656 234.323ZM182.52 231.92C180.914 231.92 179.402 232.289 178.029 233.052L179.972 236.548C180.71 236.138 181.545 235.92 182.52 235.92V231.92ZM178.029 233.052C176.658 233.814 175.566 234.885 174.782 236.242L178.246 238.242C178.666 237.516 179.231 236.96 179.972 236.548L178.029 233.052ZM174.789 236.231C173.995 237.587 173.612 239.091 173.612 240.696H177.612C177.612 239.749 177.831 238.951 178.24 238.253L174.789 236.231ZM173.612 240.696C173.612 242.301 173.995 243.808 174.782 245.172L178.246 243.172C177.831 242.453 177.612 241.643 177.612 240.696H173.612ZM174.789 245.183C175.574 246.523 176.665 247.583 178.029 248.34L179.972 244.844C179.223 244.428 178.658 243.874 178.24 243.161L174.789 245.183ZM178.029 248.34C179.402 249.103 180.914 249.472 182.52 249.472V245.472C181.545 245.472 180.71 245.254 179.972 244.844L178.029 248.34ZM182.52 249.472C184.902 249.472 187 248.683 188.656 247.047L185.844 244.202C185.007 245.029 183.951 245.472 182.52 245.472V249.472ZM185.814 247.016L186.518 247.742L189.39 244.958L188.686 244.232L185.814 247.016ZM186.495 244.982C186.053 245.453 185.505 245.825 184.816 246.089L186.252 249.823C187.47 249.354 188.535 248.655 189.413 247.718L186.495 244.982ZM184.807 246.093C184.12 246.361 183.35 246.506 182.476 246.506V250.506C183.802 250.506 185.071 250.284 186.262 249.819L184.807 246.093ZM204.538 247.384H206.538C206.538 246.28 205.643 245.384 204.538 245.384V247.384ZM204.538 248.396V250.396C205.643 250.396 206.538 249.501 206.538 248.396H204.538ZM193.912 248.396H191.912C191.912 249.501 192.808 250.396 193.912 250.396V248.396ZM193.912 232.996V230.996C192.808 230.996 191.912 231.892 191.912 232.996H193.912ZM204.208 232.996H206.208C206.208 231.892 205.313 230.996 204.208 230.996V232.996ZM204.208 234.008V236.008C205.313 236.008 206.208 235.113 206.208 234.008H204.208ZM195.034 234.008V232.008C193.93 232.008 193.034 232.904 193.034 234.008H195.034ZM195.034 240.08H193.034C193.034 241.185 193.93 242.08 195.034 242.08V240.08ZM203.24 240.08H205.24C205.24 238.976 204.345 238.08 203.24 238.08V240.08ZM203.24 241.07V243.07C204.345 243.07 205.24 242.175 205.24 241.07H203.24ZM195.034 241.07V239.07C193.93 239.07 193.034 239.966 193.034 241.07H195.034ZM195.034 247.384H193.034C193.034 248.489 193.93 249.384 195.034 249.384V247.384ZM202.538 247.384V248.396H206.538V247.384H202.538ZM204.538 246.396H193.912V250.396H204.538V246.396ZM195.912 248.396V232.996H191.912V248.396H195.912ZM193.912 234.996H204.208V230.996H193.912V234.996ZM202.208 232.996V234.008H206.208V232.996H202.208ZM204.208 232.008H195.034V236.008H204.208V232.008ZM193.034 234.008V240.08H197.034V234.008H193.034ZM195.034 242.08H203.24V238.08H195.034V242.08ZM201.24 240.08V241.07H205.24V240.08H201.24ZM203.24 239.07H195.034V243.07H203.24V239.07ZM193.034 241.07V247.384H197.034V241.07H193.034ZM195.034 249.384H204.538V245.384H195.034V249.384Z" fill="white"/>
<g style="mix-blend-mode:soft-light">
<path d="M58 192.38H226" stroke="white"/>
</g>
<mask id="mask0_159_68" style="mask-type:alpha" maskUnits="userSpaceOnUse" x="59" y="125" width="168" height="56">
<path d="M64.768 130.8V140.7H77.8V143.004H64.768V153.696H62.104V128.496H79.384V130.8H64.768ZM98.6373 153.912C95.3733 153.912 92.8293 152.976 91.0053 151.104C89.1813 149.232 88.2693 146.508 88.2693 142.932V128.496H90.9333V142.824C90.9333 145.752 91.5933 147.936 92.9133 149.376C94.2333 150.816 96.1413 151.536 98.6373 151.536C101.157 151.536 103.077 150.816 104.397 149.376C105.717 147.936 106.377 145.752 106.377 142.824V128.496H108.969V142.932C108.969 146.508 108.057 149.232 106.233 151.104C104.433 152.976 101.901 153.912 98.6373 153.912ZM125.001 130.8H116.145V128.496H136.521V130.8H127.665V153.696H125.001V130.8ZM154.036 153.912C150.772 153.912 148.228 152.976 146.404 151.104C144.58 149.232 143.668 146.508 143.668 142.932V128.496H146.332V142.824C146.332 145.752 146.992 147.936 148.312 149.376C149.632 150.816 151.54 151.536 154.036 151.536C156.556 151.536 158.476 150.816 159.796 149.376C161.116 147.936 161.776 145.752 161.776 142.824V128.496H164.368V142.932C164.368 146.508 163.456 149.232 161.632 151.104C159.832 152.976 157.3 153.912 154.036 153.912ZM193.204 153.696L187.444 145.596C186.796 145.668 186.124 145.704 185.428 145.704H178.66V153.696H175.996V128.496H185.428C188.644 128.496 191.164 129.264 192.988 130.8C194.812 132.336 195.724 134.448 195.724 137.136C195.724 139.104 195.22 140.772 194.212 142.14C193.228 143.484 191.812 144.456 189.964 145.056L196.12 153.696H193.204ZM185.356 143.436C187.852 143.436 189.76 142.884 191.08 141.78C192.4 140.676 193.06 139.128 193.06 137.136C193.06 135.096 192.4 133.536 191.08 132.456C189.76 131.352 187.852 130.8 185.356 130.8H178.66V143.436H185.356ZM223.432 151.392V153.696H205.612V128.496H222.892V130.8H208.276V139.764H221.308V142.032H208.276V151.392H223.432Z" fill="white"/>
<path d="M64.768 130.8V127.8C63.1111 127.8 61.768 129.143 61.768 130.8H64.768ZM64.768 140.7H61.768C61.768 142.357 63.1111 143.7 64.768 143.7V140.7ZM77.8 140.7H80.8C80.8 139.043 79.4569 137.7 77.8 137.7V140.7ZM77.8 143.004V146.004C79.4569 146.004 80.8 144.661 80.8 143.004H77.8ZM64.768 143.004V140.004C63.1111 140.004 61.768 141.347 61.768 143.004H64.768ZM64.768 153.696V156.696C66.4249 156.696 67.768 155.353 67.768 153.696H64.768ZM62.104 153.696H59.104C59.104 155.353 60.4471 156.696 62.104 156.696V153.696ZM62.104 128.496V125.496C60.4471 125.496 59.104 126.839 59.104 128.496H62.104ZM79.384 128.496H82.384C82.384 126.839 81.0409 125.496 79.384 125.496V128.496ZM79.384 130.8V133.8C81.0409 133.8 82.384 132.457 82.384 130.8H79.384ZM61.768 130.8V140.7H67.768V130.8H61.768ZM64.768 143.7H77.8V137.7H64.768V143.7ZM74.8 140.7V143.004H80.8V140.7H74.8ZM77.8 140.004H64.768V146.004H77.8V140.004ZM61.768 143.004V153.696H67.768V143.004H61.768ZM64.768 150.696H62.104V156.696H64.768V150.696ZM65.104 153.696V128.496H59.104V153.696H65.104ZM62.104 131.496H79.384V125.496H62.104V131.496ZM76.384 128.496V130.8H82.384V128.496H76.384ZM79.384 127.8H64.768V133.8H79.384V127.8ZM91.0053 151.104L93.1539 149.011L91.0053 151.104ZM88.2693 128.496V125.496C86.6124 125.496 85.2693 126.839 85.2693 128.496H88.2693ZM90.9333 128.496H93.9333C93.9333 126.839 92.5901 125.496 90.9333 125.496V128.496ZM104.397 149.376L106.609 151.403L104.397 149.376ZM106.377 128.496V125.496C104.72 125.496 103.377 126.839 103.377 128.496H106.377ZM108.969 128.496H111.969C111.969 126.839 110.626 125.496 108.969 125.496V128.496ZM106.233 151.104L104.085 149.011C104.08 149.015 104.075 149.02 104.071 149.025L106.233 151.104ZM98.6373 150.912C95.9688 150.912 94.2798 150.166 93.1539 149.011L88.8566 153.198C91.3787 155.786 94.7777 156.912 98.6373 156.912V150.912ZM93.1539 149.011C92.0511 147.879 91.2693 146.02 91.2693 142.932H85.2693C85.2693 146.997 86.3114 150.586 88.8566 153.198L93.1539 149.011ZM91.2693 142.932V128.496H85.2693V142.932H91.2693ZM88.2693 131.496H90.9333V125.496H88.2693V131.496ZM87.9333 128.496V142.824H93.9333V128.496H87.9333ZM87.9333 142.824C87.9333 146.137 88.6724 149.19 90.7018 151.403L95.1247 147.349C94.5141 146.683 93.9333 145.367 93.9333 142.824H87.9333ZM90.7018 151.403C92.7385 153.625 95.5487 154.536 98.6373 154.536V148.536C96.7338 148.536 95.728 148.007 95.1247 147.349L90.7018 151.403ZM98.6373 154.536C101.74 154.536 104.567 153.631 106.609 151.403L102.186 147.349C101.588 148.001 100.575 148.536 98.6373 148.536V154.536ZM106.609 151.403C108.638 149.19 109.377 146.137 109.377 142.824H103.377C103.377 145.367 102.796 146.683 102.186 147.349L106.609 151.403ZM109.377 142.824V128.496H103.377V142.824H109.377ZM106.377 131.496H108.969V125.496H106.377V131.496ZM105.969 128.496V142.932H111.969V128.496H105.969ZM105.969 142.932C105.969 146.02 105.187 147.879 104.085 149.011L108.382 153.198C110.927 150.586 111.969 146.997 111.969 142.932H105.969ZM104.071 149.025C102.974 150.166 101.308 150.912 98.6373 150.912V156.912C102.495 156.912 105.893 155.787 108.396 153.184L104.071 149.025ZM125.001 130.8H128.001C128.001 129.143 126.658 127.8 125.001 127.8V130.8ZM116.145 130.8H113.145C113.145 132.457 114.488 133.8 116.145 133.8V130.8ZM116.145 128.496V125.496C114.488 125.496 113.145 126.839 113.145 128.496H116.145ZM136.521 128.496H139.521C139.521 126.839 138.178 125.496 136.521 125.496V128.496ZM136.521 130.8V133.8C138.178 133.8 139.521 132.457 139.521 130.8H136.521ZM127.665 130.8V127.8C126.008 127.8 124.665 129.143 124.665 130.8H127.665ZM127.665 153.696V156.696C129.322 156.696 130.665 155.353 130.665 153.696H127.665ZM125.001 153.696H122.001C122.001 155.353 123.344 156.696 125.001 156.696V153.696ZM125.001 127.8H116.145V133.8H125.001V127.8ZM119.145 130.8V128.496H113.145V130.8H119.145ZM116.145 131.496H136.521V125.496H116.145V131.496ZM133.521 128.496V130.8H139.521V128.496H133.521ZM136.521 127.8H127.665V133.8H136.521V127.8ZM124.665 130.8V153.696H130.665V130.8H124.665ZM127.665 150.696H125.001V156.696H127.665V150.696ZM128.001 153.696V130.8H122.001V153.696H128.001ZM146.404 151.104L148.553 149.011L146.404 151.104ZM143.668 128.496V125.496C142.012 125.496 140.668 126.839 140.668 128.496H143.668ZM146.332 128.496H149.332C149.332 126.839 147.989 125.496 146.332 125.496V128.496ZM159.796 149.376L162.008 151.403L159.796 149.376ZM161.776 128.496V125.496C160.12 125.496 158.776 126.839 158.776 128.496H161.776ZM164.368 128.496H167.368C167.368 126.839 166.025 125.496 164.368 125.496V128.496ZM161.632 151.104L159.484 149.011C159.479 149.015 159.475 149.02 159.47 149.025L161.632 151.104ZM154.036 150.912C151.368 150.912 149.679 150.166 148.553 149.011L144.256 153.198C146.778 155.786 150.177 156.912 154.036 156.912V150.912ZM148.553 149.011C147.45 147.879 146.668 146.02 146.668 142.932H140.668C140.668 146.997 141.711 150.586 144.256 153.198L148.553 149.011ZM146.668 142.932V128.496H140.668V142.932H146.668ZM143.668 131.496H146.332V125.496H143.668V131.496ZM143.332 128.496V142.824H149.332V128.496H143.332ZM143.332 142.824C143.332 146.137 144.072 149.19 146.101 151.403L150.524 147.349C149.913 146.683 149.332 145.367 149.332 142.824H143.332ZM146.101 151.403C148.138 153.625 150.948 154.536 154.036 154.536V148.536C152.133 148.536 151.127 148.007 150.524 147.349L146.101 151.403ZM154.036 154.536C157.139 154.536 159.966 153.631 162.008 151.403L157.585 147.349C156.987 148.001 155.974 148.536 154.036 148.536V154.536ZM162.008 151.403C164.037 149.19 164.776 146.137 164.776 142.824H158.776C158.776 145.367 158.196 146.683 157.585 147.349L162.008 151.403ZM164.776 142.824V128.496H158.776V142.824H164.776ZM161.776 131.496H164.368V125.496H161.776V131.496ZM161.368 128.496V142.932H167.368V128.496H161.368ZM161.368 142.932C161.368 146.02 160.587 147.879 159.484 149.011L163.781 153.198C166.326 150.586 167.368 146.997 167.368 142.932H161.368ZM159.47 149.025C158.373 150.166 156.707 150.912 154.036 150.912V156.912C157.894 156.912 161.292 155.787 163.795 153.184L159.47 149.025ZM193.204 153.696L190.759 155.435C191.322 156.226 192.233 156.696 193.204 156.696V153.696ZM187.444 145.596L189.889 143.858C189.258 142.97 188.195 142.494 187.113 142.615L187.444 145.596ZM178.66 145.704V142.704C177.003 142.704 175.66 144.047 175.66 145.704H178.66ZM178.66 153.696V156.696C180.317 156.696 181.66 155.353 181.66 153.696H178.66ZM175.996 153.696H172.996C172.996 155.353 174.339 156.696 175.996 156.696V153.696ZM175.996 128.496V125.496C174.339 125.496 172.996 126.839 172.996 128.496H175.996ZM192.988 130.8L191.056 133.095L192.988 130.8ZM194.212 142.14L191.797 140.361L191.792 140.368L194.212 142.14ZM189.964 145.056L189.038 142.203C188.129 142.498 187.415 143.208 187.115 144.116C186.816 145.023 186.966 146.019 187.521 146.797L189.964 145.056ZM196.12 153.696V156.696C197.243 156.696 198.272 156.069 198.787 155.071C199.301 154.072 199.215 152.87 198.563 151.955L196.12 153.696ZM191.08 141.78L193.005 144.082L191.08 141.78ZM191.08 132.456L189.156 134.758C189.164 134.764 189.172 134.771 189.18 134.778L191.08 132.456ZM178.66 130.8V127.8C177.003 127.8 175.66 129.143 175.66 130.8H178.66ZM178.66 143.436H175.66C175.66 145.093 177.003 146.436 178.66 146.436V143.436ZM195.649 151.958L189.889 143.858L184.999 147.335L190.759 155.435L195.649 151.958ZM187.113 142.615C186.582 142.674 186.021 142.704 185.428 142.704V148.704C186.228 148.704 187.01 148.663 187.775 148.578L187.113 142.615ZM185.428 142.704H178.66V148.704H185.428V142.704ZM175.66 145.704V153.696H181.66V145.704H175.66ZM178.66 150.696H175.996V156.696H178.66V150.696ZM178.996 153.696V128.496H172.996V153.696H178.996ZM175.996 131.496H185.428V125.496H175.996V131.496ZM185.428 131.496C188.185 131.496 189.936 132.152 191.056 133.095L194.921 128.506C192.393 126.377 189.104 125.496 185.428 125.496V131.496ZM191.056 133.095C192.112 133.984 192.724 135.207 192.724 137.136H198.724C198.724 133.69 197.513 130.688 194.921 128.506L191.056 133.095ZM192.724 137.136C192.724 138.569 192.367 139.587 191.797 140.361L196.627 143.92C198.073 141.958 198.724 139.64 198.724 137.136H192.724ZM191.792 140.368C191.239 141.123 190.39 141.764 189.038 142.203L190.891 147.91C193.235 147.149 195.217 145.846 196.633 143.912L191.792 140.368ZM187.521 146.797L193.677 155.437L198.563 151.955L192.407 143.315L187.521 146.797ZM196.12 150.696H193.204V156.696H196.12V150.696ZM185.356 146.436C188.246 146.436 190.948 145.802 193.005 144.082L189.156 139.479C188.573 139.966 187.458 140.436 185.356 140.436V146.436ZM193.005 144.082C195.118 142.314 196.06 139.861 196.06 137.136H190.06C190.06 138.396 189.683 139.038 189.156 139.479L193.005 144.082ZM196.06 137.136C196.06 134.392 195.135 131.897 192.98 130.134L189.18 134.778C189.666 135.175 190.06 135.801 190.06 137.136H196.06ZM193.005 130.155C190.948 128.434 188.246 127.8 185.356 127.8V133.8C187.458 133.8 188.573 134.27 189.156 134.758L193.005 130.155ZM185.356 127.8H178.66V133.8H185.356V127.8ZM175.66 130.8V143.436H181.66V130.8H175.66ZM178.66 146.436H185.356V140.436H178.66V146.436ZM223.432 151.392H226.432C226.432 149.735 225.089 148.392 223.432 148.392V151.392ZM223.432 153.696V156.696C225.089 156.696 226.432 155.353 226.432 153.696H223.432ZM205.612 153.696H202.612C202.612 155.353 203.955 156.696 205.612 156.696V153.696ZM205.612 128.496V125.496C203.955 125.496 202.612 126.839 202.612 128.496H205.612ZM222.892 128.496H225.892C225.892 126.839 224.549 125.496 222.892 125.496V128.496ZM222.892 130.8V133.8C224.549 133.8 225.892 132.457 225.892 130.8H222.892ZM208.276 130.8V127.8C206.619 127.8 205.276 129.143 205.276 130.8H208.276ZM208.276 139.764H205.276C205.276 141.421 206.619 142.764 208.276 142.764V139.764ZM221.308 139.764H224.308C224.308 138.107 222.965 136.764 221.308 136.764V139.764ZM221.308 142.032V145.032C222.965 145.032 224.308 143.689 224.308 142.032H221.308ZM208.276 142.032V139.032C206.619 139.032 205.276 140.375 205.276 142.032H208.276ZM208.276 151.392H205.276C205.276 153.049 206.619 154.392 208.276 154.392V151.392ZM220.432 151.392V153.696H226.432V151.392H220.432ZM223.432 150.696H205.612V156.696H223.432V150.696ZM208.612 153.696V128.496H202.612V153.696H208.612ZM205.612 131.496H222.892V125.496H205.612V131.496ZM219.892 128.496V130.8H225.892V128.496H219.892ZM222.892 127.8H208.276V133.8H222.892V127.8ZM205.276 130.8V139.764H211.276V130.8H205.276ZM208.276 142.764H221.308V136.764H208.276V142.764ZM218.308 139.764V142.032H224.308V139.764H218.308ZM221.308 139.032H208.276V145.032H221.308V139.032ZM205.276 142.032V151.392H211.276V142.032H205.276ZM208.276 154.392H223.432V148.392H208.276V154.392Z" fill="white"/>
<path d="M110.28 164.973H105.08V164.593H115.88V164.973H110.68V178.593H110.28V164.973ZM129.937 178.213V178.593H120.617V164.593H129.637V164.973H121.017V171.293H128.737V171.673H121.017V178.213H129.937ZM146.976 164.593V178.593H146.636L136.376 165.333V178.593H135.976V164.593H136.316L146.576 177.853V164.593H146.976ZM157.725 178.653C156.711 178.653 155.758 178.473 154.865 178.113C153.971 177.74 153.285 177.26 152.805 176.673L153.085 176.413C153.538 176.947 154.185 177.393 155.025 177.753C155.865 178.1 156.758 178.273 157.705 178.273C159.158 178.273 160.251 177.987 160.985 177.413C161.731 176.827 162.105 176.073 162.105 175.153C162.105 174.433 161.911 173.86 161.525 173.433C161.138 173.007 160.658 172.687 160.085 172.473C159.525 172.26 158.765 172.04 157.805 171.813C156.778 171.56 155.965 171.32 155.365 171.093C154.765 170.853 154.251 170.493 153.825 170.013C153.411 169.52 153.205 168.867 153.205 168.053C153.205 167.413 153.371 166.827 153.705 166.293C154.038 165.76 154.558 165.333 155.265 165.013C155.971 164.693 156.845 164.533 157.885 164.533C158.631 164.533 159.365 164.653 160.085 164.893C160.805 165.12 161.425 165.427 161.945 165.813L161.725 166.133C161.178 165.733 160.565 165.433 159.885 165.233C159.218 165.02 158.558 164.913 157.905 164.913C156.505 164.913 155.438 165.213 154.705 165.813C153.971 166.4 153.605 167.153 153.605 168.073C153.605 168.793 153.798 169.373 154.185 169.813C154.571 170.24 155.051 170.56 155.625 170.773C156.198 170.987 156.971 171.213 157.945 171.453C158.958 171.707 159.765 171.953 160.365 172.193C160.965 172.42 161.471 172.773 161.885 173.253C162.298 173.72 162.505 174.353 162.505 175.153C162.505 175.793 162.331 176.38 161.985 176.913C161.638 177.447 161.105 177.873 160.385 178.193C159.678 178.5 158.791 178.653 157.725 178.653ZM177.636 178.213V178.593H168.316V164.593H177.336V164.973H168.716V171.293H176.436V171.673H168.716V178.213H177.636Z" fill="white"/>
<path d="M110.28 164.973H112.28C112.28 163.869 111.385 162.973 110.28 162.973V164.973ZM105.08 164.973H103.08C103.08 166.078 103.975 166.973 105.08 166.973V164.973ZM105.08 164.593V162.593C103.975 162.593 103.08 163.489 103.08 164.593H105.08ZM115.88 164.593H117.88C117.88 163.489 116.985 162.593 115.88 162.593V164.593ZM115.88 164.973V166.973C116.985 166.973 117.88 166.078 117.88 164.973H115.88ZM110.68 164.973V162.973C109.575 162.973 108.68 163.869 108.68 164.973H110.68ZM110.68 178.593V180.593C111.785 180.593 112.68 179.698 112.68 178.593H110.68ZM110.28 178.593H108.28C108.28 179.698 109.175 180.593 110.28 180.593V178.593ZM110.28 162.973H105.08V166.973H110.28V162.973ZM107.08 164.973V164.593H103.08V164.973H107.08ZM105.08 166.593H115.88V162.593H105.08V166.593ZM113.88 164.593V164.973H117.88V164.593H113.88ZM115.88 162.973H110.68V166.973H115.88V162.973ZM108.68 164.973V178.593H112.68V164.973H108.68ZM110.68 176.593H110.28V180.593H110.68V176.593ZM112.28 178.593V164.973H108.28V178.593H112.28ZM129.937 178.213H131.937C131.937 177.109 131.042 176.213 129.937 176.213V178.213ZM129.937 178.593V180.593C131.042 180.593 131.937 179.698 131.937 178.593H129.937ZM120.617 178.593H118.617C118.617 179.698 119.512 180.593 120.617 180.593V178.593ZM120.617 164.593V162.593C119.512 162.593 118.617 163.489 118.617 164.593H120.617ZM129.637 164.593H131.637C131.637 163.489 130.742 162.593 129.637 162.593V164.593ZM129.637 164.973V166.973C130.742 166.973 131.637 166.078 131.637 164.973H129.637ZM121.017 164.973V162.973C119.912 162.973 119.017 163.869 119.017 164.973H121.017ZM121.017 171.293H119.017C119.017 172.398 119.912 173.293 121.017 173.293V171.293ZM128.737 171.293H130.737C130.737 170.189 129.842 169.293 128.737 169.293V171.293ZM128.737 171.673V173.673C129.842 173.673 130.737 172.778 130.737 171.673H128.737ZM121.017 171.673V169.673C119.912 169.673 119.017 170.569 119.017 171.673H121.017ZM121.017 178.213H119.017C119.017 179.318 119.912 180.213 121.017 180.213V178.213ZM127.937 178.213V178.593H131.937V178.213H127.937ZM129.937 176.593H120.617V180.593H129.937V176.593ZM122.617 178.593V164.593H118.617V178.593H122.617ZM120.617 166.593H129.637V162.593H120.617V166.593ZM127.637 164.593V164.973H131.637V164.593H127.637ZM129.637 162.973H121.017V166.973H129.637V162.973ZM119.017 164.973V171.293H123.017V164.973H119.017ZM121.017 173.293H128.737V169.293H121.017V173.293ZM126.737 171.293V171.673H130.737V171.293H126.737ZM128.737 169.673H121.017V173.673H128.737V169.673ZM119.017 171.673V178.213H123.017V171.673H119.017ZM121.017 180.213H129.937V176.213H121.017V180.213ZM146.976 164.593H148.976C148.976 163.489 148.081 162.593 146.976 162.593V164.593ZM146.976 178.593V180.593C148.081 180.593 148.976 179.698 148.976 178.593H146.976ZM146.636 178.593L145.055 179.817C145.433 180.307 146.017 180.593 146.636 180.593V178.593ZM136.376 165.333L137.958 164.109C137.435 163.433 136.539 163.164 135.73 163.441C134.92 163.717 134.376 164.478 134.376 165.333H136.376ZM136.376 178.593V180.593C137.481 180.593 138.376 179.698 138.376 178.593H136.376ZM135.976 178.593H133.976C133.976 179.698 134.872 180.593 135.976 180.593V178.593ZM135.976 164.593V162.593C134.872 162.593 133.976 163.489 133.976 164.593H135.976ZM136.316 164.593L137.898 163.369C137.519 162.88 136.935 162.593 136.316 162.593V164.593ZM146.576 177.853L144.995 179.077C145.518 179.754 146.414 180.022 147.223 179.746C148.032 179.469 148.576 178.709 148.576 177.853H146.576ZM146.576 164.593V162.593C145.472 162.593 144.576 163.489 144.576 164.593H146.576ZM144.976 164.593V178.593H148.976V164.593H144.976ZM146.976 176.593H146.636V180.593H146.976V176.593ZM148.218 177.369L137.958 164.109L134.795 166.557L145.055 179.817L148.218 177.369ZM134.376 165.333V178.593H138.376V165.333H134.376ZM136.376 176.593H135.976V180.593H136.376V176.593ZM137.976 178.593V164.593H133.976V178.593H137.976ZM135.976 166.593H136.316V162.593H135.976V166.593ZM134.735 165.817L144.995 179.077L148.158 176.629L137.898 163.369L134.735 165.817ZM148.576 177.853V164.593H144.576V177.853H148.576ZM146.576 166.593H146.976V162.593H146.576V166.593ZM154.865 178.113L154.093 179.959C154.101 179.962 154.109 179.965 154.117 179.968L154.865 178.113ZM152.805 176.673L151.444 175.208C150.67 175.926 150.588 177.122 151.257 177.94L152.805 176.673ZM153.085 176.413L154.608 175.118C154.255 174.702 153.747 174.449 153.202 174.417C152.658 174.384 152.123 174.576 151.724 174.948L153.085 176.413ZM155.025 177.753L154.237 179.591C154.245 179.595 154.253 179.598 154.262 179.602L155.025 177.753ZM160.985 177.413L162.216 178.989L162.22 178.986L160.985 177.413ZM161.525 173.433L160.043 174.776L161.525 173.433ZM160.085 172.473L159.373 174.342C159.377 174.344 159.382 174.346 159.387 174.348L160.085 172.473ZM157.805 171.813L157.325 173.755C157.332 173.757 157.338 173.758 157.345 173.76L157.805 171.813ZM155.365 171.093L154.622 172.95C154.634 172.955 154.646 172.96 154.658 172.964L155.365 171.093ZM153.825 170.013L152.291 171.298C152.304 171.313 152.317 171.327 152.33 171.342L153.825 170.013ZM153.705 166.293L155.401 167.353L153.705 166.293ZM160.085 164.893L159.452 166.791C159.463 166.794 159.473 166.798 159.484 166.801L160.085 164.893ZM161.945 165.813L163.593 166.946C164.202 166.06 164.001 164.85 163.138 164.208L161.945 165.813ZM161.725 166.133L160.544 167.747C160.98 168.066 161.527 168.195 162.06 168.105C162.593 168.014 163.066 167.712 163.373 167.266L161.725 166.133ZM159.885 165.233L159.275 167.138C159.29 167.143 159.305 167.147 159.32 167.152L159.885 165.233ZM154.705 165.813L155.954 167.375C155.96 167.37 155.965 167.366 155.971 167.361L154.705 165.813ZM154.185 169.813L152.682 171.133C152.689 171.141 152.696 171.149 152.703 171.156L154.185 169.813ZM155.625 170.773L156.322 168.899L155.625 170.773ZM157.945 171.453L158.43 169.513L158.423 169.511L157.945 171.453ZM160.365 172.193L159.622 174.05C159.634 174.055 159.646 174.06 159.658 174.064L160.365 172.193ZM161.885 173.253L160.369 174.558C160.375 174.565 160.381 174.572 160.387 174.579L161.885 173.253ZM161.985 176.913L160.308 175.823L161.985 176.913ZM160.385 178.193L161.181 180.028C161.186 180.026 161.191 180.023 161.197 180.021L160.385 178.193ZM157.725 176.653C156.954 176.653 156.256 176.517 155.612 176.258L154.117 179.968C155.26 180.429 156.469 180.653 157.725 180.653V176.653ZM155.636 176.268C154.963 175.987 154.575 175.679 154.352 175.407L151.257 177.94C151.994 178.841 152.979 179.493 154.093 179.959L155.636 176.268ZM154.165 178.139L154.445 177.879L151.724 174.948L151.444 175.208L154.165 178.139ZM151.561 177.708C152.266 178.538 153.196 179.146 154.237 179.591L155.812 175.915C155.173 175.641 154.81 175.355 154.608 175.118L151.561 177.708ZM154.262 179.602C155.354 180.053 156.507 180.273 157.705 180.273V176.273C157.009 176.273 156.375 176.147 155.788 175.904L154.262 179.602ZM157.705 180.273C159.369 180.273 160.982 179.954 162.216 178.989L159.753 175.838C159.52 176.019 158.947 176.273 157.705 176.273V180.273ZM162.22 178.986C163.431 178.034 164.105 176.71 164.105 175.153H160.105C160.105 175.437 160.031 175.619 159.749 175.841L162.22 178.986ZM164.105 175.153C164.105 174.066 163.804 172.97 163.007 172.09L160.043 174.776C160.044 174.778 160.046 174.78 160.048 174.784C160.051 174.788 160.057 174.8 160.064 174.822C160.08 174.868 160.105 174.97 160.105 175.153H164.105ZM163.007 172.09C162.391 171.411 161.636 170.917 160.782 170.599L159.387 174.348C159.679 174.456 159.884 174.602 160.043 174.776L163.007 172.09ZM160.797 170.604C160.119 170.346 159.263 170.102 158.264 169.867L157.345 173.76C158.266 173.977 158.93 174.174 159.373 174.342L160.797 170.604ZM158.284 169.871C157.292 169.627 156.565 169.409 156.071 169.222L154.658 172.964C155.364 173.231 156.264 173.493 157.325 173.755L158.284 169.871ZM156.107 169.236C155.794 169.111 155.538 168.931 155.319 168.684L152.33 171.342C152.964 172.055 153.735 172.596 154.622 172.95L156.107 169.236ZM155.358 168.729C155.319 168.682 155.205 168.524 155.205 168.053H151.205C151.205 169.209 151.504 170.358 152.291 171.298L155.358 168.729ZM155.205 168.053C155.205 167.781 155.27 167.563 155.401 167.353L152.009 165.233C151.473 166.09 151.205 167.045 151.205 168.053H155.205ZM155.401 167.353C155.481 167.225 155.658 167.031 156.09 166.835L154.44 163.191C153.458 163.636 152.595 164.295 152.009 165.233L155.401 167.353ZM156.09 166.835C156.465 166.665 157.037 166.533 157.885 166.533V162.533C156.652 162.533 155.478 162.721 154.44 163.191L156.09 166.835ZM157.885 166.533C158.413 166.533 158.933 166.617 159.452 166.791L160.717 162.996C159.796 162.689 158.85 162.533 157.885 162.533V166.533ZM159.484 166.801C160.025 166.971 160.437 167.185 160.751 167.418L163.138 164.208C162.412 163.668 161.584 163.268 160.685 162.985L159.484 166.801ZM160.296 164.68L160.076 165L163.373 167.266L163.593 166.946L160.296 164.68ZM162.906 164.519C162.164 163.976 161.34 163.577 160.449 163.314L159.32 167.152C159.789 167.29 160.192 167.49 160.544 167.747L162.906 164.519ZM160.494 163.328C159.644 163.056 158.779 162.913 157.905 162.913V166.913C158.337 166.913 158.791 166.983 159.275 167.138L160.494 163.328ZM157.905 162.913C156.256 162.913 154.665 163.262 153.438 164.265L155.971 167.361C156.211 167.165 156.753 166.913 157.905 166.913V162.913ZM153.455 164.251C152.259 165.208 151.605 166.531 151.605 168.073H155.605C155.605 167.775 155.684 167.591 155.954 167.375L153.455 164.251ZM151.605 168.073C151.605 169.163 151.906 170.25 152.682 171.133L155.687 168.493C155.677 168.482 155.663 168.464 155.647 168.416C155.629 168.362 155.605 168.255 155.605 168.073H151.605ZM152.703 171.156C153.318 171.835 154.073 172.33 154.927 172.648L156.322 168.899C156.03 168.79 155.825 168.645 155.667 168.47L152.703 171.156ZM154.927 172.648C155.602 172.899 156.459 173.147 157.466 173.395L158.423 169.511C157.484 169.28 156.793 169.074 156.322 168.899L154.927 172.648ZM157.459 173.393C158.431 173.636 159.141 173.858 159.622 174.05L161.107 170.336C160.388 170.049 159.484 169.777 158.43 169.513L157.459 173.393ZM159.658 174.064C159.949 174.174 160.177 174.335 160.369 174.558L163.4 171.948C162.766 171.212 161.98 170.665 161.071 170.322L159.658 174.064ZM160.387 174.579C160.393 174.586 160.505 174.699 160.505 175.153H164.505C164.505 174.007 164.202 172.854 163.382 171.927L160.387 174.579ZM160.505 175.153C160.505 175.409 160.442 175.616 160.308 175.823L163.661 178.003C164.22 177.143 164.505 176.178 164.505 175.153H160.505ZM160.308 175.823C160.217 175.963 160.023 176.165 159.572 176.366L161.197 180.021C162.186 179.581 163.059 178.931 163.661 178.003L160.308 175.823ZM159.588 176.358C159.21 176.523 158.616 176.653 157.725 176.653V180.653C158.967 180.653 160.146 180.477 161.181 180.028L159.588 176.358ZM177.636 178.213H179.636C179.636 177.109 178.741 176.213 177.636 176.213V178.213ZM177.636 178.593V180.593C178.741 180.593 179.636 179.698 179.636 178.593H177.636ZM168.316 178.593H166.316C166.316 179.698 167.212 180.593 168.316 180.593V178.593ZM168.316 164.593V162.593C167.212 162.593 166.316 163.489 166.316 164.593H168.316ZM177.336 164.593H179.336C179.336 163.489 178.441 162.593 177.336 162.593V164.593ZM177.336 164.973V166.973C178.441 166.973 179.336 166.078 179.336 164.973H177.336ZM168.716 164.973V162.973C167.612 162.973 166.716 163.869 166.716 164.973H168.716ZM168.716 171.293H166.716C166.716 172.398 167.612 173.293 168.716 173.293V171.293ZM176.436 171.293H178.436C178.436 170.189 177.541 169.293 176.436 169.293V171.293ZM176.436 171.673V173.673C177.541 173.673 178.436 172.778 178.436 171.673H176.436ZM168.716 171.673V169.673C167.612 169.673 166.716 170.569 166.716 171.673H168.716ZM168.716 178.213H166.716C166.716 179.318 167.612 180.213 168.716 180.213V178.213ZM175.636 178.213V178.593H179.636V178.213H175.636ZM177.636 176.593H168.316V180.593H177.636V176.593ZM170.316 178.593V164.593H166.316V178.593H170.316ZM168.316 166.593H177.336V162.593H168.316V166.593ZM175.336 164.593V164.973H179.336V164.593H175.336ZM177.336 162.973H168.716V166.973H177.336V162.973ZM166.716 164.973V171.293H170.716V164.973H166.716ZM168.716 173.293H176.436V169.293H168.716V173.293ZM174.436 171.293V171.673H178.436V171.293H174.436ZM176.436 169.673H168.716V173.673H176.436V169.673ZM166.716 171.673V178.213H170.716V171.673H166.716ZM168.716 180.213H177.636V176.213H168.716V180.213Z" fill="white"/>
</mask>
<g mask="url(#mask0_159_68)">
<path d="M0 143.673L9.46667 144.936C18.9333 146.237 37.8667 148.762 56.8 146.16C75.7333 143.559 94.6667 135.754 113.6 136.29C132.533 136.787 151.467 145.586 170.4 146.16C189.333 146.734 208.267 139.083 227.2 135.142C246.133 131.163 265.067 130.934 274.533 130.781L284 130.666V321.186H274.533C265.067 321.186 246.133 321.186 227.2 321.186C208.267 321.186 189.333 321.186 170.4 321.186C151.467 321.186 132.533 321.186 113.6 321.186C94.6667 321.186 75.7333 321.186 56.8 321.186C37.8667 321.186 18.9333 321.186 9.46667 321.186H0V143.673Z" fill="white"/>
</g>
</g>
<defs>
<clipPath id="clip0_159_68">
<rect width="284" height="322" fill="white"/>
</clipPath>
</defs>
</svg>
