<svg width="284" height="322" viewBox="0 0 284 322" fill="none" xmlns="http://www.w3.org/2000/svg">
<g clip-path="url(#clip0_159_46)">
<path d="M284 0H0V322H284V0Z" fill="#001220"/>
<path d="M33.762 129.898H36.204V152.998H33.762V129.898ZM71.011 129.898V152.998H68.668V134.518L59.593 150.061H58.438L49.363 134.617V152.998H47.02V129.898H49.033L59.065 147.025L68.998 129.898H71.011ZM90.4836 129.898C93.4316 129.898 95.7416 130.602 97.4136 132.01C99.0856 133.418 99.9216 135.354 99.9216 137.818C99.9216 140.282 99.0856 142.218 97.4136 143.626C95.7416 145.012 93.4316 145.705 90.4836 145.705H84.2796V152.998H81.8376V129.898H90.4836ZM90.4176 143.56C92.7056 143.56 94.4546 143.065 95.6646 142.075C96.8746 141.063 97.4796 139.644 97.4796 137.818C97.4796 135.948 96.8746 134.518 95.6646 133.528C94.4546 132.516 92.7056 132.01 90.4176 132.01H84.2796V143.56H90.4176ZM124.837 150.886V152.998H108.502V129.898H124.342V132.01H110.944V140.227H122.89V142.306H110.944V150.886H124.837ZM149.651 152.998L144.371 145.573C143.777 145.639 143.161 145.672 142.523 145.672H136.319V152.998H133.877V129.898H142.523C145.471 129.898 147.781 130.602 149.453 132.01C151.125 133.418 151.961 135.354 151.961 137.818C151.961 139.622 151.499 141.151 150.575 142.405C149.673 143.637 148.375 144.528 146.681 145.078L152.324 152.998H149.651ZM142.457 143.593C144.745 143.593 146.494 143.087 147.704 142.075C148.914 141.063 149.519 139.644 149.519 137.818C149.519 135.948 148.914 134.518 147.704 133.528C146.494 132.516 144.745 132.01 142.457 132.01H136.319V143.593H142.457ZM163.467 132.01V141.085H175.413V143.197H163.467V152.998H161.025V129.898H176.865V132.01H163.467ZM201.543 150.886V152.998H185.208V129.898H201.048V132.01H187.65V140.227H199.596V142.306H187.65V150.886H201.543ZM220.615 153.196C218.327 153.196 216.259 152.69 214.411 151.678C212.585 150.666 211.144 149.269 210.088 147.487C209.054 145.683 208.537 143.67 208.537 141.448C208.537 139.226 209.054 137.224 210.088 135.442C211.144 133.638 212.596 132.23 214.444 131.218C216.292 130.206 218.36 129.7 220.648 129.7C222.364 129.7 223.948 129.986 225.4 130.558C226.852 131.13 228.084 131.966 229.096 133.066L227.545 134.617C225.741 132.791 223.464 131.878 220.714 131.878C218.888 131.878 217.227 132.296 215.731 133.132C214.235 133.968 213.058 135.112 212.2 136.564C211.364 138.016 210.946 139.644 210.946 141.448C210.946 143.252 211.364 144.88 212.2 146.332C213.058 147.784 214.235 148.928 215.731 149.764C217.227 150.6 218.888 151.018 220.714 151.018C223.486 151.018 225.763 150.094 227.545 148.246L229.096 149.797C228.084 150.897 226.841 151.744 225.367 152.338C223.915 152.91 222.331 153.196 220.615 153.196ZM243.739 132.01H235.621V129.898H254.299V132.01H246.181V152.998H243.739V132.01Z" fill="#FACB66"/>
<path d="M33.762 129.898V126.898C32.1051 126.898 30.762 128.241 30.762 129.898H33.762ZM36.204 129.898H39.204C39.204 128.241 37.8609 126.898 36.204 126.898V129.898ZM36.204 152.998V155.998C37.8609 155.998 39.204 154.655 39.204 152.998H36.204ZM33.762 152.998H30.762C30.762 154.655 32.1051 155.998 33.762 155.998V152.998ZM33.762 132.898H36.204V126.898H33.762V132.898ZM33.204 129.898V152.998H39.204V129.898H33.204ZM36.204 149.998H33.762V155.998H36.204V149.998ZM36.762 152.998V129.898H30.762V152.998H36.762ZM71.011 129.898H74.011C74.011 128.241 72.6679 126.898 71.011 126.898V129.898ZM71.011 152.998V155.998C72.6679 155.998 74.011 154.655 74.011 152.998H71.011ZM68.668 152.998H65.668C65.668 154.655 67.0112 155.998 68.668 155.998V152.998ZM68.668 134.518H71.668C71.668 133.163 70.7596 131.976 69.4515 131.622C68.1435 131.268 66.7605 131.835 66.0773 133.005L68.668 134.518ZM59.593 150.061V153.061C60.6596 153.061 61.646 152.495 62.1837 151.574L59.593 150.061ZM58.438 150.061L55.8515 151.581C56.3903 152.498 57.3744 153.061 58.438 153.061V150.061ZM49.363 134.617L51.9495 133.097C51.2638 131.93 49.8815 131.367 48.5755 131.722C47.2694 132.078 46.363 133.264 46.363 134.617H49.363ZM49.363 152.998V155.998C51.0199 155.998 52.363 154.655 52.363 152.998H49.363ZM47.02 152.998H44.02C44.02 154.655 45.3632 155.998 47.02 155.998V152.998ZM47.02 129.898V126.898C45.3632 126.898 44.02 128.241 44.02 129.898H47.02ZM49.033 129.898L51.6216 128.382C51.0833 127.463 50.0981 126.898 49.033 126.898V129.898ZM59.065 147.025L56.4764 148.541C57.0159 149.462 58.0041 150.027 59.0715 150.025C60.1389 150.023 61.1246 149.454 61.6601 148.53L59.065 147.025ZM68.998 129.898V126.898C67.9283 126.898 66.9395 127.468 66.4029 128.393L68.998 129.898ZM68.011 129.898V152.998H74.011V129.898H68.011ZM71.011 149.998H68.668V155.998H71.011V149.998ZM71.668 152.998V134.518H65.668V152.998H71.668ZM66.0773 133.005L57.0023 148.548L62.1837 151.574L71.2587 136.031L66.0773 133.005ZM59.593 147.061H58.438V153.061H59.593V147.061ZM61.0245 148.541L51.9495 133.097L46.7765 136.137L55.8515 151.581L61.0245 148.541ZM46.363 134.617V152.998H52.363V134.617H46.363ZM49.363 149.998H47.02V155.998H49.363V149.998ZM50.02 152.998V129.898H44.02V152.998H50.02ZM47.02 132.898H49.033V126.898H47.02V132.898ZM46.4444 131.414L56.4764 148.541L61.6536 145.509L51.6216 128.382L46.4444 131.414ZM61.6601 148.53L71.5931 131.403L66.4029 128.393L56.4699 145.52L61.6601 148.53ZM68.998 132.898H71.011V126.898H68.998V132.898ZM97.4136 132.01L95.4812 134.305L97.4136 132.01ZM97.4136 143.626L99.3282 145.936C99.3341 145.931 99.3401 145.926 99.346 145.921L97.4136 143.626ZM84.2796 145.705V142.705C82.6227 142.705 81.2796 144.048 81.2796 145.705H84.2796ZM84.2796 152.998V155.998C85.9364 155.998 87.2796 154.655 87.2796 152.998H84.2796ZM81.8376 152.998H78.8376C78.8376 154.655 80.1807 155.998 81.8376 155.998V152.998ZM81.8376 129.898V126.898C80.1807 126.898 78.8376 128.241 78.8376 129.898H81.8376ZM95.6646 142.075L97.5643 144.397C97.5727 144.39 97.581 144.383 97.5892 144.376L95.6646 142.075ZM95.6646 133.528L93.7399 135.829C93.7482 135.836 93.7565 135.843 93.7649 135.85L95.6646 133.528ZM84.2796 132.01V129.01C82.6227 129.01 81.2796 130.353 81.2796 132.01H84.2796ZM84.2796 143.56H81.2796C81.2796 145.217 82.6227 146.56 84.2796 146.56V143.56ZM90.4836 132.898C92.9719 132.898 94.5132 133.49 95.4812 134.305L99.346 129.715C96.97 127.714 93.8913 126.898 90.4836 126.898V132.898ZM95.4812 134.305C96.3852 135.066 96.9216 136.113 96.9216 137.818H102.922C102.922 134.596 101.786 131.77 99.346 129.715L95.4812 134.305ZM96.9216 137.818C96.9216 139.524 96.3852 140.57 95.4812 141.331L99.346 145.921C101.786 143.866 102.922 141.041 102.922 137.818H96.9216ZM95.499 141.316C94.5304 142.119 92.9821 142.705 90.4836 142.705V148.705C93.881 148.705 96.9527 147.905 99.3282 145.936L95.499 141.316ZM90.4836 142.705H84.2796V148.705H90.4836V142.705ZM81.2796 145.705V152.998H87.2796V145.705H81.2796ZM84.2796 149.998H81.8376V155.998H84.2796V149.998ZM84.8376 152.998V129.898H78.8376V152.998H84.8376ZM81.8376 132.898H90.4836V126.898H81.8376V132.898ZM90.4176 146.56C93.0868 146.56 95.6187 145.989 97.5643 144.397L93.7649 139.753C93.2904 140.141 92.3244 140.56 90.4176 140.56V146.56ZM97.5892 144.376C99.5921 142.701 100.48 140.376 100.48 137.818H94.4796C94.4796 138.912 94.1571 139.425 93.7399 139.774L97.5892 144.376ZM100.48 137.818C100.48 135.244 99.6091 132.879 97.5643 131.206L93.7649 135.85C94.1401 136.157 94.4796 136.652 94.4796 137.818H100.48ZM97.5892 131.227C95.6421 129.598 93.0998 129.01 90.4176 129.01V135.01C92.3113 135.01 93.2671 135.434 93.7399 135.829L97.5892 131.227ZM90.4176 129.01H84.2796V135.01H90.4176V129.01ZM81.2796 132.01V143.56H87.2796V132.01H81.2796ZM84.2796 146.56H90.4176V140.56H84.2796V146.56ZM124.837 150.886H127.837C127.837 149.229 126.494 147.886 124.837 147.886V150.886ZM124.837 152.998V155.998C126.494 155.998 127.837 154.655 127.837 152.998H124.837ZM108.502 152.998H105.502C105.502 154.655 106.845 155.998 108.502 155.998V152.998ZM108.502 129.898V126.898C106.845 126.898 105.502 128.241 105.502 129.898H108.502ZM124.342 129.898H127.342C127.342 128.241 125.999 126.898 124.342 126.898V129.898ZM124.342 132.01V135.01C125.999 135.01 127.342 133.667 127.342 132.01H124.342ZM110.944 132.01V129.01C109.287 129.01 107.944 130.353 107.944 132.01H110.944ZM110.944 140.227H107.944C107.944 141.884 109.287 143.227 110.944 143.227V140.227ZM122.89 140.227H125.89C125.89 138.57 124.547 137.227 122.89 137.227V140.227ZM122.89 142.306V145.306C124.547 145.306 125.89 143.963 125.89 142.306H122.89ZM110.944 142.306V139.306C109.287 139.306 107.944 140.649 107.944 142.306H110.944ZM110.944 150.886H107.944C107.944 152.543 109.287 153.886 110.944 153.886V150.886ZM121.837 150.886V152.998H127.837V150.886H121.837ZM124.837 149.998H108.502V155.998H124.837V149.998ZM111.502 152.998V129.898H105.502V152.998H111.502ZM108.502 132.898H124.342V126.898H108.502V132.898ZM121.342 129.898V132.01H127.342V129.898H121.342ZM124.342 129.01H110.944V135.01H124.342V129.01ZM107.944 132.01V140.227H113.944V132.01H107.944ZM110.944 143.227H122.89V137.227H110.944V143.227ZM119.89 140.227V142.306H125.89V140.227H119.89ZM122.89 139.306H110.944V145.306H122.89V139.306ZM107.944 142.306V150.886H113.944V142.306H107.944ZM110.944 153.886H124.837V147.886H110.944V153.886ZM149.651 152.998L147.206 154.737C147.769 155.528 148.68 155.998 149.651 155.998V152.998ZM144.371 145.573L146.816 143.835C146.185 142.947 145.122 142.471 144.04 142.591L144.371 145.573ZM136.319 145.672V142.672C134.662 142.672 133.319 144.015 133.319 145.672H136.319ZM136.319 152.998V155.998C137.976 155.998 139.319 154.655 139.319 152.998H136.319ZM133.877 152.998H130.877C130.877 154.655 132.22 155.998 133.877 155.998V152.998ZM133.877 129.898V126.898C132.22 126.898 130.877 128.241 130.877 129.898H133.877ZM149.453 132.01L147.521 134.305L149.453 132.01ZM150.575 142.405L148.16 140.625L148.154 140.633L150.575 142.405ZM146.681 145.078L145.755 142.225C144.846 142.52 144.132 143.23 143.832 144.138C143.533 145.045 143.683 146.041 144.238 146.819L146.681 145.078ZM152.324 152.998V155.998C153.447 155.998 154.476 155.371 154.991 154.372C155.505 153.374 155.419 152.172 154.767 151.257L152.324 152.998ZM147.704 142.075L149.629 144.376L147.704 142.075ZM147.704 133.528L145.779 135.829C145.788 135.836 145.796 135.843 145.804 135.85L147.704 133.528ZM136.319 132.01V129.01C134.662 129.01 133.319 130.353 133.319 132.01H136.319ZM136.319 143.593H133.319C133.319 145.25 134.662 146.593 136.319 146.593V143.593ZM152.096 151.26L146.816 143.835L141.926 147.312L147.206 154.737L152.096 151.26ZM144.04 142.591C143.563 142.644 143.058 142.672 142.523 142.672V148.672C143.264 148.672 143.991 148.634 144.702 148.555L144.04 142.591ZM142.523 142.672H136.319V148.672H142.523V142.672ZM133.319 145.672V152.998H139.319V145.672H133.319ZM136.319 149.998H133.877V155.998H136.319V149.998ZM136.877 152.998V129.898H130.877V152.998H136.877ZM133.877 132.898H142.523V126.898H133.877V132.898ZM142.523 132.898C145.011 132.898 146.553 133.49 147.521 134.305L151.385 129.715C149.009 127.714 145.931 126.898 142.523 126.898V132.898ZM147.521 134.305C148.425 135.066 148.961 136.113 148.961 137.818H154.961C154.961 134.596 153.825 131.77 151.385 129.715L147.521 134.305ZM148.961 137.818C148.961 139.087 148.646 139.966 148.16 140.625L152.99 144.185C154.352 142.337 154.961 140.157 154.961 137.818H148.961ZM148.154 140.633C147.684 141.276 146.952 141.836 145.755 142.225L147.607 147.931C149.798 147.22 151.662 145.999 152.996 144.177L148.154 140.633ZM144.238 146.819L149.881 154.739L154.767 151.257L149.124 143.337L144.238 146.819ZM152.324 149.998H149.651V155.998H152.324V149.998ZM142.457 146.593C145.139 146.593 147.682 146.005 149.629 144.376L145.779 139.774C145.307 140.169 144.351 140.593 142.457 140.593V146.593ZM149.629 144.376C151.632 142.701 152.519 140.376 152.519 137.818H146.519C146.519 138.912 146.197 139.425 145.779 139.774L149.629 144.376ZM152.519 137.818C152.519 135.244 151.649 132.879 149.604 131.206L145.804 135.85C146.18 136.157 146.519 136.652 146.519 137.818H152.519ZM149.629 131.227C147.682 129.598 145.139 129.01 142.457 129.01V135.01C144.351 135.01 145.307 135.434 145.779 135.829L149.629 131.227ZM142.457 129.01H136.319V135.01H142.457V129.01ZM133.319 132.01V143.593H139.319V132.01H133.319ZM136.319 146.593H142.457V140.593H136.319V146.593ZM163.467 132.01V129.01C161.81 129.01 160.467 130.353 160.467 132.01H163.467ZM163.467 141.085H160.467C160.467 142.742 161.81 144.085 163.467 144.085V141.085ZM175.413 141.085H178.413C178.413 139.428 177.07 138.085 175.413 138.085V141.085ZM175.413 143.197V146.197C177.07 146.197 178.413 144.854 178.413 143.197H175.413ZM163.467 143.197V140.197C161.81 140.197 160.467 141.54 160.467 143.197H163.467ZM163.467 152.998V155.998C165.124 155.998 166.467 154.655 166.467 152.998H163.467ZM161.025 152.998H158.025C158.025 154.655 159.368 155.998 161.025 155.998V152.998ZM161.025 129.898V126.898C159.368 126.898 158.025 128.241 158.025 129.898H161.025ZM176.865 129.898H179.865C179.865 128.241 178.522 126.898 176.865 126.898V129.898ZM176.865 132.01V135.01C178.522 135.01 179.865 133.667 179.865 132.01H176.865ZM160.467 132.01V141.085H166.467V132.01H160.467ZM163.467 144.085H175.413V138.085H163.467V144.085ZM172.413 141.085V143.197H178.413V141.085H172.413ZM175.413 140.197H163.467V146.197H175.413V140.197ZM160.467 143.197V152.998H166.467V143.197H160.467ZM163.467 149.998H161.025V155.998H163.467V149.998ZM164.025 152.998V129.898H158.025V152.998H164.025ZM161.025 132.898H176.865V126.898H161.025V132.898ZM173.865 129.898V132.01H179.865V129.898H173.865ZM176.865 129.01H163.467V135.01H176.865V129.01ZM201.543 150.886H204.543C204.543 149.229 203.199 147.886 201.543 147.886V150.886ZM201.543 152.998V155.998C203.199 155.998 204.543 154.655 204.543 152.998H201.543ZM185.208 152.998H182.208C182.208 154.655 183.551 155.998 185.208 155.998V152.998ZM185.208 129.898V126.898C183.551 126.898 182.208 128.241 182.208 129.898H185.208ZM201.048 129.898H204.048C204.048 128.241 202.704 126.898 201.048 126.898V129.898ZM201.048 132.01V135.01C202.704 135.01 204.048 133.667 204.048 132.01H201.048ZM187.65 132.01V129.01C185.993 129.01 184.65 130.353 184.65 132.01H187.65ZM187.65 140.227H184.65C184.65 141.884 185.993 143.227 187.65 143.227V140.227ZM199.596 140.227H202.596C202.596 138.57 201.252 137.227 199.596 137.227V140.227ZM199.596 142.306V145.306C201.252 145.306 202.596 143.963 202.596 142.306H199.596ZM187.65 142.306V139.306C185.993 139.306 184.65 140.649 184.65 142.306H187.65ZM187.65 150.886H184.65C184.65 152.543 185.993 153.886 187.65 153.886V150.886ZM198.543 150.886V152.998H204.543V150.886H198.543ZM201.543 149.998H185.208V155.998H201.543V149.998ZM188.208 152.998V129.898H182.208V152.998H188.208ZM185.208 132.898H201.048V126.898H185.208V132.898ZM198.048 129.898V132.01H204.048V129.898H198.048ZM201.048 129.01H187.65V135.01H201.048V129.01ZM184.65 132.01V140.227H190.65V132.01H184.65ZM187.65 143.227H199.596V137.227H187.65V143.227ZM196.596 140.227V142.306H202.596V140.227H196.596ZM199.596 139.306H187.65V145.306H199.596V139.306ZM184.65 142.306V150.886H190.65V142.306H184.65ZM187.65 153.886H201.543V147.886H187.65V153.886ZM214.411 151.678L212.956 154.302C212.961 154.305 212.965 154.307 212.97 154.309L214.411 151.678ZM210.088 147.487L207.485 148.979C207.492 148.992 207.499 149.004 207.507 149.017L210.088 147.487ZM210.088 135.442L207.499 133.927L207.493 133.936L210.088 135.442ZM214.444 131.218L213.003 128.587L214.444 131.218ZM225.4 130.558L224.3 133.349L225.4 130.558ZM229.096 133.066L231.217 135.187C232.354 134.05 232.392 132.219 231.303 131.035L229.096 133.066ZM227.545 134.617L225.411 136.726C225.972 137.294 226.737 137.615 227.536 137.617C228.334 137.62 229.101 137.303 229.666 136.738L227.545 134.617ZM215.731 133.132L214.267 130.513L215.731 133.132ZM212.2 136.564L209.617 135.038C209.611 135.048 209.605 135.057 209.6 135.067L212.2 136.564ZM212.2 146.332L209.6 147.829C209.605 147.839 209.611 147.849 209.617 147.858L212.2 146.332ZM215.731 149.764L214.267 152.383L215.731 149.764ZM227.545 148.246L229.666 146.125C229.097 145.555 228.323 145.239 227.517 145.246C226.712 145.254 225.944 145.584 225.385 146.164L227.545 148.246ZM229.096 149.797L231.303 151.828C232.392 150.645 232.354 148.813 231.217 147.676L229.096 149.797ZM225.367 152.338L226.466 155.129C226.474 155.126 226.481 155.124 226.488 155.121L225.367 152.338ZM220.615 150.196C218.786 150.196 217.221 149.796 215.852 149.047L212.97 154.309C215.297 155.584 217.867 156.196 220.615 156.196V150.196ZM215.865 149.054C214.501 148.298 213.451 147.277 212.669 145.958L207.507 149.017C208.837 151.261 210.668 153.034 212.956 154.302L215.865 149.054ZM212.69 145.995C211.935 144.677 211.537 143.184 211.537 141.448H205.537C205.537 144.156 206.173 146.69 207.485 148.979L212.69 145.995ZM211.537 141.448C211.537 139.712 211.935 138.237 212.683 136.948L207.493 133.936C206.173 136.212 205.537 138.74 205.537 141.448H211.537ZM212.677 136.958C213.456 135.627 214.509 134.603 215.885 133.849L213.003 128.587C210.682 129.858 208.832 131.65 207.499 133.927L212.677 136.958ZM215.885 133.849C217.254 133.1 218.819 132.7 220.648 132.7V126.7C217.9 126.7 215.33 127.312 213.003 128.587L215.885 133.849ZM220.648 132.7C222.025 132.7 223.232 132.928 224.3 133.349L226.499 127.767C224.664 127.044 222.703 126.7 220.648 126.7V132.7ZM224.3 133.349C225.349 133.763 226.197 134.346 226.888 135.097L231.303 131.035C229.971 129.586 228.354 128.498 226.499 127.767L224.3 133.349ZM226.974 130.945L225.423 132.496L229.666 136.738L231.217 135.187L226.974 130.945ZM229.679 132.509C227.268 130.069 224.202 128.878 220.714 128.878V134.878C222.725 134.878 224.213 135.514 225.411 136.726L229.679 132.509ZM220.714 128.878C218.41 128.878 216.24 129.411 214.267 130.513L217.194 135.751C218.214 135.181 219.365 134.878 220.714 134.878V128.878ZM214.267 130.513C212.316 131.604 210.749 133.121 209.617 135.038L214.782 138.09C215.366 137.103 216.153 136.332 217.194 135.751L214.267 130.513ZM209.6 135.067C208.482 137.009 207.946 139.16 207.946 141.448H213.946C213.946 140.128 214.246 139.023 214.8 138.061L209.6 135.067ZM207.946 141.448C207.946 143.736 208.482 145.887 209.6 147.829L214.8 144.835C214.246 143.873 213.946 142.768 213.946 141.448H207.946ZM209.617 147.858C210.749 149.775 212.316 151.292 214.267 152.383L217.194 147.145C216.153 146.564 215.366 145.793 214.782 144.806L209.617 147.858ZM214.267 152.383C216.24 153.485 218.41 154.018 220.714 154.018V148.018C219.365 148.018 218.214 147.715 217.194 147.145L214.267 152.383ZM220.714 154.018C224.228 154.018 227.309 152.813 229.704 150.329L225.385 146.164C224.217 147.375 222.743 148.018 220.714 148.018V154.018ZM225.423 150.367L226.974 151.918L231.217 147.676L229.666 146.125L225.423 150.367ZM226.888 147.766C226.197 148.517 225.333 149.117 224.245 149.556L226.488 155.121C228.349 154.371 229.971 153.277 231.303 151.828L226.888 147.766ZM224.267 149.547C223.199 149.968 221.992 150.196 220.615 150.196V156.196C222.67 156.196 224.631 155.852 226.466 155.129L224.267 149.547ZM243.739 132.01H246.739C246.739 130.353 245.396 129.01 243.739 129.01V132.01ZM235.621 132.01H232.621C232.621 133.667 233.965 135.01 235.621 135.01V132.01ZM235.621 129.898V126.898C233.965 126.898 232.621 128.241 232.621 129.898H235.621ZM254.299 129.898H257.299C257.299 128.241 255.956 126.898 254.299 126.898V129.898ZM254.299 132.01V135.01C255.956 135.01 257.299 133.667 257.299 132.01H254.299ZM246.181 132.01V129.01C244.525 129.01 243.181 130.353 243.181 132.01H246.181ZM246.181 152.998V155.998C247.838 155.998 249.181 154.655 249.181 152.998H246.181ZM243.739 152.998H240.739C240.739 154.655 242.083 155.998 243.739 155.998V152.998ZM243.739 129.01H235.621V135.01H243.739V129.01ZM238.621 132.01V129.898H232.621V132.01H238.621ZM235.621 132.898H254.299V126.898H235.621V132.898ZM251.299 129.898V132.01H257.299V129.898H251.299ZM254.299 129.01H246.181V135.01H254.299V129.01ZM243.181 132.01V152.998H249.181V132.01H243.181ZM246.181 149.998H243.739V155.998H246.181V149.998ZM246.739 152.998V132.01H240.739V152.998H246.739Z" fill="#FACB66"/>
<path d="M125.28 103.378H120.08V102.998H130.88V103.378H125.68V116.998H125.28V103.378ZM146.617 102.998V116.998H146.217V110.078H136.017V116.998H135.617V102.998H136.017V109.698H146.217V102.998H146.617ZM163.265 116.618V116.998H153.945V102.998H162.965V103.378H154.345V109.698H162.065V110.078H154.345V116.618H163.265Z" fill="#FACB66"/>
<path d="M125.28 103.378H127.28C127.28 102.274 126.385 101.378 125.28 101.378V103.378ZM120.08 103.378H118.08C118.08 104.483 118.975 105.378 120.08 105.378V103.378ZM120.08 102.998V100.998C118.975 100.998 118.08 101.894 118.08 102.998H120.08ZM130.88 102.998H132.88C132.88 101.894 131.985 100.998 130.88 100.998V102.998ZM130.88 103.378V105.378C131.985 105.378 132.88 104.483 132.88 103.378H130.88ZM125.68 103.378V101.378C124.575 101.378 123.68 102.274 123.68 103.378H125.68ZM125.68 116.998V118.998C126.785 118.998 127.68 118.103 127.68 116.998H125.68ZM125.28 116.998H123.28C123.28 118.103 124.175 118.998 125.28 118.998V116.998ZM125.28 101.378H120.08V105.378H125.28V101.378ZM122.08 103.378V102.998H118.08V103.378H122.08ZM120.08 104.998H130.88V100.998H120.08V104.998ZM128.88 102.998V103.378H132.88V102.998H128.88ZM130.88 101.378H125.68V105.378H130.88V101.378ZM123.68 103.378V116.998H127.68V103.378H123.68ZM125.68 114.998H125.28V118.998H125.68V114.998ZM127.28 116.998V103.378H123.28V116.998H127.28ZM146.617 102.998H148.617C148.617 101.894 147.722 100.998 146.617 100.998V102.998ZM146.617 116.998V118.998C147.722 118.998 148.617 118.103 148.617 116.998H146.617ZM146.217 116.998H144.217C144.217 118.103 145.112 118.998 146.217 118.998V116.998ZM146.217 110.078H148.217C148.217 108.974 147.322 108.078 146.217 108.078V110.078ZM136.017 110.078V108.078C134.912 108.078 134.017 108.974 134.017 110.078H136.017ZM136.017 116.998V118.998C137.122 118.998 138.017 118.103 138.017 116.998H136.017ZM135.617 116.998H133.617C133.617 118.103 134.512 118.998 135.617 118.998V116.998ZM135.617 102.998V100.998C134.512 100.998 133.617 101.894 133.617 102.998H135.617ZM136.017 102.998H138.017C138.017 101.894 137.122 100.998 136.017 100.998V102.998ZM136.017 109.698H134.017C134.017 110.803 134.912 111.698 136.017 111.698V109.698ZM146.217 109.698V111.698C147.322 111.698 148.217 110.803 148.217 109.698H146.217ZM146.217 102.998V100.998C145.112 100.998 144.217 101.894 144.217 102.998H146.217ZM144.617 102.998V116.998H148.617V102.998H144.617ZM146.617 114.998H146.217V118.998H146.617V114.998ZM148.217 116.998V110.078H144.217V116.998H148.217ZM146.217 108.078H136.017V112.078H146.217V108.078ZM134.017 110.078V116.998H138.017V110.078H134.017ZM136.017 114.998H135.617V118.998H136.017V114.998ZM137.617 116.998V102.998H133.617V116.998H137.617ZM135.617 104.998H136.017V100.998H135.617V104.998ZM134.017 102.998V109.698H138.017V102.998H134.017ZM136.017 111.698H146.217V107.698H136.017V111.698ZM148.217 109.698V102.998H144.217V109.698H148.217ZM146.217 104.998H146.617V100.998H146.217V104.998ZM163.265 116.618H165.265C165.265 115.514 164.37 114.618 163.265 114.618V116.618ZM163.265 116.998V118.998C164.37 118.998 165.265 118.103 165.265 116.998H163.265ZM153.945 116.998H151.945C151.945 118.103 152.841 118.998 153.945 118.998V116.998ZM153.945 102.998V100.998C152.841 100.998 151.945 101.894 151.945 102.998H153.945ZM162.965 102.998H164.965C164.965 101.894 164.07 100.998 162.965 100.998V102.998ZM162.965 103.378V105.378C164.07 105.378 164.965 104.483 164.965 103.378H162.965ZM154.345 103.378V101.378C153.241 101.378 152.345 102.274 152.345 103.378H154.345ZM154.345 109.698H152.345C152.345 110.803 153.241 111.698 154.345 111.698V109.698ZM162.065 109.698H164.065C164.065 108.594 163.17 107.698 162.065 107.698V109.698ZM162.065 110.078V112.078C163.17 112.078 164.065 111.183 164.065 110.078H162.065ZM154.345 110.078V108.078C153.241 108.078 152.345 108.974 152.345 110.078H154.345ZM154.345 116.618H152.345C152.345 117.723 153.241 118.618 154.345 118.618V116.618ZM161.265 116.618V116.998H165.265V116.618H161.265ZM163.265 114.998H153.945V118.998H163.265V114.998ZM155.945 116.998V102.998H151.945V116.998H155.945ZM153.945 104.998H162.965V100.998H153.945V104.998ZM160.965 102.998V103.378H164.965V102.998H160.965ZM162.965 101.378H154.345V105.378H162.965V101.378ZM152.345 103.378V109.698H156.345V103.378H152.345ZM154.345 111.698H162.065V107.698H154.345V111.698ZM160.065 109.698V110.078H164.065V109.698H160.065ZM162.065 108.078H154.345V112.078H162.065V108.078ZM152.345 110.078V116.618H156.345V110.078H152.345ZM154.345 118.618H163.265V114.618H154.345V118.618Z" fill="#FACB66"/>
<path d="M0 135.563C9.46667 138.819 32.0667 144.253 51 145.184C69.9333 146.15 84.5 142.498 124.5 140.998C164.5 139.498 174 145.184 217.5 145.184C261 145.184 284 130.25 284 130.25V321.607H274.533C265.067 321.607 246.133 321.607 227.2 321.607C208.267 321.607 189.333 321.607 170.4 321.607C151.467 321.607 132.533 321.607 113.6 321.607C94.6667 321.607 75.7333 321.607 56.8 321.607C37.8667 321.607 18.9333 321.607 9.46667 321.607H0V135.563Z" fill="#FACB66"/>
<path d="M0 185.4L9.46667 184.041C18.9333 182.645 37.8667 179.926 56.8 179.962C75.7333 180.034 94.6667 182.896 113.6 184.685C132.533 186.474 151.467 187.189 170.4 188.799C189.333 190.409 208.267 192.914 227.2 189.765C246.133 186.581 265.067 177.78 274.533 173.343L284 168.943V287.725H274.533C265.067 287.725 246.133 287.725 227.2 287.725C208.267 287.725 189.333 287.725 170.4 287.725C151.467 287.725 132.533 287.725 113.6 287.725C94.6667 287.725 75.7333 287.725 56.8 287.725C37.8667 287.725 18.9333 287.725 9.46667 287.725H0V185.4Z" fill="#F5BC51"/>
<path d="M0 237.19L9.46667 230.929C18.9333 224.668 37.8667 212.146 56.8 209.927C75.7333 207.745 94.6667 215.831 113.6 217.691C132.533 219.552 151.467 215.115 170.4 211.788C189.333 208.46 208.267 206.171 227.2 209.748C246.133 213.326 265.067 222.772 274.533 227.458L284 232.181V304.094H274.533C265.067 304.094 246.133 304.094 227.2 304.094C208.267 304.094 189.333 304.094 170.4 304.094C151.467 304.094 132.533 304.094 113.6 304.094C94.6667 304.094 75.7333 304.094 56.8 304.094C37.8667 304.094 18.9333 304.094 9.46667 304.094H0V237.19Z" fill="#F1AD3B"/>
<path d="M0 266.616L9.46667 264.934C18.9333 263.289 37.8667 245.36 56.8 242.498C75.7333 239.636 92.5 254.998 113.6 255.498C134.7 255.998 151.467 238.459 170.4 236.92C189.333 235.382 208.267 237.743 227.2 238.244C246.133 238.709 265.067 237.278 274.533 236.563L284 235.847V321.356H274.533C265.067 321.356 246.133 321.356 227.2 321.356C208.267 321.356 189.333 321.356 170.4 321.356C151.467 321.356 132.533 321.356 113.6 321.356C94.6667 321.356 75.7333 321.356 56.8 321.356C37.8667 321.356 18.9333 321.356 9.46667 321.356H0V266.616Z" fill="#ED9D24"/>
<path d="M0 286.208L9.46667 284.312C18.9333 282.38 37.8667 278.587 56.8 279.124C75.7333 279.66 94.6667 284.526 113.6 288.176C132.533 291.825 151.467 294.186 170.4 294.437C189.333 294.687 208.267 292.755 227.2 291.217C246.133 289.678 265.067 288.462 274.533 287.889L284 287.281V321.628H274.533C265.067 321.628 246.133 321.628 227.2 321.628C208.267 321.628 189.333 321.628 170.4 321.628C151.467 321.628 132.533 321.628 113.6 321.628C94.6667 321.628 75.7333 321.628 56.8 321.628C37.8667 321.628 18.9333 321.628 9.46667 321.628H0V286.208Z" fill="#E98D00"/>
<g style="mix-blend-mode:soft-light">
<path d="M30 192.363H255" stroke="white"/>
</g>
<path d="M52.8326 206.578H54.0566V223.378H52.8326V206.578ZM78.1987 223.378L78.1747 209.002L71.1427 221.146H70.5427L63.5107 209.05V223.378H62.3107V206.578H63.3427L70.8547 219.562L78.3667 206.578H79.3747L79.3987 223.378H78.1987ZM93.68 206.578C95.792 206.578 97.448 207.082 98.648 208.09C99.848 209.082 100.448 210.466 100.448 212.242C100.448 214.002 99.848 215.386 98.648 216.394C97.448 217.386 95.792 217.882 93.68 217.882H88.88V223.378H87.656V206.578H93.68ZM93.68 216.778C95.472 216.778 96.84 216.386 97.784 215.602C98.728 214.818 99.2 213.698 99.2 212.242C99.2 210.786 98.728 209.666 97.784 208.882C96.84 208.082 95.472 207.682 93.68 207.682H88.88V216.778H93.68ZM118.57 222.274V223.378H106.978V206.578H118.21V207.682H108.202V214.306H117.154V215.386H108.202V222.274H118.57ZM137.097 223.378L133.089 217.762C132.497 217.842 131.953 217.882 131.457 217.882H126.657V223.378H125.433V206.578H131.457C133.569 206.578 135.225 207.082 136.425 208.09C137.625 209.082 138.225 210.466 138.225 212.242C138.225 213.57 137.881 214.69 137.193 215.602C136.521 216.498 135.553 217.13 134.289 217.498L138.489 223.378H137.097ZM131.457 216.802C133.249 216.802 134.617 216.41 135.561 215.626C136.505 214.826 136.977 213.698 136.977 212.242C136.977 210.786 136.505 209.666 135.561 208.882C134.617 208.082 133.249 207.682 131.457 207.682H126.657V216.802H131.457ZM146.33 207.682V214.858H155.282V215.962H146.33V223.378H145.106V206.578H156.338V207.682H146.33ZM174.239 222.274V223.378H162.647V206.578H173.879V207.682H163.871V214.306H172.823V215.386H163.871V222.274H174.239ZM185.517 207.682H179.469V206.578H192.789V207.682H186.741V223.378H185.517V207.682ZM204.441 207.682H198.393V206.578H211.713V207.682H205.665V223.378H204.441V207.682ZM224.042 223.498C222.394 223.498 220.906 223.13 219.578 222.394C218.25 221.642 217.202 220.618 216.434 219.322C215.682 218.026 215.306 216.578 215.306 214.978C215.306 213.378 215.682 211.93 216.434 210.634C217.202 209.338 218.25 208.322 219.578 207.586C220.906 206.834 222.394 206.458 224.042 206.458C225.69 206.458 227.178 206.826 228.506 207.562C229.834 208.298 230.874 209.314 231.626 210.61C232.394 211.906 232.778 213.362 232.778 214.978C232.778 216.594 232.394 218.05 231.626 219.346C230.874 220.642 229.834 221.658 228.506 222.394C227.178 223.13 225.69 223.498 224.042 223.498ZM224.042 222.37C225.45 222.37 226.722 222.05 227.858 221.41C228.994 220.77 229.89 219.89 230.546 218.77C231.202 217.634 231.53 216.37 231.53 214.978C231.53 213.586 231.202 212.33 230.546 211.21C229.89 210.074 228.994 209.186 227.858 208.546C226.722 207.906 225.45 207.586 224.042 207.586C222.634 207.586 221.354 207.906 220.202 208.546C219.066 209.186 218.17 210.074 217.514 211.21C216.858 212.33 216.53 213.586 216.53 214.978C216.53 216.37 216.858 217.634 217.514 218.77C218.17 219.89 219.066 220.77 220.202 221.41C221.354 222.05 222.634 222.37 224.042 222.37Z" fill="white"/>
<path d="M52.8326 206.578V204.328C51.5899 204.328 50.5826 205.336 50.5826 206.578H52.8326ZM54.0566 206.578H56.3066C56.3066 205.336 55.2992 204.328 54.0566 204.328V206.578ZM54.0566 223.378V225.628C55.2992 225.628 56.3066 224.621 56.3066 223.378H54.0566ZM52.8326 223.378H50.5826C50.5826 224.621 51.5899 225.628 52.8326 225.628V223.378ZM52.8326 208.828H54.0566V204.328H52.8326V208.828ZM51.8066 206.578V223.378H56.3066V206.578H51.8066ZM54.0566 221.128H52.8326V225.628H54.0566V221.128ZM55.0826 223.378V206.578H50.5826V223.378H55.0826ZM78.1987 223.378L75.9487 223.382C75.9508 224.623 76.9575 225.628 78.1987 225.628V223.378ZM78.1747 209.002L80.4247 208.999C80.423 207.982 79.7392 207.092 78.7566 206.829C77.7741 206.566 76.7373 206.995 76.2276 207.875L78.1747 209.002ZM71.1427 221.146V223.396C71.9455 223.396 72.6875 222.969 73.0898 222.274L71.1427 221.146ZM70.5427 221.146L68.5975 222.277C69.0003 222.97 69.7413 223.396 70.5427 223.396V221.146ZM63.5107 209.05L65.4559 207.92C64.9447 207.04 63.9072 206.613 62.9251 206.878C61.9431 207.143 61.2607 208.033 61.2607 209.05H63.5107ZM63.5107 223.378V225.628C64.7534 225.628 65.7607 224.621 65.7607 223.378H63.5107ZM62.3107 223.378H60.0607C60.0607 224.621 61.0681 225.628 62.3107 225.628V223.378ZM62.3107 206.578V204.328C61.0681 204.328 60.0607 205.336 60.0607 206.578H62.3107ZM63.3427 206.578L65.2902 205.452C64.8881 204.757 64.1458 204.328 63.3427 204.328V206.578ZM70.8547 219.562L68.9072 220.689C69.3094 221.384 70.0516 221.812 70.8547 221.812C71.6578 221.812 72.4001 221.384 72.8022 220.689L70.8547 219.562ZM78.3667 206.578V204.328C77.5636 204.328 76.8214 204.757 76.4192 205.452L78.3667 206.578ZM79.3747 206.578L81.6247 206.575C81.6229 205.334 80.6161 204.328 79.3747 204.328V206.578ZM79.3987 223.378V225.628C79.996 225.628 80.5688 225.391 80.9908 224.968C81.4129 224.546 81.6496 223.973 81.6487 223.375L79.3987 223.378ZM80.4487 223.375L80.4247 208.999L75.9247 209.006L75.9487 223.382L80.4487 223.375ZM76.2276 207.875L69.1956 220.019L73.0898 222.274L80.1218 210.13L76.2276 207.875ZM71.1427 218.896H70.5427V223.396H71.1427V218.896ZM72.4879 220.016L65.4559 207.92L61.5655 210.181L68.5975 222.277L72.4879 220.016ZM61.2607 209.05V223.378H65.7607V209.05H61.2607ZM63.5107 221.128H62.3107V225.628H63.5107V221.128ZM64.5607 223.378V206.578H60.0607V223.378H64.5607ZM62.3107 208.828H63.3427V204.328H62.3107V208.828ZM61.3952 207.705L68.9072 220.689L72.8022 218.436L65.2902 205.452L61.3952 207.705ZM72.8022 220.689L80.3143 207.705L76.4192 205.452L68.9072 218.436L72.8022 220.689ZM78.3667 208.828H79.3747V204.328H78.3667V208.828ZM77.1247 206.582L77.1487 223.382L81.6487 223.375L81.6247 206.575L77.1247 206.582ZM79.3987 221.128H78.1987V225.628H79.3987V221.128ZM98.648 208.09L97.2008 209.813C97.2054 209.817 97.2099 209.821 97.2144 209.825L98.648 208.09ZM98.648 216.394L100.082 218.129C100.086 218.125 100.091 218.121 100.095 218.117L98.648 216.394ZM88.88 217.882V215.632C87.6374 215.632 86.63 216.64 86.63 217.882H88.88ZM88.88 223.378V225.628C90.1227 225.628 91.13 224.621 91.13 223.378H88.88ZM87.656 223.378H85.406C85.406 224.621 86.4134 225.628 87.656 225.628V223.378ZM87.656 206.578V204.328C86.4134 204.328 85.406 205.336 85.406 206.578H87.656ZM97.784 215.602L99.2215 217.333L97.784 215.602ZM97.784 208.882L96.3293 210.599C96.335 210.604 96.3408 210.609 96.3465 210.613L97.784 208.882ZM88.88 207.682V205.432C87.6374 205.432 86.63 206.44 86.63 207.682H88.88ZM88.88 216.778H86.63C86.63 218.021 87.6374 219.028 88.88 219.028V216.778ZM93.68 208.828C95.4473 208.828 96.5281 209.248 97.2008 209.813L100.095 206.368C98.3679 204.917 96.1367 204.328 93.68 204.328V208.828ZM97.2144 209.825C97.8209 210.326 98.198 211.031 98.198 212.242H102.698C102.698 209.902 101.875 207.839 100.082 206.356L97.2144 209.825ZM98.198 212.242C98.198 213.43 97.8255 214.147 97.2008 214.672L100.095 218.117C101.871 216.626 102.698 214.575 102.698 212.242H98.198ZM97.2144 214.66C96.5413 215.217 95.4551 215.632 93.68 215.632V220.132C96.1289 220.132 98.3548 219.556 100.082 218.129L97.2144 214.66ZM93.68 215.632H88.88V220.132H93.68V215.632ZM86.63 217.882V223.378H91.13V217.882H86.63ZM88.88 221.128H87.656V225.628H88.88V221.128ZM89.906 223.378V206.578H85.406V223.378H89.906ZM87.656 208.828H93.68V204.328H87.656V208.828ZM93.68 219.028C95.762 219.028 97.7237 218.577 99.2215 217.333L96.3465 213.872C95.9564 214.196 95.1821 214.528 93.68 214.528V219.028ZM99.2215 217.333C100.778 216.041 101.45 214.229 101.45 212.242H96.95C96.95 213.168 96.6781 213.596 96.3465 213.872L99.2215 217.333ZM101.45 212.242C101.45 210.256 100.778 208.444 99.2215 207.152L96.3465 210.613C96.6781 210.889 96.95 211.317 96.95 212.242H101.45ZM99.2387 207.166C97.7399 205.896 95.7712 205.432 93.68 205.432V209.932C95.1729 209.932 95.9402 210.269 96.3293 210.599L99.2387 207.166ZM93.68 205.432H88.88V209.932H93.68V205.432ZM86.63 207.682V216.778H91.13V207.682H86.63ZM88.88 219.028H93.68V214.528H88.88V219.028ZM118.57 222.274H120.82C120.82 221.032 119.813 220.024 118.57 220.024V222.274ZM118.57 223.378V225.628C119.813 225.628 120.82 224.621 120.82 223.378H118.57ZM106.978 223.378H104.728C104.728 224.621 105.735 225.628 106.978 225.628V223.378ZM106.978 206.578V204.328C105.735 204.328 104.728 205.336 104.728 206.578H106.978ZM118.21 206.578H120.46C120.46 205.336 119.453 204.328 118.21 204.328V206.578ZM118.21 207.682V209.932C119.453 209.932 120.46 208.925 120.46 207.682H118.21ZM108.202 207.682V205.432C106.959 205.432 105.952 206.44 105.952 207.682H108.202ZM108.202 214.306H105.952C105.952 215.549 106.959 216.556 108.202 216.556V214.306ZM117.154 214.306H119.404C119.404 213.064 118.397 212.056 117.154 212.056V214.306ZM117.154 215.386V217.636C118.397 217.636 119.404 216.629 119.404 215.386H117.154ZM108.202 215.386V213.136C106.959 213.136 105.952 214.144 105.952 215.386H108.202ZM108.202 222.274H105.952C105.952 223.517 106.959 224.524 108.202 224.524V222.274ZM116.32 222.274V223.378H120.82V222.274H116.32ZM118.57 221.128H106.978V225.628H118.57V221.128ZM109.228 223.378V206.578H104.728V223.378H109.228ZM106.978 208.828H118.21V204.328H106.978V208.828ZM115.96 206.578V207.682H120.46V206.578H115.96ZM118.21 205.432H108.202V209.932H118.21V205.432ZM105.952 207.682V214.306H110.452V207.682H105.952ZM108.202 216.556H117.154V212.056H108.202V216.556ZM114.904 214.306V215.386H119.404V214.306H114.904ZM117.154 213.136H108.202V217.636H117.154V213.136ZM105.952 215.386V222.274H110.452V215.386H105.952ZM108.202 224.524H118.57V220.024H108.202V224.524ZM137.097 223.378L135.265 224.686C135.688 225.277 136.37 225.628 137.097 225.628V223.378ZM133.089 217.762L134.92 216.455C134.435 215.776 133.614 215.421 132.787 215.533L133.089 217.762ZM126.657 217.882V215.632C125.414 215.632 124.407 216.64 124.407 217.882H126.657ZM126.657 223.378V225.628C127.899 225.628 128.907 224.621 128.907 223.378H126.657ZM125.433 223.378H123.183C123.183 224.621 124.19 225.628 125.433 225.628V223.378ZM125.433 206.578V204.328C124.19 204.328 123.183 205.336 123.183 206.578H125.433ZM136.425 208.09L134.978 209.813C134.982 209.817 134.987 209.821 134.991 209.825L136.425 208.09ZM137.193 215.602L135.396 214.247L135.393 214.252L137.193 215.602ZM134.289 217.498L133.66 215.338C132.96 215.542 132.402 216.073 132.163 216.762C131.924 217.451 132.034 218.213 132.458 218.806L134.289 217.498ZM138.489 223.378V225.628C139.332 225.628 140.104 225.157 140.489 224.408C140.875 223.659 140.809 222.757 140.32 222.071L138.489 223.378ZM135.561 215.626L136.998 217.357C137.004 217.353 137.01 217.348 137.015 217.343L135.561 215.626ZM135.561 208.882L134.106 210.599C134.112 210.604 134.117 210.609 134.123 210.613L135.561 208.882ZM126.657 207.682V205.432C125.414 205.432 124.407 206.44 124.407 207.682H126.657ZM126.657 216.802H124.407C124.407 218.045 125.414 219.052 126.657 219.052V216.802ZM138.928 222.071L134.92 216.455L131.257 219.07L135.265 224.686L138.928 222.071ZM132.787 215.533C132.276 215.602 131.834 215.632 131.457 215.632V220.132C132.071 220.132 132.718 220.083 133.39 219.992L132.787 215.533ZM131.457 215.632H126.657V220.132H131.457V215.632ZM124.407 217.882V223.378H128.907V217.882H124.407ZM126.657 221.128H125.433V225.628H126.657V221.128ZM127.683 223.378V206.578H123.183V223.378H127.683ZM125.433 208.828H131.457V204.328H125.433V208.828ZM131.457 208.828C133.224 208.828 134.305 209.248 134.978 209.813L137.872 206.368C136.145 204.917 133.913 204.328 131.457 204.328V208.828ZM134.991 209.825C135.598 210.326 135.975 211.031 135.975 212.242H140.475C140.475 209.902 139.652 207.839 137.858 206.356L134.991 209.825ZM135.975 212.242C135.975 213.164 135.744 213.787 135.396 214.247L138.989 216.958C140.018 215.594 140.475 213.977 140.475 212.242H135.975ZM135.393 214.252C135.062 214.693 134.541 215.082 133.66 215.338L134.918 219.659C136.564 219.179 137.979 218.304 138.993 216.952L135.393 214.252ZM132.458 218.806L136.658 224.686L140.32 222.071L136.12 216.191L132.458 218.806ZM138.489 221.128H137.097V225.628H138.489V221.128ZM131.457 219.052C133.539 219.052 135.5 218.601 136.998 217.357L134.123 213.896C133.733 214.22 132.959 214.552 131.457 214.552V219.052ZM137.015 217.343C138.555 216.038 139.227 214.23 139.227 212.242H134.727C134.727 213.167 134.455 213.615 134.106 213.91L137.015 217.343ZM139.227 212.242C139.227 210.256 138.555 208.444 136.998 207.152L134.123 210.613C134.455 210.889 134.727 211.317 134.727 212.242H139.227ZM137.015 207.166C135.517 205.896 133.548 205.432 131.457 205.432V209.932C132.95 209.932 133.717 210.269 134.106 210.599L137.015 207.166ZM131.457 205.432H126.657V209.932H131.457V205.432ZM124.407 207.682V216.802H128.907V207.682H124.407ZM126.657 219.052H131.457V214.552H126.657V219.052ZM146.33 207.682V205.432C145.087 205.432 144.08 206.44 144.08 207.682H146.33ZM146.33 214.858H144.08C144.08 216.101 145.087 217.108 146.33 217.108V214.858ZM155.282 214.858H157.532C157.532 213.616 156.525 212.608 155.282 212.608V214.858ZM155.282 215.962V218.212C156.525 218.212 157.532 217.205 157.532 215.962H155.282ZM146.33 215.962V213.712C145.087 213.712 144.08 214.72 144.08 215.962H146.33ZM146.33 223.378V225.628C147.573 225.628 148.58 224.621 148.58 223.378H146.33ZM145.106 223.378H142.856C142.856 224.621 143.863 225.628 145.106 225.628V223.378ZM145.106 206.578V204.328C143.863 204.328 142.856 205.336 142.856 206.578H145.106ZM156.338 206.578H158.588C158.588 205.336 157.581 204.328 156.338 204.328V206.578ZM156.338 207.682V209.932C157.581 209.932 158.588 208.925 158.588 207.682H156.338ZM144.08 207.682V214.858H148.58V207.682H144.08ZM146.33 217.108H155.282V212.608H146.33V217.108ZM153.032 214.858V215.962H157.532V214.858H153.032ZM155.282 213.712H146.33V218.212H155.282V213.712ZM144.08 215.962V223.378H148.58V215.962H144.08ZM146.33 221.128H145.106V225.628H146.33V221.128ZM147.356 223.378V206.578H142.856V223.378H147.356ZM145.106 208.828H156.338V204.328H145.106V208.828ZM154.088 206.578V207.682H158.588V206.578H154.088ZM156.338 205.432H146.33V209.932H156.338V205.432ZM174.239 222.274H176.489C176.489 221.032 175.481 220.024 174.239 220.024V222.274ZM174.239 223.378V225.628C175.481 225.628 176.489 224.621 176.489 223.378H174.239ZM162.647 223.378H160.397C160.397 224.621 161.404 225.628 162.647 225.628V223.378ZM162.647 206.578V204.328C161.404 204.328 160.397 205.336 160.397 206.578H162.647ZM173.879 206.578H176.129C176.129 205.336 175.121 204.328 173.879 204.328V206.578ZM173.879 207.682V209.932C175.121 209.932 176.129 208.925 176.129 207.682H173.879ZM163.871 207.682V205.432C162.628 205.432 161.621 206.44 161.621 207.682H163.871ZM163.871 214.306H161.621C161.621 215.549 162.628 216.556 163.871 216.556V214.306ZM172.823 214.306H175.073C175.073 213.064 174.065 212.056 172.823 212.056V214.306ZM172.823 215.386V217.636C174.065 217.636 175.073 216.629 175.073 215.386H172.823ZM163.871 215.386V213.136C162.628 213.136 161.621 214.144 161.621 215.386H163.871ZM163.871 222.274H161.621C161.621 223.517 162.628 224.524 163.871 224.524V222.274ZM171.989 222.274V223.378H176.489V222.274H171.989ZM174.239 221.128H162.647V225.628H174.239V221.128ZM164.897 223.378V206.578H160.397V223.378H164.897ZM162.647 208.828H173.879V204.328H162.647V208.828ZM171.629 206.578V207.682H176.129V206.578H171.629ZM173.879 205.432H163.871V209.932H173.879V205.432ZM161.621 207.682V214.306H166.121V207.682H161.621ZM163.871 216.556H172.823V212.056H163.871V216.556ZM170.573 214.306V215.386H175.073V214.306H170.573ZM172.823 213.136H163.871V217.636H172.823V213.136ZM161.621 215.386V222.274H166.121V215.386H161.621ZM163.871 224.524H174.239V220.024H163.871V224.524ZM185.517 207.682H187.767C187.767 206.44 186.76 205.432 185.517 205.432V207.682ZM179.469 207.682H177.219C177.219 208.925 178.227 209.932 179.469 209.932V207.682ZM179.469 206.578V204.328C178.227 204.328 177.219 205.336 177.219 206.578H179.469ZM192.789 206.578H195.039C195.039 205.336 194.032 204.328 192.789 204.328V206.578ZM192.789 207.682V209.932C194.032 209.932 195.039 208.925 195.039 207.682H192.789ZM186.741 207.682V205.432C185.499 205.432 184.491 206.44 184.491 207.682H186.741ZM186.741 223.378V225.628C187.984 225.628 188.991 224.621 188.991 223.378H186.741ZM185.517 223.378H183.267C183.267 224.621 184.275 225.628 185.517 225.628V223.378ZM185.517 205.432H179.469V209.932H185.517V205.432ZM181.719 207.682V206.578H177.219V207.682H181.719ZM179.469 208.828H192.789V204.328H179.469V208.828ZM190.539 206.578V207.682H195.039V206.578H190.539ZM192.789 205.432H186.741V209.932H192.789V205.432ZM184.491 207.682V223.378H188.991V207.682H184.491ZM186.741 221.128H185.517V225.628H186.741V221.128ZM187.767 223.378V207.682H183.267V223.378H187.767ZM204.441 207.682H206.691C206.691 206.44 205.684 205.432 204.441 205.432V207.682ZM198.393 207.682H196.143C196.143 208.925 197.15 209.932 198.393 209.932V207.682ZM198.393 206.578V204.328C197.15 204.328 196.143 205.336 196.143 206.578H198.393ZM211.713 206.578H213.963C213.963 205.336 212.956 204.328 211.713 204.328V206.578ZM211.713 207.682V209.932C212.956 209.932 213.963 208.925 213.963 207.682H211.713ZM205.665 207.682V205.432C204.422 205.432 203.415 206.44 203.415 207.682H205.665ZM205.665 223.378V225.628C206.908 225.628 207.915 224.621 207.915 223.378H205.665ZM204.441 223.378H202.191C202.191 224.621 203.198 225.628 204.441 225.628V223.378ZM204.441 205.432H198.393V209.932H204.441V205.432ZM200.643 207.682V206.578H196.143V207.682H200.643ZM198.393 208.828H211.713V204.328H198.393V208.828ZM209.463 206.578V207.682H213.963V206.578H209.463ZM211.713 205.432H205.665V209.932H211.713V205.432ZM203.415 207.682V223.378H207.915V207.682H203.415ZM205.665 221.128H204.441V225.628H205.665V221.128ZM206.691 223.378V207.682H202.191V223.378H206.691ZM219.578 222.394L218.469 224.352C218.475 224.356 218.481 224.359 218.487 224.362L219.578 222.394ZM216.434 219.322L214.488 220.452C214.491 220.458 214.495 220.464 214.498 220.47L216.434 219.322ZM216.434 210.634L214.498 209.487C214.495 209.493 214.491 209.499 214.488 209.505L216.434 210.634ZM219.578 207.586L220.669 209.554C220.675 209.551 220.681 209.548 220.687 209.544L219.578 207.586ZM231.626 210.61L229.68 211.74C229.683 211.746 229.687 211.752 229.69 211.758L231.626 210.61ZM231.626 219.346L229.69 218.199C229.687 218.205 229.683 218.211 229.68 218.217L231.626 219.346ZM228.506 222.394L229.597 224.362L228.506 222.394ZM227.858 221.41L226.754 219.45L227.858 221.41ZM230.546 218.77L232.487 219.908L232.494 219.896L230.546 218.77ZM230.546 211.21L228.597 212.336L228.604 212.348L230.546 211.21ZM227.858 208.546L226.754 210.507L227.858 208.546ZM220.202 208.546L219.109 206.58L219.098 206.586L220.202 208.546ZM217.514 211.21L219.455 212.348L219.462 212.336L217.514 211.21ZM217.514 218.77L215.565 219.896L215.572 219.908L217.514 218.77ZM220.202 221.41L219.098 223.371L219.109 223.377L220.202 221.41ZM224.042 221.248C222.742 221.248 221.635 220.962 220.669 220.427L218.487 224.362C220.177 225.299 222.046 225.748 224.042 225.748V221.248ZM220.687 220.437C219.696 219.875 218.935 219.129 218.37 218.175L214.498 220.47C215.469 222.108 216.804 223.41 218.469 224.352L220.687 220.437ZM218.38 218.193C217.841 217.264 217.556 216.21 217.556 214.978H213.056C213.056 216.947 213.523 218.789 214.488 220.452L218.38 218.193ZM217.556 214.978C217.556 213.747 217.841 212.693 218.38 211.764L214.488 209.505C213.523 211.168 213.056 213.01 213.056 214.978H217.556ZM218.37 211.782C218.932 210.832 219.687 210.098 220.669 209.554L218.487 205.619C216.813 206.547 215.472 207.845 214.498 209.487L218.37 211.782ZM220.687 209.544C221.65 208.999 222.751 208.708 224.042 208.708V204.208C222.037 204.208 220.162 204.67 218.469 205.629L220.687 209.544ZM224.042 208.708C225.342 208.708 226.449 208.995 227.415 209.53L229.597 205.595C227.907 204.658 226.038 204.208 224.042 204.208V208.708ZM227.415 209.53C228.393 210.072 229.135 210.8 229.68 211.74L233.572 209.481C232.613 207.829 231.275 206.525 229.597 205.595L227.415 209.53ZM229.69 211.758C230.238 212.681 230.528 213.736 230.528 214.978H235.028C235.028 212.989 234.55 211.132 233.562 209.463L229.69 211.758ZM230.528 214.978C230.528 216.221 230.238 217.276 229.69 218.199L233.562 220.494C234.55 218.825 235.028 216.968 235.028 214.978H230.528ZM229.68 218.217C229.135 219.157 228.393 219.885 227.415 220.427L229.597 224.362C231.275 223.432 232.613 222.128 233.572 220.476L229.68 218.217ZM227.415 220.427C226.449 220.962 225.342 221.248 224.042 221.248V225.748C226.038 225.748 227.907 225.299 229.597 224.362L227.415 220.427ZM224.042 224.62C225.805 224.62 227.463 224.216 228.962 223.371L226.754 219.45C225.981 219.885 225.095 220.12 224.042 220.12V224.62ZM228.962 223.371C230.444 222.536 231.629 221.373 232.487 219.908L228.604 217.633C228.151 218.408 227.544 219.005 226.754 219.45L228.962 223.371ZM232.494 219.896C233.36 218.397 233.78 216.74 233.78 214.978H229.28C229.28 216.001 229.044 216.872 228.597 217.645L232.494 219.896ZM233.78 214.978C233.78 213.217 233.36 211.563 232.487 210.073L228.604 212.348C229.044 213.098 229.28 213.956 229.28 214.978H233.78ZM232.494 210.085C231.638 208.603 230.452 207.425 228.962 206.586L226.754 210.507C227.536 210.948 228.142 211.546 228.597 212.336L232.494 210.085ZM228.962 206.586C227.463 205.741 225.805 205.336 224.042 205.336V209.836C225.095 209.836 225.981 210.072 226.754 210.507L228.962 206.586ZM224.042 205.336C222.279 205.336 220.618 205.741 219.109 206.58L221.295 210.513C222.09 210.072 222.989 209.836 224.042 209.836V205.336ZM219.098 206.586C217.608 207.425 216.422 208.603 215.565 210.085L219.462 212.336C219.918 211.546 220.524 210.948 221.306 210.507L219.098 206.586ZM215.572 210.073C214.7 211.563 214.28 213.217 214.28 214.978H218.78C218.78 213.956 219.016 213.098 219.455 212.348L215.572 210.073ZM214.28 214.978C214.28 216.74 214.7 218.397 215.565 219.896L219.462 217.645C219.016 216.872 218.78 216.001 218.78 214.978H214.28ZM215.572 219.908C216.431 221.373 217.616 222.536 219.098 223.371L221.306 219.45C220.516 219.005 219.909 218.408 219.455 217.633L215.572 219.908ZM219.109 223.377C220.618 224.216 222.279 224.62 224.042 224.62V220.12C222.989 220.12 222.09 219.885 221.295 219.444L219.109 223.377Z" fill="white"/>
<mask id="mask0_159_46" style="mask-type:alpha" maskUnits="userSpaceOnUse" x="30" y="126" width="228" height="56">
<path d="M33.762 129.898H36.204V152.998H33.762V129.898ZM71.011 129.898V152.998H68.668V134.518L59.593 150.061H58.438L49.363 134.617V152.998H47.02V129.898H49.033L59.065 147.025L68.998 129.898H71.011ZM90.4836 129.898C93.4316 129.898 95.7416 130.602 97.4136 132.01C99.0856 133.418 99.9216 135.354 99.9216 137.818C99.9216 140.282 99.0856 142.218 97.4136 143.626C95.7416 145.012 93.4316 145.705 90.4836 145.705H84.2796V152.998H81.8376V129.898H90.4836ZM90.4176 143.56C92.7056 143.56 94.4546 143.065 95.6646 142.075C96.8746 141.063 97.4796 139.644 97.4796 137.818C97.4796 135.948 96.8746 134.518 95.6646 133.528C94.4546 132.516 92.7056 132.01 90.4176 132.01H84.2796V143.56H90.4176ZM124.837 150.886V152.998H108.502V129.898H124.342V132.01H110.944V140.227H122.89V142.306H110.944V150.886H124.837ZM149.651 152.998L144.371 145.573C143.777 145.639 143.161 145.672 142.523 145.672H136.319V152.998H133.877V129.898H142.523C145.471 129.898 147.781 130.602 149.453 132.01C151.125 133.418 151.961 135.354 151.961 137.818C151.961 139.622 151.499 141.151 150.575 142.405C149.673 143.637 148.375 144.528 146.681 145.078L152.324 152.998H149.651ZM142.457 143.593C144.745 143.593 146.494 143.087 147.704 142.075C148.914 141.063 149.519 139.644 149.519 137.818C149.519 135.948 148.914 134.518 147.704 133.528C146.494 132.516 144.745 132.01 142.457 132.01H136.319V143.593H142.457ZM163.467 132.01V141.085H175.413V143.197H163.467V152.998H161.025V129.898H176.865V132.01H163.467ZM201.543 150.886V152.998H185.208V129.898H201.048V132.01H187.65V140.227H199.596V142.306H187.65V150.886H201.543ZM220.615 153.196C218.327 153.196 216.259 152.69 214.411 151.678C212.585 150.666 211.144 149.269 210.088 147.487C209.054 145.683 208.537 143.67 208.537 141.448C208.537 139.226 209.054 137.224 210.088 135.442C211.144 133.638 212.596 132.23 214.444 131.218C216.292 130.206 218.36 129.7 220.648 129.7C222.364 129.7 223.948 129.986 225.4 130.558C226.852 131.13 228.084 131.966 229.096 133.066L227.545 134.617C225.741 132.791 223.464 131.878 220.714 131.878C218.888 131.878 217.227 132.296 215.731 133.132C214.235 133.968 213.058 135.112 212.2 136.564C211.364 138.016 210.946 139.644 210.946 141.448C210.946 143.252 211.364 144.88 212.2 146.332C213.058 147.784 214.235 148.928 215.731 149.764C217.227 150.6 218.888 151.018 220.714 151.018C223.486 151.018 225.763 150.094 227.545 148.246L229.096 149.797C228.084 150.897 226.841 151.744 225.367 152.338C223.915 152.91 222.331 153.196 220.615 153.196ZM243.739 132.01H235.621V129.898H254.299V132.01H246.181V152.998H243.739V132.01Z" fill="white"/>
<path d="M33.762 129.898V126.898C32.1051 126.898 30.762 128.241 30.762 129.898H33.762ZM36.204 129.898H39.204C39.204 128.241 37.8609 126.898 36.204 126.898V129.898ZM36.204 152.998V155.998C37.8609 155.998 39.204 154.655 39.204 152.998H36.204ZM33.762 152.998H30.762C30.762 154.655 32.1051 155.998 33.762 155.998V152.998ZM33.762 132.898H36.204V126.898H33.762V132.898ZM33.204 129.898V152.998H39.204V129.898H33.204ZM36.204 149.998H33.762V155.998H36.204V149.998ZM36.762 152.998V129.898H30.762V152.998H36.762ZM71.011 129.898H74.011C74.011 128.241 72.6679 126.898 71.011 126.898V129.898ZM71.011 152.998V155.998C72.6679 155.998 74.011 154.655 74.011 152.998H71.011ZM68.668 152.998H65.668C65.668 154.655 67.0112 155.998 68.668 155.998V152.998ZM68.668 134.518H71.668C71.668 133.163 70.7596 131.976 69.4515 131.622C68.1435 131.268 66.7605 131.835 66.0773 133.005L68.668 134.518ZM59.593 150.061V153.061C60.6596 153.061 61.646 152.495 62.1837 151.574L59.593 150.061ZM58.438 150.061L55.8515 151.581C56.3903 152.498 57.3744 153.061 58.438 153.061V150.061ZM49.363 134.617L51.9495 133.097C51.2638 131.93 49.8815 131.367 48.5755 131.722C47.2694 132.078 46.363 133.264 46.363 134.617H49.363ZM49.363 152.998V155.998C51.0199 155.998 52.363 154.655 52.363 152.998H49.363ZM47.02 152.998H44.02C44.02 154.655 45.3632 155.998 47.02 155.998V152.998ZM47.02 129.898V126.898C45.3632 126.898 44.02 128.241 44.02 129.898H47.02ZM49.033 129.898L51.6216 128.382C51.0833 127.463 50.0981 126.898 49.033 126.898V129.898ZM59.065 147.025L56.4764 148.541C57.0159 149.462 58.0041 150.027 59.0715 150.025C60.1389 150.023 61.1246 149.454 61.6601 148.53L59.065 147.025ZM68.998 129.898V126.898C67.9283 126.898 66.9395 127.468 66.4029 128.393L68.998 129.898ZM68.011 129.898V152.998H74.011V129.898H68.011ZM71.011 149.998H68.668V155.998H71.011V149.998ZM71.668 152.998V134.518H65.668V152.998H71.668ZM66.0773 133.005L57.0023 148.548L62.1837 151.574L71.2587 136.031L66.0773 133.005ZM59.593 147.061H58.438V153.061H59.593V147.061ZM61.0245 148.541L51.9495 133.097L46.7765 136.137L55.8515 151.581L61.0245 148.541ZM46.363 134.617V152.998H52.363V134.617H46.363ZM49.363 149.998H47.02V155.998H49.363V149.998ZM50.02 152.998V129.898H44.02V152.998H50.02ZM47.02 132.898H49.033V126.898H47.02V132.898ZM46.4444 131.414L56.4764 148.541L61.6536 145.509L51.6216 128.382L46.4444 131.414ZM61.6601 148.53L71.5931 131.403L66.4029 128.393L56.4699 145.52L61.6601 148.53ZM68.998 132.898H71.011V126.898H68.998V132.898ZM97.4136 132.01L95.4812 134.305L97.4136 132.01ZM97.4136 143.626L99.3282 145.936C99.3341 145.931 99.3401 145.926 99.346 145.921L97.4136 143.626ZM84.2796 145.705V142.705C82.6227 142.705 81.2796 144.048 81.2796 145.705H84.2796ZM84.2796 152.998V155.998C85.9364 155.998 87.2796 154.655 87.2796 152.998H84.2796ZM81.8376 152.998H78.8376C78.8376 154.655 80.1807 155.998 81.8376 155.998V152.998ZM81.8376 129.898V126.898C80.1807 126.898 78.8376 128.241 78.8376 129.898H81.8376ZM95.6646 142.075L97.5643 144.397C97.5727 144.39 97.581 144.383 97.5892 144.376L95.6646 142.075ZM95.6646 133.528L93.7399 135.829C93.7482 135.836 93.7565 135.843 93.7649 135.85L95.6646 133.528ZM84.2796 132.01V129.01C82.6227 129.01 81.2796 130.353 81.2796 132.01H84.2796ZM84.2796 143.56H81.2796C81.2796 145.217 82.6227 146.56 84.2796 146.56V143.56ZM90.4836 132.898C92.9719 132.898 94.5132 133.49 95.4812 134.305L99.346 129.715C96.97 127.714 93.8913 126.898 90.4836 126.898V132.898ZM95.4812 134.305C96.3852 135.066 96.9216 136.113 96.9216 137.818H102.922C102.922 134.596 101.786 131.77 99.346 129.715L95.4812 134.305ZM96.9216 137.818C96.9216 139.524 96.3852 140.57 95.4812 141.331L99.346 145.921C101.786 143.866 102.922 141.041 102.922 137.818H96.9216ZM95.499 141.316C94.5304 142.119 92.9821 142.705 90.4836 142.705V148.705C93.881 148.705 96.9527 147.905 99.3282 145.936L95.499 141.316ZM90.4836 142.705H84.2796V148.705H90.4836V142.705ZM81.2796 145.705V152.998H87.2796V145.705H81.2796ZM84.2796 149.998H81.8376V155.998H84.2796V149.998ZM84.8376 152.998V129.898H78.8376V152.998H84.8376ZM81.8376 132.898H90.4836V126.898H81.8376V132.898ZM90.4176 146.56C93.0868 146.56 95.6187 145.989 97.5643 144.397L93.7649 139.753C93.2904 140.141 92.3244 140.56 90.4176 140.56V146.56ZM97.5892 144.376C99.5921 142.701 100.48 140.376 100.48 137.818H94.4796C94.4796 138.912 94.1571 139.425 93.7399 139.774L97.5892 144.376ZM100.48 137.818C100.48 135.244 99.6091 132.879 97.5643 131.206L93.7649 135.85C94.1401 136.157 94.4796 136.652 94.4796 137.818H100.48ZM97.5892 131.227C95.6421 129.598 93.0998 129.01 90.4176 129.01V135.01C92.3113 135.01 93.2671 135.434 93.7399 135.829L97.5892 131.227ZM90.4176 129.01H84.2796V135.01H90.4176V129.01ZM81.2796 132.01V143.56H87.2796V132.01H81.2796ZM84.2796 146.56H90.4176V140.56H84.2796V146.56ZM124.837 150.886H127.837C127.837 149.229 126.494 147.886 124.837 147.886V150.886ZM124.837 152.998V155.998C126.494 155.998 127.837 154.655 127.837 152.998H124.837ZM108.502 152.998H105.502C105.502 154.655 106.845 155.998 108.502 155.998V152.998ZM108.502 129.898V126.898C106.845 126.898 105.502 128.241 105.502 129.898H108.502ZM124.342 129.898H127.342C127.342 128.241 125.999 126.898 124.342 126.898V129.898ZM124.342 132.01V135.01C125.999 135.01 127.342 133.667 127.342 132.01H124.342ZM110.944 132.01V129.01C109.287 129.01 107.944 130.353 107.944 132.01H110.944ZM110.944 140.227H107.944C107.944 141.884 109.287 143.227 110.944 143.227V140.227ZM122.89 140.227H125.89C125.89 138.57 124.547 137.227 122.89 137.227V140.227ZM122.89 142.306V145.306C124.547 145.306 125.89 143.963 125.89 142.306H122.89ZM110.944 142.306V139.306C109.287 139.306 107.944 140.649 107.944 142.306H110.944ZM110.944 150.886H107.944C107.944 152.543 109.287 153.886 110.944 153.886V150.886ZM121.837 150.886V152.998H127.837V150.886H121.837ZM124.837 149.998H108.502V155.998H124.837V149.998ZM111.502 152.998V129.898H105.502V152.998H111.502ZM108.502 132.898H124.342V126.898H108.502V132.898ZM121.342 129.898V132.01H127.342V129.898H121.342ZM124.342 129.01H110.944V135.01H124.342V129.01ZM107.944 132.01V140.227H113.944V132.01H107.944ZM110.944 143.227H122.89V137.227H110.944V143.227ZM119.89 140.227V142.306H125.89V140.227H119.89ZM122.89 139.306H110.944V145.306H122.89V139.306ZM107.944 142.306V150.886H113.944V142.306H107.944ZM110.944 153.886H124.837V147.886H110.944V153.886ZM149.651 152.998L147.206 154.737C147.769 155.528 148.68 155.998 149.651 155.998V152.998ZM144.371 145.573L146.816 143.835C146.185 142.947 145.122 142.471 144.04 142.591L144.371 145.573ZM136.319 145.672V142.672C134.662 142.672 133.319 144.015 133.319 145.672H136.319ZM136.319 152.998V155.998C137.976 155.998 139.319 154.655 139.319 152.998H136.319ZM133.877 152.998H130.877C130.877 154.655 132.22 155.998 133.877 155.998V152.998ZM133.877 129.898V126.898C132.22 126.898 130.877 128.241 130.877 129.898H133.877ZM149.453 132.01L147.521 134.305L149.453 132.01ZM150.575 142.405L148.16 140.625L148.154 140.633L150.575 142.405ZM146.681 145.078L145.755 142.225C144.846 142.52 144.132 143.23 143.832 144.138C143.533 145.045 143.683 146.041 144.238 146.819L146.681 145.078ZM152.324 152.998V155.998C153.447 155.998 154.476 155.371 154.991 154.372C155.505 153.374 155.419 152.172 154.767 151.257L152.324 152.998ZM147.704 142.075L149.629 144.376L147.704 142.075ZM147.704 133.528L145.779 135.829C145.788 135.836 145.796 135.843 145.804 135.85L147.704 133.528ZM136.319 132.01V129.01C134.662 129.01 133.319 130.353 133.319 132.01H136.319ZM136.319 143.593H133.319C133.319 145.25 134.662 146.593 136.319 146.593V143.593ZM152.096 151.26L146.816 143.835L141.926 147.312L147.206 154.737L152.096 151.26ZM144.04 142.591C143.563 142.644 143.058 142.672 142.523 142.672V148.672C143.264 148.672 143.991 148.634 144.702 148.555L144.04 142.591ZM142.523 142.672H136.319V148.672H142.523V142.672ZM133.319 145.672V152.998H139.319V145.672H133.319ZM136.319 149.998H133.877V155.998H136.319V149.998ZM136.877 152.998V129.898H130.877V152.998H136.877ZM133.877 132.898H142.523V126.898H133.877V132.898ZM142.523 132.898C145.011 132.898 146.553 133.49 147.521 134.305L151.385 129.715C149.009 127.714 145.931 126.898 142.523 126.898V132.898ZM147.521 134.305C148.425 135.066 148.961 136.113 148.961 137.818H154.961C154.961 134.596 153.825 131.77 151.385 129.715L147.521 134.305ZM148.961 137.818C148.961 139.087 148.646 139.966 148.16 140.625L152.99 144.185C154.352 142.337 154.961 140.157 154.961 137.818H148.961ZM148.154 140.633C147.684 141.276 146.952 141.836 145.755 142.225L147.607 147.931C149.798 147.22 151.662 145.999 152.996 144.177L148.154 140.633ZM144.238 146.819L149.881 154.739L154.767 151.257L149.124 143.337L144.238 146.819ZM152.324 149.998H149.651V155.998H152.324V149.998ZM142.457 146.593C145.139 146.593 147.682 146.005 149.629 144.376L145.779 139.774C145.307 140.169 144.351 140.593 142.457 140.593V146.593ZM149.629 144.376C151.632 142.701 152.519 140.376 152.519 137.818H146.519C146.519 138.912 146.197 139.425 145.779 139.774L149.629 144.376ZM152.519 137.818C152.519 135.244 151.649 132.879 149.604 131.206L145.804 135.85C146.18 136.157 146.519 136.652 146.519 137.818H152.519ZM149.629 131.227C147.682 129.598 145.139 129.01 142.457 129.01V135.01C144.351 135.01 145.307 135.434 145.779 135.829L149.629 131.227ZM142.457 129.01H136.319V135.01H142.457V129.01ZM133.319 132.01V143.593H139.319V132.01H133.319ZM136.319 146.593H142.457V140.593H136.319V146.593ZM163.467 132.01V129.01C161.81 129.01 160.467 130.353 160.467 132.01H163.467ZM163.467 141.085H160.467C160.467 142.742 161.81 144.085 163.467 144.085V141.085ZM175.413 141.085H178.413C178.413 139.428 177.07 138.085 175.413 138.085V141.085ZM175.413 143.197V146.197C177.07 146.197 178.413 144.854 178.413 143.197H175.413ZM163.467 143.197V140.197C161.81 140.197 160.467 141.54 160.467 143.197H163.467ZM163.467 152.998V155.998C165.124 155.998 166.467 154.655 166.467 152.998H163.467ZM161.025 152.998H158.025C158.025 154.655 159.368 155.998 161.025 155.998V152.998ZM161.025 129.898V126.898C159.368 126.898 158.025 128.241 158.025 129.898H161.025ZM176.865 129.898H179.865C179.865 128.241 178.522 126.898 176.865 126.898V129.898ZM176.865 132.01V135.01C178.522 135.01 179.865 133.667 179.865 132.01H176.865ZM160.467 132.01V141.085H166.467V132.01H160.467ZM163.467 144.085H175.413V138.085H163.467V144.085ZM172.413 141.085V143.197H178.413V141.085H172.413ZM175.413 140.197H163.467V146.197H175.413V140.197ZM160.467 143.197V152.998H166.467V143.197H160.467ZM163.467 149.998H161.025V155.998H163.467V149.998ZM164.025 152.998V129.898H158.025V152.998H164.025ZM161.025 132.898H176.865V126.898H161.025V132.898ZM173.865 129.898V132.01H179.865V129.898H173.865ZM176.865 129.01H163.467V135.01H176.865V129.01ZM201.543 150.886H204.543C204.543 149.229 203.199 147.886 201.543 147.886V150.886ZM201.543 152.998V155.998C203.199 155.998 204.543 154.655 204.543 152.998H201.543ZM185.208 152.998H182.208C182.208 154.655 183.551 155.998 185.208 155.998V152.998ZM185.208 129.898V126.898C183.551 126.898 182.208 128.241 182.208 129.898H185.208ZM201.048 129.898H204.048C204.048 128.241 202.704 126.898 201.048 126.898V129.898ZM201.048 132.01V135.01C202.704 135.01 204.048 133.667 204.048 132.01H201.048ZM187.65 132.01V129.01C185.993 129.01 184.65 130.353 184.65 132.01H187.65ZM187.65 140.227H184.65C184.65 141.884 185.993 143.227 187.65 143.227V140.227ZM199.596 140.227H202.596C202.596 138.57 201.252 137.227 199.596 137.227V140.227ZM199.596 142.306V145.306C201.252 145.306 202.596 143.963 202.596 142.306H199.596ZM187.65 142.306V139.306C185.993 139.306 184.65 140.649 184.65 142.306H187.65ZM187.65 150.886H184.65C184.65 152.543 185.993 153.886 187.65 153.886V150.886ZM198.543 150.886V152.998H204.543V150.886H198.543ZM201.543 149.998H185.208V155.998H201.543V149.998ZM188.208 152.998V129.898H182.208V152.998H188.208ZM185.208 132.898H201.048V126.898H185.208V132.898ZM198.048 129.898V132.01H204.048V129.898H198.048ZM201.048 129.01H187.65V135.01H201.048V129.01ZM184.65 132.01V140.227H190.65V132.01H184.65ZM187.65 143.227H199.596V137.227H187.65V143.227ZM196.596 140.227V142.306H202.596V140.227H196.596ZM199.596 139.306H187.65V145.306H199.596V139.306ZM184.65 142.306V150.886H190.65V142.306H184.65ZM187.65 153.886H201.543V147.886H187.65V153.886ZM214.411 151.678L212.956 154.302C212.961 154.305 212.965 154.307 212.97 154.309L214.411 151.678ZM210.088 147.487L207.485 148.979C207.492 148.992 207.499 149.004 207.507 149.016L210.088 147.487ZM210.088 135.442L207.499 133.927L207.493 133.936L210.088 135.442ZM214.444 131.218L213.003 128.587L214.444 131.218ZM225.4 130.558L224.3 133.349L225.4 130.558ZM229.096 133.066L231.217 135.187C232.354 134.05 232.392 132.219 231.303 131.035L229.096 133.066ZM227.545 134.617L225.411 136.726C225.972 137.294 226.737 137.615 227.536 137.617C228.334 137.619 229.101 137.303 229.666 136.738L227.545 134.617ZM215.731 133.132L214.267 130.513L215.731 133.132ZM212.2 136.564L209.617 135.038C209.611 135.048 209.605 135.057 209.6 135.067L212.2 136.564ZM212.2 146.332L209.6 147.829C209.605 147.839 209.611 147.849 209.617 147.858L212.2 146.332ZM215.731 149.764L214.267 152.383L215.731 149.764ZM227.545 148.246L229.666 146.125C229.097 145.555 228.323 145.239 227.517 145.246C226.712 145.254 225.944 145.584 225.385 146.164L227.545 148.246ZM229.096 149.797L231.303 151.828C232.392 150.645 232.354 148.813 231.217 147.676L229.096 149.797ZM225.367 152.338L226.466 155.129C226.474 155.126 226.481 155.124 226.488 155.121L225.367 152.338ZM220.615 150.196C218.786 150.196 217.221 149.796 215.852 149.047L212.97 154.309C215.297 155.584 217.867 156.196 220.615 156.196V150.196ZM215.865 149.054C214.501 148.298 213.451 147.277 212.669 145.958L207.507 149.016C208.837 151.261 210.668 153.034 212.956 154.302L215.865 149.054ZM212.69 145.995C211.935 144.677 211.537 143.184 211.537 141.448H205.537C205.537 144.156 206.173 146.69 207.485 148.979L212.69 145.995ZM211.537 141.448C211.537 139.712 211.935 138.237 212.683 136.948L207.493 133.936C206.173 136.212 205.537 138.74 205.537 141.448H211.537ZM212.677 136.958C213.456 135.627 214.509 134.603 215.885 133.849L213.003 128.587C210.682 129.858 208.832 131.65 207.499 133.927L212.677 136.958ZM215.885 133.849C217.254 133.1 218.819 132.7 220.648 132.7V126.7C217.9 126.7 215.33 127.312 213.003 128.587L215.885 133.849ZM220.648 132.7C222.025 132.7 223.232 132.928 224.3 133.349L226.499 127.767C224.664 127.044 222.703 126.7 220.648 126.7V132.7ZM224.3 133.349C225.349 133.763 226.197 134.346 226.888 135.097L231.303 131.035C229.971 129.586 228.354 128.498 226.499 127.767L224.3 133.349ZM226.974 130.945L225.423 132.496L229.666 136.738L231.217 135.187L226.974 130.945ZM229.679 132.509C227.268 130.069 224.202 128.878 220.714 128.878V134.878C222.725 134.878 224.213 135.514 225.411 136.726L229.679 132.509ZM220.714 128.878C218.41 128.878 216.24 129.411 214.267 130.513L217.194 135.751C218.214 135.181 219.365 134.878 220.714 134.878V128.878ZM214.267 130.513C212.316 131.604 210.749 133.121 209.617 135.038L214.782 138.09C215.366 137.103 216.153 136.332 217.194 135.751L214.267 130.513ZM209.6 135.067C208.482 137.009 207.946 139.16 207.946 141.448H213.946C213.946 140.128 214.246 139.023 214.8 138.061L209.6 135.067ZM207.946 141.448C207.946 143.736 208.482 145.887 209.6 147.829L214.8 144.835C214.246 143.873 213.946 142.768 213.946 141.448H207.946ZM209.617 147.858C210.749 149.775 212.316 151.292 214.267 152.383L217.194 147.145C216.153 146.564 215.366 145.793 214.782 144.806L209.617 147.858ZM214.267 152.383C216.24 153.485 218.41 154.018 220.714 154.018V148.018C219.365 148.018 218.214 147.715 217.194 147.145L214.267 152.383ZM220.714 154.018C224.228 154.018 227.309 152.813 229.704 150.328L225.385 146.164C224.217 147.375 222.743 148.018 220.714 148.018V154.018ZM225.423 150.367L226.974 151.918L231.217 147.676L229.666 146.125L225.423 150.367ZM226.888 147.766C226.197 148.517 225.333 149.117 224.245 149.556L226.488 155.121C228.349 154.371 229.971 153.277 231.303 151.828L226.888 147.766ZM224.267 149.547C223.199 149.968 221.992 150.196 220.615 150.196V156.196C222.67 156.196 224.631 155.852 226.466 155.129L224.267 149.547ZM243.739 132.01H246.739C246.739 130.353 245.396 129.01 243.739 129.01V132.01ZM235.621 132.01H232.621C232.621 133.667 233.965 135.01 235.621 135.01V132.01ZM235.621 129.898V126.898C233.965 126.898 232.621 128.241 232.621 129.898H235.621ZM254.299 129.898H257.299C257.299 128.241 255.956 126.898 254.299 126.898V129.898ZM254.299 132.01V135.01C255.956 135.01 257.299 133.667 257.299 132.01H254.299ZM246.181 132.01V129.01C244.525 129.01 243.181 130.353 243.181 132.01H246.181ZM246.181 152.998V155.998C247.838 155.998 249.181 154.655 249.181 152.998H246.181ZM243.739 152.998H240.739C240.739 154.655 242.083 155.998 243.739 155.998V152.998ZM243.739 129.01H235.621V135.01H243.739V129.01ZM238.621 132.01V129.898H232.621V132.01H238.621ZM235.621 132.898H254.299V126.898H235.621V132.898ZM251.299 129.898V132.01H257.299V129.898H251.299ZM254.299 129.01H246.181V135.01H254.299V129.01ZM243.181 132.01V152.998H249.181V132.01H243.181ZM246.181 149.998H243.739V155.998H246.181V149.998ZM246.739 152.998V132.01H240.739V152.998H246.739Z" fill="white"/>
<path d="M110.28 165.378H105.08V164.998H115.88V165.378H110.68V178.998H110.28V165.378ZM129.937 178.618V178.998H120.617V164.998H129.637V165.378H121.017V171.698H128.737V172.078H121.017V178.618H129.937ZM146.976 164.998V178.998H146.636L136.376 165.738V178.998H135.976V164.998H136.316L146.576 178.258V164.998H146.976ZM157.725 179.058C156.711 179.058 155.758 178.878 154.865 178.518C153.971 178.145 153.285 177.665 152.805 177.078L153.085 176.818C153.538 177.351 154.185 177.798 155.025 178.158C155.865 178.505 156.758 178.678 157.705 178.678C159.158 178.678 160.251 178.391 160.985 177.818C161.731 177.231 162.105 176.478 162.105 175.558C162.105 174.838 161.911 174.265 161.525 173.838C161.138 173.411 160.658 173.091 160.085 172.878C159.525 172.665 158.765 172.445 157.805 172.218C156.778 171.965 155.965 171.725 155.365 171.498C154.765 171.258 154.251 170.898 153.825 170.418C153.411 169.925 153.205 169.271 153.205 168.458C153.205 167.818 153.371 167.231 153.705 166.698C154.038 166.165 154.558 165.738 155.265 165.418C155.971 165.098 156.845 164.938 157.885 164.938C158.631 164.938 159.365 165.058 160.085 165.298C160.805 165.525 161.425 165.831 161.945 166.218L161.725 166.538C161.178 166.138 160.565 165.838 159.885 165.638C159.218 165.425 158.558 165.318 157.905 165.318C156.505 165.318 155.438 165.618 154.705 166.218C153.971 166.805 153.605 167.558 153.605 168.478C153.605 169.198 153.798 169.778 154.185 170.218C154.571 170.645 155.051 170.965 155.625 171.178C156.198 171.391 156.971 171.618 157.945 171.858C158.958 172.111 159.765 172.358 160.365 172.598C160.965 172.825 161.471 173.178 161.885 173.658C162.298 174.125 162.505 174.758 162.505 175.558C162.505 176.198 162.331 176.785 161.985 177.318C161.638 177.851 161.105 178.278 160.385 178.598C159.678 178.905 158.791 179.058 157.725 179.058ZM177.636 178.618V178.998H168.316V164.998H177.336V165.378H168.716V171.698H176.436V172.078H168.716V178.618H177.636Z" fill="white"/>
<path d="M110.28 165.378H112.28C112.28 164.274 111.385 163.378 110.28 163.378V165.378ZM105.08 165.378H103.08C103.08 166.483 103.975 167.378 105.08 167.378V165.378ZM105.08 164.998V162.998C103.975 162.998 103.08 163.894 103.08 164.998H105.08ZM115.88 164.998H117.88C117.88 163.894 116.985 162.998 115.88 162.998V164.998ZM115.88 165.378V167.378C116.985 167.378 117.88 166.483 117.88 165.378H115.88ZM110.68 165.378V163.378C109.575 163.378 108.68 164.274 108.68 165.378H110.68ZM110.68 178.998V180.998C111.785 180.998 112.68 180.103 112.68 178.998H110.68ZM110.28 178.998H108.28C108.28 180.103 109.175 180.998 110.28 180.998V178.998ZM110.28 163.378H105.08V167.378H110.28V163.378ZM107.08 165.378V164.998H103.08V165.378H107.08ZM105.08 166.998H115.88V162.998H105.08V166.998ZM113.88 164.998V165.378H117.88V164.998H113.88ZM115.88 163.378H110.68V167.378H115.88V163.378ZM108.68 165.378V178.998H112.68V165.378H108.68ZM110.68 176.998H110.28V180.998H110.68V176.998ZM112.28 178.998V165.378H108.28V178.998H112.28ZM129.937 178.618H131.937C131.937 177.514 131.042 176.618 129.937 176.618V178.618ZM129.937 178.998V180.998C131.042 180.998 131.937 180.103 131.937 178.998H129.937ZM120.617 178.998H118.617C118.617 180.103 119.512 180.998 120.617 180.998V178.998ZM120.617 164.998V162.998C119.512 162.998 118.617 163.894 118.617 164.998H120.617ZM129.637 164.998H131.637C131.637 163.894 130.742 162.998 129.637 162.998V164.998ZM129.637 165.378V167.378C130.742 167.378 131.637 166.483 131.637 165.378H129.637ZM121.017 165.378V163.378C119.912 163.378 119.017 164.274 119.017 165.378H121.017ZM121.017 171.698H119.017C119.017 172.803 119.912 173.698 121.017 173.698V171.698ZM128.737 171.698H130.737C130.737 170.594 129.842 169.698 128.737 169.698V171.698ZM128.737 172.078V174.078C129.842 174.078 130.737 173.183 130.737 172.078H128.737ZM121.017 172.078V170.078C119.912 170.078 119.017 170.974 119.017 172.078H121.017ZM121.017 178.618H119.017C119.017 179.723 119.912 180.618 121.017 180.618V178.618ZM127.937 178.618V178.998H131.937V178.618H127.937ZM129.937 176.998H120.617V180.998H129.937V176.998ZM122.617 178.998V164.998H118.617V178.998H122.617ZM120.617 166.998H129.637V162.998H120.617V166.998ZM127.637 164.998V165.378H131.637V164.998H127.637ZM129.637 163.378H121.017V167.378H129.637V163.378ZM119.017 165.378V171.698H123.017V165.378H119.017ZM121.017 173.698H128.737V169.698H121.017V173.698ZM126.737 171.698V172.078H130.737V171.698H126.737ZM128.737 170.078H121.017V174.078H128.737V170.078ZM119.017 172.078V178.618H123.017V172.078H119.017ZM121.017 180.618H129.937V176.618H121.017V180.618ZM146.976 164.998H148.976C148.976 163.894 148.081 162.998 146.976 162.998V164.998ZM146.976 178.998V180.998C148.081 180.998 148.976 180.103 148.976 178.998H146.976ZM146.636 178.998L145.055 180.222C145.433 180.712 146.017 180.998 146.636 180.998V178.998ZM136.376 165.738L137.958 164.514C137.435 163.838 136.539 163.569 135.73 163.846C134.92 164.122 134.376 164.883 134.376 165.738H136.376ZM136.376 178.998V180.998C137.481 180.998 138.376 180.103 138.376 178.998H136.376ZM135.976 178.998H133.976C133.976 180.103 134.872 180.998 135.976 180.998V178.998ZM135.976 164.998V162.998C134.872 162.998 133.976 163.894 133.976 164.998H135.976ZM136.316 164.998L137.898 163.774C137.519 163.285 136.935 162.998 136.316 162.998V164.998ZM146.576 178.258L144.995 179.482C145.518 180.158 146.414 180.427 147.223 180.151C148.032 179.874 148.576 179.113 148.576 178.258H146.576ZM146.576 164.998V162.998C145.472 162.998 144.576 163.894 144.576 164.998H146.576ZM144.976 164.998V178.998H148.976V164.998H144.976ZM146.976 176.998H146.636V180.998H146.976V176.998ZM148.218 177.774L137.958 164.514L134.795 166.962L145.055 180.222L148.218 177.774ZM134.376 165.738V178.998H138.376V165.738H134.376ZM136.376 176.998H135.976V180.998H136.376V176.998ZM137.976 178.998V164.998H133.976V178.998H137.976ZM135.976 166.998H136.316V162.998H135.976V166.998ZM134.735 166.222L144.995 179.482L148.158 177.034L137.898 163.774L134.735 166.222ZM148.576 178.258V164.998H144.576V178.258H148.576ZM146.576 166.998H146.976V162.998H146.576V166.998ZM154.865 178.518L154.093 180.363C154.101 180.367 154.109 180.37 154.117 180.373L154.865 178.518ZM152.805 177.078L151.444 175.613C150.67 176.331 150.588 177.527 151.257 178.345L152.805 177.078ZM153.085 176.818L154.608 175.523C154.255 175.107 153.747 174.854 153.202 174.822C152.658 174.789 152.123 174.981 151.724 175.353L153.085 176.818ZM155.025 178.158L154.237 179.996C154.245 180 154.253 180.003 154.262 180.007L155.025 178.158ZM160.985 177.818L162.216 179.394L162.22 179.391L160.985 177.818ZM161.525 173.838L160.043 175.181L161.525 173.838ZM160.085 172.878L159.373 174.747C159.377 174.749 159.382 174.751 159.387 174.753L160.085 172.878ZM157.805 172.218L157.325 174.16C157.332 174.161 157.338 174.163 157.345 174.165L157.805 172.218ZM155.365 171.498L154.622 173.355C154.634 173.36 154.646 173.364 154.658 173.369L155.365 171.498ZM153.825 170.418L152.291 171.703C152.304 171.717 152.317 171.732 152.33 171.747L153.825 170.418ZM153.705 166.698L155.401 167.758L153.705 166.698ZM160.085 165.298L159.452 167.195C159.463 167.199 159.473 167.202 159.484 167.206L160.085 165.298ZM161.945 166.218L163.593 167.351C164.202 166.465 164.001 165.255 163.138 164.613L161.945 166.218ZM161.725 166.538L160.544 168.152C160.98 168.471 161.527 168.6 162.06 168.51C162.593 168.419 163.066 168.117 163.373 167.671L161.725 166.538ZM159.885 165.638L159.275 167.543C159.29 167.548 159.305 167.552 159.32 167.557L159.885 165.638ZM154.705 166.218L155.954 167.78C155.96 167.775 155.965 167.771 155.971 167.766L154.705 166.218ZM154.185 170.218L152.682 171.538C152.689 171.546 152.696 171.554 152.703 171.561L154.185 170.218ZM155.625 171.178L156.322 169.304L155.625 171.178ZM157.945 171.858L158.43 169.918L158.423 169.916L157.945 171.858ZM160.365 172.598L159.622 174.455C159.634 174.46 159.646 174.464 159.658 174.469L160.365 172.598ZM161.885 173.658L160.369 174.963C160.375 174.97 160.381 174.977 160.387 174.984L161.885 173.658ZM161.985 177.318L160.308 176.228L161.985 177.318ZM160.385 178.598L161.181 180.433C161.186 180.43 161.191 180.428 161.197 180.426L160.385 178.598ZM157.725 177.058C156.954 177.058 156.256 176.922 155.612 176.663L154.117 180.373C155.26 180.834 156.469 181.058 157.725 181.058V177.058ZM155.636 176.673C154.963 176.392 154.575 176.084 154.352 175.812L151.257 178.345C151.994 179.246 152.979 179.898 154.093 180.363L155.636 176.673ZM154.165 178.544L154.445 178.284L151.724 175.353L151.444 175.613L154.165 178.544ZM151.561 178.113C152.266 178.943 153.196 179.55 154.237 179.996L155.812 176.32C155.173 176.046 154.81 175.76 154.608 175.523L151.561 178.113ZM154.262 180.007C155.354 180.458 156.507 180.678 157.705 180.678V176.678C157.009 176.678 156.375 176.552 155.788 176.309L154.262 180.007ZM157.705 180.678C159.369 180.678 160.982 180.359 162.216 179.394L159.753 176.242C159.52 176.424 158.947 176.678 157.705 176.678V180.678ZM162.22 179.391C163.431 178.439 164.105 177.114 164.105 175.558H160.105C160.105 175.842 160.031 176.024 159.749 176.245L162.22 179.391ZM164.105 175.558C164.105 174.471 163.804 173.375 163.007 172.495L160.043 175.181C160.044 175.183 160.046 175.185 160.048 175.189C160.051 175.193 160.057 175.205 160.064 175.227C160.08 175.273 160.105 175.375 160.105 175.558H164.105ZM163.007 172.495C162.391 171.816 161.636 171.322 160.782 171.004L159.387 174.753C159.679 174.861 159.884 175.007 160.043 175.181L163.007 172.495ZM160.797 171.009C160.119 170.751 159.263 170.507 158.264 170.272L157.345 174.165C158.266 174.382 158.93 174.579 159.373 174.747L160.797 171.009ZM158.284 170.276C157.292 170.032 156.565 169.814 156.071 169.627L154.658 173.369C155.364 173.636 156.264 173.898 157.325 174.16L158.284 170.276ZM156.107 169.641C155.794 169.516 155.538 169.336 155.319 169.089L152.33 171.747C152.964 172.46 153.735 173 154.622 173.355L156.107 169.641ZM155.358 169.134C155.319 169.087 155.205 168.929 155.205 168.458H151.205C151.205 169.614 151.504 170.762 152.291 171.703L155.358 169.134ZM155.205 168.458C155.205 168.186 155.27 167.968 155.401 167.758L152.009 165.638C151.473 166.495 151.205 167.45 151.205 168.458H155.205ZM155.401 167.758C155.481 167.63 155.658 167.436 156.09 167.24L154.44 163.596C153.458 164.041 152.595 164.7 152.009 165.638L155.401 167.758ZM156.09 167.24C156.465 167.07 157.037 166.938 157.885 166.938V162.938C156.652 162.938 155.478 163.126 154.44 163.596L156.09 167.24ZM157.885 166.938C158.413 166.938 158.933 167.022 159.452 167.195L160.717 163.401C159.796 163.094 158.85 162.938 157.885 162.938V166.938ZM159.484 167.206C160.025 167.376 160.437 167.59 160.751 167.823L163.138 164.613C162.412 164.073 161.584 163.673 160.685 163.39L159.484 167.206ZM160.296 165.085L160.076 165.405L163.373 167.671L163.593 167.351L160.296 165.085ZM162.906 164.924C162.164 164.381 161.34 163.981 160.449 163.719L159.32 167.557C159.789 167.695 160.192 167.895 160.544 168.152L162.906 164.924ZM160.494 163.733C159.644 163.461 158.779 163.318 157.905 163.318V167.318C158.337 167.318 158.791 167.388 159.275 167.543L160.494 163.733ZM157.905 163.318C156.256 163.318 154.665 163.667 153.438 164.67L155.971 167.766C156.211 167.57 156.753 167.318 157.905 167.318V163.318ZM153.455 164.656C152.259 165.613 151.605 166.936 151.605 168.478H155.605C155.605 168.18 155.684 167.996 155.954 167.78L153.455 164.656ZM151.605 168.478C151.605 169.568 151.906 170.655 152.682 171.538L155.687 168.898C155.677 168.887 155.663 168.869 155.647 168.821C155.629 168.767 155.605 168.66 155.605 168.478H151.605ZM152.703 171.561C153.318 172.24 154.073 172.735 154.927 173.053L156.322 169.304C156.03 169.195 155.825 169.05 155.667 168.875L152.703 171.561ZM154.927 173.053C155.602 173.304 156.459 173.552 157.466 173.8L158.423 169.916C157.484 169.685 156.793 169.479 156.322 169.304L154.927 173.053ZM157.459 173.798C158.431 174.041 159.141 174.263 159.622 174.455L161.107 170.741C160.388 170.454 159.484 170.181 158.43 169.918L157.459 173.798ZM159.658 174.469C159.949 174.579 160.177 174.74 160.369 174.963L163.4 172.353C162.766 171.617 161.98 171.07 161.071 170.727L159.658 174.469ZM160.387 174.984C160.393 174.991 160.505 175.104 160.505 175.558H164.505C164.505 174.412 164.202 173.259 163.382 172.332L160.387 174.984ZM160.505 175.558C160.505 175.814 160.442 176.021 160.308 176.228L163.661 178.408C164.22 177.548 164.505 176.583 164.505 175.558H160.505ZM160.308 176.228C160.217 176.367 160.023 176.57 159.572 176.77L161.197 180.426C162.186 179.986 163.059 179.335 163.661 178.408L160.308 176.228ZM159.588 176.763C159.21 176.928 158.616 177.058 157.725 177.058V181.058C158.967 181.058 160.146 180.882 161.181 180.433L159.588 176.763ZM177.636 178.618H179.636C179.636 177.514 178.741 176.618 177.636 176.618V178.618ZM177.636 178.998V180.998C178.741 180.998 179.636 180.103 179.636 178.998H177.636ZM168.316 178.998H166.316C166.316 180.103 167.212 180.998 168.316 180.998V178.998ZM168.316 164.998V162.998C167.212 162.998 166.316 163.894 166.316 164.998H168.316ZM177.336 164.998H179.336C179.336 163.894 178.441 162.998 177.336 162.998V164.998ZM177.336 165.378V167.378C178.441 167.378 179.336 166.483 179.336 165.378H177.336ZM168.716 165.378V163.378C167.612 163.378 166.716 164.274 166.716 165.378H168.716ZM168.716 171.698H166.716C166.716 172.803 167.612 173.698 168.716 173.698V171.698ZM176.436 171.698H178.436C178.436 170.594 177.541 169.698 176.436 169.698V171.698ZM176.436 172.078V174.078C177.541 174.078 178.436 173.183 178.436 172.078H176.436ZM168.716 172.078V170.078C167.612 170.078 166.716 170.974 166.716 172.078H168.716ZM168.716 178.618H166.716C166.716 179.723 167.612 180.618 168.716 180.618V178.618ZM175.636 178.618V178.998H179.636V178.618H175.636ZM177.636 176.998H168.316V180.998H177.636V176.998ZM170.316 178.998V164.998H166.316V178.998H170.316ZM168.316 166.998H177.336V162.998H168.316V166.998ZM175.336 164.998V165.378H179.336V164.998H175.336ZM177.336 163.378H168.716V167.378H177.336V163.378ZM166.716 165.378V171.698H170.716V165.378H166.716ZM168.716 173.698H176.436V169.698H168.716V173.698ZM174.436 171.698V172.078H178.436V171.698H174.436ZM176.436 170.078H168.716V174.078H176.436V170.078ZM166.716 172.078V178.618H170.716V172.078H166.716ZM168.716 180.618H177.636V176.618H168.716V180.618Z" fill="white"/>
</mask>
<g mask="url(#mask0_159_46)">
<path d="M0 135.596C9.46667 138.852 32.0667 144.287 51 145.217C69.9333 146.183 84.5 142.531 124.5 141.031C164.5 139.531 174 145.217 217.5 145.217C261 145.217 284 130.283 284 130.283V321.641H274.533C265.067 321.641 246.133 321.641 227.2 321.641C208.267 321.641 189.333 321.641 170.4 321.641C151.467 321.641 132.533 321.641 113.6 321.641C94.6667 321.641 75.7333 321.641 56.8 321.641C37.8667 321.641 18.9333 321.641 9.46667 321.641H0V135.596Z" fill="white"/>
</g>
</g>
<defs>
<clipPath id="clip0_159_46">
<rect width="284" height="322" fill="white"/>
</clipPath>
</defs>
</svg>
