<svg width="284" height="322" viewBox="0 0 284 322" fill="none" xmlns="http://www.w3.org/2000/svg">
<g clip-path="url(#clip0_162_24)">
<path d="M284 0H0V321.604H284V0Z" fill="#001220"/>
<path d="M41.16 129.352C44.2867 129.352 46.7367 130.099 48.51 131.592C50.2833 133.086 51.17 135.139 51.17 137.752C51.17 140.366 50.2833 142.419 48.51 143.912C46.7367 145.382 44.2867 146.117 41.16 146.117H34.58V153.852H31.99V129.352H41.16ZM41.09 143.842C43.5167 143.842 45.3717 143.317 46.655 142.267C47.9383 141.194 48.58 139.689 48.58 137.752C48.58 135.769 47.9383 134.252 46.655 133.202C45.3717 132.129 43.5167 131.592 41.09 131.592H34.58V143.842H41.09ZM77.0003 153.852L71.4003 145.977C70.7703 146.047 70.1169 146.082 69.4403 146.082H62.8603V153.852H60.2703V129.352H69.4403C72.5669 129.352 75.0169 130.099 76.7903 131.592C78.5636 133.086 79.4503 135.139 79.4503 137.752C79.4503 139.666 78.9603 141.287 77.9803 142.617C77.0236 143.924 75.6469 144.869 73.8503 145.452L79.8353 153.852H77.0003ZM69.3703 143.877C71.7969 143.877 73.6519 143.341 74.9353 142.267C76.2186 141.194 76.8603 139.689 76.8603 137.752C76.8603 135.769 76.2186 134.252 74.9353 133.202C73.6519 132.129 71.7969 131.592 69.3703 131.592H62.8603V143.877H69.3703ZM106.388 151.612V153.852H89.0632V129.352H105.863V131.592H91.6532V140.307H104.323V142.512H91.6532V151.612H106.388ZM122.486 131.592H113.876V129.352H133.686V131.592H125.076V153.852H122.486V131.592ZM158.649 151.612V153.852H141.324V129.352H158.124V131.592H143.914V140.307H156.584V142.512H143.914V151.612H158.649ZM184.967 153.852L179.367 145.977C178.737 146.047 178.084 146.082 177.407 146.082H170.827V153.852H168.237V129.352H177.407C180.534 129.352 182.984 130.099 184.757 131.592C186.53 133.086 187.417 135.139 187.417 137.752C187.417 139.666 186.927 141.287 185.947 142.617C184.99 143.924 183.614 144.869 181.817 145.452L187.802 153.852H184.967ZM177.337 143.877C179.764 143.877 181.619 143.341 182.902 142.267C184.185 141.194 184.827 139.689 184.827 137.752C184.827 135.769 184.185 134.252 182.902 133.202C181.619 132.129 179.764 131.592 177.337 131.592H170.827V143.877H177.337ZM197.03 129.352H199.62V153.852H197.03V129.352ZM215.852 131.592H207.242V129.352H227.052V131.592H218.442V153.852H215.852V131.592ZM252.014 151.612V153.852H234.689V129.352H251.489V131.592H237.279V140.307H249.949V142.512H237.279V151.612H252.014Z" fill="#FA9766"/>
<path d="M48.51 131.592L46.5776 133.887L48.51 131.592ZM48.51 143.912L50.4246 146.222C50.4305 146.217 50.4365 146.212 50.4424 146.207L48.51 143.912ZM34.58 146.117V143.117C32.9231 143.117 31.58 144.461 31.58 146.117H34.58ZM34.58 153.852V156.852C36.2369 156.852 37.58 155.509 37.58 153.852H34.58ZM31.99 153.852H28.99C28.99 155.509 30.3331 156.852 31.99 156.852V153.852ZM31.99 129.352V126.352C30.3331 126.352 28.99 127.696 28.99 129.352H31.99ZM46.655 142.267L48.5547 144.589C48.5631 144.582 48.5714 144.576 48.5797 144.569L46.655 142.267ZM46.655 133.202L44.7303 135.504C44.7386 135.511 44.7469 135.517 44.7553 135.524L46.655 133.202ZM34.58 131.592V128.592C32.9231 128.592 31.58 129.936 31.58 131.592H34.58ZM34.58 143.842H31.58C31.58 145.499 32.9231 146.842 34.58 146.842V143.842ZM41.16 132.352C43.827 132.352 45.5083 132.987 46.5776 133.887L50.4424 129.298C47.9651 127.211 44.7463 126.352 41.16 126.352V132.352ZM46.5776 133.887C47.583 134.734 48.17 135.898 48.17 137.752H54.17C54.17 134.38 52.9837 131.438 50.4424 129.298L46.5776 133.887ZM48.17 137.752C48.17 139.607 47.583 140.771 46.5776 141.618L50.4424 146.207C52.9837 144.067 54.17 141.124 54.17 137.752H48.17ZM46.5954 141.603C45.5255 142.49 43.8372 143.117 41.16 143.117V149.117C44.7361 149.117 47.9478 148.275 50.4246 146.222L46.5954 141.603ZM41.16 143.117H34.58V149.117H41.16V143.117ZM31.58 146.117V153.852H37.58V146.117H31.58ZM34.58 150.852H31.99V156.852H34.58V150.852ZM34.99 153.852V129.352H28.99V153.852H34.99ZM31.99 132.352H41.16V126.352H31.99V132.352ZM41.09 146.842C43.8979 146.842 46.5358 146.241 48.5547 144.589L44.7553 139.945C44.2075 140.394 43.1355 140.842 41.09 140.842V146.842ZM48.5797 144.569C50.6558 142.832 51.58 140.421 51.58 137.752H45.58C45.58 138.957 45.2208 139.556 44.7303 139.966L48.5797 144.569ZM51.58 137.752C51.58 135.065 50.6728 132.613 48.5547 130.88L44.7553 135.524C45.2038 135.891 45.58 136.473 45.58 137.752H51.58ZM48.5797 130.901C46.5592 129.211 43.9109 128.592 41.09 128.592V134.592C43.1224 134.592 44.1842 135.047 44.7303 135.504L48.5797 130.901ZM41.09 128.592H34.58V134.592H41.09V128.592ZM31.58 131.592V143.842H37.58V131.592H31.58ZM34.58 146.842H41.09V140.842H34.58V146.842ZM77.0003 153.852L74.5554 155.591C75.1182 156.382 76.0292 156.852 77.0003 156.852V153.852ZM71.4003 145.977L73.8451 144.239C73.214 143.351 72.1514 142.875 71.069 142.996L71.4003 145.977ZM62.8603 146.082V143.082C61.2034 143.082 59.8603 144.426 59.8603 146.082H62.8603ZM62.8603 153.852V156.852C64.5171 156.852 65.8603 155.509 65.8603 153.852H62.8603ZM60.2703 153.852H57.2703C57.2703 155.509 58.6134 156.852 60.2703 156.852V153.852ZM60.2703 129.352V126.352C58.6134 126.352 57.2703 127.696 57.2703 129.352H60.2703ZM76.7903 131.592L74.8579 133.887L76.7903 131.592ZM77.9803 142.617L75.5651 140.838L75.5597 140.845L77.9803 142.617ZM73.8503 145.452L72.9239 142.599C72.015 142.894 71.3011 143.604 71.0015 144.512C70.7019 145.419 70.8525 146.415 71.407 147.193L73.8503 145.452ZM79.8353 153.852V156.852C80.9584 156.852 81.9875 156.225 82.502 155.227C83.0165 154.228 82.9303 153.026 82.2785 152.112L79.8353 153.852ZM74.9353 142.267L76.8599 144.569L74.9353 142.267ZM74.9353 133.202L73.0106 135.504C73.0189 135.511 73.0272 135.517 73.0356 135.524L74.9353 133.202ZM62.8603 131.592V128.592C61.2034 128.592 59.8603 129.936 59.8603 131.592H62.8603ZM62.8603 143.877H59.8603C59.8603 145.534 61.2034 146.877 62.8603 146.877V143.877ZM79.4451 152.114L73.8451 144.239L68.9554 147.716L74.5554 155.591L79.4451 152.114ZM71.069 142.996C70.5561 143.053 70.0136 143.082 69.4403 143.082V149.082C70.2203 149.082 70.9845 149.042 71.7316 148.959L71.069 142.996ZM69.4403 143.082H62.8603V149.082H69.4403V143.082ZM59.8603 146.082V153.852H65.8603V146.082H59.8603ZM62.8603 150.852H60.2703V156.852H62.8603V150.852ZM63.2703 153.852V129.352H57.2703V153.852H63.2703ZM60.2703 132.352H69.4403V126.352H60.2703V132.352ZM69.4403 132.352C72.1073 132.352 73.7886 132.987 74.8579 133.887L78.7227 129.298C76.2453 127.211 73.0266 126.352 69.4403 126.352V132.352ZM74.8579 133.887C75.8632 134.734 76.4503 135.898 76.4503 137.752H82.4503C82.4503 134.38 81.264 131.438 78.7227 129.298L74.8579 133.887ZM76.4503 137.752C76.4503 139.13 76.1073 140.102 75.5651 140.838L80.3954 144.397C81.8133 142.473 82.4503 140.201 82.4503 137.752H76.4503ZM75.5597 140.845C75.0344 141.563 74.2243 142.177 72.9239 142.599L74.7767 148.306C77.0696 147.561 79.0128 146.285 80.4009 144.39L75.5597 140.845ZM71.407 147.193L77.392 155.593L82.2785 152.112L76.2935 143.712L71.407 147.193ZM79.8353 150.852H77.0003V156.852H79.8353V150.852ZM69.3703 146.877C72.1912 146.877 74.8394 146.258 76.8599 144.569L73.0106 139.966C72.4645 140.423 71.4027 140.877 69.3703 140.877V146.877ZM76.8599 144.569C78.9361 142.832 79.8603 140.421 79.8603 137.752H73.8603C73.8603 138.957 73.5011 139.556 73.0106 139.966L76.8599 144.569ZM79.8603 137.752C79.8603 135.065 78.9531 132.613 76.835 130.88L73.0356 135.524C73.4841 135.891 73.8603 136.473 73.8603 137.752H79.8603ZM76.8599 130.901C74.8394 129.211 72.1912 128.592 69.3703 128.592V134.592C71.4027 134.592 72.4645 135.047 73.0106 135.504L76.8599 130.901ZM69.3703 128.592H62.8603V134.592H69.3703V128.592ZM59.8603 131.592V143.877H65.8603V131.592H59.8603ZM62.8603 146.877H69.3703V140.877H62.8603V146.877ZM106.388 151.612H109.388C109.388 149.956 108.045 148.612 106.388 148.612V151.612ZM106.388 153.852V156.852C108.045 156.852 109.388 155.509 109.388 153.852H106.388ZM89.0632 153.852H86.0632C86.0632 155.509 87.4064 156.852 89.0632 156.852V153.852ZM89.0632 129.352V126.352C87.4064 126.352 86.0632 127.696 86.0632 129.352H89.0632ZM105.863 129.352H108.863C108.863 127.696 107.52 126.352 105.863 126.352V129.352ZM105.863 131.592V134.592C107.52 134.592 108.863 133.249 108.863 131.592H105.863ZM91.6532 131.592V128.592C89.9964 128.592 88.6532 129.936 88.6532 131.592H91.6532ZM91.6532 140.307H88.6532C88.6532 141.964 89.9964 143.307 91.6532 143.307V140.307ZM104.323 140.307H107.323C107.323 138.651 105.98 137.307 104.323 137.307V140.307ZM104.323 142.512V145.512C105.98 145.512 107.323 144.169 107.323 142.512H104.323ZM91.6532 142.512V139.512C89.9964 139.512 88.6532 140.856 88.6532 142.512H91.6532ZM91.6532 151.612H88.6532C88.6532 153.269 89.9964 154.612 91.6532 154.612V151.612ZM103.388 151.612V153.852H109.388V151.612H103.388ZM106.388 150.852H89.0632V156.852H106.388V150.852ZM92.0632 153.852V129.352H86.0632V153.852H92.0632ZM89.0632 132.352H105.863V126.352H89.0632V132.352ZM102.863 129.352V131.592H108.863V129.352H102.863ZM105.863 128.592H91.6532V134.592H105.863V128.592ZM88.6532 131.592V140.307H94.6532V131.592H88.6532ZM91.6532 143.307H104.323V137.307H91.6532V143.307ZM101.323 140.307V142.512H107.323V140.307H101.323ZM104.323 139.512H91.6532V145.512H104.323V139.512ZM88.6532 142.512V151.612H94.6532V142.512H88.6532ZM91.6532 154.612H106.388V148.612H91.6532V154.612ZM122.486 131.592H125.486C125.486 129.936 124.143 128.592 122.486 128.592V131.592ZM113.876 131.592H110.876C110.876 133.249 112.219 134.592 113.876 134.592V131.592ZM113.876 129.352V126.352C112.219 126.352 110.876 127.696 110.876 129.352H113.876ZM133.686 129.352H136.686C136.686 127.696 135.343 126.352 133.686 126.352V129.352ZM133.686 131.592V134.592C135.343 134.592 136.686 133.249 136.686 131.592H133.686ZM125.076 131.592V128.592C123.419 128.592 122.076 129.936 122.076 131.592H125.076ZM125.076 153.852V156.852C126.733 156.852 128.076 155.509 128.076 153.852H125.076ZM122.486 153.852H119.486C119.486 155.509 120.829 156.852 122.486 156.852V153.852ZM122.486 128.592H113.876V134.592H122.486V128.592ZM116.876 131.592V129.352H110.876V131.592H116.876ZM113.876 132.352H133.686V126.352H113.876V132.352ZM130.686 129.352V131.592H136.686V129.352H130.686ZM133.686 128.592H125.076V134.592H133.686V128.592ZM122.076 131.592V153.852H128.076V131.592H122.076ZM125.076 150.852H122.486V156.852H125.076V150.852ZM125.486 153.852V131.592H119.486V153.852H125.486ZM158.649 151.612H161.649C161.649 149.956 160.306 148.612 158.649 148.612V151.612ZM158.649 153.852V156.852C160.306 156.852 161.649 155.509 161.649 153.852H158.649ZM141.324 153.852H138.324C138.324 155.509 139.667 156.852 141.324 156.852V153.852ZM141.324 129.352V126.352C139.667 126.352 138.324 127.696 138.324 129.352H141.324ZM158.124 129.352H161.124C161.124 127.696 159.781 126.352 158.124 126.352V129.352ZM158.124 131.592V134.592C159.781 134.592 161.124 133.249 161.124 131.592H158.124ZM143.914 131.592V128.592C142.257 128.592 140.914 129.936 140.914 131.592H143.914ZM143.914 140.307H140.914C140.914 141.964 142.257 143.307 143.914 143.307V140.307ZM156.584 140.307H159.584C159.584 138.651 158.241 137.307 156.584 137.307V140.307ZM156.584 142.512V145.512C158.241 145.512 159.584 144.169 159.584 142.512H156.584ZM143.914 142.512V139.512C142.257 139.512 140.914 140.856 140.914 142.512H143.914ZM143.914 151.612H140.914C140.914 153.269 142.257 154.612 143.914 154.612V151.612ZM155.649 151.612V153.852H161.649V151.612H155.649ZM158.649 150.852H141.324V156.852H158.649V150.852ZM144.324 153.852V129.352H138.324V153.852H144.324ZM141.324 132.352H158.124V126.352H141.324V132.352ZM155.124 129.352V131.592H161.124V129.352H155.124ZM158.124 128.592H143.914V134.592H158.124V128.592ZM140.914 131.592V140.307H146.914V131.592H140.914ZM143.914 143.307H156.584V137.307H143.914V143.307ZM153.584 140.307V142.512H159.584V140.307H153.584ZM156.584 139.512H143.914V145.512H156.584V139.512ZM140.914 142.512V151.612H146.914V142.512H140.914ZM143.914 154.612H158.649V148.612H143.914V154.612ZM184.967 153.852L182.522 155.591C183.085 156.382 183.996 156.852 184.967 156.852V153.852ZM179.367 145.977L181.812 144.239C181.181 143.351 180.118 142.875 179.036 142.996L179.367 145.977ZM170.827 146.082V143.082C169.17 143.082 167.827 144.426 167.827 146.082H170.827ZM170.827 153.852V156.852C172.484 156.852 173.827 155.509 173.827 153.852H170.827ZM168.237 153.852H165.237C165.237 155.509 166.58 156.852 168.237 156.852V153.852ZM168.237 129.352V126.352C166.58 126.352 165.237 127.696 165.237 129.352H168.237ZM184.757 131.592L182.825 133.887L184.757 131.592ZM185.947 142.617L183.532 140.838L183.526 140.845L185.947 142.617ZM181.817 145.452L180.891 142.599C179.982 142.894 179.268 143.604 178.968 144.512C178.669 145.419 178.819 146.415 179.374 147.193L181.817 145.452ZM187.802 153.852V156.852C188.925 156.852 189.954 156.225 190.469 155.227C190.983 154.228 190.897 153.026 190.245 152.112L187.802 153.852ZM182.902 142.267L184.827 144.569L182.902 142.267ZM182.902 133.202L180.977 135.504C180.986 135.511 180.994 135.517 181.002 135.524L182.902 133.202ZM170.827 131.592V128.592C169.17 128.592 167.827 129.936 167.827 131.592H170.827ZM170.827 143.877H167.827C167.827 145.534 169.17 146.877 170.827 146.877V143.877ZM187.412 152.114L181.812 144.239L176.922 147.716L182.522 155.591L187.412 152.114ZM179.036 142.996C178.523 143.053 177.98 143.082 177.407 143.082V149.082C178.187 149.082 178.951 149.042 179.698 148.959L179.036 142.996ZM177.407 143.082H170.827V149.082H177.407V143.082ZM167.827 146.082V153.852H173.827V146.082H167.827ZM170.827 150.852H168.237V156.852H170.827V150.852ZM171.237 153.852V129.352H165.237V153.852H171.237ZM168.237 132.352H177.407V126.352H168.237V132.352ZM177.407 132.352C180.074 132.352 181.755 132.987 182.825 133.887L186.689 129.298C184.212 127.211 180.993 126.352 177.407 126.352V132.352ZM182.825 133.887C183.83 134.734 184.417 135.898 184.417 137.752H190.417C190.417 134.38 189.231 131.438 186.689 129.298L182.825 133.887ZM184.417 137.752C184.417 139.13 184.074 140.102 183.532 140.838L188.362 144.397C189.78 142.473 190.417 140.201 190.417 137.752H184.417ZM183.526 140.845C183.001 141.563 182.191 142.177 180.891 142.599L182.743 148.306C185.036 147.561 186.98 146.285 188.368 144.39L183.526 140.845ZM179.374 147.193L185.359 155.593L190.245 152.112L184.26 143.712L179.374 147.193ZM187.802 150.852H184.967V156.852H187.802V150.852ZM177.337 146.877C180.158 146.877 182.806 146.258 184.827 144.569L180.977 139.966C180.431 140.423 179.369 140.877 177.337 140.877V146.877ZM184.827 144.569C186.903 142.832 187.827 140.421 187.827 137.752H181.827C181.827 138.957 181.468 139.556 180.977 139.966L184.827 144.569ZM187.827 137.752C187.827 135.065 186.92 132.613 184.802 130.88L181.002 135.524C181.451 135.891 181.827 136.473 181.827 137.752H187.827ZM184.827 130.901C182.806 129.211 180.158 128.592 177.337 128.592V134.592C179.369 134.592 180.431 135.047 180.977 135.504L184.827 130.901ZM177.337 128.592H170.827V134.592H177.337V128.592ZM167.827 131.592V143.877H173.827V131.592H167.827ZM170.827 146.877H177.337V140.877H170.827V146.877ZM197.03 129.352V126.352C195.373 126.352 194.03 127.696 194.03 129.352H197.03ZM199.62 129.352H202.62C202.62 127.696 201.277 126.352 199.62 126.352V129.352ZM199.62 153.852V156.852C201.277 156.852 202.62 155.509 202.62 153.852H199.62ZM197.03 153.852H194.03C194.03 155.509 195.373 156.852 197.03 156.852V153.852ZM197.03 132.352H199.62V126.352H197.03V132.352ZM196.62 129.352V153.852H202.62V129.352H196.62ZM199.62 150.852H197.03V156.852H199.62V150.852ZM200.03 153.852V129.352H194.03V153.852H200.03ZM215.852 131.592H218.852C218.852 129.936 217.508 128.592 215.852 128.592V131.592ZM207.242 131.592H204.242C204.242 133.249 205.585 134.592 207.242 134.592V131.592ZM207.242 129.352V126.352C205.585 126.352 204.242 127.696 204.242 129.352H207.242ZM227.052 129.352H230.052C230.052 127.696 228.708 126.352 227.052 126.352V129.352ZM227.052 131.592V134.592C228.708 134.592 230.052 133.249 230.052 131.592H227.052ZM218.442 131.592V128.592C216.785 128.592 215.442 129.936 215.442 131.592H218.442ZM218.442 153.852V156.852C220.098 156.852 221.442 155.509 221.442 153.852H218.442ZM215.852 153.852H212.852C212.852 155.509 214.195 156.852 215.852 156.852V153.852ZM215.852 128.592H207.242V134.592H215.852V128.592ZM210.242 131.592V129.352H204.242V131.592H210.242ZM207.242 132.352H227.052V126.352H207.242V132.352ZM224.052 129.352V131.592H230.052V129.352H224.052ZM227.052 128.592H218.442V134.592H227.052V128.592ZM215.442 131.592V153.852H221.442V131.592H215.442ZM218.442 150.852H215.852V156.852H218.442V150.852ZM218.852 153.852V131.592H212.852V153.852H218.852ZM252.014 151.612H255.014C255.014 149.956 253.671 148.612 252.014 148.612V151.612ZM252.014 153.852V156.852C253.671 156.852 255.014 155.509 255.014 153.852H252.014ZM234.689 153.852H231.689C231.689 155.509 233.032 156.852 234.689 156.852V153.852ZM234.689 129.352V126.352C233.032 126.352 231.689 127.696 231.689 129.352H234.689ZM251.489 129.352H254.489C254.489 127.696 253.146 126.352 251.489 126.352V129.352ZM251.489 131.592V134.592C253.146 134.592 254.489 133.249 254.489 131.592H251.489ZM237.279 131.592V128.592C235.622 128.592 234.279 129.936 234.279 131.592H237.279ZM237.279 140.307H234.279C234.279 141.964 235.622 143.307 237.279 143.307V140.307ZM249.949 140.307H252.949C252.949 138.651 251.606 137.307 249.949 137.307V140.307ZM249.949 142.512V145.512C251.606 145.512 252.949 144.169 252.949 142.512H249.949ZM237.279 142.512V139.512C235.622 139.512 234.279 140.856 234.279 142.512H237.279ZM237.279 151.612H234.279C234.279 153.269 235.622 154.612 237.279 154.612V151.612ZM249.014 151.612V153.852H255.014V151.612H249.014ZM252.014 150.852H234.689V156.852H252.014V150.852ZM237.689 153.852V129.352H231.689V153.852H237.689ZM234.689 132.352H251.489V126.352H234.689V132.352ZM248.489 129.352V131.592H254.489V129.352H248.489ZM251.489 128.592H237.279V134.592H251.489V128.592ZM234.279 131.592V140.307H240.279V131.592H234.279ZM237.279 143.307H249.949V137.307H237.279V143.307ZM246.949 140.307V142.512H252.949V140.307H246.949ZM249.949 139.512H237.279V145.512H249.949V139.512ZM234.279 142.512V151.612H240.279V142.512H234.279ZM237.279 154.612H252.014V148.612H237.279V154.612Z" fill="#FA9766"/>
<path d="M124.28 104.258H119.08V103.878H129.88V104.258H124.68V117.878H124.28V104.258ZM145.617 103.878V117.878H145.217V110.958H135.017V117.878H134.617V103.878H135.017V110.578H145.217V103.878H145.617ZM162.265 117.498V117.878H152.945V103.878H161.965V104.258H153.345V110.578H161.065V110.958H153.345V117.498H162.265Z" fill="#FA9766"/>
<path d="M124.28 104.258H126.28C126.28 103.154 125.385 102.258 124.28 102.258V104.258ZM119.08 104.258H117.08C117.08 105.363 117.975 106.258 119.08 106.258V104.258ZM119.08 103.878V101.878C117.975 101.878 117.08 102.774 117.08 103.878H119.08ZM129.88 103.878H131.88C131.88 102.774 130.985 101.878 129.88 101.878V103.878ZM129.88 104.258V106.258C130.985 106.258 131.88 105.363 131.88 104.258H129.88ZM124.68 104.258V102.258C123.575 102.258 122.68 103.154 122.68 104.258H124.68ZM124.68 117.878V119.878C125.785 119.878 126.68 118.983 126.68 117.878H124.68ZM124.28 117.878H122.28C122.28 118.983 123.175 119.878 124.28 119.878V117.878ZM124.28 102.258H119.08V106.258H124.28V102.258ZM121.08 104.258V103.878H117.08V104.258H121.08ZM119.08 105.878H129.88V101.878H119.08V105.878ZM127.88 103.878V104.258H131.88V103.878H127.88ZM129.88 102.258H124.68V106.258H129.88V102.258ZM122.68 104.258V117.878H126.68V104.258H122.68ZM124.68 115.878H124.28V119.878H124.68V115.878ZM126.28 117.878V104.258H122.28V117.878H126.28ZM145.617 103.878H147.617C147.617 102.774 146.722 101.878 145.617 101.878V103.878ZM145.617 117.878V119.878C146.722 119.878 147.617 118.983 147.617 117.878H145.617ZM145.217 117.878H143.217C143.217 118.983 144.112 119.878 145.217 119.878V117.878ZM145.217 110.958H147.217C147.217 109.854 146.322 108.958 145.217 108.958V110.958ZM135.017 110.958V108.958C133.912 108.958 133.017 109.854 133.017 110.958H135.017ZM135.017 117.878V119.878C136.122 119.878 137.017 118.983 137.017 117.878H135.017ZM134.617 117.878H132.617C132.617 118.983 133.512 119.878 134.617 119.878V117.878ZM134.617 103.878V101.878C133.512 101.878 132.617 102.774 132.617 103.878H134.617ZM135.017 103.878H137.017C137.017 102.774 136.122 101.878 135.017 101.878V103.878ZM135.017 110.578H133.017C133.017 111.683 133.912 112.578 135.017 112.578V110.578ZM145.217 110.578V112.578C146.322 112.578 147.217 111.683 147.217 110.578H145.217ZM145.217 103.878V101.878C144.112 101.878 143.217 102.774 143.217 103.878H145.217ZM143.617 103.878V117.878H147.617V103.878H143.617ZM145.617 115.878H145.217V119.878H145.617V115.878ZM147.217 117.878V110.958H143.217V117.878H147.217ZM145.217 108.958H135.017V112.958H145.217V108.958ZM133.017 110.958V117.878H137.017V110.958H133.017ZM135.017 115.878H134.617V119.878H135.017V115.878ZM136.617 117.878V103.878H132.617V117.878H136.617ZM134.617 105.878H135.017V101.878H134.617V105.878ZM133.017 103.878V110.578H137.017V103.878H133.017ZM135.017 112.578H145.217V108.578H135.017V112.578ZM147.217 110.578V103.878H143.217V110.578H147.217ZM145.217 105.878H145.617V101.878H145.217V105.878ZM162.265 117.498H164.265C164.265 116.394 163.37 115.498 162.265 115.498V117.498ZM162.265 117.878V119.878C163.37 119.878 164.265 118.983 164.265 117.878H162.265ZM152.945 117.878H150.945C150.945 118.983 151.841 119.878 152.945 119.878V117.878ZM152.945 103.878V101.878C151.841 101.878 150.945 102.774 150.945 103.878H152.945ZM161.965 103.878H163.965C163.965 102.774 163.07 101.878 161.965 101.878V103.878ZM161.965 104.258V106.258C163.07 106.258 163.965 105.363 163.965 104.258H161.965ZM153.345 104.258V102.258C152.241 102.258 151.345 103.154 151.345 104.258H153.345ZM153.345 110.578H151.345C151.345 111.683 152.241 112.578 153.345 112.578V110.578ZM161.065 110.578H163.065C163.065 109.474 162.17 108.578 161.065 108.578V110.578ZM161.065 110.958V112.958C162.17 112.958 163.065 112.063 163.065 110.958H161.065ZM153.345 110.958V108.958C152.241 108.958 151.345 109.854 151.345 110.958H153.345ZM153.345 117.498H151.345C151.345 118.603 152.241 119.498 153.345 119.498V117.498ZM160.265 117.498V117.878H164.265V117.498H160.265ZM162.265 115.878H152.945V119.878H162.265V115.878ZM154.945 117.878V103.878H150.945V117.878H154.945ZM152.945 105.878H161.965V101.878H152.945V105.878ZM159.965 103.878V104.258H163.965V103.878H159.965ZM161.965 102.258H153.345V106.258H161.965V102.258ZM151.345 104.258V110.578H155.345V104.258H151.345ZM153.345 112.578H161.065V108.578H153.345V112.578ZM159.065 110.578V110.958H163.065V110.578H159.065ZM161.065 108.958H153.345V112.958H161.065V108.958ZM151.345 110.958V117.498H155.345V110.958H151.345ZM153.345 119.498H162.265V115.498H153.345V119.498Z" fill="#FA9766"/>
<path d="M0 141.523C9.46667 142.569 14.2 146.723 35.5 147.318C56.8 147.914 90.4213 136.594 126 136.831C159.64 137.056 176 147.318 211.5 147.318C247 147.318 265.067 137.481 284 136.831V321.604H274.533C265.067 321.604 246.133 321.604 227.2 321.604C208.267 321.604 189.333 321.604 170.4 321.604C151.467 321.604 132.533 321.604 113.6 321.604C94.6667 321.604 75.7333 321.604 56.8 321.604C37.8667 321.604 18.9333 321.604 9.46667 321.604H0V141.523Z" fill="#FA9766"/>
<path d="M0 182L9.46667 182.295C18.9333 182.548 37.8667 183.138 56.8 178.503C75.7333 173.868 94.6667 164.009 113.6 161.481C132.533 158.953 151.467 163.756 170.4 171.382C189.333 179.051 208.267 189.584 227.2 192.028C246.133 194.514 265.067 188.868 274.533 186.087L284 183.264V312.615H274.533C265.067 312.615 246.133 312.615 227.2 312.615C208.267 312.615 189.333 312.615 170.4 312.615C151.467 312.615 132.533 312.615 113.6 312.615C94.6667 312.615 75.7333 312.615 56.8 312.615C37.8667 312.615 18.9333 312.615 9.46667 312.615H0V182Z" fill="#FB8851"/>
<path d="M0 232.777C0 232.777 0 232.816 9.46667 225.923C18.9333 219.029 37.8667 205.321 56.8 205.163C75.7333 205.044 94.6667 218.514 113.6 218.831C132.533 219.188 151.467 206.351 170.4 205.916C189.333 205.44 208.267 217.326 227.2 215.741C246.133 214.156 265.067 199.101 274.533 191.574L284 184.047V312.012H274.533C265.067 312.012 246.133 312.012 227.2 312.012C208.267 312.012 189.333 312.012 170.4 312.012C151.467 312.012 132.533 312.012 113.6 312.012C94.6667 312.012 75.7333 312.012 56.8 312.012C37.8667 312.012 18.9333 312.012 9.46667 312.012H0V232.777Z" fill="#FB783B"/>
<path d="M0 241.576L9.46667 245.736C18.9333 249.896 37.8667 258.215 56.8 255.838C75.7333 253.461 94.6667 240.387 113.6 236.029C132.533 231.671 151.467 236.029 170.4 238.406C189.333 240.783 208.267 241.18 227.2 238.604C246.133 236.029 265.067 230.483 274.533 227.709L284 224.936V322H274.533C265.067 322 246.133 322 227.2 322C208.267 322 189.333 322 170.4 322C151.467 322 132.533 322 113.6 322C94.6667 322 75.7333 322 56.8 322C37.8667 322 18.9333 322 9.46667 322H0V241.576Z" fill="#FB6723"/>
<path d="M0 285.948L9.46667 286.067C18.9333 286.225 37.8667 286.463 56.8 287.216C75.7333 287.929 94.6667 289.117 113.6 289.434C132.533 289.791 151.467 289.236 170.4 284.68C189.333 280.124 208.267 271.566 227.2 268.318C246.133 265.069 265.067 267.208 274.533 268.239L284 269.308V322H274.533C265.067 322 246.133 322 227.2 322C208.267 322 189.333 322 170.4 322C151.467 322 132.533 322 113.6 322C94.6667 322 75.7333 322 56.8 322C37.8667 322 18.9333 322 9.46667 322H0V285.948Z" fill="#FA5300"/>
<g style="mix-blend-mode:soft-light">
<path d="M26 192.763H258" stroke="white"/>
</g>
<path d="M71.952 206.953C74.064 206.953 75.72 207.457 76.92 208.465C78.12 209.457 78.72 210.841 78.72 212.617C78.72 214.377 78.12 215.761 76.92 216.769C75.72 217.761 74.064 218.257 71.952 218.257H67.152V223.753H65.928V206.953H71.952ZM71.952 217.153C73.744 217.153 75.112 216.761 76.056 215.977C77 215.193 77.472 214.073 77.472 212.617C77.472 211.161 77 210.041 76.056 209.257C75.112 208.457 73.744 208.057 71.952 208.057H67.152V217.153H71.952ZM96.9139 223.753L92.9059 218.137C92.3139 218.217 91.7699 218.257 91.2739 218.257H86.4739V223.753H85.2499V206.953H91.2739C93.3859 206.953 95.0419 207.457 96.2419 208.465C97.4419 209.457 98.0419 210.841 98.0419 212.617C98.0419 213.945 97.6979 215.065 97.0099 215.977C96.3379 216.873 95.3699 217.505 94.1059 217.873L98.3059 223.753H96.9139ZM91.2739 217.177C93.0659 217.177 94.4339 216.785 95.3779 216.001C96.3219 215.201 96.7939 214.073 96.7939 212.617C96.7939 211.161 96.3219 210.041 95.3779 209.257C94.4339 208.457 93.0659 208.057 91.2739 208.057H86.4739V217.177H91.2739ZM116.515 222.649V223.753H104.923V206.953H116.155V208.057H106.147V214.681H115.099V215.761H106.147V222.649H116.515ZM127.794 208.057H121.746V206.953H135.066V208.057H129.018V223.753H127.794V208.057ZM152.093 222.649V223.753H140.501V206.953H151.733V208.057H141.725V214.681H150.677V215.761H141.725V222.649H152.093ZM170.62 223.753L166.612 218.137C166.02 218.217 165.476 218.257 164.98 218.257H160.18V223.753H158.956V206.953H164.98C167.092 206.953 168.748 207.457 169.948 208.465C171.148 209.457 171.748 210.841 171.748 212.617C171.748 213.945 171.404 215.065 170.716 215.977C170.044 216.873 169.076 217.505 167.812 217.873L172.012 223.753H170.62ZM164.98 217.177C166.772 217.177 168.14 216.785 169.084 216.001C170.028 215.201 170.5 214.073 170.5 212.617C170.5 211.161 170.028 210.041 169.084 209.257C168.14 208.457 166.772 208.057 164.98 208.057H160.18V217.177H164.98ZM178.63 206.953H179.854V223.753H178.63V206.953ZM191.324 208.057H185.276V206.953H198.596V208.057H192.548V223.753H191.324V208.057ZM210.925 223.873C209.277 223.873 207.789 223.505 206.461 222.769C205.133 222.017 204.085 220.993 203.317 219.697C202.565 218.401 202.189 216.953 202.189 215.353C202.189 213.753 202.565 212.305 203.317 211.009C204.085 209.713 205.133 208.697 206.461 207.961C207.789 207.209 209.277 206.833 210.925 206.833C212.573 206.833 214.061 207.201 215.389 207.937C216.717 208.673 217.757 209.689 218.509 210.985C219.277 212.281 219.661 213.737 219.661 215.353C219.661 216.969 219.277 218.425 218.509 219.721C217.757 221.017 216.717 222.033 215.389 222.769C214.061 223.505 212.573 223.873 210.925 223.873ZM210.925 222.745C212.333 222.745 213.605 222.425 214.741 221.785C215.877 221.145 216.773 220.265 217.429 219.145C218.085 218.009 218.413 216.745 218.413 215.353C218.413 213.961 218.085 212.705 217.429 211.585C216.773 210.449 215.877 209.561 214.741 208.921C213.605 208.281 212.333 207.961 210.925 207.961C209.517 207.961 208.237 208.281 207.085 208.921C205.949 209.561 205.053 210.449 204.397 211.585C203.741 212.705 203.413 213.961 203.413 215.353C203.413 216.745 203.741 218.009 204.397 219.145C205.053 220.265 205.949 221.145 207.085 221.785C208.237 222.425 209.517 222.745 210.925 222.745Z" fill="white"/>
<path d="M76.92 208.465L75.4728 210.188C75.4773 210.191 75.4819 210.195 75.4864 210.199L76.92 208.465ZM76.92 216.769L78.3536 218.503C78.3581 218.499 78.3627 218.495 78.3672 218.492L76.92 216.769ZM67.152 218.257V216.007C65.9094 216.007 64.902 217.014 64.902 218.257H67.152ZM67.152 223.753V226.003C68.3946 226.003 69.402 224.995 69.402 223.753H67.152ZM65.928 223.753H63.678C63.678 224.995 64.6854 226.003 65.928 226.003V223.753ZM65.928 206.953V204.703C64.6854 204.703 63.678 205.71 63.678 206.953H65.928ZM76.056 215.977L77.4935 217.708L76.056 215.977ZM76.056 209.257L74.6013 210.973C74.607 210.978 74.6127 210.983 74.6185 210.988L76.056 209.257ZM67.152 208.057V205.807C65.9094 205.807 64.902 206.814 64.902 208.057H67.152ZM67.152 217.153H64.902C64.902 218.395 65.9094 219.403 67.152 219.403V217.153ZM71.952 209.203C73.7193 209.203 74.8001 209.622 75.4728 210.188L78.3672 206.742C76.6399 205.291 74.4087 204.703 71.952 204.703V209.203ZM75.4864 210.199C76.0929 210.7 76.47 211.406 76.47 212.617H80.97C80.97 210.276 80.1471 208.213 78.3536 206.731L75.4864 210.199ZM76.47 212.617C76.47 213.804 76.0974 214.521 75.4728 215.046L78.3672 218.492C80.1426 217 80.97 214.949 80.97 212.617H76.47ZM75.4864 215.035C74.8132 215.591 73.7271 216.007 71.952 216.007V220.507C74.4009 220.507 76.6268 219.93 78.3536 218.503L75.4864 215.035ZM71.952 216.007H67.152V220.507H71.952V216.007ZM64.902 218.257V223.753H69.402V218.257H64.902ZM67.152 221.503H65.928V226.003H67.152V221.503ZM68.178 223.753V206.953H63.678V223.753H68.178ZM65.928 209.203H71.952V204.703H65.928V209.203ZM71.952 219.403C74.034 219.403 75.9956 218.952 77.4935 217.708L74.6185 214.246C74.2284 214.57 73.454 214.903 71.952 214.903V219.403ZM77.4935 217.708C79.0499 216.415 79.722 214.604 79.722 212.617H75.222C75.222 213.542 74.9501 213.97 74.6185 214.246L77.4935 217.708ZM79.722 212.617C79.722 210.63 79.0499 208.818 77.4935 207.526L74.6185 210.988C74.9501 211.263 75.222 211.692 75.222 212.617H79.722ZM77.5107 207.54C76.0119 206.27 74.0431 205.807 71.952 205.807V210.307C73.4449 210.307 74.2121 210.643 74.6013 210.973L77.5107 207.54ZM71.952 205.807H67.152V210.307H71.952V205.807ZM64.902 208.057V217.153H69.402V208.057H64.902ZM67.152 219.403H71.952V214.903H67.152V219.403ZM96.9139 223.753L95.0824 225.06C95.5047 225.651 96.1869 226.003 96.9139 226.003V223.753ZM92.9059 218.137L94.7373 216.83C94.2525 216.15 93.4316 215.795 92.6046 215.907L92.9059 218.137ZM86.4739 218.257V216.007C85.2312 216.007 84.2239 217.014 84.2239 218.257H86.4739ZM86.4739 223.753V226.003C87.7165 226.003 88.7239 224.995 88.7239 223.753H86.4739ZM85.2499 223.753H82.9999C82.9999 224.995 84.0072 226.003 85.2499 226.003V223.753ZM85.2499 206.953V204.703C84.0072 204.703 82.9999 205.71 82.9999 206.953H85.2499ZM96.2419 208.465L94.7947 210.188C94.7992 210.191 94.8037 210.195 94.8083 210.199L96.2419 208.465ZM97.0099 215.977L95.2137 214.622L95.2099 214.627L97.0099 215.977ZM94.1059 217.873L93.4769 215.712C92.7767 215.916 92.2187 216.447 91.9799 217.136C91.7411 217.825 91.8511 218.587 92.275 219.18L94.1059 217.873ZM98.3059 223.753V226.003C99.1487 226.003 99.9208 225.532 100.307 224.782C100.692 224.033 100.627 223.131 100.137 222.445L98.3059 223.753ZM95.3779 216.001L96.8154 217.732C96.8211 217.727 96.8269 217.722 96.8325 217.717L95.3779 216.001ZM95.3779 209.257L93.9232 210.973C93.9289 210.978 93.9346 210.983 93.9403 210.988L95.3779 209.257ZM86.4739 208.057V205.807C85.2312 205.807 84.2239 206.814 84.2239 208.057H86.4739ZM86.4739 217.177H84.2239C84.2239 218.419 85.2312 219.427 86.4739 219.427V217.177ZM98.7453 222.446L94.7373 216.83L91.0744 219.444L95.0824 225.06L98.7453 222.446ZM92.6046 215.907C92.093 215.976 91.6512 216.007 91.2739 216.007V220.507C91.8885 220.507 92.5348 220.457 93.2072 220.366L92.6046 215.907ZM91.2739 216.007H86.4739V220.507H91.2739V216.007ZM84.2239 218.257V223.753H88.7239V218.257H84.2239ZM86.4739 221.503H85.2499V226.003H86.4739V221.503ZM87.4999 223.753V206.953H82.9999V223.753H87.4999ZM85.2499 209.203H91.2739V204.703H85.2499V209.203ZM91.2739 209.203C93.0412 209.203 94.122 209.622 94.7947 210.188L97.6891 206.742C95.9618 205.291 93.7306 204.703 91.2739 204.703V209.203ZM94.8083 210.199C95.4148 210.7 95.7919 211.406 95.7919 212.617H100.292C100.292 210.276 99.469 208.213 97.6755 206.731L94.8083 210.199ZM95.7919 212.617C95.7919 213.538 95.5611 214.161 95.2137 214.622L98.8061 217.332C99.8347 215.968 100.292 214.351 100.292 212.617H95.7919ZM95.2099 214.627C94.8792 215.068 94.3581 215.456 93.4769 215.712L94.7348 220.033C96.3817 219.554 97.7966 218.678 98.8099 217.327L95.2099 214.627ZM92.275 219.18L96.475 225.06L100.137 222.445L95.9368 216.565L92.275 219.18ZM98.3059 221.503H96.9139V226.003H98.3059V221.503ZM91.2739 219.427C93.3558 219.427 95.3175 218.976 96.8154 217.732L93.9403 214.27C93.5502 214.594 92.7759 214.927 91.2739 214.927V219.427ZM96.8325 217.717C98.372 216.413 99.0439 214.605 99.0439 212.617H94.5439C94.5439 213.541 94.2718 213.989 93.9232 214.284L96.8325 217.717ZM99.0439 212.617C99.0439 210.63 98.3718 208.818 96.8154 207.526L93.9403 210.988C94.272 211.263 94.5439 211.692 94.5439 212.617H99.0439ZM96.8325 207.54C95.3337 206.27 93.365 205.807 91.2739 205.807V210.307C92.7667 210.307 93.534 210.643 93.9232 210.973L96.8325 207.54ZM91.2739 205.807H86.4739V210.307H91.2739V205.807ZM84.2239 208.057V217.177H88.7239V208.057H84.2239ZM86.4739 219.427H91.2739V214.927H86.4739V219.427ZM116.515 222.649H118.765C118.765 221.406 117.758 220.399 116.515 220.399V222.649ZM116.515 223.753V226.003C117.758 226.003 118.765 224.995 118.765 223.753H116.515ZM104.923 223.753H102.673C102.673 224.995 103.681 226.003 104.923 226.003V223.753ZM104.923 206.953V204.703C103.681 204.703 102.673 205.71 102.673 206.953H104.923ZM116.155 206.953H118.405C118.405 205.71 117.398 204.703 116.155 204.703V206.953ZM116.155 208.057V210.307C117.398 210.307 118.405 209.299 118.405 208.057H116.155ZM106.147 208.057V205.807C104.905 205.807 103.897 206.814 103.897 208.057H106.147ZM106.147 214.681H103.897C103.897 215.923 104.905 216.931 106.147 216.931V214.681ZM115.099 214.681H117.349C117.349 213.438 116.342 212.431 115.099 212.431V214.681ZM115.099 215.761V218.011C116.342 218.011 117.349 217.003 117.349 215.761H115.099ZM106.147 215.761V213.511C104.905 213.511 103.897 214.518 103.897 215.761H106.147ZM106.147 222.649H103.897C103.897 223.891 104.905 224.899 106.147 224.899V222.649ZM114.265 222.649V223.753H118.765V222.649H114.265ZM116.515 221.503H104.923V226.003H116.515V221.503ZM107.173 223.753V206.953H102.673V223.753H107.173ZM104.923 209.203H116.155V204.703H104.923V209.203ZM113.905 206.953V208.057H118.405V206.953H113.905ZM116.155 205.807H106.147V210.307H116.155V205.807ZM103.897 208.057V214.681H108.397V208.057H103.897ZM106.147 216.931H115.099V212.431H106.147V216.931ZM112.849 214.681V215.761H117.349V214.681H112.849ZM115.099 213.511H106.147V218.011H115.099V213.511ZM103.897 215.761V222.649H108.397V215.761H103.897ZM106.147 224.899H116.515V220.399H106.147V224.899ZM127.794 208.057H130.044C130.044 206.814 129.037 205.807 127.794 205.807V208.057ZM121.746 208.057H119.496C119.496 209.299 120.503 210.307 121.746 210.307V208.057ZM121.746 206.953V204.703C120.503 204.703 119.496 205.71 119.496 206.953H121.746ZM135.066 206.953H137.316C137.316 205.71 136.309 204.703 135.066 204.703V206.953ZM135.066 208.057V210.307C136.309 210.307 137.316 209.299 137.316 208.057H135.066ZM129.018 208.057V205.807C127.775 205.807 126.768 206.814 126.768 208.057H129.018ZM129.018 223.753V226.003C130.261 226.003 131.268 224.995 131.268 223.753H129.018ZM127.794 223.753H125.544C125.544 224.995 126.551 226.003 127.794 226.003V223.753ZM127.794 205.807H121.746V210.307H127.794V205.807ZM123.996 208.057V206.953H119.496V208.057H123.996ZM121.746 209.203H135.066V204.703H121.746V209.203ZM132.816 206.953V208.057H137.316V206.953H132.816ZM135.066 205.807H129.018V210.307H135.066V205.807ZM126.768 208.057V223.753H131.268V208.057H126.768ZM129.018 221.503H127.794V226.003H129.018V221.503ZM130.044 223.753V208.057H125.544V223.753H130.044ZM152.093 222.649H154.343C154.343 221.406 153.336 220.399 152.093 220.399V222.649ZM152.093 223.753V226.003C153.336 226.003 154.343 224.995 154.343 223.753H152.093ZM140.501 223.753H138.251C138.251 224.995 139.259 226.003 140.501 226.003V223.753ZM140.501 206.953V204.703C139.259 204.703 138.251 205.71 138.251 206.953H140.501ZM151.733 206.953H153.983C153.983 205.71 152.976 204.703 151.733 204.703V206.953ZM151.733 208.057V210.307C152.976 210.307 153.983 209.299 153.983 208.057H151.733ZM141.725 208.057V205.807C140.483 205.807 139.475 206.814 139.475 208.057H141.725ZM141.725 214.681H139.475C139.475 215.923 140.483 216.931 141.725 216.931V214.681ZM150.677 214.681H152.927C152.927 213.438 151.92 212.431 150.677 212.431V214.681ZM150.677 215.761V218.011C151.92 218.011 152.927 217.003 152.927 215.761H150.677ZM141.725 215.761V213.511C140.483 213.511 139.475 214.518 139.475 215.761H141.725ZM141.725 222.649H139.475C139.475 223.891 140.483 224.899 141.725 224.899V222.649ZM149.843 222.649V223.753H154.343V222.649H149.843ZM152.093 221.503H140.501V226.003H152.093V221.503ZM142.751 223.753V206.953H138.251V223.753H142.751ZM140.501 209.203H151.733V204.703H140.501V209.203ZM149.483 206.953V208.057H153.983V206.953H149.483ZM151.733 205.807H141.725V210.307H151.733V205.807ZM139.475 208.057V214.681H143.975V208.057H139.475ZM141.725 216.931H150.677V212.431H141.725V216.931ZM148.427 214.681V215.761H152.927V214.681H148.427ZM150.677 213.511H141.725V218.011H150.677V213.511ZM139.475 215.761V222.649H143.975V215.761H139.475ZM141.725 224.899H152.093V220.399H141.725V224.899ZM170.62 223.753L168.789 225.06C169.211 225.651 169.893 226.003 170.62 226.003V223.753ZM166.612 218.137L168.444 216.83C167.959 216.15 167.138 215.795 166.311 215.907L166.612 218.137ZM160.18 218.257V216.007C158.937 216.007 157.93 217.014 157.93 218.257H160.18ZM160.18 223.753V226.003C161.423 226.003 162.43 224.995 162.43 223.753H160.18ZM158.956 223.753H156.706C156.706 224.995 157.713 226.003 158.956 226.003V223.753ZM158.956 206.953V204.703C157.713 204.703 156.706 205.71 156.706 206.953H158.956ZM169.948 208.465L168.501 210.188C168.505 210.191 168.51 210.195 168.515 210.199L169.948 208.465ZM170.716 215.977L168.92 214.622L168.916 214.627L170.716 215.977ZM167.812 217.873L167.183 215.712C166.483 215.916 165.925 216.447 165.686 217.136C165.447 217.825 165.557 218.587 165.981 219.18L167.812 217.873ZM172.012 223.753V226.003C172.855 226.003 173.627 225.532 174.013 224.782C174.398 224.033 174.333 223.131 173.843 222.445L172.012 223.753ZM169.084 216.001L170.522 217.732C170.527 217.727 170.533 217.722 170.539 217.717L169.084 216.001ZM169.084 209.257L167.629 210.973C167.635 210.978 167.641 210.983 167.647 210.988L169.084 209.257ZM160.18 208.057V205.807C158.937 205.807 157.93 206.814 157.93 208.057H160.18ZM160.18 217.177H157.93C157.93 218.419 158.937 219.427 160.18 219.427V217.177ZM172.452 222.446L168.444 216.83L164.781 219.444L168.789 225.06L172.452 222.446ZM166.311 215.907C165.799 215.976 165.357 216.007 164.98 216.007V220.507C165.595 220.507 166.241 220.457 166.913 220.366L166.311 215.907ZM164.98 216.007H160.18V220.507H164.98V216.007ZM157.93 218.257V223.753H162.43V218.257H157.93ZM160.18 221.503H158.956V226.003H160.18V221.503ZM161.206 223.753V206.953H156.706V223.753H161.206ZM158.956 209.203H164.98V204.703H158.956V209.203ZM164.98 209.203C166.747 209.203 167.828 209.622 168.501 210.188L171.395 206.742C169.668 205.291 167.437 204.703 164.98 204.703V209.203ZM168.515 210.199C169.121 210.7 169.498 211.406 169.498 212.617H173.998C173.998 210.276 173.175 208.213 171.382 206.731L168.515 210.199ZM169.498 212.617C169.498 213.538 169.267 214.161 168.92 214.622L172.512 217.332C173.541 215.968 173.998 214.351 173.998 212.617H169.498ZM168.916 214.627C168.585 215.068 168.064 215.456 167.183 215.712L168.441 220.033C170.088 219.554 171.503 218.678 172.516 217.327L168.916 214.627ZM165.981 219.18L170.181 225.06L173.843 222.445L169.643 216.565L165.981 219.18ZM172.012 221.503H170.62V226.003H172.012V221.503ZM164.98 219.427C167.062 219.427 169.024 218.976 170.522 217.732L167.647 214.27C167.256 214.594 166.482 214.927 164.98 214.927V219.427ZM170.539 217.717C172.078 216.413 172.75 214.605 172.75 212.617H168.25C168.25 213.541 167.978 213.989 167.629 214.284L170.539 217.717ZM172.75 212.617C172.75 210.63 172.078 208.818 170.522 207.526L167.647 210.988C167.978 211.263 168.25 211.692 168.25 212.617H172.75ZM170.539 207.54C169.04 206.27 167.071 205.807 164.98 205.807V210.307C166.473 210.307 167.24 210.643 167.629 210.973L170.539 207.54ZM164.98 205.807H160.18V210.307H164.98V205.807ZM157.93 208.057V217.177H162.43V208.057H157.93ZM160.18 219.427H164.98V214.927H160.18V219.427ZM178.63 206.953V204.703C177.387 204.703 176.38 205.71 176.38 206.953H178.63ZM179.854 206.953H182.104C182.104 205.71 181.096 204.703 179.854 204.703V206.953ZM179.854 223.753V226.003C181.096 226.003 182.104 224.995 182.104 223.753H179.854ZM178.63 223.753H176.38C176.38 224.995 177.387 226.003 178.63 226.003V223.753ZM178.63 209.203H179.854V204.703H178.63V209.203ZM177.604 206.953V223.753H182.104V206.953H177.604ZM179.854 221.503H178.63V226.003H179.854V221.503ZM180.88 223.753V206.953H176.38V223.753H180.88ZM191.324 208.057H193.574C193.574 206.814 192.566 205.807 191.324 205.807V208.057ZM185.276 208.057H183.026C183.026 209.299 184.033 210.307 185.276 210.307V208.057ZM185.276 206.953V204.703C184.033 204.703 183.026 205.71 183.026 206.953H185.276ZM198.596 206.953H200.846C200.846 205.71 199.838 204.703 198.596 204.703V206.953ZM198.596 208.057V210.307C199.838 210.307 200.846 209.299 200.846 208.057H198.596ZM192.548 208.057V205.807C191.305 205.807 190.298 206.814 190.298 208.057H192.548ZM192.548 223.753V226.003C193.79 226.003 194.798 224.995 194.798 223.753H192.548ZM191.324 223.753H189.074C189.074 224.995 190.081 226.003 191.324 226.003V223.753ZM191.324 205.807H185.276V210.307H191.324V205.807ZM187.526 208.057V206.953H183.026V208.057H187.526ZM185.276 209.203H198.596V204.703H185.276V209.203ZM196.346 206.953V208.057H200.846V206.953H196.346ZM198.596 205.807H192.548V210.307H198.596V205.807ZM190.298 208.057V223.753H194.798V208.057H190.298ZM192.548 221.503H191.324V226.003H192.548V221.503ZM193.574 223.753V208.057H189.074V223.753H193.574ZM206.461 222.769L205.352 224.727C205.358 224.73 205.364 224.733 205.37 224.737L206.461 222.769ZM203.317 219.697L201.371 220.826C201.374 220.832 201.378 220.838 201.381 220.844L203.317 219.697ZM203.317 211.009L201.381 209.862C201.378 209.868 201.374 209.874 201.371 209.879L203.317 211.009ZM206.461 207.961L207.551 209.929C207.557 209.925 207.563 209.922 207.569 209.919L206.461 207.961ZM218.509 210.985L216.563 212.114C216.566 212.12 216.57 212.126 216.573 212.132L218.509 210.985ZM218.509 219.721L216.573 218.574C216.57 218.58 216.566 218.586 216.563 218.591L218.509 219.721ZM215.389 222.769L216.479 224.737L215.389 222.769ZM214.741 221.785L213.636 219.824L214.741 221.785ZM217.429 219.145L219.37 220.282L219.377 220.27L217.429 219.145ZM217.429 211.585L215.48 212.71L215.487 212.722L217.429 211.585ZM214.741 208.921L213.636 210.881L214.741 208.921ZM207.085 208.921L205.992 206.954L205.98 206.96L207.085 208.921ZM204.397 211.585L206.338 212.722L206.345 212.71L204.397 211.585ZM204.397 219.145L202.448 220.27L202.455 220.282L204.397 219.145ZM207.085 221.785L205.98 223.745L205.992 223.752L207.085 221.785ZM210.925 221.623C209.625 221.623 208.518 221.336 207.551 220.801L205.37 224.737C207.06 225.673 208.929 226.123 210.925 226.123V221.623ZM207.569 220.811C206.578 220.25 205.817 219.503 205.252 218.55L201.381 220.844C202.352 222.482 203.687 223.784 205.352 224.727L207.569 220.811ZM205.263 218.567C204.723 217.638 204.439 216.584 204.439 215.353H199.939C199.939 217.321 200.406 219.164 201.371 220.826L205.263 218.567ZM204.439 215.353C204.439 214.121 204.723 213.068 205.263 212.138L201.371 209.879C200.406 211.542 199.939 213.384 199.939 215.353H204.439ZM205.252 212.156C205.815 211.206 206.57 210.473 207.551 209.929L205.37 205.993C203.695 206.921 202.355 208.219 201.381 209.862L205.252 212.156ZM207.569 209.919C208.533 209.373 209.633 209.083 210.925 209.083V204.583C208.92 204.583 207.045 205.044 205.352 206.003L207.569 209.919ZM210.925 209.083C212.225 209.083 213.332 209.369 214.298 209.905L216.479 205.969C214.79 205.032 212.921 204.583 210.925 204.583V209.083ZM214.298 209.905C215.275 210.446 216.018 211.175 216.563 212.114L220.455 209.855C219.496 208.203 218.158 206.899 216.479 205.969L214.298 209.905ZM216.573 212.132C217.12 213.055 217.411 214.11 217.411 215.353H221.911C221.911 213.364 221.433 211.506 220.444 209.838L216.573 212.132ZM217.411 215.353C217.411 216.596 217.12 217.65 216.573 218.574L220.444 220.868C221.433 219.199 221.911 217.342 221.911 215.353H217.411ZM216.563 218.591C216.018 219.531 215.275 220.259 214.298 220.801L216.479 224.737C218.158 223.806 219.496 222.503 220.455 220.85L216.563 218.591ZM214.298 220.801C213.332 221.336 212.225 221.623 210.925 221.623V226.123C212.921 226.123 214.79 225.673 216.479 224.737L214.298 220.801ZM210.925 224.995C212.688 224.995 214.345 224.59 215.845 223.745L213.636 219.824C212.864 220.259 211.978 220.495 210.925 220.495V224.995ZM215.845 223.745C217.326 222.91 218.512 221.747 219.37 220.282L215.487 218.008C215.033 218.782 214.427 219.379 213.636 219.824L215.845 223.745ZM219.377 220.27C220.243 218.771 220.663 217.115 220.663 215.353H216.163C216.163 216.375 215.927 217.247 215.48 218.02L219.377 220.27ZM220.663 215.353C220.663 213.591 220.243 211.937 219.37 210.448L215.487 212.722C215.927 213.472 216.163 214.33 216.163 215.353H220.663ZM219.377 210.46C218.521 208.977 217.334 207.799 215.845 206.96L213.636 210.881C214.419 211.322 215.024 211.921 215.48 212.71L219.377 210.46ZM215.845 206.96C214.345 206.115 212.688 205.711 210.925 205.711V210.211C211.978 210.211 212.864 210.446 213.636 210.881L215.845 206.96ZM210.925 205.711C209.161 205.711 207.501 206.115 205.992 206.954L208.177 210.888C208.972 210.446 209.872 210.211 210.925 210.211V205.711ZM205.98 206.96C204.491 207.799 203.304 208.977 202.448 210.46L206.345 212.71C206.801 211.921 207.406 211.322 208.189 210.881L205.98 206.96ZM202.455 210.448C201.583 211.937 201.163 213.591 201.163 215.353H205.663C205.663 214.33 205.899 213.472 206.338 212.722L202.455 210.448ZM201.163 215.353C201.163 217.115 201.583 218.771 202.448 220.27L206.345 218.02C205.899 217.247 205.663 216.375 205.663 215.353H201.163ZM202.455 220.282C203.313 221.747 204.499 222.91 205.98 223.745L208.189 219.824C207.398 219.379 206.792 218.782 206.338 218.008L202.455 220.282ZM205.992 223.752C207.501 224.59 209.161 224.995 210.925 224.995V220.495C209.872 220.495 208.972 220.259 208.177 219.818L205.992 223.752Z" fill="white"/>
<path d="M143.769 201.827L148.467 200.119" stroke="white" stroke-width="3" stroke-linecap="round"/>
<mask id="mask0_162_24" style="mask-type:alpha" maskUnits="userSpaceOnUse" x="28" y="126" width="228" height="55">
<path d="M41.16 129.352C44.2867 129.352 46.7367 130.099 48.51 131.592C50.2833 133.086 51.17 135.139 51.17 137.752C51.17 140.366 50.2833 142.419 48.51 143.912C46.7367 145.382 44.2867 146.117 41.16 146.117H34.58V153.852H31.99V129.352H41.16ZM41.09 143.842C43.5167 143.842 45.3717 143.317 46.655 142.267C47.9383 141.194 48.58 139.689 48.58 137.752C48.58 135.769 47.9383 134.252 46.655 133.202C45.3717 132.129 43.5167 131.592 41.09 131.592H34.58V143.842H41.09ZM77.0003 153.852L71.4003 145.977C70.7703 146.047 70.1169 146.082 69.4403 146.082H62.8603V153.852H60.2703V129.352H69.4403C72.5669 129.352 75.0169 130.099 76.7903 131.592C78.5636 133.086 79.4503 135.139 79.4503 137.752C79.4503 139.666 78.9603 141.287 77.9803 142.617C77.0236 143.924 75.6469 144.869 73.8503 145.452L79.8353 153.852H77.0003ZM69.3703 143.877C71.7969 143.877 73.6519 143.341 74.9353 142.267C76.2186 141.194 76.8603 139.689 76.8603 137.752C76.8603 135.769 76.2186 134.252 74.9353 133.202C73.6519 132.129 71.7969 131.592 69.3703 131.592H62.8603V143.877H69.3703ZM106.388 151.612V153.852H89.0632V129.352H105.863V131.592H91.6532V140.307H104.323V142.512H91.6532V151.612H106.388ZM122.486 131.592H113.876V129.352H133.686V131.592H125.076V153.852H122.486V131.592ZM158.649 151.612V153.852H141.324V129.352H158.124V131.592H143.914V140.307H156.584V142.512H143.914V151.612H158.649ZM184.967 153.852L179.367 145.977C178.737 146.047 178.084 146.082 177.407 146.082H170.827V153.852H168.237V129.352H177.407C180.534 129.352 182.984 130.099 184.757 131.592C186.53 133.086 187.417 135.139 187.417 137.752C187.417 139.666 186.927 141.287 185.947 142.617C184.99 143.924 183.614 144.869 181.817 145.452L187.802 153.852H184.967ZM177.337 143.877C179.764 143.877 181.619 143.341 182.902 142.267C184.185 141.194 184.827 139.689 184.827 137.752C184.827 135.769 184.185 134.252 182.902 133.202C181.619 132.129 179.764 131.592 177.337 131.592H170.827V143.877H177.337ZM197.03 129.352H199.62V153.852H197.03V129.352ZM215.852 131.592H207.242V129.352H227.052V131.592H218.442V153.852H215.852V131.592ZM252.014 151.612V153.852H234.689V129.352H251.489V131.592H237.279V140.307H249.949V142.512H237.279V151.612H252.014Z" fill="#FA7268"/>
<path d="M48.51 131.592L46.5776 133.887L48.51 131.592ZM48.51 143.912L50.4246 146.222C50.4305 146.217 50.4365 146.212 50.4424 146.207L48.51 143.912ZM34.58 146.117V143.117C32.9231 143.117 31.58 144.461 31.58 146.117H34.58ZM34.58 153.852V156.852C36.2369 156.852 37.58 155.509 37.58 153.852H34.58ZM31.99 153.852H28.99C28.99 155.509 30.3331 156.852 31.99 156.852V153.852ZM31.99 129.352V126.352C30.3331 126.352 28.99 127.696 28.99 129.352H31.99ZM46.655 142.267L48.5547 144.589C48.5631 144.582 48.5714 144.576 48.5797 144.569L46.655 142.267ZM46.655 133.202L44.7303 135.504C44.7386 135.511 44.7469 135.517 44.7553 135.524L46.655 133.202ZM34.58 131.592V128.592C32.9231 128.592 31.58 129.936 31.58 131.592H34.58ZM34.58 143.842H31.58C31.58 145.499 32.9231 146.842 34.58 146.842V143.842ZM41.16 132.352C43.827 132.352 45.5083 132.987 46.5776 133.887L50.4424 129.298C47.9651 127.211 44.7463 126.352 41.16 126.352V132.352ZM46.5776 133.887C47.583 134.734 48.17 135.898 48.17 137.752H54.17C54.17 134.38 52.9837 131.438 50.4424 129.298L46.5776 133.887ZM48.17 137.752C48.17 139.607 47.583 140.771 46.5776 141.618L50.4424 146.207C52.9837 144.067 54.17 141.124 54.17 137.752H48.17ZM46.5954 141.603C45.5255 142.49 43.8372 143.117 41.16 143.117V149.117C44.7361 149.117 47.9478 148.275 50.4246 146.222L46.5954 141.603ZM41.16 143.117H34.58V149.117H41.16V143.117ZM31.58 146.117V153.852H37.58V146.117H31.58ZM34.58 150.852H31.99V156.852H34.58V150.852ZM34.99 153.852V129.352H28.99V153.852H34.99ZM31.99 132.352H41.16V126.352H31.99V132.352ZM41.09 146.842C43.8979 146.842 46.5358 146.241 48.5547 144.589L44.7553 139.945C44.2075 140.394 43.1355 140.842 41.09 140.842V146.842ZM48.5797 144.569C50.6558 142.832 51.58 140.421 51.58 137.752H45.58C45.58 138.957 45.2208 139.556 44.7303 139.966L48.5797 144.569ZM51.58 137.752C51.58 135.065 50.6728 132.613 48.5547 130.88L44.7553 135.524C45.2038 135.891 45.58 136.473 45.58 137.752H51.58ZM48.5797 130.901C46.5592 129.211 43.9109 128.592 41.09 128.592V134.592C43.1224 134.592 44.1842 135.047 44.7303 135.504L48.5797 130.901ZM41.09 128.592H34.58V134.592H41.09V128.592ZM31.58 131.592V143.842H37.58V131.592H31.58ZM34.58 146.842H41.09V140.842H34.58V146.842ZM77.0003 153.852L74.5554 155.591C75.1182 156.382 76.0292 156.852 77.0003 156.852V153.852ZM71.4003 145.977L73.8451 144.239C73.214 143.351 72.1514 142.875 71.069 142.996L71.4003 145.977ZM62.8603 146.082V143.082C61.2034 143.082 59.8603 144.426 59.8603 146.082H62.8603ZM62.8603 153.852V156.852C64.5171 156.852 65.8603 155.509 65.8603 153.852H62.8603ZM60.2703 153.852H57.2703C57.2703 155.509 58.6134 156.852 60.2703 156.852V153.852ZM60.2703 129.352V126.352C58.6134 126.352 57.2703 127.696 57.2703 129.352H60.2703ZM76.7903 131.592L74.8579 133.887L76.7903 131.592ZM77.9803 142.617L75.5651 140.838L75.5597 140.845L77.9803 142.617ZM73.8503 145.452L72.9239 142.599C72.015 142.894 71.3011 143.604 71.0015 144.512C70.7019 145.419 70.8525 146.415 71.407 147.193L73.8503 145.452ZM79.8353 153.852V156.852C80.9584 156.852 81.9875 156.225 82.502 155.227C83.0165 154.228 82.9303 153.026 82.2785 152.112L79.8353 153.852ZM74.9353 142.267L76.8599 144.569L74.9353 142.267ZM74.9353 133.202L73.0106 135.504C73.0189 135.511 73.0272 135.517 73.0356 135.524L74.9353 133.202ZM62.8603 131.592V128.592C61.2034 128.592 59.8603 129.936 59.8603 131.592H62.8603ZM62.8603 143.877H59.8603C59.8603 145.534 61.2034 146.877 62.8603 146.877V143.877ZM79.4451 152.114L73.8451 144.239L68.9554 147.716L74.5554 155.591L79.4451 152.114ZM71.069 142.996C70.5561 143.053 70.0136 143.082 69.4403 143.082V149.082C70.2203 149.082 70.9845 149.042 71.7316 148.959L71.069 142.996ZM69.4403 143.082H62.8603V149.082H69.4403V143.082ZM59.8603 146.082V153.852H65.8603V146.082H59.8603ZM62.8603 150.852H60.2703V156.852H62.8603V150.852ZM63.2703 153.852V129.352H57.2703V153.852H63.2703ZM60.2703 132.352H69.4403V126.352H60.2703V132.352ZM69.4403 132.352C72.1073 132.352 73.7886 132.987 74.8579 133.887L78.7227 129.298C76.2453 127.211 73.0266 126.352 69.4403 126.352V132.352ZM74.8579 133.887C75.8632 134.734 76.4503 135.898 76.4503 137.752H82.4503C82.4503 134.38 81.264 131.438 78.7227 129.298L74.8579 133.887ZM76.4503 137.752C76.4503 139.13 76.1073 140.102 75.5651 140.838L80.3954 144.397C81.8133 142.473 82.4503 140.201 82.4503 137.752H76.4503ZM75.5597 140.845C75.0344 141.563 74.2243 142.177 72.9239 142.599L74.7767 148.306C77.0696 147.561 79.0128 146.285 80.4009 144.39L75.5597 140.845ZM71.407 147.193L77.392 155.593L82.2785 152.112L76.2935 143.712L71.407 147.193ZM79.8353 150.852H77.0003V156.852H79.8353V150.852ZM69.3703 146.877C72.1912 146.877 74.8394 146.258 76.8599 144.569L73.0106 139.966C72.4645 140.423 71.4027 140.877 69.3703 140.877V146.877ZM76.8599 144.569C78.9361 142.832 79.8603 140.421 79.8603 137.752H73.8603C73.8603 138.957 73.5011 139.556 73.0106 139.966L76.8599 144.569ZM79.8603 137.752C79.8603 135.065 78.9531 132.613 76.835 130.88L73.0356 135.524C73.4841 135.891 73.8603 136.473 73.8603 137.752H79.8603ZM76.8599 130.901C74.8394 129.211 72.1912 128.592 69.3703 128.592V134.592C71.4027 134.592 72.4645 135.047 73.0106 135.504L76.8599 130.901ZM69.3703 128.592H62.8603V134.592H69.3703V128.592ZM59.8603 131.592V143.877H65.8603V131.592H59.8603ZM62.8603 146.877H69.3703V140.877H62.8603V146.877ZM106.388 151.612H109.388C109.388 149.956 108.045 148.612 106.388 148.612V151.612ZM106.388 153.852V156.852C108.045 156.852 109.388 155.509 109.388 153.852H106.388ZM89.0632 153.852H86.0632C86.0632 155.509 87.4064 156.852 89.0632 156.852V153.852ZM89.0632 129.352V126.352C87.4064 126.352 86.0632 127.696 86.0632 129.352H89.0632ZM105.863 129.352H108.863C108.863 127.696 107.52 126.352 105.863 126.352V129.352ZM105.863 131.592V134.592C107.52 134.592 108.863 133.249 108.863 131.592H105.863ZM91.6532 131.592V128.592C89.9964 128.592 88.6532 129.936 88.6532 131.592H91.6532ZM91.6532 140.307H88.6532C88.6532 141.964 89.9964 143.307 91.6532 143.307V140.307ZM104.323 140.307H107.323C107.323 138.651 105.98 137.307 104.323 137.307V140.307ZM104.323 142.512V145.512C105.98 145.512 107.323 144.169 107.323 142.512H104.323ZM91.6532 142.512V139.512C89.9964 139.512 88.6532 140.856 88.6532 142.512H91.6532ZM91.6532 151.612H88.6532C88.6532 153.269 89.9964 154.612 91.6532 154.612V151.612ZM103.388 151.612V153.852H109.388V151.612H103.388ZM106.388 150.852H89.0632V156.852H106.388V150.852ZM92.0632 153.852V129.352H86.0632V153.852H92.0632ZM89.0632 132.352H105.863V126.352H89.0632V132.352ZM102.863 129.352V131.592H108.863V129.352H102.863ZM105.863 128.592H91.6532V134.592H105.863V128.592ZM88.6532 131.592V140.307H94.6532V131.592H88.6532ZM91.6532 143.307H104.323V137.307H91.6532V143.307ZM101.323 140.307V142.512H107.323V140.307H101.323ZM104.323 139.512H91.6532V145.512H104.323V139.512ZM88.6532 142.512V151.612H94.6532V142.512H88.6532ZM91.6532 154.612H106.388V148.612H91.6532V154.612ZM122.486 131.592H125.486C125.486 129.936 124.143 128.592 122.486 128.592V131.592ZM113.876 131.592H110.876C110.876 133.249 112.219 134.592 113.876 134.592V131.592ZM113.876 129.352V126.352C112.219 126.352 110.876 127.696 110.876 129.352H113.876ZM133.686 129.352H136.686C136.686 127.696 135.343 126.352 133.686 126.352V129.352ZM133.686 131.592V134.592C135.343 134.592 136.686 133.249 136.686 131.592H133.686ZM125.076 131.592V128.592C123.419 128.592 122.076 129.936 122.076 131.592H125.076ZM125.076 153.852V156.852C126.733 156.852 128.076 155.509 128.076 153.852H125.076ZM122.486 153.852H119.486C119.486 155.509 120.829 156.852 122.486 156.852V153.852ZM122.486 128.592H113.876V134.592H122.486V128.592ZM116.876 131.592V129.352H110.876V131.592H116.876ZM113.876 132.352H133.686V126.352H113.876V132.352ZM130.686 129.352V131.592H136.686V129.352H130.686ZM133.686 128.592H125.076V134.592H133.686V128.592ZM122.076 131.592V153.852H128.076V131.592H122.076ZM125.076 150.852H122.486V156.852H125.076V150.852ZM125.486 153.852V131.592H119.486V153.852H125.486ZM158.649 151.612H161.649C161.649 149.956 160.306 148.612 158.649 148.612V151.612ZM158.649 153.852V156.852C160.306 156.852 161.649 155.509 161.649 153.852H158.649ZM141.324 153.852H138.324C138.324 155.509 139.667 156.852 141.324 156.852V153.852ZM141.324 129.352V126.352C139.667 126.352 138.324 127.696 138.324 129.352H141.324ZM158.124 129.352H161.124C161.124 127.696 159.781 126.352 158.124 126.352V129.352ZM158.124 131.592V134.592C159.781 134.592 161.124 133.249 161.124 131.592H158.124ZM143.914 131.592V128.592C142.257 128.592 140.914 129.936 140.914 131.592H143.914ZM143.914 140.307H140.914C140.914 141.964 142.257 143.307 143.914 143.307V140.307ZM156.584 140.307H159.584C159.584 138.651 158.241 137.307 156.584 137.307V140.307ZM156.584 142.512V145.512C158.241 145.512 159.584 144.169 159.584 142.512H156.584ZM143.914 142.512V139.512C142.257 139.512 140.914 140.856 140.914 142.512H143.914ZM143.914 151.612H140.914C140.914 153.269 142.257 154.612 143.914 154.612V151.612ZM155.649 151.612V153.852H161.649V151.612H155.649ZM158.649 150.852H141.324V156.852H158.649V150.852ZM144.324 153.852V129.352H138.324V153.852H144.324ZM141.324 132.352H158.124V126.352H141.324V132.352ZM155.124 129.352V131.592H161.124V129.352H155.124ZM158.124 128.592H143.914V134.592H158.124V128.592ZM140.914 131.592V140.307H146.914V131.592H140.914ZM143.914 143.307H156.584V137.307H143.914V143.307ZM153.584 140.307V142.512H159.584V140.307H153.584ZM156.584 139.512H143.914V145.512H156.584V139.512ZM140.914 142.512V151.612H146.914V142.512H140.914ZM143.914 154.612H158.649V148.612H143.914V154.612ZM184.967 153.852L182.522 155.591C183.085 156.382 183.996 156.852 184.967 156.852V153.852ZM179.367 145.977L181.812 144.239C181.181 143.351 180.118 142.875 179.036 142.996L179.367 145.977ZM170.827 146.082V143.082C169.17 143.082 167.827 144.426 167.827 146.082H170.827ZM170.827 153.852V156.852C172.484 156.852 173.827 155.509 173.827 153.852H170.827ZM168.237 153.852H165.237C165.237 155.509 166.58 156.852 168.237 156.852V153.852ZM168.237 129.352V126.352C166.58 126.352 165.237 127.696 165.237 129.352H168.237ZM184.757 131.592L182.825 133.887L184.757 131.592ZM185.947 142.617L183.532 140.838L183.526 140.845L185.947 142.617ZM181.817 145.452L180.891 142.599C179.982 142.894 179.268 143.604 178.968 144.512C178.669 145.419 178.819 146.415 179.374 147.193L181.817 145.452ZM187.802 153.852V156.852C188.925 156.852 189.954 156.225 190.469 155.227C190.983 154.228 190.897 153.026 190.245 152.112L187.802 153.852ZM182.902 142.267L184.827 144.569L182.902 142.267ZM182.902 133.202L180.977 135.504C180.986 135.511 180.994 135.517 181.002 135.524L182.902 133.202ZM170.827 131.592V128.592C169.17 128.592 167.827 129.936 167.827 131.592H170.827ZM170.827 143.877H167.827C167.827 145.534 169.17 146.877 170.827 146.877V143.877ZM187.412 152.114L181.812 144.239L176.922 147.716L182.522 155.591L187.412 152.114ZM179.036 142.996C178.523 143.053 177.98 143.082 177.407 143.082V149.082C178.187 149.082 178.951 149.042 179.698 148.959L179.036 142.996ZM177.407 143.082H170.827V149.082H177.407V143.082ZM167.827 146.082V153.852H173.827V146.082H167.827ZM170.827 150.852H168.237V156.852H170.827V150.852ZM171.237 153.852V129.352H165.237V153.852H171.237ZM168.237 132.352H177.407V126.352H168.237V132.352ZM177.407 132.352C180.074 132.352 181.755 132.987 182.825 133.887L186.689 129.298C184.212 127.211 180.993 126.352 177.407 126.352V132.352ZM182.825 133.887C183.83 134.734 184.417 135.898 184.417 137.752H190.417C190.417 134.38 189.231 131.438 186.689 129.298L182.825 133.887ZM184.417 137.752C184.417 139.13 184.074 140.102 183.532 140.838L188.362 144.397C189.78 142.473 190.417 140.201 190.417 137.752H184.417ZM183.526 140.845C183.001 141.563 182.191 142.177 180.891 142.599L182.743 148.306C185.036 147.561 186.98 146.285 188.368 144.39L183.526 140.845ZM179.374 147.193L185.359 155.593L190.245 152.112L184.26 143.712L179.374 147.193ZM187.802 150.852H184.967V156.852H187.802V150.852ZM177.337 146.877C180.158 146.877 182.806 146.258 184.827 144.569L180.977 139.966C180.431 140.423 179.369 140.877 177.337 140.877V146.877ZM184.827 144.569C186.903 142.832 187.827 140.421 187.827 137.752H181.827C181.827 138.957 181.468 139.556 180.977 139.966L184.827 144.569ZM187.827 137.752C187.827 135.065 186.92 132.613 184.802 130.88L181.002 135.524C181.451 135.891 181.827 136.473 181.827 137.752H187.827ZM184.827 130.901C182.806 129.211 180.158 128.592 177.337 128.592V134.592C179.369 134.592 180.431 135.047 180.977 135.504L184.827 130.901ZM177.337 128.592H170.827V134.592H177.337V128.592ZM167.827 131.592V143.877H173.827V131.592H167.827ZM170.827 146.877H177.337V140.877H170.827V146.877ZM197.03 129.352V126.352C195.373 126.352 194.03 127.696 194.03 129.352H197.03ZM199.62 129.352H202.62C202.62 127.696 201.277 126.352 199.62 126.352V129.352ZM199.62 153.852V156.852C201.277 156.852 202.62 155.509 202.62 153.852H199.62ZM197.03 153.852H194.03C194.03 155.509 195.373 156.852 197.03 156.852V153.852ZM197.03 132.352H199.62V126.352H197.03V132.352ZM196.62 129.352V153.852H202.62V129.352H196.62ZM199.62 150.852H197.03V156.852H199.62V150.852ZM200.03 153.852V129.352H194.03V153.852H200.03ZM215.852 131.592H218.852C218.852 129.936 217.508 128.592 215.852 128.592V131.592ZM207.242 131.592H204.242C204.242 133.249 205.585 134.592 207.242 134.592V131.592ZM207.242 129.352V126.352C205.585 126.352 204.242 127.696 204.242 129.352H207.242ZM227.052 129.352H230.052C230.052 127.696 228.708 126.352 227.052 126.352V129.352ZM227.052 131.592V134.592C228.708 134.592 230.052 133.249 230.052 131.592H227.052ZM218.442 131.592V128.592C216.785 128.592 215.442 129.936 215.442 131.592H218.442ZM218.442 153.852V156.852C220.098 156.852 221.442 155.509 221.442 153.852H218.442ZM215.852 153.852H212.852C212.852 155.509 214.195 156.852 215.852 156.852V153.852ZM215.852 128.592H207.242V134.592H215.852V128.592ZM210.242 131.592V129.352H204.242V131.592H210.242ZM207.242 132.352H227.052V126.352H207.242V132.352ZM224.052 129.352V131.592H230.052V129.352H224.052ZM227.052 128.592H218.442V134.592H227.052V128.592ZM215.442 131.592V153.852H221.442V131.592H215.442ZM218.442 150.852H215.852V156.852H218.442V150.852ZM218.852 153.852V131.592H212.852V153.852H218.852ZM252.014 151.612H255.014C255.014 149.956 253.671 148.612 252.014 148.612V151.612ZM252.014 153.852V156.852C253.671 156.852 255.014 155.509 255.014 153.852H252.014ZM234.689 153.852H231.689C231.689 155.509 233.032 156.852 234.689 156.852V153.852ZM234.689 129.352V126.352C233.032 126.352 231.689 127.696 231.689 129.352H234.689ZM251.489 129.352H254.489C254.489 127.696 253.146 126.352 251.489 126.352V129.352ZM251.489 131.592V134.592C253.146 134.592 254.489 133.249 254.489 131.592H251.489ZM237.279 131.592V128.592C235.622 128.592 234.279 129.936 234.279 131.592H237.279ZM237.279 140.307H234.279C234.279 141.964 235.622 143.307 237.279 143.307V140.307ZM249.949 140.307H252.949C252.949 138.651 251.606 137.307 249.949 137.307V140.307ZM249.949 142.512V145.512C251.606 145.512 252.949 144.169 252.949 142.512H249.949ZM237.279 142.512V139.512C235.622 139.512 234.279 140.856 234.279 142.512H237.279ZM237.279 151.612H234.279C234.279 153.269 235.622 154.612 237.279 154.612V151.612ZM249.014 151.612V153.852H255.014V151.612H249.014ZM252.014 150.852H234.689V156.852H252.014V150.852ZM237.689 153.852V129.352H231.689V153.852H237.689ZM234.689 132.352H251.489V126.352H234.689V132.352ZM248.489 129.352V131.592H254.489V129.352H248.489ZM251.489 128.592H237.279V134.592H251.489V128.592ZM234.279 131.592V140.307H240.279V131.592H234.279ZM237.279 143.307H249.949V137.307H237.279V143.307ZM246.949 140.307V142.512H252.949V140.307H246.949ZM249.949 139.512H237.279V145.512H249.949V139.512ZM234.279 142.512V151.612H240.279V142.512H234.279ZM237.279 154.612H252.014V148.612H237.279V154.612Z" fill="white"/>
<path d="M109.28 165.183H104.08V164.803H114.88V165.183H109.68V178.803H109.28V165.183ZM128.937 178.423V178.803H119.617V164.803H128.637V165.183H120.017V171.503H127.737V171.883H120.017V178.423H128.937ZM145.976 164.803V178.803H145.636L135.376 165.543V178.803H134.976V164.803H135.316L145.576 178.063V164.803H145.976ZM156.725 178.863C155.711 178.863 154.758 178.683 153.865 178.323C152.971 177.95 152.285 177.47 151.805 176.883L152.085 176.623C152.538 177.156 153.185 177.603 154.025 177.963C154.865 178.31 155.758 178.483 156.705 178.483C158.158 178.483 159.251 178.196 159.985 177.623C160.731 177.036 161.105 176.283 161.105 175.363C161.105 174.643 160.911 174.07 160.525 173.643C160.138 173.216 159.658 172.896 159.085 172.683C158.525 172.47 157.765 172.25 156.805 172.023C155.778 171.77 154.965 171.53 154.365 171.303C153.765 171.063 153.251 170.703 152.825 170.223C152.411 169.73 152.205 169.076 152.205 168.263C152.205 167.623 152.371 167.036 152.705 166.503C153.038 165.97 153.558 165.543 154.265 165.223C154.971 164.903 155.845 164.743 156.885 164.743C157.631 164.743 158.365 164.863 159.085 165.103C159.805 165.33 160.425 165.636 160.945 166.023L160.725 166.343C160.178 165.943 159.565 165.643 158.885 165.443C158.218 165.23 157.558 165.123 156.905 165.123C155.505 165.123 154.438 165.423 153.705 166.023C152.971 166.61 152.605 167.363 152.605 168.283C152.605 169.003 152.798 169.583 153.185 170.023C153.571 170.45 154.051 170.77 154.625 170.983C155.198 171.196 155.971 171.423 156.945 171.663C157.958 171.916 158.765 172.163 159.365 172.403C159.965 172.63 160.471 172.983 160.885 173.463C161.298 173.93 161.505 174.563 161.505 175.363C161.505 176.003 161.331 176.59 160.985 177.123C160.638 177.656 160.105 178.083 159.385 178.403C158.678 178.71 157.791 178.863 156.725 178.863ZM176.636 178.423V178.803H167.316V164.803H176.336V165.183H167.716V171.503H175.436V171.883H167.716V178.423H176.636Z" fill="#FA7268"/>
<path d="M109.28 165.183H111.28C111.28 164.079 110.385 163.183 109.28 163.183V165.183ZM104.08 165.183H102.08C102.08 166.288 102.975 167.183 104.08 167.183V165.183ZM104.08 164.803V162.803C102.975 162.803 102.08 163.699 102.08 164.803H104.08ZM114.88 164.803H116.88C116.88 163.699 115.985 162.803 114.88 162.803V164.803ZM114.88 165.183V167.183C115.985 167.183 116.88 166.288 116.88 165.183H114.88ZM109.68 165.183V163.183C108.575 163.183 107.68 164.079 107.68 165.183H109.68ZM109.68 178.803V180.803C110.785 180.803 111.68 179.908 111.68 178.803H109.68ZM109.28 178.803H107.28C107.28 179.908 108.175 180.803 109.28 180.803V178.803ZM109.28 163.183H104.08V167.183H109.28V163.183ZM106.08 165.183V164.803H102.08V165.183H106.08ZM104.08 166.803H114.88V162.803H104.08V166.803ZM112.88 164.803V165.183H116.88V164.803H112.88ZM114.88 163.183H109.68V167.183H114.88V163.183ZM107.68 165.183V178.803H111.68V165.183H107.68ZM109.68 176.803H109.28V180.803H109.68V176.803ZM111.28 178.803V165.183H107.28V178.803H111.28ZM128.937 178.423H130.937C130.937 177.319 130.042 176.423 128.937 176.423V178.423ZM128.937 178.803V180.803C130.042 180.803 130.937 179.908 130.937 178.803H128.937ZM119.617 178.803H117.617C117.617 179.908 118.512 180.803 119.617 180.803V178.803ZM119.617 164.803V162.803C118.512 162.803 117.617 163.699 117.617 164.803H119.617ZM128.637 164.803H130.637C130.637 163.699 129.742 162.803 128.637 162.803V164.803ZM128.637 165.183V167.183C129.742 167.183 130.637 166.288 130.637 165.183H128.637ZM120.017 165.183V163.183C118.912 163.183 118.017 164.079 118.017 165.183H120.017ZM120.017 171.503H118.017C118.017 172.608 118.912 173.503 120.017 173.503V171.503ZM127.737 171.503H129.737C129.737 170.399 128.842 169.503 127.737 169.503V171.503ZM127.737 171.883V173.883C128.842 173.883 129.737 172.988 129.737 171.883H127.737ZM120.017 171.883V169.883C118.912 169.883 118.017 170.779 118.017 171.883H120.017ZM120.017 178.423H118.017C118.017 179.528 118.912 180.423 120.017 180.423V178.423ZM126.937 178.423V178.803H130.937V178.423H126.937ZM128.937 176.803H119.617V180.803H128.937V176.803ZM121.617 178.803V164.803H117.617V178.803H121.617ZM119.617 166.803H128.637V162.803H119.617V166.803ZM126.637 164.803V165.183H130.637V164.803H126.637ZM128.637 163.183H120.017V167.183H128.637V163.183ZM118.017 165.183V171.503H122.017V165.183H118.017ZM120.017 173.503H127.737V169.503H120.017V173.503ZM125.737 171.503V171.883H129.737V171.503H125.737ZM127.737 169.883H120.017V173.883H127.737V169.883ZM118.017 171.883V178.423H122.017V171.883H118.017ZM120.017 180.423H128.937V176.423H120.017V180.423ZM145.976 164.803H147.976C147.976 163.699 147.081 162.803 145.976 162.803V164.803ZM145.976 178.803V180.803C147.081 180.803 147.976 179.908 147.976 178.803H145.976ZM145.636 178.803L144.055 180.027C144.433 180.517 145.017 180.803 145.636 180.803V178.803ZM135.376 165.543L136.958 164.319C136.435 163.643 135.539 163.374 134.73 163.651C133.92 163.927 133.376 164.688 133.376 165.543H135.376ZM135.376 178.803V180.803C136.481 180.803 137.376 179.908 137.376 178.803H135.376ZM134.976 178.803H132.976C132.976 179.908 133.872 180.803 134.976 180.803V178.803ZM134.976 164.803V162.803C133.872 162.803 132.976 163.699 132.976 164.803H134.976ZM135.316 164.803L136.898 163.579C136.519 163.09 135.935 162.803 135.316 162.803V164.803ZM145.576 178.063L143.995 179.287C144.518 179.964 145.414 180.232 146.223 179.956C147.032 179.679 147.576 178.918 147.576 178.063H145.576ZM145.576 164.803V162.803C144.472 162.803 143.576 163.699 143.576 164.803H145.576ZM143.976 164.803V178.803H147.976V164.803H143.976ZM145.976 176.803H145.636V180.803H145.976V176.803ZM147.218 177.579L136.958 164.319L133.795 166.767L144.055 180.027L147.218 177.579ZM133.376 165.543V178.803H137.376V165.543H133.376ZM135.376 176.803H134.976V180.803H135.376V176.803ZM136.976 178.803V164.803H132.976V178.803H136.976ZM134.976 166.803H135.316V162.803H134.976V166.803ZM133.735 166.027L143.995 179.287L147.158 176.839L136.898 163.579L133.735 166.027ZM147.576 178.063V164.803H143.576V178.063H147.576ZM145.576 166.803H145.976V162.803H145.576V166.803ZM153.865 178.323L153.093 180.168C153.101 180.172 153.109 180.175 153.117 180.178L153.865 178.323ZM151.805 176.883L150.444 175.418C149.67 176.136 149.588 177.332 150.257 178.15L151.805 176.883ZM152.085 176.623L153.608 175.328C153.255 174.912 152.747 174.659 152.202 174.627C151.658 174.594 151.123 174.786 150.724 175.158L152.085 176.623ZM154.025 177.963L153.237 179.801C153.245 179.805 153.253 179.808 153.262 179.812L154.025 177.963ZM159.985 177.623L161.216 179.199L161.22 179.196L159.985 177.623ZM160.525 173.643L159.043 174.986L160.525 173.643ZM159.085 172.683L158.373 174.552C158.377 174.554 158.382 174.556 158.387 174.558L159.085 172.683ZM156.805 172.023L156.325 173.965C156.332 173.967 156.338 173.968 156.345 173.97L156.805 172.023ZM154.365 171.303L153.622 173.16C153.634 173.165 153.646 173.17 153.658 173.174L154.365 171.303ZM152.825 170.223L151.291 171.508C151.304 171.523 151.317 171.537 151.33 171.552L152.825 170.223ZM152.705 166.503L154.401 167.563L152.705 166.503ZM159.085 165.103L158.452 167.001C158.463 167.004 158.473 167.007 158.484 167.011L159.085 165.103ZM160.945 166.023L162.593 167.156C163.202 166.27 163.001 165.06 162.138 164.418L160.945 166.023ZM160.725 166.343L159.544 167.957C159.98 168.276 160.527 168.405 161.06 168.315C161.593 168.224 162.066 167.922 162.373 167.476L160.725 166.343ZM158.885 165.443L158.275 167.348C158.29 167.353 158.305 167.357 158.32 167.362L158.885 165.443ZM153.705 166.023L154.954 167.585C154.96 167.58 154.965 167.576 154.971 167.571L153.705 166.023ZM153.185 170.023L151.682 171.343C151.689 171.351 151.696 171.359 151.703 171.366L153.185 170.023ZM154.625 170.983L155.322 169.109L154.625 170.983ZM156.945 171.663L157.43 169.723L157.423 169.721L156.945 171.663ZM159.365 172.403L158.622 174.26C158.634 174.265 158.646 174.27 158.658 174.274L159.365 172.403ZM160.885 173.463L159.369 174.768C159.375 174.775 159.381 174.782 159.387 174.789L160.885 173.463ZM160.985 177.123L159.308 176.033L160.985 177.123ZM159.385 178.403L160.181 180.238C160.186 180.236 160.191 180.233 160.197 180.231L159.385 178.403ZM156.725 176.863C155.954 176.863 155.256 176.727 154.612 176.468L153.117 180.178C154.26 180.639 155.469 180.863 156.725 180.863V176.863ZM154.636 176.478C153.963 176.197 153.575 175.889 153.352 175.617L150.257 178.15C150.994 179.051 151.979 179.703 153.093 180.168L154.636 176.478ZM153.165 178.349L153.445 178.089L150.724 175.158L150.444 175.418L153.165 178.349ZM150.561 177.918C151.266 178.748 152.196 179.356 153.237 179.801L154.812 176.125C154.173 175.851 153.81 175.565 153.608 175.328L150.561 177.918ZM153.262 179.812C154.354 180.263 155.507 180.483 156.705 180.483V176.483C156.009 176.483 155.375 176.357 154.788 176.114L153.262 179.812ZM156.705 180.483C158.369 180.483 159.982 180.164 161.216 179.199L158.753 176.048C158.52 176.229 157.947 176.483 156.705 176.483V180.483ZM161.22 179.196C162.431 178.244 163.105 176.919 163.105 175.363H159.105C159.105 175.647 159.031 175.829 158.749 176.051L161.22 179.196ZM163.105 175.363C163.105 174.276 162.804 173.18 162.007 172.3L159.043 174.986C159.044 174.988 159.046 174.99 159.048 174.994C159.051 174.998 159.057 175.01 159.064 175.032C159.08 175.078 159.105 175.18 159.105 175.363H163.105ZM162.007 172.3C161.391 171.621 160.636 171.127 159.782 170.809L158.387 174.558C158.679 174.666 158.884 174.812 159.043 174.986L162.007 172.3ZM159.797 170.814C159.119 170.556 158.263 170.312 157.264 170.077L156.345 173.97C157.266 174.187 157.93 174.384 158.373 174.552L159.797 170.814ZM157.284 170.081C156.292 169.837 155.565 169.619 155.071 169.432L153.658 173.174C154.364 173.441 155.264 173.703 156.325 173.965L157.284 170.081ZM155.107 169.446C154.794 169.321 154.538 169.141 154.319 168.894L151.33 171.552C151.964 172.265 152.735 172.806 153.622 173.16L155.107 169.446ZM154.358 168.939C154.319 168.892 154.205 168.734 154.205 168.263H150.205C150.205 169.419 150.504 170.568 151.291 171.508L154.358 168.939ZM154.205 168.263C154.205 167.991 154.27 167.773 154.401 167.563L151.009 165.443C150.473 166.3 150.205 167.255 150.205 168.263H154.205ZM154.401 167.563C154.481 167.435 154.658 167.241 155.09 167.045L153.44 163.401C152.458 163.846 151.595 164.505 151.009 165.443L154.401 167.563ZM155.09 167.045C155.465 166.875 156.037 166.743 156.885 166.743V162.743C155.652 162.743 154.478 162.931 153.44 163.401L155.09 167.045ZM156.885 166.743C157.413 166.743 157.933 166.827 158.452 167.001L159.717 163.206C158.796 162.899 157.85 162.743 156.885 162.743V166.743ZM158.484 167.011C159.025 167.181 159.437 167.395 159.751 167.628L162.138 164.418C161.412 163.878 160.584 163.478 159.685 163.195L158.484 167.011ZM159.296 164.89L159.076 165.21L162.373 167.476L162.593 167.156L159.296 164.89ZM161.906 164.729C161.164 164.186 160.34 163.787 159.449 163.524L158.32 167.362C158.789 167.5 159.192 167.7 159.544 167.957L161.906 164.729ZM159.494 163.538C158.644 163.266 157.779 163.123 156.905 163.123V167.123C157.337 167.123 157.791 167.193 158.275 167.348L159.494 163.538ZM156.905 163.123C155.256 163.123 153.665 163.472 152.438 164.475L154.971 167.571C155.211 167.375 155.753 167.123 156.905 167.123V163.123ZM152.455 164.461C151.259 165.418 150.605 166.741 150.605 168.283H154.605C154.605 167.985 154.684 167.801 154.954 167.585L152.455 164.461ZM150.605 168.283C150.605 169.373 150.906 170.46 151.682 171.343L154.687 168.703C154.677 168.692 154.663 168.674 154.647 168.626C154.629 168.572 154.605 168.465 154.605 168.283H150.605ZM151.703 171.366C152.318 172.045 153.073 172.54 153.927 172.858L155.322 169.109C155.03 169 154.825 168.855 154.667 168.68L151.703 171.366ZM153.927 172.858C154.602 173.109 155.459 173.357 156.466 173.605L157.423 169.721C156.484 169.49 155.793 169.284 155.322 169.109L153.927 172.858ZM156.459 173.603C157.431 173.846 158.141 174.068 158.622 174.26L160.107 170.546C159.388 170.259 158.484 169.987 157.43 169.723L156.459 173.603ZM158.658 174.274C158.949 174.384 159.177 174.545 159.369 174.768L162.4 172.158C161.766 171.422 160.98 170.875 160.071 170.532L158.658 174.274ZM159.387 174.789C159.393 174.796 159.505 174.909 159.505 175.363H163.505C163.505 174.217 163.202 173.064 162.382 172.137L159.387 174.789ZM159.505 175.363C159.505 175.619 159.442 175.826 159.308 176.033L162.661 178.213C163.22 177.353 163.505 176.388 163.505 175.363H159.505ZM159.308 176.033C159.217 176.172 159.023 176.375 158.572 176.576L160.197 180.231C161.186 179.791 162.059 179.14 162.661 178.213L159.308 176.033ZM158.588 176.568C158.21 176.733 157.616 176.863 156.725 176.863V180.863C157.967 180.863 159.146 180.687 160.181 180.238L158.588 176.568ZM176.636 178.423H178.636C178.636 177.319 177.741 176.423 176.636 176.423V178.423ZM176.636 178.803V180.803C177.741 180.803 178.636 179.908 178.636 178.803H176.636ZM167.316 178.803H165.316C165.316 179.908 166.212 180.803 167.316 180.803V178.803ZM167.316 164.803V162.803C166.212 162.803 165.316 163.699 165.316 164.803H167.316ZM176.336 164.803H178.336C178.336 163.699 177.441 162.803 176.336 162.803V164.803ZM176.336 165.183V167.183C177.441 167.183 178.336 166.288 178.336 165.183H176.336ZM167.716 165.183V163.183C166.612 163.183 165.716 164.079 165.716 165.183H167.716ZM167.716 171.503H165.716C165.716 172.608 166.612 173.503 167.716 173.503V171.503ZM175.436 171.503H177.436C177.436 170.399 176.541 169.503 175.436 169.503V171.503ZM175.436 171.883V173.883C176.541 173.883 177.436 172.988 177.436 171.883H175.436ZM167.716 171.883V169.883C166.612 169.883 165.716 170.779 165.716 171.883H167.716ZM167.716 178.423H165.716C165.716 179.528 166.612 180.423 167.716 180.423V178.423ZM174.636 178.423V178.803H178.636V178.423H174.636ZM176.636 176.803H167.316V180.803H176.636V176.803ZM169.316 178.803V164.803H165.316V178.803H169.316ZM167.316 166.803H176.336V162.803H167.316V166.803ZM174.336 164.803V165.183H178.336V164.803H174.336ZM176.336 163.183H167.716V167.183H176.336V163.183ZM165.716 165.183V171.503H169.716V165.183H165.716ZM167.716 173.503H175.436V169.503H167.716V173.503ZM173.436 171.503V171.883H177.436V171.503H173.436ZM175.436 169.883H167.716V173.883H175.436V169.883ZM165.716 171.883V178.423H169.716V171.883H165.716ZM167.716 180.423H176.636V176.423H167.716V180.423Z" fill="white"/>
</mask>
<g mask="url(#mask0_162_24)">
<path d="M-1 141.523C8.46667 142.569 13.2 146.723 34.5 147.318C55.8 147.914 89.4213 136.594 125 136.831C158.64 137.056 175.5 147.318 210.5 147.318C245.5 147.318 264.067 137.481 283 136.831V321.604H273.533C264.067 321.604 245.133 321.604 226.2 321.604C207.267 321.604 188.333 321.604 169.4 321.604C150.467 321.604 131.533 321.604 112.6 321.604C93.6667 321.604 74.7333 321.604 55.8 321.604C36.8667 321.604 17.9333 321.604 8.46667 321.604H-1V141.523Z" fill="white"/>
</g>
</g>
<defs>
<clipPath id="clip0_162_24">
<rect width="284" height="322" fill="white"/>
</clipPath>
</defs>
</svg>
