<svg width="284" height="322" viewBox="0 0 284 322" fill="none" xmlns="http://www.w3.org/2000/svg">
<g clip-path="url(#clip0_162_2)">
<path d="M284 0H0V322H284V0Z" fill="#001220"/>
<path d="M58.536 129.8C61.752 129.8 64.272 130.568 66.096 132.104C67.92 133.64 68.832 135.752 68.832 138.44C68.832 141.128 67.92 143.24 66.096 144.776C64.272 146.288 61.752 147.044 58.536 147.044H51.768V155H49.104V129.8H58.536ZM58.464 144.704C60.96 144.704 62.868 144.164 64.188 143.084C65.508 141.98 66.168 140.432 66.168 138.44C66.168 136.4 65.508 134.84 64.188 133.76C62.868 132.656 60.96 132.104 58.464 132.104H51.768V144.704H58.464ZM95.4003 155L89.6403 146.9C88.9923 146.972 88.3203 147.008 87.6243 147.008H80.8563V155H78.1923V129.8H87.6243C90.8403 129.8 93.3603 130.568 95.1843 132.104C97.0083 133.64 97.9203 135.752 97.9203 138.44C97.9203 140.408 97.4163 142.076 96.4083 143.444C95.4243 144.788 94.0083 145.76 92.1603 146.36L98.3163 155H95.4003ZM87.5523 144.74C90.0483 144.74 91.9563 144.188 93.2763 143.084C94.5963 141.98 95.2563 140.432 95.2563 138.44C95.2563 136.4 94.5963 134.84 93.2763 133.76C91.9563 132.656 90.0483 132.104 87.5523 132.104H80.8563V144.74H87.5523ZM125.628 152.696V155H107.808V129.8H125.088V132.104H110.472V141.068H123.504V143.336H110.472V152.696H125.628ZM142.438 155.216C140.566 155.216 138.766 154.916 137.038 154.316C135.334 153.716 134.014 152.924 133.078 151.94L134.122 149.888C135.034 150.8 136.246 151.544 137.758 152.12C139.27 152.672 140.83 152.948 142.438 152.948C144.694 152.948 146.386 152.54 147.514 151.724C148.642 150.884 149.206 149.804 149.206 148.484C149.206 147.476 148.894 146.672 148.27 146.072C147.67 145.472 146.926 145.016 146.038 144.704C145.15 144.368 143.914 144.008 142.33 143.624C140.434 143.144 138.922 142.688 137.794 142.256C136.666 141.8 135.694 141.116 134.878 140.204C134.086 139.292 133.69 138.056 133.69 136.496C133.69 135.224 134.026 134.072 134.698 133.04C135.37 131.984 136.402 131.144 137.794 130.52C139.186 129.896 140.914 129.584 142.978 129.584C144.418 129.584 145.822 129.788 147.19 130.196C148.582 130.58 149.782 131.12 150.79 131.816L149.89 133.94C148.834 133.244 147.706 132.728 146.506 132.392C145.306 132.032 144.13 131.852 142.978 131.852C140.77 131.852 139.102 132.284 137.974 133.148C136.87 133.988 136.318 135.08 136.318 136.424C136.318 137.432 136.618 138.248 137.218 138.872C137.842 139.472 138.61 139.94 139.522 140.276C140.458 140.588 141.706 140.936 143.266 141.32C145.114 141.776 146.602 142.232 147.73 142.688C148.882 143.12 149.854 143.792 150.646 144.704C151.438 145.592 151.834 146.804 151.834 148.34C151.834 149.612 151.486 150.776 150.79 151.832C150.118 152.864 149.074 153.692 147.658 154.316C146.242 154.916 144.502 155.216 142.438 155.216ZM179.058 152.696V155H161.238V129.8H178.518V132.104H163.902V141.068H176.934V143.336H163.902V152.696H179.058ZM209.98 129.8V155H207.784L191.584 134.552V155H188.92V129.8H191.116L207.352 150.248V129.8H209.98ZM226.702 132.104H217.846V129.8H238.222V132.104H229.366V155H226.702V132.104Z" fill="#FA668B"/>
<path d="M66.096 132.104L64.1636 134.399L66.096 132.104ZM66.096 144.776L68.0106 147.086C68.0165 147.081 68.0225 147.076 68.0284 147.071L66.096 144.776ZM51.768 147.044V144.044C50.1111 144.044 48.768 145.387 48.768 147.044H51.768ZM51.768 155V158C53.4249 158 54.768 156.657 54.768 155H51.768ZM49.104 155H46.104C46.104 156.657 47.4471 158 49.104 158V155ZM49.104 129.8V126.8C47.4471 126.8 46.104 128.143 46.104 129.8H49.104ZM64.188 143.084L66.0877 145.406C66.0961 145.399 66.1044 145.392 66.1127 145.385L64.188 143.084ZM64.188 133.76L62.2633 136.061C62.2716 136.068 62.2799 136.075 62.2883 136.082L64.188 133.76ZM51.768 132.104V129.104C50.1111 129.104 48.768 130.447 48.768 132.104H51.768ZM51.768 144.704H48.768C48.768 146.361 50.1111 147.704 51.768 147.704V144.704ZM58.536 132.8C61.2923 132.8 63.0436 133.456 64.1636 134.399L68.0284 129.809C65.5004 127.68 62.2117 126.8 58.536 126.8V132.8ZM64.1636 134.399C65.2196 135.288 65.832 136.511 65.832 138.44H71.832C71.832 134.993 70.6204 131.992 68.0284 129.809L64.1636 134.399ZM65.832 138.44C65.832 140.369 65.2196 141.592 64.1636 142.481L68.0284 147.071C70.6204 144.888 71.832 141.887 71.832 138.44H65.832ZM64.1814 142.466C63.0608 143.395 61.3026 144.044 58.536 144.044V150.044C62.2014 150.044 65.4832 149.181 68.0106 147.086L64.1814 142.466ZM58.536 144.044H51.768V150.044H58.536V144.044ZM48.768 147.044V155H54.768V147.044H48.768ZM51.768 152H49.104V158H51.768V152ZM52.104 155V129.8H46.104V155H52.104ZM49.104 132.8H58.536V126.8H49.104V132.8ZM58.464 147.704C61.3412 147.704 64.0322 147.088 66.0877 145.406L62.2883 140.762C61.7038 141.24 60.5788 141.704 58.464 141.704V147.704ZM66.1127 145.385C68.2255 143.618 69.168 141.164 69.168 138.44H63.168C63.168 139.7 62.7905 140.342 62.2633 140.783L66.1127 145.385ZM69.168 138.44C69.168 135.696 68.2425 133.201 66.0877 131.438L62.2883 136.082C62.7735 136.479 63.168 137.104 63.168 138.44H69.168ZM66.1127 131.459C64.0555 129.738 61.3542 129.104 58.464 129.104V135.104C60.5658 135.104 61.6805 135.574 62.2633 136.061L66.1127 131.459ZM58.464 129.104H51.768V135.104H58.464V129.104ZM48.768 132.104V144.704H54.768V132.104H48.768ZM51.768 147.704H58.464V141.704H51.768V147.704ZM95.4003 155L92.9554 156.739C93.5182 157.53 94.4292 158 95.4003 158V155ZM89.6403 146.9L92.0851 145.161C91.454 144.274 90.3914 143.798 89.309 143.918L89.6403 146.9ZM80.8563 147.008V144.008C79.1994 144.008 77.8563 145.351 77.8563 147.008H80.8563ZM80.8563 155V158C82.5131 158 83.8563 156.657 83.8563 155H80.8563ZM78.1923 155H75.1923C75.1923 156.657 76.5354 158 78.1923 158V155ZM78.1923 129.8V126.8C76.5354 126.8 75.1923 128.143 75.1923 129.8H78.1923ZM95.1843 132.104L93.2519 134.399L95.1843 132.104ZM96.4083 143.444L93.9931 141.664L93.9877 141.672L96.4083 143.444ZM92.1603 146.36L91.2339 143.507C90.325 143.802 89.6111 144.512 89.3115 145.419C89.012 146.327 89.1625 147.323 89.717 148.101L92.1603 146.36ZM98.3163 155V158C99.4394 158 100.468 157.373 100.983 156.374C101.497 155.376 101.411 154.174 100.76 153.259L98.3163 155ZM93.2763 143.084L95.2009 145.385H95.201L93.2763 143.084ZM93.2763 133.76L91.3516 136.061C91.3599 136.068 91.3682 136.075 91.3766 136.082L93.2763 133.76ZM80.8563 132.104V129.104C79.1994 129.104 77.8563 130.447 77.8563 132.104H80.8563ZM80.8563 144.74H77.8563C77.8563 146.397 79.1994 147.74 80.8563 147.74V144.74ZM97.8451 153.261L92.0851 145.161L87.1954 148.639L92.9554 156.739L97.8451 153.261ZM89.309 143.918C88.7781 143.977 88.217 144.008 87.6243 144.008V150.008C88.4236 150.008 89.2065 149.967 89.9716 149.882L89.309 143.918ZM87.6243 144.008H80.8563V150.008H87.6243V144.008ZM77.8563 147.008V155H83.8563V147.008H77.8563ZM80.8563 152H78.1923V158H80.8563V152ZM81.1923 155V129.8H75.1923V155H81.1923ZM78.1923 132.8H87.6243V126.8H78.1923V132.8ZM87.6243 132.8C90.3806 132.8 92.1319 133.456 93.2519 134.399L97.1167 129.809C94.5887 127.68 91.3 126.8 87.6243 126.8V132.8ZM93.2519 134.399C94.3079 135.288 94.9203 136.511 94.9203 138.44H100.92C100.92 134.993 99.7086 131.992 97.1167 129.809L93.2519 134.399ZM94.9203 138.44C94.9203 139.873 94.5633 140.891 93.9931 141.664L98.8234 145.224C100.269 143.261 100.92 140.943 100.92 138.44H94.9203ZM93.9877 141.672C93.4351 142.427 92.5856 143.068 91.2339 143.507L93.0867 149.213C95.4309 148.452 97.4135 147.149 98.8289 145.216L93.9877 141.672ZM89.717 148.101L95.873 156.741L100.76 153.259L94.6035 144.619L89.717 148.101ZM98.3163 152H95.4003V158H98.3163V152ZM87.5523 147.74C90.4425 147.74 93.1438 147.106 95.2009 145.385L91.3516 140.783C90.7688 141.27 89.654 141.74 87.5523 141.74V147.74ZM95.201 145.385C97.3138 143.618 98.2563 141.164 98.2563 138.44H92.2563C92.2563 139.7 91.8788 140.342 91.3516 140.783L95.201 145.385ZM98.2563 138.44C98.2563 135.696 97.3308 133.201 95.176 131.438L91.3766 136.082C91.8618 136.479 92.2563 137.104 92.2563 138.44H98.2563ZM95.2009 131.459C93.1438 129.738 90.4425 129.104 87.5523 129.104V135.104C89.654 135.104 90.7688 135.574 91.3516 136.061L95.2009 131.459ZM87.5523 129.104H80.8563V135.104H87.5523V129.104ZM77.8563 132.104V144.74H83.8563V132.104H77.8563ZM80.8563 147.74H87.5523V141.74H80.8563V147.74ZM125.628 152.696H128.628C128.628 151.039 127.285 149.696 125.628 149.696V152.696ZM125.628 155V158C127.285 158 128.628 156.657 128.628 155H125.628ZM107.808 155H104.808C104.808 156.657 106.151 158 107.808 158V155ZM107.808 129.8V126.8C106.151 126.8 104.808 128.143 104.808 129.8H107.808ZM125.088 129.8H128.088C128.088 128.143 126.745 126.8 125.088 126.8V129.8ZM125.088 132.104V135.104C126.745 135.104 128.088 133.761 128.088 132.104H125.088ZM110.472 132.104V129.104C108.815 129.104 107.472 130.447 107.472 132.104H110.472ZM110.472 141.068H107.472C107.472 142.725 108.815 144.068 110.472 144.068V141.068ZM123.504 141.068H126.504C126.504 139.411 125.161 138.068 123.504 138.068V141.068ZM123.504 143.336V146.336C125.161 146.336 126.504 144.993 126.504 143.336H123.504ZM110.472 143.336V140.336C108.815 140.336 107.472 141.679 107.472 143.336H110.472ZM110.472 152.696H107.472C107.472 154.353 108.815 155.696 110.472 155.696V152.696ZM122.628 152.696V155H128.628V152.696H122.628ZM125.628 152H107.808V158H125.628V152ZM110.808 155V129.8H104.808V155H110.808ZM107.808 132.8H125.088V126.8H107.808V132.8ZM122.088 129.8V132.104H128.088V129.8H122.088ZM125.088 129.104H110.472V135.104H125.088V129.104ZM107.472 132.104V141.068H113.472V132.104H107.472ZM110.472 144.068H123.504V138.068H110.472V144.068ZM120.504 141.068V143.336H126.504V141.068H120.504ZM123.504 140.336H110.472V146.336H123.504V140.336ZM107.472 143.336V152.696H113.472V143.336H107.472ZM110.472 155.696H125.628V149.696H110.472V155.696ZM137.038 154.316L136.042 157.146L136.054 157.15L137.038 154.316ZM133.078 151.94L130.404 150.58C129.828 151.713 130.028 153.086 130.904 154.008L133.078 151.94ZM134.122 149.888L136.243 147.767C135.564 147.087 134.601 146.775 133.652 146.925C132.703 147.076 131.884 147.671 131.448 148.528L134.122 149.888ZM137.758 152.12L136.69 154.923C136.703 154.928 136.716 154.933 136.729 154.938L137.758 152.12ZM147.514 151.724L149.272 154.155C149.284 154.147 149.295 154.138 149.306 154.13L147.514 151.724ZM148.27 146.072L146.149 148.193C146.162 148.207 146.176 148.221 146.191 148.234L148.27 146.072ZM146.038 144.704L144.976 147.51C144.999 147.518 145.021 147.526 145.043 147.534L146.038 144.704ZM142.33 143.624L141.594 146.532C141.603 146.535 141.613 146.537 141.623 146.54L142.33 143.624ZM137.794 142.256L136.67 145.037C136.687 145.044 136.704 145.051 136.721 145.058L137.794 142.256ZM134.878 140.204L132.613 142.171C132.623 142.182 132.632 142.193 132.642 142.204L134.878 140.204ZM134.698 133.04L137.212 134.677C137.218 134.668 137.223 134.659 137.229 134.651L134.698 133.04ZM137.794 130.52L139.021 133.258L137.794 130.52ZM147.19 130.196L146.333 133.071C146.352 133.077 146.372 133.082 146.392 133.088L147.19 130.196ZM150.79 131.816L153.552 132.986C154.107 131.676 153.666 130.156 152.495 129.347L150.79 131.816ZM149.89 133.94L148.239 136.445C148.983 136.935 149.906 137.069 150.758 136.812C151.611 136.554 152.305 135.931 152.652 135.11L149.89 133.94ZM146.506 132.392L145.644 135.265C145.662 135.271 145.679 135.276 145.697 135.281L146.506 132.392ZM137.974 133.148L139.791 135.535L139.798 135.53L137.974 133.148ZM137.218 138.872L135.055 140.951C135.083 140.98 135.11 141.007 135.139 141.034L137.218 138.872ZM139.522 140.276L138.485 143.091C138.514 143.102 138.544 143.112 138.573 143.122L139.522 140.276ZM143.266 141.32L143.985 138.407H143.983L143.266 141.32ZM147.73 142.688L146.606 145.469C146.629 145.479 146.653 145.488 146.677 145.497L147.73 142.688ZM150.646 144.704L148.381 146.671C148.39 146.681 148.398 146.691 148.407 146.701L150.646 144.704ZM150.79 151.832L148.285 150.181C148.282 150.186 148.279 150.19 148.276 150.195L150.79 151.832ZM147.658 154.316L148.828 157.078C148.842 157.073 148.855 157.067 148.868 157.061L147.658 154.316ZM142.438 152.216C140.893 152.216 139.426 151.97 138.022 151.482L136.054 157.15C138.106 157.862 140.239 158.216 142.438 158.216V152.216ZM138.034 151.486C136.636 150.994 135.771 150.419 135.252 149.872L130.904 154.008C132.257 155.429 134.032 156.438 136.042 157.146L138.034 151.486ZM135.752 153.3L136.796 151.248L131.448 148.528L130.404 150.58L135.752 153.3ZM132.001 152.009C133.278 153.286 134.88 154.234 136.69 154.923L138.826 149.317C137.612 148.854 136.79 148.314 136.243 147.767L132.001 152.009ZM136.729 154.938C138.57 155.61 140.479 155.948 142.438 155.948V149.948C141.181 149.948 139.969 149.734 138.787 149.302L136.729 154.938ZM142.438 155.948C144.966 155.948 147.403 155.507 149.272 154.155L145.756 149.293C145.369 149.573 144.422 149.948 142.438 149.948V155.948ZM149.306 154.13C151.136 152.767 152.206 150.822 152.206 148.484H146.206C146.206 148.786 146.148 149.001 145.722 149.318L149.306 154.13ZM152.206 148.484C152.206 146.806 151.659 145.169 150.349 143.91L146.191 148.234C146.194 148.238 146.19 148.234 146.183 148.224C146.177 148.214 146.174 148.208 146.175 148.21C146.176 148.213 146.206 148.29 146.206 148.484H152.206ZM150.391 143.951C149.44 143 148.298 142.318 147.032 141.874L145.043 147.534C145.554 147.714 145.9 147.944 146.149 148.193L150.391 143.951ZM147.1 141.898C146.042 141.498 144.669 141.104 143.037 140.708L141.623 146.54C143.159 146.912 144.257 147.238 144.976 147.51L147.1 141.898ZM143.066 140.716C141.224 140.249 139.839 139.827 138.867 139.454L136.721 145.058C138.005 145.549 139.644 146.039 141.594 146.532L143.066 140.716ZM138.918 139.475C138.218 139.192 137.626 138.776 137.114 138.204L132.642 142.204C133.762 143.456 135.114 144.408 136.67 145.037L138.918 139.475ZM137.143 138.237C136.949 138.014 136.69 137.549 136.69 136.496H130.69C130.69 138.563 131.222 140.57 132.613 142.171L137.143 138.237ZM136.69 136.496C136.69 135.785 136.868 135.205 137.212 134.677L132.184 131.403C131.184 132.939 130.69 134.663 130.69 136.496H136.69ZM137.229 134.651C137.523 134.189 138.046 133.694 139.021 133.258L136.567 127.782C134.757 128.594 133.217 129.779 132.167 131.429L137.229 134.651ZM139.021 133.258C139.916 132.856 141.196 132.584 142.978 132.584V126.584C140.632 126.584 138.455 126.936 136.567 127.782L139.021 133.258ZM142.978 132.584C144.13 132.584 145.245 132.747 146.333 133.071L148.047 127.321C146.399 126.829 144.706 126.584 142.978 126.584V132.584ZM146.392 133.088C147.517 133.398 148.398 133.81 149.085 134.285L152.495 129.347C151.166 128.43 149.647 127.762 147.988 127.304L146.392 133.088ZM148.028 130.646L147.128 132.77L152.652 135.11L153.552 132.986L148.028 130.646ZM151.541 131.435C150.23 130.571 148.818 129.924 147.315 129.503L145.697 135.281C146.594 135.532 147.438 135.917 148.239 136.445L151.541 131.435ZM147.368 129.519C145.913 129.082 144.446 128.852 142.978 128.852V134.852C143.814 134.852 144.699 134.982 145.644 135.265L147.368 129.519ZM142.978 128.852C140.454 128.852 138.021 129.333 136.15 130.766L139.798 135.53C140.183 135.235 141.086 134.852 142.978 134.852V128.852ZM136.157 130.761C134.336 132.146 133.318 134.108 133.318 136.424H139.318C139.318 136.052 139.404 135.83 139.791 135.535L136.157 130.761ZM133.318 136.424C133.318 138.07 133.83 139.677 135.055 140.951L139.38 136.793C139.369 136.781 139.366 136.777 139.359 136.757C139.348 136.729 139.318 136.63 139.318 136.424H133.318ZM135.139 141.034C136.096 141.955 137.232 142.629 138.485 143.091L140.559 137.461C139.988 137.251 139.588 136.989 139.297 136.709L135.139 141.034ZM138.573 143.122C139.618 143.47 140.953 143.84 142.549 144.233L143.983 138.407C142.459 138.032 141.298 137.706 140.471 137.43L138.573 143.122ZM142.547 144.233C144.325 144.671 145.661 145.088 146.606 145.469L148.854 139.907C147.542 139.376 145.903 138.881 143.985 138.407L142.547 144.233ZM146.677 145.497C147.37 145.757 147.923 146.143 148.381 146.671L152.911 142.737C151.785 141.441 150.394 140.483 148.783 139.879L146.677 145.497ZM148.407 146.701C148.58 146.895 148.834 147.32 148.834 148.34H154.834C154.834 146.288 154.296 144.289 152.885 142.707L148.407 146.701ZM148.834 148.34C148.834 149.029 148.656 149.618 148.285 150.181L153.295 153.483C154.316 151.934 154.834 150.195 154.834 148.34H148.834ZM148.276 150.195C147.994 150.627 147.468 151.122 146.448 151.571L148.868 157.061C150.68 156.262 152.241 155.101 153.304 153.469L148.276 150.195ZM146.487 151.554C145.545 151.953 144.23 152.216 142.438 152.216V158.216C144.774 158.216 146.939 157.879 148.828 157.078L146.487 151.554ZM179.058 152.696H182.058C182.058 151.039 180.715 149.696 179.058 149.696V152.696ZM179.058 155V158C180.715 158 182.058 156.657 182.058 155H179.058ZM161.238 155H158.238C158.238 156.657 159.582 158 161.238 158V155ZM161.238 129.8V126.8C159.582 126.8 158.238 128.143 158.238 129.8H161.238ZM178.518 129.8H181.518C181.518 128.143 180.175 126.8 178.518 126.8V129.8ZM178.518 132.104V135.104C180.175 135.104 181.518 133.761 181.518 132.104H178.518ZM163.902 132.104V129.104C162.246 129.104 160.902 130.447 160.902 132.104H163.902ZM163.902 141.068H160.902C160.902 142.725 162.246 144.068 163.902 144.068V141.068ZM176.934 141.068H179.934C179.934 139.411 178.591 138.068 176.934 138.068V141.068ZM176.934 143.336V146.336C178.591 146.336 179.934 144.993 179.934 143.336H176.934ZM163.902 143.336V140.336C162.246 140.336 160.902 141.679 160.902 143.336H163.902ZM163.902 152.696H160.902C160.902 154.353 162.246 155.696 163.902 155.696V152.696ZM176.058 152.696V155H182.058V152.696H176.058ZM179.058 152H161.238V158H179.058V152ZM164.238 155V129.8H158.238V155H164.238ZM161.238 132.8H178.518V126.8H161.238V132.8ZM175.518 129.8V132.104H181.518V129.8H175.518ZM178.518 129.104H163.902V135.104H178.518V129.104ZM160.902 132.104V141.068H166.902V132.104H160.902ZM163.902 144.068H176.934V138.068H163.902V144.068ZM173.934 141.068V143.336H179.934V141.068H173.934ZM176.934 140.336H163.902V146.336H176.934V140.336ZM160.902 143.336V152.696H166.902V143.336H160.902ZM163.902 155.696H179.058V149.696H163.902V155.696ZM209.98 129.8H212.98C212.98 128.143 211.637 126.8 209.98 126.8V129.8ZM209.98 155V158C211.637 158 212.98 156.657 212.98 155H209.98ZM207.784 155L205.433 156.863C206.002 157.581 206.868 158 207.784 158V155ZM191.584 134.552L193.936 132.689C193.143 131.688 191.804 131.299 190.598 131.719C189.392 132.139 188.584 133.275 188.584 134.552H191.584ZM191.584 155V158C193.241 158 194.584 156.657 194.584 155H191.584ZM188.92 155H185.92C185.92 156.657 187.264 158 188.92 158V155ZM188.92 129.8V126.8C187.264 126.8 185.92 128.143 185.92 129.8H188.92ZM191.116 129.8L193.466 127.935C192.897 127.218 192.032 126.8 191.116 126.8V129.8ZM207.352 150.248L205.003 152.113C205.796 153.113 207.135 153.501 208.34 153.081C209.545 152.661 210.352 151.524 210.352 150.248H207.352ZM207.352 129.8V126.8C205.696 126.8 204.352 128.143 204.352 129.8H207.352ZM206.98 129.8V155H212.98V129.8H206.98ZM209.98 152H207.784V158H209.98V152ZM210.136 153.137L193.936 132.689L189.233 136.415L205.433 156.863L210.136 153.137ZM188.584 134.552V155H194.584V134.552H188.584ZM191.584 152H188.92V158H191.584V152ZM191.92 155V129.8H185.92V155H191.92ZM188.92 132.8H191.116V126.8H188.92V132.8ZM188.767 131.665L205.003 152.113L209.702 148.383L193.466 127.935L188.767 131.665ZM210.352 150.248V129.8H204.352V150.248H210.352ZM207.352 132.8H209.98V126.8H207.352V132.8ZM226.702 132.104H229.702C229.702 130.447 228.358 129.104 226.702 129.104V132.104ZM217.846 132.104H214.846C214.846 133.761 216.189 135.104 217.846 135.104V132.104ZM217.846 129.8V126.8C216.189 126.8 214.846 128.143 214.846 129.8H217.846ZM238.222 129.8H241.222C241.222 128.143 239.878 126.8 238.222 126.8V129.8ZM238.222 132.104V135.104C239.878 135.104 241.222 133.761 241.222 132.104H238.222ZM229.366 132.104V129.104C227.709 129.104 226.366 130.447 226.366 132.104H229.366ZM229.366 155V158C231.022 158 232.366 156.657 232.366 155H229.366ZM226.702 155H223.702C223.702 156.657 225.045 158 226.702 158V155ZM226.702 129.104H217.846V135.104H226.702V129.104ZM220.846 132.104V129.8H214.846V132.104H220.846ZM217.846 132.8H238.222V126.8H217.846V132.8ZM235.222 129.8V132.104H241.222V129.8H235.222ZM238.222 129.104H229.366V135.104H238.222V129.104ZM226.366 132.104V155H232.366V132.104H226.366ZM229.366 152H226.702V158H229.366V152ZM229.702 155V132.104H223.702V155H229.702Z" fill="#FA668B"/>
<path d="M124.28 104.38H119.08V104H129.88V104.38H124.68V118H124.28V104.38ZM145.617 104V118H145.217V111.08H135.017V118H134.617V104H135.017V110.7H145.217V104H145.617ZM162.265 117.62V118H152.945V104H161.965V104.38H153.345V110.7H161.065V111.08H153.345V117.62H162.265Z" fill="#FA668B"/>
<path d="M124.28 104.38H126.28C126.28 103.275 125.385 102.38 124.28 102.38V104.38ZM119.08 104.38H117.08C117.08 105.485 117.975 106.38 119.08 106.38V104.38ZM119.08 104V102C117.975 102 117.08 102.895 117.08 104H119.08ZM129.88 104H131.88C131.88 102.895 130.985 102 129.88 102V104ZM129.88 104.38V106.38C130.985 106.38 131.88 105.485 131.88 104.38H129.88ZM124.68 104.38V102.38C123.575 102.38 122.68 103.275 122.68 104.38H124.68ZM124.68 118V120C125.785 120 126.68 119.105 126.68 118H124.68ZM124.28 118H122.28C122.28 119.105 123.175 120 124.28 120V118ZM124.28 102.38H119.08V106.38H124.28V102.38ZM121.08 104.38V104H117.08V104.38H121.08ZM119.08 106H129.88V102H119.08V106ZM127.88 104V104.38H131.88V104H127.88ZM129.88 102.38H124.68V106.38H129.88V102.38ZM122.68 104.38V118H126.68V104.38H122.68ZM124.68 116H124.28V120H124.68V116ZM126.28 118V104.38H122.28V118H126.28ZM145.617 104H147.617C147.617 102.895 146.722 102 145.617 102V104ZM145.617 118V120C146.722 120 147.617 119.105 147.617 118H145.617ZM145.217 118H143.217C143.217 119.105 144.112 120 145.217 120V118ZM145.217 111.08H147.217C147.217 109.975 146.322 109.08 145.217 109.08V111.08ZM135.017 111.08V109.08C133.912 109.08 133.017 109.975 133.017 111.08H135.017ZM135.017 118V120C136.122 120 137.017 119.105 137.017 118H135.017ZM134.617 118H132.617C132.617 119.105 133.512 120 134.617 120V118ZM134.617 104V102C133.512 102 132.617 102.895 132.617 104H134.617ZM135.017 104H137.017C137.017 102.895 136.122 102 135.017 102V104ZM135.017 110.7H133.017C133.017 111.805 133.912 112.7 135.017 112.7V110.7ZM145.217 110.7V112.7C146.322 112.7 147.217 111.805 147.217 110.7H145.217ZM145.217 104V102C144.112 102 143.217 102.895 143.217 104H145.217ZM143.617 104V118H147.617V104H143.617ZM145.617 116H145.217V120H145.617V116ZM147.217 118V111.08H143.217V118H147.217ZM145.217 109.08H135.017V113.08H145.217V109.08ZM133.017 111.08V118H137.017V111.08H133.017ZM135.017 116H134.617V120H135.017V116ZM136.617 118V104H132.617V118H136.617ZM134.617 106H135.017V102H134.617V106ZM133.017 104V110.7H137.017V104H133.017ZM135.017 112.7H145.217V108.7H135.017V112.7ZM147.217 110.7V104H143.217V110.7H147.217ZM145.217 106H145.617V102H145.217V106ZM162.265 117.62H164.265C164.265 116.515 163.37 115.62 162.265 115.62V117.62ZM162.265 118V120C163.37 120 164.265 119.105 164.265 118H162.265ZM152.945 118H150.945C150.945 119.105 151.841 120 152.945 120V118ZM152.945 104V102C151.841 102 150.945 102.895 150.945 104H152.945ZM161.965 104H163.965C163.965 102.895 163.07 102 161.965 102V104ZM161.965 104.38V106.38C163.07 106.38 163.965 105.485 163.965 104.38H161.965ZM153.345 104.38V102.38C152.241 102.38 151.345 103.275 151.345 104.38H153.345ZM153.345 110.7H151.345C151.345 111.805 152.241 112.7 153.345 112.7V110.7ZM161.065 110.7H163.065C163.065 109.595 162.17 108.7 161.065 108.7V110.7ZM161.065 111.08V113.08C162.17 113.08 163.065 112.185 163.065 111.08H161.065ZM153.345 111.08V109.08C152.241 109.08 151.345 109.975 151.345 111.08H153.345ZM153.345 117.62H151.345C151.345 118.725 152.241 119.62 153.345 119.62V117.62ZM160.265 117.62V118H164.265V117.62H160.265ZM162.265 116H152.945V120H162.265V116ZM154.945 118V104H150.945V118H154.945ZM152.945 106H161.965V102H152.945V106ZM159.965 104V104.38H163.965V104H159.965ZM161.965 102.38H153.345V106.38H161.965V102.38ZM151.345 104.38V110.7H155.345V104.38H151.345ZM153.345 112.7H161.065V108.7H153.345V112.7ZM159.065 110.7V111.08H163.065V110.7H159.065ZM161.065 109.08H153.345V113.08H161.065V109.08ZM151.345 111.08V117.62H155.345V111.08H151.345ZM153.345 119.62H162.265V115.62H153.345V119.62Z" fill="#FA668B"/>
<path d="M0 127L9.46667 128.736C18.9333 130.512 37.8667 133.984 56.8 134.469C75.7333 134.953 94.6667 132.37 113.6 135.761C132.533 139.112 151.467 148.398 170.4 150.295C189.333 152.152 208.267 146.661 227.2 143.876C246.133 141.13 265.067 141.13 274.533 141.13H284V322H274.533C265.067 322 246.133 322 227.2 322C208.267 322 189.333 322 170.4 322C151.467 322 132.533 322 113.6 322C94.6667 322 75.7333 322 56.8 322C37.8667 322 18.9333 322 9.46667 322H0V127Z" fill="#FA668B"/>
<path d="M0 170.555L9.46667 168.818C18.9333 167.041 37.8667 163.568 56.8 161.872C75.7333 160.176 94.6667 160.337 113.6 158.116C132.533 155.895 151.467 151.291 170.4 156.137C189.333 160.983 208.267 175.28 227.2 186.709C246.133 198.138 265.067 206.78 274.533 211.061L284 215.382V322H274.533C265.067 322 246.133 322 227.2 322C208.267 322 189.333 322 170.4 322C151.467 322 132.533 322 113.6 322C94.6667 322 75.7333 322 56.8 322C37.8667 322 18.9333 322 9.46667 322H0V170.555Z" fill="#FC557A"/>
<path d="M0 242.947L9.46667 241.737C18.9333 240.527 37.8667 238.107 56.8 235.203C75.7333 232.339 94.6667 228.951 113.6 225.926C132.533 222.901 151.467 220.239 170.4 219.674C189.333 219.15 208.267 220.763 227.2 218.021C246.133 215.238 265.067 208.139 274.533 204.549L284 201V322H274.533C265.067 322 246.133 322 227.2 322C208.267 322 189.333 322 170.4 322C151.467 322 132.533 322 113.6 322C94.6667 322 75.7333 322 56.8 322C37.8667 322 18.9333 322 9.46667 322H0V242.947Z" fill="#FD4267"/>
<path d="M0 241L9.46667 245.981C18.9333 251.003 37.8667 260.967 56.8 259.914C75.7333 258.82 94.6667 246.67 113.6 244.361C132.533 242.093 151.467 249.626 170.4 253.879C189.333 258.131 208.267 259.104 227.2 258.699C246.133 258.294 265.067 256.512 274.533 255.661L284 254.77V322H274.533C265.067 322 246.133 322 227.2 322C208.267 322 189.333 322 170.4 322C151.467 322 132.533 322 113.6 322C94.6667 322 75.7333 322 56.8 322C37.8667 322 18.9333 322 9.46667 322H0V241Z" fill="#FC2B53"/>
<path d="M0 287.127L9.46667 285.586C18.9333 284.004 37.8667 280.922 56.8 282.382C75.7333 283.883 94.6667 289.965 113.6 293.615C132.533 297.264 151.467 298.481 170.4 296.169C189.333 293.899 208.267 288.059 227.2 286.518C246.133 284.977 265.067 287.654 274.533 289.032L284 290.371V322H274.533C265.067 322 246.133 322 227.2 322C208.267 322 189.333 322 170.4 322C151.467 322 132.533 322 113.6 322C94.6667 322 75.7333 322 56.8 322C37.8667 322 18.9333 322 9.46667 322H0V287.127Z" fill="#F9003E"/>
<path d="M77.0247 207.2C79.1367 207.2 80.7927 207.704 81.9927 208.712C83.1927 209.704 83.7927 211.088 83.7927 212.864C83.7927 214.624 83.1927 216.008 81.9927 217.016C80.7927 218.008 79.1367 218.504 77.0247 218.504H72.2247V224H71.0007V207.2H77.0247ZM77.0247 217.4C78.8167 217.4 80.1847 217.008 81.1287 216.224C82.0727 215.44 82.5447 214.32 82.5447 212.864C82.5447 211.408 82.0727 210.288 81.1287 209.504C80.1847 208.704 78.8167 208.304 77.0247 208.304H72.2247V217.4H77.0247ZM101.987 224L97.9785 218.384C97.3865 218.464 96.8425 218.504 96.3465 218.504H91.5465V224H90.3225V207.2H96.3465C98.4585 207.2 100.115 207.704 101.315 208.712C102.515 209.704 103.115 211.088 103.115 212.864C103.115 214.192 102.771 215.312 102.083 216.224C101.411 217.12 100.443 217.752 99.1785 218.12L103.379 224H101.987ZM96.3465 217.424C98.1385 217.424 99.5065 217.032 100.451 216.248C101.395 215.448 101.867 214.32 101.867 212.864C101.867 211.408 101.395 210.288 100.451 209.504C99.5065 208.704 98.1385 208.304 96.3465 208.304H91.5465V217.424H96.3465ZM121.588 222.896V224H109.996V207.2H121.228V208.304H111.22V214.928H120.172V216.008H111.22V222.896H121.588ZM132.867 224.12C131.635 224.12 130.459 223.912 129.339 223.496C128.235 223.064 127.371 222.512 126.747 221.84L127.299 220.928C127.891 221.552 128.683 222.064 129.675 222.464C130.683 222.848 131.739 223.04 132.843 223.04C134.443 223.04 135.651 222.736 136.467 222.128C137.283 221.52 137.691 220.728 137.691 219.752C137.691 219 137.475 218.4 137.043 217.952C136.611 217.504 136.075 217.16 135.435 216.92C134.795 216.68 133.931 216.432 132.843 216.176C131.611 215.872 130.619 215.576 129.867 215.288C129.131 215 128.499 214.56 127.971 213.968C127.459 213.36 127.203 212.552 127.203 211.544C127.203 210.728 127.419 209.984 127.851 209.312C128.283 208.624 128.939 208.08 129.819 207.68C130.715 207.28 131.827 207.08 133.155 207.08C134.083 207.08 134.995 207.216 135.891 207.488C136.787 207.76 137.563 208.128 138.219 208.592L137.763 209.576C137.091 209.112 136.347 208.76 135.531 208.52C134.731 208.28 133.939 208.16 133.155 208.16C131.603 208.16 130.427 208.472 129.627 209.096C128.827 209.72 128.427 210.528 128.427 211.52C128.427 212.272 128.643 212.872 129.075 213.32C129.507 213.768 130.043 214.112 130.683 214.352C131.323 214.592 132.195 214.848 133.299 215.12C134.531 215.424 135.515 215.72 136.251 216.008C136.987 216.296 137.611 216.736 138.123 217.328C138.651 217.904 138.915 218.688 138.915 219.68C138.915 220.496 138.691 221.24 138.243 221.912C137.811 222.584 137.139 223.12 136.227 223.52C135.315 223.92 134.195 224.12 132.867 224.12ZM157.068 222.896V224H145.476V207.2H156.708V208.304H146.7V214.928H155.652V216.008H146.7V222.896H157.068ZM177.61 207.2V224H176.602L165.154 209.408V224H163.93V207.2H164.962L176.386 221.792V207.2H177.61ZM189.093 208.304H183.045V207.2H196.365V208.304H190.317V224H189.093V208.304ZM213.393 222.896V224H201.801V207.2H213.033V208.304H203.025V214.928H211.977V216.008H203.025V222.896H213.393Z" fill="white"/>
<path d="M81.9927 208.712L80.5455 210.435C80.55 210.439 80.5545 210.442 80.5591 210.446L81.9927 208.712ZM81.9927 217.016L83.4262 218.75C83.4308 218.746 83.4353 218.743 83.4398 218.739L81.9927 217.016ZM72.2247 218.504V216.254C70.982 216.254 69.9747 217.261 69.9747 218.504H72.2247ZM72.2247 224V226.25C73.4673 226.25 74.4747 225.243 74.4747 224H72.2247ZM71.0007 224H68.7507C68.7507 225.243 69.758 226.25 71.0007 226.25V224ZM71.0007 207.2V204.95C69.758 204.95 68.7507 205.957 68.7507 207.2H71.0007ZM81.1287 216.224L82.5662 217.955L81.1287 216.224ZM81.1287 209.504L79.674 211.221C79.6797 211.225 79.6854 211.23 79.6911 211.235L81.1287 209.504ZM72.2247 208.304V206.054C70.982 206.054 69.9747 207.061 69.9747 208.304H72.2247ZM72.2247 217.4H69.9747C69.9747 218.643 70.982 219.65 72.2247 219.65V217.4ZM77.0247 209.45C78.792 209.45 79.8728 209.87 80.5455 210.435L83.4398 206.989C81.7125 205.538 79.4813 204.95 77.0247 204.95V209.45ZM80.5591 210.446C81.1656 210.948 81.5427 211.653 81.5427 212.864H86.0427C86.0427 210.523 85.2197 208.46 83.4262 206.978L80.5591 210.446ZM81.5427 212.864C81.5427 214.051 81.1701 214.768 80.5455 215.293L83.4398 218.739C85.2152 217.248 86.0427 215.197 86.0427 212.864H81.5427ZM80.5591 215.282C79.8859 215.838 78.7997 216.254 77.0247 216.254V220.754C79.4736 220.754 81.6994 220.178 83.4262 218.75L80.5591 215.282ZM77.0247 216.254H72.2247V220.754H77.0247V216.254ZM69.9747 218.504V224H74.4747V218.504H69.9747ZM72.2247 221.75H71.0007V226.25H72.2247V221.75ZM73.2507 224V207.2H68.7507V224H73.2507ZM71.0007 209.45H77.0247V204.95H71.0007V209.45ZM77.0247 219.65C79.1066 219.65 81.0683 219.199 82.5662 217.955L79.6911 214.493C79.301 214.817 78.5267 215.15 77.0247 215.15V219.65ZM82.5662 217.955C84.1225 216.662 84.7947 214.851 84.7947 212.864H80.2947C80.2947 213.789 80.0228 214.218 79.6911 214.493L82.5662 217.955ZM84.7947 212.864C84.7947 210.877 84.1225 209.066 82.5662 207.773L79.6911 211.235C80.0228 211.51 80.2947 211.939 80.2947 212.864H84.7947ZM82.5833 207.787C81.0845 206.517 79.1158 206.054 77.0247 206.054V210.554C78.5175 210.554 79.2848 210.891 79.674 211.221L82.5833 207.787ZM77.0247 206.054H72.2247V210.554H77.0247V206.054ZM69.9747 208.304V217.4H74.4747V208.304H69.9747ZM72.2247 219.65H77.0247V215.15H72.2247V219.65ZM101.987 224L100.155 225.307C100.577 225.899 101.26 226.25 101.987 226.25V224ZM97.9785 218.384L99.81 217.077C99.3252 216.398 98.5042 216.043 97.6772 216.154L97.9785 218.384ZM91.5465 218.504V216.254C90.3039 216.254 89.2965 217.261 89.2965 218.504H91.5465ZM91.5465 224V226.25C92.7892 226.25 93.7965 225.243 93.7965 224H91.5465ZM90.3225 224H88.0725C88.0725 225.243 89.0799 226.25 90.3225 226.25V224ZM90.3225 207.2V204.95C89.0799 204.95 88.0725 205.957 88.0725 207.2H90.3225ZM101.315 208.712L99.8673 210.435C99.8719 210.439 99.8764 210.442 99.8809 210.446L101.315 208.712ZM102.083 216.224L100.286 214.869L100.283 214.874L102.083 216.224ZM99.1785 218.12L98.5496 215.96C97.8494 216.164 97.2914 216.694 97.0526 217.383C96.8138 218.072 96.9237 218.834 97.3476 219.428L99.1785 218.12ZM103.379 224V226.25C104.221 226.25 104.993 225.779 105.379 225.03C105.765 224.28 105.699 223.378 105.209 222.692L103.379 224ZM100.451 216.248L101.888 217.979C101.894 217.974 101.9 217.969 101.905 217.965L100.451 216.248ZM100.451 209.504L98.9959 211.221C99.0015 211.225 99.0073 211.23 99.013 211.235L100.451 209.504ZM91.5465 208.304V206.054C90.3039 206.054 89.2965 207.061 89.2965 208.304H91.5465ZM91.5465 217.424H89.2965C89.2965 218.667 90.3039 219.674 91.5465 219.674V217.424ZM103.818 222.693L99.81 217.077L96.1471 219.691L100.155 225.307L103.818 222.693ZM97.6772 216.154C97.1656 216.223 96.7239 216.254 96.3465 216.254V220.754C96.9612 220.754 97.6074 220.705 98.2798 220.614L97.6772 216.154ZM96.3465 216.254H91.5465V220.754H96.3465V216.254ZM89.2965 218.504V224H93.7965V218.504H89.2965ZM91.5465 221.75H90.3225V226.25H91.5465V221.75ZM92.5725 224V207.2H88.0725V224H92.5725ZM90.3225 209.45H96.3465V204.95H90.3225V209.45ZM96.3465 209.45C98.1138 209.45 99.1946 209.87 99.8673 210.435L102.762 206.989C101.034 205.538 98.8032 204.95 96.3465 204.95V209.45ZM99.8809 210.446C100.487 210.948 100.865 211.653 100.865 212.864H105.365C105.365 210.523 104.542 208.46 102.748 206.978L99.8809 210.446ZM100.865 212.864C100.865 213.786 100.634 214.408 100.286 214.869L103.879 217.579C104.907 216.216 105.365 214.598 105.365 212.864H100.865ZM100.283 214.874C99.9518 215.315 99.4307 215.703 98.5496 215.96L99.8075 220.28C101.454 219.801 102.869 218.925 103.883 217.574L100.283 214.874ZM97.3476 219.428L101.548 225.308L105.209 222.692L101.009 216.812L97.3476 219.428ZM103.379 221.75H101.987V226.25H103.379V221.75ZM96.3465 219.674C98.4285 219.674 100.39 219.223 101.888 217.979L99.013 214.517C98.6229 214.841 97.8486 215.174 96.3465 215.174V219.674ZM101.905 217.965C103.445 216.66 104.117 214.852 104.117 212.864H99.6165C99.6165 213.788 99.3444 214.236 98.9959 214.531L101.905 217.965ZM104.117 212.864C104.117 210.877 103.444 209.066 101.888 207.773L99.013 211.235C99.3446 211.51 99.6165 211.939 99.6165 212.864H104.117ZM101.905 207.787C100.406 206.517 98.4377 206.054 96.3465 206.054V210.554C97.8394 210.554 98.6067 210.891 98.9959 211.221L101.905 207.787ZM96.3465 206.054H91.5465V210.554H96.3465V206.054ZM89.2965 208.304V217.424H93.7965V208.304H89.2965ZM91.5465 219.674H96.3465V215.174H91.5465V219.674ZM121.588 222.896H123.838C123.838 221.653 122.831 220.646 121.588 220.646V222.896ZM121.588 224V226.25C122.831 226.25 123.838 225.243 123.838 224H121.588ZM109.996 224H107.746C107.746 225.243 108.753 226.25 109.996 226.25V224ZM109.996 207.2V204.95C108.753 204.95 107.746 205.957 107.746 207.2H109.996ZM121.228 207.2H123.478C123.478 205.957 122.471 204.95 121.228 204.95V207.2ZM121.228 208.304V210.554C122.471 210.554 123.478 209.547 123.478 208.304H121.228ZM111.22 208.304V206.054C109.977 206.054 108.97 207.061 108.97 208.304H111.22ZM111.22 214.928H108.97C108.97 216.171 109.977 217.178 111.22 217.178V214.928ZM120.172 214.928H122.422C122.422 213.685 121.415 212.678 120.172 212.678V214.928ZM120.172 216.008V218.258C121.415 218.258 122.422 217.251 122.422 216.008H120.172ZM111.22 216.008V213.758C109.977 213.758 108.97 214.765 108.97 216.008H111.22ZM111.22 222.896H108.97C108.97 224.139 109.977 225.146 111.22 225.146V222.896ZM119.338 222.896V224H123.838V222.896H119.338ZM121.588 221.75H109.996V226.25H121.588V221.75ZM112.246 224V207.2H107.746V224H112.246ZM109.996 209.45H121.228V204.95H109.996V209.45ZM118.978 207.2V208.304H123.478V207.2H118.978ZM121.228 206.054H111.22V210.554H121.228V206.054ZM108.97 208.304V214.928H113.47V208.304H108.97ZM111.22 217.178H120.172V212.678H111.22V217.178ZM117.922 214.928V216.008H122.422V214.928H117.922ZM120.172 213.758H111.22V218.258H120.172V213.758ZM108.97 216.008V222.896H113.47V216.008H108.97ZM111.22 225.146H121.588V220.646H111.22V225.146ZM129.339 223.496L128.519 225.591C128.531 225.596 128.543 225.601 128.555 225.605L129.339 223.496ZM126.747 221.84L124.822 220.675C124.302 221.534 124.414 222.635 125.098 223.371L126.747 221.84ZM127.299 220.928L128.931 219.379C128.448 218.87 127.755 218.616 127.057 218.691C126.36 218.766 125.737 219.163 125.374 219.763L127.299 220.928ZM129.675 222.464L128.833 224.551C128.847 224.556 128.86 224.561 128.874 224.567L129.675 222.464ZM136.467 222.128L137.811 223.932L136.467 222.128ZM135.435 216.92L136.225 214.813L135.435 216.92ZM132.843 216.176L132.304 218.36C132.312 218.362 132.319 218.364 132.327 218.366L132.843 216.176ZM129.867 215.288L129.047 217.383C129.052 217.385 129.057 217.387 129.062 217.389L129.867 215.288ZM127.971 213.968L126.25 215.417C126.263 215.434 126.277 215.45 126.291 215.466L127.971 213.968ZM127.851 209.312L129.743 210.529C129.748 210.522 129.752 210.515 129.756 210.508L127.851 209.312ZM129.819 207.68L128.901 205.625C128.897 205.628 128.892 205.63 128.888 205.632L129.819 207.68ZM135.891 207.488L135.237 209.641L135.891 207.488ZM138.219 208.592L140.26 209.538C140.717 208.553 140.404 207.382 139.518 206.755L138.219 208.592ZM137.763 209.576L136.484 211.428C137.03 211.804 137.715 211.921 138.355 211.747C138.995 211.572 139.525 211.124 139.804 210.522L137.763 209.576ZM135.531 208.52L134.884 210.675L134.896 210.679L135.531 208.52ZM129.627 209.096L128.243 207.322L129.627 209.096ZM129.075 213.32L127.455 214.882L129.075 213.32ZM130.683 214.352L129.893 216.459L130.683 214.352ZM133.299 215.12L133.838 212.936L133.837 212.935L133.299 215.12ZM136.251 216.008L135.431 218.103L136.251 216.008ZM138.123 217.328L136.421 218.8C136.435 218.816 136.449 218.832 136.464 218.848L138.123 217.328ZM138.243 221.912L136.371 220.664C136.364 220.674 136.357 220.685 136.35 220.695L138.243 221.912ZM136.227 223.52L135.323 221.459L136.227 223.52ZM132.867 221.87C131.894 221.87 130.984 221.707 130.122 221.387L128.555 225.605C129.934 226.117 131.376 226.37 132.867 226.37V221.87ZM130.159 221.401C129.281 221.057 128.732 220.671 128.395 220.309L125.098 223.371C126.009 224.353 127.188 225.071 128.519 225.591L130.159 221.401ZM128.672 223.005L129.224 222.093L125.374 219.763L124.822 220.675L128.672 223.005ZM125.666 222.477C126.528 223.384 127.613 224.059 128.833 224.551L130.516 220.377C129.752 220.069 129.254 219.72 128.931 219.379L125.666 222.477ZM128.874 224.567C130.144 225.05 131.471 225.29 132.843 225.29V220.79C132.006 220.79 131.222 220.646 130.476 220.361L128.874 224.567ZM132.843 225.29C134.669 225.29 136.441 224.953 137.811 223.932L135.122 220.324C134.861 220.519 134.217 220.79 132.843 220.79V225.29ZM137.811 223.932C139.168 222.921 139.941 221.473 139.941 219.752H135.441C135.441 219.983 135.397 220.119 135.122 220.324L137.811 223.932ZM139.941 219.752C139.941 218.546 139.58 217.342 138.662 216.39L135.423 219.514C135.421 219.512 135.417 219.506 135.412 219.5C135.408 219.493 135.409 219.492 135.412 219.5C135.417 219.516 135.441 219.59 135.441 219.752H139.941ZM138.662 216.39C137.976 215.678 137.147 215.159 136.225 214.813L134.645 219.027C135.002 219.161 135.246 219.33 135.423 219.514L138.662 216.39ZM136.225 214.813C135.457 214.525 134.489 214.252 133.358 213.986L132.327 218.366C133.373 218.612 134.132 218.835 134.645 219.027L136.225 214.813ZM133.382 213.992C132.195 213.699 131.302 213.428 130.671 213.187L129.062 217.389C129.935 217.724 131.026 218.045 132.304 218.36L133.382 213.992ZM130.687 213.193C130.281 213.034 129.943 212.799 129.65 212.47L126.291 215.466C127.054 216.321 127.98 216.966 129.047 217.383L130.687 213.193ZM129.692 212.519C129.605 212.415 129.453 212.167 129.453 211.544H124.953C124.953 212.937 125.313 214.305 126.25 215.417L129.692 212.519ZM129.453 211.544C129.453 211.15 129.55 210.83 129.743 210.529L125.958 208.095C125.287 209.138 124.953 210.306 124.953 211.544H129.453ZM129.756 210.508C129.912 210.26 130.194 209.981 130.75 209.728L128.888 205.632C127.684 206.179 126.653 206.988 125.945 208.116L129.756 210.508ZM130.736 209.735C131.26 209.5 132.037 209.33 133.155 209.33V204.83C131.616 204.83 130.169 205.06 128.901 205.625L130.736 209.735ZM133.155 209.33C133.859 209.33 134.551 209.433 135.237 209.641L136.544 205.335C135.438 204.999 134.306 204.83 133.155 204.83V209.33ZM135.237 209.641C135.94 209.854 136.49 210.125 136.919 210.429L139.518 206.755C138.636 206.131 137.634 205.666 136.544 205.335L135.237 209.641ZM136.177 207.646L135.721 208.63L139.804 210.522L140.26 209.538L136.177 207.646ZM139.041 207.724C138.164 207.119 137.201 206.666 136.166 206.361L134.896 210.679C135.492 210.854 136.017 211.105 136.484 211.428L139.041 207.724ZM136.177 206.365C135.181 206.066 134.171 205.91 133.155 205.91V210.41C133.706 210.41 134.28 210.494 134.884 210.675L136.177 206.365ZM133.155 205.91C131.353 205.91 129.599 206.264 128.243 207.322L131.01 210.87C131.254 210.68 131.852 210.41 133.155 210.41V205.91ZM128.243 207.322C126.911 208.361 126.177 209.817 126.177 211.52H130.677C130.677 211.239 130.743 211.079 131.01 210.87L128.243 207.322ZM126.177 211.52C126.177 212.726 126.537 213.93 127.455 214.882L130.694 211.758C130.696 211.76 130.701 211.766 130.705 211.772C130.709 211.779 130.709 211.78 130.706 211.772C130.7 211.756 130.677 211.682 130.677 211.52H126.177ZM127.455 214.882C128.142 215.594 128.97 216.113 129.893 216.459L131.473 212.245C131.115 212.111 130.872 211.942 130.694 211.758L127.455 214.882ZM129.893 216.459C130.651 216.743 131.619 217.023 132.76 217.305L133.837 212.935C132.77 212.673 131.994 212.441 131.473 212.245L129.893 216.459ZM132.76 217.304C133.946 217.597 134.824 217.866 135.431 218.103L137.071 213.913C136.205 213.574 135.115 213.251 133.838 212.936L132.76 217.304ZM135.431 218.103C135.83 218.26 136.15 218.487 136.421 218.8L139.824 215.856C139.071 214.985 138.143 214.332 137.071 213.913L135.431 218.103ZM136.464 218.848C136.517 218.906 136.665 219.094 136.665 219.68H141.165C141.165 218.282 140.784 216.902 139.781 215.808L136.464 218.848ZM136.665 219.68C136.665 220.057 136.569 220.366 136.371 220.664L140.115 223.16C140.812 222.114 141.165 220.935 141.165 219.68H136.665ZM136.35 220.695C136.21 220.912 135.93 221.193 135.323 221.459L137.13 225.581C138.348 225.047 139.411 224.256 140.135 223.129L136.35 220.695ZM135.323 221.459C134.774 221.7 133.982 221.87 132.867 221.87V226.37C134.407 226.37 135.855 226.14 137.13 225.581L135.323 221.459ZM157.068 222.896H159.318C159.318 221.653 158.31 220.646 157.068 220.646V222.896ZM157.068 224V226.25C158.31 226.25 159.318 225.243 159.318 224H157.068ZM145.476 224H143.226C143.226 225.243 144.233 226.25 145.476 226.25V224ZM145.476 207.2V204.95C144.233 204.95 143.226 205.957 143.226 207.2H145.476ZM156.708 207.2H158.958C158.958 205.957 157.95 204.95 156.708 204.95V207.2ZM156.708 208.304V210.554C157.95 210.554 158.958 209.547 158.958 208.304H156.708ZM146.7 208.304V206.054C145.457 206.054 144.45 207.061 144.45 208.304H146.7ZM146.7 214.928H144.45C144.45 216.171 145.457 217.178 146.7 217.178V214.928ZM155.652 214.928H157.902C157.902 213.685 156.894 212.678 155.652 212.678V214.928ZM155.652 216.008V218.258C156.894 218.258 157.902 217.251 157.902 216.008H155.652ZM146.7 216.008V213.758C145.457 213.758 144.45 214.765 144.45 216.008H146.7ZM146.7 222.896H144.45C144.45 224.139 145.457 225.146 146.7 225.146V222.896ZM154.818 222.896V224H159.318V222.896H154.818ZM157.068 221.75H145.476V226.25H157.068V221.75ZM147.726 224V207.2H143.226V224H147.726ZM145.476 209.45H156.708V204.95H145.476V209.45ZM154.458 207.2V208.304H158.958V207.2H154.458ZM156.708 206.054H146.7V210.554H156.708V206.054ZM144.45 208.304V214.928H148.95V208.304H144.45ZM146.7 217.178H155.652V212.678H146.7V217.178ZM153.402 214.928V216.008H157.902V214.928H153.402ZM155.652 213.758H146.7V218.258H155.652V213.758ZM144.45 216.008V222.896H148.95V216.008H144.45ZM146.7 225.146H157.068V220.646H146.7V225.146ZM177.61 207.2H179.86C179.86 205.957 178.853 204.95 177.61 204.95V207.2ZM177.61 224V226.25C178.853 226.25 179.86 225.243 179.86 224H177.61ZM176.602 224L174.832 225.389C175.259 225.932 175.911 226.25 176.602 226.25V224ZM165.154 209.408L166.925 208.019C166.332 207.264 165.327 206.968 164.42 207.281C163.513 207.595 162.904 208.449 162.904 209.408H165.154ZM165.154 224V226.25C166.397 226.25 167.404 225.243 167.404 224H165.154ZM163.93 224H161.68C161.68 225.243 162.688 226.25 163.93 226.25V224ZM163.93 207.2V204.95C162.688 204.95 161.68 205.957 161.68 207.2H163.93ZM164.962 207.2L166.734 205.813C166.308 205.268 165.654 204.95 164.962 204.95V207.2ZM176.386 221.792L174.615 223.179C175.206 223.935 176.212 224.232 177.12 223.919C178.027 223.606 178.636 222.752 178.636 221.792H176.386ZM176.386 207.2V204.95C175.144 204.95 174.136 205.957 174.136 207.2H176.386ZM175.36 207.2V224H179.86V207.2H175.36ZM177.61 221.75H176.602V226.25H177.61V221.75ZM178.373 222.611L166.925 208.019L163.384 210.797L174.832 225.389L178.373 222.611ZM162.904 209.408V224H167.404V209.408H162.904ZM165.154 221.75H163.93V226.25H165.154V221.75ZM166.18 224V207.2H161.68V224H166.18ZM163.93 209.45H164.962V204.95H163.93V209.45ZM163.191 208.587L174.615 223.179L178.158 220.405L166.734 205.813L163.191 208.587ZM178.636 221.792V207.2H174.136V221.792H178.636ZM176.386 209.45H177.61V204.95H176.386V209.45ZM189.093 208.304H191.343C191.343 207.061 190.336 206.054 189.093 206.054V208.304ZM183.045 208.304H180.795C180.795 209.547 181.803 210.554 183.045 210.554V208.304ZM183.045 207.2V204.95C181.803 204.95 180.795 205.957 180.795 207.2H183.045ZM196.365 207.2H198.615C198.615 205.957 197.608 204.95 196.365 204.95V207.2ZM196.365 208.304V210.554C197.608 210.554 198.615 209.547 198.615 208.304H196.365ZM190.317 208.304V206.054C189.075 206.054 188.067 207.061 188.067 208.304H190.317ZM190.317 224V226.25C191.56 226.25 192.567 225.243 192.567 224H190.317ZM189.093 224H186.843C186.843 225.243 187.851 226.25 189.093 226.25V224ZM189.093 206.054H183.045V210.554H189.093V206.054ZM185.295 208.304V207.2H180.795V208.304H185.295ZM183.045 209.45H196.365V204.95H183.045V209.45ZM194.115 207.2V208.304H198.615V207.2H194.115ZM196.365 206.054H190.317V210.554H196.365V206.054ZM188.067 208.304V224H192.567V208.304H188.067ZM190.317 221.75H189.093V226.25H190.317V221.75ZM191.343 224V208.304H186.843V224H191.343ZM213.393 222.896H215.643C215.643 221.653 214.635 220.646 213.393 220.646V222.896ZM213.393 224V226.25C214.635 226.25 215.643 225.243 215.643 224H213.393ZM201.801 224H199.551C199.551 225.243 200.558 226.25 201.801 226.25V224ZM201.801 207.2V204.95C200.558 204.95 199.551 205.957 199.551 207.2H201.801ZM213.033 207.2H215.283C215.283 205.957 214.275 204.95 213.033 204.95V207.2ZM213.033 208.304V210.554C214.275 210.554 215.283 209.547 215.283 208.304H213.033ZM203.025 208.304V206.054C201.782 206.054 200.775 207.061 200.775 208.304H203.025ZM203.025 214.928H200.775C200.775 216.171 201.782 217.178 203.025 217.178V214.928ZM211.977 214.928H214.227C214.227 213.685 213.219 212.678 211.977 212.678V214.928ZM211.977 216.008V218.258C213.219 218.258 214.227 217.251 214.227 216.008H211.977ZM203.025 216.008V213.758C201.782 213.758 200.775 214.765 200.775 216.008H203.025ZM203.025 222.896H200.775C200.775 224.139 201.782 225.146 203.025 225.146V222.896ZM211.143 222.896V224H215.643V222.896H211.143ZM213.393 221.75H201.801V226.25H213.393V221.75ZM204.051 224V207.2H199.551V224H204.051ZM201.801 209.45H213.033V204.95H201.801V209.45ZM210.783 207.2V208.304H215.283V207.2H210.783ZM213.033 206.054H203.025V210.554H213.033V206.054ZM200.775 208.304V214.928H205.275V208.304H200.775ZM203.025 217.178H211.977V212.678H203.025V217.178ZM209.727 214.928V216.008H214.227V214.928H209.727ZM211.977 213.758H203.025V218.258H211.977V213.758ZM200.775 216.008V222.896H205.275V216.008H200.775ZM203.025 225.146H213.393V220.646H203.025V225.146Z" fill="white"/>
<g style="mix-blend-mode:soft-light">
<path d="M44 192.5H239" stroke="white"/>
</g>
<mask id="mask0_162_2" style="mask-type:alpha" maskUnits="userSpaceOnUse" x="46" y="126" width="196" height="57">
<path d="M58.536 129.8C61.752 129.8 64.272 130.568 66.096 132.104C67.92 133.64 68.832 135.752 68.832 138.44C68.832 141.128 67.92 143.24 66.096 144.776C64.272 146.288 61.752 147.044 58.536 147.044H51.768V155H49.104V129.8H58.536ZM58.464 144.704C60.96 144.704 62.868 144.164 64.188 143.084C65.508 141.98 66.168 140.432 66.168 138.44C66.168 136.4 65.508 134.84 64.188 133.76C62.868 132.656 60.96 132.104 58.464 132.104H51.768V144.704H58.464ZM95.4003 155L89.6403 146.9C88.9923 146.972 88.3203 147.008 87.6243 147.008H80.8563V155H78.1923V129.8H87.6243C90.8403 129.8 93.3603 130.568 95.1843 132.104C97.0083 133.64 97.9203 135.752 97.9203 138.44C97.9203 140.408 97.4163 142.076 96.4083 143.444C95.4243 144.788 94.0083 145.76 92.1603 146.36L98.3163 155H95.4003ZM87.5523 144.74C90.0483 144.74 91.9563 144.188 93.2763 143.084C94.5963 141.98 95.2563 140.432 95.2563 138.44C95.2563 136.4 94.5963 134.84 93.2763 133.76C91.9563 132.656 90.0483 132.104 87.5523 132.104H80.8563V144.74H87.5523ZM125.628 152.696V155H107.808V129.8H125.088V132.104H110.472V141.068H123.504V143.336H110.472V152.696H125.628ZM142.438 155.216C140.566 155.216 138.766 154.916 137.038 154.316C135.334 153.716 134.014 152.924 133.078 151.94L134.122 149.888C135.034 150.8 136.246 151.544 137.758 152.12C139.27 152.672 140.83 152.948 142.438 152.948C144.694 152.948 146.386 152.54 147.514 151.724C148.642 150.884 149.206 149.804 149.206 148.484C149.206 147.476 148.894 146.672 148.27 146.072C147.67 145.472 146.926 145.016 146.038 144.704C145.15 144.368 143.914 144.008 142.33 143.624C140.434 143.144 138.922 142.688 137.794 142.256C136.666 141.8 135.694 141.116 134.878 140.204C134.086 139.292 133.69 138.056 133.69 136.496C133.69 135.224 134.026 134.072 134.698 133.04C135.37 131.984 136.402 131.144 137.794 130.52C139.186 129.896 140.914 129.584 142.978 129.584C144.418 129.584 145.822 129.788 147.19 130.196C148.582 130.58 149.782 131.12 150.79 131.816L149.89 133.94C148.834 133.244 147.706 132.728 146.506 132.392C145.306 132.032 144.13 131.852 142.978 131.852C140.77 131.852 139.102 132.284 137.974 133.148C136.87 133.988 136.318 135.08 136.318 136.424C136.318 137.432 136.618 138.248 137.218 138.872C137.842 139.472 138.61 139.94 139.522 140.276C140.458 140.588 141.706 140.936 143.266 141.32C145.114 141.776 146.602 142.232 147.73 142.688C148.882 143.12 149.854 143.792 150.646 144.704C151.438 145.592 151.834 146.804 151.834 148.34C151.834 149.612 151.486 150.776 150.79 151.832C150.118 152.864 149.074 153.692 147.658 154.316C146.242 154.916 144.502 155.216 142.438 155.216ZM179.058 152.696V155H161.238V129.8H178.518V132.104H163.902V141.068H176.934V143.336H163.902V152.696H179.058ZM209.98 129.8V155H207.784L191.584 134.552V155H188.92V129.8H191.116L207.352 150.248V129.8H209.98ZM226.702 132.104H217.846V129.8H238.222V132.104H229.366V155H226.702V132.104Z" fill="white"/>
<path d="M66.096 132.104L64.1636 134.399L66.096 132.104ZM66.096 144.776L68.0106 147.086C68.0165 147.081 68.0225 147.076 68.0284 147.071L66.096 144.776ZM51.768 147.044V144.044C50.1111 144.044 48.768 145.387 48.768 147.044H51.768ZM51.768 155V158C53.4249 158 54.768 156.657 54.768 155H51.768ZM49.104 155H46.104C46.104 156.657 47.4471 158 49.104 158V155ZM49.104 129.8V126.8C47.4471 126.8 46.104 128.143 46.104 129.8H49.104ZM64.188 143.084L66.0877 145.406C66.0961 145.399 66.1044 145.392 66.1127 145.385L64.188 143.084ZM64.188 133.76L62.2633 136.061C62.2716 136.068 62.2799 136.075 62.2883 136.082L64.188 133.76ZM51.768 132.104V129.104C50.1111 129.104 48.768 130.447 48.768 132.104H51.768ZM51.768 144.704H48.768C48.768 146.361 50.1111 147.704 51.768 147.704V144.704ZM58.536 132.8C61.2923 132.8 63.0436 133.456 64.1636 134.399L68.0284 129.809C65.5004 127.68 62.2117 126.8 58.536 126.8V132.8ZM64.1636 134.399C65.2196 135.288 65.832 136.511 65.832 138.44H71.832C71.832 134.993 70.6204 131.992 68.0284 129.809L64.1636 134.399ZM65.832 138.44C65.832 140.369 65.2196 141.592 64.1636 142.481L68.0284 147.071C70.6204 144.888 71.832 141.887 71.832 138.44H65.832ZM64.1814 142.466C63.0608 143.395 61.3026 144.044 58.536 144.044V150.044C62.2014 150.044 65.4832 149.181 68.0106 147.086L64.1814 142.466ZM58.536 144.044H51.768V150.044H58.536V144.044ZM48.768 147.044V155H54.768V147.044H48.768ZM51.768 152H49.104V158H51.768V152ZM52.104 155V129.8H46.104V155H52.104ZM49.104 132.8H58.536V126.8H49.104V132.8ZM58.464 147.704C61.3412 147.704 64.0322 147.088 66.0877 145.406L62.2883 140.762C61.7038 141.24 60.5788 141.704 58.464 141.704V147.704ZM66.1127 145.385C68.2255 143.618 69.168 141.164 69.168 138.44H63.168C63.168 139.7 62.7905 140.342 62.2633 140.783L66.1127 145.385ZM69.168 138.44C69.168 135.696 68.2425 133.201 66.0877 131.438L62.2883 136.082C62.7735 136.479 63.168 137.104 63.168 138.44H69.168ZM66.1127 131.459C64.0555 129.738 61.3542 129.104 58.464 129.104V135.104C60.5658 135.104 61.6805 135.574 62.2633 136.061L66.1127 131.459ZM58.464 129.104H51.768V135.104H58.464V129.104ZM48.768 132.104V144.704H54.768V132.104H48.768ZM51.768 147.704H58.464V141.704H51.768V147.704ZM95.4003 155L92.9554 156.739C93.5182 157.53 94.4292 158 95.4003 158V155ZM89.6403 146.9L92.0851 145.161C91.454 144.274 90.3914 143.798 89.309 143.918L89.6403 146.9ZM80.8563 147.008V144.008C79.1994 144.008 77.8563 145.351 77.8563 147.008H80.8563ZM80.8563 155V158C82.5131 158 83.8563 156.657 83.8563 155H80.8563ZM78.1923 155H75.1923C75.1923 156.657 76.5354 158 78.1923 158V155ZM78.1923 129.8V126.8C76.5354 126.8 75.1923 128.143 75.1923 129.8H78.1923ZM95.1843 132.104L93.2519 134.399L95.1843 132.104ZM96.4083 143.444L93.9931 141.664L93.9877 141.672L96.4083 143.444ZM92.1603 146.36L91.2339 143.507C90.325 143.802 89.6111 144.512 89.3115 145.419C89.012 146.327 89.1625 147.323 89.717 148.101L92.1603 146.36ZM98.3163 155V158C99.4394 158 100.468 157.373 100.983 156.374C101.497 155.376 101.411 154.174 100.76 153.259L98.3163 155ZM93.2763 143.084L95.2009 145.385H95.201L93.2763 143.084ZM93.2763 133.76L91.3516 136.061C91.3599 136.068 91.3682 136.075 91.3766 136.082L93.2763 133.76ZM80.8563 132.104V129.104C79.1994 129.104 77.8563 130.447 77.8563 132.104H80.8563ZM80.8563 144.74H77.8563C77.8563 146.397 79.1994 147.74 80.8563 147.74V144.74ZM97.8451 153.261L92.0851 145.161L87.1954 148.639L92.9554 156.739L97.8451 153.261ZM89.309 143.918C88.7781 143.977 88.217 144.008 87.6243 144.008V150.008C88.4236 150.008 89.2065 149.967 89.9716 149.882L89.309 143.918ZM87.6243 144.008H80.8563V150.008H87.6243V144.008ZM77.8563 147.008V155H83.8563V147.008H77.8563ZM80.8563 152H78.1923V158H80.8563V152ZM81.1923 155V129.8H75.1923V155H81.1923ZM78.1923 132.8H87.6243V126.8H78.1923V132.8ZM87.6243 132.8C90.3806 132.8 92.1319 133.456 93.2519 134.399L97.1167 129.809C94.5887 127.68 91.3 126.8 87.6243 126.8V132.8ZM93.2519 134.399C94.3079 135.288 94.9203 136.511 94.9203 138.44H100.92C100.92 134.993 99.7086 131.992 97.1167 129.809L93.2519 134.399ZM94.9203 138.44C94.9203 139.873 94.5633 140.891 93.9931 141.664L98.8234 145.224C100.269 143.261 100.92 140.943 100.92 138.44H94.9203ZM93.9877 141.672C93.4351 142.427 92.5856 143.068 91.2339 143.507L93.0867 149.213C95.4309 148.452 97.4135 147.149 98.8289 145.216L93.9877 141.672ZM89.717 148.101L95.873 156.741L100.76 153.259L94.6035 144.619L89.717 148.101ZM98.3163 152H95.4003V158H98.3163V152ZM87.5523 147.74C90.4425 147.74 93.1438 147.106 95.2009 145.385L91.3516 140.783C90.7688 141.27 89.654 141.74 87.5523 141.74V147.74ZM95.201 145.385C97.3138 143.618 98.2563 141.164 98.2563 138.44H92.2563C92.2563 139.7 91.8788 140.342 91.3516 140.783L95.201 145.385ZM98.2563 138.44C98.2563 135.696 97.3308 133.201 95.176 131.438L91.3766 136.082C91.8618 136.479 92.2563 137.104 92.2563 138.44H98.2563ZM95.2009 131.459C93.1438 129.738 90.4425 129.104 87.5523 129.104V135.104C89.654 135.104 90.7688 135.574 91.3516 136.061L95.2009 131.459ZM87.5523 129.104H80.8563V135.104H87.5523V129.104ZM77.8563 132.104V144.74H83.8563V132.104H77.8563ZM80.8563 147.74H87.5523V141.74H80.8563V147.74ZM125.628 152.696H128.628C128.628 151.039 127.285 149.696 125.628 149.696V152.696ZM125.628 155V158C127.285 158 128.628 156.657 128.628 155H125.628ZM107.808 155H104.808C104.808 156.657 106.151 158 107.808 158V155ZM107.808 129.8V126.8C106.151 126.8 104.808 128.143 104.808 129.8H107.808ZM125.088 129.8H128.088C128.088 128.143 126.745 126.8 125.088 126.8V129.8ZM125.088 132.104V135.104C126.745 135.104 128.088 133.761 128.088 132.104H125.088ZM110.472 132.104V129.104C108.815 129.104 107.472 130.447 107.472 132.104H110.472ZM110.472 141.068H107.472C107.472 142.725 108.815 144.068 110.472 144.068V141.068ZM123.504 141.068H126.504C126.504 139.411 125.161 138.068 123.504 138.068V141.068ZM123.504 143.336V146.336C125.161 146.336 126.504 144.993 126.504 143.336H123.504ZM110.472 143.336V140.336C108.815 140.336 107.472 141.679 107.472 143.336H110.472ZM110.472 152.696H107.472C107.472 154.353 108.815 155.696 110.472 155.696V152.696ZM122.628 152.696V155H128.628V152.696H122.628ZM125.628 152H107.808V158H125.628V152ZM110.808 155V129.8H104.808V155H110.808ZM107.808 132.8H125.088V126.8H107.808V132.8ZM122.088 129.8V132.104H128.088V129.8H122.088ZM125.088 129.104H110.472V135.104H125.088V129.104ZM107.472 132.104V141.068H113.472V132.104H107.472ZM110.472 144.068H123.504V138.068H110.472V144.068ZM120.504 141.068V143.336H126.504V141.068H120.504ZM123.504 140.336H110.472V146.336H123.504V140.336ZM107.472 143.336V152.696H113.472V143.336H107.472ZM110.472 155.696H125.628V149.696H110.472V155.696ZM137.038 154.316L136.042 157.146L136.054 157.15L137.038 154.316ZM133.078 151.94L130.404 150.58C129.828 151.713 130.028 153.086 130.904 154.008L133.078 151.94ZM134.122 149.888L136.243 147.767C135.564 147.087 134.601 146.775 133.652 146.925C132.703 147.076 131.884 147.671 131.448 148.528L134.122 149.888ZM137.758 152.12L136.69 154.923C136.703 154.928 136.716 154.933 136.729 154.938L137.758 152.12ZM147.514 151.724L149.272 154.155C149.284 154.147 149.295 154.138 149.306 154.13L147.514 151.724ZM148.27 146.072L146.149 148.193C146.162 148.207 146.176 148.221 146.191 148.234L148.27 146.072ZM146.038 144.704L144.976 147.51C144.999 147.518 145.021 147.526 145.043 147.534L146.038 144.704ZM142.33 143.624L141.594 146.532C141.603 146.535 141.613 146.537 141.623 146.54L142.33 143.624ZM137.794 142.256L136.67 145.037C136.687 145.044 136.704 145.051 136.721 145.058L137.794 142.256ZM134.878 140.204L132.613 142.171C132.623 142.182 132.632 142.193 132.642 142.204L134.878 140.204ZM134.698 133.04L137.212 134.677C137.218 134.668 137.223 134.659 137.229 134.651L134.698 133.04ZM137.794 130.52L139.021 133.258L137.794 130.52ZM147.19 130.196L146.333 133.071C146.352 133.077 146.372 133.082 146.392 133.088L147.19 130.196ZM150.79 131.816L153.552 132.986C154.107 131.676 153.666 130.156 152.495 129.347L150.79 131.816ZM149.89 133.94L148.239 136.445C148.983 136.935 149.906 137.069 150.758 136.812C151.611 136.554 152.305 135.931 152.652 135.11L149.89 133.94ZM146.506 132.392L145.644 135.265C145.662 135.271 145.679 135.276 145.697 135.281L146.506 132.392ZM137.974 133.148L139.791 135.535L139.798 135.53L137.974 133.148ZM137.218 138.872L135.055 140.951C135.083 140.98 135.11 141.007 135.139 141.034L137.218 138.872ZM139.522 140.276L138.485 143.091C138.514 143.102 138.544 143.112 138.573 143.122L139.522 140.276ZM143.266 141.32L143.985 138.407H143.983L143.266 141.32ZM147.73 142.688L146.606 145.469C146.629 145.479 146.653 145.488 146.677 145.497L147.73 142.688ZM150.646 144.704L148.381 146.671C148.39 146.681 148.398 146.691 148.407 146.701L150.646 144.704ZM150.79 151.832L148.285 150.181C148.282 150.186 148.279 150.19 148.276 150.195L150.79 151.832ZM147.658 154.316L148.828 157.078C148.842 157.073 148.855 157.067 148.868 157.061L147.658 154.316ZM142.438 152.216C140.893 152.216 139.426 151.97 138.022 151.482L136.054 157.15C138.106 157.862 140.239 158.216 142.438 158.216V152.216ZM138.034 151.486C136.636 150.994 135.771 150.419 135.252 149.872L130.904 154.008C132.257 155.429 134.032 156.438 136.042 157.146L138.034 151.486ZM135.752 153.3L136.796 151.248L131.448 148.528L130.404 150.58L135.752 153.3ZM132.001 152.009C133.278 153.286 134.88 154.234 136.69 154.923L138.826 149.317C137.612 148.854 136.79 148.314 136.243 147.767L132.001 152.009ZM136.729 154.938C138.57 155.61 140.479 155.948 142.438 155.948V149.948C141.181 149.948 139.969 149.734 138.787 149.302L136.729 154.938ZM142.438 155.948C144.966 155.948 147.403 155.507 149.272 154.155L145.756 149.293C145.369 149.573 144.422 149.948 142.438 149.948V155.948ZM149.306 154.13C151.136 152.767 152.206 150.822 152.206 148.484H146.206C146.206 148.786 146.148 149.001 145.722 149.318L149.306 154.13ZM152.206 148.484C152.206 146.806 151.659 145.169 150.349 143.91L146.191 148.234C146.194 148.238 146.19 148.234 146.183 148.224C146.177 148.214 146.174 148.208 146.175 148.21C146.176 148.213 146.206 148.29 146.206 148.484H152.206ZM150.391 143.951C149.44 143 148.298 142.318 147.032 141.874L145.043 147.534C145.554 147.714 145.9 147.944 146.149 148.193L150.391 143.951ZM147.1 141.898C146.042 141.498 144.669 141.104 143.037 140.708L141.623 146.54C143.159 146.912 144.257 147.238 144.976 147.51L147.1 141.898ZM143.066 140.716C141.224 140.249 139.839 139.827 138.867 139.454L136.721 145.058C138.005 145.549 139.644 146.039 141.594 146.532L143.066 140.716ZM138.918 139.475C138.218 139.192 137.626 138.776 137.114 138.204L132.642 142.204C133.762 143.456 135.114 144.408 136.67 145.037L138.918 139.475ZM137.143 138.237C136.949 138.014 136.69 137.549 136.69 136.496H130.69C130.69 138.563 131.222 140.57 132.613 142.171L137.143 138.237ZM136.69 136.496C136.69 135.785 136.868 135.205 137.212 134.677L132.184 131.403C131.184 132.939 130.69 134.663 130.69 136.496H136.69ZM137.229 134.651C137.523 134.189 138.046 133.694 139.021 133.258L136.567 127.782C134.757 128.594 133.217 129.779 132.167 131.429L137.229 134.651ZM139.021 133.258C139.916 132.856 141.196 132.584 142.978 132.584V126.584C140.632 126.584 138.455 126.936 136.567 127.782L139.021 133.258ZM142.978 132.584C144.13 132.584 145.245 132.747 146.333 133.071L148.047 127.321C146.399 126.829 144.706 126.584 142.978 126.584V132.584ZM146.392 133.088C147.517 133.398 148.398 133.81 149.085 134.285L152.495 129.347C151.166 128.43 149.647 127.762 147.988 127.304L146.392 133.088ZM148.028 130.646L147.128 132.77L152.652 135.11L153.552 132.986L148.028 130.646ZM151.541 131.435C150.23 130.571 148.818 129.924 147.315 129.503L145.697 135.281C146.594 135.532 147.438 135.917 148.239 136.445L151.541 131.435ZM147.368 129.519C145.913 129.082 144.446 128.852 142.978 128.852V134.852C143.814 134.852 144.699 134.982 145.644 135.265L147.368 129.519ZM142.978 128.852C140.454 128.852 138.021 129.333 136.15 130.766L139.798 135.53C140.183 135.235 141.086 134.852 142.978 134.852V128.852ZM136.157 130.761C134.336 132.146 133.318 134.108 133.318 136.424H139.318C139.318 136.052 139.404 135.83 139.791 135.535L136.157 130.761ZM133.318 136.424C133.318 138.07 133.83 139.677 135.055 140.951L139.38 136.793C139.369 136.781 139.366 136.777 139.359 136.757C139.348 136.729 139.318 136.63 139.318 136.424H133.318ZM135.139 141.034C136.096 141.955 137.232 142.629 138.485 143.091L140.559 137.461C139.988 137.251 139.588 136.989 139.297 136.709L135.139 141.034ZM138.573 143.122C139.618 143.47 140.953 143.84 142.549 144.233L143.983 138.407C142.459 138.032 141.298 137.706 140.471 137.43L138.573 143.122ZM142.547 144.233C144.325 144.671 145.661 145.088 146.606 145.469L148.854 139.907C147.542 139.376 145.903 138.881 143.985 138.407L142.547 144.233ZM146.677 145.497C147.37 145.757 147.923 146.143 148.381 146.671L152.911 142.737C151.785 141.441 150.394 140.483 148.783 139.879L146.677 145.497ZM148.407 146.701C148.58 146.895 148.834 147.32 148.834 148.34H154.834C154.834 146.288 154.296 144.289 152.885 142.707L148.407 146.701ZM148.834 148.34C148.834 149.029 148.656 149.618 148.285 150.181L153.295 153.483C154.316 151.934 154.834 150.195 154.834 148.34H148.834ZM148.276 150.195C147.994 150.627 147.468 151.122 146.448 151.571L148.868 157.061C150.68 156.262 152.241 155.101 153.304 153.469L148.276 150.195ZM146.487 151.554C145.545 151.953 144.23 152.216 142.438 152.216V158.216C144.774 158.216 146.939 157.879 148.828 157.078L146.487 151.554ZM179.058 152.696H182.058C182.058 151.039 180.715 149.696 179.058 149.696V152.696ZM179.058 155V158C180.715 158 182.058 156.657 182.058 155H179.058ZM161.238 155H158.238C158.238 156.657 159.582 158 161.238 158V155ZM161.238 129.8V126.8C159.582 126.8 158.238 128.143 158.238 129.8H161.238ZM178.518 129.8H181.518C181.518 128.143 180.175 126.8 178.518 126.8V129.8ZM178.518 132.104V135.104C180.175 135.104 181.518 133.761 181.518 132.104H178.518ZM163.902 132.104V129.104C162.246 129.104 160.902 130.447 160.902 132.104H163.902ZM163.902 141.068H160.902C160.902 142.725 162.246 144.068 163.902 144.068V141.068ZM176.934 141.068H179.934C179.934 139.411 178.591 138.068 176.934 138.068V141.068ZM176.934 143.336V146.336C178.591 146.336 179.934 144.993 179.934 143.336H176.934ZM163.902 143.336V140.336C162.246 140.336 160.902 141.679 160.902 143.336H163.902ZM163.902 152.696H160.902C160.902 154.353 162.246 155.696 163.902 155.696V152.696ZM176.058 152.696V155H182.058V152.696H176.058ZM179.058 152H161.238V158H179.058V152ZM164.238 155V129.8H158.238V155H164.238ZM161.238 132.8H178.518V126.8H161.238V132.8ZM175.518 129.8V132.104H181.518V129.8H175.518ZM178.518 129.104H163.902V135.104H178.518V129.104ZM160.902 132.104V141.068H166.902V132.104H160.902ZM163.902 144.068H176.934V138.068H163.902V144.068ZM173.934 141.068V143.336H179.934V141.068H173.934ZM176.934 140.336H163.902V146.336H176.934V140.336ZM160.902 143.336V152.696H166.902V143.336H160.902ZM163.902 155.696H179.058V149.696H163.902V155.696ZM209.98 129.8H212.98C212.98 128.143 211.637 126.8 209.98 126.8V129.8ZM209.98 155V158C211.637 158 212.98 156.657 212.98 155H209.98ZM207.784 155L205.433 156.863C206.002 157.581 206.868 158 207.784 158V155ZM191.584 134.552L193.936 132.689C193.143 131.688 191.804 131.299 190.598 131.719C189.392 132.139 188.584 133.275 188.584 134.552H191.584ZM191.584 155V158C193.241 158 194.584 156.657 194.584 155H191.584ZM188.92 155H185.92C185.92 156.657 187.264 158 188.92 158V155ZM188.92 129.8V126.8C187.264 126.8 185.92 128.143 185.92 129.8H188.92ZM191.116 129.8L193.466 127.935C192.897 127.218 192.032 126.8 191.116 126.8V129.8ZM207.352 150.248L205.003 152.113C205.796 153.113 207.135 153.501 208.34 153.081C209.545 152.661 210.352 151.524 210.352 150.248H207.352ZM207.352 129.8V126.8C205.696 126.8 204.352 128.143 204.352 129.8H207.352ZM206.98 129.8V155H212.98V129.8H206.98ZM209.98 152H207.784V158H209.98V152ZM210.136 153.137L193.936 132.689L189.233 136.415L205.433 156.863L210.136 153.137ZM188.584 134.552V155H194.584V134.552H188.584ZM191.584 152H188.92V158H191.584V152ZM191.92 155V129.8H185.92V155H191.92ZM188.92 132.8H191.116V126.8H188.92V132.8ZM188.767 131.665L205.003 152.113L209.702 148.383L193.466 127.935L188.767 131.665ZM210.352 150.248V129.8H204.352V150.248H210.352ZM207.352 132.8H209.98V126.8H207.352V132.8ZM226.702 132.104H229.702C229.702 130.447 228.358 129.104 226.702 129.104V132.104ZM217.846 132.104H214.846C214.846 133.761 216.189 135.104 217.846 135.104V132.104ZM217.846 129.8V126.8C216.189 126.8 214.846 128.143 214.846 129.8H217.846ZM238.222 129.8H241.222C241.222 128.143 239.878 126.8 238.222 126.8V129.8ZM238.222 132.104V135.104C239.878 135.104 241.222 133.761 241.222 132.104H238.222ZM229.366 132.104V129.104C227.709 129.104 226.366 130.447 226.366 132.104H229.366ZM229.366 155V158C231.022 158 232.366 156.657 232.366 155H229.366ZM226.702 155H223.702C223.702 156.657 225.045 158 226.702 158V155ZM226.702 129.104H217.846V135.104H226.702V129.104ZM220.846 132.104V129.8H214.846V132.104H220.846ZM217.846 132.8H238.222V126.8H217.846V132.8ZM235.222 129.8V132.104H241.222V129.8H235.222ZM238.222 129.104H229.366V135.104H238.222V129.104ZM226.366 132.104V155H232.366V132.104H226.366ZM229.366 152H226.702V158H229.366V152ZM229.702 155V132.104H223.702V155H229.702Z" fill="white"/>
<path d="M109.28 166.38H104.08V166H114.88V166.38H109.68V180H109.28V166.38ZM128.937 179.62V180H119.617V166H128.637V166.38H120.017V172.7H127.737V173.08H120.017V179.62H128.937ZM145.976 166V180H145.636L135.376 166.74V180H134.976V166H135.316L145.576 179.26V166H145.976ZM156.725 180.06C155.711 180.06 154.758 179.88 153.865 179.52C152.971 179.147 152.285 178.667 151.805 178.08L152.085 177.82C152.538 178.353 153.185 178.8 154.025 179.16C154.865 179.507 155.758 179.68 156.705 179.68C158.158 179.68 159.251 179.393 159.985 178.82C160.731 178.233 161.105 177.48 161.105 176.56C161.105 175.84 160.911 175.267 160.525 174.84C160.138 174.413 159.658 174.093 159.085 173.88C158.525 173.667 157.765 173.447 156.805 173.22C155.778 172.967 154.965 172.727 154.365 172.5C153.765 172.26 153.251 171.9 152.825 171.42C152.411 170.927 152.205 170.273 152.205 169.46C152.205 168.82 152.371 168.233 152.705 167.7C153.038 167.167 153.558 166.74 154.265 166.42C154.971 166.1 155.845 165.94 156.885 165.94C157.631 165.94 158.365 166.06 159.085 166.3C159.805 166.527 160.425 166.833 160.945 167.22L160.725 167.54C160.178 167.14 159.565 166.84 158.885 166.64C158.218 166.427 157.558 166.32 156.905 166.32C155.505 166.32 154.438 166.62 153.705 167.22C152.971 167.807 152.605 168.56 152.605 169.48C152.605 170.2 152.798 170.78 153.185 171.22C153.571 171.647 154.051 171.967 154.625 172.18C155.198 172.393 155.971 172.62 156.945 172.86C157.958 173.113 158.765 173.36 159.365 173.6C159.965 173.827 160.471 174.18 160.885 174.66C161.298 175.127 161.505 175.76 161.505 176.56C161.505 177.2 161.331 177.787 160.985 178.32C160.638 178.853 160.105 179.28 159.385 179.6C158.678 179.907 157.791 180.06 156.725 180.06ZM176.636 179.62V180H167.316V166H176.336V166.38H167.716V172.7H175.436V173.08H167.716V179.62H176.636Z" fill="white"/>
<path d="M109.28 166.38H111.28C111.28 165.275 110.385 164.38 109.28 164.38V166.38ZM104.08 166.38H102.08C102.08 167.485 102.975 168.38 104.08 168.38V166.38ZM104.08 166V164C102.975 164 102.08 164.895 102.08 166H104.08ZM114.88 166H116.88C116.88 164.895 115.985 164 114.88 164V166ZM114.88 166.38V168.38C115.985 168.38 116.88 167.485 116.88 166.38H114.88ZM109.68 166.38V164.38C108.575 164.38 107.68 165.275 107.68 166.38H109.68ZM109.68 180V182C110.785 182 111.68 181.105 111.68 180H109.68ZM109.28 180H107.28C107.28 181.105 108.175 182 109.28 182V180ZM109.28 164.38H104.08V168.38H109.28V164.38ZM106.08 166.38V166H102.08V166.38H106.08ZM104.08 168H114.88V164H104.08V168ZM112.88 166V166.38H116.88V166H112.88ZM114.88 164.38H109.68V168.38H114.88V164.38ZM107.68 166.38V180H111.68V166.38H107.68ZM109.68 178H109.28V182H109.68V178ZM111.28 180V166.38H107.28V180H111.28ZM128.937 179.62H130.937C130.937 178.515 130.042 177.62 128.937 177.62V179.62ZM128.937 180V182C130.042 182 130.937 181.105 130.937 180H128.937ZM119.617 180H117.617C117.617 181.105 118.512 182 119.617 182V180ZM119.617 166V164C118.512 164 117.617 164.895 117.617 166H119.617ZM128.637 166H130.637C130.637 164.895 129.742 164 128.637 164V166ZM128.637 166.38V168.38C129.742 168.38 130.637 167.485 130.637 166.38H128.637ZM120.017 166.38V164.38C118.912 164.38 118.017 165.275 118.017 166.38H120.017ZM120.017 172.7H118.017C118.017 173.805 118.912 174.7 120.017 174.7V172.7ZM127.737 172.7H129.737C129.737 171.595 128.842 170.7 127.737 170.7V172.7ZM127.737 173.08V175.08C128.842 175.08 129.737 174.185 129.737 173.08H127.737ZM120.017 173.08V171.08C118.912 171.08 118.017 171.975 118.017 173.08H120.017ZM120.017 179.62H118.017C118.017 180.725 118.912 181.62 120.017 181.62V179.62ZM126.937 179.62V180H130.937V179.62H126.937ZM128.937 178H119.617V182H128.937V178ZM121.617 180V166H117.617V180H121.617ZM119.617 168H128.637V164H119.617V168ZM126.637 166V166.38H130.637V166H126.637ZM128.637 164.38H120.017V168.38H128.637V164.38ZM118.017 166.38V172.7H122.017V166.38H118.017ZM120.017 174.7H127.737V170.7H120.017V174.7ZM125.737 172.7V173.08H129.737V172.7H125.737ZM127.737 171.08H120.017V175.08H127.737V171.08ZM118.017 173.08V179.62H122.017V173.08H118.017ZM120.017 181.62H128.937V177.62H120.017V181.62ZM145.976 166H147.976C147.976 164.895 147.081 164 145.976 164V166ZM145.976 180V182C147.081 182 147.976 181.105 147.976 180H145.976ZM145.636 180L144.055 181.224C144.433 181.713 145.017 182 145.636 182V180ZM135.376 166.74L136.958 165.516C136.435 164.84 135.539 164.571 134.73 164.847C133.92 165.124 133.376 165.885 133.376 166.74H135.376ZM135.376 180V182C136.481 182 137.376 181.105 137.376 180H135.376ZM134.976 180H132.976C132.976 181.105 133.872 182 134.976 182V180ZM134.976 166V164C133.872 164 132.976 164.895 132.976 166H134.976ZM135.316 166L136.898 164.776C136.519 164.287 135.935 164 135.316 164V166ZM145.576 179.26L143.995 180.484C144.518 181.16 145.414 181.429 146.223 181.153C147.032 180.876 147.576 180.115 147.576 179.26H145.576ZM145.576 166V164C144.472 164 143.576 164.895 143.576 166H145.576ZM143.976 166V180H147.976V166H143.976ZM145.976 178H145.636V182H145.976V178ZM147.218 178.776L136.958 165.516L133.795 167.964L144.055 181.224L147.218 178.776ZM133.376 166.74V180H137.376V166.74H133.376ZM135.376 178H134.976V182H135.376V178ZM136.976 180V166H132.976V180H136.976ZM134.976 168H135.316V164H134.976V168ZM133.735 167.224L143.995 180.484L147.158 178.036L136.898 164.776L133.735 167.224ZM147.576 179.26V166H143.576V179.26H147.576ZM145.576 168H145.976V164H145.576V168ZM153.865 179.52L153.093 181.365C153.101 181.369 153.109 181.372 153.117 181.375L153.865 179.52ZM151.805 178.08L150.444 176.614C149.67 177.333 149.588 178.529 150.257 179.346L151.805 178.08ZM152.085 177.82L153.608 176.525C153.255 176.109 152.747 175.856 152.202 175.823C151.658 175.791 151.123 175.983 150.724 176.354L152.085 177.82ZM154.025 179.16L153.237 180.998C153.245 181.002 153.253 181.005 153.262 181.009L154.025 179.16ZM159.985 178.82L161.216 180.396L161.22 180.393L159.985 178.82ZM160.525 174.84L159.043 176.183L160.525 174.84ZM159.085 173.88L158.373 175.749C158.377 175.751 158.382 175.753 158.387 175.754L159.085 173.88ZM156.805 173.22L156.325 175.162C156.332 175.163 156.338 175.165 156.345 175.166L156.805 173.22ZM154.365 172.5L153.622 174.357C153.634 174.362 153.646 174.366 153.658 174.371L154.365 172.5ZM152.825 171.42L151.291 172.704C151.304 172.719 151.317 172.734 151.33 172.749L152.825 171.42ZM152.705 167.7L154.401 168.76L152.705 167.7ZM159.085 166.3L158.452 168.197C158.463 168.201 158.473 168.204 158.484 168.208L159.085 166.3ZM160.945 167.22L162.593 168.353C163.202 167.467 163.001 166.257 162.138 165.615L160.945 167.22ZM160.725 167.54L159.544 169.154C159.98 169.473 160.527 169.602 161.06 169.512C161.593 169.421 162.066 169.119 162.373 168.673L160.725 167.54ZM158.885 166.64L158.275 168.545C158.29 168.55 158.305 168.554 158.32 168.559L158.885 166.64ZM153.705 167.22L154.954 168.782C154.96 168.777 154.965 168.773 154.971 168.768L153.705 167.22ZM153.185 171.22L151.682 172.54C151.689 172.548 151.696 172.555 151.703 172.563L153.185 171.22ZM154.625 172.18L155.322 170.306L154.625 172.18ZM156.945 172.86L157.43 170.92L157.423 170.918L156.945 172.86ZM159.365 173.6L158.622 175.457C158.634 175.462 158.646 175.466 158.658 175.471L159.365 173.6ZM160.885 174.66L159.369 175.965C159.375 175.972 159.381 175.979 159.387 175.986L160.885 174.66ZM160.985 178.32L159.308 177.23L160.985 178.32ZM159.385 179.6L160.181 181.435C160.186 181.432 160.191 181.43 160.197 181.428L159.385 179.6ZM156.725 178.06C155.954 178.06 155.256 177.924 154.612 177.665L153.117 181.375C154.26 181.836 155.469 182.06 156.725 182.06V178.06ZM154.636 177.675C153.963 177.394 153.575 177.086 153.352 176.814L150.257 179.346C150.994 180.248 151.979 180.9 153.093 181.365L154.636 177.675ZM153.165 179.546L153.445 179.286L150.724 176.354L150.444 176.614L153.165 179.546ZM150.561 179.115C151.266 179.945 152.196 180.552 153.237 180.998L154.812 177.322C154.173 177.048 153.81 176.762 153.608 176.525L150.561 179.115ZM153.262 181.009C154.354 181.459 155.507 181.68 156.705 181.68V177.68C156.009 177.68 155.375 177.554 154.788 177.311L153.262 181.009ZM156.705 181.68C158.369 181.68 159.982 181.36 161.216 180.396L158.753 177.244C158.52 177.426 157.947 177.68 156.705 177.68V181.68ZM161.22 180.393C162.431 179.441 163.105 178.116 163.105 176.56H159.105C159.105 176.844 159.031 177.026 158.749 177.247L161.22 180.393ZM163.105 176.56C163.105 175.473 162.804 174.377 162.007 173.497L159.043 176.183C159.044 176.185 159.046 176.187 159.048 176.191C159.051 176.195 159.057 176.206 159.064 176.229C159.08 176.275 159.105 176.377 159.105 176.56H163.105ZM162.007 173.497C161.391 172.818 160.636 172.323 159.782 172.006L158.387 175.754C158.679 175.863 158.884 176.009 159.043 176.183L162.007 173.497ZM159.797 172.011C159.119 171.753 158.263 171.509 157.264 171.274L156.345 175.166C157.266 175.384 157.93 175.58 158.373 175.749L159.797 172.011ZM157.284 171.278C156.292 171.033 155.565 170.815 155.071 170.629L153.658 174.371C154.364 174.638 155.264 174.9 156.325 175.162L157.284 171.278ZM155.107 170.643C154.794 170.518 154.538 170.338 154.319 170.091L151.33 172.749C151.964 173.462 152.735 174.002 153.622 174.357L155.107 170.643ZM154.358 170.136C154.319 170.089 154.205 169.931 154.205 169.46H150.205C150.205 170.616 150.504 171.764 151.291 172.704L154.358 170.136ZM154.205 169.46C154.205 169.188 154.27 168.97 154.401 168.76L151.009 166.64C150.473 167.497 150.205 168.452 150.205 169.46H154.205ZM154.401 168.76C154.481 168.632 154.658 168.437 155.09 168.242L153.44 164.598C152.458 165.043 151.595 165.702 151.009 166.64L154.401 168.76ZM155.09 168.242C155.465 168.072 156.037 167.94 156.885 167.94V163.94C155.652 163.94 154.478 164.128 153.44 164.598L155.09 168.242ZM156.885 167.94C157.413 167.94 157.933 168.024 158.452 168.197L159.717 164.403C158.796 164.096 157.85 163.94 156.885 163.94V167.94ZM158.484 168.208C159.025 168.378 159.437 168.592 159.751 168.825L162.138 165.615C161.412 165.075 160.584 164.675 159.685 164.392L158.484 168.208ZM159.296 166.087L159.076 166.407L162.373 168.673L162.593 168.353L159.296 166.087ZM161.906 165.926C161.164 165.383 160.34 164.983 159.449 164.721L158.32 168.559C158.789 168.697 159.192 168.897 159.544 169.154L161.906 165.926ZM159.494 164.735C158.644 164.463 157.779 164.32 156.905 164.32V168.32C157.337 168.32 157.791 168.39 158.275 168.545L159.494 164.735ZM156.905 164.32C155.256 164.32 153.665 164.668 152.438 165.672L154.971 168.768C155.211 168.571 155.753 168.32 156.905 168.32V164.32ZM152.455 165.658C151.259 166.615 150.605 167.938 150.605 169.48H154.605C154.605 169.182 154.684 168.998 154.954 168.782L152.455 165.658ZM150.605 169.48C150.605 170.57 150.906 171.657 151.682 172.54L154.687 169.9C154.677 169.889 154.663 169.871 154.647 169.823C154.629 169.769 154.605 169.662 154.605 169.48H150.605ZM151.703 172.563C152.318 173.242 153.073 173.737 153.927 174.054L155.322 170.306C155.03 170.197 154.825 170.051 154.667 169.877L151.703 172.563ZM153.927 174.054C154.602 174.306 155.459 174.554 156.466 174.802L157.423 170.918C156.484 170.686 155.793 170.481 155.322 170.306L153.927 174.054ZM156.459 174.8C157.431 175.043 158.141 175.265 158.622 175.457L160.107 171.743C159.388 171.455 158.484 171.183 157.43 170.92L156.459 174.8ZM158.658 175.471C158.949 175.581 159.177 175.742 159.369 175.965L162.4 173.355C161.766 172.618 160.98 172.072 160.071 171.729L158.658 175.471ZM159.387 175.986C159.393 175.993 159.505 176.106 159.505 176.56H163.505C163.505 175.414 163.202 174.26 162.382 173.334L159.387 175.986ZM159.505 176.56C159.505 176.816 159.442 177.023 159.308 177.23L162.661 179.41C163.22 178.55 163.505 177.584 163.505 176.56H159.505ZM159.308 177.23C159.217 177.369 159.023 177.572 158.572 177.772L160.197 181.428C161.186 180.988 162.059 180.337 162.661 179.41L159.308 177.23ZM158.588 177.765C158.21 177.93 157.616 178.06 156.725 178.06V182.06C157.967 182.06 159.146 181.884 160.181 181.435L158.588 177.765ZM176.636 179.62H178.636C178.636 178.515 177.741 177.62 176.636 177.62V179.62ZM176.636 180V182C177.741 182 178.636 181.105 178.636 180H176.636ZM167.316 180H165.316C165.316 181.105 166.212 182 167.316 182V180ZM167.316 166V164C166.212 164 165.316 164.895 165.316 166H167.316ZM176.336 166H178.336C178.336 164.895 177.441 164 176.336 164V166ZM176.336 166.38V168.38C177.441 168.38 178.336 167.485 178.336 166.38H176.336ZM167.716 166.38V164.38C166.612 164.38 165.716 165.275 165.716 166.38H167.716ZM167.716 172.7H165.716C165.716 173.805 166.612 174.7 167.716 174.7V172.7ZM175.436 172.7H177.436C177.436 171.595 176.541 170.7 175.436 170.7V172.7ZM175.436 173.08V175.08C176.541 175.08 177.436 174.185 177.436 173.08H175.436ZM167.716 173.08V171.08C166.612 171.08 165.716 171.975 165.716 173.08H167.716ZM167.716 179.62H165.716C165.716 180.725 166.612 181.62 167.716 181.62V179.62ZM174.636 179.62V180H178.636V179.62H174.636ZM176.636 178H167.316V182H176.636V178ZM169.316 180V166H165.316V180H169.316ZM167.316 168H176.336V164H167.316V168ZM174.336 166V166.38H178.336V166H174.336ZM176.336 164.38H167.716V168.38H176.336V164.38ZM165.716 166.38V172.7H169.716V166.38H165.716ZM167.716 174.7H175.436V170.7H167.716V174.7ZM173.436 172.7V173.08H177.436V172.7H173.436ZM175.436 171.08H167.716V175.08H175.436V171.08ZM165.716 173.08V179.62H169.716V173.08H165.716ZM167.716 181.62H176.636V177.62H167.716V181.62Z" fill="white"/>
</mask>
<g mask="url(#mask0_162_2)">
<path d="M0 127L9.46667 128.736C18.9333 130.512 37.8667 133.984 56.8 134.469C75.7333 134.953 94.6667 132.37 113.6 135.761C132.533 139.112 151.467 148.398 170.4 150.295C189.333 152.152 208.267 146.661 227.2 143.876C246.133 141.13 265.067 141.13 274.533 141.13H284V322H274.533C265.067 322 246.133 322 227.2 322C208.267 322 189.333 322 170.4 322C151.467 322 132.533 322 113.6 322C94.6667 322 75.7333 322 56.8 322C37.8667 322 18.9333 322 9.46667 322H0V127Z" fill="white"/>
</g>
</g>
<defs>
<clipPath id="clip0_162_2">
<rect width="284" height="322" fill="white"/>
</clipPath>
</defs>
</svg>
