<svg width="284" height="322" viewBox="0 0 284 322" fill="none" xmlns="http://www.w3.org/2000/svg">
<g clip-path="url(#clip0_162_69)">
<path d="M284 0H0V320.918H284V0Z" fill="#001220"/>
<path d="M32.762 130.49H35.204V153.59H32.762V130.49ZM70.011 130.49V153.59H67.668V135.11L58.593 150.653H57.438L48.363 135.209V153.59H46.02V130.49H48.033L58.065 147.617L67.998 130.49H70.011ZM89.4836 130.49C92.4316 130.49 94.7416 131.194 96.4136 132.602C98.0856 134.01 98.9216 135.946 98.9216 138.41C98.9216 140.874 98.0856 142.81 96.4136 144.218C94.7416 145.604 92.4316 146.297 89.4836 146.297H83.2796V153.59H80.8376V130.49H89.4836ZM89.4176 144.152C91.7056 144.152 93.4546 143.657 94.6646 142.667C95.8746 141.655 96.4796 140.236 96.4796 138.41C96.4796 136.54 95.8746 135.11 94.6646 134.12C93.4546 133.108 91.7056 132.602 89.4176 132.602H83.2796V144.152H89.4176ZM123.837 151.478V153.59H107.502V130.49H123.342V132.602H109.944V140.819H121.89V142.898H109.944V151.478H123.837ZM148.651 153.59L143.371 146.165C142.777 146.231 142.161 146.264 141.523 146.264H135.319V153.59H132.877V130.49H141.523C144.471 130.49 146.781 131.194 148.453 132.602C150.125 134.01 150.961 135.946 150.961 138.41C150.961 140.214 150.499 141.743 149.575 142.997C148.673 144.229 147.375 145.12 145.681 145.67L151.324 153.59H148.651ZM141.457 144.185C143.745 144.185 145.494 143.679 146.704 142.667C147.914 141.655 148.519 140.236 148.519 138.41C148.519 136.54 147.914 135.11 146.704 134.12C145.494 133.108 143.745 132.602 141.457 132.602H135.319V144.185H141.457ZM162.467 132.602V141.677H174.413V143.789H162.467V153.59H160.025V130.49H175.865V132.602H162.467ZM200.543 151.478V153.59H184.208V130.49H200.048V132.602H186.65V140.819H198.596V142.898H186.65V151.478H200.543ZM219.615 153.788C217.327 153.788 215.259 153.282 213.411 152.27C211.585 151.258 210.144 149.861 209.088 148.079C208.054 146.275 207.537 144.262 207.537 142.04C207.537 139.818 208.054 137.816 209.088 136.034C210.144 134.23 211.596 132.822 213.444 131.81C215.292 130.798 217.36 130.292 219.648 130.292C221.364 130.292 222.948 130.578 224.4 131.15C225.852 131.722 227.084 132.558 228.096 133.658L226.545 135.209C224.741 133.383 222.464 132.47 219.714 132.47C217.888 132.47 216.227 132.888 214.731 133.724C213.235 134.56 212.058 135.704 211.2 137.156C210.364 138.608 209.946 140.236 209.946 142.04C209.946 143.844 210.364 145.472 211.2 146.924C212.058 148.376 213.235 149.52 214.731 150.356C216.227 151.192 217.888 151.61 219.714 151.61C222.486 151.61 224.763 150.686 226.545 148.838L228.096 150.389C227.084 151.489 225.841 152.336 224.367 152.93C222.915 153.502 221.331 153.788 219.615 153.788ZM242.739 132.602H234.621V130.49H253.299V132.602H245.181V153.59H242.739V132.602Z" fill="#FACB66"/>
<path d="M32.762 130.49V127.49C31.1051 127.49 29.762 128.833 29.762 130.49H32.762ZM35.204 130.49H38.204C38.204 128.833 36.8609 127.49 35.204 127.49V130.49ZM35.204 153.59V156.59C36.8609 156.59 38.204 155.247 38.204 153.59H35.204ZM32.762 153.59H29.762C29.762 155.247 31.1051 156.59 32.762 156.59V153.59ZM32.762 133.49H35.204V127.49H32.762V133.49ZM32.204 130.49V153.59H38.204V130.49H32.204ZM35.204 150.59H32.762V156.59H35.204V150.59ZM35.762 153.59V130.49H29.762V153.59H35.762ZM70.011 130.49H73.011C73.011 128.833 71.6679 127.49 70.011 127.49V130.49ZM70.011 153.59V156.59C71.6679 156.59 73.011 155.247 73.011 153.59H70.011ZM67.668 153.59H64.668C64.668 155.247 66.0112 156.59 67.668 156.59V153.59ZM67.668 135.11H70.668C70.668 133.755 69.7596 132.568 68.4515 132.214C67.1435 131.86 65.7605 132.427 65.0773 133.598L67.668 135.11ZM58.593 150.653V153.653C59.6596 153.653 60.646 153.087 61.1837 152.166L58.593 150.653ZM57.438 150.653L54.8515 152.173C55.3903 153.09 56.3744 153.653 57.438 153.653V150.653ZM48.363 135.209L50.9495 133.689C50.2638 132.522 48.8815 131.959 47.5755 132.314C46.2694 132.67 45.363 133.856 45.363 135.209H48.363ZM48.363 153.59V156.59C50.0199 156.59 51.363 155.247 51.363 153.59H48.363ZM46.02 153.59H43.02C43.02 155.247 44.3632 156.59 46.02 156.59V153.59ZM46.02 130.49V127.49C44.3632 127.49 43.02 128.833 43.02 130.49H46.02ZM48.033 130.49L50.6216 128.974C50.0833 128.055 49.0981 127.49 48.033 127.49V130.49ZM58.065 147.617L55.4764 149.133C56.0159 150.054 57.0041 150.619 58.0715 150.617C59.1389 150.615 60.1246 150.046 60.6601 149.122L58.065 147.617ZM67.998 130.49V127.49C66.9283 127.49 65.9395 128.06 65.4029 128.985L67.998 130.49ZM67.011 130.49V153.59H73.011V130.49H67.011ZM70.011 150.59H67.668V156.59H70.011V150.59ZM70.668 153.59V135.11H64.668V153.59H70.668ZM65.0773 133.598L56.0023 149.141L61.1837 152.166L70.2587 136.623L65.0773 133.598ZM58.593 147.653H57.438V153.653H58.593V147.653ZM60.0245 149.133L50.9495 133.689L45.7765 136.729L54.8515 152.173L60.0245 149.133ZM45.363 135.209V153.59H51.363V135.209H45.363ZM48.363 150.59H46.02V156.59H48.363V150.59ZM49.02 153.59V130.49H43.02V153.59H49.02ZM46.02 133.49H48.033V127.49H46.02V133.49ZM45.4444 132.006L55.4764 149.133L60.6536 146.101L50.6216 128.974L45.4444 132.006ZM60.6601 149.122L70.5931 131.995L65.4029 128.985L55.4699 146.112L60.6601 149.122ZM67.998 133.49H70.011V127.49H67.998V133.49ZM96.4136 132.602L94.4812 134.897L96.4136 132.602ZM96.4136 144.218L98.3282 146.528C98.3341 146.523 98.3401 146.518 98.346 146.513L96.4136 144.218ZM83.2796 146.297V143.297C81.6227 143.297 80.2796 144.64 80.2796 146.297H83.2796ZM83.2796 153.59V156.59C84.9364 156.59 86.2796 155.247 86.2796 153.59H83.2796ZM80.8376 153.59H77.8376C77.8376 155.247 79.1807 156.59 80.8376 156.59V153.59ZM80.8376 130.49V127.49C79.1807 127.49 77.8376 128.833 77.8376 130.49H80.8376ZM94.6646 142.667L96.5643 144.989C96.5727 144.982 96.581 144.975 96.5893 144.968L94.6646 142.667ZM94.6646 134.12L92.7399 136.421C92.7482 136.428 92.7565 136.435 92.7649 136.442L94.6646 134.12ZM83.2796 132.602V129.602C81.6227 129.602 80.2796 130.945 80.2796 132.602H83.2796ZM83.2796 144.152H80.2796C80.2796 145.809 81.6227 147.152 83.2796 147.152V144.152ZM89.4836 133.49C91.9719 133.49 93.5132 134.082 94.4812 134.897L98.346 130.307C95.97 128.307 92.8913 127.49 89.4836 127.49V133.49ZM94.4812 134.897C95.3852 135.658 95.9216 136.705 95.9216 138.41H101.922C101.922 135.188 100.786 132.362 98.346 130.307L94.4812 134.897ZM95.9216 138.41C95.9216 140.116 95.3852 141.162 94.4812 141.923L98.346 146.513C100.786 144.458 101.922 141.633 101.922 138.41H95.9216ZM94.499 141.909C93.5304 142.711 91.9821 143.297 89.4836 143.297V149.297C92.881 149.297 95.9527 148.497 98.3282 146.528L94.499 141.909ZM89.4836 143.297H83.2796V149.297H89.4836V143.297ZM80.2796 146.297V153.59H86.2796V146.297H80.2796ZM83.2796 150.59H80.8376V156.59H83.2796V150.59ZM83.8376 153.59V130.49H77.8376V153.59H83.8376ZM80.8376 133.49H89.4836V127.49H80.8376V133.49ZM89.4176 147.152C92.0868 147.152 94.6187 146.581 96.5643 144.989L92.7649 140.345C92.2904 140.733 91.3244 141.152 89.4176 141.152V147.152ZM96.5893 144.968C98.5921 143.293 99.4796 140.969 99.4796 138.41H93.4796C93.4796 139.504 93.1571 140.017 92.7399 140.366L96.5893 144.968ZM99.4796 138.41C99.4796 135.836 98.6091 133.471 96.5643 131.798L92.7649 136.442C93.1401 136.749 93.4796 137.244 93.4796 138.41H99.4796ZM96.5893 131.819C94.6421 130.19 92.0998 129.602 89.4176 129.602V135.602C91.3113 135.602 92.2671 136.026 92.7399 136.421L96.5893 131.819ZM89.4176 129.602H83.2796V135.602H89.4176V129.602ZM80.2796 132.602V144.152H86.2796V132.602H80.2796ZM83.2796 147.152H89.4176V141.152H83.2796V147.152ZM123.837 151.478H126.837C126.837 149.821 125.494 148.478 123.837 148.478V151.478ZM123.837 153.59V156.59C125.494 156.59 126.837 155.247 126.837 153.59H123.837ZM107.502 153.59H104.502C104.502 155.247 105.845 156.59 107.502 156.59V153.59ZM107.502 130.49V127.49C105.845 127.49 104.502 128.833 104.502 130.49H107.502ZM123.342 130.49H126.342C126.342 128.833 124.999 127.49 123.342 127.49V130.49ZM123.342 132.602V135.602C124.999 135.602 126.342 134.259 126.342 132.602H123.342ZM109.944 132.602V129.602C108.287 129.602 106.944 130.945 106.944 132.602H109.944ZM109.944 140.819H106.944C106.944 142.476 108.287 143.819 109.944 143.819V140.819ZM121.89 140.819H124.89C124.89 139.162 123.547 137.819 121.89 137.819V140.819ZM121.89 142.898V145.898C123.547 145.898 124.89 144.555 124.89 142.898H121.89ZM109.944 142.898V139.898C108.287 139.898 106.944 141.241 106.944 142.898H109.944ZM109.944 151.478H106.944C106.944 153.135 108.287 154.478 109.944 154.478V151.478ZM120.837 151.478V153.59H126.837V151.478H120.837ZM123.837 150.59H107.502V156.59H123.837V150.59ZM110.502 153.59V130.49H104.502V153.59H110.502ZM107.502 133.49H123.342V127.49H107.502V133.49ZM120.342 130.49V132.602H126.342V130.49H120.342ZM123.342 129.602H109.944V135.602H123.342V129.602ZM106.944 132.602V140.819H112.944V132.602H106.944ZM109.944 143.819H121.89V137.819H109.944V143.819ZM118.89 140.819V142.898H124.89V140.819H118.89ZM121.89 139.898H109.944V145.898H121.89V139.898ZM106.944 142.898V151.478H112.944V142.898H106.944ZM109.944 154.478H123.837V148.478H109.944V154.478ZM148.651 153.59L146.206 155.329C146.769 156.12 147.68 156.59 148.651 156.59V153.59ZM143.371 146.165L145.816 144.427C145.185 143.539 144.122 143.063 143.04 143.184L143.371 146.165ZM135.319 146.264V143.264C133.662 143.264 132.319 144.607 132.319 146.264H135.319ZM135.319 153.59V156.59C136.976 156.59 138.319 155.247 138.319 153.59H135.319ZM132.877 153.59H129.877C129.877 155.247 131.22 156.59 132.877 156.59V153.59ZM132.877 130.49V127.49C131.22 127.49 129.877 128.833 129.877 130.49H132.877ZM148.453 132.602L146.521 134.897L148.453 132.602ZM149.575 142.997L147.16 141.218L147.154 141.225L149.575 142.997ZM145.681 145.67L144.755 142.817C143.846 143.112 143.132 143.822 142.832 144.73C142.533 145.637 142.683 146.633 143.238 147.411L145.681 145.67ZM151.324 153.59V156.59C152.447 156.59 153.476 155.963 153.991 154.964C154.505 153.966 154.419 152.764 153.767 151.849L151.324 153.59ZM146.704 142.667L148.629 144.968L146.704 142.667ZM146.704 134.12L144.779 136.421C144.788 136.428 144.796 136.435 144.804 136.442L146.704 134.12ZM135.319 132.602V129.602C133.662 129.602 132.319 130.945 132.319 132.602H135.319ZM135.319 144.185H132.319C132.319 145.842 133.662 147.185 135.319 147.185V144.185ZM151.096 151.852L145.816 144.427L140.926 147.904L146.206 155.329L151.096 151.852ZM143.04 143.184C142.563 143.236 142.058 143.264 141.523 143.264V149.264C142.264 149.264 142.991 149.226 143.702 149.147L143.04 143.184ZM141.523 143.264H135.319V149.264H141.523V143.264ZM132.319 146.264V153.59H138.319V146.264H132.319ZM135.319 150.59H132.877V156.59H135.319V150.59ZM135.877 153.59V130.49H129.877V153.59H135.877ZM132.877 133.49H141.523V127.49H132.877V133.49ZM141.523 133.49C144.011 133.49 145.553 134.082 146.521 134.897L150.385 130.307C148.009 128.307 144.931 127.49 141.523 127.49V133.49ZM146.521 134.897C147.425 135.658 147.961 136.705 147.961 138.41H153.961C153.961 135.188 152.825 132.362 150.385 130.307L146.521 134.897ZM147.961 138.41C147.961 139.679 147.646 140.558 147.16 141.218L151.99 144.777C153.352 142.929 153.961 140.749 153.961 138.41H147.961ZM147.154 141.225C146.684 141.868 145.952 142.428 144.755 142.817L146.607 148.524C148.798 147.812 150.662 146.591 151.996 144.769L147.154 141.225ZM143.238 147.411L148.881 155.331L153.767 151.849L148.124 143.929L143.238 147.411ZM151.324 150.59H148.651V156.59H151.324V150.59ZM141.457 147.185C144.139 147.185 146.682 146.597 148.629 144.968L144.779 140.366C144.307 140.761 143.351 141.185 141.457 141.185V147.185ZM148.629 144.968C150.632 143.293 151.519 140.969 151.519 138.41H145.519C145.519 139.504 145.197 140.017 144.779 140.366L148.629 144.968ZM151.519 138.41C151.519 135.836 150.649 133.471 148.604 131.798L144.804 136.442C145.18 136.749 145.519 137.244 145.519 138.41H151.519ZM148.629 131.819C146.682 130.19 144.139 129.602 141.457 129.602V135.602C143.351 135.602 144.307 136.026 144.779 136.421L148.629 131.819ZM141.457 129.602H135.319V135.602H141.457V129.602ZM132.319 132.602V144.185H138.319V132.602H132.319ZM135.319 147.185H141.457V141.185H135.319V147.185ZM162.467 132.602V129.602C160.81 129.602 159.467 130.945 159.467 132.602H162.467ZM162.467 141.677H159.467C159.467 143.334 160.81 144.677 162.467 144.677V141.677ZM174.413 141.677H177.413C177.413 140.02 176.07 138.677 174.413 138.677V141.677ZM174.413 143.789V146.789C176.07 146.789 177.413 145.446 177.413 143.789H174.413ZM162.467 143.789V140.789C160.81 140.789 159.467 142.132 159.467 143.789H162.467ZM162.467 153.59V156.59C164.124 156.59 165.467 155.247 165.467 153.59H162.467ZM160.025 153.59H157.025C157.025 155.247 158.368 156.59 160.025 156.59V153.59ZM160.025 130.49V127.49C158.368 127.49 157.025 128.833 157.025 130.49H160.025ZM175.865 130.49H178.865C178.865 128.833 177.522 127.49 175.865 127.49V130.49ZM175.865 132.602V135.602C177.522 135.602 178.865 134.259 178.865 132.602H175.865ZM159.467 132.602V141.677H165.467V132.602H159.467ZM162.467 144.677H174.413V138.677H162.467V144.677ZM171.413 141.677V143.789H177.413V141.677H171.413ZM174.413 140.789H162.467V146.789H174.413V140.789ZM159.467 143.789V153.59H165.467V143.789H159.467ZM162.467 150.59H160.025V156.59H162.467V150.59ZM163.025 153.59V130.49H157.025V153.59H163.025ZM160.025 133.49H175.865V127.49H160.025V133.49ZM172.865 130.49V132.602H178.865V130.49H172.865ZM175.865 129.602H162.467V135.602H175.865V129.602ZM200.543 151.478H203.543C203.543 149.821 202.199 148.478 200.543 148.478V151.478ZM200.543 153.59V156.59C202.199 156.59 203.543 155.247 203.543 153.59H200.543ZM184.208 153.59H181.208C181.208 155.247 182.551 156.59 184.208 156.59V153.59ZM184.208 130.49V127.49C182.551 127.49 181.208 128.833 181.208 130.49H184.208ZM200.048 130.49H203.048C203.048 128.833 201.704 127.49 200.048 127.49V130.49ZM200.048 132.602V135.602C201.704 135.602 203.048 134.259 203.048 132.602H200.048ZM186.65 132.602V129.602C184.993 129.602 183.65 130.945 183.65 132.602H186.65ZM186.65 140.819H183.65C183.65 142.476 184.993 143.819 186.65 143.819V140.819ZM198.596 140.819H201.596C201.596 139.162 200.252 137.819 198.596 137.819V140.819ZM198.596 142.898V145.898C200.252 145.898 201.596 144.555 201.596 142.898H198.596ZM186.65 142.898V139.898C184.993 139.898 183.65 141.241 183.65 142.898H186.65ZM186.65 151.478H183.65C183.65 153.135 184.993 154.478 186.65 154.478V151.478ZM197.543 151.478V153.59H203.543V151.478H197.543ZM200.543 150.59H184.208V156.59H200.543V150.59ZM187.208 153.59V130.49H181.208V153.59H187.208ZM184.208 133.49H200.048V127.49H184.208V133.49ZM197.048 130.49V132.602H203.048V130.49H197.048ZM200.048 129.602H186.65V135.602H200.048V129.602ZM183.65 132.602V140.819H189.65V132.602H183.65ZM186.65 143.819H198.596V137.819H186.65V143.819ZM195.596 140.819V142.898H201.596V140.819H195.596ZM198.596 139.898H186.65V145.898H198.596V139.898ZM183.65 142.898V151.478H189.65V142.898H183.65ZM186.65 154.478H200.543V148.478H186.65V154.478ZM213.411 152.27L211.956 154.894C211.961 154.897 211.965 154.899 211.97 154.901L213.411 152.27ZM209.088 148.079L206.485 149.571C206.492 149.584 206.499 149.596 206.507 149.609L209.088 148.079ZM209.088 136.034L206.499 134.519L206.493 134.529L209.088 136.034ZM213.444 131.81L212.003 129.179L213.444 131.81ZM224.4 131.15L223.3 133.941L224.4 131.15ZM228.096 133.658L230.217 135.779C231.354 134.642 231.392 132.811 230.304 131.627L228.096 133.658ZM226.545 135.209L224.411 137.318C224.972 137.886 225.737 138.207 226.536 138.209C227.334 138.212 228.101 137.895 228.666 137.33L226.545 135.209ZM214.731 133.724L213.267 131.105L214.731 133.724ZM211.2 137.156L208.617 135.63C208.611 135.64 208.605 135.649 208.6 135.659L211.2 137.156ZM211.2 146.924L208.6 148.421C208.605 148.431 208.611 148.441 208.617 148.45L211.2 146.924ZM214.731 150.356L213.267 152.975L214.731 150.356ZM226.545 148.838L228.666 146.717C228.097 146.148 227.323 145.831 226.517 145.838C225.712 145.846 224.944 146.176 224.385 146.756L226.545 148.838ZM228.096 150.389L230.304 152.42C231.392 151.237 231.354 149.405 230.217 148.268L228.096 150.389ZM224.367 152.93L225.466 155.721C225.474 155.719 225.481 155.716 225.488 155.713L224.367 152.93ZM219.615 150.788C217.786 150.788 216.221 150.388 214.852 149.639L211.97 154.901C214.297 156.176 216.867 156.788 219.615 156.788V150.788ZM214.865 149.646C213.501 148.89 212.451 147.87 211.669 146.55L206.507 149.609C207.837 151.853 209.668 153.626 211.956 154.894L214.865 149.646ZM211.69 146.587C210.935 145.269 210.537 143.776 210.537 142.04H204.537C204.537 144.748 205.173 147.282 206.485 149.571L211.69 146.587ZM210.537 142.04C210.537 140.304 210.935 138.829 211.683 137.54L206.493 134.529C205.173 136.804 204.537 139.332 204.537 142.04H210.537ZM211.677 137.55C212.456 136.219 213.509 135.195 214.885 134.441L212.003 129.179C209.682 130.45 207.832 132.242 206.499 134.519L211.677 137.55ZM214.885 134.441C216.254 133.692 217.819 133.292 219.648 133.292V127.292C216.9 127.292 214.33 127.904 212.003 129.179L214.885 134.441ZM219.648 133.292C221.025 133.292 222.232 133.52 223.3 133.941L225.499 128.359C223.664 127.636 221.703 127.292 219.648 127.292V133.292ZM223.3 133.941C224.349 134.355 225.197 134.938 225.888 135.689L230.304 131.627C228.971 130.178 227.354 129.09 225.499 128.359L223.3 133.941ZM225.974 131.537L224.423 133.088L228.666 137.33L230.217 135.779L225.974 131.537ZM228.679 133.101C226.268 130.661 223.202 129.47 219.714 129.47V135.47C221.725 135.47 223.213 136.106 224.411 137.318L228.679 133.101ZM219.714 129.47C217.41 129.47 215.24 130.003 213.267 131.105L216.194 136.343C217.214 135.773 218.365 135.47 219.714 135.47V129.47ZM213.267 131.105C211.316 132.196 209.749 133.714 208.617 135.63L213.782 138.682C214.366 137.695 215.153 136.925 216.194 136.343L213.267 131.105ZM208.6 135.659C207.482 137.601 206.946 139.752 206.946 142.04H212.946C212.946 140.72 213.246 139.615 213.8 138.653L208.6 135.659ZM206.946 142.04C206.946 144.328 207.482 146.479 208.6 148.421L213.8 145.427C213.246 144.465 212.946 143.36 212.946 142.04H206.946ZM208.617 148.45C209.749 150.367 211.316 151.885 213.267 152.975L216.194 147.737C215.153 147.156 214.366 146.386 213.782 145.398L208.617 148.45ZM213.267 152.975C215.24 154.077 217.41 154.61 219.714 154.61V148.61C218.365 148.61 217.214 148.307 216.194 147.737L213.267 152.975ZM219.714 154.61C223.228 154.61 226.309 153.405 228.704 150.921L224.385 146.756C223.217 147.967 221.743 148.61 219.714 148.61V154.61ZM224.423 150.959L225.974 152.51L230.217 148.268L228.666 146.717L224.423 150.959ZM225.888 148.358C225.197 149.109 224.333 149.709 223.245 150.148L225.488 155.713C227.349 154.963 228.971 153.869 230.304 152.42L225.888 148.358ZM223.267 150.139C222.199 150.56 220.992 150.788 219.615 150.788V156.788C221.67 156.788 223.631 156.444 225.466 155.721L223.267 150.139ZM242.739 132.602H245.739C245.739 130.945 244.396 129.602 242.739 129.602V132.602ZM234.621 132.602H231.621C231.621 134.259 232.965 135.602 234.621 135.602V132.602ZM234.621 130.49V127.49C232.965 127.49 231.621 128.833 231.621 130.49H234.621ZM253.299 130.49H256.299C256.299 128.833 254.956 127.49 253.299 127.49V130.49ZM253.299 132.602V135.602C254.956 135.602 256.299 134.259 256.299 132.602H253.299ZM245.181 132.602V129.602C243.525 129.602 242.181 130.945 242.181 132.602H245.181ZM245.181 153.59V156.59C246.838 156.59 248.181 155.247 248.181 153.59H245.181ZM242.739 153.59H239.739C239.739 155.247 241.083 156.59 242.739 156.59V153.59ZM242.739 129.602H234.621V135.602H242.739V129.602ZM237.621 132.602V130.49H231.621V132.602H237.621ZM234.621 133.49H253.299V127.49H234.621V133.49ZM250.299 130.49V132.602H256.299V130.49H250.299ZM253.299 129.602H245.181V135.602H253.299V129.602ZM242.181 132.602V153.59H248.181V132.602H242.181ZM245.181 150.59H242.739V156.59H245.181V150.59ZM245.739 153.59V132.602H239.739V153.59H245.739Z" fill="#FACB66"/>
<path d="M124.28 104.047H119.08V103.667H129.88V104.047H124.68V117.667H124.28V104.047ZM145.617 103.667V117.667H145.217V110.747H135.017V117.667H134.617V103.667H135.017V110.367H145.217V103.667H145.617ZM162.265 117.287V117.667H152.945V103.667H161.965V104.047H153.345V110.367H161.065V110.747H153.345V117.287H162.265Z" fill="#FACB66"/>
<path d="M124.28 104.047H126.28C126.28 102.943 125.385 102.047 124.28 102.047V104.047ZM119.08 104.047H117.08C117.08 105.152 117.975 106.047 119.08 106.047V104.047ZM119.08 103.667V101.667C117.975 101.667 117.08 102.563 117.08 103.667H119.08ZM129.88 103.667H131.88C131.88 102.563 130.985 101.667 129.88 101.667V103.667ZM129.88 104.047V106.047C130.985 106.047 131.88 105.152 131.88 104.047H129.88ZM124.68 104.047V102.047C123.575 102.047 122.68 102.943 122.68 104.047H124.68ZM124.68 117.667V119.667C125.785 119.667 126.68 118.772 126.68 117.667H124.68ZM124.28 117.667H122.28C122.28 118.772 123.175 119.667 124.28 119.667V117.667ZM124.28 102.047H119.08V106.047H124.28V102.047ZM121.08 104.047V103.667H117.08V104.047H121.08ZM119.08 105.667H129.88V101.667H119.08V105.667ZM127.88 103.667V104.047H131.88V103.667H127.88ZM129.88 102.047H124.68V106.047H129.88V102.047ZM122.68 104.047V117.667H126.68V104.047H122.68ZM124.68 115.667H124.28V119.667H124.68V115.667ZM126.28 117.667V104.047H122.28V117.667H126.28ZM145.617 103.667H147.617C147.617 102.563 146.722 101.667 145.617 101.667V103.667ZM145.617 117.667V119.667C146.722 119.667 147.617 118.772 147.617 117.667H145.617ZM145.217 117.667H143.217C143.217 118.772 144.112 119.667 145.217 119.667V117.667ZM145.217 110.747H147.217C147.217 109.643 146.322 108.747 145.217 108.747V110.747ZM135.017 110.747V108.747C133.912 108.747 133.017 109.643 133.017 110.747H135.017ZM135.017 117.667V119.667C136.122 119.667 137.017 118.772 137.017 117.667H135.017ZM134.617 117.667H132.617C132.617 118.772 133.512 119.667 134.617 119.667V117.667ZM134.617 103.667V101.667C133.512 101.667 132.617 102.563 132.617 103.667H134.617ZM135.017 103.667H137.017C137.017 102.563 136.122 101.667 135.017 101.667V103.667ZM135.017 110.367H133.017C133.017 111.472 133.912 112.367 135.017 112.367V110.367ZM145.217 110.367V112.367C146.322 112.367 147.217 111.472 147.217 110.367H145.217ZM145.217 103.667V101.667C144.112 101.667 143.217 102.563 143.217 103.667H145.217ZM143.617 103.667V117.667H147.617V103.667H143.617ZM145.617 115.667H145.217V119.667H145.617V115.667ZM147.217 117.667V110.747H143.217V117.667H147.217ZM145.217 108.747H135.017V112.747H145.217V108.747ZM133.017 110.747V117.667H137.017V110.747H133.017ZM135.017 115.667H134.617V119.667H135.017V115.667ZM136.617 117.667V103.667H132.617V117.667H136.617ZM134.617 105.667H135.017V101.667H134.617V105.667ZM133.017 103.667V110.367H137.017V103.667H133.017ZM135.017 112.367H145.217V108.367H135.017V112.367ZM147.217 110.367V103.667H143.217V110.367H147.217ZM145.217 105.667H145.617V101.667H145.217V105.667ZM162.265 117.287H164.265C164.265 116.183 163.37 115.287 162.265 115.287V117.287ZM162.265 117.667V119.667C163.37 119.667 164.265 118.772 164.265 117.667H162.265ZM152.945 117.667H150.945C150.945 118.772 151.841 119.667 152.945 119.667V117.667ZM152.945 103.667V101.667C151.841 101.667 150.945 102.563 150.945 103.667H152.945ZM161.965 103.667H163.965C163.965 102.563 163.07 101.667 161.965 101.667V103.667ZM161.965 104.047V106.047C163.07 106.047 163.965 105.152 163.965 104.047H161.965ZM153.345 104.047V102.047C152.241 102.047 151.345 102.943 151.345 104.047H153.345ZM153.345 110.367H151.345C151.345 111.472 152.241 112.367 153.345 112.367V110.367ZM161.065 110.367H163.065C163.065 109.263 162.17 108.367 161.065 108.367V110.367ZM161.065 110.747V112.747C162.17 112.747 163.065 111.852 163.065 110.747H161.065ZM153.345 110.747V108.747C152.241 108.747 151.345 109.643 151.345 110.747H153.345ZM153.345 117.287H151.345C151.345 118.392 152.241 119.287 153.345 119.287V117.287ZM160.265 117.287V117.667H164.265V117.287H160.265ZM162.265 115.667H152.945V119.667H162.265V115.667ZM154.945 117.667V103.667H150.945V117.667H154.945ZM152.945 105.667H161.965V101.667H152.945V105.667ZM159.965 103.667V104.047H163.965V103.667H159.965ZM161.965 102.047H153.345V106.047H161.965V102.047ZM151.345 104.047V110.367H155.345V104.047H151.345ZM153.345 112.367H161.065V108.367H153.345V112.367ZM159.065 110.367V110.747H163.065V110.367H159.065ZM161.065 108.747H153.345V112.747H161.065V108.747ZM151.345 110.747V117.287H155.345V110.747H151.345ZM153.345 119.287H162.265V115.287H153.345V119.287Z" fill="#FACB66"/>
<path d="M0 136.106C9.46667 139.351 32.0667 144.767 51 145.694C69.9333 146.657 84.5 143.018 124.5 141.523C164.5 140.028 174 145.694 217.5 145.694C261 145.694 284 130.811 284 130.811V321.526H274.533C265.067 321.526 246.133 321.526 227.2 321.526C208.267 321.526 189.333 321.526 170.4 321.526C151.467 321.526 132.533 321.526 113.6 321.526C94.6667 321.526 75.7333 321.526 56.8 321.526C37.8667 321.526 18.9333 321.526 9.46667 321.526H0V136.106Z" fill="#FACB66"/>
<path d="M0 185.776L9.46667 184.421C18.9333 183.03 37.8667 180.32 56.8 180.356C75.7333 180.427 94.6667 183.28 113.6 185.063C132.533 186.846 151.467 187.559 170.4 189.163C189.333 190.768 208.267 193.264 227.2 190.126C246.133 186.953 265.067 178.181 274.533 173.759L284 169.374V287.757H274.533C265.067 287.757 246.133 287.757 227.2 287.757C208.267 287.757 189.333 287.757 170.4 287.757C151.467 287.757 132.533 287.757 113.6 287.757C94.6667 287.757 75.7333 287.757 56.8 287.757C37.8667 287.757 18.9333 287.757 9.46667 287.757H0V185.776Z" fill="#F5BC51"/>
<path d="M0 237.392L9.46667 231.152C18.9333 224.912 37.8667 212.431 56.8 210.221C75.7333 208.046 94.6667 216.104 113.6 217.958C132.533 219.813 151.467 215.391 170.4 212.075C189.333 208.759 208.267 206.477 227.2 210.042C246.133 213.608 265.067 223.022 274.533 227.693L284 232.4V304.071H274.533C265.067 304.071 246.133 304.071 227.2 304.071C208.267 304.071 189.333 304.071 170.4 304.071C151.467 304.071 132.533 304.071 113.6 304.071C94.6667 304.071 75.7333 304.071 56.8 304.071C37.8667 304.071 18.9333 304.071 9.46667 304.071H0V237.392Z" fill="#F1AD3B"/>
<path d="M0 266.719L9.46667 265.043C18.9333 263.403 37.8667 245.535 56.8 242.682C75.7333 239.829 92.5 255.14 113.6 255.638C134.7 256.137 151.467 238.656 170.4 237.123C189.333 235.59 208.267 237.943 227.2 238.442C246.133 238.906 265.067 237.48 274.533 236.766L284 236.053V321.275H274.533C265.067 321.275 246.133 321.275 227.2 321.275C208.267 321.275 189.333 321.275 170.4 321.275C151.467 321.275 132.533 321.275 113.6 321.275C94.6667 321.275 75.7333 321.275 56.8 321.275C37.8667 321.275 18.9333 321.275 9.46667 321.275H0V266.719Z" fill="#ED9D24"/>
<path d="M0 286.699L9.46667 284.809C18.9333 282.884 37.8667 279.104 56.8 279.639C75.7333 280.174 94.6667 285.023 113.6 288.66C132.533 292.297 151.467 294.651 170.4 294.9C189.333 295.15 208.267 293.224 227.2 291.691C246.133 290.158 265.067 288.945 274.533 288.375L284 287.769V322H274.533C265.067 322 246.133 322 227.2 322C208.267 322 189.333 322 170.4 322C151.467 322 132.533 322 113.6 322C94.6667 322 75.7333 322 56.8 322C37.8667 322 18.9333 322 9.46667 322H0V286.699Z" fill="#E98D00"/>
<g style="mix-blend-mode:soft-light">
<path d="M27 192.352H257" stroke="white"/>
</g>
<path d="M58.3553 206.525H59.5793V223.325H58.3553V206.525ZM83.7215 223.325L83.6975 208.949L76.6655 221.093H76.0655L69.0335 208.997V223.325H67.8335V206.525H68.8655L76.3775 219.509L83.8895 206.525H84.8975L84.9215 223.325H83.7215ZM99.2028 206.525C101.315 206.525 102.971 207.029 104.171 208.037C105.371 209.029 105.971 210.413 105.971 212.189C105.971 213.949 105.371 215.333 104.171 216.341C102.971 217.333 101.315 217.829 99.2028 217.829H94.4028V223.325H93.1788V206.525H99.2028ZM99.2028 216.725C100.995 216.725 102.363 216.333 103.307 215.549C104.251 214.765 104.723 213.645 104.723 212.189C104.723 210.733 104.251 209.613 103.307 208.829C102.363 208.029 100.995 207.629 99.2028 207.629H94.4028V216.725H99.2028ZM124.093 222.221V223.325H112.501V206.525H123.733V207.629H113.725V214.253H122.677V215.333H113.725V222.221H124.093ZM142.619 223.325L138.611 217.709C138.019 217.789 137.475 217.829 136.979 217.829H132.179V223.325H130.955V206.525H136.979C139.091 206.525 140.747 207.029 141.947 208.037C143.147 209.029 143.747 210.413 143.747 212.189C143.747 213.517 143.403 214.637 142.715 215.549C142.043 216.445 141.075 217.077 139.811 217.445L144.011 223.325H142.619ZM136.979 216.749C138.771 216.749 140.139 216.357 141.083 215.573C142.027 214.773 142.499 213.645 142.499 212.189C142.499 210.733 142.027 209.613 141.083 208.829C140.139 208.029 138.771 207.629 136.979 207.629H132.179V216.749H136.979ZM151.853 207.629V214.805H160.805V215.909H151.853V223.325H150.629V206.525H161.861V207.629H151.853ZM179.761 222.221V223.325H168.169V206.525H179.401V207.629H169.393V214.253H178.345V215.333H169.393V222.221H179.761ZM186.624 206.525H187.848V223.325H186.624V206.525ZM199.918 207.629H193.87V206.525H207.19V207.629H201.142V223.325H199.918V207.629ZM219.519 223.445C217.871 223.445 216.383 223.077 215.055 222.341C213.727 221.589 212.679 220.565 211.911 219.269C211.159 217.973 210.783 216.525 210.783 214.925C210.783 213.325 211.159 211.877 211.911 210.581C212.679 209.285 213.727 208.269 215.055 207.533C216.383 206.781 217.871 206.405 219.519 206.405C221.167 206.405 222.655 206.773 223.983 207.509C225.311 208.245 226.351 209.261 227.103 210.557C227.871 211.853 228.255 213.309 228.255 214.925C228.255 216.541 227.871 217.997 227.103 219.293C226.351 220.589 225.311 221.605 223.983 222.341C222.655 223.077 221.167 223.445 219.519 223.445ZM219.519 222.317C220.927 222.317 222.199 221.997 223.335 221.357C224.471 220.717 225.367 219.837 226.023 218.717C226.679 217.581 227.007 216.317 227.007 214.925C227.007 213.533 226.679 212.277 226.023 211.157C225.367 210.021 224.471 209.133 223.335 208.493C222.199 207.853 220.927 207.533 219.519 207.533C218.111 207.533 216.831 207.853 215.679 208.493C214.543 209.133 213.647 210.021 212.991 211.157C212.335 212.277 212.007 213.533 212.007 214.925C212.007 216.317 212.335 217.581 212.991 218.717C213.647 219.837 214.543 220.717 215.679 221.357C216.831 221.997 218.111 222.317 219.519 222.317Z" fill="white"/>
<path d="M58.3553 206.525V204.275C57.1127 204.275 56.1053 205.282 56.1053 206.525H58.3553ZM59.5793 206.525H61.8293C61.8293 205.282 60.822 204.275 59.5793 204.275V206.525ZM59.5793 223.325V225.575C60.822 225.575 61.8293 224.567 61.8293 223.325H59.5793ZM58.3553 223.325H56.1053C56.1053 224.567 57.1127 225.575 58.3553 225.575V223.325ZM58.3553 208.775H59.5793V204.275H58.3553V208.775ZM57.3293 206.525V223.325H61.8293V206.525H57.3293ZM59.5793 221.075H58.3553V225.575H59.5793V221.075ZM60.6053 223.325V206.525H56.1053V223.325H60.6053ZM83.7215 223.325L81.4715 223.329C81.4735 224.57 82.4803 225.575 83.7215 225.575V223.325ZM83.6975 208.949L85.9475 208.945C85.9458 207.928 85.2619 207.038 84.2794 206.775C83.2969 206.512 82.26 206.941 81.7503 207.821L83.6975 208.949ZM76.6655 221.093V223.343C77.4683 223.343 78.2103 222.915 78.6126 222.22L76.6655 221.093ZM76.0655 221.093L74.1203 222.224C74.5231 222.916 75.264 223.343 76.0655 223.343V221.093ZM69.0335 208.997L70.9787 207.866C70.4675 206.987 69.4299 206.56 68.4479 206.824C67.4658 207.089 66.7835 207.98 66.7835 208.997H69.0335ZM69.0335 223.325V225.575C70.2761 225.575 71.2835 224.567 71.2835 223.325H69.0335ZM67.8335 223.325H65.5835C65.5835 224.567 66.5908 225.575 67.8335 225.575V223.325ZM67.8335 206.525V204.275C66.5908 204.275 65.5835 205.282 65.5835 206.525H67.8335ZM68.8655 206.525L70.813 205.398C70.4108 204.703 69.6686 204.275 68.8655 204.275V206.525ZM76.3775 219.509L74.4299 220.636C74.8321 221.331 75.5744 221.759 76.3775 221.759C77.1806 221.759 77.9228 221.331 78.325 220.636L76.3775 219.509ZM83.8895 206.525V204.275C83.0864 204.275 82.3441 204.703 81.9419 205.398L83.8895 206.525ZM84.8975 206.525L87.1475 206.522C87.1457 205.28 86.1389 204.275 84.8975 204.275V206.525ZM84.9215 223.325V225.575C85.5188 225.575 86.0915 225.337 86.5136 224.915C86.9356 224.492 87.1723 223.919 87.1715 223.322L84.9215 223.325ZM85.9715 223.321L85.9475 208.945L81.4475 208.953L81.4715 223.329L85.9715 223.321ZM81.7503 207.821L74.7183 219.965L78.6126 222.22L85.6446 210.076L81.7503 207.821ZM76.6655 218.843H76.0655V223.343H76.6655V218.843ZM78.0107 219.962L70.9787 207.866L67.0883 210.128L74.1203 222.224L78.0107 219.962ZM66.7835 208.997V223.325H71.2835V208.997H66.7835ZM69.0335 221.075H67.8335V225.575H69.0335V221.075ZM70.0835 223.325V206.525H65.5835V223.325H70.0835ZM67.8335 208.775H68.8655V204.275H67.8335V208.775ZM66.9179 207.652L74.4299 220.636L78.325 218.382L70.813 205.398L66.9179 207.652ZM78.325 220.636L85.837 207.652L81.9419 205.398L74.4299 218.382L78.325 220.636ZM83.8895 208.775H84.8975V204.275H83.8895V208.775ZM82.6475 206.528L82.6715 223.328L87.1715 223.322L87.1475 206.522L82.6475 206.528ZM84.9215 221.075H83.7215V225.575H84.9215V221.075ZM104.171 208.037L102.724 209.76C102.728 209.763 102.733 209.767 102.737 209.771L104.171 208.037ZM104.171 216.341L105.604 218.075C105.609 218.071 105.613 218.067 105.618 218.064L104.171 216.341ZM94.4028 217.829V215.579C93.1601 215.579 92.1528 216.586 92.1528 217.829H94.4028ZM94.4028 223.325V225.575C95.6454 225.575 96.6528 224.567 96.6528 223.325H94.4028ZM93.1788 223.325H90.9288C90.9288 224.567 91.9361 225.575 93.1788 225.575V223.325ZM93.1788 206.525V204.275C91.9361 204.275 90.9288 205.282 90.9288 206.525H93.1788ZM103.307 215.549L104.744 217.28L103.307 215.549ZM103.307 208.829L101.852 210.545C101.858 210.55 101.864 210.555 101.869 210.56L103.307 208.829ZM94.4028 207.629V205.379C93.1601 205.379 92.1528 206.386 92.1528 207.629H94.4028ZM94.4028 216.725H92.1528C92.1528 217.967 93.1601 218.975 94.4028 218.975V216.725ZM99.2028 208.775C100.97 208.775 102.051 209.195 102.724 209.76L105.618 206.314C103.891 204.863 101.659 204.275 99.2028 204.275V208.775ZM102.737 209.771C103.344 210.272 103.721 210.978 103.721 212.189H108.221C108.221 209.848 107.398 207.785 105.604 206.303L102.737 209.771ZM103.721 212.189C103.721 213.376 103.348 214.093 102.724 214.618L105.618 218.064C107.393 216.572 108.221 214.521 108.221 212.189H103.721ZM102.737 214.607C102.064 215.163 100.978 215.579 99.2028 215.579V220.079C101.652 220.079 103.878 219.502 105.604 218.075L102.737 214.607ZM99.2028 215.579H94.4028V220.079H99.2028V215.579ZM92.1528 217.829V223.325H96.6528V217.829H92.1528ZM94.4028 221.075H93.1788V225.575H94.4028V221.075ZM95.4288 223.325V206.525H90.9288V223.325H95.4288ZM93.1788 208.775H99.2028V204.275H93.1788V208.775ZM99.2028 218.975C101.285 218.975 103.246 218.524 104.744 217.28L101.869 213.818C101.479 214.142 100.705 214.475 99.2028 214.475V218.975ZM104.744 217.28C106.301 215.987 106.973 214.176 106.973 212.189H102.473C102.473 213.114 102.201 213.542 101.869 213.818L104.744 217.28ZM106.973 212.189C106.973 210.202 106.301 208.39 104.744 207.098L101.869 210.56C102.201 210.835 102.473 211.264 102.473 212.189H106.973ZM104.761 207.112C103.263 205.842 101.294 205.379 99.2028 205.379V209.879C100.696 209.879 101.463 210.215 101.852 210.545L104.761 207.112ZM99.2028 205.379H94.4028V209.879H99.2028V205.379ZM92.1528 207.629V216.725H96.6528V207.629H92.1528ZM94.4028 218.975H99.2028V214.475H94.4028V218.975ZM124.093 222.221H126.343C126.343 220.978 125.335 219.971 124.093 219.971V222.221ZM124.093 223.325V225.575C125.335 225.575 126.343 224.567 126.343 223.325H124.093ZM112.501 223.325H110.251C110.251 224.567 111.258 225.575 112.501 225.575V223.325ZM112.501 206.525V204.275C111.258 204.275 110.251 205.282 110.251 206.525H112.501ZM123.733 206.525H125.983C125.983 205.282 124.975 204.275 123.733 204.275V206.525ZM123.733 207.629V209.879C124.975 209.879 125.983 208.871 125.983 207.629H123.733ZM113.725 207.629V205.379C112.482 205.379 111.475 206.386 111.475 207.629H113.725ZM113.725 214.253H111.475C111.475 215.495 112.482 216.503 113.725 216.503V214.253ZM122.677 214.253H124.927C124.927 213.01 123.919 212.003 122.677 212.003V214.253ZM122.677 215.333V217.583C123.919 217.583 124.927 216.575 124.927 215.333H122.677ZM113.725 215.333V213.083C112.482 213.083 111.475 214.09 111.475 215.333H113.725ZM113.725 222.221H111.475C111.475 223.463 112.482 224.471 113.725 224.471V222.221ZM121.843 222.221V223.325H126.343V222.221H121.843ZM124.093 221.075H112.501V225.575H124.093V221.075ZM114.751 223.325V206.525H110.251V223.325H114.751ZM112.501 208.775H123.733V204.275H112.501V208.775ZM121.483 206.525V207.629H125.983V206.525H121.483ZM123.733 205.379H113.725V209.879H123.733V205.379ZM111.475 207.629V214.253H115.975V207.629H111.475ZM113.725 216.503H122.677V212.003H113.725V216.503ZM120.427 214.253V215.333H124.927V214.253H120.427ZM122.677 213.083H113.725V217.583H122.677V213.083ZM111.475 215.333V222.221H115.975V215.333H111.475ZM113.725 224.471H124.093V219.971H113.725V224.471ZM142.619 223.325L140.788 224.632C141.21 225.224 141.892 225.575 142.619 225.575V223.325ZM138.611 217.709L140.443 216.402C139.958 215.722 139.137 215.367 138.31 215.479L138.611 217.709ZM132.179 217.829V215.579C130.937 215.579 129.929 216.586 129.929 217.829H132.179ZM132.179 223.325V225.575C133.422 225.575 134.429 224.567 134.429 223.325H132.179ZM130.955 223.325H128.705C128.705 224.567 129.713 225.575 130.955 225.575V223.325ZM130.955 206.525V204.275C129.713 204.275 128.705 205.282 128.705 206.525H130.955ZM141.947 208.037L140.5 209.76C140.505 209.763 140.509 209.767 140.514 209.771L141.947 208.037ZM142.715 215.549L140.919 214.194L140.915 214.199L142.715 215.549ZM139.811 217.445L139.182 215.284C138.482 215.488 137.924 216.019 137.685 216.708C137.447 217.397 137.557 218.159 137.98 218.753L139.811 217.445ZM144.011 223.325V225.575C144.854 225.575 145.626 225.104 146.012 224.354C146.398 223.605 146.332 222.703 145.842 222.017L144.011 223.325ZM141.083 215.573L142.521 217.304C142.527 217.299 142.532 217.294 142.538 217.289L141.083 215.573ZM141.083 208.829L139.629 210.545C139.634 210.55 139.64 210.555 139.646 210.56L141.083 208.829ZM132.179 207.629V205.379C130.937 205.379 129.929 206.386 129.929 207.629H132.179ZM132.179 216.749H129.929C129.929 217.991 130.937 218.999 132.179 218.999V216.749ZM144.451 222.018L140.443 216.402L136.78 219.016L140.788 224.632L144.451 222.018ZM138.31 215.479C137.798 215.548 137.357 215.579 136.979 215.579V220.079C137.594 220.079 138.24 220.029 138.913 219.938L138.31 215.479ZM136.979 215.579H132.179V220.079H136.979V215.579ZM129.929 217.829V223.325H134.429V217.829H129.929ZM132.179 221.075H130.955V225.575H132.179V221.075ZM133.205 223.325V206.525H128.705V223.325H133.205ZM130.955 208.775H136.979V204.275H130.955V208.775ZM136.979 208.775C138.747 208.775 139.827 209.195 140.5 209.76L143.395 206.314C141.667 204.863 139.436 204.275 136.979 204.275V208.775ZM140.514 209.771C141.12 210.272 141.497 210.978 141.497 212.189H145.997C145.997 209.848 145.174 207.785 143.381 206.303L140.514 209.771ZM141.497 212.189C141.497 213.11 141.267 213.733 140.919 214.194L144.512 216.904C145.54 215.54 145.997 213.923 145.997 212.189H141.497ZM140.915 214.199C140.585 214.64 140.064 215.028 139.182 215.284L140.44 219.605C142.087 219.126 143.502 218.25 144.515 216.899L140.915 214.199ZM137.98 218.753L142.18 224.633L145.842 222.017L141.642 216.137L137.98 218.753ZM144.011 221.075H142.619V225.575H144.011V221.075ZM136.979 218.999C139.061 218.999 141.023 218.548 142.521 217.304L139.646 213.842C139.256 214.166 138.481 214.499 136.979 214.499V218.999ZM142.538 217.289C144.077 215.985 144.749 214.177 144.749 212.189H140.249C140.249 213.113 139.977 213.561 139.629 213.856L142.538 217.289ZM144.749 212.189C144.749 210.202 144.077 208.39 142.521 207.098L139.646 210.56C139.977 210.835 140.249 211.264 140.249 212.189H144.749ZM142.538 207.112C141.039 205.842 139.07 205.379 136.979 205.379V209.879C138.472 209.879 139.239 210.215 139.629 210.545L142.538 207.112ZM136.979 205.379H132.179V209.879H136.979V205.379ZM129.929 207.629V216.749H134.429V207.629H129.929ZM132.179 218.999H136.979V214.499H132.179V218.999ZM151.853 207.629V205.379C150.61 205.379 149.603 206.386 149.603 207.629H151.853ZM151.853 214.805H149.603C149.603 216.047 150.61 217.055 151.853 217.055V214.805ZM160.805 214.805H163.055C163.055 213.562 162.047 212.555 160.805 212.555V214.805ZM160.805 215.909V218.159C162.047 218.159 163.055 217.151 163.055 215.909H160.805ZM151.853 215.909V213.659C150.61 213.659 149.603 214.666 149.603 215.909H151.853ZM151.853 223.325V225.575C153.095 225.575 154.103 224.567 154.103 223.325H151.853ZM150.629 223.325H148.379C148.379 224.567 149.386 225.575 150.629 225.575V223.325ZM150.629 206.525V204.275C149.386 204.275 148.379 205.282 148.379 206.525H150.629ZM161.861 206.525H164.111C164.111 205.282 163.103 204.275 161.861 204.275V206.525ZM161.861 207.629V209.879C163.103 209.879 164.111 208.871 164.111 207.629H161.861ZM149.603 207.629V214.805H154.103V207.629H149.603ZM151.853 217.055H160.805V212.555H151.853V217.055ZM158.555 214.805V215.909H163.055V214.805H158.555ZM160.805 213.659H151.853V218.159H160.805V213.659ZM149.603 215.909V223.325H154.103V215.909H149.603ZM151.853 221.075H150.629V225.575H151.853V221.075ZM152.879 223.325V206.525H148.379V223.325H152.879ZM150.629 208.775H161.861V204.275H150.629V208.775ZM159.611 206.525V207.629H164.111V206.525H159.611ZM161.861 205.379H151.853V209.879H161.861V205.379ZM179.761 222.221H182.011C182.011 220.978 181.004 219.971 179.761 219.971V222.221ZM179.761 223.325V225.575C181.004 225.575 182.011 224.567 182.011 223.325H179.761ZM168.169 223.325H165.919C165.919 224.567 166.927 225.575 168.169 225.575V223.325ZM168.169 206.525V204.275C166.927 204.275 165.919 205.282 165.919 206.525H168.169ZM179.401 206.525H181.651C181.651 205.282 180.644 204.275 179.401 204.275V206.525ZM179.401 207.629V209.879C180.644 209.879 181.651 208.871 181.651 207.629H179.401ZM169.393 207.629V205.379C168.151 205.379 167.143 206.386 167.143 207.629H169.393ZM169.393 214.253H167.143C167.143 215.495 168.151 216.503 169.393 216.503V214.253ZM178.345 214.253H180.595C180.595 213.01 179.588 212.003 178.345 212.003V214.253ZM178.345 215.333V217.583C179.588 217.583 180.595 216.575 180.595 215.333H178.345ZM169.393 215.333V213.083C168.151 213.083 167.143 214.09 167.143 215.333H169.393ZM169.393 222.221H167.143C167.143 223.463 168.151 224.471 169.393 224.471V222.221ZM177.511 222.221V223.325H182.011V222.221H177.511ZM179.761 221.075H168.169V225.575H179.761V221.075ZM170.419 223.325V206.525H165.919V223.325H170.419ZM168.169 208.775H179.401V204.275H168.169V208.775ZM177.151 206.525V207.629H181.651V206.525H177.151ZM179.401 205.379H169.393V209.879H179.401V205.379ZM167.143 207.629V214.253H171.643V207.629H167.143ZM169.393 216.503H178.345V212.003H169.393V216.503ZM176.095 214.253V215.333H180.595V214.253H176.095ZM178.345 213.083H169.393V217.583H178.345V213.083ZM167.143 215.333V222.221H171.643V215.333H167.143ZM169.393 224.471H179.761V219.971H169.393V224.471ZM186.624 206.525V204.275C185.381 204.275 184.374 205.282 184.374 206.525H186.624ZM187.848 206.525H190.098C190.098 205.282 189.091 204.275 187.848 204.275V206.525ZM187.848 223.325V225.575C189.091 225.575 190.098 224.567 190.098 223.325H187.848ZM186.624 223.325H184.374C184.374 224.567 185.381 225.575 186.624 225.575V223.325ZM186.624 208.775H187.848V204.275H186.624V208.775ZM185.598 206.525V223.325H190.098V206.525H185.598ZM187.848 221.075H186.624V225.575H187.848V221.075ZM188.874 223.325V206.525H184.374V223.325H188.874ZM199.918 207.629H202.168C202.168 206.386 201.161 205.379 199.918 205.379V207.629ZM193.87 207.629H191.62C191.62 208.871 192.628 209.879 193.87 209.879V207.629ZM193.87 206.525V204.275C192.628 204.275 191.62 205.282 191.62 206.525H193.87ZM207.19 206.525H209.44C209.44 205.282 208.433 204.275 207.19 204.275V206.525ZM207.19 207.629V209.879C208.433 209.879 209.44 208.871 209.44 207.629H207.19ZM201.142 207.629V205.379C199.9 205.379 198.892 206.386 198.892 207.629H201.142ZM201.142 223.325V225.575C202.385 225.575 203.392 224.567 203.392 223.325H201.142ZM199.918 223.325H197.668C197.668 224.567 198.676 225.575 199.918 225.575V223.325ZM199.918 205.379H193.87V209.879H199.918V205.379ZM196.12 207.629V206.525H191.62V207.629H196.12ZM193.87 208.775H207.19V204.275H193.87V208.775ZM204.94 206.525V207.629H209.44V206.525H204.94ZM207.19 205.379H201.142V209.879H207.19V205.379ZM198.892 207.629V223.325H203.392V207.629H198.892ZM201.142 221.075H199.918V225.575H201.142V221.075ZM202.168 223.325V207.629H197.668V223.325H202.168ZM215.055 222.341L213.947 224.299C213.953 224.302 213.959 224.305 213.965 224.309L215.055 222.341ZM211.911 219.269L209.965 220.398C209.969 220.404 209.972 220.41 209.976 220.416L211.911 219.269ZM211.911 210.581L209.976 209.434C209.972 209.44 209.969 209.446 209.965 209.452L211.911 210.581ZM215.055 207.533L216.146 209.501C216.152 209.497 216.158 209.494 216.164 209.491L215.055 207.533ZM227.103 210.557L225.157 211.686C225.161 211.692 225.164 211.698 225.168 211.704L227.103 210.557ZM227.103 219.293L225.168 218.146C225.164 218.152 225.161 218.158 225.157 218.164L227.103 219.293ZM223.983 222.341L225.074 224.309L223.983 222.341ZM223.335 221.357L222.231 219.396L223.335 221.357ZM226.023 218.717L227.965 219.854L227.972 219.842L226.023 218.717ZM226.023 211.157L224.075 212.282L224.082 212.294L226.023 211.157ZM223.335 208.493L222.231 210.453L223.335 208.493ZM215.679 208.493L214.587 206.526L214.575 206.532L215.679 208.493ZM212.991 211.157L214.933 212.294L214.94 212.282L212.991 211.157ZM212.991 218.717L211.043 219.842L211.05 219.854L212.991 218.717ZM215.679 221.357L214.575 223.317L214.587 223.324L215.679 221.357ZM219.519 221.195C218.219 221.195 217.112 220.908 216.146 220.373L213.965 224.309C215.654 225.245 217.523 225.695 219.519 225.695V221.195ZM216.164 220.383C215.173 219.822 214.412 219.075 213.847 218.122L209.976 220.416C210.947 222.054 212.282 223.356 213.947 224.299L216.164 220.383ZM213.857 218.14C213.318 217.21 213.033 216.156 213.033 214.925H208.533C208.533 216.893 209.001 218.736 209.965 220.398L213.857 218.14ZM213.033 214.925C213.033 213.693 213.318 212.64 213.857 211.71L209.965 209.452C209.001 211.114 208.533 212.956 208.533 214.925H213.033ZM213.847 211.728C214.41 210.778 215.165 210.045 216.146 209.501L213.965 205.565C212.29 206.493 210.949 207.791 209.976 209.434L213.847 211.728ZM216.164 209.491C217.127 208.945 218.228 208.655 219.519 208.655V204.155C217.515 204.155 215.64 204.616 213.947 205.575L216.164 209.491ZM219.519 208.655C220.819 208.655 221.926 208.941 222.893 209.477L225.074 205.541C223.384 204.604 221.515 204.155 219.519 204.155V208.655ZM222.893 209.477C223.87 210.018 224.612 210.747 225.157 211.686L229.049 209.428C228.09 207.775 226.753 206.471 225.074 205.541L222.893 209.477ZM225.168 211.704C225.715 212.627 226.005 213.682 226.005 214.925H230.505C230.505 212.936 230.028 211.078 229.039 209.41L225.168 211.704ZM226.005 214.925C226.005 216.168 225.715 217.222 225.168 218.146L229.039 220.44C230.028 218.771 230.505 216.914 230.505 214.925H226.005ZM225.157 218.164C224.612 219.103 223.87 219.831 222.893 220.373L225.074 224.309C226.753 223.378 228.09 222.075 229.049 220.422L225.157 218.164ZM222.893 220.373C221.926 220.908 220.819 221.195 219.519 221.195V225.695C221.515 225.695 223.384 225.245 225.074 224.309L222.893 220.373ZM219.519 224.567C221.282 224.567 222.94 224.162 224.44 223.317L222.231 219.396C221.459 219.831 220.572 220.067 219.519 220.067V224.567ZM224.44 223.317C225.921 222.483 227.107 221.319 227.965 219.854L224.082 217.58C223.628 218.354 223.022 218.951 222.231 219.396L224.44 223.317ZM227.972 219.842C228.837 218.343 229.257 216.687 229.257 214.925H224.757C224.757 215.947 224.521 216.819 224.075 217.592L227.972 219.842ZM229.257 214.925C229.257 213.163 228.837 211.51 227.965 210.02L224.082 212.294C224.521 213.044 224.757 213.902 224.757 214.925H229.257ZM227.972 210.032C227.116 208.549 225.929 207.371 224.44 206.532L222.231 210.453C223.014 210.894 223.619 211.493 224.075 212.282L227.972 210.032ZM224.44 206.532C222.94 205.687 221.282 205.283 219.519 205.283V209.783C220.572 209.783 221.459 210.018 222.231 210.453L224.44 206.532ZM219.519 205.283C217.756 205.283 216.096 205.688 214.587 206.526L216.772 210.46C217.567 210.018 218.467 209.783 219.519 209.783V205.283ZM214.575 206.532C213.086 207.371 211.899 208.549 211.043 210.032L214.94 212.282C215.396 211.493 216.001 210.894 216.784 210.453L214.575 206.532ZM211.05 210.02C210.177 211.51 209.757 213.163 209.757 214.925H214.257C214.257 213.902 214.493 213.044 214.933 212.294L211.05 210.02ZM209.757 214.925C209.757 216.687 210.177 218.343 211.043 219.842L214.94 217.592C214.493 216.819 214.257 215.947 214.257 214.925H209.757ZM211.05 219.854C211.908 221.319 213.094 222.483 214.575 223.317L216.784 219.396C215.993 218.951 215.387 218.354 214.933 217.58L211.05 219.854ZM214.587 223.324C216.096 224.162 217.756 224.567 219.519 224.567V220.067C218.467 220.067 217.567 219.832 216.772 219.39L214.587 223.324Z" fill="white"/>
<mask id="mask0_162_69" style="mask-type:alpha" maskUnits="userSpaceOnUse" x="29" y="127" width="228" height="55">
<path d="M32.762 130.49H35.204V153.59H32.762V130.49ZM70.011 130.49V153.59H67.668V135.11L58.593 150.653H57.438L48.363 135.209V153.59H46.02V130.49H48.033L58.065 147.617L67.998 130.49H70.011ZM89.4836 130.49C92.4316 130.49 94.7416 131.194 96.4136 132.602C98.0856 134.01 98.9216 135.946 98.9216 138.41C98.9216 140.874 98.0856 142.81 96.4136 144.218C94.7416 145.604 92.4316 146.297 89.4836 146.297H83.2796V153.59H80.8376V130.49H89.4836ZM89.4176 144.152C91.7056 144.152 93.4546 143.657 94.6646 142.667C95.8746 141.655 96.4796 140.236 96.4796 138.41C96.4796 136.54 95.8746 135.11 94.6646 134.12C93.4546 133.108 91.7056 132.602 89.4176 132.602H83.2796V144.152H89.4176ZM123.837 151.478V153.59H107.502V130.49H123.342V132.602H109.944V140.819H121.89V142.898H109.944V151.478H123.837ZM148.651 153.59L143.371 146.165C142.777 146.231 142.161 146.264 141.523 146.264H135.319V153.59H132.877V130.49H141.523C144.471 130.49 146.781 131.194 148.453 132.602C150.125 134.01 150.961 135.946 150.961 138.41C150.961 140.214 150.499 141.743 149.575 142.997C148.673 144.229 147.375 145.12 145.681 145.67L151.324 153.59H148.651ZM141.457 144.185C143.745 144.185 145.494 143.679 146.704 142.667C147.914 141.655 148.519 140.236 148.519 138.41C148.519 136.54 147.914 135.11 146.704 134.12C145.494 133.108 143.745 132.602 141.457 132.602H135.319V144.185H141.457ZM162.467 132.602V141.677H174.413V143.789H162.467V153.59H160.025V130.49H175.865V132.602H162.467ZM200.543 151.478V153.59H184.208V130.49H200.048V132.602H186.65V140.819H198.596V142.898H186.65V151.478H200.543ZM219.615 153.788C217.327 153.788 215.259 153.282 213.411 152.27C211.585 151.258 210.144 149.861 209.088 148.079C208.054 146.275 207.537 144.262 207.537 142.04C207.537 139.818 208.054 137.816 209.088 136.034C210.144 134.23 211.596 132.822 213.444 131.81C215.292 130.798 217.36 130.292 219.648 130.292C221.364 130.292 222.948 130.578 224.4 131.15C225.852 131.722 227.084 132.558 228.096 133.658L226.545 135.209C224.741 133.383 222.464 132.47 219.714 132.47C217.888 132.47 216.227 132.888 214.731 133.724C213.235 134.56 212.058 135.704 211.2 137.156C210.364 138.608 209.946 140.236 209.946 142.04C209.946 143.844 210.364 145.472 211.2 146.924C212.058 148.376 213.235 149.52 214.731 150.356C216.227 151.192 217.888 151.61 219.714 151.61C222.486 151.61 224.763 150.686 226.545 148.838L228.096 150.389C227.084 151.489 225.841 152.336 224.367 152.93C222.915 153.502 221.331 153.788 219.615 153.788ZM242.739 132.602H234.621V130.49H253.299V132.602H245.181V153.59H242.739V132.602Z" fill="white"/>
<path d="M32.762 130.49V127.49C31.1051 127.49 29.762 128.833 29.762 130.49H32.762ZM35.204 130.49H38.204C38.204 128.833 36.8609 127.49 35.204 127.49V130.49ZM35.204 153.59V156.59C36.8609 156.59 38.204 155.247 38.204 153.59H35.204ZM32.762 153.59H29.762C29.762 155.247 31.1051 156.59 32.762 156.59V153.59ZM32.762 133.49H35.204V127.49H32.762V133.49ZM32.204 130.49V153.59H38.204V130.49H32.204ZM35.204 150.59H32.762V156.59H35.204V150.59ZM35.762 153.59V130.49H29.762V153.59H35.762ZM70.011 130.49H73.011C73.011 128.833 71.6679 127.49 70.011 127.49V130.49ZM70.011 153.59V156.59C71.6679 156.59 73.011 155.247 73.011 153.59H70.011ZM67.668 153.59H64.668C64.668 155.247 66.0112 156.59 67.668 156.59V153.59ZM67.668 135.11H70.668C70.668 133.755 69.7596 132.568 68.4515 132.214C67.1435 131.86 65.7605 132.427 65.0773 133.598L67.668 135.11ZM58.593 150.653V153.653C59.6596 153.653 60.646 153.087 61.1837 152.166L58.593 150.653ZM57.438 150.653L54.8515 152.173C55.3903 153.09 56.3744 153.653 57.438 153.653V150.653ZM48.363 135.209L50.9495 133.689C50.2638 132.522 48.8815 131.959 47.5755 132.314C46.2694 132.67 45.363 133.856 45.363 135.209H48.363ZM48.363 153.59V156.59C50.0199 156.59 51.363 155.247 51.363 153.59H48.363ZM46.02 153.59H43.02C43.02 155.247 44.3632 156.59 46.02 156.59V153.59ZM46.02 130.49V127.49C44.3632 127.49 43.02 128.833 43.02 130.49H46.02ZM48.033 130.49L50.6216 128.974C50.0833 128.055 49.0981 127.49 48.033 127.49V130.49ZM58.065 147.617L55.4764 149.133C56.0159 150.054 57.0041 150.619 58.0715 150.617C59.1389 150.615 60.1246 150.046 60.6601 149.122L58.065 147.617ZM67.998 130.49V127.49C66.9283 127.49 65.9395 128.06 65.4029 128.985L67.998 130.49ZM67.011 130.49V153.59H73.011V130.49H67.011ZM70.011 150.59H67.668V156.59H70.011V150.59ZM70.668 153.59V135.11H64.668V153.59H70.668ZM65.0773 133.598L56.0023 149.141L61.1837 152.166L70.2587 136.623L65.0773 133.598ZM58.593 147.653H57.438V153.653H58.593V147.653ZM60.0245 149.133L50.9495 133.689L45.7765 136.729L54.8515 152.173L60.0245 149.133ZM45.363 135.209V153.59H51.363V135.209H45.363ZM48.363 150.59H46.02V156.59H48.363V150.59ZM49.02 153.59V130.49H43.02V153.59H49.02ZM46.02 133.49H48.033V127.49H46.02V133.49ZM45.4444 132.006L55.4764 149.133L60.6536 146.101L50.6216 128.974L45.4444 132.006ZM60.6601 149.122L70.5931 131.995L65.4029 128.985L55.4699 146.112L60.6601 149.122ZM67.998 133.49H70.011V127.49H67.998V133.49ZM96.4136 132.602L94.4812 134.897L96.4136 132.602ZM96.4136 144.218L98.3282 146.528C98.3341 146.523 98.3401 146.518 98.346 146.513L96.4136 144.218ZM83.2796 146.297V143.297C81.6227 143.297 80.2796 144.64 80.2796 146.297H83.2796ZM83.2796 153.59V156.59C84.9364 156.59 86.2796 155.247 86.2796 153.59H83.2796ZM80.8376 153.59H77.8376C77.8376 155.247 79.1807 156.59 80.8376 156.59V153.59ZM80.8376 130.49V127.49C79.1807 127.49 77.8376 128.833 77.8376 130.49H80.8376ZM94.6646 142.667L96.5643 144.989C96.5727 144.982 96.581 144.975 96.5893 144.968L94.6646 142.667ZM94.6646 134.12L92.7399 136.421C92.7482 136.428 92.7565 136.435 92.7649 136.442L94.6646 134.12ZM83.2796 132.602V129.602C81.6227 129.602 80.2796 130.945 80.2796 132.602H83.2796ZM83.2796 144.152H80.2796C80.2796 145.809 81.6227 147.152 83.2796 147.152V144.152ZM89.4836 133.49C91.9719 133.49 93.5132 134.082 94.4812 134.897L98.346 130.307C95.97 128.307 92.8913 127.49 89.4836 127.49V133.49ZM94.4812 134.897C95.3852 135.658 95.9216 136.705 95.9216 138.41H101.922C101.922 135.188 100.786 132.362 98.346 130.307L94.4812 134.897ZM95.9216 138.41C95.9216 140.116 95.3852 141.162 94.4812 141.923L98.346 146.513C100.786 144.458 101.922 141.633 101.922 138.41H95.9216ZM94.499 141.909C93.5304 142.711 91.9821 143.297 89.4836 143.297V149.297C92.881 149.297 95.9527 148.497 98.3282 146.528L94.499 141.909ZM89.4836 143.297H83.2796V149.297H89.4836V143.297ZM80.2796 146.297V153.59H86.2796V146.297H80.2796ZM83.2796 150.59H80.8376V156.59H83.2796V150.59ZM83.8376 153.59V130.49H77.8376V153.59H83.8376ZM80.8376 133.49H89.4836V127.49H80.8376V133.49ZM89.4176 147.152C92.0868 147.152 94.6187 146.581 96.5643 144.989L92.7649 140.345C92.2904 140.733 91.3244 141.152 89.4176 141.152V147.152ZM96.5893 144.968C98.5921 143.293 99.4796 140.969 99.4796 138.41H93.4796C93.4796 139.504 93.1571 140.017 92.7399 140.366L96.5893 144.968ZM99.4796 138.41C99.4796 135.836 98.6091 133.471 96.5643 131.798L92.7649 136.442C93.1401 136.749 93.4796 137.244 93.4796 138.41H99.4796ZM96.5893 131.819C94.6421 130.19 92.0998 129.602 89.4176 129.602V135.602C91.3113 135.602 92.2671 136.026 92.7399 136.421L96.5893 131.819ZM89.4176 129.602H83.2796V135.602H89.4176V129.602ZM80.2796 132.602V144.152H86.2796V132.602H80.2796ZM83.2796 147.152H89.4176V141.152H83.2796V147.152ZM123.837 151.478H126.837C126.837 149.821 125.494 148.478 123.837 148.478V151.478ZM123.837 153.59V156.59C125.494 156.59 126.837 155.247 126.837 153.59H123.837ZM107.502 153.59H104.502C104.502 155.247 105.845 156.59 107.502 156.59V153.59ZM107.502 130.49V127.49C105.845 127.49 104.502 128.833 104.502 130.49H107.502ZM123.342 130.49H126.342C126.342 128.833 124.999 127.49 123.342 127.49V130.49ZM123.342 132.602V135.602C124.999 135.602 126.342 134.259 126.342 132.602H123.342ZM109.944 132.602V129.602C108.287 129.602 106.944 130.945 106.944 132.602H109.944ZM109.944 140.819H106.944C106.944 142.476 108.287 143.819 109.944 143.819V140.819ZM121.89 140.819H124.89C124.89 139.162 123.547 137.819 121.89 137.819V140.819ZM121.89 142.898V145.898C123.547 145.898 124.89 144.555 124.89 142.898H121.89ZM109.944 142.898V139.898C108.287 139.898 106.944 141.241 106.944 142.898H109.944ZM109.944 151.478H106.944C106.944 153.135 108.287 154.478 109.944 154.478V151.478ZM120.837 151.478V153.59H126.837V151.478H120.837ZM123.837 150.59H107.502V156.59H123.837V150.59ZM110.502 153.59V130.49H104.502V153.59H110.502ZM107.502 133.49H123.342V127.49H107.502V133.49ZM120.342 130.49V132.602H126.342V130.49H120.342ZM123.342 129.602H109.944V135.602H123.342V129.602ZM106.944 132.602V140.819H112.944V132.602H106.944ZM109.944 143.819H121.89V137.819H109.944V143.819ZM118.89 140.819V142.898H124.89V140.819H118.89ZM121.89 139.898H109.944V145.898H121.89V139.898ZM106.944 142.898V151.478H112.944V142.898H106.944ZM109.944 154.478H123.837V148.478H109.944V154.478ZM148.651 153.59L146.206 155.329C146.769 156.12 147.68 156.59 148.651 156.59V153.59ZM143.371 146.165L145.816 144.427C145.185 143.539 144.122 143.063 143.04 143.184L143.371 146.165ZM135.319 146.264V143.264C133.662 143.264 132.319 144.607 132.319 146.264H135.319ZM135.319 153.59V156.59C136.976 156.59 138.319 155.247 138.319 153.59H135.319ZM132.877 153.59H129.877C129.877 155.247 131.22 156.59 132.877 156.59V153.59ZM132.877 130.49V127.49C131.22 127.49 129.877 128.833 129.877 130.49H132.877ZM148.453 132.602L146.521 134.897L148.453 132.602ZM149.575 142.997L147.16 141.218L147.154 141.225L149.575 142.997ZM145.681 145.67L144.755 142.817C143.846 143.112 143.132 143.822 142.832 144.73C142.533 145.637 142.683 146.633 143.238 147.411L145.681 145.67ZM151.324 153.59V156.59C152.447 156.59 153.476 155.963 153.991 154.964C154.505 153.966 154.419 152.764 153.767 151.849L151.324 153.59ZM146.704 142.667L148.629 144.968L146.704 142.667ZM146.704 134.12L144.779 136.421C144.788 136.428 144.796 136.435 144.804 136.442L146.704 134.12ZM135.319 132.602V129.602C133.662 129.602 132.319 130.945 132.319 132.602H135.319ZM135.319 144.185H132.319C132.319 145.842 133.662 147.185 135.319 147.185V144.185ZM151.096 151.852L145.816 144.427L140.926 147.904L146.206 155.329L151.096 151.852ZM143.04 143.184C142.563 143.236 142.058 143.264 141.523 143.264V149.264C142.264 149.264 142.991 149.226 143.702 149.147L143.04 143.184ZM141.523 143.264H135.319V149.264H141.523V143.264ZM132.319 146.264V153.59H138.319V146.264H132.319ZM135.319 150.59H132.877V156.59H135.319V150.59ZM135.877 153.59V130.49H129.877V153.59H135.877ZM132.877 133.49H141.523V127.49H132.877V133.49ZM141.523 133.49C144.011 133.49 145.553 134.082 146.521 134.897L150.385 130.307C148.009 128.307 144.931 127.49 141.523 127.49V133.49ZM146.521 134.897C147.425 135.658 147.961 136.705 147.961 138.41H153.961C153.961 135.188 152.825 132.362 150.385 130.307L146.521 134.897ZM147.961 138.41C147.961 139.679 147.646 140.558 147.16 141.218L151.99 144.777C153.352 142.929 153.961 140.749 153.961 138.41H147.961ZM147.154 141.225C146.684 141.868 145.952 142.428 144.755 142.817L146.607 148.524C148.798 147.812 150.662 146.591 151.996 144.769L147.154 141.225ZM143.238 147.411L148.881 155.331L153.767 151.849L148.124 143.929L143.238 147.411ZM151.324 150.59H148.651V156.59H151.324V150.59ZM141.457 147.185C144.139 147.185 146.682 146.597 148.629 144.968L144.779 140.366C144.307 140.761 143.351 141.185 141.457 141.185V147.185ZM148.629 144.968C150.632 143.293 151.519 140.969 151.519 138.41H145.519C145.519 139.504 145.197 140.017 144.779 140.366L148.629 144.968ZM151.519 138.41C151.519 135.836 150.649 133.471 148.604 131.798L144.804 136.442C145.18 136.749 145.519 137.244 145.519 138.41H151.519ZM148.629 131.819C146.682 130.19 144.139 129.602 141.457 129.602V135.602C143.351 135.602 144.307 136.026 144.779 136.421L148.629 131.819ZM141.457 129.602H135.319V135.602H141.457V129.602ZM132.319 132.602V144.185H138.319V132.602H132.319ZM135.319 147.185H141.457V141.185H135.319V147.185ZM162.467 132.602V129.602C160.81 129.602 159.467 130.945 159.467 132.602H162.467ZM162.467 141.677H159.467C159.467 143.334 160.81 144.677 162.467 144.677V141.677ZM174.413 141.677H177.413C177.413 140.02 176.07 138.677 174.413 138.677V141.677ZM174.413 143.789V146.789C176.07 146.789 177.413 145.446 177.413 143.789H174.413ZM162.467 143.789V140.789C160.81 140.789 159.467 142.132 159.467 143.789H162.467ZM162.467 153.59V156.59C164.124 156.59 165.467 155.247 165.467 153.59H162.467ZM160.025 153.59H157.025C157.025 155.247 158.368 156.59 160.025 156.59V153.59ZM160.025 130.49V127.49C158.368 127.49 157.025 128.833 157.025 130.49H160.025ZM175.865 130.49H178.865C178.865 128.833 177.522 127.49 175.865 127.49V130.49ZM175.865 132.602V135.602C177.522 135.602 178.865 134.259 178.865 132.602H175.865ZM159.467 132.602V141.677H165.467V132.602H159.467ZM162.467 144.677H174.413V138.677H162.467V144.677ZM171.413 141.677V143.789H177.413V141.677H171.413ZM174.413 140.789H162.467V146.789H174.413V140.789ZM159.467 143.789V153.59H165.467V143.789H159.467ZM162.467 150.59H160.025V156.59H162.467V150.59ZM163.025 153.59V130.49H157.025V153.59H163.025ZM160.025 133.49H175.865V127.49H160.025V133.49ZM172.865 130.49V132.602H178.865V130.49H172.865ZM175.865 129.602H162.467V135.602H175.865V129.602ZM200.543 151.478H203.543C203.543 149.821 202.199 148.478 200.543 148.478V151.478ZM200.543 153.59V156.59C202.199 156.59 203.543 155.247 203.543 153.59H200.543ZM184.208 153.59H181.208C181.208 155.247 182.551 156.59 184.208 156.59V153.59ZM184.208 130.49V127.49C182.551 127.49 181.208 128.833 181.208 130.49H184.208ZM200.048 130.49H203.048C203.048 128.833 201.704 127.49 200.048 127.49V130.49ZM200.048 132.602V135.602C201.704 135.602 203.048 134.259 203.048 132.602H200.048ZM186.65 132.602V129.602C184.993 129.602 183.65 130.945 183.65 132.602H186.65ZM186.65 140.819H183.65C183.65 142.476 184.993 143.819 186.65 143.819V140.819ZM198.596 140.819H201.596C201.596 139.162 200.252 137.819 198.596 137.819V140.819ZM198.596 142.898V145.898C200.252 145.898 201.596 144.555 201.596 142.898H198.596ZM186.65 142.898V139.898C184.993 139.898 183.65 141.241 183.65 142.898H186.65ZM186.65 151.478H183.65C183.65 153.135 184.993 154.478 186.65 154.478V151.478ZM197.543 151.478V153.59H203.543V151.478H197.543ZM200.543 150.59H184.208V156.59H200.543V150.59ZM187.208 153.59V130.49H181.208V153.59H187.208ZM184.208 133.49H200.048V127.49H184.208V133.49ZM197.048 130.49V132.602H203.048V130.49H197.048ZM200.048 129.602H186.65V135.602H200.048V129.602ZM183.65 132.602V140.819H189.65V132.602H183.65ZM186.65 143.819H198.596V137.819H186.65V143.819ZM195.596 140.819V142.898H201.596V140.819H195.596ZM198.596 139.898H186.65V145.898H198.596V139.898ZM183.65 142.898V151.478H189.65V142.898H183.65ZM186.65 154.478H200.543V148.478H186.65V154.478ZM213.411 152.27L211.956 154.894C211.961 154.897 211.965 154.899 211.97 154.901L213.411 152.27ZM209.088 148.079L206.485 149.571C206.492 149.584 206.499 149.596 206.507 149.609L209.088 148.079ZM209.088 136.034L206.499 134.519L206.493 134.529L209.088 136.034ZM213.444 131.81L212.003 129.179L213.444 131.81ZM224.4 131.15L223.3 133.941L224.4 131.15ZM228.096 133.658L230.217 135.779C231.354 134.642 231.392 132.811 230.304 131.627L228.096 133.658ZM226.545 135.209L224.411 137.318C224.972 137.886 225.737 138.207 226.536 138.209C227.334 138.212 228.101 137.895 228.666 137.33L226.545 135.209ZM214.731 133.724L213.267 131.105L214.731 133.724ZM211.2 137.156L208.617 135.63C208.611 135.64 208.605 135.649 208.6 135.659L211.2 137.156ZM211.2 146.924L208.6 148.421C208.605 148.431 208.611 148.441 208.617 148.45L211.2 146.924ZM214.731 150.356L213.267 152.975L214.731 150.356ZM226.545 148.838L228.666 146.717C228.097 146.148 227.323 145.831 226.517 145.838C225.712 145.846 224.944 146.176 224.385 146.756L226.545 148.838ZM228.096 150.389L230.304 152.42C231.392 151.237 231.354 149.405 230.217 148.268L228.096 150.389ZM224.367 152.93L225.466 155.721C225.474 155.719 225.481 155.716 225.488 155.713L224.367 152.93ZM219.615 150.788C217.786 150.788 216.221 150.388 214.852 149.639L211.97 154.901C214.297 156.176 216.867 156.788 219.615 156.788V150.788ZM214.865 149.646C213.501 148.89 212.451 147.87 211.669 146.55L206.507 149.609C207.837 151.853 209.668 153.626 211.956 154.894L214.865 149.646ZM211.69 146.587C210.935 145.269 210.537 143.776 210.537 142.04H204.537C204.537 144.748 205.173 147.282 206.485 149.571L211.69 146.587ZM210.537 142.04C210.537 140.304 210.935 138.829 211.683 137.54L206.493 134.529C205.173 136.804 204.537 139.332 204.537 142.04H210.537ZM211.677 137.55C212.456 136.219 213.509 135.195 214.885 134.441L212.003 129.179C209.682 130.45 207.832 132.242 206.499 134.519L211.677 137.55ZM214.885 134.441C216.254 133.692 217.819 133.292 219.648 133.292V127.292C216.9 127.292 214.33 127.904 212.003 129.179L214.885 134.441ZM219.648 133.292C221.025 133.292 222.232 133.52 223.3 133.941L225.499 128.359C223.664 127.636 221.703 127.292 219.648 127.292V133.292ZM223.3 133.941C224.349 134.355 225.197 134.938 225.888 135.689L230.304 131.627C228.971 130.178 227.354 129.09 225.499 128.359L223.3 133.941ZM225.974 131.537L224.423 133.088L228.666 137.33L230.217 135.779L225.974 131.537ZM228.679 133.101C226.268 130.661 223.202 129.47 219.714 129.47V135.47C221.725 135.47 223.213 136.106 224.411 137.318L228.679 133.101ZM219.714 129.47C217.41 129.47 215.24 130.003 213.267 131.105L216.194 136.343C217.214 135.773 218.365 135.47 219.714 135.47V129.47ZM213.267 131.105C211.316 132.196 209.749 133.714 208.617 135.63L213.782 138.682C214.366 137.695 215.153 136.925 216.194 136.343L213.267 131.105ZM208.6 135.659C207.482 137.601 206.946 139.752 206.946 142.04H212.946C212.946 140.72 213.246 139.615 213.8 138.653L208.6 135.659ZM206.946 142.04C206.946 144.328 207.482 146.479 208.6 148.421L213.8 145.427C213.246 144.465 212.946 143.36 212.946 142.04H206.946ZM208.617 148.45C209.749 150.367 211.316 151.885 213.267 152.975L216.194 147.737C215.153 147.156 214.366 146.386 213.782 145.398L208.617 148.45ZM213.267 152.975C215.24 154.077 217.41 154.61 219.714 154.61V148.61C218.365 148.61 217.214 148.307 216.194 147.737L213.267 152.975ZM219.714 154.61C223.228 154.61 226.309 153.405 228.704 150.921L224.385 146.756C223.217 147.967 221.743 148.61 219.714 148.61V154.61ZM224.423 150.959L225.974 152.51L230.217 148.268L228.666 146.717L224.423 150.959ZM225.888 148.358C225.197 149.109 224.333 149.709 223.245 150.148L225.488 155.713C227.349 154.963 228.971 153.869 230.304 152.42L225.888 148.358ZM223.267 150.139C222.199 150.56 220.992 150.788 219.615 150.788V156.788C221.67 156.788 223.631 156.444 225.466 155.721L223.267 150.139ZM242.739 132.602H245.739C245.739 130.945 244.396 129.602 242.739 129.602V132.602ZM234.621 132.602H231.621C231.621 134.259 232.965 135.602 234.621 135.602V132.602ZM234.621 130.49V127.49C232.965 127.49 231.621 128.833 231.621 130.49H234.621ZM253.299 130.49H256.299C256.299 128.833 254.956 127.49 253.299 127.49V130.49ZM253.299 132.602V135.602C254.956 135.602 256.299 134.259 256.299 132.602H253.299ZM245.181 132.602V129.602C243.525 129.602 242.181 130.945 242.181 132.602H245.181ZM245.181 153.59V156.59C246.838 156.59 248.181 155.247 248.181 153.59H245.181ZM242.739 153.59H239.739C239.739 155.247 241.083 156.59 242.739 156.59V153.59ZM242.739 129.602H234.621V135.602H242.739V129.602ZM237.621 132.602V130.49H231.621V132.602H237.621ZM234.621 133.49H253.299V127.49H234.621V133.49ZM250.299 130.49V132.602H256.299V130.49H250.299ZM253.299 129.602H245.181V135.602H253.299V129.602ZM242.181 132.602V153.59H248.181V132.602H242.181ZM245.181 150.59H242.739V156.59H245.181V150.59ZM245.739 153.59V132.602H239.739V153.59H245.739Z" fill="white"/>
<path d="M109.28 165.839H104.08V165.459H114.88V165.839H109.68V179.459H109.28V165.839ZM128.937 179.079V179.459H119.617V165.459H128.637V165.839H120.017V172.159H127.737V172.539H120.017V179.079H128.937ZM145.976 165.459V179.459H145.636L135.376 166.199V179.459H134.976V165.459H135.316L145.576 178.719V165.459H145.976ZM156.725 179.519C155.711 179.519 154.758 179.339 153.865 178.979C152.971 178.606 152.285 178.126 151.805 177.539L152.085 177.279C152.538 177.812 153.185 178.259 154.025 178.619C154.865 178.966 155.758 179.139 156.705 179.139C158.158 179.139 159.251 178.852 159.985 178.279C160.731 177.692 161.105 176.939 161.105 176.019C161.105 175.299 160.911 174.726 160.525 174.299C160.138 173.872 159.658 173.552 159.085 173.339C158.525 173.126 157.765 172.906 156.805 172.679C155.778 172.426 154.965 172.186 154.365 171.959C153.765 171.719 153.251 171.359 152.825 170.879C152.411 170.386 152.205 169.732 152.205 168.919C152.205 168.279 152.371 167.692 152.705 167.159C153.038 166.626 153.558 166.199 154.265 165.879C154.971 165.559 155.845 165.399 156.885 165.399C157.631 165.399 158.365 165.519 159.085 165.759C159.805 165.986 160.425 166.292 160.945 166.679L160.725 166.999C160.178 166.599 159.565 166.299 158.885 166.099C158.218 165.886 157.558 165.779 156.905 165.779C155.505 165.779 154.438 166.079 153.705 166.679C152.971 167.266 152.605 168.019 152.605 168.939C152.605 169.659 152.798 170.239 153.185 170.679C153.571 171.106 154.051 171.426 154.625 171.639C155.198 171.852 155.971 172.079 156.945 172.319C157.958 172.572 158.765 172.819 159.365 173.059C159.965 173.286 160.471 173.639 160.885 174.119C161.298 174.586 161.505 175.219 161.505 176.019C161.505 176.659 161.331 177.246 160.985 177.779C160.638 178.312 160.105 178.739 159.385 179.059C158.678 179.366 157.791 179.519 156.725 179.519ZM176.636 179.079V179.459H167.316V165.459H176.336V165.839H167.716V172.159H175.436V172.539H167.716V179.079H176.636Z" fill="white"/>
<path d="M109.28 165.839H111.28C111.28 164.735 110.385 163.839 109.28 163.839V165.839ZM104.08 165.839H102.08C102.08 166.944 102.975 167.839 104.08 167.839V165.839ZM104.08 165.459V163.459C102.975 163.459 102.08 164.355 102.08 165.459H104.08ZM114.88 165.459H116.88C116.88 164.355 115.985 163.459 114.88 163.459V165.459ZM114.88 165.839V167.839C115.985 167.839 116.88 166.944 116.88 165.839H114.88ZM109.68 165.839V163.839C108.575 163.839 107.68 164.735 107.68 165.839H109.68ZM109.68 179.459V181.459C110.785 181.459 111.68 180.564 111.68 179.459H109.68ZM109.28 179.459H107.28C107.28 180.564 108.175 181.459 109.28 181.459V179.459ZM109.28 163.839H104.08V167.839H109.28V163.839ZM106.08 165.839V165.459H102.08V165.839H106.08ZM104.08 167.459H114.88V163.459H104.08V167.459ZM112.88 165.459V165.839H116.88V165.459H112.88ZM114.88 163.839H109.68V167.839H114.88V163.839ZM107.68 165.839V179.459H111.68V165.839H107.68ZM109.68 177.459H109.28V181.459H109.68V177.459ZM111.28 179.459V165.839H107.28V179.459H111.28ZM128.937 179.079H130.937C130.937 177.975 130.042 177.079 128.937 177.079V179.079ZM128.937 179.459V181.459C130.042 181.459 130.937 180.564 130.937 179.459H128.937ZM119.617 179.459H117.617C117.617 180.564 118.512 181.459 119.617 181.459V179.459ZM119.617 165.459V163.459C118.512 163.459 117.617 164.355 117.617 165.459H119.617ZM128.637 165.459H130.637C130.637 164.355 129.742 163.459 128.637 163.459V165.459ZM128.637 165.839V167.839C129.742 167.839 130.637 166.944 130.637 165.839H128.637ZM120.017 165.839V163.839C118.912 163.839 118.017 164.735 118.017 165.839H120.017ZM120.017 172.159H118.017C118.017 173.264 118.912 174.159 120.017 174.159V172.159ZM127.737 172.159H129.737C129.737 171.055 128.842 170.159 127.737 170.159V172.159ZM127.737 172.539V174.539C128.842 174.539 129.737 173.644 129.737 172.539H127.737ZM120.017 172.539V170.539C118.912 170.539 118.017 171.435 118.017 172.539H120.017ZM120.017 179.079H118.017C118.017 180.184 118.912 181.079 120.017 181.079V179.079ZM126.937 179.079V179.459H130.937V179.079H126.937ZM128.937 177.459H119.617V181.459H128.937V177.459ZM121.617 179.459V165.459H117.617V179.459H121.617ZM119.617 167.459H128.637V163.459H119.617V167.459ZM126.637 165.459V165.839H130.637V165.459H126.637ZM128.637 163.839H120.017V167.839H128.637V163.839ZM118.017 165.839V172.159H122.017V165.839H118.017ZM120.017 174.159H127.737V170.159H120.017V174.159ZM125.737 172.159V172.539H129.737V172.159H125.737ZM127.737 170.539H120.017V174.539H127.737V170.539ZM118.017 172.539V179.079H122.017V172.539H118.017ZM120.017 181.079H128.937V177.079H120.017V181.079ZM145.976 165.459H147.976C147.976 164.355 147.081 163.459 145.976 163.459V165.459ZM145.976 179.459V181.459C147.081 181.459 147.976 180.564 147.976 179.459H145.976ZM145.636 179.459L144.055 180.683C144.433 181.173 145.017 181.459 145.636 181.459V179.459ZM135.376 166.199L136.958 164.975C136.435 164.299 135.539 164.03 134.73 164.307C133.92 164.583 133.376 165.344 133.376 166.199H135.376ZM135.376 179.459V181.459C136.481 181.459 137.376 180.564 137.376 179.459H135.376ZM134.976 179.459H132.976C132.976 180.564 133.872 181.459 134.976 181.459V179.459ZM134.976 165.459V163.459C133.872 163.459 132.976 164.355 132.976 165.459H134.976ZM135.316 165.459L136.898 164.235C136.519 163.746 135.935 163.459 135.316 163.459V165.459ZM145.576 178.719L143.995 179.943C144.518 180.62 145.414 180.888 146.223 180.612C147.032 180.335 147.576 179.574 147.576 178.719H145.576ZM145.576 165.459V163.459C144.472 163.459 143.576 164.355 143.576 165.459H145.576ZM143.976 165.459V179.459H147.976V165.459H143.976ZM145.976 177.459H145.636V181.459H145.976V177.459ZM147.218 178.235L136.958 164.975L133.795 167.423L144.055 180.683L147.218 178.235ZM133.376 166.199V179.459H137.376V166.199H133.376ZM135.376 177.459H134.976V181.459H135.376V177.459ZM136.976 179.459V165.459H132.976V179.459H136.976ZM134.976 167.459H135.316V163.459H134.976V167.459ZM133.735 166.683L143.995 179.943L147.158 177.495L136.898 164.235L133.735 166.683ZM147.576 178.719V165.459H143.576V178.719H147.576ZM145.576 167.459H145.976V163.459H145.576V167.459ZM153.865 178.979L153.093 180.824C153.101 180.828 153.109 180.831 153.117 180.834L153.865 178.979ZM151.805 177.539L150.444 176.074C149.67 176.792 149.588 177.988 150.257 178.806L151.805 177.539ZM152.085 177.279L153.608 175.984C153.255 175.568 152.747 175.315 152.202 175.283C151.658 175.25 151.123 175.442 150.724 175.814L152.085 177.279ZM154.025 178.619L153.237 180.457C153.245 180.461 153.253 180.464 153.262 180.468L154.025 178.619ZM159.985 178.279L161.216 179.855L161.22 179.852L159.985 178.279ZM160.525 174.299L159.043 175.642L160.525 174.299ZM159.085 173.339L158.373 175.208C158.377 175.21 158.382 175.212 158.387 175.214L159.085 173.339ZM156.805 172.679L156.325 174.621C156.332 174.623 156.338 174.624 156.345 174.626L156.805 172.679ZM154.365 171.959L153.622 173.816C153.634 173.821 153.646 173.826 153.658 173.83L154.365 171.959ZM152.825 170.879L151.291 172.164C151.304 172.179 151.317 172.193 151.33 172.208L152.825 170.879ZM152.705 167.159L154.401 168.219L152.705 167.159ZM159.085 165.759L158.452 167.657C158.463 167.66 158.473 167.663 158.484 167.667L159.085 165.759ZM160.945 166.679L162.593 167.812C163.202 166.926 163.001 165.716 162.138 165.074L160.945 166.679ZM160.725 166.999L159.544 168.613C159.98 168.932 160.527 169.061 161.06 168.971C161.593 168.88 162.066 168.578 162.373 168.132L160.725 166.999ZM158.885 166.099L158.275 168.004C158.29 168.009 158.305 168.013 158.32 168.018L158.885 166.099ZM153.705 166.679L154.954 168.241C154.96 168.236 154.965 168.232 154.971 168.227L153.705 166.679ZM153.185 170.679L151.682 171.999C151.689 172.007 151.696 172.015 151.703 172.022L153.185 170.679ZM154.625 171.639L155.322 169.765L154.625 171.639ZM156.945 172.319L157.43 170.379L157.423 170.377L156.945 172.319ZM159.365 173.059L158.622 174.916C158.634 174.921 158.646 174.926 158.658 174.93L159.365 173.059ZM160.885 174.119L159.369 175.424C159.375 175.431 159.381 175.438 159.387 175.445L160.885 174.119ZM160.985 177.779L159.308 176.689L160.985 177.779ZM159.385 179.059L160.181 180.894C160.186 180.891 160.191 180.889 160.197 180.887L159.385 179.059ZM156.725 177.519C155.954 177.519 155.256 177.383 154.612 177.124L153.117 180.834C154.26 181.295 155.469 181.519 156.725 181.519V177.519ZM154.636 177.134C153.963 176.853 153.575 176.545 153.352 176.273L150.257 178.806C150.994 179.707 151.979 180.359 153.093 180.824L154.636 177.134ZM153.165 179.005L153.445 178.745L150.724 175.814L150.444 176.074L153.165 179.005ZM150.561 178.574C151.266 179.404 152.196 180.012 153.237 180.457L154.812 176.781C154.173 176.507 153.81 176.221 153.608 175.984L150.561 178.574ZM153.262 180.468C154.354 180.919 155.507 181.139 156.705 181.139V177.139C156.009 177.139 155.375 177.013 154.788 176.77L153.262 180.468ZM156.705 181.139C158.369 181.139 159.982 180.82 161.216 179.855L158.753 176.704C158.52 176.885 157.947 177.139 156.705 177.139V181.139ZM161.22 179.852C162.431 178.9 163.105 177.575 163.105 176.019H159.105C159.105 176.303 159.031 176.485 158.749 176.707L161.22 179.852ZM163.105 176.019C163.105 174.932 162.804 173.836 162.007 172.956L159.043 175.642C159.044 175.644 159.046 175.646 159.048 175.65C159.051 175.654 159.057 175.666 159.064 175.688C159.08 175.734 159.105 175.836 159.105 176.019H163.105ZM162.007 172.956C161.391 172.277 160.636 171.783 159.782 171.465L158.387 175.214C158.679 175.322 158.884 175.468 159.043 175.642L162.007 172.956ZM159.797 171.47C159.119 171.212 158.263 170.968 157.264 170.733L156.345 174.626C157.266 174.843 157.93 175.04 158.373 175.208L159.797 171.47ZM157.284 170.737C156.292 170.493 155.565 170.275 155.071 170.088L153.658 173.83C154.364 174.097 155.264 174.359 156.325 174.621L157.284 170.737ZM155.107 170.102C154.794 169.977 154.538 169.797 154.319 169.55L151.33 172.208C151.964 172.921 152.735 173.462 153.622 173.816L155.107 170.102ZM154.358 169.595C154.319 169.548 154.205 169.39 154.205 168.919H150.205C150.205 170.075 150.504 171.224 151.291 172.164L154.358 169.595ZM154.205 168.919C154.205 168.647 154.27 168.429 154.401 168.219L151.009 166.099C150.473 166.956 150.205 167.911 150.205 168.919H154.205ZM154.401 168.219C154.481 168.091 154.658 167.897 155.09 167.701L153.44 164.057C152.458 164.502 151.595 165.161 151.009 166.099L154.401 168.219ZM155.09 167.701C155.465 167.531 156.037 167.399 156.885 167.399V163.399C155.652 163.399 154.478 163.587 153.44 164.057L155.09 167.701ZM156.885 167.399C157.413 167.399 157.933 167.483 158.452 167.657L159.717 163.862C158.796 163.555 157.85 163.399 156.885 163.399V167.399ZM158.484 167.667C159.025 167.837 159.437 168.051 159.751 168.284L162.138 165.074C161.412 164.534 160.584 164.134 159.685 163.851L158.484 167.667ZM159.296 165.546L159.076 165.866L162.373 168.132L162.593 167.812L159.296 165.546ZM161.906 165.385C161.164 164.842 160.34 164.443 159.449 164.18L158.32 168.018C158.789 168.156 159.192 168.356 159.544 168.613L161.906 165.385ZM159.494 164.194C158.644 163.922 157.779 163.779 156.905 163.779V167.779C157.337 167.779 157.791 167.849 158.275 168.004L159.494 164.194ZM156.905 163.779C155.256 163.779 153.665 164.128 152.438 165.131L154.971 168.227C155.211 168.031 155.753 167.779 156.905 167.779V163.779ZM152.455 165.117C151.259 166.074 150.605 167.397 150.605 168.939H154.605C154.605 168.641 154.684 168.457 154.954 168.241L152.455 165.117ZM150.605 168.939C150.605 170.029 150.906 171.116 151.682 171.999L154.687 169.359C154.677 169.348 154.663 169.33 154.647 169.282C154.629 169.228 154.605 169.121 154.605 168.939H150.605ZM151.703 172.022C152.318 172.701 153.073 173.196 153.927 173.514L155.322 169.765C155.03 169.656 154.825 169.511 154.667 169.336L151.703 172.022ZM153.927 173.514C154.602 173.765 155.459 174.013 156.466 174.261L157.423 170.377C156.484 170.146 155.793 169.94 155.322 169.765L153.927 173.514ZM156.459 174.259C157.431 174.502 158.141 174.724 158.622 174.916L160.107 171.202C159.388 170.915 158.484 170.643 157.43 170.379L156.459 174.259ZM158.658 174.93C158.949 175.04 159.177 175.201 159.369 175.424L162.4 172.814C161.766 172.078 160.98 171.531 160.071 171.188L158.658 174.93ZM159.387 175.445C159.393 175.452 159.505 175.565 159.505 176.019H163.505C163.505 174.873 163.202 173.72 162.382 172.793L159.387 175.445ZM159.505 176.019C159.505 176.275 159.442 176.482 159.308 176.689L162.661 178.869C163.22 178.009 163.505 177.044 163.505 176.019H159.505ZM159.308 176.689C159.217 176.828 159.023 177.031 158.572 177.232L160.197 180.887C161.186 180.447 162.059 179.796 162.661 178.869L159.308 176.689ZM158.588 177.224C158.21 177.389 157.616 177.519 156.725 177.519V181.519C157.967 181.519 159.146 181.343 160.181 180.894L158.588 177.224ZM176.636 179.079H178.636C178.636 177.975 177.741 177.079 176.636 177.079V179.079ZM176.636 179.459V181.459C177.741 181.459 178.636 180.564 178.636 179.459H176.636ZM167.316 179.459H165.316C165.316 180.564 166.212 181.459 167.316 181.459V179.459ZM167.316 165.459V163.459C166.212 163.459 165.316 164.355 165.316 165.459H167.316ZM176.336 165.459H178.336C178.336 164.355 177.441 163.459 176.336 163.459V165.459ZM176.336 165.839V167.839C177.441 167.839 178.336 166.944 178.336 165.839H176.336ZM167.716 165.839V163.839C166.612 163.839 165.716 164.735 165.716 165.839H167.716ZM167.716 172.159H165.716C165.716 173.264 166.612 174.159 167.716 174.159V172.159ZM175.436 172.159H177.436C177.436 171.055 176.541 170.159 175.436 170.159V172.159ZM175.436 172.539V174.539C176.541 174.539 177.436 173.644 177.436 172.539H175.436ZM167.716 172.539V170.539C166.612 170.539 165.716 171.435 165.716 172.539H167.716ZM167.716 179.079H165.716C165.716 180.184 166.612 181.079 167.716 181.079V179.079ZM174.636 179.079V179.459H178.636V179.079H174.636ZM176.636 177.459H167.316V181.459H176.636V177.459ZM169.316 179.459V165.459H165.316V179.459H169.316ZM167.316 167.459H176.336V163.459H167.316V167.459ZM174.336 165.459V165.839H178.336V165.459H174.336ZM176.336 163.839H167.716V167.839H176.336V163.839ZM165.716 165.839V172.159H169.716V165.839H165.716ZM167.716 174.159H175.436V170.159H167.716V174.159ZM173.436 172.159V172.539H177.436V172.159H173.436ZM175.436 170.539H167.716V174.539H175.436V170.539ZM165.716 172.539V179.079H169.716V172.539H165.716ZM167.716 181.079H176.636V177.079H167.716V181.079Z" fill="white"/>
</mask>
<g mask="url(#mask0_162_69)">
<path d="M0 136.139C9.46667 139.384 32.0667 144.8 51 145.728C69.9333 146.69 84.5 143.051 124.5 141.556C164.5 140.061 174 145.728 217.5 145.728C261 145.728 284 130.844 284 130.844V321.559H274.533C265.067 321.559 246.133 321.559 227.2 321.559C208.267 321.559 189.333 321.559 170.4 321.559C151.467 321.559 132.533 321.559 113.6 321.559C94.6667 321.559 75.7333 321.559 56.8 321.559C37.8667 321.559 18.9333 321.559 9.46667 321.559H0V136.139Z" fill="white"/>
</g>
</g>
<defs>
<clipPath id="clip0_162_69">
<rect width="284" height="322" fill="white"/>
</clipPath>
</defs>
</svg>
