<svg width="284" height="322" viewBox="0 0 284 322" fill="none" xmlns="http://www.w3.org/2000/svg">
<g clip-path="url(#clip0_162_47)">
<path d="M284 0H0V320.914H284V0Z" fill="#001220"/>
<path d="M64.768 131.566V141.466H77.8V143.77H64.768V154.462H62.104V129.262H79.384V131.566H64.768ZM98.6373 154.678C95.3733 154.678 92.8293 153.742 91.0053 151.87C89.1813 149.998 88.2693 147.274 88.2693 143.698V129.262H90.9333V143.59C90.9333 146.518 91.5933 148.702 92.9133 150.142C94.2333 151.582 96.1413 152.302 98.6373 152.302C101.157 152.302 103.077 151.582 104.397 150.142C105.717 148.702 106.377 146.518 106.377 143.59V129.262H108.969V143.698C108.969 147.274 108.057 149.998 106.233 151.87C104.433 153.742 101.901 154.678 98.6373 154.678ZM125.001 131.566H116.145V129.262H136.521V131.566H127.665V154.462H125.001V131.566ZM154.036 154.678C150.772 154.678 148.228 153.742 146.404 151.87C144.58 149.998 143.668 147.274 143.668 143.698V129.262H146.332V143.59C146.332 146.518 146.992 148.702 148.312 150.142C149.632 151.582 151.54 152.302 154.036 152.302C156.556 152.302 158.476 151.582 159.796 150.142C161.116 148.702 161.776 146.518 161.776 143.59V129.262H164.368V143.698C164.368 147.274 163.456 149.998 161.632 151.87C159.832 153.742 157.3 154.678 154.036 154.678ZM193.204 154.462L187.444 146.362C186.796 146.434 186.124 146.47 185.428 146.47H178.66V154.462H175.996V129.262H185.428C188.644 129.262 191.164 130.03 192.988 131.566C194.812 133.102 195.724 135.214 195.724 137.902C195.724 139.87 195.22 141.538 194.212 142.906C193.228 144.25 191.812 145.222 189.964 145.822L196.12 154.462H193.204ZM185.356 144.202C187.852 144.202 189.76 143.65 191.08 142.546C192.4 141.442 193.06 139.894 193.06 137.902C193.06 135.862 192.4 134.302 191.08 133.222C189.76 132.118 187.852 131.566 185.356 131.566H178.66V144.202H185.356ZM223.432 152.158V154.462H205.612V129.262H222.892V131.566H208.276V140.53H221.308V142.798H208.276V152.158H223.432Z" fill="#80FF80"/>
<path d="M64.768 131.566V128.566C63.1111 128.566 61.768 129.909 61.768 131.566H64.768ZM64.768 141.466H61.768C61.768 143.122 63.1111 144.466 64.768 144.466V141.466ZM77.8 141.466H80.8C80.8 139.809 79.4569 138.466 77.8 138.466V141.466ZM77.8 143.77V146.77C79.4569 146.77 80.8 145.426 80.8 143.77H77.8ZM64.768 143.77V140.77C63.1111 140.77 61.768 142.113 61.768 143.77H64.768ZM64.768 154.462V157.462C66.4249 157.462 67.768 156.118 67.768 154.462H64.768ZM62.104 154.462H59.104C59.104 156.118 60.4471 157.462 62.104 157.462V154.462ZM62.104 129.262V126.262C60.4471 126.262 59.104 127.605 59.104 129.262H62.104ZM79.384 129.262H82.384C82.384 127.605 81.0409 126.262 79.384 126.262V129.262ZM79.384 131.566V134.566C81.0409 134.566 82.384 133.222 82.384 131.566H79.384ZM61.768 131.566V141.466H67.768V131.566H61.768ZM64.768 144.466H77.8V138.466H64.768V144.466ZM74.8 141.466V143.77H80.8V141.466H74.8ZM77.8 140.77H64.768V146.77H77.8V140.77ZM61.768 143.77V154.462H67.768V143.77H61.768ZM64.768 151.462H62.104V157.462H64.768V151.462ZM65.104 154.462V129.262H59.104V154.462H65.104ZM62.104 132.262H79.384V126.262H62.104V132.262ZM76.384 129.262V131.566H82.384V129.262H76.384ZM79.384 128.566H64.768V134.566H79.384V128.566ZM91.0053 151.87L93.1539 149.776L91.0053 151.87ZM88.2693 129.262V126.262C86.6124 126.262 85.2693 127.605 85.2693 129.262H88.2693ZM90.9333 129.262H93.9333C93.9333 127.605 92.5901 126.262 90.9333 126.262V129.262ZM104.397 150.142L106.609 152.169L104.397 150.142ZM106.377 129.262V126.262C104.72 126.262 103.377 127.605 103.377 129.262H106.377ZM108.969 129.262H111.969C111.969 127.605 110.626 126.262 108.969 126.262V129.262ZM106.233 151.87L104.085 149.776C104.08 149.781 104.075 149.786 104.071 149.79L106.233 151.87ZM98.6373 151.678C95.9688 151.678 94.2798 150.932 93.1539 149.776L88.8566 153.963C91.3787 156.552 94.7777 157.678 98.6373 157.678V151.678ZM93.1539 149.776C92.0511 148.644 91.2693 146.785 91.2693 143.698H85.2693C85.2693 147.762 86.3114 151.351 88.8566 153.963L93.1539 149.776ZM91.2693 143.698V129.262H85.2693V143.698H91.2693ZM88.2693 132.262H90.9333V126.262H88.2693V132.262ZM87.9333 129.262V143.59H93.9333V129.262H87.9333ZM87.9333 143.59C87.9333 146.903 88.6724 149.955 90.7018 152.169L95.1247 148.114C94.5141 147.448 93.9333 146.132 93.9333 143.59H87.9333ZM90.7018 152.169C92.7385 154.391 95.5487 155.302 98.6373 155.302V149.302C96.7338 149.302 95.728 148.773 95.1247 148.114L90.7018 152.169ZM98.6373 155.302C101.74 155.302 104.567 154.397 106.609 152.169L102.186 148.114C101.588 148.767 100.575 149.302 98.6373 149.302V155.302ZM106.609 152.169C108.638 149.955 109.377 146.903 109.377 143.59H103.377C103.377 146.132 102.796 147.448 102.186 148.114L106.609 152.169ZM109.377 143.59V129.262H103.377V143.59H109.377ZM106.377 132.262H108.969V126.262H106.377V132.262ZM105.969 129.262V143.698H111.969V129.262H105.969ZM105.969 143.698C105.969 146.785 105.187 148.644 104.085 149.776L108.382 153.963C110.927 151.351 111.969 147.762 111.969 143.698H105.969ZM104.071 149.79C102.974 150.931 101.308 151.678 98.6373 151.678V157.678C102.495 157.678 105.893 156.552 108.396 153.949L104.071 149.79ZM125.001 131.566H128.001C128.001 129.909 126.658 128.566 125.001 128.566V131.566ZM116.145 131.566H113.145C113.145 133.222 114.488 134.566 116.145 134.566V131.566ZM116.145 129.262V126.262C114.488 126.262 113.145 127.605 113.145 129.262H116.145ZM136.521 129.262H139.521C139.521 127.605 138.178 126.262 136.521 126.262V129.262ZM136.521 131.566V134.566C138.178 134.566 139.521 133.222 139.521 131.566H136.521ZM127.665 131.566V128.566C126.008 128.566 124.665 129.909 124.665 131.566H127.665ZM127.665 154.462V157.462C129.322 157.462 130.665 156.118 130.665 154.462H127.665ZM125.001 154.462H122.001C122.001 156.118 123.344 157.462 125.001 157.462V154.462ZM125.001 128.566H116.145V134.566H125.001V128.566ZM119.145 131.566V129.262H113.145V131.566H119.145ZM116.145 132.262H136.521V126.262H116.145V132.262ZM133.521 129.262V131.566H139.521V129.262H133.521ZM136.521 128.566H127.665V134.566H136.521V128.566ZM124.665 131.566V154.462H130.665V131.566H124.665ZM127.665 151.462H125.001V157.462H127.665V151.462ZM128.001 154.462V131.566H122.001V154.462H128.001ZM146.404 151.87L148.553 149.776L146.404 151.87ZM143.668 129.262V126.262C142.012 126.262 140.668 127.605 140.668 129.262H143.668ZM146.332 129.262H149.332C149.332 127.605 147.989 126.262 146.332 126.262V129.262ZM159.796 150.142L162.008 152.169L159.796 150.142ZM161.776 129.262V126.262C160.12 126.262 158.776 127.605 158.776 129.262H161.776ZM164.368 129.262H167.368C167.368 127.605 166.025 126.262 164.368 126.262V129.262ZM161.632 151.87L159.484 149.776C159.479 149.781 159.475 149.786 159.47 149.79L161.632 151.87ZM154.036 151.678C151.368 151.678 149.679 150.932 148.553 149.776L144.256 153.963C146.778 156.552 150.177 157.678 154.036 157.678V151.678ZM148.553 149.776C147.45 148.644 146.668 146.785 146.668 143.698H140.668C140.668 147.762 141.711 151.351 144.256 153.963L148.553 149.776ZM146.668 143.698V129.262H140.668V143.698H146.668ZM143.668 132.262H146.332V126.262H143.668V132.262ZM143.332 129.262V143.59H149.332V129.262H143.332ZM143.332 143.59C143.332 146.903 144.072 149.955 146.101 152.169L150.524 148.114C149.913 147.448 149.332 146.132 149.332 143.59H143.332ZM146.101 152.169C148.138 154.391 150.948 155.302 154.036 155.302V149.302C152.133 149.302 151.127 148.773 150.524 148.114L146.101 152.169ZM154.036 155.302C157.139 155.302 159.966 154.397 162.008 152.169L157.585 148.114C156.987 148.767 155.974 149.302 154.036 149.302V155.302ZM162.008 152.169C164.037 149.955 164.776 146.903 164.776 143.59H158.776C158.776 146.132 158.196 147.448 157.585 148.114L162.008 152.169ZM164.776 143.59V129.262H158.776V143.59H164.776ZM161.776 132.262H164.368V126.262H161.776V132.262ZM161.368 129.262V143.698H167.368V129.262H161.368ZM161.368 143.698C161.368 146.785 160.587 148.644 159.484 149.776L163.781 153.963C166.326 151.351 167.368 147.762 167.368 143.698H161.368ZM159.47 149.79C158.373 150.931 156.707 151.678 154.036 151.678V157.678C157.894 157.678 161.292 156.552 163.795 153.949L159.47 149.79ZM193.204 154.462L190.759 156.2C191.322 156.992 192.233 157.462 193.204 157.462V154.462ZM187.444 146.362L189.889 144.623C189.258 143.736 188.195 143.26 187.113 143.38L187.444 146.362ZM178.66 146.47V143.47C177.003 143.47 175.66 144.813 175.66 146.47H178.66ZM178.66 154.462V157.462C180.317 157.462 181.66 156.118 181.66 154.462H178.66ZM175.996 154.462H172.996C172.996 156.118 174.339 157.462 175.996 157.462V154.462ZM175.996 129.262V126.262C174.339 126.262 172.996 127.605 172.996 129.262H175.996ZM192.988 131.566L191.056 133.86L192.988 131.566ZM194.212 142.906L191.797 141.126L191.792 141.133L194.212 142.906ZM189.964 145.822L189.038 142.968C188.129 143.263 187.415 143.974 187.115 144.881C186.816 145.788 186.966 146.784 187.521 147.562L189.964 145.822ZM196.12 154.462V157.462C197.243 157.462 198.272 156.834 198.787 155.836C199.301 154.838 199.215 153.636 198.563 152.721L196.12 154.462ZM191.08 142.546L193.005 144.847L191.08 142.546ZM191.08 133.222L189.156 135.523C189.164 135.53 189.172 135.537 189.18 135.544L191.08 133.222ZM178.66 131.566V128.566C177.003 128.566 175.66 129.909 175.66 131.566H178.66ZM178.66 144.202H175.66C175.66 145.858 177.003 147.202 178.66 147.202V144.202ZM195.649 152.723L189.889 144.623L184.999 148.1L190.759 156.2L195.649 152.723ZM187.113 143.38C186.582 143.439 186.021 143.47 185.428 143.47V149.47C186.228 149.47 187.01 149.428 187.775 149.343L187.113 143.38ZM185.428 143.47H178.66V149.47H185.428V143.47ZM175.66 146.47V154.462H181.66V146.47H175.66ZM178.66 151.462H175.996V157.462H178.66V151.462ZM178.996 154.462V129.262H172.996V154.462H178.996ZM175.996 132.262H185.428V126.262H175.996V132.262ZM185.428 132.262C188.185 132.262 189.936 132.917 191.056 133.86L194.921 129.271C192.393 127.142 189.104 126.262 185.428 126.262V132.262ZM191.056 133.86C192.112 134.75 192.724 135.972 192.724 137.902H198.724C198.724 134.455 197.513 131.454 194.921 129.271L191.056 133.86ZM192.724 137.902C192.724 139.334 192.367 140.352 191.797 141.126L196.627 144.685C198.073 142.723 198.724 140.405 198.724 137.902H192.724ZM191.792 141.133C191.239 141.888 190.39 142.529 189.038 142.968L190.891 148.675C193.235 147.914 195.217 146.611 196.633 144.678L191.792 141.133ZM187.521 147.562L193.677 156.202L198.563 152.721L192.407 144.081L187.521 147.562ZM196.12 151.462H193.204V157.462H196.12V151.462ZM185.356 147.202C188.246 147.202 190.948 146.567 193.005 144.847L189.156 140.244C188.573 140.732 187.458 141.202 185.356 141.202V147.202ZM193.005 144.847C195.118 143.08 196.06 140.626 196.06 137.902H190.06C190.06 139.161 189.683 139.804 189.156 140.244L193.005 144.847ZM196.06 137.902C196.06 135.157 195.135 132.663 192.98 130.9L189.18 135.544C189.666 135.941 190.06 136.566 190.06 137.902H196.06ZM193.005 130.92C190.948 129.2 188.246 128.566 185.356 128.566V134.566C187.458 134.566 188.573 135.035 189.156 135.523L193.005 130.92ZM185.356 128.566H178.66V134.566H185.356V128.566ZM175.66 131.566V144.202H181.66V131.566H175.66ZM178.66 147.202H185.356V141.202H178.66V147.202ZM223.432 152.158H226.432C226.432 150.501 225.089 149.158 223.432 149.158V152.158ZM223.432 154.462V157.462C225.089 157.462 226.432 156.118 226.432 154.462H223.432ZM205.612 154.462H202.612C202.612 156.118 203.955 157.462 205.612 157.462V154.462ZM205.612 129.262V126.262C203.955 126.262 202.612 127.605 202.612 129.262H205.612ZM222.892 129.262H225.892C225.892 127.605 224.549 126.262 222.892 126.262V129.262ZM222.892 131.566V134.566C224.549 134.566 225.892 133.222 225.892 131.566H222.892ZM208.276 131.566V128.566C206.619 128.566 205.276 129.909 205.276 131.566H208.276ZM208.276 140.53H205.276C205.276 142.186 206.619 143.53 208.276 143.53V140.53ZM221.308 140.53H224.308C224.308 138.873 222.965 137.53 221.308 137.53V140.53ZM221.308 142.798V145.798C222.965 145.798 224.308 144.454 224.308 142.798H221.308ZM208.276 142.798V139.798C206.619 139.798 205.276 141.141 205.276 142.798H208.276ZM208.276 152.158H205.276C205.276 153.814 206.619 155.158 208.276 155.158V152.158ZM220.432 152.158V154.462H226.432V152.158H220.432ZM223.432 151.462H205.612V157.462H223.432V151.462ZM208.612 154.462V129.262H202.612V154.462H208.612ZM205.612 132.262H222.892V126.262H205.612V132.262ZM219.892 129.262V131.566H225.892V129.262H219.892ZM222.892 128.566H208.276V134.566H222.892V128.566ZM205.276 131.566V140.53H211.276V131.566H205.276ZM208.276 143.53H221.308V137.53H208.276V143.53ZM218.308 140.53V142.798H224.308V140.53H218.308ZM221.308 139.798H208.276V145.798H221.308V139.798ZM205.276 142.798V152.158H211.276V142.798H205.276ZM208.276 155.158H223.432V149.158H208.276V155.158Z" fill="#80FF80"/>
<path d="M124.28 103.936H119.08V103.556H129.88V103.936H124.68V117.556H124.28V103.936ZM145.617 103.556V117.556H145.217V110.636H135.017V117.556H134.617V103.556H135.017V110.256H145.217V103.556H145.617ZM162.265 117.176V117.556H152.945V103.556H161.965V103.936H153.345V110.256H161.065V110.636H153.345V117.176H162.265Z" fill="#80FF80"/>
<path d="M124.28 103.936H126.28C126.28 102.831 125.385 101.936 124.28 101.936V103.936ZM119.08 103.936H117.08C117.08 105.04 117.975 105.936 119.08 105.936V103.936ZM119.08 103.556V101.556C117.975 101.556 117.08 102.451 117.08 103.556H119.08ZM129.88 103.556H131.88C131.88 102.451 130.985 101.556 129.88 101.556V103.556ZM129.88 103.936V105.936C130.985 105.936 131.88 105.04 131.88 103.936H129.88ZM124.68 103.936V101.936C123.575 101.936 122.68 102.831 122.68 103.936H124.68ZM124.68 117.556V119.556C125.785 119.556 126.68 118.66 126.68 117.556H124.68ZM124.28 117.556H122.28C122.28 118.66 123.175 119.556 124.28 119.556V117.556ZM124.28 101.936H119.08V105.936H124.28V101.936ZM121.08 103.936V103.556H117.08V103.936H121.08ZM119.08 105.556H129.88V101.556H119.08V105.556ZM127.88 103.556V103.936H131.88V103.556H127.88ZM129.88 101.936H124.68V105.936H129.88V101.936ZM122.68 103.936V117.556H126.68V103.936H122.68ZM124.68 115.556H124.28V119.556H124.68V115.556ZM126.28 117.556V103.936H122.28V117.556H126.28ZM145.617 103.556H147.617C147.617 102.451 146.722 101.556 145.617 101.556V103.556ZM145.617 117.556V119.556C146.722 119.556 147.617 118.66 147.617 117.556H145.617ZM145.217 117.556H143.217C143.217 118.66 144.112 119.556 145.217 119.556V117.556ZM145.217 110.636H147.217C147.217 109.531 146.322 108.636 145.217 108.636V110.636ZM135.017 110.636V108.636C133.912 108.636 133.017 109.531 133.017 110.636H135.017ZM135.017 117.556V119.556C136.122 119.556 137.017 118.66 137.017 117.556H135.017ZM134.617 117.556H132.617C132.617 118.66 133.512 119.556 134.617 119.556V117.556ZM134.617 103.556V101.556C133.512 101.556 132.617 102.451 132.617 103.556H134.617ZM135.017 103.556H137.017C137.017 102.451 136.122 101.556 135.017 101.556V103.556ZM135.017 110.256H133.017C133.017 111.36 133.912 112.256 135.017 112.256V110.256ZM145.217 110.256V112.256C146.322 112.256 147.217 111.36 147.217 110.256H145.217ZM145.217 103.556V101.556C144.112 101.556 143.217 102.451 143.217 103.556H145.217ZM143.617 103.556V117.556H147.617V103.556H143.617ZM145.617 115.556H145.217V119.556H145.617V115.556ZM147.217 117.556V110.636H143.217V117.556H147.217ZM145.217 108.636H135.017V112.636H145.217V108.636ZM133.017 110.636V117.556H137.017V110.636H133.017ZM135.017 115.556H134.617V119.556H135.017V115.556ZM136.617 117.556V103.556H132.617V117.556H136.617ZM134.617 105.556H135.017V101.556H134.617V105.556ZM133.017 103.556V110.256H137.017V103.556H133.017ZM135.017 112.256H145.217V108.256H135.017V112.256ZM147.217 110.256V103.556H143.217V110.256H147.217ZM145.217 105.556H145.617V101.556H145.217V105.556ZM162.265 117.176H164.265C164.265 116.071 163.37 115.176 162.265 115.176V117.176ZM162.265 117.556V119.556C163.37 119.556 164.265 118.66 164.265 117.556H162.265ZM152.945 117.556H150.945C150.945 118.66 151.841 119.556 152.945 119.556V117.556ZM152.945 103.556V101.556C151.841 101.556 150.945 102.451 150.945 103.556H152.945ZM161.965 103.556H163.965C163.965 102.451 163.07 101.556 161.965 101.556V103.556ZM161.965 103.936V105.936C163.07 105.936 163.965 105.04 163.965 103.936H161.965ZM153.345 103.936V101.936C152.241 101.936 151.345 102.831 151.345 103.936H153.345ZM153.345 110.256H151.345C151.345 111.36 152.241 112.256 153.345 112.256V110.256ZM161.065 110.256H163.065C163.065 109.151 162.17 108.256 161.065 108.256V110.256ZM161.065 110.636V112.636C162.17 112.636 163.065 111.74 163.065 110.636H161.065ZM153.345 110.636V108.636C152.241 108.636 151.345 109.531 151.345 110.636H153.345ZM153.345 117.176H151.345C151.345 118.28 152.241 119.176 153.345 119.176V117.176ZM160.265 117.176V117.556H164.265V117.176H160.265ZM162.265 115.556H152.945V119.556H162.265V115.556ZM154.945 117.556V103.556H150.945V117.556H154.945ZM152.945 105.556H161.965V101.556H152.945V105.556ZM159.965 103.556V103.936H163.965V103.556H159.965ZM161.965 101.936H153.345V105.936H161.965V101.936ZM151.345 103.936V110.256H155.345V103.936H151.345ZM153.345 112.256H161.065V108.256H153.345V112.256ZM159.065 110.256V110.636H163.065V110.256H159.065ZM161.065 108.636H153.345V112.636H161.065V108.636ZM151.345 110.636V117.176H155.345V110.636H151.345ZM153.345 119.176H162.265V115.176H153.345V119.176Z" fill="#80FF80"/>
<path d="M0 144.389L9.46667 145.649C18.9333 146.948 37.8667 149.468 56.8 146.871C75.7333 144.275 94.6667 136.486 113.6 137.02C132.533 137.517 151.467 146.299 170.4 146.871C189.333 147.444 208.267 139.808 227.2 135.875C246.133 131.904 265.067 131.675 274.533 131.522L284 131.408V321.551H274.533C265.067 321.551 246.133 321.551 227.2 321.551C208.267 321.551 189.333 321.551 170.4 321.551C151.467 321.551 132.533 321.551 113.6 321.551C94.6667 321.551 75.7333 321.551 56.8 321.551C37.8667 321.551 18.9333 321.551 9.46667 321.551H0V144.389Z" fill="#80FF80"/>
<path d="M0 151.862L9.46667 156.099C18.9333 160.297 37.8667 168.771 56.8 172.454C75.7333 176.137 94.6667 175.107 113.6 173.959C132.533 172.85 151.467 171.662 170.4 178.711C189.333 185.799 208.267 201.084 227.2 200.965C246.133 200.847 265.067 185.245 274.533 177.483L284 169.682V320.951H274.533C265.067 320.951 246.133 320.951 227.2 320.951C208.267 320.951 189.333 320.951 170.4 320.951C151.467 320.951 132.533 320.951 113.6 320.951C94.6667 320.951 75.7333 320.951 56.8 320.951C37.8667 320.951 18.9333 320.951 9.46667 320.951H0V151.862Z" fill="#63F361"/>
<path d="M0 229.081V205.076C9.46667 203.294 29.6 217.914 56.8 218.389C84 218.864 94.6667 211.261 113.6 211.34C132.533 211.38 151.467 215.102 170.4 218.864C189.333 222.626 208.267 226.428 227.2 221.082C246.133 215.736 269.327 209.281 284 196.214V320.951H274.533C265.067 320.951 246.133 320.951 227.2 320.951C208.267 320.951 189.333 320.951 170.4 320.951C151.467 320.951 132.533 320.951 113.6 320.951C94.6667 320.951 75.7333 320.951 56.8 320.951C37.8667 320.951 18.9333 320.951 9.46667 320.951H0V229.081Z" fill="#48E145"/>
<path d="M0 234.229L9.46667 236.486C18.9333 238.704 37.8667 243.218 56.8 245.396C75.7333 247.574 94.6667 247.415 113.6 243.218C132.533 238.981 147.825 234.893 170.4 233.833C192.619 232.79 209.213 233.833 227.2 237.674C245.187 241.515 274.533 247.653 284 254.821V266.7V320.951H274.533C265.067 320.951 246.133 320.951 227.2 320.951C208.267 320.951 189.333 320.951 170.4 320.951C151.467 320.951 132.533 320.951 113.6 320.951C94.6667 320.951 75.7333 320.951 56.8 320.951C37.8667 320.951 18.9333 320.951 9.46667 320.951H0V234.229Z" fill="#30CE2D"/>
<path d="M0 294.676L9.46667 295.35C18.9333 295.983 37.8667 297.33 56.8 295.587C75.7333 293.884 94.6667 289.133 113.6 282.797C132.533 276.461 151.467 268.541 170.4 266.838C189.333 265.096 208.267 269.61 227.2 269.452C246.133 269.333 265.067 264.581 274.533 262.205L284 259.829V322H274.533C265.067 322 246.133 322 227.2 322C208.267 322 189.333 322 170.4 322C151.467 322 132.533 322 113.6 322C94.6667 322 75.7333 322 56.8 322C37.8667 322 18.9333 322 9.46667 322H0V294.676Z" fill="#00C200"/>
<path d="M88.4614 207.402V214.578H97.4134V215.682H88.4614V223.098H87.2374V206.298H98.4694V207.402H88.4614ZM111.354 223.218C109.226 223.218 107.57 222.602 106.386 221.37C105.218 220.138 104.634 218.338 104.634 215.97V206.298H105.858V215.922C105.858 217.986 106.33 219.53 107.274 220.554C108.218 221.578 109.586 222.09 111.378 222.09C113.154 222.09 114.514 221.578 115.458 220.554C116.402 219.53 116.874 217.986 116.874 215.922V206.298H118.098V215.97C118.098 218.338 117.506 220.138 116.322 221.37C115.138 222.602 113.482 223.218 111.354 223.218ZM129.697 207.402H123.649V206.298H136.969V207.402H130.921V223.098H129.697V207.402ZM149.581 223.218C147.453 223.218 145.797 222.602 144.613 221.37C143.445 220.138 142.861 218.338 142.861 215.97V206.298H144.085V215.922C144.085 217.986 144.557 219.53 145.501 220.554C146.445 221.578 147.813 222.09 149.605 222.09C151.381 222.09 152.741 221.578 153.685 220.554C154.629 219.53 155.101 217.986 155.101 215.922V206.298H156.325V215.97C156.325 218.338 155.733 220.138 154.549 221.37C153.365 222.602 151.709 223.218 149.581 223.218ZM175.5 223.098L171.492 217.482C170.9 217.562 170.356 217.602 169.86 217.602H165.06V223.098H163.836V206.298H169.86C171.972 206.298 173.628 206.802 174.828 207.81C176.028 208.802 176.628 210.186 176.628 211.962C176.628 213.29 176.284 214.41 175.596 215.322C174.924 216.218 173.956 216.85 172.692 217.218L176.892 223.098H175.5ZM169.86 216.522C171.652 216.522 173.02 216.13 173.964 215.346C174.908 214.546 175.38 213.418 175.38 211.962C175.38 210.506 174.908 209.386 173.964 208.602C173.02 207.802 171.652 207.402 169.86 207.402H165.06V216.522H169.86ZM190.637 223.218C188.989 223.218 187.501 222.85 186.173 222.114C184.845 221.362 183.797 220.338 183.029 219.042C182.277 217.746 181.901 216.298 181.901 214.698C181.901 213.098 182.277 211.65 183.029 210.354C183.797 209.058 184.845 208.042 186.173 207.306C187.501 206.554 188.989 206.178 190.637 206.178C192.285 206.178 193.773 206.546 195.101 207.282C196.429 208.018 197.469 209.034 198.221 210.33C198.989 211.626 199.373 213.082 199.373 214.698C199.373 216.314 198.989 217.77 198.221 219.066C197.469 220.362 196.429 221.378 195.101 222.114C193.773 222.85 192.285 223.218 190.637 223.218ZM190.637 222.09C192.045 222.09 193.317 221.77 194.453 221.13C195.589 220.49 196.485 219.61 197.141 218.49C197.797 217.354 198.125 216.09 198.125 214.698C198.125 213.306 197.797 212.05 197.141 210.93C196.485 209.794 195.589 208.906 194.453 208.266C193.317 207.626 192.045 207.306 190.637 207.306C189.229 207.306 187.949 207.626 186.797 208.266C185.661 208.906 184.765 209.794 184.109 210.93C183.453 212.05 183.125 213.306 183.125 214.698C183.125 216.09 183.453 217.354 184.109 218.49C184.765 219.61 185.661 220.49 186.797 221.13C187.949 221.77 189.229 222.09 190.637 222.09Z" fill="white"/>
<path d="M88.4614 207.402V205.152C87.2187 205.152 86.2114 206.16 86.2114 207.402H88.4614ZM88.4614 214.578H86.2114C86.2114 215.821 87.2187 216.828 88.4614 216.828V214.578ZM97.4134 214.578H99.6634C99.6634 213.336 98.656 212.328 97.4134 212.328V214.578ZM97.4134 215.682V217.932C98.656 217.932 99.6634 216.925 99.6634 215.682H97.4134ZM88.4614 215.682V213.432C87.2187 213.432 86.2114 214.44 86.2114 215.682H88.4614ZM88.4614 223.098V225.348C89.704 225.348 90.7114 224.341 90.7114 223.098H88.4614ZM87.2374 223.098H84.9874C84.9874 224.341 85.9947 225.348 87.2374 225.348V223.098ZM87.2374 206.298V204.048C85.9947 204.048 84.9874 205.056 84.9874 206.298H87.2374ZM98.4694 206.298H100.719C100.719 205.056 99.712 204.048 98.4694 204.048V206.298ZM98.4694 207.402V209.652C99.712 209.652 100.719 208.645 100.719 207.402H98.4694ZM86.2114 207.402V214.578H90.7114V207.402H86.2114ZM88.4614 216.828H97.4134V212.328H88.4614V216.828ZM95.1634 214.578V215.682H99.6634V214.578H95.1634ZM97.4134 213.432H88.4614V217.932H97.4134V213.432ZM86.2114 215.682V223.098H90.7114V215.682H86.2114ZM88.4614 220.848H87.2374V225.348H88.4614V220.848ZM89.4874 223.098V206.298H84.9874V223.098H89.4874ZM87.2374 208.548H98.4694V204.048H87.2374V208.548ZM96.2194 206.298V207.402H100.719V206.298H96.2194ZM98.4694 205.152H88.4614V209.652H98.4694V205.152ZM106.386 221.37L104.753 222.918C104.757 222.922 104.76 222.926 104.764 222.929L106.386 221.37ZM104.634 206.298V204.048C103.391 204.048 102.384 205.056 102.384 206.298H104.634ZM105.858 206.298H108.108C108.108 205.056 107.101 204.048 105.858 204.048V206.298ZM107.274 220.554L105.62 222.079L107.274 220.554ZM115.458 220.554L113.804 219.029L115.458 220.554ZM116.874 206.298V204.048C115.631 204.048 114.624 205.056 114.624 206.298H116.874ZM118.098 206.298H120.348C120.348 205.056 119.341 204.048 118.098 204.048V206.298ZM116.322 221.37L114.7 219.811L116.322 221.37ZM111.354 220.968C109.678 220.968 108.669 220.498 108.008 219.811L104.764 222.929C106.471 224.706 108.774 225.468 111.354 225.468V220.968ZM108.019 219.822C107.381 219.149 106.884 217.992 106.884 215.97H102.384C102.384 218.685 103.055 221.127 104.753 222.918L108.019 219.822ZM106.884 215.97V206.298H102.384V215.97H106.884ZM104.634 208.548H105.858V204.048H104.634V208.548ZM103.608 206.298V215.922H108.108V206.298H103.608ZM103.608 215.922C103.608 218.284 104.144 220.478 105.62 222.079L108.928 219.029C108.516 218.582 108.108 217.688 108.108 215.922H103.608ZM105.62 222.079C107.104 223.689 109.148 224.34 111.378 224.34V219.84C110.024 219.84 109.332 219.467 108.928 219.029L105.62 222.079ZM111.378 224.34C113.599 224.34 115.632 223.685 117.112 222.079L113.804 219.029C113.396 219.471 112.709 219.84 111.378 219.84V224.34ZM117.112 222.079C118.588 220.478 119.124 218.284 119.124 215.922H114.624C114.624 217.688 114.216 218.582 113.804 219.029L117.112 222.079ZM119.124 215.922V206.298H114.624V215.922H119.124ZM116.874 208.548H118.098V204.048H116.874V208.548ZM115.848 206.298V215.97H120.348V206.298H115.848ZM115.848 215.97C115.848 217.984 115.347 219.138 114.7 219.811L117.944 222.929C119.665 221.139 120.348 218.692 120.348 215.97H115.848ZM114.7 219.811C114.039 220.498 113.03 220.968 111.354 220.968V225.468C113.934 225.468 116.237 224.706 117.944 222.929L114.7 219.811ZM129.697 207.402H131.947C131.947 206.16 130.94 205.152 129.697 205.152V207.402ZM123.649 207.402H121.399C121.399 208.645 122.406 209.652 123.649 209.652V207.402ZM123.649 206.298V204.048C122.406 204.048 121.399 205.056 121.399 206.298H123.649ZM136.969 206.298H139.219C139.219 205.056 138.212 204.048 136.969 204.048V206.298ZM136.969 207.402V209.652C138.212 209.652 139.219 208.645 139.219 207.402H136.969ZM130.921 207.402V205.152C129.678 205.152 128.671 206.16 128.671 207.402H130.921ZM130.921 223.098V225.348C132.164 225.348 133.171 224.341 133.171 223.098H130.921ZM129.697 223.098H127.447C127.447 224.341 128.454 225.348 129.697 225.348V223.098ZM129.697 205.152H123.649V209.652H129.697V205.152ZM125.899 207.402V206.298H121.399V207.402H125.899ZM123.649 208.548H136.969V204.048H123.649V208.548ZM134.719 206.298V207.402H139.219V206.298H134.719ZM136.969 205.152H130.921V209.652H136.969V205.152ZM128.671 207.402V223.098H133.171V207.402H128.671ZM130.921 220.848H129.697V225.348H130.921V220.848ZM131.947 223.098V207.402H127.447V223.098H131.947ZM144.613 221.37L142.98 222.918C142.983 222.922 142.987 222.926 142.99 222.929L144.613 221.37ZM142.861 206.298V204.048C141.618 204.048 140.611 205.056 140.611 206.298H142.861ZM144.085 206.298H146.335C146.335 205.056 145.327 204.048 144.085 204.048V206.298ZM145.501 220.554L143.846 222.079L145.501 220.554ZM153.685 220.554L152.03 219.029L153.685 220.554ZM155.101 206.298V204.048C153.858 204.048 152.851 205.056 152.851 206.298H155.101ZM156.325 206.298H158.575C158.575 205.056 157.567 204.048 156.325 204.048V206.298ZM154.549 221.37L152.926 219.811L154.549 221.37ZM149.581 220.968C147.905 220.968 146.895 220.498 146.235 219.811L142.99 222.929C144.698 224.706 147 225.468 149.581 225.468V220.968ZM146.245 219.822C145.607 219.149 145.111 217.992 145.111 215.97H140.611C140.611 218.685 141.282 221.127 142.98 222.918L146.245 219.822ZM145.111 215.97V206.298H140.611V215.97H145.111ZM142.861 208.548H144.085V204.048H142.861V208.548ZM141.835 206.298V215.922H146.335V206.298H141.835ZM141.835 215.922C141.835 218.284 142.37 220.478 143.846 222.079L147.155 219.029C146.743 218.582 146.335 217.688 146.335 215.922H141.835ZM143.846 222.079C145.33 223.689 147.375 224.34 149.605 224.34V219.84C148.25 219.84 147.559 219.467 147.155 219.029L143.846 222.079ZM149.605 224.34C151.825 224.34 153.858 223.685 155.339 222.079L152.03 219.029C151.623 219.471 150.936 219.84 149.605 219.84V224.34ZM155.339 222.079C156.815 220.478 157.351 218.284 157.351 215.922H152.851C152.851 217.688 152.442 218.582 152.03 219.029L155.339 222.079ZM157.351 215.922V206.298H152.851V215.922H157.351ZM155.101 208.548H156.325V204.048H155.101V208.548ZM154.075 206.298V215.97H158.575V206.298H154.075ZM154.075 215.97C154.075 217.984 153.574 219.138 152.926 219.811L156.171 222.929C157.891 221.139 158.575 218.692 158.575 215.97H154.075ZM152.926 219.811C152.266 220.498 151.256 220.968 149.581 220.968V225.468C152.161 225.468 154.463 224.706 156.171 222.929L152.926 219.811ZM175.5 223.098L173.668 224.405C174.091 224.997 174.773 225.348 175.5 225.348V223.098ZM171.492 217.482L173.323 216.175C172.838 215.496 172.018 215.141 171.19 215.253L171.492 217.482ZM165.06 217.602V215.352C163.817 215.352 162.81 216.36 162.81 217.602H165.06ZM165.06 223.098V225.348C166.302 225.348 167.31 224.341 167.31 223.098H165.06ZM163.836 223.098H161.586C161.586 224.341 162.593 225.348 163.836 225.348V223.098ZM163.836 206.298V204.048C162.593 204.048 161.586 205.056 161.586 206.298H163.836ZM174.828 207.81L173.381 209.533C173.385 209.537 173.39 209.541 173.394 209.544L174.828 207.81ZM175.596 215.322L173.8 213.967L173.796 213.972L175.596 215.322ZM172.692 217.218L172.063 215.058C171.363 215.262 170.805 215.792 170.566 216.481C170.327 217.171 170.437 217.933 170.861 218.526L172.692 217.218ZM176.892 223.098V225.348C177.735 225.348 178.507 224.877 178.892 224.128C179.278 223.378 179.213 222.476 178.723 221.79L176.892 223.098ZM173.964 215.346L175.401 217.077C175.407 217.072 175.413 217.068 175.418 217.063L173.964 215.346ZM173.964 208.602L172.509 210.319C172.515 210.324 172.521 210.328 172.526 210.333L173.964 208.602ZM165.06 207.402V205.152C163.817 205.152 162.81 206.16 162.81 207.402H165.06ZM165.06 216.522H162.81C162.81 217.765 163.817 218.772 165.06 218.772V216.522ZM177.331 221.791L173.323 216.175L169.66 218.789L173.668 224.405L177.331 221.791ZM171.19 215.253C170.679 215.322 170.237 215.352 169.86 215.352V219.852C170.474 219.852 171.121 219.803 171.793 219.712L171.19 215.253ZM169.86 215.352H165.06V219.852H169.86V215.352ZM162.81 217.602V223.098H167.31V217.602H162.81ZM165.06 220.848H163.836V225.348H165.06V220.848ZM166.086 223.098V206.298H161.586V223.098H166.086ZM163.836 208.548H169.86V204.048H163.836V208.548ZM169.86 208.548C171.627 208.548 172.708 208.968 173.381 209.533L176.275 206.087C174.548 204.636 172.316 204.048 169.86 204.048V208.548ZM173.394 209.544C174.001 210.046 174.378 210.751 174.378 211.962H178.878C178.878 209.621 178.055 207.559 176.261 206.076L173.394 209.544ZM174.378 211.962C174.378 212.884 174.147 213.507 173.8 213.967L177.392 216.677C178.421 215.314 178.878 213.697 178.878 211.962H174.378ZM173.796 213.972C173.465 214.413 172.944 214.801 172.063 215.058L173.321 219.379C174.968 218.899 176.383 218.023 177.396 216.672L173.796 213.972ZM170.861 218.526L175.061 224.406L178.723 221.79L174.523 215.91L170.861 218.526ZM176.892 220.848H175.5V225.348H176.892V220.848ZM169.86 218.772C171.942 218.772 173.903 218.321 175.401 217.077L172.526 213.615C172.136 213.939 171.362 214.272 169.86 214.272V218.772ZM175.418 217.063C176.958 215.758 177.63 213.95 177.63 211.962H173.13C173.13 212.886 172.858 213.334 172.509 213.63L175.418 217.063ZM177.63 211.962C177.63 209.975 176.958 208.164 175.401 206.871L172.526 210.333C172.858 210.609 173.13 211.037 173.13 211.962H177.63ZM175.418 206.886C173.92 205.616 171.951 205.152 169.86 205.152V209.652C171.353 209.652 172.12 209.989 172.509 210.319L175.418 206.886ZM169.86 205.152H165.06V209.652H169.86V205.152ZM162.81 207.402V216.522H167.31V207.402H162.81ZM165.06 218.772H169.86V214.272H165.06V218.772ZM186.173 222.114L185.065 224.072C185.071 224.076 185.077 224.079 185.083 224.082L186.173 222.114ZM183.029 219.042L181.083 220.171C181.087 220.177 181.09 220.183 181.094 220.189L183.029 219.042ZM183.029 210.354L181.094 209.207C181.09 209.213 181.087 209.219 181.083 209.225L183.029 210.354ZM186.173 207.306L187.264 209.274C187.27 209.271 187.276 209.268 187.282 209.264L186.173 207.306ZM198.221 210.33L196.275 211.459C196.279 211.465 196.282 211.471 196.286 211.477L198.221 210.33ZM198.221 219.066L196.286 217.919C196.282 217.925 196.279 217.931 196.275 217.937L198.221 219.066ZM195.101 222.114L196.192 224.082L195.101 222.114ZM194.453 221.13L193.349 219.17L194.453 221.13ZM197.141 218.49L199.083 219.627L199.09 219.615L197.141 218.49ZM197.141 210.93L195.193 212.055L195.2 212.067L197.141 210.93ZM194.453 208.266L193.349 210.227L194.453 208.266ZM186.797 208.266L185.705 206.299L185.693 206.306L186.797 208.266ZM184.109 210.93L186.051 212.067L186.058 212.055L184.109 210.93ZM184.109 218.49L182.161 219.615L182.168 219.627L184.109 218.49ZM186.797 221.13L185.693 223.091L185.705 223.097L186.797 221.13ZM190.637 220.968C189.337 220.968 188.23 220.682 187.264 220.146L185.083 224.082C186.772 225.019 188.641 225.468 190.637 225.468V220.968ZM187.282 220.156C186.291 219.595 185.53 218.849 184.965 217.895L181.094 220.189C182.065 221.828 183.4 223.129 185.065 224.072L187.282 220.156ZM184.975 217.913C184.436 216.983 184.151 215.93 184.151 214.698H179.651C179.651 216.667 180.119 218.509 181.083 220.171L184.975 217.913ZM184.151 214.698C184.151 213.467 184.436 212.413 184.975 211.483L181.083 209.225C180.119 210.887 179.651 212.73 179.651 214.698H184.151ZM184.965 211.501C185.527 210.552 186.283 209.818 187.264 209.274L185.083 205.338C183.408 206.266 182.067 207.565 181.094 209.207L184.965 211.501ZM187.282 209.264C188.245 208.719 189.346 208.428 190.637 208.428V203.928C188.633 203.928 186.757 204.39 185.065 205.348L187.282 209.264ZM190.637 208.428C191.937 208.428 193.044 208.715 194.011 209.25L196.192 205.314C194.502 204.378 192.633 203.928 190.637 203.928V208.428ZM194.011 209.25C194.988 209.792 195.73 210.52 196.275 211.459L200.167 209.201C199.208 207.548 197.871 206.245 196.192 205.314L194.011 209.25ZM196.286 211.477C196.833 212.401 197.123 213.455 197.123 214.698H201.623C201.623 212.709 201.146 210.852 200.157 209.183L196.286 211.477ZM197.123 214.698C197.123 215.941 196.833 216.996 196.286 217.919L200.157 220.213C201.146 218.545 201.623 216.687 201.623 214.698H197.123ZM196.275 217.937C195.73 218.876 194.988 219.605 194.011 220.146L196.192 224.082C197.871 223.152 199.208 221.848 200.167 220.195L196.275 217.937ZM194.011 220.146C193.044 220.682 191.937 220.968 190.637 220.968V225.468C192.633 225.468 194.502 225.019 196.192 224.082L194.011 220.146ZM190.637 224.34C192.4 224.34 194.058 223.936 195.558 223.091L193.349 219.17C192.577 219.605 191.69 219.84 190.637 219.84V224.34ZM195.558 223.091C197.039 222.256 198.225 221.093 199.083 219.627L195.2 217.353C194.746 218.128 194.14 218.724 193.349 219.17L195.558 223.091ZM199.09 219.615C199.955 218.116 200.375 216.46 200.375 214.698H195.875C195.875 215.72 195.639 216.592 195.193 217.365L199.09 219.615ZM200.375 214.698C200.375 212.937 199.955 211.283 199.083 209.793L195.2 212.067C195.639 212.817 195.875 213.676 195.875 214.698H200.375ZM199.09 209.805C198.234 208.322 197.047 207.145 195.558 206.306L193.349 210.227C194.132 210.668 194.737 211.266 195.193 212.055L199.09 209.805ZM195.558 206.306C194.058 205.461 192.4 205.056 190.637 205.056V209.556C191.69 209.556 192.577 209.792 193.349 210.227L195.558 206.306ZM190.637 205.056C188.874 205.056 187.214 205.461 185.705 206.299L187.89 210.233C188.685 209.791 189.585 209.556 190.637 209.556V205.056ZM185.693 206.306C184.204 207.145 183.017 208.322 182.161 209.805L186.058 212.055C186.514 211.266 187.119 210.668 187.902 210.227L185.693 206.306ZM182.168 209.793C181.295 211.283 180.875 212.937 180.875 214.698H185.375C185.375 213.676 185.611 212.817 186.051 212.067L182.168 209.793ZM180.875 214.698C180.875 216.46 181.295 218.116 182.161 219.615L186.058 217.365C185.611 216.592 185.375 215.72 185.375 214.698H180.875ZM182.168 219.627C183.026 221.093 184.212 222.256 185.693 223.091L187.902 219.17C187.111 218.724 186.505 218.128 186.051 217.353L182.168 219.627ZM185.705 223.097C187.214 223.935 188.874 224.34 190.637 224.34V219.84C189.585 219.84 188.685 219.605 187.89 219.163L185.705 223.097Z" fill="white"/>
<g style="mix-blend-mode:soft-light">
<path d="M58 192.134H226" stroke="white"/>
</g>
<mask id="mask0_162_47" style="mask-type:alpha" maskUnits="userSpaceOnUse" x="59" y="126" width="168" height="56">
<path d="M64.768 131.566V141.466H77.8V143.77H64.768V154.462H62.104V129.262H79.384V131.566H64.768ZM98.6373 154.678C95.3733 154.678 92.8293 153.742 91.0053 151.87C89.1813 149.998 88.2693 147.274 88.2693 143.698V129.262H90.9333V143.59C90.9333 146.518 91.5933 148.702 92.9133 150.142C94.2333 151.582 96.1413 152.302 98.6373 152.302C101.157 152.302 103.077 151.582 104.397 150.142C105.717 148.702 106.377 146.518 106.377 143.59V129.262H108.969V143.698C108.969 147.274 108.057 149.998 106.233 151.87C104.433 153.742 101.901 154.678 98.6373 154.678ZM125.001 131.566H116.145V129.262H136.521V131.566H127.665V154.462H125.001V131.566ZM154.036 154.678C150.772 154.678 148.228 153.742 146.404 151.87C144.58 149.998 143.668 147.274 143.668 143.698V129.262H146.332V143.59C146.332 146.518 146.992 148.702 148.312 150.142C149.632 151.582 151.54 152.302 154.036 152.302C156.556 152.302 158.476 151.582 159.796 150.142C161.116 148.702 161.776 146.518 161.776 143.59V129.262H164.368V143.698C164.368 147.274 163.456 149.998 161.632 151.87C159.832 153.742 157.3 154.678 154.036 154.678ZM193.204 154.462L187.444 146.362C186.796 146.434 186.124 146.47 185.428 146.47H178.66V154.462H175.996V129.262H185.428C188.644 129.262 191.164 130.03 192.988 131.566C194.812 133.102 195.724 135.214 195.724 137.902C195.724 139.87 195.22 141.538 194.212 142.906C193.228 144.25 191.812 145.222 189.964 145.822L196.12 154.462H193.204ZM185.356 144.202C187.852 144.202 189.76 143.65 191.08 142.546C192.4 141.442 193.06 139.894 193.06 137.902C193.06 135.862 192.4 134.302 191.08 133.222C189.76 132.118 187.852 131.566 185.356 131.566H178.66V144.202H185.356ZM223.432 152.158V154.462H205.612V129.262H222.892V131.566H208.276V140.53H221.308V142.798H208.276V152.158H223.432Z" fill="white"/>
<path d="M64.768 131.566V128.566C63.1111 128.566 61.768 129.909 61.768 131.566H64.768ZM64.768 141.466H61.768C61.768 143.122 63.1111 144.466 64.768 144.466V141.466ZM77.8 141.466H80.8C80.8 139.809 79.4569 138.466 77.8 138.466V141.466ZM77.8 143.77V146.77C79.4569 146.77 80.8 145.426 80.8 143.77H77.8ZM64.768 143.77V140.77C63.1111 140.77 61.768 142.113 61.768 143.77H64.768ZM64.768 154.462V157.462C66.4249 157.462 67.768 156.118 67.768 154.462H64.768ZM62.104 154.462H59.104C59.104 156.118 60.4471 157.462 62.104 157.462V154.462ZM62.104 129.262V126.262C60.4471 126.262 59.104 127.605 59.104 129.262H62.104ZM79.384 129.262H82.384C82.384 127.605 81.0409 126.262 79.384 126.262V129.262ZM79.384 131.566V134.566C81.0409 134.566 82.384 133.222 82.384 131.566H79.384ZM61.768 131.566V141.466H67.768V131.566H61.768ZM64.768 144.466H77.8V138.466H64.768V144.466ZM74.8 141.466V143.77H80.8V141.466H74.8ZM77.8 140.77H64.768V146.77H77.8V140.77ZM61.768 143.77V154.462H67.768V143.77H61.768ZM64.768 151.462H62.104V157.462H64.768V151.462ZM65.104 154.462V129.262H59.104V154.462H65.104ZM62.104 132.262H79.384V126.262H62.104V132.262ZM76.384 129.262V131.566H82.384V129.262H76.384ZM79.384 128.566H64.768V134.566H79.384V128.566ZM91.0053 151.87L93.1539 149.776L91.0053 151.87ZM88.2693 129.262V126.262C86.6124 126.262 85.2693 127.605 85.2693 129.262H88.2693ZM90.9333 129.262H93.9333C93.9333 127.605 92.5901 126.262 90.9333 126.262V129.262ZM104.397 150.142L106.609 152.169L104.397 150.142ZM106.377 129.262V126.262C104.72 126.262 103.377 127.605 103.377 129.262H106.377ZM108.969 129.262H111.969C111.969 127.605 110.626 126.262 108.969 126.262V129.262ZM106.233 151.87L104.085 149.776C104.08 149.781 104.075 149.786 104.071 149.79L106.233 151.87ZM98.6373 151.678C95.9688 151.678 94.2798 150.932 93.1539 149.776L88.8566 153.963C91.3787 156.552 94.7777 157.678 98.6373 157.678V151.678ZM93.1539 149.776C92.0511 148.644 91.2693 146.785 91.2693 143.698H85.2693C85.2693 147.762 86.3114 151.351 88.8566 153.963L93.1539 149.776ZM91.2693 143.698V129.262H85.2693V143.698H91.2693ZM88.2693 132.262H90.9333V126.262H88.2693V132.262ZM87.9333 129.262V143.59H93.9333V129.262H87.9333ZM87.9333 143.59C87.9333 146.903 88.6724 149.955 90.7018 152.169L95.1247 148.114C94.5141 147.448 93.9333 146.132 93.9333 143.59H87.9333ZM90.7018 152.169C92.7385 154.391 95.5487 155.302 98.6373 155.302V149.302C96.7338 149.302 95.728 148.773 95.1247 148.114L90.7018 152.169ZM98.6373 155.302C101.74 155.302 104.567 154.397 106.609 152.169L102.186 148.114C101.588 148.767 100.575 149.302 98.6373 149.302V155.302ZM106.609 152.169C108.638 149.955 109.377 146.903 109.377 143.59H103.377C103.377 146.132 102.796 147.448 102.186 148.114L106.609 152.169ZM109.377 143.59V129.262H103.377V143.59H109.377ZM106.377 132.262H108.969V126.262H106.377V132.262ZM105.969 129.262V143.698H111.969V129.262H105.969ZM105.969 143.698C105.969 146.785 105.187 148.644 104.085 149.776L108.382 153.963C110.927 151.351 111.969 147.762 111.969 143.698H105.969ZM104.071 149.79C102.974 150.931 101.308 151.678 98.6373 151.678V157.678C102.495 157.678 105.893 156.552 108.396 153.949L104.071 149.79ZM125.001 131.566H128.001C128.001 129.909 126.658 128.566 125.001 128.566V131.566ZM116.145 131.566H113.145C113.145 133.222 114.488 134.566 116.145 134.566V131.566ZM116.145 129.262V126.262C114.488 126.262 113.145 127.605 113.145 129.262H116.145ZM136.521 129.262H139.521C139.521 127.605 138.178 126.262 136.521 126.262V129.262ZM136.521 131.566V134.566C138.178 134.566 139.521 133.222 139.521 131.566H136.521ZM127.665 131.566V128.566C126.008 128.566 124.665 129.909 124.665 131.566H127.665ZM127.665 154.462V157.462C129.322 157.462 130.665 156.118 130.665 154.462H127.665ZM125.001 154.462H122.001C122.001 156.118 123.344 157.462 125.001 157.462V154.462ZM125.001 128.566H116.145V134.566H125.001V128.566ZM119.145 131.566V129.262H113.145V131.566H119.145ZM116.145 132.262H136.521V126.262H116.145V132.262ZM133.521 129.262V131.566H139.521V129.262H133.521ZM136.521 128.566H127.665V134.566H136.521V128.566ZM124.665 131.566V154.462H130.665V131.566H124.665ZM127.665 151.462H125.001V157.462H127.665V151.462ZM128.001 154.462V131.566H122.001V154.462H128.001ZM146.404 151.87L148.553 149.776L146.404 151.87ZM143.668 129.262V126.262C142.012 126.262 140.668 127.605 140.668 129.262H143.668ZM146.332 129.262H149.332C149.332 127.605 147.989 126.262 146.332 126.262V129.262ZM159.796 150.142L162.008 152.169L159.796 150.142ZM161.776 129.262V126.262C160.12 126.262 158.776 127.605 158.776 129.262H161.776ZM164.368 129.262H167.368C167.368 127.605 166.025 126.262 164.368 126.262V129.262ZM161.632 151.87L159.484 149.776C159.479 149.781 159.475 149.786 159.47 149.79L161.632 151.87ZM154.036 151.678C151.368 151.678 149.679 150.932 148.553 149.776L144.256 153.963C146.778 156.552 150.177 157.678 154.036 157.678V151.678ZM148.553 149.776C147.45 148.644 146.668 146.785 146.668 143.698H140.668C140.668 147.762 141.711 151.351 144.256 153.963L148.553 149.776ZM146.668 143.698V129.262H140.668V143.698H146.668ZM143.668 132.262H146.332V126.262H143.668V132.262ZM143.332 129.262V143.59H149.332V129.262H143.332ZM143.332 143.59C143.332 146.903 144.072 149.955 146.101 152.169L150.524 148.114C149.913 147.448 149.332 146.132 149.332 143.59H143.332ZM146.101 152.169C148.138 154.391 150.948 155.302 154.036 155.302V149.302C152.133 149.302 151.127 148.773 150.524 148.114L146.101 152.169ZM154.036 155.302C157.139 155.302 159.966 154.397 162.008 152.169L157.585 148.114C156.987 148.767 155.974 149.302 154.036 149.302V155.302ZM162.008 152.169C164.037 149.955 164.776 146.903 164.776 143.59H158.776C158.776 146.132 158.196 147.448 157.585 148.114L162.008 152.169ZM164.776 143.59V129.262H158.776V143.59H164.776ZM161.776 132.262H164.368V126.262H161.776V132.262ZM161.368 129.262V143.698H167.368V129.262H161.368ZM161.368 143.698C161.368 146.785 160.587 148.644 159.484 149.776L163.781 153.963C166.326 151.351 167.368 147.762 167.368 143.698H161.368ZM159.47 149.79C158.373 150.931 156.707 151.678 154.036 151.678V157.678C157.894 157.678 161.292 156.552 163.795 153.949L159.47 149.79ZM193.204 154.462L190.759 156.2C191.322 156.992 192.233 157.462 193.204 157.462V154.462ZM187.444 146.362L189.889 144.623C189.258 143.736 188.195 143.26 187.113 143.38L187.444 146.362ZM178.66 146.47V143.47C177.003 143.47 175.66 144.813 175.66 146.47H178.66ZM178.66 154.462V157.462C180.317 157.462 181.66 156.118 181.66 154.462H178.66ZM175.996 154.462H172.996C172.996 156.118 174.339 157.462 175.996 157.462V154.462ZM175.996 129.262V126.262C174.339 126.262 172.996 127.605 172.996 129.262H175.996ZM192.988 131.566L191.056 133.86L192.988 131.566ZM194.212 142.906L191.797 141.126L191.792 141.133L194.212 142.906ZM189.964 145.822L189.038 142.968C188.129 143.263 187.415 143.974 187.115 144.881C186.816 145.788 186.966 146.784 187.521 147.562L189.964 145.822ZM196.12 154.462V157.462C197.243 157.462 198.272 156.834 198.787 155.836C199.301 154.838 199.215 153.636 198.563 152.721L196.12 154.462ZM191.08 142.546L193.005 144.847L191.08 142.546ZM191.08 133.222L189.156 135.523C189.164 135.53 189.172 135.537 189.18 135.544L191.08 133.222ZM178.66 131.566V128.566C177.003 128.566 175.66 129.909 175.66 131.566H178.66ZM178.66 144.202H175.66C175.66 145.858 177.003 147.202 178.66 147.202V144.202ZM195.649 152.723L189.889 144.623L184.999 148.1L190.759 156.2L195.649 152.723ZM187.113 143.38C186.582 143.439 186.021 143.47 185.428 143.47V149.47C186.228 149.47 187.01 149.428 187.775 149.343L187.113 143.38ZM185.428 143.47H178.66V149.47H185.428V143.47ZM175.66 146.47V154.462H181.66V146.47H175.66ZM178.66 151.462H175.996V157.462H178.66V151.462ZM178.996 154.462V129.262H172.996V154.462H178.996ZM175.996 132.262H185.428V126.262H175.996V132.262ZM185.428 132.262C188.185 132.262 189.936 132.917 191.056 133.86L194.921 129.271C192.393 127.142 189.104 126.262 185.428 126.262V132.262ZM191.056 133.86C192.112 134.75 192.724 135.972 192.724 137.902H198.724C198.724 134.455 197.513 131.454 194.921 129.271L191.056 133.86ZM192.724 137.902C192.724 139.334 192.367 140.352 191.797 141.126L196.627 144.685C198.073 142.723 198.724 140.405 198.724 137.902H192.724ZM191.792 141.133C191.239 141.888 190.39 142.529 189.038 142.968L190.891 148.675C193.235 147.914 195.217 146.611 196.633 144.678L191.792 141.133ZM187.521 147.562L193.677 156.202L198.563 152.721L192.407 144.081L187.521 147.562ZM196.12 151.462H193.204V157.462H196.12V151.462ZM185.356 147.202C188.246 147.202 190.948 146.567 193.005 144.847L189.156 140.244C188.573 140.732 187.458 141.202 185.356 141.202V147.202ZM193.005 144.847C195.118 143.08 196.06 140.626 196.06 137.902H190.06C190.06 139.161 189.683 139.804 189.156 140.244L193.005 144.847ZM196.06 137.902C196.06 135.157 195.135 132.663 192.98 130.9L189.18 135.544C189.666 135.941 190.06 136.566 190.06 137.902H196.06ZM193.005 130.92C190.948 129.2 188.246 128.566 185.356 128.566V134.566C187.458 134.566 188.573 135.035 189.156 135.523L193.005 130.92ZM185.356 128.566H178.66V134.566H185.356V128.566ZM175.66 131.566V144.202H181.66V131.566H175.66ZM178.66 147.202H185.356V141.202H178.66V147.202ZM223.432 152.158H226.432C226.432 150.501 225.089 149.158 223.432 149.158V152.158ZM223.432 154.462V157.462C225.089 157.462 226.432 156.118 226.432 154.462H223.432ZM205.612 154.462H202.612C202.612 156.118 203.955 157.462 205.612 157.462V154.462ZM205.612 129.262V126.262C203.955 126.262 202.612 127.605 202.612 129.262H205.612ZM222.892 129.262H225.892C225.892 127.605 224.549 126.262 222.892 126.262V129.262ZM222.892 131.566V134.566C224.549 134.566 225.892 133.222 225.892 131.566H222.892ZM208.276 131.566V128.566C206.619 128.566 205.276 129.909 205.276 131.566H208.276ZM208.276 140.53H205.276C205.276 142.186 206.619 143.53 208.276 143.53V140.53ZM221.308 140.53H224.308C224.308 138.873 222.965 137.53 221.308 137.53V140.53ZM221.308 142.798V145.798C222.965 145.798 224.308 144.454 224.308 142.798H221.308ZM208.276 142.798V139.798C206.619 139.798 205.276 141.141 205.276 142.798H208.276ZM208.276 152.158H205.276C205.276 153.814 206.619 155.158 208.276 155.158V152.158ZM220.432 152.158V154.462H226.432V152.158H220.432ZM223.432 151.462H205.612V157.462H223.432V151.462ZM208.612 154.462V129.262H202.612V154.462H208.612ZM205.612 132.262H222.892V126.262H205.612V132.262ZM219.892 129.262V131.566H225.892V129.262H219.892ZM222.892 128.566H208.276V134.566H222.892V128.566ZM205.276 131.566V140.53H211.276V131.566H205.276ZM208.276 143.53H221.308V137.53H208.276V143.53ZM218.308 140.53V142.798H224.308V140.53H218.308ZM221.308 139.798H208.276V145.798H221.308V139.798ZM205.276 142.798V152.158H211.276V142.798H205.276ZM208.276 155.158H223.432V149.158H208.276V155.158Z" fill="white"/>
<path d="M109.28 165.658H104.08V165.278H114.88V165.658H109.68V179.278H109.28V165.658ZM128.937 178.898V179.278H119.617V165.278H128.637V165.658H120.017V171.978H127.737V172.358H120.017V178.898H128.937ZM145.976 165.278V179.278H145.636L135.376 166.018V179.278H134.976V165.278H135.316L145.576 178.538V165.278H145.976ZM156.725 179.338C155.711 179.338 154.758 179.158 153.865 178.798C152.971 178.424 152.285 177.944 151.805 177.358L152.085 177.098C152.538 177.631 153.185 178.078 154.025 178.438C154.865 178.784 155.758 178.958 156.705 178.958C158.158 178.958 159.251 178.671 159.985 178.098C160.731 177.511 161.105 176.758 161.105 175.838C161.105 175.118 160.911 174.544 160.525 174.118C160.138 173.691 159.658 173.371 159.085 173.158C158.525 172.944 157.765 172.724 156.805 172.498C155.778 172.244 154.965 172.004 154.365 171.778C153.765 171.538 153.251 171.178 152.825 170.698C152.411 170.204 152.205 169.551 152.205 168.738C152.205 168.098 152.371 167.511 152.705 166.978C153.038 166.444 153.558 166.018 154.265 165.698C154.971 165.378 155.845 165.218 156.885 165.218C157.631 165.218 158.365 165.338 159.085 165.578C159.805 165.804 160.425 166.111 160.945 166.498L160.725 166.818C160.178 166.418 159.565 166.118 158.885 165.918C158.218 165.704 157.558 165.598 156.905 165.598C155.505 165.598 154.438 165.898 153.705 166.498C152.971 167.084 152.605 167.838 152.605 168.758C152.605 169.478 152.798 170.058 153.185 170.498C153.571 170.924 154.051 171.244 154.625 171.458C155.198 171.671 155.971 171.898 156.945 172.138C157.958 172.391 158.765 172.638 159.365 172.878C159.965 173.104 160.471 173.458 160.885 173.938C161.298 174.404 161.505 175.038 161.505 175.838C161.505 176.478 161.331 177.064 160.985 177.598C160.638 178.131 160.105 178.558 159.385 178.878C158.678 179.184 157.791 179.338 156.725 179.338ZM176.636 178.898V179.278H167.316V165.278H176.336V165.658H167.716V171.978H175.436V172.358H167.716V178.898H176.636Z" fill="white"/>
<path d="M109.28 165.658H111.28C111.28 164.553 110.385 163.658 109.28 163.658V165.658ZM104.08 165.658H102.08C102.08 166.762 102.975 167.658 104.08 167.658V165.658ZM104.08 165.278V163.278C102.975 163.278 102.08 164.173 102.08 165.278H104.08ZM114.88 165.278H116.88C116.88 164.173 115.985 163.278 114.88 163.278V165.278ZM114.88 165.658V167.658C115.985 167.658 116.88 166.762 116.88 165.658H114.88ZM109.68 165.658V163.658C108.575 163.658 107.68 164.553 107.68 165.658H109.68ZM109.68 179.278V181.278C110.785 181.278 111.68 180.382 111.68 179.278H109.68ZM109.28 179.278H107.28C107.28 180.382 108.175 181.278 109.28 181.278V179.278ZM109.28 163.658H104.08V167.658H109.28V163.658ZM106.08 165.658V165.278H102.08V165.658H106.08ZM104.08 167.278H114.88V163.278H104.08V167.278ZM112.88 165.278V165.658H116.88V165.278H112.88ZM114.88 163.658H109.68V167.658H114.88V163.658ZM107.68 165.658V179.278H111.68V165.658H107.68ZM109.68 177.278H109.28V181.278H109.68V177.278ZM111.28 179.278V165.658H107.28V179.278H111.28ZM128.937 178.898H130.937C130.937 177.793 130.042 176.898 128.937 176.898V178.898ZM128.937 179.278V181.278C130.042 181.278 130.937 180.382 130.937 179.278H128.937ZM119.617 179.278H117.617C117.617 180.382 118.512 181.278 119.617 181.278V179.278ZM119.617 165.278V163.278C118.512 163.278 117.617 164.173 117.617 165.278H119.617ZM128.637 165.278H130.637C130.637 164.173 129.742 163.278 128.637 163.278V165.278ZM128.637 165.658V167.658C129.742 167.658 130.637 166.762 130.637 165.658H128.637ZM120.017 165.658V163.658C118.912 163.658 118.017 164.553 118.017 165.658H120.017ZM120.017 171.978H118.017C118.017 173.082 118.912 173.978 120.017 173.978V171.978ZM127.737 171.978H129.737C129.737 170.873 128.842 169.978 127.737 169.978V171.978ZM127.737 172.358V174.358C128.842 174.358 129.737 173.462 129.737 172.358H127.737ZM120.017 172.358V170.358C118.912 170.358 118.017 171.253 118.017 172.358H120.017ZM120.017 178.898H118.017C118.017 180.002 118.912 180.898 120.017 180.898V178.898ZM126.937 178.898V179.278H130.937V178.898H126.937ZM128.937 177.278H119.617V181.278H128.937V177.278ZM121.617 179.278V165.278H117.617V179.278H121.617ZM119.617 167.278H128.637V163.278H119.617V167.278ZM126.637 165.278V165.658H130.637V165.278H126.637ZM128.637 163.658H120.017V167.658H128.637V163.658ZM118.017 165.658V171.978H122.017V165.658H118.017ZM120.017 173.978H127.737V169.978H120.017V173.978ZM125.737 171.978V172.358H129.737V171.978H125.737ZM127.737 170.358H120.017V174.358H127.737V170.358ZM118.017 172.358V178.898H122.017V172.358H118.017ZM120.017 180.898H128.937V176.898H120.017V180.898ZM145.976 165.278H147.976C147.976 164.173 147.081 163.278 145.976 163.278V165.278ZM145.976 179.278V181.278C147.081 181.278 147.976 180.382 147.976 179.278H145.976ZM145.636 179.278L144.055 180.502C144.433 180.991 145.017 181.278 145.636 181.278V179.278ZM135.376 166.018L136.958 164.794C136.435 164.117 135.539 163.849 134.73 164.125C133.92 164.402 133.376 165.162 133.376 166.018H135.376ZM135.376 179.278V181.278C136.481 181.278 137.376 180.382 137.376 179.278H135.376ZM134.976 179.278H132.976C132.976 180.382 133.872 181.278 134.976 181.278V179.278ZM134.976 165.278V163.278C133.872 163.278 132.976 164.173 132.976 165.278H134.976ZM135.316 165.278L136.898 164.054C136.519 163.564 135.935 163.278 135.316 163.278V165.278ZM145.576 178.538L143.995 179.762C144.518 180.438 145.414 180.707 146.223 180.43C147.032 180.154 147.576 179.393 147.576 178.538H145.576ZM145.576 165.278V163.278C144.472 163.278 143.576 164.173 143.576 165.278H145.576ZM143.976 165.278V179.278H147.976V165.278H143.976ZM145.976 177.278H145.636V181.278H145.976V177.278ZM147.218 178.054L136.958 164.794L133.795 167.242L144.055 180.502L147.218 178.054ZM133.376 166.018V179.278H137.376V166.018H133.376ZM135.376 177.278H134.976V181.278H135.376V177.278ZM136.976 179.278V165.278H132.976V179.278H136.976ZM134.976 167.278H135.316V163.278H134.976V167.278ZM133.735 166.502L143.995 179.762L147.158 177.314L136.898 164.054L133.735 166.502ZM147.576 178.538V165.278H143.576V178.538H147.576ZM145.576 167.278H145.976V163.278H145.576V167.278ZM153.865 178.798L153.093 180.643C153.101 180.646 153.109 180.65 153.117 180.653L153.865 178.798ZM151.805 177.358L150.444 175.892C149.67 176.611 149.588 177.807 150.257 178.624L151.805 177.358ZM152.085 177.098L153.608 175.802C153.255 175.387 152.747 175.133 152.202 175.101C151.658 175.069 151.123 175.261 150.724 175.632L152.085 177.098ZM154.025 178.438L153.237 180.276C153.245 180.28 153.253 180.283 153.262 180.286L154.025 178.438ZM159.985 178.098L161.216 179.673L161.22 179.67L159.985 178.098ZM160.525 174.118L159.043 175.461L160.525 174.118ZM159.085 173.158L158.373 175.027C158.377 175.029 158.382 175.03 158.387 175.032L159.085 173.158ZM156.805 172.498L156.325 174.439C156.332 174.441 156.338 174.443 156.345 174.444L156.805 172.498ZM154.365 171.778L153.622 173.635C153.634 173.639 153.646 173.644 153.658 173.649L154.365 171.778ZM152.825 170.698L151.291 171.982C151.304 171.997 151.317 172.012 151.33 172.026L152.825 170.698ZM152.705 166.978L154.401 168.038L152.705 166.978ZM159.085 165.578L158.452 167.475C158.463 167.479 158.473 167.482 158.484 167.485L159.085 165.578ZM160.945 166.498L162.593 167.631C163.202 166.744 163.001 165.535 162.138 164.893L160.945 166.498ZM160.725 166.818L159.544 168.432C159.98 168.751 160.527 168.88 161.06 168.789C161.593 168.699 162.066 168.396 162.373 167.951L160.725 166.818ZM158.885 165.918L158.275 167.823C158.29 167.827 158.305 167.832 158.32 167.836L158.885 165.918ZM153.705 166.498L154.954 168.059C154.96 168.055 154.965 168.05 154.971 168.046L153.705 166.498ZM153.185 170.498L151.682 171.818C151.689 171.826 151.696 171.833 151.703 171.841L153.185 170.498ZM154.625 171.458L155.322 169.583L154.625 171.458ZM156.945 172.138L157.43 170.197L157.423 170.196L156.945 172.138ZM159.365 172.878L158.622 174.735C158.634 174.739 158.646 174.744 158.658 174.749L159.365 172.878ZM160.885 173.938L159.369 175.243C159.375 175.25 159.381 175.257 159.387 175.264L160.885 173.938ZM160.985 177.598L159.308 176.508L160.985 177.598ZM159.385 178.878L160.181 180.712C160.186 180.71 160.191 180.708 160.197 180.705L159.385 178.878ZM156.725 177.338C155.954 177.338 155.256 177.202 154.612 176.943L153.117 180.653C154.26 181.113 155.469 181.338 156.725 181.338V177.338ZM154.636 176.952C153.963 176.671 153.575 176.364 153.352 176.091L150.257 178.624C150.994 179.525 151.979 180.177 153.093 180.643L154.636 176.952ZM153.165 178.823L153.445 178.563L150.724 175.632L150.444 175.892L153.165 178.823ZM150.561 178.393C151.266 179.222 152.196 179.83 153.237 180.276L154.812 176.599C154.173 176.325 153.81 176.04 153.608 175.802L150.561 178.393ZM153.262 180.286C154.354 180.737 155.507 180.958 156.705 180.958V176.958C156.009 176.958 155.375 176.832 154.788 176.589L153.262 180.286ZM156.705 180.958C158.369 180.958 159.982 180.638 161.216 179.673L158.753 176.522C158.52 176.704 157.947 176.958 156.705 176.958V180.958ZM161.22 179.67C162.431 178.719 163.105 177.394 163.105 175.838H159.105C159.105 176.121 159.031 176.303 158.749 176.525L161.22 179.67ZM163.105 175.838C163.105 174.751 162.804 173.655 162.007 172.775L159.043 175.461C159.044 175.463 159.046 175.465 159.048 175.469C159.051 175.473 159.057 175.484 159.064 175.507C159.08 175.553 159.105 175.655 159.105 175.838H163.105ZM162.007 172.775C161.391 172.096 160.636 171.601 159.782 171.283L158.387 175.032C158.679 175.141 158.884 175.286 159.043 175.461L162.007 172.775ZM159.797 171.289C159.119 171.031 158.263 170.787 157.264 170.551L156.345 174.444C157.266 174.662 157.93 174.858 158.373 175.027L159.797 171.289ZM157.284 170.556C156.292 170.311 155.565 170.093 155.071 169.907L153.658 173.649C154.364 173.916 155.264 174.178 156.325 174.439L157.284 170.556ZM155.107 169.921C154.794 169.795 154.538 169.615 154.319 169.369L151.33 172.026C151.964 172.74 152.735 173.28 153.622 173.635L155.107 169.921ZM154.358 169.413C154.319 169.367 154.205 169.208 154.205 168.738H150.205C150.205 169.894 150.504 171.042 151.291 171.982L154.358 169.413ZM154.205 168.738C154.205 168.466 154.27 168.247 154.401 168.038L151.009 165.918C150.473 166.775 150.205 167.73 150.205 168.738H154.205ZM154.401 168.038C154.481 167.909 154.658 167.715 155.09 167.52L153.44 163.876C152.458 164.32 151.595 164.979 151.009 165.918L154.401 168.038ZM155.09 167.52C155.465 167.35 156.037 167.218 156.885 167.218V163.218C155.652 163.218 154.478 163.406 153.44 163.876L155.09 167.52ZM156.885 167.218C157.413 167.218 157.933 167.302 158.452 167.475L159.717 163.68C158.796 163.373 157.85 163.218 156.885 163.218V167.218ZM158.484 167.485C159.025 167.656 159.437 167.869 159.751 168.103L162.138 164.893C161.412 164.353 160.584 163.953 159.685 163.67L158.484 167.485ZM159.296 165.365L159.076 165.685L162.373 167.951L162.593 167.631L159.296 165.365ZM161.906 165.204C161.164 164.661 160.34 164.261 159.449 163.999L158.32 167.836C158.789 167.974 159.192 168.174 159.544 168.432L161.906 165.204ZM159.494 164.013C158.644 163.741 157.779 163.598 156.905 163.598V167.598C157.337 167.598 157.791 167.668 158.275 167.823L159.494 164.013ZM156.905 163.598C155.256 163.598 153.665 163.946 152.438 164.95L154.971 168.046C155.211 167.849 155.753 167.598 156.905 167.598V163.598ZM152.455 164.936C151.259 165.893 150.605 167.216 150.605 168.758H154.605C154.605 168.46 154.684 168.276 154.954 168.059L152.455 164.936ZM150.605 168.758C150.605 169.848 150.906 170.934 151.682 171.818L154.687 169.177C154.677 169.167 154.663 169.148 154.647 169.1C154.629 169.047 154.605 168.94 154.605 168.758H150.605ZM151.703 171.841C152.318 172.52 153.073 173.014 153.927 173.332L155.322 169.583C155.03 169.474 154.825 169.329 154.667 169.155L151.703 171.841ZM153.927 173.332C154.602 173.583 155.459 173.831 156.466 174.08L157.423 170.196C156.484 169.964 155.793 169.759 155.322 169.583L153.927 173.332ZM156.459 174.078C157.431 174.321 158.141 174.542 158.622 174.735L160.107 171.021C159.388 170.733 158.484 170.461 157.43 170.197L156.459 174.078ZM158.658 174.749C158.949 174.859 159.177 175.019 159.369 175.243L162.4 172.633C161.766 171.896 160.98 171.35 160.071 171.007L158.658 174.749ZM159.387 175.264C159.393 175.271 159.505 175.384 159.505 175.838H163.505C163.505 174.691 163.202 173.538 162.382 172.612L159.387 175.264ZM159.505 175.838C159.505 176.093 159.442 176.301 159.308 176.508L162.661 178.688C163.22 177.828 163.505 176.862 163.505 175.838H159.505ZM159.308 176.508C159.217 176.647 159.023 176.85 158.572 177.05L160.197 180.705C161.186 180.266 162.059 179.615 162.661 178.688L159.308 176.508ZM158.588 177.043C158.21 177.207 157.616 177.338 156.725 177.338V181.338C157.967 181.338 159.146 181.161 160.181 180.712L158.588 177.043ZM176.636 178.898H178.636C178.636 177.793 177.741 176.898 176.636 176.898V178.898ZM176.636 179.278V181.278C177.741 181.278 178.636 180.382 178.636 179.278H176.636ZM167.316 179.278H165.316C165.316 180.382 166.212 181.278 167.316 181.278V179.278ZM167.316 165.278V163.278C166.212 163.278 165.316 164.173 165.316 165.278H167.316ZM176.336 165.278H178.336C178.336 164.173 177.441 163.278 176.336 163.278V165.278ZM176.336 165.658V167.658C177.441 167.658 178.336 166.762 178.336 165.658H176.336ZM167.716 165.658V163.658C166.612 163.658 165.716 164.553 165.716 165.658H167.716ZM167.716 171.978H165.716C165.716 173.082 166.612 173.978 167.716 173.978V171.978ZM175.436 171.978H177.436C177.436 170.873 176.541 169.978 175.436 169.978V171.978ZM175.436 172.358V174.358C176.541 174.358 177.436 173.462 177.436 172.358H175.436ZM167.716 172.358V170.358C166.612 170.358 165.716 171.253 165.716 172.358H167.716ZM167.716 178.898H165.716C165.716 180.002 166.612 180.898 167.716 180.898V178.898ZM174.636 178.898V179.278H178.636V178.898H174.636ZM176.636 177.278H167.316V181.278H176.636V177.278ZM169.316 179.278V165.278H165.316V179.278H169.316ZM167.316 167.278H176.336V163.278H167.316V167.278ZM174.336 165.278V165.658H178.336V165.278H174.336ZM176.336 163.658H167.716V167.658H176.336V163.658ZM165.716 165.658V171.978H169.716V165.658H165.716ZM167.716 173.978H175.436V169.978H167.716V173.978ZM173.436 171.978V172.358H177.436V171.978H173.436ZM175.436 170.358H167.716V174.358H175.436V170.358ZM165.716 172.358V178.898H169.716V172.358H165.716ZM167.716 180.898H176.636V176.898H167.716V180.898Z" fill="white"/>
</mask>
<g mask="url(#mask0_162_47)">
<path d="M0 144.389L9.46667 145.649C18.9333 146.948 37.8667 149.468 56.8 146.871C75.7333 144.275 94.6667 136.486 113.6 137.02C132.533 137.517 151.467 146.299 170.4 146.871C189.333 147.444 208.267 139.808 227.2 135.875C246.133 131.904 265.067 131.675 274.533 131.522L284 131.408V321.551H274.533C265.067 321.551 246.133 321.551 227.2 321.551C208.267 321.551 189.333 321.551 170.4 321.551C151.467 321.551 132.533 321.551 113.6 321.551C94.6667 321.551 75.7333 321.551 56.8 321.551C37.8667 321.551 18.9333 321.551 9.46667 321.551H0V144.389Z" fill="white"/>
</g>
</g>
<defs>
<clipPath id="clip0_162_47">
<rect width="284" height="322" fill="white"/>
</clipPath>
</defs>
</svg>
