<svg width="284" height="322" viewBox="0 0 284 322" fill="none" xmlns="http://www.w3.org/2000/svg">
<g clip-path="url(#clip0_44_850)">
<path d="M284 0H0V321.003H284V0Z" fill="#001220"/>
<path d="M38.536 129.398C41.752 129.398 44.272 130.164 46.096 131.695C47.92 133.226 48.832 135.332 48.832 138.011C48.832 140.691 47.92 142.797 46.096 144.328C44.272 145.835 41.752 146.589 38.536 146.589H31.768V154.52H29.104V129.398H38.536ZM38.464 144.256C40.96 144.256 42.868 143.718 44.188 142.641C45.508 141.54 46.168 139.997 46.168 138.011C46.168 135.978 45.508 134.423 44.188 133.346C42.868 132.245 40.96 131.695 38.464 131.695H31.768V144.256H38.464ZM75.4003 154.52L69.6403 146.445C68.9923 146.517 68.3203 146.553 67.6243 146.553H60.8563V154.52H58.1923V129.398H67.6243C70.8403 129.398 73.3603 130.164 75.1843 131.695C77.0083 133.226 77.9203 135.332 77.9203 138.011C77.9203 139.973 77.4163 141.636 76.4083 143C75.4243 144.34 74.0083 145.309 72.1603 145.907L78.3163 154.52H75.4003ZM67.5523 144.292C70.0483 144.292 71.9563 143.742 73.2763 142.641C74.5963 141.54 75.2563 139.997 75.2563 138.011C75.2563 135.978 74.5963 134.423 73.2763 133.346C71.9563 132.245 70.0483 131.695 67.5523 131.695H60.8563V144.292H67.5523ZM105.628 152.223V154.52H87.8079V129.398H105.088V131.695H90.4719V140.631H103.504V142.892H90.4719V152.223H105.628ZM122.186 131.695H113.33V129.398H133.706V131.695H124.85V154.52H122.186V131.695ZM159.382 152.223V154.52H141.562V129.398H158.842V131.695H144.226V140.631H157.258V142.892H144.226V152.223H159.382ZM186.452 154.52L180.692 146.445C180.044 146.517 179.372 146.553 178.676 146.553H171.908V154.52H169.244V129.398H178.676C181.892 129.398 184.412 130.164 186.236 131.695C188.06 133.226 188.972 135.332 188.972 138.011C188.972 139.973 188.468 141.636 187.46 143C186.476 144.34 185.06 145.309 183.212 145.907L189.368 154.52H186.452ZM178.604 144.292C181.1 144.292 183.008 143.742 184.328 142.641C185.648 141.54 186.308 139.997 186.308 138.011C186.308 135.978 185.648 134.423 184.328 133.346C183.008 132.245 181.1 131.695 178.604 131.695H171.908V144.292H178.604ZM198.859 129.398H201.523V154.52H198.859V129.398ZM218.219 131.695H209.363V129.398H229.739V131.695H220.883V154.52H218.219V131.695ZM255.415 152.223V154.52H237.595V129.398H254.875V131.695H240.259V140.631H253.291V142.892H240.259V152.223H255.415Z" fill="#FA9766"/>
<path d="M46.096 131.695L44.1636 133.983L46.096 131.695ZM46.096 144.328L48.0106 146.631C48.0165 146.626 48.0225 146.621 48.0284 146.616L46.096 144.328ZM31.768 146.589V143.598C30.1111 143.598 28.768 144.937 28.768 146.589H31.768ZM31.768 154.52V157.511C33.4249 157.511 34.768 156.172 34.768 154.52H31.768ZM29.104 154.52H26.104C26.104 156.172 27.4471 157.511 29.104 157.511V154.52ZM29.104 129.398V126.407C27.4471 126.407 26.104 127.746 26.104 129.398H29.104ZM44.188 142.641L46.0877 144.956C46.0961 144.949 46.1044 144.942 46.1127 144.935L44.188 142.641ZM44.188 133.346L42.2633 135.64C42.2716 135.647 42.2799 135.654 42.2883 135.661L44.188 133.346ZM31.768 131.695V128.704C30.1111 128.704 28.768 130.043 28.768 131.695H31.768ZM31.768 144.256H28.768C28.768 145.908 30.1111 147.247 31.768 147.247V144.256ZM38.536 132.389C41.2923 132.389 43.0436 133.043 44.1636 133.983L48.0284 129.407C45.5004 127.285 42.2117 126.407 38.536 126.407V132.389ZM44.1636 133.983C45.2196 134.869 45.832 136.088 45.832 138.011H51.832C51.832 134.575 50.6204 131.583 48.0284 129.407L44.1636 133.983ZM45.832 138.011C45.832 139.934 45.2196 141.154 44.1636 142.04L48.0284 146.616C50.6204 144.439 51.832 141.448 51.832 138.011H45.832ZM44.1814 142.025C43.0608 142.951 41.3026 143.598 38.536 143.598V149.579C42.2014 149.579 45.4832 148.719 48.0106 146.631L44.1814 142.025ZM38.536 143.598H31.768V149.579H38.536V143.598ZM28.768 146.589V154.52H34.768V146.589H28.768ZM31.768 151.529H29.104V157.511H31.768V151.529ZM32.104 154.52V129.398H26.104V154.52H32.104ZM29.104 132.389H38.536V126.407H29.104V132.389ZM38.464 147.247C41.3412 147.247 44.0322 146.633 46.0877 144.956L42.2883 140.326C41.7038 140.803 40.5788 141.265 38.464 141.265V147.247ZM46.1127 144.935C48.2255 143.173 49.168 140.727 49.168 138.011H43.168C43.168 139.268 42.7905 139.908 42.2633 140.347L46.1127 144.935ZM49.168 138.011C49.168 135.276 48.2425 132.789 46.0877 131.031L42.2883 135.661C42.7735 136.056 43.168 136.68 43.168 138.011H49.168ZM46.1127 131.052C44.0555 129.336 41.3542 128.704 38.464 128.704V134.686C40.5658 134.686 41.6805 135.154 42.2633 135.64L46.1127 131.052ZM38.464 128.704H31.768V134.686H38.464V128.704ZM28.768 131.695V144.256H34.768V131.695H28.768ZM31.768 147.247H38.464V141.265H31.768V147.247ZM75.4003 154.52L72.9554 156.254C73.5182 157.042 74.4292 157.511 75.4003 157.511V154.52ZM69.6403 146.445L72.0851 144.712C71.454 143.827 70.3914 143.353 69.309 143.472L69.6403 146.445ZM60.8563 146.553V143.562C59.1994 143.562 57.8563 144.901 57.8563 146.553H60.8563ZM60.8563 154.52V157.511C62.5131 157.511 63.8563 156.172 63.8563 154.52H60.8563ZM58.1923 154.52H55.1923C55.1923 156.172 56.5354 157.511 58.1923 157.511V154.52ZM58.1923 129.398V126.407C56.5354 126.407 55.1923 127.746 55.1923 129.398H58.1923ZM75.1843 131.695L73.2519 133.983L75.1843 131.695ZM76.4083 143L73.9931 141.225L73.9877 141.233L76.4083 143ZM72.1603 145.907L71.2339 143.063C70.325 143.357 69.6111 144.065 69.3115 144.969C69.012 145.874 69.1625 146.867 69.717 147.642L72.1603 145.907ZM78.3163 154.52V157.511C79.4394 157.511 80.4685 156.886 80.983 155.89C81.4975 154.895 81.4113 153.697 80.7595 152.785L78.3163 154.52ZM73.2763 142.641L75.2009 144.935L73.2763 142.641ZM73.2763 133.346L71.3516 135.64C71.3599 135.647 71.3682 135.654 71.3766 135.661L73.2763 133.346ZM60.8563 131.695V128.704C59.1994 128.704 57.8563 130.043 57.8563 131.695H60.8563ZM60.8563 144.292H57.8563C57.8563 145.944 59.1994 147.283 60.8563 147.283V144.292ZM77.8451 152.787L72.0851 144.712L67.1954 148.179L72.9554 156.254L77.8451 152.787ZM69.309 143.472C68.7781 143.531 68.217 143.562 67.6243 143.562V149.544C68.4236 149.544 69.2065 149.503 69.9716 149.418L69.309 143.472ZM67.6243 143.562H60.8563V149.544H67.6243V143.562ZM57.8563 146.553V154.52H63.8563V146.553H57.8563ZM60.8563 151.529H58.1923V157.511H60.8563V151.529ZM61.1923 154.52V129.398H55.1923V154.52H61.1923ZM58.1923 132.389H67.6243V126.407H58.1923V132.389ZM67.6243 132.389C70.3806 132.389 72.1319 133.043 73.2519 133.983L77.1167 129.407C74.5887 127.285 71.3 126.407 67.6243 126.407V132.389ZM73.2519 133.983C74.3079 134.869 74.9203 136.088 74.9203 138.011H80.9203C80.9203 134.575 79.7086 131.583 77.1167 129.407L73.2519 133.983ZM74.9203 138.011C74.9203 139.44 74.5633 140.455 73.9931 141.225L78.8234 144.774C80.2693 142.817 80.9203 140.507 80.9203 138.011H74.9203ZM73.9877 141.233C73.4351 141.986 72.5856 142.625 71.2339 143.063L73.0867 148.751C75.4309 147.992 77.4135 146.693 78.8289 144.766L73.9877 141.233ZM69.717 147.642L75.873 156.256L80.7595 152.785L74.6035 144.171L69.717 147.642ZM78.3163 151.529H75.4003V157.511H78.3163V151.529ZM67.5523 147.283C70.4425 147.283 73.1438 146.651 75.2009 144.935L71.3516 140.347C70.7688 140.833 69.654 141.301 67.5523 141.301V147.283ZM75.2009 144.935C77.3138 143.173 78.2563 140.727 78.2563 138.011H72.2563C72.2563 139.268 71.8788 139.908 71.3516 140.347L75.2009 144.935ZM78.2563 138.011C78.2563 135.276 77.3308 132.789 75.176 131.031L71.3766 135.661C71.8618 136.056 72.2563 136.68 72.2563 138.011H78.2563ZM75.2009 131.052C73.1438 129.336 70.4425 128.704 67.5523 128.704V134.686C69.654 134.686 70.7688 135.154 71.3516 135.64L75.2009 131.052ZM67.5523 128.704H60.8563V134.686H67.5523V128.704ZM57.8563 131.695V144.292H63.8563V131.695H57.8563ZM60.8563 147.283H67.5523V141.301H60.8563V147.283ZM105.628 152.223H108.628C108.628 150.571 107.285 149.233 105.628 149.233V152.223ZM105.628 154.52V157.511C107.285 157.511 108.628 156.172 108.628 154.52H105.628ZM87.8079 154.52H84.8079C84.8079 156.172 86.1511 157.511 87.8079 157.511V154.52ZM87.8079 129.398V126.407C86.1511 126.407 84.8079 127.746 84.8079 129.398H87.8079ZM105.088 129.398H108.088C108.088 127.746 106.745 126.407 105.088 126.407V129.398ZM105.088 131.695V134.686C106.745 134.686 108.088 133.347 108.088 131.695H105.088ZM90.4719 131.695V128.704C88.8151 128.704 87.4719 130.043 87.4719 131.695H90.4719ZM90.4719 140.631H87.4719C87.4719 142.283 88.8151 143.622 90.4719 143.622V140.631ZM103.504 140.631H106.504C106.504 138.979 105.161 137.641 103.504 137.641V140.631ZM103.504 142.892V145.883C105.161 145.883 106.504 144.544 106.504 142.892H103.504ZM90.4719 142.892V139.902C88.8151 139.902 87.4719 141.24 87.4719 142.892H90.4719ZM90.4719 152.223H87.4719C87.4719 153.875 88.8151 155.214 90.4719 155.214V152.223ZM102.628 152.223V154.52H108.628V152.223H102.628ZM105.628 151.529H87.8079V157.511H105.628V151.529ZM90.8079 154.52V129.398H84.8079V154.52H90.8079ZM87.8079 132.389H105.088V126.407H87.8079V132.389ZM102.088 129.398V131.695H108.088V129.398H102.088ZM105.088 128.704H90.4719V134.686H105.088V128.704ZM87.4719 131.695V140.631H93.4719V131.695H87.4719ZM90.4719 143.622H103.504V137.641H90.4719V143.622ZM100.504 140.631V142.892H106.504V140.631H100.504ZM103.504 139.902H90.4719V145.883H103.504V139.902ZM87.4719 142.892V152.223H93.4719V142.892H87.4719ZM90.4719 155.214H105.628V149.233H90.4719V155.214ZM122.186 131.695H125.186C125.186 130.043 123.843 128.704 122.186 128.704V131.695ZM113.33 131.695H110.33C110.33 133.347 111.673 134.686 113.33 134.686V131.695ZM113.33 129.398V126.407C111.673 126.407 110.33 127.746 110.33 129.398H113.33ZM133.706 129.398H136.706C136.706 127.746 135.363 126.407 133.706 126.407V129.398ZM133.706 131.695V134.686C135.363 134.686 136.706 133.347 136.706 131.695H133.706ZM124.85 131.695V128.704C123.193 128.704 121.85 130.043 121.85 131.695H124.85ZM124.85 154.52V157.511C126.507 157.511 127.85 156.172 127.85 154.52H124.85ZM122.186 154.52H119.186C119.186 156.172 120.529 157.511 122.186 157.511V154.52ZM122.186 128.704H113.33V134.686H122.186V128.704ZM116.33 131.695V129.398H110.33V131.695H116.33ZM113.33 132.389H133.706V126.407H113.33V132.389ZM130.706 129.398V131.695H136.706V129.398H130.706ZM133.706 128.704H124.85V134.686H133.706V128.704ZM121.85 131.695V154.52H127.85V131.695H121.85ZM124.85 151.529H122.186V157.511H124.85V151.529ZM125.186 154.52V131.695H119.186V154.52H125.186ZM159.382 152.223H162.382C162.382 150.571 161.039 149.233 159.382 149.233V152.223ZM159.382 154.52V157.511C161.039 157.511 162.382 156.172 162.382 154.52H159.382ZM141.562 154.52H138.562C138.562 156.172 139.905 157.511 141.562 157.511V154.52ZM141.562 129.398V126.407C139.905 126.407 138.562 127.746 138.562 129.398H141.562ZM158.842 129.398H161.842C161.842 127.746 160.499 126.407 158.842 126.407V129.398ZM158.842 131.695V134.686C160.499 134.686 161.842 133.347 161.842 131.695H158.842ZM144.226 131.695V128.704C142.569 128.704 141.226 130.043 141.226 131.695H144.226ZM144.226 140.631H141.226C141.226 142.283 142.569 143.622 144.226 143.622V140.631ZM157.258 140.631H160.258C160.258 138.979 158.915 137.641 157.258 137.641V140.631ZM157.258 142.892V145.883C158.915 145.883 160.258 144.544 160.258 142.892H157.258ZM144.226 142.892V139.902C142.569 139.902 141.226 141.24 141.226 142.892H144.226ZM144.226 152.223H141.226C141.226 153.875 142.569 155.214 144.226 155.214V152.223ZM156.382 152.223V154.52H162.382V152.223H156.382ZM159.382 151.529H141.562V157.511H159.382V151.529ZM144.562 154.52V129.398H138.562V154.52H144.562ZM141.562 132.389H158.842V126.407H141.562V132.389ZM155.842 129.398V131.695H161.842V129.398H155.842ZM158.842 128.704H144.226V134.686H158.842V128.704ZM141.226 131.695V140.631H147.226V131.695H141.226ZM144.226 143.622H157.258V137.641H144.226V143.622ZM154.258 140.631V142.892H160.258V140.631H154.258ZM157.258 139.902H144.226V145.883H157.258V139.902ZM141.226 142.892V152.223H147.226V142.892H141.226ZM144.226 155.214H159.382V149.233H144.226V155.214ZM186.452 154.52L184.007 156.254C184.57 157.042 185.481 157.511 186.452 157.511V154.52ZM180.692 146.445L183.137 144.712C182.506 143.827 181.443 143.353 180.361 143.472L180.692 146.445ZM171.908 146.553V143.562C170.251 143.562 168.908 144.901 168.908 146.553H171.908ZM171.908 154.52V157.511C173.565 157.511 174.908 156.172 174.908 154.52H171.908ZM169.244 154.52H166.244C166.244 156.172 167.587 157.511 169.244 157.511V154.52ZM169.244 129.398V126.407C167.587 126.407 166.244 127.746 166.244 129.398H169.244ZM186.236 131.695L184.303 133.983L186.236 131.695ZM187.46 143L185.045 141.225L185.039 141.233L187.46 143ZM183.212 145.907L182.285 143.063C181.377 143.357 180.663 144.065 180.363 144.969C180.064 145.874 180.214 146.867 180.769 147.642L183.212 145.907ZM189.368 154.52V157.511C190.491 157.511 191.52 156.886 192.035 155.89C192.549 154.895 192.463 153.697 191.811 152.785L189.368 154.52ZM184.328 142.641L186.253 144.935L184.328 142.641ZM184.328 133.346L182.403 135.64C182.411 135.647 182.42 135.654 182.428 135.661L184.328 133.346ZM171.908 131.695V128.704C170.251 128.704 168.908 130.043 168.908 131.695H171.908ZM171.908 144.292H168.908C168.908 145.944 170.251 147.283 171.908 147.283V144.292ZM188.897 152.787L183.137 144.712L178.247 148.179L184.007 156.254L188.897 152.787ZM180.361 143.472C179.83 143.531 179.269 143.562 178.676 143.562V149.544C179.475 149.544 180.258 149.503 181.023 149.418L180.361 143.472ZM178.676 143.562H171.908V149.544H178.676V143.562ZM168.908 146.553V154.52H174.908V146.553H168.908ZM171.908 151.529H169.244V157.511H171.908V151.529ZM172.244 154.52V129.398H166.244V154.52H172.244ZM169.244 132.389H178.676V126.407H169.244V132.389ZM178.676 132.389C181.432 132.389 183.183 133.043 184.303 133.983L188.168 129.407C185.64 127.285 182.352 126.407 178.676 126.407V132.389ZM184.303 133.983C185.359 134.869 185.972 136.088 185.972 138.011H191.972C191.972 134.575 190.76 131.583 188.168 129.407L184.303 133.983ZM185.972 138.011C185.972 139.44 185.615 140.455 185.045 141.225L189.875 144.774C191.321 142.817 191.972 140.507 191.972 138.011H185.972ZM185.039 141.233C184.487 141.986 183.637 142.625 182.285 143.063L184.138 148.751C186.482 147.992 188.465 146.693 189.88 144.766L185.039 141.233ZM180.769 147.642L186.925 156.256L191.811 152.785L185.655 144.171L180.769 147.642ZM189.368 151.529H186.452V157.511H189.368V151.529ZM178.604 147.283C181.494 147.283 184.195 146.651 186.253 144.935L182.403 140.347C181.82 140.833 180.706 141.301 178.604 141.301V147.283ZM186.253 144.935C188.365 143.173 189.308 140.727 189.308 138.011H183.308C183.308 139.268 182.93 139.908 182.403 140.347L186.253 144.935ZM189.308 138.011C189.308 135.276 188.382 132.789 186.228 131.031L182.428 135.661C182.913 136.056 183.308 136.68 183.308 138.011H189.308ZM186.253 131.052C184.195 129.336 181.494 128.704 178.604 128.704V134.686C180.706 134.686 181.82 135.154 182.403 135.64L186.253 131.052ZM178.604 128.704H171.908V134.686H178.604V128.704ZM168.908 131.695V144.292H174.908V131.695H168.908ZM171.908 147.283H178.604V141.301H171.908V147.283ZM198.859 129.398V126.407C197.203 126.407 195.859 127.746 195.859 129.398H198.859ZM201.523 129.398H204.523C204.523 127.746 203.18 126.407 201.523 126.407V129.398ZM201.523 154.52V157.511C203.18 157.511 204.523 156.172 204.523 154.52H201.523ZM198.859 154.52H195.859C195.859 156.172 197.203 157.511 198.859 157.511V154.52ZM198.859 132.389H201.523V126.407H198.859V132.389ZM198.523 129.398V154.52H204.523V129.398H198.523ZM201.523 151.529H198.859V157.511H201.523V151.529ZM201.859 154.52V129.398H195.859V154.52H201.859ZM218.219 131.695H221.219C221.219 130.043 219.876 128.704 218.219 128.704V131.695ZM209.363 131.695H206.363C206.363 133.347 207.706 134.686 209.363 134.686V131.695ZM209.363 129.398V126.407C207.706 126.407 206.363 127.746 206.363 129.398H209.363ZM229.739 129.398H232.739C232.739 127.746 231.396 126.407 229.739 126.407V129.398ZM229.739 131.695V134.686C231.396 134.686 232.739 133.347 232.739 131.695H229.739ZM220.883 131.695V128.704C219.226 128.704 217.883 130.043 217.883 131.695H220.883ZM220.883 154.52V157.511C222.54 157.511 223.883 156.172 223.883 154.52H220.883ZM218.219 154.52H215.219C215.219 156.172 216.562 157.511 218.219 157.511V154.52ZM218.219 128.704H209.363V134.686H218.219V128.704ZM212.363 131.695V129.398H206.363V131.695H212.363ZM209.363 132.389H229.739V126.407H209.363V132.389ZM226.739 129.398V131.695H232.739V129.398H226.739ZM229.739 128.704H220.883V134.686H229.739V128.704ZM217.883 131.695V154.52H223.883V131.695H217.883ZM220.883 151.529H218.219V157.511H220.883V151.529ZM221.219 154.52V131.695H215.219V154.52H221.219ZM255.415 152.223H258.415C258.415 150.571 257.071 149.233 255.415 149.233V152.223ZM255.415 154.52V157.511C257.071 157.511 258.415 156.172 258.415 154.52H255.415ZM237.595 154.52H234.595C234.595 156.172 235.938 157.511 237.595 157.511V154.52ZM237.595 129.398V126.407C235.938 126.407 234.595 127.746 234.595 129.398H237.595ZM254.875 129.398H257.875C257.875 127.746 256.531 126.407 254.875 126.407V129.398ZM254.875 131.695V134.686C256.531 134.686 257.875 133.347 257.875 131.695H254.875ZM240.259 131.695V128.704C238.602 128.704 237.259 130.043 237.259 131.695H240.259ZM240.259 140.631H237.259C237.259 142.283 238.602 143.622 240.259 143.622V140.631ZM253.291 140.631H256.291C256.291 138.979 254.947 137.641 253.291 137.641V140.631ZM253.291 142.892V145.883C254.947 145.883 256.291 144.544 256.291 142.892H253.291ZM240.259 142.892V139.902C238.602 139.902 237.259 141.24 237.259 142.892H240.259ZM240.259 152.223H237.259C237.259 153.875 238.602 155.214 240.259 155.214V152.223ZM252.415 152.223V154.52H258.415V152.223H252.415ZM255.415 151.529H237.595V157.511H255.415V151.529ZM240.595 154.52V129.398H234.595V154.52H240.595ZM237.595 132.389H254.875V126.407H237.595V132.389ZM251.875 129.398V131.695H257.875V129.398H251.875ZM254.875 128.704H240.259V134.686H254.875V128.704ZM237.259 131.695V140.631H243.259V131.695H237.259ZM240.259 143.622H253.291V137.641H240.259V143.622ZM250.291 140.631V142.892H256.291V140.631H250.291ZM253.291 139.902H240.259V145.883H253.291V139.902ZM237.259 142.892V152.223H243.259V142.892H237.259ZM240.259 155.214H255.415V149.233H240.259V155.214Z" fill="#FA9766"/>
<path d="M30.2801 104.057H25.0801V103.678H35.8801V104.057H30.6801V117.635H30.2801V104.057ZM51.6171 103.678V117.635H51.2171V110.736H41.0171V117.635H40.6171V103.678H41.0171V110.357H51.2171V103.678H51.6171ZM68.2653 117.256V117.635H58.9453V103.678H67.9653V104.057H59.3453V110.357H67.0653V110.736H59.3453V117.256H68.2653Z" fill="#FA9766"/>
<path d="M30.2801 104.057H32.2801C32.2801 102.955 31.3847 102.063 30.2801 102.063V104.057ZM25.0801 104.057H23.0801C23.0801 105.158 23.9755 106.051 25.0801 106.051V104.057ZM25.0801 103.678V101.684C23.9755 101.684 23.0801 102.576 23.0801 103.678H25.0801ZM35.8801 103.678H37.8801C37.8801 102.576 36.9847 101.684 35.8801 101.684V103.678ZM35.8801 104.057V106.051C36.9847 106.051 37.8801 105.158 37.8801 104.057H35.8801ZM30.6801 104.057V102.063C29.5755 102.063 28.6801 102.955 28.6801 104.057H30.6801ZM30.6801 117.635V119.628C31.7847 119.628 32.6801 118.736 32.6801 117.635H30.6801ZM30.2801 117.635H28.2801C28.2801 118.736 29.1755 119.628 30.2801 119.628V117.635ZM30.2801 102.063H25.0801V106.051H30.2801V102.063ZM27.0801 104.057V103.678H23.0801V104.057H27.0801ZM25.0801 105.672H35.8801V101.684H25.0801V105.672ZM33.8801 103.678V104.057H37.8801V103.678H33.8801ZM35.8801 102.063H30.6801V106.051H35.8801V102.063ZM28.6801 104.057V117.635H32.6801V104.057H28.6801ZM30.6801 115.641H30.2801V119.628H30.6801V115.641ZM32.2801 117.635V104.057H28.2801V117.635H32.2801ZM51.6171 103.678H53.6171C53.6171 102.576 52.7217 101.684 51.6171 101.684V103.678ZM51.6171 117.635V119.628C52.7217 119.628 53.6171 118.736 53.6171 117.635H51.6171ZM51.2171 117.635H49.2171C49.2171 118.736 50.1126 119.628 51.2171 119.628V117.635ZM51.2171 110.736H53.2171C53.2171 109.635 52.3217 108.742 51.2171 108.742V110.736ZM41.0171 110.736V108.742C39.9126 108.742 39.0171 109.635 39.0171 110.736H41.0171ZM41.0171 117.635V119.628C42.1217 119.628 43.0171 118.736 43.0171 117.635H41.0171ZM40.6171 117.635H38.6171C38.6171 118.736 39.5126 119.628 40.6171 119.628V117.635ZM40.6171 103.678V101.684C39.5126 101.684 38.6171 102.576 38.6171 103.678H40.6171ZM41.0171 103.678H43.0171C43.0171 102.576 42.1217 101.684 41.0171 101.684V103.678ZM41.0171 110.357H39.0171C39.0171 111.459 39.9126 112.351 41.0171 112.351V110.357ZM51.2171 110.357V112.351C52.3217 112.351 53.2171 111.459 53.2171 110.357H51.2171ZM51.2171 103.678V101.684C50.1126 101.684 49.2171 102.576 49.2171 103.678H51.2171ZM49.6171 103.678V117.635H53.6171V103.678H49.6171ZM51.6171 115.641H51.2171V119.628H51.6171V115.641ZM53.2171 117.635V110.736H49.2171V117.635H53.2171ZM51.2171 108.742H41.0171V112.73H51.2171V108.742ZM39.0171 110.736V117.635H43.0171V110.736H39.0171ZM41.0171 115.641H40.6171V119.628H41.0171V115.641ZM42.6171 117.635V103.678H38.6171V117.635H42.6171ZM40.6171 105.672H41.0171V101.684H40.6171V105.672ZM39.0171 103.678V110.357H43.0171V103.678H39.0171ZM41.0171 112.351H51.2171V108.363H41.0171V112.351ZM53.2171 110.357V103.678H49.2171V110.357H53.2171ZM51.2171 105.672H51.6171V101.684H51.2171V105.672ZM68.2653 117.256H70.2653C70.2653 116.154 69.3698 115.262 68.2653 115.262V117.256ZM68.2653 117.635V119.628C69.3698 119.628 70.2653 118.736 70.2653 117.635H68.2653ZM58.9453 117.635H56.9453C56.9453 118.736 57.8407 119.628 58.9453 119.628V117.635ZM58.9453 103.678V101.684C57.8407 101.684 56.9453 102.576 56.9453 103.678H58.9453ZM67.9653 103.678H69.9653C69.9653 102.576 69.0698 101.684 67.9653 101.684V103.678ZM67.9653 104.057V106.051C69.0698 106.051 69.9653 105.158 69.9653 104.057H67.9653ZM59.3453 104.057V102.063C58.2407 102.063 57.3453 102.955 57.3453 104.057H59.3453ZM59.3453 110.357H57.3453C57.3453 111.459 58.2407 112.351 59.3453 112.351V110.357ZM67.0653 110.357H69.0653C69.0653 109.256 68.1698 108.363 67.0653 108.363V110.357ZM67.0653 110.736V112.73C68.1698 112.73 69.0653 111.838 69.0653 110.736H67.0653ZM59.3453 110.736V108.742C58.2407 108.742 57.3453 109.635 57.3453 110.736H59.3453ZM59.3453 117.256H57.3453C57.3453 118.357 58.2407 119.25 59.3453 119.25V117.256ZM66.2653 117.256V117.635H70.2653V117.256H66.2653ZM68.2653 115.641H58.9453V119.628H68.2653V115.641ZM60.9453 117.635V103.678H56.9453V117.635H60.9453ZM58.9453 105.672H67.9653V101.684H58.9453V105.672ZM65.9653 103.678V104.057H69.9653V103.678H65.9653ZM67.9653 102.063H59.3453V106.051H67.9653V102.063ZM57.3453 104.057V110.357H61.3453V104.057H57.3453ZM59.3453 112.351H67.0653V108.363H59.3453V112.351ZM65.0653 110.357V110.736H69.0653V110.357H65.0653ZM67.0653 108.742H59.3453V112.73H67.0653V108.742ZM57.3453 110.736V117.256H61.3453V110.736H57.3453ZM59.3453 119.25H68.2653V115.262H59.3453V119.25Z" fill="#FA9766"/>
<path d="M0 141.258C9.46667 142.303 14.2 146.449 35.5 147.043C56.8 147.638 90.4213 136.339 126 136.576C159.64 136.8 176 147.043 211.5 147.043C247 147.043 265.067 137.224 284 136.576V321.003H274.533C265.067 321.003 246.133 321.003 227.2 321.003C208.267 321.003 189.333 321.003 170.4 321.003C151.467 321.003 132.533 321.003 113.6 321.003C94.6667 321.003 75.7333 321.003 56.8 321.003C37.8667 321.003 18.9333 321.003 9.46667 321.003H0V141.258Z" fill="#FA9766"/>
<path d="M0 181.66L9.46667 181.955C18.9333 182.207 37.8667 182.795 56.8 178.17C75.7333 173.543 94.6667 163.703 113.6 161.179C132.533 158.656 151.467 163.45 170.4 171.062C189.333 178.716 208.267 189.23 227.2 191.669C246.133 194.15 265.067 188.516 274.533 185.739L284 182.922V312.031H274.533C265.067 312.031 246.133 312.031 227.2 312.031C208.267 312.031 189.333 312.031 170.4 312.031C151.467 312.031 132.533 312.031 113.6 312.031C94.6667 312.031 75.7333 312.031 56.8 312.031C37.8667 312.031 18.9333 312.031 9.46667 312.031H0V181.66Z" fill="#FB8851"/>
<path d="M0 232.341C0 232.341 0 232.381 9.46667 225.501C18.9333 218.62 37.8667 204.938 56.8 204.78C75.7333 204.661 94.6667 218.106 113.6 218.423C132.533 218.779 151.467 205.966 170.4 205.531C189.333 205.056 208.267 216.919 227.2 215.338C246.133 213.756 265.067 198.73 274.533 191.216L284 183.702V311.43H274.533C265.067 311.43 246.133 311.43 227.2 311.43C208.267 311.43 189.333 311.43 170.4 311.43C151.467 311.43 132.533 311.43 113.6 311.43C94.6667 311.43 75.7333 311.43 56.8 311.43C37.8667 311.43 18.9333 311.43 9.46667 311.43H0V232.341Z" fill="#FB783B"/>
<path d="M0 241.124L9.46667 245.276C18.9333 249.428 37.8667 257.733 56.8 255.36C75.7333 252.987 94.6667 239.938 113.6 235.588C132.533 231.239 151.467 235.588 170.4 237.961C189.333 240.334 208.267 240.729 227.2 238.158C246.133 235.588 265.067 230.053 274.533 227.284L284 224.516V321.399H274.533C265.067 321.399 246.133 321.399 227.2 321.399C208.267 321.399 189.333 321.399 170.4 321.399C151.467 321.399 132.533 321.399 113.6 321.399C94.6667 321.399 75.7333 321.399 56.8 321.399C37.8667 321.399 18.9333 321.399 9.46667 321.399H0V241.124Z" fill="#FB6723"/>
<path d="M55.52 213.234H57.52C57.52 212.132 56.6246 211.24 55.52 211.24V213.234ZM55.52 214.334V216.328C56.6246 216.328 57.52 215.436 57.52 214.334H55.52ZM43.928 214.334H41.928C41.928 215.436 42.8234 216.328 43.928 216.328V214.334ZM43.928 197.586V195.593C42.8234 195.593 41.928 196.485 41.928 197.586H43.928ZM55.16 197.586H57.16C57.16 196.485 56.2646 195.593 55.16 195.593V197.586ZM55.16 198.687V200.681C56.2646 200.681 57.16 199.789 57.16 198.687H55.16ZM45.152 198.687V196.693C44.0474 196.693 43.152 197.585 43.152 198.687H45.152ZM45.152 205.29H43.152C43.152 206.392 44.0474 207.284 45.152 207.284V205.29ZM54.104 205.29H56.104C56.104 204.189 55.2086 203.297 54.104 203.297V205.29ZM54.104 206.367V208.361C55.2086 208.361 56.104 207.469 56.104 206.367H54.104ZM45.152 206.367V204.373C44.0474 204.373 43.152 205.266 43.152 206.367H45.152ZM45.152 213.234H43.152C43.152 214.335 44.0474 215.228 45.152 215.228V213.234ZM53.52 213.234V214.334H57.52V213.234H53.52ZM55.52 212.341H43.928V216.328H55.52V212.341ZM45.928 214.334V197.586H41.928V214.334H45.928ZM43.928 199.58H55.16V195.593H43.928V199.58ZM53.16 197.586V198.687H57.16V197.586H53.16ZM55.16 196.693H45.152V200.681H55.16V196.693ZM43.152 198.687V205.29H47.152V198.687H43.152ZM45.152 207.284H54.104V203.297H45.152V207.284ZM52.104 205.29V206.367H56.104V205.29H52.104ZM54.104 204.373H45.152V208.361H54.104V204.373ZM43.152 206.367V213.234H47.152V206.367H43.152ZM45.152 215.228H55.52V211.24H45.152V215.228ZM62.3827 197.586V195.593C61.2781 195.593 60.3827 196.485 60.3827 197.586H62.3827ZM63.6067 197.586H65.6067C65.6067 196.485 64.7113 195.593 63.6067 195.593V197.586ZM63.6067 213.234H61.6067C61.6067 214.335 62.5021 215.228 63.6067 215.228V213.234ZM73.2787 213.234H75.2787C75.2787 212.132 74.3833 211.24 73.2787 211.24V213.234ZM73.2787 214.334V216.328C74.3833 216.328 75.2787 215.436 75.2787 214.334H73.2787ZM62.3827 214.334H60.3827C60.3827 215.436 61.2781 216.328 62.3827 216.328V214.334ZM62.3827 199.58H63.6067V195.593H62.3827V199.58ZM61.6067 197.586V213.234H65.6067V197.586H61.6067ZM63.6067 215.228H73.2787V211.24H63.6067V215.228ZM71.2787 213.234V214.334H75.2787V213.234H71.2787ZM73.2787 212.341H62.3827V216.328H73.2787V212.341ZM64.3827 214.334V197.586H60.3827V214.334H64.3827ZM98.3778 199.094L97.0914 200.62C97.0954 200.624 97.0995 200.627 97.1035 200.63L98.3778 199.094ZM98.3778 207.372L99.6521 208.908C99.6562 208.905 99.6602 208.902 99.6642 208.898L98.3778 207.372ZM88.6098 208.855V206.862C87.5052 206.862 86.6098 207.754 86.6098 208.855H88.6098ZM88.6098 214.334V216.328C89.7144 216.328 90.6098 215.436 90.6098 214.334H88.6098ZM87.3858 214.334H85.3858C85.3858 215.436 86.2812 216.328 87.3858 216.328V214.334ZM87.3858 197.586V195.593C86.2812 195.593 85.3858 196.485 85.3858 197.586H87.3858ZM97.5138 206.582L98.7916 208.117L97.5138 206.582ZM97.5138 199.883L96.2208 201.405C96.2258 201.409 96.2309 201.413 96.236 201.417L97.5138 199.883ZM88.6098 198.687V196.693C87.5052 196.693 86.6098 197.585 86.6098 198.687H88.6098ZM88.6098 207.755H86.6098C86.6098 208.856 87.5052 209.749 88.6098 209.749V207.755ZM93.4098 199.58C95.2154 199.58 96.3601 200.008 97.0914 200.62L99.6642 197.567C97.9955 196.17 95.8282 195.593 93.4098 195.593V199.58ZM97.1035 200.63C97.776 201.184 98.1778 201.963 98.1778 203.233H102.178C102.178 200.962 101.38 198.981 99.6521 197.557L97.1035 200.63ZM98.1778 203.233C98.1778 204.48 97.78 205.269 97.0914 205.846L99.6642 208.898C101.376 207.466 102.178 205.495 102.178 203.233H98.1778ZM97.1035 205.836C96.3718 206.438 95.2223 206.862 93.4098 206.862V210.849C95.8213 210.849 97.9838 210.284 99.6521 208.908L97.1035 205.836ZM93.4098 206.862H88.6098V210.849H93.4098V206.862ZM86.6098 208.855V214.334H90.6098V208.855H86.6098ZM88.6098 212.341H87.3858V216.328H88.6098V212.341ZM89.3858 214.334V197.586H85.3858V214.334H89.3858ZM87.3858 199.58H93.4098V195.593H87.3858V199.58ZM93.4098 209.749C95.4596 209.749 97.3553 209.305 98.7916 208.117L96.236 205.048C95.7843 205.423 94.9441 205.761 93.4098 205.761V209.749ZM98.7916 208.117C100.28 206.885 100.93 205.155 100.93 203.233H96.9298C96.9298 204.214 96.6357 204.717 96.236 205.048L98.7916 208.117ZM100.93 203.233C100.93 201.311 100.28 199.581 98.7916 198.349L96.236 201.417C96.6357 201.748 96.9298 202.252 96.9298 203.233H100.93ZM98.8069 198.362C97.3697 197.148 95.4677 196.693 93.4098 196.693V200.681C94.9359 200.681 95.7699 201.024 96.2208 201.405L98.8069 198.362ZM93.4098 196.693H88.6098V200.681H93.4098V196.693ZM86.6098 198.687V207.755H90.6098V198.687H86.6098ZM88.6098 209.749H93.4098V205.761H88.6098V209.749ZM118.372 214.334L116.744 215.493C117.119 216.017 117.725 216.328 118.372 216.328V214.334ZM114.364 208.736L115.992 207.577C115.561 206.975 114.831 206.661 114.096 206.76L114.364 208.736ZM107.932 208.855V206.862C106.827 206.862 105.932 207.754 105.932 208.855H107.932ZM107.932 214.334V216.328C109.036 216.328 109.932 215.436 109.932 214.334H107.932ZM106.708 214.334H104.708C104.708 215.436 105.603 216.328 106.708 216.328V214.334ZM106.708 197.586V195.593C105.603 195.593 104.708 196.485 104.708 197.586H106.708ZM117.7 199.094L116.413 200.62C116.417 200.624 116.421 200.627 116.425 200.63L117.7 199.094ZM118.468 206.582L116.871 205.382L116.868 205.386L118.468 206.582ZM115.564 208.473L115.005 206.559C114.382 206.739 113.886 207.21 113.674 207.82C113.462 208.431 113.559 209.106 113.936 209.631L115.564 208.473ZM119.764 214.334V216.328C120.513 216.328 121.199 215.91 121.542 215.247C121.885 214.583 121.827 213.783 121.391 213.176L119.764 214.334ZM116.836 206.606L118.113 208.141C118.119 208.136 118.124 208.132 118.129 208.128L116.836 206.606ZM116.836 199.883L115.543 201.405C115.548 201.409 115.553 201.413 115.558 201.417L116.836 199.883ZM107.932 198.687V196.693C106.827 196.693 105.932 197.585 105.932 198.687H107.932ZM107.932 207.779H105.932C105.932 208.88 106.827 209.773 107.932 209.773V207.779ZM120 213.176L115.992 207.577L112.736 209.894L116.744 215.493L120 213.176ZM114.096 206.76C113.575 206.83 113.122 206.862 112.732 206.862V210.849C113.333 210.849 113.968 210.801 114.632 210.712L114.096 206.76ZM112.732 206.862H107.932V210.849H112.732V206.862ZM105.932 208.855V214.334H109.932V208.855H105.932ZM107.932 212.341H106.708V216.328H107.932V212.341ZM108.708 214.334V197.586H104.708V214.334H108.708ZM106.708 199.58H112.732V195.593H106.708V199.58ZM112.732 199.58C114.537 199.58 115.682 200.008 116.413 200.62L118.986 197.567C117.317 196.17 115.15 195.593 112.732 195.593V199.58ZM116.425 200.63C117.098 201.184 117.5 201.963 117.5 203.233H121.5C121.5 200.962 120.702 198.981 118.974 197.557L116.425 200.63ZM117.5 203.233C117.5 204.197 117.256 204.873 116.871 205.382L120.064 207.783C121.055 206.474 121.5 204.917 121.5 203.233H117.5ZM116.868 205.386C116.499 205.877 115.928 206.29 115.005 206.559L116.123 210.387C117.727 209.921 119.092 209.075 120.068 207.779L116.868 205.386ZM113.936 209.631L118.136 215.493L121.391 213.176L117.191 207.314L113.936 209.631ZM119.764 212.341H118.372V216.328H119.764V212.341ZM112.732 209.773C114.781 209.773 116.677 209.329 118.113 208.141L115.558 205.072C115.106 205.447 114.266 205.785 112.732 205.785V209.773ZM118.129 208.128C119.602 206.883 120.252 205.156 120.252 203.233H116.252C116.252 204.213 115.957 204.735 115.543 205.085L118.129 208.128ZM120.252 203.233C120.252 201.311 119.602 199.581 118.113 198.349L115.558 201.417C115.958 201.748 116.252 202.252 116.252 203.233H120.252ZM118.129 198.362C116.692 197.148 114.79 196.693 112.732 196.693V200.681C114.258 200.681 115.092 201.024 115.543 201.405L118.129 198.362ZM112.732 196.693H107.932V200.681H112.732V196.693ZM105.932 198.687V207.779H109.932V198.687H105.932ZM107.932 209.773H112.732V205.785H107.932V209.773ZM137.973 213.234H139.973C139.973 212.132 139.078 211.24 137.973 211.24V213.234ZM137.973 214.334V216.328C139.078 216.328 139.973 215.436 139.973 214.334H137.973ZM126.381 214.334H124.381C124.381 215.436 125.277 216.328 126.381 216.328V214.334ZM126.381 197.586V195.593C125.277 195.593 124.381 196.485 124.381 197.586H126.381ZM137.613 197.586H139.613C139.613 196.485 138.718 195.593 137.613 195.593V197.586ZM137.613 198.687V200.681C138.718 200.681 139.613 199.789 139.613 198.687H137.613ZM127.605 198.687V196.693C126.501 196.693 125.605 197.585 125.605 198.687H127.605ZM127.605 205.29H125.605C125.605 206.392 126.501 207.284 127.605 207.284V205.29ZM136.557 205.29H138.557C138.557 204.189 137.662 203.297 136.557 203.297V205.29ZM136.557 206.367V208.361C137.662 208.361 138.557 207.469 138.557 206.367H136.557ZM127.605 206.367V204.373C126.501 204.373 125.605 205.266 125.605 206.367H127.605ZM127.605 213.234H125.605C125.605 214.335 126.501 215.228 127.605 215.228V213.234ZM135.973 213.234V214.334H139.973V213.234H135.973ZM137.973 212.341H126.381V216.328H137.973V212.341ZM128.381 214.334V197.586H124.381V214.334H128.381ZM126.381 199.58H137.613V195.593H126.381V199.58ZM135.613 197.586V198.687H139.613V197.586H135.613ZM137.613 196.693H127.605V200.681H137.613V196.693ZM125.605 198.687V205.29H129.605V198.687H125.605ZM127.605 207.284H136.557V203.297H127.605V207.284ZM134.557 205.29V206.367H138.557V205.29H134.557ZM136.557 204.373H127.605V208.361H136.557V204.373ZM125.605 206.367V213.234H129.605V206.367H125.605ZM127.605 215.228H137.973V211.24H127.605V215.228ZM149.252 198.687H151.252C151.252 197.585 150.356 196.693 149.252 196.693V198.687ZM143.204 198.687H141.204C141.204 199.789 142.099 200.681 143.204 200.681V198.687ZM143.204 197.586V195.593C142.099 195.593 141.204 196.485 141.204 197.586H143.204ZM156.524 197.586H158.524C158.524 196.485 157.628 195.593 156.524 195.593V197.586ZM156.524 198.687V200.681C157.628 200.681 158.524 199.789 158.524 198.687H156.524ZM150.476 198.687V196.693C149.371 196.693 148.476 197.585 148.476 198.687H150.476ZM150.476 214.334V216.328C151.58 216.328 152.476 215.436 152.476 214.334H150.476ZM149.252 214.334H147.252C147.252 215.436 148.147 216.328 149.252 216.328V214.334ZM149.252 196.693H143.204V200.681H149.252V196.693ZM145.204 198.687V197.586H141.204V198.687H145.204ZM143.204 199.58H156.524V195.593H143.204V199.58ZM154.524 197.586V198.687H158.524V197.586H154.524ZM156.524 196.693H150.476V200.681H156.524V196.693ZM148.476 198.687V214.334H152.476V198.687H148.476ZM150.476 212.341H149.252V216.328H150.476V212.341ZM151.252 214.334V198.687H147.252V214.334H151.252ZM173.551 213.234H175.551C175.551 212.132 174.656 211.24 173.551 211.24V213.234ZM173.551 214.334V216.328C174.656 216.328 175.551 215.436 175.551 214.334H173.551ZM161.959 214.334H159.959C159.959 215.436 160.855 216.328 161.959 216.328V214.334ZM161.959 197.586V195.593C160.855 195.593 159.959 196.485 159.959 197.586H161.959ZM173.191 197.586H175.191C175.191 196.485 174.296 195.593 173.191 195.593V197.586ZM173.191 198.687V200.681C174.296 200.681 175.191 199.789 175.191 198.687H173.191ZM163.183 198.687V196.693C162.079 196.693 161.183 197.585 161.183 198.687H163.183ZM163.183 205.29H161.183C161.183 206.392 162.079 207.284 163.183 207.284V205.29ZM172.135 205.29H174.135C174.135 204.189 173.24 203.297 172.135 203.297V205.29ZM172.135 206.367V208.361C173.24 208.361 174.135 207.469 174.135 206.367H172.135ZM163.183 206.367V204.373C162.079 204.373 161.183 205.266 161.183 206.367H163.183ZM163.183 213.234H161.183C161.183 214.335 162.079 215.228 163.183 215.228V213.234ZM171.551 213.234V214.334H175.551V213.234H171.551ZM173.551 212.341H161.959V216.328H173.551V212.341ZM163.959 214.334V197.586H159.959V214.334H163.959ZM161.959 199.58H173.191V195.593H161.959V199.58ZM171.191 197.586V198.687H175.191V197.586H171.191ZM173.191 196.693H163.183V200.681H173.191V196.693ZM161.183 198.687V205.29H165.183V198.687H161.183ZM163.183 207.284H172.135V203.297H163.183V207.284ZM170.135 205.29V206.367H174.135V205.29H170.135ZM172.135 204.373H163.183V208.361H172.135V204.373ZM161.183 206.367V213.234H165.183V206.367H161.183ZM163.183 215.228H173.551V211.24H163.183V215.228ZM192.078 214.334L190.45 215.493C190.825 216.017 191.432 216.328 192.078 216.328V214.334ZM188.07 208.736L189.698 207.577C189.267 206.975 188.537 206.661 187.802 206.76L188.07 208.736ZM181.638 208.855V206.862C180.533 206.862 179.638 207.754 179.638 208.855H181.638ZM181.638 214.334V216.328C182.743 216.328 183.638 215.436 183.638 214.334H181.638ZM180.414 214.334H178.414C178.414 215.436 179.309 216.328 180.414 216.328V214.334ZM180.414 197.586V195.593C179.309 195.593 178.414 196.485 178.414 197.586H180.414ZM191.406 199.094L190.12 200.62C190.124 200.624 190.128 200.627 190.132 200.63L191.406 199.094ZM192.174 206.582L190.577 205.382L190.574 205.386L192.174 206.582ZM189.27 208.473L188.711 206.559C188.088 206.739 187.592 207.21 187.38 207.82C187.168 208.431 187.266 209.106 187.642 209.631L189.27 208.473ZM193.47 214.334V216.328C194.219 216.328 194.905 215.91 195.248 215.247C195.591 214.583 195.533 213.783 195.097 213.176L193.47 214.334ZM190.542 206.606L191.82 208.141C191.825 208.136 191.83 208.132 191.835 208.128L190.542 206.606ZM190.542 199.883L189.249 201.405C189.254 201.409 189.259 201.413 189.264 201.417L190.542 199.883ZM181.638 198.687V196.693C180.533 196.693 179.638 197.585 179.638 198.687H181.638ZM181.638 207.779H179.638C179.638 208.88 180.533 209.773 181.638 209.773V207.779ZM193.706 213.176L189.698 207.577L186.442 209.894L190.45 215.493L193.706 213.176ZM187.802 206.76C187.282 206.83 186.828 206.862 186.438 206.862V210.849C187.039 210.849 187.674 210.801 188.338 210.712L187.802 206.76ZM186.438 206.862H181.638V210.849H186.438V206.862ZM179.638 208.855V214.334H183.638V208.855H179.638ZM181.638 212.341H180.414V216.328H181.638V212.341ZM182.414 214.334V197.586H178.414V214.334H182.414ZM180.414 199.58H186.438V195.593H180.414V199.58ZM186.438 199.58C188.244 199.58 189.388 200.008 190.12 200.62L192.692 197.567C191.024 196.17 188.856 195.593 186.438 195.593V199.58ZM190.132 200.63C190.804 201.184 191.206 201.963 191.206 203.233H195.206C195.206 200.962 194.408 198.981 192.68 197.557L190.132 200.63ZM191.206 203.233C191.206 204.197 190.963 204.873 190.577 205.382L193.771 207.783C194.761 206.474 195.206 204.917 195.206 203.233H191.206ZM190.574 205.386C190.205 205.877 189.635 206.29 188.711 206.559L189.829 210.387C191.433 209.921 192.799 209.075 193.774 207.779L190.574 205.386ZM187.642 209.631L191.842 215.493L195.097 213.176L190.897 207.314L187.642 209.631ZM193.47 212.341H192.078V216.328H193.47V212.341ZM186.438 209.773C188.488 209.773 190.383 209.329 191.82 208.141L189.264 205.072C188.812 205.447 187.972 205.785 186.438 205.785V209.773ZM191.835 208.128C193.308 206.883 193.958 205.156 193.958 203.233H189.958C189.958 204.213 189.664 204.735 189.249 205.085L191.835 208.128ZM193.958 203.233C193.958 201.311 193.308 199.581 191.82 198.349L189.264 201.417C189.664 201.748 189.958 202.252 189.958 203.233H193.958ZM191.835 198.362C190.398 197.148 188.496 196.693 186.438 196.693V200.681C187.964 200.681 188.798 201.024 189.249 201.405L191.835 198.362ZM186.438 196.693H181.638V200.681H186.438V196.693ZM179.638 198.687V207.779H183.638V198.687H179.638ZM181.638 209.773H186.438V205.785H181.638V209.773ZM200.087 197.586V195.593C198.983 195.593 198.087 196.485 198.087 197.586H200.087ZM201.311 197.586H203.311C203.311 196.485 202.416 195.593 201.311 195.593V197.586ZM201.311 214.334V216.328C202.416 216.328 203.311 215.436 203.311 214.334H201.311ZM200.087 214.334H198.087C198.087 215.436 198.983 216.328 200.087 216.328V214.334ZM200.087 199.58H201.311V195.593H200.087V199.58ZM199.311 197.586V214.334H203.311V197.586H199.311ZM201.311 212.341H200.087V216.328H201.311V212.341ZM202.087 214.334V197.586H198.087V214.334H202.087ZM212.781 198.687H214.781C214.781 197.585 213.886 196.693 212.781 196.693V198.687ZM206.733 198.687H204.733C204.733 199.789 205.629 200.681 206.733 200.681V198.687ZM206.733 197.586V195.593C205.629 195.593 204.733 196.485 204.733 197.586H206.733ZM220.053 197.586H222.053C222.053 196.485 221.158 195.593 220.053 195.593V197.586ZM220.053 198.687V200.681C221.158 200.681 222.053 199.789 222.053 198.687H220.053ZM214.005 198.687V196.693C212.901 196.693 212.005 197.585 212.005 198.687H214.005ZM214.005 214.334V216.328C215.11 216.328 216.005 215.436 216.005 214.334H214.005ZM212.781 214.334H210.781C210.781 215.436 211.677 216.328 212.781 216.328V214.334ZM212.781 196.693H206.733V200.681H212.781V196.693ZM208.733 198.687V197.586H204.733V198.687H208.733ZM206.733 199.58H220.053V195.593H206.733V199.58ZM218.053 197.586V198.687H222.053V197.586H218.053ZM220.053 196.693H214.005V200.681H220.053V196.693ZM212.005 198.687V214.334H216.005V198.687H212.005ZM214.005 212.341H212.781V216.328H214.005V212.341ZM214.781 214.334V198.687H210.781V214.334H214.781ZM227.919 213.353L226.933 215.088C226.938 215.091 226.944 215.094 226.949 215.097L227.919 213.353ZM224.775 210.291L223.045 211.292C223.048 211.297 223.051 211.302 223.054 211.308L224.775 210.291ZM224.775 201.63L223.054 200.613C223.051 200.619 223.048 200.624 223.045 200.629L224.775 201.63ZM227.919 198.591L228.888 200.335C228.893 200.332 228.899 200.329 228.904 200.326L227.919 198.591ZM239.967 201.606L238.237 202.607C238.24 202.612 238.243 202.617 238.246 202.623L239.967 201.606ZM239.967 210.315L238.246 209.298C238.243 209.304 238.24 209.309 238.237 209.314L239.967 210.315ZM236.847 213.353L237.816 215.097L236.847 213.353ZM236.199 212.372L235.217 210.636L236.199 212.372ZM238.887 209.741L240.612 210.749L240.619 210.738L238.887 209.741ZM238.887 202.204L237.155 203.201L237.161 203.212L238.887 202.204ZM236.199 199.548L235.217 201.285L236.199 199.548ZM228.543 199.548L227.571 197.806L227.561 197.812L228.543 199.548ZM225.855 202.204L227.58 203.212L227.587 203.201L225.855 202.204ZM225.855 209.741L224.123 210.738L224.129 210.749L225.855 209.741ZM228.543 212.372L227.561 214.11L227.571 214.115L228.543 212.372ZM232.383 212.46C231.044 212.46 229.894 212.165 228.888 211.61L226.949 215.097C228.599 216.009 230.425 216.448 232.383 216.448V212.46ZM228.904 211.619C227.876 211.038 227.083 210.263 226.495 209.274L223.054 211.308C224.002 212.903 225.306 214.17 226.933 215.088L228.904 211.619ZM226.504 209.29C225.941 208.323 225.647 207.228 225.647 205.96H221.647C221.647 207.882 222.104 209.675 223.045 211.292L226.504 209.29ZM225.647 205.96C225.647 204.692 225.941 203.598 226.504 202.631L223.045 200.629C222.104 202.246 221.647 204.038 221.647 205.96H225.647ZM226.495 202.647C227.081 201.662 227.868 200.899 228.888 200.335L226.949 196.848C225.313 197.751 224.005 199.014 223.054 200.613L226.495 202.647ZM228.904 200.326C229.908 199.76 231.052 199.461 232.383 199.461V195.473C230.418 195.473 228.585 195.924 226.933 196.857L228.904 200.326ZM232.383 199.461C233.721 199.461 234.871 199.756 235.877 200.311L237.816 196.824C236.166 195.912 234.34 195.473 232.383 195.473V199.461ZM235.877 200.311C236.893 200.873 237.669 201.631 238.237 202.607L241.696 200.605C240.76 198.997 239.456 197.729 237.816 196.824L235.877 200.311ZM238.246 202.623C238.818 203.584 239.119 204.68 239.119 205.96H243.119C243.119 204.018 242.651 202.212 241.687 200.589L238.246 202.623ZM239.119 205.96C239.119 207.24 238.818 208.337 238.246 209.298L241.687 211.332C242.651 209.709 243.119 207.902 243.119 205.96H239.119ZM238.237 209.314C237.669 210.29 236.893 211.048 235.877 211.61L237.816 215.097C239.456 214.192 240.76 212.924 241.696 211.316L238.237 209.314ZM235.877 211.61C234.871 212.165 233.721 212.46 232.383 212.46V216.448C234.34 216.448 236.166 216.009 237.816 215.097L235.877 211.61ZM232.383 215.323C234.106 215.323 235.721 214.93 237.18 214.109L235.217 210.636C234.404 211.091 233.475 211.336 232.383 211.336V215.323ZM237.18 214.109C238.623 213.3 239.777 212.171 240.612 210.749L237.161 208.733C236.685 209.543 236.046 210.169 235.217 210.636L237.18 214.109ZM240.619 210.738C241.461 209.283 241.871 207.676 241.871 205.96H237.871C237.871 207.02 237.624 207.933 237.155 208.744L240.619 210.738ZM241.871 205.96C241.871 204.245 241.461 202.641 240.612 201.196L237.161 203.212C237.624 204 237.871 204.901 237.871 205.96H241.871ZM240.619 201.207C239.785 199.768 238.63 198.625 237.18 197.812L235.217 201.285C236.039 201.747 236.677 202.376 237.155 203.201L240.619 201.207ZM237.18 197.812C235.721 196.991 234.106 196.597 232.383 196.597V200.585C233.475 200.585 234.404 200.829 235.217 201.285L237.18 197.812ZM232.383 196.597C230.659 196.597 229.041 196.991 227.571 197.806L229.514 201.291C230.348 200.829 231.29 200.585 232.383 200.585V196.597ZM227.561 197.812C226.111 198.625 224.957 199.768 224.123 201.207L227.587 203.201C228.065 202.376 228.702 201.747 229.524 201.285L227.561 197.812ZM224.129 201.196C223.28 202.641 222.871 204.245 222.871 205.96H226.871C226.871 204.901 227.117 204 227.58 203.212L224.129 201.196ZM222.871 205.96C222.871 207.676 223.28 209.283 224.123 210.738L227.587 208.744C227.117 207.933 226.871 207.02 226.871 205.96H222.871ZM224.129 210.749C224.965 212.171 226.118 213.3 227.561 214.109L229.524 210.636C228.695 210.169 228.057 209.543 227.58 208.733L224.129 210.749ZM227.571 214.115C229.041 214.93 230.659 215.323 232.383 215.323V211.336C231.29 211.336 230.348 211.091 229.514 210.63L227.571 214.115Z" fill="white"/>
<path d="M130.061 192.565L134.407 191.404" stroke="white" stroke-width="3" stroke-linecap="round"/>
<path d="M0 285.414L9.46667 285.532C18.9333 285.691 37.8667 285.928 56.8 286.679C75.7333 287.39 94.6667 288.577 113.6 288.894C132.533 289.25 151.467 288.695 170.4 284.149C189.333 279.601 208.267 271.059 227.2 267.816C246.133 264.574 265.067 266.71 274.533 267.738L284 268.805V321.399H274.533C265.067 321.399 246.133 321.399 227.2 321.399C208.267 321.399 189.333 321.399 170.4 321.399C151.467 321.399 132.533 321.399 113.6 321.399C94.6667 321.399 75.7333 321.399 56.8 321.399C37.8667 321.399 18.9333 321.399 9.46667 321.399H0V285.414Z" fill="#FA5300"/>
<g style="mix-blend-mode:soft-light">
<path d="M26 187.418H258" stroke="white"/>
</g>
<mask id="mask0_44_850" style="mask-type:alpha" maskUnits="userSpaceOnUse" x="26" y="126" width="233" height="56">
<path d="M38.536 129.398C41.752 129.398 44.272 130.164 46.096 131.695C47.92 133.226 48.832 135.332 48.832 138.011C48.832 140.691 47.92 142.797 46.096 144.328C44.272 145.835 41.752 146.589 38.536 146.589H31.768V154.52H29.104V129.398H38.536ZM38.464 144.256C40.96 144.256 42.868 143.718 44.188 142.641C45.508 141.54 46.168 139.997 46.168 138.011C46.168 135.978 45.508 134.423 44.188 133.346C42.868 132.245 40.96 131.695 38.464 131.695H31.768V144.256H38.464ZM75.4003 154.52L69.6403 146.445C68.9923 146.517 68.3203 146.553 67.6243 146.553H60.8563V154.52H58.1923V129.398H67.6243C70.8403 129.398 73.3603 130.164 75.1843 131.695C77.0083 133.226 77.9203 135.332 77.9203 138.011C77.9203 139.973 77.4163 141.636 76.4083 143C75.4243 144.34 74.0083 145.309 72.1603 145.907L78.3163 154.52H75.4003ZM67.5523 144.292C70.0483 144.292 71.9563 143.742 73.2763 142.641C74.5963 141.54 75.2563 139.997 75.2563 138.011C75.2563 135.978 74.5963 134.423 73.2763 133.346C71.9563 132.245 70.0483 131.695 67.5523 131.695H60.8563V144.292H67.5523ZM105.628 152.223V154.52H87.8079V129.398H105.088V131.695H90.4719V140.631H103.504V142.892H90.4719V152.223H105.628ZM122.186 131.695H113.33V129.398H133.706V131.695H124.85V154.52H122.186V131.695ZM159.382 152.223V154.52H141.562V129.398H158.842V131.695H144.226V140.631H157.258V142.892H144.226V152.223H159.382ZM186.452 154.52L180.692 146.445C180.044 146.517 179.372 146.553 178.676 146.553H171.908V154.52H169.244V129.398H178.676C181.892 129.398 184.412 130.164 186.236 131.695C188.06 133.226 188.972 135.332 188.972 138.011C188.972 139.973 188.468 141.636 187.46 143C186.476 144.34 185.06 145.309 183.212 145.907L189.368 154.52H186.452ZM178.604 144.292C181.1 144.292 183.008 143.742 184.328 142.641C185.648 141.54 186.308 139.997 186.308 138.011C186.308 135.978 185.648 134.423 184.328 133.346C183.008 132.245 181.1 131.695 178.604 131.695H171.908V144.292H178.604ZM198.859 129.398H201.523V154.52H198.859V129.398ZM218.219 131.695H209.363V129.398H229.739V131.695H220.883V154.52H218.219V131.695ZM255.415 152.223V154.52H237.595V129.398H254.875V131.695H240.259V140.631H253.291V142.892H240.259V152.223H255.415Z" fill="#FA7268"/>
<path d="M46.096 131.695L44.1636 133.983L46.096 131.695ZM46.096 144.328L48.0106 146.631C48.0165 146.626 48.0225 146.621 48.0284 146.616L46.096 144.328ZM31.768 146.589V143.598C30.1111 143.598 28.768 144.937 28.768 146.589H31.768ZM31.768 154.52V157.511C33.4249 157.511 34.768 156.172 34.768 154.52H31.768ZM29.104 154.52H26.104C26.104 156.172 27.4471 157.511 29.104 157.511V154.52ZM29.104 129.398V126.407C27.4471 126.407 26.104 127.746 26.104 129.398H29.104ZM44.188 142.641L46.0877 144.956C46.0961 144.949 46.1044 144.942 46.1127 144.935L44.188 142.641ZM44.188 133.346L42.2633 135.64C42.2716 135.647 42.2799 135.654 42.2883 135.661L44.188 133.346ZM31.768 131.695V128.704C30.1111 128.704 28.768 130.043 28.768 131.695H31.768ZM31.768 144.256H28.768C28.768 145.908 30.1111 147.247 31.768 147.247V144.256ZM38.536 132.389C41.2923 132.389 43.0436 133.043 44.1636 133.983L48.0284 129.407C45.5004 127.285 42.2117 126.407 38.536 126.407V132.389ZM44.1636 133.983C45.2196 134.869 45.832 136.088 45.832 138.011H51.832C51.832 134.575 50.6204 131.583 48.0284 129.407L44.1636 133.983ZM45.832 138.011C45.832 139.934 45.2196 141.154 44.1636 142.04L48.0284 146.616C50.6204 144.439 51.832 141.448 51.832 138.011H45.832ZM44.1814 142.025C43.0608 142.951 41.3026 143.598 38.536 143.598V149.579C42.2014 149.579 45.4832 148.719 48.0106 146.631L44.1814 142.025ZM38.536 143.598H31.768V149.579H38.536V143.598ZM28.768 146.589V154.52H34.768V146.589H28.768ZM31.768 151.529H29.104V157.511H31.768V151.529ZM32.104 154.52V129.398H26.104V154.52H32.104ZM29.104 132.389H38.536V126.407H29.104V132.389ZM38.464 147.247C41.3412 147.247 44.0322 146.633 46.0877 144.956L42.2883 140.326C41.7038 140.803 40.5788 141.265 38.464 141.265V147.247ZM46.1127 144.935C48.2255 143.173 49.168 140.727 49.168 138.011H43.168C43.168 139.268 42.7905 139.908 42.2633 140.347L46.1127 144.935ZM49.168 138.011C49.168 135.276 48.2425 132.789 46.0877 131.031L42.2883 135.661C42.7735 136.056 43.168 136.68 43.168 138.011H49.168ZM46.1127 131.052C44.0555 129.336 41.3542 128.704 38.464 128.704V134.686C40.5658 134.686 41.6805 135.154 42.2633 135.64L46.1127 131.052ZM38.464 128.704H31.768V134.686H38.464V128.704ZM28.768 131.695V144.256H34.768V131.695H28.768ZM31.768 147.247H38.464V141.265H31.768V147.247ZM75.4003 154.52L72.9554 156.254C73.5182 157.042 74.4292 157.511 75.4003 157.511V154.52ZM69.6403 146.445L72.0851 144.712C71.454 143.827 70.3914 143.353 69.309 143.472L69.6403 146.445ZM60.8563 146.553V143.562C59.1994 143.562 57.8563 144.901 57.8563 146.553H60.8563ZM60.8563 154.52V157.511C62.5131 157.511 63.8563 156.172 63.8563 154.52H60.8563ZM58.1923 154.52H55.1923C55.1923 156.172 56.5354 157.511 58.1923 157.511V154.52ZM58.1923 129.398V126.407C56.5354 126.407 55.1923 127.746 55.1923 129.398H58.1923ZM75.1843 131.695L73.2519 133.983L75.1843 131.695ZM76.4083 143L73.9931 141.225L73.9877 141.233L76.4083 143ZM72.1603 145.907L71.2339 143.063C70.325 143.357 69.6111 144.065 69.3115 144.969C69.012 145.874 69.1625 146.867 69.717 147.642L72.1603 145.907ZM78.3163 154.52V157.511C79.4394 157.511 80.4685 156.886 80.983 155.89C81.4975 154.895 81.4113 153.697 80.7595 152.785L78.3163 154.52ZM73.2763 142.641L75.2009 144.935L73.2763 142.641ZM73.2763 133.346L71.3516 135.64C71.3599 135.647 71.3682 135.654 71.3766 135.661L73.2763 133.346ZM60.8563 131.695V128.704C59.1994 128.704 57.8563 130.043 57.8563 131.695H60.8563ZM60.8563 144.292H57.8563C57.8563 145.944 59.1994 147.283 60.8563 147.283V144.292ZM77.8451 152.787L72.0851 144.712L67.1954 148.179L72.9554 156.254L77.8451 152.787ZM69.309 143.472C68.7781 143.531 68.217 143.562 67.6243 143.562V149.544C68.4236 149.544 69.2065 149.503 69.9716 149.418L69.309 143.472ZM67.6243 143.562H60.8563V149.544H67.6243V143.562ZM57.8563 146.553V154.52H63.8563V146.553H57.8563ZM60.8563 151.529H58.1923V157.511H60.8563V151.529ZM61.1923 154.52V129.398H55.1923V154.52H61.1923ZM58.1923 132.389H67.6243V126.407H58.1923V132.389ZM67.6243 132.389C70.3806 132.389 72.1319 133.043 73.2519 133.983L77.1167 129.407C74.5887 127.285 71.3 126.407 67.6243 126.407V132.389ZM73.2519 133.983C74.3079 134.869 74.9203 136.088 74.9203 138.011H80.9203C80.9203 134.575 79.7086 131.583 77.1167 129.407L73.2519 133.983ZM74.9203 138.011C74.9203 139.44 74.5633 140.455 73.9931 141.225L78.8234 144.774C80.2693 142.817 80.9203 140.507 80.9203 138.011H74.9203ZM73.9877 141.233C73.4351 141.986 72.5856 142.625 71.2339 143.063L73.0867 148.751C75.4309 147.992 77.4135 146.693 78.8289 144.766L73.9877 141.233ZM69.717 147.642L75.873 156.256L80.7595 152.785L74.6035 144.171L69.717 147.642ZM78.3163 151.529H75.4003V157.511H78.3163V151.529ZM67.5523 147.283C70.4425 147.283 73.1438 146.651 75.2009 144.935L71.3516 140.347C70.7688 140.833 69.654 141.301 67.5523 141.301V147.283ZM75.2009 144.935C77.3138 143.173 78.2563 140.727 78.2563 138.011H72.2563C72.2563 139.268 71.8788 139.908 71.3516 140.347L75.2009 144.935ZM78.2563 138.011C78.2563 135.276 77.3308 132.789 75.176 131.031L71.3766 135.661C71.8618 136.056 72.2563 136.68 72.2563 138.011H78.2563ZM75.2009 131.052C73.1438 129.336 70.4425 128.704 67.5523 128.704V134.686C69.654 134.686 70.7688 135.154 71.3516 135.64L75.2009 131.052ZM67.5523 128.704H60.8563V134.686H67.5523V128.704ZM57.8563 131.695V144.292H63.8563V131.695H57.8563ZM60.8563 147.283H67.5523V141.301H60.8563V147.283ZM105.628 152.223H108.628C108.628 150.571 107.285 149.233 105.628 149.233V152.223ZM105.628 154.52V157.511C107.285 157.511 108.628 156.172 108.628 154.52H105.628ZM87.8079 154.52H84.8079C84.8079 156.172 86.1511 157.511 87.8079 157.511V154.52ZM87.8079 129.398V126.407C86.1511 126.407 84.8079 127.746 84.8079 129.398H87.8079ZM105.088 129.398H108.088C108.088 127.746 106.745 126.407 105.088 126.407V129.398ZM105.088 131.695V134.686C106.745 134.686 108.088 133.347 108.088 131.695H105.088ZM90.4719 131.695V128.704C88.8151 128.704 87.4719 130.043 87.4719 131.695H90.4719ZM90.4719 140.631H87.4719C87.4719 142.283 88.8151 143.622 90.4719 143.622V140.631ZM103.504 140.631H106.504C106.504 138.979 105.161 137.641 103.504 137.641V140.631ZM103.504 142.892V145.883C105.161 145.883 106.504 144.544 106.504 142.892H103.504ZM90.4719 142.892V139.902C88.8151 139.902 87.4719 141.24 87.4719 142.892H90.4719ZM90.4719 152.223H87.4719C87.4719 153.875 88.8151 155.214 90.4719 155.214V152.223ZM102.628 152.223V154.52H108.628V152.223H102.628ZM105.628 151.529H87.8079V157.511H105.628V151.529ZM90.8079 154.52V129.398H84.8079V154.52H90.8079ZM87.8079 132.389H105.088V126.407H87.8079V132.389ZM102.088 129.398V131.695H108.088V129.398H102.088ZM105.088 128.704H90.4719V134.686H105.088V128.704ZM87.4719 131.695V140.631H93.4719V131.695H87.4719ZM90.4719 143.622H103.504V137.641H90.4719V143.622ZM100.504 140.631V142.892H106.504V140.631H100.504ZM103.504 139.902H90.4719V145.883H103.504V139.902ZM87.4719 142.892V152.223H93.4719V142.892H87.4719ZM90.4719 155.214H105.628V149.233H90.4719V155.214ZM122.186 131.695H125.186C125.186 130.043 123.843 128.704 122.186 128.704V131.695ZM113.33 131.695H110.33C110.33 133.347 111.673 134.686 113.33 134.686V131.695ZM113.33 129.398V126.407C111.673 126.407 110.33 127.746 110.33 129.398H113.33ZM133.706 129.398H136.706C136.706 127.746 135.363 126.407 133.706 126.407V129.398ZM133.706 131.695V134.686C135.363 134.686 136.706 133.347 136.706 131.695H133.706ZM124.85 131.695V128.704C123.193 128.704 121.85 130.043 121.85 131.695H124.85ZM124.85 154.52V157.511C126.507 157.511 127.85 156.172 127.85 154.52H124.85ZM122.186 154.52H119.186C119.186 156.172 120.529 157.511 122.186 157.511V154.52ZM122.186 128.704H113.33V134.686H122.186V128.704ZM116.33 131.695V129.398H110.33V131.695H116.33ZM113.33 132.389H133.706V126.407H113.33V132.389ZM130.706 129.398V131.695H136.706V129.398H130.706ZM133.706 128.704H124.85V134.686H133.706V128.704ZM121.85 131.695V154.52H127.85V131.695H121.85ZM124.85 151.529H122.186V157.511H124.85V151.529ZM125.186 154.52V131.695H119.186V154.52H125.186ZM159.382 152.223H162.382C162.382 150.571 161.039 149.233 159.382 149.233V152.223ZM159.382 154.52V157.511C161.039 157.511 162.382 156.172 162.382 154.52H159.382ZM141.562 154.52H138.562C138.562 156.172 139.905 157.511 141.562 157.511V154.52ZM141.562 129.398V126.407C139.905 126.407 138.562 127.746 138.562 129.398H141.562ZM158.842 129.398H161.842C161.842 127.746 160.499 126.407 158.842 126.407V129.398ZM158.842 131.695V134.686C160.499 134.686 161.842 133.347 161.842 131.695H158.842ZM144.226 131.695V128.704C142.569 128.704 141.226 130.043 141.226 131.695H144.226ZM144.226 140.631H141.226C141.226 142.283 142.569 143.622 144.226 143.622V140.631ZM157.258 140.631H160.258C160.258 138.979 158.915 137.641 157.258 137.641V140.631ZM157.258 142.892V145.883C158.915 145.883 160.258 144.544 160.258 142.892H157.258ZM144.226 142.892V139.902C142.569 139.902 141.226 141.24 141.226 142.892H144.226ZM144.226 152.223H141.226C141.226 153.875 142.569 155.214 144.226 155.214V152.223ZM156.382 152.223V154.52H162.382V152.223H156.382ZM159.382 151.529H141.562V157.511H159.382V151.529ZM144.562 154.52V129.398H138.562V154.52H144.562ZM141.562 132.389H158.842V126.407H141.562V132.389ZM155.842 129.398V131.695H161.842V129.398H155.842ZM158.842 128.704H144.226V134.686H158.842V128.704ZM141.226 131.695V140.631H147.226V131.695H141.226ZM144.226 143.622H157.258V137.641H144.226V143.622ZM154.258 140.631V142.892H160.258V140.631H154.258ZM157.258 139.902H144.226V145.883H157.258V139.902ZM141.226 142.892V152.223H147.226V142.892H141.226ZM144.226 155.214H159.382V149.233H144.226V155.214ZM186.452 154.52L184.007 156.254C184.57 157.042 185.481 157.511 186.452 157.511V154.52ZM180.692 146.445L183.137 144.712C182.506 143.827 181.443 143.353 180.361 143.472L180.692 146.445ZM171.908 146.553V143.562C170.251 143.562 168.908 144.901 168.908 146.553H171.908ZM171.908 154.52V157.511C173.565 157.511 174.908 156.172 174.908 154.52H171.908ZM169.244 154.52H166.244C166.244 156.172 167.587 157.511 169.244 157.511V154.52ZM169.244 129.398V126.407C167.587 126.407 166.244 127.746 166.244 129.398H169.244ZM186.236 131.695L184.303 133.983L186.236 131.695ZM187.46 143L185.045 141.225L185.039 141.233L187.46 143ZM183.212 145.907L182.285 143.063C181.377 143.357 180.663 144.065 180.363 144.969C180.064 145.874 180.214 146.867 180.769 147.642L183.212 145.907ZM189.368 154.52V157.511C190.491 157.511 191.52 156.886 192.035 155.89C192.549 154.895 192.463 153.697 191.811 152.785L189.368 154.52ZM184.328 142.641L186.253 144.935L184.328 142.641ZM184.328 133.346L182.403 135.64C182.411 135.647 182.42 135.654 182.428 135.661L184.328 133.346ZM171.908 131.695V128.704C170.251 128.704 168.908 130.043 168.908 131.695H171.908ZM171.908 144.292H168.908C168.908 145.944 170.251 147.283 171.908 147.283V144.292ZM188.897 152.787L183.137 144.712L178.247 148.179L184.007 156.254L188.897 152.787ZM180.361 143.472C179.83 143.531 179.269 143.562 178.676 143.562V149.544C179.475 149.544 180.258 149.503 181.023 149.418L180.361 143.472ZM178.676 143.562H171.908V149.544H178.676V143.562ZM168.908 146.553V154.52H174.908V146.553H168.908ZM171.908 151.529H169.244V157.511H171.908V151.529ZM172.244 154.52V129.398H166.244V154.52H172.244ZM169.244 132.389H178.676V126.407H169.244V132.389ZM178.676 132.389C181.432 132.389 183.183 133.043 184.303 133.983L188.168 129.407C185.64 127.285 182.352 126.407 178.676 126.407V132.389ZM184.303 133.983C185.359 134.869 185.972 136.088 185.972 138.011H191.972C191.972 134.575 190.76 131.583 188.168 129.407L184.303 133.983ZM185.972 138.011C185.972 139.44 185.615 140.455 185.045 141.225L189.875 144.774C191.321 142.817 191.972 140.507 191.972 138.011H185.972ZM185.039 141.233C184.487 141.986 183.637 142.625 182.285 143.063L184.138 148.751C186.482 147.992 188.465 146.693 189.88 144.766L185.039 141.233ZM180.769 147.642L186.925 156.256L191.811 152.785L185.655 144.171L180.769 147.642ZM189.368 151.529H186.452V157.511H189.368V151.529ZM178.604 147.283C181.494 147.283 184.195 146.651 186.253 144.935L182.403 140.347C181.82 140.833 180.706 141.301 178.604 141.301V147.283ZM186.253 144.935C188.365 143.173 189.308 140.727 189.308 138.011H183.308C183.308 139.268 182.93 139.908 182.403 140.347L186.253 144.935ZM189.308 138.011C189.308 135.276 188.382 132.789 186.228 131.031L182.428 135.661C182.913 136.056 183.308 136.68 183.308 138.011H189.308ZM186.253 131.052C184.195 129.336 181.494 128.704 178.604 128.704V134.686C180.706 134.686 181.82 135.154 182.403 135.64L186.253 131.052ZM178.604 128.704H171.908V134.686H178.604V128.704ZM168.908 131.695V144.292H174.908V131.695H168.908ZM171.908 147.283H178.604V141.301H171.908V147.283ZM198.859 129.398V126.407C197.203 126.407 195.859 127.746 195.859 129.398H198.859ZM201.523 129.398H204.523C204.523 127.746 203.18 126.407 201.523 126.407V129.398ZM201.523 154.52V157.511C203.18 157.511 204.523 156.172 204.523 154.52H201.523ZM198.859 154.52H195.859C195.859 156.172 197.203 157.511 198.859 157.511V154.52ZM198.859 132.389H201.523V126.407H198.859V132.389ZM198.523 129.398V154.52H204.523V129.398H198.523ZM201.523 151.529H198.859V157.511H201.523V151.529ZM201.859 154.52V129.398H195.859V154.52H201.859ZM218.219 131.695H221.219C221.219 130.043 219.876 128.704 218.219 128.704V131.695ZM209.363 131.695H206.363C206.363 133.347 207.706 134.686 209.363 134.686V131.695ZM209.363 129.398V126.407C207.706 126.407 206.363 127.746 206.363 129.398H209.363ZM229.739 129.398H232.739C232.739 127.746 231.396 126.407 229.739 126.407V129.398ZM229.739 131.695V134.686C231.396 134.686 232.739 133.347 232.739 131.695H229.739ZM220.883 131.695V128.704C219.226 128.704 217.883 130.043 217.883 131.695H220.883ZM220.883 154.52V157.511C222.54 157.511 223.883 156.172 223.883 154.52H220.883ZM218.219 154.52H215.219C215.219 156.172 216.562 157.511 218.219 157.511V154.52ZM218.219 128.704H209.363V134.686H218.219V128.704ZM212.363 131.695V129.398H206.363V131.695H212.363ZM209.363 132.389H229.739V126.407H209.363V132.389ZM226.739 129.398V131.695H232.739V129.398H226.739ZM229.739 128.704H220.883V134.686H229.739V128.704ZM217.883 131.695V154.52H223.883V131.695H217.883ZM220.883 151.529H218.219V157.511H220.883V151.529ZM221.219 154.52V131.695H215.219V154.52H221.219ZM255.415 152.223H258.415C258.415 150.571 257.071 149.233 255.415 149.233V152.223ZM255.415 154.52V157.511C257.071 157.511 258.415 156.172 258.415 154.52H255.415ZM237.595 154.52H234.595C234.595 156.172 235.938 157.511 237.595 157.511V154.52ZM237.595 129.398V126.407C235.938 126.407 234.595 127.746 234.595 129.398H237.595ZM254.875 129.398H257.875C257.875 127.746 256.531 126.407 254.875 126.407V129.398ZM254.875 131.695V134.686C256.531 134.686 257.875 133.347 257.875 131.695H254.875ZM240.259 131.695V128.704C238.602 128.704 237.259 130.043 237.259 131.695H240.259ZM240.259 140.631H237.259C237.259 142.283 238.602 143.622 240.259 143.622V140.631ZM253.291 140.631H256.291C256.291 138.979 254.947 137.641 253.291 137.641V140.631ZM253.291 142.892V145.883C254.947 145.883 256.291 144.544 256.291 142.892H253.291ZM240.259 142.892V139.902C238.602 139.902 237.259 141.24 237.259 142.892H240.259ZM240.259 152.223H237.259C237.259 153.875 238.602 155.214 240.259 155.214V152.223ZM252.415 152.223V154.52H258.415V152.223H252.415ZM255.415 151.529H237.595V157.511H255.415V151.529ZM240.595 154.52V129.398H234.595V154.52H240.595ZM237.595 132.389H254.875V126.407H237.595V132.389ZM251.875 129.398V131.695H257.875V129.398H251.875ZM254.875 128.704H240.259V134.686H254.875V128.704ZM237.259 131.695V140.631H243.259V131.695H237.259ZM240.259 143.622H253.291V137.641H240.259V143.622ZM250.291 140.631V142.892H256.291V140.631H250.291ZM253.291 139.902H240.259V145.883H253.291V139.902ZM237.259 142.892V152.223H243.259V142.892H237.259ZM240.259 155.214H255.415V149.233H240.259V155.214Z" fill="white"/>
<path d="M188.28 165.865H183.08V165.486H193.88V165.865H188.68V179.443H188.28V165.865ZM207.937 179.064V179.443H198.617V165.486H207.637V165.865H199.017V172.165H206.737V172.544H199.017V179.064H207.937ZM224.976 165.486V179.443H224.636L214.376 166.224V179.443H213.976V165.486H214.316L224.576 178.705V165.486H224.976ZM235.725 179.503C234.711 179.503 233.758 179.323 232.865 178.964C231.971 178.592 231.285 178.114 230.805 177.529L231.085 177.269C231.538 177.801 232.185 178.246 233.025 178.605C233.865 178.951 234.758 179.124 235.705 179.124C237.158 179.124 238.251 178.838 238.985 178.266C239.731 177.681 240.105 176.931 240.105 176.013C240.105 175.296 239.911 174.724 239.525 174.299C239.138 173.873 238.658 173.554 238.085 173.342C237.525 173.129 236.765 172.91 235.805 172.684C234.778 172.432 233.965 172.192 233.365 171.966C232.765 171.727 232.251 171.368 231.825 170.889C231.411 170.398 231.205 169.746 231.205 168.935C231.205 168.297 231.371 167.712 231.705 167.181C232.038 166.649 232.558 166.224 233.265 165.905C233.971 165.586 234.845 165.426 235.885 165.426C236.631 165.426 237.365 165.546 238.085 165.785C238.805 166.011 239.425 166.317 239.945 166.702L239.725 167.021C239.178 166.623 238.565 166.323 237.885 166.124C237.218 165.912 236.558 165.805 235.905 165.805C234.505 165.805 233.438 166.104 232.705 166.702C231.971 167.287 231.605 168.038 231.605 168.955C231.605 169.673 231.798 170.251 232.185 170.69C232.571 171.116 233.051 171.435 233.625 171.647C234.198 171.859 234.971 172.086 235.945 172.325C236.958 172.577 237.765 172.823 238.365 173.063C238.965 173.289 239.471 173.641 239.885 174.119C240.298 174.585 240.505 175.216 240.505 176.013C240.505 176.651 240.331 177.237 239.985 177.768C239.638 178.299 239.105 178.725 238.385 179.044C237.678 179.35 236.791 179.503 235.725 179.503ZM255.636 179.064V179.443H246.316V165.486H255.336V165.865H246.716V172.165H254.436V172.544H246.716V179.064H255.636Z" fill="#FA7268"/>
<path d="M188.28 165.865H190.28C190.28 164.763 189.385 163.871 188.28 163.871V165.865ZM183.08 165.865H181.08C181.08 166.966 181.975 167.859 183.08 167.859V165.865ZM183.08 165.486V163.492C181.975 163.492 181.08 164.385 181.08 165.486H183.08ZM193.88 165.486H195.88C195.88 164.385 194.985 163.492 193.88 163.492V165.486ZM193.88 165.865V167.859C194.985 167.859 195.88 166.966 195.88 165.865H193.88ZM188.68 165.865V163.871C187.575 163.871 186.68 164.763 186.68 165.865H188.68ZM188.68 179.443V181.437C189.785 181.437 190.68 180.544 190.68 179.443H188.68ZM188.28 179.443H186.28C186.28 180.544 187.175 181.437 188.28 181.437V179.443ZM188.28 163.871H183.08V167.859H188.28V163.871ZM185.08 165.865V165.486H181.08V165.865H185.08ZM183.08 167.48H193.88V163.492H183.08V167.48ZM191.88 165.486V165.865H195.88V165.486H191.88ZM193.88 163.871H188.68V167.859H193.88V163.871ZM186.68 165.865V179.443H190.68V165.865H186.68ZM188.68 177.449H188.28V181.437H188.68V177.449ZM190.28 179.443V165.865H186.28V179.443H190.28ZM207.937 179.064H209.937C209.937 177.962 209.042 177.07 207.937 177.07V179.064ZM207.937 179.443V181.437C209.042 181.437 209.937 180.544 209.937 179.443H207.937ZM198.617 179.443H196.617C196.617 180.544 197.512 181.437 198.617 181.437V179.443ZM198.617 165.486V163.492C197.512 163.492 196.617 164.385 196.617 165.486H198.617ZM207.637 165.486H209.637C209.637 164.385 208.742 163.492 207.637 163.492V165.486ZM207.637 165.865V167.859C208.742 167.859 209.637 166.966 209.637 165.865H207.637ZM199.017 165.865V163.871C197.912 163.871 197.017 164.763 197.017 165.865H199.017ZM199.017 172.165H197.017C197.017 173.267 197.912 174.159 199.017 174.159V172.165ZM206.737 172.165H208.737C208.737 171.064 207.842 170.172 206.737 170.172V172.165ZM206.737 172.544V174.538C207.842 174.538 208.737 173.646 208.737 172.544H206.737ZM199.017 172.544V170.55C197.912 170.55 197.017 171.443 197.017 172.544H199.017ZM199.017 179.064H197.017C197.017 180.165 197.912 181.058 199.017 181.058V179.064ZM205.937 179.064V179.443H209.937V179.064H205.937ZM207.937 177.449H198.617V181.437H207.937V177.449ZM200.617 179.443V165.486H196.617V179.443H200.617ZM198.617 167.48H207.637V163.492H198.617V167.48ZM205.637 165.486V165.865H209.637V165.486H205.637ZM207.637 163.871H199.017V167.859H207.637V163.871ZM197.017 165.865V172.165H201.017V165.865H197.017ZM199.017 174.159H206.737V170.172H199.017V174.159ZM204.737 172.165V172.544H208.737V172.165H204.737ZM206.737 170.55H199.017V174.538H206.737V170.55ZM197.017 172.544V179.064H201.017V172.544H197.017ZM199.017 181.058H207.937V177.07H199.017V181.058ZM224.976 165.486H226.976C226.976 164.385 226.081 163.492 224.976 163.492V165.486ZM224.976 179.443V181.437C226.081 181.437 226.976 180.544 226.976 179.443H224.976ZM224.636 179.443L223.055 180.663C223.433 181.15 224.017 181.437 224.636 181.437V179.443ZM214.376 166.224L215.958 165.004C215.435 164.33 214.539 164.062 213.73 164.337C212.92 164.613 212.376 165.371 212.376 166.224H214.376ZM214.376 179.443V181.437C215.481 181.437 216.376 180.544 216.376 179.443H214.376ZM213.976 179.443H211.976C211.976 180.544 212.872 181.437 213.976 181.437V179.443ZM213.976 165.486V163.492C212.872 163.492 211.976 164.385 211.976 165.486H213.976ZM214.316 165.486L215.898 164.266C215.519 163.778 214.935 163.492 214.316 163.492V165.486ZM224.576 178.705L222.995 179.925C223.518 180.599 224.414 180.867 225.223 180.592C226.032 180.316 226.576 179.557 226.576 178.705H224.576ZM224.576 165.486V163.492C223.472 163.492 222.576 164.385 222.576 165.486H224.576ZM222.976 165.486V179.443H226.976V165.486H222.976ZM224.976 177.449H224.636V181.437H224.976V177.449ZM226.218 178.223L215.958 165.004L212.795 167.444L223.055 180.663L226.218 178.223ZM212.376 166.224V179.443H216.376V166.224H212.376ZM214.376 177.449H213.976V181.437H214.376V177.449ZM215.976 179.443V165.486H211.976V179.443H215.976ZM213.976 167.48H214.316V163.492H213.976V167.48ZM212.735 166.706L222.995 179.925L226.158 177.485L215.898 164.266L212.735 166.706ZM226.576 178.705V165.486H222.576V178.705H226.576ZM224.576 167.48H224.976V163.492H224.576V167.48ZM232.865 178.964L232.093 180.804C232.101 180.808 232.109 180.81 232.117 180.813L232.865 178.964ZM230.805 177.529L229.444 176.067C228.67 176.784 228.588 177.976 229.257 178.791L230.805 177.529ZM231.085 177.269L232.608 175.978C232.255 175.564 231.747 175.312 231.202 175.279C230.658 175.247 230.123 175.438 229.724 175.808L231.085 177.269ZM233.025 178.605L232.237 180.438C232.245 180.442 232.253 180.445 232.262 180.449L233.025 178.605ZM238.985 178.266L240.216 179.838L240.22 179.835L238.985 178.266ZM239.525 174.299L238.043 175.638L239.525 174.299ZM238.085 173.342L237.373 175.205C237.377 175.207 237.382 175.209 237.387 175.21L238.085 173.342ZM235.805 172.684L235.325 174.62C235.332 174.621 235.338 174.623 235.345 174.624L235.805 172.684ZM233.365 171.966L232.622 173.817C232.634 173.822 232.646 173.826 232.658 173.831L233.365 171.966ZM231.825 170.889L230.291 172.169C230.304 172.184 230.317 172.199 230.33 172.214L231.825 170.889ZM231.705 167.181L233.401 168.238L231.705 167.181ZM238.085 165.785L237.452 167.676C237.463 167.68 237.473 167.683 237.484 167.687L238.085 165.785ZM239.945 166.702L241.593 167.832C242.202 166.949 242.001 165.742 241.138 165.102L239.945 166.702ZM239.725 167.021L238.544 168.63C238.98 168.948 239.527 169.077 240.06 168.987C240.593 168.896 241.066 168.595 241.373 168.151L239.725 167.021ZM237.885 166.124L237.275 168.023C237.29 168.028 237.305 168.032 237.32 168.037L237.885 166.124ZM232.705 166.702L233.954 168.259C233.96 168.254 233.965 168.251 233.971 168.246L232.705 166.702ZM232.185 170.69L230.682 172.006C230.689 172.014 230.696 172.021 230.703 172.029L232.185 170.69ZM233.625 171.647L234.322 169.779L233.625 171.647ZM235.945 172.325L236.43 170.391L236.423 170.389L235.945 172.325ZM238.365 173.063L237.622 174.914C237.634 174.919 237.646 174.923 237.658 174.928L238.365 173.063ZM239.885 174.119L238.369 175.42C238.375 175.427 238.381 175.434 238.387 175.441L239.885 174.119ZM239.985 177.768L238.308 176.681L239.985 177.768ZM238.385 179.044L239.181 180.873C239.186 180.87 239.191 180.868 239.197 180.866L238.385 179.044ZM235.725 177.509C234.954 177.509 234.256 177.373 233.612 177.115L232.117 180.813C233.26 181.273 234.469 181.496 235.725 181.496V177.509ZM233.636 177.125C232.963 176.845 232.575 176.538 232.352 176.267L229.257 178.791C229.994 179.69 230.979 180.34 232.093 180.804L233.636 177.125ZM232.165 178.99L232.445 178.731L229.724 175.808L229.444 176.067L232.165 178.99ZM229.561 178.56C230.266 179.388 231.196 179.993 232.237 180.438L233.812 176.773C233.173 176.5 232.81 176.215 232.608 175.978L229.561 178.56ZM232.262 180.449C233.354 180.897 234.507 181.118 235.705 181.118V177.13C235.009 177.13 234.375 177.004 233.788 176.762L232.262 180.449ZM235.705 181.118C237.369 181.118 238.982 180.799 240.216 179.838L237.753 176.695C237.52 176.877 236.947 177.13 235.705 177.13V181.118ZM240.22 179.835C241.431 178.885 242.105 177.565 242.105 176.013H238.105C238.105 176.297 238.031 176.478 237.749 176.698L240.22 179.835ZM242.105 176.013C242.105 174.93 241.804 173.837 241.007 172.96L238.043 175.638C238.044 175.64 238.046 175.642 238.048 175.646C238.051 175.65 238.057 175.66 238.064 175.683C238.08 175.729 238.105 175.831 238.105 176.013H242.105ZM241.007 172.96C240.391 172.283 239.636 171.79 238.782 171.473L237.387 175.21C237.679 175.319 237.884 175.464 238.043 175.638L241.007 172.96ZM238.797 171.478C238.119 171.221 237.263 170.978 236.264 170.744L235.345 174.624C236.266 174.841 236.93 175.036 237.373 175.205L238.797 171.478ZM236.284 170.748C235.292 170.504 234.565 170.286 234.071 170.101L232.658 173.831C233.364 174.097 234.264 174.359 235.325 174.62L236.284 170.748ZM234.107 170.115C233.794 169.99 233.538 169.811 233.319 169.564L230.33 172.214C230.964 172.925 231.735 173.463 232.622 173.817L234.107 170.115ZM233.358 169.609C233.319 169.562 233.205 169.405 233.205 168.935H229.205C229.205 170.088 229.504 171.232 230.291 172.169L233.358 169.609ZM233.205 168.935C233.205 168.664 233.27 168.447 233.401 168.238L230.009 166.124C229.473 166.978 229.205 167.93 229.205 168.935H233.205ZM233.401 168.238C233.481 168.11 233.658 167.916 234.09 167.721L232.44 164.088C231.458 164.532 230.595 165.189 230.009 166.124L233.401 168.238ZM234.09 167.721C234.465 167.552 235.037 167.42 235.885 167.42V163.432C234.652 163.432 233.478 163.62 232.44 164.088L234.09 167.721ZM235.885 167.42C236.413 167.42 236.933 167.504 237.452 167.676L238.717 163.894C237.796 163.588 236.85 163.432 235.885 163.432V167.42ZM237.484 167.687C238.025 167.857 238.437 168.07 238.751 168.302L241.138 165.102C240.412 164.564 239.584 164.165 238.685 163.883L237.484 167.687ZM238.296 165.573L238.076 165.892L241.373 168.151L241.593 167.832L238.296 165.573ZM240.906 165.412C240.164 164.871 239.34 164.472 238.449 164.211L237.32 168.037C237.789 168.175 238.192 168.374 238.544 168.63L240.906 165.412ZM238.494 164.225C237.644 163.954 236.779 163.811 235.905 163.811V167.799C236.337 167.799 236.791 167.869 237.275 168.023L238.494 164.225ZM235.905 163.811C234.256 163.811 232.665 164.158 231.438 165.159L233.971 168.246C234.211 168.049 234.753 167.799 235.905 167.799V163.811ZM231.455 165.145C230.259 166.099 229.605 167.418 229.605 168.955H233.605C233.605 168.658 233.684 168.475 233.954 168.259L231.455 165.145ZM229.605 168.955C229.605 170.042 229.906 171.126 230.682 172.006L233.687 169.374C233.677 169.363 233.663 169.345 233.647 169.297C233.629 169.243 233.605 169.137 233.605 168.955H229.605ZM230.703 172.029C231.318 172.706 232.073 173.199 232.927 173.515L234.322 169.779C234.03 169.67 233.825 169.525 233.667 169.351L230.703 172.029ZM232.927 173.515C233.602 173.766 234.459 174.014 235.466 174.261L236.423 170.389C235.484 170.158 234.793 169.953 234.322 169.779L232.927 173.515ZM235.459 174.259C236.431 174.501 237.141 174.722 237.622 174.914L239.107 171.211C238.388 170.924 237.484 170.653 236.43 170.391L235.459 174.259ZM237.658 174.928C237.949 175.037 238.177 175.198 238.369 175.42L241.4 172.818C240.766 172.084 239.98 171.539 239.071 171.197L237.658 174.928ZM238.387 175.441C238.393 175.448 238.505 175.561 238.505 176.013H242.505C242.505 174.871 242.202 173.721 241.382 172.797L238.387 175.441ZM238.505 176.013C238.505 176.269 238.442 176.475 238.308 176.681L241.661 178.855C242.22 177.997 242.505 177.034 242.505 176.013H238.505ZM238.308 176.681C238.217 176.82 238.023 177.022 237.572 177.222L239.197 180.866C240.186 180.428 241.059 179.779 241.661 178.855L238.308 176.681ZM237.588 177.215C237.21 177.379 236.616 177.509 235.725 177.509V181.496C236.967 181.496 238.146 181.321 239.181 180.873L237.588 177.215ZM255.636 179.064H257.636C257.636 177.962 256.741 177.07 255.636 177.07V179.064ZM255.636 179.443V181.437C256.741 181.437 257.636 180.544 257.636 179.443H255.636ZM246.316 179.443H244.316C244.316 180.544 245.212 181.437 246.316 181.437V179.443ZM246.316 165.486V163.492C245.212 163.492 244.316 164.385 244.316 165.486H246.316ZM255.336 165.486H257.336C257.336 164.385 256.441 163.492 255.336 163.492V165.486ZM255.336 165.865V167.859C256.441 167.859 257.336 166.966 257.336 165.865H255.336ZM246.716 165.865V163.871C245.612 163.871 244.716 164.763 244.716 165.865H246.716ZM246.716 172.165H244.716C244.716 173.267 245.612 174.159 246.716 174.159V172.165ZM254.436 172.165H256.436C256.436 171.064 255.541 170.172 254.436 170.172V172.165ZM254.436 172.544V174.538C255.541 174.538 256.436 173.646 256.436 172.544H254.436ZM246.716 172.544V170.55C245.612 170.55 244.716 171.443 244.716 172.544H246.716ZM246.716 179.064H244.716C244.716 180.165 245.612 181.058 246.716 181.058V179.064ZM253.636 179.064V179.443H257.636V179.064H253.636ZM255.636 177.449H246.316V181.437H255.636V177.449ZM248.316 179.443V165.486H244.316V179.443H248.316ZM246.316 167.48H255.336V163.492H246.316V167.48ZM253.336 165.486V165.865H257.336V165.486H253.336ZM255.336 163.871H246.716V167.859H255.336V163.871ZM244.716 165.865V172.165H248.716V165.865H244.716ZM246.716 174.159H254.436V170.172H246.716V174.159ZM252.436 172.165V172.544H256.436V172.165H252.436ZM254.436 170.55H246.716V174.538H254.436V170.55ZM244.716 172.544V179.064H248.716V172.544H244.716ZM246.716 181.058H255.636V177.07H246.716V181.058Z" fill="white"/>
</mask>
<g mask="url(#mask0_44_850)">
<path d="M-1 141.258C8.46667 142.303 13.2 146.449 34.5 147.043C55.8 147.638 89.4213 136.339 125 136.576C158.64 136.8 175.5 147.043 210.5 147.043C245.5 147.043 264.067 137.224 283 136.576V321.003H273.533C264.067 321.003 245.133 321.003 226.2 321.003C207.267 321.003 188.333 321.003 169.4 321.003C150.467 321.003 131.533 321.003 112.6 321.003C93.6667 321.003 74.7333 321.003 55.8 321.003C36.8667 321.003 17.9333 321.003 8.46667 321.003H-1V141.258Z" fill="white"/>
</g>
</g>
<defs>
<clipPath id="clip0_44_850">
<rect width="284" height="322" fill="white"/>
</clipPath>
</defs>
</svg>
