<svg width="284" height="322" viewBox="0 0 284 322" fill="none" xmlns="http://www.w3.org/2000/svg">
<g clip-path="url(#clip0_150_1256)">
<path d="M284 0H0V321.003H284V0Z" fill="#001220"/>
<path d="M41.16 129.099C44.2867 129.099 46.7367 129.844 48.51 131.332C50.2833 132.821 51.17 134.868 51.17 137.473C51.17 140.078 50.2833 142.126 48.51 143.614C46.7367 145.079 44.2867 145.812 41.16 145.812H34.58V153.523H31.99V129.099H41.16ZM41.09 143.544C43.5167 143.544 45.3717 143.021 46.655 141.974C47.9383 140.904 48.58 139.404 48.58 137.473C48.58 135.496 47.9383 133.984 46.655 132.937C45.3717 131.868 43.5167 131.332 41.09 131.332H34.58V143.544H41.09ZM77.0003 153.523L71.4003 145.673C70.7703 145.742 70.1169 145.777 69.4403 145.777H62.8603V153.523H60.2703V129.099H69.4403C72.5669 129.099 75.0169 129.844 76.7903 131.332C78.5636 132.821 79.4503 134.868 79.4503 137.473C79.4503 139.38 78.9603 140.997 77.9803 142.323C77.0236 143.626 75.6469 144.568 73.8503 145.149L79.8353 153.523H77.0003ZM69.3703 143.579C71.7969 143.579 73.6519 143.044 74.9353 141.974C76.2186 140.904 76.8603 139.404 76.8603 137.473C76.8603 135.496 76.2186 133.984 74.9353 132.937C73.6519 131.868 71.7969 131.332 69.3703 131.332H62.8603V143.579H69.3703ZM106.388 151.29V153.523H89.0632V129.099H105.863V131.332H91.6532V140.02H104.323V142.218H91.6532V151.29H106.388ZM122.486 131.332H113.876V129.099H133.686V131.332H125.076V153.523H122.486V131.332ZM158.649 151.29V153.523H141.324V129.099H158.124V131.332H143.914V140.02H156.584V142.218H143.914V151.29H158.649ZM184.967 153.523L179.367 145.673C178.737 145.742 178.084 145.777 177.407 145.777H170.827V153.523H168.237V129.099H177.407C180.534 129.099 182.984 129.844 184.757 131.332C186.53 132.821 187.417 134.868 187.417 137.473C187.417 139.38 186.927 140.997 185.947 142.323C184.99 143.626 183.614 144.568 181.817 145.149L187.802 153.523H184.967ZM177.337 143.579C179.764 143.579 181.619 143.044 182.902 141.974C184.185 140.904 184.827 139.404 184.827 137.473C184.827 135.496 184.185 133.984 182.902 132.937C181.619 131.868 179.764 131.332 177.337 131.332H170.827V143.579H177.337ZM197.03 129.099H199.62V153.523H197.03V129.099ZM215.852 131.332H207.242V129.099H227.052V131.332H218.442V153.523H215.852V131.332ZM252.014 151.29V153.523H234.689V129.099H251.489V131.332H237.279V140.02H249.949V142.218H237.279V151.29H252.014Z" fill="#FA9766"/>
<path d="M48.51 131.332L46.5776 133.62L48.51 131.332ZM48.51 143.614L50.4246 145.917C50.4305 145.912 50.4365 145.907 50.4424 145.902L48.51 143.614ZM34.58 145.812V142.821C32.9231 142.821 31.58 144.16 31.58 145.812H34.58ZM34.58 153.523V156.514C36.2369 156.514 37.58 155.175 37.58 153.523H34.58ZM31.99 153.523H28.99C28.99 155.175 30.3331 156.514 31.99 156.514V153.523ZM31.99 129.099V126.108C30.3331 126.108 28.99 127.447 28.99 129.099H31.99ZM46.655 141.974L48.5547 144.289C48.5631 144.282 48.5714 144.275 48.5797 144.268L46.655 141.974ZM46.655 132.937L44.7303 135.231C44.7386 135.238 44.7469 135.245 44.7553 135.252L46.655 132.937ZM34.58 131.332V128.341C32.9231 128.341 31.58 129.68 31.58 131.332H34.58ZM34.58 143.544H31.58C31.58 145.196 32.9231 146.535 34.58 146.535V143.544ZM41.16 132.09C43.827 132.09 45.5083 132.722 46.5776 133.62L50.4424 129.044C47.9651 126.965 44.7463 126.108 41.16 126.108V132.09ZM46.5776 133.62C47.583 134.463 48.17 135.624 48.17 137.473H54.17C54.17 134.112 52.9837 131.178 50.4424 129.044L46.5776 133.62ZM48.17 137.473C48.17 139.322 47.583 140.483 46.5776 141.326L50.4424 145.902C52.9837 143.769 54.17 140.835 54.17 137.473H48.17ZM46.5954 141.311C45.5255 142.195 43.8372 142.821 41.16 142.821V148.803C44.7361 148.803 47.9478 147.964 50.4246 145.917L46.5954 141.311ZM41.16 142.821H34.58V148.803H41.16V142.821ZM31.58 145.812V153.523H37.58V145.812H31.58ZM34.58 150.533H31.99V156.514H34.58V150.533ZM34.99 153.523V129.099H28.99V153.523H34.99ZM31.99 132.09H41.16V126.108H31.99V132.09ZM41.09 146.535C43.8979 146.535 46.5358 145.936 48.5547 144.289L44.7553 139.659C44.2075 140.106 43.1355 140.554 41.09 140.554V146.535ZM48.5797 144.268C50.6558 142.537 51.58 140.134 51.58 137.473H45.58C45.58 138.673 45.2208 139.272 44.7303 139.68L48.5797 144.268ZM51.58 137.473C51.58 134.793 50.6728 132.35 48.5547 130.622L44.7553 135.252C45.2038 135.618 45.58 136.198 45.58 137.473H51.58ZM48.5797 130.643C46.5592 128.959 43.9109 128.341 41.09 128.341V134.323C43.1224 134.323 44.1842 134.775 44.7303 135.231L48.5797 130.643ZM41.09 128.341H34.58V134.323H41.09V128.341ZM31.58 131.332V143.544H37.58V131.332H31.58ZM34.58 146.535H41.09V140.554H34.58V146.535ZM77.0003 153.523L74.5554 155.257C75.1182 156.045 76.0292 156.514 77.0003 156.514V153.523ZM71.4003 145.673L73.8451 143.939C73.214 143.055 72.1514 142.58 71.069 142.7L71.4003 145.673ZM62.8603 145.777V142.787C61.2034 142.787 59.8603 144.125 59.8603 145.777H62.8603ZM62.8603 153.523V156.514C64.5171 156.514 65.8603 155.175 65.8603 153.523H62.8603ZM60.2703 153.523H57.2703C57.2703 155.175 58.6134 156.514 60.2703 156.514V153.523ZM60.2703 129.099V126.108C58.6134 126.108 57.2703 127.447 57.2703 129.099H60.2703ZM76.7903 131.332L74.8579 133.62L76.7903 131.332ZM77.9803 142.323L75.5651 140.549L75.5597 140.557L77.9803 142.323ZM73.8503 145.149L72.9239 142.305C72.015 142.599 71.3011 143.307 71.0015 144.211C70.7019 145.116 70.8525 146.109 71.407 146.885L73.8503 145.149ZM79.8353 153.523V156.514C80.9584 156.514 81.9875 155.889 82.502 154.893C83.0165 153.898 82.9303 152.7 82.2785 151.788L79.8353 153.523ZM74.9353 141.974L76.8599 144.268L74.9353 141.974ZM74.9353 132.937L73.0106 135.231C73.0189 135.238 73.0272 135.245 73.0356 135.252L74.9353 132.937ZM62.8603 131.332V128.341C61.2034 128.341 59.8603 129.68 59.8603 131.332H62.8603ZM62.8603 143.579H59.8603C59.8603 145.231 61.2034 146.57 62.8603 146.57V143.579ZM79.4451 151.79L73.8451 143.939L68.9554 147.406L74.5554 155.257L79.4451 151.79ZM71.069 142.7C70.5561 142.757 70.0136 142.787 69.4403 142.787V148.768C70.2203 148.768 70.9845 148.728 71.7316 148.645L71.069 142.7ZM69.4403 142.787H62.8603V148.768H69.4403V142.787ZM59.8603 145.777V153.523H65.8603V145.777H59.8603ZM62.8603 150.533H60.2703V156.514H62.8603V150.533ZM63.2703 153.523V129.099H57.2703V153.523H63.2703ZM60.2703 132.09H69.4403V126.108H60.2703V132.09ZM69.4403 132.09C72.1073 132.09 73.7886 132.722 74.8579 133.62L78.7227 129.044C76.2453 126.965 73.0266 126.108 69.4403 126.108V132.09ZM74.8579 133.62C75.8632 134.463 76.4503 135.624 76.4503 137.473H82.4503C82.4503 134.112 81.264 131.178 78.7227 129.044L74.8579 133.62ZM76.4503 137.473C76.4503 138.847 76.1073 139.816 75.5651 140.549L80.3954 144.098C81.8133 142.178 82.4503 139.915 82.4503 137.473H76.4503ZM75.5597 140.557C75.0344 141.271 74.2243 141.883 72.9239 142.305L74.7767 147.993C77.0696 147.252 79.0128 145.98 80.4009 144.09L75.5597 140.557ZM71.407 146.885L77.392 155.259L82.2785 151.788L76.2935 143.414L71.407 146.885ZM79.8353 150.533H77.0003V156.514H79.8353V150.533ZM69.3703 146.57C72.1912 146.57 74.8394 145.953 76.8599 144.268L73.0106 139.68C72.4645 140.136 71.4027 140.588 69.3703 140.588V146.57ZM76.8599 144.268C78.9361 142.537 79.8603 140.134 79.8603 137.473H73.8603C73.8603 138.673 73.5011 139.272 73.0106 139.68L76.8599 144.268ZM79.8603 137.473C79.8603 134.793 78.9531 132.35 76.835 130.622L73.0356 135.252C73.4841 135.618 73.8603 136.198 73.8603 137.473H79.8603ZM76.8599 130.643C74.8394 128.959 72.1912 128.341 69.3703 128.341V134.323C71.4027 134.323 72.4645 134.775 73.0106 135.231L76.8599 130.643ZM69.3703 128.341H62.8603V134.323H69.3703V128.341ZM59.8603 131.332V143.579H65.8603V131.332H59.8603ZM62.8603 146.57H69.3703V140.588H62.8603V146.57ZM106.388 151.29H109.388C109.388 149.638 108.045 148.299 106.388 148.299V151.29ZM106.388 153.523V156.514C108.045 156.514 109.388 155.175 109.388 153.523H106.388ZM89.0632 153.523H86.0632C86.0632 155.175 87.4064 156.514 89.0632 156.514V153.523ZM89.0632 129.099V126.108C87.4064 126.108 86.0632 127.447 86.0632 129.099H89.0632ZM105.863 129.099H108.863C108.863 127.447 107.52 126.108 105.863 126.108V129.099ZM105.863 131.332V134.323C107.52 134.323 108.863 132.984 108.863 131.332H105.863ZM91.6532 131.332V128.341C89.9964 128.341 88.6532 129.68 88.6532 131.332H91.6532ZM91.6532 140.02H88.6532C88.6532 141.672 89.9964 143.011 91.6532 143.011V140.02ZM104.323 140.02H107.323C107.323 138.368 105.98 137.029 104.323 137.029V140.02ZM104.323 142.218V145.209C105.98 145.209 107.323 143.87 107.323 142.218H104.323ZM91.6532 142.218V139.228C89.9964 139.228 88.6532 140.567 88.6532 142.218H91.6532ZM91.6532 151.29H88.6532C88.6532 152.942 89.9964 154.281 91.6532 154.281V151.29ZM103.388 151.29V153.523H109.388V151.29H103.388ZM106.388 150.533H89.0632V156.514H106.388V150.533ZM92.0632 153.523V129.099H86.0632V153.523H92.0632ZM89.0632 132.09H105.863V126.108H89.0632V132.09ZM102.863 129.099V131.332H108.863V129.099H102.863ZM105.863 128.341H91.6532V134.323H105.863V128.341ZM88.6532 131.332V140.02H94.6532V131.332H88.6532ZM91.6532 143.011H104.323V137.029H91.6532V143.011ZM101.323 140.02V142.218H107.323V140.02H101.323ZM104.323 139.228H91.6532V145.209H104.323V139.228ZM88.6532 142.218V151.29H94.6532V142.218H88.6532ZM91.6532 154.281H106.388V148.299H91.6532V154.281ZM122.486 131.332H125.486C125.486 129.68 124.143 128.341 122.486 128.341V131.332ZM113.876 131.332H110.876C110.876 132.984 112.219 134.323 113.876 134.323V131.332ZM113.876 129.099V126.108C112.219 126.108 110.876 127.447 110.876 129.099H113.876ZM133.686 129.099H136.686C136.686 127.447 135.343 126.108 133.686 126.108V129.099ZM133.686 131.332V134.323C135.343 134.323 136.686 132.984 136.686 131.332H133.686ZM125.076 131.332V128.341C123.419 128.341 122.076 129.68 122.076 131.332H125.076ZM125.076 153.523V156.514C126.733 156.514 128.076 155.175 128.076 153.523H125.076ZM122.486 153.523H119.486C119.486 155.175 120.829 156.514 122.486 156.514V153.523ZM122.486 128.341H113.876V134.323H122.486V128.341ZM116.876 131.332V129.099H110.876V131.332H116.876ZM113.876 132.09H133.686V126.108H113.876V132.09ZM130.686 129.099V131.332H136.686V129.099H130.686ZM133.686 128.341H125.076V134.323H133.686V128.341ZM122.076 131.332V153.523H128.076V131.332H122.076ZM125.076 150.533H122.486V156.514H125.076V150.533ZM125.486 153.523V131.332H119.486V153.523H125.486ZM158.649 151.29H161.649C161.649 149.638 160.306 148.299 158.649 148.299V151.29ZM158.649 153.523V156.514C160.306 156.514 161.649 155.175 161.649 153.523H158.649ZM141.324 153.523H138.324C138.324 155.175 139.667 156.514 141.324 156.514V153.523ZM141.324 129.099V126.108C139.667 126.108 138.324 127.447 138.324 129.099H141.324ZM158.124 129.099H161.124C161.124 127.447 159.781 126.108 158.124 126.108V129.099ZM158.124 131.332V134.323C159.781 134.323 161.124 132.984 161.124 131.332H158.124ZM143.914 131.332V128.341C142.257 128.341 140.914 129.68 140.914 131.332H143.914ZM143.914 140.02H140.914C140.914 141.672 142.257 143.011 143.914 143.011V140.02ZM156.584 140.02H159.584C159.584 138.368 158.241 137.029 156.584 137.029V140.02ZM156.584 142.218V145.209C158.241 145.209 159.584 143.87 159.584 142.218H156.584ZM143.914 142.218V139.228C142.257 139.228 140.914 140.567 140.914 142.218H143.914ZM143.914 151.29H140.914C140.914 152.942 142.257 154.281 143.914 154.281V151.29ZM155.649 151.29V153.523H161.649V151.29H155.649ZM158.649 150.533H141.324V156.514H158.649V150.533ZM144.324 153.523V129.099H138.324V153.523H144.324ZM141.324 132.09H158.124V126.108H141.324V132.09ZM155.124 129.099V131.332H161.124V129.099H155.124ZM158.124 128.341H143.914V134.323H158.124V128.341ZM140.914 131.332V140.02H146.914V131.332H140.914ZM143.914 143.011H156.584V137.029H143.914V143.011ZM153.584 140.02V142.218H159.584V140.02H153.584ZM156.584 139.228H143.914V145.209H156.584V139.228ZM140.914 142.218V151.29H146.914V142.218H140.914ZM143.914 154.281H158.649V148.299H143.914V154.281ZM184.967 153.523L182.522 155.257C183.085 156.045 183.996 156.514 184.967 156.514V153.523ZM179.367 145.673L181.812 143.939C181.181 143.055 180.118 142.58 179.036 142.7L179.367 145.673ZM170.827 145.777V142.787C169.17 142.787 167.827 144.125 167.827 145.777H170.827ZM170.827 153.523V156.514C172.484 156.514 173.827 155.175 173.827 153.523H170.827ZM168.237 153.523H165.237C165.237 155.175 166.58 156.514 168.237 156.514V153.523ZM168.237 129.099V126.108C166.58 126.108 165.237 127.447 165.237 129.099H168.237ZM184.757 131.332L182.825 133.62L184.757 131.332ZM185.947 142.323L183.532 140.549L183.526 140.557L185.947 142.323ZM181.817 145.149L180.891 142.305C179.982 142.599 179.268 143.307 178.968 144.211C178.669 145.116 178.819 146.109 179.374 146.885L181.817 145.149ZM187.802 153.523V156.514C188.925 156.514 189.954 155.889 190.469 154.893C190.983 153.898 190.897 152.7 190.245 151.788L187.802 153.523ZM182.902 141.974L184.827 144.268L182.902 141.974ZM182.902 132.937L180.977 135.231C180.986 135.238 180.994 135.245 181.002 135.252L182.902 132.937ZM170.827 131.332V128.341C169.17 128.341 167.827 129.68 167.827 131.332H170.827ZM170.827 143.579H167.827C167.827 145.231 169.17 146.57 170.827 146.57V143.579ZM187.412 151.79L181.812 143.939L176.922 147.406L182.522 155.257L187.412 151.79ZM179.036 142.7C178.523 142.757 177.98 142.787 177.407 142.787V148.768C178.187 148.768 178.951 148.728 179.698 148.645L179.036 142.7ZM177.407 142.787H170.827V148.768H177.407V142.787ZM167.827 145.777V153.523H173.827V145.777H167.827ZM170.827 150.533H168.237V156.514H170.827V150.533ZM171.237 153.523V129.099H165.237V153.523H171.237ZM168.237 132.09H177.407V126.108H168.237V132.09ZM177.407 132.09C180.074 132.09 181.755 132.722 182.825 133.62L186.689 129.044C184.212 126.965 180.993 126.108 177.407 126.108V132.09ZM182.825 133.62C183.83 134.463 184.417 135.624 184.417 137.473H190.417C190.417 134.112 189.231 131.178 186.689 129.044L182.825 133.62ZM184.417 137.473C184.417 138.847 184.074 139.816 183.532 140.549L188.362 144.098C189.78 142.178 190.417 139.915 190.417 137.473H184.417ZM183.526 140.557C183.001 141.271 182.191 141.883 180.891 142.305L182.743 147.993C185.036 147.252 186.98 145.98 188.368 144.09L183.526 140.557ZM179.374 146.885L185.359 155.259L190.245 151.788L184.26 143.414L179.374 146.885ZM187.802 150.533H184.967V156.514H187.802V150.533ZM177.337 146.57C180.158 146.57 182.806 145.953 184.827 144.268L180.977 139.68C180.431 140.136 179.369 140.588 177.337 140.588V146.57ZM184.827 144.268C186.903 142.537 187.827 140.134 187.827 137.473H181.827C181.827 138.673 181.468 139.272 180.977 139.68L184.827 144.268ZM187.827 137.473C187.827 134.793 186.92 132.35 184.802 130.622L181.002 135.252C181.451 135.618 181.827 136.198 181.827 137.473H187.827ZM184.827 130.643C182.806 128.959 180.158 128.341 177.337 128.341V134.323C179.369 134.323 180.431 134.775 180.977 135.231L184.827 130.643ZM177.337 128.341H170.827V134.323H177.337V128.341ZM167.827 131.332V143.579H173.827V131.332H167.827ZM170.827 146.57H177.337V140.588H170.827V146.57ZM197.03 129.099V126.108C195.373 126.108 194.03 127.447 194.03 129.099H197.03ZM199.62 129.099H202.62C202.62 127.447 201.277 126.108 199.62 126.108V129.099ZM199.62 153.523V156.514C201.277 156.514 202.62 155.175 202.62 153.523H199.62ZM197.03 153.523H194.03C194.03 155.175 195.373 156.514 197.03 156.514V153.523ZM197.03 132.09H199.62V126.108H197.03V132.09ZM196.62 129.099V153.523H202.62V129.099H196.62ZM199.62 150.533H197.03V156.514H199.62V150.533ZM200.03 153.523V129.099H194.03V153.523H200.03ZM215.852 131.332H218.852C218.852 129.68 217.508 128.341 215.852 128.341V131.332ZM207.242 131.332H204.242C204.242 132.984 205.585 134.323 207.242 134.323V131.332ZM207.242 129.099V126.108C205.585 126.108 204.242 127.447 204.242 129.099H207.242ZM227.052 129.099H230.052C230.052 127.447 228.708 126.108 227.052 126.108V129.099ZM227.052 131.332V134.323C228.708 134.323 230.052 132.984 230.052 131.332H227.052ZM218.442 131.332V128.341C216.785 128.341 215.442 129.68 215.442 131.332H218.442ZM218.442 153.523V156.514C220.098 156.514 221.442 155.175 221.442 153.523H218.442ZM215.852 153.523H212.852C212.852 155.175 214.195 156.514 215.852 156.514V153.523ZM215.852 128.341H207.242V134.323H215.852V128.341ZM210.242 131.332V129.099H204.242V131.332H210.242ZM207.242 132.09H227.052V126.108H207.242V132.09ZM224.052 129.099V131.332H230.052V129.099H224.052ZM227.052 128.341H218.442V134.323H227.052V128.341ZM215.442 131.332V153.523H221.442V131.332H215.442ZM218.442 150.533H215.852V156.514H218.442V150.533ZM218.852 153.523V131.332H212.852V153.523H218.852ZM252.014 151.29H255.014C255.014 149.638 253.671 148.299 252.014 148.299V151.29ZM252.014 153.523V156.514C253.671 156.514 255.014 155.175 255.014 153.523H252.014ZM234.689 153.523H231.689C231.689 155.175 233.032 156.514 234.689 156.514V153.523ZM234.689 129.099V126.108C233.032 126.108 231.689 127.447 231.689 129.099H234.689ZM251.489 129.099H254.489C254.489 127.447 253.146 126.108 251.489 126.108V129.099ZM251.489 131.332V134.323C253.146 134.323 254.489 132.984 254.489 131.332H251.489ZM237.279 131.332V128.341C235.622 128.341 234.279 129.68 234.279 131.332H237.279ZM237.279 140.02H234.279C234.279 141.672 235.622 143.011 237.279 143.011V140.02ZM249.949 140.02H252.949C252.949 138.368 251.606 137.029 249.949 137.029V140.02ZM249.949 142.218V145.209C251.606 145.209 252.949 143.87 252.949 142.218H249.949ZM237.279 142.218V139.228C235.622 139.228 234.279 140.567 234.279 142.218H237.279ZM237.279 151.29H234.279C234.279 152.942 235.622 154.281 237.279 154.281V151.29ZM249.014 151.29V153.523H255.014V151.29H249.014ZM252.014 150.533H234.689V156.514H252.014V150.533ZM237.689 153.523V129.099H231.689V153.523H237.689ZM234.689 132.09H251.489V126.108H234.689V132.09ZM248.489 129.099V131.332H254.489V129.099H248.489ZM251.489 128.341H237.279V134.323H251.489V128.341ZM234.279 131.332V140.02H240.279V131.332H234.279ZM237.279 143.011H249.949V137.029H237.279V143.011ZM246.949 140.02V142.218H252.949V140.02H246.949ZM249.949 139.228H237.279V145.209H249.949V139.228ZM234.279 142.218V151.29H240.279V142.218H234.279ZM237.279 154.281H252.014V148.299H237.279V154.281Z" fill="#FA9766"/>
<path d="M124.28 104.057H119.08V103.678H129.88V104.057H124.68V117.635H124.28V104.057ZM145.617 103.678V117.635H145.217V110.736H135.017V117.635H134.617V103.678H135.017V110.357H145.217V103.678H145.617ZM162.265 117.256V117.635H152.945V103.678H161.965V104.057H153.345V110.357H161.065V110.736H153.345V117.256H162.265Z" fill="#FA9766"/>
<path d="M124.28 104.057H126.28C126.28 102.955 125.385 102.063 124.28 102.063V104.057ZM119.08 104.057H117.08C117.08 105.159 117.975 106.051 119.08 106.051V104.057ZM119.08 103.678V101.684C117.975 101.684 117.08 102.577 117.08 103.678H119.08ZM129.88 103.678H131.88C131.88 102.577 130.985 101.684 129.88 101.684V103.678ZM129.88 104.057V106.051C130.985 106.051 131.88 105.159 131.88 104.057H129.88ZM124.68 104.057V102.063C123.575 102.063 122.68 102.955 122.68 104.057H124.68ZM124.68 117.635V119.629C125.785 119.629 126.68 118.736 126.68 117.635H124.68ZM124.28 117.635H122.28C122.28 118.736 123.175 119.629 124.28 119.629V117.635ZM124.28 102.063H119.08V106.051H124.28V102.063ZM121.08 104.057V103.678H117.08V104.057H121.08ZM119.08 105.672H129.88V101.684H119.08V105.672ZM127.88 103.678V104.057H131.88V103.678H127.88ZM129.88 102.063H124.68V106.051H129.88V102.063ZM122.68 104.057V117.635H126.68V104.057H122.68ZM124.68 115.641H124.28V119.629H124.68V115.641ZM126.28 117.635V104.057H122.28V117.635H126.28ZM145.617 103.678H147.617C147.617 102.577 146.722 101.684 145.617 101.684V103.678ZM145.617 117.635V119.629C146.722 119.629 147.617 118.736 147.617 117.635H145.617ZM145.217 117.635H143.217C143.217 118.736 144.112 119.629 145.217 119.629V117.635ZM145.217 110.736H147.217C147.217 109.635 146.322 108.742 145.217 108.742V110.736ZM135.017 110.736V108.742C133.912 108.742 133.017 109.635 133.017 110.736H135.017ZM135.017 117.635V119.629C136.122 119.629 137.017 118.736 137.017 117.635H135.017ZM134.617 117.635H132.617C132.617 118.736 133.512 119.629 134.617 119.629V117.635ZM134.617 103.678V101.684C133.512 101.684 132.617 102.577 132.617 103.678H134.617ZM135.017 103.678H137.017C137.017 102.577 136.122 101.684 135.017 101.684V103.678ZM135.017 110.357H133.017C133.017 111.459 133.912 112.351 135.017 112.351V110.357ZM145.217 110.357V112.351C146.322 112.351 147.217 111.459 147.217 110.357H145.217ZM145.217 103.678V101.684C144.112 101.684 143.217 102.577 143.217 103.678H145.217ZM143.617 103.678V117.635H147.617V103.678H143.617ZM145.617 115.641H145.217V119.629H145.617V115.641ZM147.217 117.635V110.736H143.217V117.635H147.217ZM145.217 108.742H135.017V112.73H145.217V108.742ZM133.017 110.736V117.635H137.017V110.736H133.017ZM135.017 115.641H134.617V119.629H135.017V115.641ZM136.617 117.635V103.678H132.617V117.635H136.617ZM134.617 105.672H135.017V101.684H134.617V105.672ZM133.017 103.678V110.357H137.017V103.678H133.017ZM135.017 112.351H145.217V108.364H135.017V112.351ZM147.217 110.357V103.678H143.217V110.357H147.217ZM145.217 105.672H145.617V101.684H145.217V105.672ZM162.265 117.256H164.265C164.265 116.154 163.37 115.262 162.265 115.262V117.256ZM162.265 117.635V119.629C163.37 119.629 164.265 118.736 164.265 117.635H162.265ZM152.945 117.635H150.945C150.945 118.736 151.841 119.629 152.945 119.629V117.635ZM152.945 103.678V101.684C151.841 101.684 150.945 102.577 150.945 103.678H152.945ZM161.965 103.678H163.965C163.965 102.577 163.07 101.684 161.965 101.684V103.678ZM161.965 104.057V106.051C163.07 106.051 163.965 105.159 163.965 104.057H161.965ZM153.345 104.057V102.063C152.241 102.063 151.345 102.955 151.345 104.057H153.345ZM153.345 110.357H151.345C151.345 111.459 152.241 112.351 153.345 112.351V110.357ZM161.065 110.357H163.065C163.065 109.256 162.17 108.364 161.065 108.364V110.357ZM161.065 110.736V112.73C162.17 112.73 163.065 111.838 163.065 110.736H161.065ZM153.345 110.736V108.742C152.241 108.742 151.345 109.635 151.345 110.736H153.345ZM153.345 117.256H151.345C151.345 118.358 152.241 119.25 153.345 119.25V117.256ZM160.265 117.256V117.635H164.265V117.256H160.265ZM162.265 115.641H152.945V119.629H162.265V115.641ZM154.945 117.635V103.678H150.945V117.635H154.945ZM152.945 105.672H161.965V101.684H152.945V105.672ZM159.965 103.678V104.057H163.965V103.678H159.965ZM161.965 102.063H153.345V106.051H161.965V102.063ZM151.345 104.057V110.357H155.345V104.057H151.345ZM153.345 112.351H161.065V108.364H153.345V112.351ZM159.065 110.357V110.736H163.065V110.357H159.065ZM161.065 108.742H153.345V112.73H161.065V108.742ZM151.345 110.736V117.256H155.345V110.736H151.345ZM153.345 119.25H162.265V115.262H153.345V119.25Z" fill="#FA9766"/>
<path d="M0 141.258C9.46667 142.303 14.2 146.449 35.5 147.043C56.8 147.638 90.4213 136.339 126 136.576C159.64 136.8 176 147.043 211.5 147.043C247 147.043 265.067 137.224 284 136.576V321.003H274.533C265.067 321.003 246.133 321.003 227.2 321.003C208.267 321.003 189.333 321.003 170.4 321.003C151.467 321.003 132.533 321.003 113.6 321.003C94.6667 321.003 75.7333 321.003 56.8 321.003C37.8667 321.003 18.9333 321.003 9.46667 321.003H0V141.258Z" fill="#FA9766"/>
<path d="M0 181.66L9.46667 181.955C18.9333 182.207 37.8667 182.795 56.8 178.17C75.7333 173.543 94.6667 163.703 113.6 161.179C132.533 158.656 151.467 163.45 170.4 171.062C189.333 178.716 208.267 189.23 227.2 191.669C246.133 194.15 265.067 188.515 274.533 185.739L284 182.922V312.031H274.533C265.067 312.031 246.133 312.031 227.2 312.031C208.267 312.031 189.333 312.031 170.4 312.031C151.467 312.031 132.533 312.031 113.6 312.031C94.6667 312.031 75.7333 312.031 56.8 312.031C37.8667 312.031 18.9333 312.031 9.46667 312.031H0V181.66Z" fill="#FB8851"/>
<path d="M0 232.341C0 232.341 0 232.381 9.46667 225.501C18.9333 218.62 37.8667 204.937 56.8 204.78C75.7333 204.661 94.6667 218.106 113.6 218.423C132.533 218.778 151.467 205.966 170.4 205.531C189.333 205.056 208.267 216.919 227.2 215.338C246.133 213.756 265.067 198.73 274.533 191.216L284 183.702V311.43H274.533C265.067 311.43 246.133 311.43 227.2 311.43C208.267 311.43 189.333 311.43 170.4 311.43C151.467 311.43 132.533 311.43 113.6 311.43C94.6667 311.43 75.7333 311.43 56.8 311.43C37.8667 311.43 18.9333 311.43 9.46667 311.43H0V232.341Z" fill="#FB783B"/>
<path d="M0 241.124L9.46667 245.276C18.9333 249.428 37.8667 257.732 56.8 255.36C75.7333 252.987 94.6667 239.938 113.6 235.588C132.533 231.239 151.467 235.588 170.4 237.961C189.333 240.334 208.267 240.729 227.2 238.158C246.133 235.588 265.067 230.052 274.533 227.284L284 224.516V321.399H274.533C265.067 321.399 246.133 321.399 227.2 321.399C208.267 321.399 189.333 321.399 170.4 321.399C151.467 321.399 132.533 321.399 113.6 321.399C94.6667 321.399 75.7333 321.399 56.8 321.399C37.8667 321.399 18.9333 321.399 9.46667 321.399H0V241.124Z" fill="#FB6723"/>
<path d="M0 285.322L9.46667 285.44C18.9333 285.599 37.8667 285.836 56.8 286.587C75.7333 287.299 94.6667 288.485 113.6 288.802C132.533 289.158 151.467 288.604 170.4 284.057C189.333 279.509 208.267 270.967 227.2 267.724C246.133 264.482 265.067 266.618 274.533 267.646L284 268.713V321.307H274.533C265.067 321.307 246.133 321.307 227.2 321.307C208.267 321.307 189.333 321.307 170.4 321.307C151.467 321.307 132.533 321.307 113.6 321.307C94.6667 321.307 75.7333 321.307 56.8 321.307C37.8667 321.307 18.9333 321.307 9.46667 321.307H0V285.322Z" fill="#FA5300"/>
<g style="mix-blend-mode:soft-light">
<path d="M26 192.403H258" stroke="white"/>
</g>
<path d="M71.952 206.559C74.064 206.559 75.72 207.061 76.92 208.066C78.12 209.055 78.72 210.435 78.72 212.205C78.72 213.96 78.12 215.339 76.92 216.344C75.72 217.333 74.064 217.828 71.952 217.828H67.152V223.307H65.928V206.559H71.952ZM71.952 216.727C73.744 216.727 75.112 216.336 76.056 215.555C77 214.773 77.472 213.657 77.472 212.205C77.472 210.754 77 209.637 76.056 208.855C75.112 208.058 73.744 207.659 71.952 207.659H67.152V216.727H71.952ZM96.9139 223.307L92.9059 217.708C92.3139 217.788 91.7699 217.828 91.2739 217.828H86.4739V223.307H85.2499V206.559H91.2739C93.3859 206.559 95.0419 207.061 96.2419 208.066C97.4419 209.055 98.0419 210.435 98.0419 212.205C98.0419 213.529 97.6979 214.645 97.0099 215.555C96.3379 216.448 95.3699 217.078 94.1059 217.445L98.3059 223.307H96.9139ZM91.2739 216.751C93.0659 216.751 94.4339 216.36 95.3779 215.579C96.3219 214.781 96.7939 213.657 96.7939 212.205C96.7939 210.754 96.3219 209.637 95.3779 208.855C94.4339 208.058 93.0659 207.659 91.2739 207.659H86.4739V216.751H91.2739ZM116.515 222.206V223.307H104.923V206.559H116.155V207.659H106.147V214.263H115.099V215.339H106.147V222.206H116.515ZM127.794 207.659H121.746V206.559H135.066V207.659H129.018V223.307H127.794V207.659ZM152.093 222.206V223.307H140.501V206.559H151.733V207.659H141.725V214.263H150.677V215.339H141.725V222.206H152.093ZM170.62 223.307L166.612 217.708C166.02 217.788 165.476 217.828 164.98 217.828H160.18V223.307H158.956V206.559H164.98C167.092 206.559 168.748 207.061 169.948 208.066C171.148 209.055 171.748 210.435 171.748 212.205C171.748 213.529 171.404 214.645 170.716 215.555C170.044 216.448 169.076 217.078 167.812 217.445L172.012 223.307H170.62ZM164.98 216.751C166.772 216.751 168.14 216.36 169.084 215.579C170.028 214.781 170.5 213.657 170.5 212.205C170.5 210.754 170.028 209.637 169.084 208.855C168.14 208.058 166.772 207.659 164.98 207.659H160.18V216.751H164.98ZM178.63 206.559H179.854V223.307H178.63V206.559ZM191.324 207.659H185.276V206.559H198.596V207.659H192.548V223.307H191.324V207.659ZM210.925 223.426C209.277 223.426 207.789 223.059 206.461 222.326C205.133 221.576 204.085 220.555 203.317 219.263C202.565 217.971 202.189 216.528 202.189 214.933C202.189 213.338 202.565 211.894 203.317 210.602C204.085 209.31 205.133 208.297 206.461 207.563C207.789 206.814 209.277 206.439 210.925 206.439C212.573 206.439 214.061 206.806 215.389 207.54C216.717 208.273 217.757 209.286 218.509 210.578C219.277 211.87 219.661 213.322 219.661 214.933C219.661 216.544 219.277 217.995 218.509 219.287C217.757 220.579 216.717 221.592 215.389 222.326C214.061 223.059 212.573 223.426 210.925 223.426ZM210.925 222.302C212.333 222.302 213.605 221.983 214.741 221.345C215.877 220.707 216.773 219.829 217.429 218.713C218.085 217.58 218.413 216.32 218.413 214.933C218.413 213.545 218.085 212.293 217.429 211.176C216.773 210.044 215.877 209.159 214.741 208.52C213.605 207.882 212.333 207.563 210.925 207.563C209.517 207.563 208.237 207.882 207.085 208.52C205.949 209.159 205.053 210.044 204.397 211.176C203.741 212.293 203.413 213.545 203.413 214.933C203.413 216.32 203.741 217.58 204.397 218.713C205.053 219.829 205.949 220.707 207.085 221.345C208.237 221.983 209.517 222.302 210.925 222.302Z" fill="white"/>
<path d="M76.92 208.066L75.4728 209.783C75.4773 209.787 75.4819 209.79 75.4864 209.794L76.92 208.066ZM76.92 216.344L78.3536 218.073C78.3581 218.069 78.3627 218.066 78.3672 218.062L76.92 216.344ZM67.152 217.827V215.584C65.9094 215.584 64.902 216.588 64.902 217.827H67.152ZM67.152 223.306V225.549C68.3946 225.549 69.402 224.546 69.402 223.306H67.152ZM65.928 223.306H63.678C63.678 224.546 64.6854 225.549 65.928 225.549V223.306ZM65.928 206.558V204.315C64.6854 204.315 63.678 205.319 63.678 206.558H65.928ZM76.056 215.555L77.4935 217.28L76.056 215.555ZM76.056 208.855L74.6013 210.567C74.607 210.571 74.6127 210.576 74.6185 210.581L76.056 208.855ZM67.152 207.659V205.416C65.9094 205.416 64.902 206.42 64.902 207.659H67.152ZM67.152 216.727H64.902C64.902 217.966 65.9094 218.97 67.152 218.97V216.727ZM71.952 208.801C73.7193 208.801 74.8001 209.22 75.4728 209.783L78.3672 206.348C76.6399 204.902 74.4087 204.315 71.952 204.315V208.801ZM75.4864 209.794C76.0929 210.295 76.47 210.998 76.47 212.205H80.97C80.97 209.871 80.1471 207.815 78.3536 206.337L75.4864 209.794ZM76.47 212.205C76.47 213.388 76.0974 214.103 75.4728 214.626L78.3672 218.062C80.1426 216.575 80.97 214.531 80.97 212.205H76.47ZM75.4864 214.615C74.8132 215.17 73.7271 215.584 71.952 215.584V220.07C74.4009 220.07 76.6268 219.496 78.3536 218.073L75.4864 214.615ZM71.952 215.584H67.152V220.07H71.952V215.584ZM64.902 217.827V223.306H69.402V217.827H64.902ZM67.152 221.063H65.928V225.549H67.152V221.063ZM68.178 223.306V206.558H63.678V223.306H68.178ZM65.928 208.801H71.952V204.315H65.928V208.801ZM71.952 218.97C74.034 218.97 75.9956 218.52 77.4935 217.28L74.6185 213.829C74.2284 214.152 73.454 214.484 71.952 214.484V218.97ZM77.4935 217.28C79.0499 215.991 79.722 214.186 79.722 212.205H75.222C75.222 213.127 74.9501 213.555 74.6185 213.829L77.4935 217.28ZM79.722 212.205C79.722 210.224 79.0499 208.419 77.4935 207.13L74.6185 210.581C74.9501 210.855 75.222 211.283 75.222 212.205H79.722ZM77.5107 207.144C76.0119 205.878 74.0431 205.416 71.952 205.416V209.902C73.4449 209.902 74.2121 210.238 74.6013 210.567L77.5107 207.144ZM71.952 205.416H67.152V209.902H71.952V205.416ZM64.902 207.659V216.727H69.402V207.659H64.902ZM67.152 218.97H71.952V214.484H67.152V218.97ZM96.9139 223.306L95.0824 224.609C95.5047 225.2 96.1869 225.549 96.9139 225.549V223.306ZM92.9059 217.708L94.7373 216.405C94.2525 215.728 93.4316 215.374 92.6046 215.485L92.9059 217.708ZM86.4739 217.827V215.584C85.2312 215.584 84.2239 216.588 84.2239 217.827H86.4739ZM86.4739 223.306V225.549C87.7165 225.549 88.7239 224.546 88.7239 223.306H86.4739ZM85.2499 223.306H82.9999C82.9999 224.546 84.0072 225.549 85.2499 225.549V223.306ZM85.2499 206.558V204.315C84.0072 204.315 82.9999 205.319 82.9999 206.558H85.2499ZM96.2419 208.066L94.7947 209.783C94.7992 209.787 94.8037 209.79 94.8083 209.794L96.2419 208.066ZM97.0099 215.555L95.2137 214.204L95.2099 214.209L97.0099 215.555ZM94.1059 217.445L93.4769 215.291C92.7767 215.495 92.2187 216.023 91.9799 216.71C91.7411 217.397 91.8511 218.156 92.275 218.749L94.1059 217.445ZM98.3059 223.306V225.549C99.1487 225.549 99.9208 225.08 100.307 224.333C100.692 223.586 100.627 222.686 100.137 222.003L98.3059 223.306ZM95.3779 215.578L96.8154 217.304C96.8211 217.299 96.8269 217.294 96.8325 217.29L95.3779 215.578ZM95.3779 208.855L93.9232 210.567C93.9289 210.571 93.9346 210.576 93.9403 210.581L95.3779 208.855ZM86.4739 207.659V205.416C85.2312 205.416 84.2239 206.42 84.2239 207.659H86.4739ZM86.4739 216.751H84.2239C84.2239 217.99 85.2312 218.994 86.4739 218.994V216.751ZM98.7453 222.003L94.7373 216.405L91.0744 219.011L95.0824 224.609L98.7453 222.003ZM92.6046 215.485C92.093 215.554 91.6512 215.584 91.2739 215.584V220.07C91.8885 220.07 92.5348 220.022 93.2072 219.931L92.6046 215.485ZM91.2739 215.584H86.4739V220.07H91.2739V215.584ZM84.2239 217.827V223.306H88.7239V217.827H84.2239ZM86.4739 221.063H85.2499V225.549H86.4739V221.063ZM87.4999 223.306V206.558H82.9999V223.306H87.4999ZM85.2499 208.801H91.2739V204.315H85.2499V208.801ZM91.2739 208.801C93.0412 208.801 94.122 209.22 94.7947 209.783L97.6891 206.348C95.9618 204.902 93.7306 204.315 91.2739 204.315V208.801ZM94.8083 209.794C95.4148 210.295 95.7919 210.998 95.7919 212.205H100.292C100.292 209.871 99.469 207.815 97.6755 206.337L94.8083 209.794ZM95.7919 212.205C95.7919 213.124 95.5611 213.744 95.2137 214.204L98.8061 216.905C99.8347 215.547 100.292 213.934 100.292 212.205H95.7919ZM95.2099 214.209C94.8792 214.648 94.3581 215.035 93.4769 215.291L94.7348 219.598C96.3817 219.12 97.7966 218.247 98.8099 216.9L95.2099 214.209ZM92.275 218.749L96.475 224.61L100.137 222.003L95.9368 216.141L92.275 218.749ZM98.3059 221.063H96.9139V225.549H98.3059V221.063ZM91.2739 218.994C93.3558 218.994 95.3175 218.544 96.8154 217.304L93.9403 213.853C93.5502 214.176 92.7759 214.508 91.2739 214.508V218.994ZM96.8325 217.29C98.372 215.989 99.0439 214.187 99.0439 212.205H94.5439C94.5439 213.126 94.2718 213.573 93.9232 213.867L96.8325 217.29ZM99.0439 212.205C99.0439 210.224 98.3718 208.419 96.8154 207.13L93.9403 210.581C94.272 210.855 94.5439 211.283 94.5439 212.205H99.0439ZM96.8325 207.144C95.3337 205.878 93.365 205.416 91.2739 205.416V209.902C92.7667 209.902 93.534 210.238 93.9232 210.567L96.8325 207.144ZM91.2739 205.416H86.4739V209.902H91.2739V205.416ZM84.2239 207.659V216.751H88.7239V207.659H84.2239ZM86.4739 218.994H91.2739V214.508H86.4739V218.994ZM116.515 222.206H118.765C118.765 220.967 117.758 219.963 116.515 219.963V222.206ZM116.515 223.306V225.549C117.758 225.549 118.765 224.546 118.765 223.306H116.515ZM104.923 223.306H102.673C102.673 224.546 103.681 225.549 104.923 225.549V223.306ZM104.923 206.558V204.315C103.681 204.315 102.673 205.319 102.673 206.558H104.923ZM116.155 206.558H118.405C118.405 205.319 117.398 204.315 116.155 204.315V206.558ZM116.155 207.659V209.902C117.398 209.902 118.405 208.898 118.405 207.659H116.155ZM106.147 207.659V205.416C104.905 205.416 103.897 206.42 103.897 207.659H106.147ZM106.147 214.263H103.897C103.897 215.502 104.905 216.506 106.147 216.506V214.263ZM115.099 214.263H117.349C117.349 213.023 116.342 212.019 115.099 212.019V214.263ZM115.099 215.339V217.582C116.342 217.582 117.349 216.578 117.349 215.339H115.099ZM106.147 215.339V213.096C104.905 213.096 103.897 214.1 103.897 215.339H106.147ZM106.147 222.206H103.897C103.897 223.445 104.905 224.449 106.147 224.449V222.206ZM114.265 222.206V223.306H118.765V222.206H114.265ZM116.515 221.063H104.923V225.549H116.515V221.063ZM107.173 223.306V206.558H102.673V223.306H107.173ZM104.923 208.801H116.155V204.315H104.923V208.801ZM113.905 206.558V207.659H118.405V206.558H113.905ZM116.155 205.416H106.147V209.902H116.155V205.416ZM103.897 207.659V214.263H108.397V207.659H103.897ZM106.147 216.506H115.099V212.019H106.147V216.506ZM112.849 214.263V215.339H117.349V214.263H112.849ZM115.099 213.096H106.147V217.582H115.099V213.096ZM103.897 215.339V222.206H108.397V215.339H103.897ZM106.147 224.449H116.515V219.963H106.147V224.449ZM127.794 207.659H130.044C130.044 206.42 129.037 205.416 127.794 205.416V207.659ZM121.746 207.659H119.496C119.496 208.898 120.503 209.902 121.746 209.902V207.659ZM121.746 206.558V204.315C120.503 204.315 119.496 205.319 119.496 206.558H121.746ZM135.066 206.558H137.316C137.316 205.319 136.309 204.315 135.066 204.315V206.558ZM135.066 207.659V209.902C136.309 209.902 137.316 208.898 137.316 207.659H135.066ZM129.018 207.659V205.416C127.775 205.416 126.768 206.42 126.768 207.659H129.018ZM129.018 223.306V225.549C130.261 225.549 131.268 224.546 131.268 223.306H129.018ZM127.794 223.306H125.544C125.544 224.546 126.551 225.549 127.794 225.549V223.306ZM127.794 205.416H121.746V209.902H127.794V205.416ZM123.996 207.659V206.558H119.496V207.659H123.996ZM121.746 208.801H135.066V204.315H121.746V208.801ZM132.816 206.558V207.659H137.316V206.558H132.816ZM135.066 205.416H129.018V209.902H135.066V205.416ZM126.768 207.659V223.306H131.268V207.659H126.768ZM129.018 221.063H127.794V225.549H129.018V221.063ZM130.044 223.306V207.659H125.544V223.306H130.044ZM152.093 222.206H154.343C154.343 220.967 153.336 219.963 152.093 219.963V222.206ZM152.093 223.306V225.549C153.336 225.549 154.343 224.546 154.343 223.306H152.093ZM140.501 223.306H138.251C138.251 224.546 139.259 225.549 140.501 225.549V223.306ZM140.501 206.558V204.315C139.259 204.315 138.251 205.319 138.251 206.558H140.501ZM151.733 206.558H153.983C153.983 205.319 152.976 204.315 151.733 204.315V206.558ZM151.733 207.659V209.902C152.976 209.902 153.983 208.898 153.983 207.659H151.733ZM141.725 207.659V205.416C140.483 205.416 139.475 206.42 139.475 207.659H141.725ZM141.725 214.263H139.475C139.475 215.502 140.483 216.506 141.725 216.506V214.263ZM150.677 214.263H152.927C152.927 213.023 151.92 212.019 150.677 212.019V214.263ZM150.677 215.339V217.582C151.92 217.582 152.927 216.578 152.927 215.339H150.677ZM141.725 215.339V213.096C140.483 213.096 139.475 214.1 139.475 215.339H141.725ZM141.725 222.206H139.475C139.475 223.445 140.483 224.449 141.725 224.449V222.206ZM149.843 222.206V223.306H154.343V222.206H149.843ZM152.093 221.063H140.501V225.549H152.093V221.063ZM142.751 223.306V206.558H138.251V223.306H142.751ZM140.501 208.801H151.733V204.315H140.501V208.801ZM149.483 206.558V207.659H153.983V206.558H149.483ZM151.733 205.416H141.725V209.902H151.733V205.416ZM139.475 207.659V214.263H143.975V207.659H139.475ZM141.725 216.506H150.677V212.019H141.725V216.506ZM148.427 214.263V215.339H152.927V214.263H148.427ZM150.677 213.096H141.725V217.582H150.677V213.096ZM139.475 215.339V222.206H143.975V215.339H139.475ZM141.725 224.449H152.093V219.963H141.725V224.449ZM170.62 223.306L168.789 224.609C169.211 225.2 169.893 225.549 170.62 225.549V223.306ZM166.612 217.708L168.444 216.405C167.959 215.728 167.138 215.374 166.311 215.485L166.612 217.708ZM160.18 217.827V215.584C158.937 215.584 157.93 216.588 157.93 217.827H160.18ZM160.18 223.306V225.549C161.423 225.549 162.43 224.546 162.43 223.306H160.18ZM158.956 223.306H156.706C156.706 224.546 157.713 225.549 158.956 225.549V223.306ZM158.956 206.558V204.315C157.713 204.315 156.706 205.319 156.706 206.558H158.956ZM169.948 208.066L168.501 209.783C168.505 209.787 168.51 209.79 168.515 209.794L169.948 208.066ZM170.716 215.555L168.92 214.204L168.916 214.209L170.716 215.555ZM167.812 217.445L167.183 215.291C166.483 215.495 165.925 216.023 165.686 216.71C165.447 217.397 165.557 218.156 165.981 218.749L167.812 217.445ZM172.012 223.306V225.549C172.855 225.549 173.627 225.08 174.013 224.333C174.398 223.586 174.333 222.686 173.843 222.003L172.012 223.306ZM169.084 215.578L170.522 217.304C170.527 217.299 170.533 217.294 170.539 217.29L169.084 215.578ZM169.084 208.855L167.629 210.567C167.635 210.571 167.641 210.576 167.647 210.581L169.084 208.855ZM160.18 207.659V205.416C158.937 205.416 157.93 206.42 157.93 207.659H160.18ZM160.18 216.751H157.93C157.93 217.99 158.937 218.994 160.18 218.994V216.751ZM172.452 222.003L168.444 216.405L164.781 219.011L168.789 224.609L172.452 222.003ZM166.311 215.485C165.799 215.554 165.357 215.584 164.98 215.584V220.07C165.595 220.07 166.241 220.022 166.913 219.931L166.311 215.485ZM164.98 215.584H160.18V220.07H164.98V215.584ZM157.93 217.827V223.306H162.43V217.827H157.93ZM160.18 221.063H158.956V225.549H160.18V221.063ZM161.206 223.306V206.558H156.706V223.306H161.206ZM158.956 208.801H164.98V204.315H158.956V208.801ZM164.98 208.801C166.747 208.801 167.828 209.22 168.501 209.783L171.395 206.348C169.668 204.902 167.437 204.315 164.98 204.315V208.801ZM168.515 209.794C169.121 210.295 169.498 210.998 169.498 212.205H173.998C173.998 209.871 173.175 207.815 171.382 206.337L168.515 209.794ZM169.498 212.205C169.498 213.124 169.267 213.744 168.92 214.204L172.512 216.905C173.541 215.547 173.998 213.934 173.998 212.205H169.498ZM168.916 214.209C168.585 214.648 168.064 215.035 167.183 215.291L168.441 219.598C170.088 219.12 171.503 218.247 172.516 216.9L168.916 214.209ZM165.981 218.749L170.181 224.61L173.843 222.003L169.643 216.141L165.981 218.749ZM172.012 221.063H170.62V225.549H172.012V221.063ZM164.98 218.994C167.062 218.994 169.024 218.544 170.522 217.304L167.647 213.853C167.256 214.176 166.482 214.508 164.98 214.508V218.994ZM170.539 217.29C172.078 215.989 172.75 214.187 172.75 212.205H168.25C168.25 213.126 167.978 213.573 167.629 213.867L170.539 217.29ZM172.75 212.205C172.75 210.224 172.078 208.419 170.522 207.13L167.647 210.581C167.978 210.855 168.25 211.283 168.25 212.205H172.75ZM170.539 207.144C169.04 205.878 167.071 205.416 164.98 205.416V209.902C166.473 209.902 167.24 210.238 167.629 210.567L170.539 207.144ZM164.98 205.416H160.18V209.902H164.98V205.416ZM157.93 207.659V216.751H162.43V207.659H157.93ZM160.18 218.994H164.98V214.508H160.18V218.994ZM178.63 206.558V204.315C177.387 204.315 176.38 205.319 176.38 206.558H178.63ZM179.854 206.558H182.104C182.104 205.319 181.096 204.315 179.854 204.315V206.558ZM179.854 223.306V225.549C181.096 225.549 182.104 224.546 182.104 223.306H179.854ZM178.63 223.306H176.38C176.38 224.546 177.387 225.549 178.63 225.549V223.306ZM178.63 208.801H179.854V204.315H178.63V208.801ZM177.604 206.558V223.306H182.104V206.558H177.604ZM179.854 221.063H178.63V225.549H179.854V221.063ZM180.88 223.306V206.558H176.38V223.306H180.88ZM191.324 207.659H193.574C193.574 206.42 192.566 205.416 191.324 205.416V207.659ZM185.276 207.659H183.026C183.026 208.898 184.033 209.902 185.276 209.902V207.659ZM185.276 206.558V204.315C184.033 204.315 183.026 205.319 183.026 206.558H185.276ZM198.596 206.558H200.846C200.846 205.319 199.838 204.315 198.596 204.315V206.558ZM198.596 207.659V209.902C199.838 209.902 200.846 208.898 200.846 207.659H198.596ZM192.548 207.659V205.416C191.305 205.416 190.298 206.42 190.298 207.659H192.548ZM192.548 223.306V225.549C193.79 225.549 194.798 224.546 194.798 223.306H192.548ZM191.324 223.306H189.074C189.074 224.546 190.081 225.549 191.324 225.549V223.306ZM191.324 205.416H185.276V209.902H191.324V205.416ZM187.526 207.659V206.558H183.026V207.659H187.526ZM185.276 208.801H198.596V204.315H185.276V208.801ZM196.346 206.558V207.659H200.846V206.558H196.346ZM198.596 205.416H192.548V209.902H198.596V205.416ZM190.298 207.659V223.306H194.798V207.659H190.298ZM192.548 221.063H191.324V225.549H192.548V221.063ZM193.574 223.306V207.659H189.074V223.306H193.574ZM206.461 222.326L205.352 224.277C205.358 224.28 205.364 224.284 205.37 224.287L206.461 222.326ZM203.317 219.263L201.371 220.389C201.374 220.394 201.378 220.4 201.381 220.406L203.317 219.263ZM203.317 210.602L201.381 209.458C201.378 209.464 201.374 209.47 201.371 209.476L203.317 210.602ZM206.461 207.563L207.551 209.525C207.557 209.522 207.563 209.518 207.569 209.515L206.461 207.563ZM218.509 210.578L216.563 211.703C216.566 211.709 216.57 211.715 216.573 211.721L218.509 210.578ZM218.509 219.287L216.573 218.143C216.57 218.149 216.566 218.155 216.563 218.161L218.509 219.287ZM215.389 222.326L216.479 224.287L215.389 222.326ZM214.741 221.345L213.636 219.391L214.741 221.345ZM217.429 218.713L219.37 219.846L219.377 219.834L217.429 218.713ZM217.429 211.176L215.48 212.298L215.487 212.31L217.429 211.176ZM214.741 208.52L213.636 210.474L214.741 208.52ZM207.085 208.52L205.992 206.559L205.98 206.566L207.085 208.52ZM204.397 211.176L206.338 212.31L206.345 212.298L204.397 211.176ZM204.397 218.713L202.448 219.834L202.455 219.846L204.397 218.713ZM207.085 221.345L205.98 223.298L205.992 223.305L207.085 221.345ZM210.925 221.183C209.625 221.183 208.518 220.897 207.551 220.364L205.37 224.287C207.06 225.221 208.929 225.669 210.925 225.669V221.183ZM207.569 220.374C206.578 219.814 205.817 219.071 205.252 218.12L201.381 220.406C202.352 222.039 203.687 223.337 205.352 224.277L207.569 220.374ZM205.263 218.138C204.723 217.21 204.439 216.16 204.439 214.932H199.939C199.939 216.895 200.406 218.732 201.371 220.389L205.263 218.138ZM204.439 214.932C204.439 213.705 204.723 212.655 205.263 211.727L201.371 209.476C200.406 211.133 199.939 212.97 199.939 214.932H204.439ZM205.252 211.745C205.815 210.799 206.57 210.068 207.551 209.525L205.37 205.601C203.695 206.527 202.355 207.821 201.381 209.458L205.252 211.745ZM207.569 209.515C208.533 208.972 209.633 208.682 210.925 208.682V204.196C208.92 204.196 207.045 204.655 205.352 205.611L207.569 209.515ZM210.925 208.682C212.225 208.682 213.332 208.968 214.298 209.501L216.479 205.578C214.79 204.643 212.921 204.196 210.925 204.196V208.682ZM214.298 209.501C215.275 210.042 216.018 210.767 216.563 211.703L220.455 209.452C219.496 207.805 218.158 206.505 216.479 205.578L214.298 209.501ZM216.573 211.721C217.12 212.643 217.411 213.693 217.411 214.932H221.911C221.911 212.95 221.433 211.097 220.444 209.435L216.573 211.721ZM217.411 214.932C217.411 216.172 217.12 217.222 216.573 218.143L220.444 220.43C221.433 218.768 221.911 216.915 221.911 214.932H217.411ZM216.563 218.161C216.018 219.098 215.275 219.823 214.298 220.364L216.479 224.287C218.158 223.36 219.496 222.06 220.455 220.412L216.563 218.161ZM214.298 220.364C213.332 220.897 212.225 221.183 210.925 221.183V225.669C212.921 225.669 214.79 225.221 216.479 224.287L214.298 220.364ZM210.925 224.545C212.688 224.545 214.345 224.141 215.845 223.298L213.636 219.391C212.864 219.824 211.978 220.059 210.925 220.059V224.545ZM215.845 223.298C217.326 222.467 218.512 221.307 219.37 219.846L215.487 217.579C215.033 218.352 214.427 218.946 213.636 219.391L215.845 223.298ZM219.377 219.834C220.243 218.34 220.663 216.689 220.663 214.932H216.163C216.163 215.951 215.927 216.821 215.48 217.591L219.377 219.834ZM220.663 214.932C220.663 213.176 220.243 211.528 219.37 210.043L215.487 212.31C215.927 213.057 216.163 213.914 216.163 214.932H220.663ZM219.377 210.055C218.521 208.576 217.334 207.403 215.845 206.566L213.636 210.474C214.419 210.914 215.024 211.511 215.48 212.298L219.377 210.055ZM215.845 206.566C214.345 205.724 212.688 205.32 210.925 205.32V209.806C211.978 209.806 212.864 210.041 213.636 210.474L215.845 206.566ZM210.925 205.32C209.161 205.32 207.501 205.724 205.992 206.559L208.177 210.481C208.972 210.041 209.872 209.806 210.925 209.806V205.32ZM205.98 206.566C204.491 207.403 203.304 208.576 202.448 210.055L206.345 212.298C206.801 211.511 207.406 210.914 208.189 210.474L205.98 206.566ZM202.455 210.043C201.583 211.528 201.163 213.176 201.163 214.932H205.663C205.663 213.914 205.899 213.057 206.338 212.31L202.455 210.043ZM201.163 214.932C201.163 216.689 201.583 218.34 202.448 219.834L206.345 217.591C205.899 216.821 205.663 215.951 205.663 214.932H201.163ZM202.455 219.846C203.313 221.307 204.499 222.467 205.98 223.298L208.189 219.391C207.398 218.946 206.792 218.352 206.338 217.579L202.455 219.846ZM205.992 223.305C207.501 224.141 209.161 224.545 210.925 224.545V220.059C209.872 220.059 208.972 219.824 208.177 219.384L205.992 223.305Z" fill="white"/>
<path d="M143.77 201.451L148.468 199.747" stroke="white" stroke-width="3" stroke-linecap="round"/>
<mask id="mask0_150_1256" style="mask-type:alpha" maskUnits="userSpaceOnUse" x="28" y="126" width="228" height="55">
<path d="M41.16 129.099C44.2867 129.099 46.7367 129.844 48.51 131.332C50.2833 132.821 51.17 134.868 51.17 137.473C51.17 140.078 50.2833 142.126 48.51 143.614C46.7367 145.079 44.2867 145.812 41.16 145.812H34.58V153.523H31.99V129.099H41.16ZM41.09 143.544C43.5167 143.544 45.3717 143.021 46.655 141.974C47.9383 140.904 48.58 139.404 48.58 137.473C48.58 135.496 47.9383 133.984 46.655 132.937C45.3717 131.868 43.5167 131.332 41.09 131.332H34.58V143.544H41.09ZM77.0003 153.523L71.4003 145.673C70.7703 145.742 70.1169 145.777 69.4403 145.777H62.8603V153.523H60.2703V129.099H69.4403C72.5669 129.099 75.0169 129.844 76.7903 131.332C78.5636 132.821 79.4503 134.868 79.4503 137.473C79.4503 139.38 78.9603 140.997 77.9803 142.323C77.0236 143.626 75.6469 144.568 73.8503 145.149L79.8353 153.523H77.0003ZM69.3703 143.579C71.7969 143.579 73.6519 143.044 74.9353 141.974C76.2186 140.904 76.8603 139.404 76.8603 137.473C76.8603 135.496 76.2186 133.984 74.9353 132.937C73.6519 131.868 71.7969 131.332 69.3703 131.332H62.8603V143.579H69.3703ZM106.388 151.29V153.523H89.0632V129.099H105.863V131.332H91.6532V140.02H104.323V142.218H91.6532V151.29H106.388ZM122.486 131.332H113.876V129.099H133.686V131.332H125.076V153.523H122.486V131.332ZM158.649 151.29V153.523H141.324V129.099H158.124V131.332H143.914V140.02H156.584V142.218H143.914V151.29H158.649ZM184.967 153.523L179.367 145.673C178.737 145.742 178.084 145.777 177.407 145.777H170.827V153.523H168.237V129.099H177.407C180.534 129.099 182.984 129.844 184.757 131.332C186.53 132.821 187.417 134.868 187.417 137.473C187.417 139.38 186.927 140.997 185.947 142.323C184.99 143.626 183.614 144.568 181.817 145.149L187.802 153.523H184.967ZM177.337 143.579C179.764 143.579 181.619 143.044 182.902 141.974C184.185 140.904 184.827 139.404 184.827 137.473C184.827 135.496 184.185 133.984 182.902 132.937C181.619 131.868 179.764 131.332 177.337 131.332H170.827V143.579H177.337ZM197.03 129.099H199.62V153.523H197.03V129.099ZM215.852 131.332H207.242V129.099H227.052V131.332H218.442V153.523H215.852V131.332ZM252.014 151.29V153.523H234.689V129.099H251.489V131.332H237.279V140.02H249.949V142.218H237.279V151.29H252.014Z" fill="#FA7268"/>
<path d="M48.51 131.332L46.5776 133.62L48.51 131.332ZM48.51 143.614L50.4246 145.917C50.4305 145.912 50.4365 145.907 50.4424 145.902L48.51 143.614ZM34.58 145.812V142.821C32.9231 142.821 31.58 144.16 31.58 145.812H34.58ZM34.58 153.523V156.514C36.2369 156.514 37.58 155.175 37.58 153.523H34.58ZM31.99 153.523H28.99C28.99 155.175 30.3331 156.514 31.99 156.514V153.523ZM31.99 129.099V126.108C30.3331 126.108 28.99 127.447 28.99 129.099H31.99ZM46.655 141.974L48.5547 144.289C48.5631 144.282 48.5714 144.275 48.5797 144.268L46.655 141.974ZM46.655 132.937L44.7303 135.231C44.7386 135.238 44.7469 135.245 44.7553 135.252L46.655 132.937ZM34.58 131.332V128.341C32.9231 128.341 31.58 129.68 31.58 131.332H34.58ZM34.58 143.544H31.58C31.58 145.196 32.9231 146.535 34.58 146.535V143.544ZM41.16 132.09C43.827 132.09 45.5083 132.722 46.5776 133.62L50.4424 129.044C47.9651 126.965 44.7463 126.108 41.16 126.108V132.09ZM46.5776 133.62C47.583 134.463 48.17 135.624 48.17 137.473H54.17C54.17 134.112 52.9837 131.178 50.4424 129.044L46.5776 133.62ZM48.17 137.473C48.17 139.322 47.583 140.483 46.5776 141.326L50.4424 145.902C52.9837 143.769 54.17 140.835 54.17 137.473H48.17ZM46.5954 141.311C45.5255 142.195 43.8372 142.821 41.16 142.821V148.803C44.7361 148.803 47.9478 147.964 50.4246 145.917L46.5954 141.311ZM41.16 142.821H34.58V148.803H41.16V142.821ZM31.58 145.812V153.523H37.58V145.812H31.58ZM34.58 150.533H31.99V156.514H34.58V150.533ZM34.99 153.523V129.099H28.99V153.523H34.99ZM31.99 132.09H41.16V126.108H31.99V132.09ZM41.09 146.535C43.8979 146.535 46.5358 145.936 48.5547 144.289L44.7553 139.659C44.2075 140.106 43.1355 140.554 41.09 140.554V146.535ZM48.5797 144.268C50.6558 142.537 51.58 140.134 51.58 137.473H45.58C45.58 138.673 45.2208 139.272 44.7303 139.68L48.5797 144.268ZM51.58 137.473C51.58 134.793 50.6728 132.35 48.5547 130.622L44.7553 135.252C45.2038 135.618 45.58 136.198 45.58 137.473H51.58ZM48.5797 130.643C46.5592 128.959 43.9109 128.341 41.09 128.341V134.323C43.1224 134.323 44.1842 134.775 44.7303 135.231L48.5797 130.643ZM41.09 128.341H34.58V134.323H41.09V128.341ZM31.58 131.332V143.544H37.58V131.332H31.58ZM34.58 146.535H41.09V140.554H34.58V146.535ZM77.0003 153.523L74.5554 155.257C75.1182 156.045 76.0292 156.514 77.0003 156.514V153.523ZM71.4003 145.673L73.8451 143.939C73.214 143.055 72.1514 142.58 71.069 142.7L71.4003 145.673ZM62.8603 145.777V142.787C61.2034 142.787 59.8603 144.125 59.8603 145.777H62.8603ZM62.8603 153.523V156.514C64.5171 156.514 65.8603 155.175 65.8603 153.523H62.8603ZM60.2703 153.523H57.2703C57.2703 155.175 58.6134 156.514 60.2703 156.514V153.523ZM60.2703 129.099V126.108C58.6134 126.108 57.2703 127.447 57.2703 129.099H60.2703ZM76.7903 131.332L74.8579 133.62L76.7903 131.332ZM77.9803 142.323L75.5651 140.549L75.5597 140.557L77.9803 142.323ZM73.8503 145.149L72.9239 142.305C72.015 142.599 71.3011 143.307 71.0015 144.211C70.7019 145.116 70.8525 146.109 71.407 146.885L73.8503 145.149ZM79.8353 153.523V156.514C80.9584 156.514 81.9875 155.889 82.502 154.893C83.0165 153.898 82.9303 152.7 82.2785 151.788L79.8353 153.523ZM74.9353 141.974L76.8599 144.268L74.9353 141.974ZM74.9353 132.937L73.0106 135.231C73.0189 135.238 73.0272 135.245 73.0356 135.252L74.9353 132.937ZM62.8603 131.332V128.341C61.2034 128.341 59.8603 129.68 59.8603 131.332H62.8603ZM62.8603 143.579H59.8603C59.8603 145.231 61.2034 146.57 62.8603 146.57V143.579ZM79.4451 151.79L73.8451 143.939L68.9554 147.406L74.5554 155.257L79.4451 151.79ZM71.069 142.7C70.5561 142.757 70.0136 142.787 69.4403 142.787V148.768C70.2203 148.768 70.9845 148.728 71.7316 148.645L71.069 142.7ZM69.4403 142.787H62.8603V148.768H69.4403V142.787ZM59.8603 145.777V153.523H65.8603V145.777H59.8603ZM62.8603 150.533H60.2703V156.514H62.8603V150.533ZM63.2703 153.523V129.099H57.2703V153.523H63.2703ZM60.2703 132.09H69.4403V126.108H60.2703V132.09ZM69.4403 132.09C72.1073 132.09 73.7886 132.722 74.8579 133.62L78.7227 129.044C76.2453 126.965 73.0266 126.108 69.4403 126.108V132.09ZM74.8579 133.62C75.8632 134.463 76.4503 135.624 76.4503 137.473H82.4503C82.4503 134.112 81.264 131.178 78.7227 129.044L74.8579 133.62ZM76.4503 137.473C76.4503 138.847 76.1073 139.816 75.5651 140.549L80.3954 144.098C81.8133 142.178 82.4503 139.915 82.4503 137.473H76.4503ZM75.5597 140.557C75.0344 141.271 74.2243 141.883 72.9239 142.305L74.7767 147.993C77.0696 147.252 79.0128 145.98 80.4009 144.09L75.5597 140.557ZM71.407 146.885L77.392 155.259L82.2785 151.788L76.2935 143.414L71.407 146.885ZM79.8353 150.533H77.0003V156.514H79.8353V150.533ZM69.3703 146.57C72.1912 146.57 74.8394 145.953 76.8599 144.268L73.0106 139.68C72.4645 140.136 71.4027 140.588 69.3703 140.588V146.57ZM76.8599 144.268C78.9361 142.537 79.8603 140.134 79.8603 137.473H73.8603C73.8603 138.673 73.5011 139.272 73.0106 139.68L76.8599 144.268ZM79.8603 137.473C79.8603 134.793 78.9531 132.35 76.835 130.622L73.0356 135.252C73.4841 135.618 73.8603 136.198 73.8603 137.473H79.8603ZM76.8599 130.643C74.8394 128.959 72.1912 128.341 69.3703 128.341V134.323C71.4027 134.323 72.4645 134.775 73.0106 135.231L76.8599 130.643ZM69.3703 128.341H62.8603V134.323H69.3703V128.341ZM59.8603 131.332V143.579H65.8603V131.332H59.8603ZM62.8603 146.57H69.3703V140.588H62.8603V146.57ZM106.388 151.29H109.388C109.388 149.638 108.045 148.299 106.388 148.299V151.29ZM106.388 153.523V156.514C108.045 156.514 109.388 155.175 109.388 153.523H106.388ZM89.0632 153.523H86.0632C86.0632 155.175 87.4064 156.514 89.0632 156.514V153.523ZM89.0632 129.099V126.108C87.4064 126.108 86.0632 127.447 86.0632 129.099H89.0632ZM105.863 129.099H108.863C108.863 127.447 107.52 126.108 105.863 126.108V129.099ZM105.863 131.332V134.323C107.52 134.323 108.863 132.984 108.863 131.332H105.863ZM91.6532 131.332V128.341C89.9964 128.341 88.6532 129.68 88.6532 131.332H91.6532ZM91.6532 140.02H88.6532C88.6532 141.672 89.9964 143.011 91.6532 143.011V140.02ZM104.323 140.02H107.323C107.323 138.368 105.98 137.029 104.323 137.029V140.02ZM104.323 142.218V145.209C105.98 145.209 107.323 143.87 107.323 142.218H104.323ZM91.6532 142.218V139.228C89.9964 139.228 88.6532 140.567 88.6532 142.218H91.6532ZM91.6532 151.29H88.6532C88.6532 152.942 89.9964 154.281 91.6532 154.281V151.29ZM103.388 151.29V153.523H109.388V151.29H103.388ZM106.388 150.533H89.0632V156.514H106.388V150.533ZM92.0632 153.523V129.099H86.0632V153.523H92.0632ZM89.0632 132.09H105.863V126.108H89.0632V132.09ZM102.863 129.099V131.332H108.863V129.099H102.863ZM105.863 128.341H91.6532V134.323H105.863V128.341ZM88.6532 131.332V140.02H94.6532V131.332H88.6532ZM91.6532 143.011H104.323V137.029H91.6532V143.011ZM101.323 140.02V142.218H107.323V140.02H101.323ZM104.323 139.228H91.6532V145.209H104.323V139.228ZM88.6532 142.218V151.29H94.6532V142.218H88.6532ZM91.6532 154.281H106.388V148.299H91.6532V154.281ZM122.486 131.332H125.486C125.486 129.68 124.143 128.341 122.486 128.341V131.332ZM113.876 131.332H110.876C110.876 132.984 112.219 134.323 113.876 134.323V131.332ZM113.876 129.099V126.108C112.219 126.108 110.876 127.447 110.876 129.099H113.876ZM133.686 129.099H136.686C136.686 127.447 135.343 126.108 133.686 126.108V129.099ZM133.686 131.332V134.323C135.343 134.323 136.686 132.984 136.686 131.332H133.686ZM125.076 131.332V128.341C123.419 128.341 122.076 129.68 122.076 131.332H125.076ZM125.076 153.523V156.514C126.733 156.514 128.076 155.175 128.076 153.523H125.076ZM122.486 153.523H119.486C119.486 155.175 120.829 156.514 122.486 156.514V153.523ZM122.486 128.341H113.876V134.323H122.486V128.341ZM116.876 131.332V129.099H110.876V131.332H116.876ZM113.876 132.09H133.686V126.108H113.876V132.09ZM130.686 129.099V131.332H136.686V129.099H130.686ZM133.686 128.341H125.076V134.323H133.686V128.341ZM122.076 131.332V153.523H128.076V131.332H122.076ZM125.076 150.533H122.486V156.514H125.076V150.533ZM125.486 153.523V131.332H119.486V153.523H125.486ZM158.649 151.29H161.649C161.649 149.638 160.306 148.299 158.649 148.299V151.29ZM158.649 153.523V156.514C160.306 156.514 161.649 155.175 161.649 153.523H158.649ZM141.324 153.523H138.324C138.324 155.175 139.667 156.514 141.324 156.514V153.523ZM141.324 129.099V126.108C139.667 126.108 138.324 127.447 138.324 129.099H141.324ZM158.124 129.099H161.124C161.124 127.447 159.781 126.108 158.124 126.108V129.099ZM158.124 131.332V134.323C159.781 134.323 161.124 132.984 161.124 131.332H158.124ZM143.914 131.332V128.341C142.257 128.341 140.914 129.68 140.914 131.332H143.914ZM143.914 140.02H140.914C140.914 141.672 142.257 143.011 143.914 143.011V140.02ZM156.584 140.02H159.584C159.584 138.368 158.241 137.029 156.584 137.029V140.02ZM156.584 142.218V145.209C158.241 145.209 159.584 143.87 159.584 142.218H156.584ZM143.914 142.218V139.228C142.257 139.228 140.914 140.567 140.914 142.218H143.914ZM143.914 151.29H140.914C140.914 152.942 142.257 154.281 143.914 154.281V151.29ZM155.649 151.29V153.523H161.649V151.29H155.649ZM158.649 150.533H141.324V156.514H158.649V150.533ZM144.324 153.523V129.099H138.324V153.523H144.324ZM141.324 132.09H158.124V126.108H141.324V132.09ZM155.124 129.099V131.332H161.124V129.099H155.124ZM158.124 128.341H143.914V134.323H158.124V128.341ZM140.914 131.332V140.02H146.914V131.332H140.914ZM143.914 143.011H156.584V137.029H143.914V143.011ZM153.584 140.02V142.218H159.584V140.02H153.584ZM156.584 139.228H143.914V145.209H156.584V139.228ZM140.914 142.218V151.29H146.914V142.218H140.914ZM143.914 154.281H158.649V148.299H143.914V154.281ZM184.967 153.523L182.522 155.257C183.085 156.045 183.996 156.514 184.967 156.514V153.523ZM179.367 145.673L181.812 143.939C181.181 143.055 180.118 142.58 179.036 142.7L179.367 145.673ZM170.827 145.777V142.787C169.17 142.787 167.827 144.125 167.827 145.777H170.827ZM170.827 153.523V156.514C172.484 156.514 173.827 155.175 173.827 153.523H170.827ZM168.237 153.523H165.237C165.237 155.175 166.58 156.514 168.237 156.514V153.523ZM168.237 129.099V126.108C166.58 126.108 165.237 127.447 165.237 129.099H168.237ZM184.757 131.332L182.825 133.62L184.757 131.332ZM185.947 142.323L183.532 140.549L183.526 140.557L185.947 142.323ZM181.817 145.149L180.891 142.305C179.982 142.599 179.268 143.307 178.968 144.211C178.669 145.116 178.819 146.109 179.374 146.885L181.817 145.149ZM187.802 153.523V156.514C188.925 156.514 189.954 155.889 190.469 154.893C190.983 153.898 190.897 152.7 190.245 151.788L187.802 153.523ZM182.902 141.974L184.827 144.268L182.902 141.974ZM182.902 132.937L180.977 135.231C180.986 135.238 180.994 135.245 181.002 135.252L182.902 132.937ZM170.827 131.332V128.341C169.17 128.341 167.827 129.68 167.827 131.332H170.827ZM170.827 143.579H167.827C167.827 145.231 169.17 146.57 170.827 146.57V143.579ZM187.412 151.79L181.812 143.939L176.922 147.406L182.522 155.257L187.412 151.79ZM179.036 142.7C178.523 142.757 177.98 142.787 177.407 142.787V148.768C178.187 148.768 178.951 148.728 179.698 148.645L179.036 142.7ZM177.407 142.787H170.827V148.768H177.407V142.787ZM167.827 145.777V153.523H173.827V145.777H167.827ZM170.827 150.533H168.237V156.514H170.827V150.533ZM171.237 153.523V129.099H165.237V153.523H171.237ZM168.237 132.09H177.407V126.108H168.237V132.09ZM177.407 132.09C180.074 132.09 181.755 132.722 182.825 133.62L186.689 129.044C184.212 126.965 180.993 126.108 177.407 126.108V132.09ZM182.825 133.62C183.83 134.463 184.417 135.624 184.417 137.473H190.417C190.417 134.112 189.231 131.178 186.689 129.044L182.825 133.62ZM184.417 137.473C184.417 138.847 184.074 139.816 183.532 140.549L188.362 144.098C189.78 142.178 190.417 139.915 190.417 137.473H184.417ZM183.526 140.557C183.001 141.271 182.191 141.883 180.891 142.305L182.743 147.993C185.036 147.252 186.98 145.98 188.368 144.09L183.526 140.557ZM179.374 146.885L185.359 155.259L190.245 151.788L184.26 143.414L179.374 146.885ZM187.802 150.533H184.967V156.514H187.802V150.533ZM177.337 146.57C180.158 146.57 182.806 145.953 184.827 144.268L180.977 139.68C180.431 140.136 179.369 140.588 177.337 140.588V146.57ZM184.827 144.268C186.903 142.537 187.827 140.134 187.827 137.473H181.827C181.827 138.673 181.468 139.272 180.977 139.68L184.827 144.268ZM187.827 137.473C187.827 134.793 186.92 132.35 184.802 130.622L181.002 135.252C181.451 135.618 181.827 136.198 181.827 137.473H187.827ZM184.827 130.643C182.806 128.959 180.158 128.341 177.337 128.341V134.323C179.369 134.323 180.431 134.775 180.977 135.231L184.827 130.643ZM177.337 128.341H170.827V134.323H177.337V128.341ZM167.827 131.332V143.579H173.827V131.332H167.827ZM170.827 146.57H177.337V140.588H170.827V146.57ZM197.03 129.099V126.108C195.373 126.108 194.03 127.447 194.03 129.099H197.03ZM199.62 129.099H202.62C202.62 127.447 201.277 126.108 199.62 126.108V129.099ZM199.62 153.523V156.514C201.277 156.514 202.62 155.175 202.62 153.523H199.62ZM197.03 153.523H194.03C194.03 155.175 195.373 156.514 197.03 156.514V153.523ZM197.03 132.09H199.62V126.108H197.03V132.09ZM196.62 129.099V153.523H202.62V129.099H196.62ZM199.62 150.533H197.03V156.514H199.62V150.533ZM200.03 153.523V129.099H194.03V153.523H200.03ZM215.852 131.332H218.852C218.852 129.68 217.508 128.341 215.852 128.341V131.332ZM207.242 131.332H204.242C204.242 132.984 205.585 134.323 207.242 134.323V131.332ZM207.242 129.099V126.108C205.585 126.108 204.242 127.447 204.242 129.099H207.242ZM227.052 129.099H230.052C230.052 127.447 228.708 126.108 227.052 126.108V129.099ZM227.052 131.332V134.323C228.708 134.323 230.052 132.984 230.052 131.332H227.052ZM218.442 131.332V128.341C216.785 128.341 215.442 129.68 215.442 131.332H218.442ZM218.442 153.523V156.514C220.098 156.514 221.442 155.175 221.442 153.523H218.442ZM215.852 153.523H212.852C212.852 155.175 214.195 156.514 215.852 156.514V153.523ZM215.852 128.341H207.242V134.323H215.852V128.341ZM210.242 131.332V129.099H204.242V131.332H210.242ZM207.242 132.09H227.052V126.108H207.242V132.09ZM224.052 129.099V131.332H230.052V129.099H224.052ZM227.052 128.341H218.442V134.323H227.052V128.341ZM215.442 131.332V153.523H221.442V131.332H215.442ZM218.442 150.533H215.852V156.514H218.442V150.533ZM218.852 153.523V131.332H212.852V153.523H218.852ZM252.014 151.29H255.014C255.014 149.638 253.671 148.299 252.014 148.299V151.29ZM252.014 153.523V156.514C253.671 156.514 255.014 155.175 255.014 153.523H252.014ZM234.689 153.523H231.689C231.689 155.175 233.032 156.514 234.689 156.514V153.523ZM234.689 129.099V126.108C233.032 126.108 231.689 127.447 231.689 129.099H234.689ZM251.489 129.099H254.489C254.489 127.447 253.146 126.108 251.489 126.108V129.099ZM251.489 131.332V134.323C253.146 134.323 254.489 132.984 254.489 131.332H251.489ZM237.279 131.332V128.341C235.622 128.341 234.279 129.68 234.279 131.332H237.279ZM237.279 140.02H234.279C234.279 141.672 235.622 143.011 237.279 143.011V140.02ZM249.949 140.02H252.949C252.949 138.368 251.606 137.029 249.949 137.029V140.02ZM249.949 142.218V145.209C251.606 145.209 252.949 143.87 252.949 142.218H249.949ZM237.279 142.218V139.228C235.622 139.228 234.279 140.567 234.279 142.218H237.279ZM237.279 151.29H234.279C234.279 152.942 235.622 154.281 237.279 154.281V151.29ZM249.014 151.29V153.523H255.014V151.29H249.014ZM252.014 150.533H234.689V156.514H252.014V150.533ZM237.689 153.523V129.099H231.689V153.523H237.689ZM234.689 132.09H251.489V126.108H234.689V132.09ZM248.489 129.099V131.332H254.489V129.099H248.489ZM251.489 128.341H237.279V134.323H251.489V128.341ZM234.279 131.332V140.02H240.279V131.332H234.279ZM237.279 143.011H249.949V137.029H237.279V143.011ZM246.949 140.02V142.218H252.949V140.02H246.949ZM249.949 139.228H237.279V145.209H249.949V139.228ZM234.279 142.218V151.29H240.279V142.218H234.279ZM237.279 154.281H252.014V148.299H237.279V154.281Z" fill="white"/>
<path d="M109.28 164.868H104.08V164.489H114.88V164.868H109.68V178.446H109.28V164.868ZM128.937 178.067V178.446H119.617V164.489H128.637V164.868H120.017V171.169H127.737V171.547H120.017V178.067H128.937ZM145.976 164.489V178.446H145.636L135.376 165.227V178.446H134.976V164.489H135.316L145.576 177.708V164.489H145.976ZM156.725 178.506C155.711 178.506 154.758 178.326 153.865 177.967C152.971 177.596 152.285 177.117 151.805 176.532L152.085 176.273C152.538 176.804 153.185 177.25 154.025 177.609C154.865 177.954 155.758 178.127 156.705 178.127C158.158 178.127 159.251 177.841 159.985 177.27C160.731 176.684 161.105 175.934 161.105 175.017C161.105 174.299 160.911 173.728 160.525 173.302C160.138 172.876 159.658 172.557 159.085 172.345C158.525 172.133 157.765 171.913 156.805 171.687C155.778 171.435 154.965 171.195 154.365 170.969C153.765 170.73 153.251 170.371 152.825 169.892C152.411 169.401 152.205 168.749 152.205 167.939C152.205 167.301 152.371 166.715 152.705 166.184C153.038 165.653 153.558 165.227 154.265 164.908C154.971 164.589 155.845 164.429 156.885 164.429C157.631 164.429 158.365 164.549 159.085 164.788C159.805 165.015 160.425 165.32 160.945 165.705L160.725 166.024C160.178 165.626 159.565 165.327 158.885 165.127C158.218 164.915 157.558 164.808 156.905 164.808C155.505 164.808 154.438 165.107 153.705 165.705C152.971 166.291 152.605 167.041 152.605 167.958C152.605 168.676 152.798 169.254 153.185 169.693C153.571 170.119 154.051 170.438 154.625 170.65C155.198 170.862 155.971 171.089 156.945 171.328C157.958 171.58 158.765 171.826 159.365 172.066C159.965 172.292 160.471 172.644 160.885 173.122C161.298 173.588 161.505 174.219 161.505 175.017C161.505 175.655 161.331 176.24 160.985 176.771C160.638 177.302 160.105 177.728 159.385 178.047C158.678 178.353 157.791 178.506 156.725 178.506ZM176.636 178.067V178.446H167.316V164.489H176.336V164.868H167.716V171.169H175.436V171.547H167.716V178.067H176.636Z" fill="#FA7268"/>
<path d="M109.28 164.868H111.28C111.28 163.766 110.385 162.874 109.28 162.874V164.868ZM104.08 164.868H102.08C102.08 165.97 102.975 166.862 104.08 166.862V164.868ZM104.08 164.489V162.495C102.975 162.495 102.08 163.388 102.08 164.489H104.08ZM114.88 164.489H116.88C116.88 163.388 115.985 162.495 114.88 162.495V164.489ZM114.88 164.868V166.862C115.985 166.862 116.88 165.97 116.88 164.868H114.88ZM109.68 164.868V162.874C108.575 162.874 107.68 163.766 107.68 164.868H109.68ZM109.68 178.446V180.44C110.785 180.44 111.68 179.547 111.68 178.446H109.68ZM109.28 178.446H107.28C107.28 179.547 108.175 180.44 109.28 180.44V178.446ZM109.28 162.874H104.08V166.862H109.28V162.874ZM106.08 164.868V164.489H102.08V164.868H106.08ZM104.08 166.483H114.88V162.495H104.08V166.483ZM112.88 164.489V164.868H116.88V164.489H112.88ZM114.88 162.874H109.68V166.862H114.88V162.874ZM107.68 164.868V178.446H111.68V164.868H107.68ZM109.68 176.452H109.28V180.44H109.68V176.452ZM111.28 178.446V164.868H107.28V178.446H111.28ZM128.937 178.067H130.937C130.937 176.965 130.042 176.073 128.937 176.073V178.067ZM128.937 178.446V180.44C130.042 180.44 130.937 179.547 130.937 178.446H128.937ZM119.617 178.446H117.617C117.617 179.547 118.512 180.44 119.617 180.44V178.446ZM119.617 164.489V162.495C118.512 162.495 117.617 163.388 117.617 164.489H119.617ZM128.637 164.489H130.637C130.637 163.388 129.742 162.495 128.637 162.495V164.489ZM128.637 164.868V166.862C129.742 166.862 130.637 165.97 130.637 164.868H128.637ZM120.017 164.868V162.874C118.912 162.874 118.017 163.766 118.017 164.868H120.017ZM120.017 171.168H118.017C118.017 172.27 118.912 173.162 120.017 173.162V171.168ZM127.737 171.168H129.737C129.737 170.067 128.842 169.175 127.737 169.175V171.168ZM127.737 171.547V173.541C128.842 173.541 129.737 172.649 129.737 171.547H127.737ZM120.017 171.547V169.553C118.912 169.553 118.017 170.446 118.017 171.547H120.017ZM120.017 178.067H118.017C118.017 179.169 118.912 180.061 120.017 180.061V178.067ZM126.937 178.067V178.446H130.937V178.067H126.937ZM128.937 176.452H119.617V180.44H128.937V176.452ZM121.617 178.446V164.489H117.617V178.446H121.617ZM119.617 166.483H128.637V162.495H119.617V166.483ZM126.637 164.489V164.868H130.637V164.489H126.637ZM128.637 162.874H120.017V166.862H128.637V162.874ZM118.017 164.868V171.168H122.017V164.868H118.017ZM120.017 173.162H127.737V169.175H120.017V173.162ZM125.737 171.168V171.547H129.737V171.168H125.737ZM127.737 169.553H120.017V173.541H127.737V169.553ZM118.017 171.547V178.067H122.017V171.547H118.017ZM120.017 180.061H128.937V176.073H120.017V180.061ZM145.976 164.489H147.976C147.976 163.388 147.081 162.495 145.976 162.495V164.489ZM145.976 178.446V180.44C147.081 180.44 147.976 179.547 147.976 178.446H145.976ZM145.636 178.446L144.055 179.666C144.433 180.154 145.017 180.44 145.636 180.44V178.446ZM135.376 165.227L136.958 164.007C136.435 163.333 135.539 163.065 134.73 163.34C133.92 163.616 133.376 164.375 133.376 165.227H135.376ZM135.376 178.446V180.44C136.481 180.44 137.376 179.547 137.376 178.446H135.376ZM134.976 178.446H132.976C132.976 179.547 133.872 180.44 134.976 180.44V178.446ZM134.976 164.489V162.495C133.872 162.495 132.976 163.388 132.976 164.489H134.976ZM135.316 164.489L136.898 163.269C136.519 162.781 135.935 162.495 135.316 162.495V164.489ZM145.576 177.708L143.995 178.928C144.518 179.602 145.414 179.87 146.223 179.595C147.032 179.319 147.576 178.56 147.576 177.708H145.576ZM145.576 164.489V162.495C144.472 162.495 143.576 163.388 143.576 164.489H145.576ZM143.976 164.489V178.446H147.976V164.489H143.976ZM145.976 176.452H145.636V180.44H145.976V176.452ZM147.218 177.226L136.958 164.007L133.795 166.447L144.055 179.666L147.218 177.226ZM133.376 165.227V178.446H137.376V165.227H133.376ZM135.376 176.452H134.976V180.44H135.376V176.452ZM136.976 178.446V164.489H132.976V178.446H136.976ZM134.976 166.483H135.316V162.495H134.976V166.483ZM133.735 165.709L143.995 178.928L147.158 176.488L136.898 163.269L133.735 165.709ZM147.576 177.708V164.489H143.576V177.708H147.576ZM145.576 166.483H145.976V162.495H145.576V166.483ZM153.865 177.967L153.093 179.807C153.101 179.811 153.109 179.814 153.117 179.817L153.865 177.967ZM151.805 176.532L150.444 175.07C149.67 175.787 149.588 176.979 150.257 177.794L151.805 176.532ZM152.085 176.273L153.608 174.982C153.255 174.567 152.747 174.315 152.202 174.282C151.658 174.25 151.123 174.441 150.724 174.811L152.085 176.273ZM154.025 177.608L153.237 179.441C153.245 179.445 153.253 179.448 153.262 179.452L154.025 177.608ZM159.985 177.269L161.216 178.841L161.22 178.838L159.985 177.269ZM160.525 173.302L159.043 174.641L160.525 173.302ZM159.085 172.345L158.373 174.208C158.377 174.21 158.382 174.212 158.387 174.213L159.085 172.345ZM156.805 171.687L156.325 173.623C156.332 173.624 156.338 173.626 156.345 173.627L156.805 171.687ZM154.365 170.969L153.622 172.82C153.634 172.825 153.646 172.829 153.658 172.834L154.365 170.969ZM152.825 169.892L151.291 171.172C151.304 171.187 151.317 171.202 151.33 171.217L152.825 169.892ZM152.705 166.184L154.401 167.241L152.705 166.184ZM159.085 164.788L158.452 166.679C158.463 166.683 158.473 166.686 158.484 166.69L159.085 164.788ZM160.945 165.705L162.593 166.835C163.202 165.952 163.001 164.745 162.138 164.105L160.945 165.705ZM160.725 166.024L159.544 167.633C159.98 167.951 160.527 168.08 161.06 167.99C161.593 167.9 162.066 167.599 162.373 167.154L160.725 166.024ZM158.885 165.127L158.275 167.026C158.29 167.031 158.305 167.035 158.32 167.04L158.885 165.127ZM153.705 165.705L154.954 167.263C154.96 167.258 154.965 167.254 154.971 167.249L153.705 165.705ZM153.185 169.693L151.682 171.009C151.689 171.017 151.696 171.024 151.703 171.032L153.185 169.693ZM154.625 170.65L155.322 168.782L154.625 170.65ZM156.945 171.328L157.43 169.394L157.423 169.392L156.945 171.328ZM159.365 172.066L158.622 173.917C158.634 173.922 158.646 173.926 158.658 173.931L159.365 172.066ZM160.885 173.122L159.369 174.423C159.375 174.43 159.381 174.437 159.387 174.444L160.885 173.122ZM160.985 176.771L159.308 175.684L160.985 176.771ZM159.385 178.047L160.181 179.876C160.186 179.873 160.191 179.871 160.197 179.869L159.385 178.047ZM156.725 176.512C155.954 176.512 155.256 176.376 154.612 176.118L153.117 179.817C154.26 180.276 155.469 180.499 156.725 180.499V176.512ZM154.636 176.128C153.963 175.848 153.575 175.541 153.352 175.27L150.257 177.794C150.994 178.693 151.979 179.343 153.093 179.807L154.636 176.128ZM153.165 177.993L153.445 177.734L150.724 174.811L150.444 175.07L153.165 177.993ZM150.561 177.564C151.266 178.391 152.196 178.996 153.237 179.441L154.812 175.776C154.173 175.503 153.81 175.218 153.608 174.982L150.561 177.564ZM153.262 179.452C154.354 179.9 155.507 180.121 156.705 180.121V176.133C156.009 176.133 155.375 176.007 154.788 175.765L153.262 179.452ZM156.705 180.121C158.369 180.121 159.982 179.802 161.216 178.841L158.753 175.698C158.52 175.88 157.947 176.133 156.705 176.133V180.121ZM161.22 178.838C162.431 177.889 163.105 176.568 163.105 175.016H159.105C159.105 175.3 159.031 175.481 158.749 175.701L161.22 178.838ZM163.105 175.016C163.105 173.933 162.804 172.84 162.007 171.963L159.043 174.641C159.044 174.643 159.046 174.645 159.048 174.649C159.051 174.653 159.057 174.664 159.064 174.687C159.08 174.732 159.105 174.834 159.105 175.016H163.105ZM162.007 171.963C161.391 171.286 160.636 170.793 159.782 170.477L158.387 174.213C158.679 174.322 158.884 174.467 159.043 174.641L162.007 171.963ZM159.797 170.482C159.119 170.224 158.263 169.981 157.264 169.747L156.345 173.627C157.266 173.844 157.93 174.04 158.373 174.208L159.797 170.482ZM157.284 169.751C156.292 169.507 155.565 169.289 155.071 169.104L153.658 172.834C154.364 173.1 155.264 173.362 156.325 173.623L157.284 169.751ZM155.107 169.118C154.794 168.993 154.538 168.814 154.319 168.568L151.33 171.217C151.964 171.928 152.735 172.466 153.622 172.82L155.107 169.118ZM154.358 168.612C154.319 168.566 154.205 168.408 154.205 167.938H150.205C150.205 169.091 150.504 170.235 151.291 171.172L154.358 168.612ZM154.205 167.938C154.205 167.667 154.27 167.45 154.401 167.241L151.009 165.127C150.473 165.982 150.205 166.934 150.205 167.938H154.205ZM154.401 167.241C154.481 167.113 154.658 166.919 155.09 166.724L153.44 163.092C152.458 163.535 151.595 164.192 151.009 165.127L154.401 167.241ZM155.09 166.724C155.465 166.555 156.037 166.423 156.885 166.423V162.436C155.652 162.436 154.478 162.623 153.44 163.092L155.09 166.724ZM156.885 166.423C157.413 166.423 157.933 166.507 158.452 166.679L159.717 162.897C158.796 162.591 157.85 162.436 156.885 162.436V166.423ZM158.484 166.69C159.025 166.86 159.437 167.073 159.751 167.305L162.138 164.105C161.412 163.567 160.584 163.168 159.685 162.886L158.484 166.69ZM159.296 164.576L159.076 164.895L162.373 167.154L162.593 166.835L159.296 164.576ZM161.906 164.415C161.164 163.874 160.34 163.475 159.449 163.214L158.32 167.04C158.789 167.178 159.192 167.377 159.544 167.633L161.906 164.415ZM159.494 163.228C158.644 162.957 157.779 162.814 156.905 162.814V166.802C157.337 166.802 157.791 166.872 158.275 167.026L159.494 163.228ZM156.905 162.814C155.256 162.814 153.665 163.161 152.438 164.162L154.971 167.249C155.211 167.052 155.753 166.802 156.905 166.802V162.814ZM152.455 164.148C151.259 165.102 150.605 166.421 150.605 167.958H154.605C154.605 167.661 154.684 167.478 154.954 167.263L152.455 164.148ZM150.605 167.958C150.605 169.045 150.906 170.129 151.682 171.009L154.687 168.377C154.677 168.366 154.663 168.348 154.647 168.3C154.629 168.246 154.605 168.14 154.605 167.958H150.605ZM151.703 171.032C152.318 171.709 153.073 172.202 153.927 172.518L155.322 168.782C155.03 168.673 154.825 168.528 154.667 168.354L151.703 171.032ZM153.927 172.518C154.602 172.769 155.459 173.017 156.466 173.264L157.423 169.392C156.484 169.161 155.793 168.956 155.322 168.782L153.927 172.518ZM156.459 173.262C157.431 173.504 158.141 173.725 158.622 173.917L160.107 170.214C159.388 169.927 158.484 169.656 157.43 169.394L156.459 173.262ZM158.658 173.931C158.949 174.04 159.177 174.201 159.369 174.423L162.4 171.821C161.766 171.087 160.98 170.542 160.071 170.2L158.658 173.931ZM159.387 174.444C159.393 174.451 159.505 174.564 159.505 175.016H163.505C163.505 173.874 163.202 172.724 162.382 171.8L159.387 174.444ZM159.505 175.016C159.505 175.272 159.442 175.478 159.308 175.684L162.661 177.858C163.22 177 163.505 176.037 163.505 175.016H159.505ZM159.308 175.684C159.217 175.823 159.023 176.025 158.572 176.225L160.197 179.869C161.186 179.431 162.059 178.782 162.661 177.858L159.308 175.684ZM158.588 176.218C158.21 176.382 157.616 176.512 156.725 176.512V180.499C157.967 180.499 159.146 180.324 160.181 179.876L158.588 176.218ZM176.636 178.067H178.636C178.636 176.965 177.741 176.073 176.636 176.073V178.067ZM176.636 178.446V180.44C177.741 180.44 178.636 179.547 178.636 178.446H176.636ZM167.316 178.446H165.316C165.316 179.547 166.212 180.44 167.316 180.44V178.446ZM167.316 164.489V162.495C166.212 162.495 165.316 163.388 165.316 164.489H167.316ZM176.336 164.489H178.336C178.336 163.388 177.441 162.495 176.336 162.495V164.489ZM176.336 164.868V166.862C177.441 166.862 178.336 165.97 178.336 164.868H176.336ZM167.716 164.868V162.874C166.612 162.874 165.716 163.766 165.716 164.868H167.716ZM167.716 171.168H165.716C165.716 172.27 166.612 173.162 167.716 173.162V171.168ZM175.436 171.168H177.436C177.436 170.067 176.541 169.175 175.436 169.175V171.168ZM175.436 171.547V173.541C176.541 173.541 177.436 172.649 177.436 171.547H175.436ZM167.716 171.547V169.553C166.612 169.553 165.716 170.446 165.716 171.547H167.716ZM167.716 178.067H165.716C165.716 179.169 166.612 180.061 167.716 180.061V178.067ZM174.636 178.067V178.446H178.636V178.067H174.636ZM176.636 176.452H167.316V180.44H176.636V176.452ZM169.316 178.446V164.489H165.316V178.446H169.316ZM167.316 166.483H176.336V162.495H167.316V166.483ZM174.336 164.489V164.868H178.336V164.489H174.336ZM176.336 162.874H167.716V166.862H176.336V162.874ZM165.716 164.868V171.168H169.716V164.868H165.716ZM167.716 173.162H175.436V169.175H167.716V173.162ZM173.436 171.168V171.547H177.436V171.168H173.436ZM175.436 169.553H167.716V173.541H175.436V169.553ZM165.716 171.547V178.067H169.716V171.547H165.716ZM167.716 180.061H176.636V176.073H167.716V180.061Z" fill="white"/>
</mask>
<g mask="url(#mask0_150_1256)">
<path d="M-1 141.258C8.46667 142.303 13.2 146.449 34.5 147.043C55.8 147.638 89.4213 136.339 125 136.576C158.64 136.8 175.5 147.043 210.5 147.043C245.5 147.043 264.067 137.224 283 136.576V321.003H273.533C264.067 321.003 245.133 321.003 226.2 321.003C207.267 321.003 188.333 321.003 169.4 321.003C150.467 321.003 131.533 321.003 112.6 321.003C93.6667 321.003 74.7333 321.003 55.8 321.003C36.8667 321.003 17.9333 321.003 8.46667 321.003H-1V141.258Z" fill="white"/>
</g>
</g>
<defs>
<clipPath id="clip0_150_1256">
<rect width="284" height="322" fill="white"/>
</clipPath>
</defs>
</svg>
