<svg width="284" height="322" viewBox="0 0 284 322" fill="none" xmlns="http://www.w3.org/2000/svg">
<g clip-path="url(#clip0_44_627)">
<path d="M284 0H0V320.37H284V0Z" fill="#001220"/>
<path d="M64.768 131.289V141.127H77.8V143.417H64.768V154.043H62.104V128.999H79.384V131.289H64.768ZM98.6373 154.258C95.3733 154.258 92.8293 153.328 91.0053 151.467C89.1813 149.607 88.2693 146.9 88.2693 143.346V128.999H90.9333V143.238C90.9333 146.148 91.5933 148.319 92.9133 149.75C94.2333 151.181 96.1413 151.897 98.6373 151.897C101.157 151.897 103.077 151.181 104.397 149.75C105.717 148.319 106.377 146.148 106.377 143.238V128.999H108.969V143.346C108.969 146.9 108.057 149.607 106.233 151.467C104.433 153.328 101.901 154.258 98.6373 154.258ZM125.001 131.289H116.145V128.999H136.521V131.289H127.665V154.043H125.001V131.289ZM154.036 154.258C150.772 154.258 148.228 153.328 146.404 151.467C144.58 149.607 143.668 146.9 143.668 143.346V128.999H146.332V143.238C146.332 146.148 146.992 148.319 148.312 149.75C149.632 151.181 151.54 151.897 154.036 151.897C156.556 151.897 158.476 151.181 159.796 149.75C161.116 148.319 161.776 146.148 161.776 143.238V128.999H164.368V143.346C164.368 146.9 163.456 149.607 161.632 151.467C159.832 153.328 157.3 154.258 154.036 154.258ZM193.204 154.043L187.444 145.993C186.796 146.065 186.124 146.101 185.428 146.101H178.66V154.043H175.996V128.999H185.428C188.644 128.999 191.164 129.762 192.988 131.289C194.812 132.815 195.724 134.914 195.724 137.585C195.724 139.541 195.22 141.199 194.212 142.559C193.228 143.894 191.812 144.86 189.964 145.457L196.12 154.043H193.204ZM185.356 143.847C187.852 143.847 189.76 143.298 191.08 142.201C192.4 141.104 193.06 139.565 193.06 137.585C193.06 135.558 192.4 134.008 191.08 132.934C189.76 131.837 187.852 131.289 185.356 131.289H178.66V143.847H185.356ZM223.432 151.753V154.043H205.612V128.999H222.892V131.289H208.276V140.197H221.308V142.451H208.276V151.753H223.432Z" fill="#80FF80"/>
<path d="M64.768 131.289V128.307C63.1111 128.307 61.768 129.642 61.768 131.289H64.768ZM64.768 141.127H61.768C61.768 142.774 63.1111 144.109 64.768 144.109V141.127ZM77.8 141.127H80.8C80.8 139.481 79.4569 138.146 77.8 138.146V141.127ZM77.8 143.417V146.399C79.4569 146.399 80.8 145.064 80.8 143.417H77.8ZM64.768 143.417V140.436C63.1111 140.436 61.768 141.77 61.768 143.417H64.768ZM64.768 154.043V157.025C66.4249 157.025 67.768 155.69 67.768 154.043H64.768ZM62.104 154.043H59.104C59.104 155.69 60.4471 157.025 62.104 157.025V154.043ZM62.104 128.999V126.017C60.4471 126.017 59.104 127.352 59.104 128.999H62.104ZM79.384 128.999H82.384C82.384 127.352 81.0409 126.017 79.384 126.017V128.999ZM79.384 131.289V134.27C81.0409 134.27 82.384 132.935 82.384 131.289H79.384ZM61.768 131.289V141.127H67.768V131.289H61.768ZM64.768 144.109H77.8V138.146H64.768V144.109ZM74.8 141.127V143.417H80.8V141.127H74.8ZM77.8 140.436H64.768V146.399H77.8V140.436ZM61.768 143.417V154.043H67.768V143.417H61.768ZM64.768 151.062H62.104V157.025H64.768V151.062ZM65.104 154.043V128.999H59.104V154.043H65.104ZM62.104 131.98H79.384V126.017H62.104V131.98ZM76.384 128.999V131.289H82.384V128.999H76.384ZM79.384 128.307H64.768V134.27H79.384V128.307ZM91.0053 151.467L93.1539 149.386L91.0053 151.467ZM88.2693 128.999V126.017C86.6124 126.017 85.2693 127.352 85.2693 128.999H88.2693ZM90.9333 128.999H93.9333C93.9333 127.352 92.5901 126.017 90.9333 126.017V128.999ZM104.397 149.75L106.609 151.764L104.397 149.75ZM106.377 128.999V126.017C104.72 126.017 103.377 127.352 103.377 128.999H106.377ZM108.969 128.999H111.969C111.969 127.352 110.626 126.017 108.969 126.017V128.999ZM106.233 151.467L104.085 149.386C104.08 149.391 104.075 149.396 104.071 149.401L106.233 151.467ZM98.6373 151.276C95.9688 151.276 94.2798 150.535 93.1539 149.386L88.8566 153.548C91.3787 156.12 94.7777 157.239 98.6373 157.239V151.276ZM93.1539 149.386C92.0511 148.262 91.2693 146.414 91.2693 143.346H85.2693C85.2693 147.386 86.3114 150.951 88.8566 153.548L93.1539 149.386ZM91.2693 143.346V128.999H85.2693V143.346H91.2693ZM88.2693 131.98H90.9333V126.017H88.2693V131.98ZM87.9333 128.999V143.238H93.9333V128.999H87.9333ZM87.9333 143.238C87.9333 146.531 88.6724 149.564 90.7018 151.764L95.1247 147.735C94.5141 147.073 93.9333 145.766 93.9333 143.238H87.9333ZM90.7018 151.764C92.7385 153.973 95.5487 154.878 98.6373 154.878V148.915C96.7338 148.915 95.728 148.389 95.1247 147.735L90.7018 151.764ZM98.6373 154.878C101.74 154.878 104.567 153.979 106.609 151.764L102.186 147.735C101.588 148.383 100.575 148.915 98.6373 148.915V154.878ZM106.609 151.764C108.638 149.564 109.377 146.531 109.377 143.238H103.377C103.377 145.766 102.796 147.073 102.186 147.735L106.609 151.764ZM109.377 143.238V128.999H103.377V143.238H109.377ZM106.377 131.98H108.969V126.017H106.377V131.98ZM105.969 128.999V143.346H111.969V128.999H105.969ZM105.969 143.346C105.969 146.414 105.187 148.262 104.085 149.386L108.382 153.548C110.927 150.951 111.969 147.386 111.969 143.346H105.969ZM104.071 149.401C102.974 150.534 101.308 151.276 98.6373 151.276V157.239C102.495 157.239 105.893 156.121 108.396 153.533L104.071 149.401ZM125.001 131.289H128.001C128.001 129.642 126.658 128.307 125.001 128.307V131.289ZM116.145 131.289H113.145C113.145 132.935 114.488 134.27 116.145 134.27V131.289ZM116.145 128.999V126.017C114.488 126.017 113.145 127.352 113.145 128.999H116.145ZM136.521 128.999H139.521C139.521 127.352 138.178 126.017 136.521 126.017V128.999ZM136.521 131.289V134.27C138.178 134.27 139.521 132.935 139.521 131.289H136.521ZM127.665 131.289V128.307C126.008 128.307 124.665 129.642 124.665 131.289H127.665ZM127.665 154.043V157.025C129.322 157.025 130.665 155.69 130.665 154.043H127.665ZM125.001 154.043H122.001C122.001 155.69 123.344 157.025 125.001 157.025V154.043ZM125.001 128.307H116.145V134.27H125.001V128.307ZM119.145 131.289V128.999H113.145V131.289H119.145ZM116.145 131.98H136.521V126.017H116.145V131.98ZM133.521 128.999V131.289H139.521V128.999H133.521ZM136.521 128.307H127.665V134.27H136.521V128.307ZM124.665 131.289V154.043H130.665V131.289H124.665ZM127.665 151.062H125.001V157.025H127.665V151.062ZM128.001 154.043V131.289H122.001V154.043H128.001ZM146.404 151.467L148.553 149.386L146.404 151.467ZM143.668 128.999V126.017C142.012 126.017 140.668 127.352 140.668 128.999H143.668ZM146.332 128.999H149.332C149.332 127.352 147.989 126.017 146.332 126.017V128.999ZM159.796 149.75L162.008 151.764L159.796 149.75ZM161.776 128.999V126.017C160.12 126.017 158.776 127.352 158.776 128.999H161.776ZM164.368 128.999H167.368C167.368 127.352 166.025 126.017 164.368 126.017V128.999ZM161.632 151.467L159.484 149.386C159.479 149.391 159.475 149.396 159.47 149.401L161.632 151.467ZM154.036 151.276C151.368 151.276 149.679 150.535 148.553 149.386L144.256 153.548C146.778 156.12 150.177 157.239 154.036 157.239V151.276ZM148.553 149.386C147.45 148.262 146.668 146.414 146.668 143.346H140.668C140.668 147.386 141.711 150.951 144.256 153.548L148.553 149.386ZM146.668 143.346V128.999H140.668V143.346H146.668ZM143.668 131.98H146.332V126.017H143.668V131.98ZM143.332 128.999V143.238H149.332V128.999H143.332ZM143.332 143.238C143.332 146.531 144.072 149.564 146.101 151.764L150.524 147.735C149.913 147.073 149.332 145.766 149.332 143.238H143.332ZM146.101 151.764C148.138 153.973 150.948 154.878 154.036 154.878V148.915C152.133 148.915 151.127 148.389 150.524 147.735L146.101 151.764ZM154.036 154.878C157.139 154.878 159.966 153.979 162.008 151.764L157.585 147.735C156.987 148.383 155.974 148.915 154.036 148.915V154.878ZM162.008 151.764C164.037 149.564 164.776 146.531 164.776 143.238H158.776C158.776 145.766 158.196 147.073 157.585 147.735L162.008 151.764ZM164.776 143.238V128.999H158.776V143.238H164.776ZM161.776 131.98H164.368V126.017H161.776V131.98ZM161.368 128.999V143.346H167.368V128.999H161.368ZM161.368 143.346C161.368 146.414 160.587 148.262 159.484 149.386L163.781 153.548C166.326 150.951 167.368 147.386 167.368 143.346H161.368ZM159.47 149.401C158.373 150.534 156.707 151.276 154.036 151.276V157.239C157.894 157.239 161.292 156.121 163.795 153.533L159.47 149.401ZM193.204 154.043L190.759 155.771C191.322 156.558 192.233 157.025 193.204 157.025V154.043ZM187.444 145.993L189.889 144.265C189.258 143.383 188.195 142.91 187.113 143.03L187.444 145.993ZM178.66 146.101V143.119C177.003 143.119 175.66 144.454 175.66 146.101H178.66ZM178.66 154.043V157.025C180.317 157.025 181.66 155.69 181.66 154.043H178.66ZM175.996 154.043H172.996C172.996 155.69 174.339 157.025 175.996 157.025V154.043ZM175.996 128.999V126.017C174.339 126.017 172.996 127.352 172.996 128.999H175.996ZM192.988 131.289L191.056 133.569L192.988 131.289ZM194.212 142.559L191.797 140.79L191.792 140.797L194.212 142.559ZM189.964 145.457L189.038 142.621C188.129 142.914 187.415 143.62 187.115 144.521C186.816 145.424 186.966 146.414 187.521 147.187L189.964 145.457ZM196.12 154.043V157.025C197.243 157.025 198.272 156.402 198.787 155.409C199.301 154.417 199.215 153.222 198.563 152.313L196.12 154.043ZM191.08 142.201L193.005 144.488L191.08 142.201ZM191.08 132.934L189.156 135.221C189.164 135.228 189.172 135.235 189.18 135.242L191.08 132.934ZM178.66 131.289V128.307C177.003 128.307 175.66 129.642 175.66 131.289H178.66ZM178.66 143.847H175.66C175.66 145.493 177.003 146.828 178.66 146.828V143.847ZM195.649 152.315L189.889 144.265L184.999 147.721L190.759 155.771L195.649 152.315ZM187.113 143.03C186.582 143.088 186.021 143.119 185.428 143.119V149.082C186.228 149.082 187.01 149.041 187.775 148.957L187.113 143.03ZM185.428 143.119H178.66V149.082H185.428V143.119ZM175.66 146.101V154.043H181.66V146.101H175.66ZM178.66 151.062H175.996V157.025H178.66V151.062ZM178.996 154.043V128.999H172.996V154.043H178.996ZM175.996 131.98H185.428V126.017H175.996V131.98ZM185.428 131.98C188.185 131.98 189.936 132.632 191.056 133.569L194.921 129.008C192.393 126.892 189.104 126.017 185.428 126.017V131.98ZM191.056 133.569C192.112 134.453 192.724 135.668 192.724 137.585H198.724C198.724 134.16 197.513 131.177 194.921 129.008L191.056 133.569ZM192.724 137.585C192.724 139.01 192.367 140.021 191.797 140.79L196.627 144.328C198.073 142.377 198.724 140.073 198.724 137.585H192.724ZM191.792 140.797C191.239 141.548 190.39 142.185 189.038 142.621L190.891 148.292C193.235 147.536 195.217 146.241 196.633 144.32L191.792 140.797ZM187.521 147.187L193.677 155.773L198.563 152.313L192.407 143.726L187.521 147.187ZM196.12 151.062H193.204V157.025H196.12V151.062ZM185.356 146.828C188.246 146.828 190.948 146.198 193.005 144.488L189.156 139.914C188.573 140.398 187.458 140.865 185.356 140.865V146.828ZM193.005 144.488C195.118 142.731 196.06 140.293 196.06 137.585H190.06C190.06 138.838 189.683 139.476 189.156 139.914L193.005 144.488ZM196.06 137.585C196.06 134.858 195.135 132.379 192.98 130.627L189.18 135.242C189.666 135.637 190.06 136.258 190.06 137.585H196.06ZM193.005 130.648C190.948 128.937 188.246 128.307 185.356 128.307V134.27C187.458 134.27 188.573 134.737 189.156 135.221L193.005 130.648ZM185.356 128.307H178.66V134.27H185.356V128.307ZM175.66 131.289V143.847H181.66V131.289H175.66ZM178.66 146.828H185.356V140.865H178.66V146.828ZM223.432 151.753H226.432C226.432 150.107 225.089 148.772 223.432 148.772V151.753ZM223.432 154.043V157.025C225.089 157.025 226.432 155.69 226.432 154.043H223.432ZM205.612 154.043H202.612C202.612 155.69 203.955 157.025 205.612 157.025V154.043ZM205.612 128.999V126.017C203.955 126.017 202.612 127.352 202.612 128.999H205.612ZM222.892 128.999H225.892C225.892 127.352 224.549 126.017 222.892 126.017V128.999ZM222.892 131.289V134.27C224.549 134.27 225.892 132.935 225.892 131.289H222.892ZM208.276 131.289V128.307C206.619 128.307 205.276 129.642 205.276 131.289H208.276ZM208.276 140.197H205.276C205.276 141.844 206.619 143.179 208.276 143.179V140.197ZM221.308 140.197H224.308C224.308 138.55 222.965 137.216 221.308 137.216V140.197ZM221.308 142.451V145.433C222.965 145.433 224.308 144.098 224.308 142.451H221.308ZM208.276 142.451V139.47C206.619 139.47 205.276 140.804 205.276 142.451H208.276ZM208.276 151.753H205.276C205.276 153.4 206.619 154.735 208.276 154.735V151.753ZM220.432 151.753V154.043H226.432V151.753H220.432ZM223.432 151.062H205.612V157.025H223.432V151.062ZM208.612 154.043V128.999H202.612V154.043H208.612ZM205.612 131.98H222.892V126.017H205.612V131.98ZM219.892 128.999V131.289H225.892V128.999H219.892ZM222.892 128.307H208.276V134.27H222.892V128.307ZM205.276 131.289V140.197H211.276V131.289H205.276ZM208.276 143.179H221.308V137.216H208.276V143.179ZM218.308 140.197V142.451H224.308V140.197H218.308ZM221.308 139.47H208.276V145.433H221.308V139.47ZM205.276 142.451V151.753H211.276V142.451H205.276ZM208.276 154.735H223.432V148.772H208.276V154.735Z" fill="#80FF80"/>
<path d="M63.28 103.736H58.08V103.358H68.88V103.736H63.68V117.272H63.28V103.736ZM84.617 103.358V117.272H84.217V110.394H74.017V117.272H73.617V103.358H74.017V110.017H84.217V103.358H84.617ZM101.265 116.894V117.272H91.9452V103.358H100.965V103.736H92.3452V110.017H100.065V110.394H92.3452V116.894H101.265Z" fill="#80FF80"/>
<path d="M63.28 103.736H65.28C65.28 102.637 64.3846 101.748 63.28 101.748V103.736ZM58.08 103.736H56.08C56.08 104.834 56.9754 105.723 58.08 105.723V103.736ZM58.08 103.358V101.37C56.9754 101.37 56.08 102.26 56.08 103.358H58.08ZM68.88 103.358H70.88C70.88 102.26 69.9846 101.37 68.88 101.37V103.358ZM68.88 103.736V105.723C69.9846 105.723 70.88 104.834 70.88 103.736H68.88ZM63.68 103.736V101.748C62.5754 101.748 61.68 102.637 61.68 103.736H63.68ZM63.68 117.272V119.259C64.7846 119.259 65.68 118.37 65.68 117.272H63.68ZM63.28 117.272H61.28C61.28 118.37 62.1754 119.259 63.28 119.259V117.272ZM63.28 101.748H58.08V105.723H63.28V101.748ZM60.08 103.736V103.358H56.08V103.736H60.08ZM58.08 105.346H68.88V101.37H58.08V105.346ZM66.88 103.358V103.736H70.88V103.358H66.88ZM68.88 101.748H63.68V105.723H68.88V101.748ZM61.68 103.736V117.272H65.68V103.736H61.68ZM63.68 115.284H63.28V119.259H63.68V115.284ZM65.28 117.272V103.736H61.28V117.272H65.28ZM84.617 103.358H86.617C86.617 102.26 85.7216 101.37 84.617 101.37V103.358ZM84.617 117.272V119.259C85.7216 119.259 86.617 118.37 86.617 117.272H84.617ZM84.217 117.272H82.217C82.217 118.37 83.1125 119.259 84.217 119.259V117.272ZM84.217 110.394H86.217C86.217 109.296 85.3216 108.407 84.217 108.407V110.394ZM74.017 110.394V108.407C72.9125 108.407 72.017 109.296 72.017 110.394H74.017ZM74.017 117.272V119.259C75.1216 119.259 76.017 118.37 76.017 117.272H74.017ZM73.617 117.272H71.617C71.617 118.37 72.5125 119.259 73.617 119.259V117.272ZM73.617 103.358V101.37C72.5125 101.37 71.617 102.26 71.617 103.358H73.617ZM74.017 103.358H76.017C76.017 102.26 75.1216 101.37 74.017 101.37V103.358ZM74.017 110.017H72.017C72.017 111.115 72.9125 112.004 74.017 112.004V110.017ZM84.217 110.017V112.004C85.3216 112.004 86.217 111.115 86.217 110.017H84.217ZM84.217 103.358V101.37C83.1125 101.37 82.217 102.26 82.217 103.358H84.217ZM82.617 103.358V117.272H86.617V103.358H82.617ZM84.617 115.284H84.217V119.259H84.617V115.284ZM86.217 117.272V110.394H82.217V117.272H86.217ZM84.217 108.407H74.017V112.382H84.217V108.407ZM72.017 110.394V117.272H76.017V110.394H72.017ZM74.017 115.284H73.617V119.259H74.017V115.284ZM75.617 117.272V103.358H71.617V117.272H75.617ZM73.617 105.346H74.017V101.37H73.617V105.346ZM72.017 103.358V110.017H76.017V103.358H72.017ZM74.017 112.004H84.217V108.029H74.017V112.004ZM86.217 110.017V103.358H82.217V110.017H86.217ZM84.217 105.346H84.617V101.37H84.217V105.346ZM101.265 116.894H103.265C103.265 115.796 102.37 114.906 101.265 114.906V116.894ZM101.265 117.272V119.259C102.37 119.259 103.265 118.37 103.265 117.272H101.265ZM91.9452 117.272H89.9452C89.9452 118.37 90.8406 119.259 91.9452 119.259V117.272ZM91.9452 103.358V101.37C90.8406 101.37 89.9452 102.26 89.9452 103.358H91.9452ZM100.965 103.358H102.965C102.965 102.26 102.07 101.37 100.965 101.37V103.358ZM100.965 103.736V105.723C102.07 105.723 102.965 104.834 102.965 103.736H100.965ZM92.3452 103.736V101.748C91.2406 101.748 90.3452 102.637 90.3452 103.736H92.3452ZM92.3452 110.017H90.3452C90.3452 111.115 91.2406 112.004 92.3452 112.004V110.017ZM100.065 110.017H102.065C102.065 108.918 101.17 108.029 100.065 108.029V110.017ZM100.065 110.394V112.382C101.17 112.382 102.065 111.492 102.065 110.394H100.065ZM92.3452 110.394V108.407C91.2406 108.407 90.3452 109.296 90.3452 110.394H92.3452ZM92.3452 116.894H90.3452C90.3452 117.992 91.2406 118.882 92.3452 118.882V116.894ZM99.2652 116.894V117.272H103.265V116.894H99.2652ZM101.265 115.284H91.9452V119.259H101.265V115.284ZM93.9452 117.272V103.358H89.9452V117.272H93.9452ZM91.9452 105.346H100.965V101.37H91.9452V105.346ZM98.9652 103.358V103.736H102.965V103.358H98.9652ZM100.965 101.748H92.3452V105.723H100.965V101.748ZM90.3452 103.736V110.017H94.3452V103.736H90.3452ZM92.3452 112.004H100.065V108.029H92.3452V112.004ZM98.0652 110.017V110.394H102.065V110.017H98.0652ZM100.065 108.407H92.3452V112.382H100.065V108.407ZM90.3452 110.394V116.894H94.3452V110.394H90.3452ZM92.3452 118.882H101.265V114.906H92.3452V118.882Z" fill="#80FF80"/>
<path d="M0 144.145L9.46667 145.403C18.9333 146.699 37.8667 149.214 56.8 146.622C75.7333 144.03 94.6667 136.255 113.6 136.788C132.533 137.284 151.467 146.051 170.4 146.622C189.333 147.194 208.267 139.571 227.2 135.644C246.133 131.681 265.067 131.452 274.533 131.299L284 131.185V321.006H274.533C265.067 321.006 246.133 321.006 227.2 321.006C208.267 321.006 189.333 321.006 170.4 321.006C151.467 321.006 132.533 321.006 113.6 321.006C94.6667 321.006 75.7333 321.006 56.8 321.006C37.8667 321.006 18.9333 321.006 9.46667 321.006H0V144.145Z" fill="#80FF80"/>
<path d="M0 151.605L9.46667 155.835C18.9333 160.025 37.8667 168.486 56.8 172.162C75.7333 175.838 94.6667 174.81 113.6 173.664C132.533 172.557 151.467 171.372 170.4 178.408C189.333 185.484 208.267 200.743 227.2 200.625C246.133 200.507 265.067 184.93 274.533 177.182L284 169.395V320.408H274.533C265.067 320.408 246.133 320.408 227.2 320.408C208.267 320.408 189.333 320.408 170.4 320.408C151.467 320.408 132.533 320.408 113.6 320.408C94.6667 320.408 75.7333 320.408 56.8 320.408C37.8667 320.408 18.9333 320.408 9.46667 320.408H0V151.605Z" fill="#63F361"/>
<path d="M0 228.693V204.728C9.46667 202.949 29.6 217.545 56.8 218.019C84 218.494 94.6667 210.903 113.6 210.983C132.533 211.022 151.467 214.738 170.4 218.494C189.333 222.25 208.267 226.044 227.2 220.707C246.133 215.37 269.327 208.926 284 195.881V320.408H274.533C265.067 320.408 246.133 320.408 227.2 320.408C208.267 320.408 189.333 320.408 170.4 320.408C151.467 320.408 132.533 320.408 113.6 320.408C94.6667 320.408 75.7333 320.408 56.8 320.408C37.8667 320.408 18.9333 320.408 9.46667 320.408H0V228.693Z" fill="#48E145"/>
<path d="M0 233.832L9.46667 236.086C18.9333 238.299 37.8667 242.806 56.8 244.98C75.7333 247.155 94.6667 246.996 113.6 242.806C132.533 238.576 147.825 234.495 170.4 233.437C192.619 232.396 209.213 233.437 227.2 237.271C245.187 241.106 274.533 247.233 284 254.389V266.248V320.408H274.533C265.067 320.408 246.133 320.408 227.2 320.408C208.267 320.408 189.333 320.408 170.4 320.408C151.467 320.408 132.533 320.408 113.6 320.408C94.6667 320.408 75.7333 320.408 56.8 320.408C37.8667 320.408 18.9333 320.408 9.46667 320.408H0V233.832Z" fill="#30CE2D"/>
<path d="M0 294.177L9.46667 294.85C18.9333 295.482 37.8667 296.826 56.8 295.086C75.7333 293.387 94.6667 288.643 113.6 282.317C132.533 275.993 151.467 268.086 170.4 266.386C189.333 264.646 208.267 269.153 227.2 268.995C246.133 268.877 265.067 264.132 274.533 261.761L284 259.389V321.454H274.533C265.067 321.454 246.133 321.454 227.2 321.454C208.267 321.454 189.333 321.454 170.4 321.454C151.467 321.454 132.533 321.454 113.6 321.454C94.6667 321.454 75.7333 321.454 56.8 321.454C37.8667 321.454 18.9333 321.454 9.46667 321.454H0V294.177Z" fill="#00C200"/>
<path d="M76.6005 212.576H78.6005C78.6005 211.477 77.705 210.588 76.6005 210.588V212.576ZM76.6005 213.673V215.66C77.705 215.66 78.6005 214.771 78.6005 213.673H76.6005ZM65.0085 213.673H63.0085C63.0085 214.771 63.9039 215.66 65.0085 215.66V213.673ZM65.0085 196.977V194.989C63.9039 194.989 63.0085 195.878 63.0085 196.977H65.0085ZM76.2405 196.977H78.2405C78.2405 195.878 77.345 194.989 76.2405 194.989V196.977ZM76.2405 198.074V200.061C77.345 200.061 78.2405 199.172 78.2405 198.074H76.2405ZM66.2325 198.074V196.086C65.1279 196.086 64.2325 196.976 64.2325 198.074H66.2325ZM66.2325 204.657H64.2325C64.2325 205.755 65.1279 206.644 66.2325 206.644V204.657ZM75.1845 204.657H77.1845C77.1845 203.559 76.289 202.669 75.1845 202.669V204.657ZM75.1845 205.73V207.718C76.289 207.718 77.1845 206.828 77.1845 205.73H75.1845ZM66.2325 205.73V203.743C65.1279 203.743 64.2325 204.632 64.2325 205.73H66.2325ZM66.2325 212.576H64.2325C64.2325 213.674 65.1279 214.563 66.2325 214.563V212.576ZM74.6005 212.576V213.673H78.6005V212.576H74.6005ZM76.6005 211.685H65.0085V215.66H76.6005V211.685ZM67.0085 213.673V196.977H63.0085V213.673H67.0085ZM65.0085 198.964H76.2405V194.989H65.0085V198.964ZM74.2405 196.977V198.074H78.2405V196.977H74.2405ZM76.2405 196.086H66.2325V200.061H76.2405V196.086ZM64.2325 198.074V204.657H68.2325V198.074H64.2325ZM66.2325 206.644H75.1845V202.669H66.2325V206.644ZM73.1845 204.657V205.73H77.1845V204.657H73.1845ZM75.1845 203.743H66.2325V207.718H75.1845V203.743ZM64.2325 205.73V212.576H68.2325V205.73H64.2325ZM66.2325 214.563H76.6005V210.588H66.2325V214.563ZM83.4632 196.977V194.989C82.3586 194.989 81.4632 195.878 81.4632 196.977H83.4632ZM84.6872 196.977H86.6872C86.6872 195.878 85.7917 194.989 84.6872 194.989V196.977ZM84.6872 212.576H82.6872C82.6872 213.674 83.5826 214.563 84.6872 214.563V212.576ZM94.3592 212.576H96.3592C96.3592 211.477 95.4637 210.588 94.3592 210.588V212.576ZM94.3592 213.673V215.66C95.4637 215.66 96.3592 214.771 96.3592 213.673H94.3592ZM83.4632 213.673H81.4632C81.4632 214.771 82.3586 215.66 83.4632 215.66V213.673ZM83.4632 198.964H84.6872V194.989H83.4632V198.964ZM82.6872 196.977V212.576H86.6872V196.977H82.6872ZM84.6872 214.563H94.3592V210.588H84.6872V214.563ZM92.3592 212.576V213.673H96.3592V212.576H92.3592ZM94.3592 211.685H83.4632V215.66H94.3592V211.685ZM85.4632 213.673V196.977H81.4632V213.673H85.4632ZM109.69 198.074V196.086C108.586 196.086 107.69 196.976 107.69 198.074H109.69ZM109.69 205.205H107.69C107.69 206.304 108.586 207.193 109.69 207.193V205.205ZM118.642 205.205H120.642C120.642 204.107 119.747 203.218 118.642 203.218V205.205ZM118.642 206.303V208.29C119.747 208.29 120.642 207.401 120.642 206.303H118.642ZM109.69 206.303V204.315C108.586 204.315 107.69 205.204 107.69 206.303H109.69ZM109.69 213.673V215.66C110.795 215.66 111.69 214.771 111.69 213.673H109.69ZM108.466 213.673H106.466C106.466 214.771 107.362 215.66 108.466 215.66V213.673ZM108.466 196.977V194.989C107.362 194.989 106.466 195.878 106.466 196.977H108.466ZM119.698 196.977H121.698C121.698 195.878 120.803 194.989 119.698 194.989V196.977ZM119.698 198.074V200.061C120.803 200.061 121.698 199.172 121.698 198.074H119.698ZM107.69 198.074V205.205H111.69V198.074H107.69ZM109.69 207.193H118.642V203.218H109.69V207.193ZM116.642 205.205V206.303H120.642V205.205H116.642ZM118.642 204.315H109.69V208.29H118.642V204.315ZM107.69 206.303V213.673H111.69V206.303H107.69ZM109.69 211.685H108.466V215.66H109.69V211.685ZM110.466 213.673V196.977H106.466V213.673H110.466ZM108.466 198.964H119.698V194.989H108.466V198.964ZM117.698 196.977V198.074H121.698V196.977H117.698ZM119.698 196.086H109.69V200.061H119.698V196.086ZM127.615 211.956L126.163 213.323L126.173 213.333L127.615 211.956ZM125.863 196.977V194.989C124.758 194.989 123.863 195.878 123.863 196.977H125.863ZM127.087 196.977H129.087C129.087 195.878 128.191 194.989 127.087 194.989V196.977ZM128.503 211.145L127.032 212.492L128.503 211.145ZM136.687 211.145L135.216 209.797L136.687 211.145ZM138.103 196.977V194.989C136.998 194.989 136.103 195.878 136.103 196.977H138.103ZM139.327 196.977H141.327C141.327 195.878 140.431 194.989 139.327 194.989V196.977ZM137.551 211.956L136.109 210.578L137.551 211.956ZM132.583 211.804C130.857 211.804 129.776 211.321 129.057 210.578L126.173 213.333C127.822 215.038 130.053 215.78 132.583 215.78V211.804ZM129.066 210.588C128.369 209.858 127.863 208.636 127.863 206.589H123.863C123.863 209.248 124.524 211.605 126.163 213.323L129.066 210.588ZM127.863 206.589V196.977H123.863V206.589H127.863ZM125.863 198.964H127.087V194.989H125.863V198.964ZM125.087 196.977V206.541H129.087V196.977H125.087ZM125.087 206.541C125.087 208.856 125.615 210.964 127.032 212.492L129.973 209.797C129.502 209.29 129.087 208.329 129.087 206.541H125.087ZM127.032 212.492C128.457 214.027 130.426 214.659 132.607 214.659V210.683C131.204 210.683 130.437 210.298 129.973 209.797L127.032 212.492ZM132.607 214.659C134.778 214.659 136.737 214.024 138.157 212.492L135.216 209.797C134.749 210.301 133.988 210.683 132.607 210.683V214.659ZM138.157 212.492C139.574 210.964 140.103 208.856 140.103 206.541H136.103C136.103 208.329 135.687 209.29 135.216 209.797L138.157 212.492ZM140.103 206.541V196.977H136.103V206.541H140.103ZM138.103 198.964H139.327V194.989H138.103V198.964ZM137.327 196.977V206.589H141.327V196.977H137.327ZM137.327 206.589C137.327 208.629 136.816 209.847 136.109 210.578L138.993 213.333C140.654 211.616 141.327 209.255 141.327 206.589H137.327ZM136.109 210.578C135.39 211.321 134.309 211.804 132.583 211.804V215.78C135.113 215.78 137.344 215.038 138.993 213.333L136.109 210.578ZM150.926 198.074H152.926C152.926 196.976 152.031 196.086 150.926 196.086V198.074ZM144.878 198.074H142.878C142.878 199.172 143.773 200.061 144.878 200.061V198.074ZM144.878 196.977V194.989C143.773 194.989 142.878 195.878 142.878 196.977H144.878ZM158.198 196.977H160.198C160.198 195.878 159.303 194.989 158.198 194.989V196.977ZM158.198 198.074V200.061C159.303 200.061 160.198 199.172 160.198 198.074H158.198ZM152.15 198.074V196.086C151.045 196.086 150.15 196.976 150.15 198.074H152.15ZM152.15 213.673V215.66C153.255 215.66 154.15 214.771 154.15 213.673H152.15ZM150.926 213.673H148.926C148.926 214.771 149.821 215.66 150.926 215.66V213.673ZM150.926 196.086H144.878V200.061H150.926V196.086ZM146.878 198.074V196.977H142.878V198.074H146.878ZM144.878 198.964H158.198V194.989H144.878V198.964ZM156.198 196.977V198.074H160.198V196.977H156.198ZM158.198 196.086H152.15V200.061H158.198V196.086ZM150.15 198.074V213.673H154.15V198.074H150.15ZM152.15 211.685H150.926V215.66H152.15V211.685ZM152.926 213.673V198.074H148.926V213.673H152.926ZM165.841 211.956L164.39 213.323L164.399 213.333L165.841 211.956ZM164.089 196.977V194.989C162.985 194.989 162.089 195.878 162.089 196.977H164.089ZM165.313 196.977H167.313C167.313 195.878 166.418 194.989 165.313 194.989V196.977ZM166.729 211.145L165.259 212.492L166.729 211.145ZM174.913 211.145L173.443 209.797L174.913 211.145ZM176.329 196.977V194.989C175.225 194.989 174.329 195.878 174.329 196.977H176.329ZM177.553 196.977H179.553C179.553 195.878 178.658 194.989 177.553 194.989V196.977ZM175.777 211.956L174.335 210.578L175.777 211.956ZM170.809 211.804C169.084 211.804 168.002 211.321 167.283 210.578L164.399 213.333C166.049 215.038 168.279 215.78 170.809 215.78V211.804ZM167.293 210.588C166.596 209.858 166.089 208.636 166.089 206.589H162.089C162.089 209.248 162.751 211.605 164.39 213.323L167.293 210.588ZM166.089 206.589V196.977H162.089V206.589H166.089ZM164.089 198.964H165.313V194.989H164.089V198.964ZM163.313 196.977V206.541H167.313V196.977H163.313ZM163.313 206.541C163.313 208.856 163.842 210.964 165.259 212.492L168.2 209.797C167.729 209.29 167.313 208.329 167.313 206.541H163.313ZM165.259 212.492C166.683 214.027 168.653 214.659 170.833 214.659V210.683C169.43 210.683 168.664 210.298 168.2 209.797L165.259 212.492ZM170.833 214.659C173.005 214.659 174.963 214.024 176.384 212.492L173.443 209.797C172.976 210.301 172.214 210.683 170.833 210.683V214.659ZM176.384 212.492C177.801 210.964 178.329 208.856 178.329 206.541H174.329C174.329 208.329 173.914 209.29 173.443 209.797L176.384 212.492ZM178.329 206.541V196.977H174.329V206.541H178.329ZM176.329 198.964H177.553V194.989H176.329V198.964ZM175.553 196.977V206.589H179.553V196.977H175.553ZM175.553 206.589C175.553 208.629 175.042 209.847 174.335 210.578L177.219 213.333C178.88 211.616 179.553 209.255 179.553 206.589H175.553ZM174.335 210.578C173.617 211.321 172.535 211.804 170.809 211.804V215.78C173.34 215.78 175.57 215.038 177.219 213.333L174.335 210.578ZM196.729 213.673L195.101 214.828C195.476 215.35 196.083 215.66 196.729 215.66V213.673ZM192.721 208.092L194.349 206.937C193.918 206.336 193.188 206.023 192.453 206.122L192.721 208.092ZM186.289 208.211V206.223C185.184 206.223 184.289 207.113 184.289 208.211H186.289ZM186.289 213.673V215.66C187.393 215.66 188.289 214.771 188.289 213.673H186.289ZM185.065 213.673H183.065C183.065 214.771 183.96 215.66 185.065 215.66V213.673ZM185.065 196.977V194.989C183.96 194.989 183.065 195.878 183.065 196.977H185.065ZM196.057 198.479L194.77 200.001C194.774 200.005 194.778 200.008 194.782 200.011L196.057 198.479ZM196.825 205.945L195.228 204.748L195.225 204.752L196.825 205.945ZM193.921 207.829L193.362 205.921C192.739 206.101 192.243 206.57 192.031 207.178C191.819 207.787 191.916 208.46 192.293 208.984L193.921 207.829ZM198.121 213.673V215.66C198.87 215.66 199.556 215.244 199.899 214.582C200.242 213.92 200.184 213.123 199.748 212.518L198.121 213.673ZM195.193 205.969L196.471 207.498C196.476 207.493 196.481 207.489 196.486 207.485L195.193 205.969ZM195.193 199.266L193.9 200.783C193.905 200.787 193.91 200.791 193.915 200.796L195.193 199.266ZM186.289 198.074V196.086C185.184 196.086 184.289 196.976 184.289 198.074H186.289ZM186.289 207.137H184.289C184.289 208.236 185.184 209.125 186.289 209.125V207.137ZM198.357 212.518L194.349 206.937L191.093 209.246L195.101 214.828L198.357 212.518ZM192.453 206.122C191.932 206.191 191.479 206.223 191.089 206.223V210.198C191.69 210.198 192.325 210.151 192.989 210.061L192.453 206.122ZM191.089 206.223H186.289V210.198H191.089V206.223ZM184.289 208.211V213.673H188.289V208.211H184.289ZM186.289 211.685H185.065V215.66H186.289V211.685ZM187.065 213.673V196.977H183.065V213.673H187.065ZM185.065 198.964H191.089V194.989H185.065V198.964ZM191.089 198.964C192.894 198.964 194.039 199.391 194.77 200.001L197.343 196.958C195.674 195.564 193.507 194.989 191.089 194.989V198.964ZM194.782 200.011C195.455 200.563 195.857 201.339 195.857 202.606H199.857C199.857 200.342 199.059 198.367 197.331 196.948L194.782 200.011ZM195.857 202.606C195.857 203.567 195.613 204.24 195.228 204.748L198.421 207.141C199.412 205.837 199.857 204.284 199.857 202.606H195.857ZM195.225 204.752C194.856 205.241 194.285 205.654 193.362 205.921L194.48 209.737C196.084 209.273 197.449 208.429 198.425 207.137L195.225 204.752ZM192.293 208.984L196.493 214.828L199.748 212.518L195.548 206.674L192.293 208.984ZM198.121 211.685H196.729V215.66H198.121V211.685ZM191.089 209.125C193.138 209.125 195.034 208.683 196.471 207.498L193.915 204.439C193.463 204.813 192.623 205.15 191.089 205.15V209.125ZM196.486 207.485C197.959 206.244 198.609 204.523 198.609 202.606H194.609C194.609 203.583 194.314 204.103 193.9 204.452L196.486 207.485ZM198.609 202.606C198.609 200.689 197.959 198.965 196.471 197.737L193.915 200.796C194.315 201.126 194.609 201.628 194.609 202.606H198.609ZM196.486 197.75C195.049 196.539 193.147 196.086 191.089 196.086V200.061C192.615 200.061 193.449 200.403 193.9 200.783L196.486 197.75ZM191.089 196.086H186.289V200.061H191.089V196.086ZM184.289 198.074V207.137H188.289V198.074H184.289ZM186.289 209.125H191.089V205.15H186.289V209.125ZM207.402 212.695L206.417 214.424C206.422 214.427 206.427 214.43 206.433 214.433L207.402 212.695ZM204.258 209.642L202.528 210.64C202.531 210.645 202.534 210.65 202.538 210.656L204.258 209.642ZM204.258 201.008L202.538 199.994C202.534 200 202.531 200.005 202.528 200.01L204.258 201.008ZM207.402 197.978L208.372 199.717C208.377 199.714 208.382 199.711 208.388 199.708L207.402 197.978ZM219.45 200.984L217.72 201.981C217.723 201.986 217.726 201.991 217.73 201.997L219.45 200.984ZM219.45 209.666L217.73 208.652C217.726 208.658 217.723 208.663 217.72 208.668L219.45 209.666ZM216.33 212.695L217.3 214.433L216.33 212.695ZM215.682 211.717L214.7 209.986L215.682 211.717ZM218.37 209.093L220.096 210.098L220.102 210.087L218.37 209.093ZM218.37 201.58L216.638 202.574L216.644 202.585L218.37 201.58ZM215.682 198.932L214.7 200.664L215.682 198.932ZM208.026 198.932L207.055 197.195L207.044 197.201L208.026 198.932ZM205.338 201.58L207.064 202.585L207.07 202.574L205.338 201.58ZM205.338 209.093L203.606 210.087L203.612 210.098L205.338 209.093ZM208.026 211.717L207.044 213.449L207.055 213.454L208.026 211.717ZM211.866 211.804C210.528 211.804 209.378 211.51 208.372 210.957L206.433 214.433C208.082 215.342 209.909 215.78 211.866 215.78V211.804ZM208.388 210.966C207.359 210.386 206.566 209.614 205.979 208.628L202.538 210.656C203.486 212.246 204.789 213.509 206.417 214.424L208.388 210.966ZM205.988 208.644C205.425 207.68 205.13 206.589 205.13 205.325H201.13C201.13 207.241 201.587 209.028 202.528 210.64L205.988 208.644ZM205.13 205.325C205.13 204.061 205.425 202.969 205.988 202.005L202.528 200.01C201.587 201.622 201.13 203.409 201.13 205.325H205.13ZM205.979 202.021C206.564 201.039 207.352 200.279 208.372 199.717L206.433 196.24C204.797 197.141 203.488 198.4 202.538 199.994L205.979 202.021ZM208.388 199.708C209.391 199.143 210.535 198.845 211.866 198.845V194.87C209.901 194.87 208.069 195.319 206.417 196.249L208.388 199.708ZM211.866 198.845C213.205 198.845 214.354 199.139 215.361 199.693L217.3 196.216C215.65 195.307 213.824 194.87 211.866 194.87V198.845ZM215.361 199.693C216.377 200.253 217.152 201.008 217.72 201.981L221.18 199.986C220.244 198.383 218.939 197.119 217.3 196.216L215.361 199.693ZM217.73 201.997C218.301 202.955 218.602 204.049 218.602 205.325H222.602C222.602 203.389 222.135 201.588 221.171 199.97L217.73 201.997ZM218.602 205.325C218.602 206.601 218.301 207.694 217.73 208.652L221.171 210.679C222.135 209.061 222.602 207.261 222.602 205.325H218.602ZM217.72 208.668C217.152 209.641 216.377 210.396 215.361 210.957L217.3 214.433C218.939 213.531 220.244 212.267 221.18 210.664L217.72 208.668ZM215.361 210.957C214.354 211.51 213.205 211.804 211.866 211.804V215.78C213.824 215.78 215.65 215.342 217.3 214.433L215.361 210.957ZM211.866 214.659C213.59 214.659 215.204 214.266 216.664 213.448L214.7 209.986C213.888 210.44 212.959 210.683 211.866 210.683V214.659ZM216.664 213.448C218.107 212.641 219.26 211.516 220.096 210.098L216.644 208.089C216.168 208.896 215.53 209.521 214.7 209.986L216.664 213.448ZM220.102 210.087C220.945 208.637 221.354 207.035 221.354 205.325H217.354C217.354 206.381 217.108 207.291 216.638 208.099L220.102 210.087ZM221.354 205.325C221.354 203.614 220.945 202.015 220.096 200.575L216.644 202.585C217.108 203.371 217.354 204.268 217.354 205.325H221.354ZM220.102 200.586C219.268 199.151 218.114 198.012 216.664 197.201L214.7 200.664C215.522 201.125 216.16 201.751 216.638 202.574L220.102 200.586ZM216.664 197.201C215.204 196.383 213.59 195.991 211.866 195.991V199.966C212.959 199.966 213.888 200.209 214.7 200.664L216.664 197.201ZM211.866 195.991C210.142 195.991 208.524 196.383 207.055 197.195L208.997 200.67C209.832 200.209 210.774 199.966 211.866 199.966V195.991ZM207.044 197.201C205.594 198.012 204.44 199.151 203.606 200.586L207.07 202.574C207.548 201.751 208.186 201.125 209.008 200.664L207.044 197.201ZM203.612 200.575C202.764 202.015 202.354 203.614 202.354 205.325H206.354C206.354 204.268 206.601 203.371 207.064 202.585L203.612 200.575ZM202.354 205.325C202.354 207.035 202.764 208.637 203.606 210.087L207.07 208.099C206.601 207.291 206.354 206.381 206.354 205.325H202.354ZM203.612 210.098C204.448 211.516 205.602 212.641 207.044 213.448L209.008 209.986C208.179 209.521 207.54 208.896 207.064 208.089L203.612 210.098ZM207.055 213.454C208.524 214.266 210.142 214.659 211.866 214.659V210.683C210.774 210.683 209.832 210.44 208.997 209.98L207.055 213.454Z" fill="white"/>
<g style="mix-blend-mode:soft-light">
<path d="M58 186.84H226" stroke="white"/>
</g>
<mask id="mask0_44_627" style="mask-type:alpha" maskUnits="userSpaceOnUse" x="59" y="126" width="168" height="55">
<path d="M64.768 131.289V128.307C63.1111 128.307 61.768 129.642 61.768 131.289H64.768ZM64.768 141.127H61.768C61.768 142.774 63.1111 144.109 64.768 144.109V141.127ZM77.8 141.127H80.8C80.8 139.481 79.4569 138.146 77.8 138.146V141.127ZM77.8 143.417V146.399C79.4569 146.399 80.8 145.064 80.8 143.417H77.8ZM64.768 143.417V140.436C63.1111 140.436 61.768 141.77 61.768 143.417H64.768ZM64.768 154.043V157.025C66.4249 157.025 67.768 155.69 67.768 154.043H64.768ZM62.104 154.043H59.104C59.104 155.69 60.4471 157.025 62.104 157.025V154.043ZM62.104 128.999V126.017C60.4471 126.017 59.104 127.352 59.104 128.999H62.104ZM79.384 128.999H82.384C82.384 127.352 81.0409 126.017 79.384 126.017V128.999ZM79.384 131.289V134.27C81.0409 134.27 82.384 132.935 82.384 131.289H79.384ZM61.768 131.289V141.127H67.768V131.289H61.768ZM64.768 144.109H77.8V138.146H64.768V144.109ZM74.8 141.127V143.417H80.8V141.127H74.8ZM77.8 140.436H64.768V146.399H77.8V140.436ZM61.768 143.417V154.043H67.768V143.417H61.768ZM64.768 151.062H62.104V157.025H64.768V151.062ZM65.104 154.043V128.999H59.104V154.043H65.104ZM62.104 131.98H79.384V126.017H62.104V131.98ZM76.384 128.999V131.289H82.384V128.999H76.384ZM79.384 128.307H64.768V134.27H79.384V128.307ZM91.0053 151.467L93.1539 149.386L91.0053 151.467ZM88.2693 128.999V126.017C86.6124 126.017 85.2693 127.352 85.2693 128.999H88.2693ZM90.9333 128.999H93.9333C93.9333 127.352 92.5901 126.017 90.9333 126.017V128.999ZM104.397 149.75L106.609 151.764L104.397 149.75ZM106.377 128.999V126.017C104.72 126.017 103.377 127.352 103.377 128.999H106.377ZM108.969 128.999H111.969C111.969 127.352 110.626 126.017 108.969 126.017V128.999ZM106.233 151.467L104.085 149.386C104.08 149.391 104.075 149.396 104.071 149.401L106.233 151.467ZM98.6373 151.276C95.9688 151.276 94.2798 150.535 93.1539 149.386L88.8566 153.548C91.3787 156.12 94.7777 157.239 98.6373 157.239V151.276ZM93.1539 149.386C92.0511 148.262 91.2693 146.414 91.2693 143.346H85.2693C85.2693 147.386 86.3114 150.951 88.8566 153.548L93.1539 149.386ZM91.2693 143.346V128.999H85.2693V143.346H91.2693ZM88.2693 131.98H90.9333V126.017H88.2693V131.98ZM87.9333 128.999V143.238H93.9333V128.999H87.9333ZM87.9333 143.238C87.9333 146.531 88.6724 149.564 90.7018 151.764L95.1247 147.735C94.5141 147.073 93.9333 145.766 93.9333 143.238H87.9333ZM90.7018 151.764C92.7385 153.973 95.5487 154.878 98.6373 154.878V148.915C96.7338 148.915 95.728 148.389 95.1247 147.735L90.7018 151.764ZM98.6373 154.878C101.74 154.878 104.567 153.979 106.609 151.764L102.186 147.735C101.588 148.383 100.575 148.915 98.6373 148.915V154.878ZM106.609 151.764C108.638 149.564 109.377 146.531 109.377 143.238H103.377C103.377 145.766 102.796 147.073 102.186 147.735L106.609 151.764ZM109.377 143.238V128.999H103.377V143.238H109.377ZM106.377 131.98H108.969V126.017H106.377V131.98ZM105.969 128.999V143.346H111.969V128.999H105.969ZM105.969 143.346C105.969 146.414 105.187 148.262 104.085 149.386L108.382 153.548C110.927 150.951 111.969 147.386 111.969 143.346H105.969ZM104.071 149.401C102.974 150.534 101.308 151.276 98.6373 151.276V157.239C102.495 157.239 105.893 156.121 108.396 153.533L104.071 149.401ZM125.001 131.289H128.001C128.001 129.642 126.658 128.307 125.001 128.307V131.289ZM116.145 131.289H113.145C113.145 132.935 114.488 134.27 116.145 134.27V131.289ZM116.145 128.999V126.017C114.488 126.017 113.145 127.352 113.145 128.999H116.145ZM136.521 128.999H139.521C139.521 127.352 138.178 126.017 136.521 126.017V128.999ZM136.521 131.289V134.27C138.178 134.27 139.521 132.935 139.521 131.289H136.521ZM127.665 131.289V128.307C126.008 128.307 124.665 129.642 124.665 131.289H127.665ZM127.665 154.043V157.025C129.322 157.025 130.665 155.69 130.665 154.043H127.665ZM125.001 154.043H122.001C122.001 155.69 123.344 157.025 125.001 157.025V154.043ZM125.001 128.307H116.145V134.27H125.001V128.307ZM119.145 131.289V128.999H113.145V131.289H119.145ZM116.145 131.98H136.521V126.017H116.145V131.98ZM133.521 128.999V131.289H139.521V128.999H133.521ZM136.521 128.307H127.665V134.27H136.521V128.307ZM124.665 131.289V154.043H130.665V131.289H124.665ZM127.665 151.062H125.001V157.025H127.665V151.062ZM128.001 154.043V131.289H122.001V154.043H128.001ZM146.404 151.467L148.553 149.386L146.404 151.467ZM143.668 128.999V126.017C142.012 126.017 140.668 127.352 140.668 128.999H143.668ZM146.332 128.999H149.332C149.332 127.352 147.989 126.017 146.332 126.017V128.999ZM159.796 149.75L162.008 151.764L159.796 149.75ZM161.776 128.999V126.017C160.12 126.017 158.776 127.352 158.776 128.999H161.776ZM164.368 128.999H167.368C167.368 127.352 166.025 126.017 164.368 126.017V128.999ZM161.632 151.467L159.484 149.386C159.479 149.391 159.475 149.396 159.47 149.401L161.632 151.467ZM154.036 151.276C151.368 151.276 149.679 150.535 148.553 149.386L144.256 153.548C146.778 156.12 150.177 157.239 154.036 157.239V151.276ZM148.553 149.386C147.45 148.262 146.668 146.414 146.668 143.346H140.668C140.668 147.386 141.711 150.951 144.256 153.548L148.553 149.386ZM146.668 143.346V128.999H140.668V143.346H146.668ZM143.668 131.98H146.332V126.017H143.668V131.98ZM143.332 128.999V143.238H149.332V128.999H143.332ZM143.332 143.238C143.332 146.531 144.072 149.564 146.101 151.764L150.524 147.735C149.913 147.073 149.332 145.766 149.332 143.238H143.332ZM146.101 151.764C148.138 153.973 150.948 154.878 154.036 154.878V148.915C152.133 148.915 151.127 148.389 150.524 147.735L146.101 151.764ZM154.036 154.878C157.139 154.878 159.966 153.979 162.008 151.764L157.585 147.735C156.987 148.383 155.974 148.915 154.036 148.915V154.878ZM162.008 151.764C164.037 149.564 164.776 146.531 164.776 143.238H158.776C158.776 145.766 158.196 147.073 157.585 147.735L162.008 151.764ZM164.776 143.238V128.999H158.776V143.238H164.776ZM161.776 131.98H164.368V126.017H161.776V131.98ZM161.368 128.999V143.346H167.368V128.999H161.368ZM161.368 143.346C161.368 146.414 160.587 148.262 159.484 149.386L163.781 153.548C166.326 150.951 167.368 147.386 167.368 143.346H161.368ZM159.47 149.401C158.373 150.534 156.707 151.276 154.036 151.276V157.239C157.894 157.239 161.292 156.121 163.795 153.533L159.47 149.401ZM193.204 154.043L190.759 155.771C191.322 156.558 192.233 157.025 193.204 157.025V154.043ZM187.444 145.993L189.889 144.265C189.258 143.383 188.195 142.91 187.113 143.03L187.444 145.993ZM178.66 146.101V143.119C177.003 143.119 175.66 144.454 175.66 146.101H178.66ZM178.66 154.043V157.025C180.317 157.025 181.66 155.69 181.66 154.043H178.66ZM175.996 154.043H172.996C172.996 155.69 174.339 157.025 175.996 157.025V154.043ZM175.996 128.999V126.017C174.339 126.017 172.996 127.352 172.996 128.999H175.996ZM192.988 131.289L191.056 133.569L192.988 131.289ZM194.212 142.559L191.797 140.79L191.792 140.797L194.212 142.559ZM189.964 145.457L189.038 142.621C188.129 142.914 187.415 143.62 187.115 144.521C186.816 145.424 186.966 146.414 187.521 147.187L189.964 145.457ZM196.12 154.043V157.025C197.243 157.025 198.272 156.402 198.787 155.409C199.301 154.417 199.215 153.222 198.563 152.313L196.12 154.043ZM191.08 142.201L193.005 144.488L191.08 142.201ZM191.08 132.934L189.156 135.221C189.164 135.228 189.172 135.235 189.18 135.242L191.08 132.934ZM178.66 131.289V128.307C177.003 128.307 175.66 129.642 175.66 131.289H178.66ZM178.66 143.847H175.66C175.66 145.493 177.003 146.828 178.66 146.828V143.847ZM195.649 152.315L189.889 144.265L184.999 147.721L190.759 155.771L195.649 152.315ZM187.113 143.03C186.582 143.088 186.021 143.119 185.428 143.119V149.082C186.228 149.082 187.01 149.041 187.775 148.957L187.113 143.03ZM185.428 143.119H178.66V149.082H185.428V143.119ZM175.66 146.101V154.043H181.66V146.101H175.66ZM178.66 151.062H175.996V157.025H178.66V151.062ZM178.996 154.043V128.999H172.996V154.043H178.996ZM175.996 131.98H185.428V126.017H175.996V131.98ZM185.428 131.98C188.185 131.98 189.936 132.632 191.056 133.569L194.921 129.008C192.393 126.892 189.104 126.017 185.428 126.017V131.98ZM191.056 133.569C192.112 134.453 192.724 135.668 192.724 137.585H198.724C198.724 134.16 197.513 131.177 194.921 129.008L191.056 133.569ZM192.724 137.585C192.724 139.01 192.367 140.021 191.797 140.79L196.627 144.328C198.073 142.377 198.724 140.073 198.724 137.585H192.724ZM191.792 140.797C191.239 141.548 190.39 142.185 189.038 142.621L190.891 148.292C193.235 147.536 195.217 146.241 196.633 144.32L191.792 140.797ZM187.521 147.187L193.677 155.773L198.563 152.313L192.407 143.726L187.521 147.187ZM196.12 151.062H193.204V157.025H196.12V151.062ZM185.356 146.828C188.246 146.828 190.948 146.198 193.005 144.488L189.156 139.914C188.573 140.398 187.458 140.865 185.356 140.865V146.828ZM193.005 144.488C195.118 142.731 196.06 140.293 196.06 137.585H190.06C190.06 138.838 189.683 139.476 189.156 139.914L193.005 144.488ZM196.06 137.585C196.06 134.858 195.135 132.379 192.98 130.627L189.18 135.242C189.666 135.637 190.06 136.258 190.06 137.585H196.06ZM193.005 130.648C190.948 128.937 188.246 128.307 185.356 128.307V134.27C187.458 134.27 188.573 134.737 189.156 135.221L193.005 130.648ZM185.356 128.307H178.66V134.27H185.356V128.307ZM175.66 131.289V143.847H181.66V131.289H175.66ZM178.66 146.828H185.356V140.865H178.66V146.828ZM223.432 151.753H226.432C226.432 150.107 225.089 148.772 223.432 148.772V151.753ZM223.432 154.043V157.025C225.089 157.025 226.432 155.69 226.432 154.043H223.432ZM205.612 154.043H202.612C202.612 155.69 203.955 157.025 205.612 157.025V154.043ZM205.612 128.999V126.017C203.955 126.017 202.612 127.352 202.612 128.999H205.612ZM222.892 128.999H225.892C225.892 127.352 224.549 126.017 222.892 126.017V128.999ZM222.892 131.289V134.27C224.549 134.27 225.892 132.935 225.892 131.289H222.892ZM208.276 131.289V128.307C206.619 128.307 205.276 129.642 205.276 131.289H208.276ZM208.276 140.197H205.276C205.276 141.844 206.619 143.179 208.276 143.179V140.197ZM221.308 140.197H224.308C224.308 138.55 222.965 137.216 221.308 137.216V140.197ZM221.308 142.451V145.433C222.965 145.433 224.308 144.098 224.308 142.451H221.308ZM208.276 142.451V139.47C206.619 139.47 205.276 140.804 205.276 142.451H208.276ZM208.276 151.753H205.276C205.276 153.4 206.619 154.735 208.276 154.735V151.753ZM220.432 151.753V154.043H226.432V151.753H220.432ZM223.432 151.062H205.612V157.025H223.432V151.062ZM208.612 154.043V128.999H202.612V154.043H208.612ZM205.612 131.98H222.892V126.017H205.612V131.98ZM219.892 128.999V131.289H225.892V128.999H219.892ZM222.892 128.307H208.276V134.27H222.892V128.307ZM205.276 131.289V140.197H211.276V131.289H205.276ZM208.276 143.179H221.308V137.216H208.276V143.179ZM218.308 140.197V142.451H224.308V140.197H218.308ZM221.308 139.47H208.276V145.433H221.308V139.47ZM205.276 142.451V151.753H211.276V142.451H205.276ZM208.276 154.735H223.432V148.772H208.276V154.735Z" fill="white"/>
<path d="M156.28 165.353H158.28C158.28 164.255 157.385 163.365 156.28 163.365V165.353ZM151.08 165.353H149.08C149.08 166.451 149.975 167.341 151.08 167.341V165.353ZM151.08 164.975V162.988C149.975 162.988 149.08 163.877 149.08 164.975H151.08ZM161.88 164.975H163.88C163.88 163.877 162.985 162.988 161.88 162.988V164.975ZM161.88 165.353V167.341C162.985 167.341 163.88 166.451 163.88 165.353H161.88ZM156.68 165.353V163.365C155.575 163.365 154.68 164.255 154.68 165.353H156.68ZM156.68 178.889V180.877C157.785 180.877 158.68 179.987 158.68 178.889H156.68ZM156.28 178.889H154.28C154.28 179.987 155.175 180.877 156.28 180.877V178.889ZM156.28 163.365H151.08V167.341H156.28V163.365ZM153.08 165.353V164.975H149.08V165.353H153.08ZM151.08 166.963H161.88V162.988H151.08V166.963ZM159.88 164.975V165.353H163.88V164.975H159.88ZM161.88 163.365H156.68V167.341H161.88V163.365ZM154.68 165.353V178.889H158.68V165.353H154.68ZM156.68 176.901H156.28V180.877H156.68V176.901ZM158.28 178.889V165.353H154.28V178.889H158.28ZM175.937 178.511H177.937C177.937 177.413 177.042 176.524 175.937 176.524V178.511ZM175.937 178.889V180.877C177.042 180.877 177.937 179.987 177.937 178.889H175.937ZM166.617 178.889H164.617C164.617 179.987 165.512 180.877 166.617 180.877V178.889ZM166.617 164.975V162.988C165.512 162.988 164.617 163.877 164.617 164.975H166.617ZM175.637 164.975H177.637C177.637 163.877 176.742 162.988 175.637 162.988V164.975ZM175.637 165.353V167.341C176.742 167.341 177.637 166.451 177.637 165.353H175.637ZM167.017 165.353V163.365C165.912 163.365 165.017 164.255 165.017 165.353H167.017ZM167.017 171.634H165.017C165.017 172.732 165.912 173.622 167.017 173.622V171.634ZM174.737 171.634H176.737C176.737 170.536 175.842 169.646 174.737 169.646V171.634ZM174.737 172.012V173.999C175.842 173.999 176.737 173.11 176.737 172.012H174.737ZM167.017 172.012V170.024C165.912 170.024 165.017 170.913 165.017 172.012H167.017ZM167.017 178.511H165.017C165.017 179.609 165.912 180.499 167.017 180.499V178.511ZM173.937 178.511V178.889H177.937V178.511H173.937ZM175.937 176.901H166.617V180.877H175.937V176.901ZM168.617 178.889V164.975H164.617V178.889H168.617ZM166.617 166.963H175.637V162.988H166.617V166.963ZM173.637 164.975V165.353H177.637V164.975H173.637ZM175.637 163.365H167.017V167.341H175.637V163.365ZM165.017 165.353V171.634H169.017V165.353H165.017ZM167.017 173.622H174.737V169.646H167.017V173.622ZM172.737 171.634V172.012H176.737V171.634H172.737ZM174.737 170.024H167.017V173.999H174.737V170.024ZM165.017 172.012V178.511H169.017V172.012H165.017ZM167.017 180.499H175.937V176.524H167.017V180.499ZM192.976 164.975H194.976C194.976 163.877 194.081 162.988 192.976 162.988V164.975ZM192.976 178.889V180.877C194.081 180.877 194.976 179.987 194.976 178.889H192.976ZM192.636 178.889L191.055 180.105C191.433 180.591 192.017 180.877 192.636 180.877V178.889ZM182.376 165.711L183.958 164.494C183.435 163.822 182.539 163.555 181.73 163.829C180.92 164.105 180.376 164.861 180.376 165.711H182.376ZM182.376 178.889V180.877C183.481 180.877 184.376 179.987 184.376 178.889H182.376ZM181.976 178.889H179.976C179.976 179.987 180.872 180.877 181.976 180.877V178.889ZM181.976 164.975V162.988C180.872 162.988 179.976 163.877 179.976 164.975H181.976ZM182.316 164.975L183.898 163.759C183.519 163.273 182.935 162.988 182.316 162.988V164.975ZM192.576 178.153L190.995 179.37C191.518 180.042 192.414 180.309 193.223 180.035C194.032 179.759 194.576 179.003 194.576 178.153H192.576ZM192.576 164.975V162.988C191.472 162.988 190.576 163.877 190.576 164.975H192.576ZM190.976 164.975V178.889H194.976V164.975H190.976ZM192.976 176.901H192.636V180.877H192.976V176.901ZM194.218 177.672L183.958 164.494L180.795 166.927L191.055 180.105L194.218 177.672ZM180.376 165.711V178.889H184.376V165.711H180.376ZM182.376 176.901H181.976V180.877H182.376V176.901ZM183.976 178.889V164.975H179.976V178.889H183.976ZM181.976 166.963H182.316V162.988H181.976V166.963ZM180.735 166.192L190.995 179.37L194.158 176.937L183.898 163.759L180.735 166.192ZM194.576 178.153V164.975H190.576V178.153H194.576ZM192.576 166.963H192.976V162.988H192.576V166.963ZM200.865 178.412L200.093 180.245C200.101 180.249 200.109 180.252 200.117 180.255L200.865 178.412ZM198.805 176.981L197.444 175.524C196.67 176.238 196.588 177.427 197.257 178.239L198.805 176.981ZM199.085 176.722L200.608 175.435C200.255 175.022 199.747 174.77 199.202 174.738C198.658 174.706 198.123 174.897 197.724 175.265L199.085 176.722ZM201.025 178.054L200.237 179.881C200.245 179.885 200.253 179.888 200.262 179.892L201.025 178.054ZM206.985 177.716L208.216 179.282L208.22 179.279L206.985 177.716ZM207.525 173.761L206.043 175.095L207.525 173.761ZM206.085 172.807L205.373 174.664C205.377 174.666 205.382 174.668 205.387 174.669L206.085 172.807ZM203.805 172.151L203.325 174.081C203.332 174.082 203.338 174.084 203.345 174.085L203.805 172.151ZM201.365 171.435L200.622 173.281C200.634 173.286 200.646 173.29 200.658 173.295L201.365 171.435ZM199.825 170.362L198.291 171.638C198.304 171.653 198.317 171.668 198.33 171.683L199.825 170.362ZM199.705 166.665L201.401 167.718L199.705 166.665ZM206.085 165.273L205.452 167.159C205.463 167.163 205.473 167.166 205.484 167.17L206.085 165.273ZM207.945 166.188L209.593 167.314C210.202 166.433 210.001 165.231 209.138 164.593L207.945 166.188ZM207.725 166.506L206.544 168.11C206.98 168.427 207.527 168.555 208.06 168.466C208.593 168.375 209.066 168.075 209.373 167.632L207.725 166.506ZM205.885 165.611L205.275 167.505C205.29 167.51 205.305 167.514 205.32 167.518L205.885 165.611ZM200.705 166.188L201.954 167.74C201.96 167.735 201.965 167.731 201.971 167.726L200.705 166.188ZM200.185 170.163L198.682 171.475C198.689 171.483 198.696 171.49 198.703 171.498L200.185 170.163ZM201.625 171.117L202.322 169.255L201.625 171.117ZM203.945 171.793L204.43 169.865L204.423 169.863L203.945 171.793ZM206.365 172.528L205.622 174.374C205.634 174.379 205.646 174.383 205.658 174.388L206.365 172.528ZM207.885 173.582L206.369 174.879C206.375 174.886 206.381 174.893 206.387 174.9L207.885 173.582ZM207.985 177.219L206.308 176.136L207.985 177.219ZM206.385 178.491L207.181 180.315C207.186 180.312 207.191 180.31 207.197 180.308L206.385 178.491ZM203.725 176.961C202.954 176.961 202.256 176.826 201.612 176.568L200.117 180.255C201.26 180.714 202.469 180.936 203.725 180.936V176.961ZM201.636 176.578C200.963 176.299 200.575 175.993 200.352 175.723L197.257 178.239C197.994 179.135 198.979 179.783 200.093 180.245L201.636 176.578ZM200.165 178.438L200.445 178.179L197.724 175.265L197.444 175.524L200.165 178.438ZM197.561 178.009C198.266 178.834 199.196 179.437 200.237 179.881L201.812 176.227C201.173 175.955 200.81 175.671 200.608 175.435L197.561 178.009ZM200.262 179.892C201.354 180.339 202.507 180.558 203.705 180.558V176.583C203.009 176.583 202.375 176.458 201.788 176.216L200.262 179.892ZM203.705 180.558C205.369 180.558 206.982 180.24 208.216 179.282L205.753 176.15C205.52 176.331 204.947 176.583 203.705 176.583V180.558ZM208.22 179.279C209.431 178.333 210.105 177.016 210.105 175.47H206.105C206.105 175.752 206.031 175.933 205.749 176.153L208.22 179.279ZM210.105 175.47C210.105 174.39 209.804 173.301 209.007 172.426L206.043 175.095C206.044 175.097 206.046 175.099 206.048 175.103C206.051 175.107 206.057 175.118 206.064 175.141C206.08 175.187 206.105 175.288 206.105 175.47H210.105ZM209.007 172.426C208.391 171.751 207.636 171.259 206.782 170.944L205.387 174.669C205.679 174.777 205.884 174.923 206.043 175.095L209.007 172.426ZM206.797 170.949C206.119 170.693 205.263 170.45 204.264 170.217L203.345 174.085C204.266 174.301 204.93 174.496 205.373 174.664L206.797 170.949ZM204.284 170.221C203.292 169.977 202.565 169.761 202.071 169.576L200.658 173.295C201.364 173.56 202.264 173.82 203.325 174.081L204.284 170.221ZM202.107 169.59C201.794 169.465 201.538 169.287 201.319 169.041L198.33 171.683C198.964 172.391 199.735 172.928 200.622 173.281L202.107 169.59ZM201.358 169.086C201.319 169.039 201.205 168.882 201.205 168.414H197.205C197.205 169.563 197.504 170.704 198.291 171.638L201.358 169.086ZM201.205 168.414C201.205 168.144 201.27 167.927 201.401 167.718L198.009 165.611C197.473 166.463 197.205 167.412 197.205 168.414H201.205ZM201.401 167.718C201.481 167.591 201.658 167.397 202.09 167.203L200.44 163.582C199.458 164.024 198.595 164.679 198.009 165.611L201.401 167.718ZM202.09 167.203C202.465 167.035 203.037 166.903 203.885 166.903V162.928C202.652 162.928 201.478 163.115 200.44 163.582L202.09 167.203ZM203.885 166.903C204.413 166.903 204.933 166.987 205.452 167.159L206.717 163.388C205.796 163.083 204.85 162.928 203.885 162.928V166.903ZM205.484 167.17C206.025 167.339 206.437 167.551 206.751 167.783L209.138 164.593C208.412 164.056 207.584 163.658 206.685 163.377L205.484 167.17ZM206.296 165.062L206.076 165.38L209.373 167.632L209.593 167.314L206.296 165.062ZM208.906 164.902C208.164 164.362 207.34 163.965 206.449 163.704L205.32 167.518C205.789 167.656 206.192 167.854 206.544 168.11L208.906 164.902ZM206.494 163.718C205.644 163.448 204.779 163.306 203.905 163.306V167.281C204.337 167.281 204.791 167.351 205.275 167.505L206.494 163.718ZM203.905 163.306C202.256 163.306 200.665 163.652 199.438 164.649L201.971 167.726C202.211 167.53 202.753 167.281 203.905 167.281V163.306ZM199.455 164.635C198.259 165.586 197.605 166.901 197.605 168.434H201.605C201.605 168.138 201.684 167.955 201.954 167.74L199.455 164.635ZM197.605 168.434C197.605 169.517 197.906 170.597 198.682 171.475L201.687 168.851C201.677 168.84 201.663 168.822 201.647 168.775C201.629 168.721 201.605 168.615 201.605 168.434H197.605ZM198.703 171.498C199.318 172.173 200.073 172.665 200.927 172.98L202.322 169.255C202.03 169.146 201.825 169.001 201.667 168.828L198.703 171.498ZM200.927 172.98C201.602 173.23 202.459 173.476 203.466 173.723L204.423 169.863C203.484 169.632 202.793 169.429 202.322 169.255L200.927 172.98ZM203.459 173.721C204.431 173.962 205.141 174.183 205.622 174.374L207.107 170.683C206.388 170.397 205.484 170.126 204.43 169.865L203.459 173.721ZM205.658 174.388C205.949 174.497 206.177 174.657 206.369 174.879L209.4 172.285C208.766 171.552 207.98 171.01 207.071 170.669L205.658 174.388ZM206.387 174.9C206.393 174.907 206.505 175.019 206.505 175.47H210.505C210.505 174.331 210.202 173.184 209.382 172.264L206.387 174.9ZM206.505 175.47C206.505 175.725 206.442 175.93 206.308 176.136L209.661 178.303C210.22 177.448 210.505 176.488 210.505 175.47H206.505ZM206.308 176.136C206.217 176.274 206.023 176.476 205.572 176.675L207.197 180.308C208.186 179.871 209.059 179.224 209.661 178.303L206.308 176.136ZM205.588 176.668C205.21 176.832 204.616 176.961 203.725 176.961V180.936C204.967 180.936 206.146 180.761 207.181 180.315L205.588 176.668ZM223.636 178.511H225.636C225.636 177.413 224.741 176.524 223.636 176.524V178.511ZM223.636 178.889V180.877C224.741 180.877 225.636 179.987 225.636 178.889H223.636ZM214.316 178.889H212.316C212.316 179.987 213.212 180.877 214.316 180.877V178.889ZM214.316 164.975V162.988C213.212 162.988 212.316 163.877 212.316 164.975H214.316ZM223.336 164.975H225.336C225.336 163.877 224.441 162.988 223.336 162.988V164.975ZM223.336 165.353V167.341C224.441 167.341 225.336 166.451 225.336 165.353H223.336ZM214.716 165.353V163.365C213.612 163.365 212.716 164.255 212.716 165.353H214.716ZM214.716 171.634H212.716C212.716 172.732 213.612 173.622 214.716 173.622V171.634ZM222.436 171.634H224.436C224.436 170.536 223.541 169.646 222.436 169.646V171.634ZM222.436 172.012V173.999C223.541 173.999 224.436 173.11 224.436 172.012H222.436ZM214.716 172.012V170.024C213.612 170.024 212.716 170.913 212.716 172.012H214.716ZM214.716 178.511H212.716C212.716 179.609 213.612 180.499 214.716 180.499V178.511ZM221.636 178.511V178.889H225.636V178.511H221.636ZM223.636 176.901H214.316V180.877H223.636V176.901ZM216.316 178.889V164.975H212.316V178.889H216.316ZM214.316 166.963H223.336V162.988H214.316V166.963ZM221.336 164.975V165.353H225.336V164.975H221.336ZM223.336 163.365H214.716V167.341H223.336V163.365ZM212.716 165.353V171.634H216.716V165.353H212.716ZM214.716 173.622H222.436V169.646H214.716V173.622ZM220.436 171.634V172.012H224.436V171.634H220.436ZM222.436 170.024H214.716V173.999H222.436V170.024ZM212.716 172.012V178.511H216.716V172.012H212.716ZM214.716 180.499H223.636V176.524H214.716V180.499Z" fill="white"/>
</mask>
<g mask="url(#mask0_44_627)">
<path d="M0 144.145L9.46667 145.403C18.9333 146.699 37.8667 149.214 56.8 146.622C75.7333 144.03 94.6667 136.255 113.6 136.788C132.533 137.284 151.467 146.051 170.4 146.622C189.333 147.194 208.267 139.571 227.2 135.644C246.133 131.681 265.067 131.452 274.533 131.299L284 131.185V321.006H274.533C265.067 321.006 246.133 321.006 227.2 321.006C208.267 321.006 189.333 321.006 170.4 321.006C151.467 321.006 132.533 321.006 113.6 321.006C94.6667 321.006 75.7333 321.006 56.8 321.006C37.8667 321.006 18.9333 321.006 9.46667 321.006H0V144.145Z" fill="white"/>
</g>
</g>
<defs>
<clipPath id="clip0_44_627">
<rect width="284" height="322" fill="white"/>
</clipPath>
</defs>
</svg>
