<svg width="284" height="322" viewBox="0 0 284 322" fill="none" xmlns="http://www.w3.org/2000/svg">
<g clip-path="url(#clip0_150_1234)">
<path d="M284 0H0V321.003H284V0Z" fill="#001220"/>
<path d="M32.762 130.495H35.204V153.523H32.762V130.495ZM70.011 130.495V153.523H67.668V135.1L58.593 150.595H57.438L48.363 135.199V153.523H46.02V130.495H48.033L58.065 147.569L67.998 130.495H70.011ZM89.4836 130.495C92.4316 130.495 94.7416 131.197 96.4136 132.6C98.0856 134.004 98.9216 135.934 98.9216 138.39C98.9216 140.847 98.0856 142.777 96.4136 144.18C94.7416 145.562 92.4316 146.253 89.4836 146.253H83.2796V153.523H80.8376V130.495H89.4836ZM89.4176 144.114C91.7056 144.114 93.4546 143.621 94.6646 142.634C95.8746 141.625 96.4796 140.211 96.4796 138.39C96.4796 136.526 95.8746 135.1 94.6646 134.114C93.4546 133.105 91.7056 132.6 89.4176 132.6H83.2796V144.114H89.4176ZM123.837 151.418V153.523H107.502V130.495H123.342V132.6H109.944V140.792H121.89V142.864H109.944V151.418H123.837ZM148.651 153.523L143.371 146.121C142.777 146.187 142.161 146.22 141.523 146.22H135.319V153.523H132.877V130.495H141.523C144.471 130.495 146.781 131.197 148.453 132.6C150.125 134.004 150.961 135.934 150.961 138.39C150.961 140.189 150.499 141.713 149.575 142.963C148.673 144.191 147.375 145.079 145.681 145.628L151.324 153.523H148.651ZM141.457 144.147C143.745 144.147 145.494 143.643 146.704 142.634C147.914 141.625 148.519 140.211 148.519 138.39C148.519 136.526 147.914 135.1 146.704 134.114C145.494 133.105 143.745 132.6 141.457 132.6H135.319V144.147H141.457ZM162.467 132.6V141.647H174.413V143.753H162.467V153.523H160.025V130.495H175.865V132.6H162.467ZM200.543 151.418V153.523H184.208V130.495H200.048V132.6H186.65V140.792H198.596V142.864H186.65V151.418H200.543ZM219.615 153.721C217.327 153.721 215.259 153.216 213.411 152.207C211.585 151.198 210.144 149.806 209.088 148.029C208.054 146.231 207.537 144.224 207.537 142.009C207.537 139.794 208.054 137.798 209.088 136.022C210.144 134.223 211.596 132.82 213.444 131.811C215.292 130.802 217.36 130.297 219.648 130.297C221.364 130.297 222.948 130.582 224.4 131.153C225.852 131.723 227.084 132.556 228.096 133.653L226.545 135.199C224.741 133.379 222.464 132.469 219.714 132.469C217.888 132.469 216.227 132.885 214.731 133.719C213.235 134.552 212.058 135.693 211.2 137.14C210.364 138.588 209.946 140.211 209.946 142.009C209.946 143.807 210.364 145.43 211.2 146.878C212.058 148.325 213.235 149.466 214.731 150.299C216.227 151.133 217.888 151.549 219.714 151.549C222.486 151.549 224.763 150.628 226.545 148.786L228.096 150.332C227.084 151.429 225.841 152.273 224.367 152.865C222.915 153.436 221.331 153.721 219.615 153.721ZM242.739 132.6H234.621V130.495H253.299V132.6H245.181V153.523H242.739V132.6Z" fill="#FACB66"/>
<path d="M32.762 130.495V127.504C31.1051 127.504 29.762 128.843 29.762 130.495H32.762ZM35.204 130.495H38.204C38.204 128.843 36.8609 127.504 35.204 127.504V130.495ZM35.204 153.523V156.514C36.8609 156.514 38.204 155.175 38.204 153.523H35.204ZM32.762 153.523H29.762C29.762 155.175 31.1051 156.514 32.762 156.514V153.523ZM32.762 133.485H35.204V127.504H32.762V133.485ZM32.204 130.495V153.523H38.204V130.495H32.204ZM35.204 150.533H32.762V156.514H35.204V150.533ZM35.762 153.523V130.495H29.762V153.523H35.762ZM70.011 130.495H73.011C73.011 128.843 71.6679 127.504 70.011 127.504V130.495ZM70.011 153.523V156.514C71.6679 156.514 73.011 155.175 73.011 153.523H70.011ZM67.668 153.523H64.668C64.668 155.175 66.0112 156.514 67.668 156.514V153.523ZM67.668 135.1H70.668C70.668 133.75 69.7596 132.566 68.4515 132.213C67.1435 131.86 65.7605 132.426 65.0773 133.592L67.668 135.1ZM58.593 150.595V153.586C59.6596 153.586 60.646 153.022 61.1837 152.104L58.593 150.595ZM57.438 150.595L54.8515 152.111C55.3903 153.025 56.3744 153.586 57.438 153.586V150.595ZM48.363 135.199L50.9495 133.684C50.2638 132.52 48.8815 131.959 47.5755 132.313C46.2694 132.668 45.363 133.849 45.363 135.199H48.363ZM48.363 153.523V156.514C50.0199 156.514 51.363 155.175 51.363 153.523H48.363ZM46.02 153.523H43.02C43.02 155.175 44.3632 156.514 46.02 156.514V153.523ZM46.02 130.495V127.504C44.3632 127.504 43.02 128.843 43.02 130.495H46.02ZM48.033 130.495L50.6216 128.983C50.0833 128.067 49.0981 127.504 48.033 127.504V130.495ZM58.065 147.569L55.4764 149.08C56.0159 149.998 57.0041 150.561 58.0715 150.559C59.1389 150.557 60.1246 149.989 60.6601 149.069L58.065 147.569ZM67.998 130.495V127.504C66.9283 127.504 65.9395 128.072 65.4029 128.994L67.998 130.495ZM67.011 130.495V153.523H73.011V130.495H67.011ZM70.011 150.533H67.668V156.514H70.011V150.533ZM70.668 153.523V135.1H64.668V153.523H70.668ZM65.0773 133.592L56.0023 149.087L61.1837 152.104L70.2587 136.609L65.0773 133.592ZM58.593 147.605H57.438V153.586H58.593V147.605ZM60.0245 149.08L50.9495 133.684L45.7765 136.714L54.8515 152.111L60.0245 149.08ZM45.363 135.199V153.523H51.363V135.199H45.363ZM48.363 150.533H46.02V156.514H48.363V150.533ZM49.02 153.523V130.495H43.02V153.523H49.02ZM46.02 133.485H48.033V127.504H46.02V133.485ZM45.4444 132.006L55.4764 149.08L60.6536 146.057L50.6216 128.983L45.4444 132.006ZM60.6601 149.069L70.5931 131.995L65.4029 128.994L55.4699 146.068L60.6601 149.069ZM67.998 133.485H70.011V127.504H67.998V133.485ZM96.4136 132.6L94.4812 134.888L96.4136 132.6ZM96.4136 144.18L98.3282 146.483C98.3341 146.478 98.3401 146.473 98.346 146.468L96.4136 144.18ZM83.2796 146.253V143.262C81.6227 143.262 80.2796 144.601 80.2796 146.253H83.2796ZM83.2796 153.523V156.514C84.9364 156.514 86.2796 155.175 86.2796 153.523H83.2796ZM80.8376 153.523H77.8376C77.8376 155.175 79.1807 156.514 80.8376 156.514V153.523ZM80.8376 130.495V127.504C79.1807 127.504 77.8376 128.843 77.8376 130.495H80.8376ZM94.6646 142.634L96.5643 144.949C96.5727 144.942 96.581 144.935 96.5893 144.928L94.6646 142.634ZM94.6646 134.113L92.7399 136.407C92.7482 136.414 92.7565 136.421 92.7649 136.428L94.6646 134.113ZM83.2796 132.6V129.609C81.6227 129.609 80.2796 130.948 80.2796 132.6H83.2796ZM83.2796 144.114H80.2796C80.2796 145.766 81.6227 147.105 83.2796 147.105V144.114ZM89.4836 133.485C91.9719 133.485 93.5132 134.076 94.4812 134.888L98.346 130.312C95.97 128.317 92.8913 127.504 89.4836 127.504V133.485ZM94.4812 134.888C95.3852 135.647 95.9216 136.691 95.9216 138.39H101.922C101.922 135.177 100.786 132.361 98.346 130.312L94.4812 134.888ZM95.9216 138.39C95.9216 140.09 95.3852 141.134 94.4812 141.892L98.346 146.468C100.786 144.419 101.922 141.603 101.922 138.39H95.9216ZM94.499 141.877C93.5304 142.678 91.9821 143.262 89.4836 143.262V149.244C92.881 149.244 95.9527 148.446 98.3282 146.483L94.499 141.877ZM89.4836 143.262H83.2796V149.244H89.4836V143.262ZM80.2796 146.253V153.523H86.2796V146.253H80.2796ZM83.2796 150.533H80.8376V156.514H83.2796V150.533ZM83.8376 153.523V130.495H77.8376V153.523H83.8376ZM80.8376 133.485H89.4836V127.504H80.8376V133.485ZM89.4176 147.105C92.0868 147.105 94.6187 146.536 96.5643 144.949L92.7649 140.319C92.2904 140.706 91.3244 141.124 89.4176 141.124V147.105ZM96.5893 144.928C98.5921 143.258 99.4796 140.94 99.4796 138.39H93.4796C93.4796 139.481 93.1571 139.992 92.7399 140.34L96.5893 144.928ZM99.4796 138.39C99.4796 135.824 98.6091 133.466 96.5643 131.799L92.7649 136.428C93.1401 136.734 93.4796 137.228 93.4796 138.39H99.4796ZM96.5893 131.82C94.6421 130.196 92.0998 129.609 89.4176 129.609V135.591C91.3113 135.591 92.2671 136.014 92.7399 136.407L96.5893 131.82ZM89.4176 129.609H83.2796V135.591H89.4176V129.609ZM80.2796 132.6V144.114H86.2796V132.6H80.2796ZM83.2796 147.105H89.4176V141.124H83.2796V147.105ZM123.837 151.418H126.837C126.837 149.766 125.494 148.427 123.837 148.427V151.418ZM123.837 153.523V156.514C125.494 156.514 126.837 155.175 126.837 153.523H123.837ZM107.502 153.523H104.502C104.502 155.175 105.845 156.514 107.502 156.514V153.523ZM107.502 130.495V127.504C105.845 127.504 104.502 128.843 104.502 130.495H107.502ZM123.342 130.495H126.342C126.342 128.843 124.999 127.504 123.342 127.504V130.495ZM123.342 132.6V135.591C124.999 135.591 126.342 134.252 126.342 132.6H123.342ZM109.944 132.6V129.609C108.287 129.609 106.944 130.948 106.944 132.6H109.944ZM109.944 140.792H106.944C106.944 142.444 108.287 143.782 109.944 143.782V140.792ZM121.89 140.792H124.89C124.89 139.14 123.547 137.801 121.89 137.801V140.792ZM121.89 142.864V145.855C123.547 145.855 124.89 144.516 124.89 142.864H121.89ZM109.944 142.864V139.874C108.287 139.874 106.944 141.212 106.944 142.864H109.944ZM109.944 151.418H106.944C106.944 153.07 108.287 154.408 109.944 154.408V151.418ZM120.837 151.418V153.523H126.837V151.418H120.837ZM123.837 150.533H107.502V156.514H123.837V150.533ZM110.502 153.523V130.495H104.502V153.523H110.502ZM107.502 133.485H123.342V127.504H107.502V133.485ZM120.342 130.495V132.6H126.342V130.495H120.342ZM123.342 129.609H109.944V135.591H123.342V129.609ZM106.944 132.6V140.792H112.944V132.6H106.944ZM109.944 143.782H121.89V137.801H109.944V143.782ZM118.89 140.792V142.864H124.89V140.792H118.89ZM121.89 139.874H109.944V145.855H121.89V139.874ZM106.944 142.864V151.418H112.944V142.864H106.944ZM109.944 154.408H123.837V148.427H109.944V154.408ZM148.651 153.523L146.206 155.257C146.769 156.045 147.68 156.514 148.651 156.514V153.523ZM143.371 146.121L145.816 144.388C145.185 143.503 144.122 143.029 143.04 143.148L143.371 146.121ZM135.319 146.22V143.229C133.662 143.229 132.319 144.568 132.319 146.22H135.319ZM135.319 153.523V156.514C136.976 156.514 138.319 155.175 138.319 153.523H135.319ZM132.877 153.523H129.877C129.877 155.175 131.22 156.514 132.877 156.514V153.523ZM132.877 130.495V127.504C131.22 127.504 129.877 128.843 129.877 130.495H132.877ZM148.453 132.6L146.521 134.888L148.453 132.6ZM149.575 142.963L147.16 141.189L147.154 141.196L149.575 142.963ZM145.681 145.628L144.755 142.784C143.846 143.078 143.132 143.785 142.832 144.69C142.533 145.595 142.683 146.588 143.238 147.363L145.681 145.628ZM151.324 153.523V156.514C152.447 156.514 153.476 155.889 153.991 154.893C154.505 153.898 154.419 152.7 153.767 151.788L151.324 153.523ZM146.704 142.634L148.629 144.928L146.704 142.634ZM146.704 134.113L144.779 136.407C144.788 136.414 144.796 136.421 144.804 136.428L146.704 134.113ZM135.319 132.6V129.609C133.662 129.609 132.319 130.948 132.319 132.6H135.319ZM135.319 144.147H132.319C132.319 145.799 133.662 147.138 135.319 147.138V144.147ZM151.096 151.79L145.816 144.388L140.926 147.855L146.206 155.257L151.096 151.79ZM143.04 143.148C142.563 143.201 142.058 143.229 141.523 143.229V149.211C142.264 149.211 142.991 149.173 143.702 149.094L143.04 143.148ZM141.523 143.229H135.319V149.211H141.523V143.229ZM132.319 146.22V153.523H138.319V146.22H132.319ZM135.319 150.533H132.877V156.514H135.319V150.533ZM135.877 153.523V130.495H129.877V153.523H135.877ZM132.877 133.485H141.523V127.504H132.877V133.485ZM141.523 133.485C144.011 133.485 145.553 134.076 146.521 134.888L150.385 130.312C148.009 128.317 144.931 127.504 141.523 127.504V133.485ZM146.521 134.888C147.425 135.647 147.961 136.691 147.961 138.39H153.961C153.961 135.177 152.825 132.361 150.385 130.312L146.521 134.888ZM147.961 138.39C147.961 139.655 147.646 140.532 147.16 141.189L151.99 144.738C153.352 142.894 153.961 140.722 153.961 138.39H147.961ZM147.154 141.196C146.684 141.838 145.952 142.396 144.755 142.784L146.607 148.472C148.798 147.763 150.662 146.545 151.996 144.73L147.154 141.196ZM143.238 147.363L148.881 155.259L153.767 151.788L148.124 143.892L143.238 147.363ZM151.324 150.533H148.651V156.514H151.324V150.533ZM141.457 147.138C144.139 147.138 146.682 146.552 148.629 144.928L144.779 140.34C144.307 140.734 143.351 141.157 141.457 141.157V147.138ZM148.629 144.928C150.632 143.258 151.519 140.94 151.519 138.39H145.519C145.519 139.481 145.197 139.992 144.779 140.34L148.629 144.928ZM151.519 138.39C151.519 135.824 150.649 133.466 148.604 131.799L144.804 136.428C145.18 136.734 145.519 137.228 145.519 138.39H151.519ZM148.629 131.82C146.682 130.196 144.139 129.609 141.457 129.609V135.591C143.351 135.591 144.307 136.014 144.779 136.407L148.629 131.82ZM141.457 129.609H135.319V135.591H141.457V129.609ZM132.319 132.6V144.147H138.319V132.6H132.319ZM135.319 147.138H141.457V141.157H135.319V147.138ZM162.467 132.6V129.609C160.81 129.609 159.467 130.948 159.467 132.6H162.467ZM162.467 141.647H159.467C159.467 143.299 160.81 144.638 162.467 144.638V141.647ZM174.413 141.647H177.413C177.413 139.995 176.07 138.656 174.413 138.656V141.647ZM174.413 143.753V146.743C176.07 146.743 177.413 145.404 177.413 143.753H174.413ZM162.467 143.753V140.762C160.81 140.762 159.467 142.101 159.467 143.753H162.467ZM162.467 153.523V156.514C164.124 156.514 165.467 155.175 165.467 153.523H162.467ZM160.025 153.523H157.025C157.025 155.175 158.368 156.514 160.025 156.514V153.523ZM160.025 130.495V127.504C158.368 127.504 157.025 128.843 157.025 130.495H160.025ZM175.865 130.495H178.865C178.865 128.843 177.522 127.504 175.865 127.504V130.495ZM175.865 132.6V135.591C177.522 135.591 178.865 134.252 178.865 132.6H175.865ZM159.467 132.6V141.647H165.467V132.6H159.467ZM162.467 144.638H174.413V138.656H162.467V144.638ZM171.413 141.647V143.753H177.413V141.647H171.413ZM174.413 140.762H162.467V146.743H174.413V140.762ZM159.467 143.753V153.523H165.467V143.753H159.467ZM162.467 150.533H160.025V156.514H162.467V150.533ZM163.025 153.523V130.495H157.025V153.523H163.025ZM160.025 133.485H175.865V127.504H160.025V133.485ZM172.865 130.495V132.6H178.865V130.495H172.865ZM175.865 129.609H162.467V135.591H175.865V129.609ZM200.543 151.418H203.543C203.543 149.766 202.199 148.427 200.543 148.427V151.418ZM200.543 153.523V156.514C202.199 156.514 203.543 155.175 203.543 153.523H200.543ZM184.208 153.523H181.208C181.208 155.175 182.551 156.514 184.208 156.514V153.523ZM184.208 130.495V127.504C182.551 127.504 181.208 128.843 181.208 130.495H184.208ZM200.048 130.495H203.048C203.048 128.843 201.704 127.504 200.048 127.504V130.495ZM200.048 132.6V135.591C201.704 135.591 203.048 134.252 203.048 132.6H200.048ZM186.65 132.6V129.609C184.993 129.609 183.65 130.948 183.65 132.6H186.65ZM186.65 140.792H183.65C183.65 142.444 184.993 143.782 186.65 143.782V140.792ZM198.596 140.792H201.596C201.596 139.14 200.252 137.801 198.596 137.801V140.792ZM198.596 142.864V145.855C200.252 145.855 201.596 144.516 201.596 142.864H198.596ZM186.65 142.864V139.874C184.993 139.874 183.65 141.212 183.65 142.864H186.65ZM186.65 151.418H183.65C183.65 153.07 184.993 154.408 186.65 154.408V151.418ZM197.543 151.418V153.523H203.543V151.418H197.543ZM200.543 150.533H184.208V156.514H200.543V150.533ZM187.208 153.523V130.495H181.208V153.523H187.208ZM184.208 133.485H200.048V127.504H184.208V133.485ZM197.048 130.495V132.6H203.048V130.495H197.048ZM200.048 129.609H186.65V135.591H200.048V129.609ZM183.65 132.6V140.792H189.65V132.6H183.65ZM186.65 143.782H198.596V137.801H186.65V143.782ZM195.596 140.792V142.864H201.596V140.792H195.596ZM198.596 139.874H186.65V145.855H198.596V139.874ZM183.65 142.864V151.418H189.65V142.864H183.65ZM186.65 154.408H200.543V148.427H186.65V154.408ZM213.411 152.207L211.956 154.823C211.961 154.825 211.965 154.828 211.97 154.83L213.411 152.207ZM209.088 148.029L206.485 149.517C206.492 149.529 206.499 149.542 206.507 149.554L209.088 148.029ZM209.088 136.022L206.499 134.51L206.493 134.52L209.088 136.022ZM213.444 131.811L212.003 129.188L213.444 131.811ZM224.4 131.153L223.3 133.935L224.4 131.153ZM228.096 133.653L230.217 135.767C231.354 134.634 231.392 132.808 230.304 131.628L228.096 133.653ZM226.545 135.199L224.411 137.301C224.972 137.868 225.737 138.188 226.536 138.19C227.334 138.192 228.101 137.877 228.666 137.314L226.545 135.199ZM214.731 133.719L213.267 131.108L214.731 133.719ZM211.2 137.14L208.617 135.619C208.611 135.629 208.605 135.638 208.6 135.648L211.2 137.14ZM211.2 146.878L208.6 148.37C208.605 148.38 208.611 148.389 208.617 148.399L211.2 146.878ZM214.731 150.299L213.267 152.91L214.731 150.299ZM226.545 148.786L228.666 146.671C228.097 146.103 227.323 145.788 226.517 145.795C225.712 145.802 224.944 146.132 224.385 146.71L226.545 148.786ZM228.096 150.332L230.304 152.357C231.392 151.178 231.354 149.351 230.217 148.218L228.096 150.332ZM224.367 152.865L225.466 155.648C225.474 155.645 225.481 155.642 225.488 155.64L224.367 152.865ZM219.615 150.73C217.786 150.73 216.221 150.331 214.852 149.584L211.97 154.83C214.297 156.101 216.867 156.711 219.615 156.711V150.73ZM214.865 149.591C213.501 148.838 212.451 147.82 211.669 146.505L206.507 149.554C207.837 151.792 209.668 153.559 211.956 154.823L214.865 149.591ZM211.69 146.542C210.935 145.227 210.537 143.74 210.537 142.009H204.537C204.537 144.709 205.173 147.235 206.485 149.517L211.69 146.542ZM210.537 142.009C210.537 140.278 210.935 138.808 211.683 137.523L206.493 134.52C205.173 136.788 204.537 139.309 204.537 142.009H210.537ZM211.677 137.533C212.456 136.206 213.509 135.184 214.885 134.434L212.003 129.188C209.682 130.455 207.832 132.24 206.499 134.51L211.677 137.533ZM214.885 134.434C216.254 133.687 217.819 133.288 219.648 133.288V127.307C216.9 127.307 214.33 127.917 212.003 129.188L214.885 134.434ZM219.648 133.288C221.025 133.288 222.232 133.515 223.3 133.935L225.499 128.37C223.664 127.65 221.703 127.307 219.648 127.307V133.288ZM223.3 133.935C224.349 134.347 225.197 134.929 225.888 135.678L230.304 131.628C228.971 130.184 227.354 129.099 225.499 128.37L223.3 133.935ZM225.974 131.539L224.423 133.085L228.666 137.314L230.217 135.767L225.974 131.539ZM228.679 133.098C226.268 130.664 223.202 129.478 219.714 129.478V135.459C221.725 135.459 223.213 136.093 224.411 137.301L228.679 133.098ZM219.714 129.478C217.41 129.478 215.24 130.009 213.267 131.108L216.194 136.33C217.214 135.761 218.365 135.459 219.714 135.459V129.478ZM213.267 131.108C211.316 132.195 209.749 133.708 208.617 135.619L213.782 138.661C214.366 137.677 215.153 136.909 216.194 136.33L213.267 131.108ZM208.6 135.648C207.482 137.584 206.946 139.728 206.946 142.009H212.946C212.946 140.693 213.246 139.591 213.8 138.632L208.6 135.648ZM206.946 142.009C206.946 144.29 207.482 146.434 208.6 148.37L213.8 145.385C213.246 144.426 212.946 143.325 212.946 142.009H206.946ZM208.617 148.399C209.749 150.31 211.316 151.822 213.267 152.91L216.194 147.688C215.153 147.109 214.366 146.341 213.782 145.357L208.617 148.399ZM213.267 152.91C215.24 154.009 217.41 154.54 219.714 154.54V148.559C218.365 148.559 217.214 148.257 216.194 147.688L213.267 152.91ZM219.714 154.54C223.228 154.54 226.309 153.339 228.704 150.861L224.385 146.71C223.217 147.918 221.743 148.559 219.714 148.559V154.54ZM224.423 150.9L225.974 152.447L230.217 148.218L228.666 146.671L224.423 150.9ZM225.888 148.307C225.197 149.056 224.333 149.654 223.245 150.091L225.488 155.64C227.349 154.892 228.971 153.801 230.304 152.357L225.888 148.307ZM223.267 150.083C222.199 150.503 220.992 150.73 219.615 150.73V156.711C221.67 156.711 223.631 156.368 225.466 155.648L223.267 150.083ZM242.739 132.6H245.739C245.739 130.948 244.396 129.609 242.739 129.609V132.6ZM234.621 132.6H231.621C231.621 134.252 232.965 135.591 234.621 135.591V132.6ZM234.621 130.495V127.504C232.965 127.504 231.621 128.843 231.621 130.495H234.621ZM253.299 130.495H256.299C256.299 128.843 254.956 127.504 253.299 127.504V130.495ZM253.299 132.6V135.591C254.956 135.591 256.299 134.252 256.299 132.6H253.299ZM245.181 132.6V129.609C243.525 129.609 242.181 130.948 242.181 132.6H245.181ZM245.181 153.523V156.514C246.838 156.514 248.181 155.175 248.181 153.523H245.181ZM242.739 153.523H239.739C239.739 155.175 241.083 156.514 242.739 156.514V153.523ZM242.739 129.609H234.621V135.591H242.739V129.609ZM237.621 132.6V130.495H231.621V132.6H237.621ZM234.621 133.485H253.299V127.504H234.621V133.485ZM250.299 130.495V132.6H256.299V130.495H250.299ZM253.299 129.609H245.181V135.591H253.299V129.609ZM242.181 132.6V153.523H248.181V132.6H242.181ZM245.181 150.533H242.739V156.514H245.181V150.533ZM245.739 153.523V132.6H239.739V153.523H245.739Z" fill="#FACB66"/>
<path d="M124.28 104.057H119.08V103.678H129.88V104.057H124.68V117.635H124.28V104.057ZM145.617 103.678V117.635H145.217V110.736H135.017V117.635H134.617V103.678H135.017V110.357H145.217V103.678H145.617ZM162.265 117.256V117.635H152.945V103.678H161.965V104.057H153.345V110.357H161.065V110.736H153.345V117.256H162.265Z" fill="#FACB66"/>
<path d="M124.28 104.057H126.28C126.28 102.955 125.385 102.063 124.28 102.063V104.057ZM119.08 104.057H117.08C117.08 105.159 117.975 106.051 119.08 106.051V104.057ZM119.08 103.678V101.684C117.975 101.684 117.08 102.577 117.08 103.678H119.08ZM129.88 103.678H131.88C131.88 102.577 130.985 101.684 129.88 101.684V103.678ZM129.88 104.057V106.051C130.985 106.051 131.88 105.159 131.88 104.057H129.88ZM124.68 104.057V102.063C123.575 102.063 122.68 102.955 122.68 104.057H124.68ZM124.68 117.635V119.629C125.785 119.629 126.68 118.736 126.68 117.635H124.68ZM124.28 117.635H122.28C122.28 118.736 123.175 119.629 124.28 119.629V117.635ZM124.28 102.063H119.08V106.051H124.28V102.063ZM121.08 104.057V103.678H117.08V104.057H121.08ZM119.08 105.672H129.88V101.684H119.08V105.672ZM127.88 103.678V104.057H131.88V103.678H127.88ZM129.88 102.063H124.68V106.051H129.88V102.063ZM122.68 104.057V117.635H126.68V104.057H122.68ZM124.68 115.641H124.28V119.629H124.68V115.641ZM126.28 117.635V104.057H122.28V117.635H126.28ZM145.617 103.678H147.617C147.617 102.577 146.722 101.684 145.617 101.684V103.678ZM145.617 117.635V119.629C146.722 119.629 147.617 118.736 147.617 117.635H145.617ZM145.217 117.635H143.217C143.217 118.736 144.112 119.629 145.217 119.629V117.635ZM145.217 110.736H147.217C147.217 109.635 146.322 108.742 145.217 108.742V110.736ZM135.017 110.736V108.742C133.912 108.742 133.017 109.635 133.017 110.736H135.017ZM135.017 117.635V119.629C136.122 119.629 137.017 118.736 137.017 117.635H135.017ZM134.617 117.635H132.617C132.617 118.736 133.512 119.629 134.617 119.629V117.635ZM134.617 103.678V101.684C133.512 101.684 132.617 102.577 132.617 103.678H134.617ZM135.017 103.678H137.017C137.017 102.577 136.122 101.684 135.017 101.684V103.678ZM135.017 110.357H133.017C133.017 111.459 133.912 112.351 135.017 112.351V110.357ZM145.217 110.357V112.351C146.322 112.351 147.217 111.459 147.217 110.357H145.217ZM145.217 103.678V101.684C144.112 101.684 143.217 102.577 143.217 103.678H145.217ZM143.617 103.678V117.635H147.617V103.678H143.617ZM145.617 115.641H145.217V119.629H145.617V115.641ZM147.217 117.635V110.736H143.217V117.635H147.217ZM145.217 108.742H135.017V112.73H145.217V108.742ZM133.017 110.736V117.635H137.017V110.736H133.017ZM135.017 115.641H134.617V119.629H135.017V115.641ZM136.617 117.635V103.678H132.617V117.635H136.617ZM134.617 105.672H135.017V101.684H134.617V105.672ZM133.017 103.678V110.357H137.017V103.678H133.017ZM135.017 112.351H145.217V108.364H135.017V112.351ZM147.217 110.357V103.678H143.217V110.357H147.217ZM145.217 105.672H145.617V101.684H145.217V105.672ZM162.265 117.256H164.265C164.265 116.154 163.37 115.262 162.265 115.262V117.256ZM162.265 117.635V119.629C163.37 119.629 164.265 118.736 164.265 117.635H162.265ZM152.945 117.635H150.945C150.945 118.736 151.841 119.629 152.945 119.629V117.635ZM152.945 103.678V101.684C151.841 101.684 150.945 102.577 150.945 103.678H152.945ZM161.965 103.678H163.965C163.965 102.577 163.07 101.684 161.965 101.684V103.678ZM161.965 104.057V106.051C163.07 106.051 163.965 105.159 163.965 104.057H161.965ZM153.345 104.057V102.063C152.241 102.063 151.345 102.955 151.345 104.057H153.345ZM153.345 110.357H151.345C151.345 111.459 152.241 112.351 153.345 112.351V110.357ZM161.065 110.357H163.065C163.065 109.256 162.17 108.364 161.065 108.364V110.357ZM161.065 110.736V112.73C162.17 112.73 163.065 111.838 163.065 110.736H161.065ZM153.345 110.736V108.742C152.241 108.742 151.345 109.635 151.345 110.736H153.345ZM153.345 117.256H151.345C151.345 118.358 152.241 119.25 153.345 119.25V117.256ZM160.265 117.256V117.635H164.265V117.256H160.265ZM162.265 115.641H152.945V119.629H162.265V115.641ZM154.945 117.635V103.678H150.945V117.635H154.945ZM152.945 105.672H161.965V101.684H152.945V105.672ZM159.965 103.678V104.057H163.965V103.678H159.965ZM161.965 102.063H153.345V106.051H161.965V102.063ZM151.345 104.057V110.357H155.345V104.057H151.345ZM153.345 112.351H161.065V108.364H153.345V112.351ZM159.065 110.357V110.736H163.065V110.357H159.065ZM161.065 108.742H153.345V112.73H161.065V108.742ZM151.345 110.736V117.256H155.345V110.736H151.345ZM153.345 119.25H162.265V115.262H153.345V119.25Z" fill="#FACB66"/>
<path d="M0 136.142C9.46667 139.388 32.0667 144.805 51 145.733C69.9333 146.696 84.5 143.056 124.5 141.56C164.5 140.065 174 145.733 217.5 145.733C261 145.733 284 130.846 284 130.846V321.61H274.533C265.067 321.61 246.133 321.61 227.2 321.61C208.267 321.61 189.333 321.61 170.4 321.61C151.467 321.61 132.533 321.61 113.6 321.61C94.6667 321.61 75.7333 321.61 56.8 321.61C37.8667 321.61 18.9333 321.61 9.46667 321.61H0V136.142Z" fill="#FACB66"/>
<path d="M0 185.825L9.46667 184.47C18.9333 183.079 37.8667 180.368 56.8 180.404C75.7333 180.476 94.6667 183.329 113.6 185.112C132.533 186.896 151.467 187.608 170.4 189.213C189.333 190.819 208.267 193.316 227.2 190.176C246.133 187.002 265.067 178.229 274.533 173.805L284 169.418V287.833H274.533C265.067 287.833 246.133 287.833 227.2 287.833C208.267 287.833 189.333 287.833 170.4 287.833C151.467 287.833 132.533 287.833 113.6 287.833C94.6667 287.833 75.7333 287.833 56.8 287.833C37.8667 287.833 18.9333 287.833 9.46667 287.833H0V185.825Z" fill="#F5BC51"/>
<path d="M0 237.455L9.46667 231.213C18.9333 224.971 37.8667 212.487 56.8 210.276C75.7333 208.101 94.6667 216.162 113.6 218.016C132.533 219.87 151.467 215.448 170.4 212.131C189.333 208.814 208.267 206.532 227.2 210.098C246.133 213.664 265.067 223.08 274.533 227.753L284 232.461V304.151H274.533C265.067 304.151 246.133 304.151 227.2 304.151C208.267 304.151 189.333 304.151 170.4 304.151C151.467 304.151 132.533 304.151 113.6 304.151C94.6667 304.151 75.7333 304.151 56.8 304.151C37.8667 304.151 18.9333 304.151 9.46667 304.151H0V237.455Z" fill="#F1AD3B"/>
<path d="M0 266.789L9.46667 265.113C18.9333 263.472 37.8667 245.599 56.8 242.746C75.7333 239.893 92.5 255.207 113.6 255.706C134.7 256.204 151.467 238.72 170.4 237.185C189.333 235.652 208.267 238.006 227.2 238.505C246.133 238.969 265.067 237.542 274.533 236.829L284 236.116V321.36H274.533C265.067 321.36 246.133 321.36 227.2 321.36C208.267 321.36 189.333 321.36 170.4 321.36C151.467 321.36 132.533 321.36 113.6 321.36C94.6667 321.36 75.7333 321.36 56.8 321.36C37.8667 321.36 18.9333 321.36 9.46667 321.36H0V266.789Z" fill="#ED9D24"/>
<path d="M0 286.113L9.46667 284.223C18.9333 282.297 37.8667 278.516 56.8 279.051C75.7333 279.586 94.6667 284.437 113.6 288.075C132.533 291.713 151.467 294.067 170.4 294.317C189.333 294.566 208.267 292.64 227.2 291.107C246.133 289.573 265.067 288.36 274.533 287.789L284 287.183V321.424H274.533C265.067 321.424 246.133 321.424 227.2 321.424C208.267 321.424 189.333 321.424 170.4 321.424C151.467 321.424 132.533 321.424 113.6 321.424C94.6667 321.424 75.7333 321.424 56.8 321.424C37.8667 321.424 18.9333 321.424 9.46667 321.424H0V286.113Z" fill="#E98D00"/>
<g style="mix-blend-mode:soft-light">
<path d="M27 192.403H257" stroke="white"/>
</g>
<path d="M52.4045 206.559H53.6285V223.307H52.4045V206.559ZM77.7706 223.307L77.7466 208.975L70.7146 221.081H70.1146L63.0826 209.023V223.307H61.8826V206.559H62.9146L70.4266 219.502L77.9386 206.559H78.9466L78.9706 223.307H77.7706ZM93.2519 206.559C95.3639 206.559 97.0199 207.061 98.2199 208.066C99.4199 209.055 100.02 210.435 100.02 212.205C100.02 213.96 99.4199 215.339 98.2199 216.344C97.0199 217.333 95.3639 217.828 93.2519 217.828H88.4519V223.307H87.2279V206.559H93.2519ZM93.2519 216.727C95.0439 216.727 96.4119 216.336 97.3559 215.555C98.2999 214.773 98.7719 213.657 98.7719 212.205C98.7719 210.754 98.2999 209.637 97.3559 208.855C96.4119 208.058 95.0439 207.659 93.2519 207.659H88.4519V216.727H93.2519ZM118.142 222.206V223.307H106.55V206.559H117.782V207.659H107.774V214.263H116.726V215.339H107.774V222.206H118.142ZM136.669 223.307L132.661 217.708C132.069 217.788 131.525 217.828 131.029 217.828H126.229V223.307H125.005V206.559H131.029C133.141 206.559 134.797 207.061 135.997 208.066C137.197 209.055 137.797 210.435 137.797 212.205C137.797 213.529 137.453 214.645 136.765 215.555C136.093 216.448 135.125 217.078 133.861 217.445L138.061 223.307H136.669ZM131.029 216.751C132.821 216.751 134.189 216.36 135.133 215.579C136.077 214.781 136.549 213.657 136.549 212.205C136.549 210.754 136.077 209.637 135.133 208.855C134.189 208.058 132.821 207.659 131.029 207.659H126.229V216.751H131.029ZM145.902 207.659V214.813H154.854V215.914H145.902V223.307H144.678V206.559H155.91V207.659H145.902ZM173.811 222.206V223.307H162.219V206.559H173.451V207.659H163.443V214.263H172.395V215.339H163.443V222.206H173.811ZM187.777 223.426C186.129 223.426 184.641 223.059 183.313 222.326C182.001 221.592 180.961 220.579 180.193 219.287C179.441 217.995 179.065 216.544 179.065 214.933C179.065 213.322 179.441 211.87 180.193 210.578C180.961 209.286 182.001 208.273 183.313 207.54C184.641 206.806 186.129 206.439 187.777 206.439C188.993 206.439 190.113 206.638 191.137 207.037C192.161 207.42 193.033 207.994 193.753 208.76L192.985 209.549C191.641 208.225 189.921 207.563 187.825 207.563C186.417 207.563 185.137 207.882 183.985 208.52C182.833 209.159 181.929 210.044 181.273 211.176C180.617 212.293 180.289 213.545 180.289 214.933C180.289 216.32 180.617 217.58 181.273 218.713C181.929 219.829 182.833 220.707 183.985 221.345C185.137 221.983 186.417 222.302 187.825 222.302C189.905 222.302 191.625 221.632 192.985 220.292L193.753 221.081C193.033 221.847 192.153 222.429 191.113 222.828C190.089 223.227 188.977 223.426 187.777 223.426ZM205.869 207.659H199.821V206.559H213.141V207.659H207.093V223.307H205.869V207.659ZM225.47 223.426C223.822 223.426 222.334 223.059 221.006 222.326C219.678 221.576 218.63 220.555 217.862 219.263C217.11 217.971 216.734 216.528 216.734 214.933C216.734 213.338 217.11 211.894 217.862 210.602C218.63 209.31 219.678 208.297 221.006 207.563C222.334 206.814 223.822 206.439 225.47 206.439C227.118 206.439 228.606 206.806 229.934 207.54C231.262 208.273 232.302 209.286 233.054 210.578C233.822 211.87 234.206 213.322 234.206 214.933C234.206 216.544 233.822 217.995 233.054 219.287C232.302 220.579 231.262 221.592 229.934 222.326C228.606 223.059 227.118 223.426 225.47 223.426ZM225.47 222.302C226.878 222.302 228.15 221.983 229.286 221.345C230.422 220.707 231.318 219.829 231.974 218.713C232.63 217.58 232.958 216.32 232.958 214.933C232.958 213.545 232.63 212.293 231.974 211.176C231.318 210.044 230.422 209.159 229.286 208.52C228.15 207.882 226.878 207.563 225.47 207.563C224.062 207.563 222.782 207.882 221.63 208.52C220.494 209.159 219.598 210.044 218.942 211.176C218.286 212.293 217.958 213.545 217.958 214.933C217.958 216.32 218.286 217.58 218.942 218.713C219.598 219.829 220.494 220.707 221.63 221.345C222.782 221.983 224.062 222.302 225.47 222.302Z" fill="white"/>
<path d="M52.4045 206.558V204.315C51.1618 204.315 50.1545 205.319 50.1545 206.558H52.4045ZM53.6285 206.558H55.8785C55.8785 205.319 54.8711 204.315 53.6285 204.315V206.558ZM53.6285 223.306V225.549C54.8711 225.549 55.8785 224.546 55.8785 223.306H53.6285ZM52.4045 223.306H50.1545C50.1545 224.546 51.1618 225.549 52.4045 225.549V223.306ZM52.4045 208.801H53.6285V204.315H52.4045V208.801ZM51.3785 206.558V223.306H55.8785V206.558H51.3785ZM53.6285 221.063H52.4045V225.549H53.6285V221.063ZM54.6545 223.306V206.558H50.1545V223.306H54.6545ZM77.7706 223.306L75.5206 223.31C75.5227 224.548 76.5294 225.549 77.7706 225.549V223.306ZM77.7466 208.975L79.9966 208.971C79.9949 207.957 79.311 207.071 78.3285 206.809C77.346 206.546 76.3092 206.973 75.7995 207.851L77.7466 208.975ZM70.7146 221.081V223.324C71.5174 223.324 72.2594 222.898 72.6617 222.205L70.7146 221.081ZM70.1146 221.081L68.1694 222.209C68.5722 222.9 69.3131 223.324 70.1146 223.324V221.081ZM63.0826 209.023L65.0278 207.895C64.5166 207.019 63.479 206.593 62.497 206.858C61.5149 207.121 60.8326 208.009 60.8326 209.023H63.0826ZM63.0826 223.306V225.549C64.3252 225.549 65.3326 224.546 65.3326 223.306H63.0826ZM61.8826 223.306H59.6326C59.6326 224.546 60.6399 225.549 61.8826 225.549V223.306ZM61.8826 206.558V204.315C60.6399 204.315 59.6326 205.319 59.6326 206.558H61.8826ZM62.9146 206.558L64.8621 205.435C64.4599 204.742 63.7177 204.315 62.9146 204.315V206.558ZM70.4266 219.502L68.479 220.626C68.8812 221.319 69.6235 221.745 70.4266 221.745C71.2297 221.745 71.9719 221.319 72.3741 220.626L70.4266 219.502ZM77.9386 206.558V204.315C77.1355 204.315 76.3932 204.742 75.991 205.435L77.9386 206.558ZM78.9466 206.558L81.1966 206.555C81.1948 205.317 80.188 204.315 78.9466 204.315V206.558ZM78.9706 223.306V225.549C79.5679 225.549 80.1407 225.313 80.5627 224.892C80.9848 224.47 81.2214 223.899 81.2206 223.303L78.9706 223.306ZM80.0206 223.302L79.9966 208.971L75.4966 208.979L75.5206 223.31L80.0206 223.302ZM75.7995 207.851L68.7675 219.958L72.6617 222.205L79.6937 210.098L75.7995 207.851ZM70.7146 218.838H70.1146V223.324H70.7146V218.838ZM72.0598 219.954L65.0278 207.895L61.1374 210.15L68.1694 222.209L72.0598 219.954ZM60.8326 209.023V223.306H65.3326V209.023H60.8326ZM63.0826 221.063H61.8826V225.549H63.0826V221.063ZM64.1326 223.306V206.558H59.6326V223.306H64.1326ZM61.8826 208.801H62.9146V204.315H61.8826V208.801ZM60.967 207.682L68.479 220.626L72.3741 218.379L64.8621 205.435L60.967 207.682ZM72.3741 220.626L79.8861 207.682L75.991 205.435L68.479 218.379L72.3741 220.626ZM77.9386 208.801H78.9466V204.315H77.9386V208.801ZM76.6966 206.561L76.7206 223.309L81.2206 223.303L81.1966 206.555L76.6966 206.561ZM78.9706 221.063H77.7706V225.549H78.9706V221.063ZM98.2199 208.066L96.7727 209.783C96.7772 209.787 96.7818 209.79 96.7863 209.794L98.2199 208.066ZM98.2199 216.344L99.6535 218.073C99.658 218.069 99.6626 218.066 99.6671 218.062L98.2199 216.344ZM88.4519 217.827V215.584C87.2093 215.584 86.2019 216.588 86.2019 217.827H88.4519ZM88.4519 223.306V225.549C89.6945 225.549 90.7019 224.546 90.7019 223.306H88.4519ZM87.2279 223.306H84.9779C84.9779 224.546 85.9853 225.549 87.2279 225.549V223.306ZM87.2279 206.558V204.315C85.9853 204.315 84.9779 205.319 84.9779 206.558H87.2279ZM97.3559 215.555L98.7934 217.28L97.3559 215.555ZM97.3559 208.855L95.9012 210.567C95.9069 210.571 95.9126 210.576 95.9184 210.581L97.3559 208.855ZM88.4519 207.659V205.416C87.2093 205.416 86.2019 206.42 86.2019 207.659H88.4519ZM88.4519 216.727H86.2019C86.2019 217.966 87.2093 218.97 88.4519 218.97V216.727ZM93.2519 208.801C95.0192 208.801 96.1 209.22 96.7727 209.783L99.6671 206.348C97.9398 204.902 95.7086 204.315 93.2519 204.315V208.801ZM96.7863 209.794C97.3928 210.295 97.7699 210.998 97.7699 212.205H102.27C102.27 209.871 101.447 207.815 99.6535 206.337L96.7863 209.794ZM97.7699 212.205C97.7699 213.388 97.3973 214.103 96.7727 214.626L99.6671 218.062C101.443 216.575 102.27 214.531 102.27 212.205H97.7699ZM96.7863 214.615C96.1131 215.17 95.027 215.584 93.2519 215.584V220.07C95.7008 220.07 97.9267 219.496 99.6535 218.073L96.7863 214.615ZM93.2519 215.584H88.4519V220.07H93.2519V215.584ZM86.2019 217.827V223.306H90.7019V217.827H86.2019ZM88.4519 221.063H87.2279V225.549H88.4519V221.063ZM89.4779 223.306V206.558H84.9779V223.306H89.4779ZM87.2279 208.801H93.2519V204.315H87.2279V208.801ZM93.2519 218.97C95.3339 218.97 97.2955 218.52 98.7934 217.28L95.9184 213.829C95.5283 214.152 94.7539 214.484 93.2519 214.484V218.97ZM98.7934 217.28C100.35 215.991 101.022 214.186 101.022 212.205H96.5219C96.5219 213.127 96.25 213.555 95.9184 213.829L98.7934 217.28ZM101.022 212.205C101.022 210.224 100.35 208.419 98.7934 207.13L95.9184 210.581C96.25 210.855 96.5219 211.283 96.5219 212.205H101.022ZM98.8106 207.144C97.3118 205.878 95.343 205.416 93.2519 205.416V209.902C94.7448 209.902 95.512 210.238 95.9012 210.567L98.8106 207.144ZM93.2519 205.416H88.4519V209.902H93.2519V205.416ZM86.2019 207.659V216.727H90.7019V207.659H86.2019ZM88.4519 218.97H93.2519V214.484H88.4519V218.97ZM118.142 222.206H120.392C120.392 220.967 119.385 219.963 118.142 219.963V222.206ZM118.142 223.306V225.549C119.385 225.549 120.392 224.546 120.392 223.306H118.142ZM106.55 223.306H104.3C104.3 224.546 105.307 225.549 106.55 225.549V223.306ZM106.55 206.558V204.315C105.307 204.315 104.3 205.319 104.3 206.558H106.55ZM117.782 206.558H120.032C120.032 205.319 119.025 204.315 117.782 204.315V206.558ZM117.782 207.659V209.902C119.025 209.902 120.032 208.898 120.032 207.659H117.782ZM107.774 207.659V205.416C106.531 205.416 105.524 206.42 105.524 207.659H107.774ZM107.774 214.263H105.524C105.524 215.502 106.531 216.506 107.774 216.506V214.263ZM116.726 214.263H118.976C118.976 213.023 117.969 212.019 116.726 212.019V214.263ZM116.726 215.339V217.582C117.969 217.582 118.976 216.578 118.976 215.339H116.726ZM107.774 215.339V213.096C106.531 213.096 105.524 214.1 105.524 215.339H107.774ZM107.774 222.206H105.524C105.524 223.445 106.531 224.449 107.774 224.449V222.206ZM115.892 222.206V223.306H120.392V222.206H115.892ZM118.142 221.063H106.55V225.549H118.142V221.063ZM108.8 223.306V206.558H104.3V223.306H108.8ZM106.55 208.801H117.782V204.315H106.55V208.801ZM115.532 206.558V207.659H120.032V206.558H115.532ZM117.782 205.416H107.774V209.902H117.782V205.416ZM105.524 207.659V214.263H110.024V207.659H105.524ZM107.774 216.506H116.726V212.019H107.774V216.506ZM114.476 214.263V215.339H118.976V214.263H114.476ZM116.726 213.096H107.774V217.582H116.726V213.096ZM105.524 215.339V222.206H110.024V215.339H105.524ZM107.774 224.449H118.142V219.963H107.774V224.449ZM136.669 223.306L134.837 224.609C135.259 225.2 135.942 225.549 136.669 225.549V223.306ZM132.661 217.708L134.492 216.405C134.007 215.728 133.186 215.374 132.359 215.485L132.661 217.708ZM126.229 217.827V215.584C124.986 215.584 123.979 216.588 123.979 217.827H126.229ZM126.229 223.306V225.549C127.471 225.549 128.479 224.546 128.479 223.306H126.229ZM125.005 223.306H122.755C122.755 224.546 123.762 225.549 125.005 225.549V223.306ZM125.005 206.558V204.315C123.762 204.315 122.755 205.319 122.755 206.558H125.005ZM135.997 208.066L134.549 209.783C134.554 209.787 134.558 209.79 134.563 209.794L135.997 208.066ZM136.765 215.555L134.968 214.204L134.965 214.209L136.765 215.555ZM133.861 217.445L133.232 215.291C132.531 215.495 131.973 216.023 131.735 216.71C131.496 217.397 131.606 218.156 132.03 218.749L133.861 217.445ZM138.061 223.306V225.549C138.903 225.549 139.676 225.08 140.061 224.333C140.447 223.586 140.381 222.686 139.891 222.003L138.061 223.306ZM135.133 215.578L136.57 217.304C136.576 217.299 136.582 217.294 136.587 217.29L135.133 215.578ZM135.133 208.855L133.678 210.567C133.684 210.571 133.689 210.576 133.695 210.581L135.133 208.855ZM126.229 207.659V205.416C124.986 205.416 123.979 206.42 123.979 207.659H126.229ZM126.229 216.751H123.979C123.979 217.99 124.986 218.994 126.229 218.994V216.751ZM138.5 222.003L134.492 216.405L130.829 219.011L134.837 224.609L138.5 222.003ZM132.359 215.485C131.848 215.554 131.406 215.584 131.029 215.584V220.07C131.643 220.07 132.289 220.022 132.962 219.931L132.359 215.485ZM131.029 215.584H126.229V220.07H131.029V215.584ZM123.979 217.827V223.306H128.479V217.827H123.979ZM126.229 221.063H125.005V225.549H126.229V221.063ZM127.255 223.306V206.558H122.755V223.306H127.255ZM125.005 208.801H131.029V204.315H125.005V208.801ZM131.029 208.801C132.796 208.801 133.877 209.22 134.549 209.783L137.444 206.348C135.716 204.902 133.485 204.315 131.029 204.315V208.801ZM134.563 209.794C135.169 210.295 135.547 210.998 135.547 212.205H140.047C140.047 209.871 139.224 207.815 137.43 206.337L134.563 209.794ZM135.547 212.205C135.547 213.124 135.316 213.744 134.968 214.204L138.561 216.905C139.589 215.547 140.047 213.934 140.047 212.205H135.547ZM134.965 214.209C134.634 214.648 134.113 215.035 133.232 215.291L134.49 219.598C136.136 219.12 137.551 218.247 138.565 216.9L134.965 214.209ZM132.03 218.749L136.23 224.61L139.891 222.003L135.691 216.141L132.03 218.749ZM138.061 221.063H136.669V225.549H138.061V221.063ZM131.029 218.994C133.111 218.994 135.072 218.544 136.57 217.304L133.695 213.853C133.305 214.176 132.531 214.508 131.029 214.508V218.994ZM136.587 217.29C138.127 215.989 138.799 214.187 138.799 212.205H134.299C134.299 213.126 134.026 213.573 133.678 213.867L136.587 217.29ZM138.799 212.205C138.799 210.224 138.126 208.419 136.57 207.13L133.695 210.581C134.027 210.855 134.299 211.283 134.299 212.205H138.799ZM136.587 207.144C135.088 205.878 133.12 205.416 131.029 205.416V209.902C132.521 209.902 133.289 210.238 133.678 210.567L136.587 207.144ZM131.029 205.416H126.229V209.902H131.029V205.416ZM123.979 207.659V216.751H128.479V207.659H123.979ZM126.229 218.994H131.029V214.508H126.229V218.994ZM145.902 207.659V205.416C144.659 205.416 143.652 206.42 143.652 207.659H145.902ZM145.902 214.813H143.652C143.652 216.052 144.659 217.056 145.902 217.056V214.813ZM154.854 214.813H157.104C157.104 213.574 156.097 212.57 154.854 212.57V214.813ZM154.854 215.913V218.156C156.097 218.156 157.104 217.153 157.104 215.913H154.854ZM145.902 215.913V213.67C144.659 213.67 143.652 214.674 143.652 215.913H145.902ZM145.902 223.306V225.549C147.145 225.549 148.152 224.546 148.152 223.306H145.902ZM144.678 223.306H142.428C142.428 224.546 143.435 225.549 144.678 225.549V223.306ZM144.678 206.558V204.315C143.435 204.315 142.428 205.319 142.428 206.558H144.678ZM155.91 206.558H158.16C158.16 205.319 157.153 204.315 155.91 204.315V206.558ZM155.91 207.659V209.902C157.153 209.902 158.16 208.898 158.16 207.659H155.91ZM143.652 207.659V214.813H148.152V207.659H143.652ZM145.902 217.056H154.854V212.57H145.902V217.056ZM152.604 214.813V215.913H157.104V214.813H152.604ZM154.854 213.67H145.902V218.156H154.854V213.67ZM143.652 215.913V223.306H148.152V215.913H143.652ZM145.902 221.063H144.678V225.549H145.902V221.063ZM146.928 223.306V206.558H142.428V223.306H146.928ZM144.678 208.801H155.91V204.315H144.678V208.801ZM153.66 206.558V207.659H158.16V206.558H153.66ZM155.91 205.416H145.902V209.902H155.91V205.416ZM173.811 222.206H176.061C176.061 220.967 175.053 219.963 173.811 219.963V222.206ZM173.811 223.306V225.549C175.053 225.549 176.061 224.546 176.061 223.306H173.811ZM162.219 223.306H159.969C159.969 224.546 160.976 225.549 162.219 225.549V223.306ZM162.219 206.558V204.315C160.976 204.315 159.969 205.319 159.969 206.558H162.219ZM173.451 206.558H175.701C175.701 205.319 174.693 204.315 173.451 204.315V206.558ZM173.451 207.659V209.902C174.693 209.902 175.701 208.898 175.701 207.659H173.451ZM163.443 207.659V205.416C162.2 205.416 161.193 206.42 161.193 207.659H163.443ZM163.443 214.263H161.193C161.193 215.502 162.2 216.506 163.443 216.506V214.263ZM172.395 214.263H174.645C174.645 213.023 173.637 212.019 172.395 212.019V214.263ZM172.395 215.339V217.582C173.637 217.582 174.645 216.578 174.645 215.339H172.395ZM163.443 215.339V213.096C162.2 213.096 161.193 214.1 161.193 215.339H163.443ZM163.443 222.206H161.193C161.193 223.445 162.2 224.449 163.443 224.449V222.206ZM171.561 222.206V223.306H176.061V222.206H171.561ZM173.811 221.063H162.219V225.549H173.811V221.063ZM164.469 223.306V206.558H159.969V223.306H164.469ZM162.219 208.801H173.451V204.315H162.219V208.801ZM171.201 206.558V207.659H175.701V206.558H171.201ZM173.451 205.416H163.443V209.902H173.451V205.416ZM161.193 207.659V214.263H165.693V207.659H161.193ZM163.443 216.506H172.395V212.019H163.443V216.506ZM170.145 214.263V215.339H174.645V214.263H170.145ZM172.395 213.096H163.443V217.582H172.395V213.096ZM161.193 215.339V222.206H165.693V215.339H161.193ZM163.443 224.449H173.811V219.963H163.443V224.449ZM183.313 222.326L182.212 224.281L182.223 224.287L183.313 222.326ZM180.193 219.287L178.247 220.412C178.251 220.418 178.254 220.424 178.258 220.43L180.193 219.287ZM180.193 210.578L178.258 209.435C178.254 209.441 178.251 209.446 178.247 209.452L180.193 210.578ZM183.313 207.539L182.223 205.578L182.213 205.583L183.313 207.539ZM191.137 207.037L190.319 209.126C190.328 209.129 190.338 209.133 190.347 209.137L191.137 207.037ZM193.753 208.76L195.369 210.321C196.205 209.461 196.216 208.099 195.395 207.225L193.753 208.76ZM192.985 209.549L191.404 211.144C191.831 211.565 192.409 211.798 193.009 211.792C193.61 211.785 194.183 211.54 194.601 211.11L192.985 209.549ZM183.985 208.52L185.078 210.481L183.985 208.52ZM181.273 211.176L183.215 212.31L183.222 212.298L181.273 211.176ZM181.273 218.713L179.325 219.834L179.332 219.846L181.273 218.713ZM183.985 221.345L185.078 219.384L183.985 221.345ZM192.985 220.292L194.601 218.731C194.183 218.301 193.61 218.056 193.009 218.049C192.409 218.043 191.831 218.276 191.404 218.697L192.985 220.292ZM193.753 221.081L195.395 222.616C196.216 221.742 196.205 220.38 195.369 219.52L193.753 221.081ZM191.113 222.828L190.306 220.734L190.295 220.738L191.113 222.828ZM187.777 221.183C186.477 221.183 185.37 220.897 184.404 220.364L182.223 224.287C183.913 225.221 185.781 225.669 187.777 225.669V221.183ZM184.414 220.37C183.448 219.829 182.696 219.097 182.129 218.143L178.258 220.43C179.227 222.061 180.555 223.354 182.213 224.281L184.414 220.37ZM182.139 218.161C181.602 217.238 181.315 216.181 181.315 214.932H176.815C176.815 216.906 177.281 218.752 178.247 220.412L182.139 218.161ZM181.315 214.932C181.315 213.684 181.602 212.627 182.139 211.703L178.247 209.452C177.281 211.113 176.815 212.959 176.815 214.932H181.315ZM182.129 211.721C182.696 210.768 183.448 210.036 184.414 209.495L182.213 205.583C180.555 206.511 179.227 207.804 178.258 209.435L182.129 211.721ZM184.404 209.501C185.37 208.968 186.477 208.682 187.777 208.682V204.196C185.781 204.196 183.913 204.643 182.223 205.578L184.404 209.501ZM187.777 208.682C188.743 208.682 189.582 208.839 190.319 209.126L191.956 204.947C190.645 204.437 189.244 204.196 187.777 204.196V208.682ZM190.347 209.137C191.061 209.404 191.638 209.789 192.112 210.294L195.395 207.225C194.429 206.199 193.262 205.436 191.927 204.936L190.347 209.137ZM192.138 207.198L191.37 207.988L194.601 211.11L195.369 210.321L192.138 207.198ZM194.567 207.954C192.754 206.168 190.443 205.32 187.825 205.32V209.806C189.4 209.806 190.529 210.283 191.404 211.144L194.567 207.954ZM187.825 205.32C186.062 205.32 184.402 205.724 182.893 206.559L185.078 210.481C185.873 210.041 186.773 209.806 187.825 209.806V205.32ZM182.893 206.559C181.386 207.394 180.186 208.568 179.325 210.055L183.222 212.298C183.673 211.519 184.28 210.923 185.078 210.481L182.893 206.559ZM179.332 210.043C178.459 211.528 178.039 213.176 178.039 214.932H182.539C182.539 213.914 182.775 213.057 183.215 212.31L179.332 210.043ZM178.039 214.932C178.039 216.689 178.459 218.34 179.325 219.834L183.222 217.591C182.775 216.821 182.539 215.951 182.539 214.932H178.039ZM179.332 219.846C180.195 221.315 181.394 222.475 182.893 223.305L185.078 219.384C184.272 218.938 183.664 218.344 183.215 217.579L179.332 219.846ZM182.893 223.305C184.402 224.141 186.062 224.545 187.825 224.545V220.059C186.773 220.059 185.873 219.824 185.078 219.384L182.893 223.305ZM187.825 224.545C190.44 224.545 192.747 223.68 194.567 221.887L191.404 218.697C190.504 219.583 189.37 220.059 187.825 220.059V224.545ZM191.37 221.853L192.138 222.643L195.369 219.52L194.601 218.731L191.37 221.853ZM192.112 219.547C191.637 220.052 191.048 220.449 190.306 220.734L191.921 224.921C193.259 224.409 194.429 223.642 195.395 222.616L192.112 219.547ZM190.295 220.738C189.554 221.027 188.723 221.183 187.777 221.183V225.669C189.232 225.669 190.624 225.427 191.932 224.917L190.295 220.738ZM205.869 207.659H208.119C208.119 206.42 207.112 205.416 205.869 205.416V207.659ZM199.821 207.659H197.571C197.571 208.898 198.578 209.902 199.821 209.902V207.659ZM199.821 206.558V204.315C198.578 204.315 197.571 205.319 197.571 206.558H199.821ZM213.141 206.558H215.391C215.391 205.319 214.384 204.315 213.141 204.315V206.558ZM213.141 207.659V209.902C214.384 209.902 215.391 208.898 215.391 207.659H213.141ZM207.093 207.659V205.416C205.85 205.416 204.843 206.42 204.843 207.659H207.093ZM207.093 223.306V225.549C208.336 225.549 209.343 224.546 209.343 223.306H207.093ZM205.869 223.306H203.619C203.619 224.546 204.626 225.549 205.869 225.549V223.306ZM205.869 205.416H199.821V209.902H205.869V205.416ZM202.071 207.659V206.558H197.571V207.659H202.071ZM199.821 208.801H213.141V204.315H199.821V208.801ZM210.891 206.558V207.659H215.391V206.558H210.891ZM213.141 205.416H207.093V209.902H213.141V205.416ZM204.843 207.659V223.306H209.343V207.659H204.843ZM207.093 221.063H205.869V225.549H207.093V221.063ZM208.119 223.306V207.659H203.619V223.306H208.119ZM221.006 222.326L219.897 224.277C219.903 224.28 219.909 224.284 219.915 224.287L221.006 222.326ZM217.862 219.263L215.916 220.389C215.919 220.394 215.923 220.4 215.926 220.406L217.862 219.263ZM217.862 210.602L215.926 209.458C215.923 209.464 215.919 209.47 215.916 209.476L217.862 210.602ZM221.006 207.563L222.097 209.525C222.103 209.522 222.109 209.518 222.115 209.515L221.006 207.563ZM233.054 210.578L231.108 211.703C231.111 211.709 231.115 211.715 231.118 211.721L233.054 210.578ZM233.054 219.287L231.118 218.143C231.115 218.149 231.111 218.155 231.108 218.161L233.054 219.287ZM229.934 222.326L231.025 224.287L229.934 222.326ZM229.286 221.345L228.182 219.391L229.286 221.345ZM231.974 218.713L233.916 219.846L233.923 219.834L231.974 218.713ZM231.974 211.176L230.026 212.298L230.033 212.31L231.974 211.176ZM229.286 208.52L228.182 210.474L229.286 208.52ZM221.63 208.52L220.537 206.559L220.526 206.566L221.63 208.52ZM218.942 211.176L220.884 212.31L220.891 212.298L218.942 211.176ZM218.942 218.713L216.994 219.834L217.001 219.846L218.942 218.713ZM221.63 221.345L220.526 223.298L220.537 223.305L221.63 221.345ZM225.47 221.183C224.17 221.183 223.063 220.897 222.097 220.364L219.915 224.287C221.605 225.221 223.474 225.669 225.47 225.669V221.183ZM222.115 220.374C221.124 219.814 220.363 219.071 219.798 218.12L215.926 220.406C216.897 222.039 218.232 223.337 219.897 224.277L222.115 220.374ZM219.808 218.138C219.269 217.21 218.984 216.16 218.984 214.932H214.484C214.484 216.895 214.951 218.732 215.916 220.389L219.808 218.138ZM218.984 214.932C218.984 213.705 219.269 212.655 219.808 211.727L215.916 209.476C214.951 211.133 214.484 212.97 214.484 214.932H218.984ZM219.798 211.745C220.36 210.799 221.115 210.068 222.097 209.525L219.915 205.601C218.241 206.527 216.9 207.821 215.926 209.458L219.798 211.745ZM222.115 209.515C223.078 208.972 224.179 208.682 225.47 208.682V204.196C223.465 204.196 221.59 204.655 219.897 205.611L222.115 209.515ZM225.47 208.682C226.77 208.682 227.877 208.968 228.843 209.501L231.025 205.578C229.335 204.643 227.466 204.196 225.47 204.196V208.682ZM228.843 209.501C229.821 210.042 230.563 210.767 231.108 211.703L235 209.452C234.041 207.805 232.703 206.505 231.025 205.578L228.843 209.501ZM231.118 211.721C231.666 212.643 231.956 213.693 231.956 214.932H236.456C236.456 212.95 235.978 211.097 234.99 209.435L231.118 211.721ZM231.956 214.932C231.956 216.172 231.666 217.222 231.118 218.143L234.99 220.43C235.978 218.768 236.456 216.915 236.456 214.932H231.956ZM231.108 218.161C230.563 219.098 229.821 219.823 228.843 220.364L231.025 224.287C232.703 223.36 234.041 222.06 235 220.412L231.108 218.161ZM228.843 220.364C227.877 220.897 226.77 221.183 225.47 221.183V225.669C227.466 225.669 229.335 225.221 231.025 224.287L228.843 220.364ZM225.47 224.545C227.233 224.545 228.891 224.141 230.39 223.298L228.182 219.391C227.409 219.824 226.523 220.059 225.47 220.059V224.545ZM230.39 223.298C231.872 222.467 233.057 221.307 233.916 219.846L230.033 217.579C229.579 218.352 228.972 218.946 228.182 219.391L230.39 223.298ZM233.923 219.834C234.788 218.34 235.208 216.689 235.208 214.932H230.708C230.708 215.951 230.472 216.821 230.026 217.591L233.923 219.834ZM235.208 214.932C235.208 213.176 234.788 211.528 233.916 210.043L230.033 212.31C230.472 213.057 230.708 213.914 230.708 214.932H235.208ZM233.923 210.055C233.066 208.576 231.88 207.403 230.39 206.566L228.182 210.474C228.964 210.914 229.57 211.511 230.026 212.298L233.923 210.055ZM230.39 206.566C228.891 205.724 227.233 205.32 225.47 205.32V209.806C226.523 209.806 227.409 210.041 228.182 210.474L230.39 206.566ZM225.47 205.32C223.707 205.32 222.046 205.724 220.537 206.559L222.723 210.481C223.518 210.041 224.417 209.806 225.47 209.806V205.32ZM220.526 206.566C219.036 207.403 217.85 208.576 216.994 210.055L220.891 212.298C221.346 211.511 221.952 210.914 222.734 210.474L220.526 206.566ZM217.001 210.043C216.128 211.528 215.708 213.176 215.708 214.932H220.208C220.208 213.914 220.444 213.057 220.884 212.31L217.001 210.043ZM215.708 214.932C215.708 216.689 216.128 218.34 216.994 219.834L220.891 217.591C220.444 216.821 220.208 215.951 220.208 214.932H215.708ZM217.001 219.846C217.859 221.307 219.044 222.467 220.526 223.298L222.734 219.391C221.944 218.946 221.337 218.352 220.884 217.579L217.001 219.846ZM220.537 223.305C222.046 224.141 223.707 224.545 225.47 224.545V220.059C224.417 220.059 223.518 219.824 222.723 219.384L220.537 223.305Z" fill="white"/>
<mask id="mask0_150_1234" style="mask-type:alpha" maskUnits="userSpaceOnUse" x="29" y="127" width="228" height="55">
<path d="M32.762 130.495H35.204V153.523H32.762V130.495ZM70.011 130.495V153.523H67.668V135.1L58.593 150.595H57.438L48.363 135.199V153.523H46.02V130.495H48.033L58.065 147.569L67.998 130.495H70.011ZM89.4836 130.495C92.4316 130.495 94.7416 131.197 96.4136 132.6C98.0856 134.004 98.9216 135.934 98.9216 138.39C98.9216 140.847 98.0856 142.777 96.4136 144.18C94.7416 145.562 92.4316 146.253 89.4836 146.253H83.2796V153.523H80.8376V130.495H89.4836ZM89.4176 144.114C91.7056 144.114 93.4546 143.621 94.6646 142.634C95.8746 141.625 96.4796 140.211 96.4796 138.39C96.4796 136.526 95.8746 135.1 94.6646 134.114C93.4546 133.105 91.7056 132.6 89.4176 132.6H83.2796V144.114H89.4176ZM123.837 151.418V153.523H107.502V130.495H123.342V132.6H109.944V140.792H121.89V142.864H109.944V151.418H123.837ZM148.651 153.523L143.371 146.121C142.777 146.187 142.161 146.22 141.523 146.22H135.319V153.523H132.877V130.495H141.523C144.471 130.495 146.781 131.197 148.453 132.6C150.125 134.004 150.961 135.934 150.961 138.39C150.961 140.189 150.499 141.713 149.575 142.963C148.673 144.191 147.375 145.079 145.681 145.628L151.324 153.523H148.651ZM141.457 144.147C143.745 144.147 145.494 143.643 146.704 142.634C147.914 141.625 148.519 140.211 148.519 138.39C148.519 136.526 147.914 135.1 146.704 134.114C145.494 133.105 143.745 132.6 141.457 132.6H135.319V144.147H141.457ZM162.467 132.6V141.647H174.413V143.753H162.467V153.523H160.025V130.495H175.865V132.6H162.467ZM200.543 151.418V153.523H184.208V130.495H200.048V132.6H186.65V140.792H198.596V142.864H186.65V151.418H200.543ZM219.615 153.721C217.327 153.721 215.259 153.216 213.411 152.207C211.585 151.198 210.144 149.806 209.088 148.029C208.054 146.231 207.537 144.224 207.537 142.009C207.537 139.794 208.054 137.798 209.088 136.022C210.144 134.223 211.596 132.82 213.444 131.811C215.292 130.802 217.36 130.297 219.648 130.297C221.364 130.297 222.948 130.582 224.4 131.153C225.852 131.723 227.084 132.556 228.096 133.653L226.545 135.199C224.741 133.379 222.464 132.469 219.714 132.469C217.888 132.469 216.227 132.885 214.731 133.719C213.235 134.552 212.058 135.693 211.2 137.14C210.364 138.588 209.946 140.211 209.946 142.009C209.946 143.807 210.364 145.43 211.2 146.878C212.058 148.325 213.235 149.466 214.731 150.299C216.227 151.133 217.888 151.549 219.714 151.549C222.486 151.549 224.763 150.628 226.545 148.786L228.096 150.332C227.084 151.429 225.841 152.273 224.367 152.865C222.915 153.436 221.331 153.721 219.615 153.721ZM242.739 132.6H234.621V130.495H253.299V132.6H245.181V153.523H242.739V132.6Z" fill="white"/>
<path d="M32.762 130.495V127.504C31.1051 127.504 29.762 128.843 29.762 130.495H32.762ZM35.204 130.495H38.204C38.204 128.843 36.8609 127.504 35.204 127.504V130.495ZM35.204 153.523V156.514C36.8609 156.514 38.204 155.175 38.204 153.523H35.204ZM32.762 153.523H29.762C29.762 155.175 31.1051 156.514 32.762 156.514V153.523ZM32.762 133.485H35.204V127.504H32.762V133.485ZM32.204 130.495V153.523H38.204V130.495H32.204ZM35.204 150.533H32.762V156.514H35.204V150.533ZM35.762 153.523V130.495H29.762V153.523H35.762ZM70.011 130.495H73.011C73.011 128.843 71.6679 127.504 70.011 127.504V130.495ZM70.011 153.523V156.514C71.6679 156.514 73.011 155.175 73.011 153.523H70.011ZM67.668 153.523H64.668C64.668 155.175 66.0112 156.514 67.668 156.514V153.523ZM67.668 135.1H70.668C70.668 133.75 69.7596 132.566 68.4515 132.213C67.1435 131.86 65.7605 132.426 65.0773 133.592L67.668 135.1ZM58.593 150.595V153.586C59.6596 153.586 60.646 153.022 61.1837 152.104L58.593 150.595ZM57.438 150.595L54.8515 152.111C55.3903 153.025 56.3744 153.586 57.438 153.586V150.595ZM48.363 135.199L50.9495 133.684C50.2638 132.52 48.8815 131.959 47.5755 132.313C46.2694 132.668 45.363 133.849 45.363 135.199H48.363ZM48.363 153.523V156.514C50.0199 156.514 51.363 155.175 51.363 153.523H48.363ZM46.02 153.523H43.02C43.02 155.175 44.3632 156.514 46.02 156.514V153.523ZM46.02 130.495V127.504C44.3632 127.504 43.02 128.843 43.02 130.495H46.02ZM48.033 130.495L50.6216 128.983C50.0833 128.067 49.0981 127.504 48.033 127.504V130.495ZM58.065 147.569L55.4764 149.08C56.0159 149.998 57.0041 150.561 58.0715 150.559C59.1389 150.557 60.1246 149.989 60.6601 149.069L58.065 147.569ZM67.998 130.495V127.504C66.9283 127.504 65.9395 128.072 65.4029 128.994L67.998 130.495ZM67.011 130.495V153.523H73.011V130.495H67.011ZM70.011 150.533H67.668V156.514H70.011V150.533ZM70.668 153.523V135.1H64.668V153.523H70.668ZM65.0773 133.592L56.0023 149.087L61.1837 152.104L70.2587 136.609L65.0773 133.592ZM58.593 147.605H57.438V153.586H58.593V147.605ZM60.0245 149.08L50.9495 133.684L45.7765 136.714L54.8515 152.111L60.0245 149.08ZM45.363 135.199V153.523H51.363V135.199H45.363ZM48.363 150.533H46.02V156.514H48.363V150.533ZM49.02 153.523V130.495H43.02V153.523H49.02ZM46.02 133.485H48.033V127.504H46.02V133.485ZM45.4444 132.006L55.4764 149.08L60.6536 146.057L50.6216 128.983L45.4444 132.006ZM60.6601 149.069L70.5931 131.995L65.4029 128.994L55.4699 146.068L60.6601 149.069ZM67.998 133.485H70.011V127.504H67.998V133.485ZM96.4136 132.6L94.4812 134.888L96.4136 132.6ZM96.4136 144.18L98.3282 146.483C98.3341 146.478 98.3401 146.473 98.346 146.468L96.4136 144.18ZM83.2796 146.253V143.262C81.6227 143.262 80.2796 144.601 80.2796 146.253H83.2796ZM83.2796 153.523V156.514C84.9364 156.514 86.2796 155.175 86.2796 153.523H83.2796ZM80.8376 153.523H77.8376C77.8376 155.175 79.1807 156.514 80.8376 156.514V153.523ZM80.8376 130.495V127.504C79.1807 127.504 77.8376 128.843 77.8376 130.495H80.8376ZM94.6646 142.634L96.5643 144.949C96.5727 144.942 96.581 144.935 96.5893 144.928L94.6646 142.634ZM94.6646 134.113L92.7399 136.407C92.7482 136.414 92.7565 136.421 92.7649 136.428L94.6646 134.113ZM83.2796 132.6V129.609C81.6227 129.609 80.2796 130.948 80.2796 132.6H83.2796ZM83.2796 144.114H80.2796C80.2796 145.766 81.6227 147.105 83.2796 147.105V144.114ZM89.4836 133.485C91.9719 133.485 93.5132 134.076 94.4812 134.888L98.346 130.312C95.97 128.317 92.8913 127.504 89.4836 127.504V133.485ZM94.4812 134.888C95.3852 135.647 95.9216 136.691 95.9216 138.39H101.922C101.922 135.177 100.786 132.361 98.346 130.312L94.4812 134.888ZM95.9216 138.39C95.9216 140.09 95.3852 141.134 94.4812 141.892L98.346 146.468C100.786 144.419 101.922 141.603 101.922 138.39H95.9216ZM94.499 141.877C93.5304 142.678 91.9821 143.262 89.4836 143.262V149.244C92.881 149.244 95.9527 148.446 98.3282 146.483L94.499 141.877ZM89.4836 143.262H83.2796V149.244H89.4836V143.262ZM80.2796 146.253V153.523H86.2796V146.253H80.2796ZM83.2796 150.533H80.8376V156.514H83.2796V150.533ZM83.8376 153.523V130.495H77.8376V153.523H83.8376ZM80.8376 133.485H89.4836V127.504H80.8376V133.485ZM89.4176 147.105C92.0868 147.105 94.6187 146.536 96.5643 144.949L92.7649 140.319C92.2904 140.706 91.3244 141.124 89.4176 141.124V147.105ZM96.5893 144.928C98.5921 143.258 99.4796 140.94 99.4796 138.39H93.4796C93.4796 139.481 93.1571 139.992 92.7399 140.34L96.5893 144.928ZM99.4796 138.39C99.4796 135.824 98.6091 133.466 96.5643 131.799L92.7649 136.428C93.1401 136.734 93.4796 137.228 93.4796 138.39H99.4796ZM96.5893 131.82C94.6421 130.196 92.0998 129.609 89.4176 129.609V135.591C91.3113 135.591 92.2671 136.014 92.7399 136.407L96.5893 131.82ZM89.4176 129.609H83.2796V135.591H89.4176V129.609ZM80.2796 132.6V144.114H86.2796V132.6H80.2796ZM83.2796 147.105H89.4176V141.124H83.2796V147.105ZM123.837 151.418H126.837C126.837 149.766 125.494 148.427 123.837 148.427V151.418ZM123.837 153.523V156.514C125.494 156.514 126.837 155.175 126.837 153.523H123.837ZM107.502 153.523H104.502C104.502 155.175 105.845 156.514 107.502 156.514V153.523ZM107.502 130.495V127.504C105.845 127.504 104.502 128.843 104.502 130.495H107.502ZM123.342 130.495H126.342C126.342 128.843 124.999 127.504 123.342 127.504V130.495ZM123.342 132.6V135.591C124.999 135.591 126.342 134.252 126.342 132.6H123.342ZM109.944 132.6V129.609C108.287 129.609 106.944 130.948 106.944 132.6H109.944ZM109.944 140.792H106.944C106.944 142.444 108.287 143.782 109.944 143.782V140.792ZM121.89 140.792H124.89C124.89 139.14 123.547 137.801 121.89 137.801V140.792ZM121.89 142.864V145.855C123.547 145.855 124.89 144.516 124.89 142.864H121.89ZM109.944 142.864V139.874C108.287 139.874 106.944 141.212 106.944 142.864H109.944ZM109.944 151.418H106.944C106.944 153.07 108.287 154.408 109.944 154.408V151.418ZM120.837 151.418V153.523H126.837V151.418H120.837ZM123.837 150.533H107.502V156.514H123.837V150.533ZM110.502 153.523V130.495H104.502V153.523H110.502ZM107.502 133.485H123.342V127.504H107.502V133.485ZM120.342 130.495V132.6H126.342V130.495H120.342ZM123.342 129.609H109.944V135.591H123.342V129.609ZM106.944 132.6V140.792H112.944V132.6H106.944ZM109.944 143.782H121.89V137.801H109.944V143.782ZM118.89 140.792V142.864H124.89V140.792H118.89ZM121.89 139.874H109.944V145.855H121.89V139.874ZM106.944 142.864V151.418H112.944V142.864H106.944ZM109.944 154.408H123.837V148.427H109.944V154.408ZM148.651 153.523L146.206 155.257C146.769 156.045 147.68 156.514 148.651 156.514V153.523ZM143.371 146.121L145.816 144.388C145.185 143.503 144.122 143.029 143.04 143.148L143.371 146.121ZM135.319 146.22V143.229C133.662 143.229 132.319 144.568 132.319 146.22H135.319ZM135.319 153.523V156.514C136.976 156.514 138.319 155.175 138.319 153.523H135.319ZM132.877 153.523H129.877C129.877 155.175 131.22 156.514 132.877 156.514V153.523ZM132.877 130.495V127.504C131.22 127.504 129.877 128.843 129.877 130.495H132.877ZM148.453 132.6L146.521 134.888L148.453 132.6ZM149.575 142.963L147.16 141.189L147.154 141.196L149.575 142.963ZM145.681 145.628L144.755 142.784C143.846 143.078 143.132 143.785 142.832 144.69C142.533 145.595 142.683 146.588 143.238 147.363L145.681 145.628ZM151.324 153.523V156.514C152.447 156.514 153.476 155.889 153.991 154.893C154.505 153.898 154.419 152.7 153.767 151.788L151.324 153.523ZM146.704 142.634L148.629 144.928L146.704 142.634ZM146.704 134.113L144.779 136.407C144.788 136.414 144.796 136.421 144.804 136.428L146.704 134.113ZM135.319 132.6V129.609C133.662 129.609 132.319 130.948 132.319 132.6H135.319ZM135.319 144.147H132.319C132.319 145.799 133.662 147.138 135.319 147.138V144.147ZM151.096 151.79L145.816 144.388L140.926 147.855L146.206 155.257L151.096 151.79ZM143.04 143.148C142.563 143.201 142.058 143.229 141.523 143.229V149.211C142.264 149.211 142.991 149.173 143.702 149.094L143.04 143.148ZM141.523 143.229H135.319V149.211H141.523V143.229ZM132.319 146.22V153.523H138.319V146.22H132.319ZM135.319 150.533H132.877V156.514H135.319V150.533ZM135.877 153.523V130.495H129.877V153.523H135.877ZM132.877 133.485H141.523V127.504H132.877V133.485ZM141.523 133.485C144.011 133.485 145.553 134.076 146.521 134.888L150.385 130.312C148.009 128.317 144.931 127.504 141.523 127.504V133.485ZM146.521 134.888C147.425 135.647 147.961 136.691 147.961 138.39H153.961C153.961 135.177 152.825 132.361 150.385 130.312L146.521 134.888ZM147.961 138.39C147.961 139.655 147.646 140.532 147.16 141.189L151.99 144.738C153.352 142.894 153.961 140.722 153.961 138.39H147.961ZM147.154 141.196C146.684 141.838 145.952 142.396 144.755 142.784L146.607 148.472C148.798 147.763 150.662 146.545 151.996 144.73L147.154 141.196ZM143.238 147.363L148.881 155.259L153.767 151.788L148.124 143.892L143.238 147.363ZM151.324 150.533H148.651V156.514H151.324V150.533ZM141.457 147.138C144.139 147.138 146.682 146.552 148.629 144.928L144.779 140.34C144.307 140.734 143.351 141.157 141.457 141.157V147.138ZM148.629 144.928C150.632 143.258 151.519 140.94 151.519 138.39H145.519C145.519 139.481 145.197 139.992 144.779 140.34L148.629 144.928ZM151.519 138.39C151.519 135.824 150.649 133.466 148.604 131.799L144.804 136.428C145.18 136.734 145.519 137.228 145.519 138.39H151.519ZM148.629 131.82C146.682 130.196 144.139 129.609 141.457 129.609V135.591C143.351 135.591 144.307 136.014 144.779 136.407L148.629 131.82ZM141.457 129.609H135.319V135.591H141.457V129.609ZM132.319 132.6V144.147H138.319V132.6H132.319ZM135.319 147.138H141.457V141.157H135.319V147.138ZM162.467 132.6V129.609C160.81 129.609 159.467 130.948 159.467 132.6H162.467ZM162.467 141.647H159.467C159.467 143.299 160.81 144.638 162.467 144.638V141.647ZM174.413 141.647H177.413C177.413 139.995 176.07 138.656 174.413 138.656V141.647ZM174.413 143.753V146.743C176.07 146.743 177.413 145.404 177.413 143.753H174.413ZM162.467 143.753V140.762C160.81 140.762 159.467 142.101 159.467 143.753H162.467ZM162.467 153.523V156.514C164.124 156.514 165.467 155.175 165.467 153.523H162.467ZM160.025 153.523H157.025C157.025 155.175 158.368 156.514 160.025 156.514V153.523ZM160.025 130.495V127.504C158.368 127.504 157.025 128.843 157.025 130.495H160.025ZM175.865 130.495H178.865C178.865 128.843 177.522 127.504 175.865 127.504V130.495ZM175.865 132.6V135.591C177.522 135.591 178.865 134.252 178.865 132.6H175.865ZM159.467 132.6V141.647H165.467V132.6H159.467ZM162.467 144.638H174.413V138.656H162.467V144.638ZM171.413 141.647V143.753H177.413V141.647H171.413ZM174.413 140.762H162.467V146.743H174.413V140.762ZM159.467 143.753V153.523H165.467V143.753H159.467ZM162.467 150.533H160.025V156.514H162.467V150.533ZM163.025 153.523V130.495H157.025V153.523H163.025ZM160.025 133.485H175.865V127.504H160.025V133.485ZM172.865 130.495V132.6H178.865V130.495H172.865ZM175.865 129.609H162.467V135.591H175.865V129.609ZM200.543 151.418H203.543C203.543 149.766 202.199 148.427 200.543 148.427V151.418ZM200.543 153.523V156.514C202.199 156.514 203.543 155.175 203.543 153.523H200.543ZM184.208 153.523H181.208C181.208 155.175 182.551 156.514 184.208 156.514V153.523ZM184.208 130.495V127.504C182.551 127.504 181.208 128.843 181.208 130.495H184.208ZM200.048 130.495H203.048C203.048 128.843 201.704 127.504 200.048 127.504V130.495ZM200.048 132.6V135.591C201.704 135.591 203.048 134.252 203.048 132.6H200.048ZM186.65 132.6V129.609C184.993 129.609 183.65 130.948 183.65 132.6H186.65ZM186.65 140.792H183.65C183.65 142.444 184.993 143.782 186.65 143.782V140.792ZM198.596 140.792H201.596C201.596 139.14 200.252 137.801 198.596 137.801V140.792ZM198.596 142.864V145.855C200.252 145.855 201.596 144.516 201.596 142.864H198.596ZM186.65 142.864V139.874C184.993 139.874 183.65 141.212 183.65 142.864H186.65ZM186.65 151.418H183.65C183.65 153.07 184.993 154.408 186.65 154.408V151.418ZM197.543 151.418V153.523H203.543V151.418H197.543ZM200.543 150.533H184.208V156.514H200.543V150.533ZM187.208 153.523V130.495H181.208V153.523H187.208ZM184.208 133.485H200.048V127.504H184.208V133.485ZM197.048 130.495V132.6H203.048V130.495H197.048ZM200.048 129.609H186.65V135.591H200.048V129.609ZM183.65 132.6V140.792H189.65V132.6H183.65ZM186.65 143.782H198.596V137.801H186.65V143.782ZM195.596 140.792V142.864H201.596V140.792H195.596ZM198.596 139.874H186.65V145.855H198.596V139.874ZM183.65 142.864V151.418H189.65V142.864H183.65ZM186.65 154.408H200.543V148.427H186.65V154.408ZM213.411 152.207L211.956 154.823C211.961 154.825 211.965 154.828 211.97 154.83L213.411 152.207ZM209.088 148.029L206.485 149.517C206.492 149.529 206.499 149.542 206.507 149.554L209.088 148.029ZM209.088 136.022L206.499 134.51L206.493 134.52L209.088 136.022ZM213.444 131.811L212.003 129.188L213.444 131.811ZM224.4 131.153L223.3 133.935L224.4 131.153ZM228.096 133.653L230.217 135.767C231.354 134.634 231.392 132.808 230.304 131.628L228.096 133.653ZM226.545 135.199L224.411 137.301C224.972 137.868 225.737 138.188 226.536 138.19C227.334 138.192 228.101 137.877 228.666 137.314L226.545 135.199ZM214.731 133.719L213.267 131.108L214.731 133.719ZM211.2 137.14L208.617 135.619C208.611 135.629 208.605 135.638 208.6 135.648L211.2 137.14ZM211.2 146.878L208.6 148.37C208.605 148.38 208.611 148.389 208.617 148.399L211.2 146.878ZM214.731 150.299L213.267 152.91L214.731 150.299ZM226.545 148.786L228.666 146.671C228.097 146.103 227.323 145.788 226.517 145.795C225.712 145.802 224.944 146.132 224.385 146.71L226.545 148.786ZM228.096 150.332L230.304 152.357C231.392 151.178 231.354 149.351 230.217 148.218L228.096 150.332ZM224.367 152.865L225.466 155.648C225.474 155.645 225.481 155.642 225.488 155.64L224.367 152.865ZM219.615 150.73C217.786 150.73 216.221 150.331 214.852 149.584L211.97 154.83C214.297 156.101 216.867 156.711 219.615 156.711V150.73ZM214.865 149.591C213.501 148.838 212.451 147.82 211.669 146.505L206.507 149.554C207.837 151.792 209.668 153.559 211.956 154.823L214.865 149.591ZM211.69 146.542C210.935 145.227 210.537 143.74 210.537 142.009H204.537C204.537 144.709 205.173 147.235 206.485 149.517L211.69 146.542ZM210.537 142.009C210.537 140.278 210.935 138.808 211.683 137.523L206.493 134.52C205.173 136.788 204.537 139.309 204.537 142.009H210.537ZM211.677 137.533C212.456 136.206 213.509 135.184 214.885 134.434L212.003 129.188C209.682 130.455 207.832 132.24 206.499 134.51L211.677 137.533ZM214.885 134.434C216.254 133.687 217.819 133.288 219.648 133.288V127.307C216.9 127.307 214.33 127.917 212.003 129.188L214.885 134.434ZM219.648 133.288C221.025 133.288 222.232 133.515 223.3 133.935L225.499 128.37C223.664 127.65 221.703 127.307 219.648 127.307V133.288ZM223.3 133.935C224.349 134.347 225.197 134.929 225.888 135.678L230.304 131.628C228.971 130.184 227.354 129.099 225.499 128.37L223.3 133.935ZM225.974 131.539L224.423 133.085L228.666 137.314L230.217 135.767L225.974 131.539ZM228.679 133.098C226.268 130.664 223.202 129.478 219.714 129.478V135.459C221.725 135.459 223.213 136.093 224.411 137.301L228.679 133.098ZM219.714 129.478C217.41 129.478 215.24 130.009 213.267 131.108L216.194 136.33C217.214 135.761 218.365 135.459 219.714 135.459V129.478ZM213.267 131.108C211.316 132.195 209.749 133.708 208.617 135.619L213.782 138.661C214.366 137.677 215.153 136.909 216.194 136.33L213.267 131.108ZM208.6 135.648C207.482 137.584 206.946 139.728 206.946 142.009H212.946C212.946 140.693 213.246 139.591 213.8 138.632L208.6 135.648ZM206.946 142.009C206.946 144.29 207.482 146.434 208.6 148.37L213.8 145.385C213.246 144.426 212.946 143.325 212.946 142.009H206.946ZM208.617 148.399C209.749 150.31 211.316 151.822 213.267 152.91L216.194 147.688C215.153 147.109 214.366 146.341 213.782 145.357L208.617 148.399ZM213.267 152.91C215.24 154.009 217.41 154.54 219.714 154.54V148.559C218.365 148.559 217.214 148.257 216.194 147.688L213.267 152.91ZM219.714 154.54C223.228 154.54 226.309 153.339 228.704 150.861L224.385 146.71C223.217 147.918 221.743 148.559 219.714 148.559V154.54ZM224.423 150.9L225.974 152.447L230.217 148.218L228.666 146.671L224.423 150.9ZM225.888 148.307C225.197 149.056 224.333 149.654 223.245 150.091L225.488 155.64C227.349 154.892 228.971 153.801 230.304 152.357L225.888 148.307ZM223.267 150.083C222.199 150.503 220.992 150.73 219.615 150.73V156.711C221.67 156.711 223.631 156.368 225.466 155.648L223.267 150.083ZM242.739 132.6H245.739C245.739 130.948 244.396 129.609 242.739 129.609V132.6ZM234.621 132.6H231.621C231.621 134.252 232.965 135.591 234.621 135.591V132.6ZM234.621 130.495V127.504C232.965 127.504 231.621 128.843 231.621 130.495H234.621ZM253.299 130.495H256.299C256.299 128.843 254.956 127.504 253.299 127.504V130.495ZM253.299 132.6V135.591C254.956 135.591 256.299 134.252 256.299 132.6H253.299ZM245.181 132.6V129.609C243.525 129.609 242.181 130.948 242.181 132.6H245.181ZM245.181 153.523V156.514C246.838 156.514 248.181 155.175 248.181 153.523H245.181ZM242.739 153.523H239.739C239.739 155.175 241.083 156.514 242.739 156.514V153.523ZM242.739 129.609H234.621V135.591H242.739V129.609ZM237.621 132.6V130.495H231.621V132.6H237.621ZM234.621 133.485H253.299V127.504H234.621V133.485ZM250.299 130.495V132.6H256.299V130.495H250.299ZM253.299 129.609H245.181V135.591H253.299V129.609ZM242.181 132.6V153.523H248.181V132.6H242.181ZM245.181 150.533H242.739V156.514H245.181V150.533ZM245.739 153.523V132.6H239.739V153.523H245.739Z" fill="white"/>
<path d="M109.28 165.865H104.08V165.486H114.88V165.865H109.68V179.443H109.28V165.865ZM128.937 179.064V179.443H119.617V165.486H128.637V165.865H120.017V172.165H127.737V172.544H120.017V179.064H128.937ZM145.976 165.486V179.443H145.636L135.376 166.224V179.443H134.976V165.486H135.316L145.576 178.705V165.486H145.976ZM156.725 179.503C155.711 179.503 154.758 179.323 153.865 178.964C152.971 178.592 152.285 178.114 151.805 177.529L152.085 177.269C152.538 177.801 153.185 178.246 154.025 178.605C154.865 178.951 155.758 179.124 156.705 179.124C158.158 179.124 159.251 178.838 159.985 178.266C160.731 177.681 161.105 176.931 161.105 176.013C161.105 175.296 160.911 174.724 160.525 174.299C160.138 173.873 159.658 173.554 159.085 173.342C158.525 173.129 157.765 172.91 156.805 172.684C155.778 172.432 154.965 172.192 154.365 171.966C153.765 171.727 153.251 171.368 152.825 170.889C152.411 170.398 152.205 169.746 152.205 168.935C152.205 168.297 152.371 167.712 152.705 167.181C153.038 166.649 153.558 166.224 154.265 165.905C154.971 165.586 155.845 165.426 156.885 165.426C157.631 165.426 158.365 165.546 159.085 165.785C159.805 166.011 160.425 166.317 160.945 166.702L160.725 167.021C160.178 166.623 159.565 166.323 158.885 166.124C158.218 165.912 157.558 165.805 156.905 165.805C155.505 165.805 154.438 166.104 153.705 166.702C152.971 167.287 152.605 168.038 152.605 168.955C152.605 169.673 152.798 170.251 153.185 170.69C153.571 171.116 154.051 171.435 154.625 171.647C155.198 171.859 155.971 172.086 156.945 172.325C157.958 172.577 158.765 172.823 159.365 173.063C159.965 173.289 160.471 173.641 160.885 174.119C161.298 174.585 161.505 175.216 161.505 176.013C161.505 176.651 161.331 177.237 160.985 177.768C160.638 178.299 160.105 178.725 159.385 179.044C158.678 179.35 157.791 179.503 156.725 179.503ZM176.636 179.064V179.443H167.316V165.486H176.336V165.865H167.716V172.165H175.436V172.544H167.716V179.064H176.636Z" fill="white"/>
<path d="M109.28 165.865H111.28C111.28 164.763 110.385 163.871 109.28 163.871V165.865ZM104.08 165.865H102.08C102.08 166.966 102.975 167.859 104.08 167.859V165.865ZM104.08 165.486V163.492C102.975 163.492 102.08 164.384 102.08 165.486H104.08ZM114.88 165.486H116.88C116.88 164.384 115.985 163.492 114.88 163.492V165.486ZM114.88 165.865V167.859C115.985 167.859 116.88 166.966 116.88 165.865H114.88ZM109.68 165.865V163.871C108.575 163.871 107.68 164.763 107.68 165.865H109.68ZM109.68 179.443V181.436C110.785 181.436 111.68 180.544 111.68 179.443H109.68ZM109.28 179.443H107.28C107.28 180.544 108.175 181.436 109.28 181.436V179.443ZM109.28 163.871H104.08V167.859H109.28V163.871ZM106.08 165.865V165.486H102.08V165.865H106.08ZM104.08 167.48H114.88V163.492H104.08V167.48ZM112.88 165.486V165.865H116.88V165.486H112.88ZM114.88 163.871H109.68V167.859H114.88V163.871ZM107.68 165.865V179.443H111.68V165.865H107.68ZM109.68 177.449H109.28V181.436H109.68V177.449ZM111.28 179.443V165.865H107.28V179.443H111.28ZM128.937 179.064H130.937C130.937 177.962 130.042 177.07 128.937 177.07V179.064ZM128.937 179.443V181.436C130.042 181.436 130.937 180.544 130.937 179.443H128.937ZM119.617 179.443H117.617C117.617 180.544 118.512 181.436 119.617 181.436V179.443ZM119.617 165.486V163.492C118.512 163.492 117.617 164.384 117.617 165.486H119.617ZM128.637 165.486H130.637C130.637 164.384 129.742 163.492 128.637 163.492V165.486ZM128.637 165.865V167.859C129.742 167.859 130.637 166.966 130.637 165.865H128.637ZM120.017 165.865V163.871C118.912 163.871 118.017 164.763 118.017 165.865H120.017ZM120.017 172.165H118.017C118.017 173.267 118.912 174.159 120.017 174.159V172.165ZM127.737 172.165H129.737C129.737 171.064 128.842 170.171 127.737 170.171V172.165ZM127.737 172.544V174.538C128.842 174.538 129.737 173.646 129.737 172.544H127.737ZM120.017 172.544V170.55C118.912 170.55 118.017 171.442 118.017 172.544H120.017ZM120.017 179.064H118.017C118.017 180.165 118.912 181.058 120.017 181.058V179.064ZM126.937 179.064V179.443H130.937V179.064H126.937ZM128.937 177.449H119.617V181.436H128.937V177.449ZM121.617 179.443V165.486H117.617V179.443H121.617ZM119.617 167.48H128.637V163.492H119.617V167.48ZM126.637 165.486V165.865H130.637V165.486H126.637ZM128.637 163.871H120.017V167.859H128.637V163.871ZM118.017 165.865V172.165H122.017V165.865H118.017ZM120.017 174.159H127.737V170.171H120.017V174.159ZM125.737 172.165V172.544H129.737V172.165H125.737ZM127.737 170.55H120.017V174.538H127.737V170.55ZM118.017 172.544V179.064H122.017V172.544H118.017ZM120.017 181.058H128.937V177.07H120.017V181.058ZM145.976 165.486H147.976C147.976 164.384 147.081 163.492 145.976 163.492V165.486ZM145.976 179.443V181.436C147.081 181.436 147.976 180.544 147.976 179.443H145.976ZM145.636 179.443L144.055 180.663C144.433 181.15 145.017 181.436 145.636 181.436V179.443ZM135.376 166.224L136.958 165.003C136.435 164.33 135.539 164.061 134.73 164.337C133.92 164.613 133.376 165.371 133.376 166.224H135.376ZM135.376 179.443V181.436C136.481 181.436 137.376 180.544 137.376 179.443H135.376ZM134.976 179.443H132.976C132.976 180.544 133.872 181.436 134.976 181.436V179.443ZM134.976 165.486V163.492C133.872 163.492 132.976 164.384 132.976 165.486H134.976ZM135.316 165.486L136.898 164.266C136.519 163.778 135.935 163.492 135.316 163.492V165.486ZM145.576 178.705L143.995 179.925C144.518 180.599 145.414 180.867 146.223 180.592C147.032 180.316 147.576 179.557 147.576 178.705H145.576ZM145.576 165.486V163.492C144.472 163.492 143.576 164.384 143.576 165.486H145.576ZM143.976 165.486V179.443H147.976V165.486H143.976ZM145.976 177.449H145.636V181.436H145.976V177.449ZM147.218 178.222L136.958 165.003L133.795 167.444L144.055 180.663L147.218 178.222ZM133.376 166.224V179.443H137.376V166.224H133.376ZM135.376 177.449H134.976V181.436H135.376V177.449ZM136.976 179.443V165.486H132.976V179.443H136.976ZM134.976 167.48H135.316V163.492H134.976V167.48ZM133.735 166.706L143.995 179.925L147.158 177.485L136.898 164.266L133.735 166.706ZM147.576 178.705V165.486H143.576V178.705H147.576ZM145.576 167.48H145.976V163.492H145.576V167.48ZM153.865 178.964L153.093 180.803C153.101 180.807 153.109 180.81 153.117 180.813L153.865 178.964ZM151.805 177.529L150.444 176.067C149.67 176.784 149.588 177.976 150.257 178.791L151.805 177.529ZM152.085 177.269L153.608 175.978C153.255 175.564 152.747 175.311 152.202 175.279C151.658 175.247 151.123 175.438 150.724 175.808L152.085 177.269ZM154.025 178.605L153.237 180.438C153.245 180.442 153.253 180.445 153.262 180.449L154.025 178.605ZM159.985 178.266L161.216 179.837L161.22 179.834L159.985 178.266ZM160.525 174.299L159.043 175.637L160.525 174.299ZM159.085 173.342L158.373 175.205C158.377 175.207 158.382 175.209 158.387 175.21L159.085 173.342ZM156.805 172.684L156.325 174.62C156.332 174.621 156.338 174.623 156.345 174.624L156.805 172.684ZM154.365 171.966L153.622 173.817C153.634 173.822 153.646 173.826 153.658 173.831L154.365 171.966ZM152.825 170.889L151.291 172.169C151.304 172.184 151.317 172.199 151.33 172.214L152.825 170.889ZM152.705 167.181L154.401 168.237L152.705 167.181ZM159.085 165.785L158.452 167.676C158.463 167.68 158.473 167.683 158.484 167.687L159.085 165.785ZM160.945 166.702L162.593 167.832C163.202 166.948 163.001 165.742 162.138 165.102L160.945 166.702ZM160.725 167.021L159.544 168.63C159.98 168.948 160.527 169.077 161.06 168.987C161.593 168.896 162.066 168.595 162.373 168.151L160.725 167.021ZM158.885 166.124L158.275 168.023C158.29 168.028 158.305 168.032 158.32 168.037L158.885 166.124ZM153.705 166.702L154.954 168.259C154.96 168.254 154.965 168.25 154.971 168.245L153.705 166.702ZM153.185 170.69L151.682 172.006C151.689 172.014 151.696 172.021 151.703 172.029L153.185 170.69ZM154.625 171.647L155.322 169.779L154.625 171.647ZM156.945 172.325L157.43 170.391L157.423 170.389L156.945 172.325ZM159.365 173.062L158.622 174.914C158.634 174.919 158.646 174.923 158.658 174.928L159.365 173.062ZM160.885 174.119L159.369 175.42C159.375 175.427 159.381 175.434 159.387 175.441L160.885 174.119ZM160.985 177.768L159.308 176.681L160.985 177.768ZM159.385 179.044L160.181 180.873C160.186 180.87 160.191 180.868 160.197 180.866L159.385 179.044ZM156.725 177.509C155.954 177.509 155.256 177.373 154.612 177.115L153.117 180.813C154.26 181.273 155.469 181.496 156.725 181.496V177.509ZM154.636 177.125C153.963 176.845 153.575 176.538 153.352 176.267L150.257 178.791C150.994 179.69 151.979 180.34 153.093 180.803L154.636 177.125ZM153.165 178.99L153.445 178.731L150.724 175.808L150.444 176.067L153.165 178.99ZM150.561 178.56C151.266 179.388 152.196 179.993 153.237 180.438L154.812 176.773C154.173 176.5 153.81 176.215 153.608 175.978L150.561 178.56ZM153.262 180.449C154.354 180.897 155.507 181.117 156.705 181.117V177.13C156.009 177.13 155.375 177.004 154.788 176.762L153.262 180.449ZM156.705 181.117C158.369 181.117 159.982 180.798 161.216 179.837L158.753 176.695C158.52 176.877 157.947 177.13 156.705 177.13V181.117ZM161.22 179.834C162.431 178.885 163.105 177.564 163.105 176.013H159.105C159.105 176.296 159.031 176.478 158.749 176.698L161.22 179.834ZM163.105 176.013C163.105 174.93 162.804 173.837 162.007 172.96L159.043 175.637C159.044 175.639 159.046 175.641 159.048 175.645C159.051 175.649 159.057 175.66 159.064 175.683C159.08 175.729 159.105 175.831 159.105 176.013H163.105ZM162.007 172.96C161.391 172.283 160.636 171.789 159.782 171.473L158.387 175.21C158.679 175.318 158.884 175.464 159.043 175.637L162.007 172.96ZM159.797 171.478C159.119 171.221 158.263 170.978 157.264 170.744L156.345 174.624C157.266 174.841 157.93 175.036 158.373 175.205L159.797 171.478ZM157.284 170.748C156.292 170.503 155.565 170.286 155.071 170.101L153.658 173.831C154.364 174.097 155.264 174.358 156.325 174.62L157.284 170.748ZM155.107 170.115C154.794 169.99 154.538 169.811 154.319 169.564L151.33 172.214C151.964 172.925 152.735 173.463 153.622 173.817L155.107 170.115ZM154.358 169.609C154.319 169.562 154.205 169.405 154.205 168.935H150.205C150.205 170.088 150.504 171.232 151.291 172.169L154.358 169.609ZM154.205 168.935C154.205 168.664 154.27 168.447 154.401 168.237L151.009 166.124C150.473 166.978 150.205 167.93 150.205 168.935H154.205ZM154.401 168.237C154.481 168.11 154.658 167.915 155.09 167.721L153.44 164.088C152.458 164.532 151.595 165.189 151.009 166.124L154.401 168.237ZM155.09 167.721C155.465 167.552 156.037 167.42 156.885 167.42V163.432C155.652 163.432 154.478 163.62 153.44 164.088L155.09 167.721ZM156.885 167.42C157.413 167.42 157.933 167.504 158.452 167.676L159.717 163.894C158.796 163.588 157.85 163.432 156.885 163.432V167.42ZM158.484 167.687C159.025 167.857 159.437 168.07 159.751 168.302L162.138 165.102C161.412 164.564 160.584 164.165 159.685 163.883L158.484 167.687ZM159.296 165.573L159.076 165.892L162.373 168.151L162.593 167.832L159.296 165.573ZM161.906 165.412C161.164 164.871 160.34 164.472 159.449 164.211L158.32 168.037C158.789 168.175 159.192 168.374 159.544 168.63L161.906 165.412ZM159.494 164.225C158.644 163.954 157.779 163.811 156.905 163.811V167.799C157.337 167.799 157.791 167.869 158.275 168.023L159.494 164.225ZM156.905 163.811C155.256 163.811 153.665 164.158 152.438 165.159L154.971 168.245C155.211 168.049 155.753 167.799 156.905 167.799V163.811ZM152.455 165.145C151.259 166.099 150.605 167.418 150.605 168.955H154.605C154.605 168.658 154.684 168.475 154.954 168.259L152.455 165.145ZM150.605 168.955C150.605 170.042 150.906 171.125 151.682 172.006L154.687 169.374C154.677 169.363 154.663 169.345 154.647 169.297C154.629 169.243 154.605 169.137 154.605 168.955H150.605ZM151.703 172.029C152.318 172.706 153.073 173.199 153.927 173.515L155.322 169.779C155.03 169.67 154.825 169.524 154.667 169.351L151.703 172.029ZM153.927 173.515C154.602 173.766 155.459 174.014 156.466 174.261L157.423 170.389C156.484 170.157 155.793 169.953 155.322 169.779L153.927 173.515ZM156.459 174.259C157.431 174.501 158.141 174.722 158.622 174.914L160.107 171.211C159.388 170.924 158.484 170.653 157.43 170.391L156.459 174.259ZM158.658 174.928C158.949 175.037 159.177 175.198 159.369 175.42L162.4 172.818C161.766 172.083 160.98 171.539 160.071 171.197L158.658 174.928ZM159.387 175.441C159.393 175.448 159.505 175.561 159.505 176.013H163.505C163.505 174.871 163.202 173.72 162.382 172.797L159.387 175.441ZM159.505 176.013C159.505 176.269 159.442 176.475 159.308 176.681L162.661 178.854C163.22 177.997 163.505 177.034 163.505 176.013H159.505ZM159.308 176.681C159.217 176.82 159.023 177.022 158.572 177.222L160.197 180.866C161.186 180.428 162.059 179.779 162.661 178.854L159.308 176.681ZM158.588 177.215C158.21 177.379 157.616 177.509 156.725 177.509V181.496C157.967 181.496 159.146 181.321 160.181 180.873L158.588 177.215ZM176.636 179.064H178.636C178.636 177.962 177.741 177.07 176.636 177.07V179.064ZM176.636 179.443V181.436C177.741 181.436 178.636 180.544 178.636 179.443H176.636ZM167.316 179.443H165.316C165.316 180.544 166.212 181.436 167.316 181.436V179.443ZM167.316 165.486V163.492C166.212 163.492 165.316 164.384 165.316 165.486H167.316ZM176.336 165.486H178.336C178.336 164.384 177.441 163.492 176.336 163.492V165.486ZM176.336 165.865V167.859C177.441 167.859 178.336 166.966 178.336 165.865H176.336ZM167.716 165.865V163.871C166.612 163.871 165.716 164.763 165.716 165.865H167.716ZM167.716 172.165H165.716C165.716 173.267 166.612 174.159 167.716 174.159V172.165ZM175.436 172.165H177.436C177.436 171.064 176.541 170.171 175.436 170.171V172.165ZM175.436 172.544V174.538C176.541 174.538 177.436 173.646 177.436 172.544H175.436ZM167.716 172.544V170.55C166.612 170.55 165.716 171.442 165.716 172.544H167.716ZM167.716 179.064H165.716C165.716 180.165 166.612 181.058 167.716 181.058V179.064ZM174.636 179.064V179.443H178.636V179.064H174.636ZM176.636 177.449H167.316V181.436H176.636V177.449ZM169.316 179.443V165.486H165.316V179.443H169.316ZM167.316 167.48H176.336V163.492H167.316V167.48ZM174.336 165.486V165.865H178.336V165.486H174.336ZM176.336 163.871H167.716V167.859H176.336V163.871ZM165.716 165.865V172.165H169.716V165.865H165.716ZM167.716 174.159H175.436V170.171H167.716V174.159ZM173.436 172.165V172.544H177.436V172.165H173.436ZM175.436 170.55H167.716V174.538H175.436V170.55ZM165.716 172.544V179.064H169.716V172.544H165.716ZM167.716 181.058H176.636V177.07H167.716V181.058Z" fill="white"/>
</mask>
<g mask="url(#mask0_150_1234)">
<path d="M0 136.175C9.46667 139.421 32.0667 144.839 51 145.766C69.9333 146.729 84.5 143.089 124.5 141.593C164.5 140.098 174 145.766 217.5 145.766C261 145.766 284 130.879 284 130.879V321.644H274.533C265.067 321.644 246.133 321.644 227.2 321.644C208.267 321.644 189.333 321.644 170.4 321.644C151.467 321.644 132.533 321.644 113.6 321.644C94.6667 321.644 75.7333 321.644 56.8 321.644C37.8667 321.644 18.9333 321.644 9.46667 321.644H0V136.175Z" fill="white"/>
</g>
</g>
<defs>
<clipPath id="clip0_150_1234">
<rect width="284" height="322" fill="white"/>
</clipPath>
</defs>
</svg>
