<svg width="284" height="322" viewBox="0 0 284 322" fill="none" xmlns="http://www.w3.org/2000/svg">
<g clip-path="url(#clip0_44_671)">
<path d="M284 0H0V321.003H284V0Z" fill="#001220"/>
<path d="M23.104 129.398H25.768V154.52H23.104V129.398ZM63.7393 129.398V154.52H61.1833V134.423L51.2833 151.326H50.0233L40.1233 134.53V154.52H37.5673V129.398H39.7633L50.7073 148.024L61.5433 129.398H63.7393ZM84.9821 129.398C88.1981 129.398 90.7181 130.164 92.5421 131.695C94.3661 133.226 95.2781 135.332 95.2781 138.011C95.2781 140.691 94.3661 142.797 92.5421 144.328C90.7181 145.835 88.1981 146.589 84.9821 146.589H78.2141V154.52H75.5501V129.398H84.9821ZM84.9101 144.256C87.4061 144.256 89.3141 143.718 90.6341 142.641C91.9541 141.54 92.6141 139.997 92.6141 138.011C92.6141 135.978 91.9541 134.423 90.6341 133.346C89.3141 132.245 87.4061 131.695 84.9101 131.695H78.2141V144.256H84.9101ZM122.458 152.223V154.52H104.638V129.398H121.918V131.695H107.302V140.631H120.334V142.892H107.302V152.223H122.458ZM149.528 154.52L143.768 146.445C143.12 146.517 142.448 146.553 141.752 146.553H134.984V154.52H132.32V129.398H141.752C144.968 129.398 147.488 130.164 149.312 131.695C151.136 133.226 152.048 135.332 152.048 138.011C152.048 139.973 151.544 141.636 150.536 143C149.552 144.34 148.136 145.309 146.288 145.907L152.444 154.52H149.528ZM141.68 144.292C144.176 144.292 146.084 143.742 147.404 142.641C148.724 141.54 149.384 139.997 149.384 138.011C149.384 135.978 148.724 134.423 147.404 133.346C146.084 132.245 144.176 131.695 141.68 131.695H134.984V144.292H141.68ZM164.6 131.695V141.564H177.632V143.861H164.6V154.52H161.936V129.398H179.216V131.695H164.6ZM206.137 152.223V154.52H188.317V129.398H205.597V131.695H190.981V140.631H204.013V142.892H190.981V152.223H206.137ZM226.943 154.735C224.447 154.735 222.191 154.185 220.175 153.085C218.183 151.984 216.611 150.465 215.459 148.527C214.331 146.565 213.767 144.376 213.767 141.959C213.767 139.543 214.331 137.365 215.459 135.427C216.611 133.466 218.195 131.934 220.211 130.834C222.227 129.733 224.483 129.183 226.979 129.183C228.851 129.183 230.579 129.494 232.163 130.116C233.747 130.738 235.091 131.647 236.195 132.843L234.503 134.53C232.535 132.544 230.051 131.551 227.051 131.551C225.059 131.551 223.247 132.006 221.615 132.915C219.983 133.824 218.699 135.069 217.763 136.648C216.851 138.227 216.395 139.997 216.395 141.959C216.395 143.921 216.851 145.692 217.763 147.271C218.699 148.85 219.983 150.094 221.615 151.003C223.247 151.912 225.059 152.367 227.051 152.367C230.075 152.367 232.559 151.362 234.503 149.352L236.195 151.039C235.091 152.235 233.735 153.156 232.127 153.802C230.543 154.424 228.815 154.735 226.943 154.735ZM252.17 131.695H243.314V129.398H263.69V131.695H254.834V154.52H252.17V131.695Z" fill="#FACB66"/>
<path d="M23.104 129.398V126.407C21.4471 126.407 20.104 127.746 20.104 129.398H23.104ZM25.768 129.398H28.768C28.768 127.746 27.4249 126.407 25.768 126.407V129.398ZM25.768 154.52V157.511C27.4249 157.511 28.768 156.172 28.768 154.52H25.768ZM23.104 154.52H20.104C20.104 156.172 21.4471 157.511 23.104 157.511V154.52ZM23.104 132.389H25.768V126.407H23.104V132.389ZM22.768 129.398V154.52H28.768V129.398H22.768ZM25.768 151.529H23.104V157.511H25.768V151.529ZM26.104 154.52V129.398H20.104V154.52H26.104ZM63.7393 129.398H66.7393C66.7393 127.746 65.3961 126.407 63.7393 126.407V129.398ZM63.7393 154.52V157.511C65.3961 157.511 66.7393 156.172 66.7393 154.52H63.7393ZM61.1833 154.52H58.1833C58.1833 156.172 59.5264 157.511 61.1833 157.511V154.52ZM61.1833 134.423H64.1833C64.1833 133.072 63.2749 131.888 61.9668 131.536C60.6587 131.183 59.2758 131.748 58.5925 132.914L61.1833 134.423ZM51.2833 151.326V154.317C52.3499 154.317 53.3362 153.753 53.874 152.834L51.2833 151.326ZM50.0233 151.326L47.4368 152.841C47.9756 153.756 48.9597 154.317 50.0233 154.317V151.326ZM40.1233 134.53L42.7098 133.015C42.0241 131.852 40.6418 131.29 39.3357 131.644C38.0297 131.999 37.1233 133.18 37.1233 134.53H40.1233ZM40.1233 154.52V157.511C41.7801 157.511 43.1233 156.172 43.1233 154.52H40.1233ZM37.5673 154.52H34.5673C34.5673 156.172 35.9104 157.511 37.5673 157.511V154.52ZM37.5673 129.398V126.407C35.9104 126.407 34.5673 127.746 34.5673 129.398H37.5673ZM39.7633 129.398L42.3519 127.887C41.8136 126.971 40.8284 126.407 39.7633 126.407V129.398ZM50.7073 148.024L48.1187 149.536C48.6581 150.454 49.6464 151.017 50.7138 151.015C51.7811 151.013 52.7669 150.445 53.3024 149.525L50.7073 148.024ZM61.5433 129.398V126.407C60.4736 126.407 59.4848 126.976 58.9481 127.898L61.5433 129.398ZM60.7393 129.398V154.52H66.7393V129.398H60.7393ZM63.7393 151.529H61.1833V157.511H63.7393V151.529ZM64.1833 154.52V134.423H58.1833V154.52H64.1833ZM58.5925 132.914L48.6925 149.818L53.874 152.834L63.774 135.931L58.5925 132.914ZM51.2833 148.335H50.0233V154.317H51.2833V148.335ZM52.6098 149.811L42.7098 133.015L37.5368 136.046L47.4368 152.841L52.6098 149.811ZM37.1233 134.53V154.52H43.1233V134.53H37.1233ZM40.1233 151.529H37.5673V157.511H40.1233V151.529ZM40.5673 154.52V129.398H34.5673V154.52H40.5673ZM37.5673 132.389H39.7633V126.407H37.5673V132.389ZM37.1747 130.909L48.1187 149.536L53.2959 146.513L42.3519 127.887L37.1747 130.909ZM53.3024 149.525L64.1384 130.898L58.9481 127.898L48.1121 146.524L53.3024 149.525ZM61.5433 132.389H63.7393V126.407H61.5433V132.389ZM92.5421 131.695L90.6097 133.983L92.5421 131.695ZM92.5421 144.328L94.4567 146.631C94.4626 146.626 94.4686 146.621 94.4745 146.616L92.5421 144.328ZM78.2141 146.589V143.598C76.5572 143.598 75.2141 144.937 75.2141 146.589H78.2141ZM78.2141 154.52V157.511C79.8709 157.511 81.2141 156.172 81.2141 154.52H78.2141ZM75.5501 154.52H72.5501C72.5501 156.172 73.8932 157.511 75.5501 157.511V154.52ZM75.5501 129.398V126.407C73.8932 126.407 72.5501 127.746 72.5501 129.398H75.5501ZM90.6341 142.641L92.5338 144.956C92.5422 144.949 92.5505 144.942 92.5588 144.935L90.6341 142.641ZM90.6341 133.346L88.7094 135.64C88.7177 135.647 88.726 135.654 88.7344 135.661L90.6341 133.346ZM78.2141 131.695V128.704C76.5572 128.704 75.2141 130.043 75.2141 131.695H78.2141ZM78.2141 144.256H75.2141C75.2141 145.908 76.5572 147.247 78.2141 147.247V144.256ZM84.9821 132.389C87.7384 132.389 89.4897 133.043 90.6097 133.983L94.4745 129.407C91.9465 127.285 88.6578 126.407 84.9821 126.407V132.389ZM90.6097 133.983C91.6657 134.869 92.2781 136.088 92.2781 138.011H98.2781C98.2781 134.575 97.0665 131.583 94.4745 129.407L90.6097 133.983ZM92.2781 138.011C92.2781 139.934 91.6657 141.154 90.6097 142.04L94.4745 146.616C97.0665 144.439 98.2781 141.448 98.2781 138.011H92.2781ZM90.6275 142.025C89.5069 142.951 87.7487 143.598 84.9821 143.598V149.579C88.6475 149.579 91.9293 148.719 94.4567 146.631L90.6275 142.025ZM84.9821 143.598H78.2141V149.579H84.9821V143.598ZM75.2141 146.589V154.52H81.2141V146.589H75.2141ZM78.2141 151.529H75.5501V157.511H78.2141V151.529ZM78.5501 154.52V129.398H72.5501V154.52H78.5501ZM75.5501 132.389H84.9821V126.407H75.5501V132.389ZM84.9101 147.247C87.7873 147.247 90.4783 146.633 92.5338 144.956L88.7344 140.326C88.1499 140.803 87.0249 141.265 84.9101 141.265V147.247ZM92.5588 144.935C94.6716 143.173 95.6141 140.727 95.6141 138.011H89.6141C89.6141 139.268 89.2366 139.908 88.7094 140.347L92.5588 144.935ZM95.6141 138.011C95.6141 135.276 94.6886 132.789 92.5338 131.031L88.7344 135.661C89.2196 136.056 89.6141 136.68 89.6141 138.011H95.6141ZM92.5588 131.052C90.5016 129.336 87.8003 128.704 84.9101 128.704V134.686C87.0118 134.686 88.1266 135.154 88.7094 135.64L92.5588 131.052ZM84.9101 128.704H78.2141V134.686H84.9101V128.704ZM75.2141 131.695V144.256H81.2141V131.695H75.2141ZM78.2141 147.247H84.9101V141.265H78.2141V147.247ZM122.458 152.223H125.458C125.458 150.571 124.115 149.233 122.458 149.233V152.223ZM122.458 154.52V157.511C124.115 157.511 125.458 156.172 125.458 154.52H122.458ZM104.638 154.52H101.638C101.638 156.172 102.982 157.511 104.638 157.511V154.52ZM104.638 129.398V126.407C102.982 126.407 101.638 127.746 101.638 129.398H104.638ZM121.918 129.398H124.918C124.918 127.746 123.575 126.407 121.918 126.407V129.398ZM121.918 131.695V134.686C123.575 134.686 124.918 133.347 124.918 131.695H121.918ZM107.302 131.695V128.704C105.646 128.704 104.302 130.043 104.302 131.695H107.302ZM107.302 140.631H104.302C104.302 142.283 105.646 143.622 107.302 143.622V140.631ZM120.334 140.631H123.334C123.334 138.979 121.991 137.641 120.334 137.641V140.631ZM120.334 142.892V145.883C121.991 145.883 123.334 144.544 123.334 142.892H120.334ZM107.302 142.892V139.902C105.646 139.902 104.302 141.24 104.302 142.892H107.302ZM107.302 152.223H104.302C104.302 153.875 105.646 155.214 107.302 155.214V152.223ZM119.458 152.223V154.52H125.458V152.223H119.458ZM122.458 151.529H104.638V157.511H122.458V151.529ZM107.638 154.52V129.398H101.638V154.52H107.638ZM104.638 132.389H121.918V126.407H104.638V132.389ZM118.918 129.398V131.695H124.918V129.398H118.918ZM121.918 128.704H107.302V134.686H121.918V128.704ZM104.302 131.695V140.631H110.302V131.695H104.302ZM107.302 143.622H120.334V137.641H107.302V143.622ZM117.334 140.631V142.892H123.334V140.631H117.334ZM120.334 139.902H107.302V145.883H120.334V139.902ZM104.302 142.892V152.223H110.302V142.892H104.302ZM107.302 155.214H122.458V149.233H107.302V155.214ZM149.528 154.52L147.084 156.254C147.646 157.042 148.557 157.511 149.528 157.511V154.52ZM143.768 146.445L146.213 144.712C145.582 143.827 144.52 143.353 143.437 143.472L143.768 146.445ZM134.984 146.553V143.562C133.328 143.562 131.984 144.901 131.984 146.553H134.984ZM134.984 154.52V157.511C136.641 157.511 137.984 156.172 137.984 154.52H134.984ZM132.32 154.52H129.32C129.32 156.172 130.664 157.511 132.32 157.511V154.52ZM132.32 129.398V126.407C130.664 126.407 129.32 127.746 129.32 129.398H132.32ZM149.312 131.695L147.38 133.983L149.312 131.695ZM150.536 143L148.121 141.225L148.116 141.233L150.536 143ZM146.288 145.907L145.362 143.063C144.453 143.357 143.739 144.065 143.44 144.969C143.14 145.874 143.291 146.867 143.845 147.642L146.288 145.907ZM152.444 154.52V157.511C153.568 157.511 154.597 156.886 155.111 155.89C155.626 154.895 155.539 153.697 154.888 152.785L152.444 154.52ZM147.404 142.641L149.329 144.935L147.404 142.641ZM147.404 133.346L145.48 135.64C145.488 135.647 145.496 135.654 145.505 135.661L147.404 133.346ZM134.984 131.695V128.704C133.328 128.704 131.984 130.043 131.984 131.695H134.984ZM134.984 144.292H131.984C131.984 145.944 133.328 147.283 134.984 147.283V144.292ZM151.973 152.787L146.213 144.712L141.324 148.179L147.084 156.254L151.973 152.787ZM143.437 143.472C142.906 143.531 142.345 143.562 141.752 143.562V149.544C142.552 149.544 143.335 149.503 144.1 149.418L143.437 143.472ZM141.752 143.562H134.984V149.544H141.752V143.562ZM131.984 146.553V154.52H137.984V146.553H131.984ZM134.984 151.529H132.32V157.511H134.984V151.529ZM135.32 154.52V129.398H129.32V154.52H135.32ZM132.32 132.389H141.752V126.407H132.32V132.389ZM141.752 132.389C144.509 132.389 146.26 133.043 147.38 133.983L151.245 129.407C148.717 127.285 145.428 126.407 141.752 126.407V132.389ZM147.38 133.983C148.436 134.869 149.048 136.088 149.048 138.011H155.048C155.048 134.575 153.837 131.583 151.245 129.407L147.38 133.983ZM149.048 138.011C149.048 139.44 148.691 140.455 148.121 141.225L152.952 144.774C154.397 142.817 155.048 140.507 155.048 138.011H149.048ZM148.116 141.233C147.563 141.986 146.714 142.625 145.362 143.063L147.215 148.751C149.559 147.992 151.542 146.693 152.957 144.766L148.116 141.233ZM143.845 147.642L150.001 156.256L154.888 152.785L148.732 144.171L143.845 147.642ZM152.444 151.529H149.528V157.511H152.444V151.529ZM141.68 147.283C144.571 147.283 147.272 146.651 149.329 144.935L145.48 140.347C144.897 140.833 143.782 141.301 141.68 141.301V147.283ZM149.329 144.935C151.442 143.173 152.384 140.727 152.384 138.011H146.384C146.384 139.268 146.007 139.908 145.48 140.347L149.329 144.935ZM152.384 138.011C152.384 135.276 151.459 132.789 149.304 131.031L145.505 135.661C145.99 136.056 146.384 136.68 146.384 138.011H152.384ZM149.329 131.052C147.272 129.336 144.571 128.704 141.68 128.704V134.686C143.782 134.686 144.897 135.154 145.48 135.64L149.329 131.052ZM141.68 128.704H134.984V134.686H141.68V128.704ZM131.984 131.695V144.292H137.984V131.695H131.984ZM134.984 147.283H141.68V141.301H134.984V147.283ZM164.6 131.695V128.704C162.943 128.704 161.6 130.043 161.6 131.695H164.6ZM164.6 141.564H161.6C161.6 143.216 162.943 144.555 164.6 144.555V141.564ZM177.632 141.564H180.632C180.632 139.912 179.289 138.574 177.632 138.574V141.564ZM177.632 143.861V146.852C179.289 146.852 180.632 145.513 180.632 143.861H177.632ZM164.6 143.861V140.871C162.943 140.871 161.6 142.209 161.6 143.861H164.6ZM164.6 154.52V157.511C166.257 157.511 167.6 156.172 167.6 154.52H164.6ZM161.936 154.52H158.936C158.936 156.172 160.279 157.511 161.936 157.511V154.52ZM161.936 129.398V126.407C160.279 126.407 158.936 127.746 158.936 129.398H161.936ZM179.216 129.398H182.216C182.216 127.746 180.873 126.407 179.216 126.407V129.398ZM179.216 131.695V134.686C180.873 134.686 182.216 133.347 182.216 131.695H179.216ZM161.6 131.695V141.564H167.6V131.695H161.6ZM164.6 144.555H177.632V138.574H164.6V144.555ZM174.632 141.564V143.861H180.632V141.564H174.632ZM177.632 140.871H164.6V146.852H177.632V140.871ZM161.6 143.861V154.52H167.6V143.861H161.6ZM164.6 151.529H161.936V157.511H164.6V151.529ZM164.936 154.52V129.398H158.936V154.52H164.936ZM161.936 132.389H179.216V126.407H161.936V132.389ZM176.216 129.398V131.695H182.216V129.398H176.216ZM179.216 128.704H164.6V134.686H179.216V128.704ZM206.137 152.223H209.137C209.137 150.571 207.794 149.233 206.137 149.233V152.223ZM206.137 154.52V157.511C207.794 157.511 209.137 156.172 209.137 154.52H206.137ZM188.317 154.52H185.317C185.317 156.172 186.66 157.511 188.317 157.511V154.52ZM188.317 129.398V126.407C186.66 126.407 185.317 127.746 185.317 129.398H188.317ZM205.597 129.398H208.597C208.597 127.746 207.254 126.407 205.597 126.407V129.398ZM205.597 131.695V134.686C207.254 134.686 208.597 133.347 208.597 131.695H205.597ZM190.981 131.695V128.704C189.324 128.704 187.981 130.043 187.981 131.695H190.981ZM190.981 140.631H187.981C187.981 142.283 189.324 143.622 190.981 143.622V140.631ZM204.013 140.631H207.013C207.013 138.979 205.67 137.641 204.013 137.641V140.631ZM204.013 142.892V145.883C205.67 145.883 207.013 144.544 207.013 142.892H204.013ZM190.981 142.892V139.902C189.324 139.902 187.981 141.24 187.981 142.892H190.981ZM190.981 152.223H187.981C187.981 153.875 189.324 155.214 190.981 155.214V152.223ZM203.137 152.223V154.52H209.137V152.223H203.137ZM206.137 151.529H188.317V157.511H206.137V151.529ZM191.317 154.52V129.398H185.317V154.52H191.317ZM188.317 132.389H205.597V126.407H188.317V132.389ZM202.597 129.398V131.695H208.597V129.398H202.597ZM205.597 128.704H190.981V134.686H205.597V128.704ZM187.981 131.695V140.631H193.981V131.695H187.981ZM190.981 143.622H204.013V137.641H190.981V143.622ZM201.013 140.631V142.892H207.013V140.631H201.013ZM204.013 139.902H190.981V145.883H204.013V139.902ZM187.981 142.892V152.223H193.981V142.892H187.981ZM190.981 155.214H206.137V149.233H190.981V155.214ZM220.175 153.085L218.721 155.7C218.725 155.702 218.73 155.705 218.734 155.707L220.175 153.085ZM215.459 148.527L212.857 150.014C212.864 150.026 212.871 150.039 212.878 150.051L215.459 148.527ZM215.459 135.427L212.87 133.916L212.864 133.926L215.459 135.427ZM220.211 130.834L218.77 128.211L220.211 130.834ZM232.163 130.116L231.064 132.898L232.163 130.116ZM236.195 132.843L238.317 134.958C239.454 133.824 239.492 131.998 238.403 130.819L236.195 132.843ZM234.503 134.53L232.369 136.632C232.931 137.199 233.695 137.519 234.494 137.521C235.293 137.523 236.06 137.208 236.625 136.645L234.503 134.53ZM221.615 132.915L220.152 130.304L221.615 132.915ZM217.763 136.648L215.181 135.126C215.175 135.136 215.169 135.145 215.163 135.155L217.763 136.648ZM217.763 147.271L215.163 148.763C215.169 148.773 215.175 148.782 215.181 148.792L217.763 147.271ZM221.615 151.003L220.152 153.614L221.615 151.003ZM234.503 149.352L236.625 147.238C236.055 146.67 235.281 146.354 234.476 146.361C233.671 146.368 232.903 146.698 232.344 147.277L234.503 149.352ZM236.195 151.039L238.403 153.064C239.492 151.884 239.454 150.058 238.317 148.925L236.195 151.039ZM232.127 153.802L233.227 156.585C233.234 156.582 233.241 156.579 233.249 156.577L232.127 153.802ZM226.943 151.745C224.907 151.745 223.153 151.3 221.616 150.462L218.734 155.707C221.23 157.07 223.988 157.726 226.943 157.726V151.745ZM221.63 150.469C220.1 149.623 218.918 148.479 218.04 147.002L212.878 150.051C214.304 152.451 216.267 154.345 218.721 155.7L221.63 150.469ZM218.062 147.039C217.212 145.561 216.767 143.891 216.767 141.959H210.767C210.767 144.86 211.45 147.569 212.857 150.014L218.062 147.039ZM216.767 141.959C216.767 140.027 217.212 138.375 218.054 136.929L212.864 133.926C211.45 136.356 210.767 139.058 210.767 141.959H216.767ZM218.048 136.939C218.923 135.448 220.109 134.299 221.652 133.457L218.77 128.211C216.282 129.57 214.299 131.483 212.87 133.916L218.048 136.939ZM221.652 133.457C223.189 132.618 224.943 132.174 226.979 132.174V126.192C224.024 126.192 221.266 126.848 218.77 128.211L221.652 133.457ZM226.979 132.174C228.512 132.174 229.863 132.427 231.064 132.898L233.263 127.334C231.295 126.561 229.19 126.192 226.979 126.192V132.174ZM231.064 132.898C232.245 133.362 233.204 134.02 233.988 134.868L238.403 130.819C236.978 129.275 235.25 128.114 233.263 127.334L231.064 132.898ZM234.074 130.729L232.382 132.416L236.625 136.645L238.317 134.958L234.074 130.729ZM236.637 132.429C234.063 129.83 230.79 128.561 227.051 128.561V134.542C229.313 134.542 231.008 135.259 232.369 136.632L236.637 132.429ZM227.051 128.561C224.582 128.561 222.26 129.13 220.152 130.304L223.079 135.526C224.234 134.882 225.537 134.542 227.051 134.542V128.561ZM220.152 130.304C218.065 131.468 216.391 133.084 215.181 135.126L220.346 138.169C221.008 137.053 221.902 136.181 223.079 135.526L220.152 130.304ZM215.163 135.155C213.969 137.223 213.395 139.515 213.395 141.959H219.395C219.395 140.48 219.733 139.231 220.363 138.14L215.163 135.155ZM213.395 141.959C213.395 144.404 213.969 146.695 215.163 148.763L220.363 145.778C219.733 144.688 219.395 143.439 219.395 141.959H213.395ZM215.181 148.792C216.391 150.835 218.065 152.451 220.152 153.614L223.079 148.392C221.902 147.737 221.008 146.865 220.346 145.749L215.181 148.792ZM220.152 153.614C222.26 154.788 224.582 155.358 227.051 155.358V149.376C225.537 149.376 224.234 149.036 223.079 148.392L220.152 153.614ZM227.051 155.358C230.818 155.358 234.105 154.073 236.663 151.428L232.344 147.277C231.013 148.651 229.333 149.376 227.051 149.376V155.358ZM232.382 151.467L234.074 153.153L238.317 148.925L236.625 147.238L232.382 151.467ZM233.988 149.014C233.204 149.863 232.227 150.537 231.006 151.028L233.249 156.577C235.243 155.775 236.978 154.608 238.403 153.064L233.988 149.014ZM231.028 151.02C229.827 151.492 228.476 151.745 226.943 151.745V157.726C229.154 157.726 231.259 157.357 233.227 156.585L231.028 151.02ZM252.17 131.695H255.17C255.17 130.043 253.827 128.704 252.17 128.704V131.695ZM243.314 131.695H240.314C240.314 133.347 241.657 134.686 243.314 134.686V131.695ZM243.314 129.398V126.407C241.657 126.407 240.314 127.746 240.314 129.398H243.314ZM263.69 129.398H266.69C266.69 127.746 265.347 126.407 263.69 126.407V129.398ZM263.69 131.695V134.686C265.347 134.686 266.69 133.347 266.69 131.695H263.69ZM254.834 131.695V128.704C253.177 128.704 251.834 130.043 251.834 131.695H254.834ZM254.834 154.52V157.511C256.491 157.511 257.834 156.172 257.834 154.52H254.834ZM252.17 154.52H249.17C249.17 156.172 250.513 157.511 252.17 157.511V154.52ZM252.17 128.704H243.314V134.686H252.17V128.704ZM246.314 131.695V129.398H240.314V131.695H246.314ZM243.314 132.389H263.69V126.407H243.314V132.389ZM260.69 129.398V131.695H266.69V129.398H260.69ZM263.69 128.704H254.834V134.686H263.69V128.704ZM251.834 131.695V154.52H257.834V131.695H251.834ZM254.834 151.529H252.17V157.511H254.834V151.529ZM255.17 154.52V131.695H249.17V154.52H255.17Z" fill="#FACB66"/>
<path d="M24.28 104.057H19.08V103.678H29.88V104.057H24.68V117.635H24.28V104.057ZM45.617 103.678V117.635H45.217V110.736H35.017V117.635H34.617V103.678H35.017V110.357H45.217V103.678H45.617ZM62.2652 117.256V117.635H52.9452V103.678H61.9652V104.057H53.3452V110.357H61.0652V110.736H53.3452V117.256H62.2652Z" fill="#FACB66"/>
<path d="M24.28 104.057H26.28C26.28 102.955 25.3846 102.063 24.28 102.063V104.057ZM19.08 104.057H17.08C17.08 105.158 17.9754 106.051 19.08 106.051V104.057ZM19.08 103.678V101.684C17.9754 101.684 17.08 102.576 17.08 103.678H19.08ZM29.88 103.678H31.88C31.88 102.576 30.9846 101.684 29.88 101.684V103.678ZM29.88 104.057V106.051C30.9846 106.051 31.88 105.158 31.88 104.057H29.88ZM24.68 104.057V102.063C23.5754 102.063 22.68 102.955 22.68 104.057H24.68ZM24.68 117.635V119.628C25.7846 119.628 26.68 118.736 26.68 117.635H24.68ZM24.28 117.635H22.28C22.28 118.736 23.1754 119.628 24.28 119.628V117.635ZM24.28 102.063H19.08V106.051H24.28V102.063ZM21.08 104.057V103.678H17.08V104.057H21.08ZM19.08 105.672H29.88V101.684H19.08V105.672ZM27.88 103.678V104.057H31.88V103.678H27.88ZM29.88 102.063H24.68V106.051H29.88V102.063ZM22.68 104.057V117.635H26.68V104.057H22.68ZM24.68 115.641H24.28V119.628H24.68V115.641ZM26.28 117.635V104.057H22.28V117.635H26.28ZM45.617 103.678H47.617C47.617 102.576 46.7216 101.684 45.617 101.684V103.678ZM45.617 117.635V119.628C46.7216 119.628 47.617 118.736 47.617 117.635H45.617ZM45.217 117.635H43.217C43.217 118.736 44.1125 119.628 45.217 119.628V117.635ZM45.217 110.736H47.217C47.217 109.635 46.3216 108.742 45.217 108.742V110.736ZM35.017 110.736V108.742C33.9125 108.742 33.017 109.635 33.017 110.736H35.017ZM35.017 117.635V119.628C36.1216 119.628 37.017 118.736 37.017 117.635H35.017ZM34.617 117.635H32.617C32.617 118.736 33.5125 119.628 34.617 119.628V117.635ZM34.617 103.678V101.684C33.5125 101.684 32.617 102.576 32.617 103.678H34.617ZM35.017 103.678H37.017C37.017 102.576 36.1216 101.684 35.017 101.684V103.678ZM35.017 110.357H33.017C33.017 111.459 33.9125 112.351 35.017 112.351V110.357ZM45.217 110.357V112.351C46.3216 112.351 47.217 111.459 47.217 110.357H45.217ZM45.217 103.678V101.684C44.1125 101.684 43.217 102.576 43.217 103.678H45.217ZM43.617 103.678V117.635H47.617V103.678H43.617ZM45.617 115.641H45.217V119.628H45.617V115.641ZM47.217 117.635V110.736H43.217V117.635H47.217ZM45.217 108.742H35.017V112.73H45.217V108.742ZM33.017 110.736V117.635H37.017V110.736H33.017ZM35.017 115.641H34.617V119.628H35.017V115.641ZM36.617 117.635V103.678H32.617V117.635H36.617ZM34.617 105.672H35.017V101.684H34.617V105.672ZM33.017 103.678V110.357H37.017V103.678H33.017ZM35.017 112.351H45.217V108.363H35.017V112.351ZM47.217 110.357V103.678H43.217V110.357H47.217ZM45.217 105.672H45.617V101.684H45.217V105.672ZM62.2652 117.256H64.2652C64.2652 116.154 63.3697 115.262 62.2652 115.262V117.256ZM62.2652 117.635V119.628C63.3697 119.628 64.2652 118.736 64.2652 117.635H62.2652ZM52.9452 117.635H50.9452C50.9452 118.736 51.8406 119.628 52.9452 119.628V117.635ZM52.9452 103.678V101.684C51.8406 101.684 50.9452 102.576 50.9452 103.678H52.9452ZM61.9652 103.678H63.9652C63.9652 102.576 63.0697 101.684 61.9652 101.684V103.678ZM61.9652 104.057V106.051C63.0697 106.051 63.9652 105.158 63.9652 104.057H61.9652ZM53.3452 104.057V102.063C52.2406 102.063 51.3452 102.955 51.3452 104.057H53.3452ZM53.3452 110.357H51.3452C51.3452 111.459 52.2406 112.351 53.3452 112.351V110.357ZM61.0652 110.357H63.0652C63.0652 109.256 62.1697 108.363 61.0652 108.363V110.357ZM61.0652 110.736V112.73C62.1697 112.73 63.0652 111.838 63.0652 110.736H61.0652ZM53.3452 110.736V108.742C52.2406 108.742 51.3452 109.635 51.3452 110.736H53.3452ZM53.3452 117.256H51.3452C51.3452 118.357 52.2406 119.25 53.3452 119.25V117.256ZM60.2652 117.256V117.635H64.2652V117.256H60.2652ZM62.2652 115.641H52.9452V119.628H62.2652V115.641ZM54.9452 117.635V103.678H50.9452V117.635H54.9452ZM52.9452 105.672H61.9652V101.684H52.9452V105.672ZM59.9652 103.678V104.057H63.9652V103.678H59.9652ZM61.9652 102.063H53.3452V106.051H61.9652V102.063ZM51.3452 104.057V110.357H55.3452V104.057H51.3452ZM53.3452 112.351H61.0652V108.363H53.3452V112.351ZM59.0652 110.357V110.736H63.0652V110.357H59.0652ZM61.0652 108.742H53.3452V112.73H61.0652V108.742ZM51.3452 110.736V117.256H55.3452V110.736H51.3452ZM53.3452 119.25H62.2652V115.262H53.3452V119.25Z" fill="#FACB66"/>
<path d="M0 136.142C9.46667 139.388 32.0667 144.805 51 145.733C69.9333 146.696 84.5 143.056 124.5 141.56C164.5 140.065 174 145.733 217.5 145.733C261 145.733 284 130.846 284 130.846V321.61H274.533C265.067 321.61 246.133 321.61 227.2 321.61C208.267 321.61 189.333 321.61 170.4 321.61C151.467 321.61 132.533 321.61 113.6 321.61C94.6667 321.61 75.7333 321.61 56.8 321.61C37.8667 321.61 18.9333 321.61 9.46667 321.61H0V136.142Z" fill="#FACB66"/>
<path d="M0 185.825L9.46667 184.47C18.9333 183.078 37.8667 180.368 56.8 180.404C75.7333 180.476 94.6667 183.329 113.6 185.112C132.533 186.896 151.467 187.608 170.4 189.213C189.333 190.818 208.267 193.316 227.2 190.176C246.133 187.002 265.067 178.228 274.533 173.805L284 169.418V287.833H274.533C265.067 287.833 246.133 287.833 227.2 287.833C208.267 287.833 189.333 287.833 170.4 287.833C151.467 287.833 132.533 287.833 113.6 287.833C94.6667 287.833 75.7333 287.833 56.8 287.833C37.8667 287.833 18.9333 287.833 9.46667 287.833H0V185.825Z" fill="#F5BC51"/>
<path d="M0 237.455L9.46667 231.213C18.9333 224.971 37.8667 212.487 56.8 210.276C75.7333 208.101 94.6667 216.162 113.6 218.016C132.533 219.87 151.467 215.448 170.4 212.131C189.333 208.813 208.267 206.532 227.2 210.098C246.133 213.664 265.067 223.08 274.533 227.753L284 232.461V304.151H274.533C265.067 304.151 246.133 304.151 227.2 304.151C208.267 304.151 189.333 304.151 170.4 304.151C151.467 304.151 132.533 304.151 113.6 304.151C94.6667 304.151 75.7333 304.151 56.8 304.151C37.8667 304.151 18.9333 304.151 9.46667 304.151H0V237.455Z" fill="#F1AD3B"/>
<path d="M0 266.789L9.46667 265.113C18.9333 263.472 37.8667 245.599 56.8 242.746C75.7333 239.893 92.5 255.207 113.6 255.706C134.7 256.204 151.467 238.72 170.4 237.185C189.333 235.652 208.267 238.006 227.2 238.505C246.133 238.969 265.067 237.542 274.533 236.829L284 236.116V321.36H274.533C265.067 321.36 246.133 321.36 227.2 321.36C208.267 321.36 189.333 321.36 170.4 321.36C151.467 321.36 132.533 321.36 113.6 321.36C94.6667 321.36 75.7333 321.36 56.8 321.36C37.8667 321.36 18.9333 321.36 9.46667 321.36H0V266.789Z" fill="#ED9D24"/>
<path d="M0 286.05L9.46667 284.159C18.9333 282.233 37.8667 278.452 56.8 278.988C75.7333 279.522 94.6667 284.373 113.6 288.012C132.533 291.649 151.467 294.003 170.4 294.253C189.333 294.502 208.267 292.576 227.2 291.043C246.133 289.509 265.067 288.297 274.533 287.725L284 287.119V321.36H274.533C265.067 321.36 246.133 321.36 227.2 321.36C208.267 321.36 189.333 321.36 170.4 321.36C151.467 321.36 132.533 321.36 113.6 321.36C94.6667 321.36 75.7333 321.36 56.8 321.36C37.8667 321.36 18.9333 321.36 9.46667 321.36H0V286.05Z" fill="#E98D00"/>
<g style="mix-blend-mode:soft-light">
<path d="M20 187.418H264" stroke="white"/>
</g>
<path d="M41.7677 213.234H43.7677C43.7677 212.132 42.8722 211.24 41.7677 211.24V213.234ZM41.7677 214.334V216.328C42.8722 216.328 43.7677 215.436 43.7677 214.334H41.7677ZM30.1757 214.334H28.1757C28.1757 215.436 29.0711 216.328 30.1757 216.328V214.334ZM30.1757 197.586V195.593C29.0711 195.593 28.1757 196.485 28.1757 197.586H30.1757ZM41.4077 197.586H43.4077C43.4077 196.485 42.5122 195.593 41.4077 195.593V197.586ZM41.4077 198.687V200.681C42.5122 200.681 43.4077 199.789 43.4077 198.687H41.4077ZM31.3997 198.687V196.693C30.2951 196.693 29.3997 197.585 29.3997 198.687H31.3997ZM31.3997 205.29H29.3997C29.3997 206.392 30.2951 207.284 31.3997 207.284V205.29ZM40.3517 205.29H42.3517C42.3517 204.189 41.4562 203.297 40.3517 203.297V205.29ZM40.3517 206.367V208.361C41.4562 208.361 42.3517 207.469 42.3517 206.367H40.3517ZM31.3997 206.367V204.373C30.2951 204.373 29.3997 205.266 29.3997 206.367H31.3997ZM31.3997 213.234H29.3997C29.3997 214.335 30.2951 215.228 31.3997 215.228V213.234ZM39.7677 213.234V214.334H43.7677V213.234H39.7677ZM41.7677 212.341H30.1757V216.328H41.7677V212.341ZM32.1757 214.334V197.586H28.1757V214.334H32.1757ZM30.1757 199.58H41.4077V195.593H30.1757V199.58ZM39.4077 197.586V198.687H43.4077V197.586H39.4077ZM41.4077 196.693H31.3997V200.681H41.4077V196.693ZM29.3997 198.687V205.29H33.3997V198.687H29.3997ZM31.3997 207.284H40.3517V203.297H31.3997V207.284ZM38.3517 205.29V206.367H42.3517V205.29H38.3517ZM40.3517 204.373H31.3997V208.361H40.3517V204.373ZM29.3997 206.367V213.234H33.3997V206.367H29.3997ZM31.3997 215.228H41.7677V211.24H31.3997V215.228ZM48.6303 197.586V195.593C47.5258 195.593 46.6303 196.485 46.6303 197.586H48.6303ZM49.8543 197.586H51.8543C51.8543 196.485 50.9589 195.593 49.8543 195.593V197.586ZM49.8543 213.234H47.8543C47.8543 214.335 48.7498 215.228 49.8543 215.228V213.234ZM59.5263 213.234H61.5263C61.5263 212.132 60.6309 211.24 59.5263 211.24V213.234ZM59.5263 214.334V216.328C60.6309 216.328 61.5263 215.436 61.5263 214.334H59.5263ZM48.6303 214.334H46.6303C46.6303 215.436 47.5258 216.328 48.6303 216.328V214.334ZM48.6303 199.58H49.8543V195.593H48.6303V199.58ZM47.8543 197.586V213.234H51.8543V197.586H47.8543ZM49.8543 215.228H59.5263V211.24H49.8543V215.228ZM57.5263 213.234V214.334H61.5263V213.234H57.5263ZM59.5263 212.341H48.6303V216.328H59.5263V212.341ZM50.6303 214.334V197.586H46.6303V214.334H50.6303ZM73.6335 197.586V195.593C72.5289 195.593 71.6335 196.485 71.6335 197.586H73.6335ZM74.8575 197.586H76.8575C76.8575 196.485 75.962 195.593 74.8575 195.593V197.586ZM74.8575 214.334V216.328C75.962 216.328 76.8575 215.436 76.8575 214.334H74.8575ZM73.6335 214.334H71.6335C71.6335 215.436 72.5289 216.328 73.6335 216.328V214.334ZM73.6335 199.58H74.8575V195.593H73.6335V199.58ZM72.8575 197.586V214.334H76.8575V197.586H72.8575ZM74.8575 212.341H73.6335V216.328H74.8575V212.341ZM75.6335 214.334V197.586H71.6335V214.334H75.6335ZM98.9996 214.334L96.9996 214.337C97.0014 215.438 97.8963 216.328 98.9996 216.328V214.334ZM98.9756 200.003L100.976 200C100.974 199.099 100.366 198.31 99.4929 198.077C98.6195 197.844 97.6979 198.223 97.2448 199.004L98.9756 200.003ZM91.9436 212.109V214.103C92.6572 214.103 93.3168 213.724 93.6744 213.108L91.9436 212.109ZM91.3436 212.109L89.6145 213.111C89.9726 213.725 90.6312 214.103 91.3436 214.103V212.109ZM84.3116 200.051L86.0406 199.049C85.5863 198.269 84.664 197.891 83.7911 198.126C82.9181 198.36 82.3116 199.15 82.3116 200.051H84.3116ZM84.3116 214.334V216.328C85.4162 216.328 86.3116 215.436 86.3116 214.334H84.3116ZM83.1116 214.334H81.1116C81.1116 215.436 82.007 216.328 83.1116 216.328V214.334ZM83.1116 197.586V195.593C82.007 195.593 81.1116 196.485 81.1116 197.586H83.1116ZM84.1436 197.586L85.8747 196.587C85.5172 195.972 84.8575 195.593 84.1436 195.593V197.586ZM91.6556 210.53L89.9244 211.529C90.282 212.144 90.9417 212.524 91.6556 212.524C92.3695 212.524 93.0292 212.144 93.3867 211.529L91.6556 210.53ZM99.1676 197.586V195.593C98.4537 195.593 97.794 195.972 97.4364 196.587L99.1676 197.586ZM100.176 197.586L102.176 197.583C102.174 196.484 101.279 195.593 100.176 195.593V197.586ZM100.2 214.334V216.328C100.731 216.328 101.24 216.118 101.615 215.743C101.99 215.369 102.2 214.861 102.2 214.331L100.2 214.334ZM101 214.331L100.976 200L96.9756 200.006L96.9996 214.337L101 214.331ZM97.2448 199.004L90.2128 211.11L93.6744 213.108L100.706 201.002L97.2448 199.004ZM91.9436 210.115H91.3436V214.103H91.9436V210.115ZM93.0726 211.107L86.0406 199.049L82.5825 201.053L89.6145 213.111L93.0726 211.107ZM82.3116 200.051V214.334H86.3116V200.051H82.3116ZM84.3116 212.341H83.1116V216.328H84.3116V212.341ZM85.1116 214.334V197.586H81.1116V214.334H85.1116ZM83.1116 199.58H84.1436V195.593H83.1116V199.58ZM82.4124 198.585L89.9244 211.529L93.3867 209.531L85.8747 196.587L82.4124 198.585ZM93.3867 211.529L100.899 198.585L97.4364 196.587L89.9244 209.531L93.3867 211.529ZM99.1676 199.58H100.176V195.593H99.1676V199.58ZM98.1756 197.589L98.1996 214.337L102.2 214.331L102.176 197.583L98.1756 197.589ZM100.2 212.341H98.9996V216.328H100.2V212.341ZM119.449 199.094L118.163 200.62C118.167 200.624 118.171 200.627 118.175 200.63L119.449 199.094ZM119.449 207.372L120.723 208.908C120.727 208.905 120.731 208.902 120.735 208.898L119.449 207.372ZM109.681 208.855V206.862C108.576 206.862 107.681 207.754 107.681 208.855H109.681ZM109.681 214.334V216.328C110.785 216.328 111.681 215.436 111.681 214.334H109.681ZM108.457 214.334H106.457C106.457 215.436 107.352 216.328 108.457 216.328V214.334ZM108.457 197.586V195.593C107.352 195.593 106.457 196.485 106.457 197.586H108.457ZM118.585 206.582L119.863 208.117L118.585 206.582ZM118.585 199.883L117.292 201.405C117.297 201.409 117.302 201.413 117.307 201.417L118.585 199.883ZM109.681 198.687V196.693C108.576 196.693 107.681 197.585 107.681 198.687H109.681ZM109.681 207.755H107.681C107.681 208.856 108.576 209.749 109.681 209.749V207.755ZM114.481 199.58C116.287 199.58 117.431 200.008 118.163 200.62L120.735 197.567C119.067 196.17 116.899 195.593 114.481 195.593V199.58ZM118.175 200.63C118.847 201.184 119.249 201.963 119.249 203.233H123.249C123.249 200.962 122.451 198.981 120.723 197.557L118.175 200.63ZM119.249 203.233C119.249 204.48 118.851 205.269 118.163 205.846L120.735 208.898C122.447 207.466 123.249 205.495 123.249 203.233H119.249ZM118.175 205.836C117.443 206.438 116.293 206.862 114.481 206.862V210.849C116.892 210.849 119.055 210.284 120.723 208.908L118.175 205.836ZM114.481 206.862H109.681V210.849H114.481V206.862ZM107.681 208.855V214.334H111.681V208.855H107.681ZM109.681 212.341H108.457V216.328H109.681V212.341ZM110.457 214.334V197.586H106.457V214.334H110.457ZM108.457 199.58H114.481V195.593H108.457V199.58ZM114.481 209.749C116.531 209.749 118.426 209.305 119.863 208.117L117.307 205.048C116.855 205.423 116.015 205.761 114.481 205.761V209.749ZM119.863 208.117C121.351 206.885 122.001 205.155 122.001 203.233H118.001C118.001 204.214 117.707 204.717 117.307 205.048L119.863 208.117ZM122.001 203.233C122.001 201.311 121.351 199.581 119.863 198.349L117.307 201.417C117.707 201.748 118.001 202.252 118.001 203.233H122.001ZM119.878 198.362C118.441 197.148 116.539 196.693 114.481 196.693V200.681C116.007 200.681 116.841 201.024 117.292 201.405L119.878 198.362ZM114.481 196.693H109.681V200.681H114.481V196.693ZM107.681 198.687V207.755H111.681V198.687H107.681ZM109.681 209.749H114.481V205.761H109.681V209.749ZM139.371 213.234H141.371C141.371 212.132 140.475 211.24 139.371 211.24V213.234ZM139.371 214.334V216.328C140.475 216.328 141.371 215.436 141.371 214.334H139.371ZM127.779 214.334H125.779C125.779 215.436 126.674 216.328 127.779 216.328V214.334ZM127.779 197.586V195.593C126.674 195.593 125.779 196.485 125.779 197.586H127.779ZM139.011 197.586H141.011C141.011 196.485 140.115 195.593 139.011 195.593V197.586ZM139.011 198.687V200.681C140.115 200.681 141.011 199.789 141.011 198.687H139.011ZM129.003 198.687V196.693C127.898 196.693 127.003 197.585 127.003 198.687H129.003ZM129.003 205.29H127.003C127.003 206.392 127.898 207.284 129.003 207.284V205.29ZM137.955 205.29H139.955C139.955 204.189 139.059 203.297 137.955 203.297V205.29ZM137.955 206.367V208.361C139.059 208.361 139.955 207.469 139.955 206.367H137.955ZM129.003 206.367V204.373C127.898 204.373 127.003 205.266 127.003 206.367H129.003ZM129.003 213.234H127.003C127.003 214.335 127.898 215.228 129.003 215.228V213.234ZM137.371 213.234V214.334H141.371V213.234H137.371ZM139.371 212.341H127.779V216.328H139.371V212.341ZM129.779 214.334V197.586H125.779V214.334H129.779ZM127.779 199.58H139.011V195.593H127.779V199.58ZM137.011 197.586V198.687H141.011V197.586H137.011ZM139.011 196.693H129.003V200.681H139.011V196.693ZM127.003 198.687V205.29H131.003V198.687H127.003ZM129.003 207.284H137.955V203.297H129.003V207.284ZM135.955 205.29V206.367H139.955V205.29H135.955ZM137.955 204.373H129.003V208.361H137.955V204.373ZM127.003 206.367V213.234H131.003V206.367H127.003ZM129.003 215.228H139.371V211.24H129.003V215.228ZM157.897 214.334L156.27 215.493C156.645 216.017 157.251 216.328 157.897 216.328V214.334ZM153.889 208.736L155.517 207.577C155.086 206.975 154.357 206.661 153.622 206.76L153.889 208.736ZM147.457 208.855V206.862C146.353 206.862 145.457 207.754 145.457 208.855H147.457ZM147.457 214.334V216.328C148.562 216.328 149.457 215.436 149.457 214.334H147.457ZM146.233 214.334H144.233C144.233 215.436 145.129 216.328 146.233 216.328V214.334ZM146.233 197.586V195.593C145.129 195.593 144.233 196.485 144.233 197.586H146.233ZM157.225 199.094L155.939 200.62C155.943 200.624 155.947 200.627 155.951 200.63L157.225 199.094ZM157.993 206.582L156.397 205.382L156.393 205.386L157.993 206.582ZM155.089 208.473L154.53 206.559C153.908 206.739 153.412 207.21 153.2 207.82C152.987 208.431 153.085 209.106 153.462 209.631L155.089 208.473ZM159.289 214.334V216.328C160.039 216.328 160.725 215.91 161.068 215.247C161.411 214.583 161.352 213.783 160.917 213.176L159.289 214.334ZM156.361 206.606L157.639 208.141C157.644 208.136 157.649 208.132 157.655 208.128L156.361 206.606ZM156.361 199.883L155.068 201.405C155.073 201.409 155.079 201.413 155.084 201.417L156.361 199.883ZM147.457 198.687V196.693C146.353 196.693 145.457 197.585 145.457 198.687H147.457ZM147.457 207.779H145.457C145.457 208.88 146.353 209.773 147.457 209.773V207.779ZM159.525 213.176L155.517 207.577L152.262 209.894L156.27 215.493L159.525 213.176ZM153.622 206.76C153.101 206.83 152.648 206.862 152.257 206.862V210.849C152.859 210.849 153.494 210.801 154.157 210.712L153.622 206.76ZM152.257 206.862H147.457V210.849H152.257V206.862ZM145.457 208.855V214.334H149.457V208.855H145.457ZM147.457 212.341H146.233V216.328H147.457V212.341ZM148.233 214.334V197.586H144.233V214.334H148.233ZM146.233 199.58H152.257V195.593H146.233V199.58ZM152.257 199.58C154.063 199.58 155.208 200.008 155.939 200.62L158.512 197.567C156.843 196.17 154.676 195.593 152.257 195.593V199.58ZM155.951 200.63C156.624 201.184 157.025 201.963 157.025 203.233H161.025C161.025 200.962 160.227 198.981 158.5 197.557L155.951 200.63ZM157.025 203.233C157.025 204.197 156.782 204.873 156.397 205.382L159.59 207.783C160.581 206.474 161.025 204.917 161.025 203.233H157.025ZM156.393 205.386C156.025 205.877 155.454 206.29 154.53 206.559L155.649 210.387C157.253 209.921 158.618 209.075 159.593 207.779L156.393 205.386ZM153.462 209.631L157.662 215.493L160.917 213.176L156.717 207.314L153.462 209.631ZM159.289 212.341H157.897V216.328H159.289V212.341ZM152.257 209.773C154.307 209.773 156.203 209.329 157.639 208.141L155.084 205.072C154.632 205.447 153.792 205.785 152.257 205.785V209.773ZM157.655 208.128C159.128 206.883 159.777 205.156 159.777 203.233H155.777C155.777 204.213 155.483 204.735 155.068 205.085L157.655 208.128ZM159.777 203.233C159.777 201.311 159.128 199.581 157.639 198.349L155.084 201.417C155.483 201.748 155.777 202.252 155.777 203.233H159.777ZM157.655 198.362C156.217 197.148 154.315 196.693 152.257 196.693V200.681C153.784 200.681 154.618 201.024 155.068 201.405L157.655 198.362ZM152.257 196.693H147.457V200.681H152.257V196.693ZM145.457 198.687V207.779H149.457V198.687H145.457ZM147.457 209.773H152.257V205.785H147.457V209.773ZM167.131 198.687V196.693C166.026 196.693 165.131 197.585 165.131 198.687H167.131ZM167.131 205.841H165.131C165.131 206.942 166.026 207.835 167.131 207.835V205.841ZM176.083 205.841H178.083C178.083 204.739 177.187 203.847 176.083 203.847V205.841ZM176.083 206.941V208.935C177.187 208.935 178.083 208.043 178.083 206.941H176.083ZM167.131 206.941V204.948C166.026 204.948 165.131 205.84 165.131 206.941H167.131ZM167.131 214.334V216.328C168.235 216.328 169.131 215.436 169.131 214.334H167.131ZM165.907 214.334H163.907C163.907 215.436 164.802 216.328 165.907 216.328V214.334ZM165.907 197.586V195.593C164.802 195.593 163.907 196.485 163.907 197.586H165.907ZM177.139 197.586H179.139C179.139 196.485 178.243 195.593 177.139 195.593V197.586ZM177.139 198.687V200.681C178.243 200.681 179.139 199.789 179.139 198.687H177.139ZM165.131 198.687V205.841H169.131V198.687H165.131ZM167.131 207.835H176.083V203.847H167.131V207.835ZM174.083 205.841V206.941H178.083V205.841H174.083ZM176.083 204.948H167.131V208.935H176.083V204.948ZM165.131 206.941V214.334H169.131V206.941H165.131ZM167.131 212.341H165.907V216.328H167.131V212.341ZM167.907 214.334V197.586H163.907V214.334H167.907ZM165.907 199.58H177.139V195.593H165.907V199.58ZM175.139 197.586V198.687H179.139V197.586H175.139ZM177.139 196.693H167.131V200.681H177.139V196.693ZM195.04 213.234H197.04C197.04 212.132 196.144 211.24 195.04 211.24V213.234ZM195.04 214.334V216.328C196.144 216.328 197.04 215.436 197.04 214.334H195.04ZM183.448 214.334H181.448C181.448 215.436 182.343 216.328 183.448 216.328V214.334ZM183.448 197.586V195.593C182.343 195.593 181.448 196.485 181.448 197.586H183.448ZM194.68 197.586H196.68C196.68 196.485 195.784 195.593 194.68 195.593V197.586ZM194.68 198.687V200.681C195.784 200.681 196.68 199.789 196.68 198.687H194.68ZM184.672 198.687V196.693C183.567 196.693 182.672 197.585 182.672 198.687H184.672ZM184.672 205.29H182.672C182.672 206.392 183.567 207.284 184.672 207.284V205.29ZM193.624 205.29H195.624C195.624 204.189 194.728 203.297 193.624 203.297V205.29ZM193.624 206.367V208.361C194.728 208.361 195.624 207.469 195.624 206.367H193.624ZM184.672 206.367V204.373C183.567 204.373 182.672 205.266 182.672 206.367H184.672ZM184.672 213.234H182.672C182.672 214.335 183.567 215.228 184.672 215.228V213.234ZM193.04 213.234V214.334H197.04V213.234H193.04ZM195.04 212.341H183.448V216.328H195.04V212.341ZM185.448 214.334V197.586H181.448V214.334H185.448ZM183.448 199.58H194.68V195.593H183.448V199.58ZM192.68 197.586V198.687H196.68V197.586H192.68ZM194.68 196.693H184.672V200.681H194.68V196.693ZM182.672 198.687V205.29H186.672V198.687H182.672ZM184.672 207.284H193.624V203.297H184.672V207.284ZM191.624 205.29V206.367H195.624V205.29H191.624ZM193.624 204.373H184.672V208.361H193.624V204.373ZM182.672 206.367V213.234H186.672V206.367H182.672ZM184.672 215.228H195.04V211.24H184.672V215.228ZM204.542 213.353L203.564 215.092L203.573 215.097L204.542 213.353ZM201.422 210.315L199.692 211.316C199.695 211.321 199.699 211.326 199.702 211.332L201.422 210.315ZM201.422 201.606L199.702 200.589C199.699 200.595 199.695 200.6 199.692 200.605L201.422 201.606ZM204.542 198.567L203.573 196.824L203.564 196.829L204.542 198.567ZM212.366 198.065L211.639 199.922C211.647 199.925 211.655 199.928 211.664 199.932L212.366 198.065ZM214.982 199.788L216.418 201.175C217.161 200.412 217.171 199.2 216.441 198.424L214.982 199.788ZM214.214 200.577L212.808 201.996C213.188 202.37 213.702 202.577 214.236 202.571C214.769 202.565 215.278 202.347 215.65 201.965L214.214 200.577ZM205.214 199.548L206.185 201.291L205.214 199.548ZM202.502 202.204L204.228 203.212L204.234 203.201L202.502 202.204ZM202.502 209.741L200.77 210.738L200.776 210.749L202.502 209.741ZM205.214 212.372L206.185 210.63L205.214 212.372ZM214.214 211.32L215.65 209.932C215.278 209.55 214.769 209.332 214.236 209.326C213.702 209.32 213.188 209.527 212.808 209.901L214.214 211.32ZM214.982 212.109L216.441 213.473C217.171 212.696 217.161 211.485 216.418 210.722L214.982 212.109ZM212.342 213.856L211.624 211.995L211.615 211.999L212.342 213.856ZM209.006 212.46C207.668 212.46 206.518 212.165 205.512 211.61L203.573 215.097C205.222 216.009 207.049 216.448 209.006 216.448V212.46ZM205.521 211.615C204.516 211.053 203.732 210.289 203.143 209.298L199.702 211.332C200.649 212.925 201.944 214.187 203.564 215.092L205.521 211.615ZM203.152 209.314C202.591 208.35 202.294 207.248 202.294 205.96H198.294C198.294 207.894 198.75 209.696 199.692 211.316L203.152 209.314ZM202.294 205.96C202.294 204.672 202.591 203.571 203.152 202.607L199.692 200.605C198.75 202.225 198.294 204.026 198.294 205.96H202.294ZM203.143 202.623C203.732 201.632 204.516 200.868 205.521 200.306L203.564 196.829C201.944 197.734 200.649 198.996 199.702 200.589L203.143 202.623ZM205.512 200.311C206.518 199.756 207.668 199.461 209.006 199.461V195.473C207.049 195.473 205.222 195.912 203.573 196.824L205.512 200.311ZM209.006 199.461C210 199.461 210.87 199.623 211.639 199.922L213.094 196.208C211.815 195.709 210.445 195.473 209.006 195.473V199.461ZM211.664 199.932C212.412 200.211 213.022 200.618 213.523 201.151L216.441 198.424C215.503 197.426 214.369 196.684 213.068 196.198L211.664 199.932ZM213.546 198.4L212.778 199.189L215.65 201.965L216.418 201.175L213.546 198.4ZM215.62 199.159C213.859 197.424 211.614 196.597 209.054 196.597V200.585C210.687 200.585 211.881 201.083 212.808 201.996L215.62 199.159ZM209.054 196.597C207.33 196.597 205.712 196.991 204.243 197.806L206.185 201.291C207.02 200.829 207.962 200.585 209.054 200.585V196.597ZM204.243 197.806C202.776 198.618 201.608 199.761 200.77 201.207L204.234 203.201C204.708 202.383 205.349 201.754 206.185 201.291L204.243 197.806ZM200.776 201.196C199.928 202.641 199.518 204.245 199.518 205.96H203.518C203.518 204.901 203.765 204 204.228 203.212L200.776 201.196ZM199.518 205.96C199.518 207.676 199.928 209.283 200.77 210.738L204.234 208.744C203.765 207.933 203.518 207.02 203.518 205.96H199.518ZM200.776 210.749C201.616 212.178 202.783 213.307 204.243 214.115L206.185 210.63C205.341 210.162 204.7 209.536 204.228 208.733L200.776 210.749ZM204.243 214.115C205.712 214.93 207.33 215.323 209.054 215.323V211.336C207.962 211.336 207.02 211.091 206.185 210.63L204.243 214.115ZM209.054 215.323C211.61 215.323 213.851 214.481 215.62 212.738L212.808 209.901C211.857 210.838 210.659 211.336 209.054 211.336V215.323ZM212.778 212.707L213.546 213.497L216.418 210.722L215.65 209.932L212.778 212.707ZM213.523 210.746C213.021 211.279 212.4 211.698 211.624 211.995L213.06 215.717C214.365 215.217 215.503 214.471 216.441 213.473L213.523 210.746ZM211.615 211.999C210.843 212.3 209.98 212.46 209.006 212.46V216.448C210.432 216.448 211.794 216.21 213.07 215.713L211.615 211.999ZM227.098 198.687H229.098C229.098 197.585 228.202 196.693 227.098 196.693V198.687ZM221.05 198.687H219.05C219.05 199.789 219.945 200.681 221.05 200.681V198.687ZM221.05 197.586V195.593C219.945 195.593 219.05 196.485 219.05 197.586H221.05ZM234.37 197.586H236.37C236.37 196.485 235.474 195.593 234.37 195.593V197.586ZM234.37 198.687V200.681C235.474 200.681 236.37 199.789 236.37 198.687H234.37ZM228.322 198.687V196.693C227.217 196.693 226.322 197.585 226.322 198.687H228.322ZM228.322 214.334V216.328C229.426 216.328 230.322 215.436 230.322 214.334H228.322ZM227.098 214.334H225.098C225.098 215.436 225.993 216.328 227.098 216.328V214.334ZM227.098 196.693H221.05V200.681H227.098V196.693ZM223.05 198.687V197.586H219.05V198.687H223.05ZM221.05 199.58H234.37V195.593H221.05V199.58ZM232.37 197.586V198.687H236.37V197.586H232.37ZM234.37 196.693H228.322V200.681H234.37V196.693ZM226.322 198.687V214.334H230.322V198.687H226.322ZM228.322 212.341H227.098V216.328H228.322V212.341ZM229.098 214.334V198.687H225.098V214.334H229.098ZM242.235 213.353L241.249 215.088C241.255 215.091 241.26 215.094 241.265 215.097L242.235 213.353ZM239.091 210.291L237.361 211.292C237.364 211.297 237.367 211.302 237.37 211.308L239.091 210.291ZM239.091 201.63L237.37 200.613C237.367 200.619 237.364 200.624 237.361 200.629L239.091 201.63ZM242.235 198.591L243.204 200.335C243.21 200.332 243.215 200.329 243.22 200.326L242.235 198.591ZM254.283 201.606L252.553 202.607C252.556 202.612 252.559 202.617 252.562 202.623L254.283 201.606ZM254.283 210.315L252.562 209.298C252.559 209.304 252.556 209.309 252.553 209.314L254.283 210.315ZM251.163 213.353L252.132 215.097L251.163 213.353ZM250.515 212.372L249.533 210.636L250.515 212.372ZM253.203 209.741L254.929 210.749L254.935 210.738L253.203 209.741ZM253.203 202.204L251.471 203.201L251.477 203.212L253.203 202.204ZM250.515 199.548L249.533 201.285L250.515 199.548ZM242.859 199.548L241.888 197.806L241.877 197.812L242.859 199.548ZM240.171 202.204L241.897 203.212L241.903 203.201L240.171 202.204ZM240.171 209.741L238.439 210.738L238.445 210.749L240.171 209.741ZM242.859 212.372L241.877 214.11L241.888 214.115L242.859 212.372ZM246.699 212.46C245.36 212.46 244.211 212.165 243.204 211.61L241.265 215.097C242.915 216.009 244.742 216.448 246.699 216.448V212.46ZM243.22 211.619C242.192 211.038 241.399 210.263 240.812 209.274L237.37 211.308C238.319 212.903 239.622 214.17 241.249 215.088L243.22 211.619ZM240.821 209.29C240.258 208.323 239.963 207.228 239.963 205.96H235.963C235.963 207.882 236.42 209.675 237.361 211.292L240.821 209.29ZM239.963 205.96C239.963 204.692 240.258 203.598 240.821 202.631L237.361 200.629C236.42 202.246 235.963 204.038 235.963 205.96H239.963ZM240.812 202.647C241.397 201.662 242.185 200.899 243.204 200.335L241.265 196.848C239.629 197.751 238.321 199.014 237.37 200.613L240.812 202.647ZM243.22 200.326C244.224 199.76 245.368 199.461 246.699 199.461V195.473C244.734 195.473 242.902 195.924 241.249 196.857L243.22 200.326ZM246.699 199.461C248.038 199.461 249.187 199.756 250.193 200.311L252.132 196.824C250.483 195.912 248.656 195.473 246.699 195.473V199.461ZM250.193 200.311C251.21 200.873 251.985 201.631 252.553 202.607L256.013 200.605C255.077 198.997 253.772 197.729 252.132 196.824L250.193 200.311ZM252.562 202.623C253.134 203.584 253.435 204.68 253.435 205.96H257.435C257.435 204.018 256.968 202.212 256.004 200.589L252.562 202.623ZM253.435 205.96C253.435 207.24 253.134 208.337 252.562 209.298L256.004 211.332C256.968 209.709 257.435 207.902 257.435 205.96H253.435ZM252.553 209.314C251.985 210.29 251.21 211.048 250.193 211.61L252.132 215.097C253.772 214.192 255.077 212.924 256.013 211.316L252.553 209.314ZM250.193 211.61C249.187 212.165 248.038 212.46 246.699 212.46V216.448C248.656 216.448 250.483 216.009 252.132 215.097L250.193 211.61ZM246.699 215.323C248.423 215.323 250.037 214.93 251.497 214.109L249.533 210.636C248.721 211.091 247.791 211.336 246.699 211.336V215.323ZM251.497 214.109C252.94 213.3 254.093 212.171 254.929 210.749L251.477 208.733C251.001 209.543 250.362 210.169 249.533 210.636L251.497 214.109ZM254.935 210.738C255.777 209.283 256.187 207.676 256.187 205.96H252.187C252.187 207.02 251.941 207.933 251.471 208.744L254.935 210.738ZM256.187 205.96C256.187 204.245 255.777 202.641 254.929 201.196L251.477 203.212C251.941 204 252.187 204.901 252.187 205.96H256.187ZM254.935 201.207C254.101 199.768 252.947 198.625 251.497 197.812L249.533 201.285C250.355 201.747 250.993 202.376 251.471 203.201L254.935 201.207ZM251.497 197.812C250.037 196.991 248.423 196.597 246.699 196.597V200.585C247.791 200.585 248.721 200.829 249.533 201.285L251.497 197.812ZM246.699 196.597C244.975 196.597 243.357 196.991 241.888 197.806L243.83 201.291C244.665 200.829 245.607 200.585 246.699 200.585V196.597ZM241.877 197.812C240.427 198.625 239.273 199.768 238.439 201.207L241.903 203.201C242.381 202.376 243.019 201.747 243.841 201.285L241.877 197.812ZM238.445 201.196C237.597 202.641 237.187 204.245 237.187 205.96H241.187C241.187 204.901 241.433 204 241.897 203.212L238.445 201.196ZM237.187 205.96C237.187 207.676 237.597 209.283 238.439 210.738L241.903 208.744C241.433 207.933 241.187 207.02 241.187 205.96H237.187ZM238.445 210.749C239.281 212.171 240.434 213.3 241.877 214.109L243.841 210.636C243.012 210.169 242.373 209.543 241.897 208.733L238.445 210.749ZM241.888 214.115C243.357 214.93 244.975 215.323 246.699 215.323V211.336C245.607 211.336 244.665 211.091 243.83 210.63L241.888 214.115Z" fill="white"/>
<mask id="mask0_44_671" style="mask-type:alpha" maskUnits="userSpaceOnUse" x="20" y="126" width="247" height="56">
<path d="M23.104 129.398V126.407C21.4471 126.407 20.104 127.746 20.104 129.398H23.104ZM25.768 129.398H28.768C28.768 127.746 27.4249 126.407 25.768 126.407V129.398ZM25.768 154.52V157.511C27.4249 157.511 28.768 156.172 28.768 154.52H25.768ZM23.104 154.52H20.104C20.104 156.172 21.4471 157.511 23.104 157.511V154.52ZM23.104 132.389H25.768V126.407H23.104V132.389ZM22.768 129.398V154.52H28.768V129.398H22.768ZM25.768 151.529H23.104V157.511H25.768V151.529ZM26.104 154.52V129.398H20.104V154.52H26.104ZM63.7393 129.398H66.7393C66.7393 127.746 65.3961 126.407 63.7393 126.407V129.398ZM63.7393 154.52V157.511C65.3961 157.511 66.7393 156.172 66.7393 154.52H63.7393ZM61.1833 154.52H58.1833C58.1833 156.172 59.5264 157.511 61.1833 157.511V154.52ZM61.1833 134.423H64.1833C64.1833 133.072 63.2749 131.888 61.9668 131.536C60.6587 131.183 59.2758 131.748 58.5925 132.914L61.1833 134.423ZM51.2833 151.326V154.317C52.3499 154.317 53.3362 153.753 53.874 152.834L51.2833 151.326ZM50.0233 151.326L47.4368 152.841C47.9756 153.756 48.9597 154.317 50.0233 154.317V151.326ZM40.1233 134.53L42.7098 133.015C42.0241 131.852 40.6418 131.29 39.3357 131.644C38.0297 131.999 37.1233 133.18 37.1233 134.53H40.1233ZM40.1233 154.52V157.511C41.7801 157.511 43.1233 156.172 43.1233 154.52H40.1233ZM37.5673 154.52H34.5673C34.5673 156.172 35.9104 157.511 37.5673 157.511V154.52ZM37.5673 129.398V126.407C35.9104 126.407 34.5673 127.746 34.5673 129.398H37.5673ZM39.7633 129.398L42.3519 127.887C41.8136 126.971 40.8284 126.407 39.7633 126.407V129.398ZM50.7073 148.024L48.1187 149.536C48.6581 150.454 49.6464 151.017 50.7138 151.015C51.7811 151.013 52.7669 150.445 53.3024 149.525L50.7073 148.024ZM61.5433 129.398V126.407C60.4736 126.407 59.4848 126.976 58.9481 127.898L61.5433 129.398ZM60.7393 129.398V154.52H66.7393V129.398H60.7393ZM63.7393 151.529H61.1833V157.511H63.7393V151.529ZM64.1833 154.52V134.423H58.1833V154.52H64.1833ZM58.5925 132.914L48.6925 149.818L53.874 152.834L63.774 135.931L58.5925 132.914ZM51.2833 148.335H50.0233V154.317H51.2833V148.335ZM52.6098 149.811L42.7098 133.015L37.5368 136.046L47.4368 152.841L52.6098 149.811ZM37.1233 134.53V154.52H43.1233V134.53H37.1233ZM40.1233 151.529H37.5673V157.511H40.1233V151.529ZM40.5673 154.52V129.398H34.5673V154.52H40.5673ZM37.5673 132.389H39.7633V126.407H37.5673V132.389ZM37.1747 130.909L48.1187 149.536L53.2959 146.513L42.3519 127.887L37.1747 130.909ZM53.3024 149.525L64.1384 130.898L58.9481 127.898L48.1121 146.524L53.3024 149.525ZM61.5433 132.389H63.7393V126.407H61.5433V132.389ZM92.5421 131.695L90.6097 133.983L92.5421 131.695ZM92.5421 144.328L94.4567 146.631C94.4626 146.626 94.4686 146.621 94.4745 146.616L92.5421 144.328ZM78.2141 146.589V143.598C76.5572 143.598 75.2141 144.937 75.2141 146.589H78.2141ZM78.2141 154.52V157.511C79.8709 157.511 81.2141 156.172 81.2141 154.52H78.2141ZM75.5501 154.52H72.5501C72.5501 156.172 73.8932 157.511 75.5501 157.511V154.52ZM75.5501 129.398V126.407C73.8932 126.407 72.5501 127.746 72.5501 129.398H75.5501ZM90.6341 142.641L92.5338 144.956C92.5422 144.949 92.5505 144.942 92.5588 144.935L90.6341 142.641ZM90.6341 133.346L88.7094 135.64C88.7177 135.647 88.726 135.654 88.7344 135.661L90.6341 133.346ZM78.2141 131.695V128.704C76.5572 128.704 75.2141 130.043 75.2141 131.695H78.2141ZM78.2141 144.256H75.2141C75.2141 145.908 76.5572 147.247 78.2141 147.247V144.256ZM84.9821 132.389C87.7384 132.389 89.4897 133.043 90.6097 133.983L94.4745 129.407C91.9465 127.285 88.6578 126.407 84.9821 126.407V132.389ZM90.6097 133.983C91.6657 134.869 92.2781 136.088 92.2781 138.011H98.2781C98.2781 134.575 97.0665 131.583 94.4745 129.407L90.6097 133.983ZM92.2781 138.011C92.2781 139.934 91.6657 141.154 90.6097 142.04L94.4745 146.616C97.0665 144.439 98.2781 141.448 98.2781 138.011H92.2781ZM90.6275 142.025C89.5069 142.951 87.7487 143.598 84.9821 143.598V149.579C88.6475 149.579 91.9293 148.719 94.4567 146.631L90.6275 142.025ZM84.9821 143.598H78.2141V149.579H84.9821V143.598ZM75.2141 146.589V154.52H81.2141V146.589H75.2141ZM78.2141 151.529H75.5501V157.511H78.2141V151.529ZM78.5501 154.52V129.398H72.5501V154.52H78.5501ZM75.5501 132.389H84.9821V126.407H75.5501V132.389ZM84.9101 147.247C87.7873 147.247 90.4783 146.633 92.5338 144.956L88.7344 140.326C88.1499 140.803 87.0249 141.265 84.9101 141.265V147.247ZM92.5588 144.935C94.6716 143.173 95.6141 140.727 95.6141 138.011H89.6141C89.6141 139.268 89.2366 139.908 88.7094 140.347L92.5588 144.935ZM95.6141 138.011C95.6141 135.276 94.6886 132.789 92.5338 131.031L88.7344 135.661C89.2196 136.056 89.6141 136.68 89.6141 138.011H95.6141ZM92.5588 131.052C90.5016 129.336 87.8003 128.704 84.9101 128.704V134.686C87.0118 134.686 88.1266 135.154 88.7094 135.64L92.5588 131.052ZM84.9101 128.704H78.2141V134.686H84.9101V128.704ZM75.2141 131.695V144.256H81.2141V131.695H75.2141ZM78.2141 147.247H84.9101V141.265H78.2141V147.247ZM122.458 152.223H125.458C125.458 150.571 124.115 149.233 122.458 149.233V152.223ZM122.458 154.52V157.511C124.115 157.511 125.458 156.172 125.458 154.52H122.458ZM104.638 154.52H101.638C101.638 156.172 102.982 157.511 104.638 157.511V154.52ZM104.638 129.398V126.407C102.982 126.407 101.638 127.746 101.638 129.398H104.638ZM121.918 129.398H124.918C124.918 127.746 123.575 126.407 121.918 126.407V129.398ZM121.918 131.695V134.686C123.575 134.686 124.918 133.347 124.918 131.695H121.918ZM107.302 131.695V128.704C105.646 128.704 104.302 130.043 104.302 131.695H107.302ZM107.302 140.631H104.302C104.302 142.283 105.646 143.622 107.302 143.622V140.631ZM120.334 140.631H123.334C123.334 138.979 121.991 137.641 120.334 137.641V140.631ZM120.334 142.892V145.883C121.991 145.883 123.334 144.544 123.334 142.892H120.334ZM107.302 142.892V139.902C105.646 139.902 104.302 141.24 104.302 142.892H107.302ZM107.302 152.223H104.302C104.302 153.875 105.646 155.214 107.302 155.214V152.223ZM119.458 152.223V154.52H125.458V152.223H119.458ZM122.458 151.529H104.638V157.511H122.458V151.529ZM107.638 154.52V129.398H101.638V154.52H107.638ZM104.638 132.389H121.918V126.407H104.638V132.389ZM118.918 129.398V131.695H124.918V129.398H118.918ZM121.918 128.704H107.302V134.686H121.918V128.704ZM104.302 131.695V140.631H110.302V131.695H104.302ZM107.302 143.622H120.334V137.641H107.302V143.622ZM117.334 140.631V142.892H123.334V140.631H117.334ZM120.334 139.902H107.302V145.883H120.334V139.902ZM104.302 142.892V152.223H110.302V142.892H104.302ZM107.302 155.214H122.458V149.233H107.302V155.214ZM149.528 154.52L147.084 156.254C147.646 157.042 148.557 157.511 149.528 157.511V154.52ZM143.768 146.445L146.213 144.712C145.582 143.827 144.52 143.353 143.437 143.472L143.768 146.445ZM134.984 146.553V143.562C133.328 143.562 131.984 144.901 131.984 146.553H134.984ZM134.984 154.52V157.511C136.641 157.511 137.984 156.172 137.984 154.52H134.984ZM132.32 154.52H129.32C129.32 156.172 130.664 157.511 132.32 157.511V154.52ZM132.32 129.398V126.407C130.664 126.407 129.32 127.746 129.32 129.398H132.32ZM149.312 131.695L147.38 133.983L149.312 131.695ZM150.536 143L148.121 141.225L148.116 141.233L150.536 143ZM146.288 145.907L145.362 143.063C144.453 143.357 143.739 144.065 143.44 144.969C143.14 145.874 143.291 146.867 143.845 147.642L146.288 145.907ZM152.444 154.52V157.511C153.568 157.511 154.597 156.886 155.111 155.89C155.626 154.895 155.539 153.697 154.888 152.785L152.444 154.52ZM147.404 142.641L149.329 144.935L147.404 142.641ZM147.404 133.346L145.48 135.64C145.488 135.647 145.496 135.654 145.505 135.661L147.404 133.346ZM134.984 131.695V128.704C133.328 128.704 131.984 130.043 131.984 131.695H134.984ZM134.984 144.292H131.984C131.984 145.944 133.328 147.283 134.984 147.283V144.292ZM151.973 152.787L146.213 144.712L141.324 148.179L147.084 156.254L151.973 152.787ZM143.437 143.472C142.906 143.531 142.345 143.562 141.752 143.562V149.544C142.552 149.544 143.335 149.503 144.1 149.418L143.437 143.472ZM141.752 143.562H134.984V149.544H141.752V143.562ZM131.984 146.553V154.52H137.984V146.553H131.984ZM134.984 151.529H132.32V157.511H134.984V151.529ZM135.32 154.52V129.398H129.32V154.52H135.32ZM132.32 132.389H141.752V126.407H132.32V132.389ZM141.752 132.389C144.509 132.389 146.26 133.043 147.38 133.983L151.245 129.407C148.717 127.285 145.428 126.407 141.752 126.407V132.389ZM147.38 133.983C148.436 134.869 149.048 136.088 149.048 138.011H155.048C155.048 134.575 153.837 131.583 151.245 129.407L147.38 133.983ZM149.048 138.011C149.048 139.44 148.691 140.455 148.121 141.225L152.952 144.774C154.397 142.817 155.048 140.507 155.048 138.011H149.048ZM148.116 141.233C147.563 141.986 146.714 142.625 145.362 143.063L147.215 148.751C149.559 147.992 151.542 146.693 152.957 144.766L148.116 141.233ZM143.845 147.642L150.001 156.256L154.888 152.785L148.732 144.171L143.845 147.642ZM152.444 151.529H149.528V157.511H152.444V151.529ZM141.68 147.283C144.571 147.283 147.272 146.651 149.329 144.935L145.48 140.347C144.897 140.833 143.782 141.301 141.68 141.301V147.283ZM149.329 144.935C151.442 143.173 152.384 140.727 152.384 138.011H146.384C146.384 139.268 146.007 139.908 145.48 140.347L149.329 144.935ZM152.384 138.011C152.384 135.276 151.459 132.789 149.304 131.031L145.505 135.661C145.99 136.056 146.384 136.68 146.384 138.011H152.384ZM149.329 131.052C147.272 129.336 144.571 128.704 141.68 128.704V134.686C143.782 134.686 144.897 135.154 145.48 135.64L149.329 131.052ZM141.68 128.704H134.984V134.686H141.68V128.704ZM131.984 131.695V144.292H137.984V131.695H131.984ZM134.984 147.283H141.68V141.301H134.984V147.283ZM164.6 131.695V128.704C162.943 128.704 161.6 130.043 161.6 131.695H164.6ZM164.6 141.564H161.6C161.6 143.216 162.943 144.555 164.6 144.555V141.564ZM177.632 141.564H180.632C180.632 139.912 179.289 138.574 177.632 138.574V141.564ZM177.632 143.861V146.852C179.289 146.852 180.632 145.513 180.632 143.861H177.632ZM164.6 143.861V140.871C162.943 140.871 161.6 142.209 161.6 143.861H164.6ZM164.6 154.52V157.511C166.257 157.511 167.6 156.172 167.6 154.52H164.6ZM161.936 154.52H158.936C158.936 156.172 160.279 157.511 161.936 157.511V154.52ZM161.936 129.398V126.407C160.279 126.407 158.936 127.746 158.936 129.398H161.936ZM179.216 129.398H182.216C182.216 127.746 180.873 126.407 179.216 126.407V129.398ZM179.216 131.695V134.686C180.873 134.686 182.216 133.347 182.216 131.695H179.216ZM161.6 131.695V141.564H167.6V131.695H161.6ZM164.6 144.555H177.632V138.574H164.6V144.555ZM174.632 141.564V143.861H180.632V141.564H174.632ZM177.632 140.871H164.6V146.852H177.632V140.871ZM161.6 143.861V154.52H167.6V143.861H161.6ZM164.6 151.529H161.936V157.511H164.6V151.529ZM164.936 154.52V129.398H158.936V154.52H164.936ZM161.936 132.389H179.216V126.407H161.936V132.389ZM176.216 129.398V131.695H182.216V129.398H176.216ZM179.216 128.704H164.6V134.686H179.216V128.704ZM206.137 152.223H209.137C209.137 150.571 207.794 149.233 206.137 149.233V152.223ZM206.137 154.52V157.511C207.794 157.511 209.137 156.172 209.137 154.52H206.137ZM188.317 154.52H185.317C185.317 156.172 186.66 157.511 188.317 157.511V154.52ZM188.317 129.398V126.407C186.66 126.407 185.317 127.746 185.317 129.398H188.317ZM205.597 129.398H208.597C208.597 127.746 207.254 126.407 205.597 126.407V129.398ZM205.597 131.695V134.686C207.254 134.686 208.597 133.347 208.597 131.695H205.597ZM190.981 131.695V128.704C189.324 128.704 187.981 130.043 187.981 131.695H190.981ZM190.981 140.631H187.981C187.981 142.283 189.324 143.622 190.981 143.622V140.631ZM204.013 140.631H207.013C207.013 138.979 205.67 137.641 204.013 137.641V140.631ZM204.013 142.892V145.883C205.67 145.883 207.013 144.544 207.013 142.892H204.013ZM190.981 142.892V139.902C189.324 139.902 187.981 141.24 187.981 142.892H190.981ZM190.981 152.223H187.981C187.981 153.875 189.324 155.214 190.981 155.214V152.223ZM203.137 152.223V154.52H209.137V152.223H203.137ZM206.137 151.529H188.317V157.511H206.137V151.529ZM191.317 154.52V129.398H185.317V154.52H191.317ZM188.317 132.389H205.597V126.407H188.317V132.389ZM202.597 129.398V131.695H208.597V129.398H202.597ZM205.597 128.704H190.981V134.686H205.597V128.704ZM187.981 131.695V140.631H193.981V131.695H187.981ZM190.981 143.622H204.013V137.641H190.981V143.622ZM201.013 140.631V142.892H207.013V140.631H201.013ZM204.013 139.902H190.981V145.883H204.013V139.902ZM187.981 142.892V152.223H193.981V142.892H187.981ZM190.981 155.214H206.137V149.233H190.981V155.214ZM220.175 153.085L218.721 155.7C218.725 155.702 218.73 155.705 218.734 155.707L220.175 153.085ZM215.459 148.527L212.857 150.014C212.864 150.026 212.871 150.039 212.878 150.051L215.459 148.527ZM215.459 135.427L212.87 133.916L212.864 133.926L215.459 135.427ZM220.211 130.834L218.77 128.211L220.211 130.834ZM232.163 130.116L231.064 132.898L232.163 130.116ZM236.195 132.843L238.317 134.958C239.454 133.824 239.492 131.998 238.403 130.819L236.195 132.843ZM234.503 134.53L232.369 136.632C232.931 137.199 233.695 137.519 234.494 137.521C235.293 137.523 236.06 137.208 236.625 136.645L234.503 134.53ZM221.615 132.915L220.152 130.304L221.615 132.915ZM217.763 136.648L215.181 135.126C215.175 135.136 215.169 135.145 215.163 135.155L217.763 136.648ZM217.763 147.271L215.163 148.763C215.169 148.773 215.175 148.782 215.181 148.792L217.763 147.271ZM221.615 151.003L220.152 153.614L221.615 151.003ZM234.503 149.352L236.625 147.238C236.055 146.67 235.281 146.354 234.476 146.361C233.671 146.368 232.903 146.698 232.344 147.277L234.503 149.352ZM236.195 151.039L238.403 153.064C239.492 151.884 239.454 150.058 238.317 148.925L236.195 151.039ZM232.127 153.802L233.227 156.585C233.234 156.582 233.241 156.579 233.249 156.577L232.127 153.802ZM226.943 151.745C224.907 151.745 223.153 151.3 221.616 150.462L218.734 155.707C221.23 157.07 223.988 157.726 226.943 157.726V151.745ZM221.63 150.469C220.1 149.623 218.918 148.479 218.04 147.002L212.878 150.051C214.304 152.451 216.267 154.345 218.721 155.7L221.63 150.469ZM218.062 147.039C217.212 145.561 216.767 143.891 216.767 141.959H210.767C210.767 144.86 211.45 147.569 212.857 150.014L218.062 147.039ZM216.767 141.959C216.767 140.027 217.212 138.375 218.054 136.929L212.864 133.926C211.45 136.356 210.767 139.058 210.767 141.959H216.767ZM218.048 136.939C218.923 135.448 220.109 134.299 221.652 133.457L218.77 128.211C216.282 129.57 214.299 131.483 212.87 133.916L218.048 136.939ZM221.652 133.457C223.189 132.618 224.943 132.174 226.979 132.174V126.192C224.024 126.192 221.266 126.848 218.77 128.211L221.652 133.457ZM226.979 132.174C228.512 132.174 229.863 132.427 231.064 132.898L233.263 127.334C231.295 126.561 229.19 126.192 226.979 126.192V132.174ZM231.064 132.898C232.245 133.362 233.204 134.02 233.988 134.868L238.403 130.819C236.978 129.275 235.25 128.114 233.263 127.334L231.064 132.898ZM234.074 130.729L232.382 132.416L236.625 136.645L238.317 134.958L234.074 130.729ZM236.637 132.429C234.063 129.83 230.79 128.561 227.051 128.561V134.542C229.313 134.542 231.008 135.259 232.369 136.632L236.637 132.429ZM227.051 128.561C224.582 128.561 222.26 129.13 220.152 130.304L223.079 135.526C224.234 134.882 225.537 134.542 227.051 134.542V128.561ZM220.152 130.304C218.065 131.468 216.391 133.084 215.181 135.126L220.346 138.169C221.008 137.053 221.902 136.181 223.079 135.526L220.152 130.304ZM215.163 135.155C213.969 137.223 213.395 139.515 213.395 141.959H219.395C219.395 140.48 219.733 139.231 220.363 138.14L215.163 135.155ZM213.395 141.959C213.395 144.404 213.969 146.695 215.163 148.763L220.363 145.778C219.733 144.688 219.395 143.439 219.395 141.959H213.395ZM215.181 148.792C216.391 150.835 218.065 152.451 220.152 153.614L223.079 148.392C221.902 147.737 221.008 146.865 220.346 145.749L215.181 148.792ZM220.152 153.614C222.26 154.788 224.582 155.358 227.051 155.358V149.376C225.537 149.376 224.234 149.036 223.079 148.392L220.152 153.614ZM227.051 155.358C230.818 155.358 234.105 154.073 236.663 151.428L232.344 147.277C231.013 148.651 229.333 149.376 227.051 149.376V155.358ZM232.382 151.467L234.074 153.153L238.317 148.925L236.625 147.238L232.382 151.467ZM233.988 149.014C233.204 149.863 232.227 150.537 231.006 151.028L233.249 156.577C235.243 155.775 236.978 154.608 238.403 153.064L233.988 149.014ZM231.028 151.02C229.827 151.492 228.476 151.745 226.943 151.745V157.726C229.154 157.726 231.259 157.357 233.227 156.585L231.028 151.02ZM252.17 131.695H255.17C255.17 130.043 253.827 128.704 252.17 128.704V131.695ZM243.314 131.695H240.314C240.314 133.347 241.657 134.686 243.314 134.686V131.695ZM243.314 129.398V126.407C241.657 126.407 240.314 127.746 240.314 129.398H243.314ZM263.69 129.398H266.69C266.69 127.746 265.347 126.407 263.69 126.407V129.398ZM263.69 131.695V134.686C265.347 134.686 266.69 133.347 266.69 131.695H263.69ZM254.834 131.695V128.704C253.177 128.704 251.834 130.043 251.834 131.695H254.834ZM254.834 154.52V157.511C256.491 157.511 257.834 156.172 257.834 154.52H254.834ZM252.17 154.52H249.17C249.17 156.172 250.513 157.511 252.17 157.511V154.52ZM252.17 128.704H243.314V134.686H252.17V128.704ZM246.314 131.695V129.398H240.314V131.695H246.314ZM243.314 132.389H263.69V126.407H243.314V132.389ZM260.69 129.398V131.695H266.69V129.398H260.69ZM263.69 128.704H254.834V134.686H263.69V128.704ZM251.834 131.695V154.52H257.834V131.695H251.834ZM254.834 151.529H252.17V157.511H254.834V151.529ZM255.17 154.52V131.695H249.17V154.52H255.17Z" fill="white"/>
<path d="M194.28 165.865H196.28C196.28 164.763 195.385 163.871 194.28 163.871V165.865ZM189.08 165.865H187.08C187.08 166.966 187.975 167.859 189.08 167.859V165.865ZM189.08 165.486V163.492C187.975 163.492 187.08 164.385 187.08 165.486H189.08ZM199.88 165.486H201.88C201.88 164.385 200.985 163.492 199.88 163.492V165.486ZM199.88 165.865V167.859C200.985 167.859 201.88 166.966 201.88 165.865H199.88ZM194.68 165.865V163.871C193.575 163.871 192.68 164.763 192.68 165.865H194.68ZM194.68 179.443V181.437C195.785 181.437 196.68 180.544 196.68 179.443H194.68ZM194.28 179.443H192.28C192.28 180.544 193.175 181.437 194.28 181.437V179.443ZM194.28 163.871H189.08V167.859H194.28V163.871ZM191.08 165.865V165.486H187.08V165.865H191.08ZM189.08 167.48H199.88V163.492H189.08V167.48ZM197.88 165.486V165.865H201.88V165.486H197.88ZM199.88 163.871H194.68V167.859H199.88V163.871ZM192.68 165.865V179.443H196.68V165.865H192.68ZM194.68 177.449H194.28V181.437H194.68V177.449ZM196.28 179.443V165.865H192.28V179.443H196.28ZM213.937 179.064H215.937C215.937 177.962 215.042 177.07 213.937 177.07V179.064ZM213.937 179.443V181.437C215.042 181.437 215.937 180.544 215.937 179.443H213.937ZM204.617 179.443H202.617C202.617 180.544 203.512 181.437 204.617 181.437V179.443ZM204.617 165.486V163.492C203.512 163.492 202.617 164.385 202.617 165.486H204.617ZM213.637 165.486H215.637C215.637 164.385 214.742 163.492 213.637 163.492V165.486ZM213.637 165.865V167.859C214.742 167.859 215.637 166.966 215.637 165.865H213.637ZM205.017 165.865V163.871C203.912 163.871 203.017 164.763 203.017 165.865H205.017ZM205.017 172.165H203.017C203.017 173.267 203.912 174.159 205.017 174.159V172.165ZM212.737 172.165H214.737C214.737 171.064 213.842 170.172 212.737 170.172V172.165ZM212.737 172.544V174.538C213.842 174.538 214.737 173.646 214.737 172.544H212.737ZM205.017 172.544V170.55C203.912 170.55 203.017 171.443 203.017 172.544H205.017ZM205.017 179.064H203.017C203.017 180.165 203.912 181.058 205.017 181.058V179.064ZM211.937 179.064V179.443H215.937V179.064H211.937ZM213.937 177.449H204.617V181.437H213.937V177.449ZM206.617 179.443V165.486H202.617V179.443H206.617ZM204.617 167.48H213.637V163.492H204.617V167.48ZM211.637 165.486V165.865H215.637V165.486H211.637ZM213.637 163.871H205.017V167.859H213.637V163.871ZM203.017 165.865V172.165H207.017V165.865H203.017ZM205.017 174.159H212.737V170.172H205.017V174.159ZM210.737 172.165V172.544H214.737V172.165H210.737ZM212.737 170.55H205.017V174.538H212.737V170.55ZM203.017 172.544V179.064H207.017V172.544H203.017ZM205.017 181.058H213.937V177.07H205.017V181.058ZM230.976 165.486H232.976C232.976 164.385 232.081 163.492 230.976 163.492V165.486ZM230.976 179.443V181.437C232.081 181.437 232.976 180.544 232.976 179.443H230.976ZM230.636 179.443L229.055 180.663C229.433 181.15 230.017 181.437 230.636 181.437V179.443ZM220.376 166.224L221.958 165.004C221.435 164.33 220.539 164.062 219.73 164.337C218.92 164.613 218.376 165.371 218.376 166.224H220.376ZM220.376 179.443V181.437C221.481 181.437 222.376 180.544 222.376 179.443H220.376ZM219.976 179.443H217.976C217.976 180.544 218.872 181.437 219.976 181.437V179.443ZM219.976 165.486V163.492C218.872 163.492 217.976 164.385 217.976 165.486H219.976ZM220.316 165.486L221.898 164.266C221.519 163.778 220.935 163.492 220.316 163.492V165.486ZM230.576 178.705L228.995 179.925C229.518 180.599 230.414 180.867 231.223 180.592C232.032 180.316 232.576 179.557 232.576 178.705H230.576ZM230.576 165.486V163.492C229.472 163.492 228.576 164.385 228.576 165.486H230.576ZM228.976 165.486V179.443H232.976V165.486H228.976ZM230.976 177.449H230.636V181.437H230.976V177.449ZM232.218 178.223L221.958 165.004L218.795 167.444L229.055 180.663L232.218 178.223ZM218.376 166.224V179.443H222.376V166.224H218.376ZM220.376 177.449H219.976V181.437H220.376V177.449ZM221.976 179.443V165.486H217.976V179.443H221.976ZM219.976 167.48H220.316V163.492H219.976V167.48ZM218.735 166.706L228.995 179.925L232.158 177.485L221.898 164.266L218.735 166.706ZM232.576 178.705V165.486H228.576V178.705H232.576ZM230.576 167.48H230.976V163.492H230.576V167.48ZM238.865 178.964L238.093 180.804C238.101 180.808 238.109 180.81 238.117 180.813L238.865 178.964ZM236.805 177.529L235.444 176.067C234.67 176.784 234.588 177.976 235.257 178.791L236.805 177.529ZM237.085 177.269L238.608 175.978C238.255 175.564 237.747 175.312 237.202 175.279C236.658 175.247 236.123 175.438 235.724 175.808L237.085 177.269ZM239.025 178.605L238.237 180.438C238.245 180.442 238.253 180.445 238.262 180.449L239.025 178.605ZM244.985 178.266L246.216 179.838L246.22 179.835L244.985 178.266ZM245.525 174.299L244.043 175.638L245.525 174.299ZM244.085 173.342L243.373 175.205C243.377 175.207 243.382 175.209 243.387 175.21L244.085 173.342ZM241.805 172.684L241.325 174.62C241.332 174.621 241.338 174.623 241.345 174.624L241.805 172.684ZM239.365 171.966L238.622 173.817C238.634 173.822 238.646 173.826 238.658 173.831L239.365 171.966ZM237.825 170.889L236.291 172.169C236.304 172.184 236.317 172.199 236.33 172.214L237.825 170.889ZM237.705 167.181L239.401 168.238L237.705 167.181ZM244.085 165.785L243.452 167.676C243.463 167.68 243.473 167.683 243.484 167.687L244.085 165.785ZM245.945 166.702L247.593 167.832C248.202 166.949 248.001 165.742 247.138 165.102L245.945 166.702ZM245.725 167.021L244.544 168.63C244.98 168.948 245.527 169.077 246.06 168.987C246.593 168.896 247.066 168.595 247.373 168.151L245.725 167.021ZM243.885 166.124L243.275 168.023C243.29 168.028 243.305 168.032 243.32 168.037L243.885 166.124ZM238.705 166.702L239.954 168.259C239.96 168.254 239.965 168.251 239.971 168.246L238.705 166.702ZM238.185 170.69L236.682 172.006C236.689 172.014 236.696 172.021 236.703 172.029L238.185 170.69ZM239.625 171.647L240.322 169.779L239.625 171.647ZM241.945 172.325L242.43 170.391L242.423 170.389L241.945 172.325ZM244.365 173.063L243.622 174.914C243.634 174.919 243.646 174.923 243.658 174.928L244.365 173.063ZM245.885 174.119L244.369 175.42C244.375 175.427 244.381 175.434 244.387 175.441L245.885 174.119ZM245.985 177.768L244.308 176.681L245.985 177.768ZM244.385 179.044L245.181 180.873C245.186 180.87 245.191 180.868 245.197 180.866L244.385 179.044ZM241.725 177.509C240.954 177.509 240.256 177.373 239.612 177.115L238.117 180.813C239.26 181.273 240.469 181.496 241.725 181.496V177.509ZM239.636 177.125C238.963 176.845 238.575 176.538 238.352 176.267L235.257 178.791C235.994 179.69 236.979 180.34 238.093 180.804L239.636 177.125ZM238.165 178.99L238.445 178.731L235.724 175.808L235.444 176.067L238.165 178.99ZM235.561 178.56C236.266 179.388 237.196 179.993 238.237 180.438L239.812 176.773C239.173 176.5 238.81 176.215 238.608 175.978L235.561 178.56ZM238.262 180.449C239.354 180.897 240.507 181.118 241.705 181.118V177.13C241.009 177.13 240.375 177.004 239.788 176.762L238.262 180.449ZM241.705 181.118C243.369 181.118 244.982 180.799 246.216 179.838L243.753 176.695C243.52 176.877 242.947 177.13 241.705 177.13V181.118ZM246.22 179.835C247.431 178.885 248.105 177.565 248.105 176.013H244.105C244.105 176.297 244.031 176.478 243.749 176.698L246.22 179.835ZM248.105 176.013C248.105 174.93 247.804 173.837 247.007 172.96L244.043 175.638C244.044 175.64 244.046 175.642 244.048 175.646C244.051 175.65 244.057 175.66 244.064 175.683C244.08 175.729 244.105 175.831 244.105 176.013H248.105ZM247.007 172.96C246.391 172.283 245.636 171.79 244.782 171.473L243.387 175.21C243.679 175.319 243.884 175.464 244.043 175.638L247.007 172.96ZM244.797 171.478C244.119 171.221 243.263 170.978 242.264 170.744L241.345 174.624C242.266 174.841 242.93 175.036 243.373 175.205L244.797 171.478ZM242.284 170.748C241.292 170.504 240.565 170.286 240.071 170.101L238.658 173.831C239.364 174.097 240.264 174.359 241.325 174.62L242.284 170.748ZM240.107 170.115C239.794 169.99 239.538 169.811 239.319 169.564L236.33 172.214C236.964 172.925 237.735 173.463 238.622 173.817L240.107 170.115ZM239.358 169.609C239.319 169.562 239.205 169.405 239.205 168.935H235.205C235.205 170.088 235.504 171.232 236.291 172.169L239.358 169.609ZM239.205 168.935C239.205 168.664 239.27 168.447 239.401 168.238L236.009 166.124C235.473 166.978 235.205 167.93 235.205 168.935H239.205ZM239.401 168.238C239.481 168.11 239.658 167.916 240.09 167.721L238.44 164.088C237.458 164.532 236.595 165.189 236.009 166.124L239.401 168.238ZM240.09 167.721C240.465 167.552 241.037 167.42 241.885 167.42V163.432C240.652 163.432 239.478 163.62 238.44 164.088L240.09 167.721ZM241.885 167.42C242.413 167.42 242.933 167.504 243.452 167.676L244.717 163.894C243.796 163.588 242.85 163.432 241.885 163.432V167.42ZM243.484 167.687C244.025 167.857 244.437 168.07 244.751 168.302L247.138 165.102C246.412 164.564 245.584 164.165 244.685 163.883L243.484 167.687ZM244.296 165.573L244.076 165.892L247.373 168.151L247.593 167.832L244.296 165.573ZM246.906 165.412C246.164 164.871 245.34 164.472 244.449 164.211L243.32 168.037C243.789 168.175 244.192 168.374 244.544 168.63L246.906 165.412ZM244.494 164.225C243.644 163.954 242.779 163.811 241.905 163.811V167.799C242.337 167.799 242.791 167.869 243.275 168.023L244.494 164.225ZM241.905 163.811C240.256 163.811 238.665 164.158 237.438 165.159L239.971 168.246C240.211 168.049 240.753 167.799 241.905 167.799V163.811ZM237.455 165.145C236.259 166.099 235.605 167.418 235.605 168.955H239.605C239.605 168.658 239.684 168.475 239.954 168.259L237.455 165.145ZM235.605 168.955C235.605 170.042 235.906 171.126 236.682 172.006L239.687 169.374C239.677 169.363 239.663 169.345 239.647 169.297C239.629 169.243 239.605 169.137 239.605 168.955H235.605ZM236.703 172.029C237.318 172.706 238.073 173.199 238.927 173.515L240.322 169.779C240.03 169.67 239.825 169.525 239.667 169.351L236.703 172.029ZM238.927 173.515C239.602 173.766 240.459 174.014 241.466 174.261L242.423 170.389C241.484 170.158 240.793 169.953 240.322 169.779L238.927 173.515ZM241.459 174.259C242.431 174.501 243.141 174.722 243.622 174.914L245.107 171.211C244.388 170.924 243.484 170.653 242.43 170.391L241.459 174.259ZM243.658 174.928C243.949 175.037 244.177 175.198 244.369 175.42L247.4 172.818C246.766 172.084 245.98 171.539 245.071 171.197L243.658 174.928ZM244.387 175.441C244.393 175.448 244.505 175.561 244.505 176.013H248.505C248.505 174.871 248.202 173.721 247.382 172.797L244.387 175.441ZM244.505 176.013C244.505 176.269 244.442 176.475 244.308 176.681L247.661 178.855C248.22 177.997 248.505 177.034 248.505 176.013H244.505ZM244.308 176.681C244.217 176.82 244.023 177.022 243.572 177.222L245.197 180.866C246.186 180.428 247.059 179.779 247.661 178.855L244.308 176.681ZM243.588 177.215C243.21 177.379 242.616 177.509 241.725 177.509V181.496C242.967 181.496 244.146 181.321 245.181 180.873L243.588 177.215ZM261.636 179.064H263.636C263.636 177.962 262.741 177.07 261.636 177.07V179.064ZM261.636 179.443V181.437C262.741 181.437 263.636 180.544 263.636 179.443H261.636ZM252.316 179.443H250.316C250.316 180.544 251.212 181.437 252.316 181.437V179.443ZM252.316 165.486V163.492C251.212 163.492 250.316 164.385 250.316 165.486H252.316ZM261.336 165.486H263.336C263.336 164.385 262.441 163.492 261.336 163.492V165.486ZM261.336 165.865V167.859C262.441 167.859 263.336 166.966 263.336 165.865H261.336ZM252.716 165.865V163.871C251.612 163.871 250.716 164.763 250.716 165.865H252.716ZM252.716 172.165H250.716C250.716 173.267 251.612 174.159 252.716 174.159V172.165ZM260.436 172.165H262.436C262.436 171.064 261.541 170.172 260.436 170.172V172.165ZM260.436 172.544V174.538C261.541 174.538 262.436 173.646 262.436 172.544H260.436ZM252.716 172.544V170.55C251.612 170.55 250.716 171.443 250.716 172.544H252.716ZM252.716 179.064H250.716C250.716 180.165 251.612 181.058 252.716 181.058V179.064ZM259.636 179.064V179.443H263.636V179.064H259.636ZM261.636 177.449H252.316V181.437H261.636V177.449ZM254.316 179.443V165.486H250.316V179.443H254.316ZM252.316 167.48H261.336V163.492H252.316V167.48ZM259.336 165.486V165.865H263.336V165.486H259.336ZM261.336 163.871H252.716V167.859H261.336V163.871ZM250.716 165.865V172.165H254.716V165.865H250.716ZM252.716 174.159H260.436V170.172H252.716V174.159ZM258.436 172.165V172.544H262.436V172.165H258.436ZM260.436 170.55H252.716V174.538H260.436V170.55ZM250.716 172.544V179.064H254.716V172.544H250.716ZM252.716 181.058H261.636V177.07H252.716V181.058Z" fill="white"/>
</mask>
<g mask="url(#mask0_44_671)">
<path d="M0 136.175C9.46667 139.421 32.0667 144.839 51 145.766C69.9333 146.729 84.5 143.089 124.5 141.593C164.5 140.098 174 145.766 217.5 145.766C261 145.766 284 130.879 284 130.879V321.644H274.533C265.067 321.644 246.133 321.644 227.2 321.644C208.267 321.644 189.333 321.644 170.4 321.644C151.467 321.644 132.533 321.644 113.6 321.644C94.6667 321.644 75.7333 321.644 56.8 321.644C37.8667 321.644 18.9333 321.644 9.46667 321.644H0V136.175Z" fill="white"/>
</g>
</g>
<defs>
<clipPath id="clip0_44_671">
<rect width="284" height="322" fill="white"/>
</clipPath>
</defs>
</svg>
