<svg width="284" height="322" viewBox="0 0 284 322" fill="none" xmlns="http://www.w3.org/2000/svg">
<rect width="284" height="322" fill="white"/>
<path d="M284 0H0V320.012H284V0Z" fill="#001220"/>
<path d="M64.768 131.289V141.127H77.8V143.417H64.768V154.043H62.104V128.999H79.384V131.289H64.768ZM98.637 154.258C95.3733 154.258 92.8293 153.328 91.0053 151.467C89.1813 149.607 88.2693 146.9 88.2693 143.346V128.999H90.9333V143.238C90.9333 146.148 91.5933 148.319 92.9133 149.75C94.2333 151.181 96.141 151.897 98.637 151.897C101.157 151.897 103.077 151.181 104.397 149.75C105.717 148.319 106.377 146.148 106.377 143.238V128.999H108.969V143.346C108.969 146.9 108.057 149.607 106.233 151.467C104.433 153.328 101.901 154.258 98.637 154.258ZM125.001 131.289H116.145V128.999H136.521V131.289H127.665V154.043H125.001V131.289ZM154.036 154.258C150.772 154.258 148.228 153.328 146.404 151.467C144.58 149.607 143.668 146.9 143.668 143.346V128.999H146.332V143.238C146.332 146.148 146.992 148.319 148.312 149.75C149.632 151.181 151.54 151.897 154.036 151.897C156.556 151.897 158.476 151.181 159.796 149.75C161.116 148.319 161.776 146.148 161.776 143.238V128.999H164.368V143.346C164.368 146.9 163.456 149.607 161.632 151.467C159.832 153.328 157.3 154.258 154.036 154.258ZM193.204 154.043L187.444 145.993C186.796 146.065 186.124 146.101 185.428 146.101H178.66V154.043H175.996V128.999H185.428C188.644 128.999 191.164 129.762 192.988 131.289C194.812 132.815 195.724 134.914 195.724 137.585C195.724 139.541 195.22 141.199 194.212 142.559C193.228 143.894 191.812 144.86 189.964 145.457L196.12 154.043H193.204ZM185.356 143.847C187.852 143.847 189.76 143.298 191.08 142.201C192.4 141.104 193.06 139.565 193.06 137.585C193.06 135.558 192.4 134.008 191.08 132.934C189.76 131.837 187.852 131.289 185.356 131.289H178.66V143.847H185.356ZM223.432 151.753V154.043H205.612V128.999H222.892V131.289H208.276V140.197H221.308V142.451H208.276V151.753H223.432Z" fill="#80FF80"/>
<path d="M64.768 131.289V128.307C63.1111 128.307 61.768 129.642 61.768 131.289H64.768ZM64.768 141.127H61.768C61.768 142.774 63.1111 144.109 64.768 144.109V141.127ZM77.8 141.127H80.8C80.8 139.481 79.4569 138.146 77.8 138.146V141.127ZM77.8 143.417V146.399C79.4569 146.399 80.8 145.064 80.8 143.417H77.8ZM64.768 143.417V140.436C63.1111 140.436 61.768 141.77 61.768 143.417H64.768ZM64.768 154.043V157.025C66.4249 157.025 67.768 155.69 67.768 154.043H64.768ZM62.104 154.043H59.104C59.104 155.69 60.4471 157.025 62.104 157.025V154.043ZM62.104 128.999V126.017C60.4471 126.017 59.104 127.352 59.104 128.999H62.104ZM79.384 128.999H82.384C82.384 127.352 81.0409 126.017 79.384 126.017V128.999ZM79.384 131.289V134.27C81.0409 134.27 82.384 132.935 82.384 131.289H79.384ZM61.768 131.289V141.127H67.768V131.289H61.768ZM64.768 144.109H77.8V138.146H64.768V144.109ZM74.8 141.127V143.417H80.8V141.127H74.8ZM77.8 140.436H64.768V146.399H77.8V140.436ZM61.768 143.417V154.043H67.768V143.417H61.768ZM64.768 151.062H62.104V157.025H64.768V151.062ZM65.104 154.043V128.999H59.104V154.043H65.104ZM62.104 131.98H79.384V126.017H62.104V131.98ZM76.384 128.999V131.289H82.384V128.999H76.384ZM79.384 128.307H64.768V134.27H79.384V128.307ZM91.0053 151.467L93.1539 149.386L91.0053 151.467ZM88.2693 128.999V126.017C86.6124 126.017 85.2693 127.352 85.2693 128.999H88.2693ZM90.9333 128.999H93.9333C93.9333 127.352 92.5901 126.017 90.9333 126.017V128.999ZM104.397 149.75L106.609 151.764L104.397 149.75ZM106.377 128.999V126.017C104.72 126.017 103.377 127.352 103.377 128.999H106.377ZM108.969 128.999H111.969C111.969 127.352 110.626 126.017 108.969 126.017V128.999ZM106.233 151.467L104.085 149.386C104.08 149.391 104.075 149.396 104.071 149.401L106.233 151.467ZM98.637 151.276C95.9688 151.276 94.2798 150.535 93.1539 149.386L88.8566 153.548C91.3787 156.12 94.7777 157.239 98.637 157.239V151.276ZM93.1539 149.386C92.0511 148.262 91.2693 146.414 91.2693 143.346H85.2693C85.2693 147.386 86.3114 150.951 88.8566 153.548L93.1539 149.386ZM91.2693 143.346V128.999H85.2693V143.346H91.2693ZM88.2693 131.98H90.9333V126.017H88.2693V131.98ZM87.9333 128.999V143.238H93.9333V128.999H87.9333ZM87.9333 143.238C87.9333 146.531 88.6724 149.564 90.7018 151.764L95.1247 147.735C94.5141 147.073 93.9333 145.766 93.9333 143.238H87.9333ZM90.7018 151.764C92.7385 153.973 95.5487 154.878 98.637 154.878V148.915C96.734 148.915 95.728 148.389 95.1247 147.735L90.7018 151.764ZM98.637 154.878C101.74 154.878 104.567 153.979 106.609 151.764L102.186 147.735C101.588 148.383 100.575 148.915 98.637 148.915V154.878ZM106.609 151.764C108.638 149.564 109.377 146.531 109.377 143.238H103.377C103.377 145.766 102.796 147.073 102.186 147.735L106.609 151.764ZM109.377 143.238V128.999H103.377V143.238H109.377ZM106.377 131.98H108.969V126.017H106.377V131.98ZM105.969 128.999V143.346H111.969V128.999H105.969ZM105.969 143.346C105.969 146.414 105.187 148.262 104.085 149.386L108.382 153.548C110.927 150.951 111.969 147.386 111.969 143.346H105.969ZM104.071 149.401C102.974 150.534 101.308 151.276 98.637 151.276V157.239C102.495 157.239 105.893 156.121 108.396 153.533L104.071 149.401ZM125.001 131.289H128.001C128.001 129.642 126.658 128.307 125.001 128.307V131.289ZM116.145 131.289H113.145C113.145 132.935 114.488 134.27 116.145 134.27V131.289ZM116.145 128.999V126.017C114.488 126.017 113.145 127.352 113.145 128.999H116.145ZM136.521 128.999H139.521C139.521 127.352 138.178 126.017 136.521 126.017V128.999ZM136.521 131.289V134.27C138.178 134.27 139.521 132.935 139.521 131.289H136.521ZM127.665 131.289V128.307C126.008 128.307 124.665 129.642 124.665 131.289H127.665ZM127.665 154.043V157.025C129.322 157.025 130.665 155.69 130.665 154.043H127.665ZM125.001 154.043H122.001C122.001 155.69 123.344 157.025 125.001 157.025V154.043ZM125.001 128.307H116.145V134.27H125.001V128.307ZM119.145 131.289V128.999H113.145V131.289H119.145ZM116.145 131.98H136.521V126.017H116.145V131.98ZM133.521 128.999V131.289H139.521V128.999H133.521ZM136.521 128.307H127.665V134.27H136.521V128.307ZM124.665 131.289V154.043H130.665V131.289H124.665ZM127.665 151.062H125.001V157.025H127.665V151.062ZM128.001 154.043V131.289H122.001V154.043H128.001ZM146.404 151.467L148.553 149.386L146.404 151.467ZM143.668 128.999V126.017C142.012 126.017 140.668 127.352 140.668 128.999H143.668ZM146.332 128.999H149.332C149.332 127.352 147.989 126.017 146.332 126.017V128.999ZM159.796 149.75L162.008 151.764L159.796 149.75ZM161.776 128.999V126.017C160.12 126.017 158.776 127.352 158.776 128.999H161.776ZM164.368 128.999H167.368C167.368 127.352 166.025 126.017 164.368 126.017V128.999ZM161.632 151.467L159.484 149.386C159.479 149.391 159.475 149.396 159.47 149.401L161.632 151.467ZM154.036 151.276C151.368 151.276 149.679 150.535 148.553 149.386L144.256 153.548C146.778 156.12 150.177 157.239 154.036 157.239V151.276ZM148.553 149.386C147.45 148.262 146.668 146.414 146.668 143.346H140.668C140.668 147.386 141.711 150.951 144.256 153.548L148.553 149.386ZM146.668 143.346V128.999H140.668V143.346H146.668ZM143.668 131.98H146.332V126.017H143.668V131.98ZM143.332 128.999V143.238H149.332V128.999H143.332ZM143.332 143.238C143.332 146.531 144.072 149.564 146.101 151.764L150.524 147.735C149.913 147.073 149.332 145.766 149.332 143.238H143.332ZM146.101 151.764C148.138 153.973 150.948 154.878 154.036 154.878V148.915C152.133 148.915 151.127 148.389 150.524 147.735L146.101 151.764ZM154.036 154.878C157.139 154.878 159.966 153.979 162.008 151.764L157.585 147.735C156.987 148.383 155.974 148.915 154.036 148.915V154.878ZM162.008 151.764C164.037 149.564 164.776 146.531 164.776 143.238H158.776C158.776 145.766 158.196 147.073 157.585 147.735L162.008 151.764ZM164.776 143.238V128.999H158.776V143.238H164.776ZM161.776 131.98H164.368V126.017H161.776V131.98ZM161.368 128.999V143.346H167.368V128.999H161.368ZM161.368 143.346C161.368 146.414 160.587 148.262 159.484 149.386L163.781 153.548C166.326 150.951 167.368 147.386 167.368 143.346H161.368ZM159.47 149.401C158.373 150.534 156.707 151.276 154.036 151.276V157.239C157.894 157.239 161.292 156.121 163.795 153.533L159.47 149.401ZM193.204 154.043L190.759 155.771C191.322 156.558 192.233 157.025 193.204 157.025V154.043ZM187.444 145.993L189.889 144.265C189.258 143.383 188.195 142.91 187.113 143.03L187.444 145.993ZM178.66 146.101V143.119C177.003 143.119 175.66 144.454 175.66 146.101H178.66ZM178.66 154.043V157.025C180.317 157.025 181.66 155.69 181.66 154.043H178.66ZM175.996 154.043H172.996C172.996 155.69 174.339 157.025 175.996 157.025V154.043ZM175.996 128.999V126.017C174.339 126.017 172.996 127.352 172.996 128.999H175.996ZM192.988 131.289L191.056 133.569L192.988 131.289ZM194.212 142.559L191.797 140.79L191.792 140.797L194.212 142.559ZM189.964 145.457L189.038 142.621C188.129 142.914 187.415 143.62 187.115 144.521C186.816 145.424 186.966 146.414 187.521 147.187L189.964 145.457ZM196.12 154.043V157.025C197.243 157.025 198.272 156.402 198.787 155.409C199.301 154.417 199.215 153.222 198.563 152.313L196.12 154.043ZM191.08 142.201L193.005 144.488L191.08 142.201ZM191.08 132.934L189.156 135.221C189.164 135.228 189.172 135.235 189.18 135.242L191.08 132.934ZM178.66 131.289V128.307C177.003 128.307 175.66 129.642 175.66 131.289H178.66ZM178.66 143.847H175.66C175.66 145.493 177.003 146.828 178.66 146.828V143.847ZM195.649 152.315L189.889 144.265L184.999 147.721L190.759 155.771L195.649 152.315ZM187.113 143.03C186.582 143.088 186.021 143.119 185.428 143.119V149.082C186.228 149.082 187.01 149.041 187.775 148.957L187.113 143.03ZM185.428 143.119H178.66V149.082H185.428V143.119ZM175.66 146.101V154.043H181.66V146.101H175.66ZM178.66 151.062H175.996V157.025H178.66V151.062ZM178.996 154.043V128.999H172.996V154.043H178.996ZM175.996 131.98H185.428V126.017H175.996V131.98ZM185.428 131.98C188.185 131.98 189.936 132.632 191.056 133.569L194.921 129.008C192.393 126.892 189.104 126.017 185.428 126.017V131.98ZM191.056 133.569C192.112 134.453 192.724 135.668 192.724 137.585H198.724C198.724 134.16 197.513 131.177 194.921 129.008L191.056 133.569ZM192.724 137.585C192.724 139.01 192.367 140.021 191.797 140.79L196.627 144.328C198.073 142.377 198.724 140.073 198.724 137.585H192.724ZM191.792 140.797C191.239 141.548 190.39 142.185 189.038 142.621L190.891 148.292C193.235 147.536 195.217 146.241 196.633 144.32L191.792 140.797ZM187.521 147.187L193.677 155.773L198.563 152.313L192.407 143.726L187.521 147.187ZM196.12 151.062H193.204V157.025H196.12V151.062ZM185.356 146.828C188.246 146.828 190.948 146.198 193.005 144.488L189.156 139.914C188.573 140.398 187.458 140.865 185.356 140.865V146.828ZM193.005 144.488C195.118 142.731 196.06 140.293 196.06 137.585H190.06C190.06 138.838 189.683 139.476 189.156 139.914L193.005 144.488ZM196.06 137.585C196.06 134.858 195.135 132.379 192.98 130.627L189.18 135.242C189.666 135.637 190.06 136.258 190.06 137.585H196.06ZM193.005 130.648C190.948 128.937 188.246 128.307 185.356 128.307V134.27C187.458 134.27 188.573 134.737 189.156 135.221L193.005 130.648ZM185.356 128.307H178.66V134.27H185.356V128.307ZM175.66 131.289V143.847H181.66V131.289H175.66ZM178.66 146.828H185.356V140.865H178.66V146.828ZM223.432 151.753H226.432C226.432 150.107 225.089 148.772 223.432 148.772V151.753ZM223.432 154.043V157.025C225.089 157.025 226.432 155.69 226.432 154.043H223.432ZM205.612 154.043H202.612C202.612 155.69 203.955 157.025 205.612 157.025V154.043ZM205.612 128.999V126.017C203.955 126.017 202.612 127.352 202.612 128.999H205.612ZM222.892 128.999H225.892C225.892 127.352 224.549 126.017 222.892 126.017V128.999ZM222.892 131.289V134.27C224.549 134.27 225.892 132.935 225.892 131.289H222.892ZM208.276 131.289V128.307C206.619 128.307 205.276 129.642 205.276 131.289H208.276ZM208.276 140.197H205.276C205.276 141.844 206.619 143.179 208.276 143.179V140.197ZM221.308 140.197H224.308C224.308 138.55 222.965 137.216 221.308 137.216V140.197ZM221.308 142.451V145.433C222.965 145.433 224.308 144.098 224.308 142.451H221.308ZM208.276 142.451V139.47C206.619 139.47 205.276 140.804 205.276 142.451H208.276ZM208.276 151.753H205.276C205.276 153.4 206.619 154.735 208.276 154.735V151.753ZM220.432 151.753V154.043H226.432V151.753H220.432ZM223.432 151.062H205.612V157.025H223.432V151.062ZM208.612 154.043V128.999H202.612V154.043H208.612ZM205.612 131.98H222.892V126.017H205.612V131.98ZM219.892 128.999V131.289H225.892V128.999H219.892ZM222.892 128.307H208.276V134.27H222.892V128.307ZM205.276 131.289V140.197H211.276V131.289H205.276ZM208.276 143.179H221.308V137.216H208.276V143.179ZM218.308 140.197V142.451H224.308V140.197H218.308ZM221.308 139.47H208.276V145.433H221.308V139.47ZM205.276 142.451V151.753H211.276V142.451H205.276ZM208.276 154.735H223.432V148.772H208.276V154.735Z" fill="#80FF80"/>
<path d="M63.28 103.736H58.08V103.358H68.88V103.736H63.68V117.272H63.28V103.736ZM84.617 103.358V117.272H84.217V110.394H74.017V117.272H73.617V103.358H74.017V110.017H84.217V103.358H84.617ZM101.265 116.894V117.272H91.9452V103.358H100.965V103.736H92.3452V110.017H100.065V110.394H92.3452V116.894H101.265Z" fill="#80FF80"/>
<path d="M63.28 103.736H65.28C65.28 102.637 64.3846 101.748 63.28 101.748V103.736ZM58.08 103.736H56.08C56.08 104.834 56.9754 105.723 58.08 105.723V103.736ZM58.08 103.358V101.37C56.9754 101.37 56.08 102.26 56.08 103.358H58.08ZM68.88 103.358H70.88C70.88 102.26 69.9846 101.37 68.88 101.37V103.358ZM68.88 103.736V105.723C69.9846 105.723 70.88 104.834 70.88 103.736H68.88ZM63.68 103.736V101.748C62.5754 101.748 61.68 102.637 61.68 103.736H63.68ZM63.68 117.272V119.259C64.7846 119.259 65.68 118.37 65.68 117.272H63.68ZM63.28 117.272H61.28C61.28 118.37 62.1754 119.259 63.28 119.259V117.272ZM63.28 101.748H58.08V105.723H63.28V101.748ZM60.08 103.736V103.358H56.08V103.736H60.08ZM58.08 105.346H68.88V101.37H58.08V105.346ZM66.88 103.358V103.736H70.88V103.358H66.88ZM68.88 101.748H63.68V105.723H68.88V101.748ZM61.68 103.736V117.272H65.68V103.736H61.68ZM63.68 115.284H63.28V119.259H63.68V115.284ZM65.28 117.272V103.736H61.28V117.272H65.28ZM84.617 103.358H86.617C86.617 102.26 85.7216 101.37 84.617 101.37V103.358ZM84.617 117.272V119.259C85.7216 119.259 86.617 118.37 86.617 117.272H84.617ZM84.217 117.272H82.217C82.217 118.37 83.1125 119.259 84.217 119.259V117.272ZM84.217 110.394H86.217C86.217 109.296 85.3216 108.407 84.217 108.407V110.394ZM74.017 110.394V108.407C72.9125 108.407 72.017 109.296 72.017 110.394H74.017ZM74.017 117.272V119.259C75.1216 119.259 76.017 118.37 76.017 117.272H74.017ZM73.617 117.272H71.617C71.617 118.37 72.5125 119.259 73.617 119.259V117.272ZM73.617 103.358V101.37C72.5125 101.37 71.617 102.26 71.617 103.358H73.617ZM74.017 103.358H76.017C76.017 102.26 75.1216 101.37 74.017 101.37V103.358ZM74.017 110.017H72.017C72.017 111.115 72.9125 112.004 74.017 112.004V110.017ZM84.217 110.017V112.004C85.3216 112.004 86.217 111.115 86.217 110.017H84.217ZM84.217 103.358V101.37C83.1125 101.37 82.217 102.26 82.217 103.358H84.217ZM82.617 103.358V117.272H86.617V103.358H82.617ZM84.617 115.284H84.217V119.259H84.617V115.284ZM86.217 117.272V110.394H82.217V117.272H86.217ZM84.217 108.407H74.017V112.382H84.217V108.407ZM72.017 110.394V117.272H76.017V110.394H72.017ZM74.017 115.284H73.617V119.259H74.017V115.284ZM75.617 117.272V103.358H71.617V117.272H75.617ZM73.617 105.346H74.017V101.37H73.617V105.346ZM72.017 103.358V110.017H76.017V103.358H72.017ZM74.017 112.004H84.217V108.029H74.017V112.004ZM86.217 110.017V103.358H82.217V110.017H86.217ZM84.217 105.346H84.617V101.37H84.217V105.346ZM101.265 116.894H103.265C103.265 115.796 102.37 114.906 101.265 114.906V116.894ZM101.265 117.272V119.259C102.37 119.259 103.265 118.37 103.265 117.272H101.265ZM91.9452 117.272H89.9452C89.9452 118.37 90.8406 119.259 91.9452 119.259V117.272ZM91.9452 103.358V101.37C90.8406 101.37 89.9452 102.26 89.9452 103.358H91.9452ZM100.965 103.358H102.965C102.965 102.26 102.07 101.37 100.965 101.37V103.358ZM100.965 103.736V105.723C102.07 105.723 102.965 104.834 102.965 103.736H100.965ZM92.3452 103.736V101.748C91.2406 101.748 90.3452 102.637 90.3452 103.736H92.3452ZM92.3452 110.017H90.3452C90.3452 111.115 91.2406 112.004 92.3452 112.004V110.017ZM100.065 110.017H102.065C102.065 108.918 101.17 108.029 100.065 108.029V110.017ZM100.065 110.394V112.382C101.17 112.382 102.065 111.492 102.065 110.394H100.065ZM92.3452 110.394V108.407C91.2406 108.407 90.3452 109.296 90.3452 110.394H92.3452ZM92.3452 116.894H90.3452C90.3452 117.992 91.2406 118.882 92.3452 118.882V116.894ZM99.265 116.894V117.272H103.265V116.894H99.265ZM101.265 115.284H91.9452V119.259H101.265V115.284ZM93.9452 117.272V103.358H89.9452V117.272H93.9452ZM91.9452 105.346H100.965V101.37H91.9452V105.346ZM98.965 103.358V103.736H102.965V103.358H98.965ZM100.965 101.748H92.3452V105.723H100.965V101.748ZM90.3452 103.736V110.017H94.3452V103.736H90.3452ZM92.3452 112.004H100.065V108.029H92.3452V112.004ZM98.065 110.017V110.394H102.065V110.017H98.065ZM100.065 108.407H92.3452V112.382H100.065V108.407ZM90.3452 110.394V116.894H94.3452V110.394H90.3452ZM92.3452 118.882H101.265V114.906H92.3452V118.882Z" fill="#80FF80"/>
<path d="M0 144.145L9.4667 145.403C18.9333 146.699 37.8667 149.214 56.8 146.622C75.7333 144.03 94.6667 136.255 113.6 136.788C132.533 137.284 151.467 146.051 170.4 146.622C189.333 147.194 208.267 139.571 227.2 135.644C246.133 131.681 265.067 131.452 274.533 131.299L284 131.185V321.006H274.533C265.067 321.006 246.133 321.006 227.2 321.006C208.267 321.006 189.333 321.006 170.4 321.006C151.467 321.006 132.533 321.006 113.6 321.006C94.6667 321.006 75.7333 321.006 56.8 321.006C37.8667 321.006 18.9333 321.006 9.4667 321.006H0V144.145Z" fill="#80FF80"/>
<path d="M0 151.605L9.4667 155.835C18.9333 160.025 37.8667 168.486 56.8 172.162C75.7333 175.838 94.6667 174.81 113.6 173.664C132.533 172.557 151.467 171.372 170.4 178.408C189.333 185.484 208.267 200.743 227.2 200.625C246.133 200.507 265.067 184.93 274.533 177.182L284 169.395V320.408H274.533C265.067 320.408 246.133 320.408 227.2 320.408C208.267 320.408 189.333 320.408 170.4 320.408C151.467 320.408 132.533 320.408 113.6 320.408C94.6667 320.408 75.7333 320.408 56.8 320.408C37.8667 320.408 18.9333 320.408 9.4667 320.408H0V151.605Z" fill="#63F361"/>
<path d="M0 228.693V204.728C9.4667 202.949 29.6 217.545 56.8 218.019C84 218.494 94.6667 210.903 113.6 210.983C132.533 211.022 151.467 214.738 170.4 218.494C189.333 222.25 208.267 226.044 227.2 220.707C246.133 215.37 269.327 208.926 284 195.881V320.408H274.533C265.067 320.408 246.133 320.408 227.2 320.408C208.267 320.408 189.333 320.408 170.4 320.408C151.467 320.408 132.533 320.408 113.6 320.408C94.6667 320.408 75.7333 320.408 56.8 320.408C37.8667 320.408 18.9333 320.408 9.4667 320.408H0V228.693Z" fill="#48E145"/>
<path d="M0 233.832L9.4667 236.086C18.9333 238.299 37.8667 242.806 56.8 244.98C75.7333 247.155 94.6667 246.996 113.6 242.806C132.533 238.576 147.825 234.495 170.4 233.437C192.619 232.396 209.213 233.437 227.2 237.271C245.187 241.106 274.533 247.233 284 254.389V266.248V320.408H274.533C265.067 320.408 246.133 320.408 227.2 320.408C208.267 320.408 189.333 320.408 170.4 320.408C151.467 320.408 132.533 320.408 113.6 320.408C94.6667 320.408 75.7333 320.408 56.8 320.408C37.8667 320.408 18.9333 320.408 9.4667 320.408H0V233.832Z" fill="#30CE2D"/>
<path d="M0 294.483L9.4667 295.161C18.9333 295.799 37.8667 297.155 56.8 295.4C75.7333 293.686 94.6667 288.9 113.6 282.519C132.533 276.139 151.467 268.162 170.4 266.448C189.333 264.692 208.267 269.239 227.2 269.08C246.133 268.96 265.067 264.174 274.533 261.782L284 259.389V322H274.533C265.067 322 246.133 322 227.2 322C208.267 322 189.333 322 170.4 322C151.467 322 132.533 322 113.6 322C94.6667 322 75.7333 322 56.8 322C37.8667 322 18.9333 322 9.4667 322H0V294.483Z" fill="#00C200"/>
<g style="mix-blend-mode:soft-light">
<path d="M47 186.84H237" stroke="white"/>
</g>
<path d="M76.6005 212.576H78.6005C78.6005 211.477 77.705 210.588 76.6005 210.588V212.576ZM76.6005 213.673V215.66C77.705 215.66 78.6005 214.771 78.6005 213.673H76.6005ZM65.0085 213.673H63.0085C63.0085 214.771 63.9039 215.66 65.0085 215.66V213.673ZM65.0085 196.977V194.989C63.9039 194.989 63.0085 195.878 63.0085 196.977H65.0085ZM76.2405 196.977H78.2405C78.2405 195.878 77.345 194.989 76.2405 194.989V196.977ZM76.2405 198.074V200.061C77.345 200.061 78.2405 199.172 78.2405 198.074H76.2405ZM66.2325 198.074V196.086C65.1279 196.086 64.2325 196.976 64.2325 198.074H66.2325ZM66.2325 204.657H64.2325C64.2325 205.755 65.1279 206.644 66.2325 206.644V204.657ZM75.1845 204.657H77.1845C77.1845 203.559 76.289 202.669 75.1845 202.669V204.657ZM75.1845 205.73V207.718C76.289 207.718 77.1845 206.828 77.1845 205.73H75.1845ZM66.2325 205.73V203.743C65.1279 203.743 64.2325 204.632 64.2325 205.73H66.2325ZM66.2325 212.576H64.2325C64.2325 213.674 65.1279 214.563 66.2325 214.563V212.576ZM74.6005 212.576V213.673H78.6005V212.576H74.6005ZM76.6005 211.685H65.0085V215.66H76.6005V211.685ZM67.0085 213.673V196.977H63.0085V213.673H67.0085ZM65.0085 198.964H76.2405V194.989H65.0085V198.964ZM74.2405 196.977V198.074H78.2405V196.977H74.2405ZM76.2405 196.086H66.2325V200.061H76.2405V196.086ZM64.2325 198.074V204.657H68.2325V198.074H64.2325ZM66.2325 206.644H75.1845V202.669H66.2325V206.644ZM73.1845 204.657V205.73H77.1845V204.657H73.1845ZM75.1845 203.743H66.2325V207.718H75.1845V203.743ZM64.2325 205.73V212.576H68.2325V205.73H64.2325ZM66.2325 214.563H76.6005V210.588H66.2325V214.563ZM83.4632 196.977V194.989C82.3586 194.989 81.4632 195.878 81.4632 196.977H83.4632ZM84.6872 196.977H86.6872C86.6872 195.878 85.7917 194.989 84.6872 194.989V196.977ZM84.6872 212.576H82.6872C82.6872 213.674 83.5826 214.563 84.6872 214.563V212.576ZM94.3592 212.576H96.359C96.359 211.477 95.4637 210.588 94.3592 210.588V212.576ZM94.3592 213.673V215.66C95.4637 215.66 96.359 214.771 96.359 213.673H94.3592ZM83.4632 213.673H81.4632C81.4632 214.771 82.3586 215.66 83.4632 215.66V213.673ZM83.4632 198.964H84.6872V194.989H83.4632V198.964ZM82.6872 196.977V212.576H86.6872V196.977H82.6872ZM84.6872 214.563H94.3592V210.588H84.6872V214.563ZM92.3592 212.576V213.673H96.359V212.576H92.3592ZM94.3592 211.685H83.4632V215.66H94.3592V211.685ZM85.4632 213.673V196.977H81.4632V213.673H85.4632ZM109.69 198.074V196.086C108.586 196.086 107.69 196.976 107.69 198.074H109.69ZM109.69 205.205H107.69C107.69 206.304 108.586 207.193 109.69 207.193V205.205ZM118.642 205.205H120.642C120.642 204.107 119.747 203.218 118.642 203.218V205.205ZM118.642 206.303V208.29C119.747 208.29 120.642 207.401 120.642 206.303H118.642ZM109.69 206.303V204.315C108.586 204.315 107.69 205.204 107.69 206.303H109.69ZM109.69 213.673V215.66C110.795 215.66 111.69 214.771 111.69 213.673H109.69ZM108.466 213.673H106.466C106.466 214.771 107.362 215.66 108.466 215.66V213.673ZM108.466 196.977V194.989C107.362 194.989 106.466 195.878 106.466 196.977H108.466ZM119.698 196.977H121.698C121.698 195.878 120.803 194.989 119.698 194.989V196.977ZM119.698 198.074V200.061C120.803 200.061 121.698 199.172 121.698 198.074H119.698ZM107.69 198.074V205.205H111.69V198.074H107.69ZM109.69 207.193H118.642V203.218H109.69V207.193ZM116.642 205.205V206.303H120.642V205.205H116.642ZM118.642 204.315H109.69V208.29H118.642V204.315ZM107.69 206.303V213.673H111.69V206.303H107.69ZM109.69 211.685H108.466V215.66H109.69V211.685ZM110.466 213.673V196.977H106.466V213.673H110.466ZM108.466 198.964H119.698V194.989H108.466V198.964ZM117.698 196.977V198.074H121.698V196.977H117.698ZM119.698 196.086H109.69V200.061H119.698V196.086ZM127.615 211.956L126.163 213.323L126.173 213.333L127.615 211.956ZM125.863 196.977V194.989C124.758 194.989 123.863 195.878 123.863 196.977H125.863ZM127.087 196.977H129.087C129.087 195.878 128.191 194.989 127.087 194.989V196.977ZM128.503 211.145L127.032 212.492L128.503 211.145ZM136.687 211.145L135.216 209.797L136.687 211.145ZM138.103 196.977V194.989C136.998 194.989 136.103 195.878 136.103 196.977H138.103ZM139.327 196.977H141.327C141.327 195.878 140.431 194.989 139.327 194.989V196.977ZM137.551 211.956L136.109 210.578L137.551 211.956ZM132.583 211.804C130.857 211.804 129.776 211.321 129.057 210.578L126.173 213.333C127.822 215.038 130.053 215.78 132.583 215.78V211.804ZM129.066 210.588C128.369 209.858 127.863 208.636 127.863 206.589H123.863C123.863 209.248 124.524 211.605 126.163 213.323L129.066 210.588ZM127.863 206.589V196.977H123.863V206.589H127.863ZM125.863 198.964H127.087V194.989H125.863V198.964ZM125.087 196.977V206.541H129.087V196.977H125.087ZM125.087 206.541C125.087 208.856 125.615 210.964 127.032 212.492L129.973 209.797C129.502 209.29 129.087 208.329 129.087 206.541H125.087ZM127.032 212.492C128.457 214.027 130.426 214.659 132.607 214.659V210.683C131.204 210.683 130.437 210.298 129.973 209.797L127.032 212.492ZM132.607 214.659C134.778 214.659 136.737 214.024 138.157 212.492L135.216 209.797C134.749 210.301 133.988 210.683 132.607 210.683V214.659ZM138.157 212.492C139.574 210.964 140.103 208.856 140.103 206.541H136.103C136.103 208.329 135.687 209.29 135.216 209.797L138.157 212.492ZM140.103 206.541V196.977H136.103V206.541H140.103ZM138.103 198.964H139.327V194.989H138.103V198.964ZM137.327 196.977V206.589H141.327V196.977H137.327ZM137.327 206.589C137.327 208.629 136.816 209.847 136.109 210.578L138.993 213.333C140.654 211.616 141.327 209.255 141.327 206.589H137.327ZM136.109 210.578C135.39 211.321 134.309 211.804 132.583 211.804V215.78C135.113 215.78 137.344 215.038 138.993 213.333L136.109 210.578ZM150.926 198.074H152.926C152.926 196.976 152.031 196.086 150.926 196.086V198.074ZM144.878 198.074H142.878C142.878 199.172 143.773 200.061 144.878 200.061V198.074ZM144.878 196.977V194.989C143.773 194.989 142.878 195.878 142.878 196.977H144.878ZM158.198 196.977H160.198C160.198 195.878 159.303 194.989 158.198 194.989V196.977ZM158.198 198.074V200.061C159.303 200.061 160.198 199.172 160.198 198.074H158.198ZM152.15 198.074V196.086C151.045 196.086 150.15 196.976 150.15 198.074H152.15ZM152.15 213.673V215.66C153.255 215.66 154.15 214.771 154.15 213.673H152.15ZM150.926 213.673H148.926C148.926 214.771 149.821 215.66 150.926 215.66V213.673ZM150.926 196.086H144.878V200.061H150.926V196.086ZM146.878 198.074V196.977H142.878V198.074H146.878ZM144.878 198.964H158.198V194.989H144.878V198.964ZM156.198 196.977V198.074H160.198V196.977H156.198ZM158.198 196.086H152.15V200.061H158.198V196.086ZM150.15 198.074V213.673H154.15V198.074H150.15ZM152.15 211.685H150.926V215.66H152.15V211.685ZM152.926 213.673V198.074H148.926V213.673H152.926ZM165.841 211.956L164.39 213.323L164.399 213.333L165.841 211.956ZM164.089 196.977V194.989C162.985 194.989 162.089 195.878 162.089 196.977H164.089ZM165.313 196.977H167.313C167.313 195.878 166.418 194.989 165.313 194.989V196.977ZM166.729 211.145L165.259 212.492L166.729 211.145ZM174.913 211.145L173.443 209.797L174.913 211.145ZM176.329 196.977V194.989C175.225 194.989 174.329 195.878 174.329 196.977H176.329ZM177.553 196.977H179.553C179.553 195.878 178.658 194.989 177.553 194.989V196.977ZM175.777 211.956L174.335 210.578L175.777 211.956ZM170.809 211.804C169.084 211.804 168.002 211.321 167.283 210.578L164.399 213.333C166.049 215.038 168.279 215.78 170.809 215.78V211.804ZM167.293 210.588C166.596 209.858 166.089 208.636 166.089 206.589H162.089C162.089 209.248 162.751 211.605 164.39 213.323L167.293 210.588ZM166.089 206.589V196.977H162.089V206.589H166.089ZM164.089 198.964H165.313V194.989H164.089V198.964ZM163.313 196.977V206.541H167.313V196.977H163.313ZM163.313 206.541C163.313 208.856 163.842 210.964 165.259 212.492L168.2 209.797C167.729 209.29 167.313 208.329 167.313 206.541H163.313ZM165.259 212.492C166.683 214.027 168.653 214.659 170.833 214.659V210.683C169.43 210.683 168.664 210.298 168.2 209.797L165.259 212.492ZM170.833 214.659C173.005 214.659 174.963 214.024 176.384 212.492L173.443 209.797C172.976 210.301 172.214 210.683 170.833 210.683V214.659ZM176.384 212.492C177.801 210.964 178.329 208.856 178.329 206.541H174.329C174.329 208.329 173.914 209.29 173.443 209.797L176.384 212.492ZM178.329 206.541V196.977H174.329V206.541H178.329ZM176.329 198.964H177.553V194.989H176.329V198.964ZM175.553 196.977V206.589H179.553V196.977H175.553ZM175.553 206.589C175.553 208.629 175.042 209.847 174.335 210.578L177.219 213.333C178.88 211.616 179.553 209.255 179.553 206.589H175.553ZM174.335 210.578C173.617 211.321 172.535 211.804 170.809 211.804V215.78C173.34 215.78 175.57 215.038 177.219 213.333L174.335 210.578ZM196.729 213.673L195.101 214.828C195.476 215.35 196.083 215.66 196.729 215.66V213.673ZM192.721 208.092L194.349 206.937C193.918 206.336 193.188 206.023 192.453 206.122L192.721 208.092ZM186.289 208.211V206.223C185.184 206.223 184.289 207.113 184.289 208.211H186.289ZM186.289 213.673V215.66C187.393 215.66 188.289 214.771 188.289 213.673H186.289ZM185.065 213.673H183.065C183.065 214.771 183.96 215.66 185.065 215.66V213.673ZM185.065 196.977V194.989C183.96 194.989 183.065 195.878 183.065 196.977H185.065ZM196.057 198.479L194.77 200.001C194.774 200.005 194.778 200.008 194.782 200.011L196.057 198.479ZM196.825 205.945L195.228 204.748L195.225 204.752L196.825 205.945ZM193.921 207.829L193.362 205.921C192.739 206.101 192.243 206.57 192.031 207.178C191.819 207.787 191.916 208.46 192.293 208.984L193.921 207.829ZM198.121 213.673V215.66C198.87 215.66 199.556 215.244 199.899 214.582C200.242 213.92 200.184 213.123 199.748 212.518L198.121 213.673ZM195.193 205.969L196.471 207.498C196.476 207.493 196.481 207.489 196.486 207.485L195.193 205.969ZM195.193 199.266L193.9 200.783C193.905 200.787 193.91 200.791 193.915 200.796L195.193 199.266ZM186.289 198.074V196.086C185.184 196.086 184.289 196.976 184.289 198.074H186.289ZM186.289 207.137H184.289C184.289 208.236 185.184 209.125 186.289 209.125V207.137ZM198.357 212.518L194.349 206.937L191.093 209.246L195.101 214.828L198.357 212.518ZM192.453 206.122C191.932 206.191 191.479 206.223 191.089 206.223V210.198C191.69 210.198 192.325 210.151 192.989 210.061L192.453 206.122ZM191.089 206.223H186.289V210.198H191.089V206.223ZM184.289 208.211V213.673H188.289V208.211H184.289ZM186.289 211.685H185.065V215.66H186.289V211.685ZM187.065 213.673V196.977H183.065V213.673H187.065ZM185.065 198.964H191.089V194.989H185.065V198.964ZM191.089 198.964C192.894 198.964 194.039 199.391 194.77 200.001L197.343 196.958C195.674 195.564 193.507 194.989 191.089 194.989V198.964ZM194.782 200.011C195.455 200.563 195.857 201.339 195.857 202.606H199.857C199.857 200.342 199.059 198.367 197.331 196.948L194.782 200.011ZM195.857 202.606C195.857 203.567 195.613 204.24 195.228 204.748L198.421 207.141C199.412 205.837 199.857 204.284 199.857 202.606H195.857ZM195.225 204.752C194.856 205.241 194.285 205.654 193.362 205.921L194.48 209.737C196.084 209.273 197.449 208.429 198.425 207.137L195.225 204.752ZM192.293 208.984L196.493 214.828L199.748 212.518L195.548 206.674L192.293 208.984ZM198.121 211.685H196.729V215.66H198.121V211.685ZM191.089 209.125C193.138 209.125 195.034 208.683 196.471 207.498L193.915 204.439C193.463 204.813 192.623 205.15 191.089 205.15V209.125ZM196.486 207.485C197.959 206.244 198.609 204.523 198.609 202.606H194.609C194.609 203.583 194.314 204.103 193.9 204.452L196.486 207.485ZM198.609 202.606C198.609 200.689 197.959 198.965 196.471 197.737L193.915 200.796C194.315 201.126 194.609 201.628 194.609 202.606H198.609ZM196.486 197.75C195.049 196.539 193.147 196.086 191.089 196.086V200.061C192.615 200.061 193.449 200.403 193.9 200.783L196.486 197.75ZM191.089 196.086H186.289V200.061H191.089V196.086ZM184.289 198.074V207.137H188.289V198.074H184.289ZM186.289 209.125H191.089V205.15H186.289V209.125ZM207.402 212.695L206.417 214.424C206.422 214.427 206.427 214.43 206.433 214.433L207.402 212.695ZM204.258 209.642L202.528 210.64C202.531 210.645 202.534 210.65 202.538 210.656L204.258 209.642ZM204.258 201.008L202.538 199.994C202.534 200 202.531 200.005 202.528 200.01L204.258 201.008ZM207.402 197.978L208.372 199.717C208.377 199.714 208.382 199.711 208.388 199.708L207.402 197.978ZM219.45 200.984L217.72 201.981C217.723 201.986 217.726 201.991 217.73 201.997L219.45 200.984ZM219.45 209.666L217.73 208.652C217.726 208.658 217.723 208.663 217.72 208.668L219.45 209.666ZM216.33 212.695L217.3 214.433L216.33 212.695ZM215.682 211.717L214.7 209.986L215.682 211.717ZM218.37 209.093L220.096 210.098L220.102 210.087L218.37 209.093ZM218.37 201.58L216.638 202.574L216.644 202.585L218.37 201.58ZM215.682 198.932L214.7 200.664L215.682 198.932ZM208.026 198.932L207.055 197.195L207.044 197.201L208.026 198.932ZM205.338 201.58L207.064 202.585L207.07 202.574L205.338 201.58ZM205.338 209.093L203.606 210.087L203.612 210.098L205.338 209.093ZM208.026 211.717L207.044 213.449L207.055 213.454L208.026 211.717ZM211.866 211.804C210.528 211.804 209.378 211.51 208.372 210.957L206.433 214.433C208.082 215.342 209.909 215.78 211.866 215.78V211.804ZM208.388 210.966C207.359 210.386 206.566 209.614 205.979 208.628L202.538 210.656C203.486 212.246 204.789 213.509 206.417 214.424L208.388 210.966ZM205.988 208.644C205.425 207.68 205.13 206.589 205.13 205.325H201.13C201.13 207.241 201.587 209.028 202.528 210.64L205.988 208.644ZM205.13 205.325C205.13 204.061 205.425 202.969 205.988 202.005L202.528 200.01C201.587 201.622 201.13 203.409 201.13 205.325H205.13ZM205.979 202.021C206.564 201.039 207.352 200.279 208.372 199.717L206.433 196.24C204.797 197.141 203.488 198.4 202.538 199.994L205.979 202.021ZM208.388 199.708C209.391 199.143 210.535 198.845 211.866 198.845V194.87C209.901 194.87 208.069 195.319 206.417 196.249L208.388 199.708ZM211.866 198.845C213.205 198.845 214.354 199.139 215.361 199.693L217.3 196.216C215.65 195.307 213.824 194.87 211.866 194.87V198.845ZM215.361 199.693C216.377 200.253 217.152 201.008 217.72 201.981L221.18 199.986C220.244 198.383 218.939 197.119 217.3 196.216L215.361 199.693ZM217.73 201.997C218.301 202.955 218.602 204.049 218.602 205.325H222.602C222.602 203.389 222.135 201.588 221.171 199.97L217.73 201.997ZM218.602 205.325C218.602 206.601 218.301 207.694 217.73 208.652L221.171 210.679C222.135 209.061 222.602 207.261 222.602 205.325H218.602ZM217.72 208.668C217.152 209.641 216.377 210.396 215.361 210.957L217.3 214.433C218.939 213.531 220.244 212.267 221.18 210.664L217.72 208.668ZM215.361 210.957C214.354 211.51 213.205 211.804 211.866 211.804V215.78C213.824 215.78 215.65 215.342 217.3 214.433L215.361 210.957ZM211.866 214.659C213.59 214.659 215.204 214.266 216.664 213.448L214.7 209.986C213.888 210.44 212.959 210.683 211.866 210.683V214.659ZM216.664 213.448C218.107 212.641 219.26 211.516 220.096 210.098L216.644 208.089C216.168 208.897 215.53 209.521 214.7 209.986L216.664 213.448ZM220.102 210.087C220.945 208.637 221.354 207.035 221.354 205.325H217.354C217.354 206.381 217.108 207.291 216.638 208.099L220.102 210.087ZM221.354 205.325C221.354 203.614 220.945 202.015 220.096 200.575L216.644 202.585C217.108 203.371 217.354 204.268 217.354 205.325H221.354ZM220.102 200.586C219.268 199.151 218.114 198.012 216.664 197.201L214.7 200.664C215.522 201.125 216.16 201.751 216.638 202.574L220.102 200.586ZM216.664 197.201C215.204 196.383 213.59 195.991 211.866 195.991V199.966C212.959 199.966 213.888 200.209 214.7 200.664L216.664 197.201ZM211.866 195.991C210.142 195.991 208.524 196.383 207.055 197.195L208.997 200.67C209.832 200.209 210.774 199.966 211.866 199.966V195.991ZM207.044 197.201C205.594 198.012 204.44 199.151 203.606 200.586L207.07 202.574C207.548 201.751 208.186 201.125 209.008 200.664L207.044 197.201ZM203.612 200.575C202.764 202.015 202.354 203.614 202.354 205.325H206.354C206.354 204.268 206.601 203.371 207.064 202.585L203.612 200.575ZM202.354 205.325C202.354 207.035 202.764 208.637 203.606 210.087L207.07 208.099C206.601 207.291 206.354 206.381 206.354 205.325H202.354ZM203.612 210.098C204.448 211.516 205.602 212.641 207.044 213.448L209.008 209.986C208.179 209.521 207.54 208.897 207.064 208.089L203.612 210.098ZM207.055 213.454C208.524 214.266 210.142 214.659 211.866 214.659V210.683C210.774 210.683 209.832 210.44 208.997 209.98L207.055 213.454ZM80.6083 227.3L79.3219 228.822C79.3259 228.826 79.3299 228.829 79.334 228.832L80.6083 227.3ZM80.6083 235.553L81.8826 237.084C81.8866 237.081 81.8906 237.078 81.8947 237.074L80.6083 235.553ZM70.8403 237.032V235.044C69.7357 235.044 68.8403 235.934 68.8403 237.032H70.8403ZM70.8403 242.494V244.481C71.9448 244.481 72.8403 243.592 72.8403 242.494H70.8403ZM69.6163 242.494H67.6163C67.6163 243.592 68.5117 244.481 69.6163 244.481V242.494ZM69.6163 225.798V223.81C68.5117 223.81 67.6163 224.699 67.6163 225.798H69.6163ZM79.7443 234.766L81.0221 236.295L79.7443 234.766ZM79.7443 228.087L78.4512 229.604C78.4563 229.608 78.4614 229.612 78.4665 229.617L79.7443 228.087ZM70.8403 226.895V224.907C69.7357 224.907 68.8403 225.797 68.8403 226.895H70.8403ZM70.8403 235.935H68.8403C68.8403 237.033 69.7357 237.922 70.8403 237.922V235.935ZM75.6403 227.785C77.4459 227.785 78.5906 228.212 79.3219 228.822L81.8947 225.779C80.226 224.385 78.0587 223.81 75.6403 223.81V227.785ZM79.334 228.832C80.0064 229.384 80.4083 230.16 80.4083 231.427H84.4083C84.4083 229.163 83.6101 227.188 81.8826 225.769L79.334 228.832ZM80.4083 231.427C80.4083 232.67 80.0105 233.456 79.3219 234.031L81.8947 237.074C83.6061 235.646 84.4083 233.682 84.4083 231.427H80.4083ZM79.334 234.021C78.6023 234.622 77.4528 235.044 75.6403 235.044V239.019C78.0518 239.019 80.2143 238.456 81.8826 237.084L79.334 234.021ZM75.6403 235.044H70.8403V239.019H75.6403V235.044ZM68.8403 237.032V242.494H72.8403V237.032H68.8403ZM70.8403 240.506H69.6163V244.481H70.8403V240.506ZM71.6163 242.494V225.798H67.6163V242.494H71.6163ZM69.6163 227.785H75.6403V223.81H69.6163V227.785ZM75.6403 237.922C77.69 237.922 79.5857 237.48 81.0221 236.295L78.4665 233.236C78.0148 233.61 77.1745 233.947 75.6403 233.947V237.922ZM81.0221 236.295C82.5104 235.067 83.1603 233.343 83.1603 231.427H79.1603C79.1603 232.404 78.8662 232.906 78.4665 233.236L81.0221 236.295ZM83.1603 231.427C83.1603 229.51 82.5104 227.786 81.0221 226.558L78.4665 229.617C78.8662 229.947 79.1603 230.449 79.1603 231.427H83.1603ZM81.0373 226.571C79.6002 225.36 77.6982 224.907 75.6403 224.907V228.882C77.1664 228.882 78.0004 229.224 78.4512 229.604L81.0373 226.571ZM75.6403 224.907H70.8403V228.882H75.6403V224.907ZM68.8403 226.895V235.935H72.8403V226.895H68.8403ZM70.8403 237.922H75.6403V233.947H70.8403V237.922ZM100.53 241.397H102.53C102.53 240.298 101.635 239.409 100.53 239.409V241.397ZM100.53 242.494V244.481C101.635 244.481 102.53 243.592 102.53 242.494H100.53ZM88.9382 242.494H86.9382C86.9382 243.592 87.8336 244.481 88.9382 244.481V242.494ZM88.9382 225.798V223.81C87.8336 223.81 86.9382 224.699 86.9382 225.798H88.9382ZM100.17 225.798H102.17C102.17 224.699 101.275 223.81 100.17 223.81V225.798ZM100.17 226.895V228.882C101.275 228.882 102.17 227.993 102.17 226.895H100.17ZM90.1622 226.895V224.907C89.0576 224.907 88.1622 225.797 88.1622 226.895H90.1622ZM90.1622 233.478H88.1622C88.1622 234.576 89.0576 235.465 90.1622 235.465V233.478ZM99.114 233.478H101.114C101.114 232.38 100.219 231.49 99.114 231.49V233.478ZM99.114 234.551V236.539C100.219 236.539 101.114 235.649 101.114 234.551H99.114ZM90.1622 234.551V232.563C89.0576 232.563 88.1622 233.453 88.1622 234.551H90.1622ZM90.1622 241.397H88.1622C88.1622 242.495 89.0576 243.384 90.1622 243.384V241.397ZM98.53 241.397V242.494H102.53V241.397H98.53ZM100.53 240.506H88.9382V244.481H100.53V240.506ZM90.9382 242.494V225.798H86.9382V242.494H90.9382ZM88.9382 227.785H100.17V223.81H88.9382V227.785ZM98.17 225.798V226.895H102.17V225.798H98.17ZM100.17 224.907H90.1622V228.882H100.17V224.907ZM88.1622 226.895V233.478H92.1622V226.895H88.1622ZM90.1622 235.465H99.114V231.49H90.1622V235.465ZM97.114 233.478V234.551H101.114V233.478H97.114ZM99.114 232.563H90.1622V236.539H99.114V232.563ZM88.1622 234.551V241.397H92.1622V234.551H88.1622ZM90.1622 243.384H100.53V239.409H90.1622V243.384ZM119.057 242.494L117.429 243.649C117.804 244.171 118.411 244.481 119.057 244.481V242.494ZM115.049 236.912L116.677 235.758C116.246 235.157 115.516 234.844 114.781 234.943L115.049 236.912ZM108.617 237.032V235.044C107.512 235.044 106.617 235.934 106.617 237.032H108.617ZM108.617 242.494V244.481C109.721 244.481 110.617 243.592 110.617 242.494H108.617ZM107.393 242.494H105.393C105.393 243.592 106.288 244.481 107.393 244.481V242.494ZM107.393 225.798V223.81C106.288 223.81 105.393 224.699 105.393 225.798H107.393ZM118.385 227.3L117.098 228.822C117.102 228.826 117.107 228.829 117.111 228.832L118.385 227.3ZM119.153 234.766L117.556 233.569L117.553 233.573L119.153 234.766ZM116.249 236.65L115.69 234.742C115.067 234.922 114.571 235.391 114.359 235.999C114.147 236.608 114.245 237.281 114.621 237.805L116.249 236.65ZM120.449 242.494V244.481C121.198 244.481 121.884 244.065 122.227 243.403C122.57 242.741 122.512 241.944 122.076 241.339L120.449 242.494ZM117.521 234.79L118.799 236.319C118.804 236.314 118.809 236.31 118.814 236.306L117.521 234.79ZM117.521 228.087L116.228 229.604C116.233 229.608 116.238 229.612 116.243 229.617L117.521 228.087ZM108.617 226.895V224.907C107.512 224.907 106.617 225.797 106.617 226.895H108.617ZM108.617 235.958H106.617C106.617 237.057 107.512 237.946 108.617 237.946V235.958ZM120.685 241.339L116.677 235.758L113.421 238.067L117.429 243.649L120.685 241.339ZM114.781 234.943C114.26 235.012 113.807 235.044 113.417 235.044V239.019C114.018 239.019 114.653 238.972 115.317 238.882L114.781 234.943ZM113.417 235.044H108.617V239.019H113.417V235.044ZM106.617 237.032V242.494H110.617V237.032H106.617ZM108.617 240.506H107.393V244.481H108.617V240.506ZM109.393 242.494V225.798H105.393V242.494H109.393ZM107.393 227.785H113.417V223.81H107.393V227.785ZM113.417 227.785C115.222 227.785 116.367 228.212 117.098 228.822L119.671 225.779C118.003 224.385 115.835 223.81 113.417 223.81V227.785ZM117.111 228.832C117.783 229.384 118.185 230.16 118.185 231.427H122.185C122.185 229.163 121.387 227.188 119.659 225.769L117.111 228.832ZM118.185 231.427C118.185 232.388 117.941 233.061 117.556 233.569L120.749 235.962C121.74 234.657 122.185 233.105 122.185 231.427H118.185ZM117.553 233.573C117.184 234.062 116.613 234.475 115.69 234.742L116.808 238.558C118.412 238.094 119.777 237.25 120.753 235.958L117.553 233.573ZM114.621 237.805L118.821 243.649L122.076 241.339L117.876 235.495L114.621 237.805ZM120.449 240.506H119.057V244.481H120.449V240.506ZM113.417 237.946C115.467 237.946 117.362 237.504 118.799 236.319L116.243 233.26C115.791 233.634 114.951 233.971 113.417 233.971V237.946ZM118.814 236.306C120.287 235.065 120.937 233.344 120.937 231.427H116.937C116.937 232.403 116.643 232.924 116.228 233.273L118.814 236.306ZM120.937 231.427C120.937 229.51 120.287 227.786 118.799 226.558L116.243 229.617C116.643 229.947 116.937 230.449 116.937 231.427H120.937ZM118.814 226.571C117.377 225.36 115.475 224.907 113.417 224.907V228.882C114.943 228.882 115.777 229.224 116.228 229.604L118.814 226.571ZM113.417 224.907H108.617V228.882H113.417V224.907ZM106.617 226.895V235.958H110.617V226.895H106.617ZM108.617 237.946H113.417V233.971H108.617V237.946ZM128.29 226.895V224.907C127.186 224.907 126.29 225.797 126.29 226.895H128.29ZM128.29 234.026H126.29C126.29 235.125 127.186 236.014 128.29 236.014V234.026ZM137.242 234.026H139.242C139.242 232.928 138.347 232.039 137.242 232.039V234.026ZM137.242 235.124V237.111C138.347 237.111 139.242 236.222 139.242 235.124H137.242ZM128.29 235.124V233.136C127.186 233.136 126.29 234.025 126.29 235.124H128.29ZM128.29 242.494V244.481C129.395 244.481 130.29 243.592 130.29 242.494H128.29ZM127.066 242.494H125.066C125.066 243.592 125.962 244.481 127.066 244.481V242.494ZM127.066 225.798V223.81C125.962 223.81 125.066 224.699 125.066 225.798H127.066ZM138.298 225.798H140.298C140.298 224.699 139.403 223.81 138.298 223.81V225.798ZM138.298 226.895V228.882C139.403 228.882 140.298 227.993 140.298 226.895H138.298ZM126.29 226.895V234.026H130.29V226.895H126.29ZM128.29 236.014H137.242V232.039H128.29V236.014ZM135.242 234.026V235.124H139.242V234.026H135.242ZM137.242 233.136H128.29V237.111H137.242V233.136ZM126.29 235.124V242.494H130.29V235.124H126.29ZM128.29 240.506H127.066V244.481H128.29V240.506ZM129.066 242.494V225.798H125.066V242.494H129.066ZM127.066 227.785H138.298V223.81H127.066V227.785ZM136.298 225.798V226.895H140.298V225.798H136.298ZM138.298 224.907H128.29V228.882H138.298V224.907ZM156.199 241.397H158.199C158.199 240.298 157.303 239.409 156.199 239.409V241.397ZM156.199 242.494V244.481C157.303 244.481 158.199 243.592 158.199 242.494H156.199ZM144.607 242.494H142.607C142.607 243.592 143.502 244.481 144.607 244.481V242.494ZM144.607 225.798V223.81C143.502 223.81 142.607 224.699 142.607 225.798H144.607ZM155.839 225.798H157.839C157.839 224.699 156.943 223.81 155.839 223.81V225.798ZM155.839 226.895V228.882C156.943 228.882 157.839 227.993 157.839 226.895H155.839ZM145.831 226.895V224.907C144.726 224.907 143.831 225.797 143.831 226.895H145.831ZM145.831 233.478H143.831C143.831 234.576 144.726 235.465 145.831 235.465V233.478ZM154.783 233.478H156.783C156.783 232.38 155.887 231.49 154.783 231.49V233.478ZM154.783 234.551V236.539C155.887 236.539 156.783 235.649 156.783 234.551H154.783ZM145.831 234.551V232.563C144.726 232.563 143.831 233.453 143.831 234.551H145.831ZM145.831 241.397H143.831C143.831 242.495 144.726 243.384 145.831 243.384V241.397ZM154.199 241.397V242.494H158.199V241.397H154.199ZM156.199 240.506H144.607V244.481H156.199V240.506ZM146.607 242.494V225.798H142.607V242.494H146.607ZM144.607 227.785H155.839V223.81H144.607V227.785ZM153.839 225.798V226.895H157.839V225.798H153.839ZM155.839 224.907H145.831V228.882H155.839V224.907ZM143.831 226.895V233.478H147.831V226.895H143.831ZM145.831 235.465H154.783V231.49H145.831V235.465ZM152.783 233.478V234.551H156.783V233.478H152.783ZM154.783 232.563H145.831V236.539H154.783V232.563ZM143.831 234.551V241.397H147.831V234.551H143.831ZM145.831 243.384H156.199V239.409H145.831V243.384ZM165.702 241.516L164.723 243.249L164.732 243.254L165.702 241.516ZM162.582 238.487L160.852 239.485C160.855 239.489 160.858 239.494 160.861 239.5L162.582 238.487ZM162.582 229.805L160.861 228.791C160.858 228.797 160.855 228.802 160.852 228.807L162.582 229.805ZM165.702 226.775L164.732 225.037L164.723 225.042L165.702 226.775ZM173.526 226.275L172.798 228.126C172.806 228.129 172.815 228.132 172.823 228.136L173.526 226.275ZM176.142 227.992L177.577 229.375C178.321 228.614 178.331 227.407 177.601 226.632L176.142 227.992ZM175.374 228.779L173.968 230.193C174.348 230.566 174.861 230.773 175.395 230.767C175.929 230.761 176.438 230.543 176.809 230.162L175.374 228.779ZM166.374 227.753L167.345 229.491L166.374 227.753ZM163.662 230.401L165.387 231.406L165.394 231.395L163.662 230.401ZM163.662 237.914L161.93 238.908L161.936 238.919L163.662 237.914ZM166.374 240.538L167.345 238.801L166.374 240.538ZM175.374 239.488L176.809 238.105C176.438 237.724 175.929 237.507 175.395 237.501C174.861 237.495 174.347 237.702 173.968 238.074L175.374 239.488ZM176.142 240.276L177.601 241.635C178.331 240.861 178.321 239.653 177.577 238.892L176.142 240.276ZM173.502 242.017L172.784 240.161L172.774 240.165L173.502 242.017ZM170.166 240.625C168.827 240.625 167.677 240.331 166.671 239.778L164.732 243.254C166.382 244.163 168.208 244.601 170.166 244.601V240.625ZM166.68 239.783C165.675 239.222 164.891 238.461 164.302 237.473L160.861 239.5C161.808 241.089 163.104 242.347 164.723 243.249L166.68 239.783ZM164.311 237.489C163.75 236.528 163.454 235.43 163.454 234.146H159.454C159.454 236.074 159.909 237.87 160.852 239.485L164.311 237.489ZM163.454 234.146C163.454 232.862 163.75 231.763 164.311 230.802L160.852 228.807C159.909 230.422 159.454 232.218 159.454 234.146H163.454ZM164.302 230.818C164.891 229.83 165.675 229.069 166.68 228.509L164.723 225.042C163.104 225.945 161.808 227.203 160.861 228.791L164.302 230.818ZM166.671 228.514C167.677 227.96 168.827 227.666 170.166 227.666V223.691C168.208 223.691 166.382 224.128 164.732 225.037L166.671 228.514ZM170.166 227.666C171.159 227.666 172.029 227.828 172.798 228.126L174.253 224.423C172.974 223.926 171.604 223.691 170.166 223.691V227.666ZM172.823 228.136C173.571 228.414 174.181 228.82 174.683 229.351L177.601 226.632C176.662 225.638 175.528 224.898 174.228 224.413L172.823 228.136ZM174.706 226.608L173.938 227.396L176.809 230.162L177.577 229.375L174.706 226.608ZM176.779 227.365C175.018 225.636 172.773 224.812 170.214 224.812V228.787C171.846 228.787 173.041 229.283 173.968 230.193L176.779 227.365ZM170.214 224.812C168.49 224.812 166.872 225.204 165.402 226.016L167.345 229.491C168.179 229.03 169.121 228.787 170.214 228.787V224.812ZM165.402 226.016C163.935 226.826 162.768 227.965 161.93 229.407L165.394 231.395C165.868 230.579 166.508 229.953 167.345 229.491L165.402 226.016ZM161.936 229.396C161.087 230.836 160.678 232.435 160.678 234.146H164.678C164.678 233.089 164.924 232.192 165.387 231.406L161.936 229.396ZM160.678 234.146C160.678 235.856 161.087 237.458 161.93 238.908L165.394 236.92C164.924 236.112 164.678 235.202 164.678 234.146H160.678ZM161.936 238.919C162.776 240.344 163.942 241.469 165.402 242.275L167.345 238.801C166.501 238.335 165.86 237.711 165.387 236.91L161.936 238.919ZM165.402 242.275C166.872 243.087 168.49 243.48 170.214 243.48V239.504C169.121 239.504 168.179 239.261 167.345 238.801L165.402 242.275ZM170.214 243.48C172.769 243.48 175.01 242.64 176.779 240.903L173.968 238.074C173.017 239.008 171.818 239.504 170.214 239.504V243.48ZM173.938 240.872L174.706 241.659L177.577 238.892L176.809 238.105L173.938 240.872ZM174.683 238.916C174.181 239.448 173.559 239.865 172.784 240.161L174.22 243.872C175.524 243.373 176.662 242.63 177.601 241.635L174.683 238.916ZM172.774 240.165C172.002 240.465 171.139 240.625 170.166 240.625V244.601C171.592 244.601 172.953 244.363 174.229 243.868L172.774 240.165ZM187.657 226.895H189.657C189.657 225.797 188.762 224.907 187.657 224.907V226.895ZM181.609 226.895H179.609C179.609 227.993 180.505 228.882 181.609 228.882V226.895ZM181.609 225.798V223.81C180.505 223.81 179.609 224.699 179.609 225.798H181.609ZM194.929 225.798H196.929C196.929 224.699 196.034 223.81 194.929 223.81V225.798ZM194.929 226.895V228.882C196.034 228.882 196.929 227.993 196.929 226.895H194.929ZM188.881 226.895V224.907C187.777 224.907 186.881 225.797 186.881 226.895H188.881ZM188.881 242.494V244.481C189.986 244.481 190.881 243.592 190.881 242.494H188.881ZM187.657 242.494H185.657C185.657 243.592 186.553 244.481 187.657 244.481V242.494ZM187.657 224.907H181.609V228.882H187.657V224.907ZM183.609 226.895V225.798H179.609V226.895H183.609ZM181.609 227.785H194.929V223.81H181.609V227.785ZM192.929 225.798V226.895H196.929V225.798H192.929ZM194.929 224.907H188.881V228.882H194.929V224.907ZM186.881 226.895V242.494H190.881V226.895H186.881ZM188.881 240.506H187.657V244.481H188.881V240.506ZM189.657 242.494V226.895H185.657V242.494H189.657ZM202.794 241.516L201.809 243.245C201.814 243.248 201.82 243.251 201.825 243.254L202.794 241.516ZM199.65 238.463L197.92 239.461C197.924 239.466 197.927 239.471 197.93 239.477L199.65 238.463ZM199.65 229.828L197.93 228.815C197.927 228.821 197.924 228.826 197.92 228.831L199.65 229.828ZM202.794 226.799L203.764 228.538C203.769 228.535 203.775 228.532 203.78 228.529L202.794 226.799ZM214.842 229.805L213.112 230.802C213.116 230.807 213.119 230.812 213.122 230.818L214.842 229.805ZM214.842 238.487L213.122 237.473C213.119 237.479 213.116 237.484 213.112 237.489L214.842 238.487ZM211.722 241.516L212.692 243.254L211.722 241.516ZM211.074 240.538L210.093 238.807L211.074 240.538ZM213.762 237.914L215.488 238.919L215.494 238.908L213.762 237.914ZM213.762 230.401L212.03 231.395L212.037 231.406L213.762 230.401ZM211.074 227.753L210.093 229.485L211.074 227.753ZM203.418 227.753L202.447 226.016L202.437 226.022L203.418 227.753ZM200.73 230.401L202.456 231.406L202.462 231.395L200.73 230.401ZM200.73 237.914L198.998 238.908L199.005 238.919L200.73 237.914ZM203.418 240.538L202.437 242.27L202.447 242.275L203.418 240.538ZM207.258 240.625C205.92 240.625 204.77 240.331 203.764 239.778L201.825 243.254C203.475 244.163 205.301 244.601 207.258 244.601V240.625ZM203.78 239.787C202.751 239.207 201.959 238.435 201.371 237.449L197.93 239.477C198.878 241.067 200.181 242.33 201.809 243.245L203.78 239.787ZM201.38 237.465C200.817 236.501 200.522 235.41 200.522 234.146H196.522C196.522 236.062 196.98 237.849 197.92 239.461L201.38 237.465ZM200.522 234.146C200.522 232.882 200.817 231.79 201.38 230.826L197.92 228.831C196.98 230.443 196.522 232.23 196.522 234.146H200.522ZM201.371 230.842C201.956 229.86 202.744 229.1 203.764 228.538L201.825 225.061C200.189 225.962 198.88 227.221 197.93 228.815L201.371 230.842ZM203.78 228.529C204.783 227.964 205.927 227.666 207.258 227.666V223.691C205.293 223.691 203.461 224.14 201.809 225.07L203.78 228.529ZM207.258 227.666C208.597 227.666 209.747 227.96 210.753 228.514L212.692 225.037C211.042 224.128 209.216 223.691 207.258 223.691V227.666ZM210.753 228.514C211.769 229.074 212.544 229.829 213.112 230.802L216.572 228.807C215.636 227.204 214.332 225.94 212.692 225.037L210.753 228.514ZM213.122 230.818C213.694 231.776 213.994 232.87 213.994 234.146H217.994C217.994 232.21 217.527 230.409 216.563 228.791L213.122 230.818ZM213.994 234.146C213.994 235.422 213.694 236.515 213.122 237.473L216.563 239.5C217.527 237.882 217.994 236.082 217.994 234.146H213.994ZM213.112 237.489C212.544 238.462 211.769 239.217 210.753 239.778L212.692 243.254C214.332 242.352 215.636 241.088 216.572 239.485L213.112 237.489ZM210.753 239.778C209.747 240.331 208.597 240.625 207.258 240.625V244.601C209.216 244.601 211.042 244.163 212.692 243.254L210.753 239.778ZM207.258 243.48C208.982 243.48 210.597 243.087 212.056 242.269L210.093 238.807C209.28 239.261 208.351 239.504 207.258 239.504V243.48ZM212.056 242.269C213.499 241.462 214.652 240.337 215.488 238.919L212.037 236.91C211.56 237.717 210.922 238.342 210.093 238.807L212.056 242.269ZM215.494 238.908C216.337 237.458 216.746 235.856 216.746 234.146H212.746C212.746 235.202 212.5 236.112 212.03 236.92L215.494 238.908ZM216.746 234.146C216.746 232.435 216.337 230.836 215.488 229.396L212.037 231.406C212.5 232.192 212.746 233.089 212.746 234.146H216.746ZM215.494 229.407C214.66 227.972 213.506 226.833 212.056 226.022L210.093 229.485C210.915 229.946 211.552 230.572 212.03 231.395L215.494 229.407ZM212.056 226.022C210.597 225.204 208.982 224.812 207.258 224.812V228.787C208.351 228.787 209.28 229.03 210.093 229.485L212.056 226.022ZM207.258 224.812C205.534 224.812 203.916 225.204 202.447 226.016L204.39 229.491C205.224 229.03 206.166 228.787 207.258 228.787V224.812ZM202.437 226.022C200.987 226.833 199.832 227.972 198.998 229.407L202.462 231.395C202.94 230.572 203.578 229.946 204.4 229.485L202.437 226.022ZM199.005 229.396C198.156 230.836 197.746 232.435 197.746 234.146H201.746C201.746 233.089 201.993 232.192 202.456 231.406L199.005 229.396ZM197.746 234.146C197.746 235.856 198.156 237.458 198.998 238.908L202.462 236.92C201.993 236.112 201.746 235.202 201.746 234.146H197.746ZM199.005 238.919C199.84 240.337 200.994 241.462 202.437 242.269L204.4 238.807C203.571 238.342 202.932 237.717 202.456 236.91L199.005 238.919ZM202.447 242.275C203.916 243.087 205.534 243.48 207.258 243.48V239.504C206.166 239.504 205.224 239.261 204.39 238.801L202.447 242.275Z" fill="white"/>
<mask id="mask0_44_604" style="mask-type:alpha" maskUnits="userSpaceOnUse" x="47" y="126" width="191" height="55">
<path d="M64.768 131.289V128.307C63.1111 128.307 61.768 129.642 61.768 131.289H64.768ZM64.768 141.127H61.768C61.768 142.774 63.1111 144.109 64.768 144.109V141.127ZM77.8 141.127H80.8C80.8 139.481 79.4569 138.146 77.8 138.146V141.127ZM77.8 143.417V146.399C79.4569 146.399 80.8 145.064 80.8 143.417H77.8ZM64.768 143.417V140.436C63.1111 140.436 61.768 141.77 61.768 143.417H64.768ZM64.768 154.043V157.025C66.4249 157.025 67.768 155.69 67.768 154.043H64.768ZM62.104 154.043H59.104C59.104 155.69 60.4471 157.025 62.104 157.025V154.043ZM62.104 128.999V126.017C60.4471 126.017 59.104 127.352 59.104 128.999H62.104ZM79.384 128.999H82.384C82.384 127.352 81.0409 126.017 79.384 126.017V128.999ZM79.384 131.289V134.27C81.0409 134.27 82.384 132.935 82.384 131.289H79.384ZM61.768 131.289V141.127H67.768V131.289H61.768ZM64.768 144.109H77.8V138.146H64.768V144.109ZM74.8 141.127V143.417H80.8V141.127H74.8ZM77.8 140.436H64.768V146.399H77.8V140.436ZM61.768 143.417V154.043H67.768V143.417H61.768ZM64.768 151.062H62.104V157.025H64.768V151.062ZM65.104 154.043V128.999H59.104V154.043H65.104ZM62.104 131.98H79.384V126.017H62.104V131.98ZM76.384 128.999V131.289H82.384V128.999H76.384ZM79.384 128.307H64.768V134.27H79.384V128.307ZM91.0053 151.467L93.1539 149.386L91.0053 151.467ZM88.2693 128.999V126.017C86.6124 126.017 85.2693 127.352 85.2693 128.999H88.2693ZM90.9333 128.999H93.9333C93.9333 127.352 92.5901 126.017 90.9333 126.017V128.999ZM104.397 149.75L106.609 151.764L104.397 149.75ZM106.377 128.999V126.017C104.72 126.017 103.377 127.352 103.377 128.999H106.377ZM108.969 128.999H111.969C111.969 127.352 110.626 126.017 108.969 126.017V128.999ZM106.233 151.467L104.085 149.386C104.08 149.391 104.075 149.396 104.071 149.401L106.233 151.467ZM98.637 151.276C95.9688 151.276 94.2798 150.535 93.1539 149.386L88.8566 153.548C91.3787 156.12 94.7777 157.239 98.637 157.239V151.276ZM93.1539 149.386C92.0511 148.262 91.2693 146.414 91.2693 143.346H85.2693C85.2693 147.386 86.3114 150.951 88.8566 153.548L93.1539 149.386ZM91.2693 143.346V128.999H85.2693V143.346H91.2693ZM88.2693 131.98H90.9333V126.017H88.2693V131.98ZM87.9333 128.999V143.238H93.9333V128.999H87.9333ZM87.9333 143.238C87.9333 146.531 88.6724 149.564 90.7018 151.764L95.1247 147.735C94.5141 147.073 93.9333 145.766 93.9333 143.238H87.9333ZM90.7018 151.764C92.7385 153.973 95.5487 154.878 98.637 154.878V148.915C96.734 148.915 95.728 148.389 95.1247 147.735L90.7018 151.764ZM98.637 154.878C101.74 154.878 104.567 153.979 106.609 151.764L102.186 147.735C101.588 148.383 100.575 148.915 98.637 148.915V154.878ZM106.609 151.764C108.638 149.564 109.377 146.531 109.377 143.238H103.377C103.377 145.766 102.796 147.073 102.186 147.735L106.609 151.764ZM109.377 143.238V128.999H103.377V143.238H109.377ZM106.377 131.98H108.969V126.017H106.377V131.98ZM105.969 128.999V143.346H111.969V128.999H105.969ZM105.969 143.346C105.969 146.414 105.187 148.262 104.085 149.386L108.382 153.548C110.927 150.951 111.969 147.386 111.969 143.346H105.969ZM104.071 149.401C102.974 150.534 101.308 151.276 98.637 151.276V157.239C102.495 157.239 105.893 156.121 108.396 153.533L104.071 149.401ZM125.001 131.289H128.001C128.001 129.642 126.658 128.307 125.001 128.307V131.289ZM116.145 131.289H113.145C113.145 132.935 114.488 134.27 116.145 134.27V131.289ZM116.145 128.999V126.017C114.488 126.017 113.145 127.352 113.145 128.999H116.145ZM136.521 128.999H139.521C139.521 127.352 138.178 126.017 136.521 126.017V128.999ZM136.521 131.289V134.27C138.178 134.27 139.521 132.935 139.521 131.289H136.521ZM127.665 131.289V128.307C126.008 128.307 124.665 129.642 124.665 131.289H127.665ZM127.665 154.043V157.025C129.322 157.025 130.665 155.69 130.665 154.043H127.665ZM125.001 154.043H122.001C122.001 155.69 123.344 157.025 125.001 157.025V154.043ZM125.001 128.307H116.145V134.27H125.001V128.307ZM119.145 131.289V128.999H113.145V131.289H119.145ZM116.145 131.98H136.521V126.017H116.145V131.98ZM133.521 128.999V131.289H139.521V128.999H133.521ZM136.521 128.307H127.665V134.27H136.521V128.307ZM124.665 131.289V154.043H130.665V131.289H124.665ZM127.665 151.062H125.001V157.025H127.665V151.062ZM128.001 154.043V131.289H122.001V154.043H128.001ZM146.404 151.467L148.553 149.386L146.404 151.467ZM143.668 128.999V126.017C142.012 126.017 140.668 127.352 140.668 128.999H143.668ZM146.332 128.999H149.332C149.332 127.352 147.989 126.017 146.332 126.017V128.999ZM159.796 149.75L162.008 151.764L159.796 149.75ZM161.776 128.999V126.017C160.12 126.017 158.776 127.352 158.776 128.999H161.776ZM164.368 128.999H167.368C167.368 127.352 166.025 126.017 164.368 126.017V128.999ZM161.632 151.467L159.484 149.386C159.479 149.391 159.475 149.396 159.47 149.401L161.632 151.467ZM154.036 151.276C151.368 151.276 149.679 150.535 148.553 149.386L144.256 153.548C146.778 156.12 150.177 157.239 154.036 157.239V151.276ZM148.553 149.386C147.45 148.262 146.668 146.414 146.668 143.346H140.668C140.668 147.386 141.711 150.951 144.256 153.548L148.553 149.386ZM146.668 143.346V128.999H140.668V143.346H146.668ZM143.668 131.98H146.332V126.017H143.668V131.98ZM143.332 128.999V143.238H149.332V128.999H143.332ZM143.332 143.238C143.332 146.531 144.072 149.564 146.101 151.764L150.524 147.735C149.913 147.073 149.332 145.766 149.332 143.238H143.332ZM146.101 151.764C148.138 153.973 150.948 154.878 154.036 154.878V148.915C152.133 148.915 151.127 148.389 150.524 147.735L146.101 151.764ZM154.036 154.878C157.139 154.878 159.966 153.979 162.008 151.764L157.585 147.735C156.987 148.383 155.974 148.915 154.036 148.915V154.878ZM162.008 151.764C164.037 149.564 164.776 146.531 164.776 143.238H158.776C158.776 145.766 158.196 147.073 157.585 147.735L162.008 151.764ZM164.776 143.238V128.999H158.776V143.238H164.776ZM161.776 131.98H164.368V126.017H161.776V131.98ZM161.368 128.999V143.346H167.368V128.999H161.368ZM161.368 143.346C161.368 146.414 160.587 148.262 159.484 149.386L163.781 153.548C166.326 150.951 167.368 147.386 167.368 143.346H161.368ZM159.47 149.401C158.373 150.534 156.707 151.276 154.036 151.276V157.239C157.894 157.239 161.292 156.121 163.795 153.533L159.47 149.401ZM193.204 154.043L190.759 155.771C191.322 156.558 192.233 157.025 193.204 157.025V154.043ZM187.444 145.993L189.889 144.265C189.258 143.383 188.195 142.91 187.113 143.03L187.444 145.993ZM178.66 146.101V143.119C177.003 143.119 175.66 144.454 175.66 146.101H178.66ZM178.66 154.043V157.025C180.317 157.025 181.66 155.69 181.66 154.043H178.66ZM175.996 154.043H172.996C172.996 155.69 174.339 157.025 175.996 157.025V154.043ZM175.996 128.999V126.017C174.339 126.017 172.996 127.352 172.996 128.999H175.996ZM192.988 131.289L191.056 133.569L192.988 131.289ZM194.212 142.559L191.797 140.79L191.792 140.797L194.212 142.559ZM189.964 145.457L189.038 142.621C188.129 142.914 187.415 143.62 187.115 144.521C186.816 145.424 186.966 146.414 187.521 147.187L189.964 145.457ZM196.12 154.043V157.025C197.243 157.025 198.272 156.402 198.787 155.409C199.301 154.417 199.215 153.222 198.563 152.313L196.12 154.043ZM191.08 142.201L193.005 144.488L191.08 142.201ZM191.08 132.934L189.156 135.221C189.164 135.228 189.172 135.235 189.18 135.242L191.08 132.934ZM178.66 131.289V128.307C177.003 128.307 175.66 129.642 175.66 131.289H178.66ZM178.66 143.847H175.66C175.66 145.493 177.003 146.828 178.66 146.828V143.847ZM195.649 152.315L189.889 144.265L184.999 147.721L190.759 155.771L195.649 152.315ZM187.113 143.03C186.582 143.088 186.021 143.119 185.428 143.119V149.082C186.228 149.082 187.01 149.041 187.775 148.957L187.113 143.03ZM185.428 143.119H178.66V149.082H185.428V143.119ZM175.66 146.101V154.043H181.66V146.101H175.66ZM178.66 151.062H175.996V157.025H178.66V151.062ZM178.996 154.043V128.999H172.996V154.043H178.996ZM175.996 131.98H185.428V126.017H175.996V131.98ZM185.428 131.98C188.185 131.98 189.936 132.632 191.056 133.569L194.921 129.008C192.393 126.892 189.104 126.017 185.428 126.017V131.98ZM191.056 133.569C192.112 134.453 192.724 135.668 192.724 137.585H198.724C198.724 134.16 197.513 131.177 194.921 129.008L191.056 133.569ZM192.724 137.585C192.724 139.01 192.367 140.021 191.797 140.79L196.627 144.328C198.073 142.377 198.724 140.073 198.724 137.585H192.724ZM191.792 140.797C191.239 141.548 190.39 142.185 189.038 142.621L190.891 148.292C193.235 147.536 195.217 146.241 196.633 144.32L191.792 140.797ZM187.521 147.187L193.677 155.773L198.563 152.313L192.407 143.726L187.521 147.187ZM196.12 151.062H193.204V157.025H196.12V151.062ZM185.356 146.828C188.246 146.828 190.948 146.198 193.005 144.488L189.156 139.914C188.573 140.398 187.458 140.865 185.356 140.865V146.828ZM193.005 144.488C195.118 142.731 196.06 140.293 196.06 137.585H190.06C190.06 138.838 189.683 139.476 189.156 139.914L193.005 144.488ZM196.06 137.585C196.06 134.858 195.135 132.379 192.98 130.627L189.18 135.242C189.666 135.637 190.06 136.258 190.06 137.585H196.06ZM193.005 130.648C190.948 128.937 188.246 128.307 185.356 128.307V134.27C187.458 134.27 188.573 134.737 189.156 135.221L193.005 130.648ZM185.356 128.307H178.66V134.27H185.356V128.307ZM175.66 131.289V143.847H181.66V131.289H175.66ZM178.66 146.828H185.356V140.865H178.66V146.828ZM223.432 151.753H226.432C226.432 150.107 225.089 148.772 223.432 148.772V151.753ZM223.432 154.043V157.025C225.089 157.025 226.432 155.69 226.432 154.043H223.432ZM205.612 154.043H202.612C202.612 155.69 203.955 157.025 205.612 157.025V154.043ZM205.612 128.999V126.017C203.955 126.017 202.612 127.352 202.612 128.999H205.612ZM222.892 128.999H225.892C225.892 127.352 224.549 126.017 222.892 126.017V128.999ZM222.892 131.289V134.27C224.549 134.27 225.892 132.935 225.892 131.289H222.892ZM208.276 131.289V128.307C206.619 128.307 205.276 129.642 205.276 131.289H208.276ZM208.276 140.197H205.276C205.276 141.844 206.619 143.179 208.276 143.179V140.197ZM221.308 140.197H224.308C224.308 138.55 222.965 137.216 221.308 137.216V140.197ZM221.308 142.451V145.433C222.965 145.433 224.308 144.098 224.308 142.451H221.308ZM208.276 142.451V139.47C206.619 139.47 205.276 140.804 205.276 142.451H208.276ZM208.276 151.753H205.276C205.276 153.4 206.619 154.735 208.276 154.735V151.753ZM220.432 151.753V154.043H226.432V151.753H220.432ZM223.432 151.062H205.612V157.025H223.432V151.062ZM208.612 154.043V128.999H202.612V154.043H208.612ZM205.612 131.98H222.892V126.017H205.612V131.98ZM219.892 128.999V131.289H225.892V128.999H219.892ZM222.892 128.307H208.276V134.27H222.892V128.307ZM205.276 131.289V140.197H211.276V131.289H205.276ZM208.276 143.179H221.308V137.216H208.276V143.179ZM218.308 140.197V142.451H224.308V140.197H218.308ZM221.308 139.47H208.276V145.433H221.308V139.47ZM205.276 142.451V151.753H211.276V142.451H205.276ZM208.276 154.735H223.432V148.772H208.276V154.735Z" fill="white"/>
<path d="M58.44 166.188L57.1576 167.713C57.1617 167.716 57.1659 167.72 57.1701 167.723L58.44 166.188ZM58.44 172.926L59.7099 174.461C59.7141 174.458 59.7183 174.454 59.7224 174.451L58.44 172.926ZM50.06 174.118V172.131C48.9554 172.131 48.06 173.02 48.06 174.118H50.06ZM50.06 178.889V180.877C51.1646 180.877 52.06 179.987 52.06 178.889H50.06ZM49.66 178.889H47.66C47.66 179.987 48.5554 180.877 49.66 180.877V178.889ZM49.66 164.975V162.988C48.5554 162.988 47.66 163.877 47.66 164.975H49.66ZM58.18 172.648L56.8996 171.121C56.8958 171.124 56.8919 171.127 56.8881 171.13L58.18 172.648ZM58.18 166.446L56.8881 167.964C56.8919 167.967 56.8958 167.97 56.8996 167.973L58.18 166.446ZM50.06 165.353V163.365C48.9554 163.365 48.06 164.255 48.06 165.353H50.06ZM50.06 173.741H48.06C48.06 174.839 48.9554 175.729 50.06 175.729V173.741ZM54.4 166.963C55.8182 166.963 56.6541 167.295 57.1576 167.713L59.7224 164.662C58.2792 163.464 56.4218 162.988 54.4 162.988V166.963ZM57.1701 167.723C57.6072 168.08 57.9 168.595 57.9 169.547H61.9C61.9 167.61 61.2195 165.886 59.7099 164.652L57.1701 167.723ZM57.9 169.547C57.9 170.498 57.6069 171.028 57.1576 171.4L59.7224 174.451C61.2198 173.207 61.9 171.484 61.9 169.547H57.9ZM57.1701 171.39C56.6661 171.802 55.8253 172.131 54.4 172.131V176.106C56.4147 176.106 58.2672 175.64 59.7099 174.461L57.1701 171.39ZM54.4 172.131H50.06V176.106H54.4V172.131ZM48.06 174.118V178.889H52.06V174.118H48.06ZM50.06 176.901H49.66V180.877H50.06V176.901ZM51.66 178.889V164.975H47.66V178.889H51.66ZM49.66 166.963H54.4V162.988H49.66V166.963ZM54.44 175.729C56.3386 175.729 58.1156 175.305 59.4719 174.165L56.8881 171.13C56.511 171.447 55.7947 171.753 54.44 171.753V175.729ZM59.4604 174.174C60.8784 173 61.5 171.36 61.5 169.547H57.5C57.5 170.411 57.2416 170.838 56.8996 171.121L59.4604 174.174ZM61.5 169.547C61.5 167.734 60.8784 166.093 59.4604 164.92L56.8996 167.973C57.2416 168.256 57.5 168.683 57.5 169.547H61.5ZM59.4719 164.929C58.1156 163.789 56.3386 163.365 54.44 163.365V167.341C55.7947 167.341 56.511 167.647 56.8881 167.964L59.4719 164.929ZM54.44 163.365H50.06V167.341H54.44V163.365ZM48.06 165.353V173.741H52.06V165.353H48.06ZM50.06 175.729H54.44V171.753H50.06V175.729ZM74.9839 178.511H76.9839C76.9839 177.413 76.0885 176.524 74.9839 176.524V178.511ZM74.9839 178.889V180.877C76.0885 180.877 76.9839 179.987 76.9839 178.889H74.9839ZM65.6639 178.889H63.6639C63.6639 179.987 64.5593 180.877 65.6639 180.877V178.889ZM65.6639 164.975V162.988C64.5593 162.988 63.6639 163.877 63.6639 164.975H65.6639ZM74.6839 164.975H76.6839C76.6839 163.877 75.7885 162.988 74.6839 162.988V164.975ZM74.6839 165.353V167.341C75.7885 167.341 76.6839 166.451 76.6839 165.353H74.6839ZM66.0639 165.353V163.365C64.9593 163.365 64.0639 164.255 64.0639 165.353H66.0639ZM66.0639 171.634H64.0639C64.0639 172.732 64.9593 173.622 66.0639 173.622V171.634ZM73.7839 171.634H75.7839C75.7839 170.536 74.8885 169.646 73.7839 169.646V171.634ZM73.7839 172.012V173.999C74.8885 173.999 75.7839 173.11 75.7839 172.012H73.7839ZM66.0639 172.012V170.024C64.9593 170.024 64.0639 170.913 64.0639 172.012H66.0639ZM66.0639 178.511H64.0639C64.0639 179.609 64.9593 180.499 66.0639 180.499V178.511ZM72.9839 178.511V178.889H76.9839V178.511H72.9839ZM74.9839 176.901H65.6639V180.877H74.9839V176.901ZM67.6639 178.889V164.975H63.6639V178.889H67.6639ZM65.6639 166.963H74.6839V162.988H65.6639V166.963ZM72.6839 164.975V165.353H76.6839V164.975H72.6839ZM74.6839 163.365H66.0639V167.341H74.6839V163.365ZM64.0639 165.353V171.634H68.0639V165.353H64.0639ZM66.0639 173.622H73.7839V169.646H66.0639V173.622ZM71.7839 171.634V172.012H75.7839V171.634H71.7839ZM73.7839 170.024H66.0639V173.999H73.7839V170.024ZM64.0639 172.012V178.511H68.0639V172.012H64.0639ZM66.0639 180.499H74.9839V176.524H66.0639V180.499ZM90.9633 178.889L89.3407 180.051C89.7166 180.569 90.3203 180.877 90.9633 180.877V178.889ZM87.4033 173.979L89.0259 172.818C88.5675 172.186 87.7798 171.877 87.011 172.03L87.4033 173.979ZM81.4233 174.118V172.131C80.3187 172.131 79.4233 173.02 79.4233 174.118H81.4233ZM81.4233 178.889V180.877C82.5279 180.877 83.4233 179.987 83.4233 178.889H81.4233ZM81.0233 178.889H79.0233C79.0233 179.987 79.9187 180.877 81.0233 180.877V178.889ZM81.0233 164.975V162.988C79.9187 162.988 79.0233 163.877 79.0233 164.975H81.0233ZM89.8033 166.188L88.5208 167.713C88.525 167.716 88.5292 167.72 88.5334 167.723L89.8033 166.188ZM90.3633 172.349L91.9223 173.595C91.9259 173.59 91.9295 173.586 91.933 173.581L90.3633 172.349ZM87.8233 173.88L87.3271 171.955C86.6862 172.118 86.1679 172.585 85.9427 173.203C85.7175 173.821 85.8146 174.511 86.2019 175.044L87.8233 173.88ZM91.4633 178.889V180.877C92.2143 180.877 92.9021 180.458 93.244 179.794C93.5859 179.129 93.5244 178.33 93.0846 177.725L91.4633 178.889ZM89.5433 172.648L88.2629 171.121C88.2591 171.124 88.2552 171.127 88.2514 171.13L89.5433 172.648ZM89.5433 166.446L88.2514 167.964C88.2552 167.967 88.2591 167.97 88.2629 167.973L89.5433 166.446ZM81.4233 165.353V163.365C80.3187 163.365 79.4233 164.255 79.4233 165.353H81.4233ZM81.4233 173.741H79.4233C79.4233 174.839 80.3187 175.729 81.4233 175.729V173.741ZM92.5859 177.727L89.0259 172.818L85.7807 175.141L89.3407 180.051L92.5859 177.727ZM87.011 172.03C86.7067 172.091 86.297 172.131 85.7633 172.131V176.106C86.4829 176.106 87.1666 176.053 87.7955 175.928L87.011 172.03ZM85.7633 172.131H81.4233V176.106H85.7633V172.131ZM79.4233 174.118V178.889H83.4233V174.118H79.4233ZM81.4233 176.901H81.0233V180.877H81.4233V176.901ZM83.0233 178.889V164.975H79.0233V178.889H83.0233ZM81.0233 166.963H85.7633V162.988H81.0233V166.963ZM85.7633 166.963C87.1815 166.963 88.0174 167.295 88.5208 167.713L91.0857 164.662C89.6425 163.464 87.7851 162.988 85.7633 162.988V166.963ZM88.5334 167.723C88.9705 168.08 89.2633 168.595 89.2633 169.547H93.2633C93.2633 167.61 92.5827 165.886 91.0732 164.652L88.5334 167.723ZM89.2633 169.547C89.2633 170.286 89.0724 170.767 88.7935 171.118L91.933 173.581C92.8542 172.421 93.2633 171.034 93.2633 169.547H89.2633ZM88.8043 171.104C88.5212 171.454 88.0787 171.763 87.3271 171.955L88.3195 175.805C89.7545 175.44 91.0054 174.729 91.9223 173.595L88.8043 171.104ZM86.2019 175.044L89.8419 180.053L93.0846 177.725L89.4446 172.716L86.2019 175.044ZM91.4633 176.901H90.9633V180.877H91.4633V176.901ZM85.8033 175.729C87.7019 175.729 89.4789 175.305 90.8352 174.165L88.2514 171.13C87.8743 171.447 87.158 171.753 85.8033 171.753V175.729ZM90.8237 174.174C92.2417 173 92.8633 171.36 92.8633 169.547H88.8633C88.8633 170.411 88.6049 170.838 88.2629 171.121L90.8237 174.174ZM92.8633 169.547C92.8633 167.734 92.2417 166.093 90.8237 164.92L88.2629 167.973C88.6049 168.256 88.8633 168.683 88.8633 169.547H92.8633ZM90.8352 164.929C89.4789 163.789 87.7019 163.365 85.8033 163.365V167.341C87.158 167.341 87.8743 167.647 88.2514 167.964L90.8352 164.929ZM85.8033 163.365H81.4233V167.341H85.8033V163.365ZM79.4233 165.353V173.741H83.4233V165.353H79.4233ZM81.4233 175.729H85.8033V171.753H81.4233V175.729ZM97.74 165.353V163.365C96.635 163.365 95.7397 164.255 95.7397 165.353H97.74ZM97.74 172.031H95.7397C95.7397 173.13 96.635 174.019 97.74 174.019V172.031ZM105.46 172.031H107.46C107.46 170.933 106.564 170.044 105.46 170.044V172.031ZM105.46 172.409V174.397C106.564 174.397 107.46 173.507 107.46 172.409H105.46ZM97.74 172.409V170.421C96.635 170.421 95.7397 171.311 95.7397 172.409H97.74ZM97.74 178.889V180.877C98.844 180.877 99.74 179.987 99.74 178.889H97.74ZM97.34 178.889H95.3397C95.3397 179.987 96.235 180.877 97.34 180.877V178.889ZM97.34 164.975V162.988C96.235 162.988 95.3397 163.877 95.3397 164.975H97.34ZM106.36 164.975H108.36C108.36 163.877 107.464 162.988 106.36 162.988V164.975ZM106.36 165.353V167.341C107.464 167.341 108.36 166.451 108.36 165.353H106.36ZM95.7397 165.353V172.031H99.74V165.353H95.7397ZM97.74 174.019H105.46V170.044H97.74V174.019ZM103.46 172.031V172.409H107.46V172.031H103.46ZM105.46 170.421H97.74V174.397H105.46V170.421ZM95.7397 172.409V178.889H99.74V172.409H95.7397ZM97.74 176.901H97.34V180.877H97.74V176.901ZM99.34 178.889V164.975H95.3397V178.889H99.34ZM97.34 166.963H106.36V162.988H97.34V166.963ZM104.36 164.975V165.353H108.36V164.975H104.36ZM106.36 163.365H97.74V167.341H106.36V163.365ZM121.238 178.511H123.238C123.238 177.413 122.342 176.524 121.238 176.524V178.511ZM121.238 178.889V180.877C122.342 180.877 123.238 179.987 123.238 178.889H121.238ZM111.918 178.889H109.918C109.918 179.987 110.813 180.877 111.918 180.877V178.889ZM111.918 164.975V162.988C110.813 162.988 109.918 163.877 109.918 164.975H111.918ZM120.938 164.975H122.938C122.938 163.877 122.042 162.988 120.938 162.988V164.975ZM120.938 165.353V167.341C122.042 167.341 122.938 166.451 122.938 165.353H120.938ZM112.318 165.353V163.365C111.213 163.365 110.318 164.255 110.318 165.353H112.318ZM112.318 171.634H110.318C110.318 172.732 111.213 173.622 112.318 173.622V171.634ZM120.038 171.634H122.038C122.038 170.536 121.142 169.646 120.038 169.646V171.634ZM120.038 172.012V173.999C121.142 173.999 122.038 173.11 122.038 172.012H120.038ZM112.318 172.012V170.024C111.213 170.024 110.318 170.913 110.318 172.012H112.318ZM112.318 178.511H110.318C110.318 179.609 111.213 180.499 112.318 180.499V178.511ZM119.238 178.511V178.889H123.238V178.511H119.238ZM121.238 176.901H111.918V180.877H121.238V176.901ZM113.918 178.889V164.975H109.918V178.889H113.918ZM111.918 166.963H120.938V162.988H111.918V166.963ZM118.938 164.975V165.353H122.938V164.975H118.938ZM120.938 163.365H112.318V167.341H120.938V163.365ZM110.318 165.353V171.634H114.318V165.353H110.318ZM112.318 173.622H120.038V169.646H112.318V173.622ZM118.038 171.634V172.012H122.038V171.634H118.038ZM120.038 170.024H112.318V173.999H120.038V170.024ZM110.318 172.012V178.511H114.318V172.012H110.318ZM112.318 180.499H121.238V176.524H112.318V180.499ZM129.317 178.034L130.296 176.301L129.317 178.034ZM126.737 175.53L125.007 176.528L125.013 176.536L126.737 175.53ZM126.737 168.354L128.462 169.361L128.467 169.352L126.737 168.354ZM129.317 165.83L130.296 167.563L129.317 165.83ZM135.617 165.373L134.912 167.232C134.924 167.237 134.936 167.241 134.948 167.246L135.617 165.373ZM137.737 166.685L139.256 167.979C139.936 167.19 139.89 166.014 139.151 165.279L137.737 166.685ZM137.497 166.963L136.116 168.401C136.513 168.778 137.049 168.975 137.597 168.948C138.145 168.921 138.658 168.67 139.016 168.257L137.497 166.963ZM129.517 166.168L128.535 164.437L128.525 164.443L129.517 166.168ZM127.077 168.573L125.35 167.57L125.346 167.577L127.077 168.573ZM127.077 175.311L125.341 176.297C125.346 176.306 125.351 176.315 125.356 176.324L127.077 175.311ZM129.517 177.696L128.525 179.423L128.535 179.428L129.517 177.696ZM137.497 176.881L139.016 175.587C138.658 175.174 138.145 174.923 137.597 174.896C137.048 174.869 136.513 175.067 136.116 175.444L137.497 176.881ZM137.737 177.16L139.151 178.565C139.89 177.83 139.936 176.655 139.256 175.866L137.737 177.16ZM135.617 178.491L134.922 176.628L135.617 178.491ZM132.977 176.961C131.947 176.961 131.068 176.731 130.296 176.301L128.339 179.767C129.753 180.557 131.314 180.936 132.977 180.936V176.961ZM130.296 176.301C129.507 175.861 128.906 175.275 128.462 174.523L125.013 176.536C125.821 177.905 126.941 178.988 128.339 179.767L130.296 176.301ZM128.467 174.532C128.029 173.783 127.797 172.932 127.797 171.932H123.797C123.797 173.583 124.192 175.13 125.007 176.528L128.467 174.532ZM127.797 171.932C127.797 170.932 128.029 170.093 128.462 169.361L125.013 167.348C124.192 168.737 123.797 170.281 123.797 171.932H127.797ZM128.467 169.352C128.913 168.588 129.513 168 130.296 167.563L128.339 164.097C126.934 164.879 125.814 165.974 125.007 167.356L128.467 169.352ZM130.296 167.563C131.068 167.133 131.947 166.903 132.977 166.903V162.928C131.314 162.928 129.753 163.308 128.339 164.097L130.296 167.563ZM132.977 166.903C133.704 166.903 134.343 167.02 134.912 167.232L136.323 163.513C135.265 163.117 134.143 162.928 132.977 162.928V166.903ZM134.948 167.246C135.511 167.445 135.959 167.728 136.323 168.09L139.151 165.279C138.342 164.475 137.377 163.884 136.286 163.499L134.948 167.246ZM136.219 165.391L135.979 165.669L139.016 168.257L139.256 167.979L136.219 165.391ZM138.878 165.525C137.282 164.011 135.257 163.306 132.977 163.306V167.281C134.378 167.281 135.366 167.688 136.116 168.401L138.878 165.525ZM132.977 163.306C131.388 163.306 129.893 163.675 128.535 164.437L130.5 167.899C131.222 167.495 132.033 167.281 132.977 167.281V163.306ZM128.525 164.443C127.192 165.199 126.126 166.25 125.35 167.57L128.804 169.576C129.228 168.854 129.789 168.303 130.509 167.893L128.525 164.443ZM125.346 167.577C124.573 168.905 124.197 170.372 124.197 171.932H128.197C128.197 171.028 128.408 170.255 128.808 169.569L125.346 167.577ZM124.197 171.932C124.197 173.492 124.573 174.961 125.341 176.297L128.814 174.325C128.408 173.62 128.197 172.836 128.197 171.932H124.197ZM125.356 176.324C126.134 177.629 127.199 178.669 128.525 179.422L130.509 175.971C129.782 175.558 129.221 175.008 128.798 174.298L125.356 176.324ZM128.535 179.428C129.893 180.189 131.388 180.558 132.977 180.558V176.583C132.033 176.583 131.222 176.37 130.5 175.965L128.535 179.428ZM132.977 180.558C135.255 180.558 137.276 179.839 138.879 178.318L136.116 175.444C135.345 176.176 134.353 176.583 132.977 176.583V180.558ZM135.979 178.175L136.219 178.454L139.256 175.866L139.016 175.587L135.979 178.175ZM136.323 175.754C135.953 176.122 135.496 176.416 134.922 176.628L136.313 180.355C137.392 179.957 138.349 179.363 139.151 178.565L136.323 175.754ZM134.922 176.628C134.33 176.846 133.687 176.961 132.977 176.961V180.936C134.134 180.936 135.251 180.746 136.313 180.355L134.922 176.628ZM148.116 165.353H150.116C150.116 164.255 149.221 163.365 148.116 163.365V165.353ZM142.916 165.353H140.916C140.916 166.451 141.811 167.341 142.916 167.341V165.353ZM142.916 164.975V162.988C141.811 162.988 140.916 163.877 140.916 164.975H142.916ZM153.716 164.975H155.716C155.716 163.877 154.821 162.988 153.716 162.988V164.975ZM153.716 165.353V167.341C154.821 167.341 155.716 166.451 155.716 165.353H153.716ZM148.516 165.353V163.365C147.411 163.365 146.516 164.255 146.516 165.353H148.516ZM148.516 178.889V180.877C149.621 180.877 150.516 179.987 150.516 178.889H148.516ZM148.116 178.889H146.116C146.116 179.987 147.011 180.877 148.116 180.877V178.889ZM148.116 163.365H142.916V167.341H148.116V163.365ZM144.916 165.353V164.975H140.916V165.353H144.916ZM142.916 166.963H153.716V162.988H142.916V166.963ZM151.716 164.975V165.353H155.716V164.975H151.716ZM153.716 163.365H148.516V167.341H153.716V163.365ZM146.516 165.353V178.889H150.516V165.353H146.516ZM148.516 176.901H148.116V180.877H148.516V176.901ZM150.116 178.889V165.353H146.116V178.889H150.116ZM168.073 165.353H170.073C170.073 164.255 169.178 163.365 168.073 163.365V165.353ZM162.873 165.353H160.873C160.873 166.451 161.768 167.341 162.873 167.341V165.353ZM162.873 164.975V162.988C161.768 162.988 160.873 163.877 160.873 164.975H162.873ZM173.673 164.975H175.673C175.673 163.877 174.778 162.988 173.673 162.988V164.975ZM173.673 165.353V167.341C174.778 167.341 175.673 166.451 175.673 165.353H173.673ZM168.473 165.353V163.365C167.368 163.365 166.473 164.255 166.473 165.353H168.473ZM168.473 178.889V180.877C169.578 180.877 170.473 179.987 170.473 178.889H168.473ZM168.073 178.889H166.073C166.073 179.987 166.968 180.877 168.073 180.877V178.889ZM168.073 163.365H162.873V167.341H168.073V163.365ZM164.873 165.353V164.975H160.873V165.353H164.873ZM162.873 166.963H173.673V162.988H162.873V166.963ZM171.673 164.975V165.353H175.673V164.975H171.673ZM173.673 163.365H168.473V167.341H173.673V163.365ZM166.473 165.353V178.889H170.473V165.353H166.473ZM168.473 176.901H168.073V180.877H168.473V176.901ZM170.073 178.889V165.353H166.073V178.889H170.073ZM187.73 178.511H189.73C189.73 177.413 188.835 176.524 187.73 176.524V178.511ZM187.73 178.889V180.877C188.835 180.877 189.73 179.987 189.73 178.889H187.73ZM178.41 178.889H176.41C176.41 179.987 177.305 180.877 178.41 180.877V178.889ZM178.41 164.975V162.988C177.305 162.988 176.41 163.877 176.41 164.975H178.41ZM187.43 164.975H189.43C189.43 163.877 188.535 162.988 187.43 162.988V164.975ZM187.43 165.353V167.341C188.535 167.341 189.43 166.451 189.43 165.353H187.43ZM178.81 165.353V163.365C177.705 163.365 176.81 164.255 176.81 165.353H178.81ZM178.81 171.634H176.81C176.81 172.732 177.705 173.622 178.81 173.622V171.634ZM186.53 171.634H188.53C188.53 170.536 187.635 169.646 186.53 169.646V171.634ZM186.53 172.012V173.999C187.635 173.999 188.53 173.11 188.53 172.012H186.53ZM178.81 172.012V170.024C177.705 170.024 176.81 170.913 176.81 172.012H178.81ZM178.81 178.511H176.81C176.81 179.609 177.705 180.499 178.81 180.499V178.511ZM185.73 178.511V178.889H189.73V178.511H185.73ZM187.73 176.901H178.41V180.877H187.73V176.901ZM180.41 178.889V164.975H176.41V178.889H180.41ZM178.41 166.963H187.43V162.988H178.41V166.963ZM185.43 164.975V165.353H189.43V164.975H185.43ZM187.43 163.365H178.81V167.341H187.43V163.365ZM176.81 165.353V171.634H180.81V165.353H176.81ZM178.81 173.622H186.53V169.646H178.81V173.622ZM184.53 171.634V172.012H188.53V171.634H184.53ZM186.53 170.024H178.81V173.999H186.53V170.024ZM176.81 172.012V178.511H180.81V172.012H176.81ZM178.81 180.499H187.73V176.524H178.81V180.499ZM204.769 164.975H206.769C206.769 163.877 205.874 162.988 204.769 162.988V164.975ZM204.769 178.889V180.877C205.874 180.877 206.769 179.987 206.769 178.889H204.769ZM204.429 178.889L202.848 180.105C203.226 180.591 203.81 180.877 204.429 180.877V178.889ZM194.169 165.711L195.751 164.494C195.228 163.822 194.332 163.555 193.523 163.829C192.713 164.105 192.169 164.861 192.169 165.711H194.169ZM194.169 178.889V180.877C195.274 180.877 196.169 179.987 196.169 178.889H194.169ZM193.769 178.889H191.769C191.769 179.987 192.665 180.877 193.769 180.877V178.889ZM193.769 164.975V162.988C192.665 162.988 191.769 163.877 191.769 164.975H193.769ZM194.109 164.975L195.691 163.759C195.312 163.273 194.728 162.988 194.109 162.988V164.975ZM204.369 178.153L202.788 179.37C203.311 180.042 204.207 180.309 205.016 180.035C205.825 179.759 206.369 179.003 206.369 178.153H204.369ZM204.369 164.975V162.988C203.265 162.988 202.369 163.877 202.369 164.975H204.369ZM202.769 164.975V178.889H206.769V164.975H202.769ZM204.769 176.901H204.429V180.877H204.769V176.901ZM206.011 177.672L195.751 164.494L192.588 166.927L202.848 180.105L206.011 177.672ZM192.169 165.711V178.889H196.169V165.711H192.169ZM194.169 176.901H193.769V180.877H194.169V176.901ZM195.769 178.889V164.975H191.769V178.889H195.769ZM193.769 166.963H194.109V162.988H193.769V166.963ZM192.528 166.192L202.788 179.37L205.951 176.937L195.691 163.759L192.528 166.192ZM206.369 178.153V164.975H202.369V178.153H206.369ZM204.369 166.963H204.769V162.988H204.369V166.963ZM212.658 178.412L211.886 180.245C211.894 180.249 211.902 180.252 211.91 180.255L212.658 178.412ZM210.598 176.981L209.237 175.524C208.463 176.238 208.381 177.427 209.05 178.239L210.598 176.981ZM210.878 176.722L212.401 175.435C212.048 175.022 211.54 174.77 210.995 174.738C210.451 174.706 209.916 174.897 209.517 175.265L210.878 176.722ZM212.818 178.054L212.03 179.881C212.038 179.885 212.046 179.888 212.055 179.892L212.818 178.054ZM218.778 177.716L220.009 179.282L220.013 179.279L218.778 177.716ZM219.318 173.761L217.836 175.095L219.318 173.761ZM217.878 172.807L217.166 174.664C217.17 174.666 217.175 174.668 217.18 174.669L217.878 172.807ZM215.598 172.151L215.118 174.081C215.125 174.082 215.131 174.084 215.138 174.085L215.598 172.151ZM213.158 171.435L212.415 173.281C212.427 173.286 212.439 173.29 212.451 173.295L213.158 171.435ZM211.618 170.362L210.084 171.638C210.097 171.653 210.11 171.668 210.123 171.683L211.618 170.362ZM211.498 166.665L213.193 167.718L211.498 166.665ZM217.878 165.273L217.245 167.159C217.256 167.163 217.266 167.166 217.277 167.17L217.878 165.273ZM219.738 166.188L221.386 167.314C221.995 166.433 221.794 165.231 220.931 164.593L219.738 166.188ZM219.518 166.506L218.336 168.11C218.773 168.427 219.32 168.555 219.853 168.466C220.386 168.375 220.859 168.075 221.166 167.632L219.518 166.506ZM217.678 165.611L217.068 167.505C217.083 167.51 217.098 167.514 217.113 167.518L217.678 165.611ZM212.498 166.188L213.747 167.74C213.753 167.735 213.758 167.731 213.764 167.726L212.498 166.188ZM211.978 170.163L210.475 171.475C210.482 171.483 210.489 171.49 210.496 171.498L211.978 170.163ZM213.418 171.117L214.115 169.255L213.418 171.117ZM215.738 171.793L216.223 169.865L216.216 169.863L215.738 171.793ZM218.158 172.528L217.415 174.374C217.427 174.379 217.439 174.383 217.451 174.388L218.158 172.528ZM219.678 173.582L218.162 174.879C218.168 174.886 218.174 174.893 218.18 174.9L219.678 173.582ZM219.778 177.219L218.101 176.136L219.778 177.219ZM218.178 178.491L218.974 180.315C218.979 180.312 218.984 180.31 218.99 180.308L218.178 178.491ZM215.518 176.961C214.747 176.961 214.049 176.826 213.405 176.568L211.91 180.255C213.053 180.714 214.262 180.936 215.518 180.936V176.961ZM213.429 176.578C212.756 176.299 212.368 175.993 212.145 175.723L209.05 178.239C209.787 179.135 210.772 179.783 211.886 180.245L213.429 176.578ZM211.958 178.438L212.238 178.179L209.517 175.265L209.237 175.524L211.958 178.438ZM209.354 178.009C210.059 178.834 210.989 179.437 212.03 179.881L213.605 176.227C212.966 175.955 212.603 175.671 212.401 175.435L209.354 178.009ZM212.055 179.892C213.147 180.339 214.3 180.558 215.498 180.558V176.583C214.801 176.583 214.168 176.458 213.58 176.216L212.055 179.892ZM215.498 180.558C217.162 180.558 218.775 180.24 220.009 179.282L217.546 176.15C217.313 176.331 216.74 176.583 215.498 176.583V180.558ZM220.013 179.279C221.224 178.333 221.898 177.016 221.898 175.47H217.898C217.898 175.752 217.824 175.933 217.542 176.153L220.013 179.279ZM221.898 175.47C221.898 174.39 221.597 173.301 220.799 172.426L217.836 175.095C217.837 175.097 217.839 175.099 217.841 175.103C217.844 175.107 217.85 175.118 217.857 175.141C217.873 175.187 217.898 175.288 217.898 175.47H221.898ZM220.799 172.426C220.184 171.751 219.429 171.259 218.575 170.944L217.18 174.669C217.472 174.777 217.677 174.923 217.836 175.095L220.799 172.426ZM218.589 170.949C217.912 170.693 217.056 170.45 216.057 170.217L215.138 174.085C216.059 174.301 216.723 174.496 217.166 174.664L218.589 170.949ZM216.077 170.221C215.085 169.977 214.358 169.761 213.864 169.576L212.451 173.295C213.157 173.56 214.057 173.82 215.118 174.081L216.077 170.221ZM213.9 169.59C213.587 169.465 213.331 169.287 213.112 169.041L210.123 171.683C210.757 172.391 211.528 172.928 212.415 173.281L213.9 169.59ZM213.151 169.086C213.111 169.039 212.998 168.882 212.998 168.414H208.998C208.998 169.563 209.297 170.704 210.084 171.638L213.151 169.086ZM212.998 168.414C212.998 168.144 213.062 167.927 213.193 167.718L209.802 165.611C209.266 166.463 208.998 167.412 208.998 168.414H212.998ZM213.193 167.718C213.274 167.591 213.451 167.397 213.883 167.203L212.232 163.582C211.251 164.024 210.388 164.679 209.802 165.611L213.193 167.718ZM213.883 167.203C214.258 167.035 214.83 166.903 215.678 166.903V162.928C214.445 162.928 213.271 163.115 212.232 163.582L213.883 167.203ZM215.678 166.903C216.206 166.903 216.726 166.987 217.245 167.159L218.51 163.388C217.589 163.083 216.643 162.928 215.678 162.928V166.903ZM217.277 167.17C217.818 167.339 218.23 167.551 218.544 167.783L220.931 164.593C220.205 164.056 219.377 163.658 218.478 163.377L217.277 167.17ZM218.089 165.062L217.869 165.38L221.166 167.632L221.386 167.314L218.089 165.062ZM220.699 164.902C219.957 164.362 219.133 163.965 218.242 163.704L217.113 167.518C217.582 167.656 217.985 167.854 218.336 168.11L220.699 164.902ZM218.287 163.718C217.437 163.448 216.572 163.306 215.698 163.306V167.281C216.13 167.281 216.584 167.351 217.068 167.505L218.287 163.718ZM215.698 163.306C214.049 163.306 212.458 163.652 211.231 164.649L213.764 167.726C214.004 167.53 214.546 167.281 215.698 167.281V163.306ZM211.248 164.635C210.052 165.586 209.398 166.901 209.398 168.434H213.398C213.398 168.138 213.477 167.955 213.747 167.74L211.248 164.635ZM209.398 168.434C209.398 169.517 209.699 170.597 210.475 171.475L213.48 168.851C213.47 168.84 213.456 168.822 213.44 168.775C213.422 168.721 213.398 168.615 213.398 168.434H209.398ZM210.496 171.498C211.111 172.173 211.866 172.665 212.72 172.98L214.115 169.255C213.823 169.146 213.618 169.001 213.459 168.828L210.496 171.498ZM212.72 172.98C213.395 173.23 214.252 173.476 215.259 173.723L216.216 169.863C215.277 169.632 214.586 169.429 214.115 169.255L212.72 172.98ZM215.252 173.721C216.224 173.962 216.934 174.183 217.415 174.374L218.9 170.683C218.181 170.397 217.277 170.126 216.223 169.865L215.252 173.721ZM217.451 174.388C217.742 174.497 217.97 174.657 218.162 174.879L221.193 172.285C220.559 171.552 219.773 171.01 218.864 170.669L217.451 174.388ZM218.18 174.9C218.186 174.907 218.298 175.019 218.298 175.47H222.298C222.298 174.331 221.995 173.184 221.175 172.264L218.18 174.9ZM218.298 175.47C218.298 175.725 218.235 175.93 218.101 176.136L221.454 178.303C222.013 177.448 222.298 176.488 222.298 175.47H218.298ZM218.101 176.136C218.01 176.274 217.816 176.476 217.365 176.675L218.99 180.308C219.979 179.871 220.852 179.224 221.454 178.303L218.101 176.136ZM217.381 176.668C217.003 176.832 216.409 176.961 215.518 176.961V180.936C216.76 180.936 217.939 180.761 218.974 180.315L217.381 176.668ZM235.429 178.511H237.429C237.429 177.413 236.534 176.524 235.429 176.524V178.511ZM235.429 178.889V180.877C236.534 180.877 237.429 179.987 237.429 178.889H235.429ZM226.109 178.889H224.109C224.109 179.987 225.005 180.877 226.109 180.877V178.889ZM226.109 164.975V162.988C225.005 162.988 224.109 163.877 224.109 164.975H226.109ZM235.129 164.975H237.129C237.129 163.877 236.234 162.988 235.129 162.988V164.975ZM235.129 165.353V167.341C236.234 167.341 237.129 166.451 237.129 165.353H235.129ZM226.509 165.353V163.365C225.405 163.365 224.509 164.255 224.509 165.353H226.509ZM226.509 171.634H224.509C224.509 172.732 225.405 173.622 226.509 173.622V171.634ZM234.229 171.634H236.229C236.229 170.536 235.334 169.646 234.229 169.646V171.634ZM234.229 172.012V173.999C235.334 173.999 236.229 173.11 236.229 172.012H234.229ZM226.509 172.012V170.024C225.405 170.024 224.509 170.913 224.509 172.012H226.509ZM226.509 178.511H224.509C224.509 179.609 225.405 180.499 226.509 180.499V178.511ZM233.429 178.511V178.889H237.429V178.511H233.429ZM235.429 176.901H226.109V180.877H235.429V176.901ZM228.109 178.889V164.975H224.109V178.889H228.109ZM226.109 166.963H235.129V162.988H226.109V166.963ZM233.129 164.975V165.353H237.129V164.975H233.129ZM235.129 163.365H226.509V167.341H235.129V163.365ZM224.509 165.353V171.634H228.509V165.353H224.509ZM226.509 173.622H234.229V169.646H226.509V173.622ZM232.229 171.634V172.012H236.229V171.634H232.229ZM234.229 170.024H226.509V173.999H234.229V170.024ZM224.509 172.012V178.511H228.509V172.012H224.509ZM226.509 180.499H235.429V176.524H226.509V180.499Z" fill="white"/>
</mask>
<g mask="url(#mask0_44_604)">
<path d="M0 144.145L9.4667 145.403C18.9333 146.699 37.8667 149.214 56.8 146.622C75.7333 144.03 94.6667 136.255 113.6 136.788C132.533 137.284 151.467 146.051 170.4 146.622C189.333 147.194 208.267 139.571 227.2 135.644C246.133 131.681 265.067 131.452 274.533 131.299L284 131.185V321.006H274.533C265.067 321.006 246.133 321.006 227.2 321.006C208.267 321.006 189.333 321.006 170.4 321.006C151.467 321.006 132.533 321.006 113.6 321.006C94.6667 321.006 75.7333 321.006 56.8 321.006C37.8667 321.006 18.9333 321.006 9.4667 321.006H0V144.145Z" fill="white"/>
</g>
</svg>
