<svg width="284" height="322" viewBox="0 0 284 322" fill="none" xmlns="http://www.w3.org/2000/svg">
<g clip-path="url(#clip0_150_1212)">
<path d="M284 0H0V322H284V0Z" fill="#001220"/>
<path d="M64.768 131.289V141.127H77.8V143.417H64.768V154.043H62.104V128.999H79.384V131.289H64.768ZM98.6373 154.258C95.3733 154.258 92.8293 153.328 91.0053 151.467C89.1813 149.607 88.2693 146.9 88.2693 143.346V128.999H90.9333V143.238C90.9333 146.148 91.5933 148.319 92.9133 149.75C94.2333 151.181 96.1413 151.897 98.6373 151.897C101.157 151.897 103.077 151.181 104.397 149.75C105.717 148.319 106.377 146.148 106.377 143.238V128.999H108.969V143.346C108.969 146.9 108.057 149.607 106.233 151.467C104.433 153.328 101.901 154.258 98.6373 154.258ZM125.001 131.289H116.145V128.999H136.521V131.289H127.665V154.043H125.001V131.289ZM154.036 154.258C150.772 154.258 148.228 153.328 146.404 151.467C144.58 149.607 143.668 146.9 143.668 143.346V128.999H146.332V143.238C146.332 146.148 146.992 148.319 148.312 149.75C149.632 151.181 151.54 151.897 154.036 151.897C156.556 151.897 158.476 151.181 159.796 149.75C161.116 148.319 161.776 146.148 161.776 143.238V128.999H164.368V143.346C164.368 146.9 163.456 149.607 161.632 151.467C159.832 153.328 157.3 154.258 154.036 154.258ZM193.204 154.043L187.444 145.993C186.796 146.065 186.124 146.101 185.428 146.101H178.66V154.043H175.996V128.999H185.428C188.644 128.999 191.164 129.762 192.988 131.289C194.812 132.815 195.724 134.914 195.724 137.585C195.724 139.541 195.22 141.199 194.212 142.559C193.228 143.894 191.812 144.86 189.964 145.457L196.12 154.043H193.204ZM185.356 143.847C187.852 143.847 189.76 143.298 191.08 142.201C192.4 141.104 193.06 139.565 193.06 137.585C193.06 135.558 192.4 134.008 191.08 132.934C189.76 131.837 187.852 131.289 185.356 131.289H178.66V143.847H185.356ZM223.432 151.753V154.043H205.612V128.999H222.892V131.289H208.276V140.197H221.308V142.451H208.276V151.753H223.432Z" fill="#80FF80"/>
<path d="M64.768 131.289V128.307C63.1111 128.307 61.768 129.642 61.768 131.289H64.768ZM64.768 141.127H61.768C61.768 142.774 63.1111 144.109 64.768 144.109V141.127ZM77.8 141.127H80.8C80.8 139.481 79.4569 138.146 77.8 138.146V141.127ZM77.8 143.417V146.399C79.4569 146.399 80.8 145.064 80.8 143.417H77.8ZM64.768 143.417V140.436C63.1111 140.436 61.768 141.77 61.768 143.417H64.768ZM64.768 154.043V157.025C66.4249 157.025 67.768 155.69 67.768 154.043H64.768ZM62.104 154.043H59.104C59.104 155.69 60.4471 157.025 62.104 157.025V154.043ZM62.104 128.999V126.017C60.4471 126.017 59.104 127.352 59.104 128.999H62.104ZM79.384 128.999H82.384C82.384 127.352 81.0409 126.017 79.384 126.017V128.999ZM79.384 131.289V134.27C81.0409 134.27 82.384 132.935 82.384 131.289H79.384ZM61.768 131.289V141.127H67.768V131.289H61.768ZM64.768 144.109H77.8V138.146H64.768V144.109ZM74.8 141.127V143.417H80.8V141.127H74.8ZM77.8 140.436H64.768V146.399H77.8V140.436ZM61.768 143.417V154.043H67.768V143.417H61.768ZM64.768 151.062H62.104V157.025H64.768V151.062ZM65.104 154.043V128.999H59.104V154.043H65.104ZM62.104 131.98H79.384V126.017H62.104V131.98ZM76.384 128.999V131.289H82.384V128.999H76.384ZM79.384 128.307H64.768V134.27H79.384V128.307ZM91.0053 151.467L93.1539 149.386L91.0053 151.467ZM88.2693 128.999V126.017C86.6124 126.017 85.2693 127.352 85.2693 128.999H88.2693ZM90.9333 128.999H93.9333C93.9333 127.352 92.5901 126.017 90.9333 126.017V128.999ZM104.397 149.75L106.609 151.764L104.397 149.75ZM106.377 128.999V126.017C104.72 126.017 103.377 127.352 103.377 128.999H106.377ZM108.969 128.999H111.969C111.969 127.352 110.626 126.017 108.969 126.017V128.999ZM106.233 151.467L104.085 149.386C104.08 149.391 104.075 149.396 104.071 149.401L106.233 151.467ZM98.6373 151.276C95.9688 151.276 94.2798 150.535 93.1539 149.386L88.8566 153.548C91.3787 156.12 94.7777 157.239 98.6373 157.239V151.276ZM93.1539 149.386C92.0511 148.262 91.2693 146.414 91.2693 143.346H85.2693C85.2693 147.386 86.3114 150.951 88.8566 153.548L93.1539 149.386ZM91.2693 143.346V128.999H85.2693V143.346H91.2693ZM88.2693 131.98H90.9333V126.017H88.2693V131.98ZM87.9333 128.999V143.238H93.9333V128.999H87.9333ZM87.9333 143.238C87.9333 146.531 88.6724 149.564 90.7018 151.764L95.1247 147.735C94.5141 147.074 93.9333 145.766 93.9333 143.238H87.9333ZM90.7018 151.764C92.7385 153.973 95.5487 154.878 98.6373 154.878V148.915C96.7338 148.915 95.728 148.389 95.1247 147.735L90.7018 151.764ZM98.6373 154.878C101.74 154.878 104.567 153.979 106.609 151.764L102.186 147.735C101.588 148.383 100.575 148.915 98.6373 148.915V154.878ZM106.609 151.764C108.638 149.564 109.377 146.531 109.377 143.238H103.377C103.377 145.766 102.796 147.074 102.186 147.735L106.609 151.764ZM109.377 143.238V128.999H103.377V143.238H109.377ZM106.377 131.98H108.969V126.017H106.377V131.98ZM105.969 128.999V143.346H111.969V128.999H105.969ZM105.969 143.346C105.969 146.414 105.187 148.262 104.085 149.386L108.382 153.548C110.927 150.951 111.969 147.386 111.969 143.346H105.969ZM104.071 149.401C102.974 150.534 101.308 151.276 98.6373 151.276V157.239C102.495 157.239 105.893 156.121 108.396 153.533L104.071 149.401ZM125.001 131.289H128.001C128.001 129.642 126.658 128.307 125.001 128.307V131.289ZM116.145 131.289H113.145C113.145 132.935 114.488 134.27 116.145 134.27V131.289ZM116.145 128.999V126.017C114.488 126.017 113.145 127.352 113.145 128.999H116.145ZM136.521 128.999H139.521C139.521 127.352 138.178 126.017 136.521 126.017V128.999ZM136.521 131.289V134.27C138.178 134.27 139.521 132.935 139.521 131.289H136.521ZM127.665 131.289V128.307C126.008 128.307 124.665 129.642 124.665 131.289H127.665ZM127.665 154.043V157.025C129.322 157.025 130.665 155.69 130.665 154.043H127.665ZM125.001 154.043H122.001C122.001 155.69 123.344 157.025 125.001 157.025V154.043ZM125.001 128.307H116.145V134.27H125.001V128.307ZM119.145 131.289V128.999H113.145V131.289H119.145ZM116.145 131.98H136.521V126.017H116.145V131.98ZM133.521 128.999V131.289H139.521V128.999H133.521ZM136.521 128.307H127.665V134.27H136.521V128.307ZM124.665 131.289V154.043H130.665V131.289H124.665ZM127.665 151.062H125.001V157.025H127.665V151.062ZM128.001 154.043V131.289H122.001V154.043H128.001ZM146.404 151.467L148.553 149.386L146.404 151.467ZM143.668 128.999V126.017C142.012 126.017 140.668 127.352 140.668 128.999H143.668ZM146.332 128.999H149.332C149.332 127.352 147.989 126.017 146.332 126.017V128.999ZM159.796 149.75L162.008 151.764L159.796 149.75ZM161.776 128.999V126.017C160.12 126.017 158.776 127.352 158.776 128.999H161.776ZM164.368 128.999H167.368C167.368 127.352 166.025 126.017 164.368 126.017V128.999ZM161.632 151.467L159.484 149.386C159.479 149.391 159.475 149.396 159.47 149.401L161.632 151.467ZM154.036 151.276C151.368 151.276 149.679 150.535 148.553 149.386L144.256 153.548C146.778 156.12 150.177 157.239 154.036 157.239V151.276ZM148.553 149.386C147.45 148.262 146.668 146.414 146.668 143.346H140.668C140.668 147.386 141.711 150.951 144.256 153.548L148.553 149.386ZM146.668 143.346V128.999H140.668V143.346H146.668ZM143.668 131.98H146.332V126.017H143.668V131.98ZM143.332 128.999V143.238H149.332V128.999H143.332ZM143.332 143.238C143.332 146.531 144.072 149.564 146.101 151.764L150.524 147.735C149.913 147.074 149.332 145.766 149.332 143.238H143.332ZM146.101 151.764C148.138 153.973 150.948 154.878 154.036 154.878V148.915C152.133 148.915 151.127 148.389 150.524 147.735L146.101 151.764ZM154.036 154.878C157.139 154.878 159.966 153.979 162.008 151.764L157.585 147.735C156.987 148.383 155.974 148.915 154.036 148.915V154.878ZM162.008 151.764C164.037 149.564 164.776 146.531 164.776 143.238H158.776C158.776 145.766 158.196 147.074 157.585 147.735L162.008 151.764ZM164.776 143.238V128.999H158.776V143.238H164.776ZM161.776 131.98H164.368V126.017H161.776V131.98ZM161.368 128.999V143.346H167.368V128.999H161.368ZM161.368 143.346C161.368 146.414 160.587 148.262 159.484 149.386L163.781 153.548C166.326 150.951 167.368 147.386 167.368 143.346H161.368ZM159.47 149.401C158.373 150.534 156.707 151.276 154.036 151.276V157.239C157.894 157.239 161.292 156.121 163.795 153.533L159.47 149.401ZM193.204 154.043L190.759 155.772C191.322 156.558 192.233 157.025 193.204 157.025V154.043ZM187.444 145.993L189.889 144.265C189.258 143.383 188.195 142.91 187.113 143.03L187.444 145.993ZM178.66 146.101V143.119C177.003 143.119 175.66 144.454 175.66 146.101H178.66ZM178.66 154.043V157.025C180.317 157.025 181.66 155.69 181.66 154.043H178.66ZM175.996 154.043H172.996C172.996 155.69 174.339 157.025 175.996 157.025V154.043ZM175.996 128.999V126.017C174.339 126.017 172.996 127.352 172.996 128.999H175.996ZM192.988 131.289L191.056 133.569L192.988 131.289ZM194.212 142.559L191.797 140.79L191.792 140.798L194.212 142.559ZM189.964 145.457L189.038 142.621C188.129 142.914 187.415 143.62 187.115 144.521C186.816 145.424 186.966 146.414 187.521 147.187L189.964 145.457ZM196.12 154.043V157.025C197.243 157.025 198.272 156.402 198.787 155.409C199.301 154.417 199.215 153.222 198.563 152.313L196.12 154.043ZM191.08 142.201L193.005 144.488L191.08 142.201ZM191.08 132.934L189.156 135.221C189.164 135.228 189.172 135.235 189.18 135.242L191.08 132.934ZM178.66 131.289V128.307C177.003 128.307 175.66 129.642 175.66 131.289H178.66ZM178.66 143.847H175.66C175.66 145.493 177.003 146.828 178.66 146.828V143.847ZM195.649 152.315L189.889 144.265L184.999 147.722L190.759 155.772L195.649 152.315ZM187.113 143.03C186.582 143.088 186.021 143.119 185.428 143.119V149.082C186.228 149.082 187.01 149.041 187.775 148.957L187.113 143.03ZM185.428 143.119H178.66V149.082H185.428V143.119ZM175.66 146.101V154.043H181.66V146.101H175.66ZM178.66 151.062H175.996V157.025H178.66V151.062ZM178.996 154.043V128.999H172.996V154.043H178.996ZM175.996 131.98H185.428V126.017H175.996V131.98ZM185.428 131.98C188.185 131.98 189.936 132.632 191.056 133.569L194.921 129.008C192.393 126.892 189.104 126.017 185.428 126.017V131.98ZM191.056 133.569C192.112 134.453 192.724 135.668 192.724 137.585H198.724C198.724 134.16 197.513 131.177 194.921 129.008L191.056 133.569ZM192.724 137.585C192.724 139.01 192.367 140.021 191.797 140.79L196.627 144.328C198.073 142.377 198.724 140.073 198.724 137.585H192.724ZM191.792 140.798C191.239 141.548 190.39 142.185 189.038 142.621L190.891 148.292C193.235 147.536 195.217 146.241 196.633 144.32L191.792 140.798ZM187.521 147.187L193.677 155.774L198.563 152.313L192.407 143.726L187.521 147.187ZM196.12 151.062H193.204V157.025H196.12V151.062ZM185.356 146.828C188.246 146.828 190.948 146.198 193.005 144.488L189.156 139.914C188.573 140.398 187.458 140.865 185.356 140.865V146.828ZM193.005 144.488C195.118 142.732 196.06 140.293 196.06 137.585H190.06C190.06 138.838 189.683 139.476 189.156 139.914L193.005 144.488ZM196.06 137.585C196.06 134.858 195.135 132.379 192.98 130.627L189.18 135.242C189.666 135.637 190.06 136.258 190.06 137.585H196.06ZM193.005 130.648C190.948 128.937 188.246 128.307 185.356 128.307V134.27C187.458 134.27 188.573 134.737 189.156 135.221L193.005 130.648ZM185.356 128.307H178.66V134.27H185.356V128.307ZM175.66 131.289V143.847H181.66V131.289H175.66ZM178.66 146.828H185.356V140.865H178.66V146.828ZM223.432 151.753H226.432C226.432 150.107 225.089 148.772 223.432 148.772V151.753ZM223.432 154.043V157.025C225.089 157.025 226.432 155.69 226.432 154.043H223.432ZM205.612 154.043H202.612C202.612 155.69 203.955 157.025 205.612 157.025V154.043ZM205.612 128.999V126.017C203.955 126.017 202.612 127.352 202.612 128.999H205.612ZM222.892 128.999H225.892C225.892 127.352 224.549 126.017 222.892 126.017V128.999ZM222.892 131.289V134.27C224.549 134.27 225.892 132.935 225.892 131.289H222.892ZM208.276 131.289V128.307C206.619 128.307 205.276 129.642 205.276 131.289H208.276ZM208.276 140.197H205.276C205.276 141.844 206.619 143.179 208.276 143.179V140.197ZM221.308 140.197H224.308C224.308 138.55 222.965 137.216 221.308 137.216V140.197ZM221.308 142.451V145.433C222.965 145.433 224.308 144.098 224.308 142.451H221.308ZM208.276 142.451V139.47C206.619 139.47 205.276 140.804 205.276 142.451H208.276ZM208.276 151.753H205.276C205.276 153.4 206.619 154.735 208.276 154.735V151.753ZM220.432 151.753V154.043H226.432V151.753H220.432ZM223.432 151.062H205.612V157.025H223.432V151.062ZM208.612 154.043V128.999H202.612V154.043H208.612ZM205.612 131.98H222.892V126.017H205.612V131.98ZM219.892 128.999V131.289H225.892V128.999H219.892ZM222.892 128.307H208.276V134.27H222.892V128.307ZM205.276 131.289V140.197H211.276V131.289H205.276ZM208.276 143.179H221.308V137.216H208.276V143.179ZM218.308 140.197V142.451H224.308V140.197H218.308ZM221.308 139.47H208.276V145.433H221.308V139.47ZM205.276 142.451V151.753H211.276V142.451H205.276ZM208.276 154.735H223.432V148.772H208.276V154.735Z" fill="#80FF80"/>
<path d="M124.28 103.736H119.08V103.358H129.88V103.736H124.68V117.271H124.28V103.736ZM145.617 103.358V117.271H145.217V110.394H135.017V117.271H134.617V103.358H135.017V110.017H145.217V103.358H145.617ZM162.265 116.894V117.271H152.945V103.358H161.965V103.736H153.345V110.017H161.065V110.394H153.345V116.894H162.265Z" fill="#80FF80"/>
<path d="M124.28 103.736H126.28C126.28 102.637 125.385 101.748 124.28 101.748V103.736ZM119.08 103.736H117.08C117.08 104.834 117.975 105.723 119.08 105.723V103.736ZM119.08 103.358V101.37C117.975 101.37 117.08 102.26 117.08 103.358H119.08ZM129.88 103.358H131.88C131.88 102.26 130.985 101.37 129.88 101.37V103.358ZM129.88 103.736V105.723C130.985 105.723 131.88 104.834 131.88 103.736H129.88ZM124.68 103.736V101.748C123.575 101.748 122.68 102.637 122.68 103.736H124.68ZM124.68 117.272V119.259C125.785 119.259 126.68 118.37 126.68 117.272H124.68ZM124.28 117.272H122.28C122.28 118.37 123.175 119.259 124.28 119.259V117.272ZM124.28 101.748H119.08V105.723H124.28V101.748ZM121.08 103.736V103.358H117.08V103.736H121.08ZM119.08 105.346H129.88V101.37H119.08V105.346ZM127.88 103.358V103.736H131.88V103.358H127.88ZM129.88 101.748H124.68V105.723H129.88V101.748ZM122.68 103.736V117.272H126.68V103.736H122.68ZM124.68 115.284H124.28V119.259H124.68V115.284ZM126.28 117.272V103.736H122.28V117.272H126.28ZM145.617 103.358H147.617C147.617 102.26 146.722 101.37 145.617 101.37V103.358ZM145.617 117.272V119.259C146.722 119.259 147.617 118.37 147.617 117.272H145.617ZM145.217 117.272H143.217C143.217 118.37 144.112 119.259 145.217 119.259V117.272ZM145.217 110.394H147.217C147.217 109.296 146.322 108.407 145.217 108.407V110.394ZM135.017 110.394V108.407C133.912 108.407 133.017 109.296 133.017 110.394H135.017ZM135.017 117.272V119.259C136.122 119.259 137.017 118.37 137.017 117.272H135.017ZM134.617 117.272H132.617C132.617 118.37 133.512 119.259 134.617 119.259V117.272ZM134.617 103.358V101.37C133.512 101.37 132.617 102.26 132.617 103.358H134.617ZM135.017 103.358H137.017C137.017 102.26 136.122 101.37 135.017 101.37V103.358ZM135.017 110.017H133.017C133.017 111.115 133.912 112.004 135.017 112.004V110.017ZM145.217 110.017V112.004C146.322 112.004 147.217 111.115 147.217 110.017H145.217ZM145.217 103.358V101.37C144.112 101.37 143.217 102.26 143.217 103.358H145.217ZM143.617 103.358V117.272H147.617V103.358H143.617ZM145.617 115.284H145.217V119.259H145.617V115.284ZM147.217 117.272V110.394H143.217V117.272H147.217ZM145.217 108.407H135.017V112.382H145.217V108.407ZM133.017 110.394V117.272H137.017V110.394H133.017ZM135.017 115.284H134.617V119.259H135.017V115.284ZM136.617 117.272V103.358H132.617V117.272H136.617ZM134.617 105.346H135.017V101.37H134.617V105.346ZM133.017 103.358V110.017H137.017V103.358H133.017ZM135.017 112.004H145.217V108.029H135.017V112.004ZM147.217 110.017V103.358H143.217V110.017H147.217ZM145.217 105.346H145.617V101.37H145.217V105.346ZM162.265 116.894H164.265C164.265 115.796 163.37 114.906 162.265 114.906V116.894ZM162.265 117.272V119.259C163.37 119.259 164.265 118.37 164.265 117.272H162.265ZM152.945 117.272H150.945C150.945 118.37 151.841 119.259 152.945 119.259V117.272ZM152.945 103.358V101.37C151.841 101.37 150.945 102.26 150.945 103.358H152.945ZM161.965 103.358H163.965C163.965 102.26 163.07 101.37 161.965 101.37V103.358ZM161.965 103.736V105.723C163.07 105.723 163.965 104.834 163.965 103.736H161.965ZM153.345 103.736V101.748C152.241 101.748 151.345 102.637 151.345 103.736H153.345ZM153.345 110.017H151.345C151.345 111.115 152.241 112.004 153.345 112.004V110.017ZM161.065 110.017H163.065C163.065 108.918 162.17 108.029 161.065 108.029V110.017ZM161.065 110.394V112.382C162.17 112.382 163.065 111.492 163.065 110.394H161.065ZM153.345 110.394V108.407C152.241 108.407 151.345 109.296 151.345 110.394H153.345ZM153.345 116.894H151.345C151.345 117.992 152.241 118.882 153.345 118.882V116.894ZM160.265 116.894V117.272H164.265V116.894H160.265ZM162.265 115.284H152.945V119.259H162.265V115.284ZM154.945 117.272V103.358H150.945V117.272H154.945ZM152.945 105.346H161.965V101.37H152.945V105.346ZM159.965 103.358V103.736H163.965V103.358H159.965ZM161.965 101.748H153.345V105.723H161.965V101.748ZM151.345 103.736V110.017H155.345V103.736H151.345ZM153.345 112.004H161.065V108.029H153.345V112.004ZM159.065 110.017V110.394H163.065V110.017H159.065ZM161.065 108.407H153.345V112.382H161.065V108.407ZM151.345 110.394V116.894H155.345V110.394H151.345ZM153.345 118.882H162.265V114.906H153.345V118.882Z" fill="#80FF80"/>
<path d="M0 144.145L9.46667 145.403C18.9333 146.699 37.8667 149.214 56.8 146.622C75.7333 144.03 94.6667 136.255 113.6 136.788C132.533 137.284 151.467 146.051 170.4 146.622C189.333 147.194 208.267 139.571 227.2 135.644C246.133 131.681 265.067 131.451 274.533 131.299L284 131.185V321.006H274.533C265.067 321.006 246.133 321.006 227.2 321.006C208.267 321.006 189.333 321.006 170.4 321.006C151.467 321.006 132.533 321.006 113.6 321.006C94.6667 321.006 75.7333 321.006 56.8 321.006C37.8667 321.006 18.9333 321.006 9.46667 321.006H0V144.145Z" fill="#80FF80"/>
<path d="M0 151.605L9.46667 155.835C18.9333 160.025 37.8667 168.486 56.8 172.162C75.7333 175.838 94.6667 174.81 113.6 173.664C132.533 172.557 151.467 171.372 170.4 178.408C189.333 185.484 208.267 200.743 227.2 200.625C246.133 200.507 265.067 184.93 274.533 177.183L284 169.395V320.408H274.533C265.067 320.408 246.133 320.408 227.2 320.408C208.267 320.408 189.333 320.408 170.4 320.408C151.467 320.408 132.533 320.408 113.6 320.408C94.6667 320.408 75.7333 320.408 56.8 320.408C37.8667 320.408 18.9333 320.408 9.46667 320.408H0V151.605Z" fill="#63F361"/>
<path d="M0 228.693V204.728C9.46667 202.949 29.6 217.545 56.8 218.019C84 218.494 94.6667 210.903 113.6 210.983C132.533 211.022 151.467 214.738 170.4 218.494C189.333 222.25 208.267 226.044 227.2 220.707C246.133 215.37 269.327 208.926 284 195.881V320.408H274.533C265.067 320.408 246.133 320.408 227.2 320.408C208.267 320.408 189.333 320.408 170.4 320.408C151.467 320.408 132.533 320.408 113.6 320.408C94.6667 320.408 75.7333 320.408 56.8 320.408C37.8667 320.408 18.9333 320.408 9.46667 320.408H0V228.693Z" fill="#48E145"/>
<path d="M0 233.832L9.46667 236.086C18.9333 238.299 37.8667 242.806 56.8 244.98C75.7333 247.155 94.6667 246.996 113.6 242.806C132.533 238.576 147.825 234.494 170.4 233.437C192.619 232.395 209.213 233.437 227.2 237.271C245.187 241.106 274.533 247.233 284 254.389V266.248V320.408H274.533C265.067 320.408 246.133 320.408 227.2 320.408C208.267 320.408 189.333 320.408 170.4 320.408C151.467 320.408 132.533 320.408 113.6 320.408C94.6667 320.408 75.7333 320.408 56.8 320.408C37.8667 320.408 18.9333 320.408 9.46667 320.408H0V233.832Z" fill="#30CE2D"/>
<path d="M0 294.788L9.46667 295.461C18.9333 296.093 37.8667 297.437 56.8 295.697C75.7333 293.998 94.6667 289.254 113.6 282.929C132.533 276.604 151.467 268.697 170.4 266.998C189.333 265.257 208.267 269.764 227.2 269.606C246.133 269.488 265.067 264.744 274.533 262.372L284 260V322.065H274.533C265.067 322.065 246.133 322.065 227.2 322.065C208.267 322.065 189.333 322.065 170.4 322.065C151.467 322.065 132.533 322.065 113.6 322.065C94.6667 322.065 75.7333 322.065 56.8 322.065C37.8667 322.065 18.9333 322.065 9.46667 322.065H0V294.788Z" fill="#00C200"/>
<path d="M88.4613 207.018V214.15H97.4133V215.247H88.4613V222.617H87.2373V205.921H98.4693V207.018H88.4613ZM111.354 222.737C109.226 222.737 107.57 222.124 106.386 220.9C105.218 219.676 104.634 217.887 104.634 215.533V205.921H105.858V215.486C105.858 217.537 106.33 219.071 107.274 220.089C108.218 221.107 109.586 221.616 111.378 221.616C113.154 221.616 114.514 221.107 115.458 220.089C116.402 219.071 116.874 217.537 116.874 215.486V205.921H118.098V215.533C118.098 217.887 117.506 219.676 116.322 220.9C115.138 222.124 113.482 222.737 111.354 222.737ZM129.697 207.018H123.649V205.921H136.969V207.018H130.921V222.617H129.697V207.018ZM149.581 222.737C147.453 222.737 145.797 222.124 144.613 220.9C143.445 219.676 142.861 217.887 142.861 215.533V205.921H144.085V215.486C144.085 217.537 144.557 219.071 145.501 220.089C146.445 221.107 147.813 221.616 149.605 221.616C151.381 221.616 152.741 221.107 153.685 220.089C154.629 219.071 155.101 217.537 155.101 215.486V205.921H156.325V215.533C156.325 217.887 155.733 219.676 154.549 220.9C153.365 222.124 151.709 222.737 149.581 222.737ZM175.5 222.617L171.492 217.036C170.9 217.115 170.356 217.155 169.86 217.155H165.06V222.617H163.836V205.921H169.86C171.972 205.921 173.628 206.422 174.828 207.424C176.028 208.41 176.628 209.785 176.628 211.55C176.628 212.87 176.284 213.983 175.596 214.889C174.924 215.78 173.956 216.408 172.692 216.774L176.892 222.617H175.5ZM169.86 216.082C171.652 216.082 173.02 215.692 173.964 214.913C174.908 214.118 175.38 212.997 175.38 211.55C175.38 210.103 174.908 208.99 173.964 208.211C173.02 207.416 171.652 207.018 169.86 207.018H165.06V216.082H169.86ZM190.637 222.737C188.989 222.737 187.501 222.371 186.173 221.639C184.845 220.892 183.797 219.874 183.029 218.586C182.277 217.298 181.901 215.859 181.901 214.269C181.901 212.679 182.277 211.24 183.029 209.952C183.797 208.664 184.845 207.654 186.173 206.923C187.501 206.175 188.989 205.802 190.637 205.802C192.285 205.802 193.773 206.167 195.101 206.899C196.429 207.63 197.469 208.64 198.221 209.928C198.989 211.216 199.373 212.663 199.373 214.269C199.373 215.875 198.989 217.322 198.221 218.61C197.469 219.898 196.429 220.908 195.101 221.639C193.773 222.371 192.285 222.737 190.637 222.737ZM190.637 221.616C192.045 221.616 193.317 221.298 194.453 220.661C195.589 220.025 196.485 219.151 197.141 218.038C197.797 216.909 198.125 215.653 198.125 214.269C198.125 212.886 197.797 211.638 197.141 210.524C196.485 209.395 195.589 208.513 194.453 207.877C193.317 207.241 192.045 206.923 190.637 206.923C189.229 206.923 187.949 207.241 186.797 207.877C185.661 208.513 184.765 209.395 184.109 210.524C183.453 211.638 183.125 212.886 183.125 214.269C183.125 215.653 183.453 216.909 184.109 218.038C184.765 219.151 185.661 220.025 186.797 220.661C187.949 221.298 189.229 221.616 190.637 221.616Z" fill="white"/>
<path d="M88.4613 207.018V204.782C87.2186 204.782 86.2113 205.783 86.2113 207.018H88.4613ZM88.4613 214.15H86.2113C86.2113 215.385 87.2186 216.386 88.4613 216.386V214.15ZM97.4133 214.15H99.6633C99.6633 212.915 98.6559 211.914 97.4133 211.914V214.15ZM97.4133 215.247V217.483C98.6559 217.483 99.6633 216.482 99.6633 215.247H97.4133ZM88.4613 215.247V213.011C87.2186 213.011 86.2113 214.012 86.2113 215.247H88.4613ZM88.4613 222.617V224.853C89.7039 224.853 90.7113 223.853 90.7113 222.617H88.4613ZM87.2373 222.617H84.9873C84.9873 223.853 85.9946 224.853 87.2373 224.853V222.617ZM87.2373 205.921V203.685C85.9946 203.685 84.9873 204.686 84.9873 205.921H87.2373ZM98.4693 205.921H100.719C100.719 204.686 99.7119 203.685 98.4693 203.685V205.921ZM98.4693 207.018V209.254C99.7119 209.254 100.719 208.254 100.719 207.018H98.4693ZM86.2113 207.018V214.15H90.7113V207.018H86.2113ZM88.4613 216.386H97.4133V211.914H88.4613V216.386ZM95.1633 214.15V215.247H99.6633V214.15H95.1633ZM97.4133 213.011H88.4613V217.483H97.4133V213.011ZM86.2113 215.247V222.617H90.7113V215.247H86.2113ZM88.4613 220.381H87.2373V224.853H88.4613V220.381ZM89.4873 222.617V205.921H84.9873V222.617H89.4873ZM87.2373 208.157H98.4693V203.685H87.2373V208.157ZM96.2193 205.921V207.018H100.719V205.921H96.2193ZM98.4693 204.782H88.4613V209.254H98.4693V204.782ZM106.386 220.9L104.753 222.438C104.757 222.442 104.76 222.445 104.764 222.449L106.386 220.9ZM104.634 205.921V203.685C103.391 203.685 102.384 204.686 102.384 205.921H104.634ZM105.858 205.921H108.108C108.108 204.686 107.101 203.685 105.858 203.685V205.921ZM107.274 220.089L105.62 221.605L107.274 220.089ZM115.458 220.089L113.804 218.573L115.458 220.089ZM116.874 205.921V203.685C115.631 203.685 114.624 204.686 114.624 205.921H116.874ZM118.098 205.921H120.348C120.348 204.686 119.341 203.685 118.098 203.685V205.921ZM116.322 220.9L114.7 219.351L116.322 220.9ZM111.354 220.5C109.678 220.5 108.669 220.033 108.008 219.351L104.764 222.449C106.471 224.215 108.774 224.973 111.354 224.973V220.5ZM108.019 219.362C107.381 218.693 106.884 217.542 106.884 215.533H102.384C102.384 218.232 103.055 220.659 104.753 222.438L108.019 219.362ZM106.884 215.533V205.921H102.384V215.533H106.884ZM104.634 208.157H105.858V203.685H104.634V208.157ZM103.608 205.921V215.486H108.108V205.921H103.608ZM103.608 215.486C103.608 217.833 104.144 220.014 105.62 221.605L108.928 218.573C108.516 218.129 108.108 217.241 108.108 215.486H103.608ZM105.62 221.605C107.104 223.205 109.148 223.852 111.378 223.852V219.379C110.024 219.379 109.332 219.009 108.928 218.573L105.62 221.605ZM111.378 223.852C113.599 223.852 115.632 223.201 117.112 221.605L113.804 218.573C113.396 219.013 112.709 219.379 111.378 219.379V223.852ZM117.112 221.605C118.588 220.014 119.124 217.833 119.124 215.486H114.624C114.624 217.241 114.216 218.129 113.804 218.573L117.112 221.605ZM119.124 215.486V205.921H114.624V215.486H119.124ZM116.874 208.157H118.098V203.685H116.874V208.157ZM115.848 205.921V215.533H120.348V205.921H115.848ZM115.848 215.533C115.848 217.535 115.347 218.681 114.7 219.351L117.944 222.449C119.665 220.67 120.348 218.239 120.348 215.533H115.848ZM114.7 219.351C114.039 220.033 113.03 220.5 111.354 220.5V224.973C113.934 224.973 116.237 224.215 117.944 222.449L114.7 219.351ZM129.697 207.018H131.947C131.947 205.783 130.94 204.782 129.697 204.782V207.018ZM123.649 207.018H121.399C121.399 208.254 122.406 209.254 123.649 209.254V207.018ZM123.649 205.921V203.685C122.406 203.685 121.399 204.686 121.399 205.921H123.649ZM136.969 205.921H139.219C139.219 204.686 138.212 203.685 136.969 203.685V205.921ZM136.969 207.018V209.254C138.212 209.254 139.219 208.254 139.219 207.018H136.969ZM130.921 207.018V204.782C129.678 204.782 128.671 205.783 128.671 207.018H130.921ZM130.921 222.617V224.853C132.164 224.853 133.171 223.853 133.171 222.617H130.921ZM129.697 222.617H127.447C127.447 223.853 128.454 224.853 129.697 224.853V222.617ZM129.697 204.782H123.649V209.254H129.697V204.782ZM125.899 207.018V205.921H121.399V207.018H125.899ZM123.649 208.157H136.969V203.685H123.649V208.157ZM134.719 205.921V207.018H139.219V205.921H134.719ZM136.969 204.782H130.921V209.254H136.969V204.782ZM128.671 207.018V222.617H133.171V207.018H128.671ZM130.921 220.381H129.697V224.853H130.921V220.381ZM131.947 222.617V207.018H127.447V222.617H131.947ZM144.613 220.9L142.98 222.438C142.983 222.442 142.987 222.445 142.99 222.449L144.613 220.9ZM142.861 205.921V203.685C141.618 203.685 140.611 204.686 140.611 205.921H142.861ZM144.085 205.921H146.335C146.335 204.686 145.327 203.685 144.085 203.685V205.921ZM145.501 220.089L143.846 221.605L145.501 220.089ZM153.685 220.089L152.03 218.573L153.685 220.089ZM155.101 205.921V203.685C153.858 203.685 152.851 204.686 152.851 205.921H155.101ZM156.325 205.921H158.575C158.575 204.686 157.567 203.685 156.325 203.685V205.921ZM154.549 220.9L152.926 219.351L154.549 220.9ZM149.581 220.5C147.905 220.5 146.895 220.033 146.235 219.351L142.99 222.449C144.698 224.215 147 224.973 149.581 224.973V220.5ZM146.245 219.362C145.607 218.693 145.111 217.542 145.111 215.533H140.611C140.611 218.232 141.282 220.659 142.98 222.438L146.245 219.362ZM145.111 215.533V205.921H140.611V215.533H145.111ZM142.861 208.157H144.085V203.685H142.861V208.157ZM141.835 205.921V215.486H146.335V205.921H141.835ZM141.835 215.486C141.835 217.833 142.37 220.014 143.846 221.605L147.155 218.573C146.743 218.129 146.335 217.241 146.335 215.486H141.835ZM143.846 221.605C145.33 223.205 147.375 223.852 149.605 223.852V219.379C148.25 219.379 147.559 219.009 147.155 218.573L143.846 221.605ZM149.605 223.852C151.825 223.852 153.858 223.201 155.339 221.605L152.03 218.573C151.623 219.013 150.936 219.379 149.605 219.379V223.852ZM155.339 221.605C156.815 220.014 157.351 217.833 157.351 215.486H152.851C152.851 217.241 152.442 218.129 152.03 218.573L155.339 221.605ZM157.351 215.486V205.921H152.851V215.486H157.351ZM155.101 208.157H156.325V203.685H155.101V208.157ZM154.075 205.921V215.533H158.575V205.921H154.075ZM154.075 215.533C154.075 217.535 153.574 218.681 152.926 219.351L156.171 222.449C157.891 220.67 158.575 218.239 158.575 215.533H154.075ZM152.926 219.351C152.266 220.033 151.256 220.5 149.581 220.5V224.973C152.161 224.973 154.463 224.215 156.171 222.449L152.926 219.351ZM175.5 222.617L173.668 223.916C174.091 224.505 174.773 224.853 175.5 224.853V222.617ZM171.492 217.036L173.323 215.737C172.838 215.062 172.018 214.709 171.19 214.82L171.492 217.036ZM165.06 217.155V214.919C163.817 214.919 162.81 215.92 162.81 217.155H165.06ZM165.06 222.617V224.853C166.302 224.853 167.31 223.853 167.31 222.617H165.06ZM163.836 222.617H161.586C161.586 223.853 162.593 224.853 163.836 224.853V222.617ZM163.836 205.921V203.685C162.593 203.685 161.586 204.686 161.586 205.921H163.836ZM174.828 207.424L173.381 209.136C173.385 209.14 173.39 209.143 173.394 209.147L174.828 207.424ZM175.596 214.889L173.8 213.543L173.796 213.548L175.596 214.889ZM172.692 216.774L172.063 214.627C171.363 214.83 170.805 215.356 170.566 216.041C170.327 216.726 170.437 217.483 170.861 218.074L172.692 216.774ZM176.892 222.617V224.853C177.735 224.853 178.507 224.385 178.892 223.641C179.278 222.896 179.213 221.999 178.723 221.317L176.892 222.617ZM173.964 214.913L175.401 216.634C175.407 216.629 175.413 216.624 175.418 216.62L173.964 214.913ZM173.964 208.211L172.509 209.917C172.515 209.921 172.521 209.926 172.526 209.931L173.964 208.211ZM165.06 207.018V204.782C163.817 204.782 162.81 205.783 162.81 207.018H165.06ZM165.06 216.082H162.81C162.81 217.317 163.817 218.318 165.06 218.318V216.082ZM177.331 221.318L173.323 215.737L169.66 218.335L173.668 223.916L177.331 221.318ZM171.19 214.82C170.679 214.888 170.237 214.919 169.86 214.919V219.391C170.474 219.391 171.121 219.343 171.793 219.252L171.19 214.82ZM169.86 214.919H165.06V219.391H169.86V214.919ZM162.81 217.155V222.617H167.31V217.155H162.81ZM165.06 220.381H163.836V224.853H165.06V220.381ZM166.086 222.617V205.921H161.586V222.617H166.086ZM163.836 208.157H169.86V203.685H163.836V208.157ZM169.86 208.157C171.627 208.157 172.708 208.575 173.381 209.136L176.275 205.711C174.548 204.269 172.316 203.685 169.86 203.685V208.157ZM173.394 209.147C174.001 209.646 174.378 210.347 174.378 211.55H178.878C178.878 209.224 178.055 207.173 176.261 205.7L173.394 209.147ZM174.378 211.55C174.378 212.466 174.147 213.085 173.8 213.543L177.392 216.236C178.421 214.881 178.878 213.273 178.878 211.55H174.378ZM173.796 213.548C173.465 213.986 172.944 214.372 172.063 214.627L173.321 218.92C174.968 218.444 176.383 217.574 177.396 216.231L173.796 213.548ZM170.861 218.074L175.061 223.917L178.723 221.317L174.523 215.474L170.861 218.074ZM176.892 220.381H175.5V224.853H176.892V220.381ZM169.86 218.318C171.942 218.318 173.903 217.87 175.401 216.634L172.526 213.193C172.136 213.515 171.362 213.846 169.86 213.846V218.318ZM175.418 216.62C176.958 215.323 177.63 213.526 177.63 211.55H173.13C173.13 212.468 172.858 212.914 172.509 213.207L175.418 216.62ZM177.63 211.55C177.63 209.575 176.958 207.776 175.401 206.491L172.526 209.931C172.858 210.204 173.13 210.631 173.13 211.55H177.63ZM175.418 206.504C173.92 205.242 171.951 204.782 169.86 204.782V209.254C171.353 209.254 172.12 209.589 172.509 209.917L175.418 206.504ZM169.86 204.782H165.06V209.254H169.86V204.782ZM162.81 207.018V216.082H167.31V207.018H162.81ZM165.06 218.318H169.86V213.846H165.06V218.318ZM186.173 221.639L185.065 223.585C185.071 223.588 185.077 223.592 185.083 223.595L186.173 221.639ZM183.029 218.586L181.083 219.708C181.087 219.714 181.09 219.72 181.094 219.726L183.029 218.586ZM183.029 209.952L181.094 208.812C181.09 208.818 181.087 208.824 181.083 208.83L183.029 209.952ZM186.173 206.923L187.264 208.879C187.27 208.876 187.276 208.872 187.282 208.869L186.173 206.923ZM198.221 209.928L196.275 211.05C196.279 211.056 196.282 211.062 196.286 211.068L198.221 209.928ZM198.221 218.61L196.286 217.47C196.282 217.476 196.279 217.482 196.275 217.488L198.221 218.61ZM195.101 221.639L196.192 223.595L195.101 221.639ZM194.453 220.661L193.349 218.714L194.453 220.661ZM197.141 218.038L199.083 219.168L199.09 219.156L197.141 218.038ZM197.141 210.524L195.193 211.643L195.2 211.654L197.141 210.524ZM194.453 207.877L193.349 209.825L194.453 207.877ZM186.797 207.877L185.705 205.922L185.693 205.929L186.797 207.877ZM184.109 210.524L186.051 211.654L186.058 211.643L184.109 210.524ZM184.109 218.038L182.161 219.156L182.168 219.168L184.109 218.038ZM186.797 220.661L185.693 222.609L185.705 222.616L186.797 220.661ZM190.637 220.5C189.337 220.5 188.23 220.215 187.264 219.684L185.083 223.595C186.772 224.526 188.641 224.973 190.637 224.973V220.5ZM187.282 219.693C186.291 219.136 185.53 218.395 184.965 217.446L181.094 219.726C182.065 221.354 183.4 222.648 185.065 223.585L187.282 219.693ZM184.975 217.464C184.436 216.54 184.151 215.493 184.151 214.269H179.651C179.651 216.226 180.119 218.057 181.083 219.708L184.975 217.464ZM184.151 214.269C184.151 213.046 184.436 211.998 184.975 211.074L181.083 208.83C180.119 210.482 179.651 212.312 179.651 214.269H184.151ZM184.965 211.092C185.527 210.149 186.283 209.419 187.264 208.879L185.083 204.967C183.408 205.889 182.067 207.179 181.094 208.812L184.965 211.092ZM187.282 208.869C188.245 208.327 189.346 208.038 190.637 208.038V203.566C188.633 203.566 186.757 204.024 185.065 204.977L187.282 208.869ZM190.637 208.038C191.937 208.038 193.044 208.323 194.011 208.855L196.192 204.943C194.502 204.012 192.633 203.566 190.637 203.566V208.038ZM194.011 208.855C194.988 209.393 195.73 210.117 196.275 211.05L200.167 208.806C199.208 207.163 197.871 205.867 196.192 204.943L194.011 208.855ZM196.286 211.068C196.833 211.986 197.123 213.034 197.123 214.269H201.623C201.623 212.292 201.146 210.446 200.157 208.788L196.286 211.068ZM197.123 214.269C197.123 215.505 196.833 216.552 196.286 217.47L200.157 219.75C201.146 218.092 201.623 216.246 201.623 214.269H197.123ZM196.275 217.488C195.73 218.421 194.988 219.145 194.011 219.684L196.192 223.595C197.871 222.671 199.208 221.375 200.167 219.732L196.275 217.488ZM194.011 219.684C193.044 220.215 191.937 220.5 190.637 220.5V224.973C192.633 224.973 194.502 224.526 196.192 223.595L194.011 219.684ZM190.637 223.852C192.4 223.852 194.058 223.449 195.558 222.609L193.349 218.714C192.577 219.146 191.69 219.379 190.637 219.379V223.852ZM195.558 222.609C197.039 221.781 198.225 220.624 199.083 219.168L195.2 216.908C194.746 217.678 194.14 218.27 193.349 218.714L195.558 222.609ZM199.09 219.156C199.955 217.666 200.375 216.02 200.375 214.269H195.875C195.875 215.285 195.639 216.151 195.193 216.92L199.09 219.156ZM200.375 214.269C200.375 212.518 199.955 210.875 199.083 209.394L195.2 211.654C195.639 212.4 195.875 213.254 195.875 214.269H200.375ZM199.09 209.406C198.234 207.933 197.047 206.763 195.558 205.929L193.349 209.825C194.132 210.263 194.737 210.858 195.193 211.643L199.09 209.406ZM195.558 205.929C194.058 205.089 192.4 204.687 190.637 204.687V209.159C191.69 209.159 192.577 209.392 193.349 209.825L195.558 205.929ZM190.637 204.687C188.874 204.687 187.214 205.089 185.705 205.922L187.89 209.832C188.685 209.392 189.585 209.159 190.637 209.159V204.687ZM185.693 205.929C184.204 206.763 183.017 207.933 182.161 209.406L186.058 211.643C186.514 210.858 187.119 210.263 187.902 209.825L185.693 205.929ZM182.168 209.394C181.295 210.875 180.875 212.518 180.875 214.269H185.375C185.375 213.254 185.611 212.4 186.051 211.654L182.168 209.394ZM180.875 214.269C180.875 216.02 181.295 217.666 182.161 219.156L186.058 216.92C185.611 216.151 185.375 215.285 185.375 214.269H180.875ZM182.168 219.168C183.026 220.624 184.212 221.781 185.693 222.609L187.902 218.714C187.111 218.27 186.505 217.678 186.051 216.908L182.168 219.168ZM185.705 222.616C187.214 223.449 188.874 223.852 190.637 223.852V219.379C189.585 219.379 188.685 219.146 187.89 218.707L185.705 222.616Z" fill="white"/>
<g style="mix-blend-mode:soft-light">
<path d="M58 191.809H226" stroke="white"/>
</g>
<mask id="mask0_150_1212" style="mask-type:alpha" maskUnits="userSpaceOnUse" x="59" y="126" width="168" height="55">
<path d="M64.768 131.289V141.127H77.8V143.417H64.768V154.043H62.104V128.999H79.384V131.289H64.768ZM98.6373 154.258C95.3733 154.258 92.8293 153.328 91.0053 151.467C89.1813 149.607 88.2693 146.9 88.2693 143.346V128.999H90.9333V143.238C90.9333 146.148 91.5933 148.319 92.9133 149.75C94.2333 151.181 96.1413 151.897 98.6373 151.897C101.157 151.897 103.077 151.181 104.397 149.75C105.717 148.319 106.377 146.148 106.377 143.238V128.999H108.969V143.346C108.969 146.9 108.057 149.607 106.233 151.467C104.433 153.328 101.901 154.258 98.6373 154.258ZM125.001 131.289H116.145V128.999H136.521V131.289H127.665V154.043H125.001V131.289ZM154.036 154.258C150.772 154.258 148.228 153.328 146.404 151.467C144.58 149.607 143.668 146.9 143.668 143.346V128.999H146.332V143.238C146.332 146.148 146.992 148.319 148.312 149.75C149.632 151.181 151.54 151.897 154.036 151.897C156.556 151.897 158.476 151.181 159.796 149.75C161.116 148.319 161.776 146.148 161.776 143.238V128.999H164.368V143.346C164.368 146.9 163.456 149.607 161.632 151.467C159.832 153.328 157.3 154.258 154.036 154.258ZM193.204 154.043L187.444 145.993C186.796 146.065 186.124 146.101 185.428 146.101H178.66V154.043H175.996V128.999H185.428C188.644 128.999 191.164 129.762 192.988 131.289C194.812 132.815 195.724 134.914 195.724 137.585C195.724 139.541 195.22 141.199 194.212 142.559C193.228 143.894 191.812 144.86 189.964 145.457L196.12 154.043H193.204ZM185.356 143.847C187.852 143.847 189.76 143.298 191.08 142.201C192.4 141.104 193.06 139.565 193.06 137.585C193.06 135.558 192.4 134.008 191.08 132.934C189.76 131.837 187.852 131.289 185.356 131.289H178.66V143.847H185.356ZM223.432 151.753V154.043H205.612V128.999H222.892V131.289H208.276V140.197H221.308V142.451H208.276V151.753H223.432Z" fill="white"/>
<path d="M64.768 131.289V128.307C63.1111 128.307 61.768 129.642 61.768 131.289H64.768ZM64.768 141.127H61.768C61.768 142.774 63.1111 144.109 64.768 144.109V141.127ZM77.8 141.127H80.8C80.8 139.481 79.4569 138.146 77.8 138.146V141.127ZM77.8 143.417V146.399C79.4569 146.399 80.8 145.064 80.8 143.417H77.8ZM64.768 143.417V140.436C63.1111 140.436 61.768 141.77 61.768 143.417H64.768ZM64.768 154.043V157.025C66.4249 157.025 67.768 155.69 67.768 154.043H64.768ZM62.104 154.043H59.104C59.104 155.69 60.4471 157.025 62.104 157.025V154.043ZM62.104 128.999V126.017C60.4471 126.017 59.104 127.352 59.104 128.999H62.104ZM79.384 128.999H82.384C82.384 127.352 81.0409 126.017 79.384 126.017V128.999ZM79.384 131.289V134.27C81.0409 134.27 82.384 132.935 82.384 131.289H79.384ZM61.768 131.289V141.127H67.768V131.289H61.768ZM64.768 144.109H77.8V138.146H64.768V144.109ZM74.8 141.127V143.417H80.8V141.127H74.8ZM77.8 140.436H64.768V146.399H77.8V140.436ZM61.768 143.417V154.043H67.768V143.417H61.768ZM64.768 151.062H62.104V157.025H64.768V151.062ZM65.104 154.043V128.999H59.104V154.043H65.104ZM62.104 131.98H79.384V126.017H62.104V131.98ZM76.384 128.999V131.289H82.384V128.999H76.384ZM79.384 128.307H64.768V134.27H79.384V128.307ZM91.0053 151.467L93.1539 149.386L91.0053 151.467ZM88.2693 128.999V126.017C86.6124 126.017 85.2693 127.352 85.2693 128.999H88.2693ZM90.9333 128.999H93.9333C93.9333 127.352 92.5901 126.017 90.9333 126.017V128.999ZM104.397 149.75L106.609 151.764L104.397 149.75ZM106.377 128.999V126.017C104.72 126.017 103.377 127.352 103.377 128.999H106.377ZM108.969 128.999H111.969C111.969 127.352 110.626 126.017 108.969 126.017V128.999ZM106.233 151.467L104.085 149.386C104.08 149.391 104.075 149.396 104.071 149.401L106.233 151.467ZM98.6373 151.276C95.9688 151.276 94.2798 150.535 93.1539 149.386L88.8566 153.548C91.3787 156.12 94.7777 157.239 98.6373 157.239V151.276ZM93.1539 149.386C92.0511 148.262 91.2693 146.414 91.2693 143.346H85.2693C85.2693 147.386 86.3114 150.951 88.8566 153.548L93.1539 149.386ZM91.2693 143.346V128.999H85.2693V143.346H91.2693ZM88.2693 131.98H90.9333V126.017H88.2693V131.98ZM87.9333 128.999V143.238H93.9333V128.999H87.9333ZM87.9333 143.238C87.9333 146.531 88.6724 149.564 90.7018 151.764L95.1247 147.735C94.5141 147.074 93.9333 145.766 93.9333 143.238H87.9333ZM90.7018 151.764C92.7385 153.973 95.5487 154.878 98.6373 154.878V148.915C96.7338 148.915 95.728 148.389 95.1247 147.735L90.7018 151.764ZM98.6373 154.878C101.74 154.878 104.567 153.979 106.609 151.764L102.186 147.735C101.588 148.383 100.575 148.915 98.6373 148.915V154.878ZM106.609 151.764C108.638 149.564 109.377 146.531 109.377 143.238H103.377C103.377 145.766 102.796 147.074 102.186 147.735L106.609 151.764ZM109.377 143.238V128.999H103.377V143.238H109.377ZM106.377 131.98H108.969V126.017H106.377V131.98ZM105.969 128.999V143.346H111.969V128.999H105.969ZM105.969 143.346C105.969 146.414 105.187 148.262 104.085 149.386L108.382 153.548C110.927 150.951 111.969 147.386 111.969 143.346H105.969ZM104.071 149.401C102.974 150.534 101.308 151.276 98.6373 151.276V157.239C102.495 157.239 105.893 156.121 108.396 153.533L104.071 149.401ZM125.001 131.289H128.001C128.001 129.642 126.658 128.307 125.001 128.307V131.289ZM116.145 131.289H113.145C113.145 132.935 114.488 134.27 116.145 134.27V131.289ZM116.145 128.999V126.017C114.488 126.017 113.145 127.352 113.145 128.999H116.145ZM136.521 128.999H139.521C139.521 127.352 138.178 126.017 136.521 126.017V128.999ZM136.521 131.289V134.27C138.178 134.27 139.521 132.935 139.521 131.289H136.521ZM127.665 131.289V128.307C126.008 128.307 124.665 129.642 124.665 131.289H127.665ZM127.665 154.043V157.025C129.322 157.025 130.665 155.69 130.665 154.043H127.665ZM125.001 154.043H122.001C122.001 155.69 123.344 157.025 125.001 157.025V154.043ZM125.001 128.307H116.145V134.27H125.001V128.307ZM119.145 131.289V128.999H113.145V131.289H119.145ZM116.145 131.98H136.521V126.017H116.145V131.98ZM133.521 128.999V131.289H139.521V128.999H133.521ZM136.521 128.307H127.665V134.27H136.521V128.307ZM124.665 131.289V154.043H130.665V131.289H124.665ZM127.665 151.062H125.001V157.025H127.665V151.062ZM128.001 154.043V131.289H122.001V154.043H128.001ZM146.404 151.467L148.553 149.386L146.404 151.467ZM143.668 128.999V126.017C142.012 126.017 140.668 127.352 140.668 128.999H143.668ZM146.332 128.999H149.332C149.332 127.352 147.989 126.017 146.332 126.017V128.999ZM159.796 149.75L162.008 151.764L159.796 149.75ZM161.776 128.999V126.017C160.12 126.017 158.776 127.352 158.776 128.999H161.776ZM164.368 128.999H167.368C167.368 127.352 166.025 126.017 164.368 126.017V128.999ZM161.632 151.467L159.484 149.386C159.479 149.391 159.475 149.396 159.47 149.401L161.632 151.467ZM154.036 151.276C151.368 151.276 149.679 150.535 148.553 149.386L144.256 153.548C146.778 156.12 150.177 157.239 154.036 157.239V151.276ZM148.553 149.386C147.45 148.262 146.668 146.414 146.668 143.346H140.668C140.668 147.386 141.711 150.951 144.256 153.548L148.553 149.386ZM146.668 143.346V128.999H140.668V143.346H146.668ZM143.668 131.98H146.332V126.017H143.668V131.98ZM143.332 128.999V143.238H149.332V128.999H143.332ZM143.332 143.238C143.332 146.531 144.072 149.564 146.101 151.764L150.524 147.735C149.913 147.074 149.332 145.766 149.332 143.238H143.332ZM146.101 151.764C148.138 153.973 150.948 154.878 154.036 154.878V148.915C152.133 148.915 151.127 148.389 150.524 147.735L146.101 151.764ZM154.036 154.878C157.139 154.878 159.966 153.979 162.008 151.764L157.585 147.735C156.987 148.383 155.974 148.915 154.036 148.915V154.878ZM162.008 151.764C164.037 149.564 164.776 146.531 164.776 143.238H158.776C158.776 145.766 158.196 147.074 157.585 147.735L162.008 151.764ZM164.776 143.238V128.999H158.776V143.238H164.776ZM161.776 131.98H164.368V126.017H161.776V131.98ZM161.368 128.999V143.346H167.368V128.999H161.368ZM161.368 143.346C161.368 146.414 160.587 148.262 159.484 149.386L163.781 153.548C166.326 150.951 167.368 147.386 167.368 143.346H161.368ZM159.47 149.401C158.373 150.534 156.707 151.276 154.036 151.276V157.239C157.894 157.239 161.292 156.121 163.795 153.533L159.47 149.401ZM193.204 154.043L190.759 155.772C191.322 156.558 192.233 157.025 193.204 157.025V154.043ZM187.444 145.993L189.889 144.265C189.258 143.383 188.195 142.91 187.113 143.03L187.444 145.993ZM178.66 146.101V143.119C177.003 143.119 175.66 144.454 175.66 146.101H178.66ZM178.66 154.043V157.025C180.317 157.025 181.66 155.69 181.66 154.043H178.66ZM175.996 154.043H172.996C172.996 155.69 174.339 157.025 175.996 157.025V154.043ZM175.996 128.999V126.017C174.339 126.017 172.996 127.352 172.996 128.999H175.996ZM192.988 131.289L191.056 133.569L192.988 131.289ZM194.212 142.559L191.797 140.79L191.792 140.798L194.212 142.559ZM189.964 145.457L189.038 142.621C188.129 142.914 187.415 143.62 187.115 144.521C186.816 145.424 186.966 146.414 187.521 147.187L189.964 145.457ZM196.12 154.043V157.025C197.243 157.025 198.272 156.402 198.787 155.409C199.301 154.417 199.215 153.222 198.563 152.313L196.12 154.043ZM191.08 142.201L193.005 144.488L191.08 142.201ZM191.08 132.934L189.156 135.221C189.164 135.228 189.172 135.235 189.18 135.242L191.08 132.934ZM178.66 131.289V128.307C177.003 128.307 175.66 129.642 175.66 131.289H178.66ZM178.66 143.847H175.66C175.66 145.493 177.003 146.828 178.66 146.828V143.847ZM195.649 152.315L189.889 144.265L184.999 147.722L190.759 155.772L195.649 152.315ZM187.113 143.03C186.582 143.088 186.021 143.119 185.428 143.119V149.082C186.228 149.082 187.01 149.041 187.775 148.957L187.113 143.03ZM185.428 143.119H178.66V149.082H185.428V143.119ZM175.66 146.101V154.043H181.66V146.101H175.66ZM178.66 151.062H175.996V157.025H178.66V151.062ZM178.996 154.043V128.999H172.996V154.043H178.996ZM175.996 131.98H185.428V126.017H175.996V131.98ZM185.428 131.98C188.185 131.98 189.936 132.632 191.056 133.569L194.921 129.008C192.393 126.892 189.104 126.017 185.428 126.017V131.98ZM191.056 133.569C192.112 134.453 192.724 135.668 192.724 137.585H198.724C198.724 134.16 197.513 131.177 194.921 129.008L191.056 133.569ZM192.724 137.585C192.724 139.01 192.367 140.021 191.797 140.79L196.627 144.328C198.073 142.377 198.724 140.073 198.724 137.585H192.724ZM191.792 140.798C191.239 141.548 190.39 142.185 189.038 142.621L190.891 148.292C193.235 147.536 195.217 146.241 196.633 144.32L191.792 140.798ZM187.521 147.187L193.677 155.774L198.563 152.313L192.407 143.726L187.521 147.187ZM196.12 151.062H193.204V157.025H196.12V151.062ZM185.356 146.828C188.246 146.828 190.948 146.198 193.005 144.488L189.156 139.914C188.573 140.398 187.458 140.865 185.356 140.865V146.828ZM193.005 144.488C195.118 142.732 196.06 140.293 196.06 137.585H190.06C190.06 138.838 189.683 139.476 189.156 139.914L193.005 144.488ZM196.06 137.585C196.06 134.858 195.135 132.379 192.98 130.627L189.18 135.242C189.666 135.637 190.06 136.258 190.06 137.585H196.06ZM193.005 130.648C190.948 128.937 188.246 128.307 185.356 128.307V134.27C187.458 134.27 188.573 134.737 189.156 135.221L193.005 130.648ZM185.356 128.307H178.66V134.27H185.356V128.307ZM175.66 131.289V143.847H181.66V131.289H175.66ZM178.66 146.828H185.356V140.865H178.66V146.828ZM223.432 151.753H226.432C226.432 150.107 225.089 148.772 223.432 148.772V151.753ZM223.432 154.043V157.025C225.089 157.025 226.432 155.69 226.432 154.043H223.432ZM205.612 154.043H202.612C202.612 155.69 203.955 157.025 205.612 157.025V154.043ZM205.612 128.999V126.017C203.955 126.017 202.612 127.352 202.612 128.999H205.612ZM222.892 128.999H225.892C225.892 127.352 224.549 126.017 222.892 126.017V128.999ZM222.892 131.289V134.27C224.549 134.27 225.892 132.935 225.892 131.289H222.892ZM208.276 131.289V128.307C206.619 128.307 205.276 129.642 205.276 131.289H208.276ZM208.276 140.197H205.276C205.276 141.844 206.619 143.179 208.276 143.179V140.197ZM221.308 140.197H224.308C224.308 138.55 222.965 137.216 221.308 137.216V140.197ZM221.308 142.451V145.433C222.965 145.433 224.308 144.098 224.308 142.451H221.308ZM208.276 142.451V139.47C206.619 139.47 205.276 140.804 205.276 142.451H208.276ZM208.276 151.753H205.276C205.276 153.4 206.619 154.735 208.276 154.735V151.753ZM220.432 151.753V154.043H226.432V151.753H220.432ZM223.432 151.062H205.612V157.025H223.432V151.062ZM208.612 154.043V128.999H202.612V154.043H208.612ZM205.612 131.98H222.892V126.017H205.612V131.98ZM219.892 128.999V131.289H225.892V128.999H219.892ZM222.892 128.307H208.276V134.27H222.892V128.307ZM205.276 131.289V140.197H211.276V131.289H205.276ZM208.276 143.179H221.308V137.216H208.276V143.179ZM218.308 140.197V142.451H224.308V140.197H218.308ZM221.308 139.47H208.276V145.433H221.308V139.47ZM205.276 142.451V151.753H211.276V142.451H205.276ZM208.276 154.735H223.432V148.772H208.276V154.735Z" fill="white"/>
<path d="M109.28 165.353H104.08V164.975H114.88V165.353H109.68V178.889H109.28V165.353ZM128.937 178.511V178.889H119.617V164.975H128.637V165.353H120.017V171.634H127.737V172.012H120.017V178.511H128.937ZM145.976 164.975V178.889H145.636L135.376 165.711V178.889H134.976V164.975H135.316L145.576 178.154V164.975H145.976ZM156.725 178.949C155.711 178.949 154.758 178.77 153.865 178.412C152.971 178.041 152.285 177.564 151.805 176.981L152.085 176.722C152.538 177.252 153.185 177.696 154.025 178.054C154.865 178.399 155.758 178.571 156.705 178.571C158.158 178.571 159.251 178.286 159.985 177.716C160.731 177.133 161.105 176.385 161.105 175.47C161.105 174.755 160.911 174.185 160.525 173.761C160.138 173.336 159.658 173.018 159.085 172.807C158.525 172.595 157.765 172.376 156.805 172.151C155.778 171.899 154.965 171.661 154.365 171.435C153.765 171.197 153.251 170.839 152.825 170.362C152.411 169.872 152.205 169.222 152.205 168.414C152.205 167.778 152.371 167.195 152.705 166.665C153.038 166.135 153.558 165.711 154.265 165.393C154.971 165.075 155.845 164.916 156.885 164.916C157.631 164.916 158.365 165.035 159.085 165.274C159.805 165.499 160.425 165.803 160.945 166.188L160.725 166.506C160.178 166.108 159.565 165.81 158.885 165.611C158.218 165.4 157.558 165.293 156.905 165.293C155.505 165.293 154.438 165.592 153.705 166.188C152.971 166.771 152.605 167.52 152.605 168.434C152.605 169.149 152.798 169.726 153.185 170.163C153.571 170.588 154.051 170.906 154.625 171.117C155.198 171.329 155.971 171.555 156.945 171.793C157.958 172.044 158.765 172.29 159.365 172.528C159.965 172.754 160.471 173.105 160.885 173.582C161.298 174.046 161.505 174.675 161.505 175.47C161.505 176.106 161.331 176.69 160.985 177.219C160.638 177.749 160.105 178.173 159.385 178.491C158.678 178.797 157.791 178.949 156.725 178.949ZM176.636 178.511V178.889H167.316V164.975H176.336V165.353H167.716V171.634H175.436V172.012H167.716V178.511H176.636Z" fill="white"/>
<path d="M109.28 165.353H111.28C111.28 164.255 110.385 163.365 109.28 163.365V165.353ZM104.08 165.353H102.08C102.08 166.451 102.975 167.341 104.08 167.341V165.353ZM104.08 164.975V162.988C102.975 162.988 102.08 163.877 102.08 164.975H104.08ZM114.88 164.975H116.88C116.88 163.877 115.985 162.988 114.88 162.988V164.975ZM114.88 165.353V167.341C115.985 167.341 116.88 166.451 116.88 165.353H114.88ZM109.68 165.353V163.365C108.575 163.365 107.68 164.255 107.68 165.353H109.68ZM109.68 178.889V180.876C110.785 180.876 111.68 179.987 111.68 178.889H109.68ZM109.28 178.889H107.28C107.28 179.987 108.175 180.876 109.28 180.876V178.889ZM109.28 163.365H104.08V167.341H109.28V163.365ZM106.08 165.353V164.975H102.08V165.353H106.08ZM104.08 166.963H114.88V162.988H104.08V166.963ZM112.88 164.975V165.353H116.88V164.975H112.88ZM114.88 163.365H109.68V167.341H114.88V163.365ZM107.68 165.353V178.889H111.68V165.353H107.68ZM109.68 176.901H109.28V180.876H109.68V176.901ZM111.28 178.889V165.353H107.28V178.889H111.28ZM128.937 178.511H130.937C130.937 177.413 130.042 176.524 128.937 176.524V178.511ZM128.937 178.889V180.876C130.042 180.876 130.937 179.987 130.937 178.889H128.937ZM119.617 178.889H117.617C117.617 179.987 118.512 180.876 119.617 180.876V178.889ZM119.617 164.975V162.988C118.512 162.988 117.617 163.877 117.617 164.975H119.617ZM128.637 164.975H130.637C130.637 163.877 129.742 162.988 128.637 162.988V164.975ZM128.637 165.353V167.341C129.742 167.341 130.637 166.451 130.637 165.353H128.637ZM120.017 165.353V163.365C118.912 163.365 118.017 164.255 118.017 165.353H120.017ZM120.017 171.634H118.017C118.017 172.732 118.912 173.622 120.017 173.622V171.634ZM127.737 171.634H129.737C129.737 170.536 128.842 169.646 127.737 169.646V171.634ZM127.737 172.012V173.999C128.842 173.999 129.737 173.11 129.737 172.012H127.737ZM120.017 172.012V170.024C118.912 170.024 118.017 170.913 118.017 172.012H120.017ZM120.017 178.511H118.017C118.017 179.609 118.912 180.499 120.017 180.499V178.511ZM126.937 178.511V178.889H130.937V178.511H126.937ZM128.937 176.901H119.617V180.876H128.937V176.901ZM121.617 178.889V164.975H117.617V178.889H121.617ZM119.617 166.963H128.637V162.988H119.617V166.963ZM126.637 164.975V165.353H130.637V164.975H126.637ZM128.637 163.365H120.017V167.341H128.637V163.365ZM118.017 165.353V171.634H122.017V165.353H118.017ZM120.017 173.622H127.737V169.646H120.017V173.622ZM125.737 171.634V172.012H129.737V171.634H125.737ZM127.737 170.024H120.017V173.999H127.737V170.024ZM118.017 172.012V178.511H122.017V172.012H118.017ZM120.017 180.499H128.937V176.524H120.017V180.499ZM145.976 164.975H147.976C147.976 163.877 147.081 162.988 145.976 162.988V164.975ZM145.976 178.889V180.876C147.081 180.876 147.976 179.987 147.976 178.889H145.976ZM145.636 178.889L144.055 180.105C144.433 180.591 145.017 180.876 145.636 180.876V178.889ZM135.376 165.711L136.958 164.494C136.435 163.822 135.539 163.555 134.73 163.829C133.92 164.105 133.376 164.861 133.376 165.711H135.376ZM135.376 178.889V180.876C136.481 180.876 137.376 179.987 137.376 178.889H135.376ZM134.976 178.889H132.976C132.976 179.987 133.872 180.876 134.976 180.876V178.889ZM134.976 164.975V162.988C133.872 162.988 132.976 163.877 132.976 164.975H134.976ZM135.316 164.975L136.898 163.759C136.519 163.273 135.935 162.988 135.316 162.988V164.975ZM145.576 178.153L143.995 179.37C144.518 180.042 145.414 180.309 146.223 180.035C147.032 179.759 147.576 179.003 147.576 178.153H145.576ZM145.576 164.975V162.988C144.472 162.988 143.576 163.877 143.576 164.975H145.576ZM143.976 164.975V178.889H147.976V164.975H143.976ZM145.976 176.901H145.636V180.876H145.976V176.901ZM147.218 177.672L136.958 164.494L133.795 166.927L144.055 180.105L147.218 177.672ZM133.376 165.711V178.889H137.376V165.711H133.376ZM135.376 176.901H134.976V180.876H135.376V176.901ZM136.976 178.889V164.975H132.976V178.889H136.976ZM134.976 166.963H135.316V162.988H134.976V166.963ZM133.735 166.192L143.995 179.37L147.158 176.937L136.898 163.759L133.735 166.192ZM147.576 178.153V164.975H143.576V178.153H147.576ZM145.576 166.963H145.976V162.988H145.576V166.963ZM153.865 178.412L153.093 180.245C153.101 180.249 153.109 180.252 153.117 180.255L153.865 178.412ZM151.805 176.981L150.444 175.524C149.67 176.238 149.588 177.427 150.257 178.239L151.805 176.981ZM152.085 176.722L153.608 175.435C153.255 175.022 152.747 174.77 152.202 174.738C151.658 174.706 151.123 174.897 150.724 175.265L152.085 176.722ZM154.025 178.054L153.237 179.881C153.245 179.885 153.253 179.888 153.262 179.892L154.025 178.054ZM159.985 177.716L161.216 179.282L161.22 179.279L159.985 177.716ZM160.525 173.761L159.043 175.095L160.525 173.761ZM159.085 172.807L158.373 174.664C158.377 174.666 158.382 174.668 158.387 174.669L159.085 172.807ZM156.805 172.151L156.325 174.081C156.332 174.082 156.338 174.084 156.345 174.085L156.805 172.151ZM154.365 171.435L153.622 173.281C153.634 173.286 153.646 173.29 153.658 173.295L154.365 171.435ZM152.825 170.362L151.291 171.638C151.304 171.653 151.317 171.668 151.33 171.683L152.825 170.362ZM152.705 166.665L154.401 167.718L152.705 166.665ZM159.085 165.273L158.452 167.159C158.463 167.163 158.473 167.166 158.484 167.17L159.085 165.273ZM160.945 166.188L162.593 167.314C163.202 166.433 163.001 165.231 162.138 164.593L160.945 166.188ZM160.725 166.506L159.544 168.11C159.98 168.427 160.527 168.555 161.06 168.466C161.593 168.375 162.066 168.075 162.373 167.632L160.725 166.506ZM158.885 165.611L158.275 167.505C158.29 167.51 158.305 167.514 158.32 167.518L158.885 165.611ZM153.705 166.188L154.954 167.74C154.96 167.735 154.965 167.731 154.971 167.726L153.705 166.188ZM153.185 170.163L151.682 171.475C151.689 171.483 151.696 171.49 151.703 171.498L153.185 170.163ZM154.625 171.117L155.322 169.255L154.625 171.117ZM156.945 171.793L157.43 169.865L157.423 169.863L156.945 171.793ZM159.365 172.528L158.622 174.374C158.634 174.379 158.646 174.383 158.658 174.388L159.365 172.528ZM160.885 173.582L159.369 174.879C159.375 174.886 159.381 174.893 159.387 174.9L160.885 173.582ZM160.985 177.219L159.308 176.136L160.985 177.219ZM159.385 178.491L160.181 180.315C160.186 180.312 160.191 180.31 160.197 180.308L159.385 178.491ZM156.725 176.961C155.954 176.961 155.256 176.826 154.612 176.568L153.117 180.255C154.26 180.714 155.469 180.936 156.725 180.936V176.961ZM154.636 176.578C153.963 176.299 153.575 175.993 153.352 175.723L150.257 178.239C150.994 179.135 151.979 179.783 153.093 180.245L154.636 176.578ZM153.165 178.438L153.445 178.179L150.724 175.265L150.444 175.524L153.165 178.438ZM150.561 178.009C151.266 178.834 152.196 179.437 153.237 179.881L154.812 176.227C154.173 175.955 153.81 175.671 153.608 175.435L150.561 178.009ZM153.262 179.892C154.354 180.339 155.507 180.558 156.705 180.558V176.583C156.009 176.583 155.375 176.458 154.788 176.216L153.262 179.892ZM156.705 180.558C158.369 180.558 159.982 180.24 161.216 179.282L158.753 176.15C158.52 176.331 157.947 176.583 156.705 176.583V180.558ZM161.22 179.279C162.431 178.333 163.105 177.016 163.105 175.47H159.105C159.105 175.752 159.031 175.933 158.749 176.153L161.22 179.279ZM163.105 175.47C163.105 174.39 162.804 173.301 162.007 172.426L159.043 175.095C159.044 175.097 159.046 175.099 159.048 175.103C159.051 175.107 159.057 175.118 159.064 175.141C159.08 175.187 159.105 175.288 159.105 175.47H163.105ZM162.007 172.426C161.391 171.751 160.636 171.259 159.782 170.944L158.387 174.669C158.679 174.777 158.884 174.922 159.043 175.095L162.007 172.426ZM159.797 170.949C159.119 170.693 158.263 170.45 157.264 170.217L156.345 174.085C157.266 174.301 157.93 174.496 158.373 174.664L159.797 170.949ZM157.284 170.221C156.292 169.977 155.565 169.761 155.071 169.576L153.658 173.295C154.364 173.56 155.264 173.82 156.325 174.081L157.284 170.221ZM155.107 169.59C154.794 169.465 154.538 169.286 154.319 169.041L151.33 171.683C151.964 172.391 152.735 172.928 153.622 173.281L155.107 169.59ZM154.358 169.086C154.319 169.039 154.205 168.882 154.205 168.414H150.205C150.205 169.563 150.504 170.704 151.291 171.638L154.358 169.086ZM154.205 168.414C154.205 168.144 154.27 167.927 154.401 167.718L151.009 165.611C150.473 166.463 150.205 167.412 150.205 168.414H154.205ZM154.401 167.718C154.481 167.591 154.658 167.397 155.09 167.203L153.44 163.582C152.458 164.024 151.595 164.679 151.009 165.611L154.401 167.718ZM155.09 167.203C155.465 167.034 156.037 166.903 156.885 166.903V162.928C155.652 162.928 154.478 163.115 153.44 163.582L155.09 167.203ZM156.885 166.903C157.413 166.903 157.933 166.987 158.452 167.159L159.717 163.388C158.796 163.083 157.85 162.928 156.885 162.928V166.903ZM158.484 167.17C159.025 167.339 159.437 167.551 159.751 167.783L162.138 164.593C161.412 164.056 160.584 163.658 159.685 163.377L158.484 167.17ZM159.296 165.062L159.076 165.38L162.373 167.632L162.593 167.314L159.296 165.062ZM161.906 164.902C161.164 164.362 160.34 163.965 159.449 163.704L158.32 167.518C158.789 167.656 159.192 167.854 159.544 168.11L161.906 164.902ZM159.494 163.718C158.644 163.448 157.779 163.306 156.905 163.306V167.281C157.337 167.281 157.791 167.351 158.275 167.505L159.494 163.718ZM156.905 163.306C155.256 163.306 153.665 163.651 152.438 164.649L154.971 167.726C155.211 167.53 155.753 167.281 156.905 167.281V163.306ZM152.455 164.635C151.259 165.586 150.605 166.901 150.605 168.434H154.605C154.605 168.138 154.684 167.955 154.954 167.74L152.455 164.635ZM150.605 168.434C150.605 169.517 150.906 170.597 151.682 171.475L154.687 168.851C154.677 168.84 154.663 168.822 154.647 168.775C154.629 168.721 154.605 168.615 154.605 168.434H150.605ZM151.703 171.498C152.318 172.173 153.073 172.665 153.927 172.98L155.322 169.255C155.03 169.146 154.825 169.001 154.667 168.828L151.703 171.498ZM153.927 172.98C154.602 173.23 155.459 173.476 156.466 173.723L157.423 169.863C156.484 169.632 155.793 169.429 155.322 169.255L153.927 172.98ZM156.459 173.721C157.431 173.962 158.141 174.183 158.622 174.374L160.107 170.683C159.388 170.397 158.484 170.126 157.43 169.865L156.459 173.721ZM158.658 174.388C158.949 174.497 159.177 174.657 159.369 174.879L162.4 172.285C161.766 171.552 160.98 171.01 160.071 170.669L158.658 174.388ZM159.387 174.9C159.393 174.907 159.505 175.019 159.505 175.47H163.505C163.505 174.331 163.202 173.184 162.382 172.264L159.387 174.9ZM159.505 175.47C159.505 175.724 159.442 175.93 159.308 176.136L162.661 178.302C163.22 177.448 163.505 176.488 163.505 175.47H159.505ZM159.308 176.136C159.217 176.274 159.023 176.476 158.572 176.675L160.197 180.308C161.186 179.871 162.059 179.224 162.661 178.302L159.308 176.136ZM158.588 176.668C158.21 176.832 157.616 176.961 156.725 176.961V180.936C157.967 180.936 159.146 180.761 160.181 180.315L158.588 176.668ZM176.636 178.511H178.636C178.636 177.413 177.741 176.524 176.636 176.524V178.511ZM176.636 178.889V180.876C177.741 180.876 178.636 179.987 178.636 178.889H176.636ZM167.316 178.889H165.316C165.316 179.987 166.212 180.876 167.316 180.876V178.889ZM167.316 164.975V162.988C166.212 162.988 165.316 163.877 165.316 164.975H167.316ZM176.336 164.975H178.336C178.336 163.877 177.441 162.988 176.336 162.988V164.975ZM176.336 165.353V167.341C177.441 167.341 178.336 166.451 178.336 165.353H176.336ZM167.716 165.353V163.365C166.612 163.365 165.716 164.255 165.716 165.353H167.716ZM167.716 171.634H165.716C165.716 172.732 166.612 173.622 167.716 173.622V171.634ZM175.436 171.634H177.436C177.436 170.536 176.541 169.646 175.436 169.646V171.634ZM175.436 172.012V173.999C176.541 173.999 177.436 173.11 177.436 172.012H175.436ZM167.716 172.012V170.024C166.612 170.024 165.716 170.913 165.716 172.012H167.716ZM167.716 178.511H165.716C165.716 179.609 166.612 180.499 167.716 180.499V178.511ZM174.636 178.511V178.889H178.636V178.511H174.636ZM176.636 176.901H167.316V180.876H176.636V176.901ZM169.316 178.889V164.975H165.316V178.889H169.316ZM167.316 166.963H176.336V162.988H167.316V166.963ZM174.336 164.975V165.353H178.336V164.975H174.336ZM176.336 163.365H167.716V167.341H176.336V163.365ZM165.716 165.353V171.634H169.716V165.353H165.716ZM167.716 173.622H175.436V169.646H167.716V173.622ZM173.436 171.634V172.012H177.436V171.634H173.436ZM175.436 170.024H167.716V173.999H175.436V170.024ZM165.716 172.012V178.511H169.716V172.012H165.716ZM167.716 180.499H176.636V176.524H167.716V180.499Z" fill="white"/>
</mask>
<g mask="url(#mask0_150_1212)">
<path d="M0 144.145L9.46667 145.403C18.9333 146.699 37.8667 149.214 56.8 146.622C75.7333 144.03 94.6667 136.255 113.6 136.788C132.533 137.284 151.467 146.051 170.4 146.622C189.333 147.194 208.267 139.571 227.2 135.644C246.133 131.681 265.067 131.451 274.533 131.299L284 131.185V321.006H274.533C265.067 321.006 246.133 321.006 227.2 321.006C208.267 321.006 189.333 321.006 170.4 321.006C151.467 321.006 132.533 321.006 113.6 321.006C94.6667 321.006 75.7333 321.006 56.8 321.006C37.8667 321.006 18.9333 321.006 9.46667 321.006H0V144.145Z" fill="white"/>
</g>
</g>
<defs>
<clipPath id="clip0_150_1212">
<rect width="284" height="322" fill="white"/>
</clipPath>
</defs>
</svg>
