<?xml version="1.0" encoding="utf-8"?>
<!-- Generator: Adobe Illustrator 25.0.0, SVG Export Plug-In . SVG Version: 6.00 Build 0)  -->
<svg version="1.1" id="Layer_1" xmlns="http://www.w3.org/2000/svg" xmlns:xlink="http://www.w3.org/1999/xlink" x="0px" y="0px"
	 viewBox="0 0 266.6 456" style="enable-background:new 0 0 266.6 456;" xml:space="preserve">
<style type="text/css">
	.st0{fill:#464646;}
</style>
<path class="st0" d="M39.2,154c-10.3-8.3-25.4-6.9-33.8,3.4c-8.4,10.2-6.9,25.4,3.4,33.7c11.3,9.3,17.8,22.7,17.8,36
	c0,14.2-6.5,27.6-17.8,36.8c-10.3,8.4-11.8,23.5-3.4,33.7c4.7,5.8,11.6,8.8,18.6,8.8c5.3,0,10.8-1.8,15.2-5.4
	c22.5-17.6,35.4-44.5,35.4-74S61.7,172.4,39.2,154z M99.7,80.2c-10.2-8.3-25.3-6.9-33.8,3.3c-8.4,10.2-6.9,25.4,3.3,33.7
	c33.9,26.8,53.3,68,53.3,109.8s-19.4,82.1-53.3,110.7c-10.3,8.4-11.8,23.5-3.3,33.7c4.8,5.8,11.6,8.8,18.6,8.8
	c5.4,0,10.8-1.8,15.2-5.4c45.1-36,70.9-89.9,70.9-147.8S144.8,117,99.7,80.2z M161,5.4c-10.2-8.3-25.3-6.9-33.8,3.3
	c-8.4,10.2-6.9,25.4,3.3,33.7c55.9,45.8,88,113.4,88,184.6s-32.1,139.7-88.1,185.5c-10.2,8.4-11.8,23.5-3.3,33.7
	c4.7,6.7,11.6,9.7,18.6,9.7c5.4,0,10.8-1.8,15.2-5.4c67.1-55,105.6-136.1,105.6-223.5S228.1,60.3,161,5.4z"/>
</svg>
