<?xml version="1.0" encoding="utf-8"?>
<!-- Generator: Adobe Illustrator 25.0.0, SVG Export Plug-In . SVG Version: 6.00 Build 0)  -->
<svg version="1.1" id="Layer_2_1_" xmlns="http://www.w3.org/2000/svg" xmlns:xlink="http://www.w3.org/1999/xlink" x="0px" y="0px"
	 viewBox="0 0 319.7 319.7" style="enable-background:new 0 0 319.7 319.7;" xml:space="preserve">
<g>
	<path d="M319.6,150.8c-0.1-0.3-0.2-0.5-0.2-0.8c-0.1-0.2-0.1-0.5-0.2-0.5c-3.8-33.3-19.8-59.4-47.5-77.7c-7.1-4.7-15-8.1-22.5-11
		c-5.2-2-10.8-1.2-15,2.3c-4.3,3.5-6.3,9.2-5.3,14.8c1.4,7.6,7.3,10.6,11.6,12.2c34.4,12.8,54.2,48,47.3,83.6
		c-5.4,27.5-21.9,46.6-49,56.7c-8.9,3.3-13.2,11.6-10.3,19.8c1.4,4,4.2,7.1,7.8,8.8c2,0.9,4.2,1.4,6.5,1.4c2,0,4.1-0.4,6.2-1.1
		c34.5-12.7,57.1-36.9,67.1-71.9c1.2-4.3,2-8.8,2.7-13c0.3-1.9,0.6-3.8,1-5.7l0.1-0.4v-16.8L319.6,150.8z"/>
	<path d="M219.4,36.8c-0.1-14.8-6.7-26-19-32.3c-11.7-5.9-23.3-4.5-35.6,4.4c-30.3,21.9-61.2,44-91.1,65.3l-3,2.1l-0.1,0.1L68.2,78
		c-0.5,0.3-1.1,0.6-1.8,0.7c-0.2,0-0.4,0.1-0.6,0.1c-1.1,0-2.3,0-3.4,0c-0.4,0-0.9,0-1.3,0c-3.1,0-6.2,0-9.3,0
		c-6.3,0-12.8-0.1-19.2,0.1c-8,0.2-14.9,2.7-20.4,7.4c-0.6,0.5-1.1,1-1.7,1.5c-0.5,0.5-1,1-1.5,1.6c-0.3,0.3-0.6,0.7-0.9,1
		c-0.2,0.2-0.4,0.5-0.6,0.8c-0.3,0.3-0.5,0.7-0.8,1c-1.4,1.9-2.7,4.1-3.8,6.4c-0.2,0.4-0.4,0.8-0.5,1.1c-0.1,0.4-0.3,0.8-0.4,1.1
		c-0.4,1.2-0.8,2.5-1.1,3.8c-0.2,0.7-0.4,1.4-0.6,2.1c0,0,0,0,0,0.1c0,0.1,0,0.1-0.1,0.2L0,107.5l0,0.1v105l0.5,0.9l0,0.1
		c0,0.1,0.1,0.1,0.1,0.2c0.8,3.2,1.9,6.1,3.2,8.8c0.1,0.2,0.2,0.4,0.3,0.7c3,5.8,7.3,10.3,12.8,13.3c0.3,0.2,0.7,0.4,1,0.5
		c0.3,0.2,0.7,0.3,1,0.5c0.3,0.2,0.6,0.3,1,0.4c2.3,0.9,4.7,1.7,7.3,2.1h0c0.3,0.1,0.6,0.1,0.9,0.2c2.2,0.4,4.6,0.5,7.1,0.5h10.1
		c6.8,0,13.7,0,20.5,0.1c0.7,0,1.8,0.4,2.4,0.8c10.7,7.6,21.6,15.4,32.1,22.9l7.8,5.6c6.1,4.4,12.3,8.8,18.4,13.2
		c13.2,9.5,26.8,19.2,40.2,28.8c4.4,3.2,9.3,5.2,14.3,6c0.2,0,0.3,0.1,0.5,0.1c1.6,0.3,3.3,0.4,4.9,0.4c1.4,0,2.7-0.1,4.1-0.3
		c0.1,0,0.2,0,0.2,0c1.4-0.2,2.8-0.5,4.2-0.9c4.2-1.2,8.1-3.3,11.4-6.1c4.1-3.4,7.4-7.8,9.6-12.9c2.6-6.2,3.2-12.5,3.3-16.7
		c0.2-17.6,0.2-35.5,0.2-52.9c0-2.6,0.1-5.2,0.1-7.8c0-3.6,0-7.3,0-10.9V78.1C219.5,64.4,219.5,50.5,219.4,36.8z M186.8,287.9
		c-0.4,0.2-1.5,0-2.9-1c-21.7-15.5-87.3-62.5-102.6-73.5c-3.2-1.8-6.7-2.8-10.4-3.2H34.3c-3.3,0-3.8-0.8-3.8-3.6v-93.4
		c0-2.5,0.4-3.4,2.4-3.5c0.1,0,0.2,0,0.3,0c0.1,0,0.2,0,0.3,0c0.1,0,0.2,0,0.4,0c0.2,0,0.4,0,0.6,0c4.4,0,22.7,0,33.8,0
		c0.6,0,1.3,0,2-0.1c0.3,0,0.6,0,0.9-0.1c0.3,0,0.7-0.1,1.1-0.1c0.2,0,0.4-0.1,0.6-0.1c0.2,0,0.5-0.1,0.7-0.1
		c0.4-0.1,0.8-0.2,1.2-0.3c0.3-0.1,0.5-0.1,0.8-0.2c0.2-0.1,0.4-0.1,0.6-0.2c0.2-0.1,0.4-0.1,0.6-0.2c0.3-0.1,0.6-0.2,0.9-0.3
		c0.3-0.1,0.6-0.2,0.9-0.4c0.6-0.2,1.2-0.5,1.8-0.8c0.6-0.3,1.2-0.6,1.7-0.9c0.3-0.2,0.5-0.3,0.8-0.5c0,0,0,0,0,0
		C99.8,93.2,156.6,52.5,183.8,33c0.2-0.1,0.3-0.2,0.5-0.3c0.2-0.1,0.5-0.3,0.7-0.4c0.3-0.1,0.6-0.2,0.9-0.3c0.1,0,0.2,0,0.3,0
		c0.4,0,0.7,0,0.9,0.1c0.8,0.3,1.4,1.5,1.6,3.1c0.1,0.8,0.1,1.7,0.1,2.7v243.6c0,1.4,0,2.8-0.3,3.8c-0.2,1-0.6,1.6-0.9,2
		C187.2,287.6,187,287.8,186.8,287.9z"/>
</g>
</svg>
