<?xml version="1.0" encoding="utf-8"?>
<!-- Generator: Adobe Illustrator 25.0.0, SVG Export Plug-In . SVG Version: 6.00 Build 0)  -->
<svg version="1.1" id="Layer_1" xmlns="http://www.w3.org/2000/svg" xmlns:xlink="http://www.w3.org/1999/xlink" x="0px" y="0px"
	 viewBox="0 0 512 512" style="enable-background:new 0 0 512 512;" xml:space="preserve">
<style type="text/css">
	.st0{fill:#FFFFFF;}
</style>
<g>
	<path class="st0" d="M256,487c-61.7,0-119.7-24-163.3-67.7C49,375.7,25,317.7,25,256S49,136.3,92.7,92.7C136.3,49,194.3,25,256,25
		s119.7,24,163.3,67.7C463,136.3,487,194.3,487,256s-24,119.7-67.7,163.3C375.7,463,317.7,487,256,487z"/>
	<path d="M256,50c55,0,106.8,21.4,145.7,60.3C440.6,149.2,462,201,462,256s-21.4,106.8-60.3,145.7C362.8,440.6,311,462,256,462
		s-106.8-21.4-145.7-60.3C71.4,362.8,50,311,50,256s21.4-106.8,60.3-145.7C149.2,71.4,201,50,256,50 M256,0C114.6,0,0,114.6,0,256
		s114.6,256,256,256s256-114.6,256-256S397.4,0,256,0L256,0z"/>
</g>
</svg>
