<?xml version="1.0" encoding="utf-8"?>
<!-- Generator: Adobe Illustrator 25.0.0, SVG Export Plug-In . SVG Version: 6.00 Build 0)  -->
<svg version="1.1" id="Layer_1" xmlns="http://www.w3.org/2000/svg" xmlns:xlink="http://www.w3.org/1999/xlink" x="0px" y="0px"
	 viewBox="0 0 512 512" style="enable-background:new 0 0 512 512;" xml:space="preserve">
<style type="text/css">
	.st0{fill:#1B5CFF;}
	.st1{fill:#FFFFFF;}
	.st2{fill:#FF1B36;}
</style>
<g>
	<path class="st0" d="M256,511.8c-61.2,0-120.4-22-166.8-61.8c-4-3.4-8-7.1-11.8-10.8c-24.2-23.6-43.2-51.2-56.5-82.1
		c-13.8-32-20.7-66-20.7-101.1c0-61,21.8-120,61.4-166.2c3.4-4,7-8,10.8-11.8c23.6-24.3,51.3-43.4,82.2-56.8
		C186.7,7.3,220.8,0.2,256,0.2c61.1,0,120.3,21.9,166.6,61.7c3.9,3.4,7.9,7,11.8,10.8c24.2,23.6,43.2,51.2,56.6,82.1
		c13.8,32,20.8,66,20.8,101.1c0,61.4-22.1,120.7-62.2,167.1c-3.4,3.9-7,7.9-10.8,11.8C390.2,484.5,325.3,511.8,256,511.8z"/>
	<path d="M256,0.5c31.1,0,61.5,5.5,90.3,16.4c27.8,10.5,53.5,25.7,76.1,45.2c3.9,3.4,7.9,7,11.8,10.8c24.2,23.6,43.2,51.2,56.5,82
		c13.8,32,20.8,66,20.8,101c0,31.2-5.6,61.7-16.5,90.6c-10.6,27.9-25.9,53.6-45.6,76.3c-3.4,3.9-7,7.9-10.8,11.8
		c-23.5,24-51.1,42.9-81.9,56.1c-31.9,13.7-65.7,20.6-100.7,20.6c-31.1,0-61.5-5.5-90.4-16.5c-27.9-10.5-53.5-25.8-76.2-45.3
		c-4-3.4-8-7.1-11.8-10.8c-24.1-23.5-43.1-51.1-56.4-82C7.5,325,0.5,291.1,0.5,256c0-31,5.5-61.3,16.3-90.1
		c10.5-27.8,25.6-53.4,45-76c3.4-4,7-8,10.8-11.8c23.6-24.3,51.2-43.4,82.1-56.8C186.7,7.5,220.8,0.5,256,0.5 M256,0
		C183.9,0,118.8,29.8,72.2,77.8c-3.7,3.8-7.3,7.8-10.8,11.8C23.1,134.4,0,192.5,0,256c0,71.9,29.6,136.8,77.3,183.3
		c3.8,3.7,7.8,7.3,11.8,10.8C133.9,488.7,192.2,512,256,512c71.7,0,136.5-29.5,182.9-76.9c3.7-3.8,7.4-7.8,10.8-11.8
		C488.5,378.4,512,320,512,256c0-71.9-29.7-136.9-77.4-183.4c-3.8-3.7-7.8-7.3-11.8-10.8C378,23.3,319.7,0,256,0L256,0z"/>
</g>
<g>
	<rect x="208" y="0.5" class="st1" width="16" height="512"/>
</g>
<g>
	<rect x="288" y="0.5" class="st1" width="16" height="512"/>
</g>
<g>
	<rect x="0.6" y="209" class="st1" width="512" height="16"/>
</g>
<g>
	<rect x="0.6" y="288" class="st1" width="512" height="16"/>
</g>
<g>
	
		<rect x="224.3" y="-48.2" transform="matrix(0.7071 -0.7071 0.7071 0.7071 -106.2444 256.2952)" class="st1" width="64" height="609.2"/>
</g>
<g>
	
		<rect x="-61.9" y="224" transform="matrix(0.7071 -0.7071 0.7071 0.7071 -105.8908 256.4416)" class="st1" width="637" height="64"/>
</g>
<g>
	<rect y="224.5" class="st2" width="512" height="64"/>
</g>
<g>
	<rect x="224" class="st2" width="64" height="512"/>
</g>
<g>
	<path class="st2" d="M203.4,209h-22.6L61.5,89.6c3.5-4.1,7.1-8,10.8-11.8L203.4,209z"/>
</g>
<g>
	<path class="st2" d="M208,308.5v22.6L89.1,450.1c-4-3.5-8-7.1-11.8-10.8L208,308.5z"/>
</g>
<g>
	<path class="st2" d="M449.8,423.3c-3.5,4-7.1,8-10.8,11.8L307.9,304h22.6L449.8,423.3z"/>
</g>
<g>
	<path class="st2" d="M434.6,72.6L304,203.2v-22.6L422.8,61.8C426.8,65.2,430.8,68.9,434.6,72.6z"/>
</g>
</svg>
