<?xml version="1.0" encoding="utf-8"?>
<!-- Generator: Adobe Illustrator 25.0.0, SVG Export Plug-In . SVG Version: 6.00 Build 0)  -->
<svg version="1.1" id="Layer_1" xmlns="http://www.w3.org/2000/svg" xmlns:xlink="http://www.w3.org/1999/xlink" x="0px" y="0px"
	 viewBox="0 0 512 512" style="enable-background:new 0 0 512 512;" xml:space="preserve">
<style type="text/css">
	.st0{fill:#FFFFFF;}
	.st1{fill:#FF1B36;}
</style>
<g>
	<path class="st0" d="M256,511.8c-21.7,0-43.2-2.7-63.9-8.1c-37.6-9.7-73.2-28.3-102.8-53.8c-4-3.4-8-7.1-11.8-10.8
		c-33.5-32.6-57.3-73.7-69-118.7C3,299.5,0.2,277.8,0.2,256c0-21.5,2.7-42.8,7.9-63.4c9.6-37.6,28.1-73.2,53.5-102.8
		c3.4-4,7-8,10.8-11.8C105.3,44.1,146.6,20,192.1,8.3C212.8,3,234.3,0.2,256,0.2s43.2,2.7,63.9,8.1C357.5,18,393,36.5,422.6,62
		c3.9,3.4,7.9,7,11.8,10.8c33.8,32.9,57.8,74.3,69.4,119.8c5.3,20.6,7.9,42,7.9,63.4c0,21.9-2.8,43.5-8.2,64.4
		c-9.8,37.6-28.4,73.1-54,102.7c-3.4,3.9-7,7.9-10.8,11.8c-32.7,33.4-73.8,57.2-118.8,68.8C299.2,509,277.7,511.8,256,511.8z"/>
	<path d="M256,0.5c21.6,0,43.1,2.7,63.9,8.1c37.5,9.7,73,28.2,102.6,53.6c3.9,3.4,7.9,7,11.8,10.8c33.8,32.9,57.7,74.3,69.3,119.7
		c5.3,20.6,7.9,41.9,7.9,63.4c0,21.8-2.8,43.5-8.2,64.4c-9.7,37.6-28.4,73-53.9,102.6c-3.4,3.9-7,7.9-10.8,11.8
		c-32.7,33.4-73.7,57.1-118.7,68.7c-20.7,5.3-42.2,8.1-63.9,8.1s-43.1-2.7-63.9-8.1c-37.6-9.7-73.1-28.3-102.7-53.7
		c-4-3.4-8-7.1-11.8-10.8c-33.4-32.6-57.3-73.6-68.9-118.5c-5.4-20.9-8.2-42.6-8.2-64.4c0-21.5,2.7-42.8,7.9-63.4
		c9.6-37.6,28.1-73.1,53.4-102.7c3.4-4,7-8,10.8-11.8c32.8-33.8,74.2-57.9,119.5-69.6C212.9,3.2,234.4,0.5,256,0.5 M256,0
		c-22.1,0-43.5,2.8-64,8.1C145.7,20,104.5,44.5,72.2,77.8c-3.7,3.8-7.3,7.8-10.8,11.8C36.4,118.9,17.8,154,7.9,192.5
		C2.8,212.8,0,234.1,0,256c0,22.3,2.8,43.9,8.2,64.5c11.9,45.9,36.2,86.7,69.1,118.8c3.8,3.7,7.8,7.3,11.8,10.8
		c29.3,25.2,64.3,43.9,102.9,53.8c20.5,5.3,41.9,8.1,64,8.1c22.1,0,43.5-2.8,64-8.1c45.9-11.8,86.8-36,118.9-68.8
		c3.7-3.8,7.4-7.8,10.8-11.8c25.3-29.2,44-64.3,54-102.8c5.4-20.6,8.2-42.2,8.2-64.5c0-21.9-2.8-43.2-8-63.5
		c-11.8-46.3-36.3-87.6-69.5-119.9c-3.8-3.7-7.8-7.3-11.8-10.8C393.5,36.6,358.5,18,320,8.1C299.5,2.8,278.1,0,256,0L256,0z"/>
</g>
<g>
	<path class="st1" d="M512,256c0,22.3-2.8,43.9-8.2,64.5H8.2C2.8,299.9,0,278.3,0,256c0-21.9,2.8-43.2,7.9-63.5H504
		C509.2,212.8,512,234.1,512,256z"/>
</g>
<g>
	<path class="st1" d="M320,8.1v495.9c-20.5,5.3-41.9,8.1-64,8.1c-22.1,0-43.5-2.8-64-8.1V8.1L256,0C278.1,0,299.5,2.8,320,8.1z"/>
</g>
</svg>
