<?xml version="1.0" encoding="utf-8"?>
<!-- Generator: Adobe Illustrator 25.0.0, SVG Export Plug-In . SVG Version: 6.00 Build 0)  -->
<svg version="1.1" xmlns="http://www.w3.org/2000/svg" xmlns:xlink="http://www.w3.org/1999/xlink" x="0px" y="0px"
	 viewBox="0 0 512 512" style="enable-background:new 0 0 512 512;" xml:space="preserve">
<style type="text/css">
	.st0{fill:#464646;}
	.st1{display:none;}
	.st2{display:inline;}
	.st3{fill:#FFFFFF;stroke:#FFFFFF;stroke-width:15;stroke-miterlimit:10;}
	.st4{fill:#FFFFFF;}
</style>
<g id="Layer_1">
	<g>
		<circle class="st0" cx="256" cy="256" r="256"/>
	</g>
</g>
<g id="Layer_2" class="st1">
	<g class="st2">
		<path class="st3" d="M251.5,266.5c4.7-8.2,11.6-17.3,20.6-27c6.9-7.4,12.1-13.9,15.5-19.4c3.4-5.5,5.1-11.7,5.1-18.7
			c0-9.8-3.3-17.7-9.8-23.7c-6.5-6-15.3-9.1-26.3-9.1c-15.3,0-27.9,4.9-37.6,14.6c-6.3,6.3-16.4,6.8-23.4,1.3l-0.4-0.3
			c-8.2-6.4-9.1-18.5-2-26.1c6-6.5,12.8-11.8,20.5-16.1c13.1-7.3,28.5-11,46.2-11c21.6,0,38.7,5.6,51.6,16.9
			c12.8,11.3,19.2,26.8,19.2,46.5c0,9.5-1.3,17.9-3.9,25.1c-2.6,7.2-5.7,13.3-9.4,18.3c-3.7,5-8.5,10.8-14.4,17.3
			C295.5,263,290,270,286.5,276c-1.5,2.6-2.7,5.4-3.6,8.4c-2.2,7.7-9.1,13.2-17.2,13.2h-0.8c-12.3,0-20.9-12.2-16.7-23.8
			C249.1,271.3,250.2,268.8,251.5,266.5z M244.3,373.2c-5.2-5.2-7.8-11.7-7.8-19.4c0-7.7,2.6-14.1,7.8-19.2c5.2-5.1,11.9-7.7,20-7.7
			c7.9,0,14.5,2.6,19.7,7.7c5.2,5.1,7.8,11.5,7.8,19.2c0,7.7-2.6,14.1-7.8,19.4c-5.2,5.2-11.8,7.8-19.7,7.8
			C256.2,381,249.6,378.4,244.3,373.2z"/>
	</g>
</g>
<g id="Layer_3" class="st1">
	<g id="g3027" transform="matrix(1,0,0,-1,121.49153,1285.4237)" class="st2">
		<path id="path3029" class="st4" d="M184.5,1029.4c0,13.8-4.9,25.6-14.6,35.4s-21.5,14.6-35.4,14.6s-25.6-4.9-35.4-14.6
			s-14.6-21.5-14.6-35.4c0-13.8,4.9-25.6,14.6-35.4s21.5-14.6,35.4-14.6s25.6,4.9,35.4,14.6S184.5,1015.6,184.5,1029.4z
			 M284.5,1050.7v-43.4c0-1.6-0.5-3.1-1.6-4.5c-1-1.4-2.3-2.3-3.9-2.5l-36.1-5.5c-2.5-7-5-13-7.6-17.8c4.6-6.5,11.5-15.5,20.9-27
			c1.3-1.6,2-3.2,2-4.9s-0.6-3.2-1.8-4.5c-3.5-4.8-10-11.8-19.3-21.1s-15.5-13.9-18.4-13.9c-1.6,0-3.3,0.6-5.1,1.8l-27,21.1
			c-5.7-3-11.7-5.5-17.8-7.4c-2.1-17.7-4-29.8-5.7-36.3c-0.9-3.6-3.3-5.5-7-5.5h-43.4c-1.8,0-3.4,0.6-4.8,1.7s-2.1,2.5-2.2,4.2
			l-5.5,35.9c-6.4,2.1-12.2,4.5-17.6,7.2l-27.5-20.9c-1.3-1.2-2.9-1.8-4.9-1.8c-1.8,0-3.5,0.7-4.9,2.1
			c-16.4,14.8-27.1,25.8-32.2,32.8c-0.9,1.3-1.4,2.8-1.4,4.5c0,1.6,0.5,3.1,1.6,4.5c2,2.7,5.3,7.1,10,13s8.2,10.5,10.5,13.8
			c-3.5,6.5-6.2,13-8,19.3l-35.7,5.3c-1.7,0.3-3.1,1.1-4.1,2.4s-1.6,2.9-1.6,4.6v43.4c0,1.6,0.5,3.1,1.6,4.5s2.3,2.3,3.7,2.5
			l36.3,5.5c1.8,6,4.4,12,7.6,18c-5.2,7.4-12.2,16.4-20.9,27c-1.3,1.6-2,3.1-2,4.7c0,1.3,0.6,2.8,1.8,4.5c3.4,4.7,9.8,11.7,19.2,21
			s15.6,14,18.5,14c1.7,0,3.4-0.7,5.1-2l27-20.9c5.7,3,11.7,5.5,17.8,7.4c2.1,17.7,4,29.8,5.7,36.3c0.9,3.6,3.3,5.5,7,5.5h43.4
			c1.8,0,3.4-0.6,4.8-1.7s2.1-2.5,2.2-4.2l5.5-35.9c6.4-2.1,12.2-4.5,17.6-7.2l27.7,20.9c1.2,1.2,2.7,1.8,4.7,1.8
			c1.7,0,3.3-0.7,4.9-2c16.8-15.5,27.5-26.6,32.2-33.2c0.9-1,1.4-2.5,1.4-4.3c0-1.6-0.5-3.1-1.6-4.5c-2-2.7-5.3-7.1-10-13
			s-8.2-10.5-10.5-13.8c3.4-6.5,6.1-12.9,8-19.1l35.7-5.5c1.7-0.3,3.1-1.1,4.1-2.4C284,1053.9,284.5,1052.4,284.5,1050.7z"/>
	</g>
</g>
<g id="Layer_4">
	<g>
		<path class="st4" d="M306.6,308.1c-3.6,0-7.3-1.4-10.1-4.2c-5.6-5.6-5.6-14.6,0-20.1l13.7-13.7H256c-7.9,0-14.2-6.4-14.2-14.2
			c0-7.9,6.4-14.2,14.2-14.2h54.2l-13.7-13.7c-5.6-5.6-5.6-14.6,0-20.1c5.6-5.6,14.6-5.6,20.1,0l37.9,37.9c1.4,1.4,2.4,2.9,3.1,4.6
			c0.7,1.6,1.1,3.5,1.1,5.4c0,0,0,0,0,0s0,0,0,0c0,0,0,0,0,0c0,0,0,0.1,0,0.1c0,0,0,0,0,0s0,0,0,0c0,0,0,0,0,0
			c0,1.9-0.4,3.7-1.1,5.4c-0.7,1.6-1.6,3.1-2.9,4.5l0,0c0,0,0,0,0,0l0,0c0,0,0,0,0,0l0,0c0,0,0,0,0,0l0,0c0,0,0,0,0,0c0,0,0,0,0,0
			l0,0c0,0-0.1,0.1-0.1,0.1L316.6,304C313.8,306.8,310.2,308.1,306.6,308.1z"/>
	</g>
	<g>
		<path class="st4" d="M319.2,384H192.8c-21.8,0-39.5-17.7-39.5-39.5v-177c0-21.8,17.7-39.5,39.5-39.5h126.4
			c21.8,0,39.5,17.7,39.5,39.5v12.6c0,7.9-6.4,14.2-14.2,14.2s-14.2-6.4-14.2-14.2v-12.6c0-6.1-5-11.1-11.1-11.1H192.8
			c-6.1,0-11.1,5-11.1,11.1v177c0,6.1,5,11.1,11.1,11.1h126.4c6.1,0,11.1-5,11.1-11.1v-12.6c0-7.9,6.4-14.2,14.2-14.2
			s14.2,6.4,14.2,14.2v12.6C358.7,366.3,341,384,319.2,384z"/>
	</g>
</g>
</svg>
