<?xml version="1.0" encoding="utf-8"?>
<!-- Generator: Adobe Illustrator 25.0.0, SVG Export Plug-In . SVG Version: 6.00 Build 0)  -->
<svg version="1.1" id="Layer_2" xmlns="http://www.w3.org/2000/svg" xmlns:xlink="http://www.w3.org/1999/xlink" x="0px" y="0px"
	 viewBox="0 0 319.7 319.7" style="enable-background:new 0 0 319.7 319.7;" xml:space="preserve">
<g>
	<path d="M319.6,150.8c-0.1-0.3-0.2-0.5-0.2-0.8c-0.1-0.2-0.1-0.5-0.2-0.5c-3.8-33.3-19.8-59.4-47.5-77.7c-7.1-4.7-15-8.1-22.5-11
		c-5.2-2-10.8-1.2-15,2.3c-4.3,3.5-6.3,9.2-5.3,14.8c1.4,7.6,7.3,10.6,11.6,12.2c34.4,12.8,54.2,48,47.3,83.6
		c-5.4,27.5-21.9,46.6-49,56.7c-8.9,3.3-13.2,11.6-10.3,19.8c1.4,4,4.2,7.1,7.8,8.8c2,0.9,4.2,1.4,6.5,1.4c2,0,4.1-0.4,6.2-1.1
		c34.5-12.7,57.1-36.9,67.1-71.9c1.2-4.3,2-8.8,2.7-13c0.3-1.9,0.6-3.8,1-5.7l0.1-0.4v-16.8L319.6,150.8z"/>
	<path d="M219.5,210.2l0-100.9c0-7.1,0-14.1,0-21.2c0-16.8,0-34.2-0.1-51.3c-0.1-14.8-6.7-26-19-32.3c-11.7-5.9-23.3-4.5-35.6,4.4
		c-30.3,21.9-61.2,44-91.1,65.3L68.2,78c-0.6,0.4-1.6,0.8-2.4,0.8c-4.6,0.1-9.3,0-13.9,0c-6.3,0-12.8-0.1-19.2,0.1
		C19.2,79.3,8.9,86.1,3,98.6c-1,2-1.5,4-2.1,6c-0.2,0.8-0.4,1.6-0.7,2.3L0,107.6v105l0.5,1c0,0.1,0.1,0.1,0.1,0.2
		c4.3,17.4,16.6,27,34.6,27c2.8,0,5.6,0,8.4,0c7.3,0,14.8,0,22.2,0.1c0.7,0,1.8,0.4,2.4,0.8c10.7,7.6,21.6,15.4,32.1,22.9l7.8,5.6
		c6.1,4.4,12.3,8.8,18.4,13.2c13.2,9.5,26.8,19.2,40.2,28.8c6,4.3,12.9,6.5,19.7,6.5c2.9,0,5.7-0.4,8.5-1.2c9.3-2.7,17-9.6,21-19
		c2.6-6.2,3.2-12.5,3.3-16.7c0.2-17.6,0.2-35.5,0.2-52.9C219.5,222.7,219.5,216.4,219.5,210.2z M188.7,142.5v36.3
		c0,34.2,0,68.4,0,102.6v0.1c0,1.4,0,2.8-0.3,3.8c-0.4,1.6-1.1,2.4-1.6,2.6c-0.4,0.2-1.5,0-2.9-1c-24.6-17.6-105.8-75.8-105.8-75.8
		l-1.2-0.9l-1.5,0c-0.4,0-36.7,0-41.1,0c-3.3,0-3.8-0.8-3.8-3.6c0-30.4,0-61.8,0-93.4c0-3,0.6-3.6,3.7-3.6c6.4,0,40.8,0,41.2,0
		l1.5,0l1.2-0.9c0,0,73.6-52.7,105.7-75.7c1.3-0.9,2.5-1.3,3.2-0.9c0.8,0.3,1.4,1.5,1.6,3.1c0.1,0.8,0.1,1.7,0.1,2.7l0,0.9
		C188.7,73.3,188.7,107.9,188.7,142.5z"/>
</g>
</svg>
