<?xml version="1.0" encoding="utf-8"?>
<!-- Generator: Adobe Illustrator 25.0.0, SVG Export Plug-In . SVG Version: 6.00 Build 0)  -->
<svg version="1.1" xmlns="http://www.w3.org/2000/svg" xmlns:xlink="http://www.w3.org/1999/xlink" x="0px" y="0px"
	 viewBox="0 0 512 512" style="enable-background:new 0 0 512 512;" xml:space="preserve">
<style type="text/css">
	.st0{fill:#464646;}
	.st1{display:none;}
	.st2{display:inline;}
	.st3{fill:#FFFFFF;}
</style>
<g id="Layer_1">
	<g>
		<circle class="st0" cx="256" cy="256" r="256"/>
	</g>
</g>
<g id="Layer_2" class="st1">
	<g class="st2">
		<path class="st3" d="M260.6,317.5c-9.3,0-17.1,3-23.2,9c-6.2,6-9.3,13.6-9.3,22.6c0,8.9,3.1,16.5,9.2,22.7h0
			c6.1,6.1,14,9.2,23.3,9.2c9.1,0,16.9-3.1,23-9.2c6.1-6.1,9.2-13.7,9.2-22.7c0-8.9-3.1-16.5-9.3-22.6
			C277.4,320.6,269.7,317.5,260.6,317.5z"/>
		<path class="st3" d="M308.3,148.3c-13-11.5-30.5-17.3-51.9-17.3c-17.4,0-32.8,3.7-45.8,11c-7.6,4.3-14.5,9.7-20.5,16.2
			c-4.4,4.7-6.6,11.2-6.1,17.6c0.5,6.5,3.7,12.5,8.8,16.5l0.4,0.3c9.2,7.2,22.4,6.5,30.6-1.7c7.7-7.7,17.4-11.4,29.7-11.4
			c8.4,0,14.7,2.1,19.5,6.5c4.6,4.2,6.8,9.7,6.8,16.7c0,5.2-1.2,9.6-3.6,13.5c-2.8,4.6-7.3,10.2-13.4,16.7
			c-8.6,9.3-15.3,18.1-19.9,26.1c-1.4,2.5-2.6,5.1-3.6,7.9c-2.5,7.1-1.5,15,2.9,21.2c4.3,6.2,11.4,9.9,19,9.9h0.8
			c10.5,0,19.5-6.9,22.4-17.1c0.6-2.2,1.5-4.3,2.6-6.1c3-5.1,7.8-11.2,14.1-18.1c5.6-6.1,10.3-11.7,13.8-16.5
			c3.7-5.1,7-11.4,9.5-18.6c2.6-7.3,4-15.9,4-25.4C328.3,176.1,321.5,159.9,308.3,148.3z"/>
	</g>
</g>
<g id="Layer_3" class="st1">
	<g id="g3027" transform="matrix(1,0,0,-1,121.49153,1285.4237)" class="st2">
		<path id="path3029" class="st3" d="M184.5,1029.4c0,13.8-4.9,25.6-14.6,35.4s-21.5,14.6-35.4,14.6s-25.6-4.9-35.4-14.6
			s-14.6-21.5-14.6-35.4c0-13.8,4.9-25.6,14.6-35.4s21.5-14.6,35.4-14.6s25.6,4.9,35.4,14.6S184.5,1015.6,184.5,1029.4z
			 M284.5,1050.7v-43.4c0-1.6-0.5-3.1-1.6-4.5c-1-1.4-2.3-2.3-3.9-2.5l-36.1-5.5c-2.5-7-5-13-7.6-17.8c4.6-6.5,11.5-15.5,20.9-27
			c1.3-1.6,2-3.2,2-4.9s-0.6-3.2-1.8-4.5c-3.5-4.8-10-11.8-19.3-21.1s-15.5-13.9-18.4-13.9c-1.6,0-3.3,0.6-5.1,1.8l-27,21.1
			c-5.7-3-11.7-5.5-17.8-7.4c-2.1-17.7-4-29.8-5.7-36.3c-0.9-3.6-3.3-5.5-7-5.5h-43.4c-1.8,0-3.4,0.6-4.8,1.7s-2.1,2.5-2.2,4.2
			l-5.5,35.9c-6.4,2.1-12.2,4.5-17.6,7.2l-27.5-20.9c-1.3-1.2-2.9-1.8-4.9-1.8c-1.8,0-3.5,0.7-4.9,2.1
			c-16.4,14.8-27.1,25.8-32.2,32.8c-0.9,1.3-1.4,2.8-1.4,4.5c0,1.6,0.5,3.1,1.6,4.5c2,2.7,5.3,7.1,10,13s8.2,10.5,10.5,13.8
			c-3.5,6.5-6.2,13-8,19.3l-35.7,5.3c-1.7,0.3-3.1,1.1-4.1,2.4s-1.6,2.9-1.6,4.6v43.4c0,1.6,0.5,3.1,1.6,4.5s2.3,2.3,3.7,2.5
			l36.3,5.5c1.8,6,4.4,12,7.6,18c-5.2,7.4-12.2,16.4-20.9,27c-1.3,1.6-2,3.1-2,4.7c0,1.3,0.6,2.8,1.8,4.5c3.4,4.7,9.8,11.7,19.2,21
			s15.6,14,18.5,14c1.7,0,3.4-0.7,5.1-2l27-20.9c5.7,3,11.7,5.5,17.8,7.4c2.1,17.7,4,29.8,5.7,36.3c0.9,3.6,3.3,5.5,7,5.5h43.4
			c1.8,0,3.4-0.6,4.8-1.7s2.1-2.5,2.2-4.2l5.5-35.9c6.4-2.1,12.2-4.5,17.6-7.2l27.7,20.9c1.2,1.2,2.7,1.8,4.7,1.8
			c1.7,0,3.3-0.7,4.9-2c16.8-15.5,27.5-26.6,32.2-33.2c0.9-1,1.4-2.5,1.4-4.3c0-1.6-0.5-3.1-1.6-4.5c-2-2.7-5.3-7.1-10-13
			s-8.2-10.5-10.5-13.8c3.4-6.5,6.1-12.9,8-19.1l35.7-5.5c1.7-0.3,3.1-1.1,4.1-2.4C284,1053.9,284.5,1052.4,284.5,1050.7z"/>
	</g>
</g>
<g id="Layer_4" class="st1">
	<g class="st2">
		<path class="st3" d="M306.6,308.1c-3.6,0-7.3-1.4-10.1-4.2c-5.6-5.6-5.6-14.6,0-20.1l13.7-13.7H256c-7.9,0-14.2-6.4-14.2-14.2
			c0-7.9,6.4-14.2,14.2-14.2h54.2l-13.7-13.7c-5.6-5.6-5.6-14.6,0-20.1c5.6-5.6,14.6-5.6,20.1,0l37.9,37.9c1.4,1.4,2.4,2.9,3.1,4.6
			c0.7,1.6,1.1,3.5,1.1,5.4c0,0,0,0,0,0s0,0,0,0c0,0,0,0,0,0c0,0,0,0.1,0,0.1c0,0,0,0,0,0s0,0,0,0c0,0,0,0,0,0
			c0,1.9-0.4,3.7-1.1,5.4c-0.7,1.6-1.6,3.1-2.9,4.5l0,0c0,0,0,0,0,0l0,0c0,0,0,0,0,0l0,0c0,0,0,0,0,0l0,0c0,0,0,0,0,0c0,0,0,0,0,0
			l0,0c0,0-0.1,0.1-0.1,0.1L316.6,304C313.8,306.8,310.2,308.1,306.6,308.1z"/>
	</g>
	<g class="st2">
		<path class="st3" d="M319.2,384H192.8c-21.8,0-39.5-17.7-39.5-39.5v-177c0-21.8,17.7-39.5,39.5-39.5h126.4
			c21.8,0,39.5,17.7,39.5,39.5v12.6c0,7.9-6.4,14.2-14.2,14.2s-14.2-6.4-14.2-14.2v-12.6c0-6.1-5-11.1-11.1-11.1H192.8
			c-6.1,0-11.1,5-11.1,11.1v177c0,6.1,5,11.1,11.1,11.1h126.4c6.1,0,11.1-5,11.1-11.1v-12.6c0-7.9,6.4-14.2,14.2-14.2
			s14.2,6.4,14.2,14.2v12.6C358.7,366.3,341,384,319.2,384z"/>
	</g>
</g>
<g id="Layer_5">
	<g>
		<path class="st3" d="M325,174.7c0.2,37.7-30.8,68.9-68.8,69.1c-37.9,0.2-69.3-31.1-69.2-69.1c0.1-38,30.9-68.8,69-68.8
			C293.9,106,324.8,136.7,325,174.7z"/>
		<path class="st3" d="M364,330.8c-7.8-31.9-35.1-53.1-68.7-53.3c-6.1-0.1-22.2-0.2-39.3-0.1c-17.1,0-33.2,0.1-39.3,0.1
			c-33.6,0.3-60.9,21.4-68.7,53.3c-2.8,11.3-4.3,23,3.5,32.8c4.6,5.8,10.8,10.7,17,14.9c26.9,18.5,56.1,27.6,87.5,27.4
			c31.4,0.2,60.6-9,87.5-27.4c6.2-4.3,12.3-9.1,17-14.9C368.3,353.8,366.8,342.1,364,330.8z"/>
	</g>
</g>
</svg>
