<?xml version="1.0" encoding="utf-8"?>
<!-- Generator: Adobe Illustrator 25.0.0, SVG Export Plug-In . SVG Version: 6.00 Build 0)  -->
<svg version="1.1" id="Layer_1" xmlns="http://www.w3.org/2000/svg" xmlns:xlink="http://www.w3.org/1999/xlink" x="0px" y="0px"
	 viewBox="0 0 401.4 371.9" style="enable-background:new 0 0 401.4 371.9;" xml:space="preserve">
<style type="text/css">
	.st0{opacity:0.25;}
</style>
<path class="st0" d="M354.9,371.9L354.9,371.9c-25.7,0-46.6-20.8-46.6-46.6V46.6c0-25.7,20.8-46.6,46.6-46.6h0
	c25.7,0,46.6,20.8,46.6,46.6v278.7C401.4,351,380.6,371.9,354.9,371.9z"/>
<path d="M200.7,371.9L200.7,371.9c-25.7,0-46.6-20.8-46.6-46.6V150.4c0-25.7,20.8-46.6,46.6-46.6h0c25.7,0,46.6,20.8,46.6,46.6
	v174.9C247.3,351,226.4,371.9,200.7,371.9z"/>
<path d="M46.6,371.9L46.6,371.9C20.8,371.9,0,351,0,325.3l0-71c0-25.7,20.8-46.6,46.6-46.6h0c25.7,0,46.6,20.8,46.6,46.6v71
	C93.1,351,72.3,371.9,46.6,371.9z"/>
</svg>
