<?xml version="1.0" encoding="utf-8"?>
<!-- Generator: Adobe Illustrator 25.0.0, SVG Export Plug-In . SVG Version: 6.00 Build 0)  -->
<svg version="1.1" id="visual" xmlns="http://www.w3.org/2000/svg" xmlns:xlink="http://www.w3.org/1999/xlink" x="0px" y="0px"
	 viewBox="0 0 900 600" style="enable-background:new 0 0 900 600;" xml:space="preserve">
<style type="text/css">
	.st0{opacity:0.75;}
	.st1{fill:#FFFFFF;}
	.st2{fill:#F8F8F7;}
	.st3{fill:#F1F0F0;}
	.st4{fill:#EAE9E8;}
	.st5{fill:#E3E2E1;}
	.st6{fill:#DDDBD9;}
	.st7{fill:#D6D4D2;}
</style>
<g class="st0">
	<rect class="st1" width="900" height="600"/>
	<path class="st2" d="M900,281.2V600H0V281c49.2,0,86,10.1,128.8,28.3c42.9,18.2,85.5,49.5,128.4,67.6c5.1,2.2,10.2,4.1,15.4,5.9
		c37.7,13,75.5,15.4,113.2,5.1c21.7-5.9,43.3-16,64.9-25.8c8.7-3.9,17.4-7.8,26.1-11.4c12.4-5.1,24.9-8.8,37.4-11.6
		c42.8-9.7,85.8-1.1,128.6-2.5c42.9-1.5,85.5-13,128.4-24.3C814,300.8,852,281.2,900,281.2z"/>
	<path class="st3" d="M900,340.1V600H0V340c30,5,86,15.7,128.8,30.6c42.9,15,85.5,28.7,128.4,17.3c5.1-1.4,10.2-3.1,15.4-5.1
		c37.7-14.5,75.5-42.6,113.2-42.1c21.7,0.3,43.3,10,64.9,21.3c8.7,4.6,17.4,9.4,26.1,14c12.4,6.6,24.9,13.3,37.4,17.4
		c42.8,14.1,85.8,4.8,128.6-11.4c42.9-16,85.5-38.7,128.4-46.8c42.8-8.1,85.8-1.6,107.3,1.6L900,340.1z"/>
	<path class="st4" d="M900,394.2V600H0V394.1c56.2,5.7,70.3,19.1,109.8,19.1c51.4,0,104.5-19.3,147.4-15.9
		c42.8,3.5,85.8,6.3,128.6,2.7c29.5-2.5,58.9-8,88.3-8c0.9,0,1.8,0,2.7,0c12.5,0.2,24.9,2,37.4,4.9c40.3,9.4,80.8,20.2,121.2,24.8
		c2.5,0.3,4.9,0.5,7.4,0.6c10.7,0.5,21.3-0.8,32-3.2c32.1-7.2,63.1-14.5,96.4-17.1c44.1-3.4,85.8-10,107.3-8.9L900,394.2z"/>
	<path class="st5" d="M900,487.8V600H0V487.6c46,0,86-10.8,128.8-20.8c42.9-9.8,85.5-24.3,128.4-29.3c42.8-5.1,85.8-0.8,128.6,11.1
		c15.2,4.2,30.4,9.4,45.5,14.1c15.2,4.7,30.3,9,45.5,11.4c12.5,2,24.9,3.3,37.4,2c40.3-4.2,80.8-29.8,121.2-38.2
		c2.5-0.5,4.9-1,7.4-1.4c10.7-1.7,21.3-2,32-1.3c32.1,2.1,64.2,13.4,96.4,24.5C814,474.6,851.7,487.8,900,487.8z"/>
	<path class="st6" d="M900,511.6V600H0v-88.6c31.5,0,86-18.7,128.8-23c42.9-4.3,85.5-3.7,128.4,2.3c42.8,5.9,85.8,17.2,128.6,17.2
		c15.2,0,30.4-1.4,45.5-3.7c15.2-2.3,30.3-5.4,45.5-8.8c12.5-2.8,24.9-5.2,37.4-8.1c42.8-10.1,85.8-19.1,128.6-19.5
		c42.9-0.3,85.5,7.9,128.4,18.4C814,496.6,867.9,511.6,900,511.6z"/>
	<path class="st7" d="M900,528.9V600H0v-71.3c28.1-5.8,86-5.1,128.8,1.1c42.9,6.2,85.5,20.9,128.4,24.9c42.8,4,85.8-2.9,128.6-12.1
		c15.2-3.3,30.4-6.8,45.5-9.8c15.2-3,30.3-5.5,45.5-6.5c12.5-0.9,24.9-0.2,37.4,1.2c42.8,4.9,85.8,26.1,128.6,35.3
		c42.9,9.2,85.5,6.4,128.4-1.7C814,552.9,863,534.8,900,528.9z"/>
</g>
</svg>
